G04 #@! TF.FileFunction,Copper,L2,Bot,Signal*
%FSLAX46Y46*%
G04 Gerber Fmt 4.6, Leading zero omitted, Abs format (unit mm)*
G04 Created by KiCad (PCBNEW 4.0.7-e2-6376~58~ubuntu17.04.1) date Wed Oct  4 00:26:39 2017*
%MOMM*%
%LPD*%
G01*
G04 APERTURE LIST*
%ADD10C,0.100000*%
%ADD11C,1.450000*%
%ADD12O,1.900000X1.200000*%
%ADD13R,1.700000X1.700000*%
%ADD14O,1.700000X1.700000*%
%ADD15C,0.600000*%
%ADD16C,0.250000*%
%ADD17C,0.254000*%
G04 APERTURE END LIST*
D10*
D11*
X150940000Y-107990000D03*
X150940000Y-112990000D03*
D12*
X148240000Y-106990000D03*
X148240000Y-113990000D03*
D13*
X149225000Y-96520000D03*
D14*
X151765000Y-96520000D03*
X154305000Y-96520000D03*
X156845000Y-96520000D03*
X159385000Y-96520000D03*
X161925000Y-96520000D03*
X164465000Y-96520000D03*
X167005000Y-96520000D03*
D13*
X149225000Y-125730000D03*
D14*
X151765000Y-125730000D03*
X154305000Y-125730000D03*
X156845000Y-125730000D03*
X159385000Y-125730000D03*
X161925000Y-125730000D03*
X164465000Y-125730000D03*
X167005000Y-125730000D03*
D13*
X165100000Y-118110000D03*
D14*
X165100000Y-120650000D03*
X162560000Y-118110000D03*
X162560000Y-120650000D03*
X160020000Y-118110000D03*
X160020000Y-120650000D03*
X157480000Y-118110000D03*
X157480000Y-120650000D03*
X154940000Y-118110000D03*
X154940000Y-120650000D03*
D13*
X170180000Y-100965000D03*
D14*
X170180000Y-103505000D03*
X170180000Y-106045000D03*
X170180000Y-108585000D03*
X170180000Y-111125000D03*
X170180000Y-113665000D03*
X170180000Y-116205000D03*
X170180000Y-118745000D03*
X170180000Y-121285000D03*
D15*
X166912100Y-101998200D03*
X159472500Y-106208200D03*
X163672700Y-104327000D03*
X164465000Y-106045000D03*
X165017400Y-109397300D03*
X163390600Y-106519100D03*
X152152100Y-111782400D03*
X164965800Y-100083900D03*
X161911100Y-105729800D03*
X162347800Y-100631500D03*
X161401000Y-103162000D03*
D16*
X162555200Y-106355100D02*
X166912100Y-101998200D01*
X159619400Y-106355100D02*
X162555200Y-106355100D01*
X159472500Y-106208200D02*
X159619400Y-106355100D01*
X163390600Y-106519100D02*
X163669100Y-106519100D01*
X164465000Y-108844900D02*
X165017400Y-109397300D01*
X164465000Y-107315000D02*
X164465000Y-108844900D01*
X163669100Y-106519100D02*
X164465000Y-107315000D01*
X160745000Y-104563700D02*
X161911100Y-105729800D01*
X160745000Y-102234300D02*
X160745000Y-104563700D01*
X162347800Y-100631500D02*
X160745000Y-102234300D01*
X161195300Y-117742700D02*
X161195300Y-118110000D01*
X164003000Y-114935000D02*
X161195300Y-117742700D01*
X170632500Y-114935000D02*
X164003000Y-114935000D01*
X171371000Y-114196500D02*
X170632500Y-114935000D01*
X171371000Y-102964000D02*
X171371000Y-114196500D01*
X170547300Y-102140300D02*
X171371000Y-102964000D01*
X170180000Y-102140300D02*
X170547300Y-102140300D01*
X170180000Y-100965000D02*
X170180000Y-102140300D01*
X160020000Y-118110000D02*
X161195300Y-118110000D01*
X158655300Y-117742700D02*
X158655300Y-118110000D01*
X162733000Y-113665000D02*
X158655300Y-117742700D01*
X170180000Y-113665000D02*
X162733000Y-113665000D01*
X157480000Y-118110000D02*
X158655300Y-118110000D01*
X156115300Y-117742700D02*
X156115300Y-118110000D01*
X162733000Y-111125000D02*
X156115300Y-117742700D01*
X170180000Y-111125000D02*
X162733000Y-111125000D01*
X154940000Y-118110000D02*
X156115300Y-118110000D01*
X163212800Y-101350200D02*
X161401000Y-103162000D01*
X167217200Y-101350200D02*
X163212800Y-101350200D01*
X169004700Y-103137700D02*
X167217200Y-101350200D01*
X169004700Y-103505000D02*
X169004700Y-103137700D01*
X170180000Y-103505000D02*
X169004700Y-103505000D01*
D17*
G36*
X171375000Y-97449092D02*
X171375000Y-99582188D01*
X171281890Y-99518569D01*
X171030000Y-99467560D01*
X169330000Y-99467560D01*
X169094683Y-99511838D01*
X168878559Y-99650910D01*
X168733569Y-99863110D01*
X168682560Y-100115000D01*
X168682560Y-101740758D01*
X167754601Y-100812799D01*
X167508039Y-100648052D01*
X167217200Y-100590200D01*
X163282837Y-100590200D01*
X163282962Y-100446333D01*
X163140917Y-100102557D01*
X162878127Y-99839308D01*
X162534599Y-99696662D01*
X162162633Y-99696338D01*
X161818857Y-99838383D01*
X161555608Y-100101173D01*
X161412962Y-100444701D01*
X161412921Y-100491576D01*
X160207599Y-101696899D01*
X160042852Y-101943461D01*
X159985000Y-102234300D01*
X159985000Y-104563700D01*
X160042852Y-104854539D01*
X160207599Y-105101101D01*
X160701598Y-105595100D01*
X160181607Y-105595100D01*
X160002827Y-105416008D01*
X159659299Y-105273362D01*
X159287333Y-105273038D01*
X158943557Y-105415083D01*
X158680308Y-105677873D01*
X158537662Y-106021401D01*
X158537338Y-106393367D01*
X158679383Y-106737143D01*
X158942173Y-107000392D01*
X159285701Y-107143038D01*
X159657667Y-107143362D01*
X159726066Y-107115100D01*
X162555200Y-107115100D01*
X162846039Y-107057248D01*
X163092601Y-106892501D01*
X167051780Y-102933322D01*
X167097267Y-102933362D01*
X167441043Y-102791317D01*
X167512341Y-102720143D01*
X168244700Y-103452502D01*
X168244700Y-103505000D01*
X168302552Y-103795839D01*
X168467299Y-104042401D01*
X168713861Y-104207148D01*
X168892077Y-104242598D01*
X169100853Y-104555054D01*
X169430026Y-104775000D01*
X169100853Y-104994946D01*
X168778946Y-105476715D01*
X168665907Y-106045000D01*
X168778946Y-106613285D01*
X169100853Y-107095054D01*
X169430026Y-107315000D01*
X169100853Y-107534946D01*
X168778946Y-108016715D01*
X168665907Y-108585000D01*
X168778946Y-109153285D01*
X169100853Y-109635054D01*
X169430026Y-109855000D01*
X169100853Y-110074946D01*
X168907046Y-110365000D01*
X162733000Y-110365000D01*
X162442161Y-110422852D01*
X162195599Y-110587599D01*
X155847558Y-116935640D01*
X155508285Y-116708946D01*
X154940000Y-116595907D01*
X154371715Y-116708946D01*
X153889946Y-117030853D01*
X153568039Y-117512622D01*
X153455000Y-118080907D01*
X153455000Y-118139093D01*
X153568039Y-118707378D01*
X153889946Y-119189147D01*
X154173101Y-119378345D01*
X154173076Y-119378355D01*
X153744817Y-119768642D01*
X153498514Y-120293108D01*
X153619181Y-120523000D01*
X154813000Y-120523000D01*
X154813000Y-120503000D01*
X155067000Y-120503000D01*
X155067000Y-120523000D01*
X157353000Y-120523000D01*
X157353000Y-120503000D01*
X157607000Y-120503000D01*
X157607000Y-120523000D01*
X159893000Y-120523000D01*
X159893000Y-120503000D01*
X160147000Y-120503000D01*
X160147000Y-120523000D01*
X162433000Y-120523000D01*
X162433000Y-120503000D01*
X162687000Y-120503000D01*
X162687000Y-120523000D01*
X162707000Y-120523000D01*
X162707000Y-120777000D01*
X162687000Y-120777000D01*
X162687000Y-121970155D01*
X162916890Y-122091476D01*
X163326924Y-121921645D01*
X163755183Y-121531358D01*
X163822298Y-121388447D01*
X164049946Y-121729147D01*
X164531715Y-122051054D01*
X165100000Y-122164093D01*
X165668285Y-122051054D01*
X166150054Y-121729147D01*
X166471961Y-121247378D01*
X166585000Y-120679093D01*
X166585000Y-120620907D01*
X166471961Y-120052622D01*
X166150054Y-119570853D01*
X166148821Y-119570029D01*
X166185317Y-119563162D01*
X166401441Y-119424090D01*
X166546431Y-119211890D01*
X166597440Y-118960000D01*
X166597440Y-117260000D01*
X166553162Y-117024683D01*
X166414090Y-116808559D01*
X166201890Y-116663569D01*
X165950000Y-116612560D01*
X164250000Y-116612560D01*
X164014683Y-116656838D01*
X163798559Y-116795910D01*
X163653569Y-117008110D01*
X163639914Y-117075541D01*
X163610054Y-117030853D01*
X163233532Y-116779270D01*
X164317802Y-115695000D01*
X168767352Y-115695000D01*
X168665907Y-116205000D01*
X168778946Y-116773285D01*
X169100853Y-117255054D01*
X169441553Y-117482702D01*
X169298642Y-117549817D01*
X168908355Y-117978076D01*
X168738524Y-118388110D01*
X168859845Y-118618000D01*
X170053000Y-118618000D01*
X170053000Y-118598000D01*
X170307000Y-118598000D01*
X170307000Y-118618000D01*
X170327000Y-118618000D01*
X170327000Y-118872000D01*
X170307000Y-118872000D01*
X170307000Y-118892000D01*
X170053000Y-118892000D01*
X170053000Y-118872000D01*
X168859845Y-118872000D01*
X168738524Y-119101890D01*
X168908355Y-119511924D01*
X169298642Y-119940183D01*
X169441553Y-120007298D01*
X169100853Y-120234946D01*
X168778946Y-120716715D01*
X168665907Y-121285000D01*
X168778946Y-121853285D01*
X169100853Y-122335054D01*
X169582622Y-122656961D01*
X170150907Y-122770000D01*
X170209093Y-122770000D01*
X170777378Y-122656961D01*
X171259147Y-122335054D01*
X171375000Y-122161667D01*
X171375000Y-125435909D01*
X169250908Y-127560000D01*
X147395000Y-127560000D01*
X147395000Y-124880000D01*
X147727560Y-124880000D01*
X147727560Y-126580000D01*
X147771838Y-126815317D01*
X147910910Y-127031441D01*
X148123110Y-127176431D01*
X148375000Y-127227440D01*
X150075000Y-127227440D01*
X150310317Y-127183162D01*
X150526441Y-127044090D01*
X150671431Y-126831890D01*
X150685086Y-126764459D01*
X150714946Y-126809147D01*
X151196715Y-127131054D01*
X151765000Y-127244093D01*
X152333285Y-127131054D01*
X152815054Y-126809147D01*
X153035000Y-126479974D01*
X153254946Y-126809147D01*
X153736715Y-127131054D01*
X154305000Y-127244093D01*
X154873285Y-127131054D01*
X155355054Y-126809147D01*
X155575000Y-126479974D01*
X155794946Y-126809147D01*
X156276715Y-127131054D01*
X156845000Y-127244093D01*
X157413285Y-127131054D01*
X157895054Y-126809147D01*
X158115000Y-126479974D01*
X158334946Y-126809147D01*
X158816715Y-127131054D01*
X159385000Y-127244093D01*
X159953285Y-127131054D01*
X160435054Y-126809147D01*
X160655000Y-126479974D01*
X160874946Y-126809147D01*
X161356715Y-127131054D01*
X161925000Y-127244093D01*
X162493285Y-127131054D01*
X162975054Y-126809147D01*
X163195000Y-126479974D01*
X163414946Y-126809147D01*
X163896715Y-127131054D01*
X164465000Y-127244093D01*
X165033285Y-127131054D01*
X165515054Y-126809147D01*
X165735000Y-126479974D01*
X165954946Y-126809147D01*
X166436715Y-127131054D01*
X167005000Y-127244093D01*
X167573285Y-127131054D01*
X168055054Y-126809147D01*
X168376961Y-126327378D01*
X168490000Y-125759093D01*
X168490000Y-125700907D01*
X168376961Y-125132622D01*
X168055054Y-124650853D01*
X167573285Y-124328946D01*
X167005000Y-124215907D01*
X166436715Y-124328946D01*
X165954946Y-124650853D01*
X165735000Y-124980026D01*
X165515054Y-124650853D01*
X165033285Y-124328946D01*
X164465000Y-124215907D01*
X163896715Y-124328946D01*
X163414946Y-124650853D01*
X163195000Y-124980026D01*
X162975054Y-124650853D01*
X162493285Y-124328946D01*
X161925000Y-124215907D01*
X161356715Y-124328946D01*
X160874946Y-124650853D01*
X160655000Y-124980026D01*
X160435054Y-124650853D01*
X159953285Y-124328946D01*
X159385000Y-124215907D01*
X158816715Y-124328946D01*
X158334946Y-124650853D01*
X158115000Y-124980026D01*
X157895054Y-124650853D01*
X157413285Y-124328946D01*
X156845000Y-124215907D01*
X156276715Y-124328946D01*
X155794946Y-124650853D01*
X155575000Y-124980026D01*
X155355054Y-124650853D01*
X154873285Y-124328946D01*
X154305000Y-124215907D01*
X153736715Y-124328946D01*
X153254946Y-124650853D01*
X153035000Y-124980026D01*
X152815054Y-124650853D01*
X152333285Y-124328946D01*
X151765000Y-124215907D01*
X151196715Y-124328946D01*
X150714946Y-124650853D01*
X150687150Y-124692452D01*
X150678162Y-124644683D01*
X150539090Y-124428559D01*
X150326890Y-124283569D01*
X150075000Y-124232560D01*
X148375000Y-124232560D01*
X148139683Y-124276838D01*
X147923559Y-124415910D01*
X147778569Y-124628110D01*
X147727560Y-124880000D01*
X147395000Y-124880000D01*
X147395000Y-121006892D01*
X153498514Y-121006892D01*
X153744817Y-121531358D01*
X154173076Y-121921645D01*
X154583110Y-122091476D01*
X154813000Y-121970155D01*
X154813000Y-120777000D01*
X155067000Y-120777000D01*
X155067000Y-121970155D01*
X155296890Y-122091476D01*
X155706924Y-121921645D01*
X156135183Y-121531358D01*
X156210000Y-121372046D01*
X156284817Y-121531358D01*
X156713076Y-121921645D01*
X157123110Y-122091476D01*
X157353000Y-121970155D01*
X157353000Y-120777000D01*
X157607000Y-120777000D01*
X157607000Y-121970155D01*
X157836890Y-122091476D01*
X158246924Y-121921645D01*
X158675183Y-121531358D01*
X158750000Y-121372046D01*
X158824817Y-121531358D01*
X159253076Y-121921645D01*
X159663110Y-122091476D01*
X159893000Y-121970155D01*
X159893000Y-120777000D01*
X160147000Y-120777000D01*
X160147000Y-121970155D01*
X160376890Y-122091476D01*
X160786924Y-121921645D01*
X161215183Y-121531358D01*
X161290000Y-121372046D01*
X161364817Y-121531358D01*
X161793076Y-121921645D01*
X162203110Y-122091476D01*
X162433000Y-121970155D01*
X162433000Y-120777000D01*
X160147000Y-120777000D01*
X159893000Y-120777000D01*
X157607000Y-120777000D01*
X157353000Y-120777000D01*
X155067000Y-120777000D01*
X154813000Y-120777000D01*
X153619181Y-120777000D01*
X153498514Y-121006892D01*
X147395000Y-121006892D01*
X147395000Y-115132715D01*
X147858948Y-115225000D01*
X148621052Y-115225000D01*
X149093666Y-115130991D01*
X149494329Y-114863277D01*
X149762043Y-114462614D01*
X149856052Y-113990000D01*
X149816100Y-113789148D01*
X150168616Y-114142280D01*
X150668292Y-114349763D01*
X151209334Y-114350236D01*
X151709372Y-114143624D01*
X152092280Y-113761384D01*
X152299763Y-113261708D01*
X152300236Y-112720666D01*
X152093624Y-112220628D01*
X151711384Y-111837720D01*
X151211708Y-111630237D01*
X150670666Y-111629764D01*
X150170628Y-111836376D01*
X149787720Y-112218616D01*
X149580237Y-112718292D01*
X149579777Y-113244605D01*
X149494329Y-113116723D01*
X149093666Y-112849009D01*
X148621052Y-112755000D01*
X147858948Y-112755000D01*
X147395000Y-112847285D01*
X147395000Y-108132715D01*
X147858948Y-108225000D01*
X148621052Y-108225000D01*
X149093666Y-108130991D01*
X149494329Y-107863277D01*
X149580223Y-107734728D01*
X149579764Y-108259334D01*
X149786376Y-108759372D01*
X150168616Y-109142280D01*
X150668292Y-109349763D01*
X151209334Y-109350236D01*
X151709372Y-109143624D01*
X152092280Y-108761384D01*
X152299763Y-108261708D01*
X152300236Y-107720666D01*
X152093624Y-107220628D01*
X151711384Y-106837720D01*
X151211708Y-106630237D01*
X150670666Y-106629764D01*
X150170628Y-106836376D01*
X149816241Y-107190145D01*
X149856052Y-106990000D01*
X149762043Y-106517386D01*
X149494329Y-106116723D01*
X149093666Y-105849009D01*
X148621052Y-105755000D01*
X147858948Y-105755000D01*
X147395000Y-105847285D01*
X147395000Y-95670000D01*
X147727560Y-95670000D01*
X147727560Y-97370000D01*
X147771838Y-97605317D01*
X147910910Y-97821441D01*
X148123110Y-97966431D01*
X148375000Y-98017440D01*
X150075000Y-98017440D01*
X150310317Y-97973162D01*
X150526441Y-97834090D01*
X150671431Y-97621890D01*
X150685086Y-97554459D01*
X150714946Y-97599147D01*
X151196715Y-97921054D01*
X151765000Y-98034093D01*
X152333285Y-97921054D01*
X152815054Y-97599147D01*
X153035000Y-97269974D01*
X153254946Y-97599147D01*
X153736715Y-97921054D01*
X154305000Y-98034093D01*
X154873285Y-97921054D01*
X155355054Y-97599147D01*
X155582702Y-97258447D01*
X155649817Y-97401358D01*
X156078076Y-97791645D01*
X156488110Y-97961476D01*
X156718000Y-97840155D01*
X156718000Y-96647000D01*
X156972000Y-96647000D01*
X156972000Y-97840155D01*
X157201890Y-97961476D01*
X157611924Y-97791645D01*
X158040183Y-97401358D01*
X158115000Y-97242046D01*
X158189817Y-97401358D01*
X158618076Y-97791645D01*
X159028110Y-97961476D01*
X159258000Y-97840155D01*
X159258000Y-96647000D01*
X156972000Y-96647000D01*
X156718000Y-96647000D01*
X156698000Y-96647000D01*
X156698000Y-96393000D01*
X156718000Y-96393000D01*
X156718000Y-95199845D01*
X156972000Y-95199845D01*
X156972000Y-96393000D01*
X159258000Y-96393000D01*
X159258000Y-95199845D01*
X159512000Y-95199845D01*
X159512000Y-96393000D01*
X159532000Y-96393000D01*
X159532000Y-96647000D01*
X159512000Y-96647000D01*
X159512000Y-97840155D01*
X159741890Y-97961476D01*
X160151924Y-97791645D01*
X160580183Y-97401358D01*
X160647298Y-97258447D01*
X160874946Y-97599147D01*
X161356715Y-97921054D01*
X161925000Y-98034093D01*
X162493285Y-97921054D01*
X162975054Y-97599147D01*
X163195000Y-97269974D01*
X163414946Y-97599147D01*
X163896715Y-97921054D01*
X164465000Y-98034093D01*
X165033285Y-97921054D01*
X165515054Y-97599147D01*
X165735000Y-97269974D01*
X165954946Y-97599147D01*
X166436715Y-97921054D01*
X167005000Y-98034093D01*
X167573285Y-97921054D01*
X168055054Y-97599147D01*
X168376961Y-97117378D01*
X168490000Y-96549093D01*
X168490000Y-96490907D01*
X168376961Y-95922622D01*
X168055054Y-95440853D01*
X167573285Y-95118946D01*
X167005000Y-95005907D01*
X166436715Y-95118946D01*
X165954946Y-95440853D01*
X165735000Y-95770026D01*
X165515054Y-95440853D01*
X165033285Y-95118946D01*
X164465000Y-95005907D01*
X163896715Y-95118946D01*
X163414946Y-95440853D01*
X163195000Y-95770026D01*
X162975054Y-95440853D01*
X162493285Y-95118946D01*
X161925000Y-95005907D01*
X161356715Y-95118946D01*
X160874946Y-95440853D01*
X160647298Y-95781553D01*
X160580183Y-95638642D01*
X160151924Y-95248355D01*
X159741890Y-95078524D01*
X159512000Y-95199845D01*
X159258000Y-95199845D01*
X159028110Y-95078524D01*
X158618076Y-95248355D01*
X158189817Y-95638642D01*
X158115000Y-95797954D01*
X158040183Y-95638642D01*
X157611924Y-95248355D01*
X157201890Y-95078524D01*
X156972000Y-95199845D01*
X156718000Y-95199845D01*
X156488110Y-95078524D01*
X156078076Y-95248355D01*
X155649817Y-95638642D01*
X155582702Y-95781553D01*
X155355054Y-95440853D01*
X154873285Y-95118946D01*
X154305000Y-95005907D01*
X153736715Y-95118946D01*
X153254946Y-95440853D01*
X153035000Y-95770026D01*
X152815054Y-95440853D01*
X152333285Y-95118946D01*
X151765000Y-95005907D01*
X151196715Y-95118946D01*
X150714946Y-95440853D01*
X150687150Y-95482452D01*
X150678162Y-95434683D01*
X150539090Y-95218559D01*
X150326890Y-95073569D01*
X150075000Y-95022560D01*
X148375000Y-95022560D01*
X148139683Y-95066838D01*
X147923559Y-95205910D01*
X147778569Y-95418110D01*
X147727560Y-95670000D01*
X147395000Y-95670000D01*
X147395000Y-94690000D01*
X168615908Y-94690000D01*
X171375000Y-97449092D01*
X171375000Y-97449092D01*
G37*
X171375000Y-97449092D02*
X171375000Y-99582188D01*
X171281890Y-99518569D01*
X171030000Y-99467560D01*
X169330000Y-99467560D01*
X169094683Y-99511838D01*
X168878559Y-99650910D01*
X168733569Y-99863110D01*
X168682560Y-100115000D01*
X168682560Y-101740758D01*
X167754601Y-100812799D01*
X167508039Y-100648052D01*
X167217200Y-100590200D01*
X163282837Y-100590200D01*
X163282962Y-100446333D01*
X163140917Y-100102557D01*
X162878127Y-99839308D01*
X162534599Y-99696662D01*
X162162633Y-99696338D01*
X161818857Y-99838383D01*
X161555608Y-100101173D01*
X161412962Y-100444701D01*
X161412921Y-100491576D01*
X160207599Y-101696899D01*
X160042852Y-101943461D01*
X159985000Y-102234300D01*
X159985000Y-104563700D01*
X160042852Y-104854539D01*
X160207599Y-105101101D01*
X160701598Y-105595100D01*
X160181607Y-105595100D01*
X160002827Y-105416008D01*
X159659299Y-105273362D01*
X159287333Y-105273038D01*
X158943557Y-105415083D01*
X158680308Y-105677873D01*
X158537662Y-106021401D01*
X158537338Y-106393367D01*
X158679383Y-106737143D01*
X158942173Y-107000392D01*
X159285701Y-107143038D01*
X159657667Y-107143362D01*
X159726066Y-107115100D01*
X162555200Y-107115100D01*
X162846039Y-107057248D01*
X163092601Y-106892501D01*
X167051780Y-102933322D01*
X167097267Y-102933362D01*
X167441043Y-102791317D01*
X167512341Y-102720143D01*
X168244700Y-103452502D01*
X168244700Y-103505000D01*
X168302552Y-103795839D01*
X168467299Y-104042401D01*
X168713861Y-104207148D01*
X168892077Y-104242598D01*
X169100853Y-104555054D01*
X169430026Y-104775000D01*
X169100853Y-104994946D01*
X168778946Y-105476715D01*
X168665907Y-106045000D01*
X168778946Y-106613285D01*
X169100853Y-107095054D01*
X169430026Y-107315000D01*
X169100853Y-107534946D01*
X168778946Y-108016715D01*
X168665907Y-108585000D01*
X168778946Y-109153285D01*
X169100853Y-109635054D01*
X169430026Y-109855000D01*
X169100853Y-110074946D01*
X168907046Y-110365000D01*
X162733000Y-110365000D01*
X162442161Y-110422852D01*
X162195599Y-110587599D01*
X155847558Y-116935640D01*
X155508285Y-116708946D01*
X154940000Y-116595907D01*
X154371715Y-116708946D01*
X153889946Y-117030853D01*
X153568039Y-117512622D01*
X153455000Y-118080907D01*
X153455000Y-118139093D01*
X153568039Y-118707378D01*
X153889946Y-119189147D01*
X154173101Y-119378345D01*
X154173076Y-119378355D01*
X153744817Y-119768642D01*
X153498514Y-120293108D01*
X153619181Y-120523000D01*
X154813000Y-120523000D01*
X154813000Y-120503000D01*
X155067000Y-120503000D01*
X155067000Y-120523000D01*
X157353000Y-120523000D01*
X157353000Y-120503000D01*
X157607000Y-120503000D01*
X157607000Y-120523000D01*
X159893000Y-120523000D01*
X159893000Y-120503000D01*
X160147000Y-120503000D01*
X160147000Y-120523000D01*
X162433000Y-120523000D01*
X162433000Y-120503000D01*
X162687000Y-120503000D01*
X162687000Y-120523000D01*
X162707000Y-120523000D01*
X162707000Y-120777000D01*
X162687000Y-120777000D01*
X162687000Y-121970155D01*
X162916890Y-122091476D01*
X163326924Y-121921645D01*
X163755183Y-121531358D01*
X163822298Y-121388447D01*
X164049946Y-121729147D01*
X164531715Y-122051054D01*
X165100000Y-122164093D01*
X165668285Y-122051054D01*
X166150054Y-121729147D01*
X166471961Y-121247378D01*
X166585000Y-120679093D01*
X166585000Y-120620907D01*
X166471961Y-120052622D01*
X166150054Y-119570853D01*
X166148821Y-119570029D01*
X166185317Y-119563162D01*
X166401441Y-119424090D01*
X166546431Y-119211890D01*
X166597440Y-118960000D01*
X166597440Y-117260000D01*
X166553162Y-117024683D01*
X166414090Y-116808559D01*
X166201890Y-116663569D01*
X165950000Y-116612560D01*
X164250000Y-116612560D01*
X164014683Y-116656838D01*
X163798559Y-116795910D01*
X163653569Y-117008110D01*
X163639914Y-117075541D01*
X163610054Y-117030853D01*
X163233532Y-116779270D01*
X164317802Y-115695000D01*
X168767352Y-115695000D01*
X168665907Y-116205000D01*
X168778946Y-116773285D01*
X169100853Y-117255054D01*
X169441553Y-117482702D01*
X169298642Y-117549817D01*
X168908355Y-117978076D01*
X168738524Y-118388110D01*
X168859845Y-118618000D01*
X170053000Y-118618000D01*
X170053000Y-118598000D01*
X170307000Y-118598000D01*
X170307000Y-118618000D01*
X170327000Y-118618000D01*
X170327000Y-118872000D01*
X170307000Y-118872000D01*
X170307000Y-118892000D01*
X170053000Y-118892000D01*
X170053000Y-118872000D01*
X168859845Y-118872000D01*
X168738524Y-119101890D01*
X168908355Y-119511924D01*
X169298642Y-119940183D01*
X169441553Y-120007298D01*
X169100853Y-120234946D01*
X168778946Y-120716715D01*
X168665907Y-121285000D01*
X168778946Y-121853285D01*
X169100853Y-122335054D01*
X169582622Y-122656961D01*
X170150907Y-122770000D01*
X170209093Y-122770000D01*
X170777378Y-122656961D01*
X171259147Y-122335054D01*
X171375000Y-122161667D01*
X171375000Y-125435909D01*
X169250908Y-127560000D01*
X147395000Y-127560000D01*
X147395000Y-124880000D01*
X147727560Y-124880000D01*
X147727560Y-126580000D01*
X147771838Y-126815317D01*
X147910910Y-127031441D01*
X148123110Y-127176431D01*
X148375000Y-127227440D01*
X150075000Y-127227440D01*
X150310317Y-127183162D01*
X150526441Y-127044090D01*
X150671431Y-126831890D01*
X150685086Y-126764459D01*
X150714946Y-126809147D01*
X151196715Y-127131054D01*
X151765000Y-127244093D01*
X152333285Y-127131054D01*
X152815054Y-126809147D01*
X153035000Y-126479974D01*
X153254946Y-126809147D01*
X153736715Y-127131054D01*
X154305000Y-127244093D01*
X154873285Y-127131054D01*
X155355054Y-126809147D01*
X155575000Y-126479974D01*
X155794946Y-126809147D01*
X156276715Y-127131054D01*
X156845000Y-127244093D01*
X157413285Y-127131054D01*
X157895054Y-126809147D01*
X158115000Y-126479974D01*
X158334946Y-126809147D01*
X158816715Y-127131054D01*
X159385000Y-127244093D01*
X159953285Y-127131054D01*
X160435054Y-126809147D01*
X160655000Y-126479974D01*
X160874946Y-126809147D01*
X161356715Y-127131054D01*
X161925000Y-127244093D01*
X162493285Y-127131054D01*
X162975054Y-126809147D01*
X163195000Y-126479974D01*
X163414946Y-126809147D01*
X163896715Y-127131054D01*
X164465000Y-127244093D01*
X165033285Y-127131054D01*
X165515054Y-126809147D01*
X165735000Y-126479974D01*
X165954946Y-126809147D01*
X166436715Y-127131054D01*
X167005000Y-127244093D01*
X167573285Y-127131054D01*
X168055054Y-126809147D01*
X168376961Y-126327378D01*
X168490000Y-125759093D01*
X168490000Y-125700907D01*
X168376961Y-125132622D01*
X168055054Y-124650853D01*
X167573285Y-124328946D01*
X167005000Y-124215907D01*
X166436715Y-124328946D01*
X165954946Y-124650853D01*
X165735000Y-124980026D01*
X165515054Y-124650853D01*
X165033285Y-124328946D01*
X164465000Y-124215907D01*
X163896715Y-124328946D01*
X163414946Y-124650853D01*
X163195000Y-124980026D01*
X162975054Y-124650853D01*
X162493285Y-124328946D01*
X161925000Y-124215907D01*
X161356715Y-124328946D01*
X160874946Y-124650853D01*
X160655000Y-124980026D01*
X160435054Y-124650853D01*
X159953285Y-124328946D01*
X159385000Y-124215907D01*
X158816715Y-124328946D01*
X158334946Y-124650853D01*
X158115000Y-124980026D01*
X157895054Y-124650853D01*
X157413285Y-124328946D01*
X156845000Y-124215907D01*
X156276715Y-124328946D01*
X155794946Y-124650853D01*
X155575000Y-124980026D01*
X155355054Y-124650853D01*
X154873285Y-124328946D01*
X154305000Y-124215907D01*
X153736715Y-124328946D01*
X153254946Y-124650853D01*
X153035000Y-124980026D01*
X152815054Y-124650853D01*
X152333285Y-124328946D01*
X151765000Y-124215907D01*
X151196715Y-124328946D01*
X150714946Y-124650853D01*
X150687150Y-124692452D01*
X150678162Y-124644683D01*
X150539090Y-124428559D01*
X150326890Y-124283569D01*
X150075000Y-124232560D01*
X148375000Y-124232560D01*
X148139683Y-124276838D01*
X147923559Y-124415910D01*
X147778569Y-124628110D01*
X147727560Y-124880000D01*
X147395000Y-124880000D01*
X147395000Y-121006892D01*
X153498514Y-121006892D01*
X153744817Y-121531358D01*
X154173076Y-121921645D01*
X154583110Y-122091476D01*
X154813000Y-121970155D01*
X154813000Y-120777000D01*
X155067000Y-120777000D01*
X155067000Y-121970155D01*
X155296890Y-122091476D01*
X155706924Y-121921645D01*
X156135183Y-121531358D01*
X156210000Y-121372046D01*
X156284817Y-121531358D01*
X156713076Y-121921645D01*
X157123110Y-122091476D01*
X157353000Y-121970155D01*
X157353000Y-120777000D01*
X157607000Y-120777000D01*
X157607000Y-121970155D01*
X157836890Y-122091476D01*
X158246924Y-121921645D01*
X158675183Y-121531358D01*
X158750000Y-121372046D01*
X158824817Y-121531358D01*
X159253076Y-121921645D01*
X159663110Y-122091476D01*
X159893000Y-121970155D01*
X159893000Y-120777000D01*
X160147000Y-120777000D01*
X160147000Y-121970155D01*
X160376890Y-122091476D01*
X160786924Y-121921645D01*
X161215183Y-121531358D01*
X161290000Y-121372046D01*
X161364817Y-121531358D01*
X161793076Y-121921645D01*
X162203110Y-122091476D01*
X162433000Y-121970155D01*
X162433000Y-120777000D01*
X160147000Y-120777000D01*
X159893000Y-120777000D01*
X157607000Y-120777000D01*
X157353000Y-120777000D01*
X155067000Y-120777000D01*
X154813000Y-120777000D01*
X153619181Y-120777000D01*
X153498514Y-121006892D01*
X147395000Y-121006892D01*
X147395000Y-115132715D01*
X147858948Y-115225000D01*
X148621052Y-115225000D01*
X149093666Y-115130991D01*
X149494329Y-114863277D01*
X149762043Y-114462614D01*
X149856052Y-113990000D01*
X149816100Y-113789148D01*
X150168616Y-114142280D01*
X150668292Y-114349763D01*
X151209334Y-114350236D01*
X151709372Y-114143624D01*
X152092280Y-113761384D01*
X152299763Y-113261708D01*
X152300236Y-112720666D01*
X152093624Y-112220628D01*
X151711384Y-111837720D01*
X151211708Y-111630237D01*
X150670666Y-111629764D01*
X150170628Y-111836376D01*
X149787720Y-112218616D01*
X149580237Y-112718292D01*
X149579777Y-113244605D01*
X149494329Y-113116723D01*
X149093666Y-112849009D01*
X148621052Y-112755000D01*
X147858948Y-112755000D01*
X147395000Y-112847285D01*
X147395000Y-108132715D01*
X147858948Y-108225000D01*
X148621052Y-108225000D01*
X149093666Y-108130991D01*
X149494329Y-107863277D01*
X149580223Y-107734728D01*
X149579764Y-108259334D01*
X149786376Y-108759372D01*
X150168616Y-109142280D01*
X150668292Y-109349763D01*
X151209334Y-109350236D01*
X151709372Y-109143624D01*
X152092280Y-108761384D01*
X152299763Y-108261708D01*
X152300236Y-107720666D01*
X152093624Y-107220628D01*
X151711384Y-106837720D01*
X151211708Y-106630237D01*
X150670666Y-106629764D01*
X150170628Y-106836376D01*
X149816241Y-107190145D01*
X149856052Y-106990000D01*
X149762043Y-106517386D01*
X149494329Y-106116723D01*
X149093666Y-105849009D01*
X148621052Y-105755000D01*
X147858948Y-105755000D01*
X147395000Y-105847285D01*
X147395000Y-95670000D01*
X147727560Y-95670000D01*
X147727560Y-97370000D01*
X147771838Y-97605317D01*
X147910910Y-97821441D01*
X148123110Y-97966431D01*
X148375000Y-98017440D01*
X150075000Y-98017440D01*
X150310317Y-97973162D01*
X150526441Y-97834090D01*
X150671431Y-97621890D01*
X150685086Y-97554459D01*
X150714946Y-97599147D01*
X151196715Y-97921054D01*
X151765000Y-98034093D01*
X152333285Y-97921054D01*
X152815054Y-97599147D01*
X153035000Y-97269974D01*
X153254946Y-97599147D01*
X153736715Y-97921054D01*
X154305000Y-98034093D01*
X154873285Y-97921054D01*
X155355054Y-97599147D01*
X155582702Y-97258447D01*
X155649817Y-97401358D01*
X156078076Y-97791645D01*
X156488110Y-97961476D01*
X156718000Y-97840155D01*
X156718000Y-96647000D01*
X156972000Y-96647000D01*
X156972000Y-97840155D01*
X157201890Y-97961476D01*
X157611924Y-97791645D01*
X158040183Y-97401358D01*
X158115000Y-97242046D01*
X158189817Y-97401358D01*
X158618076Y-97791645D01*
X159028110Y-97961476D01*
X159258000Y-97840155D01*
X159258000Y-96647000D01*
X156972000Y-96647000D01*
X156718000Y-96647000D01*
X156698000Y-96647000D01*
X156698000Y-96393000D01*
X156718000Y-96393000D01*
X156718000Y-95199845D01*
X156972000Y-95199845D01*
X156972000Y-96393000D01*
X159258000Y-96393000D01*
X159258000Y-95199845D01*
X159512000Y-95199845D01*
X159512000Y-96393000D01*
X159532000Y-96393000D01*
X159532000Y-96647000D01*
X159512000Y-96647000D01*
X159512000Y-97840155D01*
X159741890Y-97961476D01*
X160151924Y-97791645D01*
X160580183Y-97401358D01*
X160647298Y-97258447D01*
X160874946Y-97599147D01*
X161356715Y-97921054D01*
X161925000Y-98034093D01*
X162493285Y-97921054D01*
X162975054Y-97599147D01*
X163195000Y-97269974D01*
X163414946Y-97599147D01*
X163896715Y-97921054D01*
X164465000Y-98034093D01*
X165033285Y-97921054D01*
X165515054Y-97599147D01*
X165735000Y-97269974D01*
X165954946Y-97599147D01*
X166436715Y-97921054D01*
X167005000Y-98034093D01*
X167573285Y-97921054D01*
X168055054Y-97599147D01*
X168376961Y-97117378D01*
X168490000Y-96549093D01*
X168490000Y-96490907D01*
X168376961Y-95922622D01*
X168055054Y-95440853D01*
X167573285Y-95118946D01*
X167005000Y-95005907D01*
X166436715Y-95118946D01*
X165954946Y-95440853D01*
X165735000Y-95770026D01*
X165515054Y-95440853D01*
X165033285Y-95118946D01*
X164465000Y-95005907D01*
X163896715Y-95118946D01*
X163414946Y-95440853D01*
X163195000Y-95770026D01*
X162975054Y-95440853D01*
X162493285Y-95118946D01*
X161925000Y-95005907D01*
X161356715Y-95118946D01*
X160874946Y-95440853D01*
X160647298Y-95781553D01*
X160580183Y-95638642D01*
X160151924Y-95248355D01*
X159741890Y-95078524D01*
X159512000Y-95199845D01*
X159258000Y-95199845D01*
X159028110Y-95078524D01*
X158618076Y-95248355D01*
X158189817Y-95638642D01*
X158115000Y-95797954D01*
X158040183Y-95638642D01*
X157611924Y-95248355D01*
X157201890Y-95078524D01*
X156972000Y-95199845D01*
X156718000Y-95199845D01*
X156488110Y-95078524D01*
X156078076Y-95248355D01*
X155649817Y-95638642D01*
X155582702Y-95781553D01*
X155355054Y-95440853D01*
X154873285Y-95118946D01*
X154305000Y-95005907D01*
X153736715Y-95118946D01*
X153254946Y-95440853D01*
X153035000Y-95770026D01*
X152815054Y-95440853D01*
X152333285Y-95118946D01*
X151765000Y-95005907D01*
X151196715Y-95118946D01*
X150714946Y-95440853D01*
X150687150Y-95482452D01*
X150678162Y-95434683D01*
X150539090Y-95218559D01*
X150326890Y-95073569D01*
X150075000Y-95022560D01*
X148375000Y-95022560D01*
X148139683Y-95066838D01*
X147923559Y-95205910D01*
X147778569Y-95418110D01*
X147727560Y-95670000D01*
X147395000Y-95670000D01*
X147395000Y-94690000D01*
X168615908Y-94690000D01*
X171375000Y-97449092D01*
M02*
