G04 #@! TF.FileFunction,Copper,L1,Top,Signal*
%FSLAX46Y46*%
G04 Gerber Fmt 4.6, Leading zero omitted, Abs format (unit mm)*
G04 Created by KiCad (PCBNEW 4.0.7-e2-6376~58~ubuntu17.04.1) date Mon Oct  2 11:39:13 2017*
%MOMM*%
%LPD*%
G01*
G04 APERTURE LIST*
%ADD10C,0.100000*%
%ADD11R,0.800000X0.800000*%
%ADD12R,0.600000X1.500000*%
%ADD13R,1.900000X1.500000*%
%ADD14C,1.450000*%
%ADD15R,1.350000X0.400000*%
%ADD16O,1.900000X1.200000*%
%ADD17R,1.900000X1.200000*%
%ADD18R,1.700000X1.700000*%
%ADD19O,1.700000X1.700000*%
%ADD20R,1.700000X0.700000*%
%ADD21R,1.200000X0.750000*%
%ADD22R,1.200000X0.900000*%
%ADD23C,0.600000*%
%ADD24C,0.250000*%
G04 APERTURE END LIST*
D10*
D11*
X150025000Y-104140000D03*
X148425000Y-104140000D03*
X150025000Y-100965000D03*
X148425000Y-100965000D03*
D12*
X163195000Y-107790000D03*
X161925000Y-107790000D03*
X160655000Y-107790000D03*
X159385000Y-107790000D03*
X158115000Y-107790000D03*
X156845000Y-107790000D03*
X155575000Y-107790000D03*
X154305000Y-107790000D03*
X154305000Y-113190000D03*
X155575000Y-113190000D03*
X156845000Y-113190000D03*
X158115000Y-113190000D03*
X159385000Y-113190000D03*
X160655000Y-113190000D03*
X161925000Y-113190000D03*
X163195000Y-113190000D03*
D13*
X148240000Y-111490000D03*
D14*
X150940000Y-107990000D03*
D15*
X150940000Y-109840000D03*
X150940000Y-109190000D03*
X150940000Y-111790000D03*
X150940000Y-111140000D03*
X150940000Y-110490000D03*
D14*
X150940000Y-112990000D03*
D13*
X148240000Y-109490000D03*
D16*
X148240000Y-106990000D03*
X148240000Y-113990000D03*
D17*
X148240000Y-113390000D03*
X148240000Y-107590000D03*
D18*
X149225000Y-96520000D03*
D19*
X151765000Y-96520000D03*
X154305000Y-96520000D03*
X156845000Y-96520000D03*
X159385000Y-96520000D03*
X161925000Y-96520000D03*
X164465000Y-96520000D03*
X167005000Y-96520000D03*
D18*
X149225000Y-125730000D03*
D19*
X151765000Y-125730000D03*
X154305000Y-125730000D03*
X156845000Y-125730000D03*
X159385000Y-125730000D03*
X161925000Y-125730000D03*
X164465000Y-125730000D03*
X167005000Y-125730000D03*
D18*
X165100000Y-118110000D03*
D19*
X165100000Y-120650000D03*
X162560000Y-118110000D03*
X162560000Y-120650000D03*
X160020000Y-118110000D03*
X160020000Y-120650000D03*
X157480000Y-118110000D03*
X157480000Y-120650000D03*
X154940000Y-118110000D03*
X154940000Y-120650000D03*
D20*
X166370000Y-110420000D03*
X166370000Y-109220000D03*
X166370000Y-108020000D03*
D21*
X166685000Y-100965000D03*
X164785000Y-100965000D03*
X166685000Y-104140000D03*
X164785000Y-104140000D03*
D22*
X158920000Y-100965000D03*
X161120000Y-100965000D03*
X158920000Y-104140000D03*
X161120000Y-104140000D03*
X155405000Y-104140000D03*
X153205000Y-104140000D03*
X153205000Y-100965000D03*
X155405000Y-100965000D03*
D18*
X170180000Y-100965000D03*
D19*
X170180000Y-103505000D03*
X170180000Y-106045000D03*
X170180000Y-108585000D03*
X170180000Y-111125000D03*
X170180000Y-113665000D03*
X170180000Y-116205000D03*
X170180000Y-118745000D03*
X170180000Y-121285000D03*
D23*
X166912100Y-101998200D03*
X159472500Y-106208200D03*
X163672700Y-104327000D03*
X164465000Y-106045000D03*
X165017400Y-109397300D03*
X163390600Y-106519100D03*
X152152100Y-111782400D03*
X164965800Y-100083900D03*
X161911100Y-105729800D03*
X162347800Y-100631500D03*
X161401000Y-103162000D03*
D24*
X159385000Y-106295700D02*
X159385000Y-107790000D01*
X159472500Y-106208200D02*
X159385000Y-106295700D01*
X166912100Y-101892400D02*
X166912100Y-101998200D01*
X166685000Y-101665300D02*
X166912100Y-101892400D01*
X166685000Y-100965000D02*
X166685000Y-101665300D01*
X163672700Y-104327000D02*
X163672700Y-105252700D01*
X163672700Y-104327000D02*
X163859700Y-104140000D01*
X164785000Y-104140000D02*
X163859700Y-104140000D01*
X163672700Y-105252700D02*
X164465000Y-106045000D01*
X163390600Y-106519100D02*
X163195000Y-106714700D01*
X165017400Y-109397300D02*
X165194700Y-109220000D01*
X166370000Y-109220000D02*
X165194700Y-109220000D01*
X163195000Y-106714700D02*
X163195000Y-107790000D01*
X150940000Y-111790000D02*
X151940300Y-111790000D01*
X151947900Y-111782400D02*
X151940300Y-111790000D01*
X152152100Y-111782400D02*
X151947900Y-111782400D01*
X164785000Y-100965000D02*
X164785000Y-100264700D01*
X164965800Y-100083900D02*
X164785000Y-100264700D01*
X165100000Y-120650000D02*
X165100000Y-119474700D01*
X163195000Y-113190000D02*
X163195000Y-114265300D01*
X151765000Y-96520000D02*
X152940300Y-96520000D01*
X154305000Y-96520000D02*
X152940300Y-96520000D01*
X165955400Y-119474700D02*
X165100000Y-119474700D01*
X169004700Y-116425400D02*
X165955400Y-119474700D01*
X169004700Y-116205000D02*
X169004700Y-116425400D01*
X170180000Y-116205000D02*
X169004700Y-116205000D01*
X154305000Y-96520000D02*
X154305000Y-101408200D01*
X155262300Y-102365500D02*
X154305000Y-101408200D01*
X165610800Y-102365500D02*
X155262300Y-102365500D01*
X166685000Y-103439700D02*
X165610800Y-102365500D01*
X166685000Y-104140000D02*
X166685000Y-103439700D01*
X163820300Y-114890600D02*
X163826100Y-114890600D01*
X163195000Y-114265300D02*
X163820300Y-114890600D01*
X164291900Y-119474700D02*
X165100000Y-119474700D01*
X163826100Y-119008900D02*
X164291900Y-119474700D01*
X163826100Y-114890600D02*
X163826100Y-119008900D01*
X168043500Y-106198800D02*
X166685000Y-104840300D01*
X168043500Y-110673200D02*
X168043500Y-106198800D01*
X163826100Y-114890600D02*
X168043500Y-110673200D01*
X166685000Y-104140000D02*
X166685000Y-104840300D01*
X150025000Y-104140000D02*
X150025000Y-103414700D01*
X153972800Y-101740400D02*
X151525700Y-101740400D01*
X154305000Y-101408200D02*
X153972800Y-101740400D01*
X150940000Y-109190000D02*
X151940300Y-109190000D01*
X151525700Y-101914000D02*
X150025000Y-103414700D01*
X151525700Y-101740400D02*
X151525700Y-101914000D01*
X152011000Y-109119300D02*
X151940300Y-109190000D01*
X152011000Y-107510900D02*
X152011000Y-109119300D01*
X151069900Y-106569800D02*
X152011000Y-107510900D01*
X149565700Y-106569800D02*
X151069900Y-106569800D01*
X147693600Y-104697700D02*
X149565700Y-106569800D01*
X147693600Y-103607600D02*
X147693600Y-104697700D01*
X147886500Y-103414700D02*
X147693600Y-103607600D01*
X150025000Y-103414700D02*
X147886500Y-103414700D01*
X150025000Y-100965000D02*
X150387700Y-100965000D01*
X150387700Y-100965000D02*
X150750300Y-100965000D01*
X151525700Y-101740400D02*
X150750300Y-100965000D01*
X149150300Y-104593300D02*
X149150300Y-104140000D01*
X149472300Y-104915300D02*
X149150300Y-104593300D01*
X155405000Y-104915300D02*
X149472300Y-104915300D01*
X155405000Y-104140000D02*
X155405000Y-104915300D01*
X148425000Y-104140000D02*
X149150300Y-104140000D01*
X152279700Y-100965000D02*
X151554400Y-100239700D01*
X153205000Y-100965000D02*
X152279700Y-100965000D01*
X148425000Y-100965000D02*
X149150300Y-100965000D01*
X149150300Y-100511600D02*
X149150300Y-100965000D01*
X149422200Y-100239700D02*
X149150300Y-100511600D01*
X151554400Y-100239700D02*
X149422200Y-100239700D01*
X161925000Y-105743700D02*
X161925000Y-107790000D01*
X161911100Y-105729800D02*
X161925000Y-105743700D01*
X161120000Y-100965000D02*
X162045300Y-100965000D01*
X162045300Y-100934000D02*
X162347800Y-100631500D01*
X162045300Y-100965000D02*
X162045300Y-100934000D01*
X161120000Y-106249700D02*
X160655000Y-106714700D01*
X161120000Y-104140000D02*
X161120000Y-106249700D01*
X160655000Y-107790000D02*
X160655000Y-106714700D01*
X156490300Y-110490000D02*
X158115000Y-108865300D01*
X150940000Y-110490000D02*
X156490300Y-110490000D01*
X158115000Y-107790000D02*
X158115000Y-108865300D01*
X155119600Y-106714700D02*
X156845000Y-106714700D01*
X154949600Y-106884700D02*
X155119600Y-106714700D01*
X154949600Y-108671100D02*
X154949600Y-106884700D01*
X153780700Y-109840000D02*
X154949600Y-108671100D01*
X150940000Y-109840000D02*
X153780700Y-109840000D01*
X156845000Y-107790000D02*
X156845000Y-106714700D01*
X166370000Y-108020000D02*
X165194700Y-108020000D01*
X155575000Y-107790000D02*
X155575000Y-108865300D01*
X163880500Y-109334200D02*
X165194700Y-108020000D01*
X159321600Y-109334200D02*
X163880500Y-109334200D01*
X158759600Y-108772200D02*
X159321600Y-109334200D01*
X158759600Y-106870100D02*
X158759600Y-108772200D01*
X158604100Y-106714600D02*
X158759600Y-106870100D01*
X157680300Y-106714600D02*
X158604100Y-106714600D01*
X157478000Y-106916900D02*
X157680300Y-106714600D01*
X157478000Y-108736300D02*
X157478000Y-106916900D01*
X157349000Y-108865300D02*
X157478000Y-108736300D01*
X155575000Y-108865300D02*
X157349000Y-108865300D01*
X155455400Y-105564300D02*
X154305000Y-106714700D01*
X159733400Y-105564300D02*
X155455400Y-105564300D01*
X160127000Y-105957900D02*
X159733400Y-105564300D01*
X160127000Y-106438200D02*
X160127000Y-105957900D01*
X160029600Y-106535600D02*
X160127000Y-106438200D01*
X160029600Y-108674700D02*
X160029600Y-106535600D01*
X160220200Y-108865300D02*
X160029600Y-108674700D01*
X163700600Y-108865300D02*
X160220200Y-108865300D01*
X165232000Y-107333900D02*
X163700600Y-108865300D01*
X167375700Y-107333900D02*
X165232000Y-107333900D01*
X167545300Y-107503500D02*
X167375700Y-107333900D01*
X167545300Y-110420000D02*
X167545300Y-107503500D01*
X166370000Y-110420000D02*
X167545300Y-110420000D01*
X154305000Y-107790000D02*
X154305000Y-106714700D01*
X148240000Y-113990000D02*
X148240000Y-113390000D01*
X148240000Y-106990000D02*
X148240000Y-107590000D01*
X149915300Y-112990000D02*
X150940000Y-112990000D01*
X149515300Y-113390000D02*
X149915300Y-112990000D01*
X148240000Y-107590000D02*
X148877700Y-107590000D01*
X148240000Y-113390000D02*
X148877700Y-113390000D01*
X148877700Y-113390000D02*
X149515300Y-113390000D01*
X148240000Y-112752300D02*
X148240000Y-111490000D01*
X148877700Y-113390000D02*
X148240000Y-112752300D01*
X148240000Y-109490000D02*
X148240000Y-111490000D01*
X148877700Y-107590000D02*
X148877700Y-107908800D01*
X148371800Y-108414700D02*
X148877700Y-107908800D01*
X148240000Y-108414700D02*
X148371800Y-108414700D01*
X150858800Y-107908800D02*
X150940000Y-107990000D01*
X148877700Y-107908800D02*
X150858800Y-107908800D01*
X148240000Y-109490000D02*
X148240000Y-108414700D01*
X165100000Y-114473600D02*
X165100000Y-118110000D01*
X169813300Y-109760300D02*
X165100000Y-114473600D01*
X170180000Y-109760300D02*
X169813300Y-109760300D01*
X170180000Y-108585000D02*
X170180000Y-109760300D01*
X161401000Y-103162000D02*
X159122700Y-103162000D01*
X158920000Y-104140000D02*
X158920000Y-103364700D01*
X153205000Y-103364700D02*
X158920000Y-103364700D01*
X153205000Y-104140000D02*
X153205000Y-103364700D01*
X159122700Y-103162000D02*
X158920000Y-103364700D01*
X155405000Y-100965000D02*
X156330300Y-100965000D01*
X159439700Y-101872300D02*
X158920000Y-101352600D01*
X165860400Y-101872300D02*
X159439700Y-101872300D01*
X169004700Y-105016600D02*
X165860400Y-101872300D01*
X169004700Y-106045000D02*
X169004700Y-105016600D01*
X170180000Y-106045000D02*
X169004700Y-106045000D01*
X158920000Y-100965000D02*
X158920000Y-101061900D01*
X158920000Y-101061900D02*
X158920000Y-101352600D01*
X156427200Y-101061900D02*
X156330300Y-100965000D01*
X158920000Y-101061900D02*
X156427200Y-101061900D01*
M02*
