G04 #@! TF.FileFunction,Copper,L2,Bot,Signal*
%FSLAX46Y46*%
G04 Gerber Fmt 4.6, Leading zero omitted, Abs format (unit mm)*
G04 Created by KiCad (PCBNEW 4.0.7-e2-6376~58~ubuntu17.04.1) date Sat Oct 28 19:32:16 2017*
%MOMM*%
%LPD*%
G01*
G04 APERTURE LIST*
%ADD10C,0.100000*%
%ADD11C,1.450000*%
%ADD12O,1.900000X1.200000*%
%ADD13R,1.700000X1.700000*%
%ADD14O,1.700000X1.700000*%
%ADD15C,0.600000*%
%ADD16C,0.250000*%
%ADD17C,0.254000*%
G04 APERTURE END LIST*
D10*
D11*
X137605000Y-105450000D03*
X137605000Y-110450000D03*
D12*
X134905000Y-104450000D03*
X134905000Y-111450000D03*
D13*
X164465000Y-106680000D03*
D14*
X167005000Y-106680000D03*
X164465000Y-109220000D03*
X167005000Y-109220000D03*
X164465000Y-111760000D03*
X167005000Y-111760000D03*
X164465000Y-114300000D03*
X167005000Y-114300000D03*
X164465000Y-116840000D03*
X167005000Y-116840000D03*
D13*
X140335000Y-120015000D03*
D14*
X140335000Y-117475000D03*
X140335000Y-114935000D03*
D13*
X167640000Y-125730000D03*
D14*
X165100000Y-125730000D03*
X162560000Y-125730000D03*
X160020000Y-125730000D03*
X157480000Y-125730000D03*
X154940000Y-125730000D03*
X152400000Y-125730000D03*
X149860000Y-125730000D03*
X147320000Y-125730000D03*
X144780000Y-125730000D03*
X142240000Y-125730000D03*
X139700000Y-125730000D03*
D13*
X134620000Y-114300000D03*
D14*
X134620000Y-116840000D03*
X134620000Y-119380000D03*
X134620000Y-121920000D03*
X134620000Y-124460000D03*
D13*
X139065000Y-96520000D03*
D14*
X141605000Y-96520000D03*
X144145000Y-96520000D03*
X146685000Y-96520000D03*
X149225000Y-96520000D03*
X151765000Y-96520000D03*
X154305000Y-96520000D03*
X156845000Y-96520000D03*
X159385000Y-96520000D03*
X161925000Y-96520000D03*
X164465000Y-96520000D03*
X167005000Y-96520000D03*
D15*
X143661700Y-107522600D03*
X143679000Y-110590200D03*
X155577500Y-105998400D03*
X158115000Y-109220000D03*
X150804800Y-100247100D03*
X147847800Y-104889100D03*
X138803500Y-109182800D03*
X150319100Y-120855600D03*
X157212200Y-109567700D03*
X151452400Y-105890700D03*
X151765300Y-103875100D03*
X140908400Y-101575500D03*
X149083100Y-115298100D03*
D16*
X143661700Y-107522600D02*
X143661700Y-110572900D01*
X143661700Y-110572900D02*
X143679000Y-110590200D01*
X155577500Y-105998400D02*
X156163400Y-105998400D01*
X158115000Y-107950000D02*
X158115000Y-109220000D01*
X156163400Y-105998400D02*
X158115000Y-107950000D01*
X137180300Y-110450000D02*
X137605000Y-110450000D01*
X136180300Y-111450000D02*
X137180300Y-110450000D01*
X134905000Y-111450000D02*
X136180300Y-111450000D01*
X167005000Y-106680000D02*
X165829700Y-106680000D01*
X151970000Y-105373100D02*
X151452400Y-105890700D01*
X165330800Y-105373100D02*
X151970000Y-105373100D01*
X165829700Y-105872000D02*
X165330800Y-105373100D01*
X165829700Y-106680000D02*
X165829700Y-105872000D01*
X134620000Y-119380000D02*
X134620000Y-118204700D01*
X159385000Y-96520000D02*
X158209700Y-96520000D01*
X158209700Y-97430700D02*
X158209700Y-96520000D01*
X151765300Y-103875100D02*
X158209700Y-97430700D01*
X143208000Y-103875100D02*
X140908400Y-101575500D01*
X151765300Y-103875100D02*
X143208000Y-103875100D01*
X135009500Y-118204700D02*
X134620000Y-118204700D01*
X142991700Y-110222500D02*
X135009500Y-118204700D01*
X142991700Y-104091400D02*
X142991700Y-110222500D01*
X143208000Y-103875100D02*
X142991700Y-104091400D01*
X139921200Y-124460000D02*
X149083100Y-115298100D01*
X134620000Y-124460000D02*
X139921200Y-124460000D01*
X164832400Y-107855300D02*
X164465000Y-107855300D01*
X165640300Y-108663200D02*
X164832400Y-107855300D01*
X165640300Y-117383500D02*
X165640300Y-108663200D01*
X158469100Y-124554700D02*
X165640300Y-117383500D01*
X146763200Y-124554700D02*
X158469100Y-124554700D01*
X145955300Y-125362600D02*
X146763200Y-124554700D01*
X145955300Y-125730000D02*
X145955300Y-125362600D01*
X144780000Y-125730000D02*
X145955300Y-125730000D01*
X164465000Y-106680000D02*
X164465000Y-107855300D01*
X151938000Y-114300000D02*
X164465000Y-114300000D01*
X140875300Y-125362700D02*
X151938000Y-114300000D01*
X140875300Y-125730000D02*
X140875300Y-125362700D01*
X139700000Y-125730000D02*
X140875300Y-125730000D01*
X151938000Y-116840000D02*
X164465000Y-116840000D01*
X143415300Y-125362700D02*
X151938000Y-116840000D01*
X143415300Y-125730000D02*
X143415300Y-125362700D01*
X142240000Y-125730000D02*
X143415300Y-125730000D01*
D17*
G36*
X170105000Y-97449092D02*
X170105000Y-125435909D01*
X169137440Y-126403469D01*
X169137440Y-124880000D01*
X169093162Y-124644683D01*
X168954090Y-124428559D01*
X168741890Y-124283569D01*
X168490000Y-124232560D01*
X166790000Y-124232560D01*
X166554683Y-124276838D01*
X166338559Y-124415910D01*
X166193569Y-124628110D01*
X166179914Y-124695541D01*
X166150054Y-124650853D01*
X165668285Y-124328946D01*
X165100000Y-124215907D01*
X164531715Y-124328946D01*
X164049946Y-124650853D01*
X163822298Y-124991553D01*
X163755183Y-124848642D01*
X163326924Y-124458355D01*
X162916890Y-124288524D01*
X162687000Y-124409845D01*
X162687000Y-125603000D01*
X162707000Y-125603000D01*
X162707000Y-125857000D01*
X162687000Y-125857000D01*
X162687000Y-127050155D01*
X162916890Y-127171476D01*
X163326924Y-127001645D01*
X163755183Y-126611358D01*
X163822298Y-126468447D01*
X164049946Y-126809147D01*
X164531715Y-127131054D01*
X165100000Y-127244093D01*
X165668285Y-127131054D01*
X166150054Y-126809147D01*
X166177850Y-126767548D01*
X166186838Y-126815317D01*
X166325910Y-127031441D01*
X166538110Y-127176431D01*
X166790000Y-127227440D01*
X168313468Y-127227440D01*
X167980908Y-127560000D01*
X135549091Y-127560000D01*
X133425000Y-125435908D01*
X133425000Y-125336667D01*
X133540853Y-125510054D01*
X134022622Y-125831961D01*
X134590907Y-125945000D01*
X134649093Y-125945000D01*
X135217378Y-125831961D01*
X135699147Y-125510054D01*
X135892954Y-125220000D01*
X138310658Y-125220000D01*
X138215000Y-125700907D01*
X138215000Y-125759093D01*
X138328039Y-126327378D01*
X138649946Y-126809147D01*
X139131715Y-127131054D01*
X139700000Y-127244093D01*
X140268285Y-127131054D01*
X140750054Y-126809147D01*
X140970000Y-126479974D01*
X141189946Y-126809147D01*
X141671715Y-127131054D01*
X142240000Y-127244093D01*
X142808285Y-127131054D01*
X143290054Y-126809147D01*
X143510000Y-126479974D01*
X143729946Y-126809147D01*
X144211715Y-127131054D01*
X144780000Y-127244093D01*
X145348285Y-127131054D01*
X145830054Y-126809147D01*
X146050000Y-126479974D01*
X146269946Y-126809147D01*
X146751715Y-127131054D01*
X147320000Y-127244093D01*
X147888285Y-127131054D01*
X148370054Y-126809147D01*
X148590000Y-126479974D01*
X148809946Y-126809147D01*
X149291715Y-127131054D01*
X149860000Y-127244093D01*
X150428285Y-127131054D01*
X150910054Y-126809147D01*
X151130000Y-126479974D01*
X151349946Y-126809147D01*
X151831715Y-127131054D01*
X152400000Y-127244093D01*
X152968285Y-127131054D01*
X153450054Y-126809147D01*
X153670000Y-126479974D01*
X153889946Y-126809147D01*
X154371715Y-127131054D01*
X154940000Y-127244093D01*
X155508285Y-127131054D01*
X155990054Y-126809147D01*
X156210000Y-126479974D01*
X156429946Y-126809147D01*
X156911715Y-127131054D01*
X157480000Y-127244093D01*
X158048285Y-127131054D01*
X158530054Y-126809147D01*
X158750000Y-126479974D01*
X158969946Y-126809147D01*
X159451715Y-127131054D01*
X160020000Y-127244093D01*
X160588285Y-127131054D01*
X161070054Y-126809147D01*
X161297702Y-126468447D01*
X161364817Y-126611358D01*
X161793076Y-127001645D01*
X162203110Y-127171476D01*
X162433000Y-127050155D01*
X162433000Y-125857000D01*
X162413000Y-125857000D01*
X162413000Y-125603000D01*
X162433000Y-125603000D01*
X162433000Y-124409845D01*
X162203110Y-124288524D01*
X161793076Y-124458355D01*
X161364817Y-124848642D01*
X161297702Y-124991553D01*
X161070054Y-124650853D01*
X160588285Y-124328946D01*
X160020000Y-124215907D01*
X159848602Y-124250000D01*
X166094927Y-118003675D01*
X166123642Y-118035183D01*
X166648108Y-118281486D01*
X166878000Y-118160819D01*
X166878000Y-116967000D01*
X167132000Y-116967000D01*
X167132000Y-118160819D01*
X167361892Y-118281486D01*
X167886358Y-118035183D01*
X168276645Y-117606924D01*
X168446476Y-117196890D01*
X168325155Y-116967000D01*
X167132000Y-116967000D01*
X166878000Y-116967000D01*
X166858000Y-116967000D01*
X166858000Y-116713000D01*
X166878000Y-116713000D01*
X166878000Y-114427000D01*
X167132000Y-114427000D01*
X167132000Y-116713000D01*
X168325155Y-116713000D01*
X168446476Y-116483110D01*
X168276645Y-116073076D01*
X167886358Y-115644817D01*
X167727046Y-115570000D01*
X167886358Y-115495183D01*
X168276645Y-115066924D01*
X168446476Y-114656890D01*
X168325155Y-114427000D01*
X167132000Y-114427000D01*
X166878000Y-114427000D01*
X166858000Y-114427000D01*
X166858000Y-114173000D01*
X166878000Y-114173000D01*
X166878000Y-111887000D01*
X167132000Y-111887000D01*
X167132000Y-114173000D01*
X168325155Y-114173000D01*
X168446476Y-113943110D01*
X168276645Y-113533076D01*
X167886358Y-113104817D01*
X167727046Y-113030000D01*
X167886358Y-112955183D01*
X168276645Y-112526924D01*
X168446476Y-112116890D01*
X168325155Y-111887000D01*
X167132000Y-111887000D01*
X166878000Y-111887000D01*
X166858000Y-111887000D01*
X166858000Y-111633000D01*
X166878000Y-111633000D01*
X166878000Y-109347000D01*
X167132000Y-109347000D01*
X167132000Y-111633000D01*
X168325155Y-111633000D01*
X168446476Y-111403110D01*
X168276645Y-110993076D01*
X167886358Y-110564817D01*
X167727046Y-110490000D01*
X167886358Y-110415183D01*
X168276645Y-109986924D01*
X168446476Y-109576890D01*
X168325155Y-109347000D01*
X167132000Y-109347000D01*
X166878000Y-109347000D01*
X166858000Y-109347000D01*
X166858000Y-109093000D01*
X166878000Y-109093000D01*
X166878000Y-109073000D01*
X167132000Y-109073000D01*
X167132000Y-109093000D01*
X168325155Y-109093000D01*
X168446476Y-108863110D01*
X168276645Y-108453076D01*
X167886358Y-108024817D01*
X167743447Y-107957702D01*
X168084147Y-107730054D01*
X168406054Y-107248285D01*
X168519093Y-106680000D01*
X168406054Y-106111715D01*
X168084147Y-105629946D01*
X167602378Y-105308039D01*
X167034093Y-105195000D01*
X166975907Y-105195000D01*
X166407622Y-105308039D01*
X166367339Y-105334955D01*
X166367101Y-105334599D01*
X165868201Y-104835699D01*
X165621639Y-104670952D01*
X165330800Y-104613100D01*
X152349456Y-104613100D01*
X152557492Y-104405427D01*
X152700138Y-104061899D01*
X152700179Y-104015023D01*
X158747101Y-97968101D01*
X158790321Y-97903418D01*
X158816715Y-97921054D01*
X159385000Y-98034093D01*
X159953285Y-97921054D01*
X160435054Y-97599147D01*
X160655000Y-97269974D01*
X160874946Y-97599147D01*
X161356715Y-97921054D01*
X161925000Y-98034093D01*
X162493285Y-97921054D01*
X162975054Y-97599147D01*
X163195000Y-97269974D01*
X163414946Y-97599147D01*
X163896715Y-97921054D01*
X164465000Y-98034093D01*
X165033285Y-97921054D01*
X165515054Y-97599147D01*
X165735000Y-97269974D01*
X165954946Y-97599147D01*
X166436715Y-97921054D01*
X167005000Y-98034093D01*
X167573285Y-97921054D01*
X168055054Y-97599147D01*
X168376961Y-97117378D01*
X168490000Y-96549093D01*
X168490000Y-96490907D01*
X168376961Y-95922622D01*
X168055054Y-95440853D01*
X167573285Y-95118946D01*
X167005000Y-95005907D01*
X166436715Y-95118946D01*
X165954946Y-95440853D01*
X165735000Y-95770026D01*
X165515054Y-95440853D01*
X165033285Y-95118946D01*
X164465000Y-95005907D01*
X163896715Y-95118946D01*
X163414946Y-95440853D01*
X163195000Y-95770026D01*
X162975054Y-95440853D01*
X162493285Y-95118946D01*
X161925000Y-95005907D01*
X161356715Y-95118946D01*
X160874946Y-95440853D01*
X160655000Y-95770026D01*
X160435054Y-95440853D01*
X159953285Y-95118946D01*
X159385000Y-95005907D01*
X158816715Y-95118946D01*
X158334946Y-95440853D01*
X158115000Y-95770026D01*
X157895054Y-95440853D01*
X157413285Y-95118946D01*
X156845000Y-95005907D01*
X156276715Y-95118946D01*
X155794946Y-95440853D01*
X155575000Y-95770026D01*
X155355054Y-95440853D01*
X154873285Y-95118946D01*
X154305000Y-95005907D01*
X153736715Y-95118946D01*
X153254946Y-95440853D01*
X153035000Y-95770026D01*
X152815054Y-95440853D01*
X152333285Y-95118946D01*
X151765000Y-95005907D01*
X151196715Y-95118946D01*
X150714946Y-95440853D01*
X150495000Y-95770026D01*
X150275054Y-95440853D01*
X149793285Y-95118946D01*
X149225000Y-95005907D01*
X148656715Y-95118946D01*
X148174946Y-95440853D01*
X147955000Y-95770026D01*
X147735054Y-95440853D01*
X147253285Y-95118946D01*
X146685000Y-95005907D01*
X146116715Y-95118946D01*
X145634946Y-95440853D01*
X145415000Y-95770026D01*
X145195054Y-95440853D01*
X144713285Y-95118946D01*
X144145000Y-95005907D01*
X143576715Y-95118946D01*
X143094946Y-95440853D01*
X142875000Y-95770026D01*
X142655054Y-95440853D01*
X142173285Y-95118946D01*
X141605000Y-95005907D01*
X141036715Y-95118946D01*
X140554946Y-95440853D01*
X140527150Y-95482452D01*
X140518162Y-95434683D01*
X140379090Y-95218559D01*
X140166890Y-95073569D01*
X139915000Y-95022560D01*
X138215000Y-95022560D01*
X137979683Y-95066838D01*
X137763559Y-95205910D01*
X137618569Y-95418110D01*
X137567560Y-95670000D01*
X137567560Y-97370000D01*
X137611838Y-97605317D01*
X137750910Y-97821441D01*
X137963110Y-97966431D01*
X138215000Y-98017440D01*
X139915000Y-98017440D01*
X140150317Y-97973162D01*
X140366441Y-97834090D01*
X140511431Y-97621890D01*
X140525086Y-97554459D01*
X140554946Y-97599147D01*
X141036715Y-97921054D01*
X141605000Y-98034093D01*
X142173285Y-97921054D01*
X142655054Y-97599147D01*
X142875000Y-97269974D01*
X143094946Y-97599147D01*
X143576715Y-97921054D01*
X144145000Y-98034093D01*
X144713285Y-97921054D01*
X145195054Y-97599147D01*
X145415000Y-97269974D01*
X145634946Y-97599147D01*
X146116715Y-97921054D01*
X146685000Y-98034093D01*
X147253285Y-97921054D01*
X147735054Y-97599147D01*
X147955000Y-97269974D01*
X148174946Y-97599147D01*
X148656715Y-97921054D01*
X149225000Y-98034093D01*
X149793285Y-97921054D01*
X150275054Y-97599147D01*
X150495000Y-97269974D01*
X150714946Y-97599147D01*
X151196715Y-97921054D01*
X151765000Y-98034093D01*
X152333285Y-97921054D01*
X152815054Y-97599147D01*
X153035000Y-97269974D01*
X153254946Y-97599147D01*
X153736715Y-97921054D01*
X154305000Y-98034093D01*
X154873285Y-97921054D01*
X155355054Y-97599147D01*
X155575000Y-97269974D01*
X155794946Y-97599147D01*
X156276715Y-97921054D01*
X156583517Y-97982081D01*
X151625620Y-102939978D01*
X151580133Y-102939938D01*
X151236357Y-103081983D01*
X151203182Y-103115100D01*
X143522803Y-103115100D01*
X141843522Y-101435820D01*
X141843562Y-101390333D01*
X141701517Y-101046557D01*
X141438727Y-100783308D01*
X141095199Y-100640662D01*
X140723233Y-100640338D01*
X140379457Y-100782383D01*
X140116208Y-101045173D01*
X139973562Y-101388701D01*
X139973238Y-101760667D01*
X140115283Y-102104443D01*
X140378073Y-102367692D01*
X140721601Y-102510338D01*
X140768477Y-102510379D01*
X142251244Y-103993147D01*
X142231700Y-104091400D01*
X142231700Y-109907697D01*
X135942804Y-116196593D01*
X135891645Y-116073076D01*
X135615499Y-115770063D01*
X135705317Y-115753162D01*
X135921441Y-115614090D01*
X136066431Y-115401890D01*
X136117440Y-115150000D01*
X136117440Y-113450000D01*
X136073162Y-113214683D01*
X135934090Y-112998559D01*
X135721890Y-112853569D01*
X135470000Y-112802560D01*
X133770000Y-112802560D01*
X133534683Y-112846838D01*
X133425000Y-112917417D01*
X133425000Y-111985536D01*
X133650671Y-112323277D01*
X134051334Y-112590991D01*
X134523948Y-112685000D01*
X135286052Y-112685000D01*
X135758666Y-112590991D01*
X136159329Y-112323277D01*
X136243405Y-112197447D01*
X136471139Y-112152148D01*
X136717701Y-111987401D01*
X137023836Y-111681266D01*
X137333292Y-111809763D01*
X137874334Y-111810236D01*
X138374372Y-111603624D01*
X138757280Y-111221384D01*
X138964763Y-110721708D01*
X138965236Y-110180666D01*
X138758624Y-109680628D01*
X138376384Y-109297720D01*
X137876708Y-109090237D01*
X137335666Y-109089764D01*
X136835628Y-109296376D01*
X136452720Y-109678616D01*
X136245237Y-110178292D01*
X136245122Y-110310376D01*
X136051095Y-110504403D01*
X135758666Y-110309009D01*
X135286052Y-110215000D01*
X134523948Y-110215000D01*
X134051334Y-110309009D01*
X133650671Y-110576723D01*
X133425000Y-110914464D01*
X133425000Y-104985536D01*
X133650671Y-105323277D01*
X134051334Y-105590991D01*
X134523948Y-105685000D01*
X135286052Y-105685000D01*
X135758666Y-105590991D01*
X136159329Y-105323277D01*
X136245223Y-105194728D01*
X136244764Y-105719334D01*
X136451376Y-106219372D01*
X136833616Y-106602280D01*
X137333292Y-106809763D01*
X137874334Y-106810236D01*
X138374372Y-106603624D01*
X138757280Y-106221384D01*
X138964763Y-105721708D01*
X138965236Y-105180666D01*
X138758624Y-104680628D01*
X138376384Y-104297720D01*
X137876708Y-104090237D01*
X137335666Y-104089764D01*
X136835628Y-104296376D01*
X136481241Y-104650145D01*
X136521052Y-104450000D01*
X136427043Y-103977386D01*
X136159329Y-103576723D01*
X135758666Y-103309009D01*
X135286052Y-103215000D01*
X134523948Y-103215000D01*
X134051334Y-103309009D01*
X133650671Y-103576723D01*
X133425000Y-103914464D01*
X133425000Y-96814092D01*
X135549091Y-94690000D01*
X167345908Y-94690000D01*
X170105000Y-97449092D01*
X170105000Y-97449092D01*
G37*
X170105000Y-97449092D02*
X170105000Y-125435909D01*
X169137440Y-126403469D01*
X169137440Y-124880000D01*
X169093162Y-124644683D01*
X168954090Y-124428559D01*
X168741890Y-124283569D01*
X168490000Y-124232560D01*
X166790000Y-124232560D01*
X166554683Y-124276838D01*
X166338559Y-124415910D01*
X166193569Y-124628110D01*
X166179914Y-124695541D01*
X166150054Y-124650853D01*
X165668285Y-124328946D01*
X165100000Y-124215907D01*
X164531715Y-124328946D01*
X164049946Y-124650853D01*
X163822298Y-124991553D01*
X163755183Y-124848642D01*
X163326924Y-124458355D01*
X162916890Y-124288524D01*
X162687000Y-124409845D01*
X162687000Y-125603000D01*
X162707000Y-125603000D01*
X162707000Y-125857000D01*
X162687000Y-125857000D01*
X162687000Y-127050155D01*
X162916890Y-127171476D01*
X163326924Y-127001645D01*
X163755183Y-126611358D01*
X163822298Y-126468447D01*
X164049946Y-126809147D01*
X164531715Y-127131054D01*
X165100000Y-127244093D01*
X165668285Y-127131054D01*
X166150054Y-126809147D01*
X166177850Y-126767548D01*
X166186838Y-126815317D01*
X166325910Y-127031441D01*
X166538110Y-127176431D01*
X166790000Y-127227440D01*
X168313468Y-127227440D01*
X167980908Y-127560000D01*
X135549091Y-127560000D01*
X133425000Y-125435908D01*
X133425000Y-125336667D01*
X133540853Y-125510054D01*
X134022622Y-125831961D01*
X134590907Y-125945000D01*
X134649093Y-125945000D01*
X135217378Y-125831961D01*
X135699147Y-125510054D01*
X135892954Y-125220000D01*
X138310658Y-125220000D01*
X138215000Y-125700907D01*
X138215000Y-125759093D01*
X138328039Y-126327378D01*
X138649946Y-126809147D01*
X139131715Y-127131054D01*
X139700000Y-127244093D01*
X140268285Y-127131054D01*
X140750054Y-126809147D01*
X140970000Y-126479974D01*
X141189946Y-126809147D01*
X141671715Y-127131054D01*
X142240000Y-127244093D01*
X142808285Y-127131054D01*
X143290054Y-126809147D01*
X143510000Y-126479974D01*
X143729946Y-126809147D01*
X144211715Y-127131054D01*
X144780000Y-127244093D01*
X145348285Y-127131054D01*
X145830054Y-126809147D01*
X146050000Y-126479974D01*
X146269946Y-126809147D01*
X146751715Y-127131054D01*
X147320000Y-127244093D01*
X147888285Y-127131054D01*
X148370054Y-126809147D01*
X148590000Y-126479974D01*
X148809946Y-126809147D01*
X149291715Y-127131054D01*
X149860000Y-127244093D01*
X150428285Y-127131054D01*
X150910054Y-126809147D01*
X151130000Y-126479974D01*
X151349946Y-126809147D01*
X151831715Y-127131054D01*
X152400000Y-127244093D01*
X152968285Y-127131054D01*
X153450054Y-126809147D01*
X153670000Y-126479974D01*
X153889946Y-126809147D01*
X154371715Y-127131054D01*
X154940000Y-127244093D01*
X155508285Y-127131054D01*
X155990054Y-126809147D01*
X156210000Y-126479974D01*
X156429946Y-126809147D01*
X156911715Y-127131054D01*
X157480000Y-127244093D01*
X158048285Y-127131054D01*
X158530054Y-126809147D01*
X158750000Y-126479974D01*
X158969946Y-126809147D01*
X159451715Y-127131054D01*
X160020000Y-127244093D01*
X160588285Y-127131054D01*
X161070054Y-126809147D01*
X161297702Y-126468447D01*
X161364817Y-126611358D01*
X161793076Y-127001645D01*
X162203110Y-127171476D01*
X162433000Y-127050155D01*
X162433000Y-125857000D01*
X162413000Y-125857000D01*
X162413000Y-125603000D01*
X162433000Y-125603000D01*
X162433000Y-124409845D01*
X162203110Y-124288524D01*
X161793076Y-124458355D01*
X161364817Y-124848642D01*
X161297702Y-124991553D01*
X161070054Y-124650853D01*
X160588285Y-124328946D01*
X160020000Y-124215907D01*
X159848602Y-124250000D01*
X166094927Y-118003675D01*
X166123642Y-118035183D01*
X166648108Y-118281486D01*
X166878000Y-118160819D01*
X166878000Y-116967000D01*
X167132000Y-116967000D01*
X167132000Y-118160819D01*
X167361892Y-118281486D01*
X167886358Y-118035183D01*
X168276645Y-117606924D01*
X168446476Y-117196890D01*
X168325155Y-116967000D01*
X167132000Y-116967000D01*
X166878000Y-116967000D01*
X166858000Y-116967000D01*
X166858000Y-116713000D01*
X166878000Y-116713000D01*
X166878000Y-114427000D01*
X167132000Y-114427000D01*
X167132000Y-116713000D01*
X168325155Y-116713000D01*
X168446476Y-116483110D01*
X168276645Y-116073076D01*
X167886358Y-115644817D01*
X167727046Y-115570000D01*
X167886358Y-115495183D01*
X168276645Y-115066924D01*
X168446476Y-114656890D01*
X168325155Y-114427000D01*
X167132000Y-114427000D01*
X166878000Y-114427000D01*
X166858000Y-114427000D01*
X166858000Y-114173000D01*
X166878000Y-114173000D01*
X166878000Y-111887000D01*
X167132000Y-111887000D01*
X167132000Y-114173000D01*
X168325155Y-114173000D01*
X168446476Y-113943110D01*
X168276645Y-113533076D01*
X167886358Y-113104817D01*
X167727046Y-113030000D01*
X167886358Y-112955183D01*
X168276645Y-112526924D01*
X168446476Y-112116890D01*
X168325155Y-111887000D01*
X167132000Y-111887000D01*
X166878000Y-111887000D01*
X166858000Y-111887000D01*
X166858000Y-111633000D01*
X166878000Y-111633000D01*
X166878000Y-109347000D01*
X167132000Y-109347000D01*
X167132000Y-111633000D01*
X168325155Y-111633000D01*
X168446476Y-111403110D01*
X168276645Y-110993076D01*
X167886358Y-110564817D01*
X167727046Y-110490000D01*
X167886358Y-110415183D01*
X168276645Y-109986924D01*
X168446476Y-109576890D01*
X168325155Y-109347000D01*
X167132000Y-109347000D01*
X166878000Y-109347000D01*
X166858000Y-109347000D01*
X166858000Y-109093000D01*
X166878000Y-109093000D01*
X166878000Y-109073000D01*
X167132000Y-109073000D01*
X167132000Y-109093000D01*
X168325155Y-109093000D01*
X168446476Y-108863110D01*
X168276645Y-108453076D01*
X167886358Y-108024817D01*
X167743447Y-107957702D01*
X168084147Y-107730054D01*
X168406054Y-107248285D01*
X168519093Y-106680000D01*
X168406054Y-106111715D01*
X168084147Y-105629946D01*
X167602378Y-105308039D01*
X167034093Y-105195000D01*
X166975907Y-105195000D01*
X166407622Y-105308039D01*
X166367339Y-105334955D01*
X166367101Y-105334599D01*
X165868201Y-104835699D01*
X165621639Y-104670952D01*
X165330800Y-104613100D01*
X152349456Y-104613100D01*
X152557492Y-104405427D01*
X152700138Y-104061899D01*
X152700179Y-104015023D01*
X158747101Y-97968101D01*
X158790321Y-97903418D01*
X158816715Y-97921054D01*
X159385000Y-98034093D01*
X159953285Y-97921054D01*
X160435054Y-97599147D01*
X160655000Y-97269974D01*
X160874946Y-97599147D01*
X161356715Y-97921054D01*
X161925000Y-98034093D01*
X162493285Y-97921054D01*
X162975054Y-97599147D01*
X163195000Y-97269974D01*
X163414946Y-97599147D01*
X163896715Y-97921054D01*
X164465000Y-98034093D01*
X165033285Y-97921054D01*
X165515054Y-97599147D01*
X165735000Y-97269974D01*
X165954946Y-97599147D01*
X166436715Y-97921054D01*
X167005000Y-98034093D01*
X167573285Y-97921054D01*
X168055054Y-97599147D01*
X168376961Y-97117378D01*
X168490000Y-96549093D01*
X168490000Y-96490907D01*
X168376961Y-95922622D01*
X168055054Y-95440853D01*
X167573285Y-95118946D01*
X167005000Y-95005907D01*
X166436715Y-95118946D01*
X165954946Y-95440853D01*
X165735000Y-95770026D01*
X165515054Y-95440853D01*
X165033285Y-95118946D01*
X164465000Y-95005907D01*
X163896715Y-95118946D01*
X163414946Y-95440853D01*
X163195000Y-95770026D01*
X162975054Y-95440853D01*
X162493285Y-95118946D01*
X161925000Y-95005907D01*
X161356715Y-95118946D01*
X160874946Y-95440853D01*
X160655000Y-95770026D01*
X160435054Y-95440853D01*
X159953285Y-95118946D01*
X159385000Y-95005907D01*
X158816715Y-95118946D01*
X158334946Y-95440853D01*
X158115000Y-95770026D01*
X157895054Y-95440853D01*
X157413285Y-95118946D01*
X156845000Y-95005907D01*
X156276715Y-95118946D01*
X155794946Y-95440853D01*
X155575000Y-95770026D01*
X155355054Y-95440853D01*
X154873285Y-95118946D01*
X154305000Y-95005907D01*
X153736715Y-95118946D01*
X153254946Y-95440853D01*
X153035000Y-95770026D01*
X152815054Y-95440853D01*
X152333285Y-95118946D01*
X151765000Y-95005907D01*
X151196715Y-95118946D01*
X150714946Y-95440853D01*
X150495000Y-95770026D01*
X150275054Y-95440853D01*
X149793285Y-95118946D01*
X149225000Y-95005907D01*
X148656715Y-95118946D01*
X148174946Y-95440853D01*
X147955000Y-95770026D01*
X147735054Y-95440853D01*
X147253285Y-95118946D01*
X146685000Y-95005907D01*
X146116715Y-95118946D01*
X145634946Y-95440853D01*
X145415000Y-95770026D01*
X145195054Y-95440853D01*
X144713285Y-95118946D01*
X144145000Y-95005907D01*
X143576715Y-95118946D01*
X143094946Y-95440853D01*
X142875000Y-95770026D01*
X142655054Y-95440853D01*
X142173285Y-95118946D01*
X141605000Y-95005907D01*
X141036715Y-95118946D01*
X140554946Y-95440853D01*
X140527150Y-95482452D01*
X140518162Y-95434683D01*
X140379090Y-95218559D01*
X140166890Y-95073569D01*
X139915000Y-95022560D01*
X138215000Y-95022560D01*
X137979683Y-95066838D01*
X137763559Y-95205910D01*
X137618569Y-95418110D01*
X137567560Y-95670000D01*
X137567560Y-97370000D01*
X137611838Y-97605317D01*
X137750910Y-97821441D01*
X137963110Y-97966431D01*
X138215000Y-98017440D01*
X139915000Y-98017440D01*
X140150317Y-97973162D01*
X140366441Y-97834090D01*
X140511431Y-97621890D01*
X140525086Y-97554459D01*
X140554946Y-97599147D01*
X141036715Y-97921054D01*
X141605000Y-98034093D01*
X142173285Y-97921054D01*
X142655054Y-97599147D01*
X142875000Y-97269974D01*
X143094946Y-97599147D01*
X143576715Y-97921054D01*
X144145000Y-98034093D01*
X144713285Y-97921054D01*
X145195054Y-97599147D01*
X145415000Y-97269974D01*
X145634946Y-97599147D01*
X146116715Y-97921054D01*
X146685000Y-98034093D01*
X147253285Y-97921054D01*
X147735054Y-97599147D01*
X147955000Y-97269974D01*
X148174946Y-97599147D01*
X148656715Y-97921054D01*
X149225000Y-98034093D01*
X149793285Y-97921054D01*
X150275054Y-97599147D01*
X150495000Y-97269974D01*
X150714946Y-97599147D01*
X151196715Y-97921054D01*
X151765000Y-98034093D01*
X152333285Y-97921054D01*
X152815054Y-97599147D01*
X153035000Y-97269974D01*
X153254946Y-97599147D01*
X153736715Y-97921054D01*
X154305000Y-98034093D01*
X154873285Y-97921054D01*
X155355054Y-97599147D01*
X155575000Y-97269974D01*
X155794946Y-97599147D01*
X156276715Y-97921054D01*
X156583517Y-97982081D01*
X151625620Y-102939978D01*
X151580133Y-102939938D01*
X151236357Y-103081983D01*
X151203182Y-103115100D01*
X143522803Y-103115100D01*
X141843522Y-101435820D01*
X141843562Y-101390333D01*
X141701517Y-101046557D01*
X141438727Y-100783308D01*
X141095199Y-100640662D01*
X140723233Y-100640338D01*
X140379457Y-100782383D01*
X140116208Y-101045173D01*
X139973562Y-101388701D01*
X139973238Y-101760667D01*
X140115283Y-102104443D01*
X140378073Y-102367692D01*
X140721601Y-102510338D01*
X140768477Y-102510379D01*
X142251244Y-103993147D01*
X142231700Y-104091400D01*
X142231700Y-109907697D01*
X135942804Y-116196593D01*
X135891645Y-116073076D01*
X135615499Y-115770063D01*
X135705317Y-115753162D01*
X135921441Y-115614090D01*
X136066431Y-115401890D01*
X136117440Y-115150000D01*
X136117440Y-113450000D01*
X136073162Y-113214683D01*
X135934090Y-112998559D01*
X135721890Y-112853569D01*
X135470000Y-112802560D01*
X133770000Y-112802560D01*
X133534683Y-112846838D01*
X133425000Y-112917417D01*
X133425000Y-111985536D01*
X133650671Y-112323277D01*
X134051334Y-112590991D01*
X134523948Y-112685000D01*
X135286052Y-112685000D01*
X135758666Y-112590991D01*
X136159329Y-112323277D01*
X136243405Y-112197447D01*
X136471139Y-112152148D01*
X136717701Y-111987401D01*
X137023836Y-111681266D01*
X137333292Y-111809763D01*
X137874334Y-111810236D01*
X138374372Y-111603624D01*
X138757280Y-111221384D01*
X138964763Y-110721708D01*
X138965236Y-110180666D01*
X138758624Y-109680628D01*
X138376384Y-109297720D01*
X137876708Y-109090237D01*
X137335666Y-109089764D01*
X136835628Y-109296376D01*
X136452720Y-109678616D01*
X136245237Y-110178292D01*
X136245122Y-110310376D01*
X136051095Y-110504403D01*
X135758666Y-110309009D01*
X135286052Y-110215000D01*
X134523948Y-110215000D01*
X134051334Y-110309009D01*
X133650671Y-110576723D01*
X133425000Y-110914464D01*
X133425000Y-104985536D01*
X133650671Y-105323277D01*
X134051334Y-105590991D01*
X134523948Y-105685000D01*
X135286052Y-105685000D01*
X135758666Y-105590991D01*
X136159329Y-105323277D01*
X136245223Y-105194728D01*
X136244764Y-105719334D01*
X136451376Y-106219372D01*
X136833616Y-106602280D01*
X137333292Y-106809763D01*
X137874334Y-106810236D01*
X138374372Y-106603624D01*
X138757280Y-106221384D01*
X138964763Y-105721708D01*
X138965236Y-105180666D01*
X138758624Y-104680628D01*
X138376384Y-104297720D01*
X137876708Y-104090237D01*
X137335666Y-104089764D01*
X136835628Y-104296376D01*
X136481241Y-104650145D01*
X136521052Y-104450000D01*
X136427043Y-103977386D01*
X136159329Y-103576723D01*
X135758666Y-103309009D01*
X135286052Y-103215000D01*
X134523948Y-103215000D01*
X134051334Y-103309009D01*
X133650671Y-103576723D01*
X133425000Y-103914464D01*
X133425000Y-96814092D01*
X135549091Y-94690000D01*
X167345908Y-94690000D01*
X170105000Y-97449092D01*
G36*
X163385853Y-117890054D02*
X163789342Y-118159656D01*
X158154298Y-123794700D01*
X146763200Y-123794700D01*
X146472361Y-123852552D01*
X146225799Y-124017299D01*
X145687498Y-124555600D01*
X145453532Y-124399270D01*
X152252802Y-117600000D01*
X163192046Y-117600000D01*
X163385853Y-117890054D01*
X163385853Y-117890054D01*
G37*
X163385853Y-117890054D02*
X163789342Y-118159656D01*
X158154298Y-123794700D01*
X146763200Y-123794700D01*
X146472361Y-123852552D01*
X146225799Y-124017299D01*
X145687498Y-124555600D01*
X145453532Y-124399270D01*
X152252802Y-117600000D01*
X163192046Y-117600000D01*
X163385853Y-117890054D01*
G36*
X151234973Y-104667292D02*
X151512296Y-104782447D01*
X151432599Y-104835699D01*
X151312720Y-104955578D01*
X151267233Y-104955538D01*
X150923457Y-105097583D01*
X150660208Y-105360373D01*
X150517562Y-105703901D01*
X150517238Y-106075867D01*
X150659283Y-106419643D01*
X150922073Y-106682892D01*
X151265601Y-106825538D01*
X151637567Y-106825862D01*
X151981343Y-106683817D01*
X152244592Y-106421027D01*
X152364150Y-106133100D01*
X162967560Y-106133100D01*
X162967560Y-107530000D01*
X163011838Y-107765317D01*
X163150910Y-107981441D01*
X163363110Y-108126431D01*
X163430541Y-108140086D01*
X163385853Y-108169946D01*
X163063946Y-108651715D01*
X162950907Y-109220000D01*
X163063946Y-109788285D01*
X163385853Y-110270054D01*
X163715026Y-110490000D01*
X163385853Y-110709946D01*
X163063946Y-111191715D01*
X162950907Y-111760000D01*
X163063946Y-112328285D01*
X163385853Y-112810054D01*
X163715026Y-113030000D01*
X163385853Y-113249946D01*
X163192046Y-113540000D01*
X151938000Y-113540000D01*
X151647160Y-113597852D01*
X151400599Y-113762599D01*
X150018234Y-115144964D01*
X150018262Y-115112933D01*
X149876217Y-114769157D01*
X149613427Y-114505908D01*
X149269899Y-114363262D01*
X148897933Y-114362938D01*
X148554157Y-114504983D01*
X148290908Y-114767773D01*
X148148262Y-115111301D01*
X148148221Y-115158177D01*
X139606398Y-123700000D01*
X135892954Y-123700000D01*
X135699147Y-123409946D01*
X135369974Y-123190000D01*
X135699147Y-122970054D01*
X136021054Y-122488285D01*
X136134093Y-121920000D01*
X136021054Y-121351715D01*
X135699147Y-120869946D01*
X135369974Y-120650000D01*
X135699147Y-120430054D01*
X136021054Y-119948285D01*
X136134093Y-119380000D01*
X136021054Y-118811715D01*
X135803252Y-118485750D01*
X138909353Y-115379649D01*
X138933946Y-115503285D01*
X139255853Y-115985054D01*
X139585026Y-116205000D01*
X139255853Y-116424946D01*
X138933946Y-116906715D01*
X138820907Y-117475000D01*
X138933946Y-118043285D01*
X139255853Y-118525054D01*
X139297452Y-118552850D01*
X139249683Y-118561838D01*
X139033559Y-118700910D01*
X138888569Y-118913110D01*
X138837560Y-119165000D01*
X138837560Y-120865000D01*
X138881838Y-121100317D01*
X139020910Y-121316441D01*
X139233110Y-121461431D01*
X139485000Y-121512440D01*
X141185000Y-121512440D01*
X141420317Y-121468162D01*
X141636441Y-121329090D01*
X141781431Y-121116890D01*
X141832440Y-120865000D01*
X141832440Y-119165000D01*
X141788162Y-118929683D01*
X141649090Y-118713559D01*
X141436890Y-118568569D01*
X141369459Y-118554914D01*
X141414147Y-118525054D01*
X141736054Y-118043285D01*
X141849093Y-117475000D01*
X141736054Y-116906715D01*
X141414147Y-116424946D01*
X141084974Y-116205000D01*
X141414147Y-115985054D01*
X141736054Y-115503285D01*
X141849093Y-114935000D01*
X141736054Y-114366715D01*
X141414147Y-113884946D01*
X140932378Y-113563039D01*
X140760210Y-113528793D01*
X143529101Y-110759902D01*
X143651496Y-110576723D01*
X143693848Y-110513339D01*
X143751700Y-110222500D01*
X143751700Y-104635100D01*
X151202837Y-104635100D01*
X151234973Y-104667292D01*
X151234973Y-104667292D01*
G37*
X151234973Y-104667292D02*
X151512296Y-104782447D01*
X151432599Y-104835699D01*
X151312720Y-104955578D01*
X151267233Y-104955538D01*
X150923457Y-105097583D01*
X150660208Y-105360373D01*
X150517562Y-105703901D01*
X150517238Y-106075867D01*
X150659283Y-106419643D01*
X150922073Y-106682892D01*
X151265601Y-106825538D01*
X151637567Y-106825862D01*
X151981343Y-106683817D01*
X152244592Y-106421027D01*
X152364150Y-106133100D01*
X162967560Y-106133100D01*
X162967560Y-107530000D01*
X163011838Y-107765317D01*
X163150910Y-107981441D01*
X163363110Y-108126431D01*
X163430541Y-108140086D01*
X163385853Y-108169946D01*
X163063946Y-108651715D01*
X162950907Y-109220000D01*
X163063946Y-109788285D01*
X163385853Y-110270054D01*
X163715026Y-110490000D01*
X163385853Y-110709946D01*
X163063946Y-111191715D01*
X162950907Y-111760000D01*
X163063946Y-112328285D01*
X163385853Y-112810054D01*
X163715026Y-113030000D01*
X163385853Y-113249946D01*
X163192046Y-113540000D01*
X151938000Y-113540000D01*
X151647160Y-113597852D01*
X151400599Y-113762599D01*
X150018234Y-115144964D01*
X150018262Y-115112933D01*
X149876217Y-114769157D01*
X149613427Y-114505908D01*
X149269899Y-114363262D01*
X148897933Y-114362938D01*
X148554157Y-114504983D01*
X148290908Y-114767773D01*
X148148262Y-115111301D01*
X148148221Y-115158177D01*
X139606398Y-123700000D01*
X135892954Y-123700000D01*
X135699147Y-123409946D01*
X135369974Y-123190000D01*
X135699147Y-122970054D01*
X136021054Y-122488285D01*
X136134093Y-121920000D01*
X136021054Y-121351715D01*
X135699147Y-120869946D01*
X135369974Y-120650000D01*
X135699147Y-120430054D01*
X136021054Y-119948285D01*
X136134093Y-119380000D01*
X136021054Y-118811715D01*
X135803252Y-118485750D01*
X138909353Y-115379649D01*
X138933946Y-115503285D01*
X139255853Y-115985054D01*
X139585026Y-116205000D01*
X139255853Y-116424946D01*
X138933946Y-116906715D01*
X138820907Y-117475000D01*
X138933946Y-118043285D01*
X139255853Y-118525054D01*
X139297452Y-118552850D01*
X139249683Y-118561838D01*
X139033559Y-118700910D01*
X138888569Y-118913110D01*
X138837560Y-119165000D01*
X138837560Y-120865000D01*
X138881838Y-121100317D01*
X139020910Y-121316441D01*
X139233110Y-121461431D01*
X139485000Y-121512440D01*
X141185000Y-121512440D01*
X141420317Y-121468162D01*
X141636441Y-121329090D01*
X141781431Y-121116890D01*
X141832440Y-120865000D01*
X141832440Y-119165000D01*
X141788162Y-118929683D01*
X141649090Y-118713559D01*
X141436890Y-118568569D01*
X141369459Y-118554914D01*
X141414147Y-118525054D01*
X141736054Y-118043285D01*
X141849093Y-117475000D01*
X141736054Y-116906715D01*
X141414147Y-116424946D01*
X141084974Y-116205000D01*
X141414147Y-115985054D01*
X141736054Y-115503285D01*
X141849093Y-114935000D01*
X141736054Y-114366715D01*
X141414147Y-113884946D01*
X140932378Y-113563039D01*
X140760210Y-113528793D01*
X143529101Y-110759902D01*
X143651496Y-110576723D01*
X143693848Y-110513339D01*
X143751700Y-110222500D01*
X143751700Y-104635100D01*
X151202837Y-104635100D01*
X151234973Y-104667292D01*
G36*
X134747000Y-116713000D02*
X134767000Y-116713000D01*
X134767000Y-116967000D01*
X134747000Y-116967000D01*
X134747000Y-116987000D01*
X134493000Y-116987000D01*
X134493000Y-116967000D01*
X134473000Y-116967000D01*
X134473000Y-116713000D01*
X134493000Y-116713000D01*
X134493000Y-116693000D01*
X134747000Y-116693000D01*
X134747000Y-116713000D01*
X134747000Y-116713000D01*
G37*
X134747000Y-116713000D02*
X134767000Y-116713000D01*
X134767000Y-116967000D01*
X134747000Y-116967000D01*
X134747000Y-116987000D01*
X134493000Y-116987000D01*
X134493000Y-116967000D01*
X134473000Y-116967000D01*
X134473000Y-116713000D01*
X134493000Y-116713000D01*
X134493000Y-116693000D01*
X134747000Y-116693000D01*
X134747000Y-116713000D01*
M02*
