M48
INCH,TZ
T1C0.016
T2C0.024
T3C0.033
T4C0.039
%
G90
G05
T1
X59902Y-44009
X62784Y-41814
X63544Y-40615
X63745Y-41626
X63916Y-39619
X64327Y-41937
X64438Y-41074
X64750Y-41750
X64947Y-39403
X64967Y-43070
X65713Y-40157
T3
X59425Y-42516
X59425Y-44484
T4
X58750Y-38000
X58750Y-49500
X59750Y-38000
X59750Y-49500
X60750Y-38000
X60750Y-49500
X61000Y-46500
X61000Y-47500
X61750Y-38000
X61750Y-49500
X62000Y-46500
X62000Y-47500
X62750Y-38000
X62750Y-49500
X63000Y-46500
X63000Y-47500
X63750Y-38000
X63750Y-49500
X64000Y-46500
X64000Y-47500
X64750Y-38000
X64750Y-49500
X65000Y-46500
X65000Y-47500
X65750Y-38000
X65750Y-49500
X67000Y-39750
X67000Y-40750
X67000Y-41750
X67000Y-42750
X67000Y-43750
X67000Y-44750
X67000Y-45750
X67000Y-46750
X67000Y-47750
T2
X58224Y-42122G85X58500Y-42122
G05
X58500Y-44878G85X58224Y-44878
G05
T0
M30
