G04 #@! TF.FileFunction,Soldermask,Top*
%FSLAX46Y46*%
G04 Gerber Fmt 4.6, Leading zero omitted, Abs format (unit mm)*
G04 Created by KiCad (PCBNEW 4.0.7-e2-6376~58~ubuntu17.04.1) date Mon Oct  2 11:39:14 2017*
%MOMM*%
%LPD*%
G01*
G04 APERTURE LIST*
%ADD10C,0.100000*%
%ADD11R,1.200000X1.200000*%
%ADD12R,1.000000X1.900000*%
%ADD13R,2.300000X1.900000*%
%ADD14C,1.850000*%
%ADD15R,1.750000X0.800000*%
%ADD16O,2.300000X1.600000*%
%ADD17R,2.300000X1.600000*%
%ADD18R,2.100000X2.100000*%
%ADD19O,2.100000X2.100000*%
%ADD20R,2.100000X1.100000*%
%ADD21R,1.600000X1.150000*%
%ADD22R,1.600000X1.300000*%
G04 APERTURE END LIST*
D10*
D11*
X150025000Y-104140000D03*
X148425000Y-104140000D03*
X150025000Y-100965000D03*
X148425000Y-100965000D03*
D12*
X163195000Y-107790000D03*
X161925000Y-107790000D03*
X160655000Y-107790000D03*
X159385000Y-107790000D03*
X158115000Y-107790000D03*
X156845000Y-107790000D03*
X155575000Y-107790000D03*
X154305000Y-107790000D03*
X154305000Y-113190000D03*
X155575000Y-113190000D03*
X156845000Y-113190000D03*
X158115000Y-113190000D03*
X159385000Y-113190000D03*
X160655000Y-113190000D03*
X161925000Y-113190000D03*
X163195000Y-113190000D03*
D13*
X148240000Y-111490000D03*
D14*
X150940000Y-107990000D03*
D15*
X150940000Y-109840000D03*
X150940000Y-109190000D03*
X150940000Y-111790000D03*
X150940000Y-111140000D03*
X150940000Y-110490000D03*
D14*
X150940000Y-112990000D03*
D13*
X148240000Y-109490000D03*
D16*
X148240000Y-106990000D03*
X148240000Y-113990000D03*
D17*
X148240000Y-113390000D03*
X148240000Y-107590000D03*
D18*
X149225000Y-96520000D03*
D19*
X151765000Y-96520000D03*
X154305000Y-96520000D03*
X156845000Y-96520000D03*
X159385000Y-96520000D03*
X161925000Y-96520000D03*
X164465000Y-96520000D03*
X167005000Y-96520000D03*
D18*
X149225000Y-125730000D03*
D19*
X151765000Y-125730000D03*
X154305000Y-125730000D03*
X156845000Y-125730000D03*
X159385000Y-125730000D03*
X161925000Y-125730000D03*
X164465000Y-125730000D03*
X167005000Y-125730000D03*
D18*
X165100000Y-118110000D03*
D19*
X165100000Y-120650000D03*
X162560000Y-118110000D03*
X162560000Y-120650000D03*
X160020000Y-118110000D03*
X160020000Y-120650000D03*
X157480000Y-118110000D03*
X157480000Y-120650000D03*
X154940000Y-118110000D03*
X154940000Y-120650000D03*
D20*
X166370000Y-110420000D03*
X166370000Y-109220000D03*
X166370000Y-108020000D03*
D21*
X166685000Y-100965000D03*
X164785000Y-100965000D03*
X166685000Y-104140000D03*
X164785000Y-104140000D03*
D22*
X158920000Y-100965000D03*
X161120000Y-100965000D03*
X158920000Y-104140000D03*
X161120000Y-104140000D03*
X155405000Y-104140000D03*
X153205000Y-104140000D03*
X153205000Y-100965000D03*
X155405000Y-100965000D03*
D18*
X170180000Y-100965000D03*
D19*
X170180000Y-103505000D03*
X170180000Y-106045000D03*
X170180000Y-108585000D03*
X170180000Y-111125000D03*
X170180000Y-113665000D03*
X170180000Y-116205000D03*
X170180000Y-118745000D03*
X170180000Y-121285000D03*
M02*
