G04 #@! TF.FileFunction,Copper,L1,Top,Signal*
%FSLAX46Y46*%
G04 Gerber Fmt 4.6, Leading zero omitted, Abs format (unit mm)*
G04 Created by KiCad (PCBNEW 4.0.7-e2-6376~58~ubuntu17.04.1) date Sat Oct 28 19:32:16 2017*
%MOMM*%
%LPD*%
G01*
G04 APERTURE LIST*
%ADD10C,0.100000*%
%ADD11R,1.200000X0.750000*%
%ADD12R,0.750000X1.200000*%
%ADD13R,0.800000X0.800000*%
%ADD14R,0.600000X1.500000*%
%ADD15R,1.900000X1.500000*%
%ADD16C,1.450000*%
%ADD17R,1.350000X0.400000*%
%ADD18O,1.900000X1.200000*%
%ADD19R,1.900000X1.200000*%
%ADD20R,1.700000X1.700000*%
%ADD21O,1.700000X1.700000*%
%ADD22R,1.200000X0.900000*%
%ADD23R,0.700000X1.700000*%
%ADD24R,0.900000X1.200000*%
%ADD25C,0.600000*%
%ADD26C,0.250000*%
%ADD27C,0.254000*%
G04 APERTURE END LIST*
D10*
D11*
X140655000Y-107315000D03*
X142555000Y-107315000D03*
X140655000Y-110490000D03*
X142555000Y-110490000D03*
X153350000Y-120650000D03*
X151450000Y-120650000D03*
D12*
X158115000Y-111440000D03*
X158115000Y-109540000D03*
D13*
X142405000Y-100330000D03*
X140805000Y-100330000D03*
X142405000Y-103505000D03*
X140805000Y-103505000D03*
X137160000Y-101765000D03*
X137160000Y-100165000D03*
D14*
X154940000Y-107155000D03*
X153670000Y-107155000D03*
X152400000Y-107155000D03*
X151130000Y-107155000D03*
X149860000Y-107155000D03*
X148590000Y-107155000D03*
X147320000Y-107155000D03*
X146050000Y-107155000D03*
X146050000Y-112555000D03*
X147320000Y-112555000D03*
X148590000Y-112555000D03*
X149860000Y-112555000D03*
X151130000Y-112555000D03*
X152400000Y-112555000D03*
X153670000Y-112555000D03*
X154940000Y-112555000D03*
D15*
X134905000Y-108950000D03*
D16*
X137605000Y-105450000D03*
D17*
X137605000Y-107300000D03*
X137605000Y-106650000D03*
X137605000Y-109250000D03*
X137605000Y-108600000D03*
X137605000Y-107950000D03*
D16*
X137605000Y-110450000D03*
D15*
X134905000Y-106950000D03*
D18*
X134905000Y-104450000D03*
X134905000Y-111450000D03*
D19*
X134905000Y-110850000D03*
X134905000Y-105050000D03*
D20*
X164465000Y-106680000D03*
D21*
X167005000Y-106680000D03*
X164465000Y-109220000D03*
X167005000Y-109220000D03*
X164465000Y-111760000D03*
X167005000Y-111760000D03*
X164465000Y-114300000D03*
X167005000Y-114300000D03*
X164465000Y-116840000D03*
X167005000Y-116840000D03*
D20*
X140335000Y-120015000D03*
D21*
X140335000Y-117475000D03*
X140335000Y-114935000D03*
D22*
X149690000Y-100330000D03*
X147490000Y-100330000D03*
X156040000Y-100330000D03*
X153840000Y-100330000D03*
X151300000Y-115570000D03*
X153500000Y-115570000D03*
X153840000Y-103505000D03*
X156040000Y-103505000D03*
D23*
X146755000Y-103505000D03*
X147955000Y-103505000D03*
X149155000Y-103505000D03*
D20*
X167640000Y-125730000D03*
D21*
X165100000Y-125730000D03*
X162560000Y-125730000D03*
X160020000Y-125730000D03*
X157480000Y-125730000D03*
X154940000Y-125730000D03*
X152400000Y-125730000D03*
X149860000Y-125730000D03*
X147320000Y-125730000D03*
X144780000Y-125730000D03*
X142240000Y-125730000D03*
X139700000Y-125730000D03*
D20*
X134620000Y-114300000D03*
D21*
X134620000Y-116840000D03*
X134620000Y-119380000D03*
X134620000Y-121920000D03*
X134620000Y-124460000D03*
D20*
X139065000Y-96520000D03*
D21*
X141605000Y-96520000D03*
X144145000Y-96520000D03*
X146685000Y-96520000D03*
X149225000Y-96520000D03*
X151765000Y-96520000D03*
X154305000Y-96520000D03*
X156845000Y-96520000D03*
X159385000Y-96520000D03*
X161925000Y-96520000D03*
X164465000Y-96520000D03*
X167005000Y-96520000D03*
D24*
X147700000Y-115570000D03*
X144400000Y-115570000D03*
X144400000Y-120650000D03*
X147700000Y-120650000D03*
D25*
X143661700Y-107522600D03*
X143679000Y-110590200D03*
X155577500Y-105998400D03*
X158115000Y-109220000D03*
X150804800Y-100247100D03*
X147847800Y-104889100D03*
X138803500Y-109182800D03*
X150319100Y-120855600D03*
X157212200Y-109567700D03*
X151452400Y-105890700D03*
X151765300Y-103875100D03*
X140908400Y-101575500D03*
X149083100Y-115298100D03*
D26*
X142555000Y-107315000D02*
X143480300Y-107315000D01*
X143661700Y-107522600D02*
X143480300Y-107341200D01*
X143480300Y-107341200D02*
X143480300Y-107315000D01*
X143679000Y-110590200D02*
X143580500Y-110590200D01*
X143580500Y-110590200D02*
X143480300Y-110490000D01*
X143480300Y-110490000D02*
X142555000Y-110490000D01*
X155496200Y-106079700D02*
X154940000Y-106079700D01*
X155577500Y-105998400D02*
X155496200Y-106079700D01*
X154940000Y-107155000D02*
X154940000Y-106079700D01*
X158115000Y-109220000D02*
X158115000Y-109540000D01*
X149690000Y-100330000D02*
X150615300Y-100330000D01*
X150698200Y-100247100D02*
X150615300Y-100330000D01*
X150804800Y-100247100D02*
X150698200Y-100247100D01*
X147847800Y-104787500D02*
X147955000Y-104680300D01*
X147847800Y-104889100D02*
X147847800Y-104787500D01*
X147955000Y-103505000D02*
X147955000Y-104680300D01*
X137605000Y-109250000D02*
X138605300Y-109250000D01*
X138672500Y-109182800D02*
X138605300Y-109250000D01*
X138803500Y-109182800D02*
X138672500Y-109182800D01*
X151450000Y-120650000D02*
X150524700Y-120650000D01*
X150319100Y-120855600D02*
X150524700Y-120650000D01*
X158115000Y-109540000D02*
X157414700Y-109540000D01*
X157387000Y-109567700D02*
X157414700Y-109540000D01*
X157212200Y-109567700D02*
X157387000Y-109567700D01*
X149860000Y-108411700D02*
X149860000Y-107155000D01*
X146675400Y-111596300D02*
X149860000Y-108411700D01*
X146675400Y-113510100D02*
X146675400Y-111596300D01*
X146555100Y-113630400D02*
X146675400Y-113510100D01*
X144253500Y-113630400D02*
X146555100Y-113630400D01*
X141605000Y-110981900D02*
X144253500Y-113630400D01*
X141605000Y-109915100D02*
X141605000Y-110981900D01*
X140395200Y-108705300D02*
X141605000Y-109915100D01*
X139454100Y-108705300D02*
X140395200Y-108705300D01*
X138698800Y-107950000D02*
X139454100Y-108705300D01*
X137605000Y-107950000D02*
X138698800Y-107950000D01*
X139889100Y-108230300D02*
X148590000Y-108230300D01*
X138958800Y-107300000D02*
X139889100Y-108230300D01*
X137605000Y-107300000D02*
X138958800Y-107300000D01*
X148590000Y-107155000D02*
X148590000Y-108230300D01*
X147755600Y-106079700D02*
X147320000Y-106079700D01*
X149155000Y-104680300D02*
X147755600Y-106079700D01*
X147320000Y-107155000D02*
X147320000Y-106079700D01*
X149155000Y-103505000D02*
X149155000Y-104680300D01*
X146079700Y-106050000D02*
X146050000Y-106079700D01*
X146079700Y-103505000D02*
X146079700Y-106050000D01*
X146755000Y-103505000D02*
X146079700Y-103505000D01*
X146050000Y-107155000D02*
X146050000Y-106079700D01*
X134905000Y-111450000D02*
X134905000Y-110850000D01*
X134905000Y-104450000D02*
X134905000Y-105050000D01*
X134905000Y-105050000D02*
X136180300Y-105050000D01*
X134905000Y-106950000D02*
X134905000Y-108950000D01*
X134905000Y-108950000D02*
X134905000Y-110850000D01*
X136180300Y-105450000D02*
X137605000Y-105450000D01*
X136180300Y-105050000D02*
X136180300Y-105450000D01*
X135090000Y-106950000D02*
X134905000Y-106950000D01*
X136180300Y-105859700D02*
X135090000Y-106950000D01*
X136180300Y-105450000D02*
X136180300Y-105859700D01*
X142145300Y-115570000D02*
X141510300Y-114935000D01*
X144400000Y-115570000D02*
X142145300Y-115570000D01*
X140335000Y-114935000D02*
X140922700Y-114935000D01*
X140922700Y-114935000D02*
X141510300Y-114935000D01*
X139064700Y-106650000D02*
X139729700Y-107315000D01*
X137605000Y-106650000D02*
X139064700Y-106650000D01*
X140655000Y-107315000D02*
X139729700Y-107315000D01*
X137605000Y-106650000D02*
X136604700Y-106650000D01*
X136536800Y-106717900D02*
X136604700Y-106650000D01*
X136536800Y-110949900D02*
X136536800Y-106717900D01*
X137117600Y-111530700D02*
X136536800Y-110949900D01*
X140655000Y-111530700D02*
X137117600Y-111530700D01*
X140655000Y-114667300D02*
X140655000Y-111530700D01*
X140922700Y-114935000D02*
X140655000Y-114667300D01*
X140655000Y-111530700D02*
X140655000Y-110490000D01*
X152626800Y-122073500D02*
X153350000Y-121350300D01*
X143568800Y-122073500D02*
X152626800Y-122073500D01*
X141510300Y-120015000D02*
X143568800Y-122073500D01*
X140335000Y-120015000D02*
X141510300Y-120015000D01*
X165100000Y-125730000D02*
X165100000Y-124554700D01*
X167005000Y-106680000D02*
X167005000Y-107855300D01*
X153350000Y-120650000D02*
X153350000Y-121000100D01*
X153350000Y-121000100D02*
X153350000Y-121350300D01*
X165647300Y-124007400D02*
X165647300Y-110572100D01*
X165100000Y-124554700D02*
X165647300Y-124007400D01*
X166637600Y-107855300D02*
X167005000Y-107855300D01*
X165647300Y-108845600D02*
X166637600Y-107855300D01*
X165647300Y-110572100D02*
X165647300Y-108845600D01*
X139967700Y-118839700D02*
X140335000Y-118839700D01*
X135795300Y-114667300D02*
X139967700Y-118839700D01*
X135795300Y-114300000D02*
X135795300Y-114667300D01*
X134620000Y-114300000D02*
X135795300Y-114300000D01*
X140335000Y-120015000D02*
X140335000Y-118839700D01*
X163778000Y-110572100D02*
X153350000Y-121000100D01*
X165647300Y-110572100D02*
X163778000Y-110572100D01*
X151263400Y-106079700D02*
X151130000Y-106079700D01*
X151452400Y-105890700D02*
X151263400Y-106079700D01*
X151130000Y-107155000D02*
X151130000Y-106079700D01*
X154940000Y-112555000D02*
X154940000Y-111479700D01*
X153500000Y-116378200D02*
X153500000Y-115570000D01*
X148302800Y-121575400D02*
X153500000Y-116378200D01*
X146100700Y-121575400D02*
X148302800Y-121575400D01*
X145175300Y-120650000D02*
X146100700Y-121575400D01*
X154664400Y-113630300D02*
X154940000Y-113630300D01*
X153500000Y-114794700D02*
X154664400Y-113630300D01*
X153500000Y-115570000D02*
X153500000Y-114794700D01*
X154940000Y-112555000D02*
X154940000Y-113630300D01*
X144553200Y-120650000D02*
X145175300Y-120650000D01*
X156040000Y-103505000D02*
X156040000Y-104280300D01*
X158115000Y-111440000D02*
X157414700Y-111440000D01*
X156197200Y-110222500D02*
X157414700Y-111440000D01*
X154940000Y-111479700D02*
X156197200Y-110222500D01*
X156202800Y-104443100D02*
X156040000Y-104280300D01*
X156202800Y-110216900D02*
X156202800Y-104443100D01*
X156197200Y-110222500D02*
X156202800Y-110216900D01*
X140335000Y-117475000D02*
X140922700Y-117475000D01*
X135908800Y-101765000D02*
X137160000Y-101765000D01*
X133580500Y-104093300D02*
X135908800Y-101765000D01*
X133580500Y-111837500D02*
X133580500Y-104093300D01*
X134652300Y-112909300D02*
X133580500Y-111837500D01*
X136357000Y-112909300D02*
X134652300Y-112909300D01*
X140922700Y-117475000D02*
X136357000Y-112909300D01*
X144553200Y-120650000D02*
X144400000Y-120650000D01*
X143624700Y-120177000D02*
X140922700Y-117475000D01*
X143624700Y-120650000D02*
X143624700Y-120177000D01*
X144400000Y-120650000D02*
X143624700Y-120650000D01*
X151300000Y-115570000D02*
X151300000Y-114794700D01*
X142405000Y-100330000D02*
X142405000Y-101055300D01*
X140872500Y-102587800D02*
X142405000Y-101055300D01*
X140462100Y-102587800D02*
X140872500Y-102587800D01*
X140079700Y-102970200D02*
X140462100Y-102587800D01*
X140079700Y-104101100D02*
X140079700Y-102970200D01*
X140234400Y-104255800D02*
X140079700Y-104101100D01*
X144339700Y-104255800D02*
X140234400Y-104255800D01*
X146265800Y-102329700D02*
X144339700Y-104255800D01*
X149651700Y-102329700D02*
X146265800Y-102329700D01*
X150504600Y-103182600D02*
X149651700Y-102329700D01*
X150504600Y-109855000D02*
X150504600Y-103182600D01*
X151755400Y-111105800D02*
X150504600Y-109855000D01*
X151755400Y-114339300D02*
X151755400Y-111105800D01*
X151300000Y-114794700D02*
X151755400Y-114339300D01*
X152400000Y-104509800D02*
X152400000Y-107155000D01*
X151765300Y-103875100D02*
X152400000Y-104509800D01*
X140805000Y-101472100D02*
X140805000Y-100330000D01*
X140908400Y-101575500D02*
X140805000Y-101472100D01*
X144773800Y-101861500D02*
X143130300Y-103505000D01*
X152971800Y-101861500D02*
X144773800Y-101861500D01*
X153840000Y-102729700D02*
X152971800Y-101861500D01*
X153840000Y-103505000D02*
X153840000Y-102729700D01*
X142405000Y-103505000D02*
X143130300Y-103505000D01*
X156845000Y-98749700D02*
X156040000Y-99554700D01*
X156845000Y-96520000D02*
X156845000Y-98749700D01*
X156040000Y-100330000D02*
X156040000Y-99942300D01*
X156040000Y-99942300D02*
X156040000Y-99554700D01*
X140805000Y-103505000D02*
X141530300Y-103505000D01*
X143171000Y-101411000D02*
X154765200Y-101411000D01*
X141530300Y-103051700D02*
X143171000Y-101411000D01*
X141530300Y-103505000D02*
X141530300Y-103051700D01*
X156040000Y-100136200D02*
X156040000Y-99942300D01*
X154765200Y-101411000D02*
X156040000Y-100136200D01*
X154770300Y-104979400D02*
X153670000Y-106079700D01*
X154770300Y-101416100D02*
X154770300Y-104979400D01*
X154765200Y-101411000D02*
X154770300Y-101416100D01*
X153670000Y-107155000D02*
X153670000Y-106079700D01*
X138445700Y-99604600D02*
X137885300Y-100165000D01*
X145839300Y-99604600D02*
X138445700Y-99604600D01*
X146564700Y-100330000D02*
X145839300Y-99604600D01*
X147490000Y-100330000D02*
X146564700Y-100330000D01*
X137160000Y-100165000D02*
X137885300Y-100165000D01*
X150750900Y-113630300D02*
X151130000Y-113630300D01*
X149083100Y-115298100D02*
X150750900Y-113630300D01*
X151130000Y-112555000D02*
X151130000Y-113630300D01*
X163289700Y-112200700D02*
X163289700Y-111760000D01*
X150935700Y-124554700D02*
X163289700Y-112200700D01*
X149303200Y-124554700D02*
X150935700Y-124554700D01*
X148495300Y-125362600D02*
X149303200Y-124554700D01*
X148495300Y-125730000D02*
X148495300Y-125362600D01*
X147320000Y-125730000D02*
X148495300Y-125730000D01*
X164465000Y-111760000D02*
X163289700Y-111760000D01*
X147700000Y-120650000D02*
X147700000Y-115570000D01*
X153434000Y-99148700D02*
X153840000Y-99554700D01*
X136891900Y-99148700D02*
X153434000Y-99148700D01*
X133130100Y-102910500D02*
X136891900Y-99148700D01*
X133130100Y-119622100D02*
X133130100Y-102910500D01*
X134252700Y-120744700D02*
X133130100Y-119622100D01*
X134620000Y-120744700D02*
X134252700Y-120744700D01*
X134620000Y-121920000D02*
X134620000Y-120744700D01*
X153840000Y-100330000D02*
X153840000Y-99554700D01*
D27*
G36*
X163715026Y-113030000D02*
X163385853Y-113249946D01*
X163063946Y-113731715D01*
X162950907Y-114300000D01*
X163063946Y-114868285D01*
X163385853Y-115350054D01*
X163715026Y-115570000D01*
X163385853Y-115789946D01*
X163063946Y-116271715D01*
X162950907Y-116840000D01*
X163063946Y-117408285D01*
X163385853Y-117890054D01*
X163867622Y-118211961D01*
X164435907Y-118325000D01*
X164494093Y-118325000D01*
X164887300Y-118246786D01*
X164887300Y-123692598D01*
X164562599Y-124017299D01*
X164397852Y-124263861D01*
X164362402Y-124442077D01*
X164049946Y-124650853D01*
X163822298Y-124991553D01*
X163755183Y-124848642D01*
X163326924Y-124458355D01*
X162916890Y-124288524D01*
X162687000Y-124409845D01*
X162687000Y-125603000D01*
X162707000Y-125603000D01*
X162707000Y-125857000D01*
X162687000Y-125857000D01*
X162687000Y-127050155D01*
X162916890Y-127171476D01*
X163326924Y-127001645D01*
X163755183Y-126611358D01*
X163822298Y-126468447D01*
X164049946Y-126809147D01*
X164531715Y-127131054D01*
X165100000Y-127244093D01*
X165668285Y-127131054D01*
X166150054Y-126809147D01*
X166177850Y-126767548D01*
X166186838Y-126815317D01*
X166325910Y-127031441D01*
X166538110Y-127176431D01*
X166790000Y-127227440D01*
X168313468Y-127227440D01*
X167980908Y-127560000D01*
X135549091Y-127560000D01*
X133425000Y-125435908D01*
X133425000Y-125336667D01*
X133540853Y-125510054D01*
X134022622Y-125831961D01*
X134590907Y-125945000D01*
X134649093Y-125945000D01*
X135217378Y-125831961D01*
X135699147Y-125510054D01*
X136021054Y-125028285D01*
X136134093Y-124460000D01*
X136021054Y-123891715D01*
X135699147Y-123409946D01*
X135369974Y-123190000D01*
X135699147Y-122970054D01*
X136021054Y-122488285D01*
X136134093Y-121920000D01*
X136021054Y-121351715D01*
X135699147Y-120869946D01*
X135369974Y-120650000D01*
X135699147Y-120430054D01*
X136021054Y-119948285D01*
X136134093Y-119380000D01*
X136021054Y-118811715D01*
X135699147Y-118329946D01*
X135358447Y-118102298D01*
X135501358Y-118035183D01*
X135891645Y-117606924D01*
X136061476Y-117196890D01*
X135940155Y-116967000D01*
X134747000Y-116967000D01*
X134747000Y-116987000D01*
X134493000Y-116987000D01*
X134493000Y-116967000D01*
X134473000Y-116967000D01*
X134473000Y-116713000D01*
X134493000Y-116713000D01*
X134493000Y-116693000D01*
X134747000Y-116693000D01*
X134747000Y-116713000D01*
X135940155Y-116713000D01*
X136061476Y-116483110D01*
X135891645Y-116073076D01*
X135615499Y-115770063D01*
X135705317Y-115753162D01*
X135766798Y-115713600D01*
X138920125Y-118866927D01*
X138888569Y-118913110D01*
X138837560Y-119165000D01*
X138837560Y-120865000D01*
X138881838Y-121100317D01*
X139020910Y-121316441D01*
X139233110Y-121461431D01*
X139485000Y-121512440D01*
X141185000Y-121512440D01*
X141420317Y-121468162D01*
X141636441Y-121329090D01*
X141682369Y-121261871D01*
X143031399Y-122610901D01*
X143277961Y-122775648D01*
X143568800Y-122833500D01*
X151582098Y-122833500D01*
X150620898Y-123794700D01*
X149303200Y-123794700D01*
X149012361Y-123852552D01*
X148765799Y-124017299D01*
X148227498Y-124555600D01*
X147888285Y-124328946D01*
X147320000Y-124215907D01*
X146751715Y-124328946D01*
X146269946Y-124650853D01*
X146050000Y-124980026D01*
X145830054Y-124650853D01*
X145348285Y-124328946D01*
X144780000Y-124215907D01*
X144211715Y-124328946D01*
X143729946Y-124650853D01*
X143510000Y-124980026D01*
X143290054Y-124650853D01*
X142808285Y-124328946D01*
X142240000Y-124215907D01*
X141671715Y-124328946D01*
X141189946Y-124650853D01*
X140970000Y-124980026D01*
X140750054Y-124650853D01*
X140268285Y-124328946D01*
X139700000Y-124215907D01*
X139131715Y-124328946D01*
X138649946Y-124650853D01*
X138328039Y-125132622D01*
X138215000Y-125700907D01*
X138215000Y-125759093D01*
X138328039Y-126327378D01*
X138649946Y-126809147D01*
X139131715Y-127131054D01*
X139700000Y-127244093D01*
X140268285Y-127131054D01*
X140750054Y-126809147D01*
X140970000Y-126479974D01*
X141189946Y-126809147D01*
X141671715Y-127131054D01*
X142240000Y-127244093D01*
X142808285Y-127131054D01*
X143290054Y-126809147D01*
X143510000Y-126479974D01*
X143729946Y-126809147D01*
X144211715Y-127131054D01*
X144780000Y-127244093D01*
X145348285Y-127131054D01*
X145830054Y-126809147D01*
X146050000Y-126479974D01*
X146269946Y-126809147D01*
X146751715Y-127131054D01*
X147320000Y-127244093D01*
X147888285Y-127131054D01*
X148370054Y-126809147D01*
X148590000Y-126479974D01*
X148809946Y-126809147D01*
X149291715Y-127131054D01*
X149860000Y-127244093D01*
X150428285Y-127131054D01*
X150910054Y-126809147D01*
X151130000Y-126479974D01*
X151349946Y-126809147D01*
X151831715Y-127131054D01*
X152400000Y-127244093D01*
X152968285Y-127131054D01*
X153450054Y-126809147D01*
X153670000Y-126479974D01*
X153889946Y-126809147D01*
X154371715Y-127131054D01*
X154940000Y-127244093D01*
X155508285Y-127131054D01*
X155990054Y-126809147D01*
X156210000Y-126479974D01*
X156429946Y-126809147D01*
X156911715Y-127131054D01*
X157480000Y-127244093D01*
X158048285Y-127131054D01*
X158530054Y-126809147D01*
X158750000Y-126479974D01*
X158969946Y-126809147D01*
X159451715Y-127131054D01*
X160020000Y-127244093D01*
X160588285Y-127131054D01*
X161070054Y-126809147D01*
X161297702Y-126468447D01*
X161364817Y-126611358D01*
X161793076Y-127001645D01*
X162203110Y-127171476D01*
X162433000Y-127050155D01*
X162433000Y-125857000D01*
X162413000Y-125857000D01*
X162413000Y-125603000D01*
X162433000Y-125603000D01*
X162433000Y-124409845D01*
X162203110Y-124288524D01*
X161793076Y-124458355D01*
X161364817Y-124848642D01*
X161297702Y-124991553D01*
X161070054Y-124650853D01*
X160588285Y-124328946D01*
X160020000Y-124215907D01*
X159451715Y-124328946D01*
X158969946Y-124650853D01*
X158750000Y-124980026D01*
X158530054Y-124650853D01*
X158048285Y-124328946D01*
X157480000Y-124215907D01*
X156911715Y-124328946D01*
X156429946Y-124650853D01*
X156210000Y-124980026D01*
X155990054Y-124650853D01*
X155508285Y-124328946D01*
X154940000Y-124215907D01*
X154371715Y-124328946D01*
X153889946Y-124650853D01*
X153670000Y-124980026D01*
X153450054Y-124650853D01*
X152968285Y-124328946D01*
X152400000Y-124215907D01*
X152336705Y-124228497D01*
X163607229Y-112957973D01*
X163715026Y-113030000D01*
X163715026Y-113030000D01*
G37*
X163715026Y-113030000D02*
X163385853Y-113249946D01*
X163063946Y-113731715D01*
X162950907Y-114300000D01*
X163063946Y-114868285D01*
X163385853Y-115350054D01*
X163715026Y-115570000D01*
X163385853Y-115789946D01*
X163063946Y-116271715D01*
X162950907Y-116840000D01*
X163063946Y-117408285D01*
X163385853Y-117890054D01*
X163867622Y-118211961D01*
X164435907Y-118325000D01*
X164494093Y-118325000D01*
X164887300Y-118246786D01*
X164887300Y-123692598D01*
X164562599Y-124017299D01*
X164397852Y-124263861D01*
X164362402Y-124442077D01*
X164049946Y-124650853D01*
X163822298Y-124991553D01*
X163755183Y-124848642D01*
X163326924Y-124458355D01*
X162916890Y-124288524D01*
X162687000Y-124409845D01*
X162687000Y-125603000D01*
X162707000Y-125603000D01*
X162707000Y-125857000D01*
X162687000Y-125857000D01*
X162687000Y-127050155D01*
X162916890Y-127171476D01*
X163326924Y-127001645D01*
X163755183Y-126611358D01*
X163822298Y-126468447D01*
X164049946Y-126809147D01*
X164531715Y-127131054D01*
X165100000Y-127244093D01*
X165668285Y-127131054D01*
X166150054Y-126809147D01*
X166177850Y-126767548D01*
X166186838Y-126815317D01*
X166325910Y-127031441D01*
X166538110Y-127176431D01*
X166790000Y-127227440D01*
X168313468Y-127227440D01*
X167980908Y-127560000D01*
X135549091Y-127560000D01*
X133425000Y-125435908D01*
X133425000Y-125336667D01*
X133540853Y-125510054D01*
X134022622Y-125831961D01*
X134590907Y-125945000D01*
X134649093Y-125945000D01*
X135217378Y-125831961D01*
X135699147Y-125510054D01*
X136021054Y-125028285D01*
X136134093Y-124460000D01*
X136021054Y-123891715D01*
X135699147Y-123409946D01*
X135369974Y-123190000D01*
X135699147Y-122970054D01*
X136021054Y-122488285D01*
X136134093Y-121920000D01*
X136021054Y-121351715D01*
X135699147Y-120869946D01*
X135369974Y-120650000D01*
X135699147Y-120430054D01*
X136021054Y-119948285D01*
X136134093Y-119380000D01*
X136021054Y-118811715D01*
X135699147Y-118329946D01*
X135358447Y-118102298D01*
X135501358Y-118035183D01*
X135891645Y-117606924D01*
X136061476Y-117196890D01*
X135940155Y-116967000D01*
X134747000Y-116967000D01*
X134747000Y-116987000D01*
X134493000Y-116987000D01*
X134493000Y-116967000D01*
X134473000Y-116967000D01*
X134473000Y-116713000D01*
X134493000Y-116713000D01*
X134493000Y-116693000D01*
X134747000Y-116693000D01*
X134747000Y-116713000D01*
X135940155Y-116713000D01*
X136061476Y-116483110D01*
X135891645Y-116073076D01*
X135615499Y-115770063D01*
X135705317Y-115753162D01*
X135766798Y-115713600D01*
X138920125Y-118866927D01*
X138888569Y-118913110D01*
X138837560Y-119165000D01*
X138837560Y-120865000D01*
X138881838Y-121100317D01*
X139020910Y-121316441D01*
X139233110Y-121461431D01*
X139485000Y-121512440D01*
X141185000Y-121512440D01*
X141420317Y-121468162D01*
X141636441Y-121329090D01*
X141682369Y-121261871D01*
X143031399Y-122610901D01*
X143277961Y-122775648D01*
X143568800Y-122833500D01*
X151582098Y-122833500D01*
X150620898Y-123794700D01*
X149303200Y-123794700D01*
X149012361Y-123852552D01*
X148765799Y-124017299D01*
X148227498Y-124555600D01*
X147888285Y-124328946D01*
X147320000Y-124215907D01*
X146751715Y-124328946D01*
X146269946Y-124650853D01*
X146050000Y-124980026D01*
X145830054Y-124650853D01*
X145348285Y-124328946D01*
X144780000Y-124215907D01*
X144211715Y-124328946D01*
X143729946Y-124650853D01*
X143510000Y-124980026D01*
X143290054Y-124650853D01*
X142808285Y-124328946D01*
X142240000Y-124215907D01*
X141671715Y-124328946D01*
X141189946Y-124650853D01*
X140970000Y-124980026D01*
X140750054Y-124650853D01*
X140268285Y-124328946D01*
X139700000Y-124215907D01*
X139131715Y-124328946D01*
X138649946Y-124650853D01*
X138328039Y-125132622D01*
X138215000Y-125700907D01*
X138215000Y-125759093D01*
X138328039Y-126327378D01*
X138649946Y-126809147D01*
X139131715Y-127131054D01*
X139700000Y-127244093D01*
X140268285Y-127131054D01*
X140750054Y-126809147D01*
X140970000Y-126479974D01*
X141189946Y-126809147D01*
X141671715Y-127131054D01*
X142240000Y-127244093D01*
X142808285Y-127131054D01*
X143290054Y-126809147D01*
X143510000Y-126479974D01*
X143729946Y-126809147D01*
X144211715Y-127131054D01*
X144780000Y-127244093D01*
X145348285Y-127131054D01*
X145830054Y-126809147D01*
X146050000Y-126479974D01*
X146269946Y-126809147D01*
X146751715Y-127131054D01*
X147320000Y-127244093D01*
X147888285Y-127131054D01*
X148370054Y-126809147D01*
X148590000Y-126479974D01*
X148809946Y-126809147D01*
X149291715Y-127131054D01*
X149860000Y-127244093D01*
X150428285Y-127131054D01*
X150910054Y-126809147D01*
X151130000Y-126479974D01*
X151349946Y-126809147D01*
X151831715Y-127131054D01*
X152400000Y-127244093D01*
X152968285Y-127131054D01*
X153450054Y-126809147D01*
X153670000Y-126479974D01*
X153889946Y-126809147D01*
X154371715Y-127131054D01*
X154940000Y-127244093D01*
X155508285Y-127131054D01*
X155990054Y-126809147D01*
X156210000Y-126479974D01*
X156429946Y-126809147D01*
X156911715Y-127131054D01*
X157480000Y-127244093D01*
X158048285Y-127131054D01*
X158530054Y-126809147D01*
X158750000Y-126479974D01*
X158969946Y-126809147D01*
X159451715Y-127131054D01*
X160020000Y-127244093D01*
X160588285Y-127131054D01*
X161070054Y-126809147D01*
X161297702Y-126468447D01*
X161364817Y-126611358D01*
X161793076Y-127001645D01*
X162203110Y-127171476D01*
X162433000Y-127050155D01*
X162433000Y-125857000D01*
X162413000Y-125857000D01*
X162413000Y-125603000D01*
X162433000Y-125603000D01*
X162433000Y-124409845D01*
X162203110Y-124288524D01*
X161793076Y-124458355D01*
X161364817Y-124848642D01*
X161297702Y-124991553D01*
X161070054Y-124650853D01*
X160588285Y-124328946D01*
X160020000Y-124215907D01*
X159451715Y-124328946D01*
X158969946Y-124650853D01*
X158750000Y-124980026D01*
X158530054Y-124650853D01*
X158048285Y-124328946D01*
X157480000Y-124215907D01*
X156911715Y-124328946D01*
X156429946Y-124650853D01*
X156210000Y-124980026D01*
X155990054Y-124650853D01*
X155508285Y-124328946D01*
X154940000Y-124215907D01*
X154371715Y-124328946D01*
X153889946Y-124650853D01*
X153670000Y-124980026D01*
X153450054Y-124650853D01*
X152968285Y-124328946D01*
X152400000Y-124215907D01*
X152336705Y-124228497D01*
X163607229Y-112957973D01*
X163715026Y-113030000D01*
G36*
X170105000Y-97449092D02*
X170105000Y-125435909D01*
X169137440Y-126403469D01*
X169137440Y-124880000D01*
X169093162Y-124644683D01*
X168954090Y-124428559D01*
X168741890Y-124283569D01*
X168490000Y-124232560D01*
X166790000Y-124232560D01*
X166554683Y-124276838D01*
X166338559Y-124415910D01*
X166193569Y-124628110D01*
X166179914Y-124695541D01*
X166150054Y-124650853D01*
X166107250Y-124622252D01*
X166184701Y-124544801D01*
X166349448Y-124298239D01*
X166407300Y-124007400D01*
X166407300Y-118168396D01*
X166648108Y-118281486D01*
X166878000Y-118160819D01*
X166878000Y-116967000D01*
X167132000Y-116967000D01*
X167132000Y-118160819D01*
X167361892Y-118281486D01*
X167886358Y-118035183D01*
X168276645Y-117606924D01*
X168446476Y-117196890D01*
X168325155Y-116967000D01*
X167132000Y-116967000D01*
X166878000Y-116967000D01*
X166858000Y-116967000D01*
X166858000Y-116713000D01*
X166878000Y-116713000D01*
X166878000Y-114427000D01*
X167132000Y-114427000D01*
X167132000Y-116713000D01*
X168325155Y-116713000D01*
X168446476Y-116483110D01*
X168276645Y-116073076D01*
X167886358Y-115644817D01*
X167727046Y-115570000D01*
X167886358Y-115495183D01*
X168276645Y-115066924D01*
X168446476Y-114656890D01*
X168325155Y-114427000D01*
X167132000Y-114427000D01*
X166878000Y-114427000D01*
X166858000Y-114427000D01*
X166858000Y-114173000D01*
X166878000Y-114173000D01*
X166878000Y-111887000D01*
X167132000Y-111887000D01*
X167132000Y-114173000D01*
X168325155Y-114173000D01*
X168446476Y-113943110D01*
X168276645Y-113533076D01*
X167886358Y-113104817D01*
X167727046Y-113030000D01*
X167886358Y-112955183D01*
X168276645Y-112526924D01*
X168446476Y-112116890D01*
X168325155Y-111887000D01*
X167132000Y-111887000D01*
X166878000Y-111887000D01*
X166858000Y-111887000D01*
X166858000Y-111633000D01*
X166878000Y-111633000D01*
X166878000Y-109347000D01*
X167132000Y-109347000D01*
X167132000Y-111633000D01*
X168325155Y-111633000D01*
X168446476Y-111403110D01*
X168276645Y-110993076D01*
X167886358Y-110564817D01*
X167727046Y-110490000D01*
X167886358Y-110415183D01*
X168276645Y-109986924D01*
X168446476Y-109576890D01*
X168325155Y-109347000D01*
X167132000Y-109347000D01*
X166878000Y-109347000D01*
X166858000Y-109347000D01*
X166858000Y-109093000D01*
X166878000Y-109093000D01*
X166878000Y-109073000D01*
X167132000Y-109073000D01*
X167132000Y-109093000D01*
X168325155Y-109093000D01*
X168446476Y-108863110D01*
X168276645Y-108453076D01*
X167886358Y-108024817D01*
X167744530Y-107958211D01*
X167744812Y-107956790D01*
X168084147Y-107730054D01*
X168406054Y-107248285D01*
X168519093Y-106680000D01*
X168406054Y-106111715D01*
X168084147Y-105629946D01*
X167602378Y-105308039D01*
X167034093Y-105195000D01*
X166975907Y-105195000D01*
X166407622Y-105308039D01*
X165925853Y-105629946D01*
X165925029Y-105631179D01*
X165918162Y-105594683D01*
X165779090Y-105378559D01*
X165566890Y-105233569D01*
X165315000Y-105182560D01*
X163615000Y-105182560D01*
X163379683Y-105226838D01*
X163163559Y-105365910D01*
X163018569Y-105578110D01*
X162967560Y-105830000D01*
X162967560Y-107530000D01*
X163011838Y-107765317D01*
X163150910Y-107981441D01*
X163363110Y-108126431D01*
X163430541Y-108140086D01*
X163385853Y-108169946D01*
X163063946Y-108651715D01*
X162950907Y-109220000D01*
X163063946Y-109788285D01*
X163233403Y-110041895D01*
X153647738Y-119627560D01*
X152750000Y-119627560D01*
X152514683Y-119671838D01*
X152411354Y-119738329D01*
X152409698Y-119736673D01*
X152176309Y-119640000D01*
X151735750Y-119640000D01*
X151577000Y-119798750D01*
X151577000Y-120523000D01*
X151597000Y-120523000D01*
X151597000Y-120777000D01*
X151577000Y-120777000D01*
X151577000Y-120797000D01*
X151323000Y-120797000D01*
X151323000Y-120777000D01*
X151303000Y-120777000D01*
X151303000Y-120523000D01*
X151323000Y-120523000D01*
X151323000Y-119798750D01*
X151238626Y-119714376D01*
X154037401Y-116915601D01*
X154202148Y-116669039D01*
X154206450Y-116647410D01*
X154335317Y-116623162D01*
X154551441Y-116484090D01*
X154696431Y-116271890D01*
X154747440Y-116020000D01*
X154747440Y-115120000D01*
X154703162Y-114884683D01*
X154617673Y-114751829D01*
X154988936Y-114380566D01*
X155230839Y-114332448D01*
X155477401Y-114167701D01*
X155642148Y-113921139D01*
X155669597Y-113783146D01*
X155691441Y-113769090D01*
X155836431Y-113556890D01*
X155887440Y-113305000D01*
X155887440Y-111805000D01*
X155856094Y-111638408D01*
X156197200Y-111297302D01*
X156877299Y-111977401D01*
X157110043Y-112132915D01*
X157136838Y-112275317D01*
X157275910Y-112491441D01*
X157488110Y-112636431D01*
X157740000Y-112687440D01*
X158490000Y-112687440D01*
X158725317Y-112643162D01*
X158941441Y-112504090D01*
X159086431Y-112291890D01*
X159137440Y-112040000D01*
X159137440Y-110840000D01*
X159093162Y-110604683D01*
X159026671Y-110501354D01*
X159028327Y-110499698D01*
X159125000Y-110266309D01*
X159125000Y-109825750D01*
X158966250Y-109667000D01*
X158242000Y-109667000D01*
X158242000Y-109687000D01*
X157988000Y-109687000D01*
X157988000Y-109667000D01*
X157263750Y-109667000D01*
X157105000Y-109825750D01*
X157105000Y-110055498D01*
X156962800Y-109913298D01*
X156962800Y-108813691D01*
X157105000Y-108813691D01*
X157105000Y-109254250D01*
X157263750Y-109413000D01*
X157988000Y-109413000D01*
X157988000Y-108463750D01*
X158242000Y-108463750D01*
X158242000Y-109413000D01*
X158966250Y-109413000D01*
X159125000Y-109254250D01*
X159125000Y-108813691D01*
X159028327Y-108580302D01*
X158849699Y-108401673D01*
X158616310Y-108305000D01*
X158400750Y-108305000D01*
X158242000Y-108463750D01*
X157988000Y-108463750D01*
X157829250Y-108305000D01*
X157613690Y-108305000D01*
X157380301Y-108401673D01*
X157201673Y-108580302D01*
X157105000Y-108813691D01*
X156962800Y-108813691D01*
X156962800Y-104501868D01*
X157091441Y-104419090D01*
X157236431Y-104206890D01*
X157287440Y-103955000D01*
X157287440Y-103055000D01*
X157243162Y-102819683D01*
X157104090Y-102603559D01*
X156891890Y-102458569D01*
X156640000Y-102407560D01*
X155530300Y-102407560D01*
X155530300Y-101720702D01*
X155823562Y-101427440D01*
X156640000Y-101427440D01*
X156875317Y-101383162D01*
X157091441Y-101244090D01*
X157236431Y-101031890D01*
X157287440Y-100780000D01*
X157287440Y-99880000D01*
X157243162Y-99644683D01*
X157157673Y-99511829D01*
X157382401Y-99287101D01*
X157547148Y-99040539D01*
X157605000Y-98749700D01*
X157605000Y-97792954D01*
X157895054Y-97599147D01*
X158115000Y-97269974D01*
X158334946Y-97599147D01*
X158816715Y-97921054D01*
X159385000Y-98034093D01*
X159953285Y-97921054D01*
X160435054Y-97599147D01*
X160655000Y-97269974D01*
X160874946Y-97599147D01*
X161356715Y-97921054D01*
X161925000Y-98034093D01*
X162493285Y-97921054D01*
X162975054Y-97599147D01*
X163195000Y-97269974D01*
X163414946Y-97599147D01*
X163896715Y-97921054D01*
X164465000Y-98034093D01*
X165033285Y-97921054D01*
X165515054Y-97599147D01*
X165735000Y-97269974D01*
X165954946Y-97599147D01*
X166436715Y-97921054D01*
X167005000Y-98034093D01*
X167573285Y-97921054D01*
X168055054Y-97599147D01*
X168376961Y-97117378D01*
X168490000Y-96549093D01*
X168490000Y-96490907D01*
X168376961Y-95922622D01*
X168055054Y-95440853D01*
X167573285Y-95118946D01*
X167005000Y-95005907D01*
X166436715Y-95118946D01*
X165954946Y-95440853D01*
X165735000Y-95770026D01*
X165515054Y-95440853D01*
X165033285Y-95118946D01*
X164465000Y-95005907D01*
X163896715Y-95118946D01*
X163414946Y-95440853D01*
X163195000Y-95770026D01*
X162975054Y-95440853D01*
X162493285Y-95118946D01*
X161925000Y-95005907D01*
X161356715Y-95118946D01*
X160874946Y-95440853D01*
X160655000Y-95770026D01*
X160435054Y-95440853D01*
X159953285Y-95118946D01*
X159385000Y-95005907D01*
X158816715Y-95118946D01*
X158334946Y-95440853D01*
X158115000Y-95770026D01*
X157895054Y-95440853D01*
X157413285Y-95118946D01*
X156845000Y-95005907D01*
X156276715Y-95118946D01*
X155794946Y-95440853D01*
X155575000Y-95770026D01*
X155355054Y-95440853D01*
X154873285Y-95118946D01*
X154305000Y-95005907D01*
X153736715Y-95118946D01*
X153254946Y-95440853D01*
X153035000Y-95770026D01*
X152815054Y-95440853D01*
X152333285Y-95118946D01*
X151765000Y-95005907D01*
X151196715Y-95118946D01*
X150714946Y-95440853D01*
X150495000Y-95770026D01*
X150275054Y-95440853D01*
X149793285Y-95118946D01*
X149225000Y-95005907D01*
X148656715Y-95118946D01*
X148174946Y-95440853D01*
X147955000Y-95770026D01*
X147735054Y-95440853D01*
X147253285Y-95118946D01*
X146685000Y-95005907D01*
X146116715Y-95118946D01*
X145634946Y-95440853D01*
X145415000Y-95770026D01*
X145195054Y-95440853D01*
X144713285Y-95118946D01*
X144145000Y-95005907D01*
X143576715Y-95118946D01*
X143094946Y-95440853D01*
X142875000Y-95770026D01*
X142655054Y-95440853D01*
X142173285Y-95118946D01*
X141605000Y-95005907D01*
X141036715Y-95118946D01*
X140554946Y-95440853D01*
X140527150Y-95482452D01*
X140518162Y-95434683D01*
X140379090Y-95218559D01*
X140166890Y-95073569D01*
X139915000Y-95022560D01*
X138215000Y-95022560D01*
X137979683Y-95066838D01*
X137763559Y-95205910D01*
X137618569Y-95418110D01*
X137567560Y-95670000D01*
X137567560Y-97370000D01*
X137611838Y-97605317D01*
X137750910Y-97821441D01*
X137963110Y-97966431D01*
X138215000Y-98017440D01*
X139915000Y-98017440D01*
X140150317Y-97973162D01*
X140366441Y-97834090D01*
X140511431Y-97621890D01*
X140525086Y-97554459D01*
X140554946Y-97599147D01*
X141036715Y-97921054D01*
X141605000Y-98034093D01*
X142173285Y-97921054D01*
X142655054Y-97599147D01*
X142875000Y-97269974D01*
X143094946Y-97599147D01*
X143576715Y-97921054D01*
X144145000Y-98034093D01*
X144713285Y-97921054D01*
X145195054Y-97599147D01*
X145415000Y-97269974D01*
X145634946Y-97599147D01*
X146116715Y-97921054D01*
X146685000Y-98034093D01*
X147253285Y-97921054D01*
X147735054Y-97599147D01*
X147955000Y-97269974D01*
X148174946Y-97599147D01*
X148656715Y-97921054D01*
X149225000Y-98034093D01*
X149793285Y-97921054D01*
X150275054Y-97599147D01*
X150495000Y-97269974D01*
X150714946Y-97599147D01*
X151196715Y-97921054D01*
X151765000Y-98034093D01*
X152333285Y-97921054D01*
X152815054Y-97599147D01*
X153035000Y-97269974D01*
X153254946Y-97599147D01*
X153736715Y-97921054D01*
X154305000Y-98034093D01*
X154873285Y-97921054D01*
X155355054Y-97599147D01*
X155575000Y-97269974D01*
X155794946Y-97599147D01*
X156085000Y-97792954D01*
X156085000Y-98434898D01*
X155502599Y-99017299D01*
X155347085Y-99250043D01*
X155204683Y-99276838D01*
X154988559Y-99415910D01*
X154940866Y-99485711D01*
X154904090Y-99428559D01*
X154691890Y-99283569D01*
X154533945Y-99251584D01*
X154377401Y-99017299D01*
X153971401Y-98611299D01*
X153724839Y-98446552D01*
X153434000Y-98388700D01*
X136891900Y-98388700D01*
X136601061Y-98446552D01*
X136354499Y-98611299D01*
X133425000Y-101540798D01*
X133425000Y-96814092D01*
X135549091Y-94690000D01*
X167345908Y-94690000D01*
X170105000Y-97449092D01*
X170105000Y-97449092D01*
G37*
X170105000Y-97449092D02*
X170105000Y-125435909D01*
X169137440Y-126403469D01*
X169137440Y-124880000D01*
X169093162Y-124644683D01*
X168954090Y-124428559D01*
X168741890Y-124283569D01*
X168490000Y-124232560D01*
X166790000Y-124232560D01*
X166554683Y-124276838D01*
X166338559Y-124415910D01*
X166193569Y-124628110D01*
X166179914Y-124695541D01*
X166150054Y-124650853D01*
X166107250Y-124622252D01*
X166184701Y-124544801D01*
X166349448Y-124298239D01*
X166407300Y-124007400D01*
X166407300Y-118168396D01*
X166648108Y-118281486D01*
X166878000Y-118160819D01*
X166878000Y-116967000D01*
X167132000Y-116967000D01*
X167132000Y-118160819D01*
X167361892Y-118281486D01*
X167886358Y-118035183D01*
X168276645Y-117606924D01*
X168446476Y-117196890D01*
X168325155Y-116967000D01*
X167132000Y-116967000D01*
X166878000Y-116967000D01*
X166858000Y-116967000D01*
X166858000Y-116713000D01*
X166878000Y-116713000D01*
X166878000Y-114427000D01*
X167132000Y-114427000D01*
X167132000Y-116713000D01*
X168325155Y-116713000D01*
X168446476Y-116483110D01*
X168276645Y-116073076D01*
X167886358Y-115644817D01*
X167727046Y-115570000D01*
X167886358Y-115495183D01*
X168276645Y-115066924D01*
X168446476Y-114656890D01*
X168325155Y-114427000D01*
X167132000Y-114427000D01*
X166878000Y-114427000D01*
X166858000Y-114427000D01*
X166858000Y-114173000D01*
X166878000Y-114173000D01*
X166878000Y-111887000D01*
X167132000Y-111887000D01*
X167132000Y-114173000D01*
X168325155Y-114173000D01*
X168446476Y-113943110D01*
X168276645Y-113533076D01*
X167886358Y-113104817D01*
X167727046Y-113030000D01*
X167886358Y-112955183D01*
X168276645Y-112526924D01*
X168446476Y-112116890D01*
X168325155Y-111887000D01*
X167132000Y-111887000D01*
X166878000Y-111887000D01*
X166858000Y-111887000D01*
X166858000Y-111633000D01*
X166878000Y-111633000D01*
X166878000Y-109347000D01*
X167132000Y-109347000D01*
X167132000Y-111633000D01*
X168325155Y-111633000D01*
X168446476Y-111403110D01*
X168276645Y-110993076D01*
X167886358Y-110564817D01*
X167727046Y-110490000D01*
X167886358Y-110415183D01*
X168276645Y-109986924D01*
X168446476Y-109576890D01*
X168325155Y-109347000D01*
X167132000Y-109347000D01*
X166878000Y-109347000D01*
X166858000Y-109347000D01*
X166858000Y-109093000D01*
X166878000Y-109093000D01*
X166878000Y-109073000D01*
X167132000Y-109073000D01*
X167132000Y-109093000D01*
X168325155Y-109093000D01*
X168446476Y-108863110D01*
X168276645Y-108453076D01*
X167886358Y-108024817D01*
X167744530Y-107958211D01*
X167744812Y-107956790D01*
X168084147Y-107730054D01*
X168406054Y-107248285D01*
X168519093Y-106680000D01*
X168406054Y-106111715D01*
X168084147Y-105629946D01*
X167602378Y-105308039D01*
X167034093Y-105195000D01*
X166975907Y-105195000D01*
X166407622Y-105308039D01*
X165925853Y-105629946D01*
X165925029Y-105631179D01*
X165918162Y-105594683D01*
X165779090Y-105378559D01*
X165566890Y-105233569D01*
X165315000Y-105182560D01*
X163615000Y-105182560D01*
X163379683Y-105226838D01*
X163163559Y-105365910D01*
X163018569Y-105578110D01*
X162967560Y-105830000D01*
X162967560Y-107530000D01*
X163011838Y-107765317D01*
X163150910Y-107981441D01*
X163363110Y-108126431D01*
X163430541Y-108140086D01*
X163385853Y-108169946D01*
X163063946Y-108651715D01*
X162950907Y-109220000D01*
X163063946Y-109788285D01*
X163233403Y-110041895D01*
X153647738Y-119627560D01*
X152750000Y-119627560D01*
X152514683Y-119671838D01*
X152411354Y-119738329D01*
X152409698Y-119736673D01*
X152176309Y-119640000D01*
X151735750Y-119640000D01*
X151577000Y-119798750D01*
X151577000Y-120523000D01*
X151597000Y-120523000D01*
X151597000Y-120777000D01*
X151577000Y-120777000D01*
X151577000Y-120797000D01*
X151323000Y-120797000D01*
X151323000Y-120777000D01*
X151303000Y-120777000D01*
X151303000Y-120523000D01*
X151323000Y-120523000D01*
X151323000Y-119798750D01*
X151238626Y-119714376D01*
X154037401Y-116915601D01*
X154202148Y-116669039D01*
X154206450Y-116647410D01*
X154335317Y-116623162D01*
X154551441Y-116484090D01*
X154696431Y-116271890D01*
X154747440Y-116020000D01*
X154747440Y-115120000D01*
X154703162Y-114884683D01*
X154617673Y-114751829D01*
X154988936Y-114380566D01*
X155230839Y-114332448D01*
X155477401Y-114167701D01*
X155642148Y-113921139D01*
X155669597Y-113783146D01*
X155691441Y-113769090D01*
X155836431Y-113556890D01*
X155887440Y-113305000D01*
X155887440Y-111805000D01*
X155856094Y-111638408D01*
X156197200Y-111297302D01*
X156877299Y-111977401D01*
X157110043Y-112132915D01*
X157136838Y-112275317D01*
X157275910Y-112491441D01*
X157488110Y-112636431D01*
X157740000Y-112687440D01*
X158490000Y-112687440D01*
X158725317Y-112643162D01*
X158941441Y-112504090D01*
X159086431Y-112291890D01*
X159137440Y-112040000D01*
X159137440Y-110840000D01*
X159093162Y-110604683D01*
X159026671Y-110501354D01*
X159028327Y-110499698D01*
X159125000Y-110266309D01*
X159125000Y-109825750D01*
X158966250Y-109667000D01*
X158242000Y-109667000D01*
X158242000Y-109687000D01*
X157988000Y-109687000D01*
X157988000Y-109667000D01*
X157263750Y-109667000D01*
X157105000Y-109825750D01*
X157105000Y-110055498D01*
X156962800Y-109913298D01*
X156962800Y-108813691D01*
X157105000Y-108813691D01*
X157105000Y-109254250D01*
X157263750Y-109413000D01*
X157988000Y-109413000D01*
X157988000Y-108463750D01*
X158242000Y-108463750D01*
X158242000Y-109413000D01*
X158966250Y-109413000D01*
X159125000Y-109254250D01*
X159125000Y-108813691D01*
X159028327Y-108580302D01*
X158849699Y-108401673D01*
X158616310Y-108305000D01*
X158400750Y-108305000D01*
X158242000Y-108463750D01*
X157988000Y-108463750D01*
X157829250Y-108305000D01*
X157613690Y-108305000D01*
X157380301Y-108401673D01*
X157201673Y-108580302D01*
X157105000Y-108813691D01*
X156962800Y-108813691D01*
X156962800Y-104501868D01*
X157091441Y-104419090D01*
X157236431Y-104206890D01*
X157287440Y-103955000D01*
X157287440Y-103055000D01*
X157243162Y-102819683D01*
X157104090Y-102603559D01*
X156891890Y-102458569D01*
X156640000Y-102407560D01*
X155530300Y-102407560D01*
X155530300Y-101720702D01*
X155823562Y-101427440D01*
X156640000Y-101427440D01*
X156875317Y-101383162D01*
X157091441Y-101244090D01*
X157236431Y-101031890D01*
X157287440Y-100780000D01*
X157287440Y-99880000D01*
X157243162Y-99644683D01*
X157157673Y-99511829D01*
X157382401Y-99287101D01*
X157547148Y-99040539D01*
X157605000Y-98749700D01*
X157605000Y-97792954D01*
X157895054Y-97599147D01*
X158115000Y-97269974D01*
X158334946Y-97599147D01*
X158816715Y-97921054D01*
X159385000Y-98034093D01*
X159953285Y-97921054D01*
X160435054Y-97599147D01*
X160655000Y-97269974D01*
X160874946Y-97599147D01*
X161356715Y-97921054D01*
X161925000Y-98034093D01*
X162493285Y-97921054D01*
X162975054Y-97599147D01*
X163195000Y-97269974D01*
X163414946Y-97599147D01*
X163896715Y-97921054D01*
X164465000Y-98034093D01*
X165033285Y-97921054D01*
X165515054Y-97599147D01*
X165735000Y-97269974D01*
X165954946Y-97599147D01*
X166436715Y-97921054D01*
X167005000Y-98034093D01*
X167573285Y-97921054D01*
X168055054Y-97599147D01*
X168376961Y-97117378D01*
X168490000Y-96549093D01*
X168490000Y-96490907D01*
X168376961Y-95922622D01*
X168055054Y-95440853D01*
X167573285Y-95118946D01*
X167005000Y-95005907D01*
X166436715Y-95118946D01*
X165954946Y-95440853D01*
X165735000Y-95770026D01*
X165515054Y-95440853D01*
X165033285Y-95118946D01*
X164465000Y-95005907D01*
X163896715Y-95118946D01*
X163414946Y-95440853D01*
X163195000Y-95770026D01*
X162975054Y-95440853D01*
X162493285Y-95118946D01*
X161925000Y-95005907D01*
X161356715Y-95118946D01*
X160874946Y-95440853D01*
X160655000Y-95770026D01*
X160435054Y-95440853D01*
X159953285Y-95118946D01*
X159385000Y-95005907D01*
X158816715Y-95118946D01*
X158334946Y-95440853D01*
X158115000Y-95770026D01*
X157895054Y-95440853D01*
X157413285Y-95118946D01*
X156845000Y-95005907D01*
X156276715Y-95118946D01*
X155794946Y-95440853D01*
X155575000Y-95770026D01*
X155355054Y-95440853D01*
X154873285Y-95118946D01*
X154305000Y-95005907D01*
X153736715Y-95118946D01*
X153254946Y-95440853D01*
X153035000Y-95770026D01*
X152815054Y-95440853D01*
X152333285Y-95118946D01*
X151765000Y-95005907D01*
X151196715Y-95118946D01*
X150714946Y-95440853D01*
X150495000Y-95770026D01*
X150275054Y-95440853D01*
X149793285Y-95118946D01*
X149225000Y-95005907D01*
X148656715Y-95118946D01*
X148174946Y-95440853D01*
X147955000Y-95770026D01*
X147735054Y-95440853D01*
X147253285Y-95118946D01*
X146685000Y-95005907D01*
X146116715Y-95118946D01*
X145634946Y-95440853D01*
X145415000Y-95770026D01*
X145195054Y-95440853D01*
X144713285Y-95118946D01*
X144145000Y-95005907D01*
X143576715Y-95118946D01*
X143094946Y-95440853D01*
X142875000Y-95770026D01*
X142655054Y-95440853D01*
X142173285Y-95118946D01*
X141605000Y-95005907D01*
X141036715Y-95118946D01*
X140554946Y-95440853D01*
X140527150Y-95482452D01*
X140518162Y-95434683D01*
X140379090Y-95218559D01*
X140166890Y-95073569D01*
X139915000Y-95022560D01*
X138215000Y-95022560D01*
X137979683Y-95066838D01*
X137763559Y-95205910D01*
X137618569Y-95418110D01*
X137567560Y-95670000D01*
X137567560Y-97370000D01*
X137611838Y-97605317D01*
X137750910Y-97821441D01*
X137963110Y-97966431D01*
X138215000Y-98017440D01*
X139915000Y-98017440D01*
X140150317Y-97973162D01*
X140366441Y-97834090D01*
X140511431Y-97621890D01*
X140525086Y-97554459D01*
X140554946Y-97599147D01*
X141036715Y-97921054D01*
X141605000Y-98034093D01*
X142173285Y-97921054D01*
X142655054Y-97599147D01*
X142875000Y-97269974D01*
X143094946Y-97599147D01*
X143576715Y-97921054D01*
X144145000Y-98034093D01*
X144713285Y-97921054D01*
X145195054Y-97599147D01*
X145415000Y-97269974D01*
X145634946Y-97599147D01*
X146116715Y-97921054D01*
X146685000Y-98034093D01*
X147253285Y-97921054D01*
X147735054Y-97599147D01*
X147955000Y-97269974D01*
X148174946Y-97599147D01*
X148656715Y-97921054D01*
X149225000Y-98034093D01*
X149793285Y-97921054D01*
X150275054Y-97599147D01*
X150495000Y-97269974D01*
X150714946Y-97599147D01*
X151196715Y-97921054D01*
X151765000Y-98034093D01*
X152333285Y-97921054D01*
X152815054Y-97599147D01*
X153035000Y-97269974D01*
X153254946Y-97599147D01*
X153736715Y-97921054D01*
X154305000Y-98034093D01*
X154873285Y-97921054D01*
X155355054Y-97599147D01*
X155575000Y-97269974D01*
X155794946Y-97599147D01*
X156085000Y-97792954D01*
X156085000Y-98434898D01*
X155502599Y-99017299D01*
X155347085Y-99250043D01*
X155204683Y-99276838D01*
X154988559Y-99415910D01*
X154940866Y-99485711D01*
X154904090Y-99428559D01*
X154691890Y-99283569D01*
X154533945Y-99251584D01*
X154377401Y-99017299D01*
X153971401Y-98611299D01*
X153724839Y-98446552D01*
X153434000Y-98388700D01*
X136891900Y-98388700D01*
X136601061Y-98446552D01*
X136354499Y-98611299D01*
X133425000Y-101540798D01*
X133425000Y-96814092D01*
X135549091Y-94690000D01*
X167345908Y-94690000D01*
X170105000Y-97449092D01*
G36*
X146137999Y-111058899D02*
X146072076Y-111157560D01*
X145750000Y-111157560D01*
X145514683Y-111201838D01*
X145298559Y-111340910D01*
X145153569Y-111553110D01*
X145102560Y-111805000D01*
X145102560Y-112870400D01*
X144568302Y-112870400D01*
X143197902Y-111500000D01*
X143281309Y-111500000D01*
X143514698Y-111403327D01*
X143693327Y-111224699D01*
X143790000Y-110991310D01*
X143790000Y-110775750D01*
X143631250Y-110617000D01*
X142682000Y-110617000D01*
X142682000Y-110637000D01*
X142428000Y-110637000D01*
X142428000Y-110617000D01*
X142408000Y-110617000D01*
X142408000Y-110363000D01*
X142428000Y-110363000D01*
X142428000Y-109638750D01*
X142682000Y-109638750D01*
X142682000Y-110363000D01*
X143631250Y-110363000D01*
X143790000Y-110204250D01*
X143790000Y-109988690D01*
X143693327Y-109755301D01*
X143514698Y-109576673D01*
X143281309Y-109480000D01*
X142840750Y-109480000D01*
X142682000Y-109638750D01*
X142428000Y-109638750D01*
X142269250Y-109480000D01*
X142210756Y-109480000D01*
X142142401Y-109377699D01*
X141755002Y-108990300D01*
X148206598Y-108990300D01*
X146137999Y-111058899D01*
X146137999Y-111058899D01*
G37*
X146137999Y-111058899D02*
X146072076Y-111157560D01*
X145750000Y-111157560D01*
X145514683Y-111201838D01*
X145298559Y-111340910D01*
X145153569Y-111553110D01*
X145102560Y-111805000D01*
X145102560Y-112870400D01*
X144568302Y-112870400D01*
X143197902Y-111500000D01*
X143281309Y-111500000D01*
X143514698Y-111403327D01*
X143693327Y-111224699D01*
X143790000Y-110991310D01*
X143790000Y-110775750D01*
X143631250Y-110617000D01*
X142682000Y-110617000D01*
X142682000Y-110637000D01*
X142428000Y-110637000D01*
X142428000Y-110617000D01*
X142408000Y-110617000D01*
X142408000Y-110363000D01*
X142428000Y-110363000D01*
X142428000Y-109638750D01*
X142682000Y-109638750D01*
X142682000Y-110363000D01*
X143631250Y-110363000D01*
X143790000Y-110204250D01*
X143790000Y-109988690D01*
X143693327Y-109755301D01*
X143514698Y-109576673D01*
X143281309Y-109480000D01*
X142840750Y-109480000D01*
X142682000Y-109638750D01*
X142428000Y-109638750D01*
X142269250Y-109480000D01*
X142210756Y-109480000D01*
X142142401Y-109377699D01*
X141755002Y-108990300D01*
X148206598Y-108990300D01*
X146137999Y-111058899D01*
G36*
X155067000Y-107028000D02*
X155087000Y-107028000D01*
X155087000Y-107282000D01*
X155067000Y-107282000D01*
X155067000Y-108381250D01*
X155225750Y-108540000D01*
X155366310Y-108540000D01*
X155442800Y-108508317D01*
X155442800Y-109902098D01*
X154402599Y-110942299D01*
X154237852Y-111188861D01*
X154232491Y-111215812D01*
X154221890Y-111208569D01*
X153970000Y-111157560D01*
X153370000Y-111157560D01*
X153134683Y-111201838D01*
X153035472Y-111265678D01*
X152951890Y-111208569D01*
X152700000Y-111157560D01*
X152515400Y-111157560D01*
X152515400Y-111105800D01*
X152479366Y-110924648D01*
X152457548Y-110814960D01*
X152292801Y-110568399D01*
X151264600Y-109540198D01*
X151264600Y-108552440D01*
X151430000Y-108552440D01*
X151665317Y-108508162D01*
X151764528Y-108444322D01*
X151848110Y-108501431D01*
X152100000Y-108552440D01*
X152700000Y-108552440D01*
X152935317Y-108508162D01*
X153034528Y-108444322D01*
X153118110Y-108501431D01*
X153370000Y-108552440D01*
X153970000Y-108552440D01*
X154205317Y-108508162D01*
X154295980Y-108449822D01*
X154513690Y-108540000D01*
X154654250Y-108540000D01*
X154813000Y-108381250D01*
X154813000Y-107282000D01*
X154793000Y-107282000D01*
X154793000Y-107028000D01*
X154813000Y-107028000D01*
X154813000Y-107008000D01*
X155067000Y-107008000D01*
X155067000Y-107028000D01*
X155067000Y-107028000D01*
G37*
X155067000Y-107028000D02*
X155087000Y-107028000D01*
X155087000Y-107282000D01*
X155067000Y-107282000D01*
X155067000Y-108381250D01*
X155225750Y-108540000D01*
X155366310Y-108540000D01*
X155442800Y-108508317D01*
X155442800Y-109902098D01*
X154402599Y-110942299D01*
X154237852Y-111188861D01*
X154232491Y-111215812D01*
X154221890Y-111208569D01*
X153970000Y-111157560D01*
X153370000Y-111157560D01*
X153134683Y-111201838D01*
X153035472Y-111265678D01*
X152951890Y-111208569D01*
X152700000Y-111157560D01*
X152515400Y-111157560D01*
X152515400Y-111105800D01*
X152479366Y-110924648D01*
X152457548Y-110814960D01*
X152292801Y-110568399D01*
X151264600Y-109540198D01*
X151264600Y-108552440D01*
X151430000Y-108552440D01*
X151665317Y-108508162D01*
X151764528Y-108444322D01*
X151848110Y-108501431D01*
X152100000Y-108552440D01*
X152700000Y-108552440D01*
X152935317Y-108508162D01*
X153034528Y-108444322D01*
X153118110Y-108501431D01*
X153370000Y-108552440D01*
X153970000Y-108552440D01*
X154205317Y-108508162D01*
X154295980Y-108449822D01*
X154513690Y-108540000D01*
X154654250Y-108540000D01*
X154813000Y-108381250D01*
X154813000Y-107282000D01*
X154793000Y-107282000D01*
X154793000Y-107028000D01*
X154813000Y-107028000D01*
X154813000Y-107008000D01*
X155067000Y-107008000D01*
X155067000Y-107028000D01*
G36*
X138916699Y-109242702D02*
X139163261Y-109407448D01*
X139454100Y-109465300D01*
X140080398Y-109465300D01*
X140082658Y-109467560D01*
X140055000Y-109467560D01*
X139819683Y-109511838D01*
X139603559Y-109650910D01*
X139458569Y-109863110D01*
X139407560Y-110115000D01*
X139407560Y-110770700D01*
X138944420Y-110770700D01*
X138964763Y-110721708D01*
X138965236Y-110180666D01*
X138813818Y-109814207D01*
X138818327Y-109809698D01*
X138915000Y-109576309D01*
X138915000Y-109508750D01*
X138756250Y-109350000D01*
X138597933Y-109350000D01*
X138731441Y-109264090D01*
X138815322Y-109141325D01*
X138916699Y-109242702D01*
X138916699Y-109242702D01*
G37*
X138916699Y-109242702D02*
X139163261Y-109407448D01*
X139454100Y-109465300D01*
X140080398Y-109465300D01*
X140082658Y-109467560D01*
X140055000Y-109467560D01*
X139819683Y-109511838D01*
X139603559Y-109650910D01*
X139458569Y-109863110D01*
X139407560Y-110115000D01*
X139407560Y-110770700D01*
X138944420Y-110770700D01*
X138964763Y-110721708D01*
X138965236Y-110180666D01*
X138813818Y-109814207D01*
X138818327Y-109809698D01*
X138915000Y-109576309D01*
X138915000Y-109508750D01*
X138756250Y-109350000D01*
X138597933Y-109350000D01*
X138731441Y-109264090D01*
X138815322Y-109141325D01*
X138916699Y-109242702D01*
G36*
X139757560Y-100730000D02*
X139801838Y-100965317D01*
X139940910Y-101181441D01*
X140033387Y-101244628D01*
X139973562Y-101388701D01*
X139973238Y-101760667D01*
X140056550Y-101962299D01*
X139924699Y-102050399D01*
X139542299Y-102432799D01*
X139377552Y-102679361D01*
X139319700Y-102970200D01*
X139319700Y-104101100D01*
X139377552Y-104391939D01*
X139542299Y-104638501D01*
X139696999Y-104793201D01*
X139943561Y-104957948D01*
X140234400Y-105015800D01*
X144339700Y-105015800D01*
X144630539Y-104957948D01*
X144877101Y-104793201D01*
X145319700Y-104350602D01*
X145319700Y-105927306D01*
X145298559Y-105940910D01*
X145153569Y-106153110D01*
X145102560Y-106405000D01*
X145102560Y-107470300D01*
X143659550Y-107470300D01*
X143631250Y-107442000D01*
X142682000Y-107442000D01*
X142682000Y-107462000D01*
X142428000Y-107462000D01*
X142428000Y-107442000D01*
X142408000Y-107442000D01*
X142408000Y-107188000D01*
X142428000Y-107188000D01*
X142428000Y-106463750D01*
X142682000Y-106463750D01*
X142682000Y-107188000D01*
X143631250Y-107188000D01*
X143790000Y-107029250D01*
X143790000Y-106813690D01*
X143693327Y-106580301D01*
X143514698Y-106401673D01*
X143281309Y-106305000D01*
X142840750Y-106305000D01*
X142682000Y-106463750D01*
X142428000Y-106463750D01*
X142269250Y-106305000D01*
X141828691Y-106305000D01*
X141595302Y-106401673D01*
X141593932Y-106403043D01*
X141506890Y-106343569D01*
X141255000Y-106292560D01*
X140055000Y-106292560D01*
X139825286Y-106335784D01*
X139602101Y-106112599D01*
X139355539Y-105947852D01*
X139064700Y-105890000D01*
X138894882Y-105890000D01*
X138964763Y-105721708D01*
X138965236Y-105180666D01*
X138758624Y-104680628D01*
X138376384Y-104297720D01*
X137876708Y-104090237D01*
X137335666Y-104089764D01*
X136835628Y-104296376D01*
X136658592Y-104473104D01*
X136505270Y-104370657D01*
X136427043Y-103977386D01*
X136159329Y-103576723D01*
X135758666Y-103309009D01*
X135492531Y-103256071D01*
X136223602Y-102525000D01*
X136237069Y-102525000D01*
X136295910Y-102616441D01*
X136508110Y-102761431D01*
X136760000Y-102812440D01*
X137560000Y-102812440D01*
X137795317Y-102768162D01*
X138011441Y-102629090D01*
X138156431Y-102416890D01*
X138207440Y-102165000D01*
X138207440Y-101365000D01*
X138163162Y-101129683D01*
X138056241Y-100963523D01*
X138113590Y-100879590D01*
X138176139Y-100867148D01*
X138422701Y-100702401D01*
X138760502Y-100364600D01*
X139757560Y-100364600D01*
X139757560Y-100730000D01*
X139757560Y-100730000D01*
G37*
X139757560Y-100730000D02*
X139801838Y-100965317D01*
X139940910Y-101181441D01*
X140033387Y-101244628D01*
X139973562Y-101388701D01*
X139973238Y-101760667D01*
X140056550Y-101962299D01*
X139924699Y-102050399D01*
X139542299Y-102432799D01*
X139377552Y-102679361D01*
X139319700Y-102970200D01*
X139319700Y-104101100D01*
X139377552Y-104391939D01*
X139542299Y-104638501D01*
X139696999Y-104793201D01*
X139943561Y-104957948D01*
X140234400Y-105015800D01*
X144339700Y-105015800D01*
X144630539Y-104957948D01*
X144877101Y-104793201D01*
X145319700Y-104350602D01*
X145319700Y-105927306D01*
X145298559Y-105940910D01*
X145153569Y-106153110D01*
X145102560Y-106405000D01*
X145102560Y-107470300D01*
X143659550Y-107470300D01*
X143631250Y-107442000D01*
X142682000Y-107442000D01*
X142682000Y-107462000D01*
X142428000Y-107462000D01*
X142428000Y-107442000D01*
X142408000Y-107442000D01*
X142408000Y-107188000D01*
X142428000Y-107188000D01*
X142428000Y-106463750D01*
X142682000Y-106463750D01*
X142682000Y-107188000D01*
X143631250Y-107188000D01*
X143790000Y-107029250D01*
X143790000Y-106813690D01*
X143693327Y-106580301D01*
X143514698Y-106401673D01*
X143281309Y-106305000D01*
X142840750Y-106305000D01*
X142682000Y-106463750D01*
X142428000Y-106463750D01*
X142269250Y-106305000D01*
X141828691Y-106305000D01*
X141595302Y-106401673D01*
X141593932Y-106403043D01*
X141506890Y-106343569D01*
X141255000Y-106292560D01*
X140055000Y-106292560D01*
X139825286Y-106335784D01*
X139602101Y-106112599D01*
X139355539Y-105947852D01*
X139064700Y-105890000D01*
X138894882Y-105890000D01*
X138964763Y-105721708D01*
X138965236Y-105180666D01*
X138758624Y-104680628D01*
X138376384Y-104297720D01*
X137876708Y-104090237D01*
X137335666Y-104089764D01*
X136835628Y-104296376D01*
X136658592Y-104473104D01*
X136505270Y-104370657D01*
X136427043Y-103977386D01*
X136159329Y-103576723D01*
X135758666Y-103309009D01*
X135492531Y-103256071D01*
X136223602Y-102525000D01*
X136237069Y-102525000D01*
X136295910Y-102616441D01*
X136508110Y-102761431D01*
X136760000Y-102812440D01*
X137560000Y-102812440D01*
X137795317Y-102768162D01*
X138011441Y-102629090D01*
X138156431Y-102416890D01*
X138207440Y-102165000D01*
X138207440Y-101365000D01*
X138163162Y-101129683D01*
X138056241Y-100963523D01*
X138113590Y-100879590D01*
X138176139Y-100867148D01*
X138422701Y-100702401D01*
X138760502Y-100364600D01*
X139757560Y-100364600D01*
X139757560Y-100730000D01*
G36*
X148082000Y-103378000D02*
X148102000Y-103378000D01*
X148102000Y-103632000D01*
X148082000Y-103632000D01*
X148082000Y-103652000D01*
X147828000Y-103652000D01*
X147828000Y-103632000D01*
X147808000Y-103632000D01*
X147808000Y-103378000D01*
X147828000Y-103378000D01*
X147828000Y-103358000D01*
X148082000Y-103358000D01*
X148082000Y-103378000D01*
X148082000Y-103378000D01*
G37*
X148082000Y-103378000D02*
X148102000Y-103378000D01*
X148102000Y-103632000D01*
X148082000Y-103632000D01*
X148082000Y-103652000D01*
X147828000Y-103652000D01*
X147828000Y-103632000D01*
X147808000Y-103632000D01*
X147808000Y-103378000D01*
X147828000Y-103378000D01*
X147828000Y-103358000D01*
X148082000Y-103358000D01*
X148082000Y-103378000D01*
G36*
X152592560Y-100651000D02*
X150925000Y-100651000D01*
X150925000Y-100615750D01*
X150766250Y-100457000D01*
X149817000Y-100457000D01*
X149817000Y-100477000D01*
X149563000Y-100477000D01*
X149563000Y-100457000D01*
X149543000Y-100457000D01*
X149543000Y-100203000D01*
X149563000Y-100203000D01*
X149563000Y-100183000D01*
X149817000Y-100183000D01*
X149817000Y-100203000D01*
X150766250Y-100203000D01*
X150925000Y-100044250D01*
X150925000Y-99908700D01*
X152592560Y-99908700D01*
X152592560Y-100651000D01*
X152592560Y-100651000D01*
G37*
X152592560Y-100651000D02*
X150925000Y-100651000D01*
X150925000Y-100615750D01*
X150766250Y-100457000D01*
X149817000Y-100457000D01*
X149817000Y-100477000D01*
X149563000Y-100477000D01*
X149563000Y-100457000D01*
X149543000Y-100457000D01*
X149543000Y-100203000D01*
X149563000Y-100203000D01*
X149563000Y-100183000D01*
X149817000Y-100183000D01*
X149817000Y-100203000D01*
X150766250Y-100203000D01*
X150925000Y-100044250D01*
X150925000Y-99908700D01*
X152592560Y-99908700D01*
X152592560Y-100651000D01*
M02*
