G04 #@! TF.FileFunction,Soldermask,Bot*
%FSLAX46Y46*%
G04 Gerber Fmt 4.6, Leading zero omitted, Abs format (unit mm)*
G04 Created by KiCad (PCBNEW 4.0.7-e2-6376~58~ubuntu17.04.1) date Sat Oct 28 19:32:16 2017*
%MOMM*%
%LPD*%
G01*
G04 APERTURE LIST*
%ADD10C,0.100000*%
%ADD11C,1.850000*%
%ADD12O,2.300000X1.600000*%
%ADD13R,2.100000X2.100000*%
%ADD14O,2.100000X2.100000*%
G04 APERTURE END LIST*
D10*
D11*
X137605000Y-105450000D03*
X137605000Y-110450000D03*
D12*
X134905000Y-104450000D03*
X134905000Y-111450000D03*
D13*
X164465000Y-106680000D03*
D14*
X167005000Y-106680000D03*
X164465000Y-109220000D03*
X167005000Y-109220000D03*
X164465000Y-111760000D03*
X167005000Y-111760000D03*
X164465000Y-114300000D03*
X167005000Y-114300000D03*
X164465000Y-116840000D03*
X167005000Y-116840000D03*
D13*
X140335000Y-120015000D03*
D14*
X140335000Y-117475000D03*
X140335000Y-114935000D03*
D13*
X167640000Y-125730000D03*
D14*
X165100000Y-125730000D03*
X162560000Y-125730000D03*
X160020000Y-125730000D03*
X157480000Y-125730000D03*
X154940000Y-125730000D03*
X152400000Y-125730000D03*
X149860000Y-125730000D03*
X147320000Y-125730000D03*
X144780000Y-125730000D03*
X142240000Y-125730000D03*
X139700000Y-125730000D03*
D13*
X134620000Y-114300000D03*
D14*
X134620000Y-116840000D03*
X134620000Y-119380000D03*
X134620000Y-121920000D03*
X134620000Y-124460000D03*
D13*
X139065000Y-96520000D03*
D14*
X141605000Y-96520000D03*
X144145000Y-96520000D03*
X146685000Y-96520000D03*
X149225000Y-96520000D03*
X151765000Y-96520000D03*
X154305000Y-96520000D03*
X156845000Y-96520000D03*
X159385000Y-96520000D03*
X161925000Y-96520000D03*
X164465000Y-96520000D03*
X167005000Y-96520000D03*
M02*
