G04 #@! TF.FileFunction,Legend,Top*
%FSLAX46Y46*%
G04 Gerber Fmt 4.6, Leading zero omitted, Abs format (unit mm)*
G04 Created by KiCad (PCBNEW 4.0.7-e2-6376~58~ubuntu17.04.1) date Wed Oct  4 00:26:39 2017*
%MOMM*%
%LPD*%
G01*
G04 APERTURE LIST*
%ADD10C,0.100000*%
%ADD11C,0.050000*%
%ADD12C,0.120000*%
%ADD13C,0.150000*%
%ADD14C,0.203200*%
%ADD15C,0.127000*%
%ADD16C,0.010000*%
G04 APERTURE END LIST*
D10*
X151865000Y-121237142D02*
X151865000Y-120951428D01*
X152036429Y-121294285D02*
X151436429Y-121094285D01*
X152036429Y-120894285D01*
X152036429Y-120408571D02*
X152036429Y-120694285D01*
X151436429Y-120694285D01*
X151436429Y-120094285D02*
X151436429Y-119979999D01*
X151465000Y-119922857D01*
X151522143Y-119865714D01*
X151636429Y-119837142D01*
X151836429Y-119837142D01*
X151950714Y-119865714D01*
X152007857Y-119922857D01*
X152036429Y-119979999D01*
X152036429Y-120094285D01*
X152007857Y-120151428D01*
X151950714Y-120208571D01*
X151836429Y-120237142D01*
X151636429Y-120237142D01*
X151522143Y-120208571D01*
X151465000Y-120151428D01*
X151436429Y-120094285D01*
X151722143Y-119580000D02*
X151722143Y-119380000D01*
X152036429Y-119294286D02*
X152036429Y-119580000D01*
X151436429Y-119580000D01*
X151436429Y-119294286D01*
X152007857Y-119065714D02*
X152036429Y-118980000D01*
X152036429Y-118837143D01*
X152007857Y-118780000D01*
X151979286Y-118751429D01*
X151922143Y-118722857D01*
X151865000Y-118722857D01*
X151807857Y-118751429D01*
X151779286Y-118780000D01*
X151750714Y-118837143D01*
X151722143Y-118951429D01*
X151693571Y-119008571D01*
X151665000Y-119037143D01*
X151607857Y-119065714D01*
X151550714Y-119065714D01*
X151493571Y-119037143D01*
X151465000Y-119008571D01*
X151436429Y-118951429D01*
X151436429Y-118808571D01*
X151465000Y-118722857D01*
X151979286Y-118465714D02*
X152007857Y-118437142D01*
X152036429Y-118465714D01*
X152007857Y-118494285D01*
X151979286Y-118465714D01*
X152036429Y-118465714D01*
X152036429Y-118180000D02*
X151436429Y-118180000D01*
X151436429Y-117780000D02*
X151436429Y-117665714D01*
X151465000Y-117608572D01*
X151522143Y-117551429D01*
X151636429Y-117522857D01*
X151836429Y-117522857D01*
X151950714Y-117551429D01*
X152007857Y-117608572D01*
X152036429Y-117665714D01*
X152036429Y-117780000D01*
X152007857Y-117837143D01*
X151950714Y-117894286D01*
X151836429Y-117922857D01*
X151636429Y-117922857D01*
X151522143Y-117894286D01*
X151465000Y-117837143D01*
X151436429Y-117780000D01*
X148275000Y-94565000D02*
X148375000Y-94598333D01*
X148408333Y-94631667D01*
X148441667Y-94698333D01*
X148441667Y-94798333D01*
X148408333Y-94865000D01*
X148375000Y-94898333D01*
X148308333Y-94931667D01*
X148041667Y-94931667D01*
X148041667Y-94231667D01*
X148275000Y-94231667D01*
X148341667Y-94265000D01*
X148375000Y-94298333D01*
X148408333Y-94365000D01*
X148408333Y-94431667D01*
X148375000Y-94498333D01*
X148341667Y-94531667D01*
X148275000Y-94565000D01*
X148041667Y-94565000D01*
X148708333Y-94731667D02*
X149041667Y-94731667D01*
X148641667Y-94931667D02*
X148875000Y-94231667D01*
X149108333Y-94931667D01*
X149241667Y-94231667D02*
X149641667Y-94231667D01*
X149441667Y-94931667D02*
X149441667Y-94231667D01*
X149875000Y-94665000D02*
X150408333Y-94665000D01*
X150141666Y-94931667D02*
X150141666Y-94398333D01*
X152101667Y-94231667D02*
X152335000Y-94931667D01*
X152568333Y-94231667D01*
X153201667Y-94865000D02*
X153168333Y-94898333D01*
X153068333Y-94931667D01*
X153001667Y-94931667D01*
X152901667Y-94898333D01*
X152835000Y-94831667D01*
X152801667Y-94765000D01*
X152768333Y-94631667D01*
X152768333Y-94531667D01*
X152801667Y-94398333D01*
X152835000Y-94331667D01*
X152901667Y-94265000D01*
X153001667Y-94231667D01*
X153068333Y-94231667D01*
X153168333Y-94265000D01*
X153201667Y-94298333D01*
X153901667Y-94865000D02*
X153868333Y-94898333D01*
X153768333Y-94931667D01*
X153701667Y-94931667D01*
X153601667Y-94898333D01*
X153535000Y-94831667D01*
X153501667Y-94765000D01*
X153468333Y-94631667D01*
X153468333Y-94531667D01*
X153501667Y-94398333D01*
X153535000Y-94331667D01*
X153601667Y-94265000D01*
X153701667Y-94231667D01*
X153768333Y-94231667D01*
X153868333Y-94265000D01*
X153901667Y-94298333D01*
X157581667Y-94265000D02*
X157515001Y-94231667D01*
X157415001Y-94231667D01*
X157315001Y-94265000D01*
X157248334Y-94331667D01*
X157215001Y-94398333D01*
X157181667Y-94531667D01*
X157181667Y-94631667D01*
X157215001Y-94765000D01*
X157248334Y-94831667D01*
X157315001Y-94898333D01*
X157415001Y-94931667D01*
X157481667Y-94931667D01*
X157581667Y-94898333D01*
X157615001Y-94865000D01*
X157615001Y-94631667D01*
X157481667Y-94631667D01*
X157915001Y-94931667D02*
X157915001Y-94231667D01*
X158315001Y-94931667D01*
X158315001Y-94231667D01*
X158648334Y-94931667D02*
X158648334Y-94231667D01*
X158815000Y-94231667D01*
X158915000Y-94265000D01*
X158981667Y-94331667D01*
X159015000Y-94398333D01*
X159048334Y-94531667D01*
X159048334Y-94631667D01*
X159015000Y-94765000D01*
X158981667Y-94831667D01*
X158915000Y-94898333D01*
X158815000Y-94931667D01*
X158648334Y-94931667D01*
X167121667Y-95115000D02*
X167121667Y-94781666D01*
X167321667Y-95181666D02*
X166621667Y-94948333D01*
X167321667Y-94715000D01*
X166621667Y-94548333D02*
X166621667Y-94081666D01*
X167321667Y-94381666D01*
X164581667Y-95115000D02*
X164581667Y-94781666D01*
X164781667Y-95181666D02*
X164081667Y-94948333D01*
X164781667Y-94715000D01*
X164081667Y-94148333D02*
X164081667Y-94481666D01*
X164415000Y-94515000D01*
X164381667Y-94481666D01*
X164348333Y-94415000D01*
X164348333Y-94248333D01*
X164381667Y-94181666D01*
X164415000Y-94148333D01*
X164481667Y-94115000D01*
X164648333Y-94115000D01*
X164715000Y-94148333D01*
X164748333Y-94181666D01*
X164781667Y-94248333D01*
X164781667Y-94415000D01*
X164748333Y-94481666D01*
X164715000Y-94515000D01*
X162041667Y-95115000D02*
X162041667Y-94781666D01*
X162241667Y-95181666D02*
X161541667Y-94948333D01*
X162241667Y-94715000D01*
X161775000Y-94181666D02*
X162241667Y-94181666D01*
X161508333Y-94348333D02*
X162008333Y-94515000D01*
X162008333Y-94081666D01*
X167121667Y-128135000D02*
X167121667Y-127801666D01*
X167321667Y-128201666D02*
X166621667Y-127968333D01*
X167321667Y-127735000D01*
X166621667Y-127201666D02*
X166621667Y-127335000D01*
X166655000Y-127401666D01*
X166688333Y-127435000D01*
X166788333Y-127501666D01*
X166921667Y-127535000D01*
X167188333Y-127535000D01*
X167255000Y-127501666D01*
X167288333Y-127468333D01*
X167321667Y-127401666D01*
X167321667Y-127268333D01*
X167288333Y-127201666D01*
X167255000Y-127168333D01*
X167188333Y-127135000D01*
X167021667Y-127135000D01*
X166955000Y-127168333D01*
X166921667Y-127201666D01*
X166888333Y-127268333D01*
X166888333Y-127401666D01*
X166921667Y-127468333D01*
X166955000Y-127501666D01*
X167021667Y-127535000D01*
X164581667Y-128135000D02*
X164581667Y-127801666D01*
X164781667Y-128201666D02*
X164081667Y-127968333D01*
X164781667Y-127735000D01*
X164781667Y-127135000D02*
X164781667Y-127535000D01*
X164781667Y-127335000D02*
X164081667Y-127335000D01*
X164181667Y-127401666D01*
X164248333Y-127468333D01*
X164281667Y-127535000D01*
X162041667Y-128135000D02*
X162041667Y-127801666D01*
X162241667Y-128201666D02*
X161541667Y-127968333D01*
X162241667Y-127735000D01*
X161541667Y-127368333D02*
X161541667Y-127301666D01*
X161575000Y-127235000D01*
X161608333Y-127201666D01*
X161675000Y-127168333D01*
X161808333Y-127135000D01*
X161975000Y-127135000D01*
X162108333Y-127168333D01*
X162175000Y-127201666D01*
X162208333Y-127235000D01*
X162241667Y-127301666D01*
X162241667Y-127368333D01*
X162208333Y-127435000D01*
X162175000Y-127468333D01*
X162108333Y-127501666D01*
X161975000Y-127535000D01*
X161808333Y-127535000D01*
X161675000Y-127501666D01*
X161608333Y-127468333D01*
X161575000Y-127435000D01*
X161541667Y-127368333D01*
X159701667Y-128151666D02*
X159001667Y-128151666D01*
X159001667Y-127985000D01*
X159035000Y-127885000D01*
X159101667Y-127818333D01*
X159168333Y-127785000D01*
X159301667Y-127751666D01*
X159401667Y-127751666D01*
X159535000Y-127785000D01*
X159601667Y-127818333D01*
X159668333Y-127885000D01*
X159701667Y-127985000D01*
X159701667Y-128151666D01*
X159001667Y-127518333D02*
X159001667Y-127051666D01*
X159701667Y-127351666D01*
X157161667Y-128151666D02*
X156461667Y-128151666D01*
X156461667Y-127985000D01*
X156495000Y-127885000D01*
X156561667Y-127818333D01*
X156628333Y-127785000D01*
X156761667Y-127751666D01*
X156861667Y-127751666D01*
X156995000Y-127785000D01*
X157061667Y-127818333D01*
X157128333Y-127885000D01*
X157161667Y-127985000D01*
X157161667Y-128151666D01*
X156461667Y-127151666D02*
X156461667Y-127285000D01*
X156495000Y-127351666D01*
X156528333Y-127385000D01*
X156628333Y-127451666D01*
X156761667Y-127485000D01*
X157028333Y-127485000D01*
X157095000Y-127451666D01*
X157128333Y-127418333D01*
X157161667Y-127351666D01*
X157161667Y-127218333D01*
X157128333Y-127151666D01*
X157095000Y-127118333D01*
X157028333Y-127085000D01*
X156861667Y-127085000D01*
X156795000Y-127118333D01*
X156761667Y-127151666D01*
X156728333Y-127218333D01*
X156728333Y-127351666D01*
X156761667Y-127418333D01*
X156795000Y-127451666D01*
X156861667Y-127485000D01*
D11*
X164157143Y-116476429D02*
X164157143Y-115876429D01*
X164357143Y-116305000D01*
X164557143Y-115876429D01*
X164557143Y-116476429D01*
X164957143Y-115876429D02*
X165071429Y-115876429D01*
X165128571Y-115905000D01*
X165185714Y-115962143D01*
X165214286Y-116076429D01*
X165214286Y-116276429D01*
X165185714Y-116390714D01*
X165128571Y-116447857D01*
X165071429Y-116476429D01*
X164957143Y-116476429D01*
X164900000Y-116447857D01*
X164842857Y-116390714D01*
X164814286Y-116276429D01*
X164814286Y-116076429D01*
X164842857Y-115962143D01*
X164900000Y-115905000D01*
X164957143Y-115876429D01*
X165442857Y-116447857D02*
X165528571Y-116476429D01*
X165671428Y-116476429D01*
X165728571Y-116447857D01*
X165757142Y-116419286D01*
X165785714Y-116362143D01*
X165785714Y-116305000D01*
X165757142Y-116247857D01*
X165728571Y-116219286D01*
X165671428Y-116190714D01*
X165557142Y-116162143D01*
X165500000Y-116133571D01*
X165471428Y-116105000D01*
X165442857Y-116047857D01*
X165442857Y-115990714D01*
X165471428Y-115933571D01*
X165500000Y-115905000D01*
X165557142Y-115876429D01*
X165700000Y-115876429D01*
X165785714Y-115905000D01*
X166042857Y-116476429D02*
X166042857Y-115876429D01*
X159691428Y-116476429D02*
X159491428Y-116190714D01*
X159348571Y-116476429D02*
X159348571Y-115876429D01*
X159577143Y-115876429D01*
X159634285Y-115905000D01*
X159662857Y-115933571D01*
X159691428Y-115990714D01*
X159691428Y-116076429D01*
X159662857Y-116133571D01*
X159634285Y-116162143D01*
X159577143Y-116190714D01*
X159348571Y-116190714D01*
X159920000Y-116447857D02*
X160005714Y-116476429D01*
X160148571Y-116476429D01*
X160205714Y-116447857D01*
X160234285Y-116419286D01*
X160262857Y-116362143D01*
X160262857Y-116305000D01*
X160234285Y-116247857D01*
X160205714Y-116219286D01*
X160148571Y-116190714D01*
X160034285Y-116162143D01*
X159977143Y-116133571D01*
X159948571Y-116105000D01*
X159920000Y-116047857D01*
X159920000Y-115990714D01*
X159948571Y-115933571D01*
X159977143Y-115905000D01*
X160034285Y-115876429D01*
X160177143Y-115876429D01*
X160262857Y-115905000D01*
X160434286Y-115876429D02*
X160777143Y-115876429D01*
X160605714Y-116476429D02*
X160605714Y-115876429D01*
X156708572Y-116447857D02*
X156794286Y-116476429D01*
X156937143Y-116476429D01*
X156994286Y-116447857D01*
X157022857Y-116419286D01*
X157051429Y-116362143D01*
X157051429Y-116305000D01*
X157022857Y-116247857D01*
X156994286Y-116219286D01*
X156937143Y-116190714D01*
X156822857Y-116162143D01*
X156765715Y-116133571D01*
X156737143Y-116105000D01*
X156708572Y-116047857D01*
X156708572Y-115990714D01*
X156737143Y-115933571D01*
X156765715Y-115905000D01*
X156822857Y-115876429D01*
X156965715Y-115876429D01*
X157051429Y-115905000D01*
X157651429Y-116419286D02*
X157622858Y-116447857D01*
X157537144Y-116476429D01*
X157480001Y-116476429D01*
X157394286Y-116447857D01*
X157337144Y-116390714D01*
X157308572Y-116333571D01*
X157280001Y-116219286D01*
X157280001Y-116133571D01*
X157308572Y-116019286D01*
X157337144Y-115962143D01*
X157394286Y-115905000D01*
X157480001Y-115876429D01*
X157537144Y-115876429D01*
X157622858Y-115905000D01*
X157651429Y-115933571D01*
X157908572Y-116476429D02*
X157908572Y-115876429D01*
X158251429Y-116476429D02*
X157994286Y-116133571D01*
X158251429Y-115876429D02*
X157908572Y-116219286D01*
X153997143Y-116476429D02*
X153997143Y-115876429D01*
X154197143Y-116305000D01*
X154397143Y-115876429D01*
X154397143Y-116476429D01*
X154682857Y-116476429D02*
X154682857Y-115876429D01*
X154940000Y-116447857D02*
X155025714Y-116476429D01*
X155168571Y-116476429D01*
X155225714Y-116447857D01*
X155254285Y-116419286D01*
X155282857Y-116362143D01*
X155282857Y-116305000D01*
X155254285Y-116247857D01*
X155225714Y-116219286D01*
X155168571Y-116190714D01*
X155054285Y-116162143D01*
X154997143Y-116133571D01*
X154968571Y-116105000D01*
X154940000Y-116047857D01*
X154940000Y-115990714D01*
X154968571Y-115933571D01*
X154997143Y-115905000D01*
X155054285Y-115876429D01*
X155197143Y-115876429D01*
X155282857Y-115905000D01*
X155654286Y-115876429D02*
X155768572Y-115876429D01*
X155825714Y-115905000D01*
X155882857Y-115962143D01*
X155911429Y-116076429D01*
X155911429Y-116276429D01*
X155882857Y-116390714D01*
X155825714Y-116447857D01*
X155768572Y-116476429D01*
X155654286Y-116476429D01*
X155597143Y-116447857D01*
X155540000Y-116390714D01*
X155511429Y-116276429D01*
X155511429Y-116076429D01*
X155540000Y-115962143D01*
X155597143Y-115905000D01*
X155654286Y-115876429D01*
D10*
X155676667Y-122205000D02*
X155610001Y-122171667D01*
X155510001Y-122171667D01*
X155410001Y-122205000D01*
X155343334Y-122271667D01*
X155310001Y-122338333D01*
X155276667Y-122471667D01*
X155276667Y-122571667D01*
X155310001Y-122705000D01*
X155343334Y-122771667D01*
X155410001Y-122838333D01*
X155510001Y-122871667D01*
X155576667Y-122871667D01*
X155676667Y-122838333D01*
X155710001Y-122805000D01*
X155710001Y-122571667D01*
X155576667Y-122571667D01*
X156010001Y-122871667D02*
X156010001Y-122171667D01*
X156410001Y-122871667D01*
X156410001Y-122171667D01*
X156743334Y-122871667D02*
X156743334Y-122171667D01*
X156910000Y-122171667D01*
X157010000Y-122205000D01*
X157076667Y-122271667D01*
X157110000Y-122338333D01*
X157143334Y-122471667D01*
X157143334Y-122571667D01*
X157110000Y-122705000D01*
X157076667Y-122771667D01*
X157010000Y-122838333D01*
X156910000Y-122871667D01*
X156743334Y-122871667D01*
X164166667Y-122171667D02*
X164400000Y-122871667D01*
X164633333Y-122171667D01*
X165266667Y-122805000D02*
X165233333Y-122838333D01*
X165133333Y-122871667D01*
X165066667Y-122871667D01*
X164966667Y-122838333D01*
X164900000Y-122771667D01*
X164866667Y-122705000D01*
X164833333Y-122571667D01*
X164833333Y-122471667D01*
X164866667Y-122338333D01*
X164900000Y-122271667D01*
X164966667Y-122205000D01*
X165066667Y-122171667D01*
X165133333Y-122171667D01*
X165233333Y-122205000D01*
X165266667Y-122238333D01*
X165966667Y-122805000D02*
X165933333Y-122838333D01*
X165833333Y-122871667D01*
X165766667Y-122871667D01*
X165666667Y-122838333D01*
X165600000Y-122771667D01*
X165566667Y-122705000D01*
X165533333Y-122571667D01*
X165533333Y-122471667D01*
X165566667Y-122338333D01*
X165600000Y-122271667D01*
X165666667Y-122205000D01*
X165766667Y-122171667D01*
X165833333Y-122171667D01*
X165933333Y-122205000D01*
X165966667Y-122238333D01*
X154621667Y-128151666D02*
X153921667Y-128151666D01*
X153921667Y-127985000D01*
X153955000Y-127885000D01*
X154021667Y-127818333D01*
X154088333Y-127785000D01*
X154221667Y-127751666D01*
X154321667Y-127751666D01*
X154455000Y-127785000D01*
X154521667Y-127818333D01*
X154588333Y-127885000D01*
X154621667Y-127985000D01*
X154621667Y-128151666D01*
X153921667Y-127118333D02*
X153921667Y-127451666D01*
X154255000Y-127485000D01*
X154221667Y-127451666D01*
X154188333Y-127385000D01*
X154188333Y-127218333D01*
X154221667Y-127151666D01*
X154255000Y-127118333D01*
X154321667Y-127085000D01*
X154488333Y-127085000D01*
X154555000Y-127118333D01*
X154588333Y-127151666D01*
X154621667Y-127218333D01*
X154621667Y-127385000D01*
X154588333Y-127451666D01*
X154555000Y-127485000D01*
X152081667Y-128151666D02*
X151381667Y-128151666D01*
X151381667Y-127985000D01*
X151415000Y-127885000D01*
X151481667Y-127818333D01*
X151548333Y-127785000D01*
X151681667Y-127751666D01*
X151781667Y-127751666D01*
X151915000Y-127785000D01*
X151981667Y-127818333D01*
X152048333Y-127885000D01*
X152081667Y-127985000D01*
X152081667Y-128151666D01*
X151615000Y-127151666D02*
X152081667Y-127151666D01*
X151348333Y-127318333D02*
X151848333Y-127485000D01*
X151848333Y-127051666D01*
X149541667Y-128151666D02*
X148841667Y-128151666D01*
X148841667Y-127985000D01*
X148875000Y-127885000D01*
X148941667Y-127818333D01*
X149008333Y-127785000D01*
X149141667Y-127751666D01*
X149241667Y-127751666D01*
X149375000Y-127785000D01*
X149441667Y-127818333D01*
X149508333Y-127885000D01*
X149541667Y-127985000D01*
X149541667Y-128151666D01*
X148841667Y-127518333D02*
X148841667Y-127085000D01*
X149108333Y-127318333D01*
X149108333Y-127218333D01*
X149141667Y-127151666D01*
X149175000Y-127118333D01*
X149241667Y-127085000D01*
X149408333Y-127085000D01*
X149475000Y-127118333D01*
X149508333Y-127151666D01*
X149541667Y-127218333D01*
X149541667Y-127418333D01*
X149508333Y-127485000D01*
X149475000Y-127518333D01*
D12*
X147925000Y-103640000D02*
X147925000Y-104640000D01*
X147925000Y-104640000D02*
X150025000Y-104640000D01*
X147925000Y-103640000D02*
X150025000Y-103640000D01*
X147925000Y-100465000D02*
X147925000Y-101465000D01*
X147925000Y-101465000D02*
X150025000Y-101465000D01*
X147925000Y-100465000D02*
X150025000Y-100465000D01*
D13*
X163825000Y-108415000D02*
X163800000Y-108415000D01*
X163825000Y-112565000D02*
X163720000Y-112565000D01*
X153675000Y-112565000D02*
X153780000Y-112565000D01*
X153675000Y-108415000D02*
X153780000Y-108415000D01*
X163825000Y-108415000D02*
X163825000Y-112565000D01*
X153675000Y-108415000D02*
X153675000Y-112565000D01*
X163800000Y-108415000D02*
X163800000Y-107040000D01*
D12*
X151240000Y-106590000D02*
X151240000Y-107040000D01*
X149390000Y-106590000D02*
X151240000Y-106590000D01*
X146840000Y-114390000D02*
X147090000Y-114390000D01*
X146840000Y-106590000D02*
X147090000Y-106590000D01*
X149390000Y-114390000D02*
X151240000Y-114390000D01*
X151240000Y-114390000D02*
X151240000Y-113940000D01*
X151790000Y-108790000D02*
X151790000Y-109240000D01*
X151790000Y-108790000D02*
X151340000Y-108790000D01*
X153610000Y-116780000D02*
X153610000Y-121980000D01*
X163830000Y-116780000D02*
X153610000Y-116780000D01*
X166430000Y-121980000D02*
X153610000Y-121980000D01*
X163830000Y-116780000D02*
X163830000Y-119380000D01*
X163830000Y-119380000D02*
X166430000Y-119380000D01*
X166430000Y-119380000D02*
X166430000Y-121980000D01*
X165100000Y-116780000D02*
X166430000Y-116780000D01*
X166430000Y-116780000D02*
X166430000Y-118110000D01*
D14*
X165720000Y-107520000D02*
X165720000Y-107420000D01*
X165720000Y-107420000D02*
X167020000Y-107420000D01*
X167020000Y-107420000D02*
X167020000Y-107520000D01*
X167020000Y-110920000D02*
X167020000Y-111070000D01*
X167020000Y-111070000D02*
X165720000Y-111070000D01*
X165720000Y-111070000D02*
X165720000Y-110920000D01*
D15*
X165720000Y-110020000D02*
X165720000Y-109620000D01*
X165720000Y-108820000D02*
X165720000Y-108420000D01*
X167020000Y-110020000D02*
X167020000Y-109620000D01*
X167020000Y-108820000D02*
X167020000Y-108420000D01*
X167770000Y-110620000D02*
G75*
G03X167770000Y-110620000I-200000J0D01*
G01*
D12*
X166085000Y-101565000D02*
X165385000Y-101565000D01*
X165385000Y-100365000D02*
X166085000Y-100365000D01*
X166085000Y-104740000D02*
X165385000Y-104740000D01*
X165385000Y-103540000D02*
X166085000Y-103540000D01*
X160520000Y-101645000D02*
X159520000Y-101645000D01*
X159520000Y-100285000D02*
X160520000Y-100285000D01*
X160520000Y-104820000D02*
X159520000Y-104820000D01*
X159520000Y-103460000D02*
X160520000Y-103460000D01*
X153805000Y-103460000D02*
X154805000Y-103460000D01*
X154805000Y-104820000D02*
X153805000Y-104820000D01*
X154805000Y-101645000D02*
X153805000Y-101645000D01*
X153805000Y-100285000D02*
X154805000Y-100285000D01*
D16*
G36*
X147430126Y-119389945D02*
X147430220Y-119298675D01*
X147430419Y-119221716D01*
X147430760Y-119157758D01*
X147431284Y-119105489D01*
X147432027Y-119063599D01*
X147433028Y-119030776D01*
X147434325Y-119005709D01*
X147435957Y-118987088D01*
X147437962Y-118973601D01*
X147440379Y-118963938D01*
X147443245Y-118956787D01*
X147446030Y-118951758D01*
X147471640Y-118924028D01*
X147504393Y-118909938D01*
X147540443Y-118911031D01*
X147544662Y-118912211D01*
X147560949Y-118919233D01*
X147589091Y-118933526D01*
X147626785Y-118953756D01*
X147671725Y-118978590D01*
X147721606Y-119006695D01*
X147774124Y-119036739D01*
X147826973Y-119067388D01*
X147877848Y-119097309D01*
X147924445Y-119125170D01*
X147964458Y-119149638D01*
X147995583Y-119169379D01*
X148015515Y-119183061D01*
X148021037Y-119187694D01*
X148027113Y-119195064D01*
X148031798Y-119204116D01*
X148035367Y-119217179D01*
X148038096Y-119236585D01*
X148040261Y-119264664D01*
X148042138Y-119303746D01*
X148044004Y-119356163D01*
X148045108Y-119390985D01*
X148046922Y-119444701D01*
X148048804Y-119492224D01*
X148050635Y-119531121D01*
X148052296Y-119558962D01*
X148053666Y-119573313D01*
X148054121Y-119574733D01*
X148062205Y-119570723D01*
X148082349Y-119559658D01*
X148111968Y-119542988D01*
X148148477Y-119522162D01*
X148171154Y-119509117D01*
X148284884Y-119443500D01*
X148285200Y-119053186D01*
X148093386Y-118943873D01*
X148040549Y-118913381D01*
X147991730Y-118884488D01*
X147949149Y-118858565D01*
X147915027Y-118836984D01*
X147891586Y-118821117D01*
X147881719Y-118813150D01*
X147861867Y-118791740D01*
X147861867Y-117723855D01*
X147889787Y-117696794D01*
X147903613Y-117684194D01*
X147916887Y-117675167D01*
X147931269Y-117670259D01*
X147948417Y-117670016D01*
X147969992Y-117674985D01*
X147997654Y-117685711D01*
X148033061Y-117702741D01*
X148077872Y-117726622D01*
X148133749Y-117757898D01*
X148202349Y-117797117D01*
X148212734Y-117803083D01*
X148284273Y-117844520D01*
X148341979Y-117878706D01*
X148386966Y-117906354D01*
X148420343Y-117928176D01*
X148443222Y-117944885D01*
X148456716Y-117957195D01*
X148460235Y-117961833D01*
X148465610Y-117972704D01*
X148469771Y-117987023D01*
X148472955Y-118007221D01*
X148475401Y-118035729D01*
X148477348Y-118074977D01*
X148479035Y-118127397D01*
X148479934Y-118162550D01*
X148484167Y-118337868D01*
X148600583Y-118269682D01*
X148717000Y-118201496D01*
X148718077Y-118047798D01*
X148718761Y-117989858D01*
X148719949Y-117929717D01*
X148721504Y-117872683D01*
X148723291Y-117824062D01*
X148724427Y-117800967D01*
X148729700Y-117707833D01*
X148776267Y-117677081D01*
X148796506Y-117664277D01*
X148828787Y-117644539D01*
X148870503Y-117619429D01*
X148919048Y-117590511D01*
X148971814Y-117559345D01*
X149012884Y-117535264D01*
X149072415Y-117500673D01*
X149119416Y-117473920D01*
X149155831Y-117454050D01*
X149183601Y-117440109D01*
X149204668Y-117431142D01*
X149220974Y-117426195D01*
X149234461Y-117424312D01*
X149238800Y-117424200D01*
X149247672Y-117424965D01*
X149258782Y-117427677D01*
X149273291Y-117432954D01*
X149292360Y-117441419D01*
X149317149Y-117453693D01*
X149348819Y-117470398D01*
X149388530Y-117492153D01*
X149437442Y-117519580D01*
X149496717Y-117553301D01*
X149567514Y-117593936D01*
X149650995Y-117642107D01*
X149713383Y-117678201D01*
X149795677Y-117726049D01*
X149873059Y-117771436D01*
X149944271Y-117813601D01*
X150008055Y-117851780D01*
X150063155Y-117885213D01*
X150108312Y-117913138D01*
X150142268Y-117934793D01*
X150163767Y-117949415D01*
X150171108Y-117955485D01*
X150186908Y-117987355D01*
X150188691Y-118023711D01*
X150176342Y-118058880D01*
X150165929Y-118069827D01*
X150144023Y-118086368D01*
X150109911Y-118108958D01*
X150062882Y-118138051D01*
X150002224Y-118174100D01*
X149932200Y-118214703D01*
X149865759Y-118252722D01*
X149812183Y-118282923D01*
X149769790Y-118306145D01*
X149736895Y-118323232D01*
X149711813Y-118335026D01*
X149692860Y-118342367D01*
X149678352Y-118346098D01*
X149667392Y-118347066D01*
X149651334Y-118345485D01*
X149632281Y-118339971D01*
X149607690Y-118329369D01*
X149575017Y-118312523D01*
X149531722Y-118288277D01*
X149508325Y-118274779D01*
X149465213Y-118249844D01*
X149425541Y-118227065D01*
X149392340Y-118208168D01*
X149368644Y-118194883D01*
X149359425Y-118189895D01*
X149335067Y-118177298D01*
X149335329Y-118452900D01*
X149527815Y-118562966D01*
X149580657Y-118593535D01*
X149629438Y-118622420D01*
X149671956Y-118648266D01*
X149706012Y-118669717D01*
X149729405Y-118685416D01*
X149739350Y-118693319D01*
X149744494Y-118699106D01*
X149748615Y-118705545D01*
X149751824Y-118714445D01*
X149754231Y-118727612D01*
X149755948Y-118746855D01*
X149757085Y-118773980D01*
X149757753Y-118810795D01*
X149758064Y-118859108D01*
X149758129Y-118920724D01*
X149758057Y-118997453D01*
X149758056Y-118998119D01*
X149757712Y-119282633D01*
X149734773Y-119308638D01*
X149720421Y-119320714D01*
X149693880Y-119339062D01*
X149657384Y-119362412D01*
X149613167Y-119389495D01*
X149563462Y-119419040D01*
X149510504Y-119449777D01*
X149456527Y-119480436D01*
X149403764Y-119509747D01*
X149354450Y-119536440D01*
X149310818Y-119559246D01*
X149275101Y-119576893D01*
X149249536Y-119588113D01*
X149236931Y-119591667D01*
X149210766Y-119584951D01*
X149181566Y-119566632D01*
X149180363Y-119565650D01*
X149148800Y-119539634D01*
X149147881Y-119343400D01*
X149147378Y-119284153D01*
X149146479Y-119227643D01*
X149145270Y-119177069D01*
X149143832Y-119135631D01*
X149142248Y-119106527D01*
X149141531Y-119098492D01*
X149136100Y-119049818D01*
X149019683Y-118982921D01*
X148903267Y-118916025D01*
X148903267Y-119690047D01*
X149069793Y-119785499D01*
X149124379Y-119816602D01*
X149166351Y-119839964D01*
X149197658Y-119856491D01*
X149220246Y-119867088D01*
X149236063Y-119872660D01*
X149247055Y-119874112D01*
X149255170Y-119872349D01*
X149255912Y-119872025D01*
X149268483Y-119865389D01*
X149293416Y-119851478D01*
X149328459Y-119831575D01*
X149371362Y-119806964D01*
X149419876Y-119778927D01*
X149457573Y-119757016D01*
X149522296Y-119719775D01*
X149573909Y-119691170D01*
X149613520Y-119670639D01*
X149642238Y-119657618D01*
X149661169Y-119651548D01*
X149666732Y-119650933D01*
X149677795Y-119652258D01*
X149692579Y-119656706D01*
X149712408Y-119664984D01*
X149738611Y-119677802D01*
X149772512Y-119695869D01*
X149815439Y-119719892D01*
X149868718Y-119750581D01*
X149933675Y-119788644D01*
X150011637Y-119834790D01*
X150018504Y-119838870D01*
X150064948Y-119866972D01*
X150106628Y-119893155D01*
X150141240Y-119915894D01*
X150166481Y-119933663D01*
X150180047Y-119944936D01*
X150181488Y-119946807D01*
X150188936Y-119974482D01*
X150188082Y-120007792D01*
X150179254Y-120037805D01*
X150178048Y-120040097D01*
X150166287Y-120051679D01*
X150139991Y-120070619D01*
X150099700Y-120096570D01*
X150045960Y-120129185D01*
X149979311Y-120168118D01*
X149964565Y-120176583D01*
X149762634Y-120292205D01*
X149760310Y-120433480D01*
X149757986Y-120574756D01*
X149794177Y-120553565D01*
X149809349Y-120544740D01*
X149837397Y-120528487D01*
X149876533Y-120505838D01*
X149924967Y-120477830D01*
X149980909Y-120445496D01*
X150042570Y-120409872D01*
X150108160Y-120371991D01*
X150130934Y-120358842D01*
X150431500Y-120185311D01*
X150433619Y-119992205D01*
X150435738Y-119799100D01*
X150236082Y-119685142D01*
X150175296Y-119649937D01*
X150122294Y-119618219D01*
X150078637Y-119590977D01*
X150045884Y-119569199D01*
X150025594Y-119553873D01*
X150020180Y-119548369D01*
X150016849Y-119543114D01*
X150014007Y-119536562D01*
X150011615Y-119527415D01*
X150009634Y-119514374D01*
X150008026Y-119496139D01*
X150006751Y-119471412D01*
X150005773Y-119438894D01*
X150005050Y-119397286D01*
X150004546Y-119345291D01*
X150004221Y-119281608D01*
X150004036Y-119204939D01*
X150003953Y-119113985D01*
X150003934Y-119007448D01*
X150003934Y-119002926D01*
X150003950Y-118895786D01*
X150004025Y-118804270D01*
X150004199Y-118727068D01*
X150004511Y-118662869D01*
X150005001Y-118610364D01*
X150005710Y-118568243D01*
X150006677Y-118535196D01*
X150007941Y-118509913D01*
X150009543Y-118491084D01*
X150011522Y-118477400D01*
X150013918Y-118467550D01*
X150016771Y-118460224D01*
X150020121Y-118454113D01*
X150020636Y-118453274D01*
X150044053Y-118428975D01*
X150075065Y-118414582D01*
X150107647Y-118412362D01*
X150120547Y-118415679D01*
X150135696Y-118422882D01*
X150162792Y-118437214D01*
X150199548Y-118457361D01*
X150243678Y-118482008D01*
X150292893Y-118509838D01*
X150344908Y-118539537D01*
X150397435Y-118569789D01*
X150448187Y-118599278D01*
X150494877Y-118626690D01*
X150535218Y-118650709D01*
X150566923Y-118670019D01*
X150587706Y-118683305D01*
X150594483Y-118688274D01*
X150600655Y-118694415D01*
X150605325Y-118701617D01*
X150608704Y-118712144D01*
X150610999Y-118728260D01*
X150612421Y-118752228D01*
X150613178Y-118786314D01*
X150613479Y-118832780D01*
X150613533Y-118893891D01*
X150613533Y-118894642D01*
X150613804Y-118949140D01*
X150614563Y-118997447D01*
X150615730Y-119037172D01*
X150617223Y-119065922D01*
X150618963Y-119081307D01*
X150619883Y-119083241D01*
X150629038Y-119079049D01*
X150650141Y-119067762D01*
X150680535Y-119050848D01*
X150717562Y-119029779D01*
X150740533Y-119016521D01*
X150854833Y-118950226D01*
X150860054Y-118752363D01*
X150861613Y-118693172D01*
X150863087Y-118636977D01*
X150864397Y-118586892D01*
X150865459Y-118546033D01*
X150866194Y-118517512D01*
X150866404Y-118509213D01*
X150868597Y-118480208D01*
X150875268Y-118460799D01*
X150889268Y-118443727D01*
X150893829Y-118439363D01*
X150926049Y-118419402D01*
X150960950Y-118414353D01*
X150994730Y-118423487D01*
X151023584Y-118446074D01*
X151037546Y-118466931D01*
X151044210Y-118482183D01*
X151048671Y-118499357D01*
X151051260Y-118521903D01*
X151052311Y-118553269D01*
X151052157Y-118596905D01*
X151051882Y-118615546D01*
X151051074Y-118665080D01*
X151050095Y-118725550D01*
X151049043Y-118790958D01*
X151048014Y-118855308D01*
X151047467Y-118889745D01*
X151046493Y-118945175D01*
X151045381Y-118986199D01*
X151043822Y-119015343D01*
X151041505Y-119035132D01*
X151038122Y-119048093D01*
X151033365Y-119056752D01*
X151026923Y-119063635D01*
X151026101Y-119064389D01*
X151014157Y-119072872D01*
X150989505Y-119088539D01*
X150954147Y-119110184D01*
X150910084Y-119136598D01*
X150859318Y-119166575D01*
X150803849Y-119198908D01*
X150785308Y-119209627D01*
X150721525Y-119246312D01*
X150670502Y-119275296D01*
X150630409Y-119297472D01*
X150599416Y-119313734D01*
X150575691Y-119324975D01*
X150557404Y-119332087D01*
X150542724Y-119335963D01*
X150529822Y-119337497D01*
X150522841Y-119337666D01*
X150496334Y-119336145D01*
X150478961Y-119329236D01*
X150463024Y-119313420D01*
X150459017Y-119308485D01*
X150435733Y-119279305D01*
X150435731Y-119043902D01*
X150435729Y-118808500D01*
X150357415Y-118764154D01*
X150318967Y-118742332D01*
X150280503Y-118720416D01*
X150247834Y-118701721D01*
X150234650Y-118694133D01*
X150190200Y-118668457D01*
X150190239Y-119055979D01*
X150190277Y-119443500D01*
X150370155Y-119544328D01*
X150422362Y-119574093D01*
X150471334Y-119602949D01*
X150514541Y-119629333D01*
X150549457Y-119651682D01*
X150573553Y-119668433D01*
X150581783Y-119675163D01*
X150613533Y-119705170D01*
X150613264Y-119993435D01*
X150613070Y-120074032D01*
X150612610Y-120139289D01*
X150611822Y-120190798D01*
X150610642Y-120230151D01*
X150609006Y-120258940D01*
X150606852Y-120278756D01*
X150604117Y-120291192D01*
X150601181Y-120297291D01*
X150591892Y-120304219D01*
X150569216Y-120318781D01*
X150534460Y-120340199D01*
X150488931Y-120367694D01*
X150433936Y-120400487D01*
X150370783Y-120437797D01*
X150300778Y-120478845D01*
X150225230Y-120522853D01*
X150145445Y-120569041D01*
X150143191Y-120570341D01*
X150047574Y-120625503D01*
X149965472Y-120672735D01*
X149895723Y-120712552D01*
X149837164Y-120745465D01*
X149788631Y-120771990D01*
X149748962Y-120792639D01*
X149716993Y-120807925D01*
X149691563Y-120818362D01*
X149671507Y-120824464D01*
X149655663Y-120826744D01*
X149642868Y-120825714D01*
X149631959Y-120821889D01*
X149621773Y-120815783D01*
X149611148Y-120807907D01*
X149608916Y-120806202D01*
X149580600Y-120784605D01*
X149580600Y-120494077D01*
X149580646Y-120415997D01*
X149580846Y-120353060D01*
X149581294Y-120303476D01*
X149582085Y-120265454D01*
X149583313Y-120237204D01*
X149585071Y-120216936D01*
X149587453Y-120202860D01*
X149590554Y-120193185D01*
X149594468Y-120186120D01*
X149596958Y-120182755D01*
X149609424Y-120171883D01*
X149633948Y-120154515D01*
X149667814Y-120132431D01*
X149708306Y-120107408D01*
X149747241Y-120084380D01*
X149790717Y-120059149D01*
X149829583Y-120036505D01*
X149861274Y-120017950D01*
X149883226Y-120004984D01*
X149892608Y-119999287D01*
X149892857Y-119993204D01*
X149881722Y-119982077D01*
X149858431Y-119965391D01*
X149822215Y-119942633D01*
X149772302Y-119913287D01*
X149715759Y-119881226D01*
X149668884Y-119854960D01*
X149470225Y-119968667D01*
X149407275Y-120004435D01*
X149357082Y-120032282D01*
X149317921Y-120053059D01*
X149288065Y-120067619D01*
X149265789Y-120076812D01*
X149249367Y-120081490D01*
X149239348Y-120082554D01*
X149227789Y-120081245D01*
X149212477Y-120076663D01*
X149191825Y-120067999D01*
X149164244Y-120054442D01*
X149128147Y-120035183D01*
X149081948Y-120009411D01*
X149024060Y-119976317D01*
X148970727Y-119945454D01*
X148903900Y-119906484D01*
X148850367Y-119874829D01*
X148808656Y-119849514D01*
X148777293Y-119829566D01*
X148754808Y-119814010D01*
X148739728Y-119801872D01*
X148730580Y-119792179D01*
X148725893Y-119783956D01*
X148725663Y-119783324D01*
X148723701Y-119768986D01*
X148721974Y-119738229D01*
X148720491Y-119691563D01*
X148719258Y-119629501D01*
X148718284Y-119552555D01*
X148717578Y-119461236D01*
X148717147Y-119356057D01*
X148717000Y-119237529D01*
X148717000Y-118714301D01*
X148741079Y-118691233D01*
X148768211Y-118670924D01*
X148796687Y-118662687D01*
X148829594Y-118666536D01*
X148870021Y-118682489D01*
X148888569Y-118692036D01*
X148943995Y-118722379D01*
X149001937Y-118754892D01*
X149060433Y-118788397D01*
X149117519Y-118821718D01*
X149171234Y-118853676D01*
X149219615Y-118883094D01*
X149260699Y-118908794D01*
X149292522Y-118929598D01*
X149313123Y-118944329D01*
X149320278Y-118951072D01*
X149324670Y-118967759D01*
X149328455Y-119001194D01*
X149331618Y-119051200D01*
X149334148Y-119117603D01*
X149334988Y-119149059D01*
X149339300Y-119328752D01*
X149460107Y-119260242D01*
X149580913Y-119191731D01*
X149578640Y-119000115D01*
X149576367Y-118808500D01*
X149383149Y-118697640D01*
X149330182Y-118666913D01*
X149281225Y-118637877D01*
X149238480Y-118611888D01*
X149204149Y-118590303D01*
X149180436Y-118574478D01*
X149170112Y-118566406D01*
X149150292Y-118546033D01*
X149147429Y-118270867D01*
X149146747Y-118189829D01*
X149146586Y-118124143D01*
X149146989Y-118072233D01*
X149147999Y-118032523D01*
X149149659Y-118003440D01*
X149152011Y-117983407D01*
X149155098Y-117970849D01*
X149155621Y-117969527D01*
X149173176Y-117946121D01*
X149200953Y-117926994D01*
X149232240Y-117916276D01*
X149243807Y-117915266D01*
X149255870Y-117919358D01*
X149280379Y-117930876D01*
X149315172Y-117948690D01*
X149358084Y-117971665D01*
X149406952Y-117998671D01*
X149453070Y-118024814D01*
X149505245Y-118054629D01*
X149553123Y-118081790D01*
X149594578Y-118105107D01*
X149627486Y-118123389D01*
X149649720Y-118135446D01*
X149658764Y-118139962D01*
X149673235Y-118138022D01*
X149701318Y-118126317D01*
X149743073Y-118104820D01*
X149787881Y-118079679D01*
X149827032Y-118056837D01*
X149860370Y-118036805D01*
X149885404Y-118021126D01*
X149899640Y-118011344D01*
X149901967Y-118008981D01*
X149894851Y-118004065D01*
X149874846Y-117991795D01*
X149843766Y-117973223D01*
X149803423Y-117949397D01*
X149755631Y-117921367D01*
X149702202Y-117890183D01*
X149644949Y-117856894D01*
X149585686Y-117822551D01*
X149526226Y-117788203D01*
X149468380Y-117754899D01*
X149413963Y-117723690D01*
X149364787Y-117695624D01*
X149322666Y-117671753D01*
X149289412Y-117653125D01*
X149266838Y-117640790D01*
X149259564Y-117637036D01*
X149251371Y-117633662D01*
X149242648Y-117632551D01*
X149231359Y-117634606D01*
X149215472Y-117640733D01*
X149192950Y-117651838D01*
X149161760Y-117668824D01*
X149119867Y-117692598D01*
X149069609Y-117721539D01*
X148903267Y-117817574D01*
X148903232Y-117957437D01*
X148902841Y-118015687D01*
X148901790Y-118078656D01*
X148900227Y-118139776D01*
X148898299Y-118192481D01*
X148897677Y-118205555D01*
X148892156Y-118313810D01*
X148819395Y-118358696D01*
X148790076Y-118376497D01*
X148749464Y-118400753D01*
X148700939Y-118429466D01*
X148647881Y-118460639D01*
X148593669Y-118492274D01*
X148576360Y-118502324D01*
X148515825Y-118537139D01*
X148467762Y-118563738D01*
X148430158Y-118582678D01*
X148401003Y-118594517D01*
X148378284Y-118599812D01*
X148359990Y-118599122D01*
X148344110Y-118593004D01*
X148328631Y-118582015D01*
X148319067Y-118573650D01*
X148289434Y-118546730D01*
X148286470Y-118303924D01*
X148283507Y-118061117D01*
X148173024Y-117998775D01*
X148133852Y-117976751D01*
X148099799Y-117957754D01*
X148073638Y-117943320D01*
X148058141Y-117934983D01*
X148055337Y-117933611D01*
X148053860Y-117941206D01*
X148052486Y-117964067D01*
X148051244Y-118000530D01*
X148050168Y-118048929D01*
X148049287Y-118107597D01*
X148048634Y-118174868D01*
X148048241Y-118249077D01*
X148048133Y-118315128D01*
X148048133Y-118699468D01*
X148250695Y-118816948D01*
X148321071Y-118858268D01*
X148376817Y-118892132D01*
X148418365Y-118918822D01*
X148446148Y-118938617D01*
X148460598Y-118951801D01*
X148462549Y-118954824D01*
X148465840Y-118970337D01*
X148468860Y-119000150D01*
X148471564Y-119041634D01*
X148473906Y-119092157D01*
X148475842Y-119149089D01*
X148477324Y-119209798D01*
X148478308Y-119271654D01*
X148478748Y-119332026D01*
X148478598Y-119388283D01*
X148477813Y-119437795D01*
X148476348Y-119477930D01*
X148474155Y-119506058D01*
X148472292Y-119516752D01*
X148469347Y-119527571D01*
X148466255Y-119536744D01*
X148461571Y-119545291D01*
X148453844Y-119554237D01*
X148441628Y-119564604D01*
X148423475Y-119577414D01*
X148397937Y-119593690D01*
X148363565Y-119614455D01*
X148318913Y-119640731D01*
X148262532Y-119673541D01*
X148193920Y-119713358D01*
X148128411Y-119751196D01*
X148075611Y-119781055D01*
X148033699Y-119803660D01*
X148000858Y-119819734D01*
X147975268Y-119830000D01*
X147955112Y-119835184D01*
X147938570Y-119836009D01*
X147923825Y-119833197D01*
X147909057Y-119827475D01*
X147908197Y-119827085D01*
X147895295Y-119820350D01*
X147885033Y-119811945D01*
X147877110Y-119799995D01*
X147871226Y-119782622D01*
X147867079Y-119757951D01*
X147864371Y-119724105D01*
X147862800Y-119679209D01*
X147862066Y-119621385D01*
X147861869Y-119548759D01*
X147861867Y-119537726D01*
X147861867Y-119305144D01*
X147742440Y-119236739D01*
X147702124Y-119213761D01*
X147667194Y-119194070D01*
X147640176Y-119179073D01*
X147623599Y-119170178D01*
X147619588Y-119168333D01*
X147618934Y-119176520D01*
X147618414Y-119199960D01*
X147618036Y-119236976D01*
X147617803Y-119285889D01*
X147617722Y-119345019D01*
X147617797Y-119412688D01*
X147618034Y-119487216D01*
X147618365Y-119554291D01*
X147620567Y-119940250D01*
X147786263Y-120035662D01*
X147951959Y-120131075D01*
X148154008Y-120013920D01*
X148213966Y-119979240D01*
X148261216Y-119952236D01*
X148297652Y-119932013D01*
X148325167Y-119917675D01*
X148345656Y-119908327D01*
X148361015Y-119903074D01*
X148373137Y-119901019D01*
X148383917Y-119901267D01*
X148390478Y-119902141D01*
X148407941Y-119908069D01*
X148438940Y-119922548D01*
X148483622Y-119945660D01*
X148542137Y-119977485D01*
X148614635Y-120018102D01*
X148701263Y-120067591D01*
X148746633Y-120093784D01*
X148856734Y-120157577D01*
X148952882Y-120213400D01*
X149035821Y-120261692D01*
X149106296Y-120302895D01*
X149165051Y-120337447D01*
X149212831Y-120365789D01*
X149250379Y-120388361D01*
X149278441Y-120405604D01*
X149297759Y-120417956D01*
X149309080Y-120425858D01*
X149311167Y-120427547D01*
X149325795Y-120450069D01*
X149331919Y-120480757D01*
X149328898Y-120512782D01*
X149321002Y-120532330D01*
X149308803Y-120544559D01*
X149283863Y-120563302D01*
X149248428Y-120587260D01*
X149204743Y-120615133D01*
X149155056Y-120645620D01*
X149101612Y-120677422D01*
X149046657Y-120709239D01*
X148992438Y-120739770D01*
X148941200Y-120767716D01*
X148895190Y-120791777D01*
X148856653Y-120810653D01*
X148827837Y-120823043D01*
X148810987Y-120827648D01*
X148810736Y-120827652D01*
X148795275Y-120825112D01*
X148772752Y-120816812D01*
X148741451Y-120801926D01*
X148699654Y-120779627D01*
X148645647Y-120749087D01*
X148635329Y-120743133D01*
X148590472Y-120717317D01*
X148550699Y-120694676D01*
X148518295Y-120676489D01*
X148495545Y-120664038D01*
X148484734Y-120658601D01*
X148484234Y-120658466D01*
X148482785Y-120666461D01*
X148481802Y-120688570D01*
X148481334Y-120721976D01*
X148481430Y-120763865D01*
X148481840Y-120795621D01*
X148484167Y-120932775D01*
X148667963Y-121039038D01*
X148720041Y-121069541D01*
X148768509Y-121098670D01*
X148811004Y-121124947D01*
X148845165Y-121146894D01*
X148868629Y-121163034D01*
X148877513Y-121170167D01*
X148898358Y-121200696D01*
X148903146Y-121235796D01*
X148891728Y-121274230D01*
X148890479Y-121276703D01*
X148872538Y-121301286D01*
X148847886Y-121314595D01*
X148812245Y-121318850D01*
X148809262Y-121318866D01*
X148796961Y-121317851D01*
X148782346Y-121314219D01*
X148763631Y-121307086D01*
X148739030Y-121295572D01*
X148706755Y-121278795D01*
X148665019Y-121255872D01*
X148612037Y-121225923D01*
X148556822Y-121194282D01*
X148500220Y-121161280D01*
X148447144Y-121129497D01*
X148399754Y-121100291D01*
X148360214Y-121075024D01*
X148330684Y-121055053D01*
X148313327Y-121041740D01*
X148311509Y-121039998D01*
X148282785Y-121010300D01*
X148291581Y-120443492D01*
X148318158Y-120419746D01*
X148333535Y-120407194D01*
X148348580Y-120398766D01*
X148365101Y-120395026D01*
X148384904Y-120396537D01*
X148409797Y-120403863D01*
X148441587Y-120417567D01*
X148482083Y-120438212D01*
X148533090Y-120466362D01*
X148596416Y-120502581D01*
X148611144Y-120511089D01*
X148810187Y-120626177D01*
X148850377Y-120603047D01*
X148875189Y-120588708D01*
X148909266Y-120568938D01*
X148947253Y-120546846D01*
X148969885Y-120533658D01*
X149049203Y-120487400D01*
X148974118Y-120443557D01*
X148948507Y-120428675D01*
X148910586Y-120406741D01*
X148862736Y-120379127D01*
X148807337Y-120347204D01*
X148746768Y-120312344D01*
X148683411Y-120275919D01*
X148642627Y-120252493D01*
X148386220Y-120105274D01*
X148354760Y-120120251D01*
X148337585Y-120129145D01*
X148308663Y-120144909D01*
X148270900Y-120165928D01*
X148227202Y-120190581D01*
X148180474Y-120217254D01*
X148179367Y-120217889D01*
X148118218Y-120252960D01*
X148069901Y-120280419D01*
X148032571Y-120301106D01*
X148004385Y-120315859D01*
X147983499Y-120325517D01*
X147968070Y-120330918D01*
X147956254Y-120332901D01*
X147946208Y-120332304D01*
X147936087Y-120329966D01*
X147934135Y-120329430D01*
X147919716Y-120323287D01*
X147892749Y-120309724D01*
X147855308Y-120289863D01*
X147809466Y-120264827D01*
X147757294Y-120235740D01*
X147700865Y-120203724D01*
X147679614Y-120191528D01*
X147608646Y-120150325D01*
X147551641Y-120116417D01*
X147507604Y-120089162D01*
X147475539Y-120067922D01*
X147454451Y-120052055D01*
X147443345Y-120040922D01*
X147441959Y-120038704D01*
X147439445Y-120031411D01*
X147437297Y-120019134D01*
X147435489Y-120000666D01*
X147433995Y-119974800D01*
X147432788Y-119940330D01*
X147431842Y-119896049D01*
X147431131Y-119840750D01*
X147430627Y-119773227D01*
X147430305Y-119692274D01*
X147430138Y-119596683D01*
X147430098Y-119496837D01*
X147430126Y-119389945D01*
X147430126Y-119389945D01*
G37*
X147430126Y-119389945D02*
X147430220Y-119298675D01*
X147430419Y-119221716D01*
X147430760Y-119157758D01*
X147431284Y-119105489D01*
X147432027Y-119063599D01*
X147433028Y-119030776D01*
X147434325Y-119005709D01*
X147435957Y-118987088D01*
X147437962Y-118973601D01*
X147440379Y-118963938D01*
X147443245Y-118956787D01*
X147446030Y-118951758D01*
X147471640Y-118924028D01*
X147504393Y-118909938D01*
X147540443Y-118911031D01*
X147544662Y-118912211D01*
X147560949Y-118919233D01*
X147589091Y-118933526D01*
X147626785Y-118953756D01*
X147671725Y-118978590D01*
X147721606Y-119006695D01*
X147774124Y-119036739D01*
X147826973Y-119067388D01*
X147877848Y-119097309D01*
X147924445Y-119125170D01*
X147964458Y-119149638D01*
X147995583Y-119169379D01*
X148015515Y-119183061D01*
X148021037Y-119187694D01*
X148027113Y-119195064D01*
X148031798Y-119204116D01*
X148035367Y-119217179D01*
X148038096Y-119236585D01*
X148040261Y-119264664D01*
X148042138Y-119303746D01*
X148044004Y-119356163D01*
X148045108Y-119390985D01*
X148046922Y-119444701D01*
X148048804Y-119492224D01*
X148050635Y-119531121D01*
X148052296Y-119558962D01*
X148053666Y-119573313D01*
X148054121Y-119574733D01*
X148062205Y-119570723D01*
X148082349Y-119559658D01*
X148111968Y-119542988D01*
X148148477Y-119522162D01*
X148171154Y-119509117D01*
X148284884Y-119443500D01*
X148285200Y-119053186D01*
X148093386Y-118943873D01*
X148040549Y-118913381D01*
X147991730Y-118884488D01*
X147949149Y-118858565D01*
X147915027Y-118836984D01*
X147891586Y-118821117D01*
X147881719Y-118813150D01*
X147861867Y-118791740D01*
X147861867Y-117723855D01*
X147889787Y-117696794D01*
X147903613Y-117684194D01*
X147916887Y-117675167D01*
X147931269Y-117670259D01*
X147948417Y-117670016D01*
X147969992Y-117674985D01*
X147997654Y-117685711D01*
X148033061Y-117702741D01*
X148077872Y-117726622D01*
X148133749Y-117757898D01*
X148202349Y-117797117D01*
X148212734Y-117803083D01*
X148284273Y-117844520D01*
X148341979Y-117878706D01*
X148386966Y-117906354D01*
X148420343Y-117928176D01*
X148443222Y-117944885D01*
X148456716Y-117957195D01*
X148460235Y-117961833D01*
X148465610Y-117972704D01*
X148469771Y-117987023D01*
X148472955Y-118007221D01*
X148475401Y-118035729D01*
X148477348Y-118074977D01*
X148479035Y-118127397D01*
X148479934Y-118162550D01*
X148484167Y-118337868D01*
X148600583Y-118269682D01*
X148717000Y-118201496D01*
X148718077Y-118047798D01*
X148718761Y-117989858D01*
X148719949Y-117929717D01*
X148721504Y-117872683D01*
X148723291Y-117824062D01*
X148724427Y-117800967D01*
X148729700Y-117707833D01*
X148776267Y-117677081D01*
X148796506Y-117664277D01*
X148828787Y-117644539D01*
X148870503Y-117619429D01*
X148919048Y-117590511D01*
X148971814Y-117559345D01*
X149012884Y-117535264D01*
X149072415Y-117500673D01*
X149119416Y-117473920D01*
X149155831Y-117454050D01*
X149183601Y-117440109D01*
X149204668Y-117431142D01*
X149220974Y-117426195D01*
X149234461Y-117424312D01*
X149238800Y-117424200D01*
X149247672Y-117424965D01*
X149258782Y-117427677D01*
X149273291Y-117432954D01*
X149292360Y-117441419D01*
X149317149Y-117453693D01*
X149348819Y-117470398D01*
X149388530Y-117492153D01*
X149437442Y-117519580D01*
X149496717Y-117553301D01*
X149567514Y-117593936D01*
X149650995Y-117642107D01*
X149713383Y-117678201D01*
X149795677Y-117726049D01*
X149873059Y-117771436D01*
X149944271Y-117813601D01*
X150008055Y-117851780D01*
X150063155Y-117885213D01*
X150108312Y-117913138D01*
X150142268Y-117934793D01*
X150163767Y-117949415D01*
X150171108Y-117955485D01*
X150186908Y-117987355D01*
X150188691Y-118023711D01*
X150176342Y-118058880D01*
X150165929Y-118069827D01*
X150144023Y-118086368D01*
X150109911Y-118108958D01*
X150062882Y-118138051D01*
X150002224Y-118174100D01*
X149932200Y-118214703D01*
X149865759Y-118252722D01*
X149812183Y-118282923D01*
X149769790Y-118306145D01*
X149736895Y-118323232D01*
X149711813Y-118335026D01*
X149692860Y-118342367D01*
X149678352Y-118346098D01*
X149667392Y-118347066D01*
X149651334Y-118345485D01*
X149632281Y-118339971D01*
X149607690Y-118329369D01*
X149575017Y-118312523D01*
X149531722Y-118288277D01*
X149508325Y-118274779D01*
X149465213Y-118249844D01*
X149425541Y-118227065D01*
X149392340Y-118208168D01*
X149368644Y-118194883D01*
X149359425Y-118189895D01*
X149335067Y-118177298D01*
X149335329Y-118452900D01*
X149527815Y-118562966D01*
X149580657Y-118593535D01*
X149629438Y-118622420D01*
X149671956Y-118648266D01*
X149706012Y-118669717D01*
X149729405Y-118685416D01*
X149739350Y-118693319D01*
X149744494Y-118699106D01*
X149748615Y-118705545D01*
X149751824Y-118714445D01*
X149754231Y-118727612D01*
X149755948Y-118746855D01*
X149757085Y-118773980D01*
X149757753Y-118810795D01*
X149758064Y-118859108D01*
X149758129Y-118920724D01*
X149758057Y-118997453D01*
X149758056Y-118998119D01*
X149757712Y-119282633D01*
X149734773Y-119308638D01*
X149720421Y-119320714D01*
X149693880Y-119339062D01*
X149657384Y-119362412D01*
X149613167Y-119389495D01*
X149563462Y-119419040D01*
X149510504Y-119449777D01*
X149456527Y-119480436D01*
X149403764Y-119509747D01*
X149354450Y-119536440D01*
X149310818Y-119559246D01*
X149275101Y-119576893D01*
X149249536Y-119588113D01*
X149236931Y-119591667D01*
X149210766Y-119584951D01*
X149181566Y-119566632D01*
X149180363Y-119565650D01*
X149148800Y-119539634D01*
X149147881Y-119343400D01*
X149147378Y-119284153D01*
X149146479Y-119227643D01*
X149145270Y-119177069D01*
X149143832Y-119135631D01*
X149142248Y-119106527D01*
X149141531Y-119098492D01*
X149136100Y-119049818D01*
X149019683Y-118982921D01*
X148903267Y-118916025D01*
X148903267Y-119690047D01*
X149069793Y-119785499D01*
X149124379Y-119816602D01*
X149166351Y-119839964D01*
X149197658Y-119856491D01*
X149220246Y-119867088D01*
X149236063Y-119872660D01*
X149247055Y-119874112D01*
X149255170Y-119872349D01*
X149255912Y-119872025D01*
X149268483Y-119865389D01*
X149293416Y-119851478D01*
X149328459Y-119831575D01*
X149371362Y-119806964D01*
X149419876Y-119778927D01*
X149457573Y-119757016D01*
X149522296Y-119719775D01*
X149573909Y-119691170D01*
X149613520Y-119670639D01*
X149642238Y-119657618D01*
X149661169Y-119651548D01*
X149666732Y-119650933D01*
X149677795Y-119652258D01*
X149692579Y-119656706D01*
X149712408Y-119664984D01*
X149738611Y-119677802D01*
X149772512Y-119695869D01*
X149815439Y-119719892D01*
X149868718Y-119750581D01*
X149933675Y-119788644D01*
X150011637Y-119834790D01*
X150018504Y-119838870D01*
X150064948Y-119866972D01*
X150106628Y-119893155D01*
X150141240Y-119915894D01*
X150166481Y-119933663D01*
X150180047Y-119944936D01*
X150181488Y-119946807D01*
X150188936Y-119974482D01*
X150188082Y-120007792D01*
X150179254Y-120037805D01*
X150178048Y-120040097D01*
X150166287Y-120051679D01*
X150139991Y-120070619D01*
X150099700Y-120096570D01*
X150045960Y-120129185D01*
X149979311Y-120168118D01*
X149964565Y-120176583D01*
X149762634Y-120292205D01*
X149760310Y-120433480D01*
X149757986Y-120574756D01*
X149794177Y-120553565D01*
X149809349Y-120544740D01*
X149837397Y-120528487D01*
X149876533Y-120505838D01*
X149924967Y-120477830D01*
X149980909Y-120445496D01*
X150042570Y-120409872D01*
X150108160Y-120371991D01*
X150130934Y-120358842D01*
X150431500Y-120185311D01*
X150433619Y-119992205D01*
X150435738Y-119799100D01*
X150236082Y-119685142D01*
X150175296Y-119649937D01*
X150122294Y-119618219D01*
X150078637Y-119590977D01*
X150045884Y-119569199D01*
X150025594Y-119553873D01*
X150020180Y-119548369D01*
X150016849Y-119543114D01*
X150014007Y-119536562D01*
X150011615Y-119527415D01*
X150009634Y-119514374D01*
X150008026Y-119496139D01*
X150006751Y-119471412D01*
X150005773Y-119438894D01*
X150005050Y-119397286D01*
X150004546Y-119345291D01*
X150004221Y-119281608D01*
X150004036Y-119204939D01*
X150003953Y-119113985D01*
X150003934Y-119007448D01*
X150003934Y-119002926D01*
X150003950Y-118895786D01*
X150004025Y-118804270D01*
X150004199Y-118727068D01*
X150004511Y-118662869D01*
X150005001Y-118610364D01*
X150005710Y-118568243D01*
X150006677Y-118535196D01*
X150007941Y-118509913D01*
X150009543Y-118491084D01*
X150011522Y-118477400D01*
X150013918Y-118467550D01*
X150016771Y-118460224D01*
X150020121Y-118454113D01*
X150020636Y-118453274D01*
X150044053Y-118428975D01*
X150075065Y-118414582D01*
X150107647Y-118412362D01*
X150120547Y-118415679D01*
X150135696Y-118422882D01*
X150162792Y-118437214D01*
X150199548Y-118457361D01*
X150243678Y-118482008D01*
X150292893Y-118509838D01*
X150344908Y-118539537D01*
X150397435Y-118569789D01*
X150448187Y-118599278D01*
X150494877Y-118626690D01*
X150535218Y-118650709D01*
X150566923Y-118670019D01*
X150587706Y-118683305D01*
X150594483Y-118688274D01*
X150600655Y-118694415D01*
X150605325Y-118701617D01*
X150608704Y-118712144D01*
X150610999Y-118728260D01*
X150612421Y-118752228D01*
X150613178Y-118786314D01*
X150613479Y-118832780D01*
X150613533Y-118893891D01*
X150613533Y-118894642D01*
X150613804Y-118949140D01*
X150614563Y-118997447D01*
X150615730Y-119037172D01*
X150617223Y-119065922D01*
X150618963Y-119081307D01*
X150619883Y-119083241D01*
X150629038Y-119079049D01*
X150650141Y-119067762D01*
X150680535Y-119050848D01*
X150717562Y-119029779D01*
X150740533Y-119016521D01*
X150854833Y-118950226D01*
X150860054Y-118752363D01*
X150861613Y-118693172D01*
X150863087Y-118636977D01*
X150864397Y-118586892D01*
X150865459Y-118546033D01*
X150866194Y-118517512D01*
X150866404Y-118509213D01*
X150868597Y-118480208D01*
X150875268Y-118460799D01*
X150889268Y-118443727D01*
X150893829Y-118439363D01*
X150926049Y-118419402D01*
X150960950Y-118414353D01*
X150994730Y-118423487D01*
X151023584Y-118446074D01*
X151037546Y-118466931D01*
X151044210Y-118482183D01*
X151048671Y-118499357D01*
X151051260Y-118521903D01*
X151052311Y-118553269D01*
X151052157Y-118596905D01*
X151051882Y-118615546D01*
X151051074Y-118665080D01*
X151050095Y-118725550D01*
X151049043Y-118790958D01*
X151048014Y-118855308D01*
X151047467Y-118889745D01*
X151046493Y-118945175D01*
X151045381Y-118986199D01*
X151043822Y-119015343D01*
X151041505Y-119035132D01*
X151038122Y-119048093D01*
X151033365Y-119056752D01*
X151026923Y-119063635D01*
X151026101Y-119064389D01*
X151014157Y-119072872D01*
X150989505Y-119088539D01*
X150954147Y-119110184D01*
X150910084Y-119136598D01*
X150859318Y-119166575D01*
X150803849Y-119198908D01*
X150785308Y-119209627D01*
X150721525Y-119246312D01*
X150670502Y-119275296D01*
X150630409Y-119297472D01*
X150599416Y-119313734D01*
X150575691Y-119324975D01*
X150557404Y-119332087D01*
X150542724Y-119335963D01*
X150529822Y-119337497D01*
X150522841Y-119337666D01*
X150496334Y-119336145D01*
X150478961Y-119329236D01*
X150463024Y-119313420D01*
X150459017Y-119308485D01*
X150435733Y-119279305D01*
X150435731Y-119043902D01*
X150435729Y-118808500D01*
X150357415Y-118764154D01*
X150318967Y-118742332D01*
X150280503Y-118720416D01*
X150247834Y-118701721D01*
X150234650Y-118694133D01*
X150190200Y-118668457D01*
X150190239Y-119055979D01*
X150190277Y-119443500D01*
X150370155Y-119544328D01*
X150422362Y-119574093D01*
X150471334Y-119602949D01*
X150514541Y-119629333D01*
X150549457Y-119651682D01*
X150573553Y-119668433D01*
X150581783Y-119675163D01*
X150613533Y-119705170D01*
X150613264Y-119993435D01*
X150613070Y-120074032D01*
X150612610Y-120139289D01*
X150611822Y-120190798D01*
X150610642Y-120230151D01*
X150609006Y-120258940D01*
X150606852Y-120278756D01*
X150604117Y-120291192D01*
X150601181Y-120297291D01*
X150591892Y-120304219D01*
X150569216Y-120318781D01*
X150534460Y-120340199D01*
X150488931Y-120367694D01*
X150433936Y-120400487D01*
X150370783Y-120437797D01*
X150300778Y-120478845D01*
X150225230Y-120522853D01*
X150145445Y-120569041D01*
X150143191Y-120570341D01*
X150047574Y-120625503D01*
X149965472Y-120672735D01*
X149895723Y-120712552D01*
X149837164Y-120745465D01*
X149788631Y-120771990D01*
X149748962Y-120792639D01*
X149716993Y-120807925D01*
X149691563Y-120818362D01*
X149671507Y-120824464D01*
X149655663Y-120826744D01*
X149642868Y-120825714D01*
X149631959Y-120821889D01*
X149621773Y-120815783D01*
X149611148Y-120807907D01*
X149608916Y-120806202D01*
X149580600Y-120784605D01*
X149580600Y-120494077D01*
X149580646Y-120415997D01*
X149580846Y-120353060D01*
X149581294Y-120303476D01*
X149582085Y-120265454D01*
X149583313Y-120237204D01*
X149585071Y-120216936D01*
X149587453Y-120202860D01*
X149590554Y-120193185D01*
X149594468Y-120186120D01*
X149596958Y-120182755D01*
X149609424Y-120171883D01*
X149633948Y-120154515D01*
X149667814Y-120132431D01*
X149708306Y-120107408D01*
X149747241Y-120084380D01*
X149790717Y-120059149D01*
X149829583Y-120036505D01*
X149861274Y-120017950D01*
X149883226Y-120004984D01*
X149892608Y-119999287D01*
X149892857Y-119993204D01*
X149881722Y-119982077D01*
X149858431Y-119965391D01*
X149822215Y-119942633D01*
X149772302Y-119913287D01*
X149715759Y-119881226D01*
X149668884Y-119854960D01*
X149470225Y-119968667D01*
X149407275Y-120004435D01*
X149357082Y-120032282D01*
X149317921Y-120053059D01*
X149288065Y-120067619D01*
X149265789Y-120076812D01*
X149249367Y-120081490D01*
X149239348Y-120082554D01*
X149227789Y-120081245D01*
X149212477Y-120076663D01*
X149191825Y-120067999D01*
X149164244Y-120054442D01*
X149128147Y-120035183D01*
X149081948Y-120009411D01*
X149024060Y-119976317D01*
X148970727Y-119945454D01*
X148903900Y-119906484D01*
X148850367Y-119874829D01*
X148808656Y-119849514D01*
X148777293Y-119829566D01*
X148754808Y-119814010D01*
X148739728Y-119801872D01*
X148730580Y-119792179D01*
X148725893Y-119783956D01*
X148725663Y-119783324D01*
X148723701Y-119768986D01*
X148721974Y-119738229D01*
X148720491Y-119691563D01*
X148719258Y-119629501D01*
X148718284Y-119552555D01*
X148717578Y-119461236D01*
X148717147Y-119356057D01*
X148717000Y-119237529D01*
X148717000Y-118714301D01*
X148741079Y-118691233D01*
X148768211Y-118670924D01*
X148796687Y-118662687D01*
X148829594Y-118666536D01*
X148870021Y-118682489D01*
X148888569Y-118692036D01*
X148943995Y-118722379D01*
X149001937Y-118754892D01*
X149060433Y-118788397D01*
X149117519Y-118821718D01*
X149171234Y-118853676D01*
X149219615Y-118883094D01*
X149260699Y-118908794D01*
X149292522Y-118929598D01*
X149313123Y-118944329D01*
X149320278Y-118951072D01*
X149324670Y-118967759D01*
X149328455Y-119001194D01*
X149331618Y-119051200D01*
X149334148Y-119117603D01*
X149334988Y-119149059D01*
X149339300Y-119328752D01*
X149460107Y-119260242D01*
X149580913Y-119191731D01*
X149578640Y-119000115D01*
X149576367Y-118808500D01*
X149383149Y-118697640D01*
X149330182Y-118666913D01*
X149281225Y-118637877D01*
X149238480Y-118611888D01*
X149204149Y-118590303D01*
X149180436Y-118574478D01*
X149170112Y-118566406D01*
X149150292Y-118546033D01*
X149147429Y-118270867D01*
X149146747Y-118189829D01*
X149146586Y-118124143D01*
X149146989Y-118072233D01*
X149147999Y-118032523D01*
X149149659Y-118003440D01*
X149152011Y-117983407D01*
X149155098Y-117970849D01*
X149155621Y-117969527D01*
X149173176Y-117946121D01*
X149200953Y-117926994D01*
X149232240Y-117916276D01*
X149243807Y-117915266D01*
X149255870Y-117919358D01*
X149280379Y-117930876D01*
X149315172Y-117948690D01*
X149358084Y-117971665D01*
X149406952Y-117998671D01*
X149453070Y-118024814D01*
X149505245Y-118054629D01*
X149553123Y-118081790D01*
X149594578Y-118105107D01*
X149627486Y-118123389D01*
X149649720Y-118135446D01*
X149658764Y-118139962D01*
X149673235Y-118138022D01*
X149701318Y-118126317D01*
X149743073Y-118104820D01*
X149787881Y-118079679D01*
X149827032Y-118056837D01*
X149860370Y-118036805D01*
X149885404Y-118021126D01*
X149899640Y-118011344D01*
X149901967Y-118008981D01*
X149894851Y-118004065D01*
X149874846Y-117991795D01*
X149843766Y-117973223D01*
X149803423Y-117949397D01*
X149755631Y-117921367D01*
X149702202Y-117890183D01*
X149644949Y-117856894D01*
X149585686Y-117822551D01*
X149526226Y-117788203D01*
X149468380Y-117754899D01*
X149413963Y-117723690D01*
X149364787Y-117695624D01*
X149322666Y-117671753D01*
X149289412Y-117653125D01*
X149266838Y-117640790D01*
X149259564Y-117637036D01*
X149251371Y-117633662D01*
X149242648Y-117632551D01*
X149231359Y-117634606D01*
X149215472Y-117640733D01*
X149192950Y-117651838D01*
X149161760Y-117668824D01*
X149119867Y-117692598D01*
X149069609Y-117721539D01*
X148903267Y-117817574D01*
X148903232Y-117957437D01*
X148902841Y-118015687D01*
X148901790Y-118078656D01*
X148900227Y-118139776D01*
X148898299Y-118192481D01*
X148897677Y-118205555D01*
X148892156Y-118313810D01*
X148819395Y-118358696D01*
X148790076Y-118376497D01*
X148749464Y-118400753D01*
X148700939Y-118429466D01*
X148647881Y-118460639D01*
X148593669Y-118492274D01*
X148576360Y-118502324D01*
X148515825Y-118537139D01*
X148467762Y-118563738D01*
X148430158Y-118582678D01*
X148401003Y-118594517D01*
X148378284Y-118599812D01*
X148359990Y-118599122D01*
X148344110Y-118593004D01*
X148328631Y-118582015D01*
X148319067Y-118573650D01*
X148289434Y-118546730D01*
X148286470Y-118303924D01*
X148283507Y-118061117D01*
X148173024Y-117998775D01*
X148133852Y-117976751D01*
X148099799Y-117957754D01*
X148073638Y-117943320D01*
X148058141Y-117934983D01*
X148055337Y-117933611D01*
X148053860Y-117941206D01*
X148052486Y-117964067D01*
X148051244Y-118000530D01*
X148050168Y-118048929D01*
X148049287Y-118107597D01*
X148048634Y-118174868D01*
X148048241Y-118249077D01*
X148048133Y-118315128D01*
X148048133Y-118699468D01*
X148250695Y-118816948D01*
X148321071Y-118858268D01*
X148376817Y-118892132D01*
X148418365Y-118918822D01*
X148446148Y-118938617D01*
X148460598Y-118951801D01*
X148462549Y-118954824D01*
X148465840Y-118970337D01*
X148468860Y-119000150D01*
X148471564Y-119041634D01*
X148473906Y-119092157D01*
X148475842Y-119149089D01*
X148477324Y-119209798D01*
X148478308Y-119271654D01*
X148478748Y-119332026D01*
X148478598Y-119388283D01*
X148477813Y-119437795D01*
X148476348Y-119477930D01*
X148474155Y-119506058D01*
X148472292Y-119516752D01*
X148469347Y-119527571D01*
X148466255Y-119536744D01*
X148461571Y-119545291D01*
X148453844Y-119554237D01*
X148441628Y-119564604D01*
X148423475Y-119577414D01*
X148397937Y-119593690D01*
X148363565Y-119614455D01*
X148318913Y-119640731D01*
X148262532Y-119673541D01*
X148193920Y-119713358D01*
X148128411Y-119751196D01*
X148075611Y-119781055D01*
X148033699Y-119803660D01*
X148000858Y-119819734D01*
X147975268Y-119830000D01*
X147955112Y-119835184D01*
X147938570Y-119836009D01*
X147923825Y-119833197D01*
X147909057Y-119827475D01*
X147908197Y-119827085D01*
X147895295Y-119820350D01*
X147885033Y-119811945D01*
X147877110Y-119799995D01*
X147871226Y-119782622D01*
X147867079Y-119757951D01*
X147864371Y-119724105D01*
X147862800Y-119679209D01*
X147862066Y-119621385D01*
X147861869Y-119548759D01*
X147861867Y-119537726D01*
X147861867Y-119305144D01*
X147742440Y-119236739D01*
X147702124Y-119213761D01*
X147667194Y-119194070D01*
X147640176Y-119179073D01*
X147623599Y-119170178D01*
X147619588Y-119168333D01*
X147618934Y-119176520D01*
X147618414Y-119199960D01*
X147618036Y-119236976D01*
X147617803Y-119285889D01*
X147617722Y-119345019D01*
X147617797Y-119412688D01*
X147618034Y-119487216D01*
X147618365Y-119554291D01*
X147620567Y-119940250D01*
X147786263Y-120035662D01*
X147951959Y-120131075D01*
X148154008Y-120013920D01*
X148213966Y-119979240D01*
X148261216Y-119952236D01*
X148297652Y-119932013D01*
X148325167Y-119917675D01*
X148345656Y-119908327D01*
X148361015Y-119903074D01*
X148373137Y-119901019D01*
X148383917Y-119901267D01*
X148390478Y-119902141D01*
X148407941Y-119908069D01*
X148438940Y-119922548D01*
X148483622Y-119945660D01*
X148542137Y-119977485D01*
X148614635Y-120018102D01*
X148701263Y-120067591D01*
X148746633Y-120093784D01*
X148856734Y-120157577D01*
X148952882Y-120213400D01*
X149035821Y-120261692D01*
X149106296Y-120302895D01*
X149165051Y-120337447D01*
X149212831Y-120365789D01*
X149250379Y-120388361D01*
X149278441Y-120405604D01*
X149297759Y-120417956D01*
X149309080Y-120425858D01*
X149311167Y-120427547D01*
X149325795Y-120450069D01*
X149331919Y-120480757D01*
X149328898Y-120512782D01*
X149321002Y-120532330D01*
X149308803Y-120544559D01*
X149283863Y-120563302D01*
X149248428Y-120587260D01*
X149204743Y-120615133D01*
X149155056Y-120645620D01*
X149101612Y-120677422D01*
X149046657Y-120709239D01*
X148992438Y-120739770D01*
X148941200Y-120767716D01*
X148895190Y-120791777D01*
X148856653Y-120810653D01*
X148827837Y-120823043D01*
X148810987Y-120827648D01*
X148810736Y-120827652D01*
X148795275Y-120825112D01*
X148772752Y-120816812D01*
X148741451Y-120801926D01*
X148699654Y-120779627D01*
X148645647Y-120749087D01*
X148635329Y-120743133D01*
X148590472Y-120717317D01*
X148550699Y-120694676D01*
X148518295Y-120676489D01*
X148495545Y-120664038D01*
X148484734Y-120658601D01*
X148484234Y-120658466D01*
X148482785Y-120666461D01*
X148481802Y-120688570D01*
X148481334Y-120721976D01*
X148481430Y-120763865D01*
X148481840Y-120795621D01*
X148484167Y-120932775D01*
X148667963Y-121039038D01*
X148720041Y-121069541D01*
X148768509Y-121098670D01*
X148811004Y-121124947D01*
X148845165Y-121146894D01*
X148868629Y-121163034D01*
X148877513Y-121170167D01*
X148898358Y-121200696D01*
X148903146Y-121235796D01*
X148891728Y-121274230D01*
X148890479Y-121276703D01*
X148872538Y-121301286D01*
X148847886Y-121314595D01*
X148812245Y-121318850D01*
X148809262Y-121318866D01*
X148796961Y-121317851D01*
X148782346Y-121314219D01*
X148763631Y-121307086D01*
X148739030Y-121295572D01*
X148706755Y-121278795D01*
X148665019Y-121255872D01*
X148612037Y-121225923D01*
X148556822Y-121194282D01*
X148500220Y-121161280D01*
X148447144Y-121129497D01*
X148399754Y-121100291D01*
X148360214Y-121075024D01*
X148330684Y-121055053D01*
X148313327Y-121041740D01*
X148311509Y-121039998D01*
X148282785Y-121010300D01*
X148291581Y-120443492D01*
X148318158Y-120419746D01*
X148333535Y-120407194D01*
X148348580Y-120398766D01*
X148365101Y-120395026D01*
X148384904Y-120396537D01*
X148409797Y-120403863D01*
X148441587Y-120417567D01*
X148482083Y-120438212D01*
X148533090Y-120466362D01*
X148596416Y-120502581D01*
X148611144Y-120511089D01*
X148810187Y-120626177D01*
X148850377Y-120603047D01*
X148875189Y-120588708D01*
X148909266Y-120568938D01*
X148947253Y-120546846D01*
X148969885Y-120533658D01*
X149049203Y-120487400D01*
X148974118Y-120443557D01*
X148948507Y-120428675D01*
X148910586Y-120406741D01*
X148862736Y-120379127D01*
X148807337Y-120347204D01*
X148746768Y-120312344D01*
X148683411Y-120275919D01*
X148642627Y-120252493D01*
X148386220Y-120105274D01*
X148354760Y-120120251D01*
X148337585Y-120129145D01*
X148308663Y-120144909D01*
X148270900Y-120165928D01*
X148227202Y-120190581D01*
X148180474Y-120217254D01*
X148179367Y-120217889D01*
X148118218Y-120252960D01*
X148069901Y-120280419D01*
X148032571Y-120301106D01*
X148004385Y-120315859D01*
X147983499Y-120325517D01*
X147968070Y-120330918D01*
X147956254Y-120332901D01*
X147946208Y-120332304D01*
X147936087Y-120329966D01*
X147934135Y-120329430D01*
X147919716Y-120323287D01*
X147892749Y-120309724D01*
X147855308Y-120289863D01*
X147809466Y-120264827D01*
X147757294Y-120235740D01*
X147700865Y-120203724D01*
X147679614Y-120191528D01*
X147608646Y-120150325D01*
X147551641Y-120116417D01*
X147507604Y-120089162D01*
X147475539Y-120067922D01*
X147454451Y-120052055D01*
X147443345Y-120040922D01*
X147441959Y-120038704D01*
X147439445Y-120031411D01*
X147437297Y-120019134D01*
X147435489Y-120000666D01*
X147433995Y-119974800D01*
X147432788Y-119940330D01*
X147431842Y-119896049D01*
X147431131Y-119840750D01*
X147430627Y-119773227D01*
X147430305Y-119692274D01*
X147430138Y-119596683D01*
X147430098Y-119496837D01*
X147430126Y-119389945D01*
D13*
X148486905Y-103342381D02*
X148486905Y-102342381D01*
X148725000Y-102342381D01*
X148867858Y-102390000D01*
X148963096Y-102485238D01*
X149010715Y-102580476D01*
X149058334Y-102770952D01*
X149058334Y-102913810D01*
X149010715Y-103104286D01*
X148963096Y-103199524D01*
X148867858Y-103294762D01*
X148725000Y-103342381D01*
X148486905Y-103342381D01*
X150010715Y-103342381D02*
X149439286Y-103342381D01*
X149725000Y-103342381D02*
X149725000Y-102342381D01*
X149629762Y-102485238D01*
X149534524Y-102580476D01*
X149439286Y-102628095D01*
X148486905Y-100167381D02*
X148486905Y-99167381D01*
X148725000Y-99167381D01*
X148867858Y-99215000D01*
X148963096Y-99310238D01*
X149010715Y-99405476D01*
X149058334Y-99595952D01*
X149058334Y-99738810D01*
X149010715Y-99929286D01*
X148963096Y-100024524D01*
X148867858Y-100119762D01*
X148725000Y-100167381D01*
X148486905Y-100167381D01*
X149439286Y-99262619D02*
X149486905Y-99215000D01*
X149582143Y-99167381D01*
X149820239Y-99167381D01*
X149915477Y-99215000D01*
X149963096Y-99262619D01*
X150010715Y-99357857D01*
X150010715Y-99453095D01*
X149963096Y-99595952D01*
X149391667Y-100167381D01*
X150010715Y-100167381D01*
X164202381Y-111251905D02*
X165011905Y-111251905D01*
X165107143Y-111204286D01*
X165154762Y-111156667D01*
X165202381Y-111061429D01*
X165202381Y-110870952D01*
X165154762Y-110775714D01*
X165107143Y-110728095D01*
X165011905Y-110680476D01*
X164202381Y-110680476D01*
X165202381Y-109680476D02*
X165202381Y-110251905D01*
X165202381Y-109966191D02*
X164202381Y-109966191D01*
X164345238Y-110061429D01*
X164440476Y-110156667D01*
X164488095Y-110251905D01*
X149312381Y-110823333D02*
X150026667Y-110823333D01*
X150169524Y-110870953D01*
X150264762Y-110966191D01*
X150312381Y-111109048D01*
X150312381Y-111204286D01*
X149312381Y-110442381D02*
X149312381Y-109823333D01*
X149693333Y-110156667D01*
X149693333Y-110013809D01*
X149740952Y-109918571D01*
X149788571Y-109870952D01*
X149883810Y-109823333D01*
X150121905Y-109823333D01*
X150217143Y-109870952D01*
X150264762Y-109918571D01*
X150312381Y-110013809D01*
X150312381Y-110299524D01*
X150264762Y-110394762D01*
X150217143Y-110442381D01*
X159686667Y-118832381D02*
X159686667Y-119546667D01*
X159639047Y-119689524D01*
X159543809Y-119784762D01*
X159400952Y-119832381D01*
X159305714Y-119832381D01*
X160591429Y-118832381D02*
X160400952Y-118832381D01*
X160305714Y-118880000D01*
X160258095Y-118927619D01*
X160162857Y-119070476D01*
X160115238Y-119260952D01*
X160115238Y-119641905D01*
X160162857Y-119737143D01*
X160210476Y-119784762D01*
X160305714Y-119832381D01*
X160496191Y-119832381D01*
X160591429Y-119784762D01*
X160639048Y-119737143D01*
X160686667Y-119641905D01*
X160686667Y-119403810D01*
X160639048Y-119308571D01*
X160591429Y-119260952D01*
X160496191Y-119213333D01*
X160305714Y-119213333D01*
X160210476Y-119260952D01*
X160162857Y-119308571D01*
X160115238Y-119403810D01*
X168251190Y-109696191D02*
X168727381Y-109696191D01*
X167727381Y-110029524D02*
X168251190Y-109696191D01*
X167727381Y-109362857D01*
X168727381Y-108505714D02*
X168727381Y-109077143D01*
X168727381Y-108791429D02*
X167727381Y-108791429D01*
X167870238Y-108886667D01*
X167965476Y-108981905D01*
X168013095Y-109077143D01*
X165568334Y-100052143D02*
X165520715Y-100099762D01*
X165377858Y-100147381D01*
X165282620Y-100147381D01*
X165139762Y-100099762D01*
X165044524Y-100004524D01*
X164996905Y-99909286D01*
X164949286Y-99718810D01*
X164949286Y-99575952D01*
X164996905Y-99385476D01*
X165044524Y-99290238D01*
X165139762Y-99195000D01*
X165282620Y-99147381D01*
X165377858Y-99147381D01*
X165520715Y-99195000D01*
X165568334Y-99242619D01*
X166520715Y-100147381D02*
X165949286Y-100147381D01*
X166235000Y-100147381D02*
X166235000Y-99147381D01*
X166139762Y-99290238D01*
X166044524Y-99385476D01*
X165949286Y-99433095D01*
X165568334Y-103227143D02*
X165520715Y-103274762D01*
X165377858Y-103322381D01*
X165282620Y-103322381D01*
X165139762Y-103274762D01*
X165044524Y-103179524D01*
X164996905Y-103084286D01*
X164949286Y-102893810D01*
X164949286Y-102750952D01*
X164996905Y-102560476D01*
X165044524Y-102465238D01*
X165139762Y-102370000D01*
X165282620Y-102322381D01*
X165377858Y-102322381D01*
X165520715Y-102370000D01*
X165568334Y-102417619D01*
X165949286Y-102417619D02*
X165996905Y-102370000D01*
X166092143Y-102322381D01*
X166330239Y-102322381D01*
X166425477Y-102370000D01*
X166473096Y-102417619D01*
X166520715Y-102512857D01*
X166520715Y-102608095D01*
X166473096Y-102750952D01*
X165901667Y-103322381D01*
X166520715Y-103322381D01*
X159853334Y-100147381D02*
X159520000Y-99671190D01*
X159281905Y-100147381D02*
X159281905Y-99147381D01*
X159662858Y-99147381D01*
X159758096Y-99195000D01*
X159805715Y-99242619D01*
X159853334Y-99337857D01*
X159853334Y-99480714D01*
X159805715Y-99575952D01*
X159758096Y-99623571D01*
X159662858Y-99671190D01*
X159281905Y-99671190D01*
X160805715Y-100147381D02*
X160234286Y-100147381D01*
X160520000Y-100147381D02*
X160520000Y-99147381D01*
X160424762Y-99290238D01*
X160329524Y-99385476D01*
X160234286Y-99433095D01*
X159853334Y-103322381D02*
X159520000Y-102846190D01*
X159281905Y-103322381D02*
X159281905Y-102322381D01*
X159662858Y-102322381D01*
X159758096Y-102370000D01*
X159805715Y-102417619D01*
X159853334Y-102512857D01*
X159853334Y-102655714D01*
X159805715Y-102750952D01*
X159758096Y-102798571D01*
X159662858Y-102846190D01*
X159281905Y-102846190D01*
X160234286Y-102417619D02*
X160281905Y-102370000D01*
X160377143Y-102322381D01*
X160615239Y-102322381D01*
X160710477Y-102370000D01*
X160758096Y-102417619D01*
X160805715Y-102512857D01*
X160805715Y-102608095D01*
X160758096Y-102750952D01*
X160186667Y-103322381D01*
X160805715Y-103322381D01*
X154138334Y-103322381D02*
X153805000Y-102846190D01*
X153566905Y-103322381D02*
X153566905Y-102322381D01*
X153947858Y-102322381D01*
X154043096Y-102370000D01*
X154090715Y-102417619D01*
X154138334Y-102512857D01*
X154138334Y-102655714D01*
X154090715Y-102750952D01*
X154043096Y-102798571D01*
X153947858Y-102846190D01*
X153566905Y-102846190D01*
X154471667Y-102322381D02*
X155090715Y-102322381D01*
X154757381Y-102703333D01*
X154900239Y-102703333D01*
X154995477Y-102750952D01*
X155043096Y-102798571D01*
X155090715Y-102893810D01*
X155090715Y-103131905D01*
X155043096Y-103227143D01*
X154995477Y-103274762D01*
X154900239Y-103322381D01*
X154614524Y-103322381D01*
X154519286Y-103274762D01*
X154471667Y-103227143D01*
X154138334Y-100147381D02*
X153805000Y-99671190D01*
X153566905Y-100147381D02*
X153566905Y-99147381D01*
X153947858Y-99147381D01*
X154043096Y-99195000D01*
X154090715Y-99242619D01*
X154138334Y-99337857D01*
X154138334Y-99480714D01*
X154090715Y-99575952D01*
X154043096Y-99623571D01*
X153947858Y-99671190D01*
X153566905Y-99671190D01*
X154995477Y-99480714D02*
X154995477Y-100147381D01*
X154757381Y-99099762D02*
X154519286Y-99814048D01*
X155138334Y-99814048D01*
M02*
