G04 #@! TF.FileFunction,Legend,Bot*
%FSLAX46Y46*%
G04 Gerber Fmt 4.6, Leading zero omitted, Abs format (unit mm)*
G04 Created by KiCad (PCBNEW 4.0.7-e2-6376~58~ubuntu17.04.1) date Mon Oct  2 11:39:13 2017*
%MOMM*%
%LPD*%
G01*
G04 APERTURE LIST*
%ADD10C,0.100000*%
%ADD11C,0.120000*%
%ADD12C,0.010000*%
%ADD13C,0.150000*%
G04 APERTURE END LIST*
D10*
X153582857Y-106737618D02*
X153582857Y-107004285D01*
X154001905Y-107118571D02*
X154001905Y-106737618D01*
X153201905Y-106737618D01*
X153201905Y-107118571D01*
X154001905Y-107385238D02*
X153468571Y-107804285D01*
X153468571Y-107385238D02*
X154001905Y-107804285D01*
X153468571Y-107994761D02*
X153468571Y-108299523D01*
X153201905Y-108109047D02*
X153887619Y-108109047D01*
X153963810Y-108147142D01*
X154001905Y-108223333D01*
X154001905Y-108299523D01*
X153963810Y-108870952D02*
X154001905Y-108794762D01*
X154001905Y-108642381D01*
X153963810Y-108566190D01*
X153887619Y-108528095D01*
X153582857Y-108528095D01*
X153506667Y-108566190D01*
X153468571Y-108642381D01*
X153468571Y-108794762D01*
X153506667Y-108870952D01*
X153582857Y-108909047D01*
X153659048Y-108909047D01*
X153735238Y-108528095D01*
X153468571Y-109251904D02*
X154001905Y-109251904D01*
X153544762Y-109251904D02*
X153506667Y-109289999D01*
X153468571Y-109366190D01*
X153468571Y-109480476D01*
X153506667Y-109556666D01*
X153582857Y-109594761D01*
X154001905Y-109594761D01*
X153963810Y-109937619D02*
X154001905Y-110013809D01*
X154001905Y-110166190D01*
X153963810Y-110242381D01*
X153887619Y-110280476D01*
X153849524Y-110280476D01*
X153773333Y-110242381D01*
X153735238Y-110166190D01*
X153735238Y-110051905D01*
X153697143Y-109975714D01*
X153620952Y-109937619D01*
X153582857Y-109937619D01*
X153506667Y-109975714D01*
X153468571Y-110051905D01*
X153468571Y-110166190D01*
X153506667Y-110242381D01*
X154001905Y-110623333D02*
X153468571Y-110623333D01*
X153201905Y-110623333D02*
X153240000Y-110585238D01*
X153278095Y-110623333D01*
X153240000Y-110661428D01*
X153201905Y-110623333D01*
X153278095Y-110623333D01*
X154001905Y-111118571D02*
X153963810Y-111042380D01*
X153925714Y-111004285D01*
X153849524Y-110966190D01*
X153620952Y-110966190D01*
X153544762Y-111004285D01*
X153506667Y-111042380D01*
X153468571Y-111118571D01*
X153468571Y-111232857D01*
X153506667Y-111309047D01*
X153544762Y-111347142D01*
X153620952Y-111385238D01*
X153849524Y-111385238D01*
X153925714Y-111347142D01*
X153963810Y-111309047D01*
X154001905Y-111232857D01*
X154001905Y-111118571D01*
X153468571Y-111728095D02*
X154001905Y-111728095D01*
X153544762Y-111728095D02*
X153506667Y-111766190D01*
X153468571Y-111842381D01*
X153468571Y-111956667D01*
X153506667Y-112032857D01*
X153582857Y-112070952D01*
X154001905Y-112070952D01*
X153468571Y-113023334D02*
X153468571Y-113594763D01*
X153125714Y-113251905D02*
X154154286Y-113023334D01*
X153811429Y-113518572D02*
X153811429Y-112947143D01*
X154154286Y-113290001D02*
X153125714Y-113518572D01*
X153201905Y-114242382D02*
X153201905Y-113861429D01*
X153582857Y-113823334D01*
X153544762Y-113861429D01*
X153506667Y-113937620D01*
X153506667Y-114128096D01*
X153544762Y-114204286D01*
X153582857Y-114242382D01*
X153659048Y-114280477D01*
X153849524Y-114280477D01*
X153925714Y-114242382D01*
X153963810Y-114204286D01*
X154001905Y-114128096D01*
X154001905Y-113937620D01*
X153963810Y-113861429D01*
X153925714Y-113823334D01*
X155301905Y-107385238D02*
X154501905Y-107385238D01*
X155263810Y-107728095D02*
X155301905Y-107842381D01*
X155301905Y-108032857D01*
X155263810Y-108109047D01*
X155225714Y-108147143D01*
X155149524Y-108185238D01*
X155073333Y-108185238D01*
X154997143Y-108147143D01*
X154959048Y-108109047D01*
X154920952Y-108032857D01*
X154882857Y-107880476D01*
X154844762Y-107804285D01*
X154806667Y-107766190D01*
X154730476Y-107728095D01*
X154654286Y-107728095D01*
X154578095Y-107766190D01*
X154540000Y-107804285D01*
X154501905Y-107880476D01*
X154501905Y-108070952D01*
X154540000Y-108185238D01*
X155301905Y-108528095D02*
X154501905Y-108528095D01*
X154501905Y-108832857D01*
X154540000Y-108909048D01*
X154578095Y-108947143D01*
X154654286Y-108985238D01*
X154768571Y-108985238D01*
X154844762Y-108947143D01*
X154882857Y-108909048D01*
X154920952Y-108832857D01*
X154920952Y-108528095D01*
X155301905Y-109937619D02*
X154501905Y-109937619D01*
X155301905Y-110280476D02*
X154882857Y-110280476D01*
X154806667Y-110242381D01*
X154768571Y-110166191D01*
X154768571Y-110051905D01*
X154806667Y-109975714D01*
X154844762Y-109937619D01*
X155263810Y-110966191D02*
X155301905Y-110890001D01*
X155301905Y-110737620D01*
X155263810Y-110661429D01*
X155187619Y-110623334D01*
X154882857Y-110623334D01*
X154806667Y-110661429D01*
X154768571Y-110737620D01*
X154768571Y-110890001D01*
X154806667Y-110966191D01*
X154882857Y-111004286D01*
X154959048Y-111004286D01*
X155035238Y-110623334D01*
X155301905Y-111690000D02*
X154882857Y-111690000D01*
X154806667Y-111651905D01*
X154768571Y-111575715D01*
X154768571Y-111423334D01*
X154806667Y-111347143D01*
X155263810Y-111690000D02*
X155301905Y-111613810D01*
X155301905Y-111423334D01*
X155263810Y-111347143D01*
X155187619Y-111309048D01*
X155111429Y-111309048D01*
X155035238Y-111347143D01*
X154997143Y-111423334D01*
X154997143Y-111613810D01*
X154959048Y-111690000D01*
X155301905Y-112413810D02*
X154501905Y-112413810D01*
X155263810Y-112413810D02*
X155301905Y-112337620D01*
X155301905Y-112185239D01*
X155263810Y-112109048D01*
X155225714Y-112070953D01*
X155149524Y-112032858D01*
X154920952Y-112032858D01*
X154844762Y-112070953D01*
X154806667Y-112109048D01*
X154768571Y-112185239D01*
X154768571Y-112337620D01*
X154806667Y-112413810D01*
X155263810Y-113099525D02*
X155301905Y-113023335D01*
X155301905Y-112870954D01*
X155263810Y-112794763D01*
X155187619Y-112756668D01*
X154882857Y-112756668D01*
X154806667Y-112794763D01*
X154768571Y-112870954D01*
X154768571Y-113023335D01*
X154806667Y-113099525D01*
X154882857Y-113137620D01*
X154959048Y-113137620D01*
X155035238Y-112756668D01*
X155301905Y-113480477D02*
X154768571Y-113480477D01*
X154920952Y-113480477D02*
X154844762Y-113518572D01*
X154806667Y-113556668D01*
X154768571Y-113632858D01*
X154768571Y-113709049D01*
X155801905Y-107347142D02*
X156449524Y-107347142D01*
X156525714Y-107385237D01*
X156563810Y-107423333D01*
X156601905Y-107499523D01*
X156601905Y-107651904D01*
X156563810Y-107728095D01*
X156525714Y-107766190D01*
X156449524Y-107804285D01*
X155801905Y-107804285D01*
X156563810Y-108147142D02*
X156601905Y-108261428D01*
X156601905Y-108451904D01*
X156563810Y-108528094D01*
X156525714Y-108566190D01*
X156449524Y-108604285D01*
X156373333Y-108604285D01*
X156297143Y-108566190D01*
X156259048Y-108528094D01*
X156220952Y-108451904D01*
X156182857Y-108299523D01*
X156144762Y-108223332D01*
X156106667Y-108185237D01*
X156030476Y-108147142D01*
X155954286Y-108147142D01*
X155878095Y-108185237D01*
X155840000Y-108223332D01*
X155801905Y-108299523D01*
X155801905Y-108489999D01*
X155840000Y-108604285D01*
X156182857Y-109213809D02*
X156220952Y-109328095D01*
X156259048Y-109366190D01*
X156335238Y-109404285D01*
X156449524Y-109404285D01*
X156525714Y-109366190D01*
X156563810Y-109328095D01*
X156601905Y-109251904D01*
X156601905Y-108947142D01*
X155801905Y-108947142D01*
X155801905Y-109213809D01*
X155840000Y-109289999D01*
X155878095Y-109328095D01*
X155954286Y-109366190D01*
X156030476Y-109366190D01*
X156106667Y-109328095D01*
X156144762Y-109289999D01*
X156182857Y-109213809D01*
X156182857Y-108947142D01*
X156068571Y-110242380D02*
X156068571Y-110547142D01*
X155801905Y-110356666D02*
X156487619Y-110356666D01*
X156563810Y-110394761D01*
X156601905Y-110470952D01*
X156601905Y-110547142D01*
X156601905Y-110928095D02*
X156563810Y-110851904D01*
X156525714Y-110813809D01*
X156449524Y-110775714D01*
X156220952Y-110775714D01*
X156144762Y-110813809D01*
X156106667Y-110851904D01*
X156068571Y-110928095D01*
X156068571Y-111042381D01*
X156106667Y-111118571D01*
X156144762Y-111156666D01*
X156220952Y-111194762D01*
X156449524Y-111194762D01*
X156525714Y-111156666D01*
X156563810Y-111118571D01*
X156601905Y-111042381D01*
X156601905Y-110928095D01*
X155801905Y-112032857D02*
X155801905Y-112490000D01*
X156601905Y-112261429D02*
X155801905Y-112261429D01*
X155801905Y-112642381D02*
X155801905Y-113099524D01*
X156601905Y-112870953D02*
X155801905Y-112870953D01*
X156601905Y-113747144D02*
X156601905Y-113366191D01*
X155801905Y-113366191D01*
D11*
X150495000Y-95190000D02*
X168335000Y-95190000D01*
X168335000Y-95190000D02*
X168335000Y-97850000D01*
X168335000Y-97850000D02*
X150495000Y-97850000D01*
X150495000Y-97850000D02*
X150495000Y-95190000D01*
X149225000Y-95190000D02*
X147895000Y-95190000D01*
X147895000Y-95190000D02*
X147895000Y-96520000D01*
X150495000Y-124400000D02*
X168335000Y-124400000D01*
X168335000Y-124400000D02*
X168335000Y-127060000D01*
X168335000Y-127060000D02*
X150495000Y-127060000D01*
X150495000Y-127060000D02*
X150495000Y-124400000D01*
X149225000Y-124400000D02*
X147895000Y-124400000D01*
X147895000Y-124400000D02*
X147895000Y-125730000D01*
X171510000Y-102235000D02*
X171510000Y-122615000D01*
X171510000Y-122615000D02*
X168850000Y-122615000D01*
X168850000Y-122615000D02*
X168850000Y-102235000D01*
X168850000Y-102235000D02*
X171510000Y-102235000D01*
X171510000Y-100965000D02*
X171510000Y-99635000D01*
X171510000Y-99635000D02*
X170180000Y-99635000D01*
D12*
G36*
X155139184Y-100326241D02*
X155152282Y-100352753D01*
X155175106Y-100385447D01*
X155199996Y-100409275D01*
X155231249Y-100425594D01*
X155273166Y-100435760D01*
X155330044Y-100441128D01*
X155406184Y-100443056D01*
X155438917Y-100443169D01*
X155510656Y-100442839D01*
X155561927Y-100441473D01*
X155597404Y-100438500D01*
X155621763Y-100433351D01*
X155639680Y-100425457D01*
X155651902Y-100417243D01*
X155703905Y-100364813D01*
X155735184Y-100303070D01*
X155744592Y-100236464D01*
X155730980Y-100169442D01*
X155721354Y-100148208D01*
X155694859Y-100097376D01*
X156110052Y-100097376D01*
X156090868Y-100134475D01*
X156076025Y-100183357D01*
X156072222Y-100243439D01*
X156079243Y-100303436D01*
X156095013Y-100348744D01*
X156125047Y-100386325D01*
X156168024Y-100418436D01*
X156172436Y-100420850D01*
X156193221Y-100431033D01*
X156214170Y-100438470D01*
X156239548Y-100443589D01*
X156273618Y-100446819D01*
X156320641Y-100448587D01*
X156384882Y-100449323D01*
X156457176Y-100449456D01*
X156687822Y-100449456D01*
X156687822Y-100311139D01*
X156262533Y-100311139D01*
X156229979Y-100272451D01*
X156203940Y-100232262D01*
X156199205Y-100194203D01*
X156211389Y-100155934D01*
X156223320Y-100135538D01*
X156240313Y-100120358D01*
X156265995Y-100109562D01*
X156303991Y-100102317D01*
X156357926Y-100097792D01*
X156431425Y-100095156D01*
X156480347Y-100094228D01*
X156681535Y-100091089D01*
X156685336Y-100025074D01*
X156689136Y-99959060D01*
X155440650Y-99959060D01*
X155440650Y-100097376D01*
X155510254Y-100100903D01*
X155558569Y-100112785D01*
X155588631Y-100134980D01*
X155603471Y-100169441D01*
X155606436Y-100204258D01*
X155603028Y-100243671D01*
X155589617Y-100269829D01*
X155571896Y-100286186D01*
X155552835Y-100299063D01*
X155531601Y-100306728D01*
X155501849Y-100310139D01*
X155457236Y-100310251D01*
X155419880Y-100309103D01*
X155363604Y-100306468D01*
X155326658Y-100302544D01*
X155303223Y-100295937D01*
X155287480Y-100285251D01*
X155278380Y-100275167D01*
X155258537Y-100233030D01*
X155255332Y-100183160D01*
X155262168Y-100154524D01*
X155286464Y-100126172D01*
X155333728Y-100107391D01*
X155403624Y-100098288D01*
X155440650Y-100097376D01*
X155440650Y-99959060D01*
X155128614Y-99959060D01*
X155128614Y-100028218D01*
X155130256Y-100069740D01*
X155136087Y-100091162D01*
X155147461Y-100097374D01*
X155147798Y-100097376D01*
X155158938Y-100100258D01*
X155157673Y-100112970D01*
X155145433Y-100138243D01*
X155126707Y-100197131D01*
X155124739Y-100263385D01*
X155139184Y-100326241D01*
X155139184Y-100326241D01*
G37*
X155139184Y-100326241D02*
X155152282Y-100352753D01*
X155175106Y-100385447D01*
X155199996Y-100409275D01*
X155231249Y-100425594D01*
X155273166Y-100435760D01*
X155330044Y-100441128D01*
X155406184Y-100443056D01*
X155438917Y-100443169D01*
X155510656Y-100442839D01*
X155561927Y-100441473D01*
X155597404Y-100438500D01*
X155621763Y-100433351D01*
X155639680Y-100425457D01*
X155651902Y-100417243D01*
X155703905Y-100364813D01*
X155735184Y-100303070D01*
X155744592Y-100236464D01*
X155730980Y-100169442D01*
X155721354Y-100148208D01*
X155694859Y-100097376D01*
X156110052Y-100097376D01*
X156090868Y-100134475D01*
X156076025Y-100183357D01*
X156072222Y-100243439D01*
X156079243Y-100303436D01*
X156095013Y-100348744D01*
X156125047Y-100386325D01*
X156168024Y-100418436D01*
X156172436Y-100420850D01*
X156193221Y-100431033D01*
X156214170Y-100438470D01*
X156239548Y-100443589D01*
X156273618Y-100446819D01*
X156320641Y-100448587D01*
X156384882Y-100449323D01*
X156457176Y-100449456D01*
X156687822Y-100449456D01*
X156687822Y-100311139D01*
X156262533Y-100311139D01*
X156229979Y-100272451D01*
X156203940Y-100232262D01*
X156199205Y-100194203D01*
X156211389Y-100155934D01*
X156223320Y-100135538D01*
X156240313Y-100120358D01*
X156265995Y-100109562D01*
X156303991Y-100102317D01*
X156357926Y-100097792D01*
X156431425Y-100095156D01*
X156480347Y-100094228D01*
X156681535Y-100091089D01*
X156685336Y-100025074D01*
X156689136Y-99959060D01*
X155440650Y-99959060D01*
X155440650Y-100097376D01*
X155510254Y-100100903D01*
X155558569Y-100112785D01*
X155588631Y-100134980D01*
X155603471Y-100169441D01*
X155606436Y-100204258D01*
X155603028Y-100243671D01*
X155589617Y-100269829D01*
X155571896Y-100286186D01*
X155552835Y-100299063D01*
X155531601Y-100306728D01*
X155501849Y-100310139D01*
X155457236Y-100310251D01*
X155419880Y-100309103D01*
X155363604Y-100306468D01*
X155326658Y-100302544D01*
X155303223Y-100295937D01*
X155287480Y-100285251D01*
X155278380Y-100275167D01*
X155258537Y-100233030D01*
X155255332Y-100183160D01*
X155262168Y-100154524D01*
X155286464Y-100126172D01*
X155333728Y-100107391D01*
X155403624Y-100098288D01*
X155440650Y-100097376D01*
X155440650Y-99959060D01*
X155128614Y-99959060D01*
X155128614Y-100028218D01*
X155130256Y-100069740D01*
X155136087Y-100091162D01*
X155147461Y-100097374D01*
X155147798Y-100097376D01*
X155158938Y-100100258D01*
X155157673Y-100112970D01*
X155145433Y-100138243D01*
X155126707Y-100197131D01*
X155124739Y-100263385D01*
X155139184Y-100326241D01*
G36*
X156076555Y-100850790D02*
X156092339Y-100909945D01*
X156120948Y-100954977D01*
X156158419Y-100986754D01*
X156174411Y-100996634D01*
X156191163Y-101003927D01*
X156212592Y-101009026D01*
X156242616Y-101012321D01*
X156285154Y-101014203D01*
X156344122Y-101015063D01*
X156423440Y-101015293D01*
X156444484Y-101015297D01*
X156687822Y-101015297D01*
X156687822Y-100954941D01*
X156685126Y-100916443D01*
X156678295Y-100887977D01*
X156674083Y-100880845D01*
X156666813Y-100861348D01*
X156674083Y-100841434D01*
X156683160Y-100808647D01*
X156686813Y-100761022D01*
X156685228Y-100708236D01*
X156678589Y-100659964D01*
X156670072Y-100631782D01*
X156635063Y-100577247D01*
X156586479Y-100543165D01*
X156521882Y-100527843D01*
X156520223Y-100527701D01*
X156491566Y-100529045D01*
X156491566Y-100650644D01*
X156524161Y-100661274D01*
X156542505Y-100678590D01*
X156556379Y-100713348D01*
X156561917Y-100759227D01*
X156559191Y-100806012D01*
X156548274Y-100843486D01*
X156541269Y-100853985D01*
X156508904Y-100872332D01*
X156472111Y-100876980D01*
X156423763Y-100876980D01*
X156423763Y-100807418D01*
X156428850Y-100741333D01*
X156443263Y-100691236D01*
X156465729Y-100660071D01*
X156491566Y-100650644D01*
X156491566Y-100529045D01*
X156449647Y-100531013D01*
X156393845Y-100554290D01*
X156351647Y-100598052D01*
X156347808Y-100604101D01*
X156335309Y-100630093D01*
X156327740Y-100662265D01*
X156324061Y-100707240D01*
X156323216Y-100760669D01*
X156323169Y-100876980D01*
X156274411Y-100876980D01*
X156236581Y-100872047D01*
X156211236Y-100859457D01*
X156209887Y-100857983D01*
X156198800Y-100829966D01*
X156194503Y-100787674D01*
X156196615Y-100740936D01*
X156204756Y-100699582D01*
X156216965Y-100675043D01*
X156226746Y-100661747D01*
X156228613Y-100647706D01*
X156220600Y-100628329D01*
X156200739Y-100599024D01*
X156167063Y-100555197D01*
X156163909Y-100551175D01*
X156152236Y-100553236D01*
X156132822Y-100570432D01*
X156111248Y-100596567D01*
X156093096Y-100625448D01*
X156088809Y-100634522D01*
X156080256Y-100667620D01*
X156074155Y-100716120D01*
X156071708Y-100770305D01*
X156071703Y-100772839D01*
X156076555Y-100850790D01*
X156076555Y-100850790D01*
G37*
X156076555Y-100850790D02*
X156092339Y-100909945D01*
X156120948Y-100954977D01*
X156158419Y-100986754D01*
X156174411Y-100996634D01*
X156191163Y-101003927D01*
X156212592Y-101009026D01*
X156242616Y-101012321D01*
X156285154Y-101014203D01*
X156344122Y-101015063D01*
X156423440Y-101015293D01*
X156444484Y-101015297D01*
X156687822Y-101015297D01*
X156687822Y-100954941D01*
X156685126Y-100916443D01*
X156678295Y-100887977D01*
X156674083Y-100880845D01*
X156666813Y-100861348D01*
X156674083Y-100841434D01*
X156683160Y-100808647D01*
X156686813Y-100761022D01*
X156685228Y-100708236D01*
X156678589Y-100659964D01*
X156670072Y-100631782D01*
X156635063Y-100577247D01*
X156586479Y-100543165D01*
X156521882Y-100527843D01*
X156520223Y-100527701D01*
X156491566Y-100529045D01*
X156491566Y-100650644D01*
X156524161Y-100661274D01*
X156542505Y-100678590D01*
X156556379Y-100713348D01*
X156561917Y-100759227D01*
X156559191Y-100806012D01*
X156548274Y-100843486D01*
X156541269Y-100853985D01*
X156508904Y-100872332D01*
X156472111Y-100876980D01*
X156423763Y-100876980D01*
X156423763Y-100807418D01*
X156428850Y-100741333D01*
X156443263Y-100691236D01*
X156465729Y-100660071D01*
X156491566Y-100650644D01*
X156491566Y-100529045D01*
X156449647Y-100531013D01*
X156393845Y-100554290D01*
X156351647Y-100598052D01*
X156347808Y-100604101D01*
X156335309Y-100630093D01*
X156327740Y-100662265D01*
X156324061Y-100707240D01*
X156323216Y-100760669D01*
X156323169Y-100876980D01*
X156274411Y-100876980D01*
X156236581Y-100872047D01*
X156211236Y-100859457D01*
X156209887Y-100857983D01*
X156198800Y-100829966D01*
X156194503Y-100787674D01*
X156196615Y-100740936D01*
X156204756Y-100699582D01*
X156216965Y-100675043D01*
X156226746Y-100661747D01*
X156228613Y-100647706D01*
X156220600Y-100628329D01*
X156200739Y-100599024D01*
X156167063Y-100555197D01*
X156163909Y-100551175D01*
X156152236Y-100553236D01*
X156132822Y-100570432D01*
X156111248Y-100596567D01*
X156093096Y-100625448D01*
X156088809Y-100634522D01*
X156080256Y-100667620D01*
X156074155Y-100716120D01*
X156071708Y-100770305D01*
X156071703Y-100772839D01*
X156076555Y-100850790D01*
G36*
X156073020Y-101241644D02*
X156078660Y-101260461D01*
X156091053Y-101266527D01*
X156096647Y-101266782D01*
X156112230Y-101267871D01*
X156114676Y-101275368D01*
X156103993Y-101295619D01*
X156096694Y-101307649D01*
X156081063Y-101345600D01*
X156073334Y-101390928D01*
X156072740Y-101438456D01*
X156078513Y-101483005D01*
X156089884Y-101519398D01*
X156106088Y-101542457D01*
X156126355Y-101547004D01*
X156131843Y-101544709D01*
X156154626Y-101527980D01*
X156182647Y-101502037D01*
X156187177Y-101497345D01*
X156208005Y-101472617D01*
X156214735Y-101451282D01*
X156210038Y-101421445D01*
X156206917Y-101409492D01*
X156199421Y-101372295D01*
X156202792Y-101346141D01*
X156214681Y-101324054D01*
X156230635Y-101303822D01*
X156250700Y-101288921D01*
X156278702Y-101278566D01*
X156318467Y-101271971D01*
X156373823Y-101268351D01*
X156448594Y-101266922D01*
X156493740Y-101266782D01*
X156687822Y-101266782D01*
X156687822Y-101141040D01*
X156071683Y-101141040D01*
X156071683Y-101203911D01*
X156073020Y-101241644D01*
X156073020Y-101241644D01*
G37*
X156073020Y-101241644D02*
X156078660Y-101260461D01*
X156091053Y-101266527D01*
X156096647Y-101266782D01*
X156112230Y-101267871D01*
X156114676Y-101275368D01*
X156103993Y-101295619D01*
X156096694Y-101307649D01*
X156081063Y-101345600D01*
X156073334Y-101390928D01*
X156072740Y-101438456D01*
X156078513Y-101483005D01*
X156089884Y-101519398D01*
X156106088Y-101542457D01*
X156126355Y-101547004D01*
X156131843Y-101544709D01*
X156154626Y-101527980D01*
X156182647Y-101502037D01*
X156187177Y-101497345D01*
X156208005Y-101472617D01*
X156214735Y-101451282D01*
X156210038Y-101421445D01*
X156206917Y-101409492D01*
X156199421Y-101372295D01*
X156202792Y-101346141D01*
X156214681Y-101324054D01*
X156230635Y-101303822D01*
X156250700Y-101288921D01*
X156278702Y-101278566D01*
X156318467Y-101271971D01*
X156373823Y-101268351D01*
X156448594Y-101266922D01*
X156493740Y-101266782D01*
X156687822Y-101266782D01*
X156687822Y-101141040D01*
X156071683Y-101141040D01*
X156071683Y-101203911D01*
X156073020Y-101241644D01*
G36*
X156687822Y-102033812D02*
X156687822Y-101964654D01*
X156686645Y-101924512D01*
X156681772Y-101903606D01*
X156671186Y-101896078D01*
X156664029Y-101895495D01*
X156649676Y-101894226D01*
X156646923Y-101886221D01*
X156655771Y-101865185D01*
X156664029Y-101848827D01*
X156683597Y-101786023D01*
X156684729Y-101717752D01*
X156670135Y-101662248D01*
X156634877Y-101610562D01*
X156582835Y-101571162D01*
X156521450Y-101549587D01*
X156518018Y-101549038D01*
X156480571Y-101545833D01*
X156426813Y-101544239D01*
X156386155Y-101544367D01*
X156386155Y-101681721D01*
X156440194Y-101684903D01*
X156484735Y-101692141D01*
X156509888Y-101701940D01*
X156544260Y-101739011D01*
X156556582Y-101783026D01*
X156546618Y-101828416D01*
X156516895Y-101867203D01*
X156496905Y-101881892D01*
X156473050Y-101890481D01*
X156438230Y-101894504D01*
X156385930Y-101895495D01*
X156334139Y-101893722D01*
X156288634Y-101889037D01*
X156258181Y-101882397D01*
X156255452Y-101881290D01*
X156223000Y-101854509D01*
X156205183Y-101815421D01*
X156202306Y-101771685D01*
X156214674Y-101730962D01*
X156242593Y-101700913D01*
X156248148Y-101697796D01*
X156282022Y-101688039D01*
X156330728Y-101682723D01*
X156386155Y-101681721D01*
X156386155Y-101544367D01*
X156365540Y-101544432D01*
X156332563Y-101545336D01*
X156250981Y-101551486D01*
X156189730Y-101564267D01*
X156144449Y-101585529D01*
X156110779Y-101617122D01*
X156091014Y-101647793D01*
X156077120Y-101690646D01*
X156072354Y-101743944D01*
X156076236Y-101798520D01*
X156088282Y-101845208D01*
X156102693Y-101869876D01*
X156125878Y-101895495D01*
X155832773Y-101895495D01*
X155832773Y-102033812D01*
X156687822Y-102033812D01*
X156687822Y-102033812D01*
G37*
X156687822Y-102033812D02*
X156687822Y-101964654D01*
X156686645Y-101924512D01*
X156681772Y-101903606D01*
X156671186Y-101896078D01*
X156664029Y-101895495D01*
X156649676Y-101894226D01*
X156646923Y-101886221D01*
X156655771Y-101865185D01*
X156664029Y-101848827D01*
X156683597Y-101786023D01*
X156684729Y-101717752D01*
X156670135Y-101662248D01*
X156634877Y-101610562D01*
X156582835Y-101571162D01*
X156521450Y-101549587D01*
X156518018Y-101549038D01*
X156480571Y-101545833D01*
X156426813Y-101544239D01*
X156386155Y-101544367D01*
X156386155Y-101681721D01*
X156440194Y-101684903D01*
X156484735Y-101692141D01*
X156509888Y-101701940D01*
X156544260Y-101739011D01*
X156556582Y-101783026D01*
X156546618Y-101828416D01*
X156516895Y-101867203D01*
X156496905Y-101881892D01*
X156473050Y-101890481D01*
X156438230Y-101894504D01*
X156385930Y-101895495D01*
X156334139Y-101893722D01*
X156288634Y-101889037D01*
X156258181Y-101882397D01*
X156255452Y-101881290D01*
X156223000Y-101854509D01*
X156205183Y-101815421D01*
X156202306Y-101771685D01*
X156214674Y-101730962D01*
X156242593Y-101700913D01*
X156248148Y-101697796D01*
X156282022Y-101688039D01*
X156330728Y-101682723D01*
X156386155Y-101681721D01*
X156386155Y-101544367D01*
X156365540Y-101544432D01*
X156332563Y-101545336D01*
X156250981Y-101551486D01*
X156189730Y-101564267D01*
X156144449Y-101585529D01*
X156110779Y-101617122D01*
X156091014Y-101647793D01*
X156077120Y-101690646D01*
X156072354Y-101743944D01*
X156076236Y-101798520D01*
X156088282Y-101845208D01*
X156102693Y-101869876D01*
X156125878Y-101895495D01*
X155832773Y-101895495D01*
X155832773Y-102033812D01*
X156687822Y-102033812D01*
G36*
X156074237Y-102516524D02*
X156077971Y-102566255D01*
X156467773Y-102696291D01*
X156398614Y-102716678D01*
X156355874Y-102728946D01*
X156298115Y-102745085D01*
X156234625Y-102762512D01*
X156200570Y-102771726D01*
X156071683Y-102806388D01*
X156071683Y-102949391D01*
X156206857Y-102906646D01*
X156273342Y-102885596D01*
X156353539Y-102860167D01*
X156437193Y-102833610D01*
X156511782Y-102809902D01*
X156681535Y-102755902D01*
X156685328Y-102697598D01*
X156689122Y-102639295D01*
X156584734Y-102607679D01*
X156519889Y-102588182D01*
X156448400Y-102566904D01*
X156385263Y-102548308D01*
X156382750Y-102547574D01*
X156339969Y-102533684D01*
X156310779Y-102521429D01*
X156299741Y-102512846D01*
X156301018Y-102511082D01*
X156318130Y-102504891D01*
X156354787Y-102493128D01*
X156406378Y-102477225D01*
X156468294Y-102458614D01*
X156502352Y-102448543D01*
X156687822Y-102394007D01*
X156687822Y-102278264D01*
X156395471Y-102185737D01*
X156313462Y-102159744D01*
X156238987Y-102136066D01*
X156175544Y-102115820D01*
X156126632Y-102100126D01*
X156095749Y-102090102D01*
X156086726Y-102087055D01*
X156077487Y-102089467D01*
X156073441Y-102108408D01*
X156073846Y-102147823D01*
X156074152Y-102153993D01*
X156077971Y-102227086D01*
X156254010Y-102274957D01*
X156318211Y-102292553D01*
X156374649Y-102308277D01*
X156418422Y-102320746D01*
X156444630Y-102328574D01*
X156448903Y-102330020D01*
X156443990Y-102336014D01*
X156418532Y-102348101D01*
X156375997Y-102364893D01*
X156319850Y-102385003D01*
X156269130Y-102402003D01*
X156070504Y-102466794D01*
X156074237Y-102516524D01*
X156074237Y-102516524D01*
G37*
X156074237Y-102516524D02*
X156077971Y-102566255D01*
X156467773Y-102696291D01*
X156398614Y-102716678D01*
X156355874Y-102728946D01*
X156298115Y-102745085D01*
X156234625Y-102762512D01*
X156200570Y-102771726D01*
X156071683Y-102806388D01*
X156071683Y-102949391D01*
X156206857Y-102906646D01*
X156273342Y-102885596D01*
X156353539Y-102860167D01*
X156437193Y-102833610D01*
X156511782Y-102809902D01*
X156681535Y-102755902D01*
X156685328Y-102697598D01*
X156689122Y-102639295D01*
X156584734Y-102607679D01*
X156519889Y-102588182D01*
X156448400Y-102566904D01*
X156385263Y-102548308D01*
X156382750Y-102547574D01*
X156339969Y-102533684D01*
X156310779Y-102521429D01*
X156299741Y-102512846D01*
X156301018Y-102511082D01*
X156318130Y-102504891D01*
X156354787Y-102493128D01*
X156406378Y-102477225D01*
X156468294Y-102458614D01*
X156502352Y-102448543D01*
X156687822Y-102394007D01*
X156687822Y-102278264D01*
X156395471Y-102185737D01*
X156313462Y-102159744D01*
X156238987Y-102136066D01*
X156175544Y-102115820D01*
X156126632Y-102100126D01*
X156095749Y-102090102D01*
X156086726Y-102087055D01*
X156077487Y-102089467D01*
X156073441Y-102108408D01*
X156073846Y-102147823D01*
X156074152Y-102153993D01*
X156077971Y-102227086D01*
X156254010Y-102274957D01*
X156318211Y-102292553D01*
X156374649Y-102308277D01*
X156418422Y-102320746D01*
X156444630Y-102328574D01*
X156448903Y-102330020D01*
X156443990Y-102336014D01*
X156418532Y-102348101D01*
X156375997Y-102364893D01*
X156319850Y-102385003D01*
X156269130Y-102402003D01*
X156070504Y-102466794D01*
X156074237Y-102516524D01*
G36*
X156075417Y-103273411D02*
X156088290Y-103326411D01*
X156095110Y-103341731D01*
X156112974Y-103371428D01*
X156133093Y-103394220D01*
X156158962Y-103411083D01*
X156194073Y-103422998D01*
X156241920Y-103430942D01*
X156305996Y-103435894D01*
X156389794Y-103438831D01*
X156445768Y-103439947D01*
X156687822Y-103444052D01*
X156687822Y-103373932D01*
X156686038Y-103331393D01*
X156679942Y-103309476D01*
X156669706Y-103303812D01*
X156658637Y-103300821D01*
X156660754Y-103287451D01*
X156669629Y-103269233D01*
X156683233Y-103223624D01*
X156686899Y-103165007D01*
X156680903Y-103103354D01*
X156665521Y-103048638D01*
X156663386Y-103043730D01*
X156628255Y-102993723D01*
X156579419Y-102960756D01*
X156522333Y-102945587D01*
X156501824Y-102946746D01*
X156501824Y-103070508D01*
X156529425Y-103081413D01*
X156549204Y-103113745D01*
X156559819Y-103165910D01*
X156561228Y-103193787D01*
X156557620Y-103240247D01*
X156543597Y-103271129D01*
X156536931Y-103278664D01*
X156500666Y-103299076D01*
X156467773Y-103303812D01*
X156423763Y-103303812D01*
X156423763Y-103242513D01*
X156427395Y-103171256D01*
X156438818Y-103121276D01*
X156458824Y-103089696D01*
X156467743Y-103082626D01*
X156501824Y-103070508D01*
X156501824Y-102946746D01*
X156462456Y-102948971D01*
X156405244Y-102971663D01*
X156366580Y-103002624D01*
X156349864Y-103021376D01*
X156338878Y-103039733D01*
X156332180Y-103063619D01*
X156328326Y-103098957D01*
X156325873Y-103151669D01*
X156325168Y-103172577D01*
X156320879Y-103303812D01*
X156281158Y-103303620D01*
X156239405Y-103298537D01*
X156214158Y-103280162D01*
X156198030Y-103243039D01*
X156197742Y-103242043D01*
X156191400Y-103189410D01*
X156199684Y-103137906D01*
X156219827Y-103099630D01*
X156229773Y-103084272D01*
X156228397Y-103067730D01*
X156213987Y-103042275D01*
X156203817Y-103027328D01*
X156182088Y-102998091D01*
X156165800Y-102979980D01*
X156161137Y-102977074D01*
X156137005Y-102989040D01*
X156108185Y-103024396D01*
X156098461Y-103039753D01*
X156081714Y-103083901D01*
X156072227Y-103143398D01*
X156070095Y-103209487D01*
X156075417Y-103273411D01*
X156075417Y-103273411D01*
G37*
X156075417Y-103273411D02*
X156088290Y-103326411D01*
X156095110Y-103341731D01*
X156112974Y-103371428D01*
X156133093Y-103394220D01*
X156158962Y-103411083D01*
X156194073Y-103422998D01*
X156241920Y-103430942D01*
X156305996Y-103435894D01*
X156389794Y-103438831D01*
X156445768Y-103439947D01*
X156687822Y-103444052D01*
X156687822Y-103373932D01*
X156686038Y-103331393D01*
X156679942Y-103309476D01*
X156669706Y-103303812D01*
X156658637Y-103300821D01*
X156660754Y-103287451D01*
X156669629Y-103269233D01*
X156683233Y-103223624D01*
X156686899Y-103165007D01*
X156680903Y-103103354D01*
X156665521Y-103048638D01*
X156663386Y-103043730D01*
X156628255Y-102993723D01*
X156579419Y-102960756D01*
X156522333Y-102945587D01*
X156501824Y-102946746D01*
X156501824Y-103070508D01*
X156529425Y-103081413D01*
X156549204Y-103113745D01*
X156559819Y-103165910D01*
X156561228Y-103193787D01*
X156557620Y-103240247D01*
X156543597Y-103271129D01*
X156536931Y-103278664D01*
X156500666Y-103299076D01*
X156467773Y-103303812D01*
X156423763Y-103303812D01*
X156423763Y-103242513D01*
X156427395Y-103171256D01*
X156438818Y-103121276D01*
X156458824Y-103089696D01*
X156467743Y-103082626D01*
X156501824Y-103070508D01*
X156501824Y-102946746D01*
X156462456Y-102948971D01*
X156405244Y-102971663D01*
X156366580Y-103002624D01*
X156349864Y-103021376D01*
X156338878Y-103039733D01*
X156332180Y-103063619D01*
X156328326Y-103098957D01*
X156325873Y-103151669D01*
X156325168Y-103172577D01*
X156320879Y-103303812D01*
X156281158Y-103303620D01*
X156239405Y-103298537D01*
X156214158Y-103280162D01*
X156198030Y-103243039D01*
X156197742Y-103242043D01*
X156191400Y-103189410D01*
X156199684Y-103137906D01*
X156219827Y-103099630D01*
X156229773Y-103084272D01*
X156228397Y-103067730D01*
X156213987Y-103042275D01*
X156203817Y-103027328D01*
X156182088Y-102998091D01*
X156165800Y-102979980D01*
X156161137Y-102977074D01*
X156137005Y-102989040D01*
X156108185Y-103024396D01*
X156098461Y-103039753D01*
X156081714Y-103083901D01*
X156072227Y-103143398D01*
X156070095Y-103209487D01*
X156075417Y-103273411D01*
G36*
X156071486Y-103870255D02*
X156081015Y-103918595D01*
X156095125Y-103946114D01*
X156118568Y-103975064D01*
X156170571Y-103933876D01*
X156202064Y-103908482D01*
X156217428Y-103891238D01*
X156219776Y-103874102D01*
X156212217Y-103849027D01*
X156207941Y-103837257D01*
X156201631Y-103789270D01*
X156215156Y-103745324D01*
X156245710Y-103713060D01*
X156255452Y-103707819D01*
X156281258Y-103702112D01*
X156328817Y-103697706D01*
X156394758Y-103694811D01*
X156475710Y-103693631D01*
X156487226Y-103693614D01*
X156687822Y-103693614D01*
X156687822Y-103555297D01*
X156071683Y-103555297D01*
X156071683Y-103624456D01*
X156072725Y-103664333D01*
X156077358Y-103685107D01*
X156087849Y-103692789D01*
X156097745Y-103693614D01*
X156123806Y-103693614D01*
X156097745Y-103726745D01*
X156079965Y-103764735D01*
X156071174Y-103815770D01*
X156071486Y-103870255D01*
X156071486Y-103870255D01*
G37*
X156071486Y-103870255D02*
X156081015Y-103918595D01*
X156095125Y-103946114D01*
X156118568Y-103975064D01*
X156170571Y-103933876D01*
X156202064Y-103908482D01*
X156217428Y-103891238D01*
X156219776Y-103874102D01*
X156212217Y-103849027D01*
X156207941Y-103837257D01*
X156201631Y-103789270D01*
X156215156Y-103745324D01*
X156245710Y-103713060D01*
X156255452Y-103707819D01*
X156281258Y-103702112D01*
X156328817Y-103697706D01*
X156394758Y-103694811D01*
X156475710Y-103693631D01*
X156487226Y-103693614D01*
X156687822Y-103693614D01*
X156687822Y-103555297D01*
X156071683Y-103555297D01*
X156071683Y-103624456D01*
X156072725Y-103664333D01*
X156077358Y-103685107D01*
X156087849Y-103692789D01*
X156097745Y-103693614D01*
X156123806Y-103693614D01*
X156097745Y-103726745D01*
X156079965Y-103764735D01*
X156071174Y-103815770D01*
X156071486Y-103870255D01*
G36*
X156074970Y-104267581D02*
X156090597Y-104327685D01*
X156122848Y-104378021D01*
X156146940Y-104402393D01*
X156203895Y-104442345D01*
X156269965Y-104465242D01*
X156351182Y-104473108D01*
X156357748Y-104473148D01*
X156423763Y-104473218D01*
X156423763Y-104093264D01*
X156458342Y-104101363D01*
X156489659Y-104115987D01*
X156522291Y-104141581D01*
X156527500Y-104146935D01*
X156555694Y-104192943D01*
X156560475Y-104245410D01*
X156541926Y-104305803D01*
X156536931Y-104316040D01*
X156521745Y-104347439D01*
X156513094Y-104368470D01*
X156512293Y-104372139D01*
X156520063Y-104384948D01*
X156539072Y-104409378D01*
X156549460Y-104421779D01*
X156573321Y-104447476D01*
X156589077Y-104455915D01*
X156603571Y-104450058D01*
X156607534Y-104446928D01*
X156624879Y-104425725D01*
X156645959Y-104390738D01*
X156658265Y-104366337D01*
X156679946Y-104297072D01*
X156686971Y-104220388D01*
X156678647Y-104147765D01*
X156672686Y-104127426D01*
X156638952Y-104064476D01*
X156587045Y-104017815D01*
X156516459Y-103987173D01*
X156426692Y-103972282D01*
X156379753Y-103970647D01*
X156311413Y-103975421D01*
X156311413Y-104095990D01*
X156316465Y-104107652D01*
X156320429Y-104138998D01*
X156322768Y-104184571D01*
X156323169Y-104215446D01*
X156322783Y-104270981D01*
X156320975Y-104306033D01*
X156316773Y-104325262D01*
X156309203Y-104333330D01*
X156298218Y-104334901D01*
X156264381Y-104324121D01*
X156230940Y-104296980D01*
X156205272Y-104261277D01*
X156194772Y-104225560D01*
X156204086Y-104177048D01*
X156231013Y-104135053D01*
X156269827Y-104105936D01*
X156311413Y-104095990D01*
X156311413Y-103975421D01*
X156280236Y-103977599D01*
X156200949Y-103999055D01*
X156141263Y-104035470D01*
X156100549Y-104087297D01*
X156078179Y-104154990D01*
X156073871Y-104191662D01*
X156074970Y-104267581D01*
X156074970Y-104267581D01*
G37*
X156074970Y-104267581D02*
X156090597Y-104327685D01*
X156122848Y-104378021D01*
X156146940Y-104402393D01*
X156203895Y-104442345D01*
X156269965Y-104465242D01*
X156351182Y-104473108D01*
X156357748Y-104473148D01*
X156423763Y-104473218D01*
X156423763Y-104093264D01*
X156458342Y-104101363D01*
X156489659Y-104115987D01*
X156522291Y-104141581D01*
X156527500Y-104146935D01*
X156555694Y-104192943D01*
X156560475Y-104245410D01*
X156541926Y-104305803D01*
X156536931Y-104316040D01*
X156521745Y-104347439D01*
X156513094Y-104368470D01*
X156512293Y-104372139D01*
X156520063Y-104384948D01*
X156539072Y-104409378D01*
X156549460Y-104421779D01*
X156573321Y-104447476D01*
X156589077Y-104455915D01*
X156603571Y-104450058D01*
X156607534Y-104446928D01*
X156624879Y-104425725D01*
X156645959Y-104390738D01*
X156658265Y-104366337D01*
X156679946Y-104297072D01*
X156686971Y-104220388D01*
X156678647Y-104147765D01*
X156672686Y-104127426D01*
X156638952Y-104064476D01*
X156587045Y-104017815D01*
X156516459Y-103987173D01*
X156426692Y-103972282D01*
X156379753Y-103970647D01*
X156311413Y-103975421D01*
X156311413Y-104095990D01*
X156316465Y-104107652D01*
X156320429Y-104138998D01*
X156322768Y-104184571D01*
X156323169Y-104215446D01*
X156322783Y-104270981D01*
X156320975Y-104306033D01*
X156316773Y-104325262D01*
X156309203Y-104333330D01*
X156298218Y-104334901D01*
X156264381Y-104324121D01*
X156230940Y-104296980D01*
X156205272Y-104261277D01*
X156194772Y-104225560D01*
X156204086Y-104177048D01*
X156231013Y-104135053D01*
X156269827Y-104105936D01*
X156311413Y-104095990D01*
X156311413Y-103975421D01*
X156280236Y-103977599D01*
X156200949Y-103999055D01*
X156141263Y-104035470D01*
X156100549Y-104087297D01*
X156078179Y-104154990D01*
X156073871Y-104191662D01*
X156074970Y-104267581D01*
G36*
X155135148Y-99696739D02*
X155164231Y-99762521D01*
X155212793Y-99812460D01*
X155280908Y-99846626D01*
X155368651Y-99865093D01*
X155382351Y-99866417D01*
X155478939Y-99867454D01*
X155563602Y-99854007D01*
X155632221Y-99826892D01*
X155654294Y-99812373D01*
X155701011Y-99761799D01*
X155731268Y-99697391D01*
X155743824Y-99625334D01*
X155737439Y-99551815D01*
X155717772Y-99495928D01*
X155684629Y-99447868D01*
X155641175Y-99408588D01*
X155640158Y-99407908D01*
X155613338Y-99391956D01*
X155586368Y-99381590D01*
X155552332Y-99375312D01*
X155504310Y-99371627D01*
X155464931Y-99370003D01*
X155429219Y-99369328D01*
X155429219Y-99495045D01*
X155464770Y-99496274D01*
X155512094Y-99500734D01*
X155542465Y-99508603D01*
X155564072Y-99522793D01*
X155576694Y-99536083D01*
X155603122Y-99583198D01*
X155606653Y-99632495D01*
X155587639Y-99678407D01*
X155566331Y-99701362D01*
X155544859Y-99717904D01*
X155524313Y-99727579D01*
X155497574Y-99731826D01*
X155457523Y-99732080D01*
X155420638Y-99730772D01*
X155367947Y-99727957D01*
X155333772Y-99723495D01*
X155311480Y-99715452D01*
X155294442Y-99701897D01*
X155284703Y-99691155D01*
X155259123Y-99646223D01*
X155257847Y-99597751D01*
X155272999Y-99557106D01*
X155304642Y-99522433D01*
X155356620Y-99501776D01*
X155429219Y-99495045D01*
X155429219Y-99369328D01*
X155386621Y-99368521D01*
X155328056Y-99371052D01*
X155284007Y-99378638D01*
X155249248Y-99392319D01*
X155218551Y-99413135D01*
X155209436Y-99420853D01*
X155164021Y-99469111D01*
X155137493Y-99520872D01*
X155126379Y-99584172D01*
X155125471Y-99615039D01*
X155135148Y-99696739D01*
X155135148Y-99696739D01*
G37*
X155135148Y-99696739D02*
X155164231Y-99762521D01*
X155212793Y-99812460D01*
X155280908Y-99846626D01*
X155368651Y-99865093D01*
X155382351Y-99866417D01*
X155478939Y-99867454D01*
X155563602Y-99854007D01*
X155632221Y-99826892D01*
X155654294Y-99812373D01*
X155701011Y-99761799D01*
X155731268Y-99697391D01*
X155743824Y-99625334D01*
X155737439Y-99551815D01*
X155717772Y-99495928D01*
X155684629Y-99447868D01*
X155641175Y-99408588D01*
X155640158Y-99407908D01*
X155613338Y-99391956D01*
X155586368Y-99381590D01*
X155552332Y-99375312D01*
X155504310Y-99371627D01*
X155464931Y-99370003D01*
X155429219Y-99369328D01*
X155429219Y-99495045D01*
X155464770Y-99496274D01*
X155512094Y-99500734D01*
X155542465Y-99508603D01*
X155564072Y-99522793D01*
X155576694Y-99536083D01*
X155603122Y-99583198D01*
X155606653Y-99632495D01*
X155587639Y-99678407D01*
X155566331Y-99701362D01*
X155544859Y-99717904D01*
X155524313Y-99727579D01*
X155497574Y-99731826D01*
X155457523Y-99732080D01*
X155420638Y-99730772D01*
X155367947Y-99727957D01*
X155333772Y-99723495D01*
X155311480Y-99715452D01*
X155294442Y-99701897D01*
X155284703Y-99691155D01*
X155259123Y-99646223D01*
X155257847Y-99597751D01*
X155272999Y-99557106D01*
X155304642Y-99522433D01*
X155356620Y-99501776D01*
X155429219Y-99495045D01*
X155429219Y-99369328D01*
X155386621Y-99368521D01*
X155328056Y-99371052D01*
X155284007Y-99378638D01*
X155249248Y-99392319D01*
X155218551Y-99413135D01*
X155209436Y-99420853D01*
X155164021Y-99469111D01*
X155137493Y-99520872D01*
X155126379Y-99584172D01*
X155125471Y-99615039D01*
X155135148Y-99696739D01*
G36*
X155142614Y-100878301D02*
X155148514Y-100890832D01*
X155180283Y-100934201D01*
X155226646Y-100975210D01*
X155277696Y-101005832D01*
X155301166Y-101014541D01*
X155343091Y-101022488D01*
X155393757Y-101027226D01*
X155414679Y-101027801D01*
X155480693Y-101027871D01*
X155480693Y-100647917D01*
X155515273Y-100656017D01*
X155556170Y-100675896D01*
X155591514Y-100710653D01*
X155614282Y-100752002D01*
X155619010Y-100778351D01*
X155613273Y-100814084D01*
X155598882Y-100856718D01*
X155592262Y-100871201D01*
X155565513Y-100924760D01*
X155600376Y-100970467D01*
X155623955Y-100996842D01*
X155643417Y-101010876D01*
X155649129Y-101011586D01*
X155662973Y-100999049D01*
X155684012Y-100971572D01*
X155700425Y-100946634D01*
X155729930Y-100879336D01*
X155743284Y-100803890D01*
X155739812Y-100729112D01*
X155721663Y-100669505D01*
X155682784Y-100608059D01*
X155631595Y-100564392D01*
X155565367Y-100537074D01*
X155481371Y-100524678D01*
X155442936Y-100523579D01*
X155354861Y-100527978D01*
X155352299Y-100528518D01*
X155352299Y-100654418D01*
X155360558Y-100657885D01*
X155365113Y-100672137D01*
X155367065Y-100701530D01*
X155367517Y-100750425D01*
X155367525Y-100769252D01*
X155366843Y-100826533D01*
X155364364Y-100862859D01*
X155359443Y-100882396D01*
X155351434Y-100889310D01*
X155348862Y-100889555D01*
X155328423Y-100881664D01*
X155299789Y-100861915D01*
X155289763Y-100853425D01*
X155261408Y-100821906D01*
X155250259Y-100789051D01*
X155249327Y-100771349D01*
X155260981Y-100723461D01*
X155292285Y-100683301D01*
X155337752Y-100657827D01*
X155339233Y-100657375D01*
X155352299Y-100654418D01*
X155352299Y-100528518D01*
X155285510Y-100542608D01*
X155230025Y-100568962D01*
X155190639Y-100601193D01*
X155147931Y-100660783D01*
X155125109Y-100730832D01*
X155123046Y-100805339D01*
X155142614Y-100878301D01*
X155142614Y-100878301D01*
G37*
X155142614Y-100878301D02*
X155148514Y-100890832D01*
X155180283Y-100934201D01*
X155226646Y-100975210D01*
X155277696Y-101005832D01*
X155301166Y-101014541D01*
X155343091Y-101022488D01*
X155393757Y-101027226D01*
X155414679Y-101027801D01*
X155480693Y-101027871D01*
X155480693Y-100647917D01*
X155515273Y-100656017D01*
X155556170Y-100675896D01*
X155591514Y-100710653D01*
X155614282Y-100752002D01*
X155619010Y-100778351D01*
X155613273Y-100814084D01*
X155598882Y-100856718D01*
X155592262Y-100871201D01*
X155565513Y-100924760D01*
X155600376Y-100970467D01*
X155623955Y-100996842D01*
X155643417Y-101010876D01*
X155649129Y-101011586D01*
X155662973Y-100999049D01*
X155684012Y-100971572D01*
X155700425Y-100946634D01*
X155729930Y-100879336D01*
X155743284Y-100803890D01*
X155739812Y-100729112D01*
X155721663Y-100669505D01*
X155682784Y-100608059D01*
X155631595Y-100564392D01*
X155565367Y-100537074D01*
X155481371Y-100524678D01*
X155442936Y-100523579D01*
X155354861Y-100527978D01*
X155352299Y-100528518D01*
X155352299Y-100654418D01*
X155360558Y-100657885D01*
X155365113Y-100672137D01*
X155367065Y-100701530D01*
X155367517Y-100750425D01*
X155367525Y-100769252D01*
X155366843Y-100826533D01*
X155364364Y-100862859D01*
X155359443Y-100882396D01*
X155351434Y-100889310D01*
X155348862Y-100889555D01*
X155328423Y-100881664D01*
X155299789Y-100861915D01*
X155289763Y-100853425D01*
X155261408Y-100821906D01*
X155250259Y-100789051D01*
X155249327Y-100771349D01*
X155260981Y-100723461D01*
X155292285Y-100683301D01*
X155337752Y-100657827D01*
X155339233Y-100657375D01*
X155352299Y-100654418D01*
X155352299Y-100528518D01*
X155285510Y-100542608D01*
X155230025Y-100568962D01*
X155190639Y-100601193D01*
X155147931Y-100660783D01*
X155125109Y-100730832D01*
X155123046Y-100805339D01*
X155142614Y-100878301D01*
G36*
X155126452Y-102249017D02*
X155135482Y-102296634D01*
X155154370Y-102346034D01*
X155156777Y-102351312D01*
X155176476Y-102388774D01*
X155194781Y-102414717D01*
X155206508Y-102423103D01*
X155225632Y-102415117D01*
X155253850Y-102395720D01*
X155264384Y-102387110D01*
X155305847Y-102351628D01*
X155278858Y-102305885D01*
X155260878Y-102262350D01*
X155251267Y-102212050D01*
X155250660Y-102163812D01*
X155259691Y-102126467D01*
X155265327Y-102117505D01*
X155291171Y-102100437D01*
X155320941Y-102098363D01*
X155344197Y-102111134D01*
X155348708Y-102118688D01*
X155354309Y-102141325D01*
X155360892Y-102181115D01*
X155367183Y-102230166D01*
X155368170Y-102239215D01*
X155381798Y-102317996D01*
X155404946Y-102375136D01*
X155439752Y-102413030D01*
X155488354Y-102434079D01*
X155547718Y-102440635D01*
X155615198Y-102431577D01*
X155668188Y-102402164D01*
X155706783Y-102352278D01*
X155731081Y-102281800D01*
X155740667Y-102203565D01*
X155740552Y-102139766D01*
X155731845Y-102088016D01*
X155719825Y-102052673D01*
X155698880Y-102008017D01*
X155674574Y-101966747D01*
X155663876Y-101952079D01*
X155633084Y-101914357D01*
X155587049Y-101959852D01*
X155541013Y-102005347D01*
X155575243Y-102057072D01*
X155600952Y-102108952D01*
X155614399Y-102164351D01*
X155615818Y-102217605D01*
X155605443Y-102263049D01*
X155583507Y-102295016D01*
X155564998Y-102305338D01*
X155535314Y-102303789D01*
X155512615Y-102278140D01*
X155496940Y-102228460D01*
X155489695Y-102174031D01*
X155475873Y-102090264D01*
X155449796Y-102028033D01*
X155410699Y-101986507D01*
X155357820Y-101964853D01*
X155295126Y-101961853D01*
X155229642Y-101976671D01*
X155180144Y-102010454D01*
X155146408Y-102063505D01*
X155128207Y-102136126D01*
X155124639Y-102189928D01*
X155126452Y-102249017D01*
X155126452Y-102249017D01*
G37*
X155126452Y-102249017D02*
X155135482Y-102296634D01*
X155154370Y-102346034D01*
X155156777Y-102351312D01*
X155176476Y-102388774D01*
X155194781Y-102414717D01*
X155206508Y-102423103D01*
X155225632Y-102415117D01*
X155253850Y-102395720D01*
X155264384Y-102387110D01*
X155305847Y-102351628D01*
X155278858Y-102305885D01*
X155260878Y-102262350D01*
X155251267Y-102212050D01*
X155250660Y-102163812D01*
X155259691Y-102126467D01*
X155265327Y-102117505D01*
X155291171Y-102100437D01*
X155320941Y-102098363D01*
X155344197Y-102111134D01*
X155348708Y-102118688D01*
X155354309Y-102141325D01*
X155360892Y-102181115D01*
X155367183Y-102230166D01*
X155368170Y-102239215D01*
X155381798Y-102317996D01*
X155404946Y-102375136D01*
X155439752Y-102413030D01*
X155488354Y-102434079D01*
X155547718Y-102440635D01*
X155615198Y-102431577D01*
X155668188Y-102402164D01*
X155706783Y-102352278D01*
X155731081Y-102281800D01*
X155740667Y-102203565D01*
X155740552Y-102139766D01*
X155731845Y-102088016D01*
X155719825Y-102052673D01*
X155698880Y-102008017D01*
X155674574Y-101966747D01*
X155663876Y-101952079D01*
X155633084Y-101914357D01*
X155587049Y-101959852D01*
X155541013Y-102005347D01*
X155575243Y-102057072D01*
X155600952Y-102108952D01*
X155614399Y-102164351D01*
X155615818Y-102217605D01*
X155605443Y-102263049D01*
X155583507Y-102295016D01*
X155564998Y-102305338D01*
X155535314Y-102303789D01*
X155512615Y-102278140D01*
X155496940Y-102228460D01*
X155489695Y-102174031D01*
X155475873Y-102090264D01*
X155449796Y-102028033D01*
X155410699Y-101986507D01*
X155357820Y-101964853D01*
X155295126Y-101961853D01*
X155229642Y-101976671D01*
X155180144Y-102010454D01*
X155146408Y-102063505D01*
X155128207Y-102136126D01*
X155124639Y-102189928D01*
X155126452Y-102249017D01*
G36*
X155136055Y-102845762D02*
X155170692Y-102909363D01*
X155225372Y-102959123D01*
X155269842Y-102982568D01*
X155309121Y-102992634D01*
X155365116Y-102999156D01*
X155429621Y-103001951D01*
X155494429Y-103000836D01*
X155551334Y-102995626D01*
X155581727Y-102989541D01*
X155623306Y-102969014D01*
X155667468Y-102933463D01*
X155706087Y-102890619D01*
X155731034Y-102848211D01*
X155731430Y-102847177D01*
X155742331Y-102794553D01*
X155742601Y-102732188D01*
X155732676Y-102672924D01*
X155724722Y-102650040D01*
X155691300Y-102591102D01*
X155647511Y-102548890D01*
X155589538Y-102521156D01*
X155513565Y-102505651D01*
X155473771Y-102502143D01*
X155423766Y-102502590D01*
X155423766Y-102637376D01*
X155496732Y-102641917D01*
X155552334Y-102654986D01*
X155587861Y-102675756D01*
X155598020Y-102690552D01*
X155605104Y-102728464D01*
X155603007Y-102773527D01*
X155592812Y-102812487D01*
X155587204Y-102822704D01*
X155554538Y-102849659D01*
X155504545Y-102867451D01*
X155443705Y-102875024D01*
X155378497Y-102871325D01*
X155339253Y-102863057D01*
X155293805Y-102839320D01*
X155265396Y-102801849D01*
X155255573Y-102756720D01*
X155265887Y-102710011D01*
X155291112Y-102674132D01*
X155311925Y-102655277D01*
X155332439Y-102644272D01*
X155360203Y-102639026D01*
X155402762Y-102637449D01*
X155423766Y-102637376D01*
X155423766Y-102502590D01*
X155367580Y-102503094D01*
X155280501Y-102520388D01*
X155212530Y-102554029D01*
X155163664Y-102604018D01*
X155133899Y-102670356D01*
X155130448Y-102684601D01*
X155122345Y-102770210D01*
X155136055Y-102845762D01*
X155136055Y-102845762D01*
G37*
X155136055Y-102845762D02*
X155170692Y-102909363D01*
X155225372Y-102959123D01*
X155269842Y-102982568D01*
X155309121Y-102992634D01*
X155365116Y-102999156D01*
X155429621Y-103001951D01*
X155494429Y-103000836D01*
X155551334Y-102995626D01*
X155581727Y-102989541D01*
X155623306Y-102969014D01*
X155667468Y-102933463D01*
X155706087Y-102890619D01*
X155731034Y-102848211D01*
X155731430Y-102847177D01*
X155742331Y-102794553D01*
X155742601Y-102732188D01*
X155732676Y-102672924D01*
X155724722Y-102650040D01*
X155691300Y-102591102D01*
X155647511Y-102548890D01*
X155589538Y-102521156D01*
X155513565Y-102505651D01*
X155473771Y-102502143D01*
X155423766Y-102502590D01*
X155423766Y-102637376D01*
X155496732Y-102641917D01*
X155552334Y-102654986D01*
X155587861Y-102675756D01*
X155598020Y-102690552D01*
X155605104Y-102728464D01*
X155603007Y-102773527D01*
X155592812Y-102812487D01*
X155587204Y-102822704D01*
X155554538Y-102849659D01*
X155504545Y-102867451D01*
X155443705Y-102875024D01*
X155378497Y-102871325D01*
X155339253Y-102863057D01*
X155293805Y-102839320D01*
X155265396Y-102801849D01*
X155255573Y-102756720D01*
X155265887Y-102710011D01*
X155291112Y-102674132D01*
X155311925Y-102655277D01*
X155332439Y-102644272D01*
X155360203Y-102639026D01*
X155402762Y-102637449D01*
X155423766Y-102637376D01*
X155423766Y-102502590D01*
X155367580Y-102503094D01*
X155280501Y-102520388D01*
X155212530Y-102554029D01*
X155163664Y-102604018D01*
X155133899Y-102670356D01*
X155130448Y-102684601D01*
X155122345Y-102770210D01*
X155136055Y-102845762D01*
G36*
X155324342Y-103228367D02*
X155416563Y-103229555D01*
X155486610Y-103233897D01*
X155537381Y-103242558D01*
X155571772Y-103256704D01*
X155592679Y-103277500D01*
X155603000Y-103306110D01*
X155605636Y-103341535D01*
X155602682Y-103378636D01*
X155591889Y-103406818D01*
X155570360Y-103427243D01*
X155535199Y-103441079D01*
X155483510Y-103449491D01*
X155412394Y-103453643D01*
X155324342Y-103454703D01*
X155128614Y-103454703D01*
X155128614Y-103593020D01*
X155732179Y-103593020D01*
X155732179Y-103523862D01*
X155730489Y-103482170D01*
X155724556Y-103460701D01*
X155713293Y-103454703D01*
X155703261Y-103451091D01*
X155705383Y-103436714D01*
X155719580Y-103407736D01*
X155741480Y-103341319D01*
X155739928Y-103270875D01*
X155716147Y-103203377D01*
X155697362Y-103171233D01*
X155677022Y-103146715D01*
X155651573Y-103128804D01*
X155617458Y-103116479D01*
X155571121Y-103108723D01*
X155509007Y-103104516D01*
X155427561Y-103102840D01*
X155364578Y-103102624D01*
X155128614Y-103102624D01*
X155128614Y-103228367D01*
X155324342Y-103228367D01*
X155324342Y-103228367D01*
G37*
X155324342Y-103228367D02*
X155416563Y-103229555D01*
X155486610Y-103233897D01*
X155537381Y-103242558D01*
X155571772Y-103256704D01*
X155592679Y-103277500D01*
X155603000Y-103306110D01*
X155605636Y-103341535D01*
X155602682Y-103378636D01*
X155591889Y-103406818D01*
X155570360Y-103427243D01*
X155535199Y-103441079D01*
X155483510Y-103449491D01*
X155412394Y-103453643D01*
X155324342Y-103454703D01*
X155128614Y-103454703D01*
X155128614Y-103593020D01*
X155732179Y-103593020D01*
X155732179Y-103523862D01*
X155730489Y-103482170D01*
X155724556Y-103460701D01*
X155713293Y-103454703D01*
X155703261Y-103451091D01*
X155705383Y-103436714D01*
X155719580Y-103407736D01*
X155741480Y-103341319D01*
X155739928Y-103270875D01*
X155716147Y-103203377D01*
X155697362Y-103171233D01*
X155677022Y-103146715D01*
X155651573Y-103128804D01*
X155617458Y-103116479D01*
X155571121Y-103108723D01*
X155509007Y-103104516D01*
X155427561Y-103102840D01*
X155364578Y-103102624D01*
X155128614Y-103102624D01*
X155128614Y-103228367D01*
X155324342Y-103228367D01*
G36*
X155133880Y-104452226D02*
X155164830Y-104525080D01*
X155179895Y-104548027D01*
X155203048Y-104577354D01*
X155221253Y-104595764D01*
X155227183Y-104598961D01*
X155240340Y-104589935D01*
X155262667Y-104566837D01*
X155278250Y-104548344D01*
X155318926Y-104497728D01*
X155285295Y-104457760D01*
X155263584Y-104426874D01*
X155256090Y-104396759D01*
X155257920Y-104362292D01*
X155271528Y-104307561D01*
X155299772Y-104269886D01*
X155345433Y-104246991D01*
X155411289Y-104236597D01*
X155411331Y-104236595D01*
X155484939Y-104237494D01*
X155538946Y-104251463D01*
X155575716Y-104279328D01*
X155588168Y-104298325D01*
X155603673Y-104348776D01*
X155603683Y-104402663D01*
X155588638Y-104449546D01*
X155581287Y-104460644D01*
X155562511Y-104488476D01*
X155559434Y-104510236D01*
X155573409Y-104533704D01*
X155598510Y-104559649D01*
X155640880Y-104600716D01*
X155678464Y-104555121D01*
X155720882Y-104484674D01*
X155741785Y-104405233D01*
X155740272Y-104322215D01*
X155726411Y-104267694D01*
X155692135Y-104203970D01*
X155638212Y-104153005D01*
X155600149Y-104129851D01*
X155545536Y-104111099D01*
X155476369Y-104101715D01*
X155401407Y-104101643D01*
X155329409Y-104110824D01*
X155269137Y-104129199D01*
X155262958Y-104132093D01*
X155202351Y-104174952D01*
X155158224Y-104232979D01*
X155131493Y-104301591D01*
X155123073Y-104376201D01*
X155133880Y-104452226D01*
X155133880Y-104452226D01*
G37*
X155133880Y-104452226D02*
X155164830Y-104525080D01*
X155179895Y-104548027D01*
X155203048Y-104577354D01*
X155221253Y-104595764D01*
X155227183Y-104598961D01*
X155240340Y-104589935D01*
X155262667Y-104566837D01*
X155278250Y-104548344D01*
X155318926Y-104497728D01*
X155285295Y-104457760D01*
X155263584Y-104426874D01*
X155256090Y-104396759D01*
X155257920Y-104362292D01*
X155271528Y-104307561D01*
X155299772Y-104269886D01*
X155345433Y-104246991D01*
X155411289Y-104236597D01*
X155411331Y-104236595D01*
X155484939Y-104237494D01*
X155538946Y-104251463D01*
X155575716Y-104279328D01*
X155588168Y-104298325D01*
X155603673Y-104348776D01*
X155603683Y-104402663D01*
X155588638Y-104449546D01*
X155581287Y-104460644D01*
X155562511Y-104488476D01*
X155559434Y-104510236D01*
X155573409Y-104533704D01*
X155598510Y-104559649D01*
X155640880Y-104600716D01*
X155678464Y-104555121D01*
X155720882Y-104484674D01*
X155741785Y-104405233D01*
X155740272Y-104322215D01*
X155726411Y-104267694D01*
X155692135Y-104203970D01*
X155638212Y-104153005D01*
X155600149Y-104129851D01*
X155545536Y-104111099D01*
X155476369Y-104101715D01*
X155401407Y-104101643D01*
X155329409Y-104110824D01*
X155269137Y-104129199D01*
X155262958Y-104132093D01*
X155202351Y-104174952D01*
X155158224Y-104232979D01*
X155131493Y-104301591D01*
X155123073Y-104376201D01*
X155133880Y-104452226D01*
G36*
X155126457Y-104912898D02*
X155134279Y-104945096D01*
X155162921Y-105006825D01*
X155206667Y-105059610D01*
X155259117Y-105096141D01*
X155270893Y-105101160D01*
X155301740Y-105108045D01*
X155347371Y-105112864D01*
X155393492Y-105114505D01*
X155480693Y-105114505D01*
X155480693Y-104932178D01*
X155480978Y-104856979D01*
X155482704Y-104804003D01*
X155487181Y-104770325D01*
X155495720Y-104753020D01*
X155509630Y-104749163D01*
X155530222Y-104755829D01*
X155554315Y-104767770D01*
X155594525Y-104801080D01*
X155614558Y-104847368D01*
X155613905Y-104903944D01*
X155592101Y-104968031D01*
X155565193Y-105023417D01*
X155601532Y-105069375D01*
X155637872Y-105115333D01*
X155677819Y-105072096D01*
X155715563Y-105014374D01*
X155738320Y-104943386D01*
X155744688Y-104867029D01*
X155733268Y-104793199D01*
X155729393Y-104781287D01*
X155695506Y-104716399D01*
X155644986Y-104668130D01*
X155576325Y-104635465D01*
X155488014Y-104617385D01*
X155486121Y-104617175D01*
X155389878Y-104615556D01*
X155355542Y-104622100D01*
X155355542Y-104749852D01*
X155360822Y-104761584D01*
X155364867Y-104793438D01*
X155367176Y-104840397D01*
X155367525Y-104870154D01*
X155367306Y-104925648D01*
X155365916Y-104960346D01*
X155362251Y-104978601D01*
X155355210Y-104984766D01*
X155343690Y-104983195D01*
X155339233Y-104981878D01*
X155297355Y-104959382D01*
X155263604Y-104924003D01*
X155248773Y-104892780D01*
X155249668Y-104851301D01*
X155268164Y-104809269D01*
X155298786Y-104774012D01*
X155336062Y-104752854D01*
X155355542Y-104749852D01*
X155355542Y-104622100D01*
X155305229Y-104631690D01*
X155234191Y-104663698D01*
X155178779Y-104709701D01*
X155141009Y-104767821D01*
X155122896Y-104836180D01*
X155126457Y-104912898D01*
X155126457Y-104912898D01*
G37*
X155126457Y-104912898D02*
X155134279Y-104945096D01*
X155162921Y-105006825D01*
X155206667Y-105059610D01*
X155259117Y-105096141D01*
X155270893Y-105101160D01*
X155301740Y-105108045D01*
X155347371Y-105112864D01*
X155393492Y-105114505D01*
X155480693Y-105114505D01*
X155480693Y-104932178D01*
X155480978Y-104856979D01*
X155482704Y-104804003D01*
X155487181Y-104770325D01*
X155495720Y-104753020D01*
X155509630Y-104749163D01*
X155530222Y-104755829D01*
X155554315Y-104767770D01*
X155594525Y-104801080D01*
X155614558Y-104847368D01*
X155613905Y-104903944D01*
X155592101Y-104968031D01*
X155565193Y-105023417D01*
X155601532Y-105069375D01*
X155637872Y-105115333D01*
X155677819Y-105072096D01*
X155715563Y-105014374D01*
X155738320Y-104943386D01*
X155744688Y-104867029D01*
X155733268Y-104793199D01*
X155729393Y-104781287D01*
X155695506Y-104716399D01*
X155644986Y-104668130D01*
X155576325Y-104635465D01*
X155488014Y-104617385D01*
X155486121Y-104617175D01*
X155389878Y-104615556D01*
X155355542Y-104622100D01*
X155355542Y-104749852D01*
X155360822Y-104761584D01*
X155364867Y-104793438D01*
X155367176Y-104840397D01*
X155367525Y-104870154D01*
X155367306Y-104925648D01*
X155365916Y-104960346D01*
X155362251Y-104978601D01*
X155355210Y-104984766D01*
X155343690Y-104983195D01*
X155339233Y-104981878D01*
X155297355Y-104959382D01*
X155263604Y-104924003D01*
X155248773Y-104892780D01*
X155249668Y-104851301D01*
X155268164Y-104809269D01*
X155298786Y-104774012D01*
X155336062Y-104752854D01*
X155355542Y-104749852D01*
X155355542Y-104622100D01*
X155305229Y-104631690D01*
X155234191Y-104663698D01*
X155178779Y-104709701D01*
X155141009Y-104767821D01*
X155122896Y-104836180D01*
X155126457Y-104912898D01*
G36*
X155139002Y-101480988D02*
X155153950Y-101512283D01*
X155175541Y-101542591D01*
X155200391Y-101565682D01*
X155232087Y-101582500D01*
X155274214Y-101593994D01*
X155330358Y-101601109D01*
X155404106Y-101604793D01*
X155499044Y-101605992D01*
X155508985Y-101606011D01*
X155732179Y-101606287D01*
X155732179Y-101467970D01*
X155526418Y-101467970D01*
X155450189Y-101467872D01*
X155394939Y-101467191D01*
X155356501Y-101465349D01*
X155330706Y-101461767D01*
X155313384Y-101455868D01*
X155300368Y-101447073D01*
X155287507Y-101434820D01*
X155259873Y-101391953D01*
X155254745Y-101345157D01*
X155272217Y-101300576D01*
X155285221Y-101285072D01*
X155297447Y-101273690D01*
X155310540Y-101265519D01*
X155328615Y-101260026D01*
X155355787Y-101256680D01*
X155396170Y-101254949D01*
X155453879Y-101254303D01*
X155524132Y-101254208D01*
X155732179Y-101254208D01*
X155732179Y-101115891D01*
X155128614Y-101115891D01*
X155128614Y-101185050D01*
X155130256Y-101226572D01*
X155136087Y-101247994D01*
X155147461Y-101254205D01*
X155147798Y-101254208D01*
X155158938Y-101257090D01*
X155157674Y-101269801D01*
X155145434Y-101295074D01*
X155127424Y-101352395D01*
X155125421Y-101417963D01*
X155139002Y-101480988D01*
X155139002Y-101480988D01*
G37*
X155139002Y-101480988D02*
X155153950Y-101512283D01*
X155175541Y-101542591D01*
X155200391Y-101565682D01*
X155232087Y-101582500D01*
X155274214Y-101593994D01*
X155330358Y-101601109D01*
X155404106Y-101604793D01*
X155499044Y-101605992D01*
X155508985Y-101606011D01*
X155732179Y-101606287D01*
X155732179Y-101467970D01*
X155526418Y-101467970D01*
X155450189Y-101467872D01*
X155394939Y-101467191D01*
X155356501Y-101465349D01*
X155330706Y-101461767D01*
X155313384Y-101455868D01*
X155300368Y-101447073D01*
X155287507Y-101434820D01*
X155259873Y-101391953D01*
X155254745Y-101345157D01*
X155272217Y-101300576D01*
X155285221Y-101285072D01*
X155297447Y-101273690D01*
X155310540Y-101265519D01*
X155328615Y-101260026D01*
X155355787Y-101256680D01*
X155396170Y-101254949D01*
X155453879Y-101254303D01*
X155524132Y-101254208D01*
X155732179Y-101254208D01*
X155732179Y-101115891D01*
X155128614Y-101115891D01*
X155128614Y-101185050D01*
X155130256Y-101226572D01*
X155136087Y-101247994D01*
X155147461Y-101254205D01*
X155147798Y-101254208D01*
X155158938Y-101257090D01*
X155157674Y-101269801D01*
X155145434Y-101295074D01*
X155127424Y-101352395D01*
X155125421Y-101417963D01*
X155139002Y-101480988D01*
G36*
X155128030Y-104034460D02*
X155141245Y-104077711D01*
X155157941Y-104105558D01*
X155171145Y-104114629D01*
X155186797Y-104112132D01*
X155211385Y-104095931D01*
X155228800Y-104082232D01*
X155260283Y-104053992D01*
X155273529Y-104032775D01*
X155272664Y-104014688D01*
X155259010Y-103961035D01*
X155259630Y-103921630D01*
X155275104Y-103889632D01*
X155284161Y-103878890D01*
X155316027Y-103844505D01*
X155732179Y-103844505D01*
X155732179Y-103706188D01*
X155128614Y-103706188D01*
X155128614Y-103775347D01*
X155130256Y-103816869D01*
X155136087Y-103838291D01*
X155147461Y-103844502D01*
X155147798Y-103844505D01*
X155159713Y-103847439D01*
X155158159Y-103860704D01*
X155149563Y-103879084D01*
X155133568Y-103917046D01*
X155123945Y-103947872D01*
X155121478Y-103987536D01*
X155128030Y-104034460D01*
X155128030Y-104034460D01*
G37*
X155128030Y-104034460D02*
X155141245Y-104077711D01*
X155157941Y-104105558D01*
X155171145Y-104114629D01*
X155186797Y-104112132D01*
X155211385Y-104095931D01*
X155228800Y-104082232D01*
X155260283Y-104053992D01*
X155273529Y-104032775D01*
X155272664Y-104014688D01*
X155259010Y-103961035D01*
X155259630Y-103921630D01*
X155275104Y-103889632D01*
X155284161Y-103878890D01*
X155316027Y-103844505D01*
X155732179Y-103844505D01*
X155732179Y-103706188D01*
X155128614Y-103706188D01*
X155128614Y-103775347D01*
X155130256Y-103816869D01*
X155136087Y-103838291D01*
X155147461Y-103844502D01*
X155147798Y-103844505D01*
X155159713Y-103847439D01*
X155158159Y-103860704D01*
X155149563Y-103879084D01*
X155133568Y-103917046D01*
X155123945Y-103947872D01*
X155121478Y-103987536D01*
X155128030Y-104034460D01*
G36*
X150960018Y-102611964D02*
X151261570Y-102668812D01*
X151434512Y-103088338D01*
X151263395Y-103339984D01*
X151215750Y-103410458D01*
X151173210Y-103474163D01*
X151137715Y-103528126D01*
X151111210Y-103569373D01*
X151095636Y-103594934D01*
X151092278Y-103601895D01*
X151100914Y-103614435D01*
X151124792Y-103641231D01*
X151160859Y-103679280D01*
X151206067Y-103725579D01*
X151257364Y-103777123D01*
X151311701Y-103830909D01*
X151366028Y-103883935D01*
X151417295Y-103933195D01*
X151462451Y-103975687D01*
X151498446Y-104008407D01*
X151522230Y-104028351D01*
X151530190Y-104033119D01*
X151544865Y-104026257D01*
X151577014Y-104007020D01*
X151623492Y-103977430D01*
X151681156Y-103939510D01*
X151746860Y-103895282D01*
X151784336Y-103869654D01*
X151852768Y-103822941D01*
X151914520Y-103781432D01*
X151966519Y-103747140D01*
X152005692Y-103722080D01*
X152028965Y-103708264D01*
X152033855Y-103706188D01*
X152047755Y-103710895D01*
X152080150Y-103723723D01*
X152126485Y-103742738D01*
X152182206Y-103766003D01*
X152242758Y-103791584D01*
X152303586Y-103817545D01*
X152360136Y-103841950D01*
X152407852Y-103862863D01*
X152442181Y-103878349D01*
X152458568Y-103886472D01*
X152459212Y-103886952D01*
X152462341Y-103899707D01*
X152469321Y-103933677D01*
X152479467Y-103985340D01*
X152492092Y-104051176D01*
X152506509Y-104127664D01*
X152514823Y-104172290D01*
X152530384Y-104254021D01*
X152545192Y-104327843D01*
X152558436Y-104390021D01*
X152569305Y-104436822D01*
X152576989Y-104464509D01*
X152579427Y-104470074D01*
X152595930Y-104475526D01*
X152633200Y-104479924D01*
X152686880Y-104483272D01*
X152752612Y-104485574D01*
X152826037Y-104486832D01*
X152902796Y-104487048D01*
X152978532Y-104486227D01*
X153048886Y-104484371D01*
X153109500Y-104481482D01*
X153156016Y-104477565D01*
X153184075Y-104472622D01*
X153189916Y-104469657D01*
X153196917Y-104451934D01*
X153206927Y-104414381D01*
X153218769Y-104361964D01*
X153231267Y-104299652D01*
X153235310Y-104277900D01*
X153254520Y-104173024D01*
X153269991Y-104090180D01*
X153282337Y-104026630D01*
X153292173Y-103979637D01*
X153300114Y-103946463D01*
X153306776Y-103924371D01*
X153312773Y-103910624D01*
X153318719Y-103902484D01*
X153319894Y-103901345D01*
X153338826Y-103889977D01*
X153375669Y-103872635D01*
X153425913Y-103851050D01*
X153485046Y-103826954D01*
X153548556Y-103802079D01*
X153611932Y-103778157D01*
X153670662Y-103756919D01*
X153720235Y-103740097D01*
X153756139Y-103729422D01*
X153773862Y-103726627D01*
X153774483Y-103726860D01*
X153788970Y-103736331D01*
X153820844Y-103757818D01*
X153866789Y-103789063D01*
X153923485Y-103827807D01*
X153987617Y-103871793D01*
X154005842Y-103884319D01*
X154071914Y-103928984D01*
X154132200Y-103968288D01*
X154183235Y-104000088D01*
X154221560Y-104022245D01*
X154243711Y-104032617D01*
X154246432Y-104033119D01*
X154260736Y-104024405D01*
X154289072Y-104000325D01*
X154328396Y-103963976D01*
X154375661Y-103918453D01*
X154427823Y-103866852D01*
X154481835Y-103812267D01*
X154534653Y-103757794D01*
X154583231Y-103706529D01*
X154624523Y-103661567D01*
X154655485Y-103626004D01*
X154673070Y-103602935D01*
X154675941Y-103596554D01*
X154669178Y-103581699D01*
X154650939Y-103551286D01*
X154624297Y-103510268D01*
X154602852Y-103478709D01*
X154563503Y-103421525D01*
X154517171Y-103353806D01*
X154470913Y-103285880D01*
X154446155Y-103249361D01*
X154362547Y-103125752D01*
X154418650Y-103021991D01*
X154443228Y-102974720D01*
X154462331Y-102934523D01*
X154473227Y-102907326D01*
X154474743Y-102900402D01*
X154463549Y-102892077D01*
X154431917Y-102875654D01*
X154382765Y-102852357D01*
X154319010Y-102823414D01*
X154243571Y-102790050D01*
X154159364Y-102753491D01*
X154069308Y-102714964D01*
X153976321Y-102675694D01*
X153883320Y-102636908D01*
X153793223Y-102599830D01*
X153708948Y-102565689D01*
X153633413Y-102535708D01*
X153569534Y-102511116D01*
X153520231Y-102493136D01*
X153488421Y-102482997D01*
X153477496Y-102481366D01*
X153463561Y-102494291D01*
X153440940Y-102522589D01*
X153414333Y-102560346D01*
X153412228Y-102563515D01*
X153334114Y-102661100D01*
X153242982Y-102739786D01*
X153141745Y-102798891D01*
X153033318Y-102837732D01*
X152920614Y-102855628D01*
X152806548Y-102851897D01*
X152694034Y-102825857D01*
X152585985Y-102776825D01*
X152562345Y-102762400D01*
X152466887Y-102687369D01*
X152390232Y-102598730D01*
X152332780Y-102499549D01*
X152294929Y-102392895D01*
X152277078Y-102281836D01*
X152279625Y-102169439D01*
X152302970Y-102058773D01*
X152347510Y-101952906D01*
X152413645Y-101854905D01*
X152440487Y-101824590D01*
X152524512Y-101747438D01*
X152612966Y-101691218D01*
X152712115Y-101652653D01*
X152810303Y-101631174D01*
X152920697Y-101625872D01*
X153031640Y-101643552D01*
X153139381Y-101682419D01*
X153240169Y-101740677D01*
X153330256Y-101816531D01*
X153405892Y-101908183D01*
X153413864Y-101920228D01*
X153439974Y-101958389D01*
X153462595Y-101987399D01*
X153477039Y-102001268D01*
X153477496Y-102001469D01*
X153493121Y-101998492D01*
X153528582Y-101986689D01*
X153580962Y-101967286D01*
X153647345Y-101941512D01*
X153724814Y-101910591D01*
X153810450Y-101875751D01*
X153901337Y-101838217D01*
X153994559Y-101799217D01*
X154087197Y-101759977D01*
X154176335Y-101721724D01*
X154259055Y-101685683D01*
X154332441Y-101653083D01*
X154393575Y-101625148D01*
X154439541Y-101603105D01*
X154467421Y-101588182D01*
X154474743Y-101582172D01*
X154469041Y-101563809D01*
X154453749Y-101529448D01*
X154431599Y-101485016D01*
X154418650Y-101460583D01*
X154362547Y-101356822D01*
X154446155Y-101233213D01*
X154488987Y-101170114D01*
X154536122Y-101101030D01*
X154580503Y-101036293D01*
X154602852Y-101003866D01*
X154633477Y-100958259D01*
X154657747Y-100919640D01*
X154672587Y-100893048D01*
X154675724Y-100884410D01*
X154667261Y-100871839D01*
X154643636Y-100844016D01*
X154607302Y-100803639D01*
X154560711Y-100753405D01*
X154506317Y-100696012D01*
X154471392Y-100659714D01*
X154408996Y-100596210D01*
X154353188Y-100541327D01*
X154306354Y-100497286D01*
X154270882Y-100466305D01*
X154249161Y-100450602D01*
X154244752Y-100449095D01*
X154227985Y-100456086D01*
X154194082Y-100475406D01*
X154146476Y-100504909D01*
X154088599Y-100542455D01*
X154023884Y-100585900D01*
X154005842Y-100598255D01*
X153940267Y-100643273D01*
X153881228Y-100683660D01*
X153832042Y-100717160D01*
X153796028Y-100741514D01*
X153776502Y-100754464D01*
X153774483Y-100755715D01*
X153758922Y-100753844D01*
X153724709Y-100743913D01*
X153676355Y-100727653D01*
X153618371Y-100706795D01*
X153555270Y-100683073D01*
X153491563Y-100658216D01*
X153431761Y-100633958D01*
X153380376Y-100612029D01*
X153341919Y-100594162D01*
X153320902Y-100582087D01*
X153319894Y-100581229D01*
X153313888Y-100573846D01*
X153307948Y-100561375D01*
X153301460Y-100541080D01*
X153293809Y-100510222D01*
X153284380Y-100466066D01*
X153272559Y-100405874D01*
X153257729Y-100326907D01*
X153239277Y-100226430D01*
X153235310Y-100204675D01*
X153222853Y-100140198D01*
X153210666Y-100083989D01*
X153199926Y-100041013D01*
X153191809Y-100016240D01*
X153189916Y-100012918D01*
X153173138Y-100007444D01*
X153135645Y-100002994D01*
X153081794Y-99999572D01*
X153015944Y-99997181D01*
X152942453Y-99995823D01*
X152865680Y-99995501D01*
X152789983Y-99996219D01*
X152719720Y-99997979D01*
X152659250Y-100000784D01*
X152612930Y-100004638D01*
X152585119Y-100009543D01*
X152579427Y-100012500D01*
X152573686Y-100028963D01*
X152564345Y-100066449D01*
X152552215Y-100121225D01*
X152538107Y-100189555D01*
X152522830Y-100267706D01*
X152514823Y-100310284D01*
X152499721Y-100391071D01*
X152486040Y-100463113D01*
X152474467Y-100522889D01*
X152465687Y-100566879D01*
X152460387Y-100591561D01*
X152459212Y-100595623D01*
X152445965Y-100602489D01*
X152414057Y-100617002D01*
X152368047Y-100637229D01*
X152312492Y-100661234D01*
X152251953Y-100687082D01*
X152190986Y-100712840D01*
X152134151Y-100736573D01*
X152086006Y-100756346D01*
X152051110Y-100770224D01*
X152034021Y-100776274D01*
X152033274Y-100776386D01*
X152019793Y-100769528D01*
X151988770Y-100750302D01*
X151943289Y-100720728D01*
X151886432Y-100682827D01*
X151821283Y-100638620D01*
X151783862Y-100612921D01*
X151715247Y-100566093D01*
X151652952Y-100524501D01*
X151600129Y-100490175D01*
X151559927Y-100465143D01*
X151535500Y-100451435D01*
X151530024Y-100449456D01*
X151517278Y-100457966D01*
X151490063Y-100481493D01*
X151451428Y-100517032D01*
X151404423Y-100561577D01*
X151352095Y-100612123D01*
X151297495Y-100665664D01*
X151243670Y-100719195D01*
X151193670Y-100769711D01*
X151150543Y-100814206D01*
X151117339Y-100849675D01*
X151097106Y-100873113D01*
X151092278Y-100880954D01*
X151099067Y-100893720D01*
X151118142Y-100924256D01*
X151147561Y-100969590D01*
X151185381Y-101026756D01*
X151229661Y-101092784D01*
X151263395Y-101142590D01*
X151434512Y-101394236D01*
X151348041Y-101603999D01*
X151261570Y-101813763D01*
X150960018Y-101870611D01*
X150658466Y-101927460D01*
X150658466Y-102555115D01*
X150960018Y-102611964D01*
X150960018Y-102611964D01*
G37*
X150960018Y-102611964D02*
X151261570Y-102668812D01*
X151434512Y-103088338D01*
X151263395Y-103339984D01*
X151215750Y-103410458D01*
X151173210Y-103474163D01*
X151137715Y-103528126D01*
X151111210Y-103569373D01*
X151095636Y-103594934D01*
X151092278Y-103601895D01*
X151100914Y-103614435D01*
X151124792Y-103641231D01*
X151160859Y-103679280D01*
X151206067Y-103725579D01*
X151257364Y-103777123D01*
X151311701Y-103830909D01*
X151366028Y-103883935D01*
X151417295Y-103933195D01*
X151462451Y-103975687D01*
X151498446Y-104008407D01*
X151522230Y-104028351D01*
X151530190Y-104033119D01*
X151544865Y-104026257D01*
X151577014Y-104007020D01*
X151623492Y-103977430D01*
X151681156Y-103939510D01*
X151746860Y-103895282D01*
X151784336Y-103869654D01*
X151852768Y-103822941D01*
X151914520Y-103781432D01*
X151966519Y-103747140D01*
X152005692Y-103722080D01*
X152028965Y-103708264D01*
X152033855Y-103706188D01*
X152047755Y-103710895D01*
X152080150Y-103723723D01*
X152126485Y-103742738D01*
X152182206Y-103766003D01*
X152242758Y-103791584D01*
X152303586Y-103817545D01*
X152360136Y-103841950D01*
X152407852Y-103862863D01*
X152442181Y-103878349D01*
X152458568Y-103886472D01*
X152459212Y-103886952D01*
X152462341Y-103899707D01*
X152469321Y-103933677D01*
X152479467Y-103985340D01*
X152492092Y-104051176D01*
X152506509Y-104127664D01*
X152514823Y-104172290D01*
X152530384Y-104254021D01*
X152545192Y-104327843D01*
X152558436Y-104390021D01*
X152569305Y-104436822D01*
X152576989Y-104464509D01*
X152579427Y-104470074D01*
X152595930Y-104475526D01*
X152633200Y-104479924D01*
X152686880Y-104483272D01*
X152752612Y-104485574D01*
X152826037Y-104486832D01*
X152902796Y-104487048D01*
X152978532Y-104486227D01*
X153048886Y-104484371D01*
X153109500Y-104481482D01*
X153156016Y-104477565D01*
X153184075Y-104472622D01*
X153189916Y-104469657D01*
X153196917Y-104451934D01*
X153206927Y-104414381D01*
X153218769Y-104361964D01*
X153231267Y-104299652D01*
X153235310Y-104277900D01*
X153254520Y-104173024D01*
X153269991Y-104090180D01*
X153282337Y-104026630D01*
X153292173Y-103979637D01*
X153300114Y-103946463D01*
X153306776Y-103924371D01*
X153312773Y-103910624D01*
X153318719Y-103902484D01*
X153319894Y-103901345D01*
X153338826Y-103889977D01*
X153375669Y-103872635D01*
X153425913Y-103851050D01*
X153485046Y-103826954D01*
X153548556Y-103802079D01*
X153611932Y-103778157D01*
X153670662Y-103756919D01*
X153720235Y-103740097D01*
X153756139Y-103729422D01*
X153773862Y-103726627D01*
X153774483Y-103726860D01*
X153788970Y-103736331D01*
X153820844Y-103757818D01*
X153866789Y-103789063D01*
X153923485Y-103827807D01*
X153987617Y-103871793D01*
X154005842Y-103884319D01*
X154071914Y-103928984D01*
X154132200Y-103968288D01*
X154183235Y-104000088D01*
X154221560Y-104022245D01*
X154243711Y-104032617D01*
X154246432Y-104033119D01*
X154260736Y-104024405D01*
X154289072Y-104000325D01*
X154328396Y-103963976D01*
X154375661Y-103918453D01*
X154427823Y-103866852D01*
X154481835Y-103812267D01*
X154534653Y-103757794D01*
X154583231Y-103706529D01*
X154624523Y-103661567D01*
X154655485Y-103626004D01*
X154673070Y-103602935D01*
X154675941Y-103596554D01*
X154669178Y-103581699D01*
X154650939Y-103551286D01*
X154624297Y-103510268D01*
X154602852Y-103478709D01*
X154563503Y-103421525D01*
X154517171Y-103353806D01*
X154470913Y-103285880D01*
X154446155Y-103249361D01*
X154362547Y-103125752D01*
X154418650Y-103021991D01*
X154443228Y-102974720D01*
X154462331Y-102934523D01*
X154473227Y-102907326D01*
X154474743Y-102900402D01*
X154463549Y-102892077D01*
X154431917Y-102875654D01*
X154382765Y-102852357D01*
X154319010Y-102823414D01*
X154243571Y-102790050D01*
X154159364Y-102753491D01*
X154069308Y-102714964D01*
X153976321Y-102675694D01*
X153883320Y-102636908D01*
X153793223Y-102599830D01*
X153708948Y-102565689D01*
X153633413Y-102535708D01*
X153569534Y-102511116D01*
X153520231Y-102493136D01*
X153488421Y-102482997D01*
X153477496Y-102481366D01*
X153463561Y-102494291D01*
X153440940Y-102522589D01*
X153414333Y-102560346D01*
X153412228Y-102563515D01*
X153334114Y-102661100D01*
X153242982Y-102739786D01*
X153141745Y-102798891D01*
X153033318Y-102837732D01*
X152920614Y-102855628D01*
X152806548Y-102851897D01*
X152694034Y-102825857D01*
X152585985Y-102776825D01*
X152562345Y-102762400D01*
X152466887Y-102687369D01*
X152390232Y-102598730D01*
X152332780Y-102499549D01*
X152294929Y-102392895D01*
X152277078Y-102281836D01*
X152279625Y-102169439D01*
X152302970Y-102058773D01*
X152347510Y-101952906D01*
X152413645Y-101854905D01*
X152440487Y-101824590D01*
X152524512Y-101747438D01*
X152612966Y-101691218D01*
X152712115Y-101652653D01*
X152810303Y-101631174D01*
X152920697Y-101625872D01*
X153031640Y-101643552D01*
X153139381Y-101682419D01*
X153240169Y-101740677D01*
X153330256Y-101816531D01*
X153405892Y-101908183D01*
X153413864Y-101920228D01*
X153439974Y-101958389D01*
X153462595Y-101987399D01*
X153477039Y-102001268D01*
X153477496Y-102001469D01*
X153493121Y-101998492D01*
X153528582Y-101986689D01*
X153580962Y-101967286D01*
X153647345Y-101941512D01*
X153724814Y-101910591D01*
X153810450Y-101875751D01*
X153901337Y-101838217D01*
X153994559Y-101799217D01*
X154087197Y-101759977D01*
X154176335Y-101721724D01*
X154259055Y-101685683D01*
X154332441Y-101653083D01*
X154393575Y-101625148D01*
X154439541Y-101603105D01*
X154467421Y-101588182D01*
X154474743Y-101582172D01*
X154469041Y-101563809D01*
X154453749Y-101529448D01*
X154431599Y-101485016D01*
X154418650Y-101460583D01*
X154362547Y-101356822D01*
X154446155Y-101233213D01*
X154488987Y-101170114D01*
X154536122Y-101101030D01*
X154580503Y-101036293D01*
X154602852Y-101003866D01*
X154633477Y-100958259D01*
X154657747Y-100919640D01*
X154672587Y-100893048D01*
X154675724Y-100884410D01*
X154667261Y-100871839D01*
X154643636Y-100844016D01*
X154607302Y-100803639D01*
X154560711Y-100753405D01*
X154506317Y-100696012D01*
X154471392Y-100659714D01*
X154408996Y-100596210D01*
X154353188Y-100541327D01*
X154306354Y-100497286D01*
X154270882Y-100466305D01*
X154249161Y-100450602D01*
X154244752Y-100449095D01*
X154227985Y-100456086D01*
X154194082Y-100475406D01*
X154146476Y-100504909D01*
X154088599Y-100542455D01*
X154023884Y-100585900D01*
X154005842Y-100598255D01*
X153940267Y-100643273D01*
X153881228Y-100683660D01*
X153832042Y-100717160D01*
X153796028Y-100741514D01*
X153776502Y-100754464D01*
X153774483Y-100755715D01*
X153758922Y-100753844D01*
X153724709Y-100743913D01*
X153676355Y-100727653D01*
X153618371Y-100706795D01*
X153555270Y-100683073D01*
X153491563Y-100658216D01*
X153431761Y-100633958D01*
X153380376Y-100612029D01*
X153341919Y-100594162D01*
X153320902Y-100582087D01*
X153319894Y-100581229D01*
X153313888Y-100573846D01*
X153307948Y-100561375D01*
X153301460Y-100541080D01*
X153293809Y-100510222D01*
X153284380Y-100466066D01*
X153272559Y-100405874D01*
X153257729Y-100326907D01*
X153239277Y-100226430D01*
X153235310Y-100204675D01*
X153222853Y-100140198D01*
X153210666Y-100083989D01*
X153199926Y-100041013D01*
X153191809Y-100016240D01*
X153189916Y-100012918D01*
X153173138Y-100007444D01*
X153135645Y-100002994D01*
X153081794Y-99999572D01*
X153015944Y-99997181D01*
X152942453Y-99995823D01*
X152865680Y-99995501D01*
X152789983Y-99996219D01*
X152719720Y-99997979D01*
X152659250Y-100000784D01*
X152612930Y-100004638D01*
X152585119Y-100009543D01*
X152579427Y-100012500D01*
X152573686Y-100028963D01*
X152564345Y-100066449D01*
X152552215Y-100121225D01*
X152538107Y-100189555D01*
X152522830Y-100267706D01*
X152514823Y-100310284D01*
X152499721Y-100391071D01*
X152486040Y-100463113D01*
X152474467Y-100522889D01*
X152465687Y-100566879D01*
X152460387Y-100591561D01*
X152459212Y-100595623D01*
X152445965Y-100602489D01*
X152414057Y-100617002D01*
X152368047Y-100637229D01*
X152312492Y-100661234D01*
X152251953Y-100687082D01*
X152190986Y-100712840D01*
X152134151Y-100736573D01*
X152086006Y-100756346D01*
X152051110Y-100770224D01*
X152034021Y-100776274D01*
X152033274Y-100776386D01*
X152019793Y-100769528D01*
X151988770Y-100750302D01*
X151943289Y-100720728D01*
X151886432Y-100682827D01*
X151821283Y-100638620D01*
X151783862Y-100612921D01*
X151715247Y-100566093D01*
X151652952Y-100524501D01*
X151600129Y-100490175D01*
X151559927Y-100465143D01*
X151535500Y-100451435D01*
X151530024Y-100449456D01*
X151517278Y-100457966D01*
X151490063Y-100481493D01*
X151451428Y-100517032D01*
X151404423Y-100561577D01*
X151352095Y-100612123D01*
X151297495Y-100665664D01*
X151243670Y-100719195D01*
X151193670Y-100769711D01*
X151150543Y-100814206D01*
X151117339Y-100849675D01*
X151097106Y-100873113D01*
X151092278Y-100880954D01*
X151099067Y-100893720D01*
X151118142Y-100924256D01*
X151147561Y-100969590D01*
X151185381Y-101026756D01*
X151229661Y-101092784D01*
X151263395Y-101142590D01*
X151434512Y-101394236D01*
X151348041Y-101603999D01*
X151261570Y-101813763D01*
X150960018Y-101870611D01*
X150658466Y-101927460D01*
X150658466Y-102555115D01*
X150960018Y-102611964D01*
D13*
X170513333Y-98087381D02*
X170513333Y-98801667D01*
X170560953Y-98944524D01*
X170656191Y-99039762D01*
X170799048Y-99087381D01*
X170894286Y-99087381D01*
X170132381Y-98087381D02*
X169465714Y-98087381D01*
X169894286Y-99087381D01*
M02*
