G04 #@! TF.FileFunction,Paste,Top*
%FSLAX46Y46*%
G04 Gerber Fmt 4.6, Leading zero omitted, Abs format (unit mm)*
G04 Created by KiCad (PCBNEW 4.0.7-e2-6376~58~ubuntu17.04.1) date Sat Oct 28 19:32:16 2017*
%MOMM*%
%LPD*%
G01*
G04 APERTURE LIST*
%ADD10C,0.100000*%
%ADD11R,1.200000X0.750000*%
%ADD12R,0.750000X1.200000*%
%ADD13R,0.800000X0.800000*%
%ADD14R,0.600000X1.500000*%
%ADD15R,1.900000X1.500000*%
%ADD16R,1.350000X0.400000*%
%ADD17R,1.200000X0.900000*%
%ADD18R,0.700000X1.700000*%
%ADD19R,0.900000X1.200000*%
G04 APERTURE END LIST*
D10*
D11*
X140655000Y-107315000D03*
X142555000Y-107315000D03*
X140655000Y-110490000D03*
X142555000Y-110490000D03*
X153350000Y-120650000D03*
X151450000Y-120650000D03*
D12*
X158115000Y-111440000D03*
X158115000Y-109540000D03*
D13*
X142405000Y-100330000D03*
X140805000Y-100330000D03*
X142405000Y-103505000D03*
X140805000Y-103505000D03*
X137160000Y-101765000D03*
X137160000Y-100165000D03*
D14*
X154940000Y-107155000D03*
X153670000Y-107155000D03*
X152400000Y-107155000D03*
X151130000Y-107155000D03*
X149860000Y-107155000D03*
X148590000Y-107155000D03*
X147320000Y-107155000D03*
X146050000Y-107155000D03*
X146050000Y-112555000D03*
X147320000Y-112555000D03*
X148590000Y-112555000D03*
X149860000Y-112555000D03*
X151130000Y-112555000D03*
X152400000Y-112555000D03*
X153670000Y-112555000D03*
X154940000Y-112555000D03*
D15*
X134905000Y-108950000D03*
D16*
X137605000Y-107300000D03*
X137605000Y-106650000D03*
X137605000Y-109250000D03*
X137605000Y-108600000D03*
X137605000Y-107950000D03*
D15*
X134905000Y-106950000D03*
D17*
X149690000Y-100330000D03*
X147490000Y-100330000D03*
X156040000Y-100330000D03*
X153840000Y-100330000D03*
X151300000Y-115570000D03*
X153500000Y-115570000D03*
X153840000Y-103505000D03*
X156040000Y-103505000D03*
D18*
X146755000Y-103505000D03*
X147955000Y-103505000D03*
X149155000Y-103505000D03*
D19*
X147700000Y-115570000D03*
X144400000Y-115570000D03*
X144400000Y-120650000D03*
X147700000Y-120650000D03*
M02*
