G04 #@! TF.FileFunction,Soldermask,Top*
%FSLAX46Y46*%
G04 Gerber Fmt 4.6, Leading zero omitted, Abs format (unit mm)*
G04 Created by KiCad (PCBNEW 4.0.7-e2-6376~58~ubuntu17.04.1) date Sat Oct 28 19:32:16 2017*
%MOMM*%
%LPD*%
G01*
G04 APERTURE LIST*
%ADD10C,0.100000*%
%ADD11R,1.600000X1.150000*%
%ADD12R,1.150000X1.600000*%
%ADD13R,1.200000X1.200000*%
%ADD14R,1.000000X1.900000*%
%ADD15R,2.300000X1.900000*%
%ADD16C,1.850000*%
%ADD17R,1.750000X0.800000*%
%ADD18O,2.300000X1.600000*%
%ADD19R,2.300000X1.600000*%
%ADD20R,2.100000X2.100000*%
%ADD21O,2.100000X2.100000*%
%ADD22R,1.600000X1.300000*%
%ADD23R,1.100000X2.100000*%
%ADD24R,1.300000X1.600000*%
G04 APERTURE END LIST*
D10*
D11*
X140655000Y-107315000D03*
X142555000Y-107315000D03*
X140655000Y-110490000D03*
X142555000Y-110490000D03*
X153350000Y-120650000D03*
X151450000Y-120650000D03*
D12*
X158115000Y-111440000D03*
X158115000Y-109540000D03*
D13*
X142405000Y-100330000D03*
X140805000Y-100330000D03*
X142405000Y-103505000D03*
X140805000Y-103505000D03*
X137160000Y-101765000D03*
X137160000Y-100165000D03*
D14*
X154940000Y-107155000D03*
X153670000Y-107155000D03*
X152400000Y-107155000D03*
X151130000Y-107155000D03*
X149860000Y-107155000D03*
X148590000Y-107155000D03*
X147320000Y-107155000D03*
X146050000Y-107155000D03*
X146050000Y-112555000D03*
X147320000Y-112555000D03*
X148590000Y-112555000D03*
X149860000Y-112555000D03*
X151130000Y-112555000D03*
X152400000Y-112555000D03*
X153670000Y-112555000D03*
X154940000Y-112555000D03*
D15*
X134905000Y-108950000D03*
D16*
X137605000Y-105450000D03*
D17*
X137605000Y-107300000D03*
X137605000Y-106650000D03*
X137605000Y-109250000D03*
X137605000Y-108600000D03*
X137605000Y-107950000D03*
D16*
X137605000Y-110450000D03*
D15*
X134905000Y-106950000D03*
D18*
X134905000Y-104450000D03*
X134905000Y-111450000D03*
D19*
X134905000Y-110850000D03*
X134905000Y-105050000D03*
D20*
X164465000Y-106680000D03*
D21*
X167005000Y-106680000D03*
X164465000Y-109220000D03*
X167005000Y-109220000D03*
X164465000Y-111760000D03*
X167005000Y-111760000D03*
X164465000Y-114300000D03*
X167005000Y-114300000D03*
X164465000Y-116840000D03*
X167005000Y-116840000D03*
D20*
X140335000Y-120015000D03*
D21*
X140335000Y-117475000D03*
X140335000Y-114935000D03*
D22*
X149690000Y-100330000D03*
X147490000Y-100330000D03*
X156040000Y-100330000D03*
X153840000Y-100330000D03*
X151300000Y-115570000D03*
X153500000Y-115570000D03*
X153840000Y-103505000D03*
X156040000Y-103505000D03*
D23*
X146755000Y-103505000D03*
X147955000Y-103505000D03*
X149155000Y-103505000D03*
D20*
X167640000Y-125730000D03*
D21*
X165100000Y-125730000D03*
X162560000Y-125730000D03*
X160020000Y-125730000D03*
X157480000Y-125730000D03*
X154940000Y-125730000D03*
X152400000Y-125730000D03*
X149860000Y-125730000D03*
X147320000Y-125730000D03*
X144780000Y-125730000D03*
X142240000Y-125730000D03*
X139700000Y-125730000D03*
D20*
X134620000Y-114300000D03*
D21*
X134620000Y-116840000D03*
X134620000Y-119380000D03*
X134620000Y-121920000D03*
X134620000Y-124460000D03*
D20*
X139065000Y-96520000D03*
D21*
X141605000Y-96520000D03*
X144145000Y-96520000D03*
X146685000Y-96520000D03*
X149225000Y-96520000D03*
X151765000Y-96520000D03*
X154305000Y-96520000D03*
X156845000Y-96520000D03*
X159385000Y-96520000D03*
X161925000Y-96520000D03*
X164465000Y-96520000D03*
X167005000Y-96520000D03*
D24*
X147700000Y-115570000D03*
X144400000Y-115570000D03*
X144400000Y-120650000D03*
X147700000Y-120650000D03*
M02*
