G04 #@! TF.FileFunction,Paste,Top*
%FSLAX46Y46*%
G04 Gerber Fmt 4.6, Leading zero omitted, Abs format (unit mm)*
G04 Created by KiCad (PCBNEW 4.0.7-e2-6376~58~ubuntu17.04.1) date Wed Oct  4 00:26:39 2017*
%MOMM*%
%LPD*%
G01*
G04 APERTURE LIST*
%ADD10C,0.100000*%
%ADD11R,0.800000X0.800000*%
%ADD12R,0.600000X1.500000*%
%ADD13R,1.900000X1.500000*%
%ADD14R,1.350000X0.400000*%
%ADD15R,1.700000X0.700000*%
%ADD16R,1.200000X0.750000*%
%ADD17R,1.200000X0.900000*%
G04 APERTURE END LIST*
D10*
D11*
X150025000Y-104140000D03*
X148425000Y-104140000D03*
X150025000Y-100965000D03*
X148425000Y-100965000D03*
D12*
X163195000Y-107790000D03*
X161925000Y-107790000D03*
X160655000Y-107790000D03*
X159385000Y-107790000D03*
X158115000Y-107790000D03*
X156845000Y-107790000D03*
X155575000Y-107790000D03*
X154305000Y-107790000D03*
X154305000Y-113190000D03*
X155575000Y-113190000D03*
X156845000Y-113190000D03*
X158115000Y-113190000D03*
X159385000Y-113190000D03*
X160655000Y-113190000D03*
X161925000Y-113190000D03*
X163195000Y-113190000D03*
D13*
X148240000Y-111490000D03*
D14*
X150940000Y-109840000D03*
X150940000Y-109190000D03*
X150940000Y-111790000D03*
X150940000Y-111140000D03*
X150940000Y-110490000D03*
D13*
X148240000Y-109490000D03*
D15*
X166370000Y-110420000D03*
X166370000Y-109220000D03*
X166370000Y-108020000D03*
D16*
X166685000Y-100965000D03*
X164785000Y-100965000D03*
X166685000Y-104140000D03*
X164785000Y-104140000D03*
D17*
X158920000Y-100965000D03*
X161120000Y-100965000D03*
X158920000Y-104140000D03*
X161120000Y-104140000D03*
X155405000Y-104140000D03*
X153205000Y-104140000D03*
X153205000Y-100965000D03*
X155405000Y-100965000D03*
M02*
