M48
INCH,TZ
T1C0.016
T2C0.024
T3C0.033
T4C0.039
%
G90
G05
T1
X54647Y-42985
X55476Y-39990
X56560Y-42332
X56567Y-43539
X58208Y-41295
X58694Y-45393
X59181Y-47581
X59372Y-39467
X59627Y-41689
X59750Y-40896
X61251Y-41732
X61895Y-43137
X62250Y-43000
T3
X54175Y-41516
X54175Y-43484
T4
X53000Y-45000
X53000Y-46000
X53000Y-47000
X53000Y-48000
X53000Y-49000
X54750Y-38000
X55000Y-49500
X55250Y-45250
X55250Y-46250
X55250Y-47250
X55750Y-38000
X56000Y-49500
X56750Y-38000
X57000Y-49500
X57750Y-38000
X58000Y-49500
X58750Y-38000
X59000Y-49500
X59750Y-38000
X60000Y-49500
X60750Y-38000
X61000Y-49500
X61750Y-38000
X62000Y-49500
X62750Y-38000
X63000Y-49500
X63750Y-38000
X64000Y-49500
X64750Y-38000
X64750Y-42000
X64750Y-43000
X64750Y-44000
X64750Y-45000
X64750Y-46000
X65000Y-49500
X65750Y-38000
X65750Y-42000
X65750Y-43000
X65750Y-44000
X65750Y-45000
X65750Y-46000
X66000Y-49500
T2
X52974Y-41122G85X53250Y-41122
G05
X53250Y-43878G85X52974Y-43878
G05
T0
M30
