G04 #@! TF.FileFunction,Copper,L1,Top,Signal*
%FSLAX46Y46*%
G04 Gerber Fmt 4.6, Leading zero omitted, Abs format (unit mm)*
G04 Created by KiCad (PCBNEW 4.0.7-e2-6376~58~ubuntu17.04.1) date Wed Oct  4 00:26:39 2017*
%MOMM*%
%LPD*%
G01*
G04 APERTURE LIST*
%ADD10C,0.100000*%
%ADD11R,0.800000X0.800000*%
%ADD12R,0.600000X1.500000*%
%ADD13R,1.900000X1.500000*%
%ADD14C,1.450000*%
%ADD15R,1.350000X0.400000*%
%ADD16O,1.900000X1.200000*%
%ADD17R,1.900000X1.200000*%
%ADD18R,1.700000X1.700000*%
%ADD19O,1.700000X1.700000*%
%ADD20R,1.700000X0.700000*%
%ADD21R,1.200000X0.750000*%
%ADD22R,1.200000X0.900000*%
%ADD23C,0.600000*%
%ADD24C,0.250000*%
%ADD25C,0.254000*%
G04 APERTURE END LIST*
D10*
D11*
X150025000Y-104140000D03*
X148425000Y-104140000D03*
X150025000Y-100965000D03*
X148425000Y-100965000D03*
D12*
X163195000Y-107790000D03*
X161925000Y-107790000D03*
X160655000Y-107790000D03*
X159385000Y-107790000D03*
X158115000Y-107790000D03*
X156845000Y-107790000D03*
X155575000Y-107790000D03*
X154305000Y-107790000D03*
X154305000Y-113190000D03*
X155575000Y-113190000D03*
X156845000Y-113190000D03*
X158115000Y-113190000D03*
X159385000Y-113190000D03*
X160655000Y-113190000D03*
X161925000Y-113190000D03*
X163195000Y-113190000D03*
D13*
X148240000Y-111490000D03*
D14*
X150940000Y-107990000D03*
D15*
X150940000Y-109840000D03*
X150940000Y-109190000D03*
X150940000Y-111790000D03*
X150940000Y-111140000D03*
X150940000Y-110490000D03*
D14*
X150940000Y-112990000D03*
D13*
X148240000Y-109490000D03*
D16*
X148240000Y-106990000D03*
X148240000Y-113990000D03*
D17*
X148240000Y-113390000D03*
X148240000Y-107590000D03*
D18*
X149225000Y-96520000D03*
D19*
X151765000Y-96520000D03*
X154305000Y-96520000D03*
X156845000Y-96520000D03*
X159385000Y-96520000D03*
X161925000Y-96520000D03*
X164465000Y-96520000D03*
X167005000Y-96520000D03*
D18*
X149225000Y-125730000D03*
D19*
X151765000Y-125730000D03*
X154305000Y-125730000D03*
X156845000Y-125730000D03*
X159385000Y-125730000D03*
X161925000Y-125730000D03*
X164465000Y-125730000D03*
X167005000Y-125730000D03*
D18*
X165100000Y-118110000D03*
D19*
X165100000Y-120650000D03*
X162560000Y-118110000D03*
X162560000Y-120650000D03*
X160020000Y-118110000D03*
X160020000Y-120650000D03*
X157480000Y-118110000D03*
X157480000Y-120650000D03*
X154940000Y-118110000D03*
X154940000Y-120650000D03*
D20*
X166370000Y-110420000D03*
X166370000Y-109220000D03*
X166370000Y-108020000D03*
D21*
X166685000Y-100965000D03*
X164785000Y-100965000D03*
X166685000Y-104140000D03*
X164785000Y-104140000D03*
D22*
X158920000Y-100965000D03*
X161120000Y-100965000D03*
X158920000Y-104140000D03*
X161120000Y-104140000D03*
X155405000Y-104140000D03*
X153205000Y-104140000D03*
X153205000Y-100965000D03*
X155405000Y-100965000D03*
D18*
X170180000Y-100965000D03*
D19*
X170180000Y-103505000D03*
X170180000Y-106045000D03*
X170180000Y-108585000D03*
X170180000Y-111125000D03*
X170180000Y-113665000D03*
X170180000Y-116205000D03*
X170180000Y-118745000D03*
X170180000Y-121285000D03*
D23*
X166912100Y-101998200D03*
X159472500Y-106208200D03*
X163672700Y-104327000D03*
X164465000Y-106045000D03*
X165017400Y-109397300D03*
X163390600Y-106519100D03*
X152152100Y-111782400D03*
X164965800Y-100083900D03*
X161911100Y-105729800D03*
X162347800Y-100631500D03*
X161401000Y-103162000D03*
D24*
X159385000Y-106295700D02*
X159385000Y-107790000D01*
X159472500Y-106208200D02*
X159385000Y-106295700D01*
X166912100Y-101892400D02*
X166912100Y-101998200D01*
X166685000Y-101665300D02*
X166912100Y-101892400D01*
X166685000Y-100965000D02*
X166685000Y-101665300D01*
X163672700Y-104327000D02*
X163672700Y-105252700D01*
X163672700Y-104327000D02*
X163859700Y-104140000D01*
X164785000Y-104140000D02*
X163859700Y-104140000D01*
X163672700Y-105252700D02*
X164465000Y-106045000D01*
X163390600Y-106519100D02*
X163195000Y-106714700D01*
X165017400Y-109397300D02*
X165194700Y-109220000D01*
X166370000Y-109220000D02*
X165194700Y-109220000D01*
X163195000Y-106714700D02*
X163195000Y-107790000D01*
X150940000Y-111790000D02*
X151940300Y-111790000D01*
X151947900Y-111782400D02*
X151940300Y-111790000D01*
X152152100Y-111782400D02*
X151947900Y-111782400D01*
X164785000Y-100965000D02*
X164785000Y-100264700D01*
X164965800Y-100083900D02*
X164785000Y-100264700D01*
X165100000Y-120650000D02*
X165100000Y-119474700D01*
X163195000Y-113190000D02*
X163195000Y-114265300D01*
X151765000Y-96520000D02*
X152940300Y-96520000D01*
X154305000Y-96520000D02*
X152940300Y-96520000D01*
X165955400Y-119474700D02*
X165100000Y-119474700D01*
X169004700Y-116425400D02*
X165955400Y-119474700D01*
X169004700Y-116205000D02*
X169004700Y-116425400D01*
X170180000Y-116205000D02*
X169004700Y-116205000D01*
X154305000Y-96520000D02*
X154305000Y-101408200D01*
X155262300Y-102365500D02*
X154305000Y-101408200D01*
X165610800Y-102365500D02*
X155262300Y-102365500D01*
X166685000Y-103439700D02*
X165610800Y-102365500D01*
X166685000Y-104140000D02*
X166685000Y-103439700D01*
X163820300Y-114890600D02*
X163826100Y-114890600D01*
X163195000Y-114265300D02*
X163820300Y-114890600D01*
X164291900Y-119474700D02*
X165100000Y-119474700D01*
X163826100Y-119008900D02*
X164291900Y-119474700D01*
X163826100Y-114890600D02*
X163826100Y-119008900D01*
X168043500Y-106198800D02*
X166685000Y-104840300D01*
X168043500Y-110673200D02*
X168043500Y-106198800D01*
X163826100Y-114890600D02*
X168043500Y-110673200D01*
X166685000Y-104140000D02*
X166685000Y-104840300D01*
X150025000Y-104140000D02*
X150025000Y-103414700D01*
X153972800Y-101740400D02*
X151525700Y-101740400D01*
X154305000Y-101408200D02*
X153972800Y-101740400D01*
X150940000Y-109190000D02*
X151940300Y-109190000D01*
X151525700Y-101914000D02*
X150025000Y-103414700D01*
X151525700Y-101740400D02*
X151525700Y-101914000D01*
X152011000Y-109119300D02*
X151940300Y-109190000D01*
X152011000Y-107510900D02*
X152011000Y-109119300D01*
X151069900Y-106569800D02*
X152011000Y-107510900D01*
X149565700Y-106569800D02*
X151069900Y-106569800D01*
X147693600Y-104697700D02*
X149565700Y-106569800D01*
X147693600Y-103607600D02*
X147693600Y-104697700D01*
X147886500Y-103414700D02*
X147693600Y-103607600D01*
X150025000Y-103414700D02*
X147886500Y-103414700D01*
X150025000Y-100965000D02*
X150387700Y-100965000D01*
X150387700Y-100965000D02*
X150750300Y-100965000D01*
X151525700Y-101740400D02*
X150750300Y-100965000D01*
X149150300Y-104593300D02*
X149150300Y-104140000D01*
X149472300Y-104915300D02*
X149150300Y-104593300D01*
X155405000Y-104915300D02*
X149472300Y-104915300D01*
X155405000Y-104140000D02*
X155405000Y-104915300D01*
X148425000Y-104140000D02*
X149150300Y-104140000D01*
X152279700Y-100965000D02*
X151554400Y-100239700D01*
X153205000Y-100965000D02*
X152279700Y-100965000D01*
X148425000Y-100965000D02*
X149150300Y-100965000D01*
X149150300Y-100511600D02*
X149150300Y-100965000D01*
X149422200Y-100239700D02*
X149150300Y-100511600D01*
X151554400Y-100239700D02*
X149422200Y-100239700D01*
X161925000Y-105743700D02*
X161925000Y-107790000D01*
X161911100Y-105729800D02*
X161925000Y-105743700D01*
X161120000Y-100965000D02*
X162045300Y-100965000D01*
X162045300Y-100934000D02*
X162347800Y-100631500D01*
X162045300Y-100965000D02*
X162045300Y-100934000D01*
X161120000Y-106249700D02*
X160655000Y-106714700D01*
X161120000Y-104140000D02*
X161120000Y-106249700D01*
X160655000Y-107790000D02*
X160655000Y-106714700D01*
X156490300Y-110490000D02*
X158115000Y-108865300D01*
X150940000Y-110490000D02*
X156490300Y-110490000D01*
X158115000Y-107790000D02*
X158115000Y-108865300D01*
X155119600Y-106714700D02*
X156845000Y-106714700D01*
X154949600Y-106884700D02*
X155119600Y-106714700D01*
X154949600Y-108671100D02*
X154949600Y-106884700D01*
X153780700Y-109840000D02*
X154949600Y-108671100D01*
X150940000Y-109840000D02*
X153780700Y-109840000D01*
X156845000Y-107790000D02*
X156845000Y-106714700D01*
X166370000Y-108020000D02*
X165194700Y-108020000D01*
X155575000Y-107790000D02*
X155575000Y-108865300D01*
X163880500Y-109334200D02*
X165194700Y-108020000D01*
X159321600Y-109334200D02*
X163880500Y-109334200D01*
X158759600Y-108772200D02*
X159321600Y-109334200D01*
X158759600Y-106870100D02*
X158759600Y-108772200D01*
X158604100Y-106714600D02*
X158759600Y-106870100D01*
X157680300Y-106714600D02*
X158604100Y-106714600D01*
X157478000Y-106916900D02*
X157680300Y-106714600D01*
X157478000Y-108736300D02*
X157478000Y-106916900D01*
X157349000Y-108865300D02*
X157478000Y-108736300D01*
X155575000Y-108865300D02*
X157349000Y-108865300D01*
X155455400Y-105564300D02*
X154305000Y-106714700D01*
X159733400Y-105564300D02*
X155455400Y-105564300D01*
X160127000Y-105957900D02*
X159733400Y-105564300D01*
X160127000Y-106438200D02*
X160127000Y-105957900D01*
X160029600Y-106535600D02*
X160127000Y-106438200D01*
X160029600Y-108674700D02*
X160029600Y-106535600D01*
X160220200Y-108865300D02*
X160029600Y-108674700D01*
X163700600Y-108865300D02*
X160220200Y-108865300D01*
X165232000Y-107333900D02*
X163700600Y-108865300D01*
X167375700Y-107333900D02*
X165232000Y-107333900D01*
X167545300Y-107503500D02*
X167375700Y-107333900D01*
X167545300Y-110420000D02*
X167545300Y-107503500D01*
X166370000Y-110420000D02*
X167545300Y-110420000D01*
X154305000Y-107790000D02*
X154305000Y-106714700D01*
X148240000Y-113990000D02*
X148240000Y-113390000D01*
X148240000Y-106990000D02*
X148240000Y-107590000D01*
X149915300Y-112990000D02*
X150940000Y-112990000D01*
X149515300Y-113390000D02*
X149915300Y-112990000D01*
X148240000Y-107590000D02*
X148877700Y-107590000D01*
X148240000Y-113390000D02*
X148877700Y-113390000D01*
X148877700Y-113390000D02*
X149515300Y-113390000D01*
X148240000Y-112752300D02*
X148240000Y-111490000D01*
X148877700Y-113390000D02*
X148240000Y-112752300D01*
X148240000Y-109490000D02*
X148240000Y-111490000D01*
X148877700Y-107590000D02*
X148877700Y-107908800D01*
X148371800Y-108414700D02*
X148877700Y-107908800D01*
X148240000Y-108414700D02*
X148371800Y-108414700D01*
X150858800Y-107908800D02*
X150940000Y-107990000D01*
X148877700Y-107908800D02*
X150858800Y-107908800D01*
X148240000Y-109490000D02*
X148240000Y-108414700D01*
X165100000Y-114473600D02*
X165100000Y-118110000D01*
X169813300Y-109760300D02*
X165100000Y-114473600D01*
X170180000Y-109760300D02*
X169813300Y-109760300D01*
X170180000Y-108585000D02*
X170180000Y-109760300D01*
X161401000Y-103162000D02*
X159122700Y-103162000D01*
X158920000Y-104140000D02*
X158920000Y-103364700D01*
X153205000Y-103364700D02*
X158920000Y-103364700D01*
X153205000Y-104140000D02*
X153205000Y-103364700D01*
X159122700Y-103162000D02*
X158920000Y-103364700D01*
X155405000Y-100965000D02*
X156330300Y-100965000D01*
X159439700Y-101872300D02*
X158920000Y-101352600D01*
X165860400Y-101872300D02*
X159439700Y-101872300D01*
X169004700Y-105016600D02*
X165860400Y-101872300D01*
X169004700Y-106045000D02*
X169004700Y-105016600D01*
X170180000Y-106045000D02*
X169004700Y-106045000D01*
X158920000Y-100965000D02*
X158920000Y-101061900D01*
X158920000Y-101061900D02*
X158920000Y-101352600D01*
X156427200Y-101061900D02*
X156330300Y-100965000D01*
X158920000Y-101061900D02*
X156427200Y-101061900D01*
D25*
G36*
X164885000Y-109505750D02*
X164885000Y-109696309D01*
X164930967Y-109807283D01*
X164923569Y-109818110D01*
X164872560Y-110070000D01*
X164872560Y-110770000D01*
X164916838Y-111005317D01*
X165055910Y-111221441D01*
X165268110Y-111366431D01*
X165520000Y-111417440D01*
X166224458Y-111417440D01*
X164142440Y-113499458D01*
X164142440Y-112440000D01*
X164098162Y-112204683D01*
X163959090Y-111988559D01*
X163746890Y-111843569D01*
X163495000Y-111792560D01*
X162895000Y-111792560D01*
X162659683Y-111836838D01*
X162560472Y-111900678D01*
X162476890Y-111843569D01*
X162225000Y-111792560D01*
X161625000Y-111792560D01*
X161389683Y-111836838D01*
X161290472Y-111900678D01*
X161206890Y-111843569D01*
X160955000Y-111792560D01*
X160355000Y-111792560D01*
X160119683Y-111836838D01*
X160020472Y-111900678D01*
X159936890Y-111843569D01*
X159685000Y-111792560D01*
X159085000Y-111792560D01*
X158849683Y-111836838D01*
X158750472Y-111900678D01*
X158666890Y-111843569D01*
X158415000Y-111792560D01*
X157815000Y-111792560D01*
X157579683Y-111836838D01*
X157480472Y-111900678D01*
X157396890Y-111843569D01*
X157145000Y-111792560D01*
X156545000Y-111792560D01*
X156309683Y-111836838D01*
X156210472Y-111900678D01*
X156126890Y-111843569D01*
X155875000Y-111792560D01*
X155275000Y-111792560D01*
X155039683Y-111836838D01*
X154940472Y-111900678D01*
X154856890Y-111843569D01*
X154605000Y-111792560D01*
X154005000Y-111792560D01*
X153769683Y-111836838D01*
X153553559Y-111975910D01*
X153408569Y-112188110D01*
X153357560Y-112440000D01*
X153357560Y-113940000D01*
X153401838Y-114175317D01*
X153540910Y-114391441D01*
X153753110Y-114536431D01*
X154005000Y-114587440D01*
X154605000Y-114587440D01*
X154840317Y-114543162D01*
X154939528Y-114479322D01*
X155023110Y-114536431D01*
X155275000Y-114587440D01*
X155875000Y-114587440D01*
X156110317Y-114543162D01*
X156209528Y-114479322D01*
X156293110Y-114536431D01*
X156545000Y-114587440D01*
X157145000Y-114587440D01*
X157380317Y-114543162D01*
X157479528Y-114479322D01*
X157563110Y-114536431D01*
X157815000Y-114587440D01*
X158415000Y-114587440D01*
X158650317Y-114543162D01*
X158749528Y-114479322D01*
X158833110Y-114536431D01*
X159085000Y-114587440D01*
X159685000Y-114587440D01*
X159920317Y-114543162D01*
X160019528Y-114479322D01*
X160103110Y-114536431D01*
X160355000Y-114587440D01*
X160955000Y-114587440D01*
X161190317Y-114543162D01*
X161289528Y-114479322D01*
X161373110Y-114536431D01*
X161625000Y-114587440D01*
X162225000Y-114587440D01*
X162460317Y-114543162D01*
X162486872Y-114526074D01*
X162492852Y-114556139D01*
X162657599Y-114802701D01*
X163066100Y-115211202D01*
X163066100Y-116696577D01*
X162560000Y-116595907D01*
X161991715Y-116708946D01*
X161509946Y-117030853D01*
X161290000Y-117360026D01*
X161070054Y-117030853D01*
X160588285Y-116708946D01*
X160020000Y-116595907D01*
X159451715Y-116708946D01*
X158969946Y-117030853D01*
X158750000Y-117360026D01*
X158530054Y-117030853D01*
X158048285Y-116708946D01*
X157480000Y-116595907D01*
X156911715Y-116708946D01*
X156429946Y-117030853D01*
X156210000Y-117360026D01*
X155990054Y-117030853D01*
X155508285Y-116708946D01*
X154940000Y-116595907D01*
X154371715Y-116708946D01*
X153889946Y-117030853D01*
X153568039Y-117512622D01*
X153455000Y-118080907D01*
X153455000Y-118139093D01*
X153568039Y-118707378D01*
X153889946Y-119189147D01*
X154173101Y-119378345D01*
X154173076Y-119378355D01*
X153744817Y-119768642D01*
X153498514Y-120293108D01*
X153619181Y-120523000D01*
X154813000Y-120523000D01*
X154813000Y-120503000D01*
X155067000Y-120503000D01*
X155067000Y-120523000D01*
X157353000Y-120523000D01*
X157353000Y-120503000D01*
X157607000Y-120503000D01*
X157607000Y-120523000D01*
X159893000Y-120523000D01*
X159893000Y-120503000D01*
X160147000Y-120503000D01*
X160147000Y-120523000D01*
X162433000Y-120523000D01*
X162433000Y-120503000D01*
X162687000Y-120503000D01*
X162687000Y-120523000D01*
X162707000Y-120523000D01*
X162707000Y-120777000D01*
X162687000Y-120777000D01*
X162687000Y-121970155D01*
X162916890Y-122091476D01*
X163326924Y-121921645D01*
X163755183Y-121531358D01*
X163822298Y-121388447D01*
X164049946Y-121729147D01*
X164531715Y-122051054D01*
X165100000Y-122164093D01*
X165668285Y-122051054D01*
X166150054Y-121729147D01*
X166471961Y-121247378D01*
X166585000Y-120679093D01*
X166585000Y-120620907D01*
X166471961Y-120052622D01*
X166459675Y-120034235D01*
X166492801Y-120012101D01*
X169190169Y-117314733D01*
X169441553Y-117482702D01*
X169298642Y-117549817D01*
X168908355Y-117978076D01*
X168738524Y-118388110D01*
X168859845Y-118618000D01*
X170053000Y-118618000D01*
X170053000Y-118598000D01*
X170307000Y-118598000D01*
X170307000Y-118618000D01*
X170327000Y-118618000D01*
X170327000Y-118872000D01*
X170307000Y-118872000D01*
X170307000Y-118892000D01*
X170053000Y-118892000D01*
X170053000Y-118872000D01*
X168859845Y-118872000D01*
X168738524Y-119101890D01*
X168908355Y-119511924D01*
X169298642Y-119940183D01*
X169441553Y-120007298D01*
X169100853Y-120234946D01*
X168778946Y-120716715D01*
X168665907Y-121285000D01*
X168778946Y-121853285D01*
X169100853Y-122335054D01*
X169582622Y-122656961D01*
X170150907Y-122770000D01*
X170209093Y-122770000D01*
X170777378Y-122656961D01*
X171259147Y-122335054D01*
X171375000Y-122161667D01*
X171375000Y-125435909D01*
X169250908Y-127560000D01*
X147395000Y-127560000D01*
X147395000Y-124880000D01*
X147727560Y-124880000D01*
X147727560Y-126580000D01*
X147771838Y-126815317D01*
X147910910Y-127031441D01*
X148123110Y-127176431D01*
X148375000Y-127227440D01*
X150075000Y-127227440D01*
X150310317Y-127183162D01*
X150526441Y-127044090D01*
X150671431Y-126831890D01*
X150685086Y-126764459D01*
X150714946Y-126809147D01*
X151196715Y-127131054D01*
X151765000Y-127244093D01*
X152333285Y-127131054D01*
X152815054Y-126809147D01*
X153035000Y-126479974D01*
X153254946Y-126809147D01*
X153736715Y-127131054D01*
X154305000Y-127244093D01*
X154873285Y-127131054D01*
X155355054Y-126809147D01*
X155575000Y-126479974D01*
X155794946Y-126809147D01*
X156276715Y-127131054D01*
X156845000Y-127244093D01*
X157413285Y-127131054D01*
X157895054Y-126809147D01*
X158115000Y-126479974D01*
X158334946Y-126809147D01*
X158816715Y-127131054D01*
X159385000Y-127244093D01*
X159953285Y-127131054D01*
X160435054Y-126809147D01*
X160655000Y-126479974D01*
X160874946Y-126809147D01*
X161356715Y-127131054D01*
X161925000Y-127244093D01*
X162493285Y-127131054D01*
X162975054Y-126809147D01*
X163195000Y-126479974D01*
X163414946Y-126809147D01*
X163896715Y-127131054D01*
X164465000Y-127244093D01*
X165033285Y-127131054D01*
X165515054Y-126809147D01*
X165735000Y-126479974D01*
X165954946Y-126809147D01*
X166436715Y-127131054D01*
X167005000Y-127244093D01*
X167573285Y-127131054D01*
X168055054Y-126809147D01*
X168376961Y-126327378D01*
X168490000Y-125759093D01*
X168490000Y-125700907D01*
X168376961Y-125132622D01*
X168055054Y-124650853D01*
X167573285Y-124328946D01*
X167005000Y-124215907D01*
X166436715Y-124328946D01*
X165954946Y-124650853D01*
X165735000Y-124980026D01*
X165515054Y-124650853D01*
X165033285Y-124328946D01*
X164465000Y-124215907D01*
X163896715Y-124328946D01*
X163414946Y-124650853D01*
X163195000Y-124980026D01*
X162975054Y-124650853D01*
X162493285Y-124328946D01*
X161925000Y-124215907D01*
X161356715Y-124328946D01*
X160874946Y-124650853D01*
X160655000Y-124980026D01*
X160435054Y-124650853D01*
X159953285Y-124328946D01*
X159385000Y-124215907D01*
X158816715Y-124328946D01*
X158334946Y-124650853D01*
X158115000Y-124980026D01*
X157895054Y-124650853D01*
X157413285Y-124328946D01*
X156845000Y-124215907D01*
X156276715Y-124328946D01*
X155794946Y-124650853D01*
X155575000Y-124980026D01*
X155355054Y-124650853D01*
X154873285Y-124328946D01*
X154305000Y-124215907D01*
X153736715Y-124328946D01*
X153254946Y-124650853D01*
X153035000Y-124980026D01*
X152815054Y-124650853D01*
X152333285Y-124328946D01*
X151765000Y-124215907D01*
X151196715Y-124328946D01*
X150714946Y-124650853D01*
X150687150Y-124692452D01*
X150678162Y-124644683D01*
X150539090Y-124428559D01*
X150326890Y-124283569D01*
X150075000Y-124232560D01*
X148375000Y-124232560D01*
X148139683Y-124276838D01*
X147923559Y-124415910D01*
X147778569Y-124628110D01*
X147727560Y-124880000D01*
X147395000Y-124880000D01*
X147395000Y-121006892D01*
X153498514Y-121006892D01*
X153744817Y-121531358D01*
X154173076Y-121921645D01*
X154583110Y-122091476D01*
X154813000Y-121970155D01*
X154813000Y-120777000D01*
X155067000Y-120777000D01*
X155067000Y-121970155D01*
X155296890Y-122091476D01*
X155706924Y-121921645D01*
X156135183Y-121531358D01*
X156210000Y-121372046D01*
X156284817Y-121531358D01*
X156713076Y-121921645D01*
X157123110Y-122091476D01*
X157353000Y-121970155D01*
X157353000Y-120777000D01*
X157607000Y-120777000D01*
X157607000Y-121970155D01*
X157836890Y-122091476D01*
X158246924Y-121921645D01*
X158675183Y-121531358D01*
X158750000Y-121372046D01*
X158824817Y-121531358D01*
X159253076Y-121921645D01*
X159663110Y-122091476D01*
X159893000Y-121970155D01*
X159893000Y-120777000D01*
X160147000Y-120777000D01*
X160147000Y-121970155D01*
X160376890Y-122091476D01*
X160786924Y-121921645D01*
X161215183Y-121531358D01*
X161290000Y-121372046D01*
X161364817Y-121531358D01*
X161793076Y-121921645D01*
X162203110Y-122091476D01*
X162433000Y-121970155D01*
X162433000Y-120777000D01*
X160147000Y-120777000D01*
X159893000Y-120777000D01*
X157607000Y-120777000D01*
X157353000Y-120777000D01*
X155067000Y-120777000D01*
X154813000Y-120777000D01*
X153619181Y-120777000D01*
X153498514Y-121006892D01*
X147395000Y-121006892D01*
X147395000Y-115132715D01*
X147858948Y-115225000D01*
X148621052Y-115225000D01*
X149093666Y-115130991D01*
X149494329Y-114863277D01*
X149762043Y-114462614D01*
X149840270Y-114069343D01*
X149993560Y-113966918D01*
X150168616Y-114142280D01*
X150668292Y-114349763D01*
X151209334Y-114350236D01*
X151709372Y-114143624D01*
X152092280Y-113761384D01*
X152299763Y-113261708D01*
X152300236Y-112720666D01*
X152148818Y-112354207D01*
X152153327Y-112349698D01*
X152250000Y-112116309D01*
X152250000Y-112048750D01*
X152091250Y-111890000D01*
X151932933Y-111890000D01*
X152066441Y-111804090D01*
X152211431Y-111591890D01*
X152217035Y-111564215D01*
X152250000Y-111531250D01*
X152250000Y-111463691D01*
X152241532Y-111443247D01*
X152262440Y-111340000D01*
X152262440Y-111250000D01*
X156490300Y-111250000D01*
X156781139Y-111192148D01*
X157027701Y-111027401D01*
X158483850Y-109571252D01*
X158784199Y-109871601D01*
X159030761Y-110036348D01*
X159321600Y-110094200D01*
X163880500Y-110094200D01*
X164171339Y-110036348D01*
X164417901Y-109871601D01*
X164942500Y-109347002D01*
X165043748Y-109347002D01*
X164885000Y-109505750D01*
X164885000Y-109505750D01*
G37*
X164885000Y-109505750D02*
X164885000Y-109696309D01*
X164930967Y-109807283D01*
X164923569Y-109818110D01*
X164872560Y-110070000D01*
X164872560Y-110770000D01*
X164916838Y-111005317D01*
X165055910Y-111221441D01*
X165268110Y-111366431D01*
X165520000Y-111417440D01*
X166224458Y-111417440D01*
X164142440Y-113499458D01*
X164142440Y-112440000D01*
X164098162Y-112204683D01*
X163959090Y-111988559D01*
X163746890Y-111843569D01*
X163495000Y-111792560D01*
X162895000Y-111792560D01*
X162659683Y-111836838D01*
X162560472Y-111900678D01*
X162476890Y-111843569D01*
X162225000Y-111792560D01*
X161625000Y-111792560D01*
X161389683Y-111836838D01*
X161290472Y-111900678D01*
X161206890Y-111843569D01*
X160955000Y-111792560D01*
X160355000Y-111792560D01*
X160119683Y-111836838D01*
X160020472Y-111900678D01*
X159936890Y-111843569D01*
X159685000Y-111792560D01*
X159085000Y-111792560D01*
X158849683Y-111836838D01*
X158750472Y-111900678D01*
X158666890Y-111843569D01*
X158415000Y-111792560D01*
X157815000Y-111792560D01*
X157579683Y-111836838D01*
X157480472Y-111900678D01*
X157396890Y-111843569D01*
X157145000Y-111792560D01*
X156545000Y-111792560D01*
X156309683Y-111836838D01*
X156210472Y-111900678D01*
X156126890Y-111843569D01*
X155875000Y-111792560D01*
X155275000Y-111792560D01*
X155039683Y-111836838D01*
X154940472Y-111900678D01*
X154856890Y-111843569D01*
X154605000Y-111792560D01*
X154005000Y-111792560D01*
X153769683Y-111836838D01*
X153553559Y-111975910D01*
X153408569Y-112188110D01*
X153357560Y-112440000D01*
X153357560Y-113940000D01*
X153401838Y-114175317D01*
X153540910Y-114391441D01*
X153753110Y-114536431D01*
X154005000Y-114587440D01*
X154605000Y-114587440D01*
X154840317Y-114543162D01*
X154939528Y-114479322D01*
X155023110Y-114536431D01*
X155275000Y-114587440D01*
X155875000Y-114587440D01*
X156110317Y-114543162D01*
X156209528Y-114479322D01*
X156293110Y-114536431D01*
X156545000Y-114587440D01*
X157145000Y-114587440D01*
X157380317Y-114543162D01*
X157479528Y-114479322D01*
X157563110Y-114536431D01*
X157815000Y-114587440D01*
X158415000Y-114587440D01*
X158650317Y-114543162D01*
X158749528Y-114479322D01*
X158833110Y-114536431D01*
X159085000Y-114587440D01*
X159685000Y-114587440D01*
X159920317Y-114543162D01*
X160019528Y-114479322D01*
X160103110Y-114536431D01*
X160355000Y-114587440D01*
X160955000Y-114587440D01*
X161190317Y-114543162D01*
X161289528Y-114479322D01*
X161373110Y-114536431D01*
X161625000Y-114587440D01*
X162225000Y-114587440D01*
X162460317Y-114543162D01*
X162486872Y-114526074D01*
X162492852Y-114556139D01*
X162657599Y-114802701D01*
X163066100Y-115211202D01*
X163066100Y-116696577D01*
X162560000Y-116595907D01*
X161991715Y-116708946D01*
X161509946Y-117030853D01*
X161290000Y-117360026D01*
X161070054Y-117030853D01*
X160588285Y-116708946D01*
X160020000Y-116595907D01*
X159451715Y-116708946D01*
X158969946Y-117030853D01*
X158750000Y-117360026D01*
X158530054Y-117030853D01*
X158048285Y-116708946D01*
X157480000Y-116595907D01*
X156911715Y-116708946D01*
X156429946Y-117030853D01*
X156210000Y-117360026D01*
X155990054Y-117030853D01*
X155508285Y-116708946D01*
X154940000Y-116595907D01*
X154371715Y-116708946D01*
X153889946Y-117030853D01*
X153568039Y-117512622D01*
X153455000Y-118080907D01*
X153455000Y-118139093D01*
X153568039Y-118707378D01*
X153889946Y-119189147D01*
X154173101Y-119378345D01*
X154173076Y-119378355D01*
X153744817Y-119768642D01*
X153498514Y-120293108D01*
X153619181Y-120523000D01*
X154813000Y-120523000D01*
X154813000Y-120503000D01*
X155067000Y-120503000D01*
X155067000Y-120523000D01*
X157353000Y-120523000D01*
X157353000Y-120503000D01*
X157607000Y-120503000D01*
X157607000Y-120523000D01*
X159893000Y-120523000D01*
X159893000Y-120503000D01*
X160147000Y-120503000D01*
X160147000Y-120523000D01*
X162433000Y-120523000D01*
X162433000Y-120503000D01*
X162687000Y-120503000D01*
X162687000Y-120523000D01*
X162707000Y-120523000D01*
X162707000Y-120777000D01*
X162687000Y-120777000D01*
X162687000Y-121970155D01*
X162916890Y-122091476D01*
X163326924Y-121921645D01*
X163755183Y-121531358D01*
X163822298Y-121388447D01*
X164049946Y-121729147D01*
X164531715Y-122051054D01*
X165100000Y-122164093D01*
X165668285Y-122051054D01*
X166150054Y-121729147D01*
X166471961Y-121247378D01*
X166585000Y-120679093D01*
X166585000Y-120620907D01*
X166471961Y-120052622D01*
X166459675Y-120034235D01*
X166492801Y-120012101D01*
X169190169Y-117314733D01*
X169441553Y-117482702D01*
X169298642Y-117549817D01*
X168908355Y-117978076D01*
X168738524Y-118388110D01*
X168859845Y-118618000D01*
X170053000Y-118618000D01*
X170053000Y-118598000D01*
X170307000Y-118598000D01*
X170307000Y-118618000D01*
X170327000Y-118618000D01*
X170327000Y-118872000D01*
X170307000Y-118872000D01*
X170307000Y-118892000D01*
X170053000Y-118892000D01*
X170053000Y-118872000D01*
X168859845Y-118872000D01*
X168738524Y-119101890D01*
X168908355Y-119511924D01*
X169298642Y-119940183D01*
X169441553Y-120007298D01*
X169100853Y-120234946D01*
X168778946Y-120716715D01*
X168665907Y-121285000D01*
X168778946Y-121853285D01*
X169100853Y-122335054D01*
X169582622Y-122656961D01*
X170150907Y-122770000D01*
X170209093Y-122770000D01*
X170777378Y-122656961D01*
X171259147Y-122335054D01*
X171375000Y-122161667D01*
X171375000Y-125435909D01*
X169250908Y-127560000D01*
X147395000Y-127560000D01*
X147395000Y-124880000D01*
X147727560Y-124880000D01*
X147727560Y-126580000D01*
X147771838Y-126815317D01*
X147910910Y-127031441D01*
X148123110Y-127176431D01*
X148375000Y-127227440D01*
X150075000Y-127227440D01*
X150310317Y-127183162D01*
X150526441Y-127044090D01*
X150671431Y-126831890D01*
X150685086Y-126764459D01*
X150714946Y-126809147D01*
X151196715Y-127131054D01*
X151765000Y-127244093D01*
X152333285Y-127131054D01*
X152815054Y-126809147D01*
X153035000Y-126479974D01*
X153254946Y-126809147D01*
X153736715Y-127131054D01*
X154305000Y-127244093D01*
X154873285Y-127131054D01*
X155355054Y-126809147D01*
X155575000Y-126479974D01*
X155794946Y-126809147D01*
X156276715Y-127131054D01*
X156845000Y-127244093D01*
X157413285Y-127131054D01*
X157895054Y-126809147D01*
X158115000Y-126479974D01*
X158334946Y-126809147D01*
X158816715Y-127131054D01*
X159385000Y-127244093D01*
X159953285Y-127131054D01*
X160435054Y-126809147D01*
X160655000Y-126479974D01*
X160874946Y-126809147D01*
X161356715Y-127131054D01*
X161925000Y-127244093D01*
X162493285Y-127131054D01*
X162975054Y-126809147D01*
X163195000Y-126479974D01*
X163414946Y-126809147D01*
X163896715Y-127131054D01*
X164465000Y-127244093D01*
X165033285Y-127131054D01*
X165515054Y-126809147D01*
X165735000Y-126479974D01*
X165954946Y-126809147D01*
X166436715Y-127131054D01*
X167005000Y-127244093D01*
X167573285Y-127131054D01*
X168055054Y-126809147D01*
X168376961Y-126327378D01*
X168490000Y-125759093D01*
X168490000Y-125700907D01*
X168376961Y-125132622D01*
X168055054Y-124650853D01*
X167573285Y-124328946D01*
X167005000Y-124215907D01*
X166436715Y-124328946D01*
X165954946Y-124650853D01*
X165735000Y-124980026D01*
X165515054Y-124650853D01*
X165033285Y-124328946D01*
X164465000Y-124215907D01*
X163896715Y-124328946D01*
X163414946Y-124650853D01*
X163195000Y-124980026D01*
X162975054Y-124650853D01*
X162493285Y-124328946D01*
X161925000Y-124215907D01*
X161356715Y-124328946D01*
X160874946Y-124650853D01*
X160655000Y-124980026D01*
X160435054Y-124650853D01*
X159953285Y-124328946D01*
X159385000Y-124215907D01*
X158816715Y-124328946D01*
X158334946Y-124650853D01*
X158115000Y-124980026D01*
X157895054Y-124650853D01*
X157413285Y-124328946D01*
X156845000Y-124215907D01*
X156276715Y-124328946D01*
X155794946Y-124650853D01*
X155575000Y-124980026D01*
X155355054Y-124650853D01*
X154873285Y-124328946D01*
X154305000Y-124215907D01*
X153736715Y-124328946D01*
X153254946Y-124650853D01*
X153035000Y-124980026D01*
X152815054Y-124650853D01*
X152333285Y-124328946D01*
X151765000Y-124215907D01*
X151196715Y-124328946D01*
X150714946Y-124650853D01*
X150687150Y-124692452D01*
X150678162Y-124644683D01*
X150539090Y-124428559D01*
X150326890Y-124283569D01*
X150075000Y-124232560D01*
X148375000Y-124232560D01*
X148139683Y-124276838D01*
X147923559Y-124415910D01*
X147778569Y-124628110D01*
X147727560Y-124880000D01*
X147395000Y-124880000D01*
X147395000Y-121006892D01*
X153498514Y-121006892D01*
X153744817Y-121531358D01*
X154173076Y-121921645D01*
X154583110Y-122091476D01*
X154813000Y-121970155D01*
X154813000Y-120777000D01*
X155067000Y-120777000D01*
X155067000Y-121970155D01*
X155296890Y-122091476D01*
X155706924Y-121921645D01*
X156135183Y-121531358D01*
X156210000Y-121372046D01*
X156284817Y-121531358D01*
X156713076Y-121921645D01*
X157123110Y-122091476D01*
X157353000Y-121970155D01*
X157353000Y-120777000D01*
X157607000Y-120777000D01*
X157607000Y-121970155D01*
X157836890Y-122091476D01*
X158246924Y-121921645D01*
X158675183Y-121531358D01*
X158750000Y-121372046D01*
X158824817Y-121531358D01*
X159253076Y-121921645D01*
X159663110Y-122091476D01*
X159893000Y-121970155D01*
X159893000Y-120777000D01*
X160147000Y-120777000D01*
X160147000Y-121970155D01*
X160376890Y-122091476D01*
X160786924Y-121921645D01*
X161215183Y-121531358D01*
X161290000Y-121372046D01*
X161364817Y-121531358D01*
X161793076Y-121921645D01*
X162203110Y-122091476D01*
X162433000Y-121970155D01*
X162433000Y-120777000D01*
X160147000Y-120777000D01*
X159893000Y-120777000D01*
X157607000Y-120777000D01*
X157353000Y-120777000D01*
X155067000Y-120777000D01*
X154813000Y-120777000D01*
X153619181Y-120777000D01*
X153498514Y-121006892D01*
X147395000Y-121006892D01*
X147395000Y-115132715D01*
X147858948Y-115225000D01*
X148621052Y-115225000D01*
X149093666Y-115130991D01*
X149494329Y-114863277D01*
X149762043Y-114462614D01*
X149840270Y-114069343D01*
X149993560Y-113966918D01*
X150168616Y-114142280D01*
X150668292Y-114349763D01*
X151209334Y-114350236D01*
X151709372Y-114143624D01*
X152092280Y-113761384D01*
X152299763Y-113261708D01*
X152300236Y-112720666D01*
X152148818Y-112354207D01*
X152153327Y-112349698D01*
X152250000Y-112116309D01*
X152250000Y-112048750D01*
X152091250Y-111890000D01*
X151932933Y-111890000D01*
X152066441Y-111804090D01*
X152211431Y-111591890D01*
X152217035Y-111564215D01*
X152250000Y-111531250D01*
X152250000Y-111463691D01*
X152241532Y-111443247D01*
X152262440Y-111340000D01*
X152262440Y-111250000D01*
X156490300Y-111250000D01*
X156781139Y-111192148D01*
X157027701Y-111027401D01*
X158483850Y-109571252D01*
X158784199Y-109871601D01*
X159030761Y-110036348D01*
X159321600Y-110094200D01*
X163880500Y-110094200D01*
X164171339Y-110036348D01*
X164417901Y-109871601D01*
X164942500Y-109347002D01*
X165043748Y-109347002D01*
X164885000Y-109505750D01*
G36*
X166497000Y-109093000D02*
X166517000Y-109093000D01*
X166517000Y-109347000D01*
X166497000Y-109347000D01*
X166497000Y-109367000D01*
X166243000Y-109367000D01*
X166243000Y-109347000D01*
X166223000Y-109347000D01*
X166223000Y-109093000D01*
X166243000Y-109093000D01*
X166243000Y-109073000D01*
X166497000Y-109073000D01*
X166497000Y-109093000D01*
X166497000Y-109093000D01*
G37*
X166497000Y-109093000D02*
X166517000Y-109093000D01*
X166517000Y-109347000D01*
X166497000Y-109347000D01*
X166497000Y-109367000D01*
X166243000Y-109367000D01*
X166243000Y-109347000D01*
X166223000Y-109347000D01*
X166223000Y-109093000D01*
X166243000Y-109093000D01*
X166243000Y-109073000D01*
X166497000Y-109073000D01*
X166497000Y-109093000D01*
G36*
X165300498Y-103130000D02*
X165070750Y-103130000D01*
X164912000Y-103288750D01*
X164912000Y-104013000D01*
X164932000Y-104013000D01*
X164932000Y-104267000D01*
X164912000Y-104267000D01*
X164912000Y-104991250D01*
X165070750Y-105150000D01*
X165511309Y-105150000D01*
X165744698Y-105053327D01*
X165746068Y-105051957D01*
X165833110Y-105111431D01*
X165991055Y-105143416D01*
X166147599Y-105377701D01*
X167283500Y-106513602D01*
X167283500Y-106573900D01*
X165232000Y-106573900D01*
X164941161Y-106631752D01*
X164694599Y-106796499D01*
X164130000Y-107361098D01*
X164130000Y-106913691D01*
X164033327Y-106680302D01*
X163854699Y-106501673D01*
X163621310Y-106405000D01*
X163480750Y-106405000D01*
X163322000Y-106563750D01*
X163322000Y-107663000D01*
X163342000Y-107663000D01*
X163342000Y-107917000D01*
X163322000Y-107917000D01*
X163322000Y-107937000D01*
X163068000Y-107937000D01*
X163068000Y-107917000D01*
X163048000Y-107917000D01*
X163048000Y-107663000D01*
X163068000Y-107663000D01*
X163068000Y-106563750D01*
X162909250Y-106405000D01*
X162768690Y-106405000D01*
X162685000Y-106439666D01*
X162685000Y-106278387D01*
X162703292Y-106260127D01*
X162845938Y-105916599D01*
X162846262Y-105544633D01*
X162704217Y-105200857D01*
X162441427Y-104937608D01*
X162293110Y-104876021D01*
X162316431Y-104841890D01*
X162367440Y-104590000D01*
X162367440Y-104425750D01*
X163550000Y-104425750D01*
X163550000Y-104641310D01*
X163646673Y-104874699D01*
X163825302Y-105053327D01*
X164058691Y-105150000D01*
X164499250Y-105150000D01*
X164658000Y-104991250D01*
X164658000Y-104267000D01*
X163708750Y-104267000D01*
X163550000Y-104425750D01*
X162367440Y-104425750D01*
X162367440Y-103690000D01*
X162357786Y-103638690D01*
X163550000Y-103638690D01*
X163550000Y-103854250D01*
X163708750Y-104013000D01*
X164658000Y-104013000D01*
X164658000Y-103288750D01*
X164499250Y-103130000D01*
X164058691Y-103130000D01*
X163825302Y-103226673D01*
X163646673Y-103405301D01*
X163550000Y-103638690D01*
X162357786Y-103638690D01*
X162323162Y-103454683D01*
X162304144Y-103425127D01*
X162335838Y-103348799D01*
X162336033Y-103125500D01*
X165295998Y-103125500D01*
X165300498Y-103130000D01*
X165300498Y-103130000D01*
G37*
X165300498Y-103130000D02*
X165070750Y-103130000D01*
X164912000Y-103288750D01*
X164912000Y-104013000D01*
X164932000Y-104013000D01*
X164932000Y-104267000D01*
X164912000Y-104267000D01*
X164912000Y-104991250D01*
X165070750Y-105150000D01*
X165511309Y-105150000D01*
X165744698Y-105053327D01*
X165746068Y-105051957D01*
X165833110Y-105111431D01*
X165991055Y-105143416D01*
X166147599Y-105377701D01*
X167283500Y-106513602D01*
X167283500Y-106573900D01*
X165232000Y-106573900D01*
X164941161Y-106631752D01*
X164694599Y-106796499D01*
X164130000Y-107361098D01*
X164130000Y-106913691D01*
X164033327Y-106680302D01*
X163854699Y-106501673D01*
X163621310Y-106405000D01*
X163480750Y-106405000D01*
X163322000Y-106563750D01*
X163322000Y-107663000D01*
X163342000Y-107663000D01*
X163342000Y-107917000D01*
X163322000Y-107917000D01*
X163322000Y-107937000D01*
X163068000Y-107937000D01*
X163068000Y-107917000D01*
X163048000Y-107917000D01*
X163048000Y-107663000D01*
X163068000Y-107663000D01*
X163068000Y-106563750D01*
X162909250Y-106405000D01*
X162768690Y-106405000D01*
X162685000Y-106439666D01*
X162685000Y-106278387D01*
X162703292Y-106260127D01*
X162845938Y-105916599D01*
X162846262Y-105544633D01*
X162704217Y-105200857D01*
X162441427Y-104937608D01*
X162293110Y-104876021D01*
X162316431Y-104841890D01*
X162367440Y-104590000D01*
X162367440Y-104425750D01*
X163550000Y-104425750D01*
X163550000Y-104641310D01*
X163646673Y-104874699D01*
X163825302Y-105053327D01*
X164058691Y-105150000D01*
X164499250Y-105150000D01*
X164658000Y-104991250D01*
X164658000Y-104267000D01*
X163708750Y-104267000D01*
X163550000Y-104425750D01*
X162367440Y-104425750D01*
X162367440Y-103690000D01*
X162357786Y-103638690D01*
X163550000Y-103638690D01*
X163550000Y-103854250D01*
X163708750Y-104013000D01*
X164658000Y-104013000D01*
X164658000Y-103288750D01*
X164499250Y-103130000D01*
X164058691Y-103130000D01*
X163825302Y-103226673D01*
X163646673Y-103405301D01*
X163550000Y-103638690D01*
X162357786Y-103638690D01*
X162323162Y-103454683D01*
X162304144Y-103425127D01*
X162335838Y-103348799D01*
X162336033Y-103125500D01*
X165295998Y-103125500D01*
X165300498Y-103130000D01*
G36*
X171375000Y-97449092D02*
X171375000Y-99582188D01*
X171281890Y-99518569D01*
X171030000Y-99467560D01*
X169330000Y-99467560D01*
X169094683Y-99511838D01*
X168878559Y-99650910D01*
X168733569Y-99863110D01*
X168682560Y-100115000D01*
X168682560Y-101815000D01*
X168726838Y-102050317D01*
X168865910Y-102266441D01*
X169078110Y-102411431D01*
X169145541Y-102425086D01*
X169100853Y-102454946D01*
X168778946Y-102936715D01*
X168665907Y-103505000D01*
X168690242Y-103627340D01*
X167647811Y-102584909D01*
X167704292Y-102528527D01*
X167846938Y-102184999D01*
X167847262Y-101813033D01*
X167803198Y-101706389D01*
X167881431Y-101591890D01*
X167932440Y-101340000D01*
X167932440Y-100590000D01*
X167888162Y-100354683D01*
X167749090Y-100138559D01*
X167536890Y-99993569D01*
X167285000Y-99942560D01*
X166085000Y-99942560D01*
X165849683Y-99986838D01*
X165746354Y-100053329D01*
X165744698Y-100051673D01*
X165511309Y-99955000D01*
X165070750Y-99955000D01*
X164912000Y-100113750D01*
X164912000Y-100838000D01*
X164932000Y-100838000D01*
X164932000Y-101092000D01*
X164912000Y-101092000D01*
X164912000Y-101112000D01*
X164658000Y-101112000D01*
X164658000Y-101092000D01*
X163708750Y-101092000D01*
X163688450Y-101112300D01*
X163160558Y-101112300D01*
X163282638Y-100818299D01*
X163282946Y-100463690D01*
X163550000Y-100463690D01*
X163550000Y-100679250D01*
X163708750Y-100838000D01*
X164658000Y-100838000D01*
X164658000Y-100113750D01*
X164499250Y-99955000D01*
X164058691Y-99955000D01*
X163825302Y-100051673D01*
X163646673Y-100230301D01*
X163550000Y-100463690D01*
X163282946Y-100463690D01*
X163282962Y-100446333D01*
X163140917Y-100102557D01*
X162878127Y-99839308D01*
X162534599Y-99696662D01*
X162162633Y-99696338D01*
X161818857Y-99838383D01*
X161777886Y-99879282D01*
X161720000Y-99867560D01*
X160520000Y-99867560D01*
X160284683Y-99911838D01*
X160068559Y-100050910D01*
X160020866Y-100120711D01*
X159984090Y-100063559D01*
X159771890Y-99918569D01*
X159520000Y-99867560D01*
X158320000Y-99867560D01*
X158084683Y-99911838D01*
X157868559Y-100050910D01*
X157723569Y-100263110D01*
X157715714Y-100301900D01*
X156679579Y-100301900D01*
X156621139Y-100262852D01*
X156593837Y-100257421D01*
X156469090Y-100063559D01*
X156256890Y-99918569D01*
X156005000Y-99867560D01*
X155065000Y-99867560D01*
X155065000Y-97792954D01*
X155355054Y-97599147D01*
X155582702Y-97258447D01*
X155649817Y-97401358D01*
X156078076Y-97791645D01*
X156488110Y-97961476D01*
X156718000Y-97840155D01*
X156718000Y-96647000D01*
X156972000Y-96647000D01*
X156972000Y-97840155D01*
X157201890Y-97961476D01*
X157611924Y-97791645D01*
X158040183Y-97401358D01*
X158115000Y-97242046D01*
X158189817Y-97401358D01*
X158618076Y-97791645D01*
X159028110Y-97961476D01*
X159258000Y-97840155D01*
X159258000Y-96647000D01*
X156972000Y-96647000D01*
X156718000Y-96647000D01*
X156698000Y-96647000D01*
X156698000Y-96393000D01*
X156718000Y-96393000D01*
X156718000Y-95199845D01*
X156972000Y-95199845D01*
X156972000Y-96393000D01*
X159258000Y-96393000D01*
X159258000Y-95199845D01*
X159512000Y-95199845D01*
X159512000Y-96393000D01*
X159532000Y-96393000D01*
X159532000Y-96647000D01*
X159512000Y-96647000D01*
X159512000Y-97840155D01*
X159741890Y-97961476D01*
X160151924Y-97791645D01*
X160580183Y-97401358D01*
X160647298Y-97258447D01*
X160874946Y-97599147D01*
X161356715Y-97921054D01*
X161925000Y-98034093D01*
X162493285Y-97921054D01*
X162975054Y-97599147D01*
X163195000Y-97269974D01*
X163414946Y-97599147D01*
X163896715Y-97921054D01*
X164465000Y-98034093D01*
X165033285Y-97921054D01*
X165515054Y-97599147D01*
X165735000Y-97269974D01*
X165954946Y-97599147D01*
X166436715Y-97921054D01*
X167005000Y-98034093D01*
X167573285Y-97921054D01*
X168055054Y-97599147D01*
X168376961Y-97117378D01*
X168490000Y-96549093D01*
X168490000Y-96490907D01*
X168376961Y-95922622D01*
X168055054Y-95440853D01*
X167573285Y-95118946D01*
X167005000Y-95005907D01*
X166436715Y-95118946D01*
X165954946Y-95440853D01*
X165735000Y-95770026D01*
X165515054Y-95440853D01*
X165033285Y-95118946D01*
X164465000Y-95005907D01*
X163896715Y-95118946D01*
X163414946Y-95440853D01*
X163195000Y-95770026D01*
X162975054Y-95440853D01*
X162493285Y-95118946D01*
X161925000Y-95005907D01*
X161356715Y-95118946D01*
X160874946Y-95440853D01*
X160647298Y-95781553D01*
X160580183Y-95638642D01*
X160151924Y-95248355D01*
X159741890Y-95078524D01*
X159512000Y-95199845D01*
X159258000Y-95199845D01*
X159028110Y-95078524D01*
X158618076Y-95248355D01*
X158189817Y-95638642D01*
X158115000Y-95797954D01*
X158040183Y-95638642D01*
X157611924Y-95248355D01*
X157201890Y-95078524D01*
X156972000Y-95199845D01*
X156718000Y-95199845D01*
X156488110Y-95078524D01*
X156078076Y-95248355D01*
X155649817Y-95638642D01*
X155582702Y-95781553D01*
X155355054Y-95440853D01*
X154873285Y-95118946D01*
X154305000Y-95005907D01*
X153736715Y-95118946D01*
X153254946Y-95440853D01*
X153041699Y-95760000D01*
X153028301Y-95760000D01*
X152815054Y-95440853D01*
X152333285Y-95118946D01*
X151765000Y-95005907D01*
X151196715Y-95118946D01*
X150714946Y-95440853D01*
X150687150Y-95482452D01*
X150678162Y-95434683D01*
X150539090Y-95218559D01*
X150326890Y-95073569D01*
X150075000Y-95022560D01*
X148375000Y-95022560D01*
X148139683Y-95066838D01*
X147923559Y-95205910D01*
X147778569Y-95418110D01*
X147727560Y-95670000D01*
X147727560Y-97370000D01*
X147771838Y-97605317D01*
X147910910Y-97821441D01*
X148123110Y-97966431D01*
X148375000Y-98017440D01*
X150075000Y-98017440D01*
X150310317Y-97973162D01*
X150526441Y-97834090D01*
X150671431Y-97621890D01*
X150685086Y-97554459D01*
X150714946Y-97599147D01*
X151196715Y-97921054D01*
X151765000Y-98034093D01*
X152333285Y-97921054D01*
X152815054Y-97599147D01*
X153028301Y-97280000D01*
X153041699Y-97280000D01*
X153254946Y-97599147D01*
X153545000Y-97792954D01*
X153545000Y-99867560D01*
X152605000Y-99867560D01*
X152369683Y-99911838D01*
X152328099Y-99938597D01*
X152091801Y-99702299D01*
X151845239Y-99537552D01*
X151554400Y-99479700D01*
X149422200Y-99479700D01*
X149131361Y-99537552D01*
X148884799Y-99702299D01*
X148669538Y-99917560D01*
X148025000Y-99917560D01*
X147789683Y-99961838D01*
X147573559Y-100100910D01*
X147428569Y-100313110D01*
X147395000Y-100478879D01*
X147395000Y-94690000D01*
X168615908Y-94690000D01*
X171375000Y-97449092D01*
X171375000Y-97449092D01*
G37*
X171375000Y-97449092D02*
X171375000Y-99582188D01*
X171281890Y-99518569D01*
X171030000Y-99467560D01*
X169330000Y-99467560D01*
X169094683Y-99511838D01*
X168878559Y-99650910D01*
X168733569Y-99863110D01*
X168682560Y-100115000D01*
X168682560Y-101815000D01*
X168726838Y-102050317D01*
X168865910Y-102266441D01*
X169078110Y-102411431D01*
X169145541Y-102425086D01*
X169100853Y-102454946D01*
X168778946Y-102936715D01*
X168665907Y-103505000D01*
X168690242Y-103627340D01*
X167647811Y-102584909D01*
X167704292Y-102528527D01*
X167846938Y-102184999D01*
X167847262Y-101813033D01*
X167803198Y-101706389D01*
X167881431Y-101591890D01*
X167932440Y-101340000D01*
X167932440Y-100590000D01*
X167888162Y-100354683D01*
X167749090Y-100138559D01*
X167536890Y-99993569D01*
X167285000Y-99942560D01*
X166085000Y-99942560D01*
X165849683Y-99986838D01*
X165746354Y-100053329D01*
X165744698Y-100051673D01*
X165511309Y-99955000D01*
X165070750Y-99955000D01*
X164912000Y-100113750D01*
X164912000Y-100838000D01*
X164932000Y-100838000D01*
X164932000Y-101092000D01*
X164912000Y-101092000D01*
X164912000Y-101112000D01*
X164658000Y-101112000D01*
X164658000Y-101092000D01*
X163708750Y-101092000D01*
X163688450Y-101112300D01*
X163160558Y-101112300D01*
X163282638Y-100818299D01*
X163282946Y-100463690D01*
X163550000Y-100463690D01*
X163550000Y-100679250D01*
X163708750Y-100838000D01*
X164658000Y-100838000D01*
X164658000Y-100113750D01*
X164499250Y-99955000D01*
X164058691Y-99955000D01*
X163825302Y-100051673D01*
X163646673Y-100230301D01*
X163550000Y-100463690D01*
X163282946Y-100463690D01*
X163282962Y-100446333D01*
X163140917Y-100102557D01*
X162878127Y-99839308D01*
X162534599Y-99696662D01*
X162162633Y-99696338D01*
X161818857Y-99838383D01*
X161777886Y-99879282D01*
X161720000Y-99867560D01*
X160520000Y-99867560D01*
X160284683Y-99911838D01*
X160068559Y-100050910D01*
X160020866Y-100120711D01*
X159984090Y-100063559D01*
X159771890Y-99918569D01*
X159520000Y-99867560D01*
X158320000Y-99867560D01*
X158084683Y-99911838D01*
X157868559Y-100050910D01*
X157723569Y-100263110D01*
X157715714Y-100301900D01*
X156679579Y-100301900D01*
X156621139Y-100262852D01*
X156593837Y-100257421D01*
X156469090Y-100063559D01*
X156256890Y-99918569D01*
X156005000Y-99867560D01*
X155065000Y-99867560D01*
X155065000Y-97792954D01*
X155355054Y-97599147D01*
X155582702Y-97258447D01*
X155649817Y-97401358D01*
X156078076Y-97791645D01*
X156488110Y-97961476D01*
X156718000Y-97840155D01*
X156718000Y-96647000D01*
X156972000Y-96647000D01*
X156972000Y-97840155D01*
X157201890Y-97961476D01*
X157611924Y-97791645D01*
X158040183Y-97401358D01*
X158115000Y-97242046D01*
X158189817Y-97401358D01*
X158618076Y-97791645D01*
X159028110Y-97961476D01*
X159258000Y-97840155D01*
X159258000Y-96647000D01*
X156972000Y-96647000D01*
X156718000Y-96647000D01*
X156698000Y-96647000D01*
X156698000Y-96393000D01*
X156718000Y-96393000D01*
X156718000Y-95199845D01*
X156972000Y-95199845D01*
X156972000Y-96393000D01*
X159258000Y-96393000D01*
X159258000Y-95199845D01*
X159512000Y-95199845D01*
X159512000Y-96393000D01*
X159532000Y-96393000D01*
X159532000Y-96647000D01*
X159512000Y-96647000D01*
X159512000Y-97840155D01*
X159741890Y-97961476D01*
X160151924Y-97791645D01*
X160580183Y-97401358D01*
X160647298Y-97258447D01*
X160874946Y-97599147D01*
X161356715Y-97921054D01*
X161925000Y-98034093D01*
X162493285Y-97921054D01*
X162975054Y-97599147D01*
X163195000Y-97269974D01*
X163414946Y-97599147D01*
X163896715Y-97921054D01*
X164465000Y-98034093D01*
X165033285Y-97921054D01*
X165515054Y-97599147D01*
X165735000Y-97269974D01*
X165954946Y-97599147D01*
X166436715Y-97921054D01*
X167005000Y-98034093D01*
X167573285Y-97921054D01*
X168055054Y-97599147D01*
X168376961Y-97117378D01*
X168490000Y-96549093D01*
X168490000Y-96490907D01*
X168376961Y-95922622D01*
X168055054Y-95440853D01*
X167573285Y-95118946D01*
X167005000Y-95005907D01*
X166436715Y-95118946D01*
X165954946Y-95440853D01*
X165735000Y-95770026D01*
X165515054Y-95440853D01*
X165033285Y-95118946D01*
X164465000Y-95005907D01*
X163896715Y-95118946D01*
X163414946Y-95440853D01*
X163195000Y-95770026D01*
X162975054Y-95440853D01*
X162493285Y-95118946D01*
X161925000Y-95005907D01*
X161356715Y-95118946D01*
X160874946Y-95440853D01*
X160647298Y-95781553D01*
X160580183Y-95638642D01*
X160151924Y-95248355D01*
X159741890Y-95078524D01*
X159512000Y-95199845D01*
X159258000Y-95199845D01*
X159028110Y-95078524D01*
X158618076Y-95248355D01*
X158189817Y-95638642D01*
X158115000Y-95797954D01*
X158040183Y-95638642D01*
X157611924Y-95248355D01*
X157201890Y-95078524D01*
X156972000Y-95199845D01*
X156718000Y-95199845D01*
X156488110Y-95078524D01*
X156078076Y-95248355D01*
X155649817Y-95638642D01*
X155582702Y-95781553D01*
X155355054Y-95440853D01*
X154873285Y-95118946D01*
X154305000Y-95005907D01*
X153736715Y-95118946D01*
X153254946Y-95440853D01*
X153041699Y-95760000D01*
X153028301Y-95760000D01*
X152815054Y-95440853D01*
X152333285Y-95118946D01*
X151765000Y-95005907D01*
X151196715Y-95118946D01*
X150714946Y-95440853D01*
X150687150Y-95482452D01*
X150678162Y-95434683D01*
X150539090Y-95218559D01*
X150326890Y-95073569D01*
X150075000Y-95022560D01*
X148375000Y-95022560D01*
X148139683Y-95066838D01*
X147923559Y-95205910D01*
X147778569Y-95418110D01*
X147727560Y-95670000D01*
X147727560Y-97370000D01*
X147771838Y-97605317D01*
X147910910Y-97821441D01*
X148123110Y-97966431D01*
X148375000Y-98017440D01*
X150075000Y-98017440D01*
X150310317Y-97973162D01*
X150526441Y-97834090D01*
X150671431Y-97621890D01*
X150685086Y-97554459D01*
X150714946Y-97599147D01*
X151196715Y-97921054D01*
X151765000Y-98034093D01*
X152333285Y-97921054D01*
X152815054Y-97599147D01*
X153028301Y-97280000D01*
X153041699Y-97280000D01*
X153254946Y-97599147D01*
X153545000Y-97792954D01*
X153545000Y-99867560D01*
X152605000Y-99867560D01*
X152369683Y-99911838D01*
X152328099Y-99938597D01*
X152091801Y-99702299D01*
X151845239Y-99537552D01*
X151554400Y-99479700D01*
X149422200Y-99479700D01*
X149131361Y-99537552D01*
X148884799Y-99702299D01*
X148669538Y-99917560D01*
X148025000Y-99917560D01*
X147789683Y-99961838D01*
X147573559Y-100100910D01*
X147428569Y-100313110D01*
X147395000Y-100478879D01*
X147395000Y-94690000D01*
X168615908Y-94690000D01*
X171375000Y-97449092D01*
M02*
