G04 #@! TF.FileFunction,Soldermask,Bot*
%FSLAX46Y46*%
G04 Gerber Fmt 4.6, Leading zero omitted, Abs format (unit mm)*
G04 Created by KiCad (PCBNEW 4.0.7-e1-6374~58~ubuntu16.04.1) date Wed Aug  2 11:39:58 2017*
%MOMM*%
%LPD*%
G01*
G04 APERTURE LIST*
%ADD10C,0.100000*%
%ADD11C,0.300000*%
%ADD12R,2.100000X2.100000*%
%ADD13O,2.100000X2.100000*%
G04 APERTURE END LIST*
D10*
D11*
X175475001Y-92586429D02*
X175546430Y-92515000D01*
X175689287Y-92443571D01*
X176046430Y-92443571D01*
X176189287Y-92515000D01*
X176260716Y-92586429D01*
X176332144Y-92729286D01*
X176332144Y-92872143D01*
X176260716Y-93086429D01*
X175403573Y-93943571D01*
X176332144Y-93943571D01*
X177046429Y-93872143D02*
X177046429Y-93943571D01*
X176975001Y-94086429D01*
X176903572Y-94157857D01*
X178403573Y-92443571D02*
X177689287Y-92443571D01*
X177617858Y-93157857D01*
X177689287Y-93086429D01*
X177832144Y-93015000D01*
X178189287Y-93015000D01*
X178332144Y-93086429D01*
X178403573Y-93157857D01*
X178475001Y-93300714D01*
X178475001Y-93657857D01*
X178403573Y-93800714D01*
X178332144Y-93872143D01*
X178189287Y-93943571D01*
X177832144Y-93943571D01*
X177689287Y-93872143D01*
X177617858Y-93800714D01*
X179760715Y-92943571D02*
X179760715Y-93943571D01*
X179403572Y-92372143D02*
X179046429Y-93443571D01*
X179975001Y-93443571D01*
X180832143Y-92443571D02*
X180975000Y-92443571D01*
X181117857Y-92515000D01*
X181189286Y-92586429D01*
X181260715Y-92729286D01*
X181332143Y-93015000D01*
X181332143Y-93372143D01*
X181260715Y-93657857D01*
X181189286Y-93800714D01*
X181117857Y-93872143D01*
X180975000Y-93943571D01*
X180832143Y-93943571D01*
X180689286Y-93872143D01*
X180617857Y-93800714D01*
X180546429Y-93657857D01*
X180475000Y-93372143D01*
X180475000Y-93015000D01*
X180546429Y-92729286D01*
X180617857Y-92586429D01*
X180689286Y-92515000D01*
X180832143Y-92443571D01*
X183117857Y-93943571D02*
X183117857Y-92943571D01*
X183117857Y-93086429D02*
X183189285Y-93015000D01*
X183332143Y-92943571D01*
X183546428Y-92943571D01*
X183689285Y-93015000D01*
X183760714Y-93157857D01*
X183760714Y-93943571D01*
X183760714Y-93157857D02*
X183832143Y-93015000D01*
X183975000Y-92943571D01*
X184189285Y-92943571D01*
X184332143Y-93015000D01*
X184403571Y-93157857D01*
X184403571Y-93943571D01*
X185117857Y-93943571D02*
X185117857Y-92943571D01*
X185117857Y-93086429D02*
X185189285Y-93015000D01*
X185332143Y-92943571D01*
X185546428Y-92943571D01*
X185689285Y-93015000D01*
X185760714Y-93157857D01*
X185760714Y-93943571D01*
X185760714Y-93157857D02*
X185832143Y-93015000D01*
X185975000Y-92943571D01*
X186189285Y-92943571D01*
X186332143Y-93015000D01*
X186403571Y-93157857D01*
X186403571Y-93943571D01*
X182245000Y-94615000D02*
X179705000Y-94615000D01*
X182245000Y-101600000D02*
X182245000Y-91915000D01*
X179705000Y-101600000D02*
X179705000Y-91915000D01*
X179705000Y-94615000D02*
X180831504Y-94028579D01*
X179705000Y-94615000D02*
X180831504Y-95201421D01*
X182245000Y-94615000D02*
X181118496Y-94028579D01*
X182245000Y-94615000D02*
X181118496Y-95201421D01*
X178578573Y-95618571D02*
X179507144Y-95618571D01*
X179007144Y-96190000D01*
X179221430Y-96190000D01*
X179364287Y-96261429D01*
X179435716Y-96332857D01*
X179507144Y-96475714D01*
X179507144Y-96832857D01*
X179435716Y-96975714D01*
X179364287Y-97047143D01*
X179221430Y-97118571D01*
X178792858Y-97118571D01*
X178650001Y-97047143D01*
X178578573Y-96975714D01*
X180221429Y-97047143D02*
X180221429Y-97118571D01*
X180150001Y-97261429D01*
X180078572Y-97332857D01*
X181078573Y-96261429D02*
X180935715Y-96190000D01*
X180864287Y-96118571D01*
X180792858Y-95975714D01*
X180792858Y-95904286D01*
X180864287Y-95761429D01*
X180935715Y-95690000D01*
X181078573Y-95618571D01*
X181364287Y-95618571D01*
X181507144Y-95690000D01*
X181578573Y-95761429D01*
X181650001Y-95904286D01*
X181650001Y-95975714D01*
X181578573Y-96118571D01*
X181507144Y-96190000D01*
X181364287Y-96261429D01*
X181078573Y-96261429D01*
X180935715Y-96332857D01*
X180864287Y-96404286D01*
X180792858Y-96547143D01*
X180792858Y-96832857D01*
X180864287Y-96975714D01*
X180935715Y-97047143D01*
X181078573Y-97118571D01*
X181364287Y-97118571D01*
X181507144Y-97047143D01*
X181578573Y-96975714D01*
X181650001Y-96832857D01*
X181650001Y-96547143D01*
X181578573Y-96404286D01*
X181507144Y-96332857D01*
X181364287Y-96261429D01*
X183078572Y-97118571D02*
X182221429Y-97118571D01*
X182650001Y-97118571D02*
X182650001Y-95618571D01*
X182507144Y-95832857D01*
X182364286Y-95975714D01*
X182221429Y-96047143D01*
X184007143Y-95618571D02*
X184150000Y-95618571D01*
X184292857Y-95690000D01*
X184364286Y-95761429D01*
X184435715Y-95904286D01*
X184507143Y-96190000D01*
X184507143Y-96547143D01*
X184435715Y-96832857D01*
X184364286Y-96975714D01*
X184292857Y-97047143D01*
X184150000Y-97118571D01*
X184007143Y-97118571D01*
X183864286Y-97047143D01*
X183792857Y-96975714D01*
X183721429Y-96832857D01*
X183650000Y-96547143D01*
X183650000Y-96190000D01*
X183721429Y-95904286D01*
X183792857Y-95761429D01*
X183864286Y-95690000D01*
X184007143Y-95618571D01*
X186292857Y-97118571D02*
X186292857Y-96118571D01*
X186292857Y-96261429D02*
X186364285Y-96190000D01*
X186507143Y-96118571D01*
X186721428Y-96118571D01*
X186864285Y-96190000D01*
X186935714Y-96332857D01*
X186935714Y-97118571D01*
X186935714Y-96332857D02*
X187007143Y-96190000D01*
X187150000Y-96118571D01*
X187364285Y-96118571D01*
X187507143Y-96190000D01*
X187578571Y-96332857D01*
X187578571Y-97118571D01*
X188292857Y-97118571D02*
X188292857Y-96118571D01*
X188292857Y-96261429D02*
X188364285Y-96190000D01*
X188507143Y-96118571D01*
X188721428Y-96118571D01*
X188864285Y-96190000D01*
X188935714Y-96332857D01*
X188935714Y-97118571D01*
X188935714Y-96332857D02*
X189007143Y-96190000D01*
X189150000Y-96118571D01*
X189364285Y-96118571D01*
X189507143Y-96190000D01*
X189578571Y-96332857D01*
X189578571Y-97118571D01*
X186055000Y-97790000D02*
X182245000Y-97790000D01*
X186055000Y-101600000D02*
X186055000Y-95090000D01*
X182245000Y-101600000D02*
X182245000Y-95090000D01*
X182245000Y-97790000D02*
X183371504Y-97203579D01*
X182245000Y-97790000D02*
X183371504Y-98376421D01*
X186055000Y-97790000D02*
X184928496Y-97203579D01*
X186055000Y-97790000D02*
X184928496Y-98376421D01*
X164608573Y-92443571D02*
X165537144Y-92443571D01*
X165037144Y-93015000D01*
X165251430Y-93015000D01*
X165394287Y-93086429D01*
X165465716Y-93157857D01*
X165537144Y-93300714D01*
X165537144Y-93657857D01*
X165465716Y-93800714D01*
X165394287Y-93872143D01*
X165251430Y-93943571D01*
X164822858Y-93943571D01*
X164680001Y-93872143D01*
X164608573Y-93800714D01*
X166251429Y-93872143D02*
X166251429Y-93943571D01*
X166180001Y-94086429D01*
X166108572Y-94157857D01*
X167108573Y-93086429D02*
X166965715Y-93015000D01*
X166894287Y-92943571D01*
X166822858Y-92800714D01*
X166822858Y-92729286D01*
X166894287Y-92586429D01*
X166965715Y-92515000D01*
X167108573Y-92443571D01*
X167394287Y-92443571D01*
X167537144Y-92515000D01*
X167608573Y-92586429D01*
X167680001Y-92729286D01*
X167680001Y-92800714D01*
X167608573Y-92943571D01*
X167537144Y-93015000D01*
X167394287Y-93086429D01*
X167108573Y-93086429D01*
X166965715Y-93157857D01*
X166894287Y-93229286D01*
X166822858Y-93372143D01*
X166822858Y-93657857D01*
X166894287Y-93800714D01*
X166965715Y-93872143D01*
X167108573Y-93943571D01*
X167394287Y-93943571D01*
X167537144Y-93872143D01*
X167608573Y-93800714D01*
X167680001Y-93657857D01*
X167680001Y-93372143D01*
X167608573Y-93229286D01*
X167537144Y-93157857D01*
X167394287Y-93086429D01*
X169108572Y-93943571D02*
X168251429Y-93943571D01*
X168680001Y-93943571D02*
X168680001Y-92443571D01*
X168537144Y-92657857D01*
X168394286Y-92800714D01*
X168251429Y-92872143D01*
X170037143Y-92443571D02*
X170180000Y-92443571D01*
X170322857Y-92515000D01*
X170394286Y-92586429D01*
X170465715Y-92729286D01*
X170537143Y-93015000D01*
X170537143Y-93372143D01*
X170465715Y-93657857D01*
X170394286Y-93800714D01*
X170322857Y-93872143D01*
X170180000Y-93943571D01*
X170037143Y-93943571D01*
X169894286Y-93872143D01*
X169822857Y-93800714D01*
X169751429Y-93657857D01*
X169680000Y-93372143D01*
X169680000Y-93015000D01*
X169751429Y-92729286D01*
X169822857Y-92586429D01*
X169894286Y-92515000D01*
X170037143Y-92443571D01*
X172322857Y-93943571D02*
X172322857Y-92943571D01*
X172322857Y-93086429D02*
X172394285Y-93015000D01*
X172537143Y-92943571D01*
X172751428Y-92943571D01*
X172894285Y-93015000D01*
X172965714Y-93157857D01*
X172965714Y-93943571D01*
X172965714Y-93157857D02*
X173037143Y-93015000D01*
X173180000Y-92943571D01*
X173394285Y-92943571D01*
X173537143Y-93015000D01*
X173608571Y-93157857D01*
X173608571Y-93943571D01*
X174322857Y-93943571D02*
X174322857Y-92943571D01*
X174322857Y-93086429D02*
X174394285Y-93015000D01*
X174537143Y-92943571D01*
X174751428Y-92943571D01*
X174894285Y-93015000D01*
X174965714Y-93157857D01*
X174965714Y-93943571D01*
X174965714Y-93157857D02*
X175037143Y-93015000D01*
X175180000Y-92943571D01*
X175394285Y-92943571D01*
X175537143Y-93015000D01*
X175608571Y-93157857D01*
X175608571Y-93943571D01*
X168275000Y-94615000D02*
X172085000Y-94615000D01*
X168275000Y-101600000D02*
X168275000Y-91915000D01*
X172085000Y-101600000D02*
X172085000Y-91915000D01*
X172085000Y-94615000D02*
X170958496Y-95201421D01*
X172085000Y-94615000D02*
X170958496Y-94028579D01*
X168275000Y-94615000D02*
X169401504Y-95201421D01*
X168275000Y-94615000D02*
X169401504Y-94028579D01*
X162679644Y-97118571D02*
X161822501Y-97118571D01*
X162251073Y-97118571D02*
X162251073Y-95618571D01*
X162108216Y-95832857D01*
X161965358Y-95975714D01*
X161822501Y-96047143D01*
X163393929Y-97047143D02*
X163393929Y-97118571D01*
X163322501Y-97261429D01*
X163251072Y-97332857D01*
X164108215Y-97118571D02*
X164393930Y-97118571D01*
X164536787Y-97047143D01*
X164608215Y-96975714D01*
X164751073Y-96761429D01*
X164822501Y-96475714D01*
X164822501Y-95904286D01*
X164751073Y-95761429D01*
X164679644Y-95690000D01*
X164536787Y-95618571D01*
X164251073Y-95618571D01*
X164108215Y-95690000D01*
X164036787Y-95761429D01*
X163965358Y-95904286D01*
X163965358Y-96261429D01*
X164036787Y-96404286D01*
X164108215Y-96475714D01*
X164251073Y-96547143D01*
X164536787Y-96547143D01*
X164679644Y-96475714D01*
X164751073Y-96404286D01*
X164822501Y-96261429D01*
X165751072Y-95618571D02*
X165893929Y-95618571D01*
X166036786Y-95690000D01*
X166108215Y-95761429D01*
X166179644Y-95904286D01*
X166251072Y-96190000D01*
X166251072Y-96547143D01*
X166179644Y-96832857D01*
X166108215Y-96975714D01*
X166036786Y-97047143D01*
X165893929Y-97118571D01*
X165751072Y-97118571D01*
X165608215Y-97047143D01*
X165536786Y-96975714D01*
X165465358Y-96832857D01*
X165393929Y-96547143D01*
X165393929Y-96190000D01*
X165465358Y-95904286D01*
X165536786Y-95761429D01*
X165608215Y-95690000D01*
X165751072Y-95618571D01*
X167608215Y-95618571D02*
X166893929Y-95618571D01*
X166822500Y-96332857D01*
X166893929Y-96261429D01*
X167036786Y-96190000D01*
X167393929Y-96190000D01*
X167536786Y-96261429D01*
X167608215Y-96332857D01*
X167679643Y-96475714D01*
X167679643Y-96832857D01*
X167608215Y-96975714D01*
X167536786Y-97047143D01*
X167393929Y-97118571D01*
X167036786Y-97118571D01*
X166893929Y-97047143D01*
X166822500Y-96975714D01*
X169465357Y-97118571D02*
X169465357Y-96118571D01*
X169465357Y-96261429D02*
X169536785Y-96190000D01*
X169679643Y-96118571D01*
X169893928Y-96118571D01*
X170036785Y-96190000D01*
X170108214Y-96332857D01*
X170108214Y-97118571D01*
X170108214Y-96332857D02*
X170179643Y-96190000D01*
X170322500Y-96118571D01*
X170536785Y-96118571D01*
X170679643Y-96190000D01*
X170751071Y-96332857D01*
X170751071Y-97118571D01*
X171465357Y-97118571D02*
X171465357Y-96118571D01*
X171465357Y-96261429D02*
X171536785Y-96190000D01*
X171679643Y-96118571D01*
X171893928Y-96118571D01*
X172036785Y-96190000D01*
X172108214Y-96332857D01*
X172108214Y-97118571D01*
X172108214Y-96332857D02*
X172179643Y-96190000D01*
X172322500Y-96118571D01*
X172536785Y-96118571D01*
X172679643Y-96190000D01*
X172751071Y-96332857D01*
X172751071Y-97118571D01*
X166370000Y-97790000D02*
X168275000Y-97790000D01*
X166370000Y-101600000D02*
X166370000Y-95090000D01*
X168275000Y-101600000D02*
X168275000Y-95090000D01*
X168275000Y-97790000D02*
X167148496Y-98376421D01*
X168275000Y-97790000D02*
X167148496Y-97203579D01*
X166370000Y-97790000D02*
X167496504Y-98376421D01*
X166370000Y-97790000D02*
X167496504Y-97203579D01*
X193798571Y-103720001D02*
X193870000Y-103791430D01*
X193941429Y-103934287D01*
X193941429Y-104291430D01*
X193870000Y-104434287D01*
X193798571Y-104505716D01*
X193655714Y-104577144D01*
X193512857Y-104577144D01*
X193298571Y-104505716D01*
X192441429Y-103648573D01*
X192441429Y-104577144D01*
X192512857Y-105291429D02*
X192441429Y-105291429D01*
X192298571Y-105220001D01*
X192227143Y-105148572D01*
X193941429Y-106648573D02*
X193941429Y-105934287D01*
X193227143Y-105862858D01*
X193298571Y-105934287D01*
X193370000Y-106077144D01*
X193370000Y-106434287D01*
X193298571Y-106577144D01*
X193227143Y-106648573D01*
X193084286Y-106720001D01*
X192727143Y-106720001D01*
X192584286Y-106648573D01*
X192512857Y-106577144D01*
X192441429Y-106434287D01*
X192441429Y-106077144D01*
X192512857Y-105934287D01*
X192584286Y-105862858D01*
X193441429Y-108005715D02*
X192441429Y-108005715D01*
X194012857Y-107648572D02*
X192941429Y-107291429D01*
X192941429Y-108220001D01*
X193941429Y-109077143D02*
X193941429Y-109220000D01*
X193870000Y-109362857D01*
X193798571Y-109434286D01*
X193655714Y-109505715D01*
X193370000Y-109577143D01*
X193012857Y-109577143D01*
X192727143Y-109505715D01*
X192584286Y-109434286D01*
X192512857Y-109362857D01*
X192441429Y-109220000D01*
X192441429Y-109077143D01*
X192512857Y-108934286D01*
X192584286Y-108862857D01*
X192727143Y-108791429D01*
X193012857Y-108720000D01*
X193370000Y-108720000D01*
X193655714Y-108791429D01*
X193798571Y-108862857D01*
X193870000Y-108934286D01*
X193941429Y-109077143D01*
X192441429Y-111362857D02*
X193441429Y-111362857D01*
X193298571Y-111362857D02*
X193370000Y-111434285D01*
X193441429Y-111577143D01*
X193441429Y-111791428D01*
X193370000Y-111934285D01*
X193227143Y-112005714D01*
X192441429Y-112005714D01*
X193227143Y-112005714D02*
X193370000Y-112077143D01*
X193441429Y-112220000D01*
X193441429Y-112434285D01*
X193370000Y-112577143D01*
X193227143Y-112648571D01*
X192441429Y-112648571D01*
X192441429Y-113362857D02*
X193441429Y-113362857D01*
X193298571Y-113362857D02*
X193370000Y-113434285D01*
X193441429Y-113577143D01*
X193441429Y-113791428D01*
X193370000Y-113934285D01*
X193227143Y-114005714D01*
X192441429Y-114005714D01*
X193227143Y-114005714D02*
X193370000Y-114077143D01*
X193441429Y-114220000D01*
X193441429Y-114434285D01*
X193370000Y-114577143D01*
X193227143Y-114648571D01*
X192441429Y-114648571D01*
X191770000Y-107950000D02*
X191770000Y-110490000D01*
X186055000Y-107950000D02*
X194470000Y-107950000D01*
X186055000Y-110490000D02*
X194470000Y-110490000D01*
X191770000Y-110490000D02*
X191183579Y-109363496D01*
X191770000Y-110490000D02*
X192356421Y-109363496D01*
X191770000Y-107950000D02*
X191183579Y-109076504D01*
X191770000Y-107950000D02*
X192356421Y-109076504D01*
X190766429Y-99989287D02*
X190766429Y-99703573D01*
X190695000Y-99560716D01*
X190623571Y-99489287D01*
X190409286Y-99346430D01*
X190123571Y-99275001D01*
X189552143Y-99275001D01*
X189409286Y-99346430D01*
X189337857Y-99417858D01*
X189266429Y-99560716D01*
X189266429Y-99846430D01*
X189337857Y-99989287D01*
X189409286Y-100060716D01*
X189552143Y-100132144D01*
X189909286Y-100132144D01*
X190052143Y-100060716D01*
X190123571Y-99989287D01*
X190195000Y-99846430D01*
X190195000Y-99560716D01*
X190123571Y-99417858D01*
X190052143Y-99346430D01*
X189909286Y-99275001D01*
X189337857Y-100846429D02*
X189266429Y-100846429D01*
X189123571Y-100775001D01*
X189052143Y-100703572D01*
X190766429Y-101346430D02*
X190766429Y-102275001D01*
X190195000Y-101775001D01*
X190195000Y-101989287D01*
X190123571Y-102132144D01*
X190052143Y-102203573D01*
X189909286Y-102275001D01*
X189552143Y-102275001D01*
X189409286Y-102203573D01*
X189337857Y-102132144D01*
X189266429Y-101989287D01*
X189266429Y-101560715D01*
X189337857Y-101417858D01*
X189409286Y-101346430D01*
X190766429Y-103632144D02*
X190766429Y-102917858D01*
X190052143Y-102846429D01*
X190123571Y-102917858D01*
X190195000Y-103060715D01*
X190195000Y-103417858D01*
X190123571Y-103560715D01*
X190052143Y-103632144D01*
X189909286Y-103703572D01*
X189552143Y-103703572D01*
X189409286Y-103632144D01*
X189337857Y-103560715D01*
X189266429Y-103417858D01*
X189266429Y-103060715D01*
X189337857Y-102917858D01*
X189409286Y-102846429D01*
X190766429Y-104632143D02*
X190766429Y-104775000D01*
X190695000Y-104917857D01*
X190623571Y-104989286D01*
X190480714Y-105060715D01*
X190195000Y-105132143D01*
X189837857Y-105132143D01*
X189552143Y-105060715D01*
X189409286Y-104989286D01*
X189337857Y-104917857D01*
X189266429Y-104775000D01*
X189266429Y-104632143D01*
X189337857Y-104489286D01*
X189409286Y-104417857D01*
X189552143Y-104346429D01*
X189837857Y-104275000D01*
X190195000Y-104275000D01*
X190480714Y-104346429D01*
X190623571Y-104417857D01*
X190695000Y-104489286D01*
X190766429Y-104632143D01*
X189266429Y-106917857D02*
X190266429Y-106917857D01*
X190123571Y-106917857D02*
X190195000Y-106989285D01*
X190266429Y-107132143D01*
X190266429Y-107346428D01*
X190195000Y-107489285D01*
X190052143Y-107560714D01*
X189266429Y-107560714D01*
X190052143Y-107560714D02*
X190195000Y-107632143D01*
X190266429Y-107775000D01*
X190266429Y-107989285D01*
X190195000Y-108132143D01*
X190052143Y-108203571D01*
X189266429Y-108203571D01*
X189266429Y-108917857D02*
X190266429Y-108917857D01*
X190123571Y-108917857D02*
X190195000Y-108989285D01*
X190266429Y-109132143D01*
X190266429Y-109346428D01*
X190195000Y-109489285D01*
X190052143Y-109560714D01*
X189266429Y-109560714D01*
X190052143Y-109560714D02*
X190195000Y-109632143D01*
X190266429Y-109775000D01*
X190266429Y-109989285D01*
X190195000Y-110132143D01*
X190052143Y-110203571D01*
X189266429Y-110203571D01*
X188595000Y-101600000D02*
X188595000Y-107950000D01*
X186055000Y-101600000D02*
X191295000Y-101600000D01*
X186055000Y-107950000D02*
X191295000Y-107950000D01*
X188595000Y-107950000D02*
X188008579Y-106823496D01*
X188595000Y-107950000D02*
X189181421Y-106823496D01*
X188595000Y-101600000D02*
X188008579Y-102726504D01*
X188595000Y-101600000D02*
X189181421Y-102726504D01*
X158626429Y-128134285D02*
X158555000Y-128062856D01*
X158483571Y-127919999D01*
X158483571Y-127562856D01*
X158555000Y-127419999D01*
X158626429Y-127348570D01*
X158769286Y-127277142D01*
X158912143Y-127277142D01*
X159126429Y-127348570D01*
X159983571Y-128205713D01*
X159983571Y-127277142D01*
X159983571Y-125848571D02*
X159983571Y-126705714D01*
X159983571Y-126277142D02*
X158483571Y-126277142D01*
X158697857Y-126419999D01*
X158840714Y-126562857D01*
X158912143Y-126705714D01*
X159912143Y-125134286D02*
X159983571Y-125134286D01*
X160126429Y-125205714D01*
X160197857Y-125277143D01*
X158483571Y-123777142D02*
X158483571Y-124491428D01*
X159197857Y-124562857D01*
X159126429Y-124491428D01*
X159055000Y-124348571D01*
X159055000Y-123991428D01*
X159126429Y-123848571D01*
X159197857Y-123777142D01*
X159340714Y-123705714D01*
X159697857Y-123705714D01*
X159840714Y-123777142D01*
X159912143Y-123848571D01*
X159983571Y-123991428D01*
X159983571Y-124348571D01*
X159912143Y-124491428D01*
X159840714Y-124562857D01*
X159983571Y-122991429D02*
X159983571Y-122705714D01*
X159912143Y-122562857D01*
X159840714Y-122491429D01*
X159626429Y-122348571D01*
X159340714Y-122277143D01*
X158769286Y-122277143D01*
X158626429Y-122348571D01*
X158555000Y-122420000D01*
X158483571Y-122562857D01*
X158483571Y-122848571D01*
X158555000Y-122991429D01*
X158626429Y-123062857D01*
X158769286Y-123134286D01*
X159126429Y-123134286D01*
X159269286Y-123062857D01*
X159340714Y-122991429D01*
X159412143Y-122848571D01*
X159412143Y-122562857D01*
X159340714Y-122420000D01*
X159269286Y-122348571D01*
X159126429Y-122277143D01*
X158483571Y-121348572D02*
X158483571Y-121205715D01*
X158555000Y-121062858D01*
X158626429Y-120991429D01*
X158769286Y-120920000D01*
X159055000Y-120848572D01*
X159412143Y-120848572D01*
X159697857Y-120920000D01*
X159840714Y-120991429D01*
X159912143Y-121062858D01*
X159983571Y-121205715D01*
X159983571Y-121348572D01*
X159912143Y-121491429D01*
X159840714Y-121562858D01*
X159697857Y-121634286D01*
X159412143Y-121705715D01*
X159055000Y-121705715D01*
X158769286Y-121634286D01*
X158626429Y-121562858D01*
X158555000Y-121491429D01*
X158483571Y-121348572D01*
X159983571Y-119062858D02*
X158983571Y-119062858D01*
X159126429Y-119062858D02*
X159055000Y-118991430D01*
X158983571Y-118848572D01*
X158983571Y-118634287D01*
X159055000Y-118491430D01*
X159197857Y-118420001D01*
X159983571Y-118420001D01*
X159197857Y-118420001D02*
X159055000Y-118348572D01*
X158983571Y-118205715D01*
X158983571Y-117991430D01*
X159055000Y-117848572D01*
X159197857Y-117777144D01*
X159983571Y-117777144D01*
X159983571Y-117062858D02*
X158983571Y-117062858D01*
X159126429Y-117062858D02*
X159055000Y-116991430D01*
X158983571Y-116848572D01*
X158983571Y-116634287D01*
X159055000Y-116491430D01*
X159197857Y-116420001D01*
X159983571Y-116420001D01*
X159197857Y-116420001D02*
X159055000Y-116348572D01*
X158983571Y-116205715D01*
X158983571Y-115991430D01*
X159055000Y-115848572D01*
X159197857Y-115777144D01*
X159983571Y-115777144D01*
X160655000Y-132715000D02*
X160655000Y-111125000D01*
X166370000Y-132715000D02*
X157955000Y-132715000D01*
X166370000Y-111125000D02*
X157955000Y-111125000D01*
X160655000Y-111125000D02*
X161241421Y-112251504D01*
X160655000Y-111125000D02*
X160068579Y-112251504D01*
X160655000Y-132715000D02*
X161241421Y-131588496D01*
X160655000Y-132715000D02*
X160068579Y-131588496D01*
X155308571Y-114791427D02*
X155308571Y-113862856D01*
X155880000Y-114362856D01*
X155880000Y-114148570D01*
X155951429Y-114005713D01*
X156022857Y-113934284D01*
X156165714Y-113862856D01*
X156522857Y-113862856D01*
X156665714Y-113934284D01*
X156737143Y-114005713D01*
X156808571Y-114148570D01*
X156808571Y-114577142D01*
X156737143Y-114719999D01*
X156665714Y-114791427D01*
X156737143Y-113148571D02*
X156808571Y-113148571D01*
X156951429Y-113219999D01*
X157022857Y-113291428D01*
X155951429Y-112291427D02*
X155880000Y-112434285D01*
X155808571Y-112505713D01*
X155665714Y-112577142D01*
X155594286Y-112577142D01*
X155451429Y-112505713D01*
X155380000Y-112434285D01*
X155308571Y-112291427D01*
X155308571Y-112005713D01*
X155380000Y-111862856D01*
X155451429Y-111791427D01*
X155594286Y-111719999D01*
X155665714Y-111719999D01*
X155808571Y-111791427D01*
X155880000Y-111862856D01*
X155951429Y-112005713D01*
X155951429Y-112291427D01*
X156022857Y-112434285D01*
X156094286Y-112505713D01*
X156237143Y-112577142D01*
X156522857Y-112577142D01*
X156665714Y-112505713D01*
X156737143Y-112434285D01*
X156808571Y-112291427D01*
X156808571Y-112005713D01*
X156737143Y-111862856D01*
X156665714Y-111791427D01*
X156522857Y-111719999D01*
X156237143Y-111719999D01*
X156094286Y-111791427D01*
X156022857Y-111862856D01*
X155951429Y-112005713D01*
X156808571Y-110291428D02*
X156808571Y-111148571D01*
X156808571Y-110719999D02*
X155308571Y-110719999D01*
X155522857Y-110862856D01*
X155665714Y-111005714D01*
X155737143Y-111148571D01*
X155308571Y-109362857D02*
X155308571Y-109220000D01*
X155380000Y-109077143D01*
X155451429Y-109005714D01*
X155594286Y-108934285D01*
X155880000Y-108862857D01*
X156237143Y-108862857D01*
X156522857Y-108934285D01*
X156665714Y-109005714D01*
X156737143Y-109077143D01*
X156808571Y-109220000D01*
X156808571Y-109362857D01*
X156737143Y-109505714D01*
X156665714Y-109577143D01*
X156522857Y-109648571D01*
X156237143Y-109720000D01*
X155880000Y-109720000D01*
X155594286Y-109648571D01*
X155451429Y-109577143D01*
X155380000Y-109505714D01*
X155308571Y-109362857D01*
X156808571Y-107077143D02*
X155808571Y-107077143D01*
X155951429Y-107077143D02*
X155880000Y-107005715D01*
X155808571Y-106862857D01*
X155808571Y-106648572D01*
X155880000Y-106505715D01*
X156022857Y-106434286D01*
X156808571Y-106434286D01*
X156022857Y-106434286D02*
X155880000Y-106362857D01*
X155808571Y-106220000D01*
X155808571Y-106005715D01*
X155880000Y-105862857D01*
X156022857Y-105791429D01*
X156808571Y-105791429D01*
X156808571Y-105077143D02*
X155808571Y-105077143D01*
X155951429Y-105077143D02*
X155880000Y-105005715D01*
X155808571Y-104862857D01*
X155808571Y-104648572D01*
X155880000Y-104505715D01*
X156022857Y-104434286D01*
X156808571Y-104434286D01*
X156022857Y-104434286D02*
X155880000Y-104362857D01*
X155808571Y-104220000D01*
X155808571Y-104005715D01*
X155880000Y-103862857D01*
X156022857Y-103791429D01*
X156808571Y-103791429D01*
X157480000Y-111125000D02*
X157480000Y-107315000D01*
X166370000Y-111125000D02*
X154780000Y-111125000D01*
X166370000Y-107315000D02*
X154780000Y-107315000D01*
X157480000Y-107315000D02*
X158066421Y-108441504D01*
X157480000Y-107315000D02*
X156893579Y-108441504D01*
X157480000Y-111125000D02*
X158066421Y-109998496D01*
X157480000Y-111125000D02*
X156893579Y-109998496D01*
X160388571Y-109171784D02*
X160388571Y-109886070D01*
X161102857Y-109957499D01*
X161031429Y-109886070D01*
X160960000Y-109743213D01*
X160960000Y-109386070D01*
X161031429Y-109243213D01*
X161102857Y-109171784D01*
X161245714Y-109100356D01*
X161602857Y-109100356D01*
X161745714Y-109171784D01*
X161817143Y-109243213D01*
X161888571Y-109386070D01*
X161888571Y-109743213D01*
X161817143Y-109886070D01*
X161745714Y-109957499D01*
X161817143Y-108386071D02*
X161888571Y-108386071D01*
X162031429Y-108457499D01*
X162102857Y-108528928D01*
X160388571Y-107886070D02*
X160388571Y-106886070D01*
X161888571Y-107528927D01*
X161888571Y-105528928D02*
X161888571Y-106386071D01*
X161888571Y-105957499D02*
X160388571Y-105957499D01*
X160602857Y-106100356D01*
X160745714Y-106243214D01*
X160817143Y-106386071D01*
X160388571Y-104171785D02*
X160388571Y-104886071D01*
X161102857Y-104957500D01*
X161031429Y-104886071D01*
X160960000Y-104743214D01*
X160960000Y-104386071D01*
X161031429Y-104243214D01*
X161102857Y-104171785D01*
X161245714Y-104100357D01*
X161602857Y-104100357D01*
X161745714Y-104171785D01*
X161817143Y-104243214D01*
X161888571Y-104386071D01*
X161888571Y-104743214D01*
X161817143Y-104886071D01*
X161745714Y-104957500D01*
X161888571Y-102314643D02*
X160888571Y-102314643D01*
X161031429Y-102314643D02*
X160960000Y-102243215D01*
X160888571Y-102100357D01*
X160888571Y-101886072D01*
X160960000Y-101743215D01*
X161102857Y-101671786D01*
X161888571Y-101671786D01*
X161102857Y-101671786D02*
X160960000Y-101600357D01*
X160888571Y-101457500D01*
X160888571Y-101243215D01*
X160960000Y-101100357D01*
X161102857Y-101028929D01*
X161888571Y-101028929D01*
X161888571Y-100314643D02*
X160888571Y-100314643D01*
X161031429Y-100314643D02*
X160960000Y-100243215D01*
X160888571Y-100100357D01*
X160888571Y-99886072D01*
X160960000Y-99743215D01*
X161102857Y-99671786D01*
X161888571Y-99671786D01*
X161102857Y-99671786D02*
X160960000Y-99600357D01*
X160888571Y-99457500D01*
X160888571Y-99243215D01*
X160960000Y-99100357D01*
X161102857Y-99028929D01*
X161888571Y-99028929D01*
X162560000Y-107315000D02*
X162560000Y-101600000D01*
X166370000Y-107315000D02*
X159860000Y-107315000D01*
X166370000Y-101600000D02*
X159860000Y-101600000D01*
X162560000Y-101600000D02*
X163146421Y-102726504D01*
X162560000Y-101600000D02*
X161973579Y-102726504D01*
X162560000Y-107315000D02*
X163146421Y-106188496D01*
X162560000Y-107315000D02*
X161973579Y-106188496D01*
X170855358Y-140458571D02*
X169998215Y-140458571D01*
X170426787Y-140458571D02*
X170426787Y-138958571D01*
X170283930Y-139172857D01*
X170141072Y-139315714D01*
X169998215Y-139387143D01*
X171569643Y-140458571D02*
X171855358Y-140458571D01*
X171998215Y-140387143D01*
X172069643Y-140315714D01*
X172212501Y-140101429D01*
X172283929Y-139815714D01*
X172283929Y-139244286D01*
X172212501Y-139101429D01*
X172141072Y-139030000D01*
X171998215Y-138958571D01*
X171712501Y-138958571D01*
X171569643Y-139030000D01*
X171498215Y-139101429D01*
X171426786Y-139244286D01*
X171426786Y-139601429D01*
X171498215Y-139744286D01*
X171569643Y-139815714D01*
X171712501Y-139887143D01*
X171998215Y-139887143D01*
X172141072Y-139815714D01*
X172212501Y-139744286D01*
X172283929Y-139601429D01*
X172998214Y-140387143D02*
X172998214Y-140458571D01*
X172926786Y-140601429D01*
X172855357Y-140672857D01*
X174283929Y-138958571D02*
X173998215Y-138958571D01*
X173855358Y-139030000D01*
X173783929Y-139101429D01*
X173641072Y-139315714D01*
X173569643Y-139601429D01*
X173569643Y-140172857D01*
X173641072Y-140315714D01*
X173712500Y-140387143D01*
X173855358Y-140458571D01*
X174141072Y-140458571D01*
X174283929Y-140387143D01*
X174355358Y-140315714D01*
X174426786Y-140172857D01*
X174426786Y-139815714D01*
X174355358Y-139672857D01*
X174283929Y-139601429D01*
X174141072Y-139530000D01*
X173855358Y-139530000D01*
X173712500Y-139601429D01*
X173641072Y-139672857D01*
X173569643Y-139815714D01*
X175283929Y-139601429D02*
X175141071Y-139530000D01*
X175069643Y-139458571D01*
X174998214Y-139315714D01*
X174998214Y-139244286D01*
X175069643Y-139101429D01*
X175141071Y-139030000D01*
X175283929Y-138958571D01*
X175569643Y-138958571D01*
X175712500Y-139030000D01*
X175783929Y-139101429D01*
X175855357Y-139244286D01*
X175855357Y-139315714D01*
X175783929Y-139458571D01*
X175712500Y-139530000D01*
X175569643Y-139601429D01*
X175283929Y-139601429D01*
X175141071Y-139672857D01*
X175069643Y-139744286D01*
X174998214Y-139887143D01*
X174998214Y-140172857D01*
X175069643Y-140315714D01*
X175141071Y-140387143D01*
X175283929Y-140458571D01*
X175569643Y-140458571D01*
X175712500Y-140387143D01*
X175783929Y-140315714D01*
X175855357Y-140172857D01*
X175855357Y-139887143D01*
X175783929Y-139744286D01*
X175712500Y-139672857D01*
X175569643Y-139601429D01*
X177212500Y-138958571D02*
X176498214Y-138958571D01*
X176426785Y-139672857D01*
X176498214Y-139601429D01*
X176641071Y-139530000D01*
X176998214Y-139530000D01*
X177141071Y-139601429D01*
X177212500Y-139672857D01*
X177283928Y-139815714D01*
X177283928Y-140172857D01*
X177212500Y-140315714D01*
X177141071Y-140387143D01*
X176998214Y-140458571D01*
X176641071Y-140458571D01*
X176498214Y-140387143D01*
X176426785Y-140315714D01*
X179069642Y-140458571D02*
X179069642Y-139458571D01*
X179069642Y-139601429D02*
X179141070Y-139530000D01*
X179283928Y-139458571D01*
X179498213Y-139458571D01*
X179641070Y-139530000D01*
X179712499Y-139672857D01*
X179712499Y-140458571D01*
X179712499Y-139672857D02*
X179783928Y-139530000D01*
X179926785Y-139458571D01*
X180141070Y-139458571D01*
X180283928Y-139530000D01*
X180355356Y-139672857D01*
X180355356Y-140458571D01*
X181069642Y-140458571D02*
X181069642Y-139458571D01*
X181069642Y-139601429D02*
X181141070Y-139530000D01*
X181283928Y-139458571D01*
X181498213Y-139458571D01*
X181641070Y-139530000D01*
X181712499Y-139672857D01*
X181712499Y-140458571D01*
X181712499Y-139672857D02*
X181783928Y-139530000D01*
X181926785Y-139458571D01*
X182141070Y-139458571D01*
X182283928Y-139530000D01*
X182355356Y-139672857D01*
X182355356Y-140458571D01*
X186055000Y-138430000D02*
X166370000Y-138430000D01*
X186055000Y-132715000D02*
X186055000Y-141130000D01*
X166370000Y-132715000D02*
X166370000Y-141130000D01*
X166370000Y-138430000D02*
X167496504Y-137843579D01*
X166370000Y-138430000D02*
X167496504Y-139016421D01*
X186055000Y-138430000D02*
X184928496Y-137843579D01*
X186055000Y-138430000D02*
X184928496Y-139016421D01*
X196481429Y-110871787D02*
X196481429Y-111800358D01*
X195910000Y-111300358D01*
X195910000Y-111514644D01*
X195838571Y-111657501D01*
X195767143Y-111728930D01*
X195624286Y-111800358D01*
X195267143Y-111800358D01*
X195124286Y-111728930D01*
X195052857Y-111657501D01*
X194981429Y-111514644D01*
X194981429Y-111086072D01*
X195052857Y-110943215D01*
X195124286Y-110871787D01*
X194981429Y-113228929D02*
X194981429Y-112371786D01*
X194981429Y-112800358D02*
X196481429Y-112800358D01*
X196267143Y-112657501D01*
X196124286Y-112514643D01*
X196052857Y-112371786D01*
X195052857Y-113943214D02*
X194981429Y-113943214D01*
X194838571Y-113871786D01*
X194767143Y-113800357D01*
X194981429Y-115371786D02*
X194981429Y-114514643D01*
X194981429Y-114943215D02*
X196481429Y-114943215D01*
X196267143Y-114800358D01*
X196124286Y-114657500D01*
X196052857Y-114514643D01*
X194981429Y-116800357D02*
X194981429Y-115943214D01*
X194981429Y-116371786D02*
X196481429Y-116371786D01*
X196267143Y-116228929D01*
X196124286Y-116086071D01*
X196052857Y-115943214D01*
X196481429Y-118157500D02*
X196481429Y-117443214D01*
X195767143Y-117371785D01*
X195838571Y-117443214D01*
X195910000Y-117586071D01*
X195910000Y-117943214D01*
X195838571Y-118086071D01*
X195767143Y-118157500D01*
X195624286Y-118228928D01*
X195267143Y-118228928D01*
X195124286Y-118157500D01*
X195052857Y-118086071D01*
X194981429Y-117943214D01*
X194981429Y-117586071D01*
X195052857Y-117443214D01*
X195124286Y-117371785D01*
X194981429Y-120014642D02*
X195981429Y-120014642D01*
X195838571Y-120014642D02*
X195910000Y-120086070D01*
X195981429Y-120228928D01*
X195981429Y-120443213D01*
X195910000Y-120586070D01*
X195767143Y-120657499D01*
X194981429Y-120657499D01*
X195767143Y-120657499D02*
X195910000Y-120728928D01*
X195981429Y-120871785D01*
X195981429Y-121086070D01*
X195910000Y-121228928D01*
X195767143Y-121300356D01*
X194981429Y-121300356D01*
X194981429Y-122014642D02*
X195981429Y-122014642D01*
X195838571Y-122014642D02*
X195910000Y-122086070D01*
X195981429Y-122228928D01*
X195981429Y-122443213D01*
X195910000Y-122586070D01*
X195767143Y-122657499D01*
X194981429Y-122657499D01*
X195767143Y-122657499D02*
X195910000Y-122728928D01*
X195981429Y-122871785D01*
X195981429Y-123086070D01*
X195910000Y-123228928D01*
X195767143Y-123300356D01*
X194981429Y-123300356D01*
X194310000Y-101600000D02*
X194310000Y-132715000D01*
X186055000Y-101600000D02*
X197010000Y-101600000D01*
X186055000Y-132715000D02*
X197010000Y-132715000D01*
X194310000Y-132715000D02*
X193723579Y-131588496D01*
X194310000Y-132715000D02*
X194896421Y-131588496D01*
X194310000Y-101600000D02*
X193723579Y-102726504D01*
X194310000Y-101600000D02*
X194896421Y-102726504D01*
D12*
X168910000Y-130810000D03*
D13*
X171450000Y-130810000D03*
X173990000Y-130810000D03*
X176530000Y-130810000D03*
X179070000Y-130810000D03*
X181610000Y-130810000D03*
X184150000Y-130810000D03*
D12*
X168910000Y-103505000D03*
D13*
X171450000Y-103505000D03*
X173990000Y-103505000D03*
X176530000Y-103505000D03*
X179070000Y-103505000D03*
X181610000Y-103505000D03*
X184150000Y-103505000D03*
M02*
