G04 #@! TF.FileFunction,Copper,L2,Bot,Signal*
%FSLAX46Y46*%
G04 Gerber Fmt 4.6, Leading zero omitted, Abs format (unit mm)*
G04 Created by KiCad (PCBNEW 4.0.7-e1-6374~58~ubuntu16.04.1) date Wed Aug  2 11:39:58 2017*
%MOMM*%
%LPD*%
G01*
G04 APERTURE LIST*
%ADD10C,0.100000*%
%ADD11R,1.700000X1.700000*%
%ADD12O,1.700000X1.700000*%
%ADD13C,0.600000*%
%ADD14C,0.250000*%
G04 APERTURE END LIST*
D10*
D11*
X168910000Y-130810000D03*
D12*
X171450000Y-130810000D03*
X173990000Y-130810000D03*
X176530000Y-130810000D03*
X179070000Y-130810000D03*
X181610000Y-130810000D03*
X184150000Y-130810000D03*
D11*
X168910000Y-103505000D03*
D12*
X171450000Y-103505000D03*
X173990000Y-103505000D03*
X176530000Y-103505000D03*
X179070000Y-103505000D03*
X181610000Y-103505000D03*
X184150000Y-103505000D03*
D13*
X176223500Y-122053000D03*
X176024100Y-108765600D03*
X177165000Y-112159400D03*
X178787700Y-115079700D03*
D14*
X176530000Y-122359500D02*
X176223500Y-122053000D01*
X176530000Y-130810000D02*
X176530000Y-122359500D01*
X171450000Y-103505000D02*
X172625300Y-103505000D01*
X172625300Y-103505000D02*
X173990000Y-103505000D01*
X173990000Y-106731500D02*
X176024100Y-108765600D01*
X173990000Y-103505000D02*
X173990000Y-106731500D01*
X171450000Y-117874400D02*
X177165000Y-112159400D01*
X171450000Y-130810000D02*
X171450000Y-117874400D01*
X176530000Y-103505000D02*
X177705300Y-103505000D01*
X178842000Y-104680300D02*
X178787700Y-104734600D01*
X179070000Y-104680300D02*
X178842000Y-104680300D01*
X177705300Y-103881800D02*
X177705300Y-103505000D01*
X178558100Y-104734600D02*
X177705300Y-103881800D01*
X178787700Y-104734600D02*
X178558100Y-104734600D01*
X178787700Y-104734600D02*
X178787700Y-115079700D01*
X179070000Y-103505000D02*
X179070000Y-104680300D01*
M02*
