G04 #@! TF.FileFunction,Legend,Top*
%FSLAX46Y46*%
G04 Gerber Fmt 4.6, Leading zero omitted, Abs format (unit mm)*
G04 Created by KiCad (PCBNEW 4.0.7-e1-6374~58~ubuntu16.04.1) date Wed Aug  2 11:39:58 2017*
%MOMM*%
%LPD*%
G01*
G04 APERTURE LIST*
%ADD10C,0.100000*%
%ADD11C,0.120000*%
%ADD12C,0.127000*%
%ADD13C,0.609600*%
%ADD14C,0.150000*%
G04 APERTURE END LIST*
D10*
X168095714Y-105367143D02*
X168181428Y-105395714D01*
X168210000Y-105424286D01*
X168238571Y-105481429D01*
X168238571Y-105567143D01*
X168210000Y-105624286D01*
X168181428Y-105652857D01*
X168124286Y-105681429D01*
X167895714Y-105681429D01*
X167895714Y-105081429D01*
X168095714Y-105081429D01*
X168152857Y-105110000D01*
X168181428Y-105138571D01*
X168210000Y-105195714D01*
X168210000Y-105252857D01*
X168181428Y-105310000D01*
X168152857Y-105338571D01*
X168095714Y-105367143D01*
X167895714Y-105367143D01*
X168467143Y-105510000D02*
X168752857Y-105510000D01*
X168410000Y-105681429D02*
X168610000Y-105081429D01*
X168810000Y-105681429D01*
X168924286Y-105081429D02*
X169267143Y-105081429D01*
X169095714Y-105681429D02*
X169095714Y-105081429D01*
X169467143Y-105452857D02*
X169924286Y-105452857D01*
X169695715Y-105681429D02*
X169695715Y-105224286D01*
X171520000Y-105452857D02*
X171977143Y-105452857D01*
X171748572Y-105681429D02*
X171748572Y-105224286D01*
X172205714Y-105081429D02*
X172577143Y-105081429D01*
X172377143Y-105310000D01*
X172462857Y-105310000D01*
X172520000Y-105338571D01*
X172548571Y-105367143D01*
X172577143Y-105424286D01*
X172577143Y-105567143D01*
X172548571Y-105624286D01*
X172520000Y-105652857D01*
X172462857Y-105681429D01*
X172291429Y-105681429D01*
X172234286Y-105652857D01*
X172205714Y-105624286D01*
X172834286Y-105624286D02*
X172862858Y-105652857D01*
X172834286Y-105681429D01*
X172805715Y-105652857D01*
X172834286Y-105624286D01*
X172834286Y-105681429D01*
X173062857Y-105081429D02*
X173434286Y-105081429D01*
X173234286Y-105310000D01*
X173320000Y-105310000D01*
X173377143Y-105338571D01*
X173405714Y-105367143D01*
X173434286Y-105424286D01*
X173434286Y-105567143D01*
X173405714Y-105624286D01*
X173377143Y-105652857D01*
X173320000Y-105681429D01*
X173148572Y-105681429D01*
X173091429Y-105652857D01*
X173062857Y-105624286D01*
X173605715Y-105081429D02*
X173805715Y-105681429D01*
X174005715Y-105081429D01*
X177342858Y-105110000D02*
X177285715Y-105081429D01*
X177200001Y-105081429D01*
X177114286Y-105110000D01*
X177057144Y-105167143D01*
X177028572Y-105224286D01*
X177000001Y-105338571D01*
X177000001Y-105424286D01*
X177028572Y-105538571D01*
X177057144Y-105595714D01*
X177114286Y-105652857D01*
X177200001Y-105681429D01*
X177257144Y-105681429D01*
X177342858Y-105652857D01*
X177371429Y-105624286D01*
X177371429Y-105424286D01*
X177257144Y-105424286D01*
X177628572Y-105681429D02*
X177628572Y-105081429D01*
X177971429Y-105681429D01*
X177971429Y-105081429D01*
X178257143Y-105681429D02*
X178257143Y-105081429D01*
X178400000Y-105081429D01*
X178485715Y-105110000D01*
X178542857Y-105167143D01*
X178571429Y-105224286D01*
X178600000Y-105338571D01*
X178600000Y-105424286D01*
X178571429Y-105538571D01*
X178542857Y-105595714D01*
X178485715Y-105652857D01*
X178400000Y-105681429D01*
X178257143Y-105681429D01*
X181710000Y-105838571D02*
X181710000Y-105552857D01*
X181881429Y-105895714D02*
X181281429Y-105695714D01*
X181881429Y-105495714D01*
X181481429Y-105038571D02*
X181881429Y-105038571D01*
X181252857Y-105181428D02*
X181681429Y-105324285D01*
X181681429Y-104952857D01*
X184250000Y-105838571D02*
X184250000Y-105552857D01*
X184421429Y-105895714D02*
X183821429Y-105695714D01*
X184421429Y-105495714D01*
X183821429Y-105010000D02*
X183821429Y-105295714D01*
X184107143Y-105324285D01*
X184078571Y-105295714D01*
X184050000Y-105238571D01*
X184050000Y-105095714D01*
X184078571Y-105038571D01*
X184107143Y-105010000D01*
X184164286Y-104981428D01*
X184307143Y-104981428D01*
X184364286Y-105010000D01*
X184392857Y-105038571D01*
X184421429Y-105095714D01*
X184421429Y-105238571D01*
X184392857Y-105295714D01*
X184364286Y-105324285D01*
X169181429Y-129347857D02*
X168581429Y-129347857D01*
X168581429Y-129205000D01*
X168610000Y-129119285D01*
X168667143Y-129062143D01*
X168724286Y-129033571D01*
X168838571Y-129005000D01*
X168924286Y-129005000D01*
X169038571Y-129033571D01*
X169095714Y-129062143D01*
X169152857Y-129119285D01*
X169181429Y-129205000D01*
X169181429Y-129347857D01*
X168581429Y-128805000D02*
X168581429Y-128433571D01*
X168810000Y-128633571D01*
X168810000Y-128547857D01*
X168838571Y-128490714D01*
X168867143Y-128462143D01*
X168924286Y-128433571D01*
X169067143Y-128433571D01*
X169124286Y-128462143D01*
X169152857Y-128490714D01*
X169181429Y-128547857D01*
X169181429Y-128719285D01*
X169152857Y-128776428D01*
X169124286Y-128805000D01*
X171721429Y-129347857D02*
X171121429Y-129347857D01*
X171121429Y-129205000D01*
X171150000Y-129119285D01*
X171207143Y-129062143D01*
X171264286Y-129033571D01*
X171378571Y-129005000D01*
X171464286Y-129005000D01*
X171578571Y-129033571D01*
X171635714Y-129062143D01*
X171692857Y-129119285D01*
X171721429Y-129205000D01*
X171721429Y-129347857D01*
X171321429Y-128490714D02*
X171721429Y-128490714D01*
X171092857Y-128633571D02*
X171521429Y-128776428D01*
X171521429Y-128405000D01*
X174261429Y-129347857D02*
X173661429Y-129347857D01*
X173661429Y-129205000D01*
X173690000Y-129119285D01*
X173747143Y-129062143D01*
X173804286Y-129033571D01*
X173918571Y-129005000D01*
X174004286Y-129005000D01*
X174118571Y-129033571D01*
X174175714Y-129062143D01*
X174232857Y-129119285D01*
X174261429Y-129205000D01*
X174261429Y-129347857D01*
X173661429Y-128462143D02*
X173661429Y-128747857D01*
X173947143Y-128776428D01*
X173918571Y-128747857D01*
X173890000Y-128690714D01*
X173890000Y-128547857D01*
X173918571Y-128490714D01*
X173947143Y-128462143D01*
X174004286Y-128433571D01*
X174147143Y-128433571D01*
X174204286Y-128462143D01*
X174232857Y-128490714D01*
X174261429Y-128547857D01*
X174261429Y-128690714D01*
X174232857Y-128747857D01*
X174204286Y-128776428D01*
X184250000Y-129333571D02*
X184250000Y-129047857D01*
X184421429Y-129390714D02*
X183821429Y-129190714D01*
X184421429Y-128990714D01*
X184421429Y-128476428D02*
X184421429Y-128819285D01*
X184421429Y-128647857D02*
X183821429Y-128647857D01*
X183907143Y-128705000D01*
X183964286Y-128762142D01*
X183992857Y-128819285D01*
X181710000Y-129333571D02*
X181710000Y-129047857D01*
X181881429Y-129390714D02*
X181281429Y-129190714D01*
X181881429Y-128990714D01*
X181281429Y-128676428D02*
X181281429Y-128619285D01*
X181310000Y-128562142D01*
X181338571Y-128533571D01*
X181395714Y-128505000D01*
X181510000Y-128476428D01*
X181652857Y-128476428D01*
X181767143Y-128505000D01*
X181824286Y-128533571D01*
X181852857Y-128562142D01*
X181881429Y-128619285D01*
X181881429Y-128676428D01*
X181852857Y-128733571D01*
X181824286Y-128762142D01*
X181767143Y-128790714D01*
X181652857Y-128819285D01*
X181510000Y-128819285D01*
X181395714Y-128790714D01*
X181338571Y-128762142D01*
X181310000Y-128733571D01*
X181281429Y-128676428D01*
X179341429Y-129347857D02*
X178741429Y-129347857D01*
X178741429Y-129205000D01*
X178770000Y-129119285D01*
X178827143Y-129062143D01*
X178884286Y-129033571D01*
X178998571Y-129005000D01*
X179084286Y-129005000D01*
X179198571Y-129033571D01*
X179255714Y-129062143D01*
X179312857Y-129119285D01*
X179341429Y-129205000D01*
X179341429Y-129347857D01*
X178741429Y-128805000D02*
X178741429Y-128405000D01*
X179341429Y-128662143D01*
X176801429Y-129347857D02*
X176201429Y-129347857D01*
X176201429Y-129205000D01*
X176230000Y-129119285D01*
X176287143Y-129062143D01*
X176344286Y-129033571D01*
X176458571Y-129005000D01*
X176544286Y-129005000D01*
X176658571Y-129033571D01*
X176715714Y-129062143D01*
X176772857Y-129119285D01*
X176801429Y-129205000D01*
X176801429Y-129347857D01*
X176201429Y-128490714D02*
X176201429Y-128605000D01*
X176230000Y-128662143D01*
X176258571Y-128690714D01*
X176344286Y-128747857D01*
X176458571Y-128776428D01*
X176687143Y-128776428D01*
X176744286Y-128747857D01*
X176772857Y-128719285D01*
X176801429Y-128662143D01*
X176801429Y-128547857D01*
X176772857Y-128490714D01*
X176744286Y-128462143D01*
X176687143Y-128433571D01*
X176544286Y-128433571D01*
X176487143Y-128462143D01*
X176458571Y-128490714D01*
X176430000Y-128547857D01*
X176430000Y-128662143D01*
X176458571Y-128719285D01*
X176487143Y-128747857D01*
X176544286Y-128776428D01*
X181359285Y-112701429D02*
X181730714Y-112701429D01*
X181530714Y-112930000D01*
X181616428Y-112930000D01*
X181673571Y-112958571D01*
X181702142Y-112987143D01*
X181730714Y-113044286D01*
X181730714Y-113187143D01*
X181702142Y-113244286D01*
X181673571Y-113272857D01*
X181616428Y-113301429D01*
X181445000Y-113301429D01*
X181387857Y-113272857D01*
X181359285Y-113244286D01*
X181987857Y-113244286D02*
X182016429Y-113272857D01*
X181987857Y-113301429D01*
X181959286Y-113272857D01*
X181987857Y-113244286D01*
X181987857Y-113301429D01*
X182216428Y-112701429D02*
X182587857Y-112701429D01*
X182387857Y-112930000D01*
X182473571Y-112930000D01*
X182530714Y-112958571D01*
X182559285Y-112987143D01*
X182587857Y-113044286D01*
X182587857Y-113187143D01*
X182559285Y-113244286D01*
X182530714Y-113272857D01*
X182473571Y-113301429D01*
X182302143Y-113301429D01*
X182245000Y-113272857D01*
X182216428Y-113244286D01*
X182759286Y-112701429D02*
X182959286Y-113301429D01*
X183159286Y-112701429D01*
X181802143Y-115841429D02*
X181802143Y-115241429D01*
X181945000Y-115241429D01*
X182030715Y-115270000D01*
X182087857Y-115327143D01*
X182116429Y-115384286D01*
X182145000Y-115498571D01*
X182145000Y-115584286D01*
X182116429Y-115698571D01*
X182087857Y-115755714D01*
X182030715Y-115812857D01*
X181945000Y-115841429D01*
X181802143Y-115841429D01*
X182659286Y-115441429D02*
X182659286Y-115841429D01*
X182516429Y-115212857D02*
X182373572Y-115641429D01*
X182745000Y-115641429D01*
X168581429Y-121535715D02*
X168581429Y-121164286D01*
X168810000Y-121364286D01*
X168810000Y-121278572D01*
X168838571Y-121221429D01*
X168867143Y-121192858D01*
X168924286Y-121164286D01*
X169067143Y-121164286D01*
X169124286Y-121192858D01*
X169152857Y-121221429D01*
X169181429Y-121278572D01*
X169181429Y-121450000D01*
X169152857Y-121507143D01*
X169124286Y-121535715D01*
X169124286Y-120907143D02*
X169152857Y-120878571D01*
X169181429Y-120907143D01*
X169152857Y-120935714D01*
X169124286Y-120907143D01*
X169181429Y-120907143D01*
X168581429Y-120678572D02*
X168581429Y-120307143D01*
X168810000Y-120507143D01*
X168810000Y-120421429D01*
X168838571Y-120364286D01*
X168867143Y-120335715D01*
X168924286Y-120307143D01*
X169067143Y-120307143D01*
X169124286Y-120335715D01*
X169152857Y-120364286D01*
X169181429Y-120421429D01*
X169181429Y-120592857D01*
X169152857Y-120650000D01*
X169124286Y-120678572D01*
X168581429Y-120135714D02*
X169181429Y-119935714D01*
X168581429Y-119735714D01*
X171721429Y-121092857D02*
X171121429Y-121092857D01*
X171121429Y-120950000D01*
X171150000Y-120864285D01*
X171207143Y-120807143D01*
X171264286Y-120778571D01*
X171378571Y-120750000D01*
X171464286Y-120750000D01*
X171578571Y-120778571D01*
X171635714Y-120807143D01*
X171692857Y-120864285D01*
X171721429Y-120950000D01*
X171721429Y-121092857D01*
X171121429Y-120207143D02*
X171121429Y-120492857D01*
X171407143Y-120521428D01*
X171378571Y-120492857D01*
X171350000Y-120435714D01*
X171350000Y-120292857D01*
X171378571Y-120235714D01*
X171407143Y-120207143D01*
X171464286Y-120178571D01*
X171607143Y-120178571D01*
X171664286Y-120207143D01*
X171692857Y-120235714D01*
X171721429Y-120292857D01*
X171721429Y-120435714D01*
X171692857Y-120492857D01*
X171664286Y-120521428D01*
X179405000Y-119837142D02*
X179376429Y-119894285D01*
X179376429Y-119979999D01*
X179405000Y-120065714D01*
X179462143Y-120122856D01*
X179519286Y-120151428D01*
X179633571Y-120179999D01*
X179719286Y-120179999D01*
X179833571Y-120151428D01*
X179890714Y-120122856D01*
X179947857Y-120065714D01*
X179976429Y-119979999D01*
X179976429Y-119922856D01*
X179947857Y-119837142D01*
X179919286Y-119808571D01*
X179719286Y-119808571D01*
X179719286Y-119922856D01*
X179976429Y-119551428D02*
X179376429Y-119551428D01*
X179976429Y-119208571D01*
X179376429Y-119208571D01*
X179976429Y-118922857D02*
X179376429Y-118922857D01*
X179376429Y-118780000D01*
X179405000Y-118694285D01*
X179462143Y-118637143D01*
X179519286Y-118608571D01*
X179633571Y-118580000D01*
X179719286Y-118580000D01*
X179833571Y-118608571D01*
X179890714Y-118637143D01*
X179947857Y-118694285D01*
X179976429Y-118780000D01*
X179976429Y-118922857D01*
X177436429Y-121092857D02*
X176836429Y-121092857D01*
X176836429Y-120950000D01*
X176865000Y-120864285D01*
X176922143Y-120807143D01*
X176979286Y-120778571D01*
X177093571Y-120750000D01*
X177179286Y-120750000D01*
X177293571Y-120778571D01*
X177350714Y-120807143D01*
X177407857Y-120864285D01*
X177436429Y-120950000D01*
X177436429Y-121092857D01*
X176836429Y-120235714D02*
X176836429Y-120350000D01*
X176865000Y-120407143D01*
X176893571Y-120435714D01*
X176979286Y-120492857D01*
X177093571Y-120521428D01*
X177322143Y-120521428D01*
X177379286Y-120492857D01*
X177407857Y-120464285D01*
X177436429Y-120407143D01*
X177436429Y-120292857D01*
X177407857Y-120235714D01*
X177379286Y-120207143D01*
X177322143Y-120178571D01*
X177179286Y-120178571D01*
X177122143Y-120207143D01*
X177093571Y-120235714D01*
X177065000Y-120292857D01*
X177065000Y-120407143D01*
X177093571Y-120464285D01*
X177122143Y-120492857D01*
X177179286Y-120521428D01*
X183072143Y-127906429D02*
X183072143Y-127306429D01*
X183215000Y-127306429D01*
X183300715Y-127335000D01*
X183357857Y-127392143D01*
X183386429Y-127449286D01*
X183415000Y-127563571D01*
X183415000Y-127649286D01*
X183386429Y-127763571D01*
X183357857Y-127820714D01*
X183300715Y-127877857D01*
X183215000Y-127906429D01*
X183072143Y-127906429D01*
X183615000Y-127306429D02*
X184015000Y-127306429D01*
X183757857Y-127906429D01*
X182629285Y-122226429D02*
X183000714Y-122226429D01*
X182800714Y-122455000D01*
X182886428Y-122455000D01*
X182943571Y-122483571D01*
X182972142Y-122512143D01*
X183000714Y-122569286D01*
X183000714Y-122712143D01*
X182972142Y-122769286D01*
X182943571Y-122797857D01*
X182886428Y-122826429D01*
X182715000Y-122826429D01*
X182657857Y-122797857D01*
X182629285Y-122769286D01*
X183257857Y-122769286D02*
X183286429Y-122797857D01*
X183257857Y-122826429D01*
X183229286Y-122797857D01*
X183257857Y-122769286D01*
X183257857Y-122826429D01*
X183486428Y-122226429D02*
X183857857Y-122226429D01*
X183657857Y-122455000D01*
X183743571Y-122455000D01*
X183800714Y-122483571D01*
X183829285Y-122512143D01*
X183857857Y-122569286D01*
X183857857Y-122712143D01*
X183829285Y-122769286D01*
X183800714Y-122797857D01*
X183743571Y-122826429D01*
X183572143Y-122826429D01*
X183515000Y-122797857D01*
X183486428Y-122769286D01*
X184029286Y-122226429D02*
X184229286Y-122826429D01*
X184429286Y-122226429D01*
D11*
X172120000Y-110205000D02*
X172120000Y-109505000D01*
X173320000Y-109505000D02*
X173320000Y-110205000D01*
X171800000Y-127600000D02*
X171100000Y-127600000D01*
X171100000Y-126400000D02*
X171800000Y-126400000D01*
X181960000Y-114900000D02*
X181260000Y-114900000D01*
X181260000Y-113700000D02*
X181960000Y-113700000D01*
X171800000Y-125060000D02*
X171100000Y-125060000D01*
X171100000Y-123860000D02*
X171800000Y-123860000D01*
X167640000Y-115825000D02*
X170180000Y-115825000D01*
X170180000Y-114045000D02*
X167640000Y-114045000D01*
X170180000Y-114045000D02*
X170180000Y-115825000D01*
X167640000Y-115825000D02*
X167640000Y-114045000D01*
X168270000Y-119635000D02*
X172090000Y-119635000D01*
X172090000Y-119635000D02*
X172090000Y-117855000D01*
X172090000Y-117855000D02*
X168270000Y-117855000D01*
X168270000Y-119635000D02*
X168270000Y-117855000D01*
X181990000Y-123185000D02*
X181990000Y-127005000D01*
X181990000Y-127005000D02*
X183770000Y-127005000D01*
X183770000Y-127005000D02*
X183770000Y-123185000D01*
X181990000Y-123185000D02*
X183770000Y-123185000D01*
X176275000Y-107945000D02*
X176275000Y-111765000D01*
X176275000Y-111765000D02*
X178055000Y-111765000D01*
X178055000Y-111765000D02*
X178055000Y-107945000D01*
X176275000Y-107945000D02*
X178055000Y-107945000D01*
X173400000Y-114435000D02*
X173400000Y-115435000D01*
X172040000Y-115435000D02*
X172040000Y-114435000D01*
D12*
X167610000Y-111290000D02*
X167610000Y-109690000D01*
X170210000Y-111290000D02*
X170210000Y-109690000D01*
D13*
X177175000Y-125845000D02*
G75*
G03X177175000Y-125845000I-125000J0D01*
G01*
D12*
X179800000Y-126970000D02*
X179800000Y-123220000D01*
X179800000Y-123220000D02*
X175800000Y-123220000D01*
X175800000Y-123220000D02*
X175800000Y-126970000D01*
X175800000Y-126970000D02*
X179800000Y-126970000D01*
D13*
X177175000Y-125845000D02*
G75*
G03X177175000Y-125845000I-125000J0D01*
G01*
D10*
X180251420Y-108355000D02*
G75*
G03X180251420Y-108355000I-141420J0D01*
G01*
D12*
X180610000Y-108355000D02*
X182610000Y-108355000D01*
X180610000Y-111355000D02*
X182610000Y-111355000D01*
D11*
X179075000Y-117855000D02*
X175255000Y-117855000D01*
X175255000Y-117855000D02*
X175255000Y-119635000D01*
X175255000Y-119635000D02*
X179075000Y-119635000D01*
X179075000Y-117855000D02*
X179075000Y-119635000D01*
D14*
X171827143Y-110021666D02*
X171874762Y-110069285D01*
X171922381Y-110212142D01*
X171922381Y-110307380D01*
X171874762Y-110450238D01*
X171779524Y-110545476D01*
X171684286Y-110593095D01*
X171493810Y-110640714D01*
X171350952Y-110640714D01*
X171160476Y-110593095D01*
X171065238Y-110545476D01*
X170970000Y-110450238D01*
X170922381Y-110307380D01*
X170922381Y-110212142D01*
X170970000Y-110069285D01*
X171017619Y-110021666D01*
X171922381Y-109069285D02*
X171922381Y-109640714D01*
X171922381Y-109355000D02*
X170922381Y-109355000D01*
X171065238Y-109450238D01*
X171160476Y-109545476D01*
X171208095Y-109640714D01*
X171283334Y-126087143D02*
X171235715Y-126134762D01*
X171092858Y-126182381D01*
X170997620Y-126182381D01*
X170854762Y-126134762D01*
X170759524Y-126039524D01*
X170711905Y-125944286D01*
X170664286Y-125753810D01*
X170664286Y-125610952D01*
X170711905Y-125420476D01*
X170759524Y-125325238D01*
X170854762Y-125230000D01*
X170997620Y-125182381D01*
X171092858Y-125182381D01*
X171235715Y-125230000D01*
X171283334Y-125277619D01*
X171664286Y-125277619D02*
X171711905Y-125230000D01*
X171807143Y-125182381D01*
X172045239Y-125182381D01*
X172140477Y-125230000D01*
X172188096Y-125277619D01*
X172235715Y-125372857D01*
X172235715Y-125468095D01*
X172188096Y-125610952D01*
X171616667Y-126182381D01*
X172235715Y-126182381D01*
X181443334Y-115907143D02*
X181395715Y-115954762D01*
X181252858Y-116002381D01*
X181157620Y-116002381D01*
X181014762Y-115954762D01*
X180919524Y-115859524D01*
X180871905Y-115764286D01*
X180824286Y-115573810D01*
X180824286Y-115430952D01*
X180871905Y-115240476D01*
X180919524Y-115145238D01*
X181014762Y-115050000D01*
X181157620Y-115002381D01*
X181252858Y-115002381D01*
X181395715Y-115050000D01*
X181443334Y-115097619D01*
X181776667Y-115002381D02*
X182395715Y-115002381D01*
X182062381Y-115383333D01*
X182205239Y-115383333D01*
X182300477Y-115430952D01*
X182348096Y-115478571D01*
X182395715Y-115573810D01*
X182395715Y-115811905D01*
X182348096Y-115907143D01*
X182300477Y-115954762D01*
X182205239Y-116002381D01*
X181919524Y-116002381D01*
X181824286Y-115954762D01*
X181776667Y-115907143D01*
X171283334Y-123547143D02*
X171235715Y-123594762D01*
X171092858Y-123642381D01*
X170997620Y-123642381D01*
X170854762Y-123594762D01*
X170759524Y-123499524D01*
X170711905Y-123404286D01*
X170664286Y-123213810D01*
X170664286Y-123070952D01*
X170711905Y-122880476D01*
X170759524Y-122785238D01*
X170854762Y-122690000D01*
X170997620Y-122642381D01*
X171092858Y-122642381D01*
X171235715Y-122690000D01*
X171283334Y-122737619D01*
X172140477Y-122975714D02*
X172140477Y-123642381D01*
X171902381Y-122594762D02*
X171664286Y-123309048D01*
X172283334Y-123309048D01*
X171902381Y-113831666D02*
X171426190Y-114165000D01*
X171902381Y-114403095D02*
X170902381Y-114403095D01*
X170902381Y-114022142D01*
X170950000Y-113926904D01*
X170997619Y-113879285D01*
X171092857Y-113831666D01*
X171235714Y-113831666D01*
X171330952Y-113879285D01*
X171378571Y-113926904D01*
X171426190Y-114022142D01*
X171426190Y-114403095D01*
X171902381Y-112879285D02*
X171902381Y-113450714D01*
X171902381Y-113165000D02*
X170902381Y-113165000D01*
X171045238Y-113260238D01*
X171140476Y-113355476D01*
X171188095Y-113450714D01*
X165608095Y-109942381D02*
X165608095Y-110751905D01*
X165655714Y-110847143D01*
X165703333Y-110894762D01*
X165798571Y-110942381D01*
X165989048Y-110942381D01*
X166084286Y-110894762D01*
X166131905Y-110847143D01*
X166179524Y-110751905D01*
X166179524Y-109942381D01*
X167179524Y-110942381D02*
X166608095Y-110942381D01*
X166893809Y-110942381D02*
X166893809Y-109942381D01*
X166798571Y-110085238D01*
X166703333Y-110180476D01*
X166608095Y-110228095D01*
X176498095Y-127182381D02*
X176498095Y-127991905D01*
X176545714Y-128087143D01*
X176593333Y-128134762D01*
X176688571Y-128182381D01*
X176879048Y-128182381D01*
X176974286Y-128134762D01*
X177021905Y-128087143D01*
X177069524Y-127991905D01*
X177069524Y-127182381D01*
X177498095Y-127277619D02*
X177545714Y-127230000D01*
X177640952Y-127182381D01*
X177879048Y-127182381D01*
X177974286Y-127230000D01*
X178021905Y-127277619D01*
X178069524Y-127372857D01*
X178069524Y-127468095D01*
X178021905Y-127610952D01*
X177450476Y-128182381D01*
X178069524Y-128182381D01*
X181388095Y-106872381D02*
X181388095Y-107681905D01*
X181435714Y-107777143D01*
X181483333Y-107824762D01*
X181578571Y-107872381D01*
X181769048Y-107872381D01*
X181864286Y-107824762D01*
X181911905Y-107777143D01*
X181959524Y-107681905D01*
X181959524Y-106872381D01*
X182340476Y-106872381D02*
X182959524Y-106872381D01*
X182626190Y-107253333D01*
X182769048Y-107253333D01*
X182864286Y-107300952D01*
X182911905Y-107348571D01*
X182959524Y-107443810D01*
X182959524Y-107681905D01*
X182911905Y-107777143D01*
X182864286Y-107824762D01*
X182769048Y-107872381D01*
X182483333Y-107872381D01*
X182388095Y-107824762D01*
X182340476Y-107777143D01*
X176831667Y-116497381D02*
X176831667Y-117211667D01*
X176784047Y-117354524D01*
X176688809Y-117449762D01*
X176545952Y-117497381D01*
X176450714Y-117497381D01*
X177450714Y-116925952D02*
X177355476Y-116878333D01*
X177307857Y-116830714D01*
X177260238Y-116735476D01*
X177260238Y-116687857D01*
X177307857Y-116592619D01*
X177355476Y-116545000D01*
X177450714Y-116497381D01*
X177641191Y-116497381D01*
X177736429Y-116545000D01*
X177784048Y-116592619D01*
X177831667Y-116687857D01*
X177831667Y-116735476D01*
X177784048Y-116830714D01*
X177736429Y-116878333D01*
X177641191Y-116925952D01*
X177450714Y-116925952D01*
X177355476Y-116973571D01*
X177307857Y-117021190D01*
X177260238Y-117116429D01*
X177260238Y-117306905D01*
X177307857Y-117402143D01*
X177355476Y-117449762D01*
X177450714Y-117497381D01*
X177641191Y-117497381D01*
X177736429Y-117449762D01*
X177784048Y-117402143D01*
X177831667Y-117306905D01*
X177831667Y-117116429D01*
X177784048Y-117021190D01*
X177736429Y-116973571D01*
X177641191Y-116925952D01*
M02*
