G04 #@! TF.FileFunction,Soldermask,Top*
%FSLAX46Y46*%
G04 Gerber Fmt 4.6, Leading zero omitted, Abs format (unit mm)*
G04 Created by KiCad (PCBNEW 4.0.7-e1-6374~58~ubuntu16.04.1) date Wed Aug  2 11:39:58 2017*
%MOMM*%
%LPD*%
G01*
G04 APERTURE LIST*
%ADD10C,0.100000*%
%ADD11R,1.150000X1.600000*%
%ADD12R,1.600000X1.150000*%
%ADD13R,1.370000X1.670000*%
%ADD14R,2.100000X2.100000*%
%ADD15O,2.100000X2.100000*%
%ADD16R,1.670000X1.370000*%
%ADD17R,1.300000X1.600000*%
%ADD18R,1.100000X1.700000*%
%ADD19R,1.000000X0.900000*%
%ADD20R,0.900000X1.000000*%
%ADD21R,1.250000X0.850000*%
%ADD22R,2.000000X2.900000*%
G04 APERTURE END LIST*
D10*
D11*
X172720000Y-110805000D03*
X172720000Y-108905000D03*
D12*
X172400000Y-127000000D03*
X170500000Y-127000000D03*
X182560000Y-114300000D03*
X180660000Y-114300000D03*
X172400000Y-124460000D03*
X170500000Y-124460000D03*
D13*
X168270000Y-114935000D03*
X169550000Y-114935000D03*
X168910000Y-118745000D03*
X170180000Y-118745000D03*
X171450000Y-118745000D03*
D14*
X168910000Y-130810000D03*
D15*
X171450000Y-130810000D03*
X173990000Y-130810000D03*
X176530000Y-130810000D03*
X179070000Y-130810000D03*
X181610000Y-130810000D03*
X184150000Y-130810000D03*
D14*
X168910000Y-103505000D03*
D15*
X171450000Y-103505000D03*
X173990000Y-103505000D03*
X176530000Y-103505000D03*
X179070000Y-103505000D03*
X181610000Y-103505000D03*
X184150000Y-103505000D03*
D16*
X182880000Y-123825000D03*
X182880000Y-125095000D03*
X182880000Y-126365000D03*
X177165000Y-108585000D03*
X177165000Y-109855000D03*
X177165000Y-111125000D03*
D17*
X172720000Y-116035000D03*
X172720000Y-113835000D03*
D18*
X167960000Y-112040000D03*
X168910000Y-112040000D03*
X169860000Y-112040000D03*
X169860000Y-108940000D03*
X168910000Y-108940000D03*
X167960000Y-108940000D03*
D19*
X176300000Y-126545000D03*
X177800000Y-126545000D03*
X179300000Y-126545000D03*
X179300000Y-123645000D03*
X177800000Y-123645000D03*
X176300000Y-123645000D03*
D20*
X176300000Y-125095000D03*
D21*
X180160000Y-108855000D03*
X180160000Y-109855000D03*
X180160000Y-110855000D03*
X183060000Y-110855000D03*
X183060000Y-109855000D03*
X183060000Y-108855000D03*
D22*
X181610000Y-109855000D03*
D13*
X178435000Y-118745000D03*
X177165000Y-118745000D03*
X175895000Y-118745000D03*
M02*
