G04 #@! TF.FileFunction,Soldermask,Top*
%FSLAX46Y46*%
G04 Gerber Fmt 4.6, Leading zero omitted, Abs format (unit mm)*
G04 Created by KiCad (PCBNEW 4.0.7-e1-6374~58~ubuntu16.04.1) date Wed Aug  2 21:48:17 2017*
%MOMM*%
%LPD*%
G01*
G04 APERTURE LIST*
%ADD10C,0.100000*%
%ADD11R,1.600000X1.150000*%
%ADD12R,1.600000X2.100000*%
%ADD13O,1.600000X2.100000*%
%ADD14R,1.670000X1.370000*%
%ADD15R,1.600000X1.300000*%
%ADD16R,1.050000X1.960000*%
%ADD17R,2.100000X2.100000*%
%ADD18O,2.100000X2.100000*%
%ADD19R,2.300000X1.200000*%
G04 APERTURE END LIST*
D10*
D11*
X157165000Y-96520000D03*
X159065000Y-96520000D03*
X161605000Y-111760000D03*
X159705000Y-111760000D03*
X151450000Y-104140000D03*
X153350000Y-104140000D03*
X151450000Y-101600000D03*
X153350000Y-101600000D03*
X151450000Y-99060000D03*
X153350000Y-99060000D03*
X145735000Y-96520000D03*
X147635000Y-96520000D03*
X151450000Y-96520000D03*
X153350000Y-96520000D03*
D12*
X147955000Y-114935000D03*
D13*
X149955000Y-114935000D03*
X151955000Y-114935000D03*
D14*
X160655000Y-114935000D03*
X160655000Y-116205000D03*
X160655000Y-117475000D03*
X156845000Y-114935000D03*
X156845000Y-116205000D03*
X156845000Y-117475000D03*
D15*
X150030000Y-111760000D03*
X152230000Y-111760000D03*
X150030000Y-106680000D03*
X152230000Y-106680000D03*
X152230000Y-109220000D03*
X150030000Y-109220000D03*
X157310000Y-106680000D03*
X155110000Y-106680000D03*
X155110000Y-111760000D03*
X157310000Y-111760000D03*
X157310000Y-109220000D03*
X155110000Y-109220000D03*
X159555000Y-106680000D03*
X161755000Y-106680000D03*
X144950000Y-106045000D03*
X147150000Y-106045000D03*
X161755000Y-109220000D03*
X159555000Y-109220000D03*
D16*
X157800000Y-102950000D03*
X158750000Y-102950000D03*
X159700000Y-102950000D03*
X159700000Y-100250000D03*
X157800000Y-100250000D03*
X145100000Y-101680000D03*
X146050000Y-101680000D03*
X147000000Y-101680000D03*
X147000000Y-98980000D03*
X145100000Y-98980000D03*
D17*
X146050000Y-120650000D03*
D18*
X148590000Y-120650000D03*
X151130000Y-120650000D03*
X153670000Y-120650000D03*
X156210000Y-120650000D03*
X158750000Y-120650000D03*
X161290000Y-120650000D03*
D17*
X146050000Y-93345000D03*
D18*
X148590000Y-93345000D03*
X151130000Y-93345000D03*
X153670000Y-93345000D03*
X156210000Y-93345000D03*
X158750000Y-93345000D03*
X161290000Y-93345000D03*
D19*
X147550000Y-110170000D03*
X147550000Y-108270000D03*
X144550000Y-109220000D03*
M02*
