G04 #@! TF.FileFunction,Legend,Bot*
%FSLAX46Y46*%
G04 Gerber Fmt 4.6, Leading zero omitted, Abs format (unit mm)*
G04 Created by KiCad (PCBNEW 4.0.7-e1-6374~58~ubuntu16.04.1) date Wed Aug  2 21:48:17 2017*
%MOMM*%
%LPD*%
G01*
G04 APERTURE LIST*
%ADD10C,0.100000*%
%ADD11C,0.200000*%
%ADD12C,0.150000*%
%ADD13C,0.120000*%
G04 APERTURE END LIST*
D10*
D11*
X148335952Y-116911429D02*
X147574047Y-116911429D01*
X150240952Y-116911429D02*
X149479047Y-116911429D01*
X152145952Y-116911429D02*
X151384047Y-116911429D01*
X151764999Y-117292381D02*
X151764999Y-116530476D01*
D12*
X157450714Y-101501429D02*
X157522143Y-101430000D01*
X157593571Y-101215714D01*
X157593571Y-101072857D01*
X157522143Y-100858572D01*
X157379286Y-100715714D01*
X157236429Y-100644286D01*
X156950714Y-100572857D01*
X156736429Y-100572857D01*
X156450714Y-100644286D01*
X156307857Y-100715714D01*
X156165000Y-100858572D01*
X156093571Y-101072857D01*
X156093571Y-101215714D01*
X156165000Y-101430000D01*
X156236429Y-101501429D01*
X157593571Y-102358572D02*
X157522143Y-102215714D01*
X157450714Y-102144286D01*
X157307857Y-102072857D01*
X156879286Y-102072857D01*
X156736429Y-102144286D01*
X156665000Y-102215714D01*
X156593571Y-102358572D01*
X156593571Y-102572857D01*
X156665000Y-102715714D01*
X156736429Y-102787143D01*
X156879286Y-102858572D01*
X157307857Y-102858572D01*
X157450714Y-102787143D01*
X157522143Y-102715714D01*
X157593571Y-102572857D01*
X157593571Y-102358572D01*
X157522143Y-103430000D02*
X157593571Y-103572857D01*
X157593571Y-103858572D01*
X157522143Y-104001429D01*
X157379286Y-104072857D01*
X157307857Y-104072857D01*
X157165000Y-104001429D01*
X157093571Y-103858572D01*
X157093571Y-103644286D01*
X157022143Y-103501429D01*
X156879286Y-103430000D01*
X156807857Y-103430000D01*
X156665000Y-103501429D01*
X156593571Y-103644286D01*
X156593571Y-103858572D01*
X156665000Y-104001429D01*
X157593571Y-104715715D02*
X156593571Y-104715715D01*
X156736429Y-104715715D02*
X156665000Y-104787143D01*
X156593571Y-104930001D01*
X156593571Y-105144286D01*
X156665000Y-105287143D01*
X156807857Y-105358572D01*
X157593571Y-105358572D01*
X156807857Y-105358572D02*
X156665000Y-105430001D01*
X156593571Y-105572858D01*
X156593571Y-105787143D01*
X156665000Y-105930001D01*
X156807857Y-106001429D01*
X157593571Y-106001429D01*
X157593571Y-106930001D02*
X157522143Y-106787143D01*
X157450714Y-106715715D01*
X157307857Y-106644286D01*
X156879286Y-106644286D01*
X156736429Y-106715715D01*
X156665000Y-106787143D01*
X156593571Y-106930001D01*
X156593571Y-107144286D01*
X156665000Y-107287143D01*
X156736429Y-107358572D01*
X156879286Y-107430001D01*
X157307857Y-107430001D01*
X157450714Y-107358572D01*
X157522143Y-107287143D01*
X157593571Y-107144286D01*
X157593571Y-106930001D01*
X156593571Y-108072858D02*
X157593571Y-108072858D01*
X156736429Y-108072858D02*
X156665000Y-108144286D01*
X156593571Y-108287144D01*
X156593571Y-108501429D01*
X156665000Y-108644286D01*
X156807857Y-108715715D01*
X157593571Y-108715715D01*
X157593571Y-109644287D02*
X157522143Y-109501429D01*
X157450714Y-109430001D01*
X157307857Y-109358572D01*
X156879286Y-109358572D01*
X156736429Y-109430001D01*
X156665000Y-109501429D01*
X156593571Y-109644287D01*
X156593571Y-109858572D01*
X156665000Y-110001429D01*
X156736429Y-110072858D01*
X156879286Y-110144287D01*
X157307857Y-110144287D01*
X157450714Y-110072858D01*
X157522143Y-110001429D01*
X157593571Y-109858572D01*
X157593571Y-109644287D01*
X157593571Y-111430001D02*
X156093571Y-111430001D01*
X157522143Y-111430001D02*
X157593571Y-111287144D01*
X157593571Y-111001430D01*
X157522143Y-110858572D01*
X157450714Y-110787144D01*
X157307857Y-110715715D01*
X156879286Y-110715715D01*
X156736429Y-110787144D01*
X156665000Y-110858572D01*
X156593571Y-111001430D01*
X156593571Y-111287144D01*
X156665000Y-111430001D01*
X157522143Y-112715715D02*
X157593571Y-112572858D01*
X157593571Y-112287144D01*
X157522143Y-112144287D01*
X157379286Y-112072858D01*
X156807857Y-112072858D01*
X156665000Y-112144287D01*
X156593571Y-112287144D01*
X156593571Y-112572858D01*
X156665000Y-112715715D01*
X156807857Y-112787144D01*
X156950714Y-112787144D01*
X157093571Y-112072858D01*
X159993571Y-99822859D02*
X158493571Y-99822859D01*
X158493571Y-100394287D01*
X158565000Y-100537145D01*
X158636429Y-100608573D01*
X158779286Y-100680002D01*
X158993571Y-100680002D01*
X159136429Y-100608573D01*
X159207857Y-100537145D01*
X159279286Y-100394287D01*
X159279286Y-99822859D01*
X158493571Y-101108573D02*
X158493571Y-101965716D01*
X159993571Y-101537145D02*
X158493571Y-101537145D01*
X159993571Y-103251430D02*
X159993571Y-102394287D01*
X159993571Y-102822859D02*
X158493571Y-102822859D01*
X158707857Y-102680002D01*
X158850714Y-102537144D01*
X158922143Y-102394287D01*
X158493571Y-104180001D02*
X158493571Y-104322858D01*
X158565000Y-104465715D01*
X158636429Y-104537144D01*
X158779286Y-104608573D01*
X159065000Y-104680001D01*
X159422143Y-104680001D01*
X159707857Y-104608573D01*
X159850714Y-104537144D01*
X159922143Y-104465715D01*
X159993571Y-104322858D01*
X159993571Y-104180001D01*
X159922143Y-104037144D01*
X159850714Y-103965715D01*
X159707857Y-103894287D01*
X159422143Y-103822858D01*
X159065000Y-103822858D01*
X158779286Y-103894287D01*
X158636429Y-103965715D01*
X158565000Y-104037144D01*
X158493571Y-104180001D01*
X158493571Y-105608572D02*
X158493571Y-105751429D01*
X158565000Y-105894286D01*
X158636429Y-105965715D01*
X158779286Y-106037144D01*
X159065000Y-106108572D01*
X159422143Y-106108572D01*
X159707857Y-106037144D01*
X159850714Y-105965715D01*
X159922143Y-105894286D01*
X159993571Y-105751429D01*
X159993571Y-105608572D01*
X159922143Y-105465715D01*
X159850714Y-105394286D01*
X159707857Y-105322858D01*
X159422143Y-105251429D01*
X159065000Y-105251429D01*
X158779286Y-105322858D01*
X158636429Y-105394286D01*
X158565000Y-105465715D01*
X158493571Y-105608572D01*
X159993571Y-108537143D02*
X158493571Y-108537143D01*
X159922143Y-108537143D02*
X159993571Y-108394286D01*
X159993571Y-108108572D01*
X159922143Y-107965714D01*
X159850714Y-107894286D01*
X159707857Y-107822857D01*
X159279286Y-107822857D01*
X159136429Y-107894286D01*
X159065000Y-107965714D01*
X158993571Y-108108572D01*
X158993571Y-108394286D01*
X159065000Y-108537143D01*
X159993571Y-109251429D02*
X158993571Y-109251429D01*
X159279286Y-109251429D02*
X159136429Y-109322857D01*
X159065000Y-109394286D01*
X158993571Y-109537143D01*
X158993571Y-109680000D01*
X159993571Y-110180000D02*
X158993571Y-110180000D01*
X158493571Y-110180000D02*
X158565000Y-110108571D01*
X158636429Y-110180000D01*
X158565000Y-110251428D01*
X158493571Y-110180000D01*
X158636429Y-110180000D01*
X158993571Y-110751429D02*
X159993571Y-111108572D01*
X158993571Y-111465714D01*
X159922143Y-112608571D02*
X159993571Y-112465714D01*
X159993571Y-112180000D01*
X159922143Y-112037143D01*
X159779286Y-111965714D01*
X159207857Y-111965714D01*
X159065000Y-112037143D01*
X158993571Y-112180000D01*
X158993571Y-112465714D01*
X159065000Y-112608571D01*
X159207857Y-112680000D01*
X159350714Y-112680000D01*
X159493571Y-111965714D01*
X159993571Y-113322857D02*
X158993571Y-113322857D01*
X159279286Y-113322857D02*
X159136429Y-113394285D01*
X159065000Y-113465714D01*
X158993571Y-113608571D01*
X158993571Y-113751428D01*
D13*
X162620000Y-119320000D02*
X162620000Y-121980000D01*
X147320000Y-119320000D02*
X162620000Y-119320000D01*
X147320000Y-121980000D02*
X162620000Y-121980000D01*
X147320000Y-119320000D02*
X147320000Y-121980000D01*
X146050000Y-119320000D02*
X144720000Y-119320000D01*
X144720000Y-119320000D02*
X144720000Y-120650000D01*
X162620000Y-92015000D02*
X162620000Y-94675000D01*
X147320000Y-92015000D02*
X162620000Y-92015000D01*
X147320000Y-94675000D02*
X162620000Y-94675000D01*
X147320000Y-92015000D02*
X147320000Y-94675000D01*
X146050000Y-92015000D02*
X144720000Y-92015000D01*
X144720000Y-92015000D02*
X144720000Y-93345000D01*
D12*
X143597381Y-120316667D02*
X144311667Y-120316667D01*
X144454524Y-120269047D01*
X144549762Y-120173809D01*
X144597381Y-120030952D01*
X144597381Y-119935714D01*
X143692619Y-120745238D02*
X143645000Y-120792857D01*
X143597381Y-120888095D01*
X143597381Y-121126191D01*
X143645000Y-121221429D01*
X143692619Y-121269048D01*
X143787857Y-121316667D01*
X143883095Y-121316667D01*
X144025952Y-121269048D01*
X144597381Y-120697619D01*
X144597381Y-121316667D01*
X143597381Y-93011667D02*
X144311667Y-93011667D01*
X144454524Y-92964047D01*
X144549762Y-92868809D01*
X144597381Y-92725952D01*
X144597381Y-92630714D01*
X143597381Y-93392619D02*
X143597381Y-94011667D01*
X143978333Y-93678333D01*
X143978333Y-93821191D01*
X144025952Y-93916429D01*
X144073571Y-93964048D01*
X144168810Y-94011667D01*
X144406905Y-94011667D01*
X144502143Y-93964048D01*
X144549762Y-93916429D01*
X144597381Y-93821191D01*
X144597381Y-93535476D01*
X144549762Y-93440238D01*
X144502143Y-93392619D01*
M02*
