G04 #@! TF.FileFunction,Copper,L1,Top,Signal*
%FSLAX46Y46*%
G04 Gerber Fmt 4.6, Leading zero omitted, Abs format (unit mm)*
G04 Created by KiCad (PCBNEW 4.0.7-e1-6374~58~ubuntu16.04.1) date Wed Aug  2 21:48:17 2017*
%MOMM*%
%LPD*%
G01*
G04 APERTURE LIST*
%ADD10C,0.100000*%
%ADD11R,1.200000X0.750000*%
%ADD12R,1.200000X1.700000*%
%ADD13O,1.200000X1.700000*%
%ADD14R,1.270000X0.970000*%
%ADD15R,1.200000X0.900000*%
%ADD16R,0.650000X1.560000*%
%ADD17R,1.700000X1.700000*%
%ADD18O,1.700000X1.700000*%
%ADD19R,1.900000X0.800000*%
%ADD20C,0.600000*%
%ADD21C,0.250000*%
G04 APERTURE END LIST*
D10*
D11*
X157165000Y-96520000D03*
X159065000Y-96520000D03*
X161605000Y-111760000D03*
X159705000Y-111760000D03*
X151450000Y-104140000D03*
X153350000Y-104140000D03*
X151450000Y-101600000D03*
X153350000Y-101600000D03*
X151450000Y-99060000D03*
X153350000Y-99060000D03*
X145735000Y-96520000D03*
X147635000Y-96520000D03*
X151450000Y-96520000D03*
X153350000Y-96520000D03*
D12*
X147955000Y-114935000D03*
D13*
X149955000Y-114935000D03*
X151955000Y-114935000D03*
D14*
X160655000Y-114935000D03*
X160655000Y-116205000D03*
X160655000Y-117475000D03*
X156845000Y-114935000D03*
X156845000Y-116205000D03*
X156845000Y-117475000D03*
D15*
X150030000Y-111760000D03*
X152230000Y-111760000D03*
X150030000Y-106680000D03*
X152230000Y-106680000D03*
X152230000Y-109220000D03*
X150030000Y-109220000D03*
X157310000Y-106680000D03*
X155110000Y-106680000D03*
X155110000Y-111760000D03*
X157310000Y-111760000D03*
X157310000Y-109220000D03*
X155110000Y-109220000D03*
X159555000Y-106680000D03*
X161755000Y-106680000D03*
X144950000Y-106045000D03*
X147150000Y-106045000D03*
X161755000Y-109220000D03*
X159555000Y-109220000D03*
D16*
X157800000Y-102950000D03*
X158750000Y-102950000D03*
X159700000Y-102950000D03*
X159700000Y-100250000D03*
X157800000Y-100250000D03*
X145100000Y-101680000D03*
X146050000Y-101680000D03*
X147000000Y-101680000D03*
X147000000Y-98980000D03*
X145100000Y-98980000D03*
D17*
X146050000Y-120650000D03*
D18*
X148590000Y-120650000D03*
X151130000Y-120650000D03*
X153670000Y-120650000D03*
X156210000Y-120650000D03*
X158750000Y-120650000D03*
X161290000Y-120650000D03*
D17*
X146050000Y-93345000D03*
D18*
X148590000Y-93345000D03*
X151130000Y-93345000D03*
X153670000Y-93345000D03*
X156210000Y-93345000D03*
X158750000Y-93345000D03*
X161290000Y-93345000D03*
D19*
X147550000Y-110170000D03*
X147550000Y-108270000D03*
X144550000Y-109220000D03*
D20*
X159447500Y-114917100D03*
X156890100Y-112723300D03*
X159700000Y-104454700D03*
X156320600Y-107834100D03*
D21*
X145100000Y-97855300D02*
X145735000Y-97220300D01*
X145100000Y-98980000D02*
X145100000Y-97855300D01*
X145735000Y-96520000D02*
X145735000Y-97220300D01*
X144950000Y-106045000D02*
X144950000Y-105269700D01*
X145100000Y-98980000D02*
X145100000Y-100085300D01*
X151450000Y-95819700D02*
X145735000Y-95819700D01*
X145735000Y-96520000D02*
X145735000Y-95819700D01*
X151450000Y-96169800D02*
X151450000Y-96307600D01*
X151450000Y-96169800D02*
X151450000Y-95819700D01*
X143999400Y-104319100D02*
X144950000Y-105269700D01*
X143999400Y-100549000D02*
X143999400Y-104319100D01*
X144463100Y-100085300D02*
X143999400Y-100549000D01*
X145100000Y-100085300D02*
X144463100Y-100085300D01*
X151450000Y-96520000D02*
X151450000Y-96471000D01*
X151450000Y-96471000D02*
X151450000Y-96307600D01*
X152199300Y-97220300D02*
X157165000Y-97220300D01*
X151450000Y-96471000D02*
X152199300Y-97220300D01*
X157165000Y-96520000D02*
X157165000Y-97220300D01*
X157165000Y-98509700D02*
X157165000Y-97220300D01*
X157800000Y-99144700D02*
X157165000Y-98509700D01*
X157800000Y-100250000D02*
X157800000Y-99144700D01*
X153350000Y-94840300D02*
X153350000Y-96520000D01*
X153670000Y-94520300D02*
X153350000Y-94840300D01*
X153670000Y-93345000D02*
X153670000Y-94520300D01*
X159065000Y-96520000D02*
X159065000Y-97220300D01*
X147955000Y-114935000D02*
X147029700Y-114935000D01*
X157765600Y-94520300D02*
X159065000Y-95819700D01*
X156210000Y-94520300D02*
X157765600Y-94520300D01*
X156210000Y-93345000D02*
X156210000Y-94520300D01*
X159065000Y-96520000D02*
X159065000Y-95819700D01*
X153350000Y-101600000D02*
X153350000Y-104140000D01*
X144957800Y-112863100D02*
X144957800Y-109220000D01*
X147029700Y-114935000D02*
X144957800Y-112863100D01*
X144957800Y-109220000D02*
X144957800Y-108640700D01*
X158750000Y-102950000D02*
X158750000Y-101600000D01*
X158750000Y-97535300D02*
X159065000Y-97220300D01*
X158750000Y-101600000D02*
X158750000Y-97535300D01*
X158750000Y-101600000D02*
X153350000Y-101600000D01*
X153350000Y-101600000D02*
X153350000Y-100899700D01*
X147635000Y-96520000D02*
X147635000Y-97220300D01*
X153350000Y-99060000D02*
X153350000Y-100899700D01*
X148774400Y-98359700D02*
X147635000Y-97220300D01*
X153350000Y-98359700D02*
X148774400Y-98359700D01*
X153350000Y-99060000D02*
X153350000Y-98359700D01*
X147147400Y-97220300D02*
X147635000Y-97220300D01*
X146050000Y-98317700D02*
X147147400Y-97220300D01*
X146050000Y-100535600D02*
X146050000Y-98317700D01*
X144649700Y-100535600D02*
X146050000Y-100535600D01*
X144449700Y-100735600D02*
X144649700Y-100535600D01*
X144449700Y-102826900D02*
X144449700Y-100735600D01*
X145875400Y-104252600D02*
X144449700Y-102826900D01*
X145875400Y-107723100D02*
X145875400Y-104252600D01*
X144957800Y-108640700D02*
X145875400Y-107723100D01*
X146050000Y-100535600D02*
X146050000Y-101680000D01*
X159676800Y-114917100D02*
X159694700Y-114935000D01*
X159447500Y-114917100D02*
X159676800Y-114917100D01*
X160655000Y-114935000D02*
X159694700Y-114935000D01*
X162680400Y-109984300D02*
X161605000Y-111059700D01*
X162680400Y-108380700D02*
X162680400Y-109984300D01*
X161755000Y-107455300D02*
X162680400Y-108380700D01*
X161755000Y-106680000D02*
X161755000Y-107455300D01*
X161605000Y-111760000D02*
X161605000Y-111059700D01*
X161615300Y-112470600D02*
X161605000Y-112460300D01*
X161615300Y-116205000D02*
X161615300Y-112470600D01*
X160655000Y-116205000D02*
X161615300Y-116205000D01*
X161605000Y-111760000D02*
X161605000Y-112460300D01*
X158750000Y-113415300D02*
X159705000Y-112460300D01*
X158750000Y-120650000D02*
X158750000Y-113415300D01*
X159705000Y-111760000D02*
X159705000Y-112460300D01*
X160769400Y-109995300D02*
X159705000Y-111059700D01*
X161755000Y-109995300D02*
X160769400Y-109995300D01*
X161755000Y-109220000D02*
X161755000Y-109995300D01*
X159705000Y-111760000D02*
X159705000Y-111059700D01*
X151304600Y-104985700D02*
X151450000Y-104840300D01*
X151304600Y-109844000D02*
X151304600Y-104985700D01*
X151934100Y-110473500D02*
X151304600Y-109844000D01*
X155333600Y-110473500D02*
X151934100Y-110473500D01*
X156041200Y-111181100D02*
X155333600Y-110473500D01*
X156041200Y-113361700D02*
X156041200Y-111181100D01*
X155884700Y-113518200D02*
X156041200Y-113361700D01*
X155884700Y-116205000D02*
X155884700Y-113518200D01*
X156845000Y-116205000D02*
X155884700Y-116205000D01*
X151450000Y-104140000D02*
X151450000Y-104840300D01*
X151450000Y-101600000D02*
X150987400Y-101600000D01*
X151450000Y-102062600D02*
X151450000Y-104140000D01*
X150987400Y-101600000D02*
X151450000Y-102062600D01*
X147000000Y-102785300D02*
X145100000Y-102785300D01*
X145100000Y-101680000D02*
X145100000Y-102785300D01*
X147000000Y-101680000D02*
X147000000Y-102232600D01*
X147000000Y-102232600D02*
X147000000Y-102785300D01*
X150354800Y-102232600D02*
X150987400Y-101600000D01*
X147000000Y-102232600D02*
X150354800Y-102232600D01*
X151125000Y-100085300D02*
X151450000Y-99760300D01*
X147000000Y-100085300D02*
X151125000Y-100085300D01*
X147000000Y-98980000D02*
X147000000Y-100085300D01*
X151450000Y-99060000D02*
X151450000Y-99760300D01*
X150955400Y-114859900D02*
X150880300Y-114935000D01*
X150955400Y-110920700D02*
X150955400Y-114859900D01*
X150030000Y-109995300D02*
X150955400Y-110920700D01*
X150030000Y-109220000D02*
X150030000Y-109995300D01*
X149955000Y-114935000D02*
X150880300Y-114935000D01*
X151955000Y-114935000D02*
X152880300Y-114935000D01*
X152880300Y-111760000D02*
X152880300Y-114935000D01*
X155110000Y-111760000D02*
X152880300Y-111760000D01*
X152880300Y-111760000D02*
X152230000Y-111760000D01*
X160020000Y-118920300D02*
X160655000Y-118285300D01*
X160020000Y-121102500D02*
X160020000Y-118920300D01*
X159281500Y-121841000D02*
X160020000Y-121102500D01*
X155669000Y-121841000D02*
X159281500Y-121841000D01*
X154845300Y-121017300D02*
X155669000Y-121841000D01*
X154845300Y-120650000D02*
X154845300Y-121017300D01*
X153670000Y-120650000D02*
X154845300Y-120650000D01*
X160655000Y-117475000D02*
X160655000Y-118285300D01*
X156890100Y-114079600D02*
X156845000Y-114124700D01*
X156890100Y-112723300D02*
X156890100Y-114079600D01*
X156845000Y-114935000D02*
X156845000Y-114124700D01*
X150033000Y-117475000D02*
X156845000Y-117475000D01*
X147225300Y-120282700D02*
X150033000Y-117475000D01*
X147225300Y-120650000D02*
X147225300Y-120282700D01*
X146050000Y-120650000D02*
X147225300Y-120650000D01*
X147142200Y-108280200D02*
X147142200Y-107675500D01*
X150030000Y-106680000D02*
X149104700Y-106680000D01*
X147150000Y-106680000D02*
X149104700Y-106680000D01*
X147150000Y-107667700D02*
X147150000Y-106680000D01*
X147142200Y-107675500D02*
X147150000Y-107667700D01*
X147150000Y-106680000D02*
X147150000Y-106045000D01*
X147142200Y-108280200D02*
X147142200Y-110159800D01*
X150030000Y-111760000D02*
X150030000Y-110984700D01*
X149205100Y-110159800D02*
X150030000Y-110984700D01*
X147142200Y-110159800D02*
X149205100Y-110159800D01*
X155110000Y-106680000D02*
X152230000Y-106680000D01*
X152230000Y-109220000D02*
X152230000Y-108444700D01*
X152230000Y-106680000D02*
X152230000Y-108444700D01*
X157800000Y-102950000D02*
X157800000Y-104055300D01*
X157800000Y-104055300D02*
X157800000Y-106355200D01*
X158304900Y-106355200D02*
X157800000Y-106355200D01*
X158629700Y-106680000D02*
X158304900Y-106355200D01*
X157634800Y-106355200D02*
X157310000Y-106680000D01*
X157800000Y-106355200D02*
X157634800Y-106355200D01*
X159555000Y-106680000D02*
X158629700Y-106680000D01*
X155110000Y-109220000D02*
X155110000Y-109995300D01*
X157310000Y-111760000D02*
X157310000Y-110984700D01*
X155110000Y-109995300D02*
X156320600Y-109995300D01*
X156320600Y-109995300D02*
X157310000Y-110984700D01*
X156320600Y-109995300D02*
X156320600Y-107834100D01*
X159700000Y-102950000D02*
X159700000Y-104454700D01*
X160480400Y-107519300D02*
X159555000Y-108444700D01*
X160480400Y-102135700D02*
X160480400Y-107519300D01*
X159700000Y-101355300D02*
X160480400Y-102135700D01*
X159700000Y-100250000D02*
X159700000Y-101355300D01*
X159555000Y-109220000D02*
X159555000Y-108832300D01*
X159555000Y-108832300D02*
X159555000Y-108444700D01*
X158623000Y-108832300D02*
X158235300Y-109220000D01*
X159555000Y-108832300D02*
X158623000Y-108832300D01*
X157310000Y-109220000D02*
X158235300Y-109220000D01*
M02*
