M48
;DRILL file {KiCad 4.0.7-e1-6374~58~ubuntu16.04.1} date Wed Aug  2 21:48:11 2017
;FORMAT={-:-/ absolute / inch / decimal}
FMAT,2
INCH,TZ
T1C0.016
T2C0.030
T3C0.039
%
G90
G05
M72
T1
X6.1544Y-4.2454
X6.1768Y-4.4379
X6.2775Y-4.5243
X6.2874Y-4.1124
T2
X5.825Y-4.525
X5.9037Y-4.525
X5.9825Y-4.525
T3
X5.75Y-3.675
X5.75Y-4.75
X5.85Y-3.675
X5.85Y-4.75
X5.95Y-3.675
X5.95Y-4.75
X6.05Y-3.675
X6.05Y-4.75
X6.15Y-3.675
X6.15Y-4.75
X6.25Y-3.675
X6.25Y-4.75
X6.35Y-3.675
X6.35Y-4.75
T0
M30
