G04 #@! TF.FileFunction,Legend,Top*
%FSLAX46Y46*%
G04 Gerber Fmt 4.6, Leading zero omitted, Abs format (unit mm)*
G04 Created by KiCad (PCBNEW 4.0.7-e1-6374~58~ubuntu16.04.1) date Wed Aug  2 21:48:17 2017*
%MOMM*%
%LPD*%
G01*
G04 APERTURE LIST*
%ADD10C,0.100000*%
%ADD11C,0.120000*%
%ADD12C,0.150000*%
G04 APERTURE END LIST*
D10*
X157864285Y-114606429D02*
X158235714Y-114606429D01*
X158035714Y-114835000D01*
X158121428Y-114835000D01*
X158178571Y-114863571D01*
X158207142Y-114892143D01*
X158235714Y-114949286D01*
X158235714Y-115092143D01*
X158207142Y-115149286D01*
X158178571Y-115177857D01*
X158121428Y-115206429D01*
X157950000Y-115206429D01*
X157892857Y-115177857D01*
X157864285Y-115149286D01*
X158492857Y-115149286D02*
X158521429Y-115177857D01*
X158492857Y-115206429D01*
X158464286Y-115177857D01*
X158492857Y-115149286D01*
X158492857Y-115206429D01*
X158721428Y-114606429D02*
X159092857Y-114606429D01*
X158892857Y-114835000D01*
X158978571Y-114835000D01*
X159035714Y-114863571D01*
X159064285Y-114892143D01*
X159092857Y-114949286D01*
X159092857Y-115092143D01*
X159064285Y-115149286D01*
X159035714Y-115177857D01*
X158978571Y-115206429D01*
X158807143Y-115206429D01*
X158750000Y-115177857D01*
X158721428Y-115149286D01*
X159264286Y-114606429D02*
X159464286Y-115206429D01*
X159664286Y-114606429D01*
X162102858Y-114635000D02*
X162045715Y-114606429D01*
X161960001Y-114606429D01*
X161874286Y-114635000D01*
X161817144Y-114692143D01*
X161788572Y-114749286D01*
X161760001Y-114863571D01*
X161760001Y-114949286D01*
X161788572Y-115063571D01*
X161817144Y-115120714D01*
X161874286Y-115177857D01*
X161960001Y-115206429D01*
X162017144Y-115206429D01*
X162102858Y-115177857D01*
X162131429Y-115149286D01*
X162131429Y-114949286D01*
X162017144Y-114949286D01*
X162388572Y-115206429D02*
X162388572Y-114606429D01*
X162731429Y-115206429D01*
X162731429Y-114606429D01*
X163017143Y-115206429D02*
X163017143Y-114606429D01*
X163160000Y-114606429D01*
X163245715Y-114635000D01*
X163302857Y-114692143D01*
X163331429Y-114749286D01*
X163360000Y-114863571D01*
X163360000Y-114949286D01*
X163331429Y-115063571D01*
X163302857Y-115120714D01*
X163245715Y-115177857D01*
X163160000Y-115206429D01*
X163017143Y-115206429D01*
X158307143Y-117746429D02*
X158307143Y-117146429D01*
X158450000Y-117146429D01*
X158535715Y-117175000D01*
X158592857Y-117232143D01*
X158621429Y-117289286D01*
X158650000Y-117403571D01*
X158650000Y-117489286D01*
X158621429Y-117603571D01*
X158592857Y-117660714D01*
X158535715Y-117717857D01*
X158450000Y-117746429D01*
X158307143Y-117746429D01*
X158850000Y-117146429D02*
X159221429Y-117146429D01*
X159021429Y-117375000D01*
X159107143Y-117375000D01*
X159164286Y-117403571D01*
X159192857Y-117432143D01*
X159221429Y-117489286D01*
X159221429Y-117632143D01*
X159192857Y-117689286D01*
X159164286Y-117717857D01*
X159107143Y-117746429D01*
X158935715Y-117746429D01*
X158878572Y-117717857D01*
X158850000Y-117689286D01*
X162117143Y-117746429D02*
X162117143Y-117146429D01*
X162260000Y-117146429D01*
X162345715Y-117175000D01*
X162402857Y-117232143D01*
X162431429Y-117289286D01*
X162460000Y-117403571D01*
X162460000Y-117489286D01*
X162431429Y-117603571D01*
X162402857Y-117660714D01*
X162345715Y-117717857D01*
X162260000Y-117746429D01*
X162117143Y-117746429D01*
X162974286Y-117146429D02*
X162860000Y-117146429D01*
X162802857Y-117175000D01*
X162774286Y-117203571D01*
X162717143Y-117289286D01*
X162688572Y-117403571D01*
X162688572Y-117632143D01*
X162717143Y-117689286D01*
X162745715Y-117717857D01*
X162802857Y-117746429D01*
X162917143Y-117746429D01*
X162974286Y-117717857D01*
X163002857Y-117689286D01*
X163031429Y-117632143D01*
X163031429Y-117489286D01*
X163002857Y-117432143D01*
X162974286Y-117403571D01*
X162917143Y-117375000D01*
X162802857Y-117375000D01*
X162745715Y-117403571D01*
X162717143Y-117432143D01*
X162688572Y-117489286D01*
X146321429Y-119187857D02*
X145721429Y-119187857D01*
X145721429Y-119045000D01*
X145750000Y-118959285D01*
X145807143Y-118902143D01*
X145864286Y-118873571D01*
X145978571Y-118845000D01*
X146064286Y-118845000D01*
X146178571Y-118873571D01*
X146235714Y-118902143D01*
X146292857Y-118959285D01*
X146321429Y-119045000D01*
X146321429Y-119187857D01*
X145721429Y-118645000D02*
X145721429Y-118273571D01*
X145950000Y-118473571D01*
X145950000Y-118387857D01*
X145978571Y-118330714D01*
X146007143Y-118302143D01*
X146064286Y-118273571D01*
X146207143Y-118273571D01*
X146264286Y-118302143D01*
X146292857Y-118330714D01*
X146321429Y-118387857D01*
X146321429Y-118559285D01*
X146292857Y-118616428D01*
X146264286Y-118645000D01*
X148861429Y-119187857D02*
X148261429Y-119187857D01*
X148261429Y-119045000D01*
X148290000Y-118959285D01*
X148347143Y-118902143D01*
X148404286Y-118873571D01*
X148518571Y-118845000D01*
X148604286Y-118845000D01*
X148718571Y-118873571D01*
X148775714Y-118902143D01*
X148832857Y-118959285D01*
X148861429Y-119045000D01*
X148861429Y-119187857D01*
X148461429Y-118330714D02*
X148861429Y-118330714D01*
X148232857Y-118473571D02*
X148661429Y-118616428D01*
X148661429Y-118245000D01*
X151401429Y-119187857D02*
X150801429Y-119187857D01*
X150801429Y-119045000D01*
X150830000Y-118959285D01*
X150887143Y-118902143D01*
X150944286Y-118873571D01*
X151058571Y-118845000D01*
X151144286Y-118845000D01*
X151258571Y-118873571D01*
X151315714Y-118902143D01*
X151372857Y-118959285D01*
X151401429Y-119045000D01*
X151401429Y-119187857D01*
X150801429Y-118302143D02*
X150801429Y-118587857D01*
X151087143Y-118616428D01*
X151058571Y-118587857D01*
X151030000Y-118530714D01*
X151030000Y-118387857D01*
X151058571Y-118330714D01*
X151087143Y-118302143D01*
X151144286Y-118273571D01*
X151287143Y-118273571D01*
X151344286Y-118302143D01*
X151372857Y-118330714D01*
X151401429Y-118387857D01*
X151401429Y-118530714D01*
X151372857Y-118587857D01*
X151344286Y-118616428D01*
X153941429Y-119187857D02*
X153341429Y-119187857D01*
X153341429Y-119045000D01*
X153370000Y-118959285D01*
X153427143Y-118902143D01*
X153484286Y-118873571D01*
X153598571Y-118845000D01*
X153684286Y-118845000D01*
X153798571Y-118873571D01*
X153855714Y-118902143D01*
X153912857Y-118959285D01*
X153941429Y-119045000D01*
X153941429Y-119187857D01*
X153341429Y-118330714D02*
X153341429Y-118445000D01*
X153370000Y-118502143D01*
X153398571Y-118530714D01*
X153484286Y-118587857D01*
X153598571Y-118616428D01*
X153827143Y-118616428D01*
X153884286Y-118587857D01*
X153912857Y-118559285D01*
X153941429Y-118502143D01*
X153941429Y-118387857D01*
X153912857Y-118330714D01*
X153884286Y-118302143D01*
X153827143Y-118273571D01*
X153684286Y-118273571D01*
X153627143Y-118302143D01*
X153598571Y-118330714D01*
X153570000Y-118387857D01*
X153570000Y-118502143D01*
X153598571Y-118559285D01*
X153627143Y-118587857D01*
X153684286Y-118616428D01*
X156481429Y-119187857D02*
X155881429Y-119187857D01*
X155881429Y-119045000D01*
X155910000Y-118959285D01*
X155967143Y-118902143D01*
X156024286Y-118873571D01*
X156138571Y-118845000D01*
X156224286Y-118845000D01*
X156338571Y-118873571D01*
X156395714Y-118902143D01*
X156452857Y-118959285D01*
X156481429Y-119045000D01*
X156481429Y-119187857D01*
X155881429Y-118645000D02*
X155881429Y-118245000D01*
X156481429Y-118502143D01*
X158850000Y-119173571D02*
X158850000Y-118887857D01*
X159021429Y-119230714D02*
X158421429Y-119030714D01*
X159021429Y-118830714D01*
X158421429Y-118516428D02*
X158421429Y-118459285D01*
X158450000Y-118402142D01*
X158478571Y-118373571D01*
X158535714Y-118345000D01*
X158650000Y-118316428D01*
X158792857Y-118316428D01*
X158907143Y-118345000D01*
X158964286Y-118373571D01*
X158992857Y-118402142D01*
X159021429Y-118459285D01*
X159021429Y-118516428D01*
X158992857Y-118573571D01*
X158964286Y-118602142D01*
X158907143Y-118630714D01*
X158792857Y-118659285D01*
X158650000Y-118659285D01*
X158535714Y-118630714D01*
X158478571Y-118602142D01*
X158450000Y-118573571D01*
X158421429Y-118516428D01*
X161390000Y-119173571D02*
X161390000Y-118887857D01*
X161561429Y-119230714D02*
X160961429Y-119030714D01*
X161561429Y-118830714D01*
X161561429Y-118316428D02*
X161561429Y-118659285D01*
X161561429Y-118487857D02*
X160961429Y-118487857D01*
X161047143Y-118545000D01*
X161104286Y-118602142D01*
X161132857Y-118659285D01*
X161390000Y-95678571D02*
X161390000Y-95392857D01*
X161561429Y-95735714D02*
X160961429Y-95535714D01*
X161561429Y-95335714D01*
X160961429Y-94850000D02*
X160961429Y-95135714D01*
X161247143Y-95164285D01*
X161218571Y-95135714D01*
X161190000Y-95078571D01*
X161190000Y-94935714D01*
X161218571Y-94878571D01*
X161247143Y-94850000D01*
X161304286Y-94821428D01*
X161447143Y-94821428D01*
X161504286Y-94850000D01*
X161532857Y-94878571D01*
X161561429Y-94935714D01*
X161561429Y-95078571D01*
X161532857Y-95135714D01*
X161504286Y-95164285D01*
X158850000Y-95678571D02*
X158850000Y-95392857D01*
X159021429Y-95735714D02*
X158421429Y-95535714D01*
X159021429Y-95335714D01*
X158621429Y-94878571D02*
X159021429Y-94878571D01*
X158392857Y-95021428D02*
X158821429Y-95164285D01*
X158821429Y-94792857D01*
X154482858Y-94950000D02*
X154425715Y-94921429D01*
X154340001Y-94921429D01*
X154254286Y-94950000D01*
X154197144Y-95007143D01*
X154168572Y-95064286D01*
X154140001Y-95178571D01*
X154140001Y-95264286D01*
X154168572Y-95378571D01*
X154197144Y-95435714D01*
X154254286Y-95492857D01*
X154340001Y-95521429D01*
X154397144Y-95521429D01*
X154482858Y-95492857D01*
X154511429Y-95464286D01*
X154511429Y-95264286D01*
X154397144Y-95264286D01*
X154768572Y-95521429D02*
X154768572Y-94921429D01*
X155111429Y-95521429D01*
X155111429Y-94921429D01*
X155397143Y-95521429D02*
X155397143Y-94921429D01*
X155540000Y-94921429D01*
X155625715Y-94950000D01*
X155682857Y-95007143D01*
X155711429Y-95064286D01*
X155740000Y-95178571D01*
X155740000Y-95264286D01*
X155711429Y-95378571D01*
X155682857Y-95435714D01*
X155625715Y-95492857D01*
X155540000Y-95521429D01*
X155397143Y-95521429D01*
X148660000Y-95292857D02*
X149117143Y-95292857D01*
X148888572Y-95521429D02*
X148888572Y-95064286D01*
X149345714Y-94921429D02*
X149717143Y-94921429D01*
X149517143Y-95150000D01*
X149602857Y-95150000D01*
X149660000Y-95178571D01*
X149688571Y-95207143D01*
X149717143Y-95264286D01*
X149717143Y-95407143D01*
X149688571Y-95464286D01*
X149660000Y-95492857D01*
X149602857Y-95521429D01*
X149431429Y-95521429D01*
X149374286Y-95492857D01*
X149345714Y-95464286D01*
X149974286Y-95464286D02*
X150002858Y-95492857D01*
X149974286Y-95521429D01*
X149945715Y-95492857D01*
X149974286Y-95464286D01*
X149974286Y-95521429D01*
X150202857Y-94921429D02*
X150574286Y-94921429D01*
X150374286Y-95150000D01*
X150460000Y-95150000D01*
X150517143Y-95178571D01*
X150545714Y-95207143D01*
X150574286Y-95264286D01*
X150574286Y-95407143D01*
X150545714Y-95464286D01*
X150517143Y-95492857D01*
X150460000Y-95521429D01*
X150288572Y-95521429D01*
X150231429Y-95492857D01*
X150202857Y-95464286D01*
X150745715Y-94921429D02*
X150945715Y-95521429D01*
X151145715Y-94921429D01*
X145235714Y-95207143D02*
X145321428Y-95235714D01*
X145350000Y-95264286D01*
X145378571Y-95321429D01*
X145378571Y-95407143D01*
X145350000Y-95464286D01*
X145321428Y-95492857D01*
X145264286Y-95521429D01*
X145035714Y-95521429D01*
X145035714Y-94921429D01*
X145235714Y-94921429D01*
X145292857Y-94950000D01*
X145321428Y-94978571D01*
X145350000Y-95035714D01*
X145350000Y-95092857D01*
X145321428Y-95150000D01*
X145292857Y-95178571D01*
X145235714Y-95207143D01*
X145035714Y-95207143D01*
X145607143Y-95350000D02*
X145892857Y-95350000D01*
X145550000Y-95521429D02*
X145750000Y-94921429D01*
X145950000Y-95521429D01*
X146064286Y-94921429D02*
X146407143Y-94921429D01*
X146235714Y-95521429D02*
X146235714Y-94921429D01*
X146607143Y-95292857D02*
X147064286Y-95292857D01*
X146835715Y-95521429D02*
X146835715Y-95064286D01*
D11*
X157765000Y-95920000D02*
X158465000Y-95920000D01*
X158465000Y-97120000D02*
X157765000Y-97120000D01*
X161005000Y-112360000D02*
X160305000Y-112360000D01*
X160305000Y-111160000D02*
X161005000Y-111160000D01*
X152050000Y-103540000D02*
X152750000Y-103540000D01*
X152750000Y-104740000D02*
X152050000Y-104740000D01*
X152050000Y-101000000D02*
X152750000Y-101000000D01*
X152750000Y-102200000D02*
X152050000Y-102200000D01*
X152050000Y-98460000D02*
X152750000Y-98460000D01*
X152750000Y-99660000D02*
X152050000Y-99660000D01*
X146335000Y-95920000D02*
X147035000Y-95920000D01*
X147035000Y-97120000D02*
X146335000Y-97120000D01*
X152050000Y-95920000D02*
X152750000Y-95920000D01*
X152750000Y-97120000D02*
X152050000Y-97120000D01*
X145905000Y-113135000D02*
X145905000Y-117835000D01*
X145905000Y-117835000D02*
X154005000Y-117835000D01*
X154005000Y-117835000D02*
X154005000Y-113135000D01*
X154005000Y-113135000D02*
X145905000Y-113135000D01*
X148455000Y-113135000D02*
X148455000Y-113735000D01*
X148455000Y-113735000D02*
X146505000Y-113735000D01*
X146505000Y-113735000D02*
X146505000Y-117235000D01*
X146505000Y-117235000D02*
X153405000Y-117235000D01*
X153405000Y-117235000D02*
X153405000Y-113735000D01*
X153405000Y-113735000D02*
X151455000Y-113735000D01*
X151455000Y-113735000D02*
X151455000Y-113135000D01*
X145905000Y-114435000D02*
X146505000Y-114435000D01*
X145905000Y-115735000D02*
X146505000Y-115735000D01*
X154005000Y-114435000D02*
X153405000Y-114435000D01*
X154005000Y-115735000D02*
X153405000Y-115735000D01*
X147655000Y-113135000D02*
X147655000Y-112935000D01*
X147655000Y-112935000D02*
X147355000Y-112935000D01*
X147355000Y-112935000D02*
X147355000Y-113135000D01*
X147655000Y-113035000D02*
X147355000Y-113035000D01*
X148855000Y-117235000D02*
X148855000Y-116735000D01*
X148855000Y-116735000D02*
X149055000Y-116735000D01*
X149055000Y-116735000D02*
X149055000Y-117235000D01*
X148955000Y-117235000D02*
X148955000Y-116735000D01*
X150855000Y-117235000D02*
X150855000Y-116735000D01*
X150855000Y-116735000D02*
X151055000Y-116735000D01*
X151055000Y-116735000D02*
X151055000Y-117235000D01*
X150955000Y-117235000D02*
X150955000Y-116735000D01*
X146855000Y-112835000D02*
X145605000Y-112835000D01*
X145605000Y-112835000D02*
X145605000Y-114085000D01*
X159765000Y-114295000D02*
X159765000Y-118115000D01*
X159765000Y-118115000D02*
X161545000Y-118115000D01*
X161545000Y-118115000D02*
X161545000Y-114295000D01*
X159765000Y-114295000D02*
X161545000Y-114295000D01*
X155955000Y-114295000D02*
X155955000Y-118115000D01*
X155955000Y-118115000D02*
X157735000Y-118115000D01*
X157735000Y-118115000D02*
X157735000Y-114295000D01*
X155955000Y-114295000D02*
X157735000Y-114295000D01*
X151630000Y-112440000D02*
X150630000Y-112440000D01*
X150630000Y-111080000D02*
X151630000Y-111080000D01*
X151630000Y-107360000D02*
X150630000Y-107360000D01*
X150630000Y-106000000D02*
X151630000Y-106000000D01*
X150630000Y-108540000D02*
X151630000Y-108540000D01*
X151630000Y-109900000D02*
X150630000Y-109900000D01*
X155710000Y-106000000D02*
X156710000Y-106000000D01*
X156710000Y-107360000D02*
X155710000Y-107360000D01*
X156710000Y-112440000D02*
X155710000Y-112440000D01*
X155710000Y-111080000D02*
X156710000Y-111080000D01*
X155710000Y-108540000D02*
X156710000Y-108540000D01*
X156710000Y-109900000D02*
X155710000Y-109900000D01*
X161155000Y-107360000D02*
X160155000Y-107360000D01*
X160155000Y-106000000D02*
X161155000Y-106000000D01*
X146550000Y-106725000D02*
X145550000Y-106725000D01*
X145550000Y-105365000D02*
X146550000Y-105365000D01*
X160155000Y-108540000D02*
X161155000Y-108540000D01*
X161155000Y-109900000D02*
X160155000Y-109900000D01*
X160360000Y-102500000D02*
X160360000Y-100700000D01*
X157140000Y-100700000D02*
X157140000Y-103150000D01*
X147660000Y-101230000D02*
X147660000Y-99430000D01*
X144440000Y-99430000D02*
X144440000Y-101880000D01*
X145290000Y-107640000D02*
X145290000Y-108570000D01*
X145290000Y-110800000D02*
X145290000Y-109870000D01*
X145290000Y-110800000D02*
X148450000Y-110800000D01*
X145290000Y-107640000D02*
X146750000Y-107640000D01*
D12*
X160488334Y-96877143D02*
X160440715Y-96924762D01*
X160297858Y-96972381D01*
X160202620Y-96972381D01*
X160059762Y-96924762D01*
X159964524Y-96829524D01*
X159916905Y-96734286D01*
X159869286Y-96543810D01*
X159869286Y-96400952D01*
X159916905Y-96210476D01*
X159964524Y-96115238D01*
X160059762Y-96020000D01*
X160202620Y-95972381D01*
X160297858Y-95972381D01*
X160440715Y-96020000D01*
X160488334Y-96067619D01*
X161440715Y-96972381D02*
X160869286Y-96972381D01*
X161155000Y-96972381D02*
X161155000Y-95972381D01*
X161059762Y-96115238D01*
X160964524Y-96210476D01*
X160869286Y-96258095D01*
X160488334Y-110847143D02*
X160440715Y-110894762D01*
X160297858Y-110942381D01*
X160202620Y-110942381D01*
X160059762Y-110894762D01*
X159964524Y-110799524D01*
X159916905Y-110704286D01*
X159869286Y-110513810D01*
X159869286Y-110370952D01*
X159916905Y-110180476D01*
X159964524Y-110085238D01*
X160059762Y-109990000D01*
X160202620Y-109942381D01*
X160297858Y-109942381D01*
X160440715Y-109990000D01*
X160488334Y-110037619D01*
X160869286Y-110037619D02*
X160916905Y-109990000D01*
X161012143Y-109942381D01*
X161250239Y-109942381D01*
X161345477Y-109990000D01*
X161393096Y-110037619D01*
X161440715Y-110132857D01*
X161440715Y-110228095D01*
X161393096Y-110370952D01*
X160821667Y-110942381D01*
X161440715Y-110942381D01*
X152233334Y-103247143D02*
X152185715Y-103294762D01*
X152042858Y-103342381D01*
X151947620Y-103342381D01*
X151804762Y-103294762D01*
X151709524Y-103199524D01*
X151661905Y-103104286D01*
X151614286Y-102913810D01*
X151614286Y-102770952D01*
X151661905Y-102580476D01*
X151709524Y-102485238D01*
X151804762Y-102390000D01*
X151947620Y-102342381D01*
X152042858Y-102342381D01*
X152185715Y-102390000D01*
X152233334Y-102437619D01*
X152566667Y-102342381D02*
X153185715Y-102342381D01*
X152852381Y-102723333D01*
X152995239Y-102723333D01*
X153090477Y-102770952D01*
X153138096Y-102818571D01*
X153185715Y-102913810D01*
X153185715Y-103151905D01*
X153138096Y-103247143D01*
X153090477Y-103294762D01*
X152995239Y-103342381D01*
X152709524Y-103342381D01*
X152614286Y-103294762D01*
X152566667Y-103247143D01*
X152233334Y-100707143D02*
X152185715Y-100754762D01*
X152042858Y-100802381D01*
X151947620Y-100802381D01*
X151804762Y-100754762D01*
X151709524Y-100659524D01*
X151661905Y-100564286D01*
X151614286Y-100373810D01*
X151614286Y-100230952D01*
X151661905Y-100040476D01*
X151709524Y-99945238D01*
X151804762Y-99850000D01*
X151947620Y-99802381D01*
X152042858Y-99802381D01*
X152185715Y-99850000D01*
X152233334Y-99897619D01*
X153090477Y-100135714D02*
X153090477Y-100802381D01*
X152852381Y-99754762D02*
X152614286Y-100469048D01*
X153233334Y-100469048D01*
X152233334Y-98167143D02*
X152185715Y-98214762D01*
X152042858Y-98262381D01*
X151947620Y-98262381D01*
X151804762Y-98214762D01*
X151709524Y-98119524D01*
X151661905Y-98024286D01*
X151614286Y-97833810D01*
X151614286Y-97690952D01*
X151661905Y-97500476D01*
X151709524Y-97405238D01*
X151804762Y-97310000D01*
X151947620Y-97262381D01*
X152042858Y-97262381D01*
X152185715Y-97310000D01*
X152233334Y-97357619D01*
X153138096Y-97262381D02*
X152661905Y-97262381D01*
X152614286Y-97738571D01*
X152661905Y-97690952D01*
X152757143Y-97643333D01*
X152995239Y-97643333D01*
X153090477Y-97690952D01*
X153138096Y-97738571D01*
X153185715Y-97833810D01*
X153185715Y-98071905D01*
X153138096Y-98167143D01*
X153090477Y-98214762D01*
X152995239Y-98262381D01*
X152757143Y-98262381D01*
X152661905Y-98214762D01*
X152614286Y-98167143D01*
X149058334Y-96877143D02*
X149010715Y-96924762D01*
X148867858Y-96972381D01*
X148772620Y-96972381D01*
X148629762Y-96924762D01*
X148534524Y-96829524D01*
X148486905Y-96734286D01*
X148439286Y-96543810D01*
X148439286Y-96400952D01*
X148486905Y-96210476D01*
X148534524Y-96115238D01*
X148629762Y-96020000D01*
X148772620Y-95972381D01*
X148867858Y-95972381D01*
X149010715Y-96020000D01*
X149058334Y-96067619D01*
X149915477Y-95972381D02*
X149725000Y-95972381D01*
X149629762Y-96020000D01*
X149582143Y-96067619D01*
X149486905Y-96210476D01*
X149439286Y-96400952D01*
X149439286Y-96781905D01*
X149486905Y-96877143D01*
X149534524Y-96924762D01*
X149629762Y-96972381D01*
X149820239Y-96972381D01*
X149915477Y-96924762D01*
X149963096Y-96877143D01*
X150010715Y-96781905D01*
X150010715Y-96543810D01*
X149963096Y-96448571D01*
X149915477Y-96400952D01*
X149820239Y-96353333D01*
X149629762Y-96353333D01*
X149534524Y-96400952D01*
X149486905Y-96448571D01*
X149439286Y-96543810D01*
X154773334Y-96877143D02*
X154725715Y-96924762D01*
X154582858Y-96972381D01*
X154487620Y-96972381D01*
X154344762Y-96924762D01*
X154249524Y-96829524D01*
X154201905Y-96734286D01*
X154154286Y-96543810D01*
X154154286Y-96400952D01*
X154201905Y-96210476D01*
X154249524Y-96115238D01*
X154344762Y-96020000D01*
X154487620Y-95972381D01*
X154582858Y-95972381D01*
X154725715Y-96020000D01*
X154773334Y-96067619D01*
X155106667Y-95972381D02*
X155773334Y-95972381D01*
X155344762Y-96972381D01*
X148256667Y-116292381D02*
X148256667Y-117006667D01*
X148209047Y-117149524D01*
X148113809Y-117244762D01*
X147970952Y-117292381D01*
X147875714Y-117292381D01*
X149256667Y-117292381D02*
X148685238Y-117292381D01*
X148970952Y-117292381D02*
X148970952Y-116292381D01*
X148875714Y-116435238D01*
X148780476Y-116530476D01*
X148685238Y-116578095D01*
X150963334Y-110942381D02*
X150630000Y-110466190D01*
X150391905Y-110942381D02*
X150391905Y-109942381D01*
X150772858Y-109942381D01*
X150868096Y-109990000D01*
X150915715Y-110037619D01*
X150963334Y-110132857D01*
X150963334Y-110275714D01*
X150915715Y-110370952D01*
X150868096Y-110418571D01*
X150772858Y-110466190D01*
X150391905Y-110466190D01*
X151915715Y-110942381D02*
X151344286Y-110942381D01*
X151630000Y-110942381D02*
X151630000Y-109942381D01*
X151534762Y-110085238D01*
X151439524Y-110180476D01*
X151344286Y-110228095D01*
X150963334Y-105862381D02*
X150630000Y-105386190D01*
X150391905Y-105862381D02*
X150391905Y-104862381D01*
X150772858Y-104862381D01*
X150868096Y-104910000D01*
X150915715Y-104957619D01*
X150963334Y-105052857D01*
X150963334Y-105195714D01*
X150915715Y-105290952D01*
X150868096Y-105338571D01*
X150772858Y-105386190D01*
X150391905Y-105386190D01*
X151344286Y-104957619D02*
X151391905Y-104910000D01*
X151487143Y-104862381D01*
X151725239Y-104862381D01*
X151820477Y-104910000D01*
X151868096Y-104957619D01*
X151915715Y-105052857D01*
X151915715Y-105148095D01*
X151868096Y-105290952D01*
X151296667Y-105862381D01*
X151915715Y-105862381D01*
X150963334Y-108402381D02*
X150630000Y-107926190D01*
X150391905Y-108402381D02*
X150391905Y-107402381D01*
X150772858Y-107402381D01*
X150868096Y-107450000D01*
X150915715Y-107497619D01*
X150963334Y-107592857D01*
X150963334Y-107735714D01*
X150915715Y-107830952D01*
X150868096Y-107878571D01*
X150772858Y-107926190D01*
X150391905Y-107926190D01*
X151296667Y-107402381D02*
X151915715Y-107402381D01*
X151582381Y-107783333D01*
X151725239Y-107783333D01*
X151820477Y-107830952D01*
X151868096Y-107878571D01*
X151915715Y-107973810D01*
X151915715Y-108211905D01*
X151868096Y-108307143D01*
X151820477Y-108354762D01*
X151725239Y-108402381D01*
X151439524Y-108402381D01*
X151344286Y-108354762D01*
X151296667Y-108307143D01*
X156043334Y-105862381D02*
X155710000Y-105386190D01*
X155471905Y-105862381D02*
X155471905Y-104862381D01*
X155852858Y-104862381D01*
X155948096Y-104910000D01*
X155995715Y-104957619D01*
X156043334Y-105052857D01*
X156043334Y-105195714D01*
X155995715Y-105290952D01*
X155948096Y-105338571D01*
X155852858Y-105386190D01*
X155471905Y-105386190D01*
X156900477Y-105195714D02*
X156900477Y-105862381D01*
X156662381Y-104814762D02*
X156424286Y-105529048D01*
X157043334Y-105529048D01*
X156043334Y-110942381D02*
X155710000Y-110466190D01*
X155471905Y-110942381D02*
X155471905Y-109942381D01*
X155852858Y-109942381D01*
X155948096Y-109990000D01*
X155995715Y-110037619D01*
X156043334Y-110132857D01*
X156043334Y-110275714D01*
X155995715Y-110370952D01*
X155948096Y-110418571D01*
X155852858Y-110466190D01*
X155471905Y-110466190D01*
X156948096Y-109942381D02*
X156471905Y-109942381D01*
X156424286Y-110418571D01*
X156471905Y-110370952D01*
X156567143Y-110323333D01*
X156805239Y-110323333D01*
X156900477Y-110370952D01*
X156948096Y-110418571D01*
X156995715Y-110513810D01*
X156995715Y-110751905D01*
X156948096Y-110847143D01*
X156900477Y-110894762D01*
X156805239Y-110942381D01*
X156567143Y-110942381D01*
X156471905Y-110894762D01*
X156424286Y-110847143D01*
X156043334Y-108402381D02*
X155710000Y-107926190D01*
X155471905Y-108402381D02*
X155471905Y-107402381D01*
X155852858Y-107402381D01*
X155948096Y-107450000D01*
X155995715Y-107497619D01*
X156043334Y-107592857D01*
X156043334Y-107735714D01*
X155995715Y-107830952D01*
X155948096Y-107878571D01*
X155852858Y-107926190D01*
X155471905Y-107926190D01*
X156900477Y-107402381D02*
X156710000Y-107402381D01*
X156614762Y-107450000D01*
X156567143Y-107497619D01*
X156471905Y-107640476D01*
X156424286Y-107830952D01*
X156424286Y-108211905D01*
X156471905Y-108307143D01*
X156519524Y-108354762D01*
X156614762Y-108402381D01*
X156805239Y-108402381D01*
X156900477Y-108354762D01*
X156948096Y-108307143D01*
X156995715Y-108211905D01*
X156995715Y-107973810D01*
X156948096Y-107878571D01*
X156900477Y-107830952D01*
X156805239Y-107783333D01*
X156614762Y-107783333D01*
X156519524Y-107830952D01*
X156471905Y-107878571D01*
X156424286Y-107973810D01*
X160488334Y-105682381D02*
X160155000Y-105206190D01*
X159916905Y-105682381D02*
X159916905Y-104682381D01*
X160297858Y-104682381D01*
X160393096Y-104730000D01*
X160440715Y-104777619D01*
X160488334Y-104872857D01*
X160488334Y-105015714D01*
X160440715Y-105110952D01*
X160393096Y-105158571D01*
X160297858Y-105206190D01*
X159916905Y-105206190D01*
X160821667Y-104682381D02*
X161488334Y-104682381D01*
X161059762Y-105682381D01*
X145883334Y-105227381D02*
X145550000Y-104751190D01*
X145311905Y-105227381D02*
X145311905Y-104227381D01*
X145692858Y-104227381D01*
X145788096Y-104275000D01*
X145835715Y-104322619D01*
X145883334Y-104417857D01*
X145883334Y-104560714D01*
X145835715Y-104655952D01*
X145788096Y-104703571D01*
X145692858Y-104751190D01*
X145311905Y-104751190D01*
X146454762Y-104655952D02*
X146359524Y-104608333D01*
X146311905Y-104560714D01*
X146264286Y-104465476D01*
X146264286Y-104417857D01*
X146311905Y-104322619D01*
X146359524Y-104275000D01*
X146454762Y-104227381D01*
X146645239Y-104227381D01*
X146740477Y-104275000D01*
X146788096Y-104322619D01*
X146835715Y-104417857D01*
X146835715Y-104465476D01*
X146788096Y-104560714D01*
X146740477Y-104608333D01*
X146645239Y-104655952D01*
X146454762Y-104655952D01*
X146359524Y-104703571D01*
X146311905Y-104751190D01*
X146264286Y-104846429D01*
X146264286Y-105036905D01*
X146311905Y-105132143D01*
X146359524Y-105179762D01*
X146454762Y-105227381D01*
X146645239Y-105227381D01*
X146740477Y-105179762D01*
X146788096Y-105132143D01*
X146835715Y-105036905D01*
X146835715Y-104846429D01*
X146788096Y-104751190D01*
X146740477Y-104703571D01*
X146645239Y-104655952D01*
X160488334Y-108402381D02*
X160155000Y-107926190D01*
X159916905Y-108402381D02*
X159916905Y-107402381D01*
X160297858Y-107402381D01*
X160393096Y-107450000D01*
X160440715Y-107497619D01*
X160488334Y-107592857D01*
X160488334Y-107735714D01*
X160440715Y-107830952D01*
X160393096Y-107878571D01*
X160297858Y-107926190D01*
X159916905Y-107926190D01*
X160964524Y-108402381D02*
X161155000Y-108402381D01*
X161250239Y-108354762D01*
X161297858Y-108307143D01*
X161393096Y-108164286D01*
X161440715Y-107973810D01*
X161440715Y-107592857D01*
X161393096Y-107497619D01*
X161345477Y-107450000D01*
X161250239Y-107402381D01*
X161059762Y-107402381D01*
X160964524Y-107450000D01*
X160916905Y-107497619D01*
X160869286Y-107592857D01*
X160869286Y-107830952D01*
X160916905Y-107926190D01*
X160964524Y-107973810D01*
X161059762Y-108021429D01*
X161250239Y-108021429D01*
X161345477Y-107973810D01*
X161393096Y-107926190D01*
X161440715Y-107830952D01*
X160742381Y-102361905D02*
X161551905Y-102361905D01*
X161647143Y-102314286D01*
X161694762Y-102266667D01*
X161742381Y-102171429D01*
X161742381Y-101980952D01*
X161694762Y-101885714D01*
X161647143Y-101838095D01*
X161551905Y-101790476D01*
X160742381Y-101790476D01*
X160837619Y-101361905D02*
X160790000Y-101314286D01*
X160742381Y-101219048D01*
X160742381Y-100980952D01*
X160790000Y-100885714D01*
X160837619Y-100838095D01*
X160932857Y-100790476D01*
X161028095Y-100790476D01*
X161170952Y-100838095D01*
X161742381Y-101409524D01*
X161742381Y-100790476D01*
X148042381Y-101091905D02*
X148851905Y-101091905D01*
X148947143Y-101044286D01*
X148994762Y-100996667D01*
X149042381Y-100901429D01*
X149042381Y-100710952D01*
X148994762Y-100615714D01*
X148947143Y-100568095D01*
X148851905Y-100520476D01*
X148042381Y-100520476D01*
X148042381Y-100139524D02*
X148042381Y-99520476D01*
X148423333Y-99853810D01*
X148423333Y-99710952D01*
X148470952Y-99615714D01*
X148518571Y-99568095D01*
X148613810Y-99520476D01*
X148851905Y-99520476D01*
X148947143Y-99568095D01*
X148994762Y-99615714D01*
X149042381Y-99710952D01*
X149042381Y-99996667D01*
X148994762Y-100091905D01*
X148947143Y-100139524D01*
X145288095Y-111172381D02*
X145288095Y-111981905D01*
X145335714Y-112077143D01*
X145383333Y-112124762D01*
X145478571Y-112172381D01*
X145669048Y-112172381D01*
X145764286Y-112124762D01*
X145811905Y-112077143D01*
X145859524Y-111981905D01*
X145859524Y-111172381D01*
X146859524Y-112172381D02*
X146288095Y-112172381D01*
X146573809Y-112172381D02*
X146573809Y-111172381D01*
X146478571Y-111315238D01*
X146383333Y-111410476D01*
X146288095Y-111458095D01*
M02*
