G04 #@! TF.FileFunction,Copper,L2,Bot,Signal*
%FSLAX46Y46*%
G04 Gerber Fmt 4.6, Leading zero omitted, Abs format (unit mm)*
G04 Created by KiCad (PCBNEW 4.0.7-e1-6374~58~ubuntu16.04.1) date Wed Aug  2 21:48:17 2017*
%MOMM*%
%LPD*%
G01*
G04 APERTURE LIST*
%ADD10C,0.100000*%
%ADD11R,1.200000X1.700000*%
%ADD12O,1.200000X1.700000*%
%ADD13R,1.700000X1.700000*%
%ADD14O,1.700000X1.700000*%
%ADD15C,0.600000*%
%ADD16C,0.250000*%
G04 APERTURE END LIST*
D10*
D11*
X147955000Y-114935000D03*
D12*
X149955000Y-114935000D03*
X151955000Y-114935000D03*
D13*
X146050000Y-120650000D03*
D14*
X148590000Y-120650000D03*
X151130000Y-120650000D03*
X153670000Y-120650000D03*
X156210000Y-120650000D03*
X158750000Y-120650000D03*
X161290000Y-120650000D03*
D13*
X146050000Y-93345000D03*
D14*
X148590000Y-93345000D03*
X151130000Y-93345000D03*
X153670000Y-93345000D03*
X156210000Y-93345000D03*
X158750000Y-93345000D03*
X161290000Y-93345000D03*
D15*
X159447500Y-114917100D03*
X156890100Y-112723300D03*
X159700000Y-104454700D03*
X156320600Y-107834100D03*
D16*
X156210000Y-93345000D02*
X153670000Y-93345000D01*
X158271200Y-113740800D02*
X159447500Y-114917100D01*
X149568500Y-113740800D02*
X158271200Y-113740800D01*
X148880300Y-114429000D02*
X149568500Y-113740800D01*
X148880300Y-114935000D02*
X148880300Y-114429000D01*
X147955000Y-114935000D02*
X148880300Y-114935000D01*
X148590000Y-93345000D02*
X149765300Y-93345000D01*
X151130000Y-93345000D02*
X149765300Y-93345000D01*
X151130000Y-106963200D02*
X156890100Y-112723300D01*
X151130000Y-93345000D02*
X151130000Y-106963200D01*
X156320600Y-107834100D02*
X159700000Y-104454700D01*
M02*
