G04 #@! TF.FileFunction,Soldermask,Bot*
%FSLAX46Y46*%
G04 Gerber Fmt 4.6, Leading zero omitted, Abs format (unit mm)*
G04 Created by KiCad (PCBNEW 4.0.7-e1-6374~58~ubuntu16.04.1) date Wed Aug  2 21:48:17 2017*
%MOMM*%
%LPD*%
G01*
G04 APERTURE LIST*
%ADD10C,0.100000*%
%ADD11C,0.300000*%
%ADD12R,1.600000X2.100000*%
%ADD13O,1.600000X2.100000*%
%ADD14R,2.100000X2.100000*%
%ADD15O,2.100000X2.100000*%
G04 APERTURE END LIST*
D10*
D11*
X147995358Y-132838571D02*
X147138215Y-132838571D01*
X147566787Y-132838571D02*
X147566787Y-131338571D01*
X147423930Y-131552857D01*
X147281072Y-131695714D01*
X147138215Y-131767143D01*
X148709643Y-132838571D02*
X148995358Y-132838571D01*
X149138215Y-132767143D01*
X149209643Y-132695714D01*
X149352501Y-132481429D01*
X149423929Y-132195714D01*
X149423929Y-131624286D01*
X149352501Y-131481429D01*
X149281072Y-131410000D01*
X149138215Y-131338571D01*
X148852501Y-131338571D01*
X148709643Y-131410000D01*
X148638215Y-131481429D01*
X148566786Y-131624286D01*
X148566786Y-131981429D01*
X148638215Y-132124286D01*
X148709643Y-132195714D01*
X148852501Y-132267143D01*
X149138215Y-132267143D01*
X149281072Y-132195714D01*
X149352501Y-132124286D01*
X149423929Y-131981429D01*
X150138214Y-132767143D02*
X150138214Y-132838571D01*
X150066786Y-132981429D01*
X149995357Y-133052857D01*
X151423929Y-131338571D02*
X151138215Y-131338571D01*
X150995358Y-131410000D01*
X150923929Y-131481429D01*
X150781072Y-131695714D01*
X150709643Y-131981429D01*
X150709643Y-132552857D01*
X150781072Y-132695714D01*
X150852500Y-132767143D01*
X150995358Y-132838571D01*
X151281072Y-132838571D01*
X151423929Y-132767143D01*
X151495358Y-132695714D01*
X151566786Y-132552857D01*
X151566786Y-132195714D01*
X151495358Y-132052857D01*
X151423929Y-131981429D01*
X151281072Y-131910000D01*
X150995358Y-131910000D01*
X150852500Y-131981429D01*
X150781072Y-132052857D01*
X150709643Y-132195714D01*
X152423929Y-131981429D02*
X152281071Y-131910000D01*
X152209643Y-131838571D01*
X152138214Y-131695714D01*
X152138214Y-131624286D01*
X152209643Y-131481429D01*
X152281071Y-131410000D01*
X152423929Y-131338571D01*
X152709643Y-131338571D01*
X152852500Y-131410000D01*
X152923929Y-131481429D01*
X152995357Y-131624286D01*
X152995357Y-131695714D01*
X152923929Y-131838571D01*
X152852500Y-131910000D01*
X152709643Y-131981429D01*
X152423929Y-131981429D01*
X152281071Y-132052857D01*
X152209643Y-132124286D01*
X152138214Y-132267143D01*
X152138214Y-132552857D01*
X152209643Y-132695714D01*
X152281071Y-132767143D01*
X152423929Y-132838571D01*
X152709643Y-132838571D01*
X152852500Y-132767143D01*
X152923929Y-132695714D01*
X152995357Y-132552857D01*
X152995357Y-132267143D01*
X152923929Y-132124286D01*
X152852500Y-132052857D01*
X152709643Y-131981429D01*
X154352500Y-131338571D02*
X153638214Y-131338571D01*
X153566785Y-132052857D01*
X153638214Y-131981429D01*
X153781071Y-131910000D01*
X154138214Y-131910000D01*
X154281071Y-131981429D01*
X154352500Y-132052857D01*
X154423928Y-132195714D01*
X154423928Y-132552857D01*
X154352500Y-132695714D01*
X154281071Y-132767143D01*
X154138214Y-132838571D01*
X153781071Y-132838571D01*
X153638214Y-132767143D01*
X153566785Y-132695714D01*
X156209642Y-132838571D02*
X156209642Y-131838571D01*
X156209642Y-131981429D02*
X156281070Y-131910000D01*
X156423928Y-131838571D01*
X156638213Y-131838571D01*
X156781070Y-131910000D01*
X156852499Y-132052857D01*
X156852499Y-132838571D01*
X156852499Y-132052857D02*
X156923928Y-131910000D01*
X157066785Y-131838571D01*
X157281070Y-131838571D01*
X157423928Y-131910000D01*
X157495356Y-132052857D01*
X157495356Y-132838571D01*
X158209642Y-132838571D02*
X158209642Y-131838571D01*
X158209642Y-131981429D02*
X158281070Y-131910000D01*
X158423928Y-131838571D01*
X158638213Y-131838571D01*
X158781070Y-131910000D01*
X158852499Y-132052857D01*
X158852499Y-132838571D01*
X158852499Y-132052857D02*
X158923928Y-131910000D01*
X159066785Y-131838571D01*
X159281070Y-131838571D01*
X159423928Y-131910000D01*
X159495356Y-132052857D01*
X159495356Y-132838571D01*
X163195000Y-130810000D02*
X143510000Y-130810000D01*
X163195000Y-122555000D02*
X163195000Y-133510000D01*
X143510000Y-122555000D02*
X143510000Y-133510000D01*
X143510000Y-130810000D02*
X144636504Y-130223579D01*
X143510000Y-130810000D02*
X144636504Y-131396421D01*
X163195000Y-130810000D02*
X162068496Y-130223579D01*
X163195000Y-130810000D02*
X162068496Y-131396421D01*
X176796429Y-100711787D02*
X176796429Y-101640358D01*
X176225000Y-101140358D01*
X176225000Y-101354644D01*
X176153571Y-101497501D01*
X176082143Y-101568930D01*
X175939286Y-101640358D01*
X175582143Y-101640358D01*
X175439286Y-101568930D01*
X175367857Y-101497501D01*
X175296429Y-101354644D01*
X175296429Y-100926072D01*
X175367857Y-100783215D01*
X175439286Y-100711787D01*
X175296429Y-103068929D02*
X175296429Y-102211786D01*
X175296429Y-102640358D02*
X176796429Y-102640358D01*
X176582143Y-102497501D01*
X176439286Y-102354643D01*
X176367857Y-102211786D01*
X175367857Y-103783214D02*
X175296429Y-103783214D01*
X175153571Y-103711786D01*
X175082143Y-103640357D01*
X175296429Y-105211786D02*
X175296429Y-104354643D01*
X175296429Y-104783215D02*
X176796429Y-104783215D01*
X176582143Y-104640358D01*
X176439286Y-104497500D01*
X176367857Y-104354643D01*
X175296429Y-106640357D02*
X175296429Y-105783214D01*
X175296429Y-106211786D02*
X176796429Y-106211786D01*
X176582143Y-106068929D01*
X176439286Y-105926071D01*
X176367857Y-105783214D01*
X176796429Y-107997500D02*
X176796429Y-107283214D01*
X176082143Y-107211785D01*
X176153571Y-107283214D01*
X176225000Y-107426071D01*
X176225000Y-107783214D01*
X176153571Y-107926071D01*
X176082143Y-107997500D01*
X175939286Y-108068928D01*
X175582143Y-108068928D01*
X175439286Y-107997500D01*
X175367857Y-107926071D01*
X175296429Y-107783214D01*
X175296429Y-107426071D01*
X175367857Y-107283214D01*
X175439286Y-107211785D01*
X175296429Y-109854642D02*
X176296429Y-109854642D01*
X176153571Y-109854642D02*
X176225000Y-109926070D01*
X176296429Y-110068928D01*
X176296429Y-110283213D01*
X176225000Y-110426070D01*
X176082143Y-110497499D01*
X175296429Y-110497499D01*
X176082143Y-110497499D02*
X176225000Y-110568928D01*
X176296429Y-110711785D01*
X176296429Y-110926070D01*
X176225000Y-111068928D01*
X176082143Y-111140356D01*
X175296429Y-111140356D01*
X175296429Y-111854642D02*
X176296429Y-111854642D01*
X176153571Y-111854642D02*
X176225000Y-111926070D01*
X176296429Y-112068928D01*
X176296429Y-112283213D01*
X176225000Y-112426070D01*
X176082143Y-112497499D01*
X175296429Y-112497499D01*
X176082143Y-112497499D02*
X176225000Y-112568928D01*
X176296429Y-112711785D01*
X176296429Y-112926070D01*
X176225000Y-113068928D01*
X176082143Y-113140356D01*
X175296429Y-113140356D01*
X174625000Y-91440000D02*
X174625000Y-122555000D01*
X163195000Y-91440000D02*
X177325000Y-91440000D01*
X163195000Y-122555000D02*
X177325000Y-122555000D01*
X174625000Y-122555000D02*
X174038579Y-121428496D01*
X174625000Y-122555000D02*
X175211421Y-121428496D01*
X174625000Y-91440000D02*
X174038579Y-92566504D01*
X174625000Y-91440000D02*
X175211421Y-92566504D01*
D12*
X147955000Y-114935000D03*
D13*
X149955000Y-114935000D03*
X151955000Y-114935000D03*
D14*
X146050000Y-120650000D03*
D15*
X148590000Y-120650000D03*
X151130000Y-120650000D03*
X153670000Y-120650000D03*
X156210000Y-120650000D03*
X158750000Y-120650000D03*
X161290000Y-120650000D03*
D14*
X146050000Y-93345000D03*
D15*
X148590000Y-93345000D03*
X151130000Y-93345000D03*
X153670000Y-93345000D03*
X156210000Y-93345000D03*
X158750000Y-93345000D03*
X161290000Y-93345000D03*
M02*
