G04 #@! TF.FileFunction,Copper,L1,Top,Signal*
%FSLAX46Y46*%
G04 Gerber Fmt 4.6, Leading zero omitted, Abs format (unit mm)*
G04 Created by KiCad (PCBNEW 4.0.7-e2-6376~58~ubuntu17.04.1) date Wed Oct  4 00:29:26 2017*
%MOMM*%
%LPD*%
G01*
G04 APERTURE LIST*
%ADD10C,0.100000*%
%ADD11R,1.200000X0.750000*%
%ADD12R,1.700000X1.700000*%
%ADD13O,1.700000X1.700000*%
%ADD14R,0.970000X1.270000*%
%ADD15R,1.900000X0.800000*%
%ADD16R,1.700000X0.900000*%
%ADD17R,1.750000X1.750000*%
%ADD18C,1.750000*%
%ADD19C,0.600000*%
%ADD20C,0.250000*%
%ADD21C,0.254000*%
G04 APERTURE END LIST*
D10*
D11*
X175580000Y-113665000D03*
X177480000Y-113665000D03*
X175580000Y-116840000D03*
X177480000Y-116840000D03*
X171135000Y-104140000D03*
X173035000Y-104140000D03*
X171135000Y-100965000D03*
X173035000Y-100965000D03*
X173035000Y-107315000D03*
X171135000Y-107315000D03*
X171135000Y-110490000D03*
X173035000Y-110490000D03*
X171135000Y-113665000D03*
X173035000Y-113665000D03*
X171135000Y-116840000D03*
X173035000Y-116840000D03*
D12*
X158750000Y-120650000D03*
D13*
X161290000Y-120650000D03*
X163830000Y-120650000D03*
X166370000Y-120650000D03*
X168910000Y-120650000D03*
X171450000Y-120650000D03*
X173990000Y-120650000D03*
X176530000Y-120650000D03*
D14*
X157480000Y-95250000D03*
X158750000Y-95250000D03*
X160020000Y-95250000D03*
X164465000Y-95250000D03*
X165735000Y-95250000D03*
X167005000Y-95250000D03*
D15*
X157250000Y-114620000D03*
X157250000Y-116520000D03*
X160250000Y-115570000D03*
X164235000Y-114620000D03*
X164235000Y-116520000D03*
X167235000Y-115570000D03*
D16*
X176530000Y-102030000D03*
X176530000Y-98630000D03*
X176530000Y-110920000D03*
X176530000Y-107520000D03*
D15*
X171220000Y-94935000D03*
X171220000Y-96835000D03*
X174220000Y-95885000D03*
D17*
X158750000Y-100330000D03*
D18*
X161250000Y-100330000D03*
X163750000Y-100330000D03*
X166250000Y-100330000D03*
D17*
X158750000Y-108585000D03*
D18*
X161250000Y-108585000D03*
X163750000Y-108585000D03*
X166250000Y-108585000D03*
D12*
X158750000Y-91440000D03*
D13*
X161290000Y-91440000D03*
X163830000Y-91440000D03*
X166370000Y-91440000D03*
X168910000Y-91440000D03*
X171450000Y-91440000D03*
X173990000Y-91440000D03*
X176530000Y-91440000D03*
D19*
X170022500Y-101100700D03*
X168286600Y-101732900D03*
D20*
X177480000Y-113665000D02*
X177480000Y-112964700D01*
X177705400Y-112739300D02*
X177480000Y-112964700D01*
X177705400Y-103980700D02*
X177705400Y-112739300D01*
X176530000Y-102805300D02*
X177705400Y-103980700D01*
X176530000Y-102030000D02*
X176530000Y-102805300D01*
X175016200Y-102368500D02*
X175354700Y-102030000D01*
X168036100Y-102368500D02*
X175016200Y-102368500D01*
X166250000Y-100582400D02*
X168036100Y-102368500D01*
X166250000Y-100330000D02*
X166250000Y-100582400D01*
X176530000Y-102030000D02*
X175354700Y-102030000D01*
X173805600Y-114365300D02*
X175580000Y-116139700D01*
X171135000Y-114365300D02*
X173805600Y-114365300D01*
X171135000Y-113665000D02*
X171135000Y-114365300D01*
X175580000Y-116840000D02*
X175580000Y-116139700D01*
X171135000Y-113665000D02*
X171135000Y-112964700D01*
X171220000Y-96835000D02*
X171220000Y-97560300D01*
X158750000Y-108585000D02*
X158750000Y-100330000D01*
X158750000Y-100330000D02*
X159950300Y-100330000D01*
X169674600Y-99105700D02*
X165000000Y-99105700D01*
X171220000Y-97560300D02*
X169674600Y-99105700D01*
X159950300Y-99879900D02*
X159950300Y-100330000D01*
X160724500Y-99105700D02*
X159950300Y-99879900D01*
X165000000Y-99105700D02*
X160724500Y-99105700D01*
X171135000Y-112964700D02*
X171135000Y-110490000D01*
X166398700Y-110490000D02*
X171135000Y-110490000D01*
X165000000Y-109091300D02*
X166398700Y-110490000D01*
X165000000Y-107461500D02*
X165000000Y-109091300D01*
X168321500Y-104140000D02*
X165000000Y-107461500D01*
X165000000Y-100818500D02*
X168321500Y-104140000D01*
X165000000Y-99105700D02*
X165000000Y-100818500D01*
X168321500Y-104140000D02*
X171135000Y-104140000D01*
X171135000Y-100965000D02*
X170209700Y-100965000D01*
X170074000Y-101100700D02*
X170209700Y-100965000D01*
X170022500Y-101100700D02*
X170074000Y-101100700D01*
X160025300Y-114620000D02*
X160250000Y-114844700D01*
X160025300Y-101554700D02*
X160025300Y-114620000D01*
X161250000Y-100330000D02*
X160025300Y-101554700D01*
X160250000Y-115570000D02*
X160250000Y-114844700D01*
X170565300Y-108585000D02*
X171135000Y-108015300D01*
X166250000Y-108585000D02*
X170565300Y-108585000D01*
X171135000Y-107315000D02*
X171135000Y-108015300D01*
X174400600Y-108015300D02*
X171135000Y-108015300D01*
X176530000Y-110144700D02*
X174400600Y-108015300D01*
X176530000Y-110920000D02*
X176530000Y-110144700D01*
X167235000Y-114570000D02*
X167235000Y-115570000D01*
X161250000Y-108585000D02*
X167235000Y-114570000D01*
X171135000Y-116840000D02*
X171135000Y-116139700D01*
X170565300Y-115570000D02*
X171135000Y-116139700D01*
X167235000Y-115570000D02*
X170565300Y-115570000D01*
X157250000Y-117974700D02*
X158750000Y-119474700D01*
X157250000Y-116520000D02*
X157250000Y-117974700D01*
X158750000Y-120650000D02*
X158750000Y-119474700D01*
X162005600Y-119474700D02*
X161290000Y-119474700D01*
X164235000Y-117245300D02*
X162005600Y-119474700D01*
X164235000Y-116520000D02*
X164235000Y-117245300D01*
X161290000Y-120650000D02*
X161290000Y-119474700D01*
X162654700Y-121015300D02*
X162654700Y-120650000D01*
X161820400Y-121849600D02*
X162654700Y-121015300D01*
X157787900Y-121849600D02*
X161820400Y-121849600D01*
X155943700Y-120005400D02*
X157787900Y-121849600D01*
X155943700Y-95976000D02*
X155943700Y-120005400D01*
X156669700Y-95250000D02*
X155943700Y-95976000D01*
X157480000Y-95250000D02*
X156669700Y-95250000D01*
X163830000Y-120650000D02*
X162654700Y-120650000D01*
X164465000Y-95250000D02*
X164465000Y-96210300D01*
X172501300Y-97518200D02*
X168286600Y-101732900D01*
X172501300Y-96234600D02*
X172501300Y-97518200D01*
X172364400Y-96097700D02*
X172501300Y-96234600D01*
X170057300Y-96097700D02*
X172364400Y-96097700D01*
X169944700Y-96210300D02*
X170057300Y-96097700D01*
X164465000Y-96210300D02*
X169944700Y-96210300D01*
X157250000Y-98980300D02*
X160020000Y-96210300D01*
X157250000Y-114620000D02*
X157250000Y-98980300D01*
X160020000Y-95617500D02*
X160020000Y-96210300D01*
X160020000Y-95617500D02*
X160020000Y-95250000D01*
X160020000Y-93885300D02*
X161290000Y-92615300D01*
X160020000Y-95250000D02*
X160020000Y-93885300D01*
X161290000Y-91440000D02*
X161290000Y-92615300D01*
X157975300Y-115345300D02*
X157250000Y-115345300D01*
X158976800Y-116346800D02*
X157975300Y-115345300D01*
X162508200Y-116346800D02*
X158976800Y-116346800D01*
X163509700Y-115345300D02*
X162508200Y-116346800D01*
X164235000Y-115345300D02*
X163509700Y-115345300D01*
X164235000Y-114620000D02*
X164235000Y-115345300D01*
X157250000Y-114620000D02*
X157250000Y-115345300D01*
X167005000Y-93250300D02*
X166370000Y-92615300D01*
X167005000Y-95250000D02*
X167005000Y-93250300D01*
X166370000Y-91440000D02*
X166370000Y-92027600D01*
X166370000Y-92027600D02*
X166370000Y-92615300D01*
X167147100Y-92027600D02*
X167734700Y-91440000D01*
X166370000Y-92027600D02*
X167147100Y-92027600D01*
X168910000Y-91440000D02*
X167734700Y-91440000D01*
X158750000Y-93651300D02*
X158750000Y-95250000D01*
X159925400Y-92475900D02*
X158750000Y-93651300D01*
X159925400Y-91108200D02*
X159925400Y-92475900D01*
X160814500Y-90219100D02*
X159925400Y-91108200D01*
X169443100Y-90219100D02*
X160814500Y-90219100D01*
X170180000Y-90956000D02*
X169443100Y-90219100D01*
X170180000Y-91845000D02*
X170180000Y-90956000D01*
X173494700Y-95159700D02*
X170180000Y-91845000D01*
X174220000Y-95159700D02*
X173494700Y-95159700D01*
X174220000Y-95885000D02*
X174220000Y-95159700D01*
D21*
G36*
X175282012Y-109971514D02*
X175228559Y-110005910D01*
X175083569Y-110218110D01*
X175032560Y-110470000D01*
X175032560Y-111370000D01*
X175076838Y-111605317D01*
X175215910Y-111821441D01*
X175428110Y-111966431D01*
X175680000Y-112017440D01*
X176945400Y-112017440D01*
X176945400Y-112424498D01*
X176942599Y-112427299D01*
X176787085Y-112660043D01*
X176644683Y-112686838D01*
X176541354Y-112753329D01*
X176539698Y-112751673D01*
X176306309Y-112655000D01*
X175865750Y-112655000D01*
X175707000Y-112813750D01*
X175707000Y-113538000D01*
X175727000Y-113538000D01*
X175727000Y-113792000D01*
X175707000Y-113792000D01*
X175707000Y-114516250D01*
X175865750Y-114675000D01*
X176306309Y-114675000D01*
X176539698Y-114578327D01*
X176541068Y-114576957D01*
X176628110Y-114636431D01*
X176880000Y-114687440D01*
X177750000Y-114687440D01*
X177750000Y-115845750D01*
X177607000Y-115988750D01*
X177607000Y-116713000D01*
X177627000Y-116713000D01*
X177627000Y-116967000D01*
X177607000Y-116967000D01*
X177607000Y-117691250D01*
X177750000Y-117834250D01*
X177750000Y-119825196D01*
X177580054Y-119570853D01*
X177098285Y-119248946D01*
X176530000Y-119135907D01*
X175961715Y-119248946D01*
X175479946Y-119570853D01*
X175260000Y-119900026D01*
X175040054Y-119570853D01*
X174558285Y-119248946D01*
X173990000Y-119135907D01*
X173421715Y-119248946D01*
X172939946Y-119570853D01*
X172720000Y-119900026D01*
X172500054Y-119570853D01*
X172018285Y-119248946D01*
X171450000Y-119135907D01*
X170881715Y-119248946D01*
X170399946Y-119570853D01*
X170180000Y-119900026D01*
X169960054Y-119570853D01*
X169478285Y-119248946D01*
X168910000Y-119135907D01*
X168341715Y-119248946D01*
X167859946Y-119570853D01*
X167640000Y-119900026D01*
X167420054Y-119570853D01*
X166938285Y-119248946D01*
X166370000Y-119135907D01*
X165801715Y-119248946D01*
X165319946Y-119570853D01*
X165100000Y-119900026D01*
X164880054Y-119570853D01*
X164398285Y-119248946D01*
X163830000Y-119135907D01*
X163317191Y-119237911D01*
X164772401Y-117782701D01*
X164916233Y-117567440D01*
X165185000Y-117567440D01*
X165420317Y-117523162D01*
X165636441Y-117384090D01*
X165781431Y-117171890D01*
X165832440Y-116920000D01*
X165832440Y-116429319D01*
X166033110Y-116566431D01*
X166285000Y-116617440D01*
X168185000Y-116617440D01*
X168420317Y-116573162D01*
X168636441Y-116434090D01*
X168707563Y-116330000D01*
X169914898Y-116330000D01*
X169887560Y-116465000D01*
X169887560Y-117215000D01*
X169931838Y-117450317D01*
X170070910Y-117666441D01*
X170283110Y-117811431D01*
X170535000Y-117862440D01*
X171735000Y-117862440D01*
X171970317Y-117818162D01*
X172073646Y-117751671D01*
X172075302Y-117753327D01*
X172308691Y-117850000D01*
X172749250Y-117850000D01*
X172908000Y-117691250D01*
X172908000Y-116967000D01*
X173162000Y-116967000D01*
X173162000Y-117691250D01*
X173320750Y-117850000D01*
X173761309Y-117850000D01*
X173994698Y-117753327D01*
X174173327Y-117574699D01*
X174270000Y-117341310D01*
X174270000Y-117125750D01*
X174111250Y-116967000D01*
X173162000Y-116967000D01*
X172908000Y-116967000D01*
X172888000Y-116967000D01*
X172888000Y-116713000D01*
X172908000Y-116713000D01*
X172908000Y-115988750D01*
X173162000Y-115988750D01*
X173162000Y-116713000D01*
X174111250Y-116713000D01*
X174270000Y-116554250D01*
X174270000Y-116338690D01*
X174173327Y-116105301D01*
X173994698Y-115926673D01*
X173761309Y-115830000D01*
X173320750Y-115830000D01*
X173162000Y-115988750D01*
X172908000Y-115988750D01*
X172749250Y-115830000D01*
X172308691Y-115830000D01*
X172075302Y-115926673D01*
X172073932Y-115928043D01*
X171986890Y-115868569D01*
X171828946Y-115836584D01*
X171672401Y-115602299D01*
X171195402Y-115125300D01*
X173490798Y-115125300D01*
X174462739Y-116097241D01*
X174383569Y-116213110D01*
X174332560Y-116465000D01*
X174332560Y-117215000D01*
X174376838Y-117450317D01*
X174515910Y-117666441D01*
X174728110Y-117811431D01*
X174980000Y-117862440D01*
X176180000Y-117862440D01*
X176415317Y-117818162D01*
X176518646Y-117751671D01*
X176520302Y-117753327D01*
X176753691Y-117850000D01*
X177194250Y-117850000D01*
X177353000Y-117691250D01*
X177353000Y-116967000D01*
X177333000Y-116967000D01*
X177333000Y-116713000D01*
X177353000Y-116713000D01*
X177353000Y-115988750D01*
X177194250Y-115830000D01*
X176753691Y-115830000D01*
X176520302Y-115926673D01*
X176518932Y-115928043D01*
X176431890Y-115868569D01*
X176273945Y-115836584D01*
X176117401Y-115602299D01*
X175190102Y-114675000D01*
X175294250Y-114675000D01*
X175453000Y-114516250D01*
X175453000Y-113792000D01*
X174503750Y-113792000D01*
X174405426Y-113890324D01*
X174343001Y-113827899D01*
X174096439Y-113663152D01*
X173805600Y-113605300D01*
X172888000Y-113605300D01*
X172888000Y-113538000D01*
X172908000Y-113538000D01*
X172908000Y-112813750D01*
X173162000Y-112813750D01*
X173162000Y-113538000D01*
X174111250Y-113538000D01*
X174270000Y-113379250D01*
X174270000Y-113163690D01*
X174345000Y-113163690D01*
X174345000Y-113379250D01*
X174503750Y-113538000D01*
X175453000Y-113538000D01*
X175453000Y-112813750D01*
X175294250Y-112655000D01*
X174853691Y-112655000D01*
X174620302Y-112751673D01*
X174441673Y-112930301D01*
X174345000Y-113163690D01*
X174270000Y-113163690D01*
X174173327Y-112930301D01*
X173994698Y-112751673D01*
X173761309Y-112655000D01*
X173320750Y-112655000D01*
X173162000Y-112813750D01*
X172908000Y-112813750D01*
X172749250Y-112655000D01*
X172308691Y-112655000D01*
X172075302Y-112751673D01*
X172073932Y-112753043D01*
X171986890Y-112693569D01*
X171895000Y-112674961D01*
X171895000Y-111482334D01*
X171970317Y-111468162D01*
X172073646Y-111401671D01*
X172075302Y-111403327D01*
X172308691Y-111500000D01*
X172749250Y-111500000D01*
X172908000Y-111341250D01*
X172908000Y-110617000D01*
X173162000Y-110617000D01*
X173162000Y-111341250D01*
X173320750Y-111500000D01*
X173761309Y-111500000D01*
X173994698Y-111403327D01*
X174173327Y-111224699D01*
X174270000Y-110991310D01*
X174270000Y-110775750D01*
X174111250Y-110617000D01*
X173162000Y-110617000D01*
X172908000Y-110617000D01*
X172888000Y-110617000D01*
X172888000Y-110363000D01*
X172908000Y-110363000D01*
X172908000Y-109638750D01*
X173162000Y-109638750D01*
X173162000Y-110363000D01*
X174111250Y-110363000D01*
X174270000Y-110204250D01*
X174270000Y-109988690D01*
X174173327Y-109755301D01*
X173994698Y-109576673D01*
X173761309Y-109480000D01*
X173320750Y-109480000D01*
X173162000Y-109638750D01*
X172908000Y-109638750D01*
X172749250Y-109480000D01*
X172308691Y-109480000D01*
X172075302Y-109576673D01*
X172073932Y-109578043D01*
X171986890Y-109518569D01*
X171735000Y-109467560D01*
X170535000Y-109467560D01*
X170299683Y-109511838D01*
X170083559Y-109650910D01*
X170029519Y-109730000D01*
X167240329Y-109730000D01*
X167529370Y-109441463D01*
X167569425Y-109345000D01*
X170565300Y-109345000D01*
X170856139Y-109287148D01*
X171102701Y-109122401D01*
X171449802Y-108775300D01*
X174085798Y-108775300D01*
X175282012Y-109971514D01*
X175282012Y-109971514D01*
G37*
X175282012Y-109971514D02*
X175228559Y-110005910D01*
X175083569Y-110218110D01*
X175032560Y-110470000D01*
X175032560Y-111370000D01*
X175076838Y-111605317D01*
X175215910Y-111821441D01*
X175428110Y-111966431D01*
X175680000Y-112017440D01*
X176945400Y-112017440D01*
X176945400Y-112424498D01*
X176942599Y-112427299D01*
X176787085Y-112660043D01*
X176644683Y-112686838D01*
X176541354Y-112753329D01*
X176539698Y-112751673D01*
X176306309Y-112655000D01*
X175865750Y-112655000D01*
X175707000Y-112813750D01*
X175707000Y-113538000D01*
X175727000Y-113538000D01*
X175727000Y-113792000D01*
X175707000Y-113792000D01*
X175707000Y-114516250D01*
X175865750Y-114675000D01*
X176306309Y-114675000D01*
X176539698Y-114578327D01*
X176541068Y-114576957D01*
X176628110Y-114636431D01*
X176880000Y-114687440D01*
X177750000Y-114687440D01*
X177750000Y-115845750D01*
X177607000Y-115988750D01*
X177607000Y-116713000D01*
X177627000Y-116713000D01*
X177627000Y-116967000D01*
X177607000Y-116967000D01*
X177607000Y-117691250D01*
X177750000Y-117834250D01*
X177750000Y-119825196D01*
X177580054Y-119570853D01*
X177098285Y-119248946D01*
X176530000Y-119135907D01*
X175961715Y-119248946D01*
X175479946Y-119570853D01*
X175260000Y-119900026D01*
X175040054Y-119570853D01*
X174558285Y-119248946D01*
X173990000Y-119135907D01*
X173421715Y-119248946D01*
X172939946Y-119570853D01*
X172720000Y-119900026D01*
X172500054Y-119570853D01*
X172018285Y-119248946D01*
X171450000Y-119135907D01*
X170881715Y-119248946D01*
X170399946Y-119570853D01*
X170180000Y-119900026D01*
X169960054Y-119570853D01*
X169478285Y-119248946D01*
X168910000Y-119135907D01*
X168341715Y-119248946D01*
X167859946Y-119570853D01*
X167640000Y-119900026D01*
X167420054Y-119570853D01*
X166938285Y-119248946D01*
X166370000Y-119135907D01*
X165801715Y-119248946D01*
X165319946Y-119570853D01*
X165100000Y-119900026D01*
X164880054Y-119570853D01*
X164398285Y-119248946D01*
X163830000Y-119135907D01*
X163317191Y-119237911D01*
X164772401Y-117782701D01*
X164916233Y-117567440D01*
X165185000Y-117567440D01*
X165420317Y-117523162D01*
X165636441Y-117384090D01*
X165781431Y-117171890D01*
X165832440Y-116920000D01*
X165832440Y-116429319D01*
X166033110Y-116566431D01*
X166285000Y-116617440D01*
X168185000Y-116617440D01*
X168420317Y-116573162D01*
X168636441Y-116434090D01*
X168707563Y-116330000D01*
X169914898Y-116330000D01*
X169887560Y-116465000D01*
X169887560Y-117215000D01*
X169931838Y-117450317D01*
X170070910Y-117666441D01*
X170283110Y-117811431D01*
X170535000Y-117862440D01*
X171735000Y-117862440D01*
X171970317Y-117818162D01*
X172073646Y-117751671D01*
X172075302Y-117753327D01*
X172308691Y-117850000D01*
X172749250Y-117850000D01*
X172908000Y-117691250D01*
X172908000Y-116967000D01*
X173162000Y-116967000D01*
X173162000Y-117691250D01*
X173320750Y-117850000D01*
X173761309Y-117850000D01*
X173994698Y-117753327D01*
X174173327Y-117574699D01*
X174270000Y-117341310D01*
X174270000Y-117125750D01*
X174111250Y-116967000D01*
X173162000Y-116967000D01*
X172908000Y-116967000D01*
X172888000Y-116967000D01*
X172888000Y-116713000D01*
X172908000Y-116713000D01*
X172908000Y-115988750D01*
X173162000Y-115988750D01*
X173162000Y-116713000D01*
X174111250Y-116713000D01*
X174270000Y-116554250D01*
X174270000Y-116338690D01*
X174173327Y-116105301D01*
X173994698Y-115926673D01*
X173761309Y-115830000D01*
X173320750Y-115830000D01*
X173162000Y-115988750D01*
X172908000Y-115988750D01*
X172749250Y-115830000D01*
X172308691Y-115830000D01*
X172075302Y-115926673D01*
X172073932Y-115928043D01*
X171986890Y-115868569D01*
X171828946Y-115836584D01*
X171672401Y-115602299D01*
X171195402Y-115125300D01*
X173490798Y-115125300D01*
X174462739Y-116097241D01*
X174383569Y-116213110D01*
X174332560Y-116465000D01*
X174332560Y-117215000D01*
X174376838Y-117450317D01*
X174515910Y-117666441D01*
X174728110Y-117811431D01*
X174980000Y-117862440D01*
X176180000Y-117862440D01*
X176415317Y-117818162D01*
X176518646Y-117751671D01*
X176520302Y-117753327D01*
X176753691Y-117850000D01*
X177194250Y-117850000D01*
X177353000Y-117691250D01*
X177353000Y-116967000D01*
X177333000Y-116967000D01*
X177333000Y-116713000D01*
X177353000Y-116713000D01*
X177353000Y-115988750D01*
X177194250Y-115830000D01*
X176753691Y-115830000D01*
X176520302Y-115926673D01*
X176518932Y-115928043D01*
X176431890Y-115868569D01*
X176273945Y-115836584D01*
X176117401Y-115602299D01*
X175190102Y-114675000D01*
X175294250Y-114675000D01*
X175453000Y-114516250D01*
X175453000Y-113792000D01*
X174503750Y-113792000D01*
X174405426Y-113890324D01*
X174343001Y-113827899D01*
X174096439Y-113663152D01*
X173805600Y-113605300D01*
X172888000Y-113605300D01*
X172888000Y-113538000D01*
X172908000Y-113538000D01*
X172908000Y-112813750D01*
X173162000Y-112813750D01*
X173162000Y-113538000D01*
X174111250Y-113538000D01*
X174270000Y-113379250D01*
X174270000Y-113163690D01*
X174345000Y-113163690D01*
X174345000Y-113379250D01*
X174503750Y-113538000D01*
X175453000Y-113538000D01*
X175453000Y-112813750D01*
X175294250Y-112655000D01*
X174853691Y-112655000D01*
X174620302Y-112751673D01*
X174441673Y-112930301D01*
X174345000Y-113163690D01*
X174270000Y-113163690D01*
X174173327Y-112930301D01*
X173994698Y-112751673D01*
X173761309Y-112655000D01*
X173320750Y-112655000D01*
X173162000Y-112813750D01*
X172908000Y-112813750D01*
X172749250Y-112655000D01*
X172308691Y-112655000D01*
X172075302Y-112751673D01*
X172073932Y-112753043D01*
X171986890Y-112693569D01*
X171895000Y-112674961D01*
X171895000Y-111482334D01*
X171970317Y-111468162D01*
X172073646Y-111401671D01*
X172075302Y-111403327D01*
X172308691Y-111500000D01*
X172749250Y-111500000D01*
X172908000Y-111341250D01*
X172908000Y-110617000D01*
X173162000Y-110617000D01*
X173162000Y-111341250D01*
X173320750Y-111500000D01*
X173761309Y-111500000D01*
X173994698Y-111403327D01*
X174173327Y-111224699D01*
X174270000Y-110991310D01*
X174270000Y-110775750D01*
X174111250Y-110617000D01*
X173162000Y-110617000D01*
X172908000Y-110617000D01*
X172888000Y-110617000D01*
X172888000Y-110363000D01*
X172908000Y-110363000D01*
X172908000Y-109638750D01*
X173162000Y-109638750D01*
X173162000Y-110363000D01*
X174111250Y-110363000D01*
X174270000Y-110204250D01*
X174270000Y-109988690D01*
X174173327Y-109755301D01*
X173994698Y-109576673D01*
X173761309Y-109480000D01*
X173320750Y-109480000D01*
X173162000Y-109638750D01*
X172908000Y-109638750D01*
X172749250Y-109480000D01*
X172308691Y-109480000D01*
X172075302Y-109576673D01*
X172073932Y-109578043D01*
X171986890Y-109518569D01*
X171735000Y-109467560D01*
X170535000Y-109467560D01*
X170299683Y-109511838D01*
X170083559Y-109650910D01*
X170029519Y-109730000D01*
X167240329Y-109730000D01*
X167529370Y-109441463D01*
X167569425Y-109345000D01*
X170565300Y-109345000D01*
X170856139Y-109287148D01*
X171102701Y-109122401D01*
X171449802Y-108775300D01*
X174085798Y-108775300D01*
X175282012Y-109971514D01*
G36*
X175428110Y-103076431D02*
X175680000Y-103127440D01*
X175848767Y-103127440D01*
X175992599Y-103342701D01*
X176945400Y-104295502D01*
X176945400Y-106435000D01*
X176815750Y-106435000D01*
X176657000Y-106593750D01*
X176657000Y-107393000D01*
X176677000Y-107393000D01*
X176677000Y-107647000D01*
X176657000Y-107647000D01*
X176657000Y-108446250D01*
X176815750Y-108605000D01*
X176945400Y-108605000D01*
X176945400Y-109485298D01*
X176065102Y-108605000D01*
X176244250Y-108605000D01*
X176403000Y-108446250D01*
X176403000Y-107647000D01*
X175203750Y-107647000D01*
X175155426Y-107695324D01*
X174938001Y-107477899D01*
X174691439Y-107313152D01*
X174400600Y-107255300D01*
X174270000Y-107255300D01*
X174270000Y-107187998D01*
X174111252Y-107187998D01*
X174270000Y-107029250D01*
X174270000Y-106943691D01*
X175045000Y-106943691D01*
X175045000Y-107234250D01*
X175203750Y-107393000D01*
X176403000Y-107393000D01*
X176403000Y-106593750D01*
X176244250Y-106435000D01*
X175553690Y-106435000D01*
X175320301Y-106531673D01*
X175141673Y-106710302D01*
X175045000Y-106943691D01*
X174270000Y-106943691D01*
X174270000Y-106813690D01*
X174173327Y-106580301D01*
X173994698Y-106401673D01*
X173761309Y-106305000D01*
X173320750Y-106305000D01*
X173162000Y-106463750D01*
X173162000Y-107188000D01*
X173182000Y-107188000D01*
X173182000Y-107255300D01*
X172888000Y-107255300D01*
X172888000Y-107188000D01*
X172908000Y-107188000D01*
X172908000Y-106463750D01*
X172749250Y-106305000D01*
X172308691Y-106305000D01*
X172075302Y-106401673D01*
X172073932Y-106403043D01*
X171986890Y-106343569D01*
X171735000Y-106292560D01*
X170535000Y-106292560D01*
X170299683Y-106336838D01*
X170083559Y-106475910D01*
X169938569Y-106688110D01*
X169887560Y-106940000D01*
X169887560Y-107690000D01*
X169912962Y-107825000D01*
X167569797Y-107825000D01*
X167530862Y-107730771D01*
X167106463Y-107305630D01*
X166551675Y-107075262D01*
X166461119Y-107075183D01*
X168636302Y-104900000D01*
X170028156Y-104900000D01*
X170070910Y-104966441D01*
X170283110Y-105111431D01*
X170535000Y-105162440D01*
X171735000Y-105162440D01*
X171970317Y-105118162D01*
X172073646Y-105051671D01*
X172075302Y-105053327D01*
X172308691Y-105150000D01*
X172749250Y-105150000D01*
X172908000Y-104991250D01*
X172908000Y-104267000D01*
X173162000Y-104267000D01*
X173162000Y-104991250D01*
X173320750Y-105150000D01*
X173761309Y-105150000D01*
X173994698Y-105053327D01*
X174173327Y-104874699D01*
X174270000Y-104641310D01*
X174270000Y-104425750D01*
X174111250Y-104267000D01*
X173162000Y-104267000D01*
X172908000Y-104267000D01*
X172888000Y-104267000D01*
X172888000Y-104013000D01*
X172908000Y-104013000D01*
X172908000Y-103288750D01*
X173162000Y-103288750D01*
X173162000Y-104013000D01*
X174111250Y-104013000D01*
X174270000Y-103854250D01*
X174270000Y-103638690D01*
X174173327Y-103405301D01*
X173994698Y-103226673D01*
X173761309Y-103130000D01*
X173320750Y-103130000D01*
X173162000Y-103288750D01*
X172908000Y-103288750D01*
X172749250Y-103130000D01*
X172308691Y-103130000D01*
X172075302Y-103226673D01*
X172073932Y-103228043D01*
X171986890Y-103168569D01*
X171789023Y-103128500D01*
X175016200Y-103128500D01*
X175307039Y-103070648D01*
X175363971Y-103032607D01*
X175428110Y-103076431D01*
X175428110Y-103076431D01*
G37*
X175428110Y-103076431D02*
X175680000Y-103127440D01*
X175848767Y-103127440D01*
X175992599Y-103342701D01*
X176945400Y-104295502D01*
X176945400Y-106435000D01*
X176815750Y-106435000D01*
X176657000Y-106593750D01*
X176657000Y-107393000D01*
X176677000Y-107393000D01*
X176677000Y-107647000D01*
X176657000Y-107647000D01*
X176657000Y-108446250D01*
X176815750Y-108605000D01*
X176945400Y-108605000D01*
X176945400Y-109485298D01*
X176065102Y-108605000D01*
X176244250Y-108605000D01*
X176403000Y-108446250D01*
X176403000Y-107647000D01*
X175203750Y-107647000D01*
X175155426Y-107695324D01*
X174938001Y-107477899D01*
X174691439Y-107313152D01*
X174400600Y-107255300D01*
X174270000Y-107255300D01*
X174270000Y-107187998D01*
X174111252Y-107187998D01*
X174270000Y-107029250D01*
X174270000Y-106943691D01*
X175045000Y-106943691D01*
X175045000Y-107234250D01*
X175203750Y-107393000D01*
X176403000Y-107393000D01*
X176403000Y-106593750D01*
X176244250Y-106435000D01*
X175553690Y-106435000D01*
X175320301Y-106531673D01*
X175141673Y-106710302D01*
X175045000Y-106943691D01*
X174270000Y-106943691D01*
X174270000Y-106813690D01*
X174173327Y-106580301D01*
X173994698Y-106401673D01*
X173761309Y-106305000D01*
X173320750Y-106305000D01*
X173162000Y-106463750D01*
X173162000Y-107188000D01*
X173182000Y-107188000D01*
X173182000Y-107255300D01*
X172888000Y-107255300D01*
X172888000Y-107188000D01*
X172908000Y-107188000D01*
X172908000Y-106463750D01*
X172749250Y-106305000D01*
X172308691Y-106305000D01*
X172075302Y-106401673D01*
X172073932Y-106403043D01*
X171986890Y-106343569D01*
X171735000Y-106292560D01*
X170535000Y-106292560D01*
X170299683Y-106336838D01*
X170083559Y-106475910D01*
X169938569Y-106688110D01*
X169887560Y-106940000D01*
X169887560Y-107690000D01*
X169912962Y-107825000D01*
X167569797Y-107825000D01*
X167530862Y-107730771D01*
X167106463Y-107305630D01*
X166551675Y-107075262D01*
X166461119Y-107075183D01*
X168636302Y-104900000D01*
X170028156Y-104900000D01*
X170070910Y-104966441D01*
X170283110Y-105111431D01*
X170535000Y-105162440D01*
X171735000Y-105162440D01*
X171970317Y-105118162D01*
X172073646Y-105051671D01*
X172075302Y-105053327D01*
X172308691Y-105150000D01*
X172749250Y-105150000D01*
X172908000Y-104991250D01*
X172908000Y-104267000D01*
X173162000Y-104267000D01*
X173162000Y-104991250D01*
X173320750Y-105150000D01*
X173761309Y-105150000D01*
X173994698Y-105053327D01*
X174173327Y-104874699D01*
X174270000Y-104641310D01*
X174270000Y-104425750D01*
X174111250Y-104267000D01*
X173162000Y-104267000D01*
X172908000Y-104267000D01*
X172888000Y-104267000D01*
X172888000Y-104013000D01*
X172908000Y-104013000D01*
X172908000Y-103288750D01*
X173162000Y-103288750D01*
X173162000Y-104013000D01*
X174111250Y-104013000D01*
X174270000Y-103854250D01*
X174270000Y-103638690D01*
X174173327Y-103405301D01*
X173994698Y-103226673D01*
X173761309Y-103130000D01*
X173320750Y-103130000D01*
X173162000Y-103288750D01*
X172908000Y-103288750D01*
X172749250Y-103130000D01*
X172308691Y-103130000D01*
X172075302Y-103226673D01*
X172073932Y-103228043D01*
X171986890Y-103168569D01*
X171789023Y-103128500D01*
X175016200Y-103128500D01*
X175307039Y-103070648D01*
X175363971Y-103032607D01*
X175428110Y-103076431D01*
G36*
X163943748Y-100315858D02*
X163929605Y-100330000D01*
X163943748Y-100344143D01*
X163764143Y-100523748D01*
X163750000Y-100509605D01*
X162867545Y-101392060D01*
X162950884Y-101645953D01*
X163515306Y-101851590D01*
X164115458Y-101825579D01*
X164549116Y-101645953D01*
X164599415Y-101492717D01*
X167246698Y-104140000D01*
X164462599Y-106924099D01*
X164297852Y-107170661D01*
X164296583Y-107177041D01*
X163984694Y-107063410D01*
X163384542Y-107089421D01*
X162950884Y-107269047D01*
X162867545Y-107522940D01*
X163750000Y-108405395D01*
X163764143Y-108391253D01*
X163943748Y-108570858D01*
X163929605Y-108585000D01*
X163943748Y-108599143D01*
X163764143Y-108778748D01*
X163750000Y-108764605D01*
X163735858Y-108778748D01*
X163556253Y-108599143D01*
X163570395Y-108585000D01*
X162687940Y-107702545D01*
X162539352Y-107751318D01*
X162530862Y-107730771D01*
X162106463Y-107305630D01*
X161551675Y-107075262D01*
X160950960Y-107074738D01*
X160785300Y-107143187D01*
X160785300Y-101869502D01*
X160854163Y-101800639D01*
X160948325Y-101839738D01*
X161549040Y-101840262D01*
X162104229Y-101610862D01*
X162529370Y-101186463D01*
X162538892Y-101163531D01*
X162687940Y-101212455D01*
X163570395Y-100330000D01*
X163556253Y-100315858D01*
X163735858Y-100136253D01*
X163750000Y-100150395D01*
X163764143Y-100136253D01*
X163943748Y-100315858D01*
X163943748Y-100315858D01*
G37*
X163943748Y-100315858D02*
X163929605Y-100330000D01*
X163943748Y-100344143D01*
X163764143Y-100523748D01*
X163750000Y-100509605D01*
X162867545Y-101392060D01*
X162950884Y-101645953D01*
X163515306Y-101851590D01*
X164115458Y-101825579D01*
X164549116Y-101645953D01*
X164599415Y-101492717D01*
X167246698Y-104140000D01*
X164462599Y-106924099D01*
X164297852Y-107170661D01*
X164296583Y-107177041D01*
X163984694Y-107063410D01*
X163384542Y-107089421D01*
X162950884Y-107269047D01*
X162867545Y-107522940D01*
X163750000Y-108405395D01*
X163764143Y-108391253D01*
X163943748Y-108570858D01*
X163929605Y-108585000D01*
X163943748Y-108599143D01*
X163764143Y-108778748D01*
X163750000Y-108764605D01*
X163735858Y-108778748D01*
X163556253Y-108599143D01*
X163570395Y-108585000D01*
X162687940Y-107702545D01*
X162539352Y-107751318D01*
X162530862Y-107730771D01*
X162106463Y-107305630D01*
X161551675Y-107075262D01*
X160950960Y-107074738D01*
X160785300Y-107143187D01*
X160785300Y-101869502D01*
X160854163Y-101800639D01*
X160948325Y-101839738D01*
X161549040Y-101840262D01*
X162104229Y-101610862D01*
X162529370Y-101186463D01*
X162538892Y-101163531D01*
X162687940Y-101212455D01*
X163570395Y-100330000D01*
X163556253Y-100315858D01*
X163735858Y-100136253D01*
X163750000Y-100150395D01*
X163764143Y-100136253D01*
X163943748Y-100315858D01*
G36*
X175479946Y-92519147D02*
X175961715Y-92841054D01*
X176530000Y-92954093D01*
X177098285Y-92841054D01*
X177580054Y-92519147D01*
X177750000Y-92264804D01*
X177750000Y-97651974D01*
X177739699Y-97641673D01*
X177506310Y-97545000D01*
X176815750Y-97545000D01*
X176657000Y-97703750D01*
X176657000Y-98503000D01*
X176677000Y-98503000D01*
X176677000Y-98757000D01*
X176657000Y-98757000D01*
X176657000Y-99556250D01*
X176815750Y-99715000D01*
X177506310Y-99715000D01*
X177739699Y-99618327D01*
X177750000Y-99608026D01*
X177750000Y-101064270D01*
X177631890Y-100983569D01*
X177380000Y-100932560D01*
X175680000Y-100932560D01*
X175444683Y-100976838D01*
X175228559Y-101115910D01*
X175086873Y-101323274D01*
X175063860Y-101327852D01*
X174817299Y-101492599D01*
X174701398Y-101608500D01*
X174211103Y-101608500D01*
X174270000Y-101466310D01*
X174270000Y-101250750D01*
X174111250Y-101092000D01*
X173162000Y-101092000D01*
X173162000Y-101112000D01*
X172908000Y-101112000D01*
X172908000Y-101092000D01*
X172888000Y-101092000D01*
X172888000Y-100838000D01*
X172908000Y-100838000D01*
X172908000Y-100113750D01*
X173162000Y-100113750D01*
X173162000Y-100838000D01*
X174111250Y-100838000D01*
X174270000Y-100679250D01*
X174270000Y-100463690D01*
X174173327Y-100230301D01*
X173994698Y-100051673D01*
X173761309Y-99955000D01*
X173320750Y-99955000D01*
X173162000Y-100113750D01*
X172908000Y-100113750D01*
X172749250Y-99955000D01*
X172308691Y-99955000D01*
X172075302Y-100051673D01*
X172073932Y-100053043D01*
X171986890Y-99993569D01*
X171735000Y-99942560D01*
X171151742Y-99942560D01*
X172178552Y-98915750D01*
X175045000Y-98915750D01*
X175045000Y-99206309D01*
X175141673Y-99439698D01*
X175320301Y-99618327D01*
X175553690Y-99715000D01*
X176244250Y-99715000D01*
X176403000Y-99556250D01*
X176403000Y-98757000D01*
X175203750Y-98757000D01*
X175045000Y-98915750D01*
X172178552Y-98915750D01*
X173038701Y-98055601D01*
X173039977Y-98053691D01*
X175045000Y-98053691D01*
X175045000Y-98344250D01*
X175203750Y-98503000D01*
X176403000Y-98503000D01*
X176403000Y-97703750D01*
X176244250Y-97545000D01*
X175553690Y-97545000D01*
X175320301Y-97641673D01*
X175141673Y-97820302D01*
X175045000Y-98053691D01*
X173039977Y-98053691D01*
X173203448Y-97809039D01*
X173261300Y-97518200D01*
X173261300Y-96930678D01*
X173270000Y-96932440D01*
X175170000Y-96932440D01*
X175405317Y-96888162D01*
X175621441Y-96749090D01*
X175766431Y-96536890D01*
X175817440Y-96285000D01*
X175817440Y-95485000D01*
X175773162Y-95249683D01*
X175634090Y-95033559D01*
X175421890Y-94888569D01*
X175170000Y-94837560D01*
X174901233Y-94837560D01*
X174757401Y-94622299D01*
X174510839Y-94457552D01*
X174220000Y-94399700D01*
X173809502Y-94399700D01*
X172157701Y-92747899D01*
X172500054Y-92519147D01*
X172720000Y-92189974D01*
X172939946Y-92519147D01*
X173421715Y-92841054D01*
X173990000Y-92954093D01*
X174558285Y-92841054D01*
X175040054Y-92519147D01*
X175260000Y-92189974D01*
X175479946Y-92519147D01*
X175479946Y-92519147D01*
G37*
X175479946Y-92519147D02*
X175961715Y-92841054D01*
X176530000Y-92954093D01*
X177098285Y-92841054D01*
X177580054Y-92519147D01*
X177750000Y-92264804D01*
X177750000Y-97651974D01*
X177739699Y-97641673D01*
X177506310Y-97545000D01*
X176815750Y-97545000D01*
X176657000Y-97703750D01*
X176657000Y-98503000D01*
X176677000Y-98503000D01*
X176677000Y-98757000D01*
X176657000Y-98757000D01*
X176657000Y-99556250D01*
X176815750Y-99715000D01*
X177506310Y-99715000D01*
X177739699Y-99618327D01*
X177750000Y-99608026D01*
X177750000Y-101064270D01*
X177631890Y-100983569D01*
X177380000Y-100932560D01*
X175680000Y-100932560D01*
X175444683Y-100976838D01*
X175228559Y-101115910D01*
X175086873Y-101323274D01*
X175063860Y-101327852D01*
X174817299Y-101492599D01*
X174701398Y-101608500D01*
X174211103Y-101608500D01*
X174270000Y-101466310D01*
X174270000Y-101250750D01*
X174111250Y-101092000D01*
X173162000Y-101092000D01*
X173162000Y-101112000D01*
X172908000Y-101112000D01*
X172908000Y-101092000D01*
X172888000Y-101092000D01*
X172888000Y-100838000D01*
X172908000Y-100838000D01*
X172908000Y-100113750D01*
X173162000Y-100113750D01*
X173162000Y-100838000D01*
X174111250Y-100838000D01*
X174270000Y-100679250D01*
X174270000Y-100463690D01*
X174173327Y-100230301D01*
X173994698Y-100051673D01*
X173761309Y-99955000D01*
X173320750Y-99955000D01*
X173162000Y-100113750D01*
X172908000Y-100113750D01*
X172749250Y-99955000D01*
X172308691Y-99955000D01*
X172075302Y-100051673D01*
X172073932Y-100053043D01*
X171986890Y-99993569D01*
X171735000Y-99942560D01*
X171151742Y-99942560D01*
X172178552Y-98915750D01*
X175045000Y-98915750D01*
X175045000Y-99206309D01*
X175141673Y-99439698D01*
X175320301Y-99618327D01*
X175553690Y-99715000D01*
X176244250Y-99715000D01*
X176403000Y-99556250D01*
X176403000Y-98757000D01*
X175203750Y-98757000D01*
X175045000Y-98915750D01*
X172178552Y-98915750D01*
X173038701Y-98055601D01*
X173039977Y-98053691D01*
X175045000Y-98053691D01*
X175045000Y-98344250D01*
X175203750Y-98503000D01*
X176403000Y-98503000D01*
X176403000Y-97703750D01*
X176244250Y-97545000D01*
X175553690Y-97545000D01*
X175320301Y-97641673D01*
X175141673Y-97820302D01*
X175045000Y-98053691D01*
X173039977Y-98053691D01*
X173203448Y-97809039D01*
X173261300Y-97518200D01*
X173261300Y-96930678D01*
X173270000Y-96932440D01*
X175170000Y-96932440D01*
X175405317Y-96888162D01*
X175621441Y-96749090D01*
X175766431Y-96536890D01*
X175817440Y-96285000D01*
X175817440Y-95485000D01*
X175773162Y-95249683D01*
X175634090Y-95033559D01*
X175421890Y-94888569D01*
X175170000Y-94837560D01*
X174901233Y-94837560D01*
X174757401Y-94622299D01*
X174510839Y-94457552D01*
X174220000Y-94399700D01*
X173809502Y-94399700D01*
X172157701Y-92747899D01*
X172500054Y-92519147D01*
X172720000Y-92189974D01*
X172939946Y-92519147D01*
X173421715Y-92841054D01*
X173990000Y-92954093D01*
X174558285Y-92841054D01*
X175040054Y-92519147D01*
X175260000Y-92189974D01*
X175479946Y-92519147D01*
G36*
X165319946Y-92519147D02*
X165632402Y-92727923D01*
X165667852Y-92906139D01*
X165832599Y-93152701D01*
X166245000Y-93565102D01*
X166245000Y-93980000D01*
X166020750Y-93980000D01*
X165862000Y-94138750D01*
X165862000Y-95123000D01*
X165872560Y-95123000D01*
X165872560Y-95377000D01*
X165862000Y-95377000D01*
X165862000Y-95397000D01*
X165608000Y-95397000D01*
X165608000Y-95377000D01*
X165597440Y-95377000D01*
X165597440Y-95123000D01*
X165608000Y-95123000D01*
X165608000Y-94138750D01*
X165449250Y-93980000D01*
X165123690Y-93980000D01*
X165086829Y-93995268D01*
X164950000Y-93967560D01*
X163980000Y-93967560D01*
X163744683Y-94011838D01*
X163528559Y-94150910D01*
X163383569Y-94363110D01*
X163332560Y-94615000D01*
X163332560Y-95885000D01*
X163376838Y-96120317D01*
X163515910Y-96336441D01*
X163728110Y-96481431D01*
X163760225Y-96487935D01*
X163762852Y-96501139D01*
X163927599Y-96747701D01*
X164174161Y-96912448D01*
X164465000Y-96970300D01*
X169622560Y-96970300D01*
X169622560Y-97235000D01*
X169666838Y-97470317D01*
X169805910Y-97686441D01*
X169932537Y-97772961D01*
X169359798Y-98345700D01*
X160724500Y-98345700D01*
X160433661Y-98403552D01*
X160187099Y-98568299D01*
X159888735Y-98866663D01*
X159876890Y-98858569D01*
X159625000Y-98807560D01*
X158497542Y-98807560D01*
X160557401Y-96747701D01*
X160722148Y-96501139D01*
X160724123Y-96491209D01*
X160740317Y-96488162D01*
X160956441Y-96349090D01*
X161101431Y-96136890D01*
X161152440Y-95885000D01*
X161152440Y-94615000D01*
X161108162Y-94379683D01*
X160969090Y-94163559D01*
X160878465Y-94101637D01*
X161827401Y-93152701D01*
X161992148Y-92906140D01*
X162027598Y-92727923D01*
X162340054Y-92519147D01*
X162560000Y-92189974D01*
X162779946Y-92519147D01*
X163261715Y-92841054D01*
X163830000Y-92954093D01*
X164398285Y-92841054D01*
X164880054Y-92519147D01*
X165100000Y-92189974D01*
X165319946Y-92519147D01*
X165319946Y-92519147D01*
G37*
X165319946Y-92519147D02*
X165632402Y-92727923D01*
X165667852Y-92906139D01*
X165832599Y-93152701D01*
X166245000Y-93565102D01*
X166245000Y-93980000D01*
X166020750Y-93980000D01*
X165862000Y-94138750D01*
X165862000Y-95123000D01*
X165872560Y-95123000D01*
X165872560Y-95377000D01*
X165862000Y-95377000D01*
X165862000Y-95397000D01*
X165608000Y-95397000D01*
X165608000Y-95377000D01*
X165597440Y-95377000D01*
X165597440Y-95123000D01*
X165608000Y-95123000D01*
X165608000Y-94138750D01*
X165449250Y-93980000D01*
X165123690Y-93980000D01*
X165086829Y-93995268D01*
X164950000Y-93967560D01*
X163980000Y-93967560D01*
X163744683Y-94011838D01*
X163528559Y-94150910D01*
X163383569Y-94363110D01*
X163332560Y-94615000D01*
X163332560Y-95885000D01*
X163376838Y-96120317D01*
X163515910Y-96336441D01*
X163728110Y-96481431D01*
X163760225Y-96487935D01*
X163762852Y-96501139D01*
X163927599Y-96747701D01*
X164174161Y-96912448D01*
X164465000Y-96970300D01*
X169622560Y-96970300D01*
X169622560Y-97235000D01*
X169666838Y-97470317D01*
X169805910Y-97686441D01*
X169932537Y-97772961D01*
X169359798Y-98345700D01*
X160724500Y-98345700D01*
X160433661Y-98403552D01*
X160187099Y-98568299D01*
X159888735Y-98866663D01*
X159876890Y-98858569D01*
X159625000Y-98807560D01*
X158497542Y-98807560D01*
X160557401Y-96747701D01*
X160722148Y-96501139D01*
X160724123Y-96491209D01*
X160740317Y-96488162D01*
X160956441Y-96349090D01*
X161101431Y-96136890D01*
X161152440Y-95885000D01*
X161152440Y-94615000D01*
X161108162Y-94379683D01*
X160969090Y-94163559D01*
X160878465Y-94101637D01*
X161827401Y-93152701D01*
X161992148Y-92906140D01*
X162027598Y-92727923D01*
X162340054Y-92519147D01*
X162560000Y-92189974D01*
X162779946Y-92519147D01*
X163261715Y-92841054D01*
X163830000Y-92954093D01*
X164398285Y-92841054D01*
X164880054Y-92519147D01*
X165100000Y-92189974D01*
X165319946Y-92519147D01*
G36*
X167859946Y-92519147D02*
X168341715Y-92841054D01*
X168910000Y-92954093D01*
X169478285Y-92841054D01*
X169851727Y-92591529D01*
X171160198Y-93900000D01*
X171092998Y-93900000D01*
X171092998Y-94058748D01*
X170934250Y-93900000D01*
X170143691Y-93900000D01*
X169910302Y-93996673D01*
X169731673Y-94175301D01*
X169635000Y-94408690D01*
X169635000Y-94649250D01*
X169793750Y-94808000D01*
X171093000Y-94808000D01*
X171093000Y-94788000D01*
X171347000Y-94788000D01*
X171347000Y-94808000D01*
X171367000Y-94808000D01*
X171367000Y-95062000D01*
X171347000Y-95062000D01*
X171347000Y-95082000D01*
X171093000Y-95082000D01*
X171093000Y-95062000D01*
X169793750Y-95062000D01*
X169635000Y-95220750D01*
X169635000Y-95450300D01*
X168137440Y-95450300D01*
X168137440Y-94615000D01*
X168093162Y-94379683D01*
X167954090Y-94163559D01*
X167765000Y-94034359D01*
X167765000Y-93250300D01*
X167707148Y-92959461D01*
X167542401Y-92712899D01*
X167510660Y-92681158D01*
X167684501Y-92565001D01*
X167808039Y-92441463D01*
X167859946Y-92519147D01*
X167859946Y-92519147D01*
G37*
X167859946Y-92519147D02*
X168341715Y-92841054D01*
X168910000Y-92954093D01*
X169478285Y-92841054D01*
X169851727Y-92591529D01*
X171160198Y-93900000D01*
X171092998Y-93900000D01*
X171092998Y-94058748D01*
X170934250Y-93900000D01*
X170143691Y-93900000D01*
X169910302Y-93996673D01*
X169731673Y-94175301D01*
X169635000Y-94408690D01*
X169635000Y-94649250D01*
X169793750Y-94808000D01*
X171093000Y-94808000D01*
X171093000Y-94788000D01*
X171347000Y-94788000D01*
X171347000Y-94808000D01*
X171367000Y-94808000D01*
X171367000Y-95062000D01*
X171347000Y-95062000D01*
X171347000Y-95082000D01*
X171093000Y-95082000D01*
X171093000Y-95062000D01*
X169793750Y-95062000D01*
X169635000Y-95220750D01*
X169635000Y-95450300D01*
X168137440Y-95450300D01*
X168137440Y-94615000D01*
X168093162Y-94379683D01*
X167954090Y-94163559D01*
X167765000Y-94034359D01*
X167765000Y-93250300D01*
X167707148Y-92959461D01*
X167542401Y-92712899D01*
X167510660Y-92681158D01*
X167684501Y-92565001D01*
X167808039Y-92441463D01*
X167859946Y-92519147D01*
M02*
