G04 #@! TF.FileFunction,Copper,L2,Bot,Signal*
%FSLAX46Y46*%
G04 Gerber Fmt 4.6, Leading zero omitted, Abs format (unit mm)*
G04 Created by KiCad (PCBNEW 4.0.7-e2-6376~58~ubuntu17.04.1) date Wed Oct  4 00:29:26 2017*
%MOMM*%
%LPD*%
G01*
G04 APERTURE LIST*
%ADD10C,0.100000*%
%ADD11R,1.700000X1.700000*%
%ADD12O,1.700000X1.700000*%
%ADD13R,1.750000X1.750000*%
%ADD14C,1.750000*%
%ADD15C,0.600000*%
%ADD16C,0.250000*%
G04 APERTURE END LIST*
D10*
D11*
X158750000Y-120650000D03*
D12*
X161290000Y-120650000D03*
X163830000Y-120650000D03*
X166370000Y-120650000D03*
X168910000Y-120650000D03*
X171450000Y-120650000D03*
X173990000Y-120650000D03*
X176530000Y-120650000D03*
D13*
X158750000Y-100330000D03*
D14*
X161250000Y-100330000D03*
X163750000Y-100330000D03*
X166250000Y-100330000D03*
D13*
X158750000Y-108585000D03*
D14*
X161250000Y-108585000D03*
X163750000Y-108585000D03*
X166250000Y-108585000D03*
D11*
X158750000Y-91440000D03*
D12*
X161290000Y-91440000D03*
X163830000Y-91440000D03*
X166370000Y-91440000D03*
X168910000Y-91440000D03*
X171450000Y-91440000D03*
X173990000Y-91440000D03*
X176530000Y-91440000D03*
D15*
X170022500Y-101100700D03*
X168286600Y-101732900D03*
D16*
X162450300Y-101530300D02*
X161250000Y-100330000D01*
X167605000Y-101530300D02*
X162450300Y-101530300D01*
X167605000Y-101530200D02*
X167605000Y-101530300D01*
X168034500Y-101100700D02*
X167605000Y-101530200D01*
X170022500Y-101100700D02*
X168034500Y-101100700D01*
X166370000Y-120650000D02*
X166370000Y-119474700D01*
X168286600Y-117558100D02*
X168286600Y-101732900D01*
X166370000Y-119474700D02*
X168286600Y-117558100D01*
X163830000Y-91440000D02*
X162654700Y-91440000D01*
X161290000Y-91440000D02*
X162654700Y-91440000D01*
M02*
