M48
INCH,TZ
T1C0.016
T2C0.039
%
G90
G05
T1
X65250Y-37000
X66500Y-37250
X66634Y-39803
X68124Y-42250
X68250Y-39750
X68250Y-40500
X68250Y-43500
T2
X62500Y-36000
X62500Y-39500
X62500Y-42750
X62500Y-47500
X63484Y-39500
X63484Y-42750
X63500Y-36000
X63500Y-47500
X64469Y-39500
X64469Y-42750
X64500Y-36000
X64500Y-47500
X65453Y-39500
X65453Y-42750
X65500Y-36000
X65500Y-47500
X66500Y-36000
X66500Y-47500
X67500Y-36000
X67500Y-47500
X68500Y-36000
X68500Y-47500
X69500Y-36000
X69500Y-47500
T0
M30
