M48
INCH,TZ
T1C0.016
T2C0.039
%
G90
G05
T1
X59250Y-45298
X61856Y-45916
X65042Y-43020
X66447Y-38401
X66450Y-44101
X66452Y-40897
X66485Y-42856
X66807Y-40069
X66828Y-37459
X67176Y-45892
X67876Y-37149
X68165Y-42955
X68250Y-40455
X68524Y-38405
T2
X58500Y-36000
X58500Y-47500
X59250Y-40500
X59250Y-41484
X59250Y-42469
X59250Y-43453
X59500Y-36000
X59500Y-47500
X60500Y-36000
X60500Y-47500
X61500Y-36000
X61500Y-47500
X62500Y-36000
X62500Y-47500
X63250Y-40500
X63250Y-41484
X63250Y-42469
X63250Y-43453
X63500Y-36000
X63500Y-47500
X64500Y-36000
X64500Y-47500
X65500Y-36000
X65500Y-47500
X66500Y-36000
X66500Y-47500
X67500Y-36000
X67500Y-47500
X68500Y-36000
X68500Y-47500
X69500Y-36000
X69500Y-47500
T0
M30
