G04 #@! TF.FileFunction,Legend,Bot*
%FSLAX46Y46*%
G04 Gerber Fmt 4.6, Leading zero omitted, Abs format (unit mm)*
G04 Created by KiCad (PCBNEW 4.0.7-e2-6376~58~ubuntu17.04.1) date Tue Oct  3 10:22:26 2017*
%MOMM*%
%LPD*%
G01*
G04 APERTURE LIST*
%ADD10C,0.100000*%
%ADD11C,0.120000*%
%ADD12C,0.150000*%
G04 APERTURE END LIST*
D10*
D11*
X177860000Y-119320000D02*
X177860000Y-121980000D01*
X160020000Y-119320000D02*
X177860000Y-119320000D01*
X160020000Y-121980000D02*
X177860000Y-121980000D01*
X160020000Y-119320000D02*
X160020000Y-121980000D01*
X158750000Y-119320000D02*
X157420000Y-119320000D01*
X157420000Y-119320000D02*
X157420000Y-120650000D01*
X177860000Y-90110000D02*
X177860000Y-92770000D01*
X160020000Y-90110000D02*
X177860000Y-90110000D01*
X160020000Y-92770000D02*
X177860000Y-92770000D01*
X160020000Y-90110000D02*
X160020000Y-92770000D01*
X158750000Y-90110000D02*
X157420000Y-90110000D01*
X157420000Y-90110000D02*
X157420000Y-91440000D01*
D12*
X155872381Y-120316667D02*
X156586667Y-120316667D01*
X156729524Y-120269047D01*
X156824762Y-120173809D01*
X156872381Y-120030952D01*
X156872381Y-119935714D01*
X155872381Y-120697619D02*
X155872381Y-121316667D01*
X156253333Y-120983333D01*
X156253333Y-121126191D01*
X156300952Y-121221429D01*
X156348571Y-121269048D01*
X156443810Y-121316667D01*
X156681905Y-121316667D01*
X156777143Y-121269048D01*
X156824762Y-121221429D01*
X156872381Y-121126191D01*
X156872381Y-120840476D01*
X156824762Y-120745238D01*
X156777143Y-120697619D01*
X155872381Y-91106667D02*
X156586667Y-91106667D01*
X156729524Y-91059047D01*
X156824762Y-90963809D01*
X156872381Y-90820952D01*
X156872381Y-90725714D01*
X156205714Y-92011429D02*
X156872381Y-92011429D01*
X155824762Y-91773333D02*
X156539048Y-91535238D01*
X156539048Y-92154286D01*
M02*
