G04 #@! TF.FileFunction,Copper,L1,Top,Signal*
%FSLAX46Y46*%
G04 Gerber Fmt 4.6, Leading zero omitted, Abs format (unit mm)*
G04 Created by KiCad (PCBNEW 4.0.7-e2-6376~60~ubuntu17.10.1) date Wed Nov 29 13:14:38 2017*
%MOMM*%
%LPD*%
G01*
G04 APERTURE LIST*
%ADD10C,0.100000*%
%ADD11R,1.700000X1.700000*%
%ADD12O,1.700000X1.700000*%
%ADD13R,1.200000X0.750000*%
%ADD14R,0.970000X1.270000*%
%ADD15R,1.900000X0.800000*%
%ADD16R,1.700000X0.900000*%
%ADD17R,1.750000X1.750000*%
%ADD18C,1.750000*%
%ADD19C,0.600000*%
%ADD20C,0.250000*%
G04 APERTURE END LIST*
D10*
D11*
X176530000Y-120650000D03*
D12*
X173990000Y-120650000D03*
X171450000Y-120650000D03*
X168910000Y-120650000D03*
X166370000Y-120650000D03*
X163830000Y-120650000D03*
X161290000Y-120650000D03*
X158750000Y-120650000D03*
X156210000Y-120650000D03*
X153670000Y-120650000D03*
X151130000Y-120650000D03*
X148590000Y-120650000D03*
D13*
X172405000Y-95250000D03*
X174305000Y-95250000D03*
X172405000Y-98425000D03*
X174305000Y-98425000D03*
X166690000Y-98425000D03*
X168590000Y-98425000D03*
X166690000Y-95250000D03*
X168590000Y-95250000D03*
X168590000Y-101600000D03*
X166690000Y-101600000D03*
X166690000Y-104775000D03*
X168590000Y-104775000D03*
X166690000Y-107950000D03*
X168590000Y-107950000D03*
X166690000Y-111125000D03*
X168590000Y-111125000D03*
D14*
X158115000Y-116205000D03*
X159385000Y-116205000D03*
X160655000Y-116205000D03*
X149225000Y-116205000D03*
X150495000Y-116205000D03*
X151765000Y-116205000D03*
D15*
X151995000Y-97470000D03*
X151995000Y-95570000D03*
X148995000Y-96520000D03*
X160885000Y-97470000D03*
X160885000Y-95570000D03*
X157885000Y-96520000D03*
D16*
X173355000Y-105205000D03*
X173355000Y-101805000D03*
X173355000Y-111555000D03*
X173355000Y-108155000D03*
D15*
X169140000Y-116520000D03*
X169140000Y-114620000D03*
X166140000Y-115570000D03*
D17*
X150495000Y-102870000D03*
D18*
X150495000Y-105370000D03*
X150495000Y-107870000D03*
X150495000Y-110370000D03*
D17*
X160655000Y-102870000D03*
D18*
X160655000Y-105370000D03*
X160655000Y-107870000D03*
X160655000Y-110370000D03*
D11*
X148590000Y-91440000D03*
D12*
X151130000Y-91440000D03*
X153670000Y-91440000D03*
X156210000Y-91440000D03*
X158750000Y-91440000D03*
X161290000Y-91440000D03*
X163830000Y-91440000D03*
X166370000Y-91440000D03*
X168910000Y-91440000D03*
X171450000Y-91440000D03*
X173990000Y-91440000D03*
X176530000Y-91440000D03*
D19*
X170627900Y-116565400D03*
X168781800Y-112017100D03*
X168871000Y-108853900D03*
X174051300Y-97547700D03*
X172405000Y-94357800D03*
X169742800Y-95146600D03*
X168776600Y-97538100D03*
X169690300Y-101775000D03*
X168787300Y-103877400D03*
X173138400Y-109105400D03*
X173355000Y-102755300D03*
X150495000Y-115057200D03*
X165207500Y-109270300D03*
X157115000Y-116625500D03*
D20*
X169140000Y-116520000D02*
X170415300Y-116520000D01*
X170460700Y-116565400D02*
X170415300Y-116520000D01*
X170627900Y-116565400D02*
X170460700Y-116565400D01*
X168590000Y-111125000D02*
X168590000Y-111825300D01*
X168590000Y-111825300D02*
X168781800Y-112017100D01*
X168590000Y-107950000D02*
X168590000Y-108650300D01*
X168667400Y-108650300D02*
X168590000Y-108650300D01*
X168871000Y-108853900D02*
X168667400Y-108650300D01*
X174305000Y-98425000D02*
X174305000Y-97724700D01*
X174228300Y-97724700D02*
X174305000Y-97724700D01*
X174051300Y-97547700D02*
X174228300Y-97724700D01*
X172405000Y-94357800D02*
X172405000Y-95250000D01*
X168590000Y-95250000D02*
X169515300Y-95250000D01*
X169618700Y-95146600D02*
X169515300Y-95250000D01*
X169742800Y-95146600D02*
X169618700Y-95146600D01*
X168590000Y-98425000D02*
X168590000Y-97724700D01*
X168776600Y-97538100D02*
X168590000Y-97724700D01*
X168590000Y-101600000D02*
X169515300Y-101600000D01*
X169690300Y-101775000D02*
X169515300Y-101600000D01*
X168590000Y-104775000D02*
X168590000Y-104074700D01*
X168787300Y-103877400D02*
X168590000Y-104074700D01*
X173355000Y-108155000D02*
X173355000Y-108930300D01*
X173313500Y-108930300D02*
X173355000Y-108930300D01*
X173138400Y-109105400D02*
X173313500Y-108930300D01*
X173355000Y-102755300D02*
X173355000Y-101805000D01*
X150495000Y-115057200D02*
X150495000Y-116205000D01*
X174530400Y-107155700D02*
X173355000Y-105980300D01*
X174530400Y-112208400D02*
X174530400Y-107155700D01*
X174072500Y-112666300D02*
X174530400Y-112208400D01*
X152791300Y-112666300D02*
X174072500Y-112666300D01*
X150495000Y-110370000D02*
X152791300Y-112666300D01*
X173355000Y-105592600D02*
X173355000Y-105980300D01*
X173355000Y-105592600D02*
X173355000Y-105205000D01*
X175286400Y-96931700D02*
X174305000Y-95950300D01*
X175286400Y-102498300D02*
X175286400Y-96931700D01*
X173355000Y-104429700D02*
X175286400Y-102498300D01*
X173355000Y-105205000D02*
X173355000Y-104429700D01*
X174305000Y-95250000D02*
X174305000Y-95950300D01*
X166690000Y-107950000D02*
X166690000Y-104775000D01*
X166690000Y-98425000D02*
X166227400Y-98425000D01*
X161855300Y-102797100D02*
X166227400Y-98425000D01*
X161855300Y-102870000D02*
X161855300Y-102797100D01*
X160655000Y-102870000D02*
X161855300Y-102870000D01*
X165764600Y-97962200D02*
X166227400Y-98425000D01*
X165764600Y-94739700D02*
X165764600Y-97962200D01*
X165983100Y-94521200D02*
X165764600Y-94739700D01*
X170154400Y-94521200D02*
X165983100Y-94521200D01*
X172405000Y-96771800D02*
X170154400Y-94521200D01*
X166690000Y-104775000D02*
X166690000Y-104074700D01*
X172405000Y-96771800D02*
X172405000Y-98425000D01*
X167871300Y-102893400D02*
X166690000Y-104074700D01*
X169486800Y-102893400D02*
X167871300Y-102893400D01*
X172405000Y-99975200D02*
X169486800Y-102893400D01*
X172405000Y-98425000D02*
X172405000Y-99975200D01*
X173379600Y-95797200D02*
X172405000Y-96771800D01*
X173379600Y-94731400D02*
X173379600Y-95797200D01*
X173561400Y-94549600D02*
X173379600Y-94731400D01*
X175117500Y-94549600D02*
X173561400Y-94549600D01*
X175736800Y-95168900D02*
X175117500Y-94549600D01*
X175736800Y-111638900D02*
X175736800Y-95168900D01*
X172755700Y-114620000D02*
X175736800Y-111638900D01*
X169140000Y-114620000D02*
X172755700Y-114620000D01*
X166690000Y-101600000D02*
X166690000Y-102300300D01*
X163011000Y-108014000D02*
X165295900Y-108014000D01*
X160655000Y-110370000D02*
X163011000Y-108014000D01*
X166813600Y-109531700D02*
X165295900Y-108014000D01*
X172107000Y-109531700D02*
X166813600Y-109531700D01*
X173355000Y-110779700D02*
X172107000Y-109531700D01*
X165295900Y-103694400D02*
X166690000Y-102300300D01*
X165295900Y-108014000D02*
X165295900Y-103694400D01*
X173355000Y-111555000D02*
X173355000Y-110779700D01*
X151995000Y-97470000D02*
X151995000Y-97107300D01*
X160558000Y-117262300D02*
X160655000Y-117165300D01*
X155646900Y-117262300D02*
X160558000Y-117262300D01*
X147701600Y-109317000D02*
X155646900Y-117262300D01*
X147701600Y-95965800D02*
X147701600Y-109317000D01*
X147872800Y-95794600D02*
X147701600Y-95965800D01*
X150358400Y-95794600D02*
X147872800Y-95794600D01*
X151671100Y-97107300D02*
X150358400Y-95794600D01*
X151995000Y-97107300D02*
X151671100Y-97107300D01*
X160655000Y-116205000D02*
X160655000Y-117095400D01*
X160655000Y-117095400D02*
X160655000Y-117165300D01*
X172814700Y-120282700D02*
X172814700Y-120650000D01*
X170909500Y-118377500D02*
X172814700Y-120282700D01*
X161867200Y-118377500D02*
X170909500Y-118377500D01*
X160655000Y-117165300D02*
X161867200Y-118377500D01*
X173990000Y-120650000D02*
X172814700Y-120650000D01*
X155434700Y-97107300D02*
X151995000Y-97107300D01*
X156747400Y-95794600D02*
X155434700Y-97107300D01*
X159209600Y-95794600D02*
X156747400Y-95794600D01*
X160159700Y-96744700D02*
X159209600Y-95794600D01*
X160885000Y-96744700D02*
X160159700Y-96744700D01*
X160885000Y-97470000D02*
X160885000Y-96744700D01*
X170274700Y-120282700D02*
X170274700Y-120650000D01*
X168943400Y-118951400D02*
X170274700Y-120282700D01*
X155321700Y-118951400D02*
X168943400Y-118951400D01*
X152575300Y-116205000D02*
X155321700Y-118951400D01*
X151765000Y-116205000D02*
X152575300Y-116205000D01*
X171450000Y-120650000D02*
X170274700Y-120650000D01*
X164539400Y-115244700D02*
X159385000Y-115244700D01*
X164864700Y-115570000D02*
X164539400Y-115244700D01*
X166140000Y-115570000D02*
X164864700Y-115570000D01*
X159385000Y-116205000D02*
X159385000Y-115244700D01*
X166690000Y-95250000D02*
X166690000Y-95950300D01*
X167615400Y-96875700D02*
X166690000Y-95950300D01*
X167615400Y-99180900D02*
X167615400Y-96875700D01*
X164845500Y-101950800D02*
X167615400Y-99180900D01*
X164845500Y-102884800D02*
X164845500Y-101950800D01*
X161110300Y-106620000D02*
X164845500Y-102884800D01*
X151745000Y-106620000D02*
X161110300Y-106620000D01*
X150495000Y-105370000D02*
X151745000Y-106620000D01*
X148995000Y-103870000D02*
X150495000Y-105370000D01*
X148995000Y-96520000D02*
X148995000Y-103870000D01*
X157885000Y-102600000D02*
X157885000Y-96520000D01*
X160655000Y-105370000D02*
X157885000Y-102600000D01*
X166361900Y-110424700D02*
X166690000Y-110424700D01*
X165207500Y-109270300D02*
X166361900Y-110424700D01*
X166690000Y-111125000D02*
X166690000Y-110424700D01*
X149765300Y-92615000D02*
X149765300Y-91440000D01*
X151995000Y-94844700D02*
X149765300Y-92615000D01*
X151995000Y-95570000D02*
X151995000Y-94844700D01*
X148590000Y-91440000D02*
X149765300Y-91440000D01*
X151130000Y-91440000D02*
X152305300Y-91440000D01*
X152305300Y-91807300D02*
X152305300Y-91440000D01*
X155617700Y-95119700D02*
X152305300Y-91807300D01*
X160434700Y-95119700D02*
X155617700Y-95119700D01*
X160885000Y-95570000D02*
X160434700Y-95119700D01*
X165194700Y-120282600D02*
X165194700Y-120650000D01*
X164386800Y-119474700D02*
X165194700Y-120282600D01*
X151534400Y-119474700D02*
X164386800Y-119474700D01*
X149225000Y-117165300D02*
X151534400Y-119474700D01*
X149225000Y-116205000D02*
X149225000Y-117165300D01*
X166370000Y-120650000D02*
X165194700Y-120650000D01*
X157304700Y-116435800D02*
X157115000Y-116625500D01*
X157304700Y-116205000D02*
X157304700Y-116435800D01*
X158115000Y-116205000D02*
X157304700Y-116205000D01*
M02*
