G04 #@! TF.FileFunction,Legend,Top*
%FSLAX46Y46*%
G04 Gerber Fmt 4.6, Leading zero omitted, Abs format (unit mm)*
G04 Created by KiCad (PCBNEW 4.0.7-e2-6376~58~ubuntu17.04.1) date Wed Oct  4 00:33:47 2017*
%MOMM*%
%LPD*%
G01*
G04 APERTURE LIST*
%ADD10C,0.100000*%
%ADD11C,0.120000*%
%ADD12C,0.010000*%
%ADD13C,0.150000*%
G04 APERTURE END LIST*
D10*
X152516667Y-124021667D02*
X152516667Y-123688333D01*
X152716667Y-124088333D02*
X152016667Y-123855000D01*
X152716667Y-123621667D01*
X152716667Y-123055000D02*
X152716667Y-123388333D01*
X152016667Y-123388333D01*
X152016667Y-122688333D02*
X152016667Y-122555000D01*
X152050000Y-122488333D01*
X152116667Y-122421666D01*
X152250000Y-122388333D01*
X152483333Y-122388333D01*
X152616667Y-122421666D01*
X152683333Y-122488333D01*
X152716667Y-122555000D01*
X152716667Y-122688333D01*
X152683333Y-122755000D01*
X152616667Y-122821666D01*
X152483333Y-122855000D01*
X152250000Y-122855000D01*
X152116667Y-122821666D01*
X152050000Y-122755000D01*
X152016667Y-122688333D01*
X152350000Y-122088333D02*
X152350000Y-121855000D01*
X152716667Y-121755000D02*
X152716667Y-122088333D01*
X152016667Y-122088333D01*
X152016667Y-121755000D01*
X152683333Y-121488334D02*
X152716667Y-121388334D01*
X152716667Y-121221667D01*
X152683333Y-121155000D01*
X152650000Y-121121667D01*
X152583333Y-121088334D01*
X152516667Y-121088334D01*
X152450000Y-121121667D01*
X152416667Y-121155000D01*
X152383333Y-121221667D01*
X152350000Y-121355000D01*
X152316667Y-121421667D01*
X152283333Y-121455000D01*
X152216667Y-121488334D01*
X152150000Y-121488334D01*
X152083333Y-121455000D01*
X152050000Y-121421667D01*
X152016667Y-121355000D01*
X152016667Y-121188334D01*
X152050000Y-121088334D01*
X163311667Y-95750000D02*
X163311667Y-95416666D01*
X163511667Y-95816666D02*
X162811667Y-95583333D01*
X163511667Y-95350000D01*
X163045000Y-94816666D02*
X163511667Y-94816666D01*
X162778333Y-94983333D02*
X163278333Y-95150000D01*
X163278333Y-94716666D01*
X152516667Y-112260000D02*
X152516667Y-111926666D01*
X152716667Y-112326666D02*
X152016667Y-112093333D01*
X152716667Y-111860000D01*
X152016667Y-111293333D02*
X152016667Y-111626666D01*
X152350000Y-111660000D01*
X152316667Y-111626666D01*
X152283333Y-111560000D01*
X152283333Y-111393333D01*
X152316667Y-111326666D01*
X152350000Y-111293333D01*
X152416667Y-111260000D01*
X152583333Y-111260000D01*
X152650000Y-111293333D01*
X152683333Y-111326666D01*
X152716667Y-111393333D01*
X152716667Y-111560000D01*
X152683333Y-111626666D01*
X152650000Y-111660000D01*
X157596667Y-112260000D02*
X157596667Y-111926666D01*
X157796667Y-112326666D02*
X157096667Y-112093333D01*
X157796667Y-111860000D01*
X157330000Y-111326666D02*
X157796667Y-111326666D01*
X157063333Y-111493333D02*
X157563333Y-111660000D01*
X157563333Y-111226666D01*
X160070000Y-113160000D02*
X160070000Y-112626667D01*
X160336667Y-112893334D02*
X159803333Y-112893334D01*
X159636667Y-112360000D02*
X159636667Y-111926667D01*
X159903333Y-112160000D01*
X159903333Y-112060000D01*
X159936667Y-111993333D01*
X159970000Y-111960000D01*
X160036667Y-111926667D01*
X160203333Y-111926667D01*
X160270000Y-111960000D01*
X160303333Y-111993333D01*
X160336667Y-112060000D01*
X160336667Y-112260000D01*
X160303333Y-112326667D01*
X160270000Y-112360000D01*
X160270000Y-111626666D02*
X160303333Y-111593333D01*
X160336667Y-111626666D01*
X160303333Y-111660000D01*
X160270000Y-111626666D01*
X160336667Y-111626666D01*
X159636667Y-111360000D02*
X159636667Y-110926667D01*
X159903333Y-111160000D01*
X159903333Y-111060000D01*
X159936667Y-110993333D01*
X159970000Y-110960000D01*
X160036667Y-110926667D01*
X160203333Y-110926667D01*
X160270000Y-110960000D01*
X160303333Y-110993333D01*
X160336667Y-111060000D01*
X160336667Y-111260000D01*
X160303333Y-111326667D01*
X160270000Y-111360000D01*
X159636667Y-110726666D02*
X160336667Y-110493333D01*
X159636667Y-110260000D01*
X154590000Y-112293333D02*
X154556667Y-112359999D01*
X154556667Y-112459999D01*
X154590000Y-112559999D01*
X154656667Y-112626666D01*
X154723333Y-112659999D01*
X154856667Y-112693333D01*
X154956667Y-112693333D01*
X155090000Y-112659999D01*
X155156667Y-112626666D01*
X155223333Y-112559999D01*
X155256667Y-112459999D01*
X155256667Y-112393333D01*
X155223333Y-112293333D01*
X155190000Y-112259999D01*
X154956667Y-112259999D01*
X154956667Y-112393333D01*
X155256667Y-111959999D02*
X154556667Y-111959999D01*
X155256667Y-111559999D01*
X154556667Y-111559999D01*
X155256667Y-111226666D02*
X154556667Y-111226666D01*
X154556667Y-111060000D01*
X154590000Y-110960000D01*
X154656667Y-110893333D01*
X154723333Y-110860000D01*
X154856667Y-110826666D01*
X154956667Y-110826666D01*
X155090000Y-110860000D01*
X155156667Y-110893333D01*
X155223333Y-110960000D01*
X155256667Y-111060000D01*
X155256667Y-111226666D01*
X166686667Y-109736666D02*
X165986667Y-109736666D01*
X165986667Y-109570000D01*
X166020000Y-109470000D01*
X166086667Y-109403333D01*
X166153333Y-109370000D01*
X166286667Y-109336666D01*
X166386667Y-109336666D01*
X166520000Y-109370000D01*
X166586667Y-109403333D01*
X166653333Y-109470000D01*
X166686667Y-109570000D01*
X166686667Y-109736666D01*
X165986667Y-108703333D02*
X165986667Y-109036666D01*
X166320000Y-109070000D01*
X166286667Y-109036666D01*
X166253333Y-108970000D01*
X166253333Y-108803333D01*
X166286667Y-108736666D01*
X166320000Y-108703333D01*
X166386667Y-108670000D01*
X166553333Y-108670000D01*
X166620000Y-108703333D01*
X166653333Y-108736666D01*
X166686667Y-108803333D01*
X166686667Y-108970000D01*
X166653333Y-109036666D01*
X166620000Y-109070000D01*
X166686667Y-120531666D02*
X165986667Y-120531666D01*
X165986667Y-120365000D01*
X166020000Y-120265000D01*
X166086667Y-120198333D01*
X166153333Y-120165000D01*
X166286667Y-120131666D01*
X166386667Y-120131666D01*
X166520000Y-120165000D01*
X166586667Y-120198333D01*
X166653333Y-120265000D01*
X166686667Y-120365000D01*
X166686667Y-120531666D01*
X165986667Y-119531666D02*
X165986667Y-119665000D01*
X166020000Y-119731666D01*
X166053333Y-119765000D01*
X166153333Y-119831666D01*
X166286667Y-119865000D01*
X166553333Y-119865000D01*
X166620000Y-119831666D01*
X166653333Y-119798333D01*
X166686667Y-119731666D01*
X166686667Y-119598333D01*
X166653333Y-119531666D01*
X166620000Y-119498333D01*
X166553333Y-119465000D01*
X166386667Y-119465000D01*
X166320000Y-119498333D01*
X166286667Y-119531666D01*
X166253333Y-119598333D01*
X166253333Y-119731666D01*
X166286667Y-119798333D01*
X166320000Y-119831666D01*
X166386667Y-119865000D01*
X166020000Y-114198333D02*
X165986667Y-114264999D01*
X165986667Y-114364999D01*
X166020000Y-114464999D01*
X166086667Y-114531666D01*
X166153333Y-114564999D01*
X166286667Y-114598333D01*
X166386667Y-114598333D01*
X166520000Y-114564999D01*
X166586667Y-114531666D01*
X166653333Y-114464999D01*
X166686667Y-114364999D01*
X166686667Y-114298333D01*
X166653333Y-114198333D01*
X166620000Y-114164999D01*
X166386667Y-114164999D01*
X166386667Y-114298333D01*
X166686667Y-113864999D02*
X165986667Y-113864999D01*
X166686667Y-113464999D01*
X165986667Y-113464999D01*
X166686667Y-113131666D02*
X165986667Y-113131666D01*
X165986667Y-112965000D01*
X166020000Y-112865000D01*
X166086667Y-112798333D01*
X166153333Y-112765000D01*
X166286667Y-112731666D01*
X166386667Y-112731666D01*
X166520000Y-112765000D01*
X166586667Y-112798333D01*
X166653333Y-112865000D01*
X166686667Y-112965000D01*
X166686667Y-113131666D01*
X166420000Y-103635000D02*
X166420000Y-103101667D01*
X166686667Y-103368334D02*
X166153333Y-103368334D01*
X165986667Y-102835000D02*
X165986667Y-102401667D01*
X166253333Y-102635000D01*
X166253333Y-102535000D01*
X166286667Y-102468333D01*
X166320000Y-102435000D01*
X166386667Y-102401667D01*
X166553333Y-102401667D01*
X166620000Y-102435000D01*
X166653333Y-102468333D01*
X166686667Y-102535000D01*
X166686667Y-102735000D01*
X166653333Y-102801667D01*
X166620000Y-102835000D01*
X166620000Y-102101666D02*
X166653333Y-102068333D01*
X166686667Y-102101666D01*
X166653333Y-102135000D01*
X166620000Y-102101666D01*
X166686667Y-102101666D01*
X165986667Y-101835000D02*
X165986667Y-101401667D01*
X166253333Y-101635000D01*
X166253333Y-101535000D01*
X166286667Y-101468333D01*
X166320000Y-101435000D01*
X166386667Y-101401667D01*
X166553333Y-101401667D01*
X166620000Y-101435000D01*
X166653333Y-101468333D01*
X166686667Y-101535000D01*
X166686667Y-101735000D01*
X166653333Y-101801667D01*
X166620000Y-101835000D01*
X165986667Y-101201666D02*
X166686667Y-100968333D01*
X165986667Y-100735000D01*
X149311667Y-95300000D02*
X149845000Y-95300000D01*
X149578333Y-95566667D02*
X149578333Y-95033333D01*
X150411667Y-95200000D02*
X150511667Y-95233333D01*
X150545000Y-95266667D01*
X150578334Y-95333333D01*
X150578334Y-95433333D01*
X150545000Y-95500000D01*
X150511667Y-95533333D01*
X150445000Y-95566667D01*
X150178334Y-95566667D01*
X150178334Y-94866667D01*
X150411667Y-94866667D01*
X150478334Y-94900000D01*
X150511667Y-94933333D01*
X150545000Y-95000000D01*
X150545000Y-95066667D01*
X150511667Y-95133333D01*
X150478334Y-95166667D01*
X150411667Y-95200000D01*
X150178334Y-95200000D01*
X150845000Y-95366667D02*
X151178334Y-95366667D01*
X150778334Y-95566667D02*
X151011667Y-94866667D01*
X151245000Y-95566667D01*
X151378334Y-94866667D02*
X151778334Y-94866667D01*
X151578334Y-95566667D02*
X151578334Y-94866667D01*
X152905000Y-95300000D02*
X153438333Y-95300000D01*
X153171666Y-95566667D02*
X153171666Y-95033333D01*
X153705000Y-94866667D02*
X154138333Y-94866667D01*
X153905000Y-95133333D01*
X154005000Y-95133333D01*
X154071667Y-95166667D01*
X154105000Y-95200000D01*
X154138333Y-95266667D01*
X154138333Y-95433333D01*
X154105000Y-95500000D01*
X154071667Y-95533333D01*
X154005000Y-95566667D01*
X153805000Y-95566667D01*
X153738333Y-95533333D01*
X153705000Y-95500000D01*
X154438334Y-95500000D02*
X154471667Y-95533333D01*
X154438334Y-95566667D01*
X154405000Y-95533333D01*
X154438334Y-95500000D01*
X154438334Y-95566667D01*
X154705000Y-94866667D02*
X155138333Y-94866667D01*
X154905000Y-95133333D01*
X155005000Y-95133333D01*
X155071667Y-95166667D01*
X155105000Y-95200000D01*
X155138333Y-95266667D01*
X155138333Y-95433333D01*
X155105000Y-95500000D01*
X155071667Y-95533333D01*
X155005000Y-95566667D01*
X154805000Y-95566667D01*
X154738333Y-95533333D01*
X154705000Y-95500000D01*
X155338334Y-94866667D02*
X155571667Y-95566667D01*
X155805000Y-94866667D01*
X158851667Y-94900000D02*
X158785001Y-94866667D01*
X158685001Y-94866667D01*
X158585001Y-94900000D01*
X158518334Y-94966667D01*
X158485001Y-95033333D01*
X158451667Y-95166667D01*
X158451667Y-95266667D01*
X158485001Y-95400000D01*
X158518334Y-95466667D01*
X158585001Y-95533333D01*
X158685001Y-95566667D01*
X158751667Y-95566667D01*
X158851667Y-95533333D01*
X158885001Y-95500000D01*
X158885001Y-95266667D01*
X158751667Y-95266667D01*
X159185001Y-95566667D02*
X159185001Y-94866667D01*
X159585001Y-95566667D01*
X159585001Y-94866667D01*
X159918334Y-95566667D02*
X159918334Y-94866667D01*
X160085000Y-94866667D01*
X160185000Y-94900000D01*
X160251667Y-94966667D01*
X160285000Y-95033333D01*
X160318334Y-95166667D01*
X160318334Y-95266667D01*
X160285000Y-95400000D01*
X160251667Y-95466667D01*
X160185000Y-95533333D01*
X160085000Y-95566667D01*
X159918334Y-95566667D01*
X165851667Y-95750000D02*
X165851667Y-95416666D01*
X166051667Y-95816666D02*
X165351667Y-95583333D01*
X166051667Y-95350000D01*
X165351667Y-94783333D02*
X165351667Y-95116666D01*
X165685000Y-95150000D01*
X165651667Y-95116666D01*
X165618333Y-95050000D01*
X165618333Y-94883333D01*
X165651667Y-94816666D01*
X165685000Y-94783333D01*
X165751667Y-94750000D01*
X165918333Y-94750000D01*
X165985000Y-94783333D01*
X166018333Y-94816666D01*
X166051667Y-94883333D01*
X166051667Y-95050000D01*
X166018333Y-95116666D01*
X165985000Y-95150000D01*
X168391667Y-95750000D02*
X168391667Y-95416666D01*
X168591667Y-95816666D02*
X167891667Y-95583333D01*
X168591667Y-95350000D01*
X167891667Y-95183333D02*
X167891667Y-94716666D01*
X168591667Y-95016666D01*
X168391667Y-128770000D02*
X168391667Y-128436666D01*
X168591667Y-128836666D02*
X167891667Y-128603333D01*
X168591667Y-128370000D01*
X167891667Y-127836666D02*
X167891667Y-127970000D01*
X167925000Y-128036666D01*
X167958333Y-128070000D01*
X168058333Y-128136666D01*
X168191667Y-128170000D01*
X168458333Y-128170000D01*
X168525000Y-128136666D01*
X168558333Y-128103333D01*
X168591667Y-128036666D01*
X168591667Y-127903333D01*
X168558333Y-127836666D01*
X168525000Y-127803333D01*
X168458333Y-127770000D01*
X168291667Y-127770000D01*
X168225000Y-127803333D01*
X168191667Y-127836666D01*
X168158333Y-127903333D01*
X168158333Y-128036666D01*
X168191667Y-128103333D01*
X168225000Y-128136666D01*
X168291667Y-128170000D01*
X165851667Y-128770000D02*
X165851667Y-128436666D01*
X166051667Y-128836666D02*
X165351667Y-128603333D01*
X166051667Y-128370000D01*
X166051667Y-127770000D02*
X166051667Y-128170000D01*
X166051667Y-127970000D02*
X165351667Y-127970000D01*
X165451667Y-128036666D01*
X165518333Y-128103333D01*
X165551667Y-128170000D01*
X163311667Y-128770000D02*
X163311667Y-128436666D01*
X163511667Y-128836666D02*
X162811667Y-128603333D01*
X163511667Y-128370000D01*
X162811667Y-128003333D02*
X162811667Y-127936666D01*
X162845000Y-127870000D01*
X162878333Y-127836666D01*
X162945000Y-127803333D01*
X163078333Y-127770000D01*
X163245000Y-127770000D01*
X163378333Y-127803333D01*
X163445000Y-127836666D01*
X163478333Y-127870000D01*
X163511667Y-127936666D01*
X163511667Y-128003333D01*
X163478333Y-128070000D01*
X163445000Y-128103333D01*
X163378333Y-128136666D01*
X163245000Y-128170000D01*
X163078333Y-128170000D01*
X162945000Y-128136666D01*
X162878333Y-128103333D01*
X162845000Y-128070000D01*
X162811667Y-128003333D01*
X160971667Y-128786666D02*
X160271667Y-128786666D01*
X160271667Y-128620000D01*
X160305000Y-128520000D01*
X160371667Y-128453333D01*
X160438333Y-128420000D01*
X160571667Y-128386666D01*
X160671667Y-128386666D01*
X160805000Y-128420000D01*
X160871667Y-128453333D01*
X160938333Y-128520000D01*
X160971667Y-128620000D01*
X160971667Y-128786666D01*
X160271667Y-128153333D02*
X160271667Y-127686666D01*
X160971667Y-127986666D01*
X158431667Y-128786666D02*
X157731667Y-128786666D01*
X157731667Y-128620000D01*
X157765000Y-128520000D01*
X157831667Y-128453333D01*
X157898333Y-128420000D01*
X158031667Y-128386666D01*
X158131667Y-128386666D01*
X158265000Y-128420000D01*
X158331667Y-128453333D01*
X158398333Y-128520000D01*
X158431667Y-128620000D01*
X158431667Y-128786666D01*
X157731667Y-127786666D02*
X157731667Y-127920000D01*
X157765000Y-127986666D01*
X157798333Y-128020000D01*
X157898333Y-128086666D01*
X158031667Y-128120000D01*
X158298333Y-128120000D01*
X158365000Y-128086666D01*
X158398333Y-128053333D01*
X158431667Y-127986666D01*
X158431667Y-127853333D01*
X158398333Y-127786666D01*
X158365000Y-127753333D01*
X158298333Y-127720000D01*
X158131667Y-127720000D01*
X158065000Y-127753333D01*
X158031667Y-127786666D01*
X157998333Y-127853333D01*
X157998333Y-127986666D01*
X158031667Y-128053333D01*
X158065000Y-128086666D01*
X158131667Y-128120000D01*
X155891667Y-128786666D02*
X155191667Y-128786666D01*
X155191667Y-128620000D01*
X155225000Y-128520000D01*
X155291667Y-128453333D01*
X155358333Y-128420000D01*
X155491667Y-128386666D01*
X155591667Y-128386666D01*
X155725000Y-128420000D01*
X155791667Y-128453333D01*
X155858333Y-128520000D01*
X155891667Y-128620000D01*
X155891667Y-128786666D01*
X155191667Y-127753333D02*
X155191667Y-128086666D01*
X155525000Y-128120000D01*
X155491667Y-128086666D01*
X155458333Y-128020000D01*
X155458333Y-127853333D01*
X155491667Y-127786666D01*
X155525000Y-127753333D01*
X155591667Y-127720000D01*
X155758333Y-127720000D01*
X155825000Y-127753333D01*
X155858333Y-127786666D01*
X155891667Y-127853333D01*
X155891667Y-128020000D01*
X155858333Y-128086666D01*
X155825000Y-128120000D01*
X153351667Y-128786666D02*
X152651667Y-128786666D01*
X152651667Y-128620000D01*
X152685000Y-128520000D01*
X152751667Y-128453333D01*
X152818333Y-128420000D01*
X152951667Y-128386666D01*
X153051667Y-128386666D01*
X153185000Y-128420000D01*
X153251667Y-128453333D01*
X153318333Y-128520000D01*
X153351667Y-128620000D01*
X153351667Y-128786666D01*
X152885000Y-127786666D02*
X153351667Y-127786666D01*
X152618333Y-127953333D02*
X153118333Y-128120000D01*
X153118333Y-127686666D01*
X150811667Y-128786666D02*
X150111667Y-128786666D01*
X150111667Y-128620000D01*
X150145000Y-128520000D01*
X150211667Y-128453333D01*
X150278333Y-128420000D01*
X150411667Y-128386666D01*
X150511667Y-128386666D01*
X150645000Y-128420000D01*
X150711667Y-128453333D01*
X150778333Y-128520000D01*
X150811667Y-128620000D01*
X150811667Y-128786666D01*
X150111667Y-128153333D02*
X150111667Y-127720000D01*
X150378333Y-127953333D01*
X150378333Y-127853333D01*
X150411667Y-127786666D01*
X150445000Y-127753333D01*
X150511667Y-127720000D01*
X150678333Y-127720000D01*
X150745000Y-127753333D01*
X150778333Y-127786666D01*
X150811667Y-127853333D01*
X150811667Y-128053333D01*
X150778333Y-128120000D01*
X150745000Y-128153333D01*
D11*
X149850000Y-114390000D02*
X149850000Y-120340000D01*
X149850000Y-120340000D02*
X162450000Y-120340000D01*
X162450000Y-120340000D02*
X162450000Y-114390000D01*
X162450000Y-114390000D02*
X149850000Y-114390000D01*
X153150000Y-114390000D02*
X153150000Y-115140000D01*
X153150000Y-115140000D02*
X159150000Y-115140000D01*
X159150000Y-115140000D02*
X159150000Y-114390000D01*
X159150000Y-114390000D02*
X153150000Y-114390000D01*
X149850000Y-114390000D02*
X149850000Y-115140000D01*
X149850000Y-115140000D02*
X151650000Y-115140000D01*
X151650000Y-115140000D02*
X151650000Y-114390000D01*
X151650000Y-114390000D02*
X149850000Y-114390000D01*
X160650000Y-114390000D02*
X160650000Y-115140000D01*
X160650000Y-115140000D02*
X162450000Y-115140000D01*
X162450000Y-115140000D02*
X162450000Y-114390000D01*
X162450000Y-114390000D02*
X160650000Y-114390000D01*
X149850000Y-116640000D02*
X150600000Y-116640000D01*
X150600000Y-116640000D02*
X150600000Y-119590000D01*
X150600000Y-119590000D02*
X156150000Y-119590000D01*
X162450000Y-116640000D02*
X161700000Y-116640000D01*
X161700000Y-116640000D02*
X161700000Y-119590000D01*
X161700000Y-119590000D02*
X156150000Y-119590000D01*
X152050000Y-114090000D02*
X149550000Y-114090000D01*
X149550000Y-114090000D02*
X149550000Y-116590000D01*
X167260000Y-107955000D02*
X167260000Y-104135000D01*
X167260000Y-104135000D02*
X165480000Y-104135000D01*
X165480000Y-104135000D02*
X165480000Y-107955000D01*
X167260000Y-107955000D02*
X165480000Y-107955000D01*
X167260000Y-118750000D02*
X167260000Y-114930000D01*
X167260000Y-114930000D02*
X165480000Y-114930000D01*
X165480000Y-114930000D02*
X165480000Y-118750000D01*
X167260000Y-118750000D02*
X165480000Y-118750000D01*
X149850000Y-102960000D02*
X149850000Y-108910000D01*
X149850000Y-108910000D02*
X162450000Y-108910000D01*
X162450000Y-108910000D02*
X162450000Y-102960000D01*
X162450000Y-102960000D02*
X149850000Y-102960000D01*
X153150000Y-102960000D02*
X153150000Y-103710000D01*
X153150000Y-103710000D02*
X159150000Y-103710000D01*
X159150000Y-103710000D02*
X159150000Y-102960000D01*
X159150000Y-102960000D02*
X153150000Y-102960000D01*
X149850000Y-102960000D02*
X149850000Y-103710000D01*
X149850000Y-103710000D02*
X151650000Y-103710000D01*
X151650000Y-103710000D02*
X151650000Y-102960000D01*
X151650000Y-102960000D02*
X149850000Y-102960000D01*
X160650000Y-102960000D02*
X160650000Y-103710000D01*
X160650000Y-103710000D02*
X162450000Y-103710000D01*
X162450000Y-103710000D02*
X162450000Y-102960000D01*
X162450000Y-102960000D02*
X160650000Y-102960000D01*
X149850000Y-105210000D02*
X150600000Y-105210000D01*
X150600000Y-105210000D02*
X150600000Y-108160000D01*
X150600000Y-108160000D02*
X156150000Y-108160000D01*
X162450000Y-105210000D02*
X161700000Y-105210000D01*
X161700000Y-105210000D02*
X161700000Y-108160000D01*
X161700000Y-108160000D02*
X156150000Y-108160000D01*
X152050000Y-102660000D02*
X149550000Y-102660000D01*
X149550000Y-102660000D02*
X149550000Y-105160000D01*
D12*
G36*
X147430126Y-122564945D02*
X147430220Y-122473675D01*
X147430419Y-122396716D01*
X147430760Y-122332758D01*
X147431284Y-122280489D01*
X147432027Y-122238599D01*
X147433028Y-122205776D01*
X147434325Y-122180709D01*
X147435957Y-122162088D01*
X147437962Y-122148601D01*
X147440379Y-122138938D01*
X147443245Y-122131787D01*
X147446030Y-122126758D01*
X147471640Y-122099028D01*
X147504393Y-122084938D01*
X147540443Y-122086031D01*
X147544662Y-122087211D01*
X147560949Y-122094233D01*
X147589091Y-122108526D01*
X147626785Y-122128756D01*
X147671725Y-122153590D01*
X147721606Y-122181695D01*
X147774124Y-122211739D01*
X147826973Y-122242388D01*
X147877848Y-122272309D01*
X147924445Y-122300170D01*
X147964458Y-122324638D01*
X147995583Y-122344379D01*
X148015515Y-122358061D01*
X148021037Y-122362694D01*
X148027113Y-122370064D01*
X148031798Y-122379116D01*
X148035367Y-122392179D01*
X148038096Y-122411585D01*
X148040261Y-122439664D01*
X148042138Y-122478746D01*
X148044004Y-122531163D01*
X148045108Y-122565985D01*
X148046922Y-122619701D01*
X148048804Y-122667224D01*
X148050635Y-122706121D01*
X148052296Y-122733962D01*
X148053666Y-122748313D01*
X148054121Y-122749733D01*
X148062205Y-122745723D01*
X148082349Y-122734658D01*
X148111968Y-122717988D01*
X148148477Y-122697162D01*
X148171154Y-122684117D01*
X148284884Y-122618500D01*
X148285200Y-122228186D01*
X148093386Y-122118873D01*
X148040549Y-122088381D01*
X147991730Y-122059488D01*
X147949149Y-122033565D01*
X147915027Y-122011984D01*
X147891586Y-121996117D01*
X147881719Y-121988150D01*
X147861867Y-121966740D01*
X147861867Y-120898855D01*
X147889787Y-120871794D01*
X147903613Y-120859194D01*
X147916887Y-120850167D01*
X147931269Y-120845259D01*
X147948417Y-120845016D01*
X147969992Y-120849985D01*
X147997654Y-120860711D01*
X148033061Y-120877741D01*
X148077872Y-120901622D01*
X148133749Y-120932898D01*
X148202349Y-120972117D01*
X148212734Y-120978083D01*
X148284273Y-121019520D01*
X148341979Y-121053706D01*
X148386966Y-121081354D01*
X148420343Y-121103176D01*
X148443222Y-121119885D01*
X148456716Y-121132195D01*
X148460235Y-121136833D01*
X148465610Y-121147704D01*
X148469771Y-121162023D01*
X148472955Y-121182221D01*
X148475401Y-121210729D01*
X148477348Y-121249977D01*
X148479035Y-121302397D01*
X148479934Y-121337550D01*
X148484167Y-121512868D01*
X148600583Y-121444682D01*
X148717000Y-121376496D01*
X148718077Y-121222798D01*
X148718761Y-121164858D01*
X148719949Y-121104717D01*
X148721504Y-121047683D01*
X148723291Y-120999062D01*
X148724427Y-120975967D01*
X148729700Y-120882833D01*
X148776267Y-120852081D01*
X148796506Y-120839277D01*
X148828787Y-120819539D01*
X148870503Y-120794429D01*
X148919048Y-120765511D01*
X148971814Y-120734345D01*
X149012884Y-120710264D01*
X149072415Y-120675673D01*
X149119416Y-120648920D01*
X149155831Y-120629050D01*
X149183601Y-120615109D01*
X149204668Y-120606142D01*
X149220974Y-120601195D01*
X149234461Y-120599312D01*
X149238800Y-120599200D01*
X149247672Y-120599965D01*
X149258782Y-120602677D01*
X149273291Y-120607954D01*
X149292360Y-120616419D01*
X149317149Y-120628693D01*
X149348819Y-120645398D01*
X149388530Y-120667153D01*
X149437442Y-120694580D01*
X149496717Y-120728301D01*
X149567514Y-120768936D01*
X149650995Y-120817107D01*
X149713383Y-120853201D01*
X149795677Y-120901049D01*
X149873059Y-120946436D01*
X149944271Y-120988601D01*
X150008055Y-121026780D01*
X150063155Y-121060213D01*
X150108312Y-121088138D01*
X150142268Y-121109793D01*
X150163767Y-121124415D01*
X150171108Y-121130485D01*
X150186908Y-121162355D01*
X150188691Y-121198711D01*
X150176342Y-121233880D01*
X150165929Y-121244827D01*
X150144023Y-121261368D01*
X150109911Y-121283958D01*
X150062882Y-121313051D01*
X150002224Y-121349100D01*
X149932200Y-121389703D01*
X149865759Y-121427722D01*
X149812183Y-121457923D01*
X149769790Y-121481145D01*
X149736895Y-121498232D01*
X149711813Y-121510026D01*
X149692860Y-121517367D01*
X149678352Y-121521098D01*
X149667392Y-121522066D01*
X149651334Y-121520485D01*
X149632281Y-121514971D01*
X149607690Y-121504369D01*
X149575017Y-121487523D01*
X149531722Y-121463277D01*
X149508325Y-121449779D01*
X149465213Y-121424844D01*
X149425541Y-121402065D01*
X149392340Y-121383168D01*
X149368644Y-121369883D01*
X149359425Y-121364895D01*
X149335067Y-121352298D01*
X149335329Y-121627900D01*
X149527815Y-121737966D01*
X149580657Y-121768535D01*
X149629438Y-121797420D01*
X149671956Y-121823266D01*
X149706012Y-121844717D01*
X149729405Y-121860416D01*
X149739350Y-121868319D01*
X149744494Y-121874106D01*
X149748615Y-121880545D01*
X149751824Y-121889445D01*
X149754231Y-121902612D01*
X149755948Y-121921855D01*
X149757085Y-121948980D01*
X149757753Y-121985795D01*
X149758064Y-122034108D01*
X149758129Y-122095724D01*
X149758057Y-122172453D01*
X149758056Y-122173119D01*
X149757712Y-122457633D01*
X149734773Y-122483638D01*
X149720421Y-122495714D01*
X149693880Y-122514062D01*
X149657384Y-122537412D01*
X149613167Y-122564495D01*
X149563462Y-122594040D01*
X149510504Y-122624777D01*
X149456527Y-122655436D01*
X149403764Y-122684747D01*
X149354450Y-122711440D01*
X149310818Y-122734246D01*
X149275101Y-122751893D01*
X149249536Y-122763113D01*
X149236931Y-122766667D01*
X149210766Y-122759951D01*
X149181566Y-122741632D01*
X149180363Y-122740650D01*
X149148800Y-122714634D01*
X149147881Y-122518400D01*
X149147378Y-122459153D01*
X149146479Y-122402643D01*
X149145270Y-122352069D01*
X149143832Y-122310631D01*
X149142248Y-122281527D01*
X149141531Y-122273492D01*
X149136100Y-122224818D01*
X149019683Y-122157921D01*
X148903267Y-122091025D01*
X148903267Y-122865047D01*
X149069793Y-122960499D01*
X149124379Y-122991602D01*
X149166351Y-123014964D01*
X149197658Y-123031491D01*
X149220246Y-123042088D01*
X149236063Y-123047660D01*
X149247055Y-123049112D01*
X149255170Y-123047349D01*
X149255912Y-123047025D01*
X149268483Y-123040389D01*
X149293416Y-123026478D01*
X149328459Y-123006575D01*
X149371362Y-122981964D01*
X149419876Y-122953927D01*
X149457573Y-122932016D01*
X149522296Y-122894775D01*
X149573909Y-122866170D01*
X149613520Y-122845639D01*
X149642238Y-122832618D01*
X149661169Y-122826548D01*
X149666732Y-122825933D01*
X149677795Y-122827258D01*
X149692579Y-122831706D01*
X149712408Y-122839984D01*
X149738611Y-122852802D01*
X149772512Y-122870869D01*
X149815439Y-122894892D01*
X149868718Y-122925581D01*
X149933675Y-122963644D01*
X150011637Y-123009790D01*
X150018504Y-123013870D01*
X150064948Y-123041972D01*
X150106628Y-123068155D01*
X150141240Y-123090894D01*
X150166481Y-123108663D01*
X150180047Y-123119936D01*
X150181488Y-123121807D01*
X150188936Y-123149482D01*
X150188082Y-123182792D01*
X150179254Y-123212805D01*
X150178048Y-123215097D01*
X150166287Y-123226679D01*
X150139991Y-123245619D01*
X150099700Y-123271570D01*
X150045960Y-123304185D01*
X149979311Y-123343118D01*
X149964565Y-123351583D01*
X149762634Y-123467205D01*
X149760310Y-123608480D01*
X149757986Y-123749756D01*
X149794177Y-123728565D01*
X149809349Y-123719740D01*
X149837397Y-123703487D01*
X149876533Y-123680838D01*
X149924967Y-123652830D01*
X149980909Y-123620496D01*
X150042570Y-123584872D01*
X150108160Y-123546991D01*
X150130934Y-123533842D01*
X150431500Y-123360311D01*
X150433619Y-123167205D01*
X150435738Y-122974100D01*
X150236082Y-122860142D01*
X150175296Y-122824937D01*
X150122294Y-122793219D01*
X150078637Y-122765977D01*
X150045884Y-122744199D01*
X150025594Y-122728873D01*
X150020180Y-122723369D01*
X150016849Y-122718114D01*
X150014007Y-122711562D01*
X150011615Y-122702415D01*
X150009634Y-122689374D01*
X150008026Y-122671139D01*
X150006751Y-122646412D01*
X150005773Y-122613894D01*
X150005050Y-122572286D01*
X150004546Y-122520291D01*
X150004221Y-122456608D01*
X150004036Y-122379939D01*
X150003953Y-122288985D01*
X150003934Y-122182448D01*
X150003934Y-122177926D01*
X150003950Y-122070786D01*
X150004025Y-121979270D01*
X150004199Y-121902068D01*
X150004511Y-121837869D01*
X150005001Y-121785364D01*
X150005710Y-121743243D01*
X150006677Y-121710196D01*
X150007941Y-121684913D01*
X150009543Y-121666084D01*
X150011522Y-121652400D01*
X150013918Y-121642550D01*
X150016771Y-121635224D01*
X150020121Y-121629113D01*
X150020636Y-121628274D01*
X150044053Y-121603975D01*
X150075065Y-121589582D01*
X150107647Y-121587362D01*
X150120547Y-121590679D01*
X150135696Y-121597882D01*
X150162792Y-121612214D01*
X150199548Y-121632361D01*
X150243678Y-121657008D01*
X150292893Y-121684838D01*
X150344908Y-121714537D01*
X150397435Y-121744789D01*
X150448187Y-121774278D01*
X150494877Y-121801690D01*
X150535218Y-121825709D01*
X150566923Y-121845019D01*
X150587706Y-121858305D01*
X150594483Y-121863274D01*
X150600655Y-121869415D01*
X150605325Y-121876617D01*
X150608704Y-121887144D01*
X150610999Y-121903260D01*
X150612421Y-121927228D01*
X150613178Y-121961314D01*
X150613479Y-122007780D01*
X150613533Y-122068891D01*
X150613533Y-122069642D01*
X150613804Y-122124140D01*
X150614563Y-122172447D01*
X150615730Y-122212172D01*
X150617223Y-122240922D01*
X150618963Y-122256307D01*
X150619883Y-122258241D01*
X150629038Y-122254049D01*
X150650141Y-122242762D01*
X150680535Y-122225848D01*
X150717562Y-122204779D01*
X150740533Y-122191521D01*
X150854833Y-122125226D01*
X150860054Y-121927363D01*
X150861613Y-121868172D01*
X150863087Y-121811977D01*
X150864397Y-121761892D01*
X150865459Y-121721033D01*
X150866194Y-121692512D01*
X150866404Y-121684213D01*
X150868597Y-121655208D01*
X150875268Y-121635799D01*
X150889268Y-121618727D01*
X150893829Y-121614363D01*
X150926049Y-121594402D01*
X150960950Y-121589353D01*
X150994730Y-121598487D01*
X151023584Y-121621074D01*
X151037546Y-121641931D01*
X151044210Y-121657183D01*
X151048671Y-121674357D01*
X151051260Y-121696903D01*
X151052311Y-121728269D01*
X151052157Y-121771905D01*
X151051882Y-121790546D01*
X151051074Y-121840080D01*
X151050095Y-121900550D01*
X151049043Y-121965958D01*
X151048014Y-122030308D01*
X151047467Y-122064745D01*
X151046493Y-122120175D01*
X151045381Y-122161199D01*
X151043822Y-122190343D01*
X151041505Y-122210132D01*
X151038122Y-122223093D01*
X151033365Y-122231752D01*
X151026923Y-122238635D01*
X151026101Y-122239389D01*
X151014157Y-122247872D01*
X150989505Y-122263539D01*
X150954147Y-122285184D01*
X150910084Y-122311598D01*
X150859318Y-122341575D01*
X150803849Y-122373908D01*
X150785308Y-122384627D01*
X150721525Y-122421312D01*
X150670502Y-122450296D01*
X150630409Y-122472472D01*
X150599416Y-122488734D01*
X150575691Y-122499975D01*
X150557404Y-122507087D01*
X150542724Y-122510963D01*
X150529822Y-122512497D01*
X150522841Y-122512666D01*
X150496334Y-122511145D01*
X150478961Y-122504236D01*
X150463024Y-122488420D01*
X150459017Y-122483485D01*
X150435733Y-122454305D01*
X150435731Y-122218902D01*
X150435729Y-121983500D01*
X150357415Y-121939154D01*
X150318967Y-121917332D01*
X150280503Y-121895416D01*
X150247834Y-121876721D01*
X150234650Y-121869133D01*
X150190200Y-121843457D01*
X150190239Y-122230979D01*
X150190277Y-122618500D01*
X150370155Y-122719328D01*
X150422362Y-122749093D01*
X150471334Y-122777949D01*
X150514541Y-122804333D01*
X150549457Y-122826682D01*
X150573553Y-122843433D01*
X150581783Y-122850163D01*
X150613533Y-122880170D01*
X150613264Y-123168435D01*
X150613070Y-123249032D01*
X150612610Y-123314289D01*
X150611822Y-123365798D01*
X150610642Y-123405151D01*
X150609006Y-123433940D01*
X150606852Y-123453756D01*
X150604117Y-123466192D01*
X150601181Y-123472291D01*
X150591892Y-123479219D01*
X150569216Y-123493781D01*
X150534460Y-123515199D01*
X150488931Y-123542694D01*
X150433936Y-123575487D01*
X150370783Y-123612797D01*
X150300778Y-123653845D01*
X150225230Y-123697853D01*
X150145445Y-123744041D01*
X150143191Y-123745341D01*
X150047574Y-123800503D01*
X149965472Y-123847735D01*
X149895723Y-123887552D01*
X149837164Y-123920465D01*
X149788631Y-123946990D01*
X149748962Y-123967639D01*
X149716993Y-123982925D01*
X149691563Y-123993362D01*
X149671507Y-123999464D01*
X149655663Y-124001744D01*
X149642868Y-124000714D01*
X149631959Y-123996889D01*
X149621773Y-123990783D01*
X149611148Y-123982907D01*
X149608916Y-123981202D01*
X149580600Y-123959605D01*
X149580600Y-123669077D01*
X149580646Y-123590997D01*
X149580846Y-123528060D01*
X149581294Y-123478476D01*
X149582085Y-123440454D01*
X149583313Y-123412204D01*
X149585071Y-123391936D01*
X149587453Y-123377860D01*
X149590554Y-123368185D01*
X149594468Y-123361120D01*
X149596958Y-123357755D01*
X149609424Y-123346883D01*
X149633948Y-123329515D01*
X149667814Y-123307431D01*
X149708306Y-123282408D01*
X149747241Y-123259380D01*
X149790717Y-123234149D01*
X149829583Y-123211505D01*
X149861274Y-123192950D01*
X149883226Y-123179984D01*
X149892608Y-123174287D01*
X149892857Y-123168204D01*
X149881722Y-123157077D01*
X149858431Y-123140391D01*
X149822215Y-123117633D01*
X149772302Y-123088287D01*
X149715759Y-123056226D01*
X149668884Y-123029960D01*
X149470225Y-123143667D01*
X149407275Y-123179435D01*
X149357082Y-123207282D01*
X149317921Y-123228059D01*
X149288065Y-123242619D01*
X149265789Y-123251812D01*
X149249367Y-123256490D01*
X149239348Y-123257554D01*
X149227789Y-123256245D01*
X149212477Y-123251663D01*
X149191825Y-123242999D01*
X149164244Y-123229442D01*
X149128147Y-123210183D01*
X149081948Y-123184411D01*
X149024060Y-123151317D01*
X148970727Y-123120454D01*
X148903900Y-123081484D01*
X148850367Y-123049829D01*
X148808656Y-123024514D01*
X148777293Y-123004566D01*
X148754808Y-122989010D01*
X148739728Y-122976872D01*
X148730580Y-122967179D01*
X148725893Y-122958956D01*
X148725663Y-122958324D01*
X148723701Y-122943986D01*
X148721974Y-122913229D01*
X148720491Y-122866563D01*
X148719258Y-122804501D01*
X148718284Y-122727555D01*
X148717578Y-122636236D01*
X148717147Y-122531057D01*
X148717000Y-122412529D01*
X148717000Y-121889301D01*
X148741079Y-121866233D01*
X148768211Y-121845924D01*
X148796687Y-121837687D01*
X148829594Y-121841536D01*
X148870021Y-121857489D01*
X148888569Y-121867036D01*
X148943995Y-121897379D01*
X149001937Y-121929892D01*
X149060433Y-121963397D01*
X149117519Y-121996718D01*
X149171234Y-122028676D01*
X149219615Y-122058094D01*
X149260699Y-122083794D01*
X149292522Y-122104598D01*
X149313123Y-122119329D01*
X149320278Y-122126072D01*
X149324670Y-122142759D01*
X149328455Y-122176194D01*
X149331618Y-122226200D01*
X149334148Y-122292603D01*
X149334988Y-122324059D01*
X149339300Y-122503752D01*
X149460107Y-122435242D01*
X149580913Y-122366731D01*
X149578640Y-122175115D01*
X149576367Y-121983500D01*
X149383149Y-121872640D01*
X149330182Y-121841913D01*
X149281225Y-121812877D01*
X149238480Y-121786888D01*
X149204149Y-121765303D01*
X149180436Y-121749478D01*
X149170112Y-121741406D01*
X149150292Y-121721033D01*
X149147429Y-121445867D01*
X149146747Y-121364829D01*
X149146586Y-121299143D01*
X149146989Y-121247233D01*
X149147999Y-121207523D01*
X149149659Y-121178440D01*
X149152011Y-121158407D01*
X149155098Y-121145849D01*
X149155621Y-121144527D01*
X149173176Y-121121121D01*
X149200953Y-121101994D01*
X149232240Y-121091276D01*
X149243807Y-121090266D01*
X149255870Y-121094358D01*
X149280379Y-121105876D01*
X149315172Y-121123690D01*
X149358084Y-121146665D01*
X149406952Y-121173671D01*
X149453070Y-121199814D01*
X149505245Y-121229629D01*
X149553123Y-121256790D01*
X149594578Y-121280107D01*
X149627486Y-121298389D01*
X149649720Y-121310446D01*
X149658764Y-121314962D01*
X149673235Y-121313022D01*
X149701318Y-121301317D01*
X149743073Y-121279820D01*
X149787881Y-121254679D01*
X149827032Y-121231837D01*
X149860370Y-121211805D01*
X149885404Y-121196126D01*
X149899640Y-121186344D01*
X149901967Y-121183981D01*
X149894851Y-121179065D01*
X149874846Y-121166795D01*
X149843766Y-121148223D01*
X149803423Y-121124397D01*
X149755631Y-121096367D01*
X149702202Y-121065183D01*
X149644949Y-121031894D01*
X149585686Y-120997551D01*
X149526226Y-120963203D01*
X149468380Y-120929899D01*
X149413963Y-120898690D01*
X149364787Y-120870624D01*
X149322666Y-120846753D01*
X149289412Y-120828125D01*
X149266838Y-120815790D01*
X149259564Y-120812036D01*
X149251371Y-120808662D01*
X149242648Y-120807551D01*
X149231359Y-120809606D01*
X149215472Y-120815733D01*
X149192950Y-120826838D01*
X149161760Y-120843824D01*
X149119867Y-120867598D01*
X149069609Y-120896539D01*
X148903267Y-120992574D01*
X148903232Y-121132437D01*
X148902841Y-121190687D01*
X148901790Y-121253656D01*
X148900227Y-121314776D01*
X148898299Y-121367481D01*
X148897677Y-121380555D01*
X148892156Y-121488810D01*
X148819395Y-121533696D01*
X148790076Y-121551497D01*
X148749464Y-121575753D01*
X148700939Y-121604466D01*
X148647881Y-121635639D01*
X148593669Y-121667274D01*
X148576360Y-121677324D01*
X148515825Y-121712139D01*
X148467762Y-121738738D01*
X148430158Y-121757678D01*
X148401003Y-121769517D01*
X148378284Y-121774812D01*
X148359990Y-121774122D01*
X148344110Y-121768004D01*
X148328631Y-121757015D01*
X148319067Y-121748650D01*
X148289434Y-121721730D01*
X148286470Y-121478924D01*
X148283507Y-121236117D01*
X148173024Y-121173775D01*
X148133852Y-121151751D01*
X148099799Y-121132754D01*
X148073638Y-121118320D01*
X148058141Y-121109983D01*
X148055337Y-121108611D01*
X148053860Y-121116206D01*
X148052486Y-121139067D01*
X148051244Y-121175530D01*
X148050168Y-121223929D01*
X148049287Y-121282597D01*
X148048634Y-121349868D01*
X148048241Y-121424077D01*
X148048133Y-121490128D01*
X148048133Y-121874468D01*
X148250695Y-121991948D01*
X148321071Y-122033268D01*
X148376817Y-122067132D01*
X148418365Y-122093822D01*
X148446148Y-122113617D01*
X148460598Y-122126801D01*
X148462549Y-122129824D01*
X148465840Y-122145337D01*
X148468860Y-122175150D01*
X148471564Y-122216634D01*
X148473906Y-122267157D01*
X148475842Y-122324089D01*
X148477324Y-122384798D01*
X148478308Y-122446654D01*
X148478748Y-122507026D01*
X148478598Y-122563283D01*
X148477813Y-122612795D01*
X148476348Y-122652930D01*
X148474155Y-122681058D01*
X148472292Y-122691752D01*
X148469347Y-122702571D01*
X148466255Y-122711744D01*
X148461571Y-122720291D01*
X148453844Y-122729237D01*
X148441628Y-122739604D01*
X148423475Y-122752414D01*
X148397937Y-122768690D01*
X148363565Y-122789455D01*
X148318913Y-122815731D01*
X148262532Y-122848541D01*
X148193920Y-122888358D01*
X148128411Y-122926196D01*
X148075611Y-122956055D01*
X148033699Y-122978660D01*
X148000858Y-122994734D01*
X147975268Y-123005000D01*
X147955112Y-123010184D01*
X147938570Y-123011009D01*
X147923825Y-123008197D01*
X147909057Y-123002475D01*
X147908197Y-123002085D01*
X147895295Y-122995350D01*
X147885033Y-122986945D01*
X147877110Y-122974995D01*
X147871226Y-122957622D01*
X147867079Y-122932951D01*
X147864371Y-122899105D01*
X147862800Y-122854209D01*
X147862066Y-122796385D01*
X147861869Y-122723759D01*
X147861867Y-122712726D01*
X147861867Y-122480144D01*
X147742440Y-122411739D01*
X147702124Y-122388761D01*
X147667194Y-122369070D01*
X147640176Y-122354073D01*
X147623599Y-122345178D01*
X147619588Y-122343333D01*
X147618934Y-122351520D01*
X147618414Y-122374960D01*
X147618036Y-122411976D01*
X147617803Y-122460889D01*
X147617722Y-122520019D01*
X147617797Y-122587688D01*
X147618034Y-122662216D01*
X147618365Y-122729291D01*
X147620567Y-123115250D01*
X147786263Y-123210662D01*
X147951959Y-123306075D01*
X148154008Y-123188920D01*
X148213966Y-123154240D01*
X148261216Y-123127236D01*
X148297652Y-123107013D01*
X148325167Y-123092675D01*
X148345656Y-123083327D01*
X148361015Y-123078074D01*
X148373137Y-123076019D01*
X148383917Y-123076267D01*
X148390478Y-123077141D01*
X148407941Y-123083069D01*
X148438940Y-123097548D01*
X148483622Y-123120660D01*
X148542137Y-123152485D01*
X148614635Y-123193102D01*
X148701263Y-123242591D01*
X148746633Y-123268784D01*
X148856734Y-123332577D01*
X148952882Y-123388400D01*
X149035821Y-123436692D01*
X149106296Y-123477895D01*
X149165051Y-123512447D01*
X149212831Y-123540789D01*
X149250379Y-123563361D01*
X149278441Y-123580604D01*
X149297759Y-123592956D01*
X149309080Y-123600858D01*
X149311167Y-123602547D01*
X149325795Y-123625069D01*
X149331919Y-123655757D01*
X149328898Y-123687782D01*
X149321002Y-123707330D01*
X149308803Y-123719559D01*
X149283863Y-123738302D01*
X149248428Y-123762260D01*
X149204743Y-123790133D01*
X149155056Y-123820620D01*
X149101612Y-123852422D01*
X149046657Y-123884239D01*
X148992438Y-123914770D01*
X148941200Y-123942716D01*
X148895190Y-123966777D01*
X148856653Y-123985653D01*
X148827837Y-123998043D01*
X148810987Y-124002648D01*
X148810736Y-124002652D01*
X148795275Y-124000112D01*
X148772752Y-123991812D01*
X148741451Y-123976926D01*
X148699654Y-123954627D01*
X148645647Y-123924087D01*
X148635329Y-123918133D01*
X148590472Y-123892317D01*
X148550699Y-123869676D01*
X148518295Y-123851489D01*
X148495545Y-123839038D01*
X148484734Y-123833601D01*
X148484234Y-123833466D01*
X148482785Y-123841461D01*
X148481802Y-123863570D01*
X148481334Y-123896976D01*
X148481430Y-123938865D01*
X148481840Y-123970621D01*
X148484167Y-124107775D01*
X148667963Y-124214038D01*
X148720041Y-124244541D01*
X148768509Y-124273670D01*
X148811004Y-124299947D01*
X148845165Y-124321894D01*
X148868629Y-124338034D01*
X148877513Y-124345167D01*
X148898358Y-124375696D01*
X148903146Y-124410796D01*
X148891728Y-124449230D01*
X148890479Y-124451703D01*
X148872538Y-124476286D01*
X148847886Y-124489595D01*
X148812245Y-124493850D01*
X148809262Y-124493866D01*
X148796961Y-124492851D01*
X148782346Y-124489219D01*
X148763631Y-124482086D01*
X148739030Y-124470572D01*
X148706755Y-124453795D01*
X148665019Y-124430872D01*
X148612037Y-124400923D01*
X148556822Y-124369282D01*
X148500220Y-124336280D01*
X148447144Y-124304497D01*
X148399754Y-124275291D01*
X148360214Y-124250024D01*
X148330684Y-124230053D01*
X148313327Y-124216740D01*
X148311509Y-124214998D01*
X148282785Y-124185300D01*
X148291581Y-123618492D01*
X148318158Y-123594746D01*
X148333535Y-123582194D01*
X148348580Y-123573766D01*
X148365101Y-123570026D01*
X148384904Y-123571537D01*
X148409797Y-123578863D01*
X148441587Y-123592567D01*
X148482083Y-123613212D01*
X148533090Y-123641362D01*
X148596416Y-123677581D01*
X148611144Y-123686089D01*
X148810187Y-123801177D01*
X148850377Y-123778047D01*
X148875189Y-123763708D01*
X148909266Y-123743938D01*
X148947253Y-123721846D01*
X148969885Y-123708658D01*
X149049203Y-123662400D01*
X148974118Y-123618557D01*
X148948507Y-123603675D01*
X148910586Y-123581741D01*
X148862736Y-123554127D01*
X148807337Y-123522204D01*
X148746768Y-123487344D01*
X148683411Y-123450919D01*
X148642627Y-123427493D01*
X148386220Y-123280274D01*
X148354760Y-123295251D01*
X148337585Y-123304145D01*
X148308663Y-123319909D01*
X148270900Y-123340928D01*
X148227202Y-123365581D01*
X148180474Y-123392254D01*
X148179367Y-123392889D01*
X148118218Y-123427960D01*
X148069901Y-123455419D01*
X148032571Y-123476106D01*
X148004385Y-123490859D01*
X147983499Y-123500517D01*
X147968070Y-123505918D01*
X147956254Y-123507901D01*
X147946208Y-123507304D01*
X147936087Y-123504966D01*
X147934135Y-123504430D01*
X147919716Y-123498287D01*
X147892749Y-123484724D01*
X147855308Y-123464863D01*
X147809466Y-123439827D01*
X147757294Y-123410740D01*
X147700865Y-123378724D01*
X147679614Y-123366528D01*
X147608646Y-123325325D01*
X147551641Y-123291417D01*
X147507604Y-123264162D01*
X147475539Y-123242922D01*
X147454451Y-123227055D01*
X147443345Y-123215922D01*
X147441959Y-123213704D01*
X147439445Y-123206411D01*
X147437297Y-123194134D01*
X147435489Y-123175666D01*
X147433995Y-123149800D01*
X147432788Y-123115330D01*
X147431842Y-123071049D01*
X147431131Y-123015750D01*
X147430627Y-122948227D01*
X147430305Y-122867274D01*
X147430138Y-122771683D01*
X147430098Y-122671837D01*
X147430126Y-122564945D01*
X147430126Y-122564945D01*
G37*
X147430126Y-122564945D02*
X147430220Y-122473675D01*
X147430419Y-122396716D01*
X147430760Y-122332758D01*
X147431284Y-122280489D01*
X147432027Y-122238599D01*
X147433028Y-122205776D01*
X147434325Y-122180709D01*
X147435957Y-122162088D01*
X147437962Y-122148601D01*
X147440379Y-122138938D01*
X147443245Y-122131787D01*
X147446030Y-122126758D01*
X147471640Y-122099028D01*
X147504393Y-122084938D01*
X147540443Y-122086031D01*
X147544662Y-122087211D01*
X147560949Y-122094233D01*
X147589091Y-122108526D01*
X147626785Y-122128756D01*
X147671725Y-122153590D01*
X147721606Y-122181695D01*
X147774124Y-122211739D01*
X147826973Y-122242388D01*
X147877848Y-122272309D01*
X147924445Y-122300170D01*
X147964458Y-122324638D01*
X147995583Y-122344379D01*
X148015515Y-122358061D01*
X148021037Y-122362694D01*
X148027113Y-122370064D01*
X148031798Y-122379116D01*
X148035367Y-122392179D01*
X148038096Y-122411585D01*
X148040261Y-122439664D01*
X148042138Y-122478746D01*
X148044004Y-122531163D01*
X148045108Y-122565985D01*
X148046922Y-122619701D01*
X148048804Y-122667224D01*
X148050635Y-122706121D01*
X148052296Y-122733962D01*
X148053666Y-122748313D01*
X148054121Y-122749733D01*
X148062205Y-122745723D01*
X148082349Y-122734658D01*
X148111968Y-122717988D01*
X148148477Y-122697162D01*
X148171154Y-122684117D01*
X148284884Y-122618500D01*
X148285200Y-122228186D01*
X148093386Y-122118873D01*
X148040549Y-122088381D01*
X147991730Y-122059488D01*
X147949149Y-122033565D01*
X147915027Y-122011984D01*
X147891586Y-121996117D01*
X147881719Y-121988150D01*
X147861867Y-121966740D01*
X147861867Y-120898855D01*
X147889787Y-120871794D01*
X147903613Y-120859194D01*
X147916887Y-120850167D01*
X147931269Y-120845259D01*
X147948417Y-120845016D01*
X147969992Y-120849985D01*
X147997654Y-120860711D01*
X148033061Y-120877741D01*
X148077872Y-120901622D01*
X148133749Y-120932898D01*
X148202349Y-120972117D01*
X148212734Y-120978083D01*
X148284273Y-121019520D01*
X148341979Y-121053706D01*
X148386966Y-121081354D01*
X148420343Y-121103176D01*
X148443222Y-121119885D01*
X148456716Y-121132195D01*
X148460235Y-121136833D01*
X148465610Y-121147704D01*
X148469771Y-121162023D01*
X148472955Y-121182221D01*
X148475401Y-121210729D01*
X148477348Y-121249977D01*
X148479035Y-121302397D01*
X148479934Y-121337550D01*
X148484167Y-121512868D01*
X148600583Y-121444682D01*
X148717000Y-121376496D01*
X148718077Y-121222798D01*
X148718761Y-121164858D01*
X148719949Y-121104717D01*
X148721504Y-121047683D01*
X148723291Y-120999062D01*
X148724427Y-120975967D01*
X148729700Y-120882833D01*
X148776267Y-120852081D01*
X148796506Y-120839277D01*
X148828787Y-120819539D01*
X148870503Y-120794429D01*
X148919048Y-120765511D01*
X148971814Y-120734345D01*
X149012884Y-120710264D01*
X149072415Y-120675673D01*
X149119416Y-120648920D01*
X149155831Y-120629050D01*
X149183601Y-120615109D01*
X149204668Y-120606142D01*
X149220974Y-120601195D01*
X149234461Y-120599312D01*
X149238800Y-120599200D01*
X149247672Y-120599965D01*
X149258782Y-120602677D01*
X149273291Y-120607954D01*
X149292360Y-120616419D01*
X149317149Y-120628693D01*
X149348819Y-120645398D01*
X149388530Y-120667153D01*
X149437442Y-120694580D01*
X149496717Y-120728301D01*
X149567514Y-120768936D01*
X149650995Y-120817107D01*
X149713383Y-120853201D01*
X149795677Y-120901049D01*
X149873059Y-120946436D01*
X149944271Y-120988601D01*
X150008055Y-121026780D01*
X150063155Y-121060213D01*
X150108312Y-121088138D01*
X150142268Y-121109793D01*
X150163767Y-121124415D01*
X150171108Y-121130485D01*
X150186908Y-121162355D01*
X150188691Y-121198711D01*
X150176342Y-121233880D01*
X150165929Y-121244827D01*
X150144023Y-121261368D01*
X150109911Y-121283958D01*
X150062882Y-121313051D01*
X150002224Y-121349100D01*
X149932200Y-121389703D01*
X149865759Y-121427722D01*
X149812183Y-121457923D01*
X149769790Y-121481145D01*
X149736895Y-121498232D01*
X149711813Y-121510026D01*
X149692860Y-121517367D01*
X149678352Y-121521098D01*
X149667392Y-121522066D01*
X149651334Y-121520485D01*
X149632281Y-121514971D01*
X149607690Y-121504369D01*
X149575017Y-121487523D01*
X149531722Y-121463277D01*
X149508325Y-121449779D01*
X149465213Y-121424844D01*
X149425541Y-121402065D01*
X149392340Y-121383168D01*
X149368644Y-121369883D01*
X149359425Y-121364895D01*
X149335067Y-121352298D01*
X149335329Y-121627900D01*
X149527815Y-121737966D01*
X149580657Y-121768535D01*
X149629438Y-121797420D01*
X149671956Y-121823266D01*
X149706012Y-121844717D01*
X149729405Y-121860416D01*
X149739350Y-121868319D01*
X149744494Y-121874106D01*
X149748615Y-121880545D01*
X149751824Y-121889445D01*
X149754231Y-121902612D01*
X149755948Y-121921855D01*
X149757085Y-121948980D01*
X149757753Y-121985795D01*
X149758064Y-122034108D01*
X149758129Y-122095724D01*
X149758057Y-122172453D01*
X149758056Y-122173119D01*
X149757712Y-122457633D01*
X149734773Y-122483638D01*
X149720421Y-122495714D01*
X149693880Y-122514062D01*
X149657384Y-122537412D01*
X149613167Y-122564495D01*
X149563462Y-122594040D01*
X149510504Y-122624777D01*
X149456527Y-122655436D01*
X149403764Y-122684747D01*
X149354450Y-122711440D01*
X149310818Y-122734246D01*
X149275101Y-122751893D01*
X149249536Y-122763113D01*
X149236931Y-122766667D01*
X149210766Y-122759951D01*
X149181566Y-122741632D01*
X149180363Y-122740650D01*
X149148800Y-122714634D01*
X149147881Y-122518400D01*
X149147378Y-122459153D01*
X149146479Y-122402643D01*
X149145270Y-122352069D01*
X149143832Y-122310631D01*
X149142248Y-122281527D01*
X149141531Y-122273492D01*
X149136100Y-122224818D01*
X149019683Y-122157921D01*
X148903267Y-122091025D01*
X148903267Y-122865047D01*
X149069793Y-122960499D01*
X149124379Y-122991602D01*
X149166351Y-123014964D01*
X149197658Y-123031491D01*
X149220246Y-123042088D01*
X149236063Y-123047660D01*
X149247055Y-123049112D01*
X149255170Y-123047349D01*
X149255912Y-123047025D01*
X149268483Y-123040389D01*
X149293416Y-123026478D01*
X149328459Y-123006575D01*
X149371362Y-122981964D01*
X149419876Y-122953927D01*
X149457573Y-122932016D01*
X149522296Y-122894775D01*
X149573909Y-122866170D01*
X149613520Y-122845639D01*
X149642238Y-122832618D01*
X149661169Y-122826548D01*
X149666732Y-122825933D01*
X149677795Y-122827258D01*
X149692579Y-122831706D01*
X149712408Y-122839984D01*
X149738611Y-122852802D01*
X149772512Y-122870869D01*
X149815439Y-122894892D01*
X149868718Y-122925581D01*
X149933675Y-122963644D01*
X150011637Y-123009790D01*
X150018504Y-123013870D01*
X150064948Y-123041972D01*
X150106628Y-123068155D01*
X150141240Y-123090894D01*
X150166481Y-123108663D01*
X150180047Y-123119936D01*
X150181488Y-123121807D01*
X150188936Y-123149482D01*
X150188082Y-123182792D01*
X150179254Y-123212805D01*
X150178048Y-123215097D01*
X150166287Y-123226679D01*
X150139991Y-123245619D01*
X150099700Y-123271570D01*
X150045960Y-123304185D01*
X149979311Y-123343118D01*
X149964565Y-123351583D01*
X149762634Y-123467205D01*
X149760310Y-123608480D01*
X149757986Y-123749756D01*
X149794177Y-123728565D01*
X149809349Y-123719740D01*
X149837397Y-123703487D01*
X149876533Y-123680838D01*
X149924967Y-123652830D01*
X149980909Y-123620496D01*
X150042570Y-123584872D01*
X150108160Y-123546991D01*
X150130934Y-123533842D01*
X150431500Y-123360311D01*
X150433619Y-123167205D01*
X150435738Y-122974100D01*
X150236082Y-122860142D01*
X150175296Y-122824937D01*
X150122294Y-122793219D01*
X150078637Y-122765977D01*
X150045884Y-122744199D01*
X150025594Y-122728873D01*
X150020180Y-122723369D01*
X150016849Y-122718114D01*
X150014007Y-122711562D01*
X150011615Y-122702415D01*
X150009634Y-122689374D01*
X150008026Y-122671139D01*
X150006751Y-122646412D01*
X150005773Y-122613894D01*
X150005050Y-122572286D01*
X150004546Y-122520291D01*
X150004221Y-122456608D01*
X150004036Y-122379939D01*
X150003953Y-122288985D01*
X150003934Y-122182448D01*
X150003934Y-122177926D01*
X150003950Y-122070786D01*
X150004025Y-121979270D01*
X150004199Y-121902068D01*
X150004511Y-121837869D01*
X150005001Y-121785364D01*
X150005710Y-121743243D01*
X150006677Y-121710196D01*
X150007941Y-121684913D01*
X150009543Y-121666084D01*
X150011522Y-121652400D01*
X150013918Y-121642550D01*
X150016771Y-121635224D01*
X150020121Y-121629113D01*
X150020636Y-121628274D01*
X150044053Y-121603975D01*
X150075065Y-121589582D01*
X150107647Y-121587362D01*
X150120547Y-121590679D01*
X150135696Y-121597882D01*
X150162792Y-121612214D01*
X150199548Y-121632361D01*
X150243678Y-121657008D01*
X150292893Y-121684838D01*
X150344908Y-121714537D01*
X150397435Y-121744789D01*
X150448187Y-121774278D01*
X150494877Y-121801690D01*
X150535218Y-121825709D01*
X150566923Y-121845019D01*
X150587706Y-121858305D01*
X150594483Y-121863274D01*
X150600655Y-121869415D01*
X150605325Y-121876617D01*
X150608704Y-121887144D01*
X150610999Y-121903260D01*
X150612421Y-121927228D01*
X150613178Y-121961314D01*
X150613479Y-122007780D01*
X150613533Y-122068891D01*
X150613533Y-122069642D01*
X150613804Y-122124140D01*
X150614563Y-122172447D01*
X150615730Y-122212172D01*
X150617223Y-122240922D01*
X150618963Y-122256307D01*
X150619883Y-122258241D01*
X150629038Y-122254049D01*
X150650141Y-122242762D01*
X150680535Y-122225848D01*
X150717562Y-122204779D01*
X150740533Y-122191521D01*
X150854833Y-122125226D01*
X150860054Y-121927363D01*
X150861613Y-121868172D01*
X150863087Y-121811977D01*
X150864397Y-121761892D01*
X150865459Y-121721033D01*
X150866194Y-121692512D01*
X150866404Y-121684213D01*
X150868597Y-121655208D01*
X150875268Y-121635799D01*
X150889268Y-121618727D01*
X150893829Y-121614363D01*
X150926049Y-121594402D01*
X150960950Y-121589353D01*
X150994730Y-121598487D01*
X151023584Y-121621074D01*
X151037546Y-121641931D01*
X151044210Y-121657183D01*
X151048671Y-121674357D01*
X151051260Y-121696903D01*
X151052311Y-121728269D01*
X151052157Y-121771905D01*
X151051882Y-121790546D01*
X151051074Y-121840080D01*
X151050095Y-121900550D01*
X151049043Y-121965958D01*
X151048014Y-122030308D01*
X151047467Y-122064745D01*
X151046493Y-122120175D01*
X151045381Y-122161199D01*
X151043822Y-122190343D01*
X151041505Y-122210132D01*
X151038122Y-122223093D01*
X151033365Y-122231752D01*
X151026923Y-122238635D01*
X151026101Y-122239389D01*
X151014157Y-122247872D01*
X150989505Y-122263539D01*
X150954147Y-122285184D01*
X150910084Y-122311598D01*
X150859318Y-122341575D01*
X150803849Y-122373908D01*
X150785308Y-122384627D01*
X150721525Y-122421312D01*
X150670502Y-122450296D01*
X150630409Y-122472472D01*
X150599416Y-122488734D01*
X150575691Y-122499975D01*
X150557404Y-122507087D01*
X150542724Y-122510963D01*
X150529822Y-122512497D01*
X150522841Y-122512666D01*
X150496334Y-122511145D01*
X150478961Y-122504236D01*
X150463024Y-122488420D01*
X150459017Y-122483485D01*
X150435733Y-122454305D01*
X150435731Y-122218902D01*
X150435729Y-121983500D01*
X150357415Y-121939154D01*
X150318967Y-121917332D01*
X150280503Y-121895416D01*
X150247834Y-121876721D01*
X150234650Y-121869133D01*
X150190200Y-121843457D01*
X150190239Y-122230979D01*
X150190277Y-122618500D01*
X150370155Y-122719328D01*
X150422362Y-122749093D01*
X150471334Y-122777949D01*
X150514541Y-122804333D01*
X150549457Y-122826682D01*
X150573553Y-122843433D01*
X150581783Y-122850163D01*
X150613533Y-122880170D01*
X150613264Y-123168435D01*
X150613070Y-123249032D01*
X150612610Y-123314289D01*
X150611822Y-123365798D01*
X150610642Y-123405151D01*
X150609006Y-123433940D01*
X150606852Y-123453756D01*
X150604117Y-123466192D01*
X150601181Y-123472291D01*
X150591892Y-123479219D01*
X150569216Y-123493781D01*
X150534460Y-123515199D01*
X150488931Y-123542694D01*
X150433936Y-123575487D01*
X150370783Y-123612797D01*
X150300778Y-123653845D01*
X150225230Y-123697853D01*
X150145445Y-123744041D01*
X150143191Y-123745341D01*
X150047574Y-123800503D01*
X149965472Y-123847735D01*
X149895723Y-123887552D01*
X149837164Y-123920465D01*
X149788631Y-123946990D01*
X149748962Y-123967639D01*
X149716993Y-123982925D01*
X149691563Y-123993362D01*
X149671507Y-123999464D01*
X149655663Y-124001744D01*
X149642868Y-124000714D01*
X149631959Y-123996889D01*
X149621773Y-123990783D01*
X149611148Y-123982907D01*
X149608916Y-123981202D01*
X149580600Y-123959605D01*
X149580600Y-123669077D01*
X149580646Y-123590997D01*
X149580846Y-123528060D01*
X149581294Y-123478476D01*
X149582085Y-123440454D01*
X149583313Y-123412204D01*
X149585071Y-123391936D01*
X149587453Y-123377860D01*
X149590554Y-123368185D01*
X149594468Y-123361120D01*
X149596958Y-123357755D01*
X149609424Y-123346883D01*
X149633948Y-123329515D01*
X149667814Y-123307431D01*
X149708306Y-123282408D01*
X149747241Y-123259380D01*
X149790717Y-123234149D01*
X149829583Y-123211505D01*
X149861274Y-123192950D01*
X149883226Y-123179984D01*
X149892608Y-123174287D01*
X149892857Y-123168204D01*
X149881722Y-123157077D01*
X149858431Y-123140391D01*
X149822215Y-123117633D01*
X149772302Y-123088287D01*
X149715759Y-123056226D01*
X149668884Y-123029960D01*
X149470225Y-123143667D01*
X149407275Y-123179435D01*
X149357082Y-123207282D01*
X149317921Y-123228059D01*
X149288065Y-123242619D01*
X149265789Y-123251812D01*
X149249367Y-123256490D01*
X149239348Y-123257554D01*
X149227789Y-123256245D01*
X149212477Y-123251663D01*
X149191825Y-123242999D01*
X149164244Y-123229442D01*
X149128147Y-123210183D01*
X149081948Y-123184411D01*
X149024060Y-123151317D01*
X148970727Y-123120454D01*
X148903900Y-123081484D01*
X148850367Y-123049829D01*
X148808656Y-123024514D01*
X148777293Y-123004566D01*
X148754808Y-122989010D01*
X148739728Y-122976872D01*
X148730580Y-122967179D01*
X148725893Y-122958956D01*
X148725663Y-122958324D01*
X148723701Y-122943986D01*
X148721974Y-122913229D01*
X148720491Y-122866563D01*
X148719258Y-122804501D01*
X148718284Y-122727555D01*
X148717578Y-122636236D01*
X148717147Y-122531057D01*
X148717000Y-122412529D01*
X148717000Y-121889301D01*
X148741079Y-121866233D01*
X148768211Y-121845924D01*
X148796687Y-121837687D01*
X148829594Y-121841536D01*
X148870021Y-121857489D01*
X148888569Y-121867036D01*
X148943995Y-121897379D01*
X149001937Y-121929892D01*
X149060433Y-121963397D01*
X149117519Y-121996718D01*
X149171234Y-122028676D01*
X149219615Y-122058094D01*
X149260699Y-122083794D01*
X149292522Y-122104598D01*
X149313123Y-122119329D01*
X149320278Y-122126072D01*
X149324670Y-122142759D01*
X149328455Y-122176194D01*
X149331618Y-122226200D01*
X149334148Y-122292603D01*
X149334988Y-122324059D01*
X149339300Y-122503752D01*
X149460107Y-122435242D01*
X149580913Y-122366731D01*
X149578640Y-122175115D01*
X149576367Y-121983500D01*
X149383149Y-121872640D01*
X149330182Y-121841913D01*
X149281225Y-121812877D01*
X149238480Y-121786888D01*
X149204149Y-121765303D01*
X149180436Y-121749478D01*
X149170112Y-121741406D01*
X149150292Y-121721033D01*
X149147429Y-121445867D01*
X149146747Y-121364829D01*
X149146586Y-121299143D01*
X149146989Y-121247233D01*
X149147999Y-121207523D01*
X149149659Y-121178440D01*
X149152011Y-121158407D01*
X149155098Y-121145849D01*
X149155621Y-121144527D01*
X149173176Y-121121121D01*
X149200953Y-121101994D01*
X149232240Y-121091276D01*
X149243807Y-121090266D01*
X149255870Y-121094358D01*
X149280379Y-121105876D01*
X149315172Y-121123690D01*
X149358084Y-121146665D01*
X149406952Y-121173671D01*
X149453070Y-121199814D01*
X149505245Y-121229629D01*
X149553123Y-121256790D01*
X149594578Y-121280107D01*
X149627486Y-121298389D01*
X149649720Y-121310446D01*
X149658764Y-121314962D01*
X149673235Y-121313022D01*
X149701318Y-121301317D01*
X149743073Y-121279820D01*
X149787881Y-121254679D01*
X149827032Y-121231837D01*
X149860370Y-121211805D01*
X149885404Y-121196126D01*
X149899640Y-121186344D01*
X149901967Y-121183981D01*
X149894851Y-121179065D01*
X149874846Y-121166795D01*
X149843766Y-121148223D01*
X149803423Y-121124397D01*
X149755631Y-121096367D01*
X149702202Y-121065183D01*
X149644949Y-121031894D01*
X149585686Y-120997551D01*
X149526226Y-120963203D01*
X149468380Y-120929899D01*
X149413963Y-120898690D01*
X149364787Y-120870624D01*
X149322666Y-120846753D01*
X149289412Y-120828125D01*
X149266838Y-120815790D01*
X149259564Y-120812036D01*
X149251371Y-120808662D01*
X149242648Y-120807551D01*
X149231359Y-120809606D01*
X149215472Y-120815733D01*
X149192950Y-120826838D01*
X149161760Y-120843824D01*
X149119867Y-120867598D01*
X149069609Y-120896539D01*
X148903267Y-120992574D01*
X148903232Y-121132437D01*
X148902841Y-121190687D01*
X148901790Y-121253656D01*
X148900227Y-121314776D01*
X148898299Y-121367481D01*
X148897677Y-121380555D01*
X148892156Y-121488810D01*
X148819395Y-121533696D01*
X148790076Y-121551497D01*
X148749464Y-121575753D01*
X148700939Y-121604466D01*
X148647881Y-121635639D01*
X148593669Y-121667274D01*
X148576360Y-121677324D01*
X148515825Y-121712139D01*
X148467762Y-121738738D01*
X148430158Y-121757678D01*
X148401003Y-121769517D01*
X148378284Y-121774812D01*
X148359990Y-121774122D01*
X148344110Y-121768004D01*
X148328631Y-121757015D01*
X148319067Y-121748650D01*
X148289434Y-121721730D01*
X148286470Y-121478924D01*
X148283507Y-121236117D01*
X148173024Y-121173775D01*
X148133852Y-121151751D01*
X148099799Y-121132754D01*
X148073638Y-121118320D01*
X148058141Y-121109983D01*
X148055337Y-121108611D01*
X148053860Y-121116206D01*
X148052486Y-121139067D01*
X148051244Y-121175530D01*
X148050168Y-121223929D01*
X148049287Y-121282597D01*
X148048634Y-121349868D01*
X148048241Y-121424077D01*
X148048133Y-121490128D01*
X148048133Y-121874468D01*
X148250695Y-121991948D01*
X148321071Y-122033268D01*
X148376817Y-122067132D01*
X148418365Y-122093822D01*
X148446148Y-122113617D01*
X148460598Y-122126801D01*
X148462549Y-122129824D01*
X148465840Y-122145337D01*
X148468860Y-122175150D01*
X148471564Y-122216634D01*
X148473906Y-122267157D01*
X148475842Y-122324089D01*
X148477324Y-122384798D01*
X148478308Y-122446654D01*
X148478748Y-122507026D01*
X148478598Y-122563283D01*
X148477813Y-122612795D01*
X148476348Y-122652930D01*
X148474155Y-122681058D01*
X148472292Y-122691752D01*
X148469347Y-122702571D01*
X148466255Y-122711744D01*
X148461571Y-122720291D01*
X148453844Y-122729237D01*
X148441628Y-122739604D01*
X148423475Y-122752414D01*
X148397937Y-122768690D01*
X148363565Y-122789455D01*
X148318913Y-122815731D01*
X148262532Y-122848541D01*
X148193920Y-122888358D01*
X148128411Y-122926196D01*
X148075611Y-122956055D01*
X148033699Y-122978660D01*
X148000858Y-122994734D01*
X147975268Y-123005000D01*
X147955112Y-123010184D01*
X147938570Y-123011009D01*
X147923825Y-123008197D01*
X147909057Y-123002475D01*
X147908197Y-123002085D01*
X147895295Y-122995350D01*
X147885033Y-122986945D01*
X147877110Y-122974995D01*
X147871226Y-122957622D01*
X147867079Y-122932951D01*
X147864371Y-122899105D01*
X147862800Y-122854209D01*
X147862066Y-122796385D01*
X147861869Y-122723759D01*
X147861867Y-122712726D01*
X147861867Y-122480144D01*
X147742440Y-122411739D01*
X147702124Y-122388761D01*
X147667194Y-122369070D01*
X147640176Y-122354073D01*
X147623599Y-122345178D01*
X147619588Y-122343333D01*
X147618934Y-122351520D01*
X147618414Y-122374960D01*
X147618036Y-122411976D01*
X147617803Y-122460889D01*
X147617722Y-122520019D01*
X147617797Y-122587688D01*
X147618034Y-122662216D01*
X147618365Y-122729291D01*
X147620567Y-123115250D01*
X147786263Y-123210662D01*
X147951959Y-123306075D01*
X148154008Y-123188920D01*
X148213966Y-123154240D01*
X148261216Y-123127236D01*
X148297652Y-123107013D01*
X148325167Y-123092675D01*
X148345656Y-123083327D01*
X148361015Y-123078074D01*
X148373137Y-123076019D01*
X148383917Y-123076267D01*
X148390478Y-123077141D01*
X148407941Y-123083069D01*
X148438940Y-123097548D01*
X148483622Y-123120660D01*
X148542137Y-123152485D01*
X148614635Y-123193102D01*
X148701263Y-123242591D01*
X148746633Y-123268784D01*
X148856734Y-123332577D01*
X148952882Y-123388400D01*
X149035821Y-123436692D01*
X149106296Y-123477895D01*
X149165051Y-123512447D01*
X149212831Y-123540789D01*
X149250379Y-123563361D01*
X149278441Y-123580604D01*
X149297759Y-123592956D01*
X149309080Y-123600858D01*
X149311167Y-123602547D01*
X149325795Y-123625069D01*
X149331919Y-123655757D01*
X149328898Y-123687782D01*
X149321002Y-123707330D01*
X149308803Y-123719559D01*
X149283863Y-123738302D01*
X149248428Y-123762260D01*
X149204743Y-123790133D01*
X149155056Y-123820620D01*
X149101612Y-123852422D01*
X149046657Y-123884239D01*
X148992438Y-123914770D01*
X148941200Y-123942716D01*
X148895190Y-123966777D01*
X148856653Y-123985653D01*
X148827837Y-123998043D01*
X148810987Y-124002648D01*
X148810736Y-124002652D01*
X148795275Y-124000112D01*
X148772752Y-123991812D01*
X148741451Y-123976926D01*
X148699654Y-123954627D01*
X148645647Y-123924087D01*
X148635329Y-123918133D01*
X148590472Y-123892317D01*
X148550699Y-123869676D01*
X148518295Y-123851489D01*
X148495545Y-123839038D01*
X148484734Y-123833601D01*
X148484234Y-123833466D01*
X148482785Y-123841461D01*
X148481802Y-123863570D01*
X148481334Y-123896976D01*
X148481430Y-123938865D01*
X148481840Y-123970621D01*
X148484167Y-124107775D01*
X148667963Y-124214038D01*
X148720041Y-124244541D01*
X148768509Y-124273670D01*
X148811004Y-124299947D01*
X148845165Y-124321894D01*
X148868629Y-124338034D01*
X148877513Y-124345167D01*
X148898358Y-124375696D01*
X148903146Y-124410796D01*
X148891728Y-124449230D01*
X148890479Y-124451703D01*
X148872538Y-124476286D01*
X148847886Y-124489595D01*
X148812245Y-124493850D01*
X148809262Y-124493866D01*
X148796961Y-124492851D01*
X148782346Y-124489219D01*
X148763631Y-124482086D01*
X148739030Y-124470572D01*
X148706755Y-124453795D01*
X148665019Y-124430872D01*
X148612037Y-124400923D01*
X148556822Y-124369282D01*
X148500220Y-124336280D01*
X148447144Y-124304497D01*
X148399754Y-124275291D01*
X148360214Y-124250024D01*
X148330684Y-124230053D01*
X148313327Y-124216740D01*
X148311509Y-124214998D01*
X148282785Y-124185300D01*
X148291581Y-123618492D01*
X148318158Y-123594746D01*
X148333535Y-123582194D01*
X148348580Y-123573766D01*
X148365101Y-123570026D01*
X148384904Y-123571537D01*
X148409797Y-123578863D01*
X148441587Y-123592567D01*
X148482083Y-123613212D01*
X148533090Y-123641362D01*
X148596416Y-123677581D01*
X148611144Y-123686089D01*
X148810187Y-123801177D01*
X148850377Y-123778047D01*
X148875189Y-123763708D01*
X148909266Y-123743938D01*
X148947253Y-123721846D01*
X148969885Y-123708658D01*
X149049203Y-123662400D01*
X148974118Y-123618557D01*
X148948507Y-123603675D01*
X148910586Y-123581741D01*
X148862736Y-123554127D01*
X148807337Y-123522204D01*
X148746768Y-123487344D01*
X148683411Y-123450919D01*
X148642627Y-123427493D01*
X148386220Y-123280274D01*
X148354760Y-123295251D01*
X148337585Y-123304145D01*
X148308663Y-123319909D01*
X148270900Y-123340928D01*
X148227202Y-123365581D01*
X148180474Y-123392254D01*
X148179367Y-123392889D01*
X148118218Y-123427960D01*
X148069901Y-123455419D01*
X148032571Y-123476106D01*
X148004385Y-123490859D01*
X147983499Y-123500517D01*
X147968070Y-123505918D01*
X147956254Y-123507901D01*
X147946208Y-123507304D01*
X147936087Y-123504966D01*
X147934135Y-123504430D01*
X147919716Y-123498287D01*
X147892749Y-123484724D01*
X147855308Y-123464863D01*
X147809466Y-123439827D01*
X147757294Y-123410740D01*
X147700865Y-123378724D01*
X147679614Y-123366528D01*
X147608646Y-123325325D01*
X147551641Y-123291417D01*
X147507604Y-123264162D01*
X147475539Y-123242922D01*
X147454451Y-123227055D01*
X147443345Y-123215922D01*
X147441959Y-123213704D01*
X147439445Y-123206411D01*
X147437297Y-123194134D01*
X147435489Y-123175666D01*
X147433995Y-123149800D01*
X147432788Y-123115330D01*
X147431842Y-123071049D01*
X147431131Y-123015750D01*
X147430627Y-122948227D01*
X147430305Y-122867274D01*
X147430138Y-122771683D01*
X147430098Y-122671837D01*
X147430126Y-122564945D01*
D13*
X155876667Y-118832381D02*
X155876667Y-119546667D01*
X155829047Y-119689524D01*
X155733809Y-119784762D01*
X155590952Y-119832381D01*
X155495714Y-119832381D01*
X156876667Y-119832381D02*
X156305238Y-119832381D01*
X156590952Y-119832381D02*
X156590952Y-118832381D01*
X156495714Y-118975238D01*
X156400476Y-119070476D01*
X156305238Y-119118095D01*
X155876667Y-107402381D02*
X155876667Y-108116667D01*
X155829047Y-108259524D01*
X155733809Y-108354762D01*
X155590952Y-108402381D01*
X155495714Y-108402381D01*
X156781429Y-107735714D02*
X156781429Y-108402381D01*
X156543333Y-107354762D02*
X156305238Y-108069048D01*
X156924286Y-108069048D01*
M02*
