M48
INCH,TZ
T1C0.039
%
G90
G05
T1
X57500Y-38250
X57500Y-39250
X57500Y-40250
X58500Y-36000
X58500Y-47500
X59500Y-36000
X59500Y-38250
X59500Y-39250
X59500Y-40250
X59500Y-47500
X60500Y-36000
X60500Y-44500
X60500Y-45500
X60500Y-47500
X61000Y-42000
X61000Y-43000
X61500Y-36000
X61500Y-38250
X61500Y-39250
X61500Y-40250
X61500Y-44500
X61500Y-45500
X61500Y-47500
X62000Y-42000
X62000Y-43000
X62500Y-36000
X62500Y-44500
X62500Y-45500
X62500Y-47500
X63000Y-42000
X63000Y-43000
X63500Y-36000
X63500Y-38250
X63500Y-39250
X63500Y-40250
X63500Y-44500
X63500Y-45500
X63500Y-47500
X64500Y-36000
X64500Y-44500
X64500Y-45500
X64500Y-47500
X65500Y-36000
X65500Y-38250
X65500Y-39250
X65500Y-40250
X65500Y-41250
X65500Y-44500
X65500Y-45500
X65500Y-47500
X66500Y-36000
X66500Y-44500
X66500Y-45500
X66500Y-47500
X67500Y-36000
X67500Y-38250
X67500Y-39250
X67500Y-40250
X67500Y-41250
X67500Y-44500
X67500Y-45500
X67500Y-47500
X68500Y-36000
X68500Y-44500
X68500Y-45500
X68500Y-47500
X69500Y-36000
X69500Y-38250
X69500Y-39250
X69500Y-40250
X69500Y-41250
X69500Y-47500
T0
M30
