G04 #@! TF.FileFunction,Legend,Top*
%FSLAX46Y46*%
G04 Gerber Fmt 4.6, Leading zero omitted, Abs format (unit mm)*
G04 Created by KiCad (PCBNEW 4.0.7-e2-6376~60~ubuntu17.10.1) date Wed Nov 29 12:47:57 2017*
%MOMM*%
%LPD*%
G01*
G04 APERTURE LIST*
%ADD10C,0.100000*%
%ADD11C,0.300000*%
%ADD12C,0.010000*%
%ADD13C,0.120000*%
G04 APERTURE END LIST*
D10*
X168575000Y-104317858D02*
X168603571Y-104260715D01*
X168603571Y-104175001D01*
X168575000Y-104089286D01*
X168517857Y-104032144D01*
X168460714Y-104003572D01*
X168346429Y-103975001D01*
X168260714Y-103975001D01*
X168146429Y-104003572D01*
X168089286Y-104032144D01*
X168032143Y-104089286D01*
X168003571Y-104175001D01*
X168003571Y-104232144D01*
X168032143Y-104317858D01*
X168060714Y-104346429D01*
X168260714Y-104346429D01*
X168260714Y-104232144D01*
X168003571Y-104603572D02*
X168603571Y-104603572D01*
X168003571Y-104946429D01*
X168603571Y-104946429D01*
X168003571Y-105232143D02*
X168603571Y-105232143D01*
X168603571Y-105375000D01*
X168575000Y-105460715D01*
X168517857Y-105517857D01*
X168460714Y-105546429D01*
X168346429Y-105575000D01*
X168260714Y-105575000D01*
X168146429Y-105546429D01*
X168089286Y-105517857D01*
X168032143Y-105460715D01*
X168003571Y-105375000D01*
X168003571Y-105232143D01*
X168003571Y-101792143D02*
X168603571Y-101792143D01*
X168603571Y-101935000D01*
X168575000Y-102020715D01*
X168517857Y-102077857D01*
X168460714Y-102106429D01*
X168346429Y-102135000D01*
X168260714Y-102135000D01*
X168146429Y-102106429D01*
X168089286Y-102077857D01*
X168032143Y-102020715D01*
X168003571Y-101935000D01*
X168003571Y-101792143D01*
X168603571Y-102335000D02*
X168603571Y-102735000D01*
X168003571Y-102477857D01*
X168003571Y-99252143D02*
X168603571Y-99252143D01*
X168603571Y-99395000D01*
X168575000Y-99480715D01*
X168517857Y-99537857D01*
X168460714Y-99566429D01*
X168346429Y-99595000D01*
X168260714Y-99595000D01*
X168146429Y-99566429D01*
X168089286Y-99537857D01*
X168032143Y-99480715D01*
X168003571Y-99395000D01*
X168003571Y-99252143D01*
X168603571Y-100109286D02*
X168603571Y-99995000D01*
X168575000Y-99937857D01*
X168546429Y-99909286D01*
X168460714Y-99852143D01*
X168346429Y-99823572D01*
X168117857Y-99823572D01*
X168060714Y-99852143D01*
X168032143Y-99880715D01*
X168003571Y-99937857D01*
X168003571Y-100052143D01*
X168032143Y-100109286D01*
X168060714Y-100137857D01*
X168117857Y-100166429D01*
X168260714Y-100166429D01*
X168317857Y-100137857D01*
X168346429Y-100109286D01*
X168375000Y-100052143D01*
X168375000Y-99937857D01*
X168346429Y-99880715D01*
X168317857Y-99852143D01*
X168260714Y-99823572D01*
X168603571Y-96269285D02*
X168603571Y-96640714D01*
X168375000Y-96440714D01*
X168375000Y-96526428D01*
X168346429Y-96583571D01*
X168317857Y-96612142D01*
X168260714Y-96640714D01*
X168117857Y-96640714D01*
X168060714Y-96612142D01*
X168032143Y-96583571D01*
X168003571Y-96526428D01*
X168003571Y-96355000D01*
X168032143Y-96297857D01*
X168060714Y-96269285D01*
X168060714Y-96897857D02*
X168032143Y-96926429D01*
X168003571Y-96897857D01*
X168032143Y-96869286D01*
X168060714Y-96897857D01*
X168003571Y-96897857D01*
X168603571Y-97126428D02*
X168603571Y-97497857D01*
X168375000Y-97297857D01*
X168375000Y-97383571D01*
X168346429Y-97440714D01*
X168317857Y-97469285D01*
X168260714Y-97497857D01*
X168117857Y-97497857D01*
X168060714Y-97469285D01*
X168032143Y-97440714D01*
X168003571Y-97383571D01*
X168003571Y-97212143D01*
X168032143Y-97155000D01*
X168060714Y-97126428D01*
X168603571Y-97669286D02*
X168003571Y-97869286D01*
X168603571Y-98069286D01*
X173255000Y-99266429D02*
X173255000Y-99552143D01*
X173083571Y-99209286D02*
X173683571Y-99409286D01*
X173083571Y-99609286D01*
X173483571Y-100066429D02*
X173083571Y-100066429D01*
X173712143Y-99923572D02*
X173283571Y-99780715D01*
X173283571Y-100152143D01*
X173255000Y-101806429D02*
X173255000Y-102092143D01*
X173083571Y-101749286D02*
X173683571Y-101949286D01*
X173083571Y-102149286D01*
X173683571Y-102635000D02*
X173683571Y-102349286D01*
X173397857Y-102320715D01*
X173426429Y-102349286D01*
X173455000Y-102406429D01*
X173455000Y-102549286D01*
X173426429Y-102606429D01*
X173397857Y-102635000D01*
X173340714Y-102663572D01*
X173197857Y-102663572D01*
X173140714Y-102635000D01*
X173112143Y-102606429D01*
X173083571Y-102549286D01*
X173083571Y-102406429D01*
X173112143Y-102349286D01*
X173140714Y-102320715D01*
X162510000Y-108320000D02*
X162510000Y-108853333D01*
X162243333Y-108586666D02*
X162776667Y-108586666D01*
X162943333Y-109120000D02*
X162943333Y-109553333D01*
X162676667Y-109320000D01*
X162676667Y-109420000D01*
X162643333Y-109486667D01*
X162610000Y-109520000D01*
X162543333Y-109553333D01*
X162376667Y-109553333D01*
X162310000Y-109520000D01*
X162276667Y-109486667D01*
X162243333Y-109420000D01*
X162243333Y-109220000D01*
X162276667Y-109153333D01*
X162310000Y-109120000D01*
X162943333Y-109753334D02*
X162243333Y-109986667D01*
X162943333Y-110220000D01*
X178763571Y-96269285D02*
X178763571Y-96640714D01*
X178535000Y-96440714D01*
X178535000Y-96526428D01*
X178506429Y-96583571D01*
X178477857Y-96612142D01*
X178420714Y-96640714D01*
X178277857Y-96640714D01*
X178220714Y-96612142D01*
X178192143Y-96583571D01*
X178163571Y-96526428D01*
X178163571Y-96355000D01*
X178192143Y-96297857D01*
X178220714Y-96269285D01*
X178220714Y-96897857D02*
X178192143Y-96926429D01*
X178163571Y-96897857D01*
X178192143Y-96869286D01*
X178220714Y-96897857D01*
X178163571Y-96897857D01*
X178763571Y-97126428D02*
X178763571Y-97497857D01*
X178535000Y-97297857D01*
X178535000Y-97383571D01*
X178506429Y-97440714D01*
X178477857Y-97469285D01*
X178420714Y-97497857D01*
X178277857Y-97497857D01*
X178220714Y-97469285D01*
X178192143Y-97440714D01*
X178163571Y-97383571D01*
X178163571Y-97212143D01*
X178192143Y-97155000D01*
X178220714Y-97126428D01*
X178763571Y-97669286D02*
X178163571Y-97869286D01*
X178763571Y-98069286D01*
X173683571Y-96269285D02*
X173683571Y-96640714D01*
X173455000Y-96440714D01*
X173455000Y-96526428D01*
X173426429Y-96583571D01*
X173397857Y-96612142D01*
X173340714Y-96640714D01*
X173197857Y-96640714D01*
X173140714Y-96612142D01*
X173112143Y-96583571D01*
X173083571Y-96526428D01*
X173083571Y-96355000D01*
X173112143Y-96297857D01*
X173140714Y-96269285D01*
X173140714Y-96897857D02*
X173112143Y-96926429D01*
X173083571Y-96897857D01*
X173112143Y-96869286D01*
X173140714Y-96897857D01*
X173083571Y-96897857D01*
X173683571Y-97126428D02*
X173683571Y-97497857D01*
X173455000Y-97297857D01*
X173455000Y-97383571D01*
X173426429Y-97440714D01*
X173397857Y-97469285D01*
X173340714Y-97497857D01*
X173197857Y-97497857D01*
X173140714Y-97469285D01*
X173112143Y-97440714D01*
X173083571Y-97383571D01*
X173083571Y-97212143D01*
X173112143Y-97155000D01*
X173140714Y-97126428D01*
X173683571Y-97669286D02*
X173083571Y-97869286D01*
X173683571Y-98069286D01*
X163523571Y-96269285D02*
X163523571Y-96640714D01*
X163295000Y-96440714D01*
X163295000Y-96526428D01*
X163266429Y-96583571D01*
X163237857Y-96612142D01*
X163180714Y-96640714D01*
X163037857Y-96640714D01*
X162980714Y-96612142D01*
X162952143Y-96583571D01*
X162923571Y-96526428D01*
X162923571Y-96355000D01*
X162952143Y-96297857D01*
X162980714Y-96269285D01*
X162980714Y-96897857D02*
X162952143Y-96926429D01*
X162923571Y-96897857D01*
X162952143Y-96869286D01*
X162980714Y-96897857D01*
X162923571Y-96897857D01*
X163523571Y-97126428D02*
X163523571Y-97497857D01*
X163295000Y-97297857D01*
X163295000Y-97383571D01*
X163266429Y-97440714D01*
X163237857Y-97469285D01*
X163180714Y-97497857D01*
X163037857Y-97497857D01*
X162980714Y-97469285D01*
X162952143Y-97440714D01*
X162923571Y-97383571D01*
X162923571Y-97212143D01*
X162952143Y-97155000D01*
X162980714Y-97126428D01*
X163523571Y-97669286D02*
X162923571Y-97869286D01*
X163523571Y-98069286D01*
X158443571Y-96269285D02*
X158443571Y-96640714D01*
X158215000Y-96440714D01*
X158215000Y-96526428D01*
X158186429Y-96583571D01*
X158157857Y-96612142D01*
X158100714Y-96640714D01*
X157957857Y-96640714D01*
X157900714Y-96612142D01*
X157872143Y-96583571D01*
X157843571Y-96526428D01*
X157843571Y-96355000D01*
X157872143Y-96297857D01*
X157900714Y-96269285D01*
X157900714Y-96897857D02*
X157872143Y-96926429D01*
X157843571Y-96897857D01*
X157872143Y-96869286D01*
X157900714Y-96897857D01*
X157843571Y-96897857D01*
X158443571Y-97126428D02*
X158443571Y-97497857D01*
X158215000Y-97297857D01*
X158215000Y-97383571D01*
X158186429Y-97440714D01*
X158157857Y-97469285D01*
X158100714Y-97497857D01*
X157957857Y-97497857D01*
X157900714Y-97469285D01*
X157872143Y-97440714D01*
X157843571Y-97383571D01*
X157843571Y-97212143D01*
X157872143Y-97155000D01*
X157900714Y-97126428D01*
X158443571Y-97669286D02*
X157843571Y-97869286D01*
X158443571Y-98069286D01*
X153363571Y-96269285D02*
X153363571Y-96640714D01*
X153135000Y-96440714D01*
X153135000Y-96526428D01*
X153106429Y-96583571D01*
X153077857Y-96612142D01*
X153020714Y-96640714D01*
X152877857Y-96640714D01*
X152820714Y-96612142D01*
X152792143Y-96583571D01*
X152763571Y-96526428D01*
X152763571Y-96355000D01*
X152792143Y-96297857D01*
X152820714Y-96269285D01*
X152820714Y-96897857D02*
X152792143Y-96926429D01*
X152763571Y-96897857D01*
X152792143Y-96869286D01*
X152820714Y-96897857D01*
X152763571Y-96897857D01*
X153363571Y-97126428D02*
X153363571Y-97497857D01*
X153135000Y-97297857D01*
X153135000Y-97383571D01*
X153106429Y-97440714D01*
X153077857Y-97469285D01*
X153020714Y-97497857D01*
X152877857Y-97497857D01*
X152820714Y-97469285D01*
X152792143Y-97440714D01*
X152763571Y-97383571D01*
X152763571Y-97212143D01*
X152792143Y-97155000D01*
X152820714Y-97126428D01*
X153363571Y-97669286D02*
X152763571Y-97869286D01*
X153363571Y-98069286D01*
X148283571Y-96269285D02*
X148283571Y-96640714D01*
X148055000Y-96440714D01*
X148055000Y-96526428D01*
X148026429Y-96583571D01*
X147997857Y-96612142D01*
X147940714Y-96640714D01*
X147797857Y-96640714D01*
X147740714Y-96612142D01*
X147712143Y-96583571D01*
X147683571Y-96526428D01*
X147683571Y-96355000D01*
X147712143Y-96297857D01*
X147740714Y-96269285D01*
X147740714Y-96897857D02*
X147712143Y-96926429D01*
X147683571Y-96897857D01*
X147712143Y-96869286D01*
X147740714Y-96897857D01*
X147683571Y-96897857D01*
X148283571Y-97126428D02*
X148283571Y-97497857D01*
X148055000Y-97297857D01*
X148055000Y-97383571D01*
X148026429Y-97440714D01*
X147997857Y-97469285D01*
X147940714Y-97497857D01*
X147797857Y-97497857D01*
X147740714Y-97469285D01*
X147712143Y-97440714D01*
X147683571Y-97383571D01*
X147683571Y-97212143D01*
X147712143Y-97155000D01*
X147740714Y-97126428D01*
X148283571Y-97669286D02*
X147683571Y-97869286D01*
X148283571Y-98069286D01*
X178735000Y-104317858D02*
X178763571Y-104260715D01*
X178763571Y-104175001D01*
X178735000Y-104089286D01*
X178677857Y-104032144D01*
X178620714Y-104003572D01*
X178506429Y-103975001D01*
X178420714Y-103975001D01*
X178306429Y-104003572D01*
X178249286Y-104032144D01*
X178192143Y-104089286D01*
X178163571Y-104175001D01*
X178163571Y-104232144D01*
X178192143Y-104317858D01*
X178220714Y-104346429D01*
X178420714Y-104346429D01*
X178420714Y-104232144D01*
X178163571Y-104603572D02*
X178763571Y-104603572D01*
X178163571Y-104946429D01*
X178763571Y-104946429D01*
X178163571Y-105232143D02*
X178763571Y-105232143D01*
X178763571Y-105375000D01*
X178735000Y-105460715D01*
X178677857Y-105517857D01*
X178620714Y-105546429D01*
X178506429Y-105575000D01*
X178420714Y-105575000D01*
X178306429Y-105546429D01*
X178249286Y-105517857D01*
X178192143Y-105460715D01*
X178163571Y-105375000D01*
X178163571Y-105232143D01*
X173655000Y-104317858D02*
X173683571Y-104260715D01*
X173683571Y-104175001D01*
X173655000Y-104089286D01*
X173597857Y-104032144D01*
X173540714Y-104003572D01*
X173426429Y-103975001D01*
X173340714Y-103975001D01*
X173226429Y-104003572D01*
X173169286Y-104032144D01*
X173112143Y-104089286D01*
X173083571Y-104175001D01*
X173083571Y-104232144D01*
X173112143Y-104317858D01*
X173140714Y-104346429D01*
X173340714Y-104346429D01*
X173340714Y-104232144D01*
X173083571Y-104603572D02*
X173683571Y-104603572D01*
X173083571Y-104946429D01*
X173683571Y-104946429D01*
X173083571Y-105232143D02*
X173683571Y-105232143D01*
X173683571Y-105375000D01*
X173655000Y-105460715D01*
X173597857Y-105517857D01*
X173540714Y-105546429D01*
X173426429Y-105575000D01*
X173340714Y-105575000D01*
X173226429Y-105546429D01*
X173169286Y-105517857D01*
X173112143Y-105460715D01*
X173083571Y-105375000D01*
X173083571Y-105232143D01*
X163495000Y-101777858D02*
X163523571Y-101720715D01*
X163523571Y-101635001D01*
X163495000Y-101549286D01*
X163437857Y-101492144D01*
X163380714Y-101463572D01*
X163266429Y-101435001D01*
X163180714Y-101435001D01*
X163066429Y-101463572D01*
X163009286Y-101492144D01*
X162952143Y-101549286D01*
X162923571Y-101635001D01*
X162923571Y-101692144D01*
X162952143Y-101777858D01*
X162980714Y-101806429D01*
X163180714Y-101806429D01*
X163180714Y-101692144D01*
X162923571Y-102063572D02*
X163523571Y-102063572D01*
X162923571Y-102406429D01*
X163523571Y-102406429D01*
X162923571Y-102692143D02*
X163523571Y-102692143D01*
X163523571Y-102835000D01*
X163495000Y-102920715D01*
X163437857Y-102977857D01*
X163380714Y-103006429D01*
X163266429Y-103035000D01*
X163180714Y-103035000D01*
X163066429Y-103006429D01*
X163009286Y-102977857D01*
X162952143Y-102920715D01*
X162923571Y-102835000D01*
X162923571Y-102692143D01*
X158415000Y-101777858D02*
X158443571Y-101720715D01*
X158443571Y-101635001D01*
X158415000Y-101549286D01*
X158357857Y-101492144D01*
X158300714Y-101463572D01*
X158186429Y-101435001D01*
X158100714Y-101435001D01*
X157986429Y-101463572D01*
X157929286Y-101492144D01*
X157872143Y-101549286D01*
X157843571Y-101635001D01*
X157843571Y-101692144D01*
X157872143Y-101777858D01*
X157900714Y-101806429D01*
X158100714Y-101806429D01*
X158100714Y-101692144D01*
X157843571Y-102063572D02*
X158443571Y-102063572D01*
X157843571Y-102406429D01*
X158443571Y-102406429D01*
X157843571Y-102692143D02*
X158443571Y-102692143D01*
X158443571Y-102835000D01*
X158415000Y-102920715D01*
X158357857Y-102977857D01*
X158300714Y-103006429D01*
X158186429Y-103035000D01*
X158100714Y-103035000D01*
X157986429Y-103006429D01*
X157929286Y-102977857D01*
X157872143Y-102920715D01*
X157843571Y-102835000D01*
X157843571Y-102692143D01*
X153335000Y-101777858D02*
X153363571Y-101720715D01*
X153363571Y-101635001D01*
X153335000Y-101549286D01*
X153277857Y-101492144D01*
X153220714Y-101463572D01*
X153106429Y-101435001D01*
X153020714Y-101435001D01*
X152906429Y-101463572D01*
X152849286Y-101492144D01*
X152792143Y-101549286D01*
X152763571Y-101635001D01*
X152763571Y-101692144D01*
X152792143Y-101777858D01*
X152820714Y-101806429D01*
X153020714Y-101806429D01*
X153020714Y-101692144D01*
X152763571Y-102063572D02*
X153363571Y-102063572D01*
X152763571Y-102406429D01*
X153363571Y-102406429D01*
X152763571Y-102692143D02*
X153363571Y-102692143D01*
X153363571Y-102835000D01*
X153335000Y-102920715D01*
X153277857Y-102977857D01*
X153220714Y-103006429D01*
X153106429Y-103035000D01*
X153020714Y-103035000D01*
X152906429Y-103006429D01*
X152849286Y-102977857D01*
X152792143Y-102920715D01*
X152763571Y-102835000D01*
X152763571Y-102692143D01*
X148255000Y-101777858D02*
X148283571Y-101720715D01*
X148283571Y-101635001D01*
X148255000Y-101549286D01*
X148197857Y-101492144D01*
X148140714Y-101463572D01*
X148026429Y-101435001D01*
X147940714Y-101435001D01*
X147826429Y-101463572D01*
X147769286Y-101492144D01*
X147712143Y-101549286D01*
X147683571Y-101635001D01*
X147683571Y-101692144D01*
X147712143Y-101777858D01*
X147740714Y-101806429D01*
X147940714Y-101806429D01*
X147940714Y-101692144D01*
X147683571Y-102063572D02*
X148283571Y-102063572D01*
X147683571Y-102406429D01*
X148283571Y-102406429D01*
X147683571Y-102692143D02*
X148283571Y-102692143D01*
X148283571Y-102835000D01*
X148255000Y-102920715D01*
X148197857Y-102977857D01*
X148140714Y-103006429D01*
X148026429Y-103035000D01*
X147940714Y-103035000D01*
X147826429Y-103006429D01*
X147769286Y-102977857D01*
X147712143Y-102920715D01*
X147683571Y-102835000D01*
X147683571Y-102692143D01*
X178335000Y-99266429D02*
X178335000Y-99552143D01*
X178163571Y-99209286D02*
X178763571Y-99409286D01*
X178163571Y-99609286D01*
X178563571Y-100066429D02*
X178163571Y-100066429D01*
X178792143Y-99923572D02*
X178363571Y-99780715D01*
X178363571Y-100152143D01*
X178335000Y-101806429D02*
X178335000Y-102092143D01*
X178163571Y-101749286D02*
X178763571Y-101949286D01*
X178163571Y-102149286D01*
X178763571Y-102635000D02*
X178763571Y-102349286D01*
X178477857Y-102320715D01*
X178506429Y-102349286D01*
X178535000Y-102406429D01*
X178535000Y-102549286D01*
X178506429Y-102606429D01*
X178477857Y-102635000D01*
X178420714Y-102663572D01*
X178277857Y-102663572D01*
X178220714Y-102635000D01*
X178192143Y-102606429D01*
X178163571Y-102549286D01*
X178163571Y-102406429D01*
X178192143Y-102349286D01*
X178220714Y-102320715D01*
X162923571Y-99252143D02*
X163523571Y-99252143D01*
X163523571Y-99395000D01*
X163495000Y-99480715D01*
X163437857Y-99537857D01*
X163380714Y-99566429D01*
X163266429Y-99595000D01*
X163180714Y-99595000D01*
X163066429Y-99566429D01*
X163009286Y-99537857D01*
X162952143Y-99480715D01*
X162923571Y-99395000D01*
X162923571Y-99252143D01*
X163323571Y-100109286D02*
X162923571Y-100109286D01*
X163552143Y-99966429D02*
X163123571Y-99823572D01*
X163123571Y-100195000D01*
X157843571Y-99252143D02*
X158443571Y-99252143D01*
X158443571Y-99395000D01*
X158415000Y-99480715D01*
X158357857Y-99537857D01*
X158300714Y-99566429D01*
X158186429Y-99595000D01*
X158100714Y-99595000D01*
X157986429Y-99566429D01*
X157929286Y-99537857D01*
X157872143Y-99480715D01*
X157843571Y-99395000D01*
X157843571Y-99252143D01*
X158443571Y-99795000D02*
X158443571Y-100166429D01*
X158215000Y-99966429D01*
X158215000Y-100052143D01*
X158186429Y-100109286D01*
X158157857Y-100137857D01*
X158100714Y-100166429D01*
X157957857Y-100166429D01*
X157900714Y-100137857D01*
X157872143Y-100109286D01*
X157843571Y-100052143D01*
X157843571Y-99880715D01*
X157872143Y-99823572D01*
X157900714Y-99795000D01*
X152935000Y-99266429D02*
X152935000Y-99552143D01*
X152763571Y-99209286D02*
X153363571Y-99409286D01*
X152763571Y-99609286D01*
X152763571Y-100123572D02*
X152763571Y-99780715D01*
X152763571Y-99952143D02*
X153363571Y-99952143D01*
X153277857Y-99895000D01*
X153220714Y-99837858D01*
X153192143Y-99780715D01*
X147855000Y-99266429D02*
X147855000Y-99552143D01*
X147683571Y-99209286D02*
X148283571Y-99409286D01*
X147683571Y-99609286D01*
X148283571Y-99923572D02*
X148283571Y-99980715D01*
X148255000Y-100037858D01*
X148226429Y-100066429D01*
X148169286Y-100095000D01*
X148055000Y-100123572D01*
X147912143Y-100123572D01*
X147797857Y-100095000D01*
X147740714Y-100066429D01*
X147712143Y-100037858D01*
X147683571Y-99980715D01*
X147683571Y-99923572D01*
X147712143Y-99866429D01*
X147740714Y-99837858D01*
X147797857Y-99809286D01*
X147912143Y-99780715D01*
X148055000Y-99780715D01*
X148169286Y-99809286D01*
X148226429Y-99837858D01*
X148255000Y-99866429D01*
X148283571Y-99923572D01*
X162910000Y-105511667D02*
X162943333Y-105445001D01*
X162943333Y-105345001D01*
X162910000Y-105245001D01*
X162843333Y-105178334D01*
X162776667Y-105145001D01*
X162643333Y-105111667D01*
X162543333Y-105111667D01*
X162410000Y-105145001D01*
X162343333Y-105178334D01*
X162276667Y-105245001D01*
X162243333Y-105345001D01*
X162243333Y-105411667D01*
X162276667Y-105511667D01*
X162310000Y-105545001D01*
X162543333Y-105545001D01*
X162543333Y-105411667D01*
X162243333Y-105845001D02*
X162943333Y-105845001D01*
X162243333Y-106245001D01*
X162943333Y-106245001D01*
X162243333Y-106578334D02*
X162943333Y-106578334D01*
X162943333Y-106745000D01*
X162910000Y-106845000D01*
X162843333Y-106911667D01*
X162776667Y-106945000D01*
X162643333Y-106978334D01*
X162543333Y-106978334D01*
X162410000Y-106945000D01*
X162343333Y-106911667D01*
X162276667Y-106845000D01*
X162243333Y-106745000D01*
X162243333Y-106578334D01*
D11*
X179113571Y-91789286D02*
X179327857Y-92075000D01*
X179113571Y-92360715D01*
D10*
X158307143Y-119016429D02*
X158307143Y-118416429D01*
X158450000Y-118416429D01*
X158535715Y-118445000D01*
X158592857Y-118502143D01*
X158621429Y-118559286D01*
X158650000Y-118673571D01*
X158650000Y-118759286D01*
X158621429Y-118873571D01*
X158592857Y-118930714D01*
X158535715Y-118987857D01*
X158450000Y-119016429D01*
X158307143Y-119016429D01*
X158935715Y-119016429D02*
X159050000Y-119016429D01*
X159107143Y-118987857D01*
X159135715Y-118959286D01*
X159192857Y-118873571D01*
X159221429Y-118759286D01*
X159221429Y-118530714D01*
X159192857Y-118473571D01*
X159164286Y-118445000D01*
X159107143Y-118416429D01*
X158992857Y-118416429D01*
X158935715Y-118445000D01*
X158907143Y-118473571D01*
X158878572Y-118530714D01*
X158878572Y-118673571D01*
X158907143Y-118730714D01*
X158935715Y-118759286D01*
X158992857Y-118787857D01*
X159107143Y-118787857D01*
X159164286Y-118759286D01*
X159192857Y-118730714D01*
X159221429Y-118673571D01*
X147818572Y-118987857D02*
X147904286Y-119016429D01*
X148047143Y-119016429D01*
X148104286Y-118987857D01*
X148132857Y-118959286D01*
X148161429Y-118902143D01*
X148161429Y-118845000D01*
X148132857Y-118787857D01*
X148104286Y-118759286D01*
X148047143Y-118730714D01*
X147932857Y-118702143D01*
X147875715Y-118673571D01*
X147847143Y-118645000D01*
X147818572Y-118587857D01*
X147818572Y-118530714D01*
X147847143Y-118473571D01*
X147875715Y-118445000D01*
X147932857Y-118416429D01*
X148075715Y-118416429D01*
X148161429Y-118445000D01*
X148761429Y-118959286D02*
X148732858Y-118987857D01*
X148647144Y-119016429D01*
X148590001Y-119016429D01*
X148504286Y-118987857D01*
X148447144Y-118930714D01*
X148418572Y-118873571D01*
X148390001Y-118759286D01*
X148390001Y-118673571D01*
X148418572Y-118559286D01*
X148447144Y-118502143D01*
X148504286Y-118445000D01*
X148590001Y-118416429D01*
X148647144Y-118416429D01*
X148732858Y-118445000D01*
X148761429Y-118473571D01*
X149018572Y-119016429D02*
X149018572Y-118416429D01*
X149361429Y-119016429D02*
X149104286Y-118673571D01*
X149361429Y-118416429D02*
X149018572Y-118759286D01*
X150187143Y-119016429D02*
X150187143Y-118416429D01*
X150387143Y-118845000D01*
X150587143Y-118416429D01*
X150587143Y-119016429D01*
X150872857Y-119016429D02*
X150872857Y-118416429D01*
X151130000Y-118987857D02*
X151215714Y-119016429D01*
X151358571Y-119016429D01*
X151415714Y-118987857D01*
X151444285Y-118959286D01*
X151472857Y-118902143D01*
X151472857Y-118845000D01*
X151444285Y-118787857D01*
X151415714Y-118759286D01*
X151358571Y-118730714D01*
X151244285Y-118702143D01*
X151187143Y-118673571D01*
X151158571Y-118645000D01*
X151130000Y-118587857D01*
X151130000Y-118530714D01*
X151158571Y-118473571D01*
X151187143Y-118445000D01*
X151244285Y-118416429D01*
X151387143Y-118416429D01*
X151472857Y-118445000D01*
X151844286Y-118416429D02*
X151958572Y-118416429D01*
X152015714Y-118445000D01*
X152072857Y-118502143D01*
X152101429Y-118616429D01*
X152101429Y-118816429D01*
X152072857Y-118930714D01*
X152015714Y-118987857D01*
X151958572Y-119016429D01*
X151844286Y-119016429D01*
X151787143Y-118987857D01*
X151730000Y-118930714D01*
X151701429Y-118816429D01*
X151701429Y-118616429D01*
X151730000Y-118502143D01*
X151787143Y-118445000D01*
X151844286Y-118416429D01*
X152727143Y-119016429D02*
X152727143Y-118416429D01*
X152927143Y-118845000D01*
X153127143Y-118416429D01*
X153127143Y-119016429D01*
X153527143Y-118416429D02*
X153641429Y-118416429D01*
X153698571Y-118445000D01*
X153755714Y-118502143D01*
X153784286Y-118616429D01*
X153784286Y-118816429D01*
X153755714Y-118930714D01*
X153698571Y-118987857D01*
X153641429Y-119016429D01*
X153527143Y-119016429D01*
X153470000Y-118987857D01*
X153412857Y-118930714D01*
X153384286Y-118816429D01*
X153384286Y-118616429D01*
X153412857Y-118502143D01*
X153470000Y-118445000D01*
X153527143Y-118416429D01*
X154012857Y-118987857D02*
X154098571Y-119016429D01*
X154241428Y-119016429D01*
X154298571Y-118987857D01*
X154327142Y-118959286D01*
X154355714Y-118902143D01*
X154355714Y-118845000D01*
X154327142Y-118787857D01*
X154298571Y-118759286D01*
X154241428Y-118730714D01*
X154127142Y-118702143D01*
X154070000Y-118673571D01*
X154041428Y-118645000D01*
X154012857Y-118587857D01*
X154012857Y-118530714D01*
X154041428Y-118473571D01*
X154070000Y-118445000D01*
X154127142Y-118416429D01*
X154270000Y-118416429D01*
X154355714Y-118445000D01*
X154612857Y-119016429D02*
X154612857Y-118416429D01*
X155881428Y-119016429D02*
X155681428Y-118730714D01*
X155538571Y-119016429D02*
X155538571Y-118416429D01*
X155767143Y-118416429D01*
X155824285Y-118445000D01*
X155852857Y-118473571D01*
X155881428Y-118530714D01*
X155881428Y-118616429D01*
X155852857Y-118673571D01*
X155824285Y-118702143D01*
X155767143Y-118730714D01*
X155538571Y-118730714D01*
X156110000Y-118987857D02*
X156195714Y-119016429D01*
X156338571Y-119016429D01*
X156395714Y-118987857D01*
X156424285Y-118959286D01*
X156452857Y-118902143D01*
X156452857Y-118845000D01*
X156424285Y-118787857D01*
X156395714Y-118759286D01*
X156338571Y-118730714D01*
X156224285Y-118702143D01*
X156167143Y-118673571D01*
X156138571Y-118645000D01*
X156110000Y-118587857D01*
X156110000Y-118530714D01*
X156138571Y-118473571D01*
X156167143Y-118445000D01*
X156224285Y-118416429D01*
X156367143Y-118416429D01*
X156452857Y-118445000D01*
X156624286Y-118416429D02*
X156967143Y-118416429D01*
X156795714Y-119016429D02*
X156795714Y-118416429D01*
X160847143Y-119016429D02*
X160847143Y-118416429D01*
X160990000Y-118416429D01*
X161075715Y-118445000D01*
X161132857Y-118502143D01*
X161161429Y-118559286D01*
X161190000Y-118673571D01*
X161190000Y-118759286D01*
X161161429Y-118873571D01*
X161132857Y-118930714D01*
X161075715Y-118987857D01*
X160990000Y-119016429D01*
X160847143Y-119016429D01*
X161532857Y-118673571D02*
X161475715Y-118645000D01*
X161447143Y-118616429D01*
X161418572Y-118559286D01*
X161418572Y-118530714D01*
X161447143Y-118473571D01*
X161475715Y-118445000D01*
X161532857Y-118416429D01*
X161647143Y-118416429D01*
X161704286Y-118445000D01*
X161732857Y-118473571D01*
X161761429Y-118530714D01*
X161761429Y-118559286D01*
X161732857Y-118616429D01*
X161704286Y-118645000D01*
X161647143Y-118673571D01*
X161532857Y-118673571D01*
X161475715Y-118702143D01*
X161447143Y-118730714D01*
X161418572Y-118787857D01*
X161418572Y-118902143D01*
X161447143Y-118959286D01*
X161475715Y-118987857D01*
X161532857Y-119016429D01*
X161647143Y-119016429D01*
X161704286Y-118987857D01*
X161732857Y-118959286D01*
X161761429Y-118902143D01*
X161761429Y-118787857D01*
X161732857Y-118730714D01*
X161704286Y-118702143D01*
X161647143Y-118673571D01*
X163387143Y-119016429D02*
X163387143Y-118416429D01*
X163530000Y-118416429D01*
X163615715Y-118445000D01*
X163672857Y-118502143D01*
X163701429Y-118559286D01*
X163730000Y-118673571D01*
X163730000Y-118759286D01*
X163701429Y-118873571D01*
X163672857Y-118930714D01*
X163615715Y-118987857D01*
X163530000Y-119016429D01*
X163387143Y-119016429D01*
X163930000Y-118416429D02*
X164330000Y-118416429D01*
X164072857Y-119016429D01*
X165927143Y-119016429D02*
X165927143Y-118416429D01*
X166070000Y-118416429D01*
X166155715Y-118445000D01*
X166212857Y-118502143D01*
X166241429Y-118559286D01*
X166270000Y-118673571D01*
X166270000Y-118759286D01*
X166241429Y-118873571D01*
X166212857Y-118930714D01*
X166155715Y-118987857D01*
X166070000Y-119016429D01*
X165927143Y-119016429D01*
X166784286Y-118416429D02*
X166670000Y-118416429D01*
X166612857Y-118445000D01*
X166584286Y-118473571D01*
X166527143Y-118559286D01*
X166498572Y-118673571D01*
X166498572Y-118902143D01*
X166527143Y-118959286D01*
X166555715Y-118987857D01*
X166612857Y-119016429D01*
X166727143Y-119016429D01*
X166784286Y-118987857D01*
X166812857Y-118959286D01*
X166841429Y-118902143D01*
X166841429Y-118759286D01*
X166812857Y-118702143D01*
X166784286Y-118673571D01*
X166727143Y-118645000D01*
X166612857Y-118645000D01*
X166555715Y-118673571D01*
X166527143Y-118702143D01*
X166498572Y-118759286D01*
X168467143Y-119016429D02*
X168467143Y-118416429D01*
X168610000Y-118416429D01*
X168695715Y-118445000D01*
X168752857Y-118502143D01*
X168781429Y-118559286D01*
X168810000Y-118673571D01*
X168810000Y-118759286D01*
X168781429Y-118873571D01*
X168752857Y-118930714D01*
X168695715Y-118987857D01*
X168610000Y-119016429D01*
X168467143Y-119016429D01*
X169352857Y-118416429D02*
X169067143Y-118416429D01*
X169038572Y-118702143D01*
X169067143Y-118673571D01*
X169124286Y-118645000D01*
X169267143Y-118645000D01*
X169324286Y-118673571D01*
X169352857Y-118702143D01*
X169381429Y-118759286D01*
X169381429Y-118902143D01*
X169352857Y-118959286D01*
X169324286Y-118987857D01*
X169267143Y-119016429D01*
X169124286Y-119016429D01*
X169067143Y-118987857D01*
X169038572Y-118959286D01*
X170992858Y-118445000D02*
X170935715Y-118416429D01*
X170850001Y-118416429D01*
X170764286Y-118445000D01*
X170707144Y-118502143D01*
X170678572Y-118559286D01*
X170650001Y-118673571D01*
X170650001Y-118759286D01*
X170678572Y-118873571D01*
X170707144Y-118930714D01*
X170764286Y-118987857D01*
X170850001Y-119016429D01*
X170907144Y-119016429D01*
X170992858Y-118987857D01*
X171021429Y-118959286D01*
X171021429Y-118759286D01*
X170907144Y-118759286D01*
X171278572Y-119016429D02*
X171278572Y-118416429D01*
X171621429Y-119016429D01*
X171621429Y-118416429D01*
X171907143Y-119016429D02*
X171907143Y-118416429D01*
X172050000Y-118416429D01*
X172135715Y-118445000D01*
X172192857Y-118502143D01*
X172221429Y-118559286D01*
X172250000Y-118673571D01*
X172250000Y-118759286D01*
X172221429Y-118873571D01*
X172192857Y-118930714D01*
X172135715Y-118987857D01*
X172050000Y-119016429D01*
X171907143Y-119016429D01*
X173104285Y-118416429D02*
X173475714Y-118416429D01*
X173275714Y-118645000D01*
X173361428Y-118645000D01*
X173418571Y-118673571D01*
X173447142Y-118702143D01*
X173475714Y-118759286D01*
X173475714Y-118902143D01*
X173447142Y-118959286D01*
X173418571Y-118987857D01*
X173361428Y-119016429D01*
X173190000Y-119016429D01*
X173132857Y-118987857D01*
X173104285Y-118959286D01*
X173732857Y-118959286D02*
X173761429Y-118987857D01*
X173732857Y-119016429D01*
X173704286Y-118987857D01*
X173732857Y-118959286D01*
X173732857Y-119016429D01*
X173961428Y-118416429D02*
X174332857Y-118416429D01*
X174132857Y-118645000D01*
X174218571Y-118645000D01*
X174275714Y-118673571D01*
X174304285Y-118702143D01*
X174332857Y-118759286D01*
X174332857Y-118902143D01*
X174304285Y-118959286D01*
X174275714Y-118987857D01*
X174218571Y-119016429D01*
X174047143Y-119016429D01*
X173990000Y-118987857D01*
X173961428Y-118959286D01*
X174504286Y-118416429D02*
X174704286Y-119016429D01*
X174904286Y-118416429D01*
X148161429Y-93445000D02*
X148447143Y-93445000D01*
X148104286Y-93616429D02*
X148304286Y-93016429D01*
X148504286Y-93616429D01*
X148818572Y-93016429D02*
X148875715Y-93016429D01*
X148932858Y-93045000D01*
X148961429Y-93073571D01*
X148990000Y-93130714D01*
X149018572Y-93245000D01*
X149018572Y-93387857D01*
X148990000Y-93502143D01*
X148961429Y-93559286D01*
X148932858Y-93587857D01*
X148875715Y-93616429D01*
X148818572Y-93616429D01*
X148761429Y-93587857D01*
X148732858Y-93559286D01*
X148704286Y-93502143D01*
X148675715Y-93387857D01*
X148675715Y-93245000D01*
X148704286Y-93130714D01*
X148732858Y-93073571D01*
X148761429Y-93045000D01*
X148818572Y-93016429D01*
X150701429Y-93445000D02*
X150987143Y-93445000D01*
X150644286Y-93616429D02*
X150844286Y-93016429D01*
X151044286Y-93616429D01*
X151558572Y-93616429D02*
X151215715Y-93616429D01*
X151387143Y-93616429D02*
X151387143Y-93016429D01*
X151330000Y-93102143D01*
X151272858Y-93159286D01*
X151215715Y-93187857D01*
X153241429Y-93445000D02*
X153527143Y-93445000D01*
X153184286Y-93616429D02*
X153384286Y-93016429D01*
X153584286Y-93616429D01*
X153727143Y-93016429D02*
X154098572Y-93016429D01*
X153898572Y-93245000D01*
X153984286Y-93245000D01*
X154041429Y-93273571D01*
X154070000Y-93302143D01*
X154098572Y-93359286D01*
X154098572Y-93502143D01*
X154070000Y-93559286D01*
X154041429Y-93587857D01*
X153984286Y-93616429D01*
X153812858Y-93616429D01*
X153755715Y-93587857D01*
X153727143Y-93559286D01*
X155781429Y-93445000D02*
X156067143Y-93445000D01*
X155724286Y-93616429D02*
X155924286Y-93016429D01*
X156124286Y-93616429D01*
X156581429Y-93216429D02*
X156581429Y-93616429D01*
X156438572Y-92987857D02*
X156295715Y-93416429D01*
X156667143Y-93416429D01*
X158321429Y-93445000D02*
X158607143Y-93445000D01*
X158264286Y-93616429D02*
X158464286Y-93016429D01*
X158664286Y-93616429D01*
X159150000Y-93016429D02*
X158864286Y-93016429D01*
X158835715Y-93302143D01*
X158864286Y-93273571D01*
X158921429Y-93245000D01*
X159064286Y-93245000D01*
X159121429Y-93273571D01*
X159150000Y-93302143D01*
X159178572Y-93359286D01*
X159178572Y-93502143D01*
X159150000Y-93559286D01*
X159121429Y-93587857D01*
X159064286Y-93616429D01*
X158921429Y-93616429D01*
X158864286Y-93587857D01*
X158835715Y-93559286D01*
X176087143Y-93616429D02*
X176087143Y-93016429D01*
X176230000Y-93016429D01*
X176315715Y-93045000D01*
X176372857Y-93102143D01*
X176401429Y-93159286D01*
X176430000Y-93273571D01*
X176430000Y-93359286D01*
X176401429Y-93473571D01*
X176372857Y-93530714D01*
X176315715Y-93587857D01*
X176230000Y-93616429D01*
X176087143Y-93616429D01*
X176944286Y-93216429D02*
X176944286Y-93616429D01*
X176801429Y-92987857D02*
X176658572Y-93416429D01*
X177030000Y-93416429D01*
X173547143Y-93616429D02*
X173547143Y-93016429D01*
X173690000Y-93016429D01*
X173775715Y-93045000D01*
X173832857Y-93102143D01*
X173861429Y-93159286D01*
X173890000Y-93273571D01*
X173890000Y-93359286D01*
X173861429Y-93473571D01*
X173832857Y-93530714D01*
X173775715Y-93587857D01*
X173690000Y-93616429D01*
X173547143Y-93616429D01*
X174090000Y-93016429D02*
X174461429Y-93016429D01*
X174261429Y-93245000D01*
X174347143Y-93245000D01*
X174404286Y-93273571D01*
X174432857Y-93302143D01*
X174461429Y-93359286D01*
X174461429Y-93502143D01*
X174432857Y-93559286D01*
X174404286Y-93587857D01*
X174347143Y-93616429D01*
X174175715Y-93616429D01*
X174118572Y-93587857D01*
X174090000Y-93559286D01*
X171007143Y-93616429D02*
X171007143Y-93016429D01*
X171150000Y-93016429D01*
X171235715Y-93045000D01*
X171292857Y-93102143D01*
X171321429Y-93159286D01*
X171350000Y-93273571D01*
X171350000Y-93359286D01*
X171321429Y-93473571D01*
X171292857Y-93530714D01*
X171235715Y-93587857D01*
X171150000Y-93616429D01*
X171007143Y-93616429D01*
X171578572Y-93073571D02*
X171607143Y-93045000D01*
X171664286Y-93016429D01*
X171807143Y-93016429D01*
X171864286Y-93045000D01*
X171892857Y-93073571D01*
X171921429Y-93130714D01*
X171921429Y-93187857D01*
X171892857Y-93273571D01*
X171550000Y-93616429D01*
X171921429Y-93616429D01*
X168452857Y-93016429D02*
X168795714Y-93016429D01*
X168624285Y-93616429D02*
X168624285Y-93016429D01*
X168938571Y-93016429D02*
X169338571Y-93616429D01*
X169338571Y-93016429D02*
X168938571Y-93616429D01*
X166270000Y-93616429D02*
X166070000Y-93330714D01*
X165927143Y-93616429D02*
X165927143Y-93016429D01*
X166155715Y-93016429D01*
X166212857Y-93045000D01*
X166241429Y-93073571D01*
X166270000Y-93130714D01*
X166270000Y-93216429D01*
X166241429Y-93273571D01*
X166212857Y-93302143D01*
X166155715Y-93330714D01*
X165927143Y-93330714D01*
X166470000Y-93016429D02*
X166870000Y-93616429D01*
X166870000Y-93016429D02*
X166470000Y-93616429D01*
X163401429Y-93445000D02*
X163687143Y-93445000D01*
X163344286Y-93616429D02*
X163544286Y-93016429D01*
X163744286Y-93616429D01*
X163887143Y-93016429D02*
X164287143Y-93016429D01*
X164030000Y-93616429D01*
X160861429Y-93445000D02*
X161147143Y-93445000D01*
X160804286Y-93616429D02*
X161004286Y-93016429D01*
X161204286Y-93616429D01*
X161661429Y-93016429D02*
X161547143Y-93016429D01*
X161490000Y-93045000D01*
X161461429Y-93073571D01*
X161404286Y-93159286D01*
X161375715Y-93273571D01*
X161375715Y-93502143D01*
X161404286Y-93559286D01*
X161432858Y-93587857D01*
X161490000Y-93616429D01*
X161604286Y-93616429D01*
X161661429Y-93587857D01*
X161690000Y-93559286D01*
X161718572Y-93502143D01*
X161718572Y-93359286D01*
X161690000Y-93302143D01*
X161661429Y-93273571D01*
X161604286Y-93245000D01*
X161490000Y-93245000D01*
X161432858Y-93273571D01*
X161404286Y-93302143D01*
X161375715Y-93359286D01*
X177700000Y-112442858D02*
X177700000Y-112728572D01*
X177528571Y-112385715D02*
X178128571Y-112585715D01*
X177528571Y-112785715D01*
X177528571Y-113271429D02*
X177528571Y-112985715D01*
X178128571Y-112985715D01*
X178128571Y-113585715D02*
X178128571Y-113700001D01*
X178100000Y-113757143D01*
X178042857Y-113814286D01*
X177928571Y-113842858D01*
X177728571Y-113842858D01*
X177614286Y-113814286D01*
X177557143Y-113757143D01*
X177528571Y-113700001D01*
X177528571Y-113585715D01*
X177557143Y-113528572D01*
X177614286Y-113471429D01*
X177728571Y-113442858D01*
X177928571Y-113442858D01*
X178042857Y-113471429D01*
X178100000Y-113528572D01*
X178128571Y-113585715D01*
X177842857Y-114100000D02*
X177842857Y-114300000D01*
X177528571Y-114385714D02*
X177528571Y-114100000D01*
X178128571Y-114100000D01*
X178128571Y-114385714D01*
X177557143Y-114614286D02*
X177528571Y-114700000D01*
X177528571Y-114842857D01*
X177557143Y-114900000D01*
X177585714Y-114928571D01*
X177642857Y-114957143D01*
X177700000Y-114957143D01*
X177757143Y-114928571D01*
X177785714Y-114900000D01*
X177814286Y-114842857D01*
X177842857Y-114728571D01*
X177871429Y-114671429D01*
X177900000Y-114642857D01*
X177957143Y-114614286D01*
X178014286Y-114614286D01*
X178071429Y-114642857D01*
X178100000Y-114671429D01*
X178128571Y-114728571D01*
X178128571Y-114871429D01*
X178100000Y-114957143D01*
X177585714Y-115214286D02*
X177557143Y-115242858D01*
X177528571Y-115214286D01*
X177557143Y-115185715D01*
X177585714Y-115214286D01*
X177528571Y-115214286D01*
X177528571Y-115500000D02*
X178128571Y-115500000D01*
X178128571Y-115900000D02*
X178128571Y-116014286D01*
X178100000Y-116071428D01*
X178042857Y-116128571D01*
X177928571Y-116157143D01*
X177728571Y-116157143D01*
X177614286Y-116128571D01*
X177557143Y-116071428D01*
X177528571Y-116014286D01*
X177528571Y-115900000D01*
X177557143Y-115842857D01*
X177614286Y-115785714D01*
X177728571Y-115757143D01*
X177928571Y-115757143D01*
X178042857Y-115785714D01*
X178100000Y-115842857D01*
X178128571Y-115900000D01*
X175715714Y-118702143D02*
X175801428Y-118730714D01*
X175830000Y-118759286D01*
X175858571Y-118816429D01*
X175858571Y-118902143D01*
X175830000Y-118959286D01*
X175801428Y-118987857D01*
X175744286Y-119016429D01*
X175515714Y-119016429D01*
X175515714Y-118416429D01*
X175715714Y-118416429D01*
X175772857Y-118445000D01*
X175801428Y-118473571D01*
X175830000Y-118530714D01*
X175830000Y-118587857D01*
X175801428Y-118645000D01*
X175772857Y-118673571D01*
X175715714Y-118702143D01*
X175515714Y-118702143D01*
X176087143Y-118845000D02*
X176372857Y-118845000D01*
X176030000Y-119016429D02*
X176230000Y-118416429D01*
X176430000Y-119016429D01*
X176544286Y-118416429D02*
X176887143Y-118416429D01*
X176715714Y-119016429D02*
X176715714Y-118416429D01*
X177087143Y-118787857D02*
X177544286Y-118787857D01*
X177315715Y-119016429D02*
X177315715Y-118559286D01*
D12*
G36*
X179594874Y-109210055D02*
X179594780Y-109301325D01*
X179594581Y-109378284D01*
X179594240Y-109442242D01*
X179593716Y-109494511D01*
X179592973Y-109536401D01*
X179591972Y-109569224D01*
X179590675Y-109594291D01*
X179589043Y-109612912D01*
X179587038Y-109626399D01*
X179584621Y-109636062D01*
X179581755Y-109643213D01*
X179578970Y-109648242D01*
X179553360Y-109675972D01*
X179520607Y-109690062D01*
X179484557Y-109688969D01*
X179480338Y-109687789D01*
X179464051Y-109680767D01*
X179435909Y-109666474D01*
X179398215Y-109646244D01*
X179353275Y-109621410D01*
X179303394Y-109593305D01*
X179250876Y-109563261D01*
X179198027Y-109532612D01*
X179147152Y-109502691D01*
X179100555Y-109474830D01*
X179060542Y-109450362D01*
X179029417Y-109430621D01*
X179009485Y-109416939D01*
X179003963Y-109412306D01*
X178997887Y-109404936D01*
X178993202Y-109395884D01*
X178989633Y-109382821D01*
X178986904Y-109363415D01*
X178984739Y-109335336D01*
X178982862Y-109296254D01*
X178980996Y-109243837D01*
X178979892Y-109209015D01*
X178978078Y-109155299D01*
X178976196Y-109107776D01*
X178974365Y-109068879D01*
X178972704Y-109041038D01*
X178971334Y-109026687D01*
X178970879Y-109025267D01*
X178962795Y-109029277D01*
X178942651Y-109040342D01*
X178913032Y-109057012D01*
X178876523Y-109077838D01*
X178853846Y-109090883D01*
X178740116Y-109156500D01*
X178739800Y-109546814D01*
X178931614Y-109656127D01*
X178984451Y-109686619D01*
X179033270Y-109715512D01*
X179075851Y-109741435D01*
X179109973Y-109763016D01*
X179133414Y-109778883D01*
X179143281Y-109786850D01*
X179163133Y-109808260D01*
X179163133Y-110876145D01*
X179135213Y-110903206D01*
X179121387Y-110915806D01*
X179108113Y-110924833D01*
X179093731Y-110929741D01*
X179076583Y-110929984D01*
X179055008Y-110925015D01*
X179027346Y-110914289D01*
X178991939Y-110897259D01*
X178947128Y-110873378D01*
X178891251Y-110842102D01*
X178822651Y-110802883D01*
X178812266Y-110796917D01*
X178740727Y-110755480D01*
X178683021Y-110721294D01*
X178638034Y-110693646D01*
X178604657Y-110671824D01*
X178581778Y-110655115D01*
X178568284Y-110642805D01*
X178564765Y-110638167D01*
X178559390Y-110627296D01*
X178555229Y-110612977D01*
X178552045Y-110592779D01*
X178549599Y-110564271D01*
X178547652Y-110525023D01*
X178545965Y-110472603D01*
X178545066Y-110437450D01*
X178540833Y-110262132D01*
X178424417Y-110330318D01*
X178308000Y-110398504D01*
X178306923Y-110552202D01*
X178306239Y-110610142D01*
X178305051Y-110670283D01*
X178303496Y-110727317D01*
X178301709Y-110775938D01*
X178300573Y-110799033D01*
X178295300Y-110892167D01*
X178248733Y-110922919D01*
X178228494Y-110935723D01*
X178196213Y-110955461D01*
X178154497Y-110980571D01*
X178105952Y-111009489D01*
X178053186Y-111040655D01*
X178012116Y-111064736D01*
X177952585Y-111099327D01*
X177905584Y-111126080D01*
X177869169Y-111145950D01*
X177841399Y-111159891D01*
X177820332Y-111168858D01*
X177804026Y-111173805D01*
X177790539Y-111175688D01*
X177786200Y-111175800D01*
X177777328Y-111175035D01*
X177766218Y-111172323D01*
X177751709Y-111167046D01*
X177732640Y-111158581D01*
X177707851Y-111146307D01*
X177676181Y-111129602D01*
X177636470Y-111107847D01*
X177587558Y-111080420D01*
X177528283Y-111046699D01*
X177457486Y-111006064D01*
X177374005Y-110957893D01*
X177311617Y-110921799D01*
X177229323Y-110873951D01*
X177151941Y-110828564D01*
X177080729Y-110786399D01*
X177016945Y-110748220D01*
X176961845Y-110714787D01*
X176916688Y-110686862D01*
X176882732Y-110665207D01*
X176861233Y-110650585D01*
X176853892Y-110644515D01*
X176838092Y-110612645D01*
X176836309Y-110576289D01*
X176848658Y-110541120D01*
X176859071Y-110530173D01*
X176880977Y-110513632D01*
X176915089Y-110491042D01*
X176962118Y-110461949D01*
X177022776Y-110425900D01*
X177092800Y-110385297D01*
X177159241Y-110347278D01*
X177212817Y-110317077D01*
X177255210Y-110293855D01*
X177288105Y-110276768D01*
X177313187Y-110264974D01*
X177332140Y-110257633D01*
X177346648Y-110253902D01*
X177357608Y-110252934D01*
X177373666Y-110254515D01*
X177392719Y-110260029D01*
X177417310Y-110270631D01*
X177449983Y-110287477D01*
X177493278Y-110311723D01*
X177516675Y-110325221D01*
X177559787Y-110350156D01*
X177599459Y-110372935D01*
X177632660Y-110391832D01*
X177656356Y-110405117D01*
X177665575Y-110410105D01*
X177689933Y-110422702D01*
X177689671Y-110147100D01*
X177497185Y-110037034D01*
X177444343Y-110006465D01*
X177395562Y-109977580D01*
X177353044Y-109951734D01*
X177318988Y-109930283D01*
X177295595Y-109914584D01*
X177285650Y-109906681D01*
X177280506Y-109900894D01*
X177276385Y-109894455D01*
X177273176Y-109885555D01*
X177270769Y-109872388D01*
X177269052Y-109853145D01*
X177267915Y-109826020D01*
X177267247Y-109789205D01*
X177266936Y-109740892D01*
X177266871Y-109679276D01*
X177266943Y-109602547D01*
X177266944Y-109601881D01*
X177267288Y-109317367D01*
X177290227Y-109291362D01*
X177304579Y-109279286D01*
X177331120Y-109260938D01*
X177367616Y-109237588D01*
X177411833Y-109210505D01*
X177461538Y-109180960D01*
X177514496Y-109150223D01*
X177568473Y-109119564D01*
X177621236Y-109090253D01*
X177670550Y-109063560D01*
X177714182Y-109040754D01*
X177749899Y-109023107D01*
X177775464Y-109011887D01*
X177788069Y-109008333D01*
X177814234Y-109015049D01*
X177843434Y-109033368D01*
X177844637Y-109034350D01*
X177876200Y-109060366D01*
X177877119Y-109256600D01*
X177877622Y-109315847D01*
X177878521Y-109372357D01*
X177879730Y-109422931D01*
X177881168Y-109464369D01*
X177882752Y-109493473D01*
X177883469Y-109501508D01*
X177888900Y-109550182D01*
X178005317Y-109617079D01*
X178121733Y-109683975D01*
X178121733Y-108909953D01*
X177955207Y-108814501D01*
X177900621Y-108783398D01*
X177858649Y-108760036D01*
X177827342Y-108743509D01*
X177804754Y-108732912D01*
X177788937Y-108727340D01*
X177777945Y-108725888D01*
X177769830Y-108727651D01*
X177769088Y-108727975D01*
X177756517Y-108734611D01*
X177731584Y-108748522D01*
X177696541Y-108768425D01*
X177653638Y-108793036D01*
X177605124Y-108821073D01*
X177567427Y-108842984D01*
X177502704Y-108880225D01*
X177451091Y-108908830D01*
X177411480Y-108929361D01*
X177382762Y-108942382D01*
X177363831Y-108948452D01*
X177358268Y-108949067D01*
X177347205Y-108947742D01*
X177332421Y-108943294D01*
X177312592Y-108935016D01*
X177286389Y-108922198D01*
X177252488Y-108904131D01*
X177209561Y-108880108D01*
X177156282Y-108849419D01*
X177091325Y-108811356D01*
X177013363Y-108765210D01*
X177006496Y-108761130D01*
X176960052Y-108733028D01*
X176918372Y-108706845D01*
X176883760Y-108684106D01*
X176858519Y-108666337D01*
X176844953Y-108655064D01*
X176843512Y-108653193D01*
X176836064Y-108625518D01*
X176836918Y-108592208D01*
X176845746Y-108562195D01*
X176846952Y-108559903D01*
X176858713Y-108548321D01*
X176885009Y-108529381D01*
X176925300Y-108503430D01*
X176979040Y-108470815D01*
X177045689Y-108431882D01*
X177060435Y-108423417D01*
X177262366Y-108307795D01*
X177264690Y-108166520D01*
X177267014Y-108025244D01*
X177230823Y-108046435D01*
X177215651Y-108055260D01*
X177187603Y-108071513D01*
X177148467Y-108094162D01*
X177100033Y-108122170D01*
X177044091Y-108154504D01*
X176982430Y-108190128D01*
X176916840Y-108228009D01*
X176894066Y-108241158D01*
X176593500Y-108414689D01*
X176591381Y-108607795D01*
X176589262Y-108800900D01*
X176788918Y-108914858D01*
X176849704Y-108950063D01*
X176902706Y-108981781D01*
X176946363Y-109009023D01*
X176979116Y-109030801D01*
X176999406Y-109046127D01*
X177004820Y-109051631D01*
X177008151Y-109056886D01*
X177010993Y-109063438D01*
X177013385Y-109072585D01*
X177015366Y-109085626D01*
X177016974Y-109103861D01*
X177018249Y-109128588D01*
X177019227Y-109161106D01*
X177019950Y-109202714D01*
X177020454Y-109254709D01*
X177020779Y-109318392D01*
X177020964Y-109395061D01*
X177021047Y-109486015D01*
X177021066Y-109592552D01*
X177021066Y-109597074D01*
X177021050Y-109704214D01*
X177020975Y-109795730D01*
X177020801Y-109872932D01*
X177020489Y-109937131D01*
X177019999Y-109989636D01*
X177019290Y-110031757D01*
X177018323Y-110064804D01*
X177017059Y-110090087D01*
X177015457Y-110108916D01*
X177013478Y-110122600D01*
X177011082Y-110132450D01*
X177008229Y-110139776D01*
X177004879Y-110145887D01*
X177004364Y-110146726D01*
X176980947Y-110171025D01*
X176949935Y-110185418D01*
X176917353Y-110187638D01*
X176904453Y-110184321D01*
X176889304Y-110177118D01*
X176862208Y-110162786D01*
X176825452Y-110142639D01*
X176781322Y-110117992D01*
X176732107Y-110090162D01*
X176680092Y-110060463D01*
X176627565Y-110030211D01*
X176576813Y-110000722D01*
X176530123Y-109973310D01*
X176489782Y-109949291D01*
X176458077Y-109929981D01*
X176437294Y-109916695D01*
X176430517Y-109911726D01*
X176424345Y-109905585D01*
X176419675Y-109898383D01*
X176416296Y-109887856D01*
X176414001Y-109871740D01*
X176412579Y-109847772D01*
X176411822Y-109813686D01*
X176411521Y-109767220D01*
X176411467Y-109706109D01*
X176411467Y-109705358D01*
X176411196Y-109650860D01*
X176410437Y-109602553D01*
X176409270Y-109562828D01*
X176407777Y-109534078D01*
X176406037Y-109518693D01*
X176405117Y-109516759D01*
X176395962Y-109520951D01*
X176374859Y-109532238D01*
X176344465Y-109549152D01*
X176307438Y-109570221D01*
X176284467Y-109583479D01*
X176170167Y-109649774D01*
X176164946Y-109847637D01*
X176163387Y-109906828D01*
X176161913Y-109963023D01*
X176160603Y-110013108D01*
X176159541Y-110053967D01*
X176158806Y-110082488D01*
X176158596Y-110090787D01*
X176156403Y-110119792D01*
X176149732Y-110139201D01*
X176135732Y-110156273D01*
X176131171Y-110160637D01*
X176098951Y-110180598D01*
X176064050Y-110185647D01*
X176030270Y-110176513D01*
X176001416Y-110153926D01*
X175987454Y-110133069D01*
X175980790Y-110117817D01*
X175976329Y-110100643D01*
X175973740Y-110078097D01*
X175972689Y-110046731D01*
X175972843Y-110003095D01*
X175973118Y-109984454D01*
X175973926Y-109934920D01*
X175974905Y-109874450D01*
X175975957Y-109809042D01*
X175976986Y-109744692D01*
X175977533Y-109710255D01*
X175978507Y-109654825D01*
X175979619Y-109613801D01*
X175981178Y-109584657D01*
X175983495Y-109564868D01*
X175986878Y-109551907D01*
X175991635Y-109543248D01*
X175998077Y-109536365D01*
X175998899Y-109535611D01*
X176010843Y-109527128D01*
X176035495Y-109511461D01*
X176070853Y-109489816D01*
X176114916Y-109463402D01*
X176165682Y-109433425D01*
X176221151Y-109401092D01*
X176239692Y-109390373D01*
X176303475Y-109353688D01*
X176354498Y-109324704D01*
X176394591Y-109302528D01*
X176425584Y-109286266D01*
X176449309Y-109275025D01*
X176467596Y-109267913D01*
X176482276Y-109264037D01*
X176495178Y-109262503D01*
X176502159Y-109262334D01*
X176528666Y-109263855D01*
X176546039Y-109270764D01*
X176561976Y-109286580D01*
X176565983Y-109291515D01*
X176589267Y-109320695D01*
X176589269Y-109556098D01*
X176589271Y-109791500D01*
X176667585Y-109835846D01*
X176706033Y-109857668D01*
X176744497Y-109879584D01*
X176777166Y-109898279D01*
X176790350Y-109905867D01*
X176834800Y-109931543D01*
X176834761Y-109544021D01*
X176834723Y-109156500D01*
X176654845Y-109055672D01*
X176602638Y-109025907D01*
X176553666Y-108997051D01*
X176510459Y-108970667D01*
X176475543Y-108948318D01*
X176451447Y-108931567D01*
X176443217Y-108924837D01*
X176411467Y-108894830D01*
X176411736Y-108606565D01*
X176411930Y-108525968D01*
X176412390Y-108460711D01*
X176413178Y-108409202D01*
X176414358Y-108369849D01*
X176415994Y-108341060D01*
X176418148Y-108321244D01*
X176420883Y-108308808D01*
X176423819Y-108302709D01*
X176433108Y-108295781D01*
X176455784Y-108281219D01*
X176490540Y-108259801D01*
X176536069Y-108232306D01*
X176591064Y-108199513D01*
X176654217Y-108162203D01*
X176724222Y-108121155D01*
X176799770Y-108077147D01*
X176879555Y-108030959D01*
X176881809Y-108029659D01*
X176977426Y-107974497D01*
X177059528Y-107927265D01*
X177129277Y-107887448D01*
X177187836Y-107854535D01*
X177236369Y-107828010D01*
X177276038Y-107807361D01*
X177308007Y-107792075D01*
X177333437Y-107781638D01*
X177353493Y-107775536D01*
X177369337Y-107773256D01*
X177382132Y-107774286D01*
X177393041Y-107778111D01*
X177403227Y-107784217D01*
X177413852Y-107792093D01*
X177416084Y-107793798D01*
X177444400Y-107815395D01*
X177444400Y-108105923D01*
X177444354Y-108184003D01*
X177444154Y-108246940D01*
X177443706Y-108296524D01*
X177442915Y-108334546D01*
X177441687Y-108362796D01*
X177439929Y-108383064D01*
X177437547Y-108397140D01*
X177434446Y-108406815D01*
X177430532Y-108413880D01*
X177428042Y-108417245D01*
X177415576Y-108428117D01*
X177391052Y-108445485D01*
X177357186Y-108467569D01*
X177316694Y-108492592D01*
X177277759Y-108515620D01*
X177234283Y-108540851D01*
X177195417Y-108563495D01*
X177163726Y-108582050D01*
X177141774Y-108595016D01*
X177132392Y-108600713D01*
X177132143Y-108606796D01*
X177143278Y-108617923D01*
X177166569Y-108634609D01*
X177202785Y-108657367D01*
X177252698Y-108686713D01*
X177309241Y-108718774D01*
X177356116Y-108745040D01*
X177554775Y-108631333D01*
X177617725Y-108595565D01*
X177667918Y-108567718D01*
X177707079Y-108546941D01*
X177736935Y-108532381D01*
X177759211Y-108523188D01*
X177775633Y-108518510D01*
X177785652Y-108517446D01*
X177797211Y-108518755D01*
X177812523Y-108523337D01*
X177833175Y-108532001D01*
X177860756Y-108545558D01*
X177896853Y-108564817D01*
X177943052Y-108590589D01*
X178000940Y-108623683D01*
X178054273Y-108654546D01*
X178121100Y-108693516D01*
X178174633Y-108725171D01*
X178216344Y-108750486D01*
X178247707Y-108770434D01*
X178270192Y-108785990D01*
X178285272Y-108798128D01*
X178294420Y-108807821D01*
X178299107Y-108816044D01*
X178299337Y-108816676D01*
X178301299Y-108831014D01*
X178303026Y-108861771D01*
X178304509Y-108908437D01*
X178305742Y-108970499D01*
X178306716Y-109047445D01*
X178307422Y-109138764D01*
X178307853Y-109243943D01*
X178308000Y-109362471D01*
X178308000Y-109885699D01*
X178283921Y-109908767D01*
X178256789Y-109929076D01*
X178228313Y-109937313D01*
X178195406Y-109933464D01*
X178154979Y-109917511D01*
X178136431Y-109907964D01*
X178081005Y-109877621D01*
X178023063Y-109845108D01*
X177964567Y-109811603D01*
X177907481Y-109778282D01*
X177853766Y-109746324D01*
X177805385Y-109716906D01*
X177764301Y-109691206D01*
X177732478Y-109670402D01*
X177711877Y-109655671D01*
X177704722Y-109648928D01*
X177700330Y-109632241D01*
X177696545Y-109598806D01*
X177693382Y-109548800D01*
X177690852Y-109482397D01*
X177690012Y-109450941D01*
X177685700Y-109271248D01*
X177564893Y-109339758D01*
X177444087Y-109408269D01*
X177446360Y-109599885D01*
X177448633Y-109791500D01*
X177641851Y-109902360D01*
X177694818Y-109933087D01*
X177743775Y-109962123D01*
X177786520Y-109988112D01*
X177820851Y-110009697D01*
X177844564Y-110025522D01*
X177854888Y-110033594D01*
X177874708Y-110053967D01*
X177877571Y-110329133D01*
X177878253Y-110410171D01*
X177878414Y-110475857D01*
X177878011Y-110527767D01*
X177877001Y-110567477D01*
X177875341Y-110596560D01*
X177872989Y-110616593D01*
X177869902Y-110629151D01*
X177869379Y-110630473D01*
X177851824Y-110653879D01*
X177824047Y-110673006D01*
X177792760Y-110683724D01*
X177781193Y-110684734D01*
X177769130Y-110680642D01*
X177744621Y-110669124D01*
X177709828Y-110651310D01*
X177666916Y-110628335D01*
X177618048Y-110601329D01*
X177571930Y-110575186D01*
X177519755Y-110545371D01*
X177471877Y-110518210D01*
X177430422Y-110494893D01*
X177397514Y-110476611D01*
X177375280Y-110464554D01*
X177366236Y-110460038D01*
X177351765Y-110461978D01*
X177323682Y-110473683D01*
X177281927Y-110495180D01*
X177237119Y-110520321D01*
X177197968Y-110543163D01*
X177164630Y-110563195D01*
X177139596Y-110578874D01*
X177125360Y-110588656D01*
X177123033Y-110591019D01*
X177130149Y-110595935D01*
X177150154Y-110608205D01*
X177181234Y-110626777D01*
X177221577Y-110650603D01*
X177269369Y-110678633D01*
X177322798Y-110709817D01*
X177380051Y-110743106D01*
X177439314Y-110777449D01*
X177498774Y-110811797D01*
X177556620Y-110845101D01*
X177611037Y-110876310D01*
X177660213Y-110904376D01*
X177702334Y-110928247D01*
X177735588Y-110946875D01*
X177758162Y-110959210D01*
X177765436Y-110962964D01*
X177773629Y-110966338D01*
X177782352Y-110967449D01*
X177793641Y-110965394D01*
X177809528Y-110959267D01*
X177832050Y-110948162D01*
X177863240Y-110931176D01*
X177905133Y-110907402D01*
X177955391Y-110878461D01*
X178121733Y-110782426D01*
X178121768Y-110642563D01*
X178122159Y-110584313D01*
X178123210Y-110521344D01*
X178124773Y-110460224D01*
X178126701Y-110407519D01*
X178127323Y-110394445D01*
X178132844Y-110286190D01*
X178205605Y-110241304D01*
X178234924Y-110223503D01*
X178275536Y-110199247D01*
X178324061Y-110170534D01*
X178377119Y-110139361D01*
X178431331Y-110107726D01*
X178448640Y-110097676D01*
X178509175Y-110062861D01*
X178557238Y-110036262D01*
X178594842Y-110017322D01*
X178623997Y-110005483D01*
X178646716Y-110000188D01*
X178665010Y-110000878D01*
X178680890Y-110006996D01*
X178696369Y-110017985D01*
X178705933Y-110026350D01*
X178735566Y-110053270D01*
X178738530Y-110296076D01*
X178741493Y-110538883D01*
X178851976Y-110601225D01*
X178891148Y-110623249D01*
X178925201Y-110642246D01*
X178951362Y-110656680D01*
X178966859Y-110665017D01*
X178969663Y-110666389D01*
X178971140Y-110658794D01*
X178972514Y-110635933D01*
X178973756Y-110599470D01*
X178974832Y-110551071D01*
X178975713Y-110492403D01*
X178976366Y-110425132D01*
X178976759Y-110350923D01*
X178976867Y-110284872D01*
X178976867Y-109900532D01*
X178774305Y-109783052D01*
X178703929Y-109741732D01*
X178648183Y-109707868D01*
X178606635Y-109681178D01*
X178578852Y-109661383D01*
X178564402Y-109648199D01*
X178562451Y-109645176D01*
X178559160Y-109629663D01*
X178556140Y-109599850D01*
X178553436Y-109558366D01*
X178551094Y-109507843D01*
X178549158Y-109450911D01*
X178547676Y-109390202D01*
X178546692Y-109328346D01*
X178546252Y-109267974D01*
X178546402Y-109211717D01*
X178547187Y-109162205D01*
X178548652Y-109122070D01*
X178550845Y-109093942D01*
X178552708Y-109083248D01*
X178555653Y-109072429D01*
X178558745Y-109063256D01*
X178563429Y-109054709D01*
X178571156Y-109045763D01*
X178583372Y-109035396D01*
X178601525Y-109022586D01*
X178627063Y-109006310D01*
X178661435Y-108985545D01*
X178706087Y-108959269D01*
X178762468Y-108926459D01*
X178831080Y-108886642D01*
X178896589Y-108848804D01*
X178949389Y-108818945D01*
X178991301Y-108796340D01*
X179024142Y-108780266D01*
X179049732Y-108770000D01*
X179069888Y-108764816D01*
X179086430Y-108763991D01*
X179101175Y-108766803D01*
X179115943Y-108772525D01*
X179116803Y-108772915D01*
X179129705Y-108779650D01*
X179139967Y-108788055D01*
X179147890Y-108800005D01*
X179153774Y-108817378D01*
X179157921Y-108842049D01*
X179160629Y-108875895D01*
X179162200Y-108920791D01*
X179162934Y-108978615D01*
X179163131Y-109051241D01*
X179163133Y-109062274D01*
X179163133Y-109294856D01*
X179282560Y-109363261D01*
X179322876Y-109386239D01*
X179357806Y-109405930D01*
X179384824Y-109420927D01*
X179401401Y-109429822D01*
X179405412Y-109431667D01*
X179406066Y-109423480D01*
X179406586Y-109400040D01*
X179406964Y-109363024D01*
X179407197Y-109314111D01*
X179407278Y-109254981D01*
X179407203Y-109187312D01*
X179406966Y-109112784D01*
X179406635Y-109045709D01*
X179404433Y-108659750D01*
X179238737Y-108564338D01*
X179073041Y-108468925D01*
X178870992Y-108586080D01*
X178811034Y-108620760D01*
X178763784Y-108647764D01*
X178727348Y-108667987D01*
X178699833Y-108682325D01*
X178679344Y-108691673D01*
X178663985Y-108696926D01*
X178651863Y-108698981D01*
X178641083Y-108698733D01*
X178634522Y-108697859D01*
X178617059Y-108691931D01*
X178586060Y-108677452D01*
X178541378Y-108654340D01*
X178482863Y-108622515D01*
X178410365Y-108581898D01*
X178323737Y-108532409D01*
X178278367Y-108506216D01*
X178168266Y-108442423D01*
X178072118Y-108386600D01*
X177989179Y-108338308D01*
X177918704Y-108297105D01*
X177859949Y-108262553D01*
X177812169Y-108234211D01*
X177774621Y-108211639D01*
X177746559Y-108194396D01*
X177727241Y-108182044D01*
X177715920Y-108174142D01*
X177713833Y-108172453D01*
X177699205Y-108149931D01*
X177693081Y-108119243D01*
X177696102Y-108087218D01*
X177703998Y-108067670D01*
X177716197Y-108055441D01*
X177741137Y-108036698D01*
X177776572Y-108012740D01*
X177820257Y-107984867D01*
X177869944Y-107954380D01*
X177923388Y-107922578D01*
X177978343Y-107890761D01*
X178032562Y-107860230D01*
X178083800Y-107832284D01*
X178129810Y-107808223D01*
X178168347Y-107789347D01*
X178197163Y-107776957D01*
X178214013Y-107772352D01*
X178214264Y-107772348D01*
X178229725Y-107774888D01*
X178252248Y-107783188D01*
X178283549Y-107798074D01*
X178325346Y-107820373D01*
X178379353Y-107850913D01*
X178389671Y-107856867D01*
X178434528Y-107882683D01*
X178474301Y-107905324D01*
X178506705Y-107923511D01*
X178529455Y-107935962D01*
X178540266Y-107941399D01*
X178540766Y-107941534D01*
X178542215Y-107933539D01*
X178543198Y-107911430D01*
X178543666Y-107878024D01*
X178543570Y-107836135D01*
X178543160Y-107804379D01*
X178540833Y-107667225D01*
X178357037Y-107560962D01*
X178304959Y-107530459D01*
X178256491Y-107501330D01*
X178213996Y-107475053D01*
X178179835Y-107453106D01*
X178156371Y-107436966D01*
X178147487Y-107429833D01*
X178126642Y-107399304D01*
X178121854Y-107364204D01*
X178133272Y-107325770D01*
X178134521Y-107323297D01*
X178152462Y-107298714D01*
X178177114Y-107285405D01*
X178212755Y-107281150D01*
X178215738Y-107281134D01*
X178228039Y-107282149D01*
X178242654Y-107285781D01*
X178261369Y-107292914D01*
X178285970Y-107304428D01*
X178318245Y-107321205D01*
X178359981Y-107344128D01*
X178412963Y-107374077D01*
X178468178Y-107405718D01*
X178524780Y-107438720D01*
X178577856Y-107470503D01*
X178625246Y-107499709D01*
X178664786Y-107524976D01*
X178694316Y-107544947D01*
X178711673Y-107558260D01*
X178713491Y-107560002D01*
X178742215Y-107589700D01*
X178733419Y-108156508D01*
X178706842Y-108180254D01*
X178691465Y-108192806D01*
X178676420Y-108201234D01*
X178659899Y-108204974D01*
X178640096Y-108203463D01*
X178615203Y-108196137D01*
X178583413Y-108182433D01*
X178542917Y-108161788D01*
X178491910Y-108133638D01*
X178428584Y-108097419D01*
X178413856Y-108088911D01*
X178214813Y-107973823D01*
X178174623Y-107996953D01*
X178149811Y-108011292D01*
X178115734Y-108031062D01*
X178077747Y-108053154D01*
X178055115Y-108066342D01*
X177975797Y-108112600D01*
X178050882Y-108156443D01*
X178076493Y-108171325D01*
X178114414Y-108193259D01*
X178162264Y-108220873D01*
X178217663Y-108252796D01*
X178278232Y-108287656D01*
X178341589Y-108324081D01*
X178382373Y-108347507D01*
X178638780Y-108494726D01*
X178670240Y-108479749D01*
X178687415Y-108470855D01*
X178716337Y-108455091D01*
X178754100Y-108434072D01*
X178797798Y-108409419D01*
X178844526Y-108382746D01*
X178845633Y-108382111D01*
X178906782Y-108347040D01*
X178955099Y-108319581D01*
X178992429Y-108298894D01*
X179020615Y-108284141D01*
X179041501Y-108274483D01*
X179056930Y-108269082D01*
X179068746Y-108267099D01*
X179078792Y-108267696D01*
X179088913Y-108270034D01*
X179090865Y-108270570D01*
X179105284Y-108276713D01*
X179132251Y-108290276D01*
X179169692Y-108310137D01*
X179215534Y-108335173D01*
X179267706Y-108364260D01*
X179324135Y-108396276D01*
X179345386Y-108408472D01*
X179416354Y-108449675D01*
X179473359Y-108483583D01*
X179517396Y-108510838D01*
X179549461Y-108532078D01*
X179570549Y-108547945D01*
X179581655Y-108559078D01*
X179583041Y-108561296D01*
X179585555Y-108568589D01*
X179587703Y-108580866D01*
X179589511Y-108599334D01*
X179591005Y-108625200D01*
X179592212Y-108659670D01*
X179593158Y-108703951D01*
X179593869Y-108759250D01*
X179594373Y-108826773D01*
X179594695Y-108907726D01*
X179594862Y-109003317D01*
X179594902Y-109103163D01*
X179594874Y-109210055D01*
X179594874Y-109210055D01*
G37*
X179594874Y-109210055D02*
X179594780Y-109301325D01*
X179594581Y-109378284D01*
X179594240Y-109442242D01*
X179593716Y-109494511D01*
X179592973Y-109536401D01*
X179591972Y-109569224D01*
X179590675Y-109594291D01*
X179589043Y-109612912D01*
X179587038Y-109626399D01*
X179584621Y-109636062D01*
X179581755Y-109643213D01*
X179578970Y-109648242D01*
X179553360Y-109675972D01*
X179520607Y-109690062D01*
X179484557Y-109688969D01*
X179480338Y-109687789D01*
X179464051Y-109680767D01*
X179435909Y-109666474D01*
X179398215Y-109646244D01*
X179353275Y-109621410D01*
X179303394Y-109593305D01*
X179250876Y-109563261D01*
X179198027Y-109532612D01*
X179147152Y-109502691D01*
X179100555Y-109474830D01*
X179060542Y-109450362D01*
X179029417Y-109430621D01*
X179009485Y-109416939D01*
X179003963Y-109412306D01*
X178997887Y-109404936D01*
X178993202Y-109395884D01*
X178989633Y-109382821D01*
X178986904Y-109363415D01*
X178984739Y-109335336D01*
X178982862Y-109296254D01*
X178980996Y-109243837D01*
X178979892Y-109209015D01*
X178978078Y-109155299D01*
X178976196Y-109107776D01*
X178974365Y-109068879D01*
X178972704Y-109041038D01*
X178971334Y-109026687D01*
X178970879Y-109025267D01*
X178962795Y-109029277D01*
X178942651Y-109040342D01*
X178913032Y-109057012D01*
X178876523Y-109077838D01*
X178853846Y-109090883D01*
X178740116Y-109156500D01*
X178739800Y-109546814D01*
X178931614Y-109656127D01*
X178984451Y-109686619D01*
X179033270Y-109715512D01*
X179075851Y-109741435D01*
X179109973Y-109763016D01*
X179133414Y-109778883D01*
X179143281Y-109786850D01*
X179163133Y-109808260D01*
X179163133Y-110876145D01*
X179135213Y-110903206D01*
X179121387Y-110915806D01*
X179108113Y-110924833D01*
X179093731Y-110929741D01*
X179076583Y-110929984D01*
X179055008Y-110925015D01*
X179027346Y-110914289D01*
X178991939Y-110897259D01*
X178947128Y-110873378D01*
X178891251Y-110842102D01*
X178822651Y-110802883D01*
X178812266Y-110796917D01*
X178740727Y-110755480D01*
X178683021Y-110721294D01*
X178638034Y-110693646D01*
X178604657Y-110671824D01*
X178581778Y-110655115D01*
X178568284Y-110642805D01*
X178564765Y-110638167D01*
X178559390Y-110627296D01*
X178555229Y-110612977D01*
X178552045Y-110592779D01*
X178549599Y-110564271D01*
X178547652Y-110525023D01*
X178545965Y-110472603D01*
X178545066Y-110437450D01*
X178540833Y-110262132D01*
X178424417Y-110330318D01*
X178308000Y-110398504D01*
X178306923Y-110552202D01*
X178306239Y-110610142D01*
X178305051Y-110670283D01*
X178303496Y-110727317D01*
X178301709Y-110775938D01*
X178300573Y-110799033D01*
X178295300Y-110892167D01*
X178248733Y-110922919D01*
X178228494Y-110935723D01*
X178196213Y-110955461D01*
X178154497Y-110980571D01*
X178105952Y-111009489D01*
X178053186Y-111040655D01*
X178012116Y-111064736D01*
X177952585Y-111099327D01*
X177905584Y-111126080D01*
X177869169Y-111145950D01*
X177841399Y-111159891D01*
X177820332Y-111168858D01*
X177804026Y-111173805D01*
X177790539Y-111175688D01*
X177786200Y-111175800D01*
X177777328Y-111175035D01*
X177766218Y-111172323D01*
X177751709Y-111167046D01*
X177732640Y-111158581D01*
X177707851Y-111146307D01*
X177676181Y-111129602D01*
X177636470Y-111107847D01*
X177587558Y-111080420D01*
X177528283Y-111046699D01*
X177457486Y-111006064D01*
X177374005Y-110957893D01*
X177311617Y-110921799D01*
X177229323Y-110873951D01*
X177151941Y-110828564D01*
X177080729Y-110786399D01*
X177016945Y-110748220D01*
X176961845Y-110714787D01*
X176916688Y-110686862D01*
X176882732Y-110665207D01*
X176861233Y-110650585D01*
X176853892Y-110644515D01*
X176838092Y-110612645D01*
X176836309Y-110576289D01*
X176848658Y-110541120D01*
X176859071Y-110530173D01*
X176880977Y-110513632D01*
X176915089Y-110491042D01*
X176962118Y-110461949D01*
X177022776Y-110425900D01*
X177092800Y-110385297D01*
X177159241Y-110347278D01*
X177212817Y-110317077D01*
X177255210Y-110293855D01*
X177288105Y-110276768D01*
X177313187Y-110264974D01*
X177332140Y-110257633D01*
X177346648Y-110253902D01*
X177357608Y-110252934D01*
X177373666Y-110254515D01*
X177392719Y-110260029D01*
X177417310Y-110270631D01*
X177449983Y-110287477D01*
X177493278Y-110311723D01*
X177516675Y-110325221D01*
X177559787Y-110350156D01*
X177599459Y-110372935D01*
X177632660Y-110391832D01*
X177656356Y-110405117D01*
X177665575Y-110410105D01*
X177689933Y-110422702D01*
X177689671Y-110147100D01*
X177497185Y-110037034D01*
X177444343Y-110006465D01*
X177395562Y-109977580D01*
X177353044Y-109951734D01*
X177318988Y-109930283D01*
X177295595Y-109914584D01*
X177285650Y-109906681D01*
X177280506Y-109900894D01*
X177276385Y-109894455D01*
X177273176Y-109885555D01*
X177270769Y-109872388D01*
X177269052Y-109853145D01*
X177267915Y-109826020D01*
X177267247Y-109789205D01*
X177266936Y-109740892D01*
X177266871Y-109679276D01*
X177266943Y-109602547D01*
X177266944Y-109601881D01*
X177267288Y-109317367D01*
X177290227Y-109291362D01*
X177304579Y-109279286D01*
X177331120Y-109260938D01*
X177367616Y-109237588D01*
X177411833Y-109210505D01*
X177461538Y-109180960D01*
X177514496Y-109150223D01*
X177568473Y-109119564D01*
X177621236Y-109090253D01*
X177670550Y-109063560D01*
X177714182Y-109040754D01*
X177749899Y-109023107D01*
X177775464Y-109011887D01*
X177788069Y-109008333D01*
X177814234Y-109015049D01*
X177843434Y-109033368D01*
X177844637Y-109034350D01*
X177876200Y-109060366D01*
X177877119Y-109256600D01*
X177877622Y-109315847D01*
X177878521Y-109372357D01*
X177879730Y-109422931D01*
X177881168Y-109464369D01*
X177882752Y-109493473D01*
X177883469Y-109501508D01*
X177888900Y-109550182D01*
X178005317Y-109617079D01*
X178121733Y-109683975D01*
X178121733Y-108909953D01*
X177955207Y-108814501D01*
X177900621Y-108783398D01*
X177858649Y-108760036D01*
X177827342Y-108743509D01*
X177804754Y-108732912D01*
X177788937Y-108727340D01*
X177777945Y-108725888D01*
X177769830Y-108727651D01*
X177769088Y-108727975D01*
X177756517Y-108734611D01*
X177731584Y-108748522D01*
X177696541Y-108768425D01*
X177653638Y-108793036D01*
X177605124Y-108821073D01*
X177567427Y-108842984D01*
X177502704Y-108880225D01*
X177451091Y-108908830D01*
X177411480Y-108929361D01*
X177382762Y-108942382D01*
X177363831Y-108948452D01*
X177358268Y-108949067D01*
X177347205Y-108947742D01*
X177332421Y-108943294D01*
X177312592Y-108935016D01*
X177286389Y-108922198D01*
X177252488Y-108904131D01*
X177209561Y-108880108D01*
X177156282Y-108849419D01*
X177091325Y-108811356D01*
X177013363Y-108765210D01*
X177006496Y-108761130D01*
X176960052Y-108733028D01*
X176918372Y-108706845D01*
X176883760Y-108684106D01*
X176858519Y-108666337D01*
X176844953Y-108655064D01*
X176843512Y-108653193D01*
X176836064Y-108625518D01*
X176836918Y-108592208D01*
X176845746Y-108562195D01*
X176846952Y-108559903D01*
X176858713Y-108548321D01*
X176885009Y-108529381D01*
X176925300Y-108503430D01*
X176979040Y-108470815D01*
X177045689Y-108431882D01*
X177060435Y-108423417D01*
X177262366Y-108307795D01*
X177264690Y-108166520D01*
X177267014Y-108025244D01*
X177230823Y-108046435D01*
X177215651Y-108055260D01*
X177187603Y-108071513D01*
X177148467Y-108094162D01*
X177100033Y-108122170D01*
X177044091Y-108154504D01*
X176982430Y-108190128D01*
X176916840Y-108228009D01*
X176894066Y-108241158D01*
X176593500Y-108414689D01*
X176591381Y-108607795D01*
X176589262Y-108800900D01*
X176788918Y-108914858D01*
X176849704Y-108950063D01*
X176902706Y-108981781D01*
X176946363Y-109009023D01*
X176979116Y-109030801D01*
X176999406Y-109046127D01*
X177004820Y-109051631D01*
X177008151Y-109056886D01*
X177010993Y-109063438D01*
X177013385Y-109072585D01*
X177015366Y-109085626D01*
X177016974Y-109103861D01*
X177018249Y-109128588D01*
X177019227Y-109161106D01*
X177019950Y-109202714D01*
X177020454Y-109254709D01*
X177020779Y-109318392D01*
X177020964Y-109395061D01*
X177021047Y-109486015D01*
X177021066Y-109592552D01*
X177021066Y-109597074D01*
X177021050Y-109704214D01*
X177020975Y-109795730D01*
X177020801Y-109872932D01*
X177020489Y-109937131D01*
X177019999Y-109989636D01*
X177019290Y-110031757D01*
X177018323Y-110064804D01*
X177017059Y-110090087D01*
X177015457Y-110108916D01*
X177013478Y-110122600D01*
X177011082Y-110132450D01*
X177008229Y-110139776D01*
X177004879Y-110145887D01*
X177004364Y-110146726D01*
X176980947Y-110171025D01*
X176949935Y-110185418D01*
X176917353Y-110187638D01*
X176904453Y-110184321D01*
X176889304Y-110177118D01*
X176862208Y-110162786D01*
X176825452Y-110142639D01*
X176781322Y-110117992D01*
X176732107Y-110090162D01*
X176680092Y-110060463D01*
X176627565Y-110030211D01*
X176576813Y-110000722D01*
X176530123Y-109973310D01*
X176489782Y-109949291D01*
X176458077Y-109929981D01*
X176437294Y-109916695D01*
X176430517Y-109911726D01*
X176424345Y-109905585D01*
X176419675Y-109898383D01*
X176416296Y-109887856D01*
X176414001Y-109871740D01*
X176412579Y-109847772D01*
X176411822Y-109813686D01*
X176411521Y-109767220D01*
X176411467Y-109706109D01*
X176411467Y-109705358D01*
X176411196Y-109650860D01*
X176410437Y-109602553D01*
X176409270Y-109562828D01*
X176407777Y-109534078D01*
X176406037Y-109518693D01*
X176405117Y-109516759D01*
X176395962Y-109520951D01*
X176374859Y-109532238D01*
X176344465Y-109549152D01*
X176307438Y-109570221D01*
X176284467Y-109583479D01*
X176170167Y-109649774D01*
X176164946Y-109847637D01*
X176163387Y-109906828D01*
X176161913Y-109963023D01*
X176160603Y-110013108D01*
X176159541Y-110053967D01*
X176158806Y-110082488D01*
X176158596Y-110090787D01*
X176156403Y-110119792D01*
X176149732Y-110139201D01*
X176135732Y-110156273D01*
X176131171Y-110160637D01*
X176098951Y-110180598D01*
X176064050Y-110185647D01*
X176030270Y-110176513D01*
X176001416Y-110153926D01*
X175987454Y-110133069D01*
X175980790Y-110117817D01*
X175976329Y-110100643D01*
X175973740Y-110078097D01*
X175972689Y-110046731D01*
X175972843Y-110003095D01*
X175973118Y-109984454D01*
X175973926Y-109934920D01*
X175974905Y-109874450D01*
X175975957Y-109809042D01*
X175976986Y-109744692D01*
X175977533Y-109710255D01*
X175978507Y-109654825D01*
X175979619Y-109613801D01*
X175981178Y-109584657D01*
X175983495Y-109564868D01*
X175986878Y-109551907D01*
X175991635Y-109543248D01*
X175998077Y-109536365D01*
X175998899Y-109535611D01*
X176010843Y-109527128D01*
X176035495Y-109511461D01*
X176070853Y-109489816D01*
X176114916Y-109463402D01*
X176165682Y-109433425D01*
X176221151Y-109401092D01*
X176239692Y-109390373D01*
X176303475Y-109353688D01*
X176354498Y-109324704D01*
X176394591Y-109302528D01*
X176425584Y-109286266D01*
X176449309Y-109275025D01*
X176467596Y-109267913D01*
X176482276Y-109264037D01*
X176495178Y-109262503D01*
X176502159Y-109262334D01*
X176528666Y-109263855D01*
X176546039Y-109270764D01*
X176561976Y-109286580D01*
X176565983Y-109291515D01*
X176589267Y-109320695D01*
X176589269Y-109556098D01*
X176589271Y-109791500D01*
X176667585Y-109835846D01*
X176706033Y-109857668D01*
X176744497Y-109879584D01*
X176777166Y-109898279D01*
X176790350Y-109905867D01*
X176834800Y-109931543D01*
X176834761Y-109544021D01*
X176834723Y-109156500D01*
X176654845Y-109055672D01*
X176602638Y-109025907D01*
X176553666Y-108997051D01*
X176510459Y-108970667D01*
X176475543Y-108948318D01*
X176451447Y-108931567D01*
X176443217Y-108924837D01*
X176411467Y-108894830D01*
X176411736Y-108606565D01*
X176411930Y-108525968D01*
X176412390Y-108460711D01*
X176413178Y-108409202D01*
X176414358Y-108369849D01*
X176415994Y-108341060D01*
X176418148Y-108321244D01*
X176420883Y-108308808D01*
X176423819Y-108302709D01*
X176433108Y-108295781D01*
X176455784Y-108281219D01*
X176490540Y-108259801D01*
X176536069Y-108232306D01*
X176591064Y-108199513D01*
X176654217Y-108162203D01*
X176724222Y-108121155D01*
X176799770Y-108077147D01*
X176879555Y-108030959D01*
X176881809Y-108029659D01*
X176977426Y-107974497D01*
X177059528Y-107927265D01*
X177129277Y-107887448D01*
X177187836Y-107854535D01*
X177236369Y-107828010D01*
X177276038Y-107807361D01*
X177308007Y-107792075D01*
X177333437Y-107781638D01*
X177353493Y-107775536D01*
X177369337Y-107773256D01*
X177382132Y-107774286D01*
X177393041Y-107778111D01*
X177403227Y-107784217D01*
X177413852Y-107792093D01*
X177416084Y-107793798D01*
X177444400Y-107815395D01*
X177444400Y-108105923D01*
X177444354Y-108184003D01*
X177444154Y-108246940D01*
X177443706Y-108296524D01*
X177442915Y-108334546D01*
X177441687Y-108362796D01*
X177439929Y-108383064D01*
X177437547Y-108397140D01*
X177434446Y-108406815D01*
X177430532Y-108413880D01*
X177428042Y-108417245D01*
X177415576Y-108428117D01*
X177391052Y-108445485D01*
X177357186Y-108467569D01*
X177316694Y-108492592D01*
X177277759Y-108515620D01*
X177234283Y-108540851D01*
X177195417Y-108563495D01*
X177163726Y-108582050D01*
X177141774Y-108595016D01*
X177132392Y-108600713D01*
X177132143Y-108606796D01*
X177143278Y-108617923D01*
X177166569Y-108634609D01*
X177202785Y-108657367D01*
X177252698Y-108686713D01*
X177309241Y-108718774D01*
X177356116Y-108745040D01*
X177554775Y-108631333D01*
X177617725Y-108595565D01*
X177667918Y-108567718D01*
X177707079Y-108546941D01*
X177736935Y-108532381D01*
X177759211Y-108523188D01*
X177775633Y-108518510D01*
X177785652Y-108517446D01*
X177797211Y-108518755D01*
X177812523Y-108523337D01*
X177833175Y-108532001D01*
X177860756Y-108545558D01*
X177896853Y-108564817D01*
X177943052Y-108590589D01*
X178000940Y-108623683D01*
X178054273Y-108654546D01*
X178121100Y-108693516D01*
X178174633Y-108725171D01*
X178216344Y-108750486D01*
X178247707Y-108770434D01*
X178270192Y-108785990D01*
X178285272Y-108798128D01*
X178294420Y-108807821D01*
X178299107Y-108816044D01*
X178299337Y-108816676D01*
X178301299Y-108831014D01*
X178303026Y-108861771D01*
X178304509Y-108908437D01*
X178305742Y-108970499D01*
X178306716Y-109047445D01*
X178307422Y-109138764D01*
X178307853Y-109243943D01*
X178308000Y-109362471D01*
X178308000Y-109885699D01*
X178283921Y-109908767D01*
X178256789Y-109929076D01*
X178228313Y-109937313D01*
X178195406Y-109933464D01*
X178154979Y-109917511D01*
X178136431Y-109907964D01*
X178081005Y-109877621D01*
X178023063Y-109845108D01*
X177964567Y-109811603D01*
X177907481Y-109778282D01*
X177853766Y-109746324D01*
X177805385Y-109716906D01*
X177764301Y-109691206D01*
X177732478Y-109670402D01*
X177711877Y-109655671D01*
X177704722Y-109648928D01*
X177700330Y-109632241D01*
X177696545Y-109598806D01*
X177693382Y-109548800D01*
X177690852Y-109482397D01*
X177690012Y-109450941D01*
X177685700Y-109271248D01*
X177564893Y-109339758D01*
X177444087Y-109408269D01*
X177446360Y-109599885D01*
X177448633Y-109791500D01*
X177641851Y-109902360D01*
X177694818Y-109933087D01*
X177743775Y-109962123D01*
X177786520Y-109988112D01*
X177820851Y-110009697D01*
X177844564Y-110025522D01*
X177854888Y-110033594D01*
X177874708Y-110053967D01*
X177877571Y-110329133D01*
X177878253Y-110410171D01*
X177878414Y-110475857D01*
X177878011Y-110527767D01*
X177877001Y-110567477D01*
X177875341Y-110596560D01*
X177872989Y-110616593D01*
X177869902Y-110629151D01*
X177869379Y-110630473D01*
X177851824Y-110653879D01*
X177824047Y-110673006D01*
X177792760Y-110683724D01*
X177781193Y-110684734D01*
X177769130Y-110680642D01*
X177744621Y-110669124D01*
X177709828Y-110651310D01*
X177666916Y-110628335D01*
X177618048Y-110601329D01*
X177571930Y-110575186D01*
X177519755Y-110545371D01*
X177471877Y-110518210D01*
X177430422Y-110494893D01*
X177397514Y-110476611D01*
X177375280Y-110464554D01*
X177366236Y-110460038D01*
X177351765Y-110461978D01*
X177323682Y-110473683D01*
X177281927Y-110495180D01*
X177237119Y-110520321D01*
X177197968Y-110543163D01*
X177164630Y-110563195D01*
X177139596Y-110578874D01*
X177125360Y-110588656D01*
X177123033Y-110591019D01*
X177130149Y-110595935D01*
X177150154Y-110608205D01*
X177181234Y-110626777D01*
X177221577Y-110650603D01*
X177269369Y-110678633D01*
X177322798Y-110709817D01*
X177380051Y-110743106D01*
X177439314Y-110777449D01*
X177498774Y-110811797D01*
X177556620Y-110845101D01*
X177611037Y-110876310D01*
X177660213Y-110904376D01*
X177702334Y-110928247D01*
X177735588Y-110946875D01*
X177758162Y-110959210D01*
X177765436Y-110962964D01*
X177773629Y-110966338D01*
X177782352Y-110967449D01*
X177793641Y-110965394D01*
X177809528Y-110959267D01*
X177832050Y-110948162D01*
X177863240Y-110931176D01*
X177905133Y-110907402D01*
X177955391Y-110878461D01*
X178121733Y-110782426D01*
X178121768Y-110642563D01*
X178122159Y-110584313D01*
X178123210Y-110521344D01*
X178124773Y-110460224D01*
X178126701Y-110407519D01*
X178127323Y-110394445D01*
X178132844Y-110286190D01*
X178205605Y-110241304D01*
X178234924Y-110223503D01*
X178275536Y-110199247D01*
X178324061Y-110170534D01*
X178377119Y-110139361D01*
X178431331Y-110107726D01*
X178448640Y-110097676D01*
X178509175Y-110062861D01*
X178557238Y-110036262D01*
X178594842Y-110017322D01*
X178623997Y-110005483D01*
X178646716Y-110000188D01*
X178665010Y-110000878D01*
X178680890Y-110006996D01*
X178696369Y-110017985D01*
X178705933Y-110026350D01*
X178735566Y-110053270D01*
X178738530Y-110296076D01*
X178741493Y-110538883D01*
X178851976Y-110601225D01*
X178891148Y-110623249D01*
X178925201Y-110642246D01*
X178951362Y-110656680D01*
X178966859Y-110665017D01*
X178969663Y-110666389D01*
X178971140Y-110658794D01*
X178972514Y-110635933D01*
X178973756Y-110599470D01*
X178974832Y-110551071D01*
X178975713Y-110492403D01*
X178976366Y-110425132D01*
X178976759Y-110350923D01*
X178976867Y-110284872D01*
X178976867Y-109900532D01*
X178774305Y-109783052D01*
X178703929Y-109741732D01*
X178648183Y-109707868D01*
X178606635Y-109681178D01*
X178578852Y-109661383D01*
X178564402Y-109648199D01*
X178562451Y-109645176D01*
X178559160Y-109629663D01*
X178556140Y-109599850D01*
X178553436Y-109558366D01*
X178551094Y-109507843D01*
X178549158Y-109450911D01*
X178547676Y-109390202D01*
X178546692Y-109328346D01*
X178546252Y-109267974D01*
X178546402Y-109211717D01*
X178547187Y-109162205D01*
X178548652Y-109122070D01*
X178550845Y-109093942D01*
X178552708Y-109083248D01*
X178555653Y-109072429D01*
X178558745Y-109063256D01*
X178563429Y-109054709D01*
X178571156Y-109045763D01*
X178583372Y-109035396D01*
X178601525Y-109022586D01*
X178627063Y-109006310D01*
X178661435Y-108985545D01*
X178706087Y-108959269D01*
X178762468Y-108926459D01*
X178831080Y-108886642D01*
X178896589Y-108848804D01*
X178949389Y-108818945D01*
X178991301Y-108796340D01*
X179024142Y-108780266D01*
X179049732Y-108770000D01*
X179069888Y-108764816D01*
X179086430Y-108763991D01*
X179101175Y-108766803D01*
X179115943Y-108772525D01*
X179116803Y-108772915D01*
X179129705Y-108779650D01*
X179139967Y-108788055D01*
X179147890Y-108800005D01*
X179153774Y-108817378D01*
X179157921Y-108842049D01*
X179160629Y-108875895D01*
X179162200Y-108920791D01*
X179162934Y-108978615D01*
X179163131Y-109051241D01*
X179163133Y-109062274D01*
X179163133Y-109294856D01*
X179282560Y-109363261D01*
X179322876Y-109386239D01*
X179357806Y-109405930D01*
X179384824Y-109420927D01*
X179401401Y-109429822D01*
X179405412Y-109431667D01*
X179406066Y-109423480D01*
X179406586Y-109400040D01*
X179406964Y-109363024D01*
X179407197Y-109314111D01*
X179407278Y-109254981D01*
X179407203Y-109187312D01*
X179406966Y-109112784D01*
X179406635Y-109045709D01*
X179404433Y-108659750D01*
X179238737Y-108564338D01*
X179073041Y-108468925D01*
X178870992Y-108586080D01*
X178811034Y-108620760D01*
X178763784Y-108647764D01*
X178727348Y-108667987D01*
X178699833Y-108682325D01*
X178679344Y-108691673D01*
X178663985Y-108696926D01*
X178651863Y-108698981D01*
X178641083Y-108698733D01*
X178634522Y-108697859D01*
X178617059Y-108691931D01*
X178586060Y-108677452D01*
X178541378Y-108654340D01*
X178482863Y-108622515D01*
X178410365Y-108581898D01*
X178323737Y-108532409D01*
X178278367Y-108506216D01*
X178168266Y-108442423D01*
X178072118Y-108386600D01*
X177989179Y-108338308D01*
X177918704Y-108297105D01*
X177859949Y-108262553D01*
X177812169Y-108234211D01*
X177774621Y-108211639D01*
X177746559Y-108194396D01*
X177727241Y-108182044D01*
X177715920Y-108174142D01*
X177713833Y-108172453D01*
X177699205Y-108149931D01*
X177693081Y-108119243D01*
X177696102Y-108087218D01*
X177703998Y-108067670D01*
X177716197Y-108055441D01*
X177741137Y-108036698D01*
X177776572Y-108012740D01*
X177820257Y-107984867D01*
X177869944Y-107954380D01*
X177923388Y-107922578D01*
X177978343Y-107890761D01*
X178032562Y-107860230D01*
X178083800Y-107832284D01*
X178129810Y-107808223D01*
X178168347Y-107789347D01*
X178197163Y-107776957D01*
X178214013Y-107772352D01*
X178214264Y-107772348D01*
X178229725Y-107774888D01*
X178252248Y-107783188D01*
X178283549Y-107798074D01*
X178325346Y-107820373D01*
X178379353Y-107850913D01*
X178389671Y-107856867D01*
X178434528Y-107882683D01*
X178474301Y-107905324D01*
X178506705Y-107923511D01*
X178529455Y-107935962D01*
X178540266Y-107941399D01*
X178540766Y-107941534D01*
X178542215Y-107933539D01*
X178543198Y-107911430D01*
X178543666Y-107878024D01*
X178543570Y-107836135D01*
X178543160Y-107804379D01*
X178540833Y-107667225D01*
X178357037Y-107560962D01*
X178304959Y-107530459D01*
X178256491Y-107501330D01*
X178213996Y-107475053D01*
X178179835Y-107453106D01*
X178156371Y-107436966D01*
X178147487Y-107429833D01*
X178126642Y-107399304D01*
X178121854Y-107364204D01*
X178133272Y-107325770D01*
X178134521Y-107323297D01*
X178152462Y-107298714D01*
X178177114Y-107285405D01*
X178212755Y-107281150D01*
X178215738Y-107281134D01*
X178228039Y-107282149D01*
X178242654Y-107285781D01*
X178261369Y-107292914D01*
X178285970Y-107304428D01*
X178318245Y-107321205D01*
X178359981Y-107344128D01*
X178412963Y-107374077D01*
X178468178Y-107405718D01*
X178524780Y-107438720D01*
X178577856Y-107470503D01*
X178625246Y-107499709D01*
X178664786Y-107524976D01*
X178694316Y-107544947D01*
X178711673Y-107558260D01*
X178713491Y-107560002D01*
X178742215Y-107589700D01*
X178733419Y-108156508D01*
X178706842Y-108180254D01*
X178691465Y-108192806D01*
X178676420Y-108201234D01*
X178659899Y-108204974D01*
X178640096Y-108203463D01*
X178615203Y-108196137D01*
X178583413Y-108182433D01*
X178542917Y-108161788D01*
X178491910Y-108133638D01*
X178428584Y-108097419D01*
X178413856Y-108088911D01*
X178214813Y-107973823D01*
X178174623Y-107996953D01*
X178149811Y-108011292D01*
X178115734Y-108031062D01*
X178077747Y-108053154D01*
X178055115Y-108066342D01*
X177975797Y-108112600D01*
X178050882Y-108156443D01*
X178076493Y-108171325D01*
X178114414Y-108193259D01*
X178162264Y-108220873D01*
X178217663Y-108252796D01*
X178278232Y-108287656D01*
X178341589Y-108324081D01*
X178382373Y-108347507D01*
X178638780Y-108494726D01*
X178670240Y-108479749D01*
X178687415Y-108470855D01*
X178716337Y-108455091D01*
X178754100Y-108434072D01*
X178797798Y-108409419D01*
X178844526Y-108382746D01*
X178845633Y-108382111D01*
X178906782Y-108347040D01*
X178955099Y-108319581D01*
X178992429Y-108298894D01*
X179020615Y-108284141D01*
X179041501Y-108274483D01*
X179056930Y-108269082D01*
X179068746Y-108267099D01*
X179078792Y-108267696D01*
X179088913Y-108270034D01*
X179090865Y-108270570D01*
X179105284Y-108276713D01*
X179132251Y-108290276D01*
X179169692Y-108310137D01*
X179215534Y-108335173D01*
X179267706Y-108364260D01*
X179324135Y-108396276D01*
X179345386Y-108408472D01*
X179416354Y-108449675D01*
X179473359Y-108483583D01*
X179517396Y-108510838D01*
X179549461Y-108532078D01*
X179570549Y-108547945D01*
X179581655Y-108559078D01*
X179583041Y-108561296D01*
X179585555Y-108568589D01*
X179587703Y-108580866D01*
X179589511Y-108599334D01*
X179591005Y-108625200D01*
X179592212Y-108659670D01*
X179593158Y-108703951D01*
X179593869Y-108759250D01*
X179594373Y-108826773D01*
X179594695Y-108907726D01*
X179594862Y-109003317D01*
X179594902Y-109103163D01*
X179594874Y-109210055D01*
D13*
X175200000Y-106105000D02*
X177860000Y-106105000D01*
X175200000Y-98425000D02*
X175200000Y-106105000D01*
X177860000Y-98425000D02*
X177860000Y-106105000D01*
X175200000Y-98425000D02*
X177860000Y-98425000D01*
X175200000Y-97155000D02*
X175200000Y-95825000D01*
X175200000Y-95825000D02*
X176530000Y-95825000D01*
X159960000Y-103565000D02*
X162620000Y-103565000D01*
X159960000Y-98425000D02*
X159960000Y-103565000D01*
X162620000Y-98425000D02*
X162620000Y-103565000D01*
X159960000Y-98425000D02*
X162620000Y-98425000D01*
X159960000Y-97155000D02*
X159960000Y-95825000D01*
X159960000Y-95825000D02*
X161290000Y-95825000D01*
X154880000Y-103565000D02*
X157540000Y-103565000D01*
X154880000Y-98425000D02*
X154880000Y-103565000D01*
X157540000Y-98425000D02*
X157540000Y-103565000D01*
X154880000Y-98425000D02*
X157540000Y-98425000D01*
X154880000Y-97155000D02*
X154880000Y-95825000D01*
X154880000Y-95825000D02*
X156210000Y-95825000D01*
X170120000Y-106105000D02*
X172780000Y-106105000D01*
X170120000Y-98425000D02*
X170120000Y-106105000D01*
X172780000Y-98425000D02*
X172780000Y-106105000D01*
X170120000Y-98425000D02*
X172780000Y-98425000D01*
X170120000Y-97155000D02*
X170120000Y-95825000D01*
X170120000Y-95825000D02*
X171450000Y-95825000D01*
X165040000Y-106105000D02*
X167700000Y-106105000D01*
X165040000Y-98425000D02*
X165040000Y-106105000D01*
X167700000Y-98425000D02*
X167700000Y-106105000D01*
X165040000Y-98425000D02*
X167700000Y-98425000D01*
X165040000Y-97155000D02*
X165040000Y-95825000D01*
X165040000Y-95825000D02*
X166370000Y-95825000D01*
X144720000Y-103565000D02*
X147380000Y-103565000D01*
X144720000Y-98425000D02*
X144720000Y-103565000D01*
X147380000Y-98425000D02*
X147380000Y-103565000D01*
X144720000Y-98425000D02*
X147380000Y-98425000D01*
X144720000Y-97155000D02*
X144720000Y-95825000D01*
X144720000Y-95825000D02*
X146050000Y-95825000D01*
X149800000Y-103565000D02*
X152460000Y-103565000D01*
X149800000Y-98425000D02*
X149800000Y-103565000D01*
X152460000Y-98425000D02*
X152460000Y-103565000D01*
X149800000Y-98425000D02*
X152460000Y-98425000D01*
X149800000Y-97155000D02*
X149800000Y-95825000D01*
X149800000Y-95825000D02*
X151130000Y-95825000D01*
X161350000Y-110550000D02*
X161350000Y-105350000D01*
X156210000Y-110550000D02*
X161350000Y-110550000D01*
X153610000Y-105350000D02*
X161350000Y-105350000D01*
X156210000Y-110550000D02*
X156210000Y-107950000D01*
X156210000Y-107950000D02*
X153610000Y-107950000D01*
X153610000Y-107950000D02*
X153610000Y-105350000D01*
X154940000Y-110550000D02*
X153610000Y-110550000D01*
X153610000Y-110550000D02*
X153610000Y-109220000D01*
X175320000Y-116900000D02*
X175320000Y-111700000D01*
X154940000Y-116900000D02*
X175320000Y-116900000D01*
X152340000Y-111700000D02*
X175320000Y-111700000D01*
X154940000Y-116900000D02*
X154940000Y-114300000D01*
X154940000Y-114300000D02*
X152340000Y-114300000D01*
X152340000Y-114300000D02*
X152340000Y-111700000D01*
X153670000Y-116900000D02*
X152340000Y-116900000D01*
X152340000Y-116900000D02*
X152340000Y-115570000D01*
M02*
