M48
INCH,TZ
T1C0.016
T2C0.039
%
G90
G05
T1
X65000Y-46000
T2
X59250Y-38250
X59250Y-49750
X60000Y-41500
X60000Y-46000
X60250Y-38250
X60250Y-49750
X60984Y-41500
X60984Y-46000
X61250Y-38250
X61250Y-49750
X61969Y-41500
X61969Y-46000
X62250Y-38250
X62250Y-49750
X62953Y-41500
X62953Y-46000
X63250Y-38250
X63250Y-49750
X64250Y-38250
X64250Y-49750
X65250Y-38250
X65250Y-49750
X66250Y-38250
X66250Y-49750
T0
M30
