G04 #@! TF.FileFunction,Copper,L2,Bot,Signal*
%FSLAX46Y46*%
G04 Gerber Fmt 4.6, Leading zero omitted, Abs format (unit mm)*
G04 Created by KiCad (PCBNEW 4.0.7-e2-6376~60~ubuntu17.10.1) date Wed Nov 29 12:47:57 2017*
%MOMM*%
%LPD*%
G01*
G04 APERTURE LIST*
%ADD10C,0.100000*%
%ADD11R,1.700000X1.700000*%
%ADD12O,1.700000X1.700000*%
%ADD13C,0.250000*%
%ADD14C,0.254000*%
G04 APERTURE END LIST*
D10*
D11*
X148590000Y-91440000D03*
D12*
X151130000Y-91440000D03*
X153670000Y-91440000D03*
X156210000Y-91440000D03*
X158750000Y-91440000D03*
X161290000Y-91440000D03*
X163830000Y-91440000D03*
X166370000Y-91440000D03*
X168910000Y-91440000D03*
X171450000Y-91440000D03*
X173990000Y-91440000D03*
X176530000Y-91440000D03*
D11*
X176530000Y-120650000D03*
D12*
X173990000Y-120650000D03*
X171450000Y-120650000D03*
X168910000Y-120650000D03*
X166370000Y-120650000D03*
X163830000Y-120650000D03*
X161290000Y-120650000D03*
X158750000Y-120650000D03*
X156210000Y-120650000D03*
X153670000Y-120650000D03*
X151130000Y-120650000D03*
X148590000Y-120650000D03*
D11*
X176530000Y-97155000D03*
D12*
X176530000Y-99695000D03*
X176530000Y-102235000D03*
X176530000Y-104775000D03*
D11*
X161290000Y-97155000D03*
D12*
X161290000Y-99695000D03*
X161290000Y-102235000D03*
D11*
X156210000Y-97155000D03*
D12*
X156210000Y-99695000D03*
X156210000Y-102235000D03*
D11*
X171450000Y-97155000D03*
D12*
X171450000Y-99695000D03*
X171450000Y-102235000D03*
X171450000Y-104775000D03*
D11*
X166370000Y-97155000D03*
D12*
X166370000Y-99695000D03*
X166370000Y-102235000D03*
X166370000Y-104775000D03*
D11*
X146050000Y-97155000D03*
D12*
X146050000Y-99695000D03*
X146050000Y-102235000D03*
D11*
X151130000Y-97155000D03*
D12*
X151130000Y-99695000D03*
X151130000Y-102235000D03*
D11*
X154940000Y-109220000D03*
D12*
X154940000Y-106680000D03*
X157480000Y-109220000D03*
X157480000Y-106680000D03*
X160020000Y-109220000D03*
X160020000Y-106680000D03*
D11*
X153670000Y-115570000D03*
D12*
X153670000Y-113030000D03*
X156210000Y-115570000D03*
X156210000Y-113030000D03*
X158750000Y-115570000D03*
X158750000Y-113030000D03*
X161290000Y-115570000D03*
X161290000Y-113030000D03*
X163830000Y-115570000D03*
X163830000Y-113030000D03*
X166370000Y-115570000D03*
X166370000Y-113030000D03*
X168910000Y-115570000D03*
X168910000Y-113030000D03*
X171450000Y-115570000D03*
X171450000Y-113030000D03*
X173990000Y-115570000D03*
X173990000Y-113030000D03*
D13*
X160020000Y-109220000D02*
X160020000Y-108044700D01*
X156210000Y-97155000D02*
X156210000Y-98330300D01*
X156507600Y-98330300D02*
X156210000Y-98330300D01*
X158750000Y-100572700D02*
X156507600Y-98330300D01*
X160992400Y-98330300D02*
X161290000Y-98330300D01*
X158750000Y-100572700D02*
X160992400Y-98330300D01*
X161290000Y-97155000D02*
X161290000Y-97742600D01*
X161290000Y-97742600D02*
X161290000Y-98330300D01*
X164607100Y-97742600D02*
X165194700Y-97155000D01*
X161290000Y-97742600D02*
X164607100Y-97742600D01*
X166370000Y-97155000D02*
X165194700Y-97155000D01*
X157480000Y-109220000D02*
X158655300Y-109220000D01*
X158655300Y-109042000D02*
X158655300Y-109220000D01*
X159652600Y-108044700D02*
X158655300Y-109042000D01*
X160020000Y-108044700D02*
X159652600Y-108044700D01*
X158750000Y-107142100D02*
X158750000Y-100572700D01*
X159652600Y-108044700D02*
X158750000Y-107142100D01*
X152305300Y-93790600D02*
X151130000Y-92615300D01*
X152305300Y-98152400D02*
X152305300Y-93790600D01*
X151938000Y-98519700D02*
X152305300Y-98152400D01*
X151130000Y-98519700D02*
X151938000Y-98519700D01*
X151130000Y-99695000D02*
X151130000Y-98519700D01*
X151130000Y-91440000D02*
X151130000Y-92615300D01*
X148590000Y-96787700D02*
X148590000Y-91440000D01*
X146858000Y-98519700D02*
X148590000Y-96787700D01*
X146050000Y-98519700D02*
X146858000Y-98519700D01*
X146050000Y-99695000D02*
X146050000Y-98519700D01*
X159925300Y-91807400D02*
X159925300Y-91440000D01*
X160733200Y-92615300D02*
X159925300Y-91807400D01*
X164038100Y-92615300D02*
X160733200Y-92615300D01*
X170274700Y-98851900D02*
X164038100Y-92615300D01*
X170274700Y-100251800D02*
X170274700Y-98851900D01*
X171082600Y-101059700D02*
X170274700Y-100251800D01*
X171450000Y-101059700D02*
X171082600Y-101059700D01*
X171450000Y-102235000D02*
X171450000Y-101059700D01*
X158750000Y-91440000D02*
X159925300Y-91440000D01*
X167545300Y-118299400D02*
X166370000Y-119474700D01*
X167545300Y-101678300D02*
X167545300Y-118299400D01*
X166737300Y-100870300D02*
X167545300Y-101678300D01*
X166370000Y-100870300D02*
X166737300Y-100870300D01*
X166370000Y-99695000D02*
X166370000Y-100870300D01*
X166370000Y-120650000D02*
X166370000Y-119474700D01*
X165005300Y-118299400D02*
X163830000Y-119474700D01*
X165005300Y-104407600D02*
X165005300Y-118299400D01*
X166002600Y-103410300D02*
X165005300Y-104407600D01*
X166370000Y-103410300D02*
X166002600Y-103410300D01*
X166370000Y-102235000D02*
X166370000Y-103410300D01*
X163830000Y-120650000D02*
X163830000Y-119474700D01*
D14*
G36*
X179655000Y-92993736D02*
X179655000Y-119096264D01*
X178027440Y-120723824D01*
X178027440Y-119800000D01*
X177983162Y-119564683D01*
X177844090Y-119348559D01*
X177631890Y-119203569D01*
X177380000Y-119152560D01*
X175680000Y-119152560D01*
X175444683Y-119196838D01*
X175228559Y-119335910D01*
X175083569Y-119548110D01*
X175069914Y-119615541D01*
X175040054Y-119570853D01*
X174558285Y-119248946D01*
X173990000Y-119135907D01*
X173421715Y-119248946D01*
X172939946Y-119570853D01*
X172712298Y-119911553D01*
X172645183Y-119768642D01*
X172216924Y-119378355D01*
X171806890Y-119208524D01*
X171577000Y-119329845D01*
X171577000Y-120523000D01*
X171597000Y-120523000D01*
X171597000Y-120777000D01*
X171577000Y-120777000D01*
X171577000Y-120797000D01*
X171323000Y-120797000D01*
X171323000Y-120777000D01*
X171303000Y-120777000D01*
X171303000Y-120523000D01*
X171323000Y-120523000D01*
X171323000Y-119329845D01*
X171093110Y-119208524D01*
X170683076Y-119378355D01*
X170254817Y-119768642D01*
X170187702Y-119911553D01*
X169960054Y-119570853D01*
X169478285Y-119248946D01*
X168910000Y-119135907D01*
X168341715Y-119248946D01*
X167859946Y-119570853D01*
X167640000Y-119900026D01*
X167420054Y-119570853D01*
X167377250Y-119542252D01*
X168082701Y-118836801D01*
X168247448Y-118590240D01*
X168305300Y-118299400D01*
X168305300Y-116946722D01*
X168341715Y-116971054D01*
X168910000Y-117084093D01*
X169478285Y-116971054D01*
X169960054Y-116649147D01*
X170180000Y-116319974D01*
X170399946Y-116649147D01*
X170881715Y-116971054D01*
X171450000Y-117084093D01*
X172018285Y-116971054D01*
X172500054Y-116649147D01*
X172720000Y-116319974D01*
X172939946Y-116649147D01*
X173421715Y-116971054D01*
X173990000Y-117084093D01*
X174558285Y-116971054D01*
X175040054Y-116649147D01*
X175361961Y-116167378D01*
X175475000Y-115599093D01*
X175475000Y-115540907D01*
X175361961Y-114972622D01*
X175040054Y-114490853D01*
X174754422Y-114300000D01*
X175040054Y-114109147D01*
X175361961Y-113627378D01*
X175475000Y-113059093D01*
X175475000Y-113000907D01*
X175361961Y-112432622D01*
X175040054Y-111950853D01*
X174558285Y-111628946D01*
X173990000Y-111515907D01*
X173421715Y-111628946D01*
X172939946Y-111950853D01*
X172720000Y-112280026D01*
X172500054Y-111950853D01*
X172018285Y-111628946D01*
X171450000Y-111515907D01*
X170881715Y-111628946D01*
X170399946Y-111950853D01*
X170180000Y-112280026D01*
X169960054Y-111950853D01*
X169478285Y-111628946D01*
X168910000Y-111515907D01*
X168341715Y-111628946D01*
X168305300Y-111653278D01*
X168305300Y-105131890D01*
X170008524Y-105131890D01*
X170178355Y-105541924D01*
X170568642Y-105970183D01*
X171093108Y-106216486D01*
X171323000Y-106095819D01*
X171323000Y-104902000D01*
X171577000Y-104902000D01*
X171577000Y-106095819D01*
X171806892Y-106216486D01*
X172331358Y-105970183D01*
X172721645Y-105541924D01*
X172891476Y-105131890D01*
X175088524Y-105131890D01*
X175258355Y-105541924D01*
X175648642Y-105970183D01*
X176173108Y-106216486D01*
X176403000Y-106095819D01*
X176403000Y-104902000D01*
X176657000Y-104902000D01*
X176657000Y-106095819D01*
X176886892Y-106216486D01*
X177411358Y-105970183D01*
X177801645Y-105541924D01*
X177971476Y-105131890D01*
X177850155Y-104902000D01*
X176657000Y-104902000D01*
X176403000Y-104902000D01*
X175209845Y-104902000D01*
X175088524Y-105131890D01*
X172891476Y-105131890D01*
X172770155Y-104902000D01*
X171577000Y-104902000D01*
X171323000Y-104902000D01*
X170129845Y-104902000D01*
X170008524Y-105131890D01*
X168305300Y-105131890D01*
X168305300Y-101678300D01*
X168247448Y-101387461D01*
X168082701Y-101140899D01*
X167544360Y-100602558D01*
X167771054Y-100263285D01*
X167884093Y-99695000D01*
X167771054Y-99126715D01*
X167449147Y-98644946D01*
X167407548Y-98617150D01*
X167455317Y-98608162D01*
X167671441Y-98469090D01*
X167816431Y-98256890D01*
X167867440Y-98005000D01*
X167867440Y-97519442D01*
X169514700Y-99166702D01*
X169514700Y-100251800D01*
X169572552Y-100542639D01*
X169737299Y-100789201D01*
X170275600Y-101327502D01*
X170048946Y-101666715D01*
X169935907Y-102235000D01*
X170048946Y-102803285D01*
X170370853Y-103285054D01*
X170711553Y-103512702D01*
X170568642Y-103579817D01*
X170178355Y-104008076D01*
X170008524Y-104418110D01*
X170129845Y-104648000D01*
X171323000Y-104648000D01*
X171323000Y-104628000D01*
X171577000Y-104628000D01*
X171577000Y-104648000D01*
X172770155Y-104648000D01*
X172891476Y-104418110D01*
X172721645Y-104008076D01*
X172331358Y-103579817D01*
X172188447Y-103512702D01*
X172529147Y-103285054D01*
X172851054Y-102803285D01*
X172964093Y-102235000D01*
X172851054Y-101666715D01*
X172529147Y-101184946D01*
X172199974Y-100965000D01*
X172529147Y-100745054D01*
X172851054Y-100263285D01*
X172964093Y-99695000D01*
X175015907Y-99695000D01*
X175128946Y-100263285D01*
X175450853Y-100745054D01*
X175780026Y-100965000D01*
X175450853Y-101184946D01*
X175128946Y-101666715D01*
X175015907Y-102235000D01*
X175128946Y-102803285D01*
X175450853Y-103285054D01*
X175791553Y-103512702D01*
X175648642Y-103579817D01*
X175258355Y-104008076D01*
X175088524Y-104418110D01*
X175209845Y-104648000D01*
X176403000Y-104648000D01*
X176403000Y-104628000D01*
X176657000Y-104628000D01*
X176657000Y-104648000D01*
X177850155Y-104648000D01*
X177971476Y-104418110D01*
X177801645Y-104008076D01*
X177411358Y-103579817D01*
X177268447Y-103512702D01*
X177609147Y-103285054D01*
X177931054Y-102803285D01*
X178044093Y-102235000D01*
X177931054Y-101666715D01*
X177609147Y-101184946D01*
X177279974Y-100965000D01*
X177609147Y-100745054D01*
X177931054Y-100263285D01*
X178044093Y-99695000D01*
X177931054Y-99126715D01*
X177609147Y-98644946D01*
X177567548Y-98617150D01*
X177615317Y-98608162D01*
X177831441Y-98469090D01*
X177976431Y-98256890D01*
X178027440Y-98005000D01*
X178027440Y-96305000D01*
X177983162Y-96069683D01*
X177844090Y-95853559D01*
X177631890Y-95708569D01*
X177380000Y-95657560D01*
X175680000Y-95657560D01*
X175444683Y-95701838D01*
X175228559Y-95840910D01*
X175083569Y-96053110D01*
X175032560Y-96305000D01*
X175032560Y-98005000D01*
X175076838Y-98240317D01*
X175215910Y-98456441D01*
X175428110Y-98601431D01*
X175495541Y-98615086D01*
X175450853Y-98644946D01*
X175128946Y-99126715D01*
X175015907Y-99695000D01*
X172964093Y-99695000D01*
X172851054Y-99126715D01*
X172529147Y-98644946D01*
X172487548Y-98617150D01*
X172535317Y-98608162D01*
X172751441Y-98469090D01*
X172896431Y-98256890D01*
X172947440Y-98005000D01*
X172947440Y-96305000D01*
X172903162Y-96069683D01*
X172764090Y-95853559D01*
X172551890Y-95708569D01*
X172300000Y-95657560D01*
X170600000Y-95657560D01*
X170364683Y-95701838D01*
X170148559Y-95840910D01*
X170003569Y-96053110D01*
X169952560Y-96305000D01*
X169952560Y-97454958D01*
X164934806Y-92437204D01*
X165100000Y-92189974D01*
X165319946Y-92519147D01*
X165801715Y-92841054D01*
X166370000Y-92954093D01*
X166938285Y-92841054D01*
X167420054Y-92519147D01*
X167640000Y-92189974D01*
X167859946Y-92519147D01*
X168341715Y-92841054D01*
X168910000Y-92954093D01*
X169478285Y-92841054D01*
X169960054Y-92519147D01*
X170180000Y-92189974D01*
X170399946Y-92519147D01*
X170881715Y-92841054D01*
X171450000Y-92954093D01*
X172018285Y-92841054D01*
X172500054Y-92519147D01*
X172720000Y-92189974D01*
X172939946Y-92519147D01*
X173421715Y-92841054D01*
X173990000Y-92954093D01*
X174558285Y-92841054D01*
X175040054Y-92519147D01*
X175260000Y-92189974D01*
X175479946Y-92519147D01*
X175961715Y-92841054D01*
X176530000Y-92954093D01*
X177098285Y-92841054D01*
X177580054Y-92519147D01*
X177901961Y-92037378D01*
X178015000Y-91469093D01*
X178015000Y-91410907D01*
X178000804Y-91339540D01*
X179655000Y-92993736D01*
X179655000Y-92993736D01*
G37*
X179655000Y-92993736D02*
X179655000Y-119096264D01*
X178027440Y-120723824D01*
X178027440Y-119800000D01*
X177983162Y-119564683D01*
X177844090Y-119348559D01*
X177631890Y-119203569D01*
X177380000Y-119152560D01*
X175680000Y-119152560D01*
X175444683Y-119196838D01*
X175228559Y-119335910D01*
X175083569Y-119548110D01*
X175069914Y-119615541D01*
X175040054Y-119570853D01*
X174558285Y-119248946D01*
X173990000Y-119135907D01*
X173421715Y-119248946D01*
X172939946Y-119570853D01*
X172712298Y-119911553D01*
X172645183Y-119768642D01*
X172216924Y-119378355D01*
X171806890Y-119208524D01*
X171577000Y-119329845D01*
X171577000Y-120523000D01*
X171597000Y-120523000D01*
X171597000Y-120777000D01*
X171577000Y-120777000D01*
X171577000Y-120797000D01*
X171323000Y-120797000D01*
X171323000Y-120777000D01*
X171303000Y-120777000D01*
X171303000Y-120523000D01*
X171323000Y-120523000D01*
X171323000Y-119329845D01*
X171093110Y-119208524D01*
X170683076Y-119378355D01*
X170254817Y-119768642D01*
X170187702Y-119911553D01*
X169960054Y-119570853D01*
X169478285Y-119248946D01*
X168910000Y-119135907D01*
X168341715Y-119248946D01*
X167859946Y-119570853D01*
X167640000Y-119900026D01*
X167420054Y-119570853D01*
X167377250Y-119542252D01*
X168082701Y-118836801D01*
X168247448Y-118590240D01*
X168305300Y-118299400D01*
X168305300Y-116946722D01*
X168341715Y-116971054D01*
X168910000Y-117084093D01*
X169478285Y-116971054D01*
X169960054Y-116649147D01*
X170180000Y-116319974D01*
X170399946Y-116649147D01*
X170881715Y-116971054D01*
X171450000Y-117084093D01*
X172018285Y-116971054D01*
X172500054Y-116649147D01*
X172720000Y-116319974D01*
X172939946Y-116649147D01*
X173421715Y-116971054D01*
X173990000Y-117084093D01*
X174558285Y-116971054D01*
X175040054Y-116649147D01*
X175361961Y-116167378D01*
X175475000Y-115599093D01*
X175475000Y-115540907D01*
X175361961Y-114972622D01*
X175040054Y-114490853D01*
X174754422Y-114300000D01*
X175040054Y-114109147D01*
X175361961Y-113627378D01*
X175475000Y-113059093D01*
X175475000Y-113000907D01*
X175361961Y-112432622D01*
X175040054Y-111950853D01*
X174558285Y-111628946D01*
X173990000Y-111515907D01*
X173421715Y-111628946D01*
X172939946Y-111950853D01*
X172720000Y-112280026D01*
X172500054Y-111950853D01*
X172018285Y-111628946D01*
X171450000Y-111515907D01*
X170881715Y-111628946D01*
X170399946Y-111950853D01*
X170180000Y-112280026D01*
X169960054Y-111950853D01*
X169478285Y-111628946D01*
X168910000Y-111515907D01*
X168341715Y-111628946D01*
X168305300Y-111653278D01*
X168305300Y-105131890D01*
X170008524Y-105131890D01*
X170178355Y-105541924D01*
X170568642Y-105970183D01*
X171093108Y-106216486D01*
X171323000Y-106095819D01*
X171323000Y-104902000D01*
X171577000Y-104902000D01*
X171577000Y-106095819D01*
X171806892Y-106216486D01*
X172331358Y-105970183D01*
X172721645Y-105541924D01*
X172891476Y-105131890D01*
X175088524Y-105131890D01*
X175258355Y-105541924D01*
X175648642Y-105970183D01*
X176173108Y-106216486D01*
X176403000Y-106095819D01*
X176403000Y-104902000D01*
X176657000Y-104902000D01*
X176657000Y-106095819D01*
X176886892Y-106216486D01*
X177411358Y-105970183D01*
X177801645Y-105541924D01*
X177971476Y-105131890D01*
X177850155Y-104902000D01*
X176657000Y-104902000D01*
X176403000Y-104902000D01*
X175209845Y-104902000D01*
X175088524Y-105131890D01*
X172891476Y-105131890D01*
X172770155Y-104902000D01*
X171577000Y-104902000D01*
X171323000Y-104902000D01*
X170129845Y-104902000D01*
X170008524Y-105131890D01*
X168305300Y-105131890D01*
X168305300Y-101678300D01*
X168247448Y-101387461D01*
X168082701Y-101140899D01*
X167544360Y-100602558D01*
X167771054Y-100263285D01*
X167884093Y-99695000D01*
X167771054Y-99126715D01*
X167449147Y-98644946D01*
X167407548Y-98617150D01*
X167455317Y-98608162D01*
X167671441Y-98469090D01*
X167816431Y-98256890D01*
X167867440Y-98005000D01*
X167867440Y-97519442D01*
X169514700Y-99166702D01*
X169514700Y-100251800D01*
X169572552Y-100542639D01*
X169737299Y-100789201D01*
X170275600Y-101327502D01*
X170048946Y-101666715D01*
X169935907Y-102235000D01*
X170048946Y-102803285D01*
X170370853Y-103285054D01*
X170711553Y-103512702D01*
X170568642Y-103579817D01*
X170178355Y-104008076D01*
X170008524Y-104418110D01*
X170129845Y-104648000D01*
X171323000Y-104648000D01*
X171323000Y-104628000D01*
X171577000Y-104628000D01*
X171577000Y-104648000D01*
X172770155Y-104648000D01*
X172891476Y-104418110D01*
X172721645Y-104008076D01*
X172331358Y-103579817D01*
X172188447Y-103512702D01*
X172529147Y-103285054D01*
X172851054Y-102803285D01*
X172964093Y-102235000D01*
X172851054Y-101666715D01*
X172529147Y-101184946D01*
X172199974Y-100965000D01*
X172529147Y-100745054D01*
X172851054Y-100263285D01*
X172964093Y-99695000D01*
X175015907Y-99695000D01*
X175128946Y-100263285D01*
X175450853Y-100745054D01*
X175780026Y-100965000D01*
X175450853Y-101184946D01*
X175128946Y-101666715D01*
X175015907Y-102235000D01*
X175128946Y-102803285D01*
X175450853Y-103285054D01*
X175791553Y-103512702D01*
X175648642Y-103579817D01*
X175258355Y-104008076D01*
X175088524Y-104418110D01*
X175209845Y-104648000D01*
X176403000Y-104648000D01*
X176403000Y-104628000D01*
X176657000Y-104628000D01*
X176657000Y-104648000D01*
X177850155Y-104648000D01*
X177971476Y-104418110D01*
X177801645Y-104008076D01*
X177411358Y-103579817D01*
X177268447Y-103512702D01*
X177609147Y-103285054D01*
X177931054Y-102803285D01*
X178044093Y-102235000D01*
X177931054Y-101666715D01*
X177609147Y-101184946D01*
X177279974Y-100965000D01*
X177609147Y-100745054D01*
X177931054Y-100263285D01*
X178044093Y-99695000D01*
X177931054Y-99126715D01*
X177609147Y-98644946D01*
X177567548Y-98617150D01*
X177615317Y-98608162D01*
X177831441Y-98469090D01*
X177976431Y-98256890D01*
X178027440Y-98005000D01*
X178027440Y-96305000D01*
X177983162Y-96069683D01*
X177844090Y-95853559D01*
X177631890Y-95708569D01*
X177380000Y-95657560D01*
X175680000Y-95657560D01*
X175444683Y-95701838D01*
X175228559Y-95840910D01*
X175083569Y-96053110D01*
X175032560Y-96305000D01*
X175032560Y-98005000D01*
X175076838Y-98240317D01*
X175215910Y-98456441D01*
X175428110Y-98601431D01*
X175495541Y-98615086D01*
X175450853Y-98644946D01*
X175128946Y-99126715D01*
X175015907Y-99695000D01*
X172964093Y-99695000D01*
X172851054Y-99126715D01*
X172529147Y-98644946D01*
X172487548Y-98617150D01*
X172535317Y-98608162D01*
X172751441Y-98469090D01*
X172896431Y-98256890D01*
X172947440Y-98005000D01*
X172947440Y-96305000D01*
X172903162Y-96069683D01*
X172764090Y-95853559D01*
X172551890Y-95708569D01*
X172300000Y-95657560D01*
X170600000Y-95657560D01*
X170364683Y-95701838D01*
X170148559Y-95840910D01*
X170003569Y-96053110D01*
X169952560Y-96305000D01*
X169952560Y-97454958D01*
X164934806Y-92437204D01*
X165100000Y-92189974D01*
X165319946Y-92519147D01*
X165801715Y-92841054D01*
X166370000Y-92954093D01*
X166938285Y-92841054D01*
X167420054Y-92519147D01*
X167640000Y-92189974D01*
X167859946Y-92519147D01*
X168341715Y-92841054D01*
X168910000Y-92954093D01*
X169478285Y-92841054D01*
X169960054Y-92519147D01*
X170180000Y-92189974D01*
X170399946Y-92519147D01*
X170881715Y-92841054D01*
X171450000Y-92954093D01*
X172018285Y-92841054D01*
X172500054Y-92519147D01*
X172720000Y-92189974D01*
X172939946Y-92519147D01*
X173421715Y-92841054D01*
X173990000Y-92954093D01*
X174558285Y-92841054D01*
X175040054Y-92519147D01*
X175260000Y-92189974D01*
X175479946Y-92519147D01*
X175961715Y-92841054D01*
X176530000Y-92954093D01*
X177098285Y-92841054D01*
X177580054Y-92519147D01*
X177901961Y-92037378D01*
X178015000Y-91469093D01*
X178015000Y-91410907D01*
X178000804Y-91339540D01*
X179655000Y-92993736D01*
G36*
X157699946Y-92519147D02*
X158181715Y-92841054D01*
X158750000Y-92954093D01*
X159318285Y-92841054D01*
X159657498Y-92614400D01*
X160195799Y-93152701D01*
X160442361Y-93317448D01*
X160733200Y-93375300D01*
X163723298Y-93375300D01*
X166005558Y-95657560D01*
X165520000Y-95657560D01*
X165284683Y-95701838D01*
X165068559Y-95840910D01*
X164923569Y-96053110D01*
X164872560Y-96305000D01*
X164872560Y-96473767D01*
X164657299Y-96617599D01*
X164292298Y-96982600D01*
X162787440Y-96982600D01*
X162787440Y-96305000D01*
X162743162Y-96069683D01*
X162604090Y-95853559D01*
X162391890Y-95708569D01*
X162140000Y-95657560D01*
X160440000Y-95657560D01*
X160204683Y-95701838D01*
X159988559Y-95840910D01*
X159843569Y-96053110D01*
X159792560Y-96305000D01*
X159792560Y-98005000D01*
X159836838Y-98240317D01*
X159903690Y-98344208D01*
X158750000Y-99497897D01*
X157596583Y-98344481D01*
X157656431Y-98256890D01*
X157707440Y-98005000D01*
X157707440Y-96305000D01*
X157663162Y-96069683D01*
X157524090Y-95853559D01*
X157311890Y-95708569D01*
X157060000Y-95657560D01*
X155360000Y-95657560D01*
X155124683Y-95701838D01*
X154908559Y-95840910D01*
X154763569Y-96053110D01*
X154712560Y-96305000D01*
X154712560Y-98005000D01*
X154756838Y-98240317D01*
X154895910Y-98456441D01*
X155108110Y-98601431D01*
X155175541Y-98615086D01*
X155130853Y-98644946D01*
X154808946Y-99126715D01*
X154695907Y-99695000D01*
X154808946Y-100263285D01*
X155130853Y-100745054D01*
X155471553Y-100972702D01*
X155328642Y-101039817D01*
X154938355Y-101468076D01*
X154768524Y-101878110D01*
X154889845Y-102108000D01*
X156083000Y-102108000D01*
X156083000Y-102088000D01*
X156337000Y-102088000D01*
X156337000Y-102108000D01*
X157530155Y-102108000D01*
X157651476Y-101878110D01*
X157481645Y-101468076D01*
X157091358Y-101039817D01*
X156948447Y-100972702D01*
X157289147Y-100745054D01*
X157512812Y-100410315D01*
X157990000Y-100887503D01*
X157990000Y-105301940D01*
X157836890Y-105238524D01*
X157607000Y-105359845D01*
X157607000Y-106553000D01*
X157627000Y-106553000D01*
X157627000Y-106807000D01*
X157607000Y-106807000D01*
X157607000Y-106827000D01*
X157353000Y-106827000D01*
X157353000Y-106807000D01*
X155067000Y-106807000D01*
X155067000Y-106827000D01*
X154813000Y-106827000D01*
X154813000Y-106807000D01*
X153619181Y-106807000D01*
X153498514Y-107036892D01*
X153744817Y-107561358D01*
X153950504Y-107748808D01*
X153854683Y-107766838D01*
X153638559Y-107905910D01*
X153493569Y-108118110D01*
X153442560Y-108370000D01*
X153442560Y-110070000D01*
X153486838Y-110305317D01*
X153625910Y-110521441D01*
X153838110Y-110666431D01*
X154090000Y-110717440D01*
X155790000Y-110717440D01*
X156025317Y-110673162D01*
X156241441Y-110534090D01*
X156386431Y-110321890D01*
X156400086Y-110254459D01*
X156429946Y-110299147D01*
X156911715Y-110621054D01*
X157480000Y-110734093D01*
X158048285Y-110621054D01*
X158530054Y-110299147D01*
X158750000Y-109969974D01*
X158969946Y-110299147D01*
X159451715Y-110621054D01*
X160020000Y-110734093D01*
X160588285Y-110621054D01*
X161070054Y-110299147D01*
X161391961Y-109817378D01*
X161505000Y-109249093D01*
X161505000Y-109190907D01*
X161391961Y-108622622D01*
X161070054Y-108140853D01*
X160786899Y-107951655D01*
X160786924Y-107951645D01*
X161215183Y-107561358D01*
X161461486Y-107036892D01*
X161340819Y-106807000D01*
X160147000Y-106807000D01*
X160147000Y-106827000D01*
X159893000Y-106827000D01*
X159893000Y-106807000D01*
X159873000Y-106807000D01*
X159873000Y-106553000D01*
X159893000Y-106553000D01*
X159893000Y-105359845D01*
X160147000Y-105359845D01*
X160147000Y-106553000D01*
X161340819Y-106553000D01*
X161461486Y-106323108D01*
X161215183Y-105798642D01*
X160786924Y-105408355D01*
X160376890Y-105238524D01*
X160147000Y-105359845D01*
X159893000Y-105359845D01*
X159663110Y-105238524D01*
X159510000Y-105301940D01*
X159510000Y-102591890D01*
X159848524Y-102591890D01*
X160018355Y-103001924D01*
X160408642Y-103430183D01*
X160933108Y-103676486D01*
X161163000Y-103555819D01*
X161163000Y-102362000D01*
X161417000Y-102362000D01*
X161417000Y-103555819D01*
X161646892Y-103676486D01*
X162171358Y-103430183D01*
X162561645Y-103001924D01*
X162731476Y-102591890D01*
X162610155Y-102362000D01*
X161417000Y-102362000D01*
X161163000Y-102362000D01*
X159969845Y-102362000D01*
X159848524Y-102591890D01*
X159510000Y-102591890D01*
X159510000Y-100887502D01*
X159987188Y-100410315D01*
X160210853Y-100745054D01*
X160551553Y-100972702D01*
X160408642Y-101039817D01*
X160018355Y-101468076D01*
X159848524Y-101878110D01*
X159969845Y-102108000D01*
X161163000Y-102108000D01*
X161163000Y-102088000D01*
X161417000Y-102088000D01*
X161417000Y-102108000D01*
X162610155Y-102108000D01*
X162731476Y-101878110D01*
X162561645Y-101468076D01*
X162171358Y-101039817D01*
X162028447Y-100972702D01*
X162369147Y-100745054D01*
X162691054Y-100263285D01*
X162804093Y-99695000D01*
X162691054Y-99126715D01*
X162369147Y-98644946D01*
X162327548Y-98617150D01*
X162375317Y-98608162D01*
X162539365Y-98502600D01*
X164607100Y-98502600D01*
X164897939Y-98444748D01*
X165003149Y-98374449D01*
X165055910Y-98456441D01*
X165268110Y-98601431D01*
X165335541Y-98615086D01*
X165290853Y-98644946D01*
X164968946Y-99126715D01*
X164855907Y-99695000D01*
X164968946Y-100263285D01*
X165290853Y-100745054D01*
X165620026Y-100965000D01*
X165290853Y-101184946D01*
X164968946Y-101666715D01*
X164855907Y-102235000D01*
X164968946Y-102803285D01*
X165195600Y-103142498D01*
X164467899Y-103870199D01*
X164303152Y-104116761D01*
X164245300Y-104407600D01*
X164245300Y-111598515D01*
X163830000Y-111515907D01*
X163261715Y-111628946D01*
X162779946Y-111950853D01*
X162560000Y-112280026D01*
X162340054Y-111950853D01*
X161858285Y-111628946D01*
X161290000Y-111515907D01*
X160721715Y-111628946D01*
X160239946Y-111950853D01*
X160020000Y-112280026D01*
X159800054Y-111950853D01*
X159318285Y-111628946D01*
X158750000Y-111515907D01*
X158181715Y-111628946D01*
X157699946Y-111950853D01*
X157480000Y-112280026D01*
X157260054Y-111950853D01*
X156778285Y-111628946D01*
X156210000Y-111515907D01*
X155641715Y-111628946D01*
X155159946Y-111950853D01*
X154940000Y-112280026D01*
X154720054Y-111950853D01*
X154238285Y-111628946D01*
X153670000Y-111515907D01*
X153101715Y-111628946D01*
X152619946Y-111950853D01*
X152298039Y-112432622D01*
X152185000Y-113000907D01*
X152185000Y-113059093D01*
X152298039Y-113627378D01*
X152619946Y-114109147D01*
X152621179Y-114109971D01*
X152584683Y-114116838D01*
X152368559Y-114255910D01*
X152223569Y-114468110D01*
X152172560Y-114720000D01*
X152172560Y-116420000D01*
X152216838Y-116655317D01*
X152355910Y-116871441D01*
X152568110Y-117016431D01*
X152820000Y-117067440D01*
X154520000Y-117067440D01*
X154755317Y-117023162D01*
X154971441Y-116884090D01*
X155116431Y-116671890D01*
X155130086Y-116604459D01*
X155159946Y-116649147D01*
X155641715Y-116971054D01*
X156210000Y-117084093D01*
X156778285Y-116971054D01*
X157260054Y-116649147D01*
X157480000Y-116319974D01*
X157699946Y-116649147D01*
X158181715Y-116971054D01*
X158750000Y-117084093D01*
X159318285Y-116971054D01*
X159800054Y-116649147D01*
X160020000Y-116319974D01*
X160239946Y-116649147D01*
X160721715Y-116971054D01*
X161290000Y-117084093D01*
X161858285Y-116971054D01*
X162340054Y-116649147D01*
X162560000Y-116319974D01*
X162779946Y-116649147D01*
X163261715Y-116971054D01*
X163830000Y-117084093D01*
X164245300Y-117001485D01*
X164245300Y-117984598D01*
X163292599Y-118937299D01*
X163127852Y-119183861D01*
X163092402Y-119362077D01*
X162779946Y-119570853D01*
X162560000Y-119900026D01*
X162340054Y-119570853D01*
X161858285Y-119248946D01*
X161290000Y-119135907D01*
X160721715Y-119248946D01*
X160239946Y-119570853D01*
X160020000Y-119900026D01*
X159800054Y-119570853D01*
X159318285Y-119248946D01*
X158750000Y-119135907D01*
X158181715Y-119248946D01*
X157699946Y-119570853D01*
X157480000Y-119900026D01*
X157260054Y-119570853D01*
X156778285Y-119248946D01*
X156210000Y-119135907D01*
X155641715Y-119248946D01*
X155159946Y-119570853D01*
X154940000Y-119900026D01*
X154720054Y-119570853D01*
X154238285Y-119248946D01*
X153670000Y-119135907D01*
X153101715Y-119248946D01*
X152619946Y-119570853D01*
X152400000Y-119900026D01*
X152180054Y-119570853D01*
X151698285Y-119248946D01*
X151130000Y-119135907D01*
X150561715Y-119248946D01*
X150079946Y-119570853D01*
X149860000Y-119900026D01*
X149640054Y-119570853D01*
X149158285Y-119248946D01*
X148590000Y-119135907D01*
X148021715Y-119248946D01*
X147539946Y-119570853D01*
X147218039Y-120052622D01*
X147105000Y-120620907D01*
X147105000Y-120679093D01*
X147119196Y-120750460D01*
X145465000Y-119096264D01*
X145465000Y-106323108D01*
X153498514Y-106323108D01*
X153619181Y-106553000D01*
X154813000Y-106553000D01*
X154813000Y-105359845D01*
X155067000Y-105359845D01*
X155067000Y-106553000D01*
X157353000Y-106553000D01*
X157353000Y-105359845D01*
X157123110Y-105238524D01*
X156713076Y-105408355D01*
X156284817Y-105798642D01*
X156210000Y-105957954D01*
X156135183Y-105798642D01*
X155706924Y-105408355D01*
X155296890Y-105238524D01*
X155067000Y-105359845D01*
X154813000Y-105359845D01*
X154583110Y-105238524D01*
X154173076Y-105408355D01*
X153744817Y-105798642D01*
X153498514Y-106323108D01*
X145465000Y-106323108D01*
X145465000Y-103569360D01*
X145693108Y-103676486D01*
X145923000Y-103555819D01*
X145923000Y-102362000D01*
X146177000Y-102362000D01*
X146177000Y-103555819D01*
X146406892Y-103676486D01*
X146931358Y-103430183D01*
X147321645Y-103001924D01*
X147491476Y-102591890D01*
X149688524Y-102591890D01*
X149858355Y-103001924D01*
X150248642Y-103430183D01*
X150773108Y-103676486D01*
X151003000Y-103555819D01*
X151003000Y-102362000D01*
X151257000Y-102362000D01*
X151257000Y-103555819D01*
X151486892Y-103676486D01*
X152011358Y-103430183D01*
X152401645Y-103001924D01*
X152571476Y-102591890D01*
X154768524Y-102591890D01*
X154938355Y-103001924D01*
X155328642Y-103430183D01*
X155853108Y-103676486D01*
X156083000Y-103555819D01*
X156083000Y-102362000D01*
X156337000Y-102362000D01*
X156337000Y-103555819D01*
X156566892Y-103676486D01*
X157091358Y-103430183D01*
X157481645Y-103001924D01*
X157651476Y-102591890D01*
X157530155Y-102362000D01*
X156337000Y-102362000D01*
X156083000Y-102362000D01*
X154889845Y-102362000D01*
X154768524Y-102591890D01*
X152571476Y-102591890D01*
X152450155Y-102362000D01*
X151257000Y-102362000D01*
X151003000Y-102362000D01*
X149809845Y-102362000D01*
X149688524Y-102591890D01*
X147491476Y-102591890D01*
X147370155Y-102362000D01*
X146177000Y-102362000D01*
X145923000Y-102362000D01*
X145903000Y-102362000D01*
X145903000Y-102108000D01*
X145923000Y-102108000D01*
X145923000Y-102088000D01*
X146177000Y-102088000D01*
X146177000Y-102108000D01*
X147370155Y-102108000D01*
X147491476Y-101878110D01*
X147321645Y-101468076D01*
X146931358Y-101039817D01*
X146788447Y-100972702D01*
X147129147Y-100745054D01*
X147451054Y-100263285D01*
X147564093Y-99695000D01*
X147451054Y-99126715D01*
X147400879Y-99051623D01*
X149127401Y-97325101D01*
X149292148Y-97078539D01*
X149350000Y-96787700D01*
X149350000Y-92937440D01*
X149440000Y-92937440D01*
X149675317Y-92893162D01*
X149891441Y-92754090D01*
X150036431Y-92541890D01*
X150050086Y-92474459D01*
X150079946Y-92519147D01*
X150392402Y-92727923D01*
X150427852Y-92906139D01*
X150592599Y-93152701D01*
X151545300Y-94105402D01*
X151545300Y-95657560D01*
X150280000Y-95657560D01*
X150044683Y-95701838D01*
X149828559Y-95840910D01*
X149683569Y-96053110D01*
X149632560Y-96305000D01*
X149632560Y-98005000D01*
X149676838Y-98240317D01*
X149815910Y-98456441D01*
X150028110Y-98601431D01*
X150095541Y-98615086D01*
X150050853Y-98644946D01*
X149728946Y-99126715D01*
X149615907Y-99695000D01*
X149728946Y-100263285D01*
X150050853Y-100745054D01*
X150391553Y-100972702D01*
X150248642Y-101039817D01*
X149858355Y-101468076D01*
X149688524Y-101878110D01*
X149809845Y-102108000D01*
X151003000Y-102108000D01*
X151003000Y-102088000D01*
X151257000Y-102088000D01*
X151257000Y-102108000D01*
X152450155Y-102108000D01*
X152571476Y-101878110D01*
X152401645Y-101468076D01*
X152011358Y-101039817D01*
X151868447Y-100972702D01*
X152209147Y-100745054D01*
X152531054Y-100263285D01*
X152644093Y-99695000D01*
X152531054Y-99126715D01*
X152480879Y-99051623D01*
X152842701Y-98689801D01*
X153007448Y-98443239D01*
X153065300Y-98152400D01*
X153065300Y-93790600D01*
X153007448Y-93499761D01*
X153007448Y-93499760D01*
X152842701Y-93253199D01*
X152137250Y-92547748D01*
X152180054Y-92519147D01*
X152400000Y-92189974D01*
X152619946Y-92519147D01*
X153101715Y-92841054D01*
X153670000Y-92954093D01*
X154238285Y-92841054D01*
X154720054Y-92519147D01*
X154940000Y-92189974D01*
X155159946Y-92519147D01*
X155641715Y-92841054D01*
X156210000Y-92954093D01*
X156778285Y-92841054D01*
X157260054Y-92519147D01*
X157480000Y-92189974D01*
X157699946Y-92519147D01*
X157699946Y-92519147D01*
G37*
X157699946Y-92519147D02*
X158181715Y-92841054D01*
X158750000Y-92954093D01*
X159318285Y-92841054D01*
X159657498Y-92614400D01*
X160195799Y-93152701D01*
X160442361Y-93317448D01*
X160733200Y-93375300D01*
X163723298Y-93375300D01*
X166005558Y-95657560D01*
X165520000Y-95657560D01*
X165284683Y-95701838D01*
X165068559Y-95840910D01*
X164923569Y-96053110D01*
X164872560Y-96305000D01*
X164872560Y-96473767D01*
X164657299Y-96617599D01*
X164292298Y-96982600D01*
X162787440Y-96982600D01*
X162787440Y-96305000D01*
X162743162Y-96069683D01*
X162604090Y-95853559D01*
X162391890Y-95708569D01*
X162140000Y-95657560D01*
X160440000Y-95657560D01*
X160204683Y-95701838D01*
X159988559Y-95840910D01*
X159843569Y-96053110D01*
X159792560Y-96305000D01*
X159792560Y-98005000D01*
X159836838Y-98240317D01*
X159903690Y-98344208D01*
X158750000Y-99497897D01*
X157596583Y-98344481D01*
X157656431Y-98256890D01*
X157707440Y-98005000D01*
X157707440Y-96305000D01*
X157663162Y-96069683D01*
X157524090Y-95853559D01*
X157311890Y-95708569D01*
X157060000Y-95657560D01*
X155360000Y-95657560D01*
X155124683Y-95701838D01*
X154908559Y-95840910D01*
X154763569Y-96053110D01*
X154712560Y-96305000D01*
X154712560Y-98005000D01*
X154756838Y-98240317D01*
X154895910Y-98456441D01*
X155108110Y-98601431D01*
X155175541Y-98615086D01*
X155130853Y-98644946D01*
X154808946Y-99126715D01*
X154695907Y-99695000D01*
X154808946Y-100263285D01*
X155130853Y-100745054D01*
X155471553Y-100972702D01*
X155328642Y-101039817D01*
X154938355Y-101468076D01*
X154768524Y-101878110D01*
X154889845Y-102108000D01*
X156083000Y-102108000D01*
X156083000Y-102088000D01*
X156337000Y-102088000D01*
X156337000Y-102108000D01*
X157530155Y-102108000D01*
X157651476Y-101878110D01*
X157481645Y-101468076D01*
X157091358Y-101039817D01*
X156948447Y-100972702D01*
X157289147Y-100745054D01*
X157512812Y-100410315D01*
X157990000Y-100887503D01*
X157990000Y-105301940D01*
X157836890Y-105238524D01*
X157607000Y-105359845D01*
X157607000Y-106553000D01*
X157627000Y-106553000D01*
X157627000Y-106807000D01*
X157607000Y-106807000D01*
X157607000Y-106827000D01*
X157353000Y-106827000D01*
X157353000Y-106807000D01*
X155067000Y-106807000D01*
X155067000Y-106827000D01*
X154813000Y-106827000D01*
X154813000Y-106807000D01*
X153619181Y-106807000D01*
X153498514Y-107036892D01*
X153744817Y-107561358D01*
X153950504Y-107748808D01*
X153854683Y-107766838D01*
X153638559Y-107905910D01*
X153493569Y-108118110D01*
X153442560Y-108370000D01*
X153442560Y-110070000D01*
X153486838Y-110305317D01*
X153625910Y-110521441D01*
X153838110Y-110666431D01*
X154090000Y-110717440D01*
X155790000Y-110717440D01*
X156025317Y-110673162D01*
X156241441Y-110534090D01*
X156386431Y-110321890D01*
X156400086Y-110254459D01*
X156429946Y-110299147D01*
X156911715Y-110621054D01*
X157480000Y-110734093D01*
X158048285Y-110621054D01*
X158530054Y-110299147D01*
X158750000Y-109969974D01*
X158969946Y-110299147D01*
X159451715Y-110621054D01*
X160020000Y-110734093D01*
X160588285Y-110621054D01*
X161070054Y-110299147D01*
X161391961Y-109817378D01*
X161505000Y-109249093D01*
X161505000Y-109190907D01*
X161391961Y-108622622D01*
X161070054Y-108140853D01*
X160786899Y-107951655D01*
X160786924Y-107951645D01*
X161215183Y-107561358D01*
X161461486Y-107036892D01*
X161340819Y-106807000D01*
X160147000Y-106807000D01*
X160147000Y-106827000D01*
X159893000Y-106827000D01*
X159893000Y-106807000D01*
X159873000Y-106807000D01*
X159873000Y-106553000D01*
X159893000Y-106553000D01*
X159893000Y-105359845D01*
X160147000Y-105359845D01*
X160147000Y-106553000D01*
X161340819Y-106553000D01*
X161461486Y-106323108D01*
X161215183Y-105798642D01*
X160786924Y-105408355D01*
X160376890Y-105238524D01*
X160147000Y-105359845D01*
X159893000Y-105359845D01*
X159663110Y-105238524D01*
X159510000Y-105301940D01*
X159510000Y-102591890D01*
X159848524Y-102591890D01*
X160018355Y-103001924D01*
X160408642Y-103430183D01*
X160933108Y-103676486D01*
X161163000Y-103555819D01*
X161163000Y-102362000D01*
X161417000Y-102362000D01*
X161417000Y-103555819D01*
X161646892Y-103676486D01*
X162171358Y-103430183D01*
X162561645Y-103001924D01*
X162731476Y-102591890D01*
X162610155Y-102362000D01*
X161417000Y-102362000D01*
X161163000Y-102362000D01*
X159969845Y-102362000D01*
X159848524Y-102591890D01*
X159510000Y-102591890D01*
X159510000Y-100887502D01*
X159987188Y-100410315D01*
X160210853Y-100745054D01*
X160551553Y-100972702D01*
X160408642Y-101039817D01*
X160018355Y-101468076D01*
X159848524Y-101878110D01*
X159969845Y-102108000D01*
X161163000Y-102108000D01*
X161163000Y-102088000D01*
X161417000Y-102088000D01*
X161417000Y-102108000D01*
X162610155Y-102108000D01*
X162731476Y-101878110D01*
X162561645Y-101468076D01*
X162171358Y-101039817D01*
X162028447Y-100972702D01*
X162369147Y-100745054D01*
X162691054Y-100263285D01*
X162804093Y-99695000D01*
X162691054Y-99126715D01*
X162369147Y-98644946D01*
X162327548Y-98617150D01*
X162375317Y-98608162D01*
X162539365Y-98502600D01*
X164607100Y-98502600D01*
X164897939Y-98444748D01*
X165003149Y-98374449D01*
X165055910Y-98456441D01*
X165268110Y-98601431D01*
X165335541Y-98615086D01*
X165290853Y-98644946D01*
X164968946Y-99126715D01*
X164855907Y-99695000D01*
X164968946Y-100263285D01*
X165290853Y-100745054D01*
X165620026Y-100965000D01*
X165290853Y-101184946D01*
X164968946Y-101666715D01*
X164855907Y-102235000D01*
X164968946Y-102803285D01*
X165195600Y-103142498D01*
X164467899Y-103870199D01*
X164303152Y-104116761D01*
X164245300Y-104407600D01*
X164245300Y-111598515D01*
X163830000Y-111515907D01*
X163261715Y-111628946D01*
X162779946Y-111950853D01*
X162560000Y-112280026D01*
X162340054Y-111950853D01*
X161858285Y-111628946D01*
X161290000Y-111515907D01*
X160721715Y-111628946D01*
X160239946Y-111950853D01*
X160020000Y-112280026D01*
X159800054Y-111950853D01*
X159318285Y-111628946D01*
X158750000Y-111515907D01*
X158181715Y-111628946D01*
X157699946Y-111950853D01*
X157480000Y-112280026D01*
X157260054Y-111950853D01*
X156778285Y-111628946D01*
X156210000Y-111515907D01*
X155641715Y-111628946D01*
X155159946Y-111950853D01*
X154940000Y-112280026D01*
X154720054Y-111950853D01*
X154238285Y-111628946D01*
X153670000Y-111515907D01*
X153101715Y-111628946D01*
X152619946Y-111950853D01*
X152298039Y-112432622D01*
X152185000Y-113000907D01*
X152185000Y-113059093D01*
X152298039Y-113627378D01*
X152619946Y-114109147D01*
X152621179Y-114109971D01*
X152584683Y-114116838D01*
X152368559Y-114255910D01*
X152223569Y-114468110D01*
X152172560Y-114720000D01*
X152172560Y-116420000D01*
X152216838Y-116655317D01*
X152355910Y-116871441D01*
X152568110Y-117016431D01*
X152820000Y-117067440D01*
X154520000Y-117067440D01*
X154755317Y-117023162D01*
X154971441Y-116884090D01*
X155116431Y-116671890D01*
X155130086Y-116604459D01*
X155159946Y-116649147D01*
X155641715Y-116971054D01*
X156210000Y-117084093D01*
X156778285Y-116971054D01*
X157260054Y-116649147D01*
X157480000Y-116319974D01*
X157699946Y-116649147D01*
X158181715Y-116971054D01*
X158750000Y-117084093D01*
X159318285Y-116971054D01*
X159800054Y-116649147D01*
X160020000Y-116319974D01*
X160239946Y-116649147D01*
X160721715Y-116971054D01*
X161290000Y-117084093D01*
X161858285Y-116971054D01*
X162340054Y-116649147D01*
X162560000Y-116319974D01*
X162779946Y-116649147D01*
X163261715Y-116971054D01*
X163830000Y-117084093D01*
X164245300Y-117001485D01*
X164245300Y-117984598D01*
X163292599Y-118937299D01*
X163127852Y-119183861D01*
X163092402Y-119362077D01*
X162779946Y-119570853D01*
X162560000Y-119900026D01*
X162340054Y-119570853D01*
X161858285Y-119248946D01*
X161290000Y-119135907D01*
X160721715Y-119248946D01*
X160239946Y-119570853D01*
X160020000Y-119900026D01*
X159800054Y-119570853D01*
X159318285Y-119248946D01*
X158750000Y-119135907D01*
X158181715Y-119248946D01*
X157699946Y-119570853D01*
X157480000Y-119900026D01*
X157260054Y-119570853D01*
X156778285Y-119248946D01*
X156210000Y-119135907D01*
X155641715Y-119248946D01*
X155159946Y-119570853D01*
X154940000Y-119900026D01*
X154720054Y-119570853D01*
X154238285Y-119248946D01*
X153670000Y-119135907D01*
X153101715Y-119248946D01*
X152619946Y-119570853D01*
X152400000Y-119900026D01*
X152180054Y-119570853D01*
X151698285Y-119248946D01*
X151130000Y-119135907D01*
X150561715Y-119248946D01*
X150079946Y-119570853D01*
X149860000Y-119900026D01*
X149640054Y-119570853D01*
X149158285Y-119248946D01*
X148590000Y-119135907D01*
X148021715Y-119248946D01*
X147539946Y-119570853D01*
X147218039Y-120052622D01*
X147105000Y-120620907D01*
X147105000Y-120679093D01*
X147119196Y-120750460D01*
X145465000Y-119096264D01*
X145465000Y-106323108D01*
X153498514Y-106323108D01*
X153619181Y-106553000D01*
X154813000Y-106553000D01*
X154813000Y-105359845D01*
X155067000Y-105359845D01*
X155067000Y-106553000D01*
X157353000Y-106553000D01*
X157353000Y-105359845D01*
X157123110Y-105238524D01*
X156713076Y-105408355D01*
X156284817Y-105798642D01*
X156210000Y-105957954D01*
X156135183Y-105798642D01*
X155706924Y-105408355D01*
X155296890Y-105238524D01*
X155067000Y-105359845D01*
X154813000Y-105359845D01*
X154583110Y-105238524D01*
X154173076Y-105408355D01*
X153744817Y-105798642D01*
X153498514Y-106323108D01*
X145465000Y-106323108D01*
X145465000Y-103569360D01*
X145693108Y-103676486D01*
X145923000Y-103555819D01*
X145923000Y-102362000D01*
X146177000Y-102362000D01*
X146177000Y-103555819D01*
X146406892Y-103676486D01*
X146931358Y-103430183D01*
X147321645Y-103001924D01*
X147491476Y-102591890D01*
X149688524Y-102591890D01*
X149858355Y-103001924D01*
X150248642Y-103430183D01*
X150773108Y-103676486D01*
X151003000Y-103555819D01*
X151003000Y-102362000D01*
X151257000Y-102362000D01*
X151257000Y-103555819D01*
X151486892Y-103676486D01*
X152011358Y-103430183D01*
X152401645Y-103001924D01*
X152571476Y-102591890D01*
X154768524Y-102591890D01*
X154938355Y-103001924D01*
X155328642Y-103430183D01*
X155853108Y-103676486D01*
X156083000Y-103555819D01*
X156083000Y-102362000D01*
X156337000Y-102362000D01*
X156337000Y-103555819D01*
X156566892Y-103676486D01*
X157091358Y-103430183D01*
X157481645Y-103001924D01*
X157651476Y-102591890D01*
X157530155Y-102362000D01*
X156337000Y-102362000D01*
X156083000Y-102362000D01*
X154889845Y-102362000D01*
X154768524Y-102591890D01*
X152571476Y-102591890D01*
X152450155Y-102362000D01*
X151257000Y-102362000D01*
X151003000Y-102362000D01*
X149809845Y-102362000D01*
X149688524Y-102591890D01*
X147491476Y-102591890D01*
X147370155Y-102362000D01*
X146177000Y-102362000D01*
X145923000Y-102362000D01*
X145903000Y-102362000D01*
X145903000Y-102108000D01*
X145923000Y-102108000D01*
X145923000Y-102088000D01*
X146177000Y-102088000D01*
X146177000Y-102108000D01*
X147370155Y-102108000D01*
X147491476Y-101878110D01*
X147321645Y-101468076D01*
X146931358Y-101039817D01*
X146788447Y-100972702D01*
X147129147Y-100745054D01*
X147451054Y-100263285D01*
X147564093Y-99695000D01*
X147451054Y-99126715D01*
X147400879Y-99051623D01*
X149127401Y-97325101D01*
X149292148Y-97078539D01*
X149350000Y-96787700D01*
X149350000Y-92937440D01*
X149440000Y-92937440D01*
X149675317Y-92893162D01*
X149891441Y-92754090D01*
X150036431Y-92541890D01*
X150050086Y-92474459D01*
X150079946Y-92519147D01*
X150392402Y-92727923D01*
X150427852Y-92906139D01*
X150592599Y-93152701D01*
X151545300Y-94105402D01*
X151545300Y-95657560D01*
X150280000Y-95657560D01*
X150044683Y-95701838D01*
X149828559Y-95840910D01*
X149683569Y-96053110D01*
X149632560Y-96305000D01*
X149632560Y-98005000D01*
X149676838Y-98240317D01*
X149815910Y-98456441D01*
X150028110Y-98601431D01*
X150095541Y-98615086D01*
X150050853Y-98644946D01*
X149728946Y-99126715D01*
X149615907Y-99695000D01*
X149728946Y-100263285D01*
X150050853Y-100745054D01*
X150391553Y-100972702D01*
X150248642Y-101039817D01*
X149858355Y-101468076D01*
X149688524Y-101878110D01*
X149809845Y-102108000D01*
X151003000Y-102108000D01*
X151003000Y-102088000D01*
X151257000Y-102088000D01*
X151257000Y-102108000D01*
X152450155Y-102108000D01*
X152571476Y-101878110D01*
X152401645Y-101468076D01*
X152011358Y-101039817D01*
X151868447Y-100972702D01*
X152209147Y-100745054D01*
X152531054Y-100263285D01*
X152644093Y-99695000D01*
X152531054Y-99126715D01*
X152480879Y-99051623D01*
X152842701Y-98689801D01*
X153007448Y-98443239D01*
X153065300Y-98152400D01*
X153065300Y-93790600D01*
X153007448Y-93499761D01*
X153007448Y-93499760D01*
X152842701Y-93253199D01*
X152137250Y-92547748D01*
X152180054Y-92519147D01*
X152400000Y-92189974D01*
X152619946Y-92519147D01*
X153101715Y-92841054D01*
X153670000Y-92954093D01*
X154238285Y-92841054D01*
X154720054Y-92519147D01*
X154940000Y-92189974D01*
X155159946Y-92519147D01*
X155641715Y-92841054D01*
X156210000Y-92954093D01*
X156778285Y-92841054D01*
X157260054Y-92519147D01*
X157480000Y-92189974D01*
X157699946Y-92519147D01*
G36*
X166497000Y-104648000D02*
X166517000Y-104648000D01*
X166517000Y-104902000D01*
X166497000Y-104902000D01*
X166497000Y-106095819D01*
X166726892Y-106216486D01*
X166785300Y-106189056D01*
X166785300Y-111598515D01*
X166370000Y-111515907D01*
X165801715Y-111628946D01*
X165765300Y-111653278D01*
X165765300Y-106100109D01*
X166013108Y-106216486D01*
X166243000Y-106095819D01*
X166243000Y-104902000D01*
X166223000Y-104902000D01*
X166223000Y-104648000D01*
X166243000Y-104648000D01*
X166243000Y-104628000D01*
X166497000Y-104628000D01*
X166497000Y-104648000D01*
X166497000Y-104648000D01*
G37*
X166497000Y-104648000D02*
X166517000Y-104648000D01*
X166517000Y-104902000D01*
X166497000Y-104902000D01*
X166497000Y-106095819D01*
X166726892Y-106216486D01*
X166785300Y-106189056D01*
X166785300Y-111598515D01*
X166370000Y-111515907D01*
X165801715Y-111628946D01*
X165765300Y-111653278D01*
X165765300Y-106100109D01*
X166013108Y-106216486D01*
X166243000Y-106095819D01*
X166243000Y-104902000D01*
X166223000Y-104902000D01*
X166223000Y-104648000D01*
X166243000Y-104648000D01*
X166243000Y-104628000D01*
X166497000Y-104628000D01*
X166497000Y-104648000D01*
M02*
