M48
;DRILL file {KiCad 4.0.7-e1-6374~58~ubuntu16.04.1} date Wed Aug  2 16:45:58 2017
;FORMAT={-:-/ absolute / inch / decimal}
FMAT,2
INCH,TZ
T1C0.039
%
G90
G05
M72
T1
X5.825Y-3.95
X5.825Y-5.025
X5.8297Y-4.3
X5.8297Y-4.625
X5.925Y-3.95
X5.925Y-5.025
X5.9281Y-4.3
X5.9281Y-4.625
X6.025Y-3.95
X6.025Y-5.025
X6.0266Y-4.3
X6.0266Y-4.625
X6.125Y-3.95
X6.125Y-4.3
X6.125Y-4.625
X6.125Y-5.025
X6.225Y-3.95
X6.225Y-5.025
X6.325Y-3.95
X6.325Y-5.025
X6.425Y-3.95
X6.425Y-5.025
T0
M30
