G04 #@! TF.FileFunction,Legend,Top*
%FSLAX46Y46*%
G04 Gerber Fmt 4.6, Leading zero omitted, Abs format (unit mm)*
G04 Created by KiCad (PCBNEW 4.0.7-e1-6374~58~ubuntu16.04.1) date Wed Aug  2 16:45:54 2017*
%MOMM*%
%LPD*%
G01*
G04 APERTURE LIST*
%ADD10C,0.100000*%
%ADD11C,0.120000*%
%ADD12C,0.150000*%
G04 APERTURE END LIST*
D10*
X162845000Y-109118333D02*
X162811667Y-109184999D01*
X162811667Y-109284999D01*
X162845000Y-109384999D01*
X162911667Y-109451666D01*
X162978333Y-109484999D01*
X163111667Y-109518333D01*
X163211667Y-109518333D01*
X163345000Y-109484999D01*
X163411667Y-109451666D01*
X163478333Y-109384999D01*
X163511667Y-109284999D01*
X163511667Y-109218333D01*
X163478333Y-109118333D01*
X163445000Y-109084999D01*
X163211667Y-109084999D01*
X163211667Y-109218333D01*
X163511667Y-108784999D02*
X162811667Y-108784999D01*
X163511667Y-108384999D01*
X162811667Y-108384999D01*
X163511667Y-108051666D02*
X162811667Y-108051666D01*
X162811667Y-107885000D01*
X162845000Y-107785000D01*
X162911667Y-107718333D01*
X162978333Y-107685000D01*
X163111667Y-107651666D01*
X163211667Y-107651666D01*
X163345000Y-107685000D01*
X163411667Y-107718333D01*
X163478333Y-107785000D01*
X163511667Y-107885000D01*
X163511667Y-108051666D01*
X161340000Y-116335000D02*
X161340000Y-115801667D01*
X161606667Y-116068334D02*
X161073333Y-116068334D01*
X160906667Y-115535000D02*
X160906667Y-115101667D01*
X161173333Y-115335000D01*
X161173333Y-115235000D01*
X161206667Y-115168333D01*
X161240000Y-115135000D01*
X161306667Y-115101667D01*
X161473333Y-115101667D01*
X161540000Y-115135000D01*
X161573333Y-115168333D01*
X161606667Y-115235000D01*
X161606667Y-115435000D01*
X161573333Y-115501667D01*
X161540000Y-115535000D01*
X161540000Y-114801666D02*
X161573333Y-114768333D01*
X161606667Y-114801666D01*
X161573333Y-114835000D01*
X161540000Y-114801666D01*
X161606667Y-114801666D01*
X160906667Y-114535000D02*
X160906667Y-114101667D01*
X161173333Y-114335000D01*
X161173333Y-114235000D01*
X161206667Y-114168333D01*
X161240000Y-114135000D01*
X161306667Y-114101667D01*
X161473333Y-114101667D01*
X161540000Y-114135000D01*
X161573333Y-114168333D01*
X161606667Y-114235000D01*
X161606667Y-114435000D01*
X161573333Y-114501667D01*
X161540000Y-114535000D01*
X160906667Y-113901666D02*
X161606667Y-113668333D01*
X160906667Y-113435000D01*
X163311667Y-126230000D02*
X163311667Y-125896666D01*
X163511667Y-126296666D02*
X162811667Y-126063333D01*
X163511667Y-125830000D01*
X163511667Y-125230000D02*
X163511667Y-125630000D01*
X163511667Y-125430000D02*
X162811667Y-125430000D01*
X162911667Y-125496666D01*
X162978333Y-125563333D01*
X163011667Y-125630000D01*
X160771667Y-126230000D02*
X160771667Y-125896666D01*
X160971667Y-126296666D02*
X160271667Y-126063333D01*
X160971667Y-125830000D01*
X160271667Y-125463333D02*
X160271667Y-125396666D01*
X160305000Y-125330000D01*
X160338333Y-125296666D01*
X160405000Y-125263333D01*
X160538333Y-125230000D01*
X160705000Y-125230000D01*
X160838333Y-125263333D01*
X160905000Y-125296666D01*
X160938333Y-125330000D01*
X160971667Y-125396666D01*
X160971667Y-125463333D01*
X160938333Y-125530000D01*
X160905000Y-125563333D01*
X160838333Y-125596666D01*
X160705000Y-125630000D01*
X160538333Y-125630000D01*
X160405000Y-125596666D01*
X160338333Y-125563333D01*
X160305000Y-125530000D01*
X160271667Y-125463333D01*
X158431667Y-126246666D02*
X157731667Y-126246666D01*
X157731667Y-126080000D01*
X157765000Y-125980000D01*
X157831667Y-125913333D01*
X157898333Y-125880000D01*
X158031667Y-125846666D01*
X158131667Y-125846666D01*
X158265000Y-125880000D01*
X158331667Y-125913333D01*
X158398333Y-125980000D01*
X158431667Y-126080000D01*
X158431667Y-126246666D01*
X157731667Y-125613333D02*
X157731667Y-125146666D01*
X158431667Y-125446666D01*
X148271667Y-126246666D02*
X147571667Y-126246666D01*
X147571667Y-126080000D01*
X147605000Y-125980000D01*
X147671667Y-125913333D01*
X147738333Y-125880000D01*
X147871667Y-125846666D01*
X147971667Y-125846666D01*
X148105000Y-125880000D01*
X148171667Y-125913333D01*
X148238333Y-125980000D01*
X148271667Y-126080000D01*
X148271667Y-126246666D01*
X147571667Y-125613333D02*
X147571667Y-125180000D01*
X147838333Y-125413333D01*
X147838333Y-125313333D01*
X147871667Y-125246666D01*
X147905000Y-125213333D01*
X147971667Y-125180000D01*
X148138333Y-125180000D01*
X148205000Y-125213333D01*
X148238333Y-125246666D01*
X148271667Y-125313333D01*
X148271667Y-125513333D01*
X148238333Y-125580000D01*
X148205000Y-125613333D01*
X150811667Y-126246666D02*
X150111667Y-126246666D01*
X150111667Y-126080000D01*
X150145000Y-125980000D01*
X150211667Y-125913333D01*
X150278333Y-125880000D01*
X150411667Y-125846666D01*
X150511667Y-125846666D01*
X150645000Y-125880000D01*
X150711667Y-125913333D01*
X150778333Y-125980000D01*
X150811667Y-126080000D01*
X150811667Y-126246666D01*
X150345000Y-125246666D02*
X150811667Y-125246666D01*
X150078333Y-125413333D02*
X150578333Y-125580000D01*
X150578333Y-125146666D01*
X153351667Y-126246666D02*
X152651667Y-126246666D01*
X152651667Y-126080000D01*
X152685000Y-125980000D01*
X152751667Y-125913333D01*
X152818333Y-125880000D01*
X152951667Y-125846666D01*
X153051667Y-125846666D01*
X153185000Y-125880000D01*
X153251667Y-125913333D01*
X153318333Y-125980000D01*
X153351667Y-126080000D01*
X153351667Y-126246666D01*
X152651667Y-125213333D02*
X152651667Y-125546666D01*
X152985000Y-125580000D01*
X152951667Y-125546666D01*
X152918333Y-125480000D01*
X152918333Y-125313333D01*
X152951667Y-125246666D01*
X152985000Y-125213333D01*
X153051667Y-125180000D01*
X153218333Y-125180000D01*
X153285000Y-125213333D01*
X153318333Y-125246666D01*
X153351667Y-125313333D01*
X153351667Y-125480000D01*
X153318333Y-125546666D01*
X153285000Y-125580000D01*
X155891667Y-126246666D02*
X155191667Y-126246666D01*
X155191667Y-126080000D01*
X155225000Y-125980000D01*
X155291667Y-125913333D01*
X155358333Y-125880000D01*
X155491667Y-125846666D01*
X155591667Y-125846666D01*
X155725000Y-125880000D01*
X155791667Y-125913333D01*
X155858333Y-125980000D01*
X155891667Y-126080000D01*
X155891667Y-126246666D01*
X155191667Y-125246666D02*
X155191667Y-125380000D01*
X155225000Y-125446666D01*
X155258333Y-125480000D01*
X155358333Y-125546666D01*
X155491667Y-125580000D01*
X155758333Y-125580000D01*
X155825000Y-125546666D01*
X155858333Y-125513333D01*
X155891667Y-125446666D01*
X155891667Y-125313333D01*
X155858333Y-125246666D01*
X155825000Y-125213333D01*
X155758333Y-125180000D01*
X155591667Y-125180000D01*
X155525000Y-125213333D01*
X155491667Y-125246666D01*
X155458333Y-125313333D01*
X155458333Y-125446666D01*
X155491667Y-125513333D01*
X155525000Y-125546666D01*
X155591667Y-125580000D01*
X163511667Y-114816666D02*
X162811667Y-114816666D01*
X162811667Y-114650000D01*
X162845000Y-114550000D01*
X162911667Y-114483333D01*
X162978333Y-114450000D01*
X163111667Y-114416666D01*
X163211667Y-114416666D01*
X163345000Y-114450000D01*
X163411667Y-114483333D01*
X163478333Y-114550000D01*
X163511667Y-114650000D01*
X163511667Y-114816666D01*
X162811667Y-113816666D02*
X162811667Y-113950000D01*
X162845000Y-114016666D01*
X162878333Y-114050000D01*
X162978333Y-114116666D01*
X163111667Y-114150000D01*
X163378333Y-114150000D01*
X163445000Y-114116666D01*
X163478333Y-114083333D01*
X163511667Y-114016666D01*
X163511667Y-113883333D01*
X163478333Y-113816666D01*
X163445000Y-113783333D01*
X163378333Y-113750000D01*
X163211667Y-113750000D01*
X163145000Y-113783333D01*
X163111667Y-113816666D01*
X163078333Y-113883333D01*
X163078333Y-114016666D01*
X163111667Y-114083333D01*
X163145000Y-114116666D01*
X163211667Y-114150000D01*
X161606667Y-121166666D02*
X160906667Y-121166666D01*
X160906667Y-121000000D01*
X160940000Y-120900000D01*
X161006667Y-120833333D01*
X161073333Y-120800000D01*
X161206667Y-120766666D01*
X161306667Y-120766666D01*
X161440000Y-120800000D01*
X161506667Y-120833333D01*
X161573333Y-120900000D01*
X161606667Y-121000000D01*
X161606667Y-121166666D01*
X160906667Y-120133333D02*
X160906667Y-120466666D01*
X161240000Y-120500000D01*
X161206667Y-120466666D01*
X161173333Y-120400000D01*
X161173333Y-120233333D01*
X161206667Y-120166666D01*
X161240000Y-120133333D01*
X161306667Y-120100000D01*
X161473333Y-120100000D01*
X161540000Y-120133333D01*
X161573333Y-120166666D01*
X161606667Y-120233333D01*
X161606667Y-120400000D01*
X161573333Y-120466666D01*
X161540000Y-120500000D01*
X152685000Y-121818333D02*
X152651667Y-121884999D01*
X152651667Y-121984999D01*
X152685000Y-122084999D01*
X152751667Y-122151666D01*
X152818333Y-122184999D01*
X152951667Y-122218333D01*
X153051667Y-122218333D01*
X153185000Y-122184999D01*
X153251667Y-122151666D01*
X153318333Y-122084999D01*
X153351667Y-121984999D01*
X153351667Y-121918333D01*
X153318333Y-121818333D01*
X153285000Y-121784999D01*
X153051667Y-121784999D01*
X153051667Y-121918333D01*
X153351667Y-121484999D02*
X152651667Y-121484999D01*
X153351667Y-121084999D01*
X152651667Y-121084999D01*
X153351667Y-120751666D02*
X152651667Y-120751666D01*
X152651667Y-120585000D01*
X152685000Y-120485000D01*
X152751667Y-120418333D01*
X152818333Y-120385000D01*
X152951667Y-120351666D01*
X153051667Y-120351666D01*
X153185000Y-120385000D01*
X153251667Y-120418333D01*
X153318333Y-120485000D01*
X153351667Y-120585000D01*
X153351667Y-120751666D01*
X152685000Y-112928333D02*
X152651667Y-112994999D01*
X152651667Y-113094999D01*
X152685000Y-113194999D01*
X152751667Y-113261666D01*
X152818333Y-113294999D01*
X152951667Y-113328333D01*
X153051667Y-113328333D01*
X153185000Y-113294999D01*
X153251667Y-113261666D01*
X153318333Y-113194999D01*
X153351667Y-113094999D01*
X153351667Y-113028333D01*
X153318333Y-112928333D01*
X153285000Y-112894999D01*
X153051667Y-112894999D01*
X153051667Y-113028333D01*
X153351667Y-112594999D02*
X152651667Y-112594999D01*
X153351667Y-112194999D01*
X152651667Y-112194999D01*
X153351667Y-111861666D02*
X152651667Y-111861666D01*
X152651667Y-111695000D01*
X152685000Y-111595000D01*
X152751667Y-111528333D01*
X152818333Y-111495000D01*
X152951667Y-111461666D01*
X153051667Y-111461666D01*
X153185000Y-111495000D01*
X153251667Y-111528333D01*
X153318333Y-111595000D01*
X153351667Y-111695000D01*
X153351667Y-111861666D01*
X148005000Y-114430000D02*
X148005000Y-113896667D01*
X148271667Y-114163334D02*
X147738333Y-114163334D01*
X147571667Y-113630000D02*
X147571667Y-113196667D01*
X147838333Y-113430000D01*
X147838333Y-113330000D01*
X147871667Y-113263333D01*
X147905000Y-113230000D01*
X147971667Y-113196667D01*
X148138333Y-113196667D01*
X148205000Y-113230000D01*
X148238333Y-113263333D01*
X148271667Y-113330000D01*
X148271667Y-113530000D01*
X148238333Y-113596667D01*
X148205000Y-113630000D01*
X148205000Y-112896666D02*
X148238333Y-112863333D01*
X148271667Y-112896666D01*
X148238333Y-112930000D01*
X148205000Y-112896666D01*
X148271667Y-112896666D01*
X147571667Y-112630000D02*
X147571667Y-112196667D01*
X147838333Y-112430000D01*
X147838333Y-112330000D01*
X147871667Y-112263333D01*
X147905000Y-112230000D01*
X147971667Y-112196667D01*
X148138333Y-112196667D01*
X148205000Y-112230000D01*
X148238333Y-112263333D01*
X148271667Y-112330000D01*
X148271667Y-112530000D01*
X148238333Y-112596667D01*
X148205000Y-112630000D01*
X147571667Y-111996666D02*
X148271667Y-111763333D01*
X147571667Y-111530000D01*
X148005000Y-122685000D02*
X148005000Y-122151667D01*
X148271667Y-122418334D02*
X147738333Y-122418334D01*
X147571667Y-121885000D02*
X147571667Y-121451667D01*
X147838333Y-121685000D01*
X147838333Y-121585000D01*
X147871667Y-121518333D01*
X147905000Y-121485000D01*
X147971667Y-121451667D01*
X148138333Y-121451667D01*
X148205000Y-121485000D01*
X148238333Y-121518333D01*
X148271667Y-121585000D01*
X148271667Y-121785000D01*
X148238333Y-121851667D01*
X148205000Y-121885000D01*
X148205000Y-121151666D02*
X148238333Y-121118333D01*
X148271667Y-121151666D01*
X148238333Y-121185000D01*
X148205000Y-121151666D01*
X148271667Y-121151666D01*
X147571667Y-120885000D02*
X147571667Y-120451667D01*
X147838333Y-120685000D01*
X147838333Y-120585000D01*
X147871667Y-120518333D01*
X147905000Y-120485000D01*
X147971667Y-120451667D01*
X148138333Y-120451667D01*
X148205000Y-120485000D01*
X148238333Y-120518333D01*
X148271667Y-120585000D01*
X148271667Y-120785000D01*
X148238333Y-120851667D01*
X148205000Y-120885000D01*
X147571667Y-120251666D02*
X148271667Y-120018333D01*
X147571667Y-119785000D01*
X155691667Y-112895000D02*
X155691667Y-112561666D01*
X155891667Y-112961666D02*
X155191667Y-112728333D01*
X155891667Y-112495000D01*
X155191667Y-111928333D02*
X155191667Y-112261666D01*
X155525000Y-112295000D01*
X155491667Y-112261666D01*
X155458333Y-112195000D01*
X155458333Y-112028333D01*
X155491667Y-111961666D01*
X155525000Y-111928333D01*
X155591667Y-111895000D01*
X155758333Y-111895000D01*
X155825000Y-111928333D01*
X155858333Y-111961666D01*
X155891667Y-112028333D01*
X155891667Y-112195000D01*
X155858333Y-112261666D01*
X155825000Y-112295000D01*
X150611667Y-112895000D02*
X150611667Y-112561666D01*
X150811667Y-112961666D02*
X150111667Y-112728333D01*
X150811667Y-112495000D01*
X150345000Y-111961666D02*
X150811667Y-111961666D01*
X150078333Y-112128333D02*
X150578333Y-112295000D01*
X150578333Y-111861666D01*
X160771667Y-102735000D02*
X160771667Y-102401666D01*
X160971667Y-102801666D02*
X160271667Y-102568333D01*
X160971667Y-102335000D01*
X160505000Y-101801666D02*
X160971667Y-101801666D01*
X160238333Y-101968333D02*
X160738333Y-102135000D01*
X160738333Y-101701666D01*
X147005000Y-102185000D02*
X147105000Y-102218333D01*
X147138333Y-102251667D01*
X147171667Y-102318333D01*
X147171667Y-102418333D01*
X147138333Y-102485000D01*
X147105000Y-102518333D01*
X147038333Y-102551667D01*
X146771667Y-102551667D01*
X146771667Y-101851667D01*
X147005000Y-101851667D01*
X147071667Y-101885000D01*
X147105000Y-101918333D01*
X147138333Y-101985000D01*
X147138333Y-102051667D01*
X147105000Y-102118333D01*
X147071667Y-102151667D01*
X147005000Y-102185000D01*
X146771667Y-102185000D01*
X147438333Y-102351667D02*
X147771667Y-102351667D01*
X147371667Y-102551667D02*
X147605000Y-101851667D01*
X147838333Y-102551667D01*
X147971667Y-101851667D02*
X148371667Y-101851667D01*
X148171667Y-102551667D02*
X148171667Y-101851667D01*
X148605000Y-102285000D02*
X149138333Y-102285000D01*
X148871666Y-102551667D02*
X148871666Y-102018333D01*
X150365000Y-102285000D02*
X150898333Y-102285000D01*
X150631666Y-102551667D02*
X150631666Y-102018333D01*
X151165000Y-101851667D02*
X151598333Y-101851667D01*
X151365000Y-102118333D01*
X151465000Y-102118333D01*
X151531667Y-102151667D01*
X151565000Y-102185000D01*
X151598333Y-102251667D01*
X151598333Y-102418333D01*
X151565000Y-102485000D01*
X151531667Y-102518333D01*
X151465000Y-102551667D01*
X151265000Y-102551667D01*
X151198333Y-102518333D01*
X151165000Y-102485000D01*
X151898334Y-102485000D02*
X151931667Y-102518333D01*
X151898334Y-102551667D01*
X151865000Y-102518333D01*
X151898334Y-102485000D01*
X151898334Y-102551667D01*
X152165000Y-101851667D02*
X152598333Y-101851667D01*
X152365000Y-102118333D01*
X152465000Y-102118333D01*
X152531667Y-102151667D01*
X152565000Y-102185000D01*
X152598333Y-102251667D01*
X152598333Y-102418333D01*
X152565000Y-102485000D01*
X152531667Y-102518333D01*
X152465000Y-102551667D01*
X152265000Y-102551667D01*
X152198333Y-102518333D01*
X152165000Y-102485000D01*
X152798334Y-101851667D02*
X153031667Y-102551667D01*
X153265000Y-101851667D01*
X156311667Y-101885000D02*
X156245001Y-101851667D01*
X156145001Y-101851667D01*
X156045001Y-101885000D01*
X155978334Y-101951667D01*
X155945001Y-102018333D01*
X155911667Y-102151667D01*
X155911667Y-102251667D01*
X155945001Y-102385000D01*
X155978334Y-102451667D01*
X156045001Y-102518333D01*
X156145001Y-102551667D01*
X156211667Y-102551667D01*
X156311667Y-102518333D01*
X156345001Y-102485000D01*
X156345001Y-102251667D01*
X156211667Y-102251667D01*
X156645001Y-102551667D02*
X156645001Y-101851667D01*
X157045001Y-102551667D01*
X157045001Y-101851667D01*
X157378334Y-102551667D02*
X157378334Y-101851667D01*
X157545000Y-101851667D01*
X157645000Y-101885000D01*
X157711667Y-101951667D01*
X157745000Y-102018333D01*
X157778334Y-102151667D01*
X157778334Y-102251667D01*
X157745000Y-102385000D01*
X157711667Y-102451667D01*
X157645000Y-102518333D01*
X157545000Y-102551667D01*
X157378334Y-102551667D01*
X163311667Y-102735000D02*
X163311667Y-102401666D01*
X163511667Y-102801666D02*
X162811667Y-102568333D01*
X163511667Y-102335000D01*
X162811667Y-101768333D02*
X162811667Y-102101666D01*
X163145000Y-102135000D01*
X163111667Y-102101666D01*
X163078333Y-102035000D01*
X163078333Y-101868333D01*
X163111667Y-101801666D01*
X163145000Y-101768333D01*
X163211667Y-101735000D01*
X163378333Y-101735000D01*
X163445000Y-101768333D01*
X163478333Y-101801666D01*
X163511667Y-101868333D01*
X163511667Y-102035000D01*
X163478333Y-102101666D01*
X163445000Y-102135000D01*
X150611667Y-121785000D02*
X150611667Y-121451666D01*
X150811667Y-121851666D02*
X150111667Y-121618333D01*
X150811667Y-121385000D01*
X150345000Y-120851666D02*
X150811667Y-120851666D01*
X150078333Y-121018333D02*
X150578333Y-121185000D01*
X150578333Y-120751666D01*
X155691667Y-121785000D02*
X155691667Y-121451666D01*
X155891667Y-121851666D02*
X155191667Y-121618333D01*
X155891667Y-121385000D01*
X155191667Y-120818333D02*
X155191667Y-121151666D01*
X155525000Y-121185000D01*
X155491667Y-121151666D01*
X155458333Y-121085000D01*
X155458333Y-120918333D01*
X155491667Y-120851666D01*
X155525000Y-120818333D01*
X155591667Y-120785000D01*
X155758333Y-120785000D01*
X155825000Y-120818333D01*
X155858333Y-120851666D01*
X155891667Y-120918333D01*
X155891667Y-121085000D01*
X155858333Y-121151666D01*
X155825000Y-121185000D01*
D11*
X158125000Y-119925000D02*
X158125000Y-113975000D01*
X158125000Y-113975000D02*
X145525000Y-113975000D01*
X145525000Y-113975000D02*
X145525000Y-119925000D01*
X145525000Y-119925000D02*
X158125000Y-119925000D01*
X154825000Y-119925000D02*
X154825000Y-119175000D01*
X154825000Y-119175000D02*
X148825000Y-119175000D01*
X148825000Y-119175000D02*
X148825000Y-119925000D01*
X148825000Y-119925000D02*
X154825000Y-119925000D01*
X158125000Y-119925000D02*
X158125000Y-119175000D01*
X158125000Y-119175000D02*
X156325000Y-119175000D01*
X156325000Y-119175000D02*
X156325000Y-119925000D01*
X156325000Y-119925000D02*
X158125000Y-119925000D01*
X147325000Y-119925000D02*
X147325000Y-119175000D01*
X147325000Y-119175000D02*
X145525000Y-119175000D01*
X145525000Y-119175000D02*
X145525000Y-119925000D01*
X145525000Y-119925000D02*
X147325000Y-119925000D01*
X158125000Y-117675000D02*
X157375000Y-117675000D01*
X157375000Y-117675000D02*
X157375000Y-114725000D01*
X157375000Y-114725000D02*
X151825000Y-114725000D01*
X145525000Y-117675000D02*
X146275000Y-117675000D01*
X146275000Y-117675000D02*
X146275000Y-114725000D01*
X146275000Y-114725000D02*
X151825000Y-114725000D01*
X155925000Y-120225000D02*
X158425000Y-120225000D01*
X158425000Y-120225000D02*
X158425000Y-117725000D01*
X158125000Y-111670000D02*
X158125000Y-105720000D01*
X158125000Y-105720000D02*
X145525000Y-105720000D01*
X145525000Y-105720000D02*
X145525000Y-111670000D01*
X145525000Y-111670000D02*
X158125000Y-111670000D01*
X154825000Y-111670000D02*
X154825000Y-110920000D01*
X154825000Y-110920000D02*
X148825000Y-110920000D01*
X148825000Y-110920000D02*
X148825000Y-111670000D01*
X148825000Y-111670000D02*
X154825000Y-111670000D01*
X158125000Y-111670000D02*
X158125000Y-110920000D01*
X158125000Y-110920000D02*
X156325000Y-110920000D01*
X156325000Y-110920000D02*
X156325000Y-111670000D01*
X156325000Y-111670000D02*
X158125000Y-111670000D01*
X147325000Y-111670000D02*
X147325000Y-110920000D01*
X147325000Y-110920000D02*
X145525000Y-110920000D01*
X145525000Y-110920000D02*
X145525000Y-111670000D01*
X145525000Y-111670000D02*
X147325000Y-111670000D01*
X158125000Y-109420000D02*
X157375000Y-109420000D01*
X157375000Y-109420000D02*
X157375000Y-106470000D01*
X157375000Y-106470000D02*
X151825000Y-106470000D01*
X145525000Y-109420000D02*
X146275000Y-109420000D01*
X146275000Y-109420000D02*
X146275000Y-106470000D01*
X146275000Y-106470000D02*
X151825000Y-106470000D01*
X155925000Y-111970000D02*
X158425000Y-111970000D01*
X158425000Y-111970000D02*
X158425000Y-109470000D01*
X160400000Y-116200000D02*
X160400000Y-120020000D01*
X160400000Y-120020000D02*
X162180000Y-120020000D01*
X162180000Y-120020000D02*
X162180000Y-116200000D01*
X160400000Y-116200000D02*
X162180000Y-116200000D01*
X162305000Y-109850000D02*
X162305000Y-113670000D01*
X162305000Y-113670000D02*
X164085000Y-113670000D01*
X164085000Y-113670000D02*
X164085000Y-109850000D01*
X162305000Y-109850000D02*
X164085000Y-109850000D01*
D12*
X151431667Y-114387381D02*
X151431667Y-115101667D01*
X151384047Y-115244524D01*
X151288809Y-115339762D01*
X151145952Y-115387381D01*
X151050714Y-115387381D01*
X152431667Y-115387381D02*
X151860238Y-115387381D01*
X152145952Y-115387381D02*
X152145952Y-114387381D01*
X152050714Y-114530238D01*
X151955476Y-114625476D01*
X151860238Y-114673095D01*
X151431667Y-106132381D02*
X151431667Y-106846667D01*
X151384047Y-106989524D01*
X151288809Y-107084762D01*
X151145952Y-107132381D01*
X151050714Y-107132381D01*
X151860238Y-106227619D02*
X151907857Y-106180000D01*
X152003095Y-106132381D01*
X152241191Y-106132381D01*
X152336429Y-106180000D01*
X152384048Y-106227619D01*
X152431667Y-106322857D01*
X152431667Y-106418095D01*
X152384048Y-106560952D01*
X151812619Y-107132381D01*
X152431667Y-107132381D01*
X159042381Y-118443333D02*
X159756667Y-118443333D01*
X159899524Y-118490953D01*
X159994762Y-118586191D01*
X160042381Y-118729048D01*
X160042381Y-118824286D01*
X159042381Y-117490952D02*
X159042381Y-117967143D01*
X159518571Y-118014762D01*
X159470952Y-117967143D01*
X159423333Y-117871905D01*
X159423333Y-117633809D01*
X159470952Y-117538571D01*
X159518571Y-117490952D01*
X159613810Y-117443333D01*
X159851905Y-117443333D01*
X159947143Y-117490952D01*
X159994762Y-117538571D01*
X160042381Y-117633809D01*
X160042381Y-117871905D01*
X159994762Y-117967143D01*
X159947143Y-118014762D01*
X160947381Y-112093333D02*
X161661667Y-112093333D01*
X161804524Y-112140953D01*
X161899762Y-112236191D01*
X161947381Y-112379048D01*
X161947381Y-112474286D01*
X160947381Y-111188571D02*
X160947381Y-111379048D01*
X160995000Y-111474286D01*
X161042619Y-111521905D01*
X161185476Y-111617143D01*
X161375952Y-111664762D01*
X161756905Y-111664762D01*
X161852143Y-111617143D01*
X161899762Y-111569524D01*
X161947381Y-111474286D01*
X161947381Y-111283809D01*
X161899762Y-111188571D01*
X161852143Y-111140952D01*
X161756905Y-111093333D01*
X161518810Y-111093333D01*
X161423571Y-111140952D01*
X161375952Y-111188571D01*
X161328333Y-111283809D01*
X161328333Y-111474286D01*
X161375952Y-111569524D01*
X161423571Y-111617143D01*
X161518810Y-111664762D01*
M02*
