G04 #@! TF.FileFunction,Legend,Bot*
%FSLAX46Y46*%
G04 Gerber Fmt 4.6, Leading zero omitted, Abs format (unit mm)*
G04 Created by KiCad (PCBNEW 4.0.7-e1-6374~58~ubuntu16.04.1) date Wed Aug  2 16:45:54 2017*
%MOMM*%
%LPD*%
G01*
G04 APERTURE LIST*
%ADD10C,0.100000*%
%ADD11C,0.120000*%
%ADD12C,0.150000*%
G04 APERTURE END LIST*
D10*
X160212143Y-110212619D02*
X160259762Y-110165000D01*
X160307381Y-110022143D01*
X160307381Y-109926905D01*
X160259762Y-109784047D01*
X160164524Y-109688809D01*
X160069286Y-109641190D01*
X159878810Y-109593571D01*
X159735952Y-109593571D01*
X159545476Y-109641190D01*
X159450238Y-109688809D01*
X159355000Y-109784047D01*
X159307381Y-109926905D01*
X159307381Y-110022143D01*
X159355000Y-110165000D01*
X159402619Y-110212619D01*
X160307381Y-110784047D02*
X160259762Y-110688809D01*
X160212143Y-110641190D01*
X160116905Y-110593571D01*
X159831190Y-110593571D01*
X159735952Y-110641190D01*
X159688333Y-110688809D01*
X159640714Y-110784047D01*
X159640714Y-110926905D01*
X159688333Y-111022143D01*
X159735952Y-111069762D01*
X159831190Y-111117381D01*
X160116905Y-111117381D01*
X160212143Y-111069762D01*
X160259762Y-111022143D01*
X160307381Y-110926905D01*
X160307381Y-110784047D01*
X160259762Y-111498333D02*
X160307381Y-111593571D01*
X160307381Y-111784047D01*
X160259762Y-111879286D01*
X160164524Y-111926905D01*
X160116905Y-111926905D01*
X160021667Y-111879286D01*
X159974048Y-111784047D01*
X159974048Y-111641190D01*
X159926429Y-111545952D01*
X159831190Y-111498333D01*
X159783571Y-111498333D01*
X159688333Y-111545952D01*
X159640714Y-111641190D01*
X159640714Y-111784047D01*
X159688333Y-111879286D01*
X160307381Y-112355476D02*
X159640714Y-112355476D01*
X159735952Y-112355476D02*
X159688333Y-112403095D01*
X159640714Y-112498333D01*
X159640714Y-112641191D01*
X159688333Y-112736429D01*
X159783571Y-112784048D01*
X160307381Y-112784048D01*
X159783571Y-112784048D02*
X159688333Y-112831667D01*
X159640714Y-112926905D01*
X159640714Y-113069762D01*
X159688333Y-113165000D01*
X159783571Y-113212619D01*
X160307381Y-113212619D01*
X160307381Y-113831666D02*
X160259762Y-113736428D01*
X160212143Y-113688809D01*
X160116905Y-113641190D01*
X159831190Y-113641190D01*
X159735952Y-113688809D01*
X159688333Y-113736428D01*
X159640714Y-113831666D01*
X159640714Y-113974524D01*
X159688333Y-114069762D01*
X159735952Y-114117381D01*
X159831190Y-114165000D01*
X160116905Y-114165000D01*
X160212143Y-114117381D01*
X160259762Y-114069762D01*
X160307381Y-113974524D01*
X160307381Y-113831666D01*
X159640714Y-114593571D02*
X160307381Y-114593571D01*
X159735952Y-114593571D02*
X159688333Y-114641190D01*
X159640714Y-114736428D01*
X159640714Y-114879286D01*
X159688333Y-114974524D01*
X159783571Y-115022143D01*
X160307381Y-115022143D01*
X160307381Y-115641190D02*
X160259762Y-115545952D01*
X160212143Y-115498333D01*
X160116905Y-115450714D01*
X159831190Y-115450714D01*
X159735952Y-115498333D01*
X159688333Y-115545952D01*
X159640714Y-115641190D01*
X159640714Y-115784048D01*
X159688333Y-115879286D01*
X159735952Y-115926905D01*
X159831190Y-115974524D01*
X160116905Y-115974524D01*
X160212143Y-115926905D01*
X160259762Y-115879286D01*
X160307381Y-115784048D01*
X160307381Y-115641190D01*
X160307381Y-116831667D02*
X159307381Y-116831667D01*
X160259762Y-116831667D02*
X160307381Y-116736429D01*
X160307381Y-116545952D01*
X160259762Y-116450714D01*
X160212143Y-116403095D01*
X160116905Y-116355476D01*
X159831190Y-116355476D01*
X159735952Y-116403095D01*
X159688333Y-116450714D01*
X159640714Y-116545952D01*
X159640714Y-116736429D01*
X159688333Y-116831667D01*
X160259762Y-117688810D02*
X160307381Y-117593572D01*
X160307381Y-117403095D01*
X160259762Y-117307857D01*
X160164524Y-117260238D01*
X159783571Y-117260238D01*
X159688333Y-117307857D01*
X159640714Y-117403095D01*
X159640714Y-117593572D01*
X159688333Y-117688810D01*
X159783571Y-117736429D01*
X159878810Y-117736429D01*
X159974048Y-117260238D01*
X160907381Y-106117380D02*
X160907381Y-106736428D01*
X161288333Y-106403094D01*
X161288333Y-106545952D01*
X161335952Y-106641190D01*
X161383571Y-106688809D01*
X161478810Y-106736428D01*
X161716905Y-106736428D01*
X161812143Y-106688809D01*
X161859762Y-106641190D01*
X161907381Y-106545952D01*
X161907381Y-106260237D01*
X161859762Y-106164999D01*
X161812143Y-106117380D01*
X161812143Y-107164999D02*
X161859762Y-107212618D01*
X161907381Y-107164999D01*
X161859762Y-107117380D01*
X161812143Y-107164999D01*
X161907381Y-107164999D01*
X160907381Y-107545951D02*
X160907381Y-108164999D01*
X161288333Y-107831665D01*
X161288333Y-107974523D01*
X161335952Y-108069761D01*
X161383571Y-108117380D01*
X161478810Y-108164999D01*
X161716905Y-108164999D01*
X161812143Y-108117380D01*
X161859762Y-108069761D01*
X161907381Y-107974523D01*
X161907381Y-107688808D01*
X161859762Y-107593570D01*
X161812143Y-107545951D01*
X160907381Y-108450713D02*
X161907381Y-108784046D01*
X160907381Y-109117380D01*
X161907381Y-110212618D02*
X160907381Y-110212618D01*
X161002619Y-110641189D02*
X160955000Y-110688808D01*
X160907381Y-110784046D01*
X160907381Y-111022142D01*
X160955000Y-111117380D01*
X161002619Y-111164999D01*
X161097857Y-111212618D01*
X161193095Y-111212618D01*
X161335952Y-111164999D01*
X161907381Y-110593570D01*
X161907381Y-111212618D01*
X161812143Y-112212618D02*
X161859762Y-112164999D01*
X161907381Y-112022142D01*
X161907381Y-111926904D01*
X161859762Y-111784046D01*
X161764524Y-111688808D01*
X161669286Y-111641189D01*
X161478810Y-111593570D01*
X161335952Y-111593570D01*
X161145476Y-111641189D01*
X161050238Y-111688808D01*
X160955000Y-111784046D01*
X160907381Y-111926904D01*
X160907381Y-112022142D01*
X160955000Y-112164999D01*
X161002619Y-112212618D01*
X161859762Y-113831666D02*
X161907381Y-113736428D01*
X161907381Y-113545951D01*
X161859762Y-113450713D01*
X161812143Y-113403094D01*
X161716905Y-113355475D01*
X161431190Y-113355475D01*
X161335952Y-113403094D01*
X161288333Y-113450713D01*
X161240714Y-113545951D01*
X161240714Y-113736428D01*
X161288333Y-113831666D01*
X161907381Y-114403094D02*
X161859762Y-114307856D01*
X161812143Y-114260237D01*
X161716905Y-114212618D01*
X161431190Y-114212618D01*
X161335952Y-114260237D01*
X161288333Y-114307856D01*
X161240714Y-114403094D01*
X161240714Y-114545952D01*
X161288333Y-114641190D01*
X161335952Y-114688809D01*
X161431190Y-114736428D01*
X161716905Y-114736428D01*
X161812143Y-114688809D01*
X161859762Y-114641190D01*
X161907381Y-114545952D01*
X161907381Y-114403094D01*
X161240714Y-115164999D02*
X161907381Y-115164999D01*
X161335952Y-115164999D02*
X161288333Y-115212618D01*
X161240714Y-115307856D01*
X161240714Y-115450714D01*
X161288333Y-115545952D01*
X161383571Y-115593571D01*
X161907381Y-115593571D01*
X161240714Y-116069761D02*
X161907381Y-116069761D01*
X161335952Y-116069761D02*
X161288333Y-116117380D01*
X161240714Y-116212618D01*
X161240714Y-116355476D01*
X161288333Y-116450714D01*
X161383571Y-116498333D01*
X161907381Y-116498333D01*
X161859762Y-117355476D02*
X161907381Y-117260238D01*
X161907381Y-117069761D01*
X161859762Y-116974523D01*
X161764524Y-116926904D01*
X161383571Y-116926904D01*
X161288333Y-116974523D01*
X161240714Y-117069761D01*
X161240714Y-117260238D01*
X161288333Y-117355476D01*
X161383571Y-117403095D01*
X161478810Y-117403095D01*
X161574048Y-116926904D01*
X161859762Y-118260238D02*
X161907381Y-118165000D01*
X161907381Y-117974523D01*
X161859762Y-117879285D01*
X161812143Y-117831666D01*
X161716905Y-117784047D01*
X161431190Y-117784047D01*
X161335952Y-117831666D01*
X161288333Y-117879285D01*
X161240714Y-117974523D01*
X161240714Y-118165000D01*
X161288333Y-118260238D01*
X161240714Y-118545952D02*
X161240714Y-118926904D01*
X160907381Y-118688809D02*
X161764524Y-118688809D01*
X161859762Y-118736428D01*
X161907381Y-118831666D01*
X161907381Y-118926904D01*
X161907381Y-119403095D02*
X161859762Y-119307857D01*
X161812143Y-119260238D01*
X161716905Y-119212619D01*
X161431190Y-119212619D01*
X161335952Y-119260238D01*
X161288333Y-119307857D01*
X161240714Y-119403095D01*
X161240714Y-119545953D01*
X161288333Y-119641191D01*
X161335952Y-119688810D01*
X161431190Y-119736429D01*
X161716905Y-119736429D01*
X161812143Y-119688810D01*
X161859762Y-119641191D01*
X161907381Y-119545953D01*
X161907381Y-119403095D01*
X161907381Y-120165000D02*
X161240714Y-120165000D01*
X161431190Y-120165000D02*
X161335952Y-120212619D01*
X161288333Y-120260238D01*
X161240714Y-120355476D01*
X161240714Y-120450715D01*
X161859762Y-120736429D02*
X161907381Y-120831667D01*
X161907381Y-121022143D01*
X161859762Y-121117382D01*
X161764524Y-121165001D01*
X161716905Y-121165001D01*
X161621667Y-121117382D01*
X161574048Y-121022143D01*
X161574048Y-120879286D01*
X161526429Y-120784048D01*
X161431190Y-120736429D01*
X161383571Y-120736429D01*
X161288333Y-120784048D01*
X161240714Y-120879286D01*
X161240714Y-121022143D01*
X161288333Y-121117382D01*
D11*
X164525000Y-126305000D02*
X164525000Y-128965000D01*
X149225000Y-126305000D02*
X164525000Y-126305000D01*
X149225000Y-128965000D02*
X164525000Y-128965000D01*
X149225000Y-126305000D02*
X149225000Y-128965000D01*
X147955000Y-126305000D02*
X146625000Y-126305000D01*
X146625000Y-126305000D02*
X146625000Y-127635000D01*
X164525000Y-99000000D02*
X164525000Y-101660000D01*
X149225000Y-99000000D02*
X164525000Y-99000000D01*
X149225000Y-101660000D02*
X164525000Y-101660000D01*
X149225000Y-99000000D02*
X149225000Y-101660000D01*
X147955000Y-99000000D02*
X146625000Y-99000000D01*
X146625000Y-99000000D02*
X146625000Y-100330000D01*
D12*
X145502381Y-127301667D02*
X146216667Y-127301667D01*
X146359524Y-127254047D01*
X146454762Y-127158809D01*
X146502381Y-127015952D01*
X146502381Y-126920714D01*
X145502381Y-127682619D02*
X145502381Y-128301667D01*
X145883333Y-127968333D01*
X145883333Y-128111191D01*
X145930952Y-128206429D01*
X145978571Y-128254048D01*
X146073810Y-128301667D01*
X146311905Y-128301667D01*
X146407143Y-128254048D01*
X146454762Y-128206429D01*
X146502381Y-128111191D01*
X146502381Y-127825476D01*
X146454762Y-127730238D01*
X146407143Y-127682619D01*
X145502381Y-99996667D02*
X146216667Y-99996667D01*
X146359524Y-99949047D01*
X146454762Y-99853809D01*
X146502381Y-99710952D01*
X146502381Y-99615714D01*
X145835714Y-100901429D02*
X146502381Y-100901429D01*
X145454762Y-100663333D02*
X146169048Y-100425238D01*
X146169048Y-101044286D01*
M02*
