G04 #@! TF.FileFunction,Copper,L2,Bot,Signal*
%FSLAX46Y46*%
G04 Gerber Fmt 4.6, Leading zero omitted, Abs format (unit mm)*
G04 Created by KiCad (PCBNEW 4.0.7-e2-6376~58~ubuntu17.04.1) date Wed Oct  4 01:23:29 2017*
%MOMM*%
%LPD*%
G01*
G04 APERTURE LIST*
%ADD10C,0.100000*%
%ADD11R,1.308000X1.308000*%
%ADD12C,1.308000*%
%ADD13R,1.700000X1.700000*%
%ADD14O,1.700000X1.700000*%
%ADD15C,0.600000*%
%ADD16C,0.250000*%
%ADD17C,0.254000*%
G04 APERTURE END LIST*
D10*
D11*
X175641000Y-113665000D03*
D12*
X175641000Y-111125000D03*
X175641000Y-108585000D03*
X175641000Y-106045000D03*
X175641000Y-103505000D03*
X146050000Y-113665000D03*
X146050000Y-111125000D03*
X146050000Y-108585000D03*
X146050000Y-106045000D03*
D13*
X158750000Y-120650000D03*
D14*
X161290000Y-120650000D03*
X163830000Y-120650000D03*
X166370000Y-120650000D03*
X168910000Y-120650000D03*
X171450000Y-120650000D03*
X173990000Y-120650000D03*
X176530000Y-120650000D03*
D13*
X158750000Y-91440000D03*
D14*
X161290000Y-91440000D03*
X163830000Y-91440000D03*
X166370000Y-91440000D03*
X168910000Y-91440000D03*
X171450000Y-91440000D03*
X173990000Y-91440000D03*
X176530000Y-91440000D03*
D13*
X179705000Y-95885000D03*
D14*
X179705000Y-98425000D03*
X179705000Y-100965000D03*
X179705000Y-103505000D03*
X179705000Y-106045000D03*
X179705000Y-108585000D03*
X179705000Y-111125000D03*
X179705000Y-113665000D03*
X179705000Y-116205000D03*
D15*
X168910000Y-93980000D03*
D16*
X163830000Y-100739400D02*
X163830000Y-91440000D01*
X175238400Y-112147800D02*
X163830000Y-100739400D01*
X177506900Y-112147800D02*
X175238400Y-112147800D01*
X178529700Y-111125000D02*
X177506900Y-112147800D01*
X179705000Y-111125000D02*
X178529700Y-111125000D01*
X174642400Y-110126400D02*
X175641000Y-111125000D01*
X174642400Y-108171800D02*
X174642400Y-110126400D01*
X175499200Y-107315000D02*
X174642400Y-108171800D01*
X175784900Y-107315000D02*
X175499200Y-107315000D01*
X176678600Y-106421300D02*
X175784900Y-107315000D01*
X176678600Y-102259400D02*
X176678600Y-106421300D01*
X179337700Y-99600300D02*
X176678600Y-102259400D01*
X179705000Y-99600300D02*
X179337700Y-99600300D01*
X179705000Y-98425000D02*
X179705000Y-99600300D01*
X179705000Y-100965000D02*
X179705000Y-102140300D01*
X179337700Y-102140300D02*
X179705000Y-102140300D01*
X177579200Y-103898800D02*
X179337700Y-102140300D01*
X177579200Y-106646800D02*
X177579200Y-103898800D01*
X175641000Y-108585000D02*
X177579200Y-106646800D01*
D17*
G36*
X180925000Y-94519270D02*
X180806890Y-94438569D01*
X180555000Y-94387560D01*
X178855000Y-94387560D01*
X178619683Y-94431838D01*
X178403559Y-94570910D01*
X178258569Y-94783110D01*
X178207560Y-95035000D01*
X178207560Y-96735000D01*
X178251838Y-96970317D01*
X178390910Y-97186441D01*
X178603110Y-97331431D01*
X178670541Y-97345086D01*
X178625853Y-97374946D01*
X178303946Y-97856715D01*
X178190907Y-98425000D01*
X178303946Y-98993285D01*
X178530640Y-99332558D01*
X176141199Y-101721999D01*
X175976452Y-101968561D01*
X175925001Y-102227219D01*
X175898523Y-102216224D01*
X175385727Y-102215777D01*
X174911794Y-102411602D01*
X174548876Y-102773887D01*
X174352224Y-103247477D01*
X174351777Y-103760273D01*
X174547602Y-104234206D01*
X174909887Y-104597124D01*
X175338730Y-104775196D01*
X174911794Y-104951602D01*
X174548876Y-105313887D01*
X174352224Y-105787477D01*
X174351777Y-106300273D01*
X174547602Y-106774206D01*
X174756215Y-106983183D01*
X174104999Y-107634399D01*
X173940252Y-107880961D01*
X173882400Y-108171800D01*
X173882400Y-109716998D01*
X164590000Y-100424598D01*
X164590000Y-92712954D01*
X164880054Y-92519147D01*
X165100000Y-92189974D01*
X165319946Y-92519147D01*
X165801715Y-92841054D01*
X166370000Y-92954093D01*
X166938285Y-92841054D01*
X167420054Y-92519147D01*
X167640000Y-92189974D01*
X167859946Y-92519147D01*
X168341715Y-92841054D01*
X168910000Y-92954093D01*
X169478285Y-92841054D01*
X169960054Y-92519147D01*
X170180000Y-92189974D01*
X170399946Y-92519147D01*
X170881715Y-92841054D01*
X171450000Y-92954093D01*
X172018285Y-92841054D01*
X172500054Y-92519147D01*
X172720000Y-92189974D01*
X172939946Y-92519147D01*
X173421715Y-92841054D01*
X173990000Y-92954093D01*
X174558285Y-92841054D01*
X175040054Y-92519147D01*
X175260000Y-92189974D01*
X175479946Y-92519147D01*
X175961715Y-92841054D01*
X176530000Y-92954093D01*
X177098285Y-92841054D01*
X177580054Y-92519147D01*
X177901961Y-92037378D01*
X178015000Y-91469093D01*
X178015000Y-91410907D01*
X177901961Y-90842622D01*
X177580054Y-90360853D01*
X177098285Y-90038946D01*
X176530000Y-89925907D01*
X175961715Y-90038946D01*
X175479946Y-90360853D01*
X175260000Y-90690026D01*
X175040054Y-90360853D01*
X174558285Y-90038946D01*
X173990000Y-89925907D01*
X173421715Y-90038946D01*
X172939946Y-90360853D01*
X172720000Y-90690026D01*
X172500054Y-90360853D01*
X172018285Y-90038946D01*
X171450000Y-89925907D01*
X170881715Y-90038946D01*
X170399946Y-90360853D01*
X170180000Y-90690026D01*
X169960054Y-90360853D01*
X169478285Y-90038946D01*
X168910000Y-89925907D01*
X168341715Y-90038946D01*
X167859946Y-90360853D01*
X167640000Y-90690026D01*
X167420054Y-90360853D01*
X166938285Y-90038946D01*
X166370000Y-89925907D01*
X165801715Y-90038946D01*
X165319946Y-90360853D01*
X165100000Y-90690026D01*
X164880054Y-90360853D01*
X164398285Y-90038946D01*
X163830000Y-89925907D01*
X163261715Y-90038946D01*
X162779946Y-90360853D01*
X162560000Y-90690026D01*
X162340054Y-90360853D01*
X161858285Y-90038946D01*
X161290000Y-89925907D01*
X160721715Y-90038946D01*
X160239946Y-90360853D01*
X160212150Y-90402452D01*
X160203162Y-90354683D01*
X160064090Y-90138559D01*
X159851890Y-89993569D01*
X159600000Y-89942560D01*
X157900000Y-89942560D01*
X157664683Y-89986838D01*
X157448559Y-90125910D01*
X157303569Y-90338110D01*
X157252560Y-90590000D01*
X157252560Y-92290000D01*
X157296838Y-92525317D01*
X157435910Y-92741441D01*
X157648110Y-92886431D01*
X157900000Y-92937440D01*
X159600000Y-92937440D01*
X159835317Y-92893162D01*
X160051441Y-92754090D01*
X160196431Y-92541890D01*
X160210086Y-92474459D01*
X160239946Y-92519147D01*
X160721715Y-92841054D01*
X161290000Y-92954093D01*
X161858285Y-92841054D01*
X162340054Y-92519147D01*
X162560000Y-92189974D01*
X162779946Y-92519147D01*
X163070000Y-92712954D01*
X163070000Y-100739400D01*
X163127852Y-101030239D01*
X163292599Y-101276801D01*
X174552078Y-112536280D01*
X174535559Y-112546910D01*
X174390569Y-112759110D01*
X174339560Y-113011000D01*
X174339560Y-114319000D01*
X174383838Y-114554317D01*
X174522910Y-114770441D01*
X174735110Y-114915431D01*
X174987000Y-114966440D01*
X176295000Y-114966440D01*
X176530317Y-114922162D01*
X176746441Y-114783090D01*
X176891431Y-114570890D01*
X176942440Y-114319000D01*
X176942440Y-113011000D01*
X176923022Y-112907800D01*
X177506900Y-112907800D01*
X177797739Y-112849948D01*
X178044301Y-112685201D01*
X178597252Y-112132250D01*
X178625853Y-112175054D01*
X178955026Y-112395000D01*
X178625853Y-112614946D01*
X178303946Y-113096715D01*
X178190907Y-113665000D01*
X178303946Y-114233285D01*
X178625853Y-114715054D01*
X178955026Y-114935000D01*
X178625853Y-115154946D01*
X178303946Y-115636715D01*
X178190907Y-116205000D01*
X178303946Y-116773285D01*
X178625853Y-117255054D01*
X179107622Y-117576961D01*
X179675907Y-117690000D01*
X179734093Y-117690000D01*
X180302378Y-117576961D01*
X180784147Y-117255054D01*
X180925000Y-117044252D01*
X180925000Y-122505000D01*
X146968736Y-122505000D01*
X144830000Y-120366264D01*
X144830000Y-119800000D01*
X157252560Y-119800000D01*
X157252560Y-121500000D01*
X157296838Y-121735317D01*
X157435910Y-121951441D01*
X157648110Y-122096431D01*
X157900000Y-122147440D01*
X159600000Y-122147440D01*
X159835317Y-122103162D01*
X160051441Y-121964090D01*
X160196431Y-121751890D01*
X160210086Y-121684459D01*
X160239946Y-121729147D01*
X160721715Y-122051054D01*
X161290000Y-122164093D01*
X161858285Y-122051054D01*
X162340054Y-121729147D01*
X162560000Y-121399974D01*
X162779946Y-121729147D01*
X163261715Y-122051054D01*
X163830000Y-122164093D01*
X164398285Y-122051054D01*
X164880054Y-121729147D01*
X165100000Y-121399974D01*
X165319946Y-121729147D01*
X165801715Y-122051054D01*
X166370000Y-122164093D01*
X166938285Y-122051054D01*
X167420054Y-121729147D01*
X167640000Y-121399974D01*
X167859946Y-121729147D01*
X168341715Y-122051054D01*
X168910000Y-122164093D01*
X169478285Y-122051054D01*
X169960054Y-121729147D01*
X170180000Y-121399974D01*
X170399946Y-121729147D01*
X170881715Y-122051054D01*
X171450000Y-122164093D01*
X172018285Y-122051054D01*
X172500054Y-121729147D01*
X172720000Y-121399974D01*
X172939946Y-121729147D01*
X173421715Y-122051054D01*
X173990000Y-122164093D01*
X174558285Y-122051054D01*
X175040054Y-121729147D01*
X175260000Y-121399974D01*
X175479946Y-121729147D01*
X175961715Y-122051054D01*
X176530000Y-122164093D01*
X177098285Y-122051054D01*
X177580054Y-121729147D01*
X177901961Y-121247378D01*
X178015000Y-120679093D01*
X178015000Y-120620907D01*
X177901961Y-120052622D01*
X177580054Y-119570853D01*
X177098285Y-119248946D01*
X176530000Y-119135907D01*
X175961715Y-119248946D01*
X175479946Y-119570853D01*
X175260000Y-119900026D01*
X175040054Y-119570853D01*
X174558285Y-119248946D01*
X173990000Y-119135907D01*
X173421715Y-119248946D01*
X172939946Y-119570853D01*
X172720000Y-119900026D01*
X172500054Y-119570853D01*
X172018285Y-119248946D01*
X171450000Y-119135907D01*
X170881715Y-119248946D01*
X170399946Y-119570853D01*
X170180000Y-119900026D01*
X169960054Y-119570853D01*
X169478285Y-119248946D01*
X168910000Y-119135907D01*
X168341715Y-119248946D01*
X167859946Y-119570853D01*
X167640000Y-119900026D01*
X167420054Y-119570853D01*
X166938285Y-119248946D01*
X166370000Y-119135907D01*
X165801715Y-119248946D01*
X165319946Y-119570853D01*
X165100000Y-119900026D01*
X164880054Y-119570853D01*
X164398285Y-119248946D01*
X163830000Y-119135907D01*
X163261715Y-119248946D01*
X162779946Y-119570853D01*
X162560000Y-119900026D01*
X162340054Y-119570853D01*
X161858285Y-119248946D01*
X161290000Y-119135907D01*
X160721715Y-119248946D01*
X160239946Y-119570853D01*
X160212150Y-119612452D01*
X160203162Y-119564683D01*
X160064090Y-119348559D01*
X159851890Y-119203569D01*
X159600000Y-119152560D01*
X157900000Y-119152560D01*
X157664683Y-119196838D01*
X157448559Y-119335910D01*
X157303569Y-119548110D01*
X157252560Y-119800000D01*
X144830000Y-119800000D01*
X144830000Y-114087806D01*
X144956602Y-114394206D01*
X145318887Y-114757124D01*
X145792477Y-114953776D01*
X146305273Y-114954223D01*
X146779206Y-114758398D01*
X147142124Y-114396113D01*
X147338776Y-113922523D01*
X147339223Y-113409727D01*
X147143398Y-112935794D01*
X146781113Y-112572876D01*
X146360573Y-112398253D01*
X146380069Y-112397130D01*
X146716138Y-112257926D01*
X146772312Y-112026917D01*
X146050000Y-111304605D01*
X145327688Y-112026917D01*
X145383862Y-112257926D01*
X145761550Y-112389485D01*
X145320794Y-112571602D01*
X144957876Y-112933887D01*
X144830000Y-113241846D01*
X144830000Y-111580922D01*
X144917074Y-111791138D01*
X145148083Y-111847312D01*
X145870395Y-111125000D01*
X146229605Y-111125000D01*
X146951917Y-111847312D01*
X147182926Y-111791138D01*
X147351607Y-111306879D01*
X147322130Y-110794931D01*
X147182926Y-110458862D01*
X146951917Y-110402688D01*
X146229605Y-111125000D01*
X145870395Y-111125000D01*
X145148083Y-110402688D01*
X144917074Y-110458862D01*
X144830000Y-110708839D01*
X144830000Y-109007806D01*
X144956602Y-109314206D01*
X145318887Y-109677124D01*
X145739427Y-109851747D01*
X145719931Y-109852870D01*
X145383862Y-109992074D01*
X145327688Y-110223083D01*
X146050000Y-110945395D01*
X146772312Y-110223083D01*
X146716138Y-109992074D01*
X146338450Y-109860515D01*
X146779206Y-109678398D01*
X147142124Y-109316113D01*
X147338776Y-108842523D01*
X147339223Y-108329727D01*
X147143398Y-107855794D01*
X146781113Y-107492876D01*
X146352270Y-107314804D01*
X146779206Y-107138398D01*
X147142124Y-106776113D01*
X147338776Y-106302523D01*
X147339223Y-105789727D01*
X147143398Y-105315794D01*
X146781113Y-104952876D01*
X146307523Y-104756224D01*
X145794727Y-104755777D01*
X145320794Y-104951602D01*
X144957876Y-105313887D01*
X144830000Y-105621846D01*
X144830000Y-91723736D01*
X146968736Y-89585000D01*
X180925000Y-89585000D01*
X180925000Y-94519270D01*
X180925000Y-94519270D01*
G37*
X180925000Y-94519270D02*
X180806890Y-94438569D01*
X180555000Y-94387560D01*
X178855000Y-94387560D01*
X178619683Y-94431838D01*
X178403559Y-94570910D01*
X178258569Y-94783110D01*
X178207560Y-95035000D01*
X178207560Y-96735000D01*
X178251838Y-96970317D01*
X178390910Y-97186441D01*
X178603110Y-97331431D01*
X178670541Y-97345086D01*
X178625853Y-97374946D01*
X178303946Y-97856715D01*
X178190907Y-98425000D01*
X178303946Y-98993285D01*
X178530640Y-99332558D01*
X176141199Y-101721999D01*
X175976452Y-101968561D01*
X175925001Y-102227219D01*
X175898523Y-102216224D01*
X175385727Y-102215777D01*
X174911794Y-102411602D01*
X174548876Y-102773887D01*
X174352224Y-103247477D01*
X174351777Y-103760273D01*
X174547602Y-104234206D01*
X174909887Y-104597124D01*
X175338730Y-104775196D01*
X174911794Y-104951602D01*
X174548876Y-105313887D01*
X174352224Y-105787477D01*
X174351777Y-106300273D01*
X174547602Y-106774206D01*
X174756215Y-106983183D01*
X174104999Y-107634399D01*
X173940252Y-107880961D01*
X173882400Y-108171800D01*
X173882400Y-109716998D01*
X164590000Y-100424598D01*
X164590000Y-92712954D01*
X164880054Y-92519147D01*
X165100000Y-92189974D01*
X165319946Y-92519147D01*
X165801715Y-92841054D01*
X166370000Y-92954093D01*
X166938285Y-92841054D01*
X167420054Y-92519147D01*
X167640000Y-92189974D01*
X167859946Y-92519147D01*
X168341715Y-92841054D01*
X168910000Y-92954093D01*
X169478285Y-92841054D01*
X169960054Y-92519147D01*
X170180000Y-92189974D01*
X170399946Y-92519147D01*
X170881715Y-92841054D01*
X171450000Y-92954093D01*
X172018285Y-92841054D01*
X172500054Y-92519147D01*
X172720000Y-92189974D01*
X172939946Y-92519147D01*
X173421715Y-92841054D01*
X173990000Y-92954093D01*
X174558285Y-92841054D01*
X175040054Y-92519147D01*
X175260000Y-92189974D01*
X175479946Y-92519147D01*
X175961715Y-92841054D01*
X176530000Y-92954093D01*
X177098285Y-92841054D01*
X177580054Y-92519147D01*
X177901961Y-92037378D01*
X178015000Y-91469093D01*
X178015000Y-91410907D01*
X177901961Y-90842622D01*
X177580054Y-90360853D01*
X177098285Y-90038946D01*
X176530000Y-89925907D01*
X175961715Y-90038946D01*
X175479946Y-90360853D01*
X175260000Y-90690026D01*
X175040054Y-90360853D01*
X174558285Y-90038946D01*
X173990000Y-89925907D01*
X173421715Y-90038946D01*
X172939946Y-90360853D01*
X172720000Y-90690026D01*
X172500054Y-90360853D01*
X172018285Y-90038946D01*
X171450000Y-89925907D01*
X170881715Y-90038946D01*
X170399946Y-90360853D01*
X170180000Y-90690026D01*
X169960054Y-90360853D01*
X169478285Y-90038946D01*
X168910000Y-89925907D01*
X168341715Y-90038946D01*
X167859946Y-90360853D01*
X167640000Y-90690026D01*
X167420054Y-90360853D01*
X166938285Y-90038946D01*
X166370000Y-89925907D01*
X165801715Y-90038946D01*
X165319946Y-90360853D01*
X165100000Y-90690026D01*
X164880054Y-90360853D01*
X164398285Y-90038946D01*
X163830000Y-89925907D01*
X163261715Y-90038946D01*
X162779946Y-90360853D01*
X162560000Y-90690026D01*
X162340054Y-90360853D01*
X161858285Y-90038946D01*
X161290000Y-89925907D01*
X160721715Y-90038946D01*
X160239946Y-90360853D01*
X160212150Y-90402452D01*
X160203162Y-90354683D01*
X160064090Y-90138559D01*
X159851890Y-89993569D01*
X159600000Y-89942560D01*
X157900000Y-89942560D01*
X157664683Y-89986838D01*
X157448559Y-90125910D01*
X157303569Y-90338110D01*
X157252560Y-90590000D01*
X157252560Y-92290000D01*
X157296838Y-92525317D01*
X157435910Y-92741441D01*
X157648110Y-92886431D01*
X157900000Y-92937440D01*
X159600000Y-92937440D01*
X159835317Y-92893162D01*
X160051441Y-92754090D01*
X160196431Y-92541890D01*
X160210086Y-92474459D01*
X160239946Y-92519147D01*
X160721715Y-92841054D01*
X161290000Y-92954093D01*
X161858285Y-92841054D01*
X162340054Y-92519147D01*
X162560000Y-92189974D01*
X162779946Y-92519147D01*
X163070000Y-92712954D01*
X163070000Y-100739400D01*
X163127852Y-101030239D01*
X163292599Y-101276801D01*
X174552078Y-112536280D01*
X174535559Y-112546910D01*
X174390569Y-112759110D01*
X174339560Y-113011000D01*
X174339560Y-114319000D01*
X174383838Y-114554317D01*
X174522910Y-114770441D01*
X174735110Y-114915431D01*
X174987000Y-114966440D01*
X176295000Y-114966440D01*
X176530317Y-114922162D01*
X176746441Y-114783090D01*
X176891431Y-114570890D01*
X176942440Y-114319000D01*
X176942440Y-113011000D01*
X176923022Y-112907800D01*
X177506900Y-112907800D01*
X177797739Y-112849948D01*
X178044301Y-112685201D01*
X178597252Y-112132250D01*
X178625853Y-112175054D01*
X178955026Y-112395000D01*
X178625853Y-112614946D01*
X178303946Y-113096715D01*
X178190907Y-113665000D01*
X178303946Y-114233285D01*
X178625853Y-114715054D01*
X178955026Y-114935000D01*
X178625853Y-115154946D01*
X178303946Y-115636715D01*
X178190907Y-116205000D01*
X178303946Y-116773285D01*
X178625853Y-117255054D01*
X179107622Y-117576961D01*
X179675907Y-117690000D01*
X179734093Y-117690000D01*
X180302378Y-117576961D01*
X180784147Y-117255054D01*
X180925000Y-117044252D01*
X180925000Y-122505000D01*
X146968736Y-122505000D01*
X144830000Y-120366264D01*
X144830000Y-119800000D01*
X157252560Y-119800000D01*
X157252560Y-121500000D01*
X157296838Y-121735317D01*
X157435910Y-121951441D01*
X157648110Y-122096431D01*
X157900000Y-122147440D01*
X159600000Y-122147440D01*
X159835317Y-122103162D01*
X160051441Y-121964090D01*
X160196431Y-121751890D01*
X160210086Y-121684459D01*
X160239946Y-121729147D01*
X160721715Y-122051054D01*
X161290000Y-122164093D01*
X161858285Y-122051054D01*
X162340054Y-121729147D01*
X162560000Y-121399974D01*
X162779946Y-121729147D01*
X163261715Y-122051054D01*
X163830000Y-122164093D01*
X164398285Y-122051054D01*
X164880054Y-121729147D01*
X165100000Y-121399974D01*
X165319946Y-121729147D01*
X165801715Y-122051054D01*
X166370000Y-122164093D01*
X166938285Y-122051054D01*
X167420054Y-121729147D01*
X167640000Y-121399974D01*
X167859946Y-121729147D01*
X168341715Y-122051054D01*
X168910000Y-122164093D01*
X169478285Y-122051054D01*
X169960054Y-121729147D01*
X170180000Y-121399974D01*
X170399946Y-121729147D01*
X170881715Y-122051054D01*
X171450000Y-122164093D01*
X172018285Y-122051054D01*
X172500054Y-121729147D01*
X172720000Y-121399974D01*
X172939946Y-121729147D01*
X173421715Y-122051054D01*
X173990000Y-122164093D01*
X174558285Y-122051054D01*
X175040054Y-121729147D01*
X175260000Y-121399974D01*
X175479946Y-121729147D01*
X175961715Y-122051054D01*
X176530000Y-122164093D01*
X177098285Y-122051054D01*
X177580054Y-121729147D01*
X177901961Y-121247378D01*
X178015000Y-120679093D01*
X178015000Y-120620907D01*
X177901961Y-120052622D01*
X177580054Y-119570853D01*
X177098285Y-119248946D01*
X176530000Y-119135907D01*
X175961715Y-119248946D01*
X175479946Y-119570853D01*
X175260000Y-119900026D01*
X175040054Y-119570853D01*
X174558285Y-119248946D01*
X173990000Y-119135907D01*
X173421715Y-119248946D01*
X172939946Y-119570853D01*
X172720000Y-119900026D01*
X172500054Y-119570853D01*
X172018285Y-119248946D01*
X171450000Y-119135907D01*
X170881715Y-119248946D01*
X170399946Y-119570853D01*
X170180000Y-119900026D01*
X169960054Y-119570853D01*
X169478285Y-119248946D01*
X168910000Y-119135907D01*
X168341715Y-119248946D01*
X167859946Y-119570853D01*
X167640000Y-119900026D01*
X167420054Y-119570853D01*
X166938285Y-119248946D01*
X166370000Y-119135907D01*
X165801715Y-119248946D01*
X165319946Y-119570853D01*
X165100000Y-119900026D01*
X164880054Y-119570853D01*
X164398285Y-119248946D01*
X163830000Y-119135907D01*
X163261715Y-119248946D01*
X162779946Y-119570853D01*
X162560000Y-119900026D01*
X162340054Y-119570853D01*
X161858285Y-119248946D01*
X161290000Y-119135907D01*
X160721715Y-119248946D01*
X160239946Y-119570853D01*
X160212150Y-119612452D01*
X160203162Y-119564683D01*
X160064090Y-119348559D01*
X159851890Y-119203569D01*
X159600000Y-119152560D01*
X157900000Y-119152560D01*
X157664683Y-119196838D01*
X157448559Y-119335910D01*
X157303569Y-119548110D01*
X157252560Y-119800000D01*
X144830000Y-119800000D01*
X144830000Y-114087806D01*
X144956602Y-114394206D01*
X145318887Y-114757124D01*
X145792477Y-114953776D01*
X146305273Y-114954223D01*
X146779206Y-114758398D01*
X147142124Y-114396113D01*
X147338776Y-113922523D01*
X147339223Y-113409727D01*
X147143398Y-112935794D01*
X146781113Y-112572876D01*
X146360573Y-112398253D01*
X146380069Y-112397130D01*
X146716138Y-112257926D01*
X146772312Y-112026917D01*
X146050000Y-111304605D01*
X145327688Y-112026917D01*
X145383862Y-112257926D01*
X145761550Y-112389485D01*
X145320794Y-112571602D01*
X144957876Y-112933887D01*
X144830000Y-113241846D01*
X144830000Y-111580922D01*
X144917074Y-111791138D01*
X145148083Y-111847312D01*
X145870395Y-111125000D01*
X146229605Y-111125000D01*
X146951917Y-111847312D01*
X147182926Y-111791138D01*
X147351607Y-111306879D01*
X147322130Y-110794931D01*
X147182926Y-110458862D01*
X146951917Y-110402688D01*
X146229605Y-111125000D01*
X145870395Y-111125000D01*
X145148083Y-110402688D01*
X144917074Y-110458862D01*
X144830000Y-110708839D01*
X144830000Y-109007806D01*
X144956602Y-109314206D01*
X145318887Y-109677124D01*
X145739427Y-109851747D01*
X145719931Y-109852870D01*
X145383862Y-109992074D01*
X145327688Y-110223083D01*
X146050000Y-110945395D01*
X146772312Y-110223083D01*
X146716138Y-109992074D01*
X146338450Y-109860515D01*
X146779206Y-109678398D01*
X147142124Y-109316113D01*
X147338776Y-108842523D01*
X147339223Y-108329727D01*
X147143398Y-107855794D01*
X146781113Y-107492876D01*
X146352270Y-107314804D01*
X146779206Y-107138398D01*
X147142124Y-106776113D01*
X147338776Y-106302523D01*
X147339223Y-105789727D01*
X147143398Y-105315794D01*
X146781113Y-104952876D01*
X146307523Y-104756224D01*
X145794727Y-104755777D01*
X145320794Y-104951602D01*
X144957876Y-105313887D01*
X144830000Y-105621846D01*
X144830000Y-91723736D01*
X146968736Y-89585000D01*
X180925000Y-89585000D01*
X180925000Y-94519270D01*
M02*
