G04 #@! TF.FileFunction,Legend,Top*
%FSLAX46Y46*%
G04 Gerber Fmt 4.6, Leading zero omitted, Abs format (unit mm)*
G04 Created by KiCad (PCBNEW 4.0.7-e2-6376~58~ubuntu17.04.1) date Wed Oct  4 01:23:29 2017*
%MOMM*%
%LPD*%
G01*
G04 APERTURE LIST*
%ADD10C,0.100000*%
%ADD11C,0.127000*%
%ADD12C,0.120000*%
%ADD13C,0.010000*%
%ADD14C,0.050000*%
G04 APERTURE END LIST*
D10*
X172370000Y-96418333D02*
X172336667Y-96484999D01*
X172336667Y-96584999D01*
X172370000Y-96684999D01*
X172436667Y-96751666D01*
X172503333Y-96784999D01*
X172636667Y-96818333D01*
X172736667Y-96818333D01*
X172870000Y-96784999D01*
X172936667Y-96751666D01*
X173003333Y-96684999D01*
X173036667Y-96584999D01*
X173036667Y-96518333D01*
X173003333Y-96418333D01*
X172970000Y-96384999D01*
X172736667Y-96384999D01*
X172736667Y-96518333D01*
X173036667Y-96084999D02*
X172336667Y-96084999D01*
X173036667Y-95684999D01*
X172336667Y-95684999D01*
X173036667Y-95351666D02*
X172336667Y-95351666D01*
X172336667Y-95185000D01*
X172370000Y-95085000D01*
X172436667Y-95018333D01*
X172503333Y-94985000D01*
X172636667Y-94951666D01*
X172736667Y-94951666D01*
X172870000Y-94985000D01*
X172936667Y-95018333D01*
X173003333Y-95085000D01*
X173036667Y-95185000D01*
X173036667Y-95351666D01*
X164515000Y-97118333D02*
X164515000Y-96585000D01*
X164781667Y-96851667D02*
X164248333Y-96851667D01*
X164081667Y-96318333D02*
X164081667Y-95885000D01*
X164348333Y-96118333D01*
X164348333Y-96018333D01*
X164381667Y-95951666D01*
X164415000Y-95918333D01*
X164481667Y-95885000D01*
X164648333Y-95885000D01*
X164715000Y-95918333D01*
X164748333Y-95951666D01*
X164781667Y-96018333D01*
X164781667Y-96218333D01*
X164748333Y-96285000D01*
X164715000Y-96318333D01*
X164081667Y-95684999D02*
X164781667Y-95451666D01*
X164081667Y-95218333D01*
X164081667Y-95051666D02*
X164081667Y-94618333D01*
X164348333Y-94851666D01*
X164348333Y-94751666D01*
X164381667Y-94684999D01*
X164415000Y-94651666D01*
X164481667Y-94618333D01*
X164648333Y-94618333D01*
X164715000Y-94651666D01*
X164748333Y-94684999D01*
X164781667Y-94751666D01*
X164781667Y-94951666D01*
X164748333Y-95018333D01*
X164715000Y-95051666D01*
X159701667Y-96401666D02*
X159001667Y-96401666D01*
X159001667Y-96235000D01*
X159035000Y-96135000D01*
X159101667Y-96068333D01*
X159168333Y-96035000D01*
X159301667Y-96001666D01*
X159401667Y-96001666D01*
X159535000Y-96035000D01*
X159601667Y-96068333D01*
X159668333Y-96135000D01*
X159701667Y-96235000D01*
X159701667Y-96401666D01*
X159001667Y-95368333D02*
X159001667Y-95701666D01*
X159335000Y-95735000D01*
X159301667Y-95701666D01*
X159268333Y-95635000D01*
X159268333Y-95468333D01*
X159301667Y-95401666D01*
X159335000Y-95368333D01*
X159401667Y-95335000D01*
X159568333Y-95335000D01*
X159635000Y-95368333D01*
X159668333Y-95401666D01*
X159701667Y-95468333D01*
X159701667Y-95635000D01*
X159668333Y-95701666D01*
X159635000Y-95735000D01*
X167956667Y-96401666D02*
X167256667Y-96401666D01*
X167256667Y-96235000D01*
X167290000Y-96135000D01*
X167356667Y-96068333D01*
X167423333Y-96035000D01*
X167556667Y-96001666D01*
X167656667Y-96001666D01*
X167790000Y-96035000D01*
X167856667Y-96068333D01*
X167923333Y-96135000D01*
X167956667Y-96235000D01*
X167956667Y-96401666D01*
X167256667Y-95401666D02*
X167256667Y-95535000D01*
X167290000Y-95601666D01*
X167323333Y-95635000D01*
X167423333Y-95701666D01*
X167556667Y-95735000D01*
X167823333Y-95735000D01*
X167890000Y-95701666D01*
X167923333Y-95668333D01*
X167956667Y-95601666D01*
X167956667Y-95468333D01*
X167923333Y-95401666D01*
X167890000Y-95368333D01*
X167823333Y-95335000D01*
X167656667Y-95335000D01*
X167590000Y-95368333D01*
X167556667Y-95401666D01*
X167523333Y-95468333D01*
X167523333Y-95601666D01*
X167556667Y-95668333D01*
X167590000Y-95701666D01*
X167656667Y-95735000D01*
X149960000Y-95202142D02*
X149960000Y-94916428D01*
X150131429Y-95259285D02*
X149531429Y-95059285D01*
X150131429Y-94859285D01*
X150131429Y-94373571D02*
X150131429Y-94659285D01*
X149531429Y-94659285D01*
X149531429Y-94059285D02*
X149531429Y-93944999D01*
X149560000Y-93887857D01*
X149617143Y-93830714D01*
X149731429Y-93802142D01*
X149931429Y-93802142D01*
X150045714Y-93830714D01*
X150102857Y-93887857D01*
X150131429Y-93944999D01*
X150131429Y-94059285D01*
X150102857Y-94116428D01*
X150045714Y-94173571D01*
X149931429Y-94202142D01*
X149731429Y-94202142D01*
X149617143Y-94173571D01*
X149560000Y-94116428D01*
X149531429Y-94059285D01*
X149817143Y-93545000D02*
X149817143Y-93345000D01*
X150131429Y-93259286D02*
X150131429Y-93545000D01*
X149531429Y-93545000D01*
X149531429Y-93259286D01*
X150102857Y-93030714D02*
X150131429Y-92945000D01*
X150131429Y-92802143D01*
X150102857Y-92745000D01*
X150074286Y-92716429D01*
X150017143Y-92687857D01*
X149960000Y-92687857D01*
X149902857Y-92716429D01*
X149874286Y-92745000D01*
X149845714Y-92802143D01*
X149817143Y-92916429D01*
X149788571Y-92973571D01*
X149760000Y-93002143D01*
X149702857Y-93030714D01*
X149645714Y-93030714D01*
X149588571Y-93002143D01*
X149560000Y-92973571D01*
X149531429Y-92916429D01*
X149531429Y-92773571D01*
X149560000Y-92687857D01*
X150074286Y-92430714D02*
X150102857Y-92402142D01*
X150131429Y-92430714D01*
X150102857Y-92459285D01*
X150074286Y-92430714D01*
X150131429Y-92430714D01*
X150131429Y-92145000D02*
X149531429Y-92145000D01*
X149531429Y-91745000D02*
X149531429Y-91630714D01*
X149560000Y-91573572D01*
X149617143Y-91516429D01*
X149731429Y-91487857D01*
X149931429Y-91487857D01*
X150045714Y-91516429D01*
X150102857Y-91573572D01*
X150131429Y-91630714D01*
X150131429Y-91745000D01*
X150102857Y-91802143D01*
X150045714Y-91859286D01*
X149931429Y-91887857D01*
X149731429Y-91887857D01*
X149617143Y-91859286D01*
X149560000Y-91802143D01*
X149531429Y-91745000D01*
X176646667Y-90035000D02*
X176646667Y-89701666D01*
X176846667Y-90101666D02*
X176146667Y-89868333D01*
X176846667Y-89635000D01*
X176146667Y-89468333D02*
X176146667Y-89001666D01*
X176846667Y-89301666D01*
X174106667Y-90035000D02*
X174106667Y-89701666D01*
X174306667Y-90101666D02*
X173606667Y-89868333D01*
X174306667Y-89635000D01*
X173606667Y-89068333D02*
X173606667Y-89401666D01*
X173940000Y-89435000D01*
X173906667Y-89401666D01*
X173873333Y-89335000D01*
X173873333Y-89168333D01*
X173906667Y-89101666D01*
X173940000Y-89068333D01*
X174006667Y-89035000D01*
X174173333Y-89035000D01*
X174240000Y-89068333D01*
X174273333Y-89101666D01*
X174306667Y-89168333D01*
X174306667Y-89335000D01*
X174273333Y-89401666D01*
X174240000Y-89435000D01*
X171566667Y-90035000D02*
X171566667Y-89701666D01*
X171766667Y-90101666D02*
X171066667Y-89868333D01*
X171766667Y-89635000D01*
X171300000Y-89101666D02*
X171766667Y-89101666D01*
X171033333Y-89268333D02*
X171533333Y-89435000D01*
X171533333Y-89001666D01*
X167106667Y-89185000D02*
X167040001Y-89151667D01*
X166940001Y-89151667D01*
X166840001Y-89185000D01*
X166773334Y-89251667D01*
X166740001Y-89318333D01*
X166706667Y-89451667D01*
X166706667Y-89551667D01*
X166740001Y-89685000D01*
X166773334Y-89751667D01*
X166840001Y-89818333D01*
X166940001Y-89851667D01*
X167006667Y-89851667D01*
X167106667Y-89818333D01*
X167140001Y-89785000D01*
X167140001Y-89551667D01*
X167006667Y-89551667D01*
X167440001Y-89851667D02*
X167440001Y-89151667D01*
X167840001Y-89851667D01*
X167840001Y-89151667D01*
X168173334Y-89851667D02*
X168173334Y-89151667D01*
X168340000Y-89151667D01*
X168440000Y-89185000D01*
X168506667Y-89251667D01*
X168540000Y-89318333D01*
X168573334Y-89451667D01*
X168573334Y-89551667D01*
X168540000Y-89685000D01*
X168506667Y-89751667D01*
X168440000Y-89818333D01*
X168340000Y-89851667D01*
X168173334Y-89851667D01*
X161326667Y-89585000D02*
X161860000Y-89585000D01*
X161593333Y-89851667D02*
X161593333Y-89318333D01*
X162126667Y-89151667D02*
X162560000Y-89151667D01*
X162326667Y-89418333D01*
X162426667Y-89418333D01*
X162493334Y-89451667D01*
X162526667Y-89485000D01*
X162560000Y-89551667D01*
X162560000Y-89718333D01*
X162526667Y-89785000D01*
X162493334Y-89818333D01*
X162426667Y-89851667D01*
X162226667Y-89851667D01*
X162160000Y-89818333D01*
X162126667Y-89785000D01*
X162760001Y-89151667D02*
X162993334Y-89851667D01*
X163226667Y-89151667D01*
X163393334Y-89151667D02*
X163826667Y-89151667D01*
X163593334Y-89418333D01*
X163693334Y-89418333D01*
X163760001Y-89451667D01*
X163793334Y-89485000D01*
X163826667Y-89551667D01*
X163826667Y-89718333D01*
X163793334Y-89785000D01*
X163760001Y-89818333D01*
X163693334Y-89851667D01*
X163493334Y-89851667D01*
X163426667Y-89818333D01*
X163393334Y-89785000D01*
X157800000Y-89485000D02*
X157900000Y-89518333D01*
X157933333Y-89551667D01*
X157966667Y-89618333D01*
X157966667Y-89718333D01*
X157933333Y-89785000D01*
X157900000Y-89818333D01*
X157833333Y-89851667D01*
X157566667Y-89851667D01*
X157566667Y-89151667D01*
X157800000Y-89151667D01*
X157866667Y-89185000D01*
X157900000Y-89218333D01*
X157933333Y-89285000D01*
X157933333Y-89351667D01*
X157900000Y-89418333D01*
X157866667Y-89451667D01*
X157800000Y-89485000D01*
X157566667Y-89485000D01*
X158233333Y-89651667D02*
X158566667Y-89651667D01*
X158166667Y-89851667D02*
X158400000Y-89151667D01*
X158633333Y-89851667D01*
X158766667Y-89151667D02*
X159166667Y-89151667D01*
X158966667Y-89851667D02*
X158966667Y-89151667D01*
X159400000Y-89585000D02*
X159933333Y-89585000D01*
X159666666Y-89851667D02*
X159666666Y-89318333D01*
X176646667Y-123055000D02*
X176646667Y-122721666D01*
X176846667Y-123121666D02*
X176146667Y-122888333D01*
X176846667Y-122655000D01*
X176146667Y-122121666D02*
X176146667Y-122255000D01*
X176180000Y-122321666D01*
X176213333Y-122355000D01*
X176313333Y-122421666D01*
X176446667Y-122455000D01*
X176713333Y-122455000D01*
X176780000Y-122421666D01*
X176813333Y-122388333D01*
X176846667Y-122321666D01*
X176846667Y-122188333D01*
X176813333Y-122121666D01*
X176780000Y-122088333D01*
X176713333Y-122055000D01*
X176546667Y-122055000D01*
X176480000Y-122088333D01*
X176446667Y-122121666D01*
X176413333Y-122188333D01*
X176413333Y-122321666D01*
X176446667Y-122388333D01*
X176480000Y-122421666D01*
X176546667Y-122455000D01*
X174106667Y-123055000D02*
X174106667Y-122721666D01*
X174306667Y-123121666D02*
X173606667Y-122888333D01*
X174306667Y-122655000D01*
X174306667Y-122055000D02*
X174306667Y-122455000D01*
X174306667Y-122255000D02*
X173606667Y-122255000D01*
X173706667Y-122321666D01*
X173773333Y-122388333D01*
X173806667Y-122455000D01*
X171566667Y-123055000D02*
X171566667Y-122721666D01*
X171766667Y-123121666D02*
X171066667Y-122888333D01*
X171766667Y-122655000D01*
X171066667Y-122288333D02*
X171066667Y-122221666D01*
X171100000Y-122155000D01*
X171133333Y-122121666D01*
X171200000Y-122088333D01*
X171333333Y-122055000D01*
X171500000Y-122055000D01*
X171633333Y-122088333D01*
X171700000Y-122121666D01*
X171733333Y-122155000D01*
X171766667Y-122221666D01*
X171766667Y-122288333D01*
X171733333Y-122355000D01*
X171700000Y-122388333D01*
X171633333Y-122421666D01*
X171500000Y-122455000D01*
X171333333Y-122455000D01*
X171200000Y-122421666D01*
X171133333Y-122388333D01*
X171100000Y-122355000D01*
X171066667Y-122288333D01*
X169226667Y-123071666D02*
X168526667Y-123071666D01*
X168526667Y-122905000D01*
X168560000Y-122805000D01*
X168626667Y-122738333D01*
X168693333Y-122705000D01*
X168826667Y-122671666D01*
X168926667Y-122671666D01*
X169060000Y-122705000D01*
X169126667Y-122738333D01*
X169193333Y-122805000D01*
X169226667Y-122905000D01*
X169226667Y-123071666D01*
X168526667Y-122438333D02*
X168526667Y-121971666D01*
X169226667Y-122271666D01*
X166686667Y-123071666D02*
X165986667Y-123071666D01*
X165986667Y-122905000D01*
X166020000Y-122805000D01*
X166086667Y-122738333D01*
X166153333Y-122705000D01*
X166286667Y-122671666D01*
X166386667Y-122671666D01*
X166520000Y-122705000D01*
X166586667Y-122738333D01*
X166653333Y-122805000D01*
X166686667Y-122905000D01*
X166686667Y-123071666D01*
X165986667Y-122071666D02*
X165986667Y-122205000D01*
X166020000Y-122271666D01*
X166053333Y-122305000D01*
X166153333Y-122371666D01*
X166286667Y-122405000D01*
X166553333Y-122405000D01*
X166620000Y-122371666D01*
X166653333Y-122338333D01*
X166686667Y-122271666D01*
X166686667Y-122138333D01*
X166653333Y-122071666D01*
X166620000Y-122038333D01*
X166553333Y-122005000D01*
X166386667Y-122005000D01*
X166320000Y-122038333D01*
X166286667Y-122071666D01*
X166253333Y-122138333D01*
X166253333Y-122271666D01*
X166286667Y-122338333D01*
X166320000Y-122371666D01*
X166386667Y-122405000D01*
X164146667Y-123071666D02*
X163446667Y-123071666D01*
X163446667Y-122905000D01*
X163480000Y-122805000D01*
X163546667Y-122738333D01*
X163613333Y-122705000D01*
X163746667Y-122671666D01*
X163846667Y-122671666D01*
X163980000Y-122705000D01*
X164046667Y-122738333D01*
X164113333Y-122805000D01*
X164146667Y-122905000D01*
X164146667Y-123071666D01*
X163446667Y-122038333D02*
X163446667Y-122371666D01*
X163780000Y-122405000D01*
X163746667Y-122371666D01*
X163713333Y-122305000D01*
X163713333Y-122138333D01*
X163746667Y-122071666D01*
X163780000Y-122038333D01*
X163846667Y-122005000D01*
X164013333Y-122005000D01*
X164080000Y-122038333D01*
X164113333Y-122071666D01*
X164146667Y-122138333D01*
X164146667Y-122305000D01*
X164113333Y-122371666D01*
X164080000Y-122405000D01*
X161606667Y-123071666D02*
X160906667Y-123071666D01*
X160906667Y-122905000D01*
X160940000Y-122805000D01*
X161006667Y-122738333D01*
X161073333Y-122705000D01*
X161206667Y-122671666D01*
X161306667Y-122671666D01*
X161440000Y-122705000D01*
X161506667Y-122738333D01*
X161573333Y-122805000D01*
X161606667Y-122905000D01*
X161606667Y-123071666D01*
X161140000Y-122071666D02*
X161606667Y-122071666D01*
X160873333Y-122238333D02*
X161373333Y-122405000D01*
X161373333Y-121971666D01*
X159066667Y-123071666D02*
X158366667Y-123071666D01*
X158366667Y-122905000D01*
X158400000Y-122805000D01*
X158466667Y-122738333D01*
X158533333Y-122705000D01*
X158666667Y-122671666D01*
X158766667Y-122671666D01*
X158900000Y-122705000D01*
X158966667Y-122738333D01*
X159033333Y-122805000D01*
X159066667Y-122905000D01*
X159066667Y-123071666D01*
X158366667Y-122438333D02*
X158366667Y-122005000D01*
X158633333Y-122238333D01*
X158633333Y-122138333D01*
X158666667Y-122071666D01*
X158700000Y-122038333D01*
X158766667Y-122005000D01*
X158933333Y-122005000D01*
X159000000Y-122038333D01*
X159033333Y-122071666D01*
X159066667Y-122138333D01*
X159066667Y-122338333D01*
X159033333Y-122405000D01*
X159000000Y-122438333D01*
D11*
X144145000Y-98425000D02*
X144145000Y-118745000D01*
X144145000Y-118745000D02*
X177546000Y-118745000D01*
X177546000Y-118745000D02*
X177546000Y-98425000D01*
X177546000Y-98425000D02*
X144145000Y-98425000D01*
D12*
X160015000Y-96775000D02*
X163835000Y-96775000D01*
X163835000Y-96775000D02*
X163835000Y-94995000D01*
X163835000Y-94995000D02*
X160015000Y-94995000D01*
X160015000Y-96775000D02*
X160015000Y-94995000D01*
X168270000Y-96775000D02*
X172090000Y-96775000D01*
X172090000Y-96775000D02*
X172090000Y-94995000D01*
X172090000Y-94995000D02*
X168270000Y-94995000D01*
X168270000Y-96775000D02*
X168270000Y-94995000D01*
D13*
G36*
X145525126Y-93354945D02*
X145525220Y-93263675D01*
X145525419Y-93186716D01*
X145525760Y-93122758D01*
X145526284Y-93070489D01*
X145527027Y-93028599D01*
X145528028Y-92995776D01*
X145529325Y-92970709D01*
X145530957Y-92952088D01*
X145532962Y-92938601D01*
X145535379Y-92928938D01*
X145538245Y-92921787D01*
X145541030Y-92916758D01*
X145566640Y-92889028D01*
X145599393Y-92874938D01*
X145635443Y-92876031D01*
X145639662Y-92877211D01*
X145655949Y-92884233D01*
X145684091Y-92898526D01*
X145721785Y-92918756D01*
X145766725Y-92943590D01*
X145816606Y-92971695D01*
X145869124Y-93001739D01*
X145921973Y-93032388D01*
X145972848Y-93062309D01*
X146019445Y-93090170D01*
X146059458Y-93114638D01*
X146090583Y-93134379D01*
X146110515Y-93148061D01*
X146116037Y-93152694D01*
X146122113Y-93160064D01*
X146126798Y-93169116D01*
X146130367Y-93182179D01*
X146133096Y-93201585D01*
X146135261Y-93229664D01*
X146137138Y-93268746D01*
X146139004Y-93321163D01*
X146140108Y-93355985D01*
X146141922Y-93409701D01*
X146143804Y-93457224D01*
X146145635Y-93496121D01*
X146147296Y-93523962D01*
X146148666Y-93538313D01*
X146149121Y-93539733D01*
X146157205Y-93535723D01*
X146177349Y-93524658D01*
X146206968Y-93507988D01*
X146243477Y-93487162D01*
X146266154Y-93474117D01*
X146379884Y-93408500D01*
X146380200Y-93018186D01*
X146188386Y-92908873D01*
X146135549Y-92878381D01*
X146086730Y-92849488D01*
X146044149Y-92823565D01*
X146010027Y-92801984D01*
X145986586Y-92786117D01*
X145976719Y-92778150D01*
X145956867Y-92756740D01*
X145956867Y-91688855D01*
X145984787Y-91661794D01*
X145998613Y-91649194D01*
X146011887Y-91640167D01*
X146026269Y-91635259D01*
X146043417Y-91635016D01*
X146064992Y-91639985D01*
X146092654Y-91650711D01*
X146128061Y-91667741D01*
X146172872Y-91691622D01*
X146228749Y-91722898D01*
X146297349Y-91762117D01*
X146307734Y-91768083D01*
X146379273Y-91809520D01*
X146436979Y-91843706D01*
X146481966Y-91871354D01*
X146515343Y-91893176D01*
X146538222Y-91909885D01*
X146551716Y-91922195D01*
X146555235Y-91926833D01*
X146560610Y-91937704D01*
X146564771Y-91952023D01*
X146567955Y-91972221D01*
X146570401Y-92000729D01*
X146572348Y-92039977D01*
X146574035Y-92092397D01*
X146574934Y-92127550D01*
X146579167Y-92302868D01*
X146695583Y-92234682D01*
X146812000Y-92166496D01*
X146813077Y-92012798D01*
X146813761Y-91954858D01*
X146814949Y-91894717D01*
X146816504Y-91837683D01*
X146818291Y-91789062D01*
X146819427Y-91765967D01*
X146824700Y-91672833D01*
X146871267Y-91642081D01*
X146891506Y-91629277D01*
X146923787Y-91609539D01*
X146965503Y-91584429D01*
X147014048Y-91555511D01*
X147066814Y-91524345D01*
X147107884Y-91500264D01*
X147167415Y-91465673D01*
X147214416Y-91438920D01*
X147250831Y-91419050D01*
X147278601Y-91405109D01*
X147299668Y-91396142D01*
X147315974Y-91391195D01*
X147329461Y-91389312D01*
X147333800Y-91389200D01*
X147342672Y-91389965D01*
X147353782Y-91392677D01*
X147368291Y-91397954D01*
X147387360Y-91406419D01*
X147412149Y-91418693D01*
X147443819Y-91435398D01*
X147483530Y-91457153D01*
X147532442Y-91484580D01*
X147591717Y-91518301D01*
X147662514Y-91558936D01*
X147745995Y-91607107D01*
X147808383Y-91643201D01*
X147890677Y-91691049D01*
X147968059Y-91736436D01*
X148039271Y-91778601D01*
X148103055Y-91816780D01*
X148158155Y-91850213D01*
X148203312Y-91878138D01*
X148237268Y-91899793D01*
X148258767Y-91914415D01*
X148266108Y-91920485D01*
X148281908Y-91952355D01*
X148283691Y-91988711D01*
X148271342Y-92023880D01*
X148260929Y-92034827D01*
X148239023Y-92051368D01*
X148204911Y-92073958D01*
X148157882Y-92103051D01*
X148097224Y-92139100D01*
X148027200Y-92179703D01*
X147960759Y-92217722D01*
X147907183Y-92247923D01*
X147864790Y-92271145D01*
X147831895Y-92288232D01*
X147806813Y-92300026D01*
X147787860Y-92307367D01*
X147773352Y-92311098D01*
X147762392Y-92312066D01*
X147746334Y-92310485D01*
X147727281Y-92304971D01*
X147702690Y-92294369D01*
X147670017Y-92277523D01*
X147626722Y-92253277D01*
X147603325Y-92239779D01*
X147560213Y-92214844D01*
X147520541Y-92192065D01*
X147487340Y-92173168D01*
X147463644Y-92159883D01*
X147454425Y-92154895D01*
X147430067Y-92142298D01*
X147430329Y-92417900D01*
X147622815Y-92527966D01*
X147675657Y-92558535D01*
X147724438Y-92587420D01*
X147766956Y-92613266D01*
X147801012Y-92634717D01*
X147824405Y-92650416D01*
X147834350Y-92658319D01*
X147839494Y-92664106D01*
X147843615Y-92670545D01*
X147846824Y-92679445D01*
X147849231Y-92692612D01*
X147850948Y-92711855D01*
X147852085Y-92738980D01*
X147852753Y-92775795D01*
X147853064Y-92824108D01*
X147853129Y-92885724D01*
X147853057Y-92962453D01*
X147853056Y-92963119D01*
X147852712Y-93247633D01*
X147829773Y-93273638D01*
X147815421Y-93285714D01*
X147788880Y-93304062D01*
X147752384Y-93327412D01*
X147708167Y-93354495D01*
X147658462Y-93384040D01*
X147605504Y-93414777D01*
X147551527Y-93445436D01*
X147498764Y-93474747D01*
X147449450Y-93501440D01*
X147405818Y-93524246D01*
X147370101Y-93541893D01*
X147344536Y-93553113D01*
X147331931Y-93556667D01*
X147305766Y-93549951D01*
X147276566Y-93531632D01*
X147275363Y-93530650D01*
X147243800Y-93504634D01*
X147242881Y-93308400D01*
X147242378Y-93249153D01*
X147241479Y-93192643D01*
X147240270Y-93142069D01*
X147238832Y-93100631D01*
X147237248Y-93071527D01*
X147236531Y-93063492D01*
X147231100Y-93014818D01*
X147114683Y-92947921D01*
X146998267Y-92881025D01*
X146998267Y-93655047D01*
X147164793Y-93750499D01*
X147219379Y-93781602D01*
X147261351Y-93804964D01*
X147292658Y-93821491D01*
X147315246Y-93832088D01*
X147331063Y-93837660D01*
X147342055Y-93839112D01*
X147350170Y-93837349D01*
X147350912Y-93837025D01*
X147363483Y-93830389D01*
X147388416Y-93816478D01*
X147423459Y-93796575D01*
X147466362Y-93771964D01*
X147514876Y-93743927D01*
X147552573Y-93722016D01*
X147617296Y-93684775D01*
X147668909Y-93656170D01*
X147708520Y-93635639D01*
X147737238Y-93622618D01*
X147756169Y-93616548D01*
X147761732Y-93615933D01*
X147772795Y-93617258D01*
X147787579Y-93621706D01*
X147807408Y-93629984D01*
X147833611Y-93642802D01*
X147867512Y-93660869D01*
X147910439Y-93684892D01*
X147963718Y-93715581D01*
X148028675Y-93753644D01*
X148106637Y-93799790D01*
X148113504Y-93803870D01*
X148159948Y-93831972D01*
X148201628Y-93858155D01*
X148236240Y-93880894D01*
X148261481Y-93898663D01*
X148275047Y-93909936D01*
X148276488Y-93911807D01*
X148283936Y-93939482D01*
X148283082Y-93972792D01*
X148274254Y-94002805D01*
X148273048Y-94005097D01*
X148261287Y-94016679D01*
X148234991Y-94035619D01*
X148194700Y-94061570D01*
X148140960Y-94094185D01*
X148074311Y-94133118D01*
X148059565Y-94141583D01*
X147857634Y-94257205D01*
X147855310Y-94398480D01*
X147852986Y-94539756D01*
X147889177Y-94518565D01*
X147904349Y-94509740D01*
X147932397Y-94493487D01*
X147971533Y-94470838D01*
X148019967Y-94442830D01*
X148075909Y-94410496D01*
X148137570Y-94374872D01*
X148203160Y-94336991D01*
X148225934Y-94323842D01*
X148526500Y-94150311D01*
X148528619Y-93957205D01*
X148530738Y-93764100D01*
X148331082Y-93650142D01*
X148270296Y-93614937D01*
X148217294Y-93583219D01*
X148173637Y-93555977D01*
X148140884Y-93534199D01*
X148120594Y-93518873D01*
X148115180Y-93513369D01*
X148111849Y-93508114D01*
X148109007Y-93501562D01*
X148106615Y-93492415D01*
X148104634Y-93479374D01*
X148103026Y-93461139D01*
X148101751Y-93436412D01*
X148100773Y-93403894D01*
X148100050Y-93362286D01*
X148099546Y-93310291D01*
X148099221Y-93246608D01*
X148099036Y-93169939D01*
X148098953Y-93078985D01*
X148098934Y-92972448D01*
X148098934Y-92967926D01*
X148098950Y-92860786D01*
X148099025Y-92769270D01*
X148099199Y-92692068D01*
X148099511Y-92627869D01*
X148100001Y-92575364D01*
X148100710Y-92533243D01*
X148101677Y-92500196D01*
X148102941Y-92474913D01*
X148104543Y-92456084D01*
X148106522Y-92442400D01*
X148108918Y-92432550D01*
X148111771Y-92425224D01*
X148115121Y-92419113D01*
X148115636Y-92418274D01*
X148139053Y-92393975D01*
X148170065Y-92379582D01*
X148202647Y-92377362D01*
X148215547Y-92380679D01*
X148230696Y-92387882D01*
X148257792Y-92402214D01*
X148294548Y-92422361D01*
X148338678Y-92447008D01*
X148387893Y-92474838D01*
X148439908Y-92504537D01*
X148492435Y-92534789D01*
X148543187Y-92564278D01*
X148589877Y-92591690D01*
X148630218Y-92615709D01*
X148661923Y-92635019D01*
X148682706Y-92648305D01*
X148689483Y-92653274D01*
X148695655Y-92659415D01*
X148700325Y-92666617D01*
X148703704Y-92677144D01*
X148705999Y-92693260D01*
X148707421Y-92717228D01*
X148708178Y-92751314D01*
X148708479Y-92797780D01*
X148708533Y-92858891D01*
X148708533Y-92859642D01*
X148708804Y-92914140D01*
X148709563Y-92962447D01*
X148710730Y-93002172D01*
X148712223Y-93030922D01*
X148713963Y-93046307D01*
X148714883Y-93048241D01*
X148724038Y-93044049D01*
X148745141Y-93032762D01*
X148775535Y-93015848D01*
X148812562Y-92994779D01*
X148835533Y-92981521D01*
X148949833Y-92915226D01*
X148955054Y-92717363D01*
X148956613Y-92658172D01*
X148958087Y-92601977D01*
X148959397Y-92551892D01*
X148960459Y-92511033D01*
X148961194Y-92482512D01*
X148961404Y-92474213D01*
X148963597Y-92445208D01*
X148970268Y-92425799D01*
X148984268Y-92408727D01*
X148988829Y-92404363D01*
X149021049Y-92384402D01*
X149055950Y-92379353D01*
X149089730Y-92388487D01*
X149118584Y-92411074D01*
X149132546Y-92431931D01*
X149139210Y-92447183D01*
X149143671Y-92464357D01*
X149146260Y-92486903D01*
X149147311Y-92518269D01*
X149147157Y-92561905D01*
X149146882Y-92580546D01*
X149146074Y-92630080D01*
X149145095Y-92690550D01*
X149144043Y-92755958D01*
X149143014Y-92820308D01*
X149142467Y-92854745D01*
X149141493Y-92910175D01*
X149140381Y-92951199D01*
X149138822Y-92980343D01*
X149136505Y-93000132D01*
X149133122Y-93013093D01*
X149128365Y-93021752D01*
X149121923Y-93028635D01*
X149121101Y-93029389D01*
X149109157Y-93037872D01*
X149084505Y-93053539D01*
X149049147Y-93075184D01*
X149005084Y-93101598D01*
X148954318Y-93131575D01*
X148898849Y-93163908D01*
X148880308Y-93174627D01*
X148816525Y-93211312D01*
X148765502Y-93240296D01*
X148725409Y-93262472D01*
X148694416Y-93278734D01*
X148670691Y-93289975D01*
X148652404Y-93297087D01*
X148637724Y-93300963D01*
X148624822Y-93302497D01*
X148617841Y-93302666D01*
X148591334Y-93301145D01*
X148573961Y-93294236D01*
X148558024Y-93278420D01*
X148554017Y-93273485D01*
X148530733Y-93244305D01*
X148530731Y-93008902D01*
X148530729Y-92773500D01*
X148452415Y-92729154D01*
X148413967Y-92707332D01*
X148375503Y-92685416D01*
X148342834Y-92666721D01*
X148329650Y-92659133D01*
X148285200Y-92633457D01*
X148285239Y-93020979D01*
X148285277Y-93408500D01*
X148465155Y-93509328D01*
X148517362Y-93539093D01*
X148566334Y-93567949D01*
X148609541Y-93594333D01*
X148644457Y-93616682D01*
X148668553Y-93633433D01*
X148676783Y-93640163D01*
X148708533Y-93670170D01*
X148708264Y-93958435D01*
X148708070Y-94039032D01*
X148707610Y-94104289D01*
X148706822Y-94155798D01*
X148705642Y-94195151D01*
X148704006Y-94223940D01*
X148701852Y-94243756D01*
X148699117Y-94256192D01*
X148696181Y-94262291D01*
X148686892Y-94269219D01*
X148664216Y-94283781D01*
X148629460Y-94305199D01*
X148583931Y-94332694D01*
X148528936Y-94365487D01*
X148465783Y-94402797D01*
X148395778Y-94443845D01*
X148320230Y-94487853D01*
X148240445Y-94534041D01*
X148238191Y-94535341D01*
X148142574Y-94590503D01*
X148060472Y-94637735D01*
X147990723Y-94677552D01*
X147932164Y-94710465D01*
X147883631Y-94736990D01*
X147843962Y-94757639D01*
X147811993Y-94772925D01*
X147786563Y-94783362D01*
X147766507Y-94789464D01*
X147750663Y-94791744D01*
X147737868Y-94790714D01*
X147726959Y-94786889D01*
X147716773Y-94780783D01*
X147706148Y-94772907D01*
X147703916Y-94771202D01*
X147675600Y-94749605D01*
X147675600Y-94459077D01*
X147675646Y-94380997D01*
X147675846Y-94318060D01*
X147676294Y-94268476D01*
X147677085Y-94230454D01*
X147678313Y-94202204D01*
X147680071Y-94181936D01*
X147682453Y-94167860D01*
X147685554Y-94158185D01*
X147689468Y-94151120D01*
X147691958Y-94147755D01*
X147704424Y-94136883D01*
X147728948Y-94119515D01*
X147762814Y-94097431D01*
X147803306Y-94072408D01*
X147842241Y-94049380D01*
X147885717Y-94024149D01*
X147924583Y-94001505D01*
X147956274Y-93982950D01*
X147978226Y-93969984D01*
X147987608Y-93964287D01*
X147987857Y-93958204D01*
X147976722Y-93947077D01*
X147953431Y-93930391D01*
X147917215Y-93907633D01*
X147867302Y-93878287D01*
X147810759Y-93846226D01*
X147763884Y-93819960D01*
X147565225Y-93933667D01*
X147502275Y-93969435D01*
X147452082Y-93997282D01*
X147412921Y-94018059D01*
X147383065Y-94032619D01*
X147360789Y-94041812D01*
X147344367Y-94046490D01*
X147334348Y-94047554D01*
X147322789Y-94046245D01*
X147307477Y-94041663D01*
X147286825Y-94032999D01*
X147259244Y-94019442D01*
X147223147Y-94000183D01*
X147176948Y-93974411D01*
X147119060Y-93941317D01*
X147065727Y-93910454D01*
X146998900Y-93871484D01*
X146945367Y-93839829D01*
X146903656Y-93814514D01*
X146872293Y-93794566D01*
X146849808Y-93779010D01*
X146834728Y-93766872D01*
X146825580Y-93757179D01*
X146820893Y-93748956D01*
X146820663Y-93748324D01*
X146818701Y-93733986D01*
X146816974Y-93703229D01*
X146815491Y-93656563D01*
X146814258Y-93594501D01*
X146813284Y-93517555D01*
X146812578Y-93426236D01*
X146812147Y-93321057D01*
X146812000Y-93202529D01*
X146812000Y-92679301D01*
X146836079Y-92656233D01*
X146863211Y-92635924D01*
X146891687Y-92627687D01*
X146924594Y-92631536D01*
X146965021Y-92647489D01*
X146983569Y-92657036D01*
X147038995Y-92687379D01*
X147096937Y-92719892D01*
X147155433Y-92753397D01*
X147212519Y-92786718D01*
X147266234Y-92818676D01*
X147314615Y-92848094D01*
X147355699Y-92873794D01*
X147387522Y-92894598D01*
X147408123Y-92909329D01*
X147415278Y-92916072D01*
X147419670Y-92932759D01*
X147423455Y-92966194D01*
X147426618Y-93016200D01*
X147429148Y-93082603D01*
X147429988Y-93114059D01*
X147434300Y-93293752D01*
X147555107Y-93225242D01*
X147675913Y-93156731D01*
X147673640Y-92965115D01*
X147671367Y-92773500D01*
X147478149Y-92662640D01*
X147425182Y-92631913D01*
X147376225Y-92602877D01*
X147333480Y-92576888D01*
X147299149Y-92555303D01*
X147275436Y-92539478D01*
X147265112Y-92531406D01*
X147245292Y-92511033D01*
X147242429Y-92235867D01*
X147241747Y-92154829D01*
X147241586Y-92089143D01*
X147241989Y-92037233D01*
X147242999Y-91997523D01*
X147244659Y-91968440D01*
X147247011Y-91948407D01*
X147250098Y-91935849D01*
X147250621Y-91934527D01*
X147268176Y-91911121D01*
X147295953Y-91891994D01*
X147327240Y-91881276D01*
X147338807Y-91880266D01*
X147350870Y-91884358D01*
X147375379Y-91895876D01*
X147410172Y-91913690D01*
X147453084Y-91936665D01*
X147501952Y-91963671D01*
X147548070Y-91989814D01*
X147600245Y-92019629D01*
X147648123Y-92046790D01*
X147689578Y-92070107D01*
X147722486Y-92088389D01*
X147744720Y-92100446D01*
X147753764Y-92104962D01*
X147768235Y-92103022D01*
X147796318Y-92091317D01*
X147838073Y-92069820D01*
X147882881Y-92044679D01*
X147922032Y-92021837D01*
X147955370Y-92001805D01*
X147980404Y-91986126D01*
X147994640Y-91976344D01*
X147996967Y-91973981D01*
X147989851Y-91969065D01*
X147969846Y-91956795D01*
X147938766Y-91938223D01*
X147898423Y-91914397D01*
X147850631Y-91886367D01*
X147797202Y-91855183D01*
X147739949Y-91821894D01*
X147680686Y-91787551D01*
X147621226Y-91753203D01*
X147563380Y-91719899D01*
X147508963Y-91688690D01*
X147459787Y-91660624D01*
X147417666Y-91636753D01*
X147384412Y-91618125D01*
X147361838Y-91605790D01*
X147354564Y-91602036D01*
X147346371Y-91598662D01*
X147337648Y-91597551D01*
X147326359Y-91599606D01*
X147310472Y-91605733D01*
X147287950Y-91616838D01*
X147256760Y-91633824D01*
X147214867Y-91657598D01*
X147164609Y-91686539D01*
X146998267Y-91782574D01*
X146998232Y-91922437D01*
X146997841Y-91980687D01*
X146996790Y-92043656D01*
X146995227Y-92104776D01*
X146993299Y-92157481D01*
X146992677Y-92170555D01*
X146987156Y-92278810D01*
X146914395Y-92323696D01*
X146885076Y-92341497D01*
X146844464Y-92365753D01*
X146795939Y-92394466D01*
X146742881Y-92425639D01*
X146688669Y-92457274D01*
X146671360Y-92467324D01*
X146610825Y-92502139D01*
X146562762Y-92528738D01*
X146525158Y-92547678D01*
X146496003Y-92559517D01*
X146473284Y-92564812D01*
X146454990Y-92564122D01*
X146439110Y-92558004D01*
X146423631Y-92547015D01*
X146414067Y-92538650D01*
X146384434Y-92511730D01*
X146381470Y-92268924D01*
X146378507Y-92026117D01*
X146268024Y-91963775D01*
X146228852Y-91941751D01*
X146194799Y-91922754D01*
X146168638Y-91908320D01*
X146153141Y-91899983D01*
X146150337Y-91898611D01*
X146148860Y-91906206D01*
X146147486Y-91929067D01*
X146146244Y-91965530D01*
X146145168Y-92013929D01*
X146144287Y-92072597D01*
X146143634Y-92139868D01*
X146143241Y-92214077D01*
X146143133Y-92280128D01*
X146143133Y-92664468D01*
X146345695Y-92781948D01*
X146416071Y-92823268D01*
X146471817Y-92857132D01*
X146513365Y-92883822D01*
X146541148Y-92903617D01*
X146555598Y-92916801D01*
X146557549Y-92919824D01*
X146560840Y-92935337D01*
X146563860Y-92965150D01*
X146566564Y-93006634D01*
X146568906Y-93057157D01*
X146570842Y-93114089D01*
X146572324Y-93174798D01*
X146573308Y-93236654D01*
X146573748Y-93297026D01*
X146573598Y-93353283D01*
X146572813Y-93402795D01*
X146571348Y-93442930D01*
X146569155Y-93471058D01*
X146567292Y-93481752D01*
X146564347Y-93492571D01*
X146561255Y-93501744D01*
X146556571Y-93510291D01*
X146548844Y-93519237D01*
X146536628Y-93529604D01*
X146518475Y-93542414D01*
X146492937Y-93558690D01*
X146458565Y-93579455D01*
X146413913Y-93605731D01*
X146357532Y-93638541D01*
X146288920Y-93678358D01*
X146223411Y-93716196D01*
X146170611Y-93746055D01*
X146128699Y-93768660D01*
X146095858Y-93784734D01*
X146070268Y-93795000D01*
X146050112Y-93800184D01*
X146033570Y-93801009D01*
X146018825Y-93798197D01*
X146004057Y-93792475D01*
X146003197Y-93792085D01*
X145990295Y-93785350D01*
X145980033Y-93776945D01*
X145972110Y-93764995D01*
X145966226Y-93747622D01*
X145962079Y-93722951D01*
X145959371Y-93689105D01*
X145957800Y-93644209D01*
X145957066Y-93586385D01*
X145956869Y-93513759D01*
X145956867Y-93502726D01*
X145956867Y-93270144D01*
X145837440Y-93201739D01*
X145797124Y-93178761D01*
X145762194Y-93159070D01*
X145735176Y-93144073D01*
X145718599Y-93135178D01*
X145714588Y-93133333D01*
X145713934Y-93141520D01*
X145713414Y-93164960D01*
X145713036Y-93201976D01*
X145712803Y-93250889D01*
X145712722Y-93310019D01*
X145712797Y-93377688D01*
X145713034Y-93452216D01*
X145713365Y-93519291D01*
X145715567Y-93905250D01*
X145881263Y-94000662D01*
X146046959Y-94096075D01*
X146249008Y-93978920D01*
X146308966Y-93944240D01*
X146356216Y-93917236D01*
X146392652Y-93897013D01*
X146420167Y-93882675D01*
X146440656Y-93873327D01*
X146456015Y-93868074D01*
X146468137Y-93866019D01*
X146478917Y-93866267D01*
X146485478Y-93867141D01*
X146502941Y-93873069D01*
X146533940Y-93887548D01*
X146578622Y-93910660D01*
X146637137Y-93942485D01*
X146709635Y-93983102D01*
X146796263Y-94032591D01*
X146841633Y-94058784D01*
X146951734Y-94122577D01*
X147047882Y-94178400D01*
X147130821Y-94226692D01*
X147201296Y-94267895D01*
X147260051Y-94302447D01*
X147307831Y-94330789D01*
X147345379Y-94353361D01*
X147373441Y-94370604D01*
X147392759Y-94382956D01*
X147404080Y-94390858D01*
X147406167Y-94392547D01*
X147420795Y-94415069D01*
X147426919Y-94445757D01*
X147423898Y-94477782D01*
X147416002Y-94497330D01*
X147403803Y-94509559D01*
X147378863Y-94528302D01*
X147343428Y-94552260D01*
X147299743Y-94580133D01*
X147250056Y-94610620D01*
X147196612Y-94642422D01*
X147141657Y-94674239D01*
X147087438Y-94704770D01*
X147036200Y-94732716D01*
X146990190Y-94756777D01*
X146951653Y-94775653D01*
X146922837Y-94788043D01*
X146905987Y-94792648D01*
X146905736Y-94792652D01*
X146890275Y-94790112D01*
X146867752Y-94781812D01*
X146836451Y-94766926D01*
X146794654Y-94744627D01*
X146740647Y-94714087D01*
X146730329Y-94708133D01*
X146685472Y-94682317D01*
X146645699Y-94659676D01*
X146613295Y-94641489D01*
X146590545Y-94629038D01*
X146579734Y-94623601D01*
X146579234Y-94623466D01*
X146577785Y-94631461D01*
X146576802Y-94653570D01*
X146576334Y-94686976D01*
X146576430Y-94728865D01*
X146576840Y-94760621D01*
X146579167Y-94897775D01*
X146762963Y-95004038D01*
X146815041Y-95034541D01*
X146863509Y-95063670D01*
X146906004Y-95089947D01*
X146940165Y-95111894D01*
X146963629Y-95128034D01*
X146972513Y-95135167D01*
X146993358Y-95165696D01*
X146998146Y-95200796D01*
X146986728Y-95239230D01*
X146985479Y-95241703D01*
X146967538Y-95266286D01*
X146942886Y-95279595D01*
X146907245Y-95283850D01*
X146904262Y-95283866D01*
X146891961Y-95282851D01*
X146877346Y-95279219D01*
X146858631Y-95272086D01*
X146834030Y-95260572D01*
X146801755Y-95243795D01*
X146760019Y-95220872D01*
X146707037Y-95190923D01*
X146651822Y-95159282D01*
X146595220Y-95126280D01*
X146542144Y-95094497D01*
X146494754Y-95065291D01*
X146455214Y-95040024D01*
X146425684Y-95020053D01*
X146408327Y-95006740D01*
X146406509Y-95004998D01*
X146377785Y-94975300D01*
X146386581Y-94408492D01*
X146413158Y-94384746D01*
X146428535Y-94372194D01*
X146443580Y-94363766D01*
X146460101Y-94360026D01*
X146479904Y-94361537D01*
X146504797Y-94368863D01*
X146536587Y-94382567D01*
X146577083Y-94403212D01*
X146628090Y-94431362D01*
X146691416Y-94467581D01*
X146706144Y-94476089D01*
X146905187Y-94591177D01*
X146945377Y-94568047D01*
X146970189Y-94553708D01*
X147004266Y-94533938D01*
X147042253Y-94511846D01*
X147064885Y-94498658D01*
X147144203Y-94452400D01*
X147069118Y-94408557D01*
X147043507Y-94393675D01*
X147005586Y-94371741D01*
X146957736Y-94344127D01*
X146902337Y-94312204D01*
X146841768Y-94277344D01*
X146778411Y-94240919D01*
X146737627Y-94217493D01*
X146481220Y-94070274D01*
X146449760Y-94085251D01*
X146432585Y-94094145D01*
X146403663Y-94109909D01*
X146365900Y-94130928D01*
X146322202Y-94155581D01*
X146275474Y-94182254D01*
X146274367Y-94182889D01*
X146213218Y-94217960D01*
X146164901Y-94245419D01*
X146127571Y-94266106D01*
X146099385Y-94280859D01*
X146078499Y-94290517D01*
X146063070Y-94295918D01*
X146051254Y-94297901D01*
X146041208Y-94297304D01*
X146031087Y-94294966D01*
X146029135Y-94294430D01*
X146014716Y-94288287D01*
X145987749Y-94274724D01*
X145950308Y-94254863D01*
X145904466Y-94229827D01*
X145852294Y-94200740D01*
X145795865Y-94168724D01*
X145774614Y-94156528D01*
X145703646Y-94115325D01*
X145646641Y-94081417D01*
X145602604Y-94054162D01*
X145570539Y-94032922D01*
X145549451Y-94017055D01*
X145538345Y-94005922D01*
X145536959Y-94003704D01*
X145534445Y-93996411D01*
X145532297Y-93984134D01*
X145530489Y-93965666D01*
X145528995Y-93939800D01*
X145527788Y-93905330D01*
X145526842Y-93861049D01*
X145526131Y-93805750D01*
X145525627Y-93738227D01*
X145525305Y-93657274D01*
X145525138Y-93561683D01*
X145525098Y-93461837D01*
X145525126Y-93354945D01*
X145525126Y-93354945D01*
G37*
X145525126Y-93354945D02*
X145525220Y-93263675D01*
X145525419Y-93186716D01*
X145525760Y-93122758D01*
X145526284Y-93070489D01*
X145527027Y-93028599D01*
X145528028Y-92995776D01*
X145529325Y-92970709D01*
X145530957Y-92952088D01*
X145532962Y-92938601D01*
X145535379Y-92928938D01*
X145538245Y-92921787D01*
X145541030Y-92916758D01*
X145566640Y-92889028D01*
X145599393Y-92874938D01*
X145635443Y-92876031D01*
X145639662Y-92877211D01*
X145655949Y-92884233D01*
X145684091Y-92898526D01*
X145721785Y-92918756D01*
X145766725Y-92943590D01*
X145816606Y-92971695D01*
X145869124Y-93001739D01*
X145921973Y-93032388D01*
X145972848Y-93062309D01*
X146019445Y-93090170D01*
X146059458Y-93114638D01*
X146090583Y-93134379D01*
X146110515Y-93148061D01*
X146116037Y-93152694D01*
X146122113Y-93160064D01*
X146126798Y-93169116D01*
X146130367Y-93182179D01*
X146133096Y-93201585D01*
X146135261Y-93229664D01*
X146137138Y-93268746D01*
X146139004Y-93321163D01*
X146140108Y-93355985D01*
X146141922Y-93409701D01*
X146143804Y-93457224D01*
X146145635Y-93496121D01*
X146147296Y-93523962D01*
X146148666Y-93538313D01*
X146149121Y-93539733D01*
X146157205Y-93535723D01*
X146177349Y-93524658D01*
X146206968Y-93507988D01*
X146243477Y-93487162D01*
X146266154Y-93474117D01*
X146379884Y-93408500D01*
X146380200Y-93018186D01*
X146188386Y-92908873D01*
X146135549Y-92878381D01*
X146086730Y-92849488D01*
X146044149Y-92823565D01*
X146010027Y-92801984D01*
X145986586Y-92786117D01*
X145976719Y-92778150D01*
X145956867Y-92756740D01*
X145956867Y-91688855D01*
X145984787Y-91661794D01*
X145998613Y-91649194D01*
X146011887Y-91640167D01*
X146026269Y-91635259D01*
X146043417Y-91635016D01*
X146064992Y-91639985D01*
X146092654Y-91650711D01*
X146128061Y-91667741D01*
X146172872Y-91691622D01*
X146228749Y-91722898D01*
X146297349Y-91762117D01*
X146307734Y-91768083D01*
X146379273Y-91809520D01*
X146436979Y-91843706D01*
X146481966Y-91871354D01*
X146515343Y-91893176D01*
X146538222Y-91909885D01*
X146551716Y-91922195D01*
X146555235Y-91926833D01*
X146560610Y-91937704D01*
X146564771Y-91952023D01*
X146567955Y-91972221D01*
X146570401Y-92000729D01*
X146572348Y-92039977D01*
X146574035Y-92092397D01*
X146574934Y-92127550D01*
X146579167Y-92302868D01*
X146695583Y-92234682D01*
X146812000Y-92166496D01*
X146813077Y-92012798D01*
X146813761Y-91954858D01*
X146814949Y-91894717D01*
X146816504Y-91837683D01*
X146818291Y-91789062D01*
X146819427Y-91765967D01*
X146824700Y-91672833D01*
X146871267Y-91642081D01*
X146891506Y-91629277D01*
X146923787Y-91609539D01*
X146965503Y-91584429D01*
X147014048Y-91555511D01*
X147066814Y-91524345D01*
X147107884Y-91500264D01*
X147167415Y-91465673D01*
X147214416Y-91438920D01*
X147250831Y-91419050D01*
X147278601Y-91405109D01*
X147299668Y-91396142D01*
X147315974Y-91391195D01*
X147329461Y-91389312D01*
X147333800Y-91389200D01*
X147342672Y-91389965D01*
X147353782Y-91392677D01*
X147368291Y-91397954D01*
X147387360Y-91406419D01*
X147412149Y-91418693D01*
X147443819Y-91435398D01*
X147483530Y-91457153D01*
X147532442Y-91484580D01*
X147591717Y-91518301D01*
X147662514Y-91558936D01*
X147745995Y-91607107D01*
X147808383Y-91643201D01*
X147890677Y-91691049D01*
X147968059Y-91736436D01*
X148039271Y-91778601D01*
X148103055Y-91816780D01*
X148158155Y-91850213D01*
X148203312Y-91878138D01*
X148237268Y-91899793D01*
X148258767Y-91914415D01*
X148266108Y-91920485D01*
X148281908Y-91952355D01*
X148283691Y-91988711D01*
X148271342Y-92023880D01*
X148260929Y-92034827D01*
X148239023Y-92051368D01*
X148204911Y-92073958D01*
X148157882Y-92103051D01*
X148097224Y-92139100D01*
X148027200Y-92179703D01*
X147960759Y-92217722D01*
X147907183Y-92247923D01*
X147864790Y-92271145D01*
X147831895Y-92288232D01*
X147806813Y-92300026D01*
X147787860Y-92307367D01*
X147773352Y-92311098D01*
X147762392Y-92312066D01*
X147746334Y-92310485D01*
X147727281Y-92304971D01*
X147702690Y-92294369D01*
X147670017Y-92277523D01*
X147626722Y-92253277D01*
X147603325Y-92239779D01*
X147560213Y-92214844D01*
X147520541Y-92192065D01*
X147487340Y-92173168D01*
X147463644Y-92159883D01*
X147454425Y-92154895D01*
X147430067Y-92142298D01*
X147430329Y-92417900D01*
X147622815Y-92527966D01*
X147675657Y-92558535D01*
X147724438Y-92587420D01*
X147766956Y-92613266D01*
X147801012Y-92634717D01*
X147824405Y-92650416D01*
X147834350Y-92658319D01*
X147839494Y-92664106D01*
X147843615Y-92670545D01*
X147846824Y-92679445D01*
X147849231Y-92692612D01*
X147850948Y-92711855D01*
X147852085Y-92738980D01*
X147852753Y-92775795D01*
X147853064Y-92824108D01*
X147853129Y-92885724D01*
X147853057Y-92962453D01*
X147853056Y-92963119D01*
X147852712Y-93247633D01*
X147829773Y-93273638D01*
X147815421Y-93285714D01*
X147788880Y-93304062D01*
X147752384Y-93327412D01*
X147708167Y-93354495D01*
X147658462Y-93384040D01*
X147605504Y-93414777D01*
X147551527Y-93445436D01*
X147498764Y-93474747D01*
X147449450Y-93501440D01*
X147405818Y-93524246D01*
X147370101Y-93541893D01*
X147344536Y-93553113D01*
X147331931Y-93556667D01*
X147305766Y-93549951D01*
X147276566Y-93531632D01*
X147275363Y-93530650D01*
X147243800Y-93504634D01*
X147242881Y-93308400D01*
X147242378Y-93249153D01*
X147241479Y-93192643D01*
X147240270Y-93142069D01*
X147238832Y-93100631D01*
X147237248Y-93071527D01*
X147236531Y-93063492D01*
X147231100Y-93014818D01*
X147114683Y-92947921D01*
X146998267Y-92881025D01*
X146998267Y-93655047D01*
X147164793Y-93750499D01*
X147219379Y-93781602D01*
X147261351Y-93804964D01*
X147292658Y-93821491D01*
X147315246Y-93832088D01*
X147331063Y-93837660D01*
X147342055Y-93839112D01*
X147350170Y-93837349D01*
X147350912Y-93837025D01*
X147363483Y-93830389D01*
X147388416Y-93816478D01*
X147423459Y-93796575D01*
X147466362Y-93771964D01*
X147514876Y-93743927D01*
X147552573Y-93722016D01*
X147617296Y-93684775D01*
X147668909Y-93656170D01*
X147708520Y-93635639D01*
X147737238Y-93622618D01*
X147756169Y-93616548D01*
X147761732Y-93615933D01*
X147772795Y-93617258D01*
X147787579Y-93621706D01*
X147807408Y-93629984D01*
X147833611Y-93642802D01*
X147867512Y-93660869D01*
X147910439Y-93684892D01*
X147963718Y-93715581D01*
X148028675Y-93753644D01*
X148106637Y-93799790D01*
X148113504Y-93803870D01*
X148159948Y-93831972D01*
X148201628Y-93858155D01*
X148236240Y-93880894D01*
X148261481Y-93898663D01*
X148275047Y-93909936D01*
X148276488Y-93911807D01*
X148283936Y-93939482D01*
X148283082Y-93972792D01*
X148274254Y-94002805D01*
X148273048Y-94005097D01*
X148261287Y-94016679D01*
X148234991Y-94035619D01*
X148194700Y-94061570D01*
X148140960Y-94094185D01*
X148074311Y-94133118D01*
X148059565Y-94141583D01*
X147857634Y-94257205D01*
X147855310Y-94398480D01*
X147852986Y-94539756D01*
X147889177Y-94518565D01*
X147904349Y-94509740D01*
X147932397Y-94493487D01*
X147971533Y-94470838D01*
X148019967Y-94442830D01*
X148075909Y-94410496D01*
X148137570Y-94374872D01*
X148203160Y-94336991D01*
X148225934Y-94323842D01*
X148526500Y-94150311D01*
X148528619Y-93957205D01*
X148530738Y-93764100D01*
X148331082Y-93650142D01*
X148270296Y-93614937D01*
X148217294Y-93583219D01*
X148173637Y-93555977D01*
X148140884Y-93534199D01*
X148120594Y-93518873D01*
X148115180Y-93513369D01*
X148111849Y-93508114D01*
X148109007Y-93501562D01*
X148106615Y-93492415D01*
X148104634Y-93479374D01*
X148103026Y-93461139D01*
X148101751Y-93436412D01*
X148100773Y-93403894D01*
X148100050Y-93362286D01*
X148099546Y-93310291D01*
X148099221Y-93246608D01*
X148099036Y-93169939D01*
X148098953Y-93078985D01*
X148098934Y-92972448D01*
X148098934Y-92967926D01*
X148098950Y-92860786D01*
X148099025Y-92769270D01*
X148099199Y-92692068D01*
X148099511Y-92627869D01*
X148100001Y-92575364D01*
X148100710Y-92533243D01*
X148101677Y-92500196D01*
X148102941Y-92474913D01*
X148104543Y-92456084D01*
X148106522Y-92442400D01*
X148108918Y-92432550D01*
X148111771Y-92425224D01*
X148115121Y-92419113D01*
X148115636Y-92418274D01*
X148139053Y-92393975D01*
X148170065Y-92379582D01*
X148202647Y-92377362D01*
X148215547Y-92380679D01*
X148230696Y-92387882D01*
X148257792Y-92402214D01*
X148294548Y-92422361D01*
X148338678Y-92447008D01*
X148387893Y-92474838D01*
X148439908Y-92504537D01*
X148492435Y-92534789D01*
X148543187Y-92564278D01*
X148589877Y-92591690D01*
X148630218Y-92615709D01*
X148661923Y-92635019D01*
X148682706Y-92648305D01*
X148689483Y-92653274D01*
X148695655Y-92659415D01*
X148700325Y-92666617D01*
X148703704Y-92677144D01*
X148705999Y-92693260D01*
X148707421Y-92717228D01*
X148708178Y-92751314D01*
X148708479Y-92797780D01*
X148708533Y-92858891D01*
X148708533Y-92859642D01*
X148708804Y-92914140D01*
X148709563Y-92962447D01*
X148710730Y-93002172D01*
X148712223Y-93030922D01*
X148713963Y-93046307D01*
X148714883Y-93048241D01*
X148724038Y-93044049D01*
X148745141Y-93032762D01*
X148775535Y-93015848D01*
X148812562Y-92994779D01*
X148835533Y-92981521D01*
X148949833Y-92915226D01*
X148955054Y-92717363D01*
X148956613Y-92658172D01*
X148958087Y-92601977D01*
X148959397Y-92551892D01*
X148960459Y-92511033D01*
X148961194Y-92482512D01*
X148961404Y-92474213D01*
X148963597Y-92445208D01*
X148970268Y-92425799D01*
X148984268Y-92408727D01*
X148988829Y-92404363D01*
X149021049Y-92384402D01*
X149055950Y-92379353D01*
X149089730Y-92388487D01*
X149118584Y-92411074D01*
X149132546Y-92431931D01*
X149139210Y-92447183D01*
X149143671Y-92464357D01*
X149146260Y-92486903D01*
X149147311Y-92518269D01*
X149147157Y-92561905D01*
X149146882Y-92580546D01*
X149146074Y-92630080D01*
X149145095Y-92690550D01*
X149144043Y-92755958D01*
X149143014Y-92820308D01*
X149142467Y-92854745D01*
X149141493Y-92910175D01*
X149140381Y-92951199D01*
X149138822Y-92980343D01*
X149136505Y-93000132D01*
X149133122Y-93013093D01*
X149128365Y-93021752D01*
X149121923Y-93028635D01*
X149121101Y-93029389D01*
X149109157Y-93037872D01*
X149084505Y-93053539D01*
X149049147Y-93075184D01*
X149005084Y-93101598D01*
X148954318Y-93131575D01*
X148898849Y-93163908D01*
X148880308Y-93174627D01*
X148816525Y-93211312D01*
X148765502Y-93240296D01*
X148725409Y-93262472D01*
X148694416Y-93278734D01*
X148670691Y-93289975D01*
X148652404Y-93297087D01*
X148637724Y-93300963D01*
X148624822Y-93302497D01*
X148617841Y-93302666D01*
X148591334Y-93301145D01*
X148573961Y-93294236D01*
X148558024Y-93278420D01*
X148554017Y-93273485D01*
X148530733Y-93244305D01*
X148530731Y-93008902D01*
X148530729Y-92773500D01*
X148452415Y-92729154D01*
X148413967Y-92707332D01*
X148375503Y-92685416D01*
X148342834Y-92666721D01*
X148329650Y-92659133D01*
X148285200Y-92633457D01*
X148285239Y-93020979D01*
X148285277Y-93408500D01*
X148465155Y-93509328D01*
X148517362Y-93539093D01*
X148566334Y-93567949D01*
X148609541Y-93594333D01*
X148644457Y-93616682D01*
X148668553Y-93633433D01*
X148676783Y-93640163D01*
X148708533Y-93670170D01*
X148708264Y-93958435D01*
X148708070Y-94039032D01*
X148707610Y-94104289D01*
X148706822Y-94155798D01*
X148705642Y-94195151D01*
X148704006Y-94223940D01*
X148701852Y-94243756D01*
X148699117Y-94256192D01*
X148696181Y-94262291D01*
X148686892Y-94269219D01*
X148664216Y-94283781D01*
X148629460Y-94305199D01*
X148583931Y-94332694D01*
X148528936Y-94365487D01*
X148465783Y-94402797D01*
X148395778Y-94443845D01*
X148320230Y-94487853D01*
X148240445Y-94534041D01*
X148238191Y-94535341D01*
X148142574Y-94590503D01*
X148060472Y-94637735D01*
X147990723Y-94677552D01*
X147932164Y-94710465D01*
X147883631Y-94736990D01*
X147843962Y-94757639D01*
X147811993Y-94772925D01*
X147786563Y-94783362D01*
X147766507Y-94789464D01*
X147750663Y-94791744D01*
X147737868Y-94790714D01*
X147726959Y-94786889D01*
X147716773Y-94780783D01*
X147706148Y-94772907D01*
X147703916Y-94771202D01*
X147675600Y-94749605D01*
X147675600Y-94459077D01*
X147675646Y-94380997D01*
X147675846Y-94318060D01*
X147676294Y-94268476D01*
X147677085Y-94230454D01*
X147678313Y-94202204D01*
X147680071Y-94181936D01*
X147682453Y-94167860D01*
X147685554Y-94158185D01*
X147689468Y-94151120D01*
X147691958Y-94147755D01*
X147704424Y-94136883D01*
X147728948Y-94119515D01*
X147762814Y-94097431D01*
X147803306Y-94072408D01*
X147842241Y-94049380D01*
X147885717Y-94024149D01*
X147924583Y-94001505D01*
X147956274Y-93982950D01*
X147978226Y-93969984D01*
X147987608Y-93964287D01*
X147987857Y-93958204D01*
X147976722Y-93947077D01*
X147953431Y-93930391D01*
X147917215Y-93907633D01*
X147867302Y-93878287D01*
X147810759Y-93846226D01*
X147763884Y-93819960D01*
X147565225Y-93933667D01*
X147502275Y-93969435D01*
X147452082Y-93997282D01*
X147412921Y-94018059D01*
X147383065Y-94032619D01*
X147360789Y-94041812D01*
X147344367Y-94046490D01*
X147334348Y-94047554D01*
X147322789Y-94046245D01*
X147307477Y-94041663D01*
X147286825Y-94032999D01*
X147259244Y-94019442D01*
X147223147Y-94000183D01*
X147176948Y-93974411D01*
X147119060Y-93941317D01*
X147065727Y-93910454D01*
X146998900Y-93871484D01*
X146945367Y-93839829D01*
X146903656Y-93814514D01*
X146872293Y-93794566D01*
X146849808Y-93779010D01*
X146834728Y-93766872D01*
X146825580Y-93757179D01*
X146820893Y-93748956D01*
X146820663Y-93748324D01*
X146818701Y-93733986D01*
X146816974Y-93703229D01*
X146815491Y-93656563D01*
X146814258Y-93594501D01*
X146813284Y-93517555D01*
X146812578Y-93426236D01*
X146812147Y-93321057D01*
X146812000Y-93202529D01*
X146812000Y-92679301D01*
X146836079Y-92656233D01*
X146863211Y-92635924D01*
X146891687Y-92627687D01*
X146924594Y-92631536D01*
X146965021Y-92647489D01*
X146983569Y-92657036D01*
X147038995Y-92687379D01*
X147096937Y-92719892D01*
X147155433Y-92753397D01*
X147212519Y-92786718D01*
X147266234Y-92818676D01*
X147314615Y-92848094D01*
X147355699Y-92873794D01*
X147387522Y-92894598D01*
X147408123Y-92909329D01*
X147415278Y-92916072D01*
X147419670Y-92932759D01*
X147423455Y-92966194D01*
X147426618Y-93016200D01*
X147429148Y-93082603D01*
X147429988Y-93114059D01*
X147434300Y-93293752D01*
X147555107Y-93225242D01*
X147675913Y-93156731D01*
X147673640Y-92965115D01*
X147671367Y-92773500D01*
X147478149Y-92662640D01*
X147425182Y-92631913D01*
X147376225Y-92602877D01*
X147333480Y-92576888D01*
X147299149Y-92555303D01*
X147275436Y-92539478D01*
X147265112Y-92531406D01*
X147245292Y-92511033D01*
X147242429Y-92235867D01*
X147241747Y-92154829D01*
X147241586Y-92089143D01*
X147241989Y-92037233D01*
X147242999Y-91997523D01*
X147244659Y-91968440D01*
X147247011Y-91948407D01*
X147250098Y-91935849D01*
X147250621Y-91934527D01*
X147268176Y-91911121D01*
X147295953Y-91891994D01*
X147327240Y-91881276D01*
X147338807Y-91880266D01*
X147350870Y-91884358D01*
X147375379Y-91895876D01*
X147410172Y-91913690D01*
X147453084Y-91936665D01*
X147501952Y-91963671D01*
X147548070Y-91989814D01*
X147600245Y-92019629D01*
X147648123Y-92046790D01*
X147689578Y-92070107D01*
X147722486Y-92088389D01*
X147744720Y-92100446D01*
X147753764Y-92104962D01*
X147768235Y-92103022D01*
X147796318Y-92091317D01*
X147838073Y-92069820D01*
X147882881Y-92044679D01*
X147922032Y-92021837D01*
X147955370Y-92001805D01*
X147980404Y-91986126D01*
X147994640Y-91976344D01*
X147996967Y-91973981D01*
X147989851Y-91969065D01*
X147969846Y-91956795D01*
X147938766Y-91938223D01*
X147898423Y-91914397D01*
X147850631Y-91886367D01*
X147797202Y-91855183D01*
X147739949Y-91821894D01*
X147680686Y-91787551D01*
X147621226Y-91753203D01*
X147563380Y-91719899D01*
X147508963Y-91688690D01*
X147459787Y-91660624D01*
X147417666Y-91636753D01*
X147384412Y-91618125D01*
X147361838Y-91605790D01*
X147354564Y-91602036D01*
X147346371Y-91598662D01*
X147337648Y-91597551D01*
X147326359Y-91599606D01*
X147310472Y-91605733D01*
X147287950Y-91616838D01*
X147256760Y-91633824D01*
X147214867Y-91657598D01*
X147164609Y-91686539D01*
X146998267Y-91782574D01*
X146998232Y-91922437D01*
X146997841Y-91980687D01*
X146996790Y-92043656D01*
X146995227Y-92104776D01*
X146993299Y-92157481D01*
X146992677Y-92170555D01*
X146987156Y-92278810D01*
X146914395Y-92323696D01*
X146885076Y-92341497D01*
X146844464Y-92365753D01*
X146795939Y-92394466D01*
X146742881Y-92425639D01*
X146688669Y-92457274D01*
X146671360Y-92467324D01*
X146610825Y-92502139D01*
X146562762Y-92528738D01*
X146525158Y-92547678D01*
X146496003Y-92559517D01*
X146473284Y-92564812D01*
X146454990Y-92564122D01*
X146439110Y-92558004D01*
X146423631Y-92547015D01*
X146414067Y-92538650D01*
X146384434Y-92511730D01*
X146381470Y-92268924D01*
X146378507Y-92026117D01*
X146268024Y-91963775D01*
X146228852Y-91941751D01*
X146194799Y-91922754D01*
X146168638Y-91908320D01*
X146153141Y-91899983D01*
X146150337Y-91898611D01*
X146148860Y-91906206D01*
X146147486Y-91929067D01*
X146146244Y-91965530D01*
X146145168Y-92013929D01*
X146144287Y-92072597D01*
X146143634Y-92139868D01*
X146143241Y-92214077D01*
X146143133Y-92280128D01*
X146143133Y-92664468D01*
X146345695Y-92781948D01*
X146416071Y-92823268D01*
X146471817Y-92857132D01*
X146513365Y-92883822D01*
X146541148Y-92903617D01*
X146555598Y-92916801D01*
X146557549Y-92919824D01*
X146560840Y-92935337D01*
X146563860Y-92965150D01*
X146566564Y-93006634D01*
X146568906Y-93057157D01*
X146570842Y-93114089D01*
X146572324Y-93174798D01*
X146573308Y-93236654D01*
X146573748Y-93297026D01*
X146573598Y-93353283D01*
X146572813Y-93402795D01*
X146571348Y-93442930D01*
X146569155Y-93471058D01*
X146567292Y-93481752D01*
X146564347Y-93492571D01*
X146561255Y-93501744D01*
X146556571Y-93510291D01*
X146548844Y-93519237D01*
X146536628Y-93529604D01*
X146518475Y-93542414D01*
X146492937Y-93558690D01*
X146458565Y-93579455D01*
X146413913Y-93605731D01*
X146357532Y-93638541D01*
X146288920Y-93678358D01*
X146223411Y-93716196D01*
X146170611Y-93746055D01*
X146128699Y-93768660D01*
X146095858Y-93784734D01*
X146070268Y-93795000D01*
X146050112Y-93800184D01*
X146033570Y-93801009D01*
X146018825Y-93798197D01*
X146004057Y-93792475D01*
X146003197Y-93792085D01*
X145990295Y-93785350D01*
X145980033Y-93776945D01*
X145972110Y-93764995D01*
X145966226Y-93747622D01*
X145962079Y-93722951D01*
X145959371Y-93689105D01*
X145957800Y-93644209D01*
X145957066Y-93586385D01*
X145956869Y-93513759D01*
X145956867Y-93502726D01*
X145956867Y-93270144D01*
X145837440Y-93201739D01*
X145797124Y-93178761D01*
X145762194Y-93159070D01*
X145735176Y-93144073D01*
X145718599Y-93135178D01*
X145714588Y-93133333D01*
X145713934Y-93141520D01*
X145713414Y-93164960D01*
X145713036Y-93201976D01*
X145712803Y-93250889D01*
X145712722Y-93310019D01*
X145712797Y-93377688D01*
X145713034Y-93452216D01*
X145713365Y-93519291D01*
X145715567Y-93905250D01*
X145881263Y-94000662D01*
X146046959Y-94096075D01*
X146249008Y-93978920D01*
X146308966Y-93944240D01*
X146356216Y-93917236D01*
X146392652Y-93897013D01*
X146420167Y-93882675D01*
X146440656Y-93873327D01*
X146456015Y-93868074D01*
X146468137Y-93866019D01*
X146478917Y-93866267D01*
X146485478Y-93867141D01*
X146502941Y-93873069D01*
X146533940Y-93887548D01*
X146578622Y-93910660D01*
X146637137Y-93942485D01*
X146709635Y-93983102D01*
X146796263Y-94032591D01*
X146841633Y-94058784D01*
X146951734Y-94122577D01*
X147047882Y-94178400D01*
X147130821Y-94226692D01*
X147201296Y-94267895D01*
X147260051Y-94302447D01*
X147307831Y-94330789D01*
X147345379Y-94353361D01*
X147373441Y-94370604D01*
X147392759Y-94382956D01*
X147404080Y-94390858D01*
X147406167Y-94392547D01*
X147420795Y-94415069D01*
X147426919Y-94445757D01*
X147423898Y-94477782D01*
X147416002Y-94497330D01*
X147403803Y-94509559D01*
X147378863Y-94528302D01*
X147343428Y-94552260D01*
X147299743Y-94580133D01*
X147250056Y-94610620D01*
X147196612Y-94642422D01*
X147141657Y-94674239D01*
X147087438Y-94704770D01*
X147036200Y-94732716D01*
X146990190Y-94756777D01*
X146951653Y-94775653D01*
X146922837Y-94788043D01*
X146905987Y-94792648D01*
X146905736Y-94792652D01*
X146890275Y-94790112D01*
X146867752Y-94781812D01*
X146836451Y-94766926D01*
X146794654Y-94744627D01*
X146740647Y-94714087D01*
X146730329Y-94708133D01*
X146685472Y-94682317D01*
X146645699Y-94659676D01*
X146613295Y-94641489D01*
X146590545Y-94629038D01*
X146579734Y-94623601D01*
X146579234Y-94623466D01*
X146577785Y-94631461D01*
X146576802Y-94653570D01*
X146576334Y-94686976D01*
X146576430Y-94728865D01*
X146576840Y-94760621D01*
X146579167Y-94897775D01*
X146762963Y-95004038D01*
X146815041Y-95034541D01*
X146863509Y-95063670D01*
X146906004Y-95089947D01*
X146940165Y-95111894D01*
X146963629Y-95128034D01*
X146972513Y-95135167D01*
X146993358Y-95165696D01*
X146998146Y-95200796D01*
X146986728Y-95239230D01*
X146985479Y-95241703D01*
X146967538Y-95266286D01*
X146942886Y-95279595D01*
X146907245Y-95283850D01*
X146904262Y-95283866D01*
X146891961Y-95282851D01*
X146877346Y-95279219D01*
X146858631Y-95272086D01*
X146834030Y-95260572D01*
X146801755Y-95243795D01*
X146760019Y-95220872D01*
X146707037Y-95190923D01*
X146651822Y-95159282D01*
X146595220Y-95126280D01*
X146542144Y-95094497D01*
X146494754Y-95065291D01*
X146455214Y-95040024D01*
X146425684Y-95020053D01*
X146408327Y-95006740D01*
X146406509Y-95004998D01*
X146377785Y-94975300D01*
X146386581Y-94408492D01*
X146413158Y-94384746D01*
X146428535Y-94372194D01*
X146443580Y-94363766D01*
X146460101Y-94360026D01*
X146479904Y-94361537D01*
X146504797Y-94368863D01*
X146536587Y-94382567D01*
X146577083Y-94403212D01*
X146628090Y-94431362D01*
X146691416Y-94467581D01*
X146706144Y-94476089D01*
X146905187Y-94591177D01*
X146945377Y-94568047D01*
X146970189Y-94553708D01*
X147004266Y-94533938D01*
X147042253Y-94511846D01*
X147064885Y-94498658D01*
X147144203Y-94452400D01*
X147069118Y-94408557D01*
X147043507Y-94393675D01*
X147005586Y-94371741D01*
X146957736Y-94344127D01*
X146902337Y-94312204D01*
X146841768Y-94277344D01*
X146778411Y-94240919D01*
X146737627Y-94217493D01*
X146481220Y-94070274D01*
X146449760Y-94085251D01*
X146432585Y-94094145D01*
X146403663Y-94109909D01*
X146365900Y-94130928D01*
X146322202Y-94155581D01*
X146275474Y-94182254D01*
X146274367Y-94182889D01*
X146213218Y-94217960D01*
X146164901Y-94245419D01*
X146127571Y-94266106D01*
X146099385Y-94280859D01*
X146078499Y-94290517D01*
X146063070Y-94295918D01*
X146051254Y-94297901D01*
X146041208Y-94297304D01*
X146031087Y-94294966D01*
X146029135Y-94294430D01*
X146014716Y-94288287D01*
X145987749Y-94274724D01*
X145950308Y-94254863D01*
X145904466Y-94229827D01*
X145852294Y-94200740D01*
X145795865Y-94168724D01*
X145774614Y-94156528D01*
X145703646Y-94115325D01*
X145646641Y-94081417D01*
X145602604Y-94054162D01*
X145570539Y-94032922D01*
X145549451Y-94017055D01*
X145538345Y-94005922D01*
X145536959Y-94003704D01*
X145534445Y-93996411D01*
X145532297Y-93984134D01*
X145530489Y-93965666D01*
X145528995Y-93939800D01*
X145527788Y-93905330D01*
X145526842Y-93861049D01*
X145526131Y-93805750D01*
X145525627Y-93738227D01*
X145525305Y-93657274D01*
X145525138Y-93561683D01*
X145525098Y-93461837D01*
X145525126Y-93354945D01*
D12*
X155250000Y-93220000D02*
X154320000Y-93220000D01*
X152090000Y-93220000D02*
X153020000Y-93220000D01*
X152090000Y-93220000D02*
X152090000Y-96380000D01*
X155250000Y-93220000D02*
X155250000Y-94680000D01*
D14*
X152461583Y-100515893D02*
X152461583Y-101231728D01*
X152413861Y-101374895D01*
X152318416Y-101470340D01*
X152175249Y-101518063D01*
X152079804Y-101518063D01*
X152891085Y-100611337D02*
X152938807Y-100563615D01*
X153034252Y-100515893D01*
X153272864Y-100515893D01*
X153368308Y-100563615D01*
X153416031Y-100611337D01*
X153463753Y-100706782D01*
X153463753Y-100802227D01*
X153416031Y-100945394D01*
X152843362Y-101518063D01*
X153463753Y-101518063D01*
X150418822Y-103885246D02*
X150418822Y-103244533D01*
X150632393Y-103702185D01*
X150845964Y-103244533D01*
X150845964Y-103885246D01*
X151151065Y-103885246D02*
X151151065Y-103244533D01*
X151151065Y-103549634D02*
X151517186Y-103549634D01*
X151517186Y-103885246D02*
X151517186Y-103244533D01*
X151822288Y-103641165D02*
X152310450Y-103641165D01*
X152554531Y-103244533D02*
X152981673Y-103244533D01*
X152554531Y-103885246D01*
X152981673Y-103885246D01*
X153561366Y-103885246D02*
X153195245Y-103885246D01*
X153378305Y-103885246D02*
X153378305Y-103244533D01*
X153317285Y-103336063D01*
X153256265Y-103397084D01*
X153195245Y-103427594D01*
X153866468Y-103885246D02*
X153988508Y-103885246D01*
X154049529Y-103854736D01*
X154080039Y-103824226D01*
X154141059Y-103732695D01*
X154171569Y-103610655D01*
X154171569Y-103366573D01*
X154141059Y-103305553D01*
X154110549Y-103275043D01*
X154049529Y-103244533D01*
X153927488Y-103244533D01*
X153866468Y-103275043D01*
X153835958Y-103305553D01*
X153805448Y-103366573D01*
X153805448Y-103519124D01*
X153835958Y-103580144D01*
X153866468Y-103610655D01*
X153927488Y-103641165D01*
X154049529Y-103641165D01*
X154110549Y-103610655D01*
X154141059Y-103580144D01*
X154171569Y-103519124D01*
M02*
