G04 #@! TF.FileFunction,Copper,L1,Top,Signal*
%FSLAX46Y46*%
G04 Gerber Fmt 4.6, Leading zero omitted, Abs format (unit mm)*
G04 Created by KiCad (PCBNEW 4.0.7-e2-6376~58~ubuntu17.04.1) date Sat Oct 28 22:25:12 2017*
%MOMM*%
%LPD*%
G01*
G04 APERTURE LIST*
%ADD10C,0.100000*%
%ADD11R,1.308000X1.308000*%
%ADD12C,1.308000*%
%ADD13R,0.970000X1.270000*%
%ADD14R,1.900000X0.800000*%
%ADD15R,1.700000X1.700000*%
%ADD16O,1.700000X1.700000*%
%ADD17C,0.600000*%
%ADD18C,0.250000*%
G04 APERTURE END LIST*
D10*
D11*
X147574000Y-99060000D03*
D12*
X147574000Y-101600000D03*
X147574000Y-104140000D03*
X147574000Y-106680000D03*
X147574000Y-109220000D03*
X177165000Y-99060000D03*
X177165000Y-101600000D03*
X177165000Y-104140000D03*
X177165000Y-106680000D03*
D13*
X168910000Y-116840000D03*
X170180000Y-116840000D03*
X171450000Y-116840000D03*
X165100000Y-116840000D03*
X163830000Y-116840000D03*
X162560000Y-116840000D03*
D14*
X179935000Y-117790000D03*
X179935000Y-115890000D03*
X176935000Y-116840000D03*
D15*
X148590000Y-91440000D03*
D16*
X151130000Y-91440000D03*
X153670000Y-91440000D03*
X156210000Y-91440000D03*
X158750000Y-91440000D03*
X161290000Y-91440000D03*
X163830000Y-91440000D03*
X166370000Y-91440000D03*
X168910000Y-91440000D03*
X171450000Y-91440000D03*
X173990000Y-91440000D03*
X176530000Y-91440000D03*
D15*
X176530000Y-120650000D03*
D16*
X173990000Y-120650000D03*
X171450000Y-120650000D03*
X168910000Y-120650000D03*
X166370000Y-120650000D03*
X163830000Y-120650000D03*
X161290000Y-120650000D03*
X158750000Y-120650000D03*
X156210000Y-120650000D03*
X153670000Y-120650000D03*
X151130000Y-120650000D03*
X148590000Y-120650000D03*
D17*
X179935000Y-118720700D03*
X161565800Y-116656100D03*
D18*
X179935000Y-101830000D02*
X177165000Y-99060000D01*
X179935000Y-115890000D02*
X179935000Y-101830000D01*
X172315600Y-117800300D02*
X171450000Y-117800300D01*
X173990000Y-119474700D02*
X172315600Y-117800300D01*
X173990000Y-120650000D02*
X173990000Y-119474700D01*
X171450000Y-116840000D02*
X171450000Y-117800300D01*
X179935000Y-118720700D02*
X179935000Y-117790000D01*
X162560000Y-116840000D02*
X161749700Y-116840000D01*
X161565800Y-116656100D02*
X161749700Y-116840000D01*
X176700000Y-115879700D02*
X170180000Y-115879700D01*
X176935000Y-116114700D02*
X176700000Y-115879700D01*
X176935000Y-116840000D02*
X176935000Y-116114700D01*
X170180000Y-116840000D02*
X170180000Y-115879700D01*
X148590000Y-103124000D02*
X147574000Y-104140000D01*
X148590000Y-91440000D02*
X148590000Y-103124000D01*
X168910000Y-120650000D02*
X168910000Y-116840000D01*
X165100000Y-118204700D02*
X165100000Y-116840000D01*
X166370000Y-119474700D02*
X165100000Y-118204700D01*
X166370000Y-120650000D02*
X166370000Y-119474700D01*
M02*
