G04 #@! TF.FileFunction,Legend,Top*
%FSLAX46Y46*%
G04 Gerber Fmt 4.6, Leading zero omitted, Abs format (unit mm)*
G04 Created by KiCad (PCBNEW 4.0.7-e2-6376~58~ubuntu17.04.1) date Sat Oct 28 22:25:12 2017*
%MOMM*%
%LPD*%
G01*
G04 APERTURE LIST*
%ADD10C,0.100000*%
%ADD11C,0.300000*%
%ADD12C,0.127000*%
%ADD13C,0.120000*%
%ADD14C,0.010000*%
%ADD15C,0.050000*%
G04 APERTURE END LIST*
D10*
D11*
X179748571Y-91154286D02*
X179962857Y-91440000D01*
X179748571Y-91725715D01*
D10*
X158307143Y-119016429D02*
X158307143Y-118416429D01*
X158450000Y-118416429D01*
X158535715Y-118445000D01*
X158592857Y-118502143D01*
X158621429Y-118559286D01*
X158650000Y-118673571D01*
X158650000Y-118759286D01*
X158621429Y-118873571D01*
X158592857Y-118930714D01*
X158535715Y-118987857D01*
X158450000Y-119016429D01*
X158307143Y-119016429D01*
X158935715Y-119016429D02*
X159050000Y-119016429D01*
X159107143Y-118987857D01*
X159135715Y-118959286D01*
X159192857Y-118873571D01*
X159221429Y-118759286D01*
X159221429Y-118530714D01*
X159192857Y-118473571D01*
X159164286Y-118445000D01*
X159107143Y-118416429D01*
X158992857Y-118416429D01*
X158935715Y-118445000D01*
X158907143Y-118473571D01*
X158878572Y-118530714D01*
X158878572Y-118673571D01*
X158907143Y-118730714D01*
X158935715Y-118759286D01*
X158992857Y-118787857D01*
X159107143Y-118787857D01*
X159164286Y-118759286D01*
X159192857Y-118730714D01*
X159221429Y-118673571D01*
X147818572Y-118987857D02*
X147904286Y-119016429D01*
X148047143Y-119016429D01*
X148104286Y-118987857D01*
X148132857Y-118959286D01*
X148161429Y-118902143D01*
X148161429Y-118845000D01*
X148132857Y-118787857D01*
X148104286Y-118759286D01*
X148047143Y-118730714D01*
X147932857Y-118702143D01*
X147875715Y-118673571D01*
X147847143Y-118645000D01*
X147818572Y-118587857D01*
X147818572Y-118530714D01*
X147847143Y-118473571D01*
X147875715Y-118445000D01*
X147932857Y-118416429D01*
X148075715Y-118416429D01*
X148161429Y-118445000D01*
X148761429Y-118959286D02*
X148732858Y-118987857D01*
X148647144Y-119016429D01*
X148590001Y-119016429D01*
X148504286Y-118987857D01*
X148447144Y-118930714D01*
X148418572Y-118873571D01*
X148390001Y-118759286D01*
X148390001Y-118673571D01*
X148418572Y-118559286D01*
X148447144Y-118502143D01*
X148504286Y-118445000D01*
X148590001Y-118416429D01*
X148647144Y-118416429D01*
X148732858Y-118445000D01*
X148761429Y-118473571D01*
X149018572Y-119016429D02*
X149018572Y-118416429D01*
X149361429Y-119016429D02*
X149104286Y-118673571D01*
X149361429Y-118416429D02*
X149018572Y-118759286D01*
X150187143Y-119016429D02*
X150187143Y-118416429D01*
X150387143Y-118845000D01*
X150587143Y-118416429D01*
X150587143Y-119016429D01*
X150872857Y-119016429D02*
X150872857Y-118416429D01*
X151130000Y-118987857D02*
X151215714Y-119016429D01*
X151358571Y-119016429D01*
X151415714Y-118987857D01*
X151444285Y-118959286D01*
X151472857Y-118902143D01*
X151472857Y-118845000D01*
X151444285Y-118787857D01*
X151415714Y-118759286D01*
X151358571Y-118730714D01*
X151244285Y-118702143D01*
X151187143Y-118673571D01*
X151158571Y-118645000D01*
X151130000Y-118587857D01*
X151130000Y-118530714D01*
X151158571Y-118473571D01*
X151187143Y-118445000D01*
X151244285Y-118416429D01*
X151387143Y-118416429D01*
X151472857Y-118445000D01*
X151844286Y-118416429D02*
X151958572Y-118416429D01*
X152015714Y-118445000D01*
X152072857Y-118502143D01*
X152101429Y-118616429D01*
X152101429Y-118816429D01*
X152072857Y-118930714D01*
X152015714Y-118987857D01*
X151958572Y-119016429D01*
X151844286Y-119016429D01*
X151787143Y-118987857D01*
X151730000Y-118930714D01*
X151701429Y-118816429D01*
X151701429Y-118616429D01*
X151730000Y-118502143D01*
X151787143Y-118445000D01*
X151844286Y-118416429D01*
X152727143Y-119016429D02*
X152727143Y-118416429D01*
X152927143Y-118845000D01*
X153127143Y-118416429D01*
X153127143Y-119016429D01*
X153527143Y-118416429D02*
X153641429Y-118416429D01*
X153698571Y-118445000D01*
X153755714Y-118502143D01*
X153784286Y-118616429D01*
X153784286Y-118816429D01*
X153755714Y-118930714D01*
X153698571Y-118987857D01*
X153641429Y-119016429D01*
X153527143Y-119016429D01*
X153470000Y-118987857D01*
X153412857Y-118930714D01*
X153384286Y-118816429D01*
X153384286Y-118616429D01*
X153412857Y-118502143D01*
X153470000Y-118445000D01*
X153527143Y-118416429D01*
X154012857Y-118987857D02*
X154098571Y-119016429D01*
X154241428Y-119016429D01*
X154298571Y-118987857D01*
X154327142Y-118959286D01*
X154355714Y-118902143D01*
X154355714Y-118845000D01*
X154327142Y-118787857D01*
X154298571Y-118759286D01*
X154241428Y-118730714D01*
X154127142Y-118702143D01*
X154070000Y-118673571D01*
X154041428Y-118645000D01*
X154012857Y-118587857D01*
X154012857Y-118530714D01*
X154041428Y-118473571D01*
X154070000Y-118445000D01*
X154127142Y-118416429D01*
X154270000Y-118416429D01*
X154355714Y-118445000D01*
X154612857Y-119016429D02*
X154612857Y-118416429D01*
X155881428Y-119016429D02*
X155681428Y-118730714D01*
X155538571Y-119016429D02*
X155538571Y-118416429D01*
X155767143Y-118416429D01*
X155824285Y-118445000D01*
X155852857Y-118473571D01*
X155881428Y-118530714D01*
X155881428Y-118616429D01*
X155852857Y-118673571D01*
X155824285Y-118702143D01*
X155767143Y-118730714D01*
X155538571Y-118730714D01*
X156110000Y-118987857D02*
X156195714Y-119016429D01*
X156338571Y-119016429D01*
X156395714Y-118987857D01*
X156424285Y-118959286D01*
X156452857Y-118902143D01*
X156452857Y-118845000D01*
X156424285Y-118787857D01*
X156395714Y-118759286D01*
X156338571Y-118730714D01*
X156224285Y-118702143D01*
X156167143Y-118673571D01*
X156138571Y-118645000D01*
X156110000Y-118587857D01*
X156110000Y-118530714D01*
X156138571Y-118473571D01*
X156167143Y-118445000D01*
X156224285Y-118416429D01*
X156367143Y-118416429D01*
X156452857Y-118445000D01*
X156624286Y-118416429D02*
X156967143Y-118416429D01*
X156795714Y-119016429D02*
X156795714Y-118416429D01*
X160847143Y-119016429D02*
X160847143Y-118416429D01*
X160990000Y-118416429D01*
X161075715Y-118445000D01*
X161132857Y-118502143D01*
X161161429Y-118559286D01*
X161190000Y-118673571D01*
X161190000Y-118759286D01*
X161161429Y-118873571D01*
X161132857Y-118930714D01*
X161075715Y-118987857D01*
X160990000Y-119016429D01*
X160847143Y-119016429D01*
X161532857Y-118673571D02*
X161475715Y-118645000D01*
X161447143Y-118616429D01*
X161418572Y-118559286D01*
X161418572Y-118530714D01*
X161447143Y-118473571D01*
X161475715Y-118445000D01*
X161532857Y-118416429D01*
X161647143Y-118416429D01*
X161704286Y-118445000D01*
X161732857Y-118473571D01*
X161761429Y-118530714D01*
X161761429Y-118559286D01*
X161732857Y-118616429D01*
X161704286Y-118645000D01*
X161647143Y-118673571D01*
X161532857Y-118673571D01*
X161475715Y-118702143D01*
X161447143Y-118730714D01*
X161418572Y-118787857D01*
X161418572Y-118902143D01*
X161447143Y-118959286D01*
X161475715Y-118987857D01*
X161532857Y-119016429D01*
X161647143Y-119016429D01*
X161704286Y-118987857D01*
X161732857Y-118959286D01*
X161761429Y-118902143D01*
X161761429Y-118787857D01*
X161732857Y-118730714D01*
X161704286Y-118702143D01*
X161647143Y-118673571D01*
X163387143Y-119016429D02*
X163387143Y-118416429D01*
X163530000Y-118416429D01*
X163615715Y-118445000D01*
X163672857Y-118502143D01*
X163701429Y-118559286D01*
X163730000Y-118673571D01*
X163730000Y-118759286D01*
X163701429Y-118873571D01*
X163672857Y-118930714D01*
X163615715Y-118987857D01*
X163530000Y-119016429D01*
X163387143Y-119016429D01*
X163930000Y-118416429D02*
X164330000Y-118416429D01*
X164072857Y-119016429D01*
X165927143Y-119016429D02*
X165927143Y-118416429D01*
X166070000Y-118416429D01*
X166155715Y-118445000D01*
X166212857Y-118502143D01*
X166241429Y-118559286D01*
X166270000Y-118673571D01*
X166270000Y-118759286D01*
X166241429Y-118873571D01*
X166212857Y-118930714D01*
X166155715Y-118987857D01*
X166070000Y-119016429D01*
X165927143Y-119016429D01*
X166784286Y-118416429D02*
X166670000Y-118416429D01*
X166612857Y-118445000D01*
X166584286Y-118473571D01*
X166527143Y-118559286D01*
X166498572Y-118673571D01*
X166498572Y-118902143D01*
X166527143Y-118959286D01*
X166555715Y-118987857D01*
X166612857Y-119016429D01*
X166727143Y-119016429D01*
X166784286Y-118987857D01*
X166812857Y-118959286D01*
X166841429Y-118902143D01*
X166841429Y-118759286D01*
X166812857Y-118702143D01*
X166784286Y-118673571D01*
X166727143Y-118645000D01*
X166612857Y-118645000D01*
X166555715Y-118673571D01*
X166527143Y-118702143D01*
X166498572Y-118759286D01*
X168467143Y-119016429D02*
X168467143Y-118416429D01*
X168610000Y-118416429D01*
X168695715Y-118445000D01*
X168752857Y-118502143D01*
X168781429Y-118559286D01*
X168810000Y-118673571D01*
X168810000Y-118759286D01*
X168781429Y-118873571D01*
X168752857Y-118930714D01*
X168695715Y-118987857D01*
X168610000Y-119016429D01*
X168467143Y-119016429D01*
X169352857Y-118416429D02*
X169067143Y-118416429D01*
X169038572Y-118702143D01*
X169067143Y-118673571D01*
X169124286Y-118645000D01*
X169267143Y-118645000D01*
X169324286Y-118673571D01*
X169352857Y-118702143D01*
X169381429Y-118759286D01*
X169381429Y-118902143D01*
X169352857Y-118959286D01*
X169324286Y-118987857D01*
X169267143Y-119016429D01*
X169124286Y-119016429D01*
X169067143Y-118987857D01*
X169038572Y-118959286D01*
X170992858Y-118445000D02*
X170935715Y-118416429D01*
X170850001Y-118416429D01*
X170764286Y-118445000D01*
X170707144Y-118502143D01*
X170678572Y-118559286D01*
X170650001Y-118673571D01*
X170650001Y-118759286D01*
X170678572Y-118873571D01*
X170707144Y-118930714D01*
X170764286Y-118987857D01*
X170850001Y-119016429D01*
X170907144Y-119016429D01*
X170992858Y-118987857D01*
X171021429Y-118959286D01*
X171021429Y-118759286D01*
X170907144Y-118759286D01*
X171278572Y-119016429D02*
X171278572Y-118416429D01*
X171621429Y-119016429D01*
X171621429Y-118416429D01*
X171907143Y-119016429D02*
X171907143Y-118416429D01*
X172050000Y-118416429D01*
X172135715Y-118445000D01*
X172192857Y-118502143D01*
X172221429Y-118559286D01*
X172250000Y-118673571D01*
X172250000Y-118759286D01*
X172221429Y-118873571D01*
X172192857Y-118930714D01*
X172135715Y-118987857D01*
X172050000Y-119016429D01*
X171907143Y-119016429D01*
X173104285Y-118416429D02*
X173475714Y-118416429D01*
X173275714Y-118645000D01*
X173361428Y-118645000D01*
X173418571Y-118673571D01*
X173447142Y-118702143D01*
X173475714Y-118759286D01*
X173475714Y-118902143D01*
X173447142Y-118959286D01*
X173418571Y-118987857D01*
X173361428Y-119016429D01*
X173190000Y-119016429D01*
X173132857Y-118987857D01*
X173104285Y-118959286D01*
X173732857Y-118959286D02*
X173761429Y-118987857D01*
X173732857Y-119016429D01*
X173704286Y-118987857D01*
X173732857Y-118959286D01*
X173732857Y-119016429D01*
X173961428Y-118416429D02*
X174332857Y-118416429D01*
X174132857Y-118645000D01*
X174218571Y-118645000D01*
X174275714Y-118673571D01*
X174304285Y-118702143D01*
X174332857Y-118759286D01*
X174332857Y-118902143D01*
X174304285Y-118959286D01*
X174275714Y-118987857D01*
X174218571Y-119016429D01*
X174047143Y-119016429D01*
X173990000Y-118987857D01*
X173961428Y-118959286D01*
X174504286Y-118416429D02*
X174704286Y-119016429D01*
X174904286Y-118416429D01*
X148161429Y-93445000D02*
X148447143Y-93445000D01*
X148104286Y-93616429D02*
X148304286Y-93016429D01*
X148504286Y-93616429D01*
X148818572Y-93016429D02*
X148875715Y-93016429D01*
X148932858Y-93045000D01*
X148961429Y-93073571D01*
X148990000Y-93130714D01*
X149018572Y-93245000D01*
X149018572Y-93387857D01*
X148990000Y-93502143D01*
X148961429Y-93559286D01*
X148932858Y-93587857D01*
X148875715Y-93616429D01*
X148818572Y-93616429D01*
X148761429Y-93587857D01*
X148732858Y-93559286D01*
X148704286Y-93502143D01*
X148675715Y-93387857D01*
X148675715Y-93245000D01*
X148704286Y-93130714D01*
X148732858Y-93073571D01*
X148761429Y-93045000D01*
X148818572Y-93016429D01*
X150701429Y-93445000D02*
X150987143Y-93445000D01*
X150644286Y-93616429D02*
X150844286Y-93016429D01*
X151044286Y-93616429D01*
X151558572Y-93616429D02*
X151215715Y-93616429D01*
X151387143Y-93616429D02*
X151387143Y-93016429D01*
X151330000Y-93102143D01*
X151272858Y-93159286D01*
X151215715Y-93187857D01*
X153241429Y-93445000D02*
X153527143Y-93445000D01*
X153184286Y-93616429D02*
X153384286Y-93016429D01*
X153584286Y-93616429D01*
X153727143Y-93016429D02*
X154098572Y-93016429D01*
X153898572Y-93245000D01*
X153984286Y-93245000D01*
X154041429Y-93273571D01*
X154070000Y-93302143D01*
X154098572Y-93359286D01*
X154098572Y-93502143D01*
X154070000Y-93559286D01*
X154041429Y-93587857D01*
X153984286Y-93616429D01*
X153812858Y-93616429D01*
X153755715Y-93587857D01*
X153727143Y-93559286D01*
X155781429Y-93445000D02*
X156067143Y-93445000D01*
X155724286Y-93616429D02*
X155924286Y-93016429D01*
X156124286Y-93616429D01*
X156581429Y-93216429D02*
X156581429Y-93616429D01*
X156438572Y-92987857D02*
X156295715Y-93416429D01*
X156667143Y-93416429D01*
X158321429Y-93445000D02*
X158607143Y-93445000D01*
X158264286Y-93616429D02*
X158464286Y-93016429D01*
X158664286Y-93616429D01*
X159150000Y-93016429D02*
X158864286Y-93016429D01*
X158835715Y-93302143D01*
X158864286Y-93273571D01*
X158921429Y-93245000D01*
X159064286Y-93245000D01*
X159121429Y-93273571D01*
X159150000Y-93302143D01*
X159178572Y-93359286D01*
X159178572Y-93502143D01*
X159150000Y-93559286D01*
X159121429Y-93587857D01*
X159064286Y-93616429D01*
X158921429Y-93616429D01*
X158864286Y-93587857D01*
X158835715Y-93559286D01*
X176087143Y-93616429D02*
X176087143Y-93016429D01*
X176230000Y-93016429D01*
X176315715Y-93045000D01*
X176372857Y-93102143D01*
X176401429Y-93159286D01*
X176430000Y-93273571D01*
X176430000Y-93359286D01*
X176401429Y-93473571D01*
X176372857Y-93530714D01*
X176315715Y-93587857D01*
X176230000Y-93616429D01*
X176087143Y-93616429D01*
X176944286Y-93216429D02*
X176944286Y-93616429D01*
X176801429Y-92987857D02*
X176658572Y-93416429D01*
X177030000Y-93416429D01*
X173547143Y-93616429D02*
X173547143Y-93016429D01*
X173690000Y-93016429D01*
X173775715Y-93045000D01*
X173832857Y-93102143D01*
X173861429Y-93159286D01*
X173890000Y-93273571D01*
X173890000Y-93359286D01*
X173861429Y-93473571D01*
X173832857Y-93530714D01*
X173775715Y-93587857D01*
X173690000Y-93616429D01*
X173547143Y-93616429D01*
X174090000Y-93016429D02*
X174461429Y-93016429D01*
X174261429Y-93245000D01*
X174347143Y-93245000D01*
X174404286Y-93273571D01*
X174432857Y-93302143D01*
X174461429Y-93359286D01*
X174461429Y-93502143D01*
X174432857Y-93559286D01*
X174404286Y-93587857D01*
X174347143Y-93616429D01*
X174175715Y-93616429D01*
X174118572Y-93587857D01*
X174090000Y-93559286D01*
X171007143Y-93616429D02*
X171007143Y-93016429D01*
X171150000Y-93016429D01*
X171235715Y-93045000D01*
X171292857Y-93102143D01*
X171321429Y-93159286D01*
X171350000Y-93273571D01*
X171350000Y-93359286D01*
X171321429Y-93473571D01*
X171292857Y-93530714D01*
X171235715Y-93587857D01*
X171150000Y-93616429D01*
X171007143Y-93616429D01*
X171578572Y-93073571D02*
X171607143Y-93045000D01*
X171664286Y-93016429D01*
X171807143Y-93016429D01*
X171864286Y-93045000D01*
X171892857Y-93073571D01*
X171921429Y-93130714D01*
X171921429Y-93187857D01*
X171892857Y-93273571D01*
X171550000Y-93616429D01*
X171921429Y-93616429D01*
X168452857Y-93016429D02*
X168795714Y-93016429D01*
X168624285Y-93616429D02*
X168624285Y-93016429D01*
X168938571Y-93016429D02*
X169338571Y-93616429D01*
X169338571Y-93016429D02*
X168938571Y-93616429D01*
X166270000Y-93616429D02*
X166070000Y-93330714D01*
X165927143Y-93616429D02*
X165927143Y-93016429D01*
X166155715Y-93016429D01*
X166212857Y-93045000D01*
X166241429Y-93073571D01*
X166270000Y-93130714D01*
X166270000Y-93216429D01*
X166241429Y-93273571D01*
X166212857Y-93302143D01*
X166155715Y-93330714D01*
X165927143Y-93330714D01*
X166470000Y-93016429D02*
X166870000Y-93616429D01*
X166870000Y-93016429D02*
X166470000Y-93616429D01*
X163401429Y-93445000D02*
X163687143Y-93445000D01*
X163344286Y-93616429D02*
X163544286Y-93016429D01*
X163744286Y-93616429D01*
X163887143Y-93016429D02*
X164287143Y-93016429D01*
X164030000Y-93616429D01*
X160861429Y-93445000D02*
X161147143Y-93445000D01*
X160804286Y-93616429D02*
X161004286Y-93016429D01*
X161204286Y-93616429D01*
X161661429Y-93016429D02*
X161547143Y-93016429D01*
X161490000Y-93045000D01*
X161461429Y-93073571D01*
X161404286Y-93159286D01*
X161375715Y-93273571D01*
X161375715Y-93502143D01*
X161404286Y-93559286D01*
X161432858Y-93587857D01*
X161490000Y-93616429D01*
X161604286Y-93616429D01*
X161661429Y-93587857D01*
X161690000Y-93559286D01*
X161718572Y-93502143D01*
X161718572Y-93359286D01*
X161690000Y-93302143D01*
X161661429Y-93273571D01*
X161604286Y-93245000D01*
X161490000Y-93245000D01*
X161432858Y-93273571D01*
X161404286Y-93302143D01*
X161375715Y-93359286D01*
X161640000Y-116306667D02*
X161673333Y-116240001D01*
X161673333Y-116140001D01*
X161640000Y-116040001D01*
X161573333Y-115973334D01*
X161506667Y-115940001D01*
X161373333Y-115906667D01*
X161273333Y-115906667D01*
X161140000Y-115940001D01*
X161073333Y-115973334D01*
X161006667Y-116040001D01*
X160973333Y-116140001D01*
X160973333Y-116206667D01*
X161006667Y-116306667D01*
X161040000Y-116340001D01*
X161273333Y-116340001D01*
X161273333Y-116206667D01*
X160973333Y-116640001D02*
X161673333Y-116640001D01*
X160973333Y-117040001D01*
X161673333Y-117040001D01*
X160973333Y-117373334D02*
X161673333Y-117373334D01*
X161673333Y-117540000D01*
X161640000Y-117640000D01*
X161573333Y-117706667D01*
X161506667Y-117740000D01*
X161373333Y-117773334D01*
X161273333Y-117773334D01*
X161140000Y-117740000D01*
X161073333Y-117706667D01*
X161006667Y-117640000D01*
X160973333Y-117540000D01*
X160973333Y-117373334D01*
X172670000Y-115606667D02*
X172670000Y-116140000D01*
X172403333Y-115873333D02*
X172936667Y-115873333D01*
X173103333Y-116406667D02*
X173103333Y-116840000D01*
X172836667Y-116606667D01*
X172836667Y-116706667D01*
X172803333Y-116773334D01*
X172770000Y-116806667D01*
X172703333Y-116840000D01*
X172536667Y-116840000D01*
X172470000Y-116806667D01*
X172436667Y-116773334D01*
X172403333Y-116706667D01*
X172403333Y-116506667D01*
X172436667Y-116440000D01*
X172470000Y-116406667D01*
X173103333Y-117040001D02*
X172403333Y-117273334D01*
X173103333Y-117506667D01*
X173103333Y-117673334D02*
X173103333Y-118106667D01*
X172836667Y-117873334D01*
X172836667Y-117973334D01*
X172803333Y-118040001D01*
X172770000Y-118073334D01*
X172703333Y-118106667D01*
X172536667Y-118106667D01*
X172470000Y-118073334D01*
X172436667Y-118040001D01*
X172403333Y-117973334D01*
X172403333Y-117773334D01*
X172436667Y-117706667D01*
X172470000Y-117673334D01*
X167323333Y-116323334D02*
X168023333Y-116323334D01*
X168023333Y-116490000D01*
X167990000Y-116590000D01*
X167923333Y-116656667D01*
X167856667Y-116690000D01*
X167723333Y-116723334D01*
X167623333Y-116723334D01*
X167490000Y-116690000D01*
X167423333Y-116656667D01*
X167356667Y-116590000D01*
X167323333Y-116490000D01*
X167323333Y-116323334D01*
X168023333Y-117356667D02*
X168023333Y-117023334D01*
X167690000Y-116990000D01*
X167723333Y-117023334D01*
X167756667Y-117090000D01*
X167756667Y-117256667D01*
X167723333Y-117323334D01*
X167690000Y-117356667D01*
X167623333Y-117390000D01*
X167456667Y-117390000D01*
X167390000Y-117356667D01*
X167356667Y-117323334D01*
X167323333Y-117256667D01*
X167323333Y-117090000D01*
X167356667Y-117023334D01*
X167390000Y-116990000D01*
X166053333Y-116323334D02*
X166753333Y-116323334D01*
X166753333Y-116490000D01*
X166720000Y-116590000D01*
X166653333Y-116656667D01*
X166586667Y-116690000D01*
X166453333Y-116723334D01*
X166353333Y-116723334D01*
X166220000Y-116690000D01*
X166153333Y-116656667D01*
X166086667Y-116590000D01*
X166053333Y-116490000D01*
X166053333Y-116323334D01*
X166753333Y-117323334D02*
X166753333Y-117190000D01*
X166720000Y-117123334D01*
X166686667Y-117090000D01*
X166586667Y-117023334D01*
X166453333Y-116990000D01*
X166186667Y-116990000D01*
X166120000Y-117023334D01*
X166086667Y-117056667D01*
X166053333Y-117123334D01*
X166053333Y-117256667D01*
X166086667Y-117323334D01*
X166120000Y-117356667D01*
X166186667Y-117390000D01*
X166353333Y-117390000D01*
X166420000Y-117356667D01*
X166453333Y-117323334D01*
X166486667Y-117256667D01*
X166486667Y-117123334D01*
X166453333Y-117056667D01*
X166420000Y-117023334D01*
X166353333Y-116990000D01*
X145315000Y-114982858D02*
X145315000Y-115268572D01*
X145143571Y-114925715D02*
X145743571Y-115125715D01*
X145143571Y-115325715D01*
X145143571Y-115811429D02*
X145143571Y-115525715D01*
X145743571Y-115525715D01*
X145743571Y-116125715D02*
X145743571Y-116240001D01*
X145715000Y-116297143D01*
X145657857Y-116354286D01*
X145543571Y-116382858D01*
X145343571Y-116382858D01*
X145229286Y-116354286D01*
X145172143Y-116297143D01*
X145143571Y-116240001D01*
X145143571Y-116125715D01*
X145172143Y-116068572D01*
X145229286Y-116011429D01*
X145343571Y-115982858D01*
X145543571Y-115982858D01*
X145657857Y-116011429D01*
X145715000Y-116068572D01*
X145743571Y-116125715D01*
X145457857Y-116640000D02*
X145457857Y-116840000D01*
X145143571Y-116925714D02*
X145143571Y-116640000D01*
X145743571Y-116640000D01*
X145743571Y-116925714D01*
X145172143Y-117154286D02*
X145143571Y-117240000D01*
X145143571Y-117382857D01*
X145172143Y-117440000D01*
X145200714Y-117468571D01*
X145257857Y-117497143D01*
X145315000Y-117497143D01*
X145372143Y-117468571D01*
X145400714Y-117440000D01*
X145429286Y-117382857D01*
X145457857Y-117268571D01*
X145486429Y-117211429D01*
X145515000Y-117182857D01*
X145572143Y-117154286D01*
X145629286Y-117154286D01*
X145686429Y-117182857D01*
X145715000Y-117211429D01*
X145743571Y-117268571D01*
X145743571Y-117411429D01*
X145715000Y-117497143D01*
X145200714Y-117754286D02*
X145172143Y-117782858D01*
X145143571Y-117754286D01*
X145172143Y-117725715D01*
X145200714Y-117754286D01*
X145143571Y-117754286D01*
X145143571Y-118040000D02*
X145743571Y-118040000D01*
X145743571Y-118440000D02*
X145743571Y-118554286D01*
X145715000Y-118611428D01*
X145657857Y-118668571D01*
X145543571Y-118697143D01*
X145343571Y-118697143D01*
X145229286Y-118668571D01*
X145172143Y-118611428D01*
X145143571Y-118554286D01*
X145143571Y-118440000D01*
X145172143Y-118382857D01*
X145229286Y-118325714D01*
X145343571Y-118297143D01*
X145543571Y-118297143D01*
X145657857Y-118325714D01*
X145715000Y-118382857D01*
X145743571Y-118440000D01*
X175715714Y-118702143D02*
X175801428Y-118730714D01*
X175830000Y-118759286D01*
X175858571Y-118816429D01*
X175858571Y-118902143D01*
X175830000Y-118959286D01*
X175801428Y-118987857D01*
X175744286Y-119016429D01*
X175515714Y-119016429D01*
X175515714Y-118416429D01*
X175715714Y-118416429D01*
X175772857Y-118445000D01*
X175801428Y-118473571D01*
X175830000Y-118530714D01*
X175830000Y-118587857D01*
X175801428Y-118645000D01*
X175772857Y-118673571D01*
X175715714Y-118702143D01*
X175515714Y-118702143D01*
X176087143Y-118845000D02*
X176372857Y-118845000D01*
X176030000Y-119016429D02*
X176230000Y-118416429D01*
X176430000Y-119016429D01*
X176544286Y-118416429D02*
X176887143Y-118416429D01*
X176715714Y-119016429D02*
X176715714Y-118416429D01*
X177087143Y-118787857D02*
X177544286Y-118787857D01*
X177315715Y-119016429D02*
X177315715Y-118559286D01*
D12*
X179070000Y-114300000D02*
X179070000Y-93980000D01*
X179070000Y-93980000D02*
X145669000Y-93980000D01*
X145669000Y-93980000D02*
X145669000Y-114300000D01*
X145669000Y-114300000D02*
X179070000Y-114300000D01*
D13*
X168270000Y-117730000D02*
X172090000Y-117730000D01*
X172090000Y-117730000D02*
X172090000Y-115950000D01*
X172090000Y-115950000D02*
X168270000Y-115950000D01*
X168270000Y-117730000D02*
X168270000Y-115950000D01*
X165740000Y-115950000D02*
X161920000Y-115950000D01*
X161920000Y-115950000D02*
X161920000Y-117730000D01*
X161920000Y-117730000D02*
X165740000Y-117730000D01*
X165740000Y-115950000D02*
X165740000Y-117730000D01*
D14*
G36*
X149749874Y-116830055D02*
X149749780Y-116921325D01*
X149749581Y-116998284D01*
X149749240Y-117062242D01*
X149748716Y-117114511D01*
X149747973Y-117156401D01*
X149746972Y-117189224D01*
X149745675Y-117214291D01*
X149744043Y-117232912D01*
X149742038Y-117246399D01*
X149739621Y-117256062D01*
X149736755Y-117263213D01*
X149733970Y-117268242D01*
X149708360Y-117295972D01*
X149675607Y-117310062D01*
X149639557Y-117308969D01*
X149635338Y-117307789D01*
X149619051Y-117300767D01*
X149590909Y-117286474D01*
X149553215Y-117266244D01*
X149508275Y-117241410D01*
X149458394Y-117213305D01*
X149405876Y-117183261D01*
X149353027Y-117152612D01*
X149302152Y-117122691D01*
X149255555Y-117094830D01*
X149215542Y-117070362D01*
X149184417Y-117050621D01*
X149164485Y-117036939D01*
X149158963Y-117032306D01*
X149152887Y-117024936D01*
X149148202Y-117015884D01*
X149144633Y-117002821D01*
X149141904Y-116983415D01*
X149139739Y-116955336D01*
X149137862Y-116916254D01*
X149135996Y-116863837D01*
X149134892Y-116829015D01*
X149133078Y-116775299D01*
X149131196Y-116727776D01*
X149129365Y-116688879D01*
X149127704Y-116661038D01*
X149126334Y-116646687D01*
X149125879Y-116645267D01*
X149117795Y-116649277D01*
X149097651Y-116660342D01*
X149068032Y-116677012D01*
X149031523Y-116697838D01*
X149008846Y-116710883D01*
X148895116Y-116776500D01*
X148894800Y-117166814D01*
X149086614Y-117276127D01*
X149139451Y-117306619D01*
X149188270Y-117335512D01*
X149230851Y-117361435D01*
X149264973Y-117383016D01*
X149288414Y-117398883D01*
X149298281Y-117406850D01*
X149318133Y-117428260D01*
X149318133Y-118496145D01*
X149290213Y-118523206D01*
X149276387Y-118535806D01*
X149263113Y-118544833D01*
X149248731Y-118549741D01*
X149231583Y-118549984D01*
X149210008Y-118545015D01*
X149182346Y-118534289D01*
X149146939Y-118517259D01*
X149102128Y-118493378D01*
X149046251Y-118462102D01*
X148977651Y-118422883D01*
X148967266Y-118416917D01*
X148895727Y-118375480D01*
X148838021Y-118341294D01*
X148793034Y-118313646D01*
X148759657Y-118291824D01*
X148736778Y-118275115D01*
X148723284Y-118262805D01*
X148719765Y-118258167D01*
X148714390Y-118247296D01*
X148710229Y-118232977D01*
X148707045Y-118212779D01*
X148704599Y-118184271D01*
X148702652Y-118145023D01*
X148700965Y-118092603D01*
X148700066Y-118057450D01*
X148695833Y-117882132D01*
X148579417Y-117950318D01*
X148463000Y-118018504D01*
X148461923Y-118172202D01*
X148461239Y-118230142D01*
X148460051Y-118290283D01*
X148458496Y-118347317D01*
X148456709Y-118395938D01*
X148455573Y-118419033D01*
X148450300Y-118512167D01*
X148403733Y-118542919D01*
X148383494Y-118555723D01*
X148351213Y-118575461D01*
X148309497Y-118600571D01*
X148260952Y-118629489D01*
X148208186Y-118660655D01*
X148167116Y-118684736D01*
X148107585Y-118719327D01*
X148060584Y-118746080D01*
X148024169Y-118765950D01*
X147996399Y-118779891D01*
X147975332Y-118788858D01*
X147959026Y-118793805D01*
X147945539Y-118795688D01*
X147941200Y-118795800D01*
X147932328Y-118795035D01*
X147921218Y-118792323D01*
X147906709Y-118787046D01*
X147887640Y-118778581D01*
X147862851Y-118766307D01*
X147831181Y-118749602D01*
X147791470Y-118727847D01*
X147742558Y-118700420D01*
X147683283Y-118666699D01*
X147612486Y-118626064D01*
X147529005Y-118577893D01*
X147466617Y-118541799D01*
X147384323Y-118493951D01*
X147306941Y-118448564D01*
X147235729Y-118406399D01*
X147171945Y-118368220D01*
X147116845Y-118334787D01*
X147071688Y-118306862D01*
X147037732Y-118285207D01*
X147016233Y-118270585D01*
X147008892Y-118264515D01*
X146993092Y-118232645D01*
X146991309Y-118196289D01*
X147003658Y-118161120D01*
X147014071Y-118150173D01*
X147035977Y-118133632D01*
X147070089Y-118111042D01*
X147117118Y-118081949D01*
X147177776Y-118045900D01*
X147247800Y-118005297D01*
X147314241Y-117967278D01*
X147367817Y-117937077D01*
X147410210Y-117913855D01*
X147443105Y-117896768D01*
X147468187Y-117884974D01*
X147487140Y-117877633D01*
X147501648Y-117873902D01*
X147512608Y-117872934D01*
X147528666Y-117874515D01*
X147547719Y-117880029D01*
X147572310Y-117890631D01*
X147604983Y-117907477D01*
X147648278Y-117931723D01*
X147671675Y-117945221D01*
X147714787Y-117970156D01*
X147754459Y-117992935D01*
X147787660Y-118011832D01*
X147811356Y-118025117D01*
X147820575Y-118030105D01*
X147844933Y-118042702D01*
X147844671Y-117767100D01*
X147652185Y-117657034D01*
X147599343Y-117626465D01*
X147550562Y-117597580D01*
X147508044Y-117571734D01*
X147473988Y-117550283D01*
X147450595Y-117534584D01*
X147440650Y-117526681D01*
X147435506Y-117520894D01*
X147431385Y-117514455D01*
X147428176Y-117505555D01*
X147425769Y-117492388D01*
X147424052Y-117473145D01*
X147422915Y-117446020D01*
X147422247Y-117409205D01*
X147421936Y-117360892D01*
X147421871Y-117299276D01*
X147421943Y-117222547D01*
X147421944Y-117221881D01*
X147422288Y-116937367D01*
X147445227Y-116911362D01*
X147459579Y-116899286D01*
X147486120Y-116880938D01*
X147522616Y-116857588D01*
X147566833Y-116830505D01*
X147616538Y-116800960D01*
X147669496Y-116770223D01*
X147723473Y-116739564D01*
X147776236Y-116710253D01*
X147825550Y-116683560D01*
X147869182Y-116660754D01*
X147904899Y-116643107D01*
X147930464Y-116631887D01*
X147943069Y-116628333D01*
X147969234Y-116635049D01*
X147998434Y-116653368D01*
X147999637Y-116654350D01*
X148031200Y-116680366D01*
X148032119Y-116876600D01*
X148032622Y-116935847D01*
X148033521Y-116992357D01*
X148034730Y-117042931D01*
X148036168Y-117084369D01*
X148037752Y-117113473D01*
X148038469Y-117121508D01*
X148043900Y-117170182D01*
X148160317Y-117237079D01*
X148276733Y-117303975D01*
X148276733Y-116529953D01*
X148110207Y-116434501D01*
X148055621Y-116403398D01*
X148013649Y-116380036D01*
X147982342Y-116363509D01*
X147959754Y-116352912D01*
X147943937Y-116347340D01*
X147932945Y-116345888D01*
X147924830Y-116347651D01*
X147924088Y-116347975D01*
X147911517Y-116354611D01*
X147886584Y-116368522D01*
X147851541Y-116388425D01*
X147808638Y-116413036D01*
X147760124Y-116441073D01*
X147722427Y-116462984D01*
X147657704Y-116500225D01*
X147606091Y-116528830D01*
X147566480Y-116549361D01*
X147537762Y-116562382D01*
X147518831Y-116568452D01*
X147513268Y-116569067D01*
X147502205Y-116567742D01*
X147487421Y-116563294D01*
X147467592Y-116555016D01*
X147441389Y-116542198D01*
X147407488Y-116524131D01*
X147364561Y-116500108D01*
X147311282Y-116469419D01*
X147246325Y-116431356D01*
X147168363Y-116385210D01*
X147161496Y-116381130D01*
X147115052Y-116353028D01*
X147073372Y-116326845D01*
X147038760Y-116304106D01*
X147013519Y-116286337D01*
X146999953Y-116275064D01*
X146998512Y-116273193D01*
X146991064Y-116245518D01*
X146991918Y-116212208D01*
X147000746Y-116182195D01*
X147001952Y-116179903D01*
X147013713Y-116168321D01*
X147040009Y-116149381D01*
X147080300Y-116123430D01*
X147134040Y-116090815D01*
X147200689Y-116051882D01*
X147215435Y-116043417D01*
X147417366Y-115927795D01*
X147419690Y-115786520D01*
X147422014Y-115645244D01*
X147385823Y-115666435D01*
X147370651Y-115675260D01*
X147342603Y-115691513D01*
X147303467Y-115714162D01*
X147255033Y-115742170D01*
X147199091Y-115774504D01*
X147137430Y-115810128D01*
X147071840Y-115848009D01*
X147049066Y-115861158D01*
X146748500Y-116034689D01*
X146746381Y-116227795D01*
X146744262Y-116420900D01*
X146943918Y-116534858D01*
X147004704Y-116570063D01*
X147057706Y-116601781D01*
X147101363Y-116629023D01*
X147134116Y-116650801D01*
X147154406Y-116666127D01*
X147159820Y-116671631D01*
X147163151Y-116676886D01*
X147165993Y-116683438D01*
X147168385Y-116692585D01*
X147170366Y-116705626D01*
X147171974Y-116723861D01*
X147173249Y-116748588D01*
X147174227Y-116781106D01*
X147174950Y-116822714D01*
X147175454Y-116874709D01*
X147175779Y-116938392D01*
X147175964Y-117015061D01*
X147176047Y-117106015D01*
X147176066Y-117212552D01*
X147176066Y-117217074D01*
X147176050Y-117324214D01*
X147175975Y-117415730D01*
X147175801Y-117492932D01*
X147175489Y-117557131D01*
X147174999Y-117609636D01*
X147174290Y-117651757D01*
X147173323Y-117684804D01*
X147172059Y-117710087D01*
X147170457Y-117728916D01*
X147168478Y-117742600D01*
X147166082Y-117752450D01*
X147163229Y-117759776D01*
X147159879Y-117765887D01*
X147159364Y-117766726D01*
X147135947Y-117791025D01*
X147104935Y-117805418D01*
X147072353Y-117807638D01*
X147059453Y-117804321D01*
X147044304Y-117797118D01*
X147017208Y-117782786D01*
X146980452Y-117762639D01*
X146936322Y-117737992D01*
X146887107Y-117710162D01*
X146835092Y-117680463D01*
X146782565Y-117650211D01*
X146731813Y-117620722D01*
X146685123Y-117593310D01*
X146644782Y-117569291D01*
X146613077Y-117549981D01*
X146592294Y-117536695D01*
X146585517Y-117531726D01*
X146579345Y-117525585D01*
X146574675Y-117518383D01*
X146571296Y-117507856D01*
X146569001Y-117491740D01*
X146567579Y-117467772D01*
X146566822Y-117433686D01*
X146566521Y-117387220D01*
X146566467Y-117326109D01*
X146566467Y-117325358D01*
X146566196Y-117270860D01*
X146565437Y-117222553D01*
X146564270Y-117182828D01*
X146562777Y-117154078D01*
X146561037Y-117138693D01*
X146560117Y-117136759D01*
X146550962Y-117140951D01*
X146529859Y-117152238D01*
X146499465Y-117169152D01*
X146462438Y-117190221D01*
X146439467Y-117203479D01*
X146325167Y-117269774D01*
X146319946Y-117467637D01*
X146318387Y-117526828D01*
X146316913Y-117583023D01*
X146315603Y-117633108D01*
X146314541Y-117673967D01*
X146313806Y-117702488D01*
X146313596Y-117710787D01*
X146311403Y-117739792D01*
X146304732Y-117759201D01*
X146290732Y-117776273D01*
X146286171Y-117780637D01*
X146253951Y-117800598D01*
X146219050Y-117805647D01*
X146185270Y-117796513D01*
X146156416Y-117773926D01*
X146142454Y-117753069D01*
X146135790Y-117737817D01*
X146131329Y-117720643D01*
X146128740Y-117698097D01*
X146127689Y-117666731D01*
X146127843Y-117623095D01*
X146128118Y-117604454D01*
X146128926Y-117554920D01*
X146129905Y-117494450D01*
X146130957Y-117429042D01*
X146131986Y-117364692D01*
X146132533Y-117330255D01*
X146133507Y-117274825D01*
X146134619Y-117233801D01*
X146136178Y-117204657D01*
X146138495Y-117184868D01*
X146141878Y-117171907D01*
X146146635Y-117163248D01*
X146153077Y-117156365D01*
X146153899Y-117155611D01*
X146165843Y-117147128D01*
X146190495Y-117131461D01*
X146225853Y-117109816D01*
X146269916Y-117083402D01*
X146320682Y-117053425D01*
X146376151Y-117021092D01*
X146394692Y-117010373D01*
X146458475Y-116973688D01*
X146509498Y-116944704D01*
X146549591Y-116922528D01*
X146580584Y-116906266D01*
X146604309Y-116895025D01*
X146622596Y-116887913D01*
X146637276Y-116884037D01*
X146650178Y-116882503D01*
X146657159Y-116882334D01*
X146683666Y-116883855D01*
X146701039Y-116890764D01*
X146716976Y-116906580D01*
X146720983Y-116911515D01*
X146744267Y-116940695D01*
X146744269Y-117176098D01*
X146744271Y-117411500D01*
X146822585Y-117455846D01*
X146861033Y-117477668D01*
X146899497Y-117499584D01*
X146932166Y-117518279D01*
X146945350Y-117525867D01*
X146989800Y-117551543D01*
X146989761Y-117164021D01*
X146989723Y-116776500D01*
X146809845Y-116675672D01*
X146757638Y-116645907D01*
X146708666Y-116617051D01*
X146665459Y-116590667D01*
X146630543Y-116568318D01*
X146606447Y-116551567D01*
X146598217Y-116544837D01*
X146566467Y-116514830D01*
X146566736Y-116226565D01*
X146566930Y-116145968D01*
X146567390Y-116080711D01*
X146568178Y-116029202D01*
X146569358Y-115989849D01*
X146570994Y-115961060D01*
X146573148Y-115941244D01*
X146575883Y-115928808D01*
X146578819Y-115922709D01*
X146588108Y-115915781D01*
X146610784Y-115901219D01*
X146645540Y-115879801D01*
X146691069Y-115852306D01*
X146746064Y-115819513D01*
X146809217Y-115782203D01*
X146879222Y-115741155D01*
X146954770Y-115697147D01*
X147034555Y-115650959D01*
X147036809Y-115649659D01*
X147132426Y-115594497D01*
X147214528Y-115547265D01*
X147284277Y-115507448D01*
X147342836Y-115474535D01*
X147391369Y-115448010D01*
X147431038Y-115427361D01*
X147463007Y-115412075D01*
X147488437Y-115401638D01*
X147508493Y-115395536D01*
X147524337Y-115393256D01*
X147537132Y-115394286D01*
X147548041Y-115398111D01*
X147558227Y-115404217D01*
X147568852Y-115412093D01*
X147571084Y-115413798D01*
X147599400Y-115435395D01*
X147599400Y-115725923D01*
X147599354Y-115804003D01*
X147599154Y-115866940D01*
X147598706Y-115916524D01*
X147597915Y-115954546D01*
X147596687Y-115982796D01*
X147594929Y-116003064D01*
X147592547Y-116017140D01*
X147589446Y-116026815D01*
X147585532Y-116033880D01*
X147583042Y-116037245D01*
X147570576Y-116048117D01*
X147546052Y-116065485D01*
X147512186Y-116087569D01*
X147471694Y-116112592D01*
X147432759Y-116135620D01*
X147389283Y-116160851D01*
X147350417Y-116183495D01*
X147318726Y-116202050D01*
X147296774Y-116215016D01*
X147287392Y-116220713D01*
X147287143Y-116226796D01*
X147298278Y-116237923D01*
X147321569Y-116254609D01*
X147357785Y-116277367D01*
X147407698Y-116306713D01*
X147464241Y-116338774D01*
X147511116Y-116365040D01*
X147709775Y-116251333D01*
X147772725Y-116215565D01*
X147822918Y-116187718D01*
X147862079Y-116166941D01*
X147891935Y-116152381D01*
X147914211Y-116143188D01*
X147930633Y-116138510D01*
X147940652Y-116137446D01*
X147952211Y-116138755D01*
X147967523Y-116143337D01*
X147988175Y-116152001D01*
X148015756Y-116165558D01*
X148051853Y-116184817D01*
X148098052Y-116210589D01*
X148155940Y-116243683D01*
X148209273Y-116274546D01*
X148276100Y-116313516D01*
X148329633Y-116345171D01*
X148371344Y-116370486D01*
X148402707Y-116390434D01*
X148425192Y-116405990D01*
X148440272Y-116418128D01*
X148449420Y-116427821D01*
X148454107Y-116436044D01*
X148454337Y-116436676D01*
X148456299Y-116451014D01*
X148458026Y-116481771D01*
X148459509Y-116528437D01*
X148460742Y-116590499D01*
X148461716Y-116667445D01*
X148462422Y-116758764D01*
X148462853Y-116863943D01*
X148463000Y-116982471D01*
X148463000Y-117505699D01*
X148438921Y-117528767D01*
X148411789Y-117549076D01*
X148383313Y-117557313D01*
X148350406Y-117553464D01*
X148309979Y-117537511D01*
X148291431Y-117527964D01*
X148236005Y-117497621D01*
X148178063Y-117465108D01*
X148119567Y-117431603D01*
X148062481Y-117398282D01*
X148008766Y-117366324D01*
X147960385Y-117336906D01*
X147919301Y-117311206D01*
X147887478Y-117290402D01*
X147866877Y-117275671D01*
X147859722Y-117268928D01*
X147855330Y-117252241D01*
X147851545Y-117218806D01*
X147848382Y-117168800D01*
X147845852Y-117102397D01*
X147845012Y-117070941D01*
X147840700Y-116891248D01*
X147719893Y-116959758D01*
X147599087Y-117028269D01*
X147601360Y-117219885D01*
X147603633Y-117411500D01*
X147796851Y-117522360D01*
X147849818Y-117553087D01*
X147898775Y-117582123D01*
X147941520Y-117608112D01*
X147975851Y-117629697D01*
X147999564Y-117645522D01*
X148009888Y-117653594D01*
X148029708Y-117673967D01*
X148032571Y-117949133D01*
X148033253Y-118030171D01*
X148033414Y-118095857D01*
X148033011Y-118147767D01*
X148032001Y-118187477D01*
X148030341Y-118216560D01*
X148027989Y-118236593D01*
X148024902Y-118249151D01*
X148024379Y-118250473D01*
X148006824Y-118273879D01*
X147979047Y-118293006D01*
X147947760Y-118303724D01*
X147936193Y-118304734D01*
X147924130Y-118300642D01*
X147899621Y-118289124D01*
X147864828Y-118271310D01*
X147821916Y-118248335D01*
X147773048Y-118221329D01*
X147726930Y-118195186D01*
X147674755Y-118165371D01*
X147626877Y-118138210D01*
X147585422Y-118114893D01*
X147552514Y-118096611D01*
X147530280Y-118084554D01*
X147521236Y-118080038D01*
X147506765Y-118081978D01*
X147478682Y-118093683D01*
X147436927Y-118115180D01*
X147392119Y-118140321D01*
X147352968Y-118163163D01*
X147319630Y-118183195D01*
X147294596Y-118198874D01*
X147280360Y-118208656D01*
X147278033Y-118211019D01*
X147285149Y-118215935D01*
X147305154Y-118228205D01*
X147336234Y-118246777D01*
X147376577Y-118270603D01*
X147424369Y-118298633D01*
X147477798Y-118329817D01*
X147535051Y-118363106D01*
X147594314Y-118397449D01*
X147653774Y-118431797D01*
X147711620Y-118465101D01*
X147766037Y-118496310D01*
X147815213Y-118524376D01*
X147857334Y-118548247D01*
X147890588Y-118566875D01*
X147913162Y-118579210D01*
X147920436Y-118582964D01*
X147928629Y-118586338D01*
X147937352Y-118587449D01*
X147948641Y-118585394D01*
X147964528Y-118579267D01*
X147987050Y-118568162D01*
X148018240Y-118551176D01*
X148060133Y-118527402D01*
X148110391Y-118498461D01*
X148276733Y-118402426D01*
X148276768Y-118262563D01*
X148277159Y-118204313D01*
X148278210Y-118141344D01*
X148279773Y-118080224D01*
X148281701Y-118027519D01*
X148282323Y-118014445D01*
X148287844Y-117906190D01*
X148360605Y-117861304D01*
X148389924Y-117843503D01*
X148430536Y-117819247D01*
X148479061Y-117790534D01*
X148532119Y-117759361D01*
X148586331Y-117727726D01*
X148603640Y-117717676D01*
X148664175Y-117682861D01*
X148712238Y-117656262D01*
X148749842Y-117637322D01*
X148778997Y-117625483D01*
X148801716Y-117620188D01*
X148820010Y-117620878D01*
X148835890Y-117626996D01*
X148851369Y-117637985D01*
X148860933Y-117646350D01*
X148890566Y-117673270D01*
X148893530Y-117916076D01*
X148896493Y-118158883D01*
X149006976Y-118221225D01*
X149046148Y-118243249D01*
X149080201Y-118262246D01*
X149106362Y-118276680D01*
X149121859Y-118285017D01*
X149124663Y-118286389D01*
X149126140Y-118278794D01*
X149127514Y-118255933D01*
X149128756Y-118219470D01*
X149129832Y-118171071D01*
X149130713Y-118112403D01*
X149131366Y-118045132D01*
X149131759Y-117970923D01*
X149131867Y-117904872D01*
X149131867Y-117520532D01*
X148929305Y-117403052D01*
X148858929Y-117361732D01*
X148803183Y-117327868D01*
X148761635Y-117301178D01*
X148733852Y-117281383D01*
X148719402Y-117268199D01*
X148717451Y-117265176D01*
X148714160Y-117249663D01*
X148711140Y-117219850D01*
X148708436Y-117178366D01*
X148706094Y-117127843D01*
X148704158Y-117070911D01*
X148702676Y-117010202D01*
X148701692Y-116948346D01*
X148701252Y-116887974D01*
X148701402Y-116831717D01*
X148702187Y-116782205D01*
X148703652Y-116742070D01*
X148705845Y-116713942D01*
X148707708Y-116703248D01*
X148710653Y-116692429D01*
X148713745Y-116683256D01*
X148718429Y-116674709D01*
X148726156Y-116665763D01*
X148738372Y-116655396D01*
X148756525Y-116642586D01*
X148782063Y-116626310D01*
X148816435Y-116605545D01*
X148861087Y-116579269D01*
X148917468Y-116546459D01*
X148986080Y-116506642D01*
X149051589Y-116468804D01*
X149104389Y-116438945D01*
X149146301Y-116416340D01*
X149179142Y-116400266D01*
X149204732Y-116390000D01*
X149224888Y-116384816D01*
X149241430Y-116383991D01*
X149256175Y-116386803D01*
X149270943Y-116392525D01*
X149271803Y-116392915D01*
X149284705Y-116399650D01*
X149294967Y-116408055D01*
X149302890Y-116420005D01*
X149308774Y-116437378D01*
X149312921Y-116462049D01*
X149315629Y-116495895D01*
X149317200Y-116540791D01*
X149317934Y-116598615D01*
X149318131Y-116671241D01*
X149318133Y-116682274D01*
X149318133Y-116914856D01*
X149437560Y-116983261D01*
X149477876Y-117006239D01*
X149512806Y-117025930D01*
X149539824Y-117040927D01*
X149556401Y-117049822D01*
X149560412Y-117051667D01*
X149561066Y-117043480D01*
X149561586Y-117020040D01*
X149561964Y-116983024D01*
X149562197Y-116934111D01*
X149562278Y-116874981D01*
X149562203Y-116807312D01*
X149561966Y-116732784D01*
X149561635Y-116665709D01*
X149559433Y-116279750D01*
X149393737Y-116184338D01*
X149228041Y-116088925D01*
X149025992Y-116206080D01*
X148966034Y-116240760D01*
X148918784Y-116267764D01*
X148882348Y-116287987D01*
X148854833Y-116302325D01*
X148834344Y-116311673D01*
X148818985Y-116316926D01*
X148806863Y-116318981D01*
X148796083Y-116318733D01*
X148789522Y-116317859D01*
X148772059Y-116311931D01*
X148741060Y-116297452D01*
X148696378Y-116274340D01*
X148637863Y-116242515D01*
X148565365Y-116201898D01*
X148478737Y-116152409D01*
X148433367Y-116126216D01*
X148323266Y-116062423D01*
X148227118Y-116006600D01*
X148144179Y-115958308D01*
X148073704Y-115917105D01*
X148014949Y-115882553D01*
X147967169Y-115854211D01*
X147929621Y-115831639D01*
X147901559Y-115814396D01*
X147882241Y-115802044D01*
X147870920Y-115794142D01*
X147868833Y-115792453D01*
X147854205Y-115769931D01*
X147848081Y-115739243D01*
X147851102Y-115707218D01*
X147858998Y-115687670D01*
X147871197Y-115675441D01*
X147896137Y-115656698D01*
X147931572Y-115632740D01*
X147975257Y-115604867D01*
X148024944Y-115574380D01*
X148078388Y-115542578D01*
X148133343Y-115510761D01*
X148187562Y-115480230D01*
X148238800Y-115452284D01*
X148284810Y-115428223D01*
X148323347Y-115409347D01*
X148352163Y-115396957D01*
X148369013Y-115392352D01*
X148369264Y-115392348D01*
X148384725Y-115394888D01*
X148407248Y-115403188D01*
X148438549Y-115418074D01*
X148480346Y-115440373D01*
X148534353Y-115470913D01*
X148544671Y-115476867D01*
X148589528Y-115502683D01*
X148629301Y-115525324D01*
X148661705Y-115543511D01*
X148684455Y-115555962D01*
X148695266Y-115561399D01*
X148695766Y-115561534D01*
X148697215Y-115553539D01*
X148698198Y-115531430D01*
X148698666Y-115498024D01*
X148698570Y-115456135D01*
X148698160Y-115424379D01*
X148695833Y-115287225D01*
X148512037Y-115180962D01*
X148459959Y-115150459D01*
X148411491Y-115121330D01*
X148368996Y-115095053D01*
X148334835Y-115073106D01*
X148311371Y-115056966D01*
X148302487Y-115049833D01*
X148281642Y-115019304D01*
X148276854Y-114984204D01*
X148288272Y-114945770D01*
X148289521Y-114943297D01*
X148307462Y-114918714D01*
X148332114Y-114905405D01*
X148367755Y-114901150D01*
X148370738Y-114901134D01*
X148383039Y-114902149D01*
X148397654Y-114905781D01*
X148416369Y-114912914D01*
X148440970Y-114924428D01*
X148473245Y-114941205D01*
X148514981Y-114964128D01*
X148567963Y-114994077D01*
X148623178Y-115025718D01*
X148679780Y-115058720D01*
X148732856Y-115090503D01*
X148780246Y-115119709D01*
X148819786Y-115144976D01*
X148849316Y-115164947D01*
X148866673Y-115178260D01*
X148868491Y-115180002D01*
X148897215Y-115209700D01*
X148888419Y-115776508D01*
X148861842Y-115800254D01*
X148846465Y-115812806D01*
X148831420Y-115821234D01*
X148814899Y-115824974D01*
X148795096Y-115823463D01*
X148770203Y-115816137D01*
X148738413Y-115802433D01*
X148697917Y-115781788D01*
X148646910Y-115753638D01*
X148583584Y-115717419D01*
X148568856Y-115708911D01*
X148369813Y-115593823D01*
X148329623Y-115616953D01*
X148304811Y-115631292D01*
X148270734Y-115651062D01*
X148232747Y-115673154D01*
X148210115Y-115686342D01*
X148130797Y-115732600D01*
X148205882Y-115776443D01*
X148231493Y-115791325D01*
X148269414Y-115813259D01*
X148317264Y-115840873D01*
X148372663Y-115872796D01*
X148433232Y-115907656D01*
X148496589Y-115944081D01*
X148537373Y-115967507D01*
X148793780Y-116114726D01*
X148825240Y-116099749D01*
X148842415Y-116090855D01*
X148871337Y-116075091D01*
X148909100Y-116054072D01*
X148952798Y-116029419D01*
X148999526Y-116002746D01*
X149000633Y-116002111D01*
X149061782Y-115967040D01*
X149110099Y-115939581D01*
X149147429Y-115918894D01*
X149175615Y-115904141D01*
X149196501Y-115894483D01*
X149211930Y-115889082D01*
X149223746Y-115887099D01*
X149233792Y-115887696D01*
X149243913Y-115890034D01*
X149245865Y-115890570D01*
X149260284Y-115896713D01*
X149287251Y-115910276D01*
X149324692Y-115930137D01*
X149370534Y-115955173D01*
X149422706Y-115984260D01*
X149479135Y-116016276D01*
X149500386Y-116028472D01*
X149571354Y-116069675D01*
X149628359Y-116103583D01*
X149672396Y-116130838D01*
X149704461Y-116152078D01*
X149725549Y-116167945D01*
X149736655Y-116179078D01*
X149738041Y-116181296D01*
X149740555Y-116188589D01*
X149742703Y-116200866D01*
X149744511Y-116219334D01*
X149746005Y-116245200D01*
X149747212Y-116279670D01*
X149748158Y-116323951D01*
X149748869Y-116379250D01*
X149749373Y-116446773D01*
X149749695Y-116527726D01*
X149749862Y-116623317D01*
X149749902Y-116723163D01*
X149749874Y-116830055D01*
X149749874Y-116830055D01*
G37*
X149749874Y-116830055D02*
X149749780Y-116921325D01*
X149749581Y-116998284D01*
X149749240Y-117062242D01*
X149748716Y-117114511D01*
X149747973Y-117156401D01*
X149746972Y-117189224D01*
X149745675Y-117214291D01*
X149744043Y-117232912D01*
X149742038Y-117246399D01*
X149739621Y-117256062D01*
X149736755Y-117263213D01*
X149733970Y-117268242D01*
X149708360Y-117295972D01*
X149675607Y-117310062D01*
X149639557Y-117308969D01*
X149635338Y-117307789D01*
X149619051Y-117300767D01*
X149590909Y-117286474D01*
X149553215Y-117266244D01*
X149508275Y-117241410D01*
X149458394Y-117213305D01*
X149405876Y-117183261D01*
X149353027Y-117152612D01*
X149302152Y-117122691D01*
X149255555Y-117094830D01*
X149215542Y-117070362D01*
X149184417Y-117050621D01*
X149164485Y-117036939D01*
X149158963Y-117032306D01*
X149152887Y-117024936D01*
X149148202Y-117015884D01*
X149144633Y-117002821D01*
X149141904Y-116983415D01*
X149139739Y-116955336D01*
X149137862Y-116916254D01*
X149135996Y-116863837D01*
X149134892Y-116829015D01*
X149133078Y-116775299D01*
X149131196Y-116727776D01*
X149129365Y-116688879D01*
X149127704Y-116661038D01*
X149126334Y-116646687D01*
X149125879Y-116645267D01*
X149117795Y-116649277D01*
X149097651Y-116660342D01*
X149068032Y-116677012D01*
X149031523Y-116697838D01*
X149008846Y-116710883D01*
X148895116Y-116776500D01*
X148894800Y-117166814D01*
X149086614Y-117276127D01*
X149139451Y-117306619D01*
X149188270Y-117335512D01*
X149230851Y-117361435D01*
X149264973Y-117383016D01*
X149288414Y-117398883D01*
X149298281Y-117406850D01*
X149318133Y-117428260D01*
X149318133Y-118496145D01*
X149290213Y-118523206D01*
X149276387Y-118535806D01*
X149263113Y-118544833D01*
X149248731Y-118549741D01*
X149231583Y-118549984D01*
X149210008Y-118545015D01*
X149182346Y-118534289D01*
X149146939Y-118517259D01*
X149102128Y-118493378D01*
X149046251Y-118462102D01*
X148977651Y-118422883D01*
X148967266Y-118416917D01*
X148895727Y-118375480D01*
X148838021Y-118341294D01*
X148793034Y-118313646D01*
X148759657Y-118291824D01*
X148736778Y-118275115D01*
X148723284Y-118262805D01*
X148719765Y-118258167D01*
X148714390Y-118247296D01*
X148710229Y-118232977D01*
X148707045Y-118212779D01*
X148704599Y-118184271D01*
X148702652Y-118145023D01*
X148700965Y-118092603D01*
X148700066Y-118057450D01*
X148695833Y-117882132D01*
X148579417Y-117950318D01*
X148463000Y-118018504D01*
X148461923Y-118172202D01*
X148461239Y-118230142D01*
X148460051Y-118290283D01*
X148458496Y-118347317D01*
X148456709Y-118395938D01*
X148455573Y-118419033D01*
X148450300Y-118512167D01*
X148403733Y-118542919D01*
X148383494Y-118555723D01*
X148351213Y-118575461D01*
X148309497Y-118600571D01*
X148260952Y-118629489D01*
X148208186Y-118660655D01*
X148167116Y-118684736D01*
X148107585Y-118719327D01*
X148060584Y-118746080D01*
X148024169Y-118765950D01*
X147996399Y-118779891D01*
X147975332Y-118788858D01*
X147959026Y-118793805D01*
X147945539Y-118795688D01*
X147941200Y-118795800D01*
X147932328Y-118795035D01*
X147921218Y-118792323D01*
X147906709Y-118787046D01*
X147887640Y-118778581D01*
X147862851Y-118766307D01*
X147831181Y-118749602D01*
X147791470Y-118727847D01*
X147742558Y-118700420D01*
X147683283Y-118666699D01*
X147612486Y-118626064D01*
X147529005Y-118577893D01*
X147466617Y-118541799D01*
X147384323Y-118493951D01*
X147306941Y-118448564D01*
X147235729Y-118406399D01*
X147171945Y-118368220D01*
X147116845Y-118334787D01*
X147071688Y-118306862D01*
X147037732Y-118285207D01*
X147016233Y-118270585D01*
X147008892Y-118264515D01*
X146993092Y-118232645D01*
X146991309Y-118196289D01*
X147003658Y-118161120D01*
X147014071Y-118150173D01*
X147035977Y-118133632D01*
X147070089Y-118111042D01*
X147117118Y-118081949D01*
X147177776Y-118045900D01*
X147247800Y-118005297D01*
X147314241Y-117967278D01*
X147367817Y-117937077D01*
X147410210Y-117913855D01*
X147443105Y-117896768D01*
X147468187Y-117884974D01*
X147487140Y-117877633D01*
X147501648Y-117873902D01*
X147512608Y-117872934D01*
X147528666Y-117874515D01*
X147547719Y-117880029D01*
X147572310Y-117890631D01*
X147604983Y-117907477D01*
X147648278Y-117931723D01*
X147671675Y-117945221D01*
X147714787Y-117970156D01*
X147754459Y-117992935D01*
X147787660Y-118011832D01*
X147811356Y-118025117D01*
X147820575Y-118030105D01*
X147844933Y-118042702D01*
X147844671Y-117767100D01*
X147652185Y-117657034D01*
X147599343Y-117626465D01*
X147550562Y-117597580D01*
X147508044Y-117571734D01*
X147473988Y-117550283D01*
X147450595Y-117534584D01*
X147440650Y-117526681D01*
X147435506Y-117520894D01*
X147431385Y-117514455D01*
X147428176Y-117505555D01*
X147425769Y-117492388D01*
X147424052Y-117473145D01*
X147422915Y-117446020D01*
X147422247Y-117409205D01*
X147421936Y-117360892D01*
X147421871Y-117299276D01*
X147421943Y-117222547D01*
X147421944Y-117221881D01*
X147422288Y-116937367D01*
X147445227Y-116911362D01*
X147459579Y-116899286D01*
X147486120Y-116880938D01*
X147522616Y-116857588D01*
X147566833Y-116830505D01*
X147616538Y-116800960D01*
X147669496Y-116770223D01*
X147723473Y-116739564D01*
X147776236Y-116710253D01*
X147825550Y-116683560D01*
X147869182Y-116660754D01*
X147904899Y-116643107D01*
X147930464Y-116631887D01*
X147943069Y-116628333D01*
X147969234Y-116635049D01*
X147998434Y-116653368D01*
X147999637Y-116654350D01*
X148031200Y-116680366D01*
X148032119Y-116876600D01*
X148032622Y-116935847D01*
X148033521Y-116992357D01*
X148034730Y-117042931D01*
X148036168Y-117084369D01*
X148037752Y-117113473D01*
X148038469Y-117121508D01*
X148043900Y-117170182D01*
X148160317Y-117237079D01*
X148276733Y-117303975D01*
X148276733Y-116529953D01*
X148110207Y-116434501D01*
X148055621Y-116403398D01*
X148013649Y-116380036D01*
X147982342Y-116363509D01*
X147959754Y-116352912D01*
X147943937Y-116347340D01*
X147932945Y-116345888D01*
X147924830Y-116347651D01*
X147924088Y-116347975D01*
X147911517Y-116354611D01*
X147886584Y-116368522D01*
X147851541Y-116388425D01*
X147808638Y-116413036D01*
X147760124Y-116441073D01*
X147722427Y-116462984D01*
X147657704Y-116500225D01*
X147606091Y-116528830D01*
X147566480Y-116549361D01*
X147537762Y-116562382D01*
X147518831Y-116568452D01*
X147513268Y-116569067D01*
X147502205Y-116567742D01*
X147487421Y-116563294D01*
X147467592Y-116555016D01*
X147441389Y-116542198D01*
X147407488Y-116524131D01*
X147364561Y-116500108D01*
X147311282Y-116469419D01*
X147246325Y-116431356D01*
X147168363Y-116385210D01*
X147161496Y-116381130D01*
X147115052Y-116353028D01*
X147073372Y-116326845D01*
X147038760Y-116304106D01*
X147013519Y-116286337D01*
X146999953Y-116275064D01*
X146998512Y-116273193D01*
X146991064Y-116245518D01*
X146991918Y-116212208D01*
X147000746Y-116182195D01*
X147001952Y-116179903D01*
X147013713Y-116168321D01*
X147040009Y-116149381D01*
X147080300Y-116123430D01*
X147134040Y-116090815D01*
X147200689Y-116051882D01*
X147215435Y-116043417D01*
X147417366Y-115927795D01*
X147419690Y-115786520D01*
X147422014Y-115645244D01*
X147385823Y-115666435D01*
X147370651Y-115675260D01*
X147342603Y-115691513D01*
X147303467Y-115714162D01*
X147255033Y-115742170D01*
X147199091Y-115774504D01*
X147137430Y-115810128D01*
X147071840Y-115848009D01*
X147049066Y-115861158D01*
X146748500Y-116034689D01*
X146746381Y-116227795D01*
X146744262Y-116420900D01*
X146943918Y-116534858D01*
X147004704Y-116570063D01*
X147057706Y-116601781D01*
X147101363Y-116629023D01*
X147134116Y-116650801D01*
X147154406Y-116666127D01*
X147159820Y-116671631D01*
X147163151Y-116676886D01*
X147165993Y-116683438D01*
X147168385Y-116692585D01*
X147170366Y-116705626D01*
X147171974Y-116723861D01*
X147173249Y-116748588D01*
X147174227Y-116781106D01*
X147174950Y-116822714D01*
X147175454Y-116874709D01*
X147175779Y-116938392D01*
X147175964Y-117015061D01*
X147176047Y-117106015D01*
X147176066Y-117212552D01*
X147176066Y-117217074D01*
X147176050Y-117324214D01*
X147175975Y-117415730D01*
X147175801Y-117492932D01*
X147175489Y-117557131D01*
X147174999Y-117609636D01*
X147174290Y-117651757D01*
X147173323Y-117684804D01*
X147172059Y-117710087D01*
X147170457Y-117728916D01*
X147168478Y-117742600D01*
X147166082Y-117752450D01*
X147163229Y-117759776D01*
X147159879Y-117765887D01*
X147159364Y-117766726D01*
X147135947Y-117791025D01*
X147104935Y-117805418D01*
X147072353Y-117807638D01*
X147059453Y-117804321D01*
X147044304Y-117797118D01*
X147017208Y-117782786D01*
X146980452Y-117762639D01*
X146936322Y-117737992D01*
X146887107Y-117710162D01*
X146835092Y-117680463D01*
X146782565Y-117650211D01*
X146731813Y-117620722D01*
X146685123Y-117593310D01*
X146644782Y-117569291D01*
X146613077Y-117549981D01*
X146592294Y-117536695D01*
X146585517Y-117531726D01*
X146579345Y-117525585D01*
X146574675Y-117518383D01*
X146571296Y-117507856D01*
X146569001Y-117491740D01*
X146567579Y-117467772D01*
X146566822Y-117433686D01*
X146566521Y-117387220D01*
X146566467Y-117326109D01*
X146566467Y-117325358D01*
X146566196Y-117270860D01*
X146565437Y-117222553D01*
X146564270Y-117182828D01*
X146562777Y-117154078D01*
X146561037Y-117138693D01*
X146560117Y-117136759D01*
X146550962Y-117140951D01*
X146529859Y-117152238D01*
X146499465Y-117169152D01*
X146462438Y-117190221D01*
X146439467Y-117203479D01*
X146325167Y-117269774D01*
X146319946Y-117467637D01*
X146318387Y-117526828D01*
X146316913Y-117583023D01*
X146315603Y-117633108D01*
X146314541Y-117673967D01*
X146313806Y-117702488D01*
X146313596Y-117710787D01*
X146311403Y-117739792D01*
X146304732Y-117759201D01*
X146290732Y-117776273D01*
X146286171Y-117780637D01*
X146253951Y-117800598D01*
X146219050Y-117805647D01*
X146185270Y-117796513D01*
X146156416Y-117773926D01*
X146142454Y-117753069D01*
X146135790Y-117737817D01*
X146131329Y-117720643D01*
X146128740Y-117698097D01*
X146127689Y-117666731D01*
X146127843Y-117623095D01*
X146128118Y-117604454D01*
X146128926Y-117554920D01*
X146129905Y-117494450D01*
X146130957Y-117429042D01*
X146131986Y-117364692D01*
X146132533Y-117330255D01*
X146133507Y-117274825D01*
X146134619Y-117233801D01*
X146136178Y-117204657D01*
X146138495Y-117184868D01*
X146141878Y-117171907D01*
X146146635Y-117163248D01*
X146153077Y-117156365D01*
X146153899Y-117155611D01*
X146165843Y-117147128D01*
X146190495Y-117131461D01*
X146225853Y-117109816D01*
X146269916Y-117083402D01*
X146320682Y-117053425D01*
X146376151Y-117021092D01*
X146394692Y-117010373D01*
X146458475Y-116973688D01*
X146509498Y-116944704D01*
X146549591Y-116922528D01*
X146580584Y-116906266D01*
X146604309Y-116895025D01*
X146622596Y-116887913D01*
X146637276Y-116884037D01*
X146650178Y-116882503D01*
X146657159Y-116882334D01*
X146683666Y-116883855D01*
X146701039Y-116890764D01*
X146716976Y-116906580D01*
X146720983Y-116911515D01*
X146744267Y-116940695D01*
X146744269Y-117176098D01*
X146744271Y-117411500D01*
X146822585Y-117455846D01*
X146861033Y-117477668D01*
X146899497Y-117499584D01*
X146932166Y-117518279D01*
X146945350Y-117525867D01*
X146989800Y-117551543D01*
X146989761Y-117164021D01*
X146989723Y-116776500D01*
X146809845Y-116675672D01*
X146757638Y-116645907D01*
X146708666Y-116617051D01*
X146665459Y-116590667D01*
X146630543Y-116568318D01*
X146606447Y-116551567D01*
X146598217Y-116544837D01*
X146566467Y-116514830D01*
X146566736Y-116226565D01*
X146566930Y-116145968D01*
X146567390Y-116080711D01*
X146568178Y-116029202D01*
X146569358Y-115989849D01*
X146570994Y-115961060D01*
X146573148Y-115941244D01*
X146575883Y-115928808D01*
X146578819Y-115922709D01*
X146588108Y-115915781D01*
X146610784Y-115901219D01*
X146645540Y-115879801D01*
X146691069Y-115852306D01*
X146746064Y-115819513D01*
X146809217Y-115782203D01*
X146879222Y-115741155D01*
X146954770Y-115697147D01*
X147034555Y-115650959D01*
X147036809Y-115649659D01*
X147132426Y-115594497D01*
X147214528Y-115547265D01*
X147284277Y-115507448D01*
X147342836Y-115474535D01*
X147391369Y-115448010D01*
X147431038Y-115427361D01*
X147463007Y-115412075D01*
X147488437Y-115401638D01*
X147508493Y-115395536D01*
X147524337Y-115393256D01*
X147537132Y-115394286D01*
X147548041Y-115398111D01*
X147558227Y-115404217D01*
X147568852Y-115412093D01*
X147571084Y-115413798D01*
X147599400Y-115435395D01*
X147599400Y-115725923D01*
X147599354Y-115804003D01*
X147599154Y-115866940D01*
X147598706Y-115916524D01*
X147597915Y-115954546D01*
X147596687Y-115982796D01*
X147594929Y-116003064D01*
X147592547Y-116017140D01*
X147589446Y-116026815D01*
X147585532Y-116033880D01*
X147583042Y-116037245D01*
X147570576Y-116048117D01*
X147546052Y-116065485D01*
X147512186Y-116087569D01*
X147471694Y-116112592D01*
X147432759Y-116135620D01*
X147389283Y-116160851D01*
X147350417Y-116183495D01*
X147318726Y-116202050D01*
X147296774Y-116215016D01*
X147287392Y-116220713D01*
X147287143Y-116226796D01*
X147298278Y-116237923D01*
X147321569Y-116254609D01*
X147357785Y-116277367D01*
X147407698Y-116306713D01*
X147464241Y-116338774D01*
X147511116Y-116365040D01*
X147709775Y-116251333D01*
X147772725Y-116215565D01*
X147822918Y-116187718D01*
X147862079Y-116166941D01*
X147891935Y-116152381D01*
X147914211Y-116143188D01*
X147930633Y-116138510D01*
X147940652Y-116137446D01*
X147952211Y-116138755D01*
X147967523Y-116143337D01*
X147988175Y-116152001D01*
X148015756Y-116165558D01*
X148051853Y-116184817D01*
X148098052Y-116210589D01*
X148155940Y-116243683D01*
X148209273Y-116274546D01*
X148276100Y-116313516D01*
X148329633Y-116345171D01*
X148371344Y-116370486D01*
X148402707Y-116390434D01*
X148425192Y-116405990D01*
X148440272Y-116418128D01*
X148449420Y-116427821D01*
X148454107Y-116436044D01*
X148454337Y-116436676D01*
X148456299Y-116451014D01*
X148458026Y-116481771D01*
X148459509Y-116528437D01*
X148460742Y-116590499D01*
X148461716Y-116667445D01*
X148462422Y-116758764D01*
X148462853Y-116863943D01*
X148463000Y-116982471D01*
X148463000Y-117505699D01*
X148438921Y-117528767D01*
X148411789Y-117549076D01*
X148383313Y-117557313D01*
X148350406Y-117553464D01*
X148309979Y-117537511D01*
X148291431Y-117527964D01*
X148236005Y-117497621D01*
X148178063Y-117465108D01*
X148119567Y-117431603D01*
X148062481Y-117398282D01*
X148008766Y-117366324D01*
X147960385Y-117336906D01*
X147919301Y-117311206D01*
X147887478Y-117290402D01*
X147866877Y-117275671D01*
X147859722Y-117268928D01*
X147855330Y-117252241D01*
X147851545Y-117218806D01*
X147848382Y-117168800D01*
X147845852Y-117102397D01*
X147845012Y-117070941D01*
X147840700Y-116891248D01*
X147719893Y-116959758D01*
X147599087Y-117028269D01*
X147601360Y-117219885D01*
X147603633Y-117411500D01*
X147796851Y-117522360D01*
X147849818Y-117553087D01*
X147898775Y-117582123D01*
X147941520Y-117608112D01*
X147975851Y-117629697D01*
X147999564Y-117645522D01*
X148009888Y-117653594D01*
X148029708Y-117673967D01*
X148032571Y-117949133D01*
X148033253Y-118030171D01*
X148033414Y-118095857D01*
X148033011Y-118147767D01*
X148032001Y-118187477D01*
X148030341Y-118216560D01*
X148027989Y-118236593D01*
X148024902Y-118249151D01*
X148024379Y-118250473D01*
X148006824Y-118273879D01*
X147979047Y-118293006D01*
X147947760Y-118303724D01*
X147936193Y-118304734D01*
X147924130Y-118300642D01*
X147899621Y-118289124D01*
X147864828Y-118271310D01*
X147821916Y-118248335D01*
X147773048Y-118221329D01*
X147726930Y-118195186D01*
X147674755Y-118165371D01*
X147626877Y-118138210D01*
X147585422Y-118114893D01*
X147552514Y-118096611D01*
X147530280Y-118084554D01*
X147521236Y-118080038D01*
X147506765Y-118081978D01*
X147478682Y-118093683D01*
X147436927Y-118115180D01*
X147392119Y-118140321D01*
X147352968Y-118163163D01*
X147319630Y-118183195D01*
X147294596Y-118198874D01*
X147280360Y-118208656D01*
X147278033Y-118211019D01*
X147285149Y-118215935D01*
X147305154Y-118228205D01*
X147336234Y-118246777D01*
X147376577Y-118270603D01*
X147424369Y-118298633D01*
X147477798Y-118329817D01*
X147535051Y-118363106D01*
X147594314Y-118397449D01*
X147653774Y-118431797D01*
X147711620Y-118465101D01*
X147766037Y-118496310D01*
X147815213Y-118524376D01*
X147857334Y-118548247D01*
X147890588Y-118566875D01*
X147913162Y-118579210D01*
X147920436Y-118582964D01*
X147928629Y-118586338D01*
X147937352Y-118587449D01*
X147948641Y-118585394D01*
X147964528Y-118579267D01*
X147987050Y-118568162D01*
X148018240Y-118551176D01*
X148060133Y-118527402D01*
X148110391Y-118498461D01*
X148276733Y-118402426D01*
X148276768Y-118262563D01*
X148277159Y-118204313D01*
X148278210Y-118141344D01*
X148279773Y-118080224D01*
X148281701Y-118027519D01*
X148282323Y-118014445D01*
X148287844Y-117906190D01*
X148360605Y-117861304D01*
X148389924Y-117843503D01*
X148430536Y-117819247D01*
X148479061Y-117790534D01*
X148532119Y-117759361D01*
X148586331Y-117727726D01*
X148603640Y-117717676D01*
X148664175Y-117682861D01*
X148712238Y-117656262D01*
X148749842Y-117637322D01*
X148778997Y-117625483D01*
X148801716Y-117620188D01*
X148820010Y-117620878D01*
X148835890Y-117626996D01*
X148851369Y-117637985D01*
X148860933Y-117646350D01*
X148890566Y-117673270D01*
X148893530Y-117916076D01*
X148896493Y-118158883D01*
X149006976Y-118221225D01*
X149046148Y-118243249D01*
X149080201Y-118262246D01*
X149106362Y-118276680D01*
X149121859Y-118285017D01*
X149124663Y-118286389D01*
X149126140Y-118278794D01*
X149127514Y-118255933D01*
X149128756Y-118219470D01*
X149129832Y-118171071D01*
X149130713Y-118112403D01*
X149131366Y-118045132D01*
X149131759Y-117970923D01*
X149131867Y-117904872D01*
X149131867Y-117520532D01*
X148929305Y-117403052D01*
X148858929Y-117361732D01*
X148803183Y-117327868D01*
X148761635Y-117301178D01*
X148733852Y-117281383D01*
X148719402Y-117268199D01*
X148717451Y-117265176D01*
X148714160Y-117249663D01*
X148711140Y-117219850D01*
X148708436Y-117178366D01*
X148706094Y-117127843D01*
X148704158Y-117070911D01*
X148702676Y-117010202D01*
X148701692Y-116948346D01*
X148701252Y-116887974D01*
X148701402Y-116831717D01*
X148702187Y-116782205D01*
X148703652Y-116742070D01*
X148705845Y-116713942D01*
X148707708Y-116703248D01*
X148710653Y-116692429D01*
X148713745Y-116683256D01*
X148718429Y-116674709D01*
X148726156Y-116665763D01*
X148738372Y-116655396D01*
X148756525Y-116642586D01*
X148782063Y-116626310D01*
X148816435Y-116605545D01*
X148861087Y-116579269D01*
X148917468Y-116546459D01*
X148986080Y-116506642D01*
X149051589Y-116468804D01*
X149104389Y-116438945D01*
X149146301Y-116416340D01*
X149179142Y-116400266D01*
X149204732Y-116390000D01*
X149224888Y-116384816D01*
X149241430Y-116383991D01*
X149256175Y-116386803D01*
X149270943Y-116392525D01*
X149271803Y-116392915D01*
X149284705Y-116399650D01*
X149294967Y-116408055D01*
X149302890Y-116420005D01*
X149308774Y-116437378D01*
X149312921Y-116462049D01*
X149315629Y-116495895D01*
X149317200Y-116540791D01*
X149317934Y-116598615D01*
X149318131Y-116671241D01*
X149318133Y-116682274D01*
X149318133Y-116914856D01*
X149437560Y-116983261D01*
X149477876Y-117006239D01*
X149512806Y-117025930D01*
X149539824Y-117040927D01*
X149556401Y-117049822D01*
X149560412Y-117051667D01*
X149561066Y-117043480D01*
X149561586Y-117020040D01*
X149561964Y-116983024D01*
X149562197Y-116934111D01*
X149562278Y-116874981D01*
X149562203Y-116807312D01*
X149561966Y-116732784D01*
X149561635Y-116665709D01*
X149559433Y-116279750D01*
X149393737Y-116184338D01*
X149228041Y-116088925D01*
X149025992Y-116206080D01*
X148966034Y-116240760D01*
X148918784Y-116267764D01*
X148882348Y-116287987D01*
X148854833Y-116302325D01*
X148834344Y-116311673D01*
X148818985Y-116316926D01*
X148806863Y-116318981D01*
X148796083Y-116318733D01*
X148789522Y-116317859D01*
X148772059Y-116311931D01*
X148741060Y-116297452D01*
X148696378Y-116274340D01*
X148637863Y-116242515D01*
X148565365Y-116201898D01*
X148478737Y-116152409D01*
X148433367Y-116126216D01*
X148323266Y-116062423D01*
X148227118Y-116006600D01*
X148144179Y-115958308D01*
X148073704Y-115917105D01*
X148014949Y-115882553D01*
X147967169Y-115854211D01*
X147929621Y-115831639D01*
X147901559Y-115814396D01*
X147882241Y-115802044D01*
X147870920Y-115794142D01*
X147868833Y-115792453D01*
X147854205Y-115769931D01*
X147848081Y-115739243D01*
X147851102Y-115707218D01*
X147858998Y-115687670D01*
X147871197Y-115675441D01*
X147896137Y-115656698D01*
X147931572Y-115632740D01*
X147975257Y-115604867D01*
X148024944Y-115574380D01*
X148078388Y-115542578D01*
X148133343Y-115510761D01*
X148187562Y-115480230D01*
X148238800Y-115452284D01*
X148284810Y-115428223D01*
X148323347Y-115409347D01*
X148352163Y-115396957D01*
X148369013Y-115392352D01*
X148369264Y-115392348D01*
X148384725Y-115394888D01*
X148407248Y-115403188D01*
X148438549Y-115418074D01*
X148480346Y-115440373D01*
X148534353Y-115470913D01*
X148544671Y-115476867D01*
X148589528Y-115502683D01*
X148629301Y-115525324D01*
X148661705Y-115543511D01*
X148684455Y-115555962D01*
X148695266Y-115561399D01*
X148695766Y-115561534D01*
X148697215Y-115553539D01*
X148698198Y-115531430D01*
X148698666Y-115498024D01*
X148698570Y-115456135D01*
X148698160Y-115424379D01*
X148695833Y-115287225D01*
X148512037Y-115180962D01*
X148459959Y-115150459D01*
X148411491Y-115121330D01*
X148368996Y-115095053D01*
X148334835Y-115073106D01*
X148311371Y-115056966D01*
X148302487Y-115049833D01*
X148281642Y-115019304D01*
X148276854Y-114984204D01*
X148288272Y-114945770D01*
X148289521Y-114943297D01*
X148307462Y-114918714D01*
X148332114Y-114905405D01*
X148367755Y-114901150D01*
X148370738Y-114901134D01*
X148383039Y-114902149D01*
X148397654Y-114905781D01*
X148416369Y-114912914D01*
X148440970Y-114924428D01*
X148473245Y-114941205D01*
X148514981Y-114964128D01*
X148567963Y-114994077D01*
X148623178Y-115025718D01*
X148679780Y-115058720D01*
X148732856Y-115090503D01*
X148780246Y-115119709D01*
X148819786Y-115144976D01*
X148849316Y-115164947D01*
X148866673Y-115178260D01*
X148868491Y-115180002D01*
X148897215Y-115209700D01*
X148888419Y-115776508D01*
X148861842Y-115800254D01*
X148846465Y-115812806D01*
X148831420Y-115821234D01*
X148814899Y-115824974D01*
X148795096Y-115823463D01*
X148770203Y-115816137D01*
X148738413Y-115802433D01*
X148697917Y-115781788D01*
X148646910Y-115753638D01*
X148583584Y-115717419D01*
X148568856Y-115708911D01*
X148369813Y-115593823D01*
X148329623Y-115616953D01*
X148304811Y-115631292D01*
X148270734Y-115651062D01*
X148232747Y-115673154D01*
X148210115Y-115686342D01*
X148130797Y-115732600D01*
X148205882Y-115776443D01*
X148231493Y-115791325D01*
X148269414Y-115813259D01*
X148317264Y-115840873D01*
X148372663Y-115872796D01*
X148433232Y-115907656D01*
X148496589Y-115944081D01*
X148537373Y-115967507D01*
X148793780Y-116114726D01*
X148825240Y-116099749D01*
X148842415Y-116090855D01*
X148871337Y-116075091D01*
X148909100Y-116054072D01*
X148952798Y-116029419D01*
X148999526Y-116002746D01*
X149000633Y-116002111D01*
X149061782Y-115967040D01*
X149110099Y-115939581D01*
X149147429Y-115918894D01*
X149175615Y-115904141D01*
X149196501Y-115894483D01*
X149211930Y-115889082D01*
X149223746Y-115887099D01*
X149233792Y-115887696D01*
X149243913Y-115890034D01*
X149245865Y-115890570D01*
X149260284Y-115896713D01*
X149287251Y-115910276D01*
X149324692Y-115930137D01*
X149370534Y-115955173D01*
X149422706Y-115984260D01*
X149479135Y-116016276D01*
X149500386Y-116028472D01*
X149571354Y-116069675D01*
X149628359Y-116103583D01*
X149672396Y-116130838D01*
X149704461Y-116152078D01*
X149725549Y-116167945D01*
X149736655Y-116179078D01*
X149738041Y-116181296D01*
X149740555Y-116188589D01*
X149742703Y-116200866D01*
X149744511Y-116219334D01*
X149746005Y-116245200D01*
X149747212Y-116279670D01*
X149748158Y-116323951D01*
X149748869Y-116379250D01*
X149749373Y-116446773D01*
X149749695Y-116527726D01*
X149749862Y-116623317D01*
X149749902Y-116723163D01*
X149749874Y-116830055D01*
D13*
X177675000Y-115260000D02*
X177675000Y-116190000D01*
X177675000Y-118420000D02*
X177675000Y-117490000D01*
X177675000Y-118420000D02*
X180835000Y-118420000D01*
X177675000Y-115260000D02*
X179135000Y-115260000D01*
D15*
X170085303Y-111111493D02*
X170085303Y-111827328D01*
X170037581Y-111970495D01*
X169942136Y-112065940D01*
X169798969Y-112113663D01*
X169703524Y-112113663D01*
X170514805Y-111206937D02*
X170562527Y-111159215D01*
X170657972Y-111111493D01*
X170896584Y-111111493D01*
X170992028Y-111159215D01*
X171039751Y-111206937D01*
X171087473Y-111302382D01*
X171087473Y-111397827D01*
X171039751Y-111540994D01*
X170467082Y-112113663D01*
X171087473Y-112113663D01*
X169073942Y-109419446D02*
X169073942Y-108778733D01*
X169287513Y-109236385D01*
X169501084Y-108778733D01*
X169501084Y-109419446D01*
X169806185Y-109419446D02*
X169806185Y-108778733D01*
X169806185Y-109083834D02*
X170172306Y-109083834D01*
X170172306Y-109419446D02*
X170172306Y-108778733D01*
X170477408Y-109175365D02*
X170965570Y-109175365D01*
X171209651Y-108778733D02*
X171636793Y-108778733D01*
X171209651Y-109419446D01*
X171636793Y-109419446D01*
X172216486Y-109419446D02*
X171850365Y-109419446D01*
X172033425Y-109419446D02*
X172033425Y-108778733D01*
X171972405Y-108870263D01*
X171911385Y-108931284D01*
X171850365Y-108961794D01*
X172521588Y-109419446D02*
X172643628Y-109419446D01*
X172704649Y-109388936D01*
X172735159Y-109358426D01*
X172796179Y-109266895D01*
X172826689Y-109144855D01*
X172826689Y-108900773D01*
X172796179Y-108839753D01*
X172765669Y-108809243D01*
X172704649Y-108778733D01*
X172582608Y-108778733D01*
X172521588Y-108809243D01*
X172491078Y-108839753D01*
X172460568Y-108900773D01*
X172460568Y-109053324D01*
X172491078Y-109114344D01*
X172521588Y-109144855D01*
X172582608Y-109175365D01*
X172704649Y-109175365D01*
X172765669Y-109144855D01*
X172796179Y-109114344D01*
X172826689Y-109053324D01*
M02*
