G04 #@! TF.FileFunction,Legend,Bot*
%FSLAX46Y46*%
G04 Gerber Fmt 4.6, Leading zero omitted, Abs format (unit mm)*
G04 Created by KiCad (PCBNEW 4.0.7-e2-6376~58~ubuntu17.04.1) date Sat Oct 28 22:25:12 2017*
%MOMM*%
%LPD*%
G01*
G04 APERTURE LIST*
%ADD10C,0.100000*%
%ADD11C,0.010000*%
%ADD12C,0.120000*%
G04 APERTURE END LIST*
D10*
X161995000Y-103396668D02*
X161995000Y-103630001D01*
X162361667Y-103730001D02*
X162361667Y-103396668D01*
X161661667Y-103396668D01*
X161661667Y-103730001D01*
X162361667Y-103963334D02*
X161895000Y-104330001D01*
X161895000Y-103963334D02*
X162361667Y-104330001D01*
X161895000Y-104496668D02*
X161895000Y-104763334D01*
X161661667Y-104596668D02*
X162261667Y-104596668D01*
X162328333Y-104630001D01*
X162361667Y-104696668D01*
X162361667Y-104763334D01*
X162328333Y-105263334D02*
X162361667Y-105196668D01*
X162361667Y-105063334D01*
X162328333Y-104996668D01*
X162261667Y-104963334D01*
X161995000Y-104963334D01*
X161928333Y-104996668D01*
X161895000Y-105063334D01*
X161895000Y-105196668D01*
X161928333Y-105263334D01*
X161995000Y-105296668D01*
X162061667Y-105296668D01*
X162128333Y-104963334D01*
X161895000Y-105596668D02*
X162361667Y-105596668D01*
X161961667Y-105596668D02*
X161928333Y-105630001D01*
X161895000Y-105696668D01*
X161895000Y-105796668D01*
X161928333Y-105863334D01*
X161995000Y-105896668D01*
X162361667Y-105896668D01*
X162328333Y-106196667D02*
X162361667Y-106263334D01*
X162361667Y-106396667D01*
X162328333Y-106463334D01*
X162261667Y-106496667D01*
X162228333Y-106496667D01*
X162161667Y-106463334D01*
X162128333Y-106396667D01*
X162128333Y-106296667D01*
X162095000Y-106230001D01*
X162028333Y-106196667D01*
X161995000Y-106196667D01*
X161928333Y-106230001D01*
X161895000Y-106296667D01*
X161895000Y-106396667D01*
X161928333Y-106463334D01*
X162361667Y-106796668D02*
X161895000Y-106796668D01*
X161661667Y-106796668D02*
X161695000Y-106763334D01*
X161728333Y-106796668D01*
X161695000Y-106830001D01*
X161661667Y-106796668D01*
X161728333Y-106796668D01*
X162361667Y-107230001D02*
X162328333Y-107163334D01*
X162295000Y-107130001D01*
X162228333Y-107096667D01*
X162028333Y-107096667D01*
X161961667Y-107130001D01*
X161928333Y-107163334D01*
X161895000Y-107230001D01*
X161895000Y-107330001D01*
X161928333Y-107396667D01*
X161961667Y-107430001D01*
X162028333Y-107463334D01*
X162228333Y-107463334D01*
X162295000Y-107430001D01*
X162328333Y-107396667D01*
X162361667Y-107330001D01*
X162361667Y-107230001D01*
X161895000Y-107763334D02*
X162361667Y-107763334D01*
X161961667Y-107763334D02*
X161928333Y-107796667D01*
X161895000Y-107863334D01*
X161895000Y-107963334D01*
X161928333Y-108030000D01*
X161995000Y-108063334D01*
X162361667Y-108063334D01*
X161895000Y-108896666D02*
X161895000Y-109396666D01*
X161595000Y-109096666D02*
X162495000Y-108896666D01*
X162195000Y-109330000D02*
X162195000Y-108830000D01*
X162495000Y-109130000D02*
X161595000Y-109330000D01*
X161661667Y-109563333D02*
X161661667Y-110030000D01*
X162361667Y-109730000D01*
X163445000Y-104213334D02*
X163478333Y-104180000D01*
X163511667Y-104080000D01*
X163511667Y-104013334D01*
X163478333Y-103913334D01*
X163411667Y-103846667D01*
X163345000Y-103813334D01*
X163211667Y-103780000D01*
X163111667Y-103780000D01*
X162978333Y-103813334D01*
X162911667Y-103846667D01*
X162845000Y-103913334D01*
X162811667Y-104013334D01*
X162811667Y-104080000D01*
X162845000Y-104180000D01*
X162878333Y-104213334D01*
X162811667Y-104646667D02*
X162811667Y-104780000D01*
X162845000Y-104846667D01*
X162911667Y-104913334D01*
X163045000Y-104946667D01*
X163278333Y-104946667D01*
X163411667Y-104913334D01*
X163478333Y-104846667D01*
X163511667Y-104780000D01*
X163511667Y-104646667D01*
X163478333Y-104580000D01*
X163411667Y-104513334D01*
X163278333Y-104480000D01*
X163045000Y-104480000D01*
X162911667Y-104513334D01*
X162845000Y-104580000D01*
X162811667Y-104646667D01*
X162878333Y-105213333D02*
X162845000Y-105246667D01*
X162811667Y-105313333D01*
X162811667Y-105480000D01*
X162845000Y-105546667D01*
X162878333Y-105580000D01*
X162945000Y-105613333D01*
X163011667Y-105613333D01*
X163111667Y-105580000D01*
X163511667Y-105180000D01*
X163511667Y-105613333D01*
X163478333Y-106413333D02*
X163511667Y-106480000D01*
X163511667Y-106613333D01*
X163478333Y-106680000D01*
X163411667Y-106713333D01*
X163378333Y-106713333D01*
X163311667Y-106680000D01*
X163278333Y-106613333D01*
X163278333Y-106513333D01*
X163245000Y-106446667D01*
X163178333Y-106413333D01*
X163145000Y-106413333D01*
X163078333Y-106446667D01*
X163045000Y-106513333D01*
X163045000Y-106613333D01*
X163078333Y-106680000D01*
X163478333Y-107280000D02*
X163511667Y-107213334D01*
X163511667Y-107080000D01*
X163478333Y-107013334D01*
X163411667Y-106980000D01*
X163145000Y-106980000D01*
X163078333Y-107013334D01*
X163045000Y-107080000D01*
X163045000Y-107213334D01*
X163078333Y-107280000D01*
X163145000Y-107313334D01*
X163211667Y-107313334D01*
X163278333Y-106980000D01*
X163045000Y-107613334D02*
X163511667Y-107613334D01*
X163111667Y-107613334D02*
X163078333Y-107646667D01*
X163045000Y-107713334D01*
X163045000Y-107813334D01*
X163078333Y-107880000D01*
X163145000Y-107913334D01*
X163511667Y-107913334D01*
X163478333Y-108213333D02*
X163511667Y-108280000D01*
X163511667Y-108413333D01*
X163478333Y-108480000D01*
X163411667Y-108513333D01*
X163378333Y-108513333D01*
X163311667Y-108480000D01*
X163278333Y-108413333D01*
X163278333Y-108313333D01*
X163245000Y-108246667D01*
X163178333Y-108213333D01*
X163145000Y-108213333D01*
X163078333Y-108246667D01*
X163045000Y-108313333D01*
X163045000Y-108413333D01*
X163078333Y-108480000D01*
X163511667Y-108913334D02*
X163478333Y-108846667D01*
X163445000Y-108813334D01*
X163378333Y-108780000D01*
X163178333Y-108780000D01*
X163111667Y-108813334D01*
X163078333Y-108846667D01*
X163045000Y-108913334D01*
X163045000Y-109013334D01*
X163078333Y-109080000D01*
X163111667Y-109113334D01*
X163178333Y-109146667D01*
X163378333Y-109146667D01*
X163445000Y-109113334D01*
X163478333Y-109080000D01*
X163511667Y-109013334D01*
X163511667Y-108913334D01*
X163511667Y-109446667D02*
X163045000Y-109446667D01*
X163178333Y-109446667D02*
X163111667Y-109480000D01*
X163078333Y-109513333D01*
X163045000Y-109580000D01*
X163045000Y-109646667D01*
X164661667Y-104646667D02*
X163961667Y-104646667D01*
X164461667Y-104880000D01*
X163961667Y-105113333D01*
X164661667Y-105113333D01*
X164661667Y-105446667D02*
X163961667Y-105446667D01*
X164295000Y-105446667D02*
X164295000Y-105846667D01*
X164661667Y-105846667D02*
X163961667Y-105846667D01*
X164395000Y-106180000D02*
X164395000Y-106713333D01*
X163961667Y-106980000D02*
X163961667Y-107446667D01*
X164661667Y-106980000D01*
X164661667Y-107446667D01*
X164661667Y-108080000D02*
X164661667Y-107680000D01*
X164661667Y-107880000D02*
X163961667Y-107880000D01*
X164061667Y-107813334D01*
X164128333Y-107746667D01*
X164161667Y-107680000D01*
X164661667Y-108413334D02*
X164661667Y-108546667D01*
X164628333Y-108613334D01*
X164595000Y-108646667D01*
X164495000Y-108713334D01*
X164361667Y-108746667D01*
X164095000Y-108746667D01*
X164028333Y-108713334D01*
X163995000Y-108680001D01*
X163961667Y-108613334D01*
X163961667Y-108480001D01*
X163995000Y-108413334D01*
X164028333Y-108380001D01*
X164095000Y-108346667D01*
X164261667Y-108346667D01*
X164328333Y-108380001D01*
X164361667Y-108413334D01*
X164395000Y-108480001D01*
X164395000Y-108613334D01*
X164361667Y-108680001D01*
X164328333Y-108713334D01*
X164261667Y-108746667D01*
D11*
G36*
X150694184Y-115566241D02*
X150707282Y-115592753D01*
X150730106Y-115625447D01*
X150754996Y-115649275D01*
X150786249Y-115665594D01*
X150828166Y-115675760D01*
X150885044Y-115681128D01*
X150961184Y-115683056D01*
X150993917Y-115683169D01*
X151065656Y-115682839D01*
X151116927Y-115681473D01*
X151152404Y-115678500D01*
X151176763Y-115673351D01*
X151194680Y-115665457D01*
X151206902Y-115657243D01*
X151258905Y-115604813D01*
X151290184Y-115543070D01*
X151299592Y-115476464D01*
X151285980Y-115409442D01*
X151276354Y-115388208D01*
X151249859Y-115337376D01*
X151665052Y-115337376D01*
X151645868Y-115374475D01*
X151631025Y-115423357D01*
X151627222Y-115483439D01*
X151634243Y-115543436D01*
X151650013Y-115588744D01*
X151680047Y-115626325D01*
X151723024Y-115658436D01*
X151727436Y-115660850D01*
X151748221Y-115671033D01*
X151769170Y-115678470D01*
X151794548Y-115683589D01*
X151828618Y-115686819D01*
X151875641Y-115688587D01*
X151939882Y-115689323D01*
X152012176Y-115689456D01*
X152242822Y-115689456D01*
X152242822Y-115551139D01*
X151817533Y-115551139D01*
X151784979Y-115512451D01*
X151758940Y-115472262D01*
X151754205Y-115434203D01*
X151766389Y-115395934D01*
X151778320Y-115375538D01*
X151795313Y-115360358D01*
X151820995Y-115349562D01*
X151858991Y-115342317D01*
X151912926Y-115337792D01*
X151986425Y-115335156D01*
X152035347Y-115334228D01*
X152236535Y-115331089D01*
X152240336Y-115265074D01*
X152244136Y-115199060D01*
X150995650Y-115199060D01*
X150995650Y-115337376D01*
X151065254Y-115340903D01*
X151113569Y-115352785D01*
X151143631Y-115374980D01*
X151158471Y-115409441D01*
X151161436Y-115444258D01*
X151158028Y-115483671D01*
X151144617Y-115509829D01*
X151126896Y-115526186D01*
X151107835Y-115539063D01*
X151086601Y-115546728D01*
X151056849Y-115550139D01*
X151012236Y-115550251D01*
X150974880Y-115549103D01*
X150918604Y-115546468D01*
X150881658Y-115542544D01*
X150858223Y-115535937D01*
X150842480Y-115525251D01*
X150833380Y-115515167D01*
X150813537Y-115473030D01*
X150810332Y-115423160D01*
X150817168Y-115394524D01*
X150841464Y-115366172D01*
X150888728Y-115347391D01*
X150958624Y-115338288D01*
X150995650Y-115337376D01*
X150995650Y-115199060D01*
X150683614Y-115199060D01*
X150683614Y-115268218D01*
X150685256Y-115309740D01*
X150691087Y-115331162D01*
X150702461Y-115337374D01*
X150702798Y-115337376D01*
X150713938Y-115340258D01*
X150712673Y-115352970D01*
X150700433Y-115378243D01*
X150681707Y-115437131D01*
X150679739Y-115503385D01*
X150694184Y-115566241D01*
X150694184Y-115566241D01*
G37*
X150694184Y-115566241D02*
X150707282Y-115592753D01*
X150730106Y-115625447D01*
X150754996Y-115649275D01*
X150786249Y-115665594D01*
X150828166Y-115675760D01*
X150885044Y-115681128D01*
X150961184Y-115683056D01*
X150993917Y-115683169D01*
X151065656Y-115682839D01*
X151116927Y-115681473D01*
X151152404Y-115678500D01*
X151176763Y-115673351D01*
X151194680Y-115665457D01*
X151206902Y-115657243D01*
X151258905Y-115604813D01*
X151290184Y-115543070D01*
X151299592Y-115476464D01*
X151285980Y-115409442D01*
X151276354Y-115388208D01*
X151249859Y-115337376D01*
X151665052Y-115337376D01*
X151645868Y-115374475D01*
X151631025Y-115423357D01*
X151627222Y-115483439D01*
X151634243Y-115543436D01*
X151650013Y-115588744D01*
X151680047Y-115626325D01*
X151723024Y-115658436D01*
X151727436Y-115660850D01*
X151748221Y-115671033D01*
X151769170Y-115678470D01*
X151794548Y-115683589D01*
X151828618Y-115686819D01*
X151875641Y-115688587D01*
X151939882Y-115689323D01*
X152012176Y-115689456D01*
X152242822Y-115689456D01*
X152242822Y-115551139D01*
X151817533Y-115551139D01*
X151784979Y-115512451D01*
X151758940Y-115472262D01*
X151754205Y-115434203D01*
X151766389Y-115395934D01*
X151778320Y-115375538D01*
X151795313Y-115360358D01*
X151820995Y-115349562D01*
X151858991Y-115342317D01*
X151912926Y-115337792D01*
X151986425Y-115335156D01*
X152035347Y-115334228D01*
X152236535Y-115331089D01*
X152240336Y-115265074D01*
X152244136Y-115199060D01*
X150995650Y-115199060D01*
X150995650Y-115337376D01*
X151065254Y-115340903D01*
X151113569Y-115352785D01*
X151143631Y-115374980D01*
X151158471Y-115409441D01*
X151161436Y-115444258D01*
X151158028Y-115483671D01*
X151144617Y-115509829D01*
X151126896Y-115526186D01*
X151107835Y-115539063D01*
X151086601Y-115546728D01*
X151056849Y-115550139D01*
X151012236Y-115550251D01*
X150974880Y-115549103D01*
X150918604Y-115546468D01*
X150881658Y-115542544D01*
X150858223Y-115535937D01*
X150842480Y-115525251D01*
X150833380Y-115515167D01*
X150813537Y-115473030D01*
X150810332Y-115423160D01*
X150817168Y-115394524D01*
X150841464Y-115366172D01*
X150888728Y-115347391D01*
X150958624Y-115338288D01*
X150995650Y-115337376D01*
X150995650Y-115199060D01*
X150683614Y-115199060D01*
X150683614Y-115268218D01*
X150685256Y-115309740D01*
X150691087Y-115331162D01*
X150702461Y-115337374D01*
X150702798Y-115337376D01*
X150713938Y-115340258D01*
X150712673Y-115352970D01*
X150700433Y-115378243D01*
X150681707Y-115437131D01*
X150679739Y-115503385D01*
X150694184Y-115566241D01*
G36*
X151631555Y-116090790D02*
X151647339Y-116149945D01*
X151675948Y-116194977D01*
X151713419Y-116226754D01*
X151729411Y-116236634D01*
X151746163Y-116243927D01*
X151767592Y-116249026D01*
X151797616Y-116252321D01*
X151840154Y-116254203D01*
X151899122Y-116255063D01*
X151978440Y-116255293D01*
X151999484Y-116255297D01*
X152242822Y-116255297D01*
X152242822Y-116194941D01*
X152240126Y-116156443D01*
X152233295Y-116127977D01*
X152229083Y-116120845D01*
X152221813Y-116101348D01*
X152229083Y-116081434D01*
X152238160Y-116048647D01*
X152241813Y-116001022D01*
X152240228Y-115948236D01*
X152233589Y-115899964D01*
X152225072Y-115871782D01*
X152190063Y-115817247D01*
X152141479Y-115783165D01*
X152076882Y-115767843D01*
X152075223Y-115767701D01*
X152046566Y-115769045D01*
X152046566Y-115890644D01*
X152079161Y-115901274D01*
X152097505Y-115918590D01*
X152111379Y-115953348D01*
X152116917Y-115999227D01*
X152114191Y-116046012D01*
X152103274Y-116083486D01*
X152096269Y-116093985D01*
X152063904Y-116112332D01*
X152027111Y-116116980D01*
X151978763Y-116116980D01*
X151978763Y-116047418D01*
X151983850Y-115981333D01*
X151998263Y-115931236D01*
X152020729Y-115900071D01*
X152046566Y-115890644D01*
X152046566Y-115769045D01*
X152004647Y-115771013D01*
X151948845Y-115794290D01*
X151906647Y-115838052D01*
X151902808Y-115844101D01*
X151890309Y-115870093D01*
X151882740Y-115902265D01*
X151879061Y-115947240D01*
X151878216Y-116000669D01*
X151878169Y-116116980D01*
X151829411Y-116116980D01*
X151791581Y-116112047D01*
X151766236Y-116099457D01*
X151764887Y-116097983D01*
X151753800Y-116069966D01*
X151749503Y-116027674D01*
X151751615Y-115980936D01*
X151759756Y-115939582D01*
X151771965Y-115915043D01*
X151781746Y-115901747D01*
X151783613Y-115887706D01*
X151775600Y-115868329D01*
X151755739Y-115839024D01*
X151722063Y-115795197D01*
X151718909Y-115791175D01*
X151707236Y-115793236D01*
X151687822Y-115810432D01*
X151666248Y-115836567D01*
X151648096Y-115865448D01*
X151643809Y-115874522D01*
X151635256Y-115907620D01*
X151629155Y-115956120D01*
X151626708Y-116010305D01*
X151626703Y-116012839D01*
X151631555Y-116090790D01*
X151631555Y-116090790D01*
G37*
X151631555Y-116090790D02*
X151647339Y-116149945D01*
X151675948Y-116194977D01*
X151713419Y-116226754D01*
X151729411Y-116236634D01*
X151746163Y-116243927D01*
X151767592Y-116249026D01*
X151797616Y-116252321D01*
X151840154Y-116254203D01*
X151899122Y-116255063D01*
X151978440Y-116255293D01*
X151999484Y-116255297D01*
X152242822Y-116255297D01*
X152242822Y-116194941D01*
X152240126Y-116156443D01*
X152233295Y-116127977D01*
X152229083Y-116120845D01*
X152221813Y-116101348D01*
X152229083Y-116081434D01*
X152238160Y-116048647D01*
X152241813Y-116001022D01*
X152240228Y-115948236D01*
X152233589Y-115899964D01*
X152225072Y-115871782D01*
X152190063Y-115817247D01*
X152141479Y-115783165D01*
X152076882Y-115767843D01*
X152075223Y-115767701D01*
X152046566Y-115769045D01*
X152046566Y-115890644D01*
X152079161Y-115901274D01*
X152097505Y-115918590D01*
X152111379Y-115953348D01*
X152116917Y-115999227D01*
X152114191Y-116046012D01*
X152103274Y-116083486D01*
X152096269Y-116093985D01*
X152063904Y-116112332D01*
X152027111Y-116116980D01*
X151978763Y-116116980D01*
X151978763Y-116047418D01*
X151983850Y-115981333D01*
X151998263Y-115931236D01*
X152020729Y-115900071D01*
X152046566Y-115890644D01*
X152046566Y-115769045D01*
X152004647Y-115771013D01*
X151948845Y-115794290D01*
X151906647Y-115838052D01*
X151902808Y-115844101D01*
X151890309Y-115870093D01*
X151882740Y-115902265D01*
X151879061Y-115947240D01*
X151878216Y-116000669D01*
X151878169Y-116116980D01*
X151829411Y-116116980D01*
X151791581Y-116112047D01*
X151766236Y-116099457D01*
X151764887Y-116097983D01*
X151753800Y-116069966D01*
X151749503Y-116027674D01*
X151751615Y-115980936D01*
X151759756Y-115939582D01*
X151771965Y-115915043D01*
X151781746Y-115901747D01*
X151783613Y-115887706D01*
X151775600Y-115868329D01*
X151755739Y-115839024D01*
X151722063Y-115795197D01*
X151718909Y-115791175D01*
X151707236Y-115793236D01*
X151687822Y-115810432D01*
X151666248Y-115836567D01*
X151648096Y-115865448D01*
X151643809Y-115874522D01*
X151635256Y-115907620D01*
X151629155Y-115956120D01*
X151626708Y-116010305D01*
X151626703Y-116012839D01*
X151631555Y-116090790D01*
G36*
X151628020Y-116481644D02*
X151633660Y-116500461D01*
X151646053Y-116506527D01*
X151651647Y-116506782D01*
X151667230Y-116507871D01*
X151669676Y-116515368D01*
X151658993Y-116535619D01*
X151651694Y-116547649D01*
X151636063Y-116585600D01*
X151628334Y-116630928D01*
X151627740Y-116678456D01*
X151633513Y-116723005D01*
X151644884Y-116759398D01*
X151661088Y-116782457D01*
X151681355Y-116787004D01*
X151686843Y-116784709D01*
X151709626Y-116767980D01*
X151737647Y-116742037D01*
X151742177Y-116737345D01*
X151763005Y-116712617D01*
X151769735Y-116691282D01*
X151765038Y-116661445D01*
X151761917Y-116649492D01*
X151754421Y-116612295D01*
X151757792Y-116586141D01*
X151769681Y-116564054D01*
X151785635Y-116543822D01*
X151805700Y-116528921D01*
X151833702Y-116518566D01*
X151873467Y-116511971D01*
X151928823Y-116508351D01*
X152003594Y-116506922D01*
X152048740Y-116506782D01*
X152242822Y-116506782D01*
X152242822Y-116381040D01*
X151626683Y-116381040D01*
X151626683Y-116443911D01*
X151628020Y-116481644D01*
X151628020Y-116481644D01*
G37*
X151628020Y-116481644D02*
X151633660Y-116500461D01*
X151646053Y-116506527D01*
X151651647Y-116506782D01*
X151667230Y-116507871D01*
X151669676Y-116515368D01*
X151658993Y-116535619D01*
X151651694Y-116547649D01*
X151636063Y-116585600D01*
X151628334Y-116630928D01*
X151627740Y-116678456D01*
X151633513Y-116723005D01*
X151644884Y-116759398D01*
X151661088Y-116782457D01*
X151681355Y-116787004D01*
X151686843Y-116784709D01*
X151709626Y-116767980D01*
X151737647Y-116742037D01*
X151742177Y-116737345D01*
X151763005Y-116712617D01*
X151769735Y-116691282D01*
X151765038Y-116661445D01*
X151761917Y-116649492D01*
X151754421Y-116612295D01*
X151757792Y-116586141D01*
X151769681Y-116564054D01*
X151785635Y-116543822D01*
X151805700Y-116528921D01*
X151833702Y-116518566D01*
X151873467Y-116511971D01*
X151928823Y-116508351D01*
X152003594Y-116506922D01*
X152048740Y-116506782D01*
X152242822Y-116506782D01*
X152242822Y-116381040D01*
X151626683Y-116381040D01*
X151626683Y-116443911D01*
X151628020Y-116481644D01*
G36*
X152242822Y-117273812D02*
X152242822Y-117204654D01*
X152241645Y-117164512D01*
X152236772Y-117143606D01*
X152226186Y-117136078D01*
X152219029Y-117135495D01*
X152204676Y-117134226D01*
X152201923Y-117126221D01*
X152210771Y-117105185D01*
X152219029Y-117088827D01*
X152238597Y-117026023D01*
X152239729Y-116957752D01*
X152225135Y-116902248D01*
X152189877Y-116850562D01*
X152137835Y-116811162D01*
X152076450Y-116789587D01*
X152073018Y-116789038D01*
X152035571Y-116785833D01*
X151981813Y-116784239D01*
X151941155Y-116784367D01*
X151941155Y-116921721D01*
X151995194Y-116924903D01*
X152039735Y-116932141D01*
X152064888Y-116941940D01*
X152099260Y-116979011D01*
X152111582Y-117023026D01*
X152101618Y-117068416D01*
X152071895Y-117107203D01*
X152051905Y-117121892D01*
X152028050Y-117130481D01*
X151993230Y-117134504D01*
X151940930Y-117135495D01*
X151889139Y-117133722D01*
X151843634Y-117129037D01*
X151813181Y-117122397D01*
X151810452Y-117121290D01*
X151778000Y-117094509D01*
X151760183Y-117055421D01*
X151757306Y-117011685D01*
X151769674Y-116970962D01*
X151797593Y-116940913D01*
X151803148Y-116937796D01*
X151837022Y-116928039D01*
X151885728Y-116922723D01*
X151941155Y-116921721D01*
X151941155Y-116784367D01*
X151920540Y-116784432D01*
X151887563Y-116785336D01*
X151805981Y-116791486D01*
X151744730Y-116804267D01*
X151699449Y-116825529D01*
X151665779Y-116857122D01*
X151646014Y-116887793D01*
X151632120Y-116930646D01*
X151627354Y-116983944D01*
X151631236Y-117038520D01*
X151643282Y-117085208D01*
X151657693Y-117109876D01*
X151680878Y-117135495D01*
X151387773Y-117135495D01*
X151387773Y-117273812D01*
X152242822Y-117273812D01*
X152242822Y-117273812D01*
G37*
X152242822Y-117273812D02*
X152242822Y-117204654D01*
X152241645Y-117164512D01*
X152236772Y-117143606D01*
X152226186Y-117136078D01*
X152219029Y-117135495D01*
X152204676Y-117134226D01*
X152201923Y-117126221D01*
X152210771Y-117105185D01*
X152219029Y-117088827D01*
X152238597Y-117026023D01*
X152239729Y-116957752D01*
X152225135Y-116902248D01*
X152189877Y-116850562D01*
X152137835Y-116811162D01*
X152076450Y-116789587D01*
X152073018Y-116789038D01*
X152035571Y-116785833D01*
X151981813Y-116784239D01*
X151941155Y-116784367D01*
X151941155Y-116921721D01*
X151995194Y-116924903D01*
X152039735Y-116932141D01*
X152064888Y-116941940D01*
X152099260Y-116979011D01*
X152111582Y-117023026D01*
X152101618Y-117068416D01*
X152071895Y-117107203D01*
X152051905Y-117121892D01*
X152028050Y-117130481D01*
X151993230Y-117134504D01*
X151940930Y-117135495D01*
X151889139Y-117133722D01*
X151843634Y-117129037D01*
X151813181Y-117122397D01*
X151810452Y-117121290D01*
X151778000Y-117094509D01*
X151760183Y-117055421D01*
X151757306Y-117011685D01*
X151769674Y-116970962D01*
X151797593Y-116940913D01*
X151803148Y-116937796D01*
X151837022Y-116928039D01*
X151885728Y-116922723D01*
X151941155Y-116921721D01*
X151941155Y-116784367D01*
X151920540Y-116784432D01*
X151887563Y-116785336D01*
X151805981Y-116791486D01*
X151744730Y-116804267D01*
X151699449Y-116825529D01*
X151665779Y-116857122D01*
X151646014Y-116887793D01*
X151632120Y-116930646D01*
X151627354Y-116983944D01*
X151631236Y-117038520D01*
X151643282Y-117085208D01*
X151657693Y-117109876D01*
X151680878Y-117135495D01*
X151387773Y-117135495D01*
X151387773Y-117273812D01*
X152242822Y-117273812D01*
G36*
X151629237Y-117756524D02*
X151632971Y-117806255D01*
X152022773Y-117936291D01*
X151953614Y-117956678D01*
X151910874Y-117968946D01*
X151853115Y-117985085D01*
X151789625Y-118002512D01*
X151755570Y-118011726D01*
X151626683Y-118046388D01*
X151626683Y-118189391D01*
X151761857Y-118146646D01*
X151828342Y-118125596D01*
X151908539Y-118100167D01*
X151992193Y-118073610D01*
X152066782Y-118049902D01*
X152236535Y-117995902D01*
X152240328Y-117937598D01*
X152244122Y-117879295D01*
X152139734Y-117847679D01*
X152074889Y-117828182D01*
X152003400Y-117806904D01*
X151940263Y-117788308D01*
X151937750Y-117787574D01*
X151894969Y-117773684D01*
X151865779Y-117761429D01*
X151854741Y-117752846D01*
X151856018Y-117751082D01*
X151873130Y-117744891D01*
X151909787Y-117733128D01*
X151961378Y-117717225D01*
X152023294Y-117698614D01*
X152057352Y-117688543D01*
X152242822Y-117634007D01*
X152242822Y-117518264D01*
X151950471Y-117425737D01*
X151868462Y-117399744D01*
X151793987Y-117376066D01*
X151730544Y-117355820D01*
X151681632Y-117340126D01*
X151650749Y-117330102D01*
X151641726Y-117327055D01*
X151632487Y-117329467D01*
X151628441Y-117348408D01*
X151628846Y-117387823D01*
X151629152Y-117393993D01*
X151632971Y-117467086D01*
X151809010Y-117514957D01*
X151873211Y-117532553D01*
X151929649Y-117548277D01*
X151973422Y-117560746D01*
X151999630Y-117568574D01*
X152003903Y-117570020D01*
X151998990Y-117576014D01*
X151973532Y-117588101D01*
X151930997Y-117604893D01*
X151874850Y-117625003D01*
X151824130Y-117642003D01*
X151625504Y-117706794D01*
X151629237Y-117756524D01*
X151629237Y-117756524D01*
G37*
X151629237Y-117756524D02*
X151632971Y-117806255D01*
X152022773Y-117936291D01*
X151953614Y-117956678D01*
X151910874Y-117968946D01*
X151853115Y-117985085D01*
X151789625Y-118002512D01*
X151755570Y-118011726D01*
X151626683Y-118046388D01*
X151626683Y-118189391D01*
X151761857Y-118146646D01*
X151828342Y-118125596D01*
X151908539Y-118100167D01*
X151992193Y-118073610D01*
X152066782Y-118049902D01*
X152236535Y-117995902D01*
X152240328Y-117937598D01*
X152244122Y-117879295D01*
X152139734Y-117847679D01*
X152074889Y-117828182D01*
X152003400Y-117806904D01*
X151940263Y-117788308D01*
X151937750Y-117787574D01*
X151894969Y-117773684D01*
X151865779Y-117761429D01*
X151854741Y-117752846D01*
X151856018Y-117751082D01*
X151873130Y-117744891D01*
X151909787Y-117733128D01*
X151961378Y-117717225D01*
X152023294Y-117698614D01*
X152057352Y-117688543D01*
X152242822Y-117634007D01*
X152242822Y-117518264D01*
X151950471Y-117425737D01*
X151868462Y-117399744D01*
X151793987Y-117376066D01*
X151730544Y-117355820D01*
X151681632Y-117340126D01*
X151650749Y-117330102D01*
X151641726Y-117327055D01*
X151632487Y-117329467D01*
X151628441Y-117348408D01*
X151628846Y-117387823D01*
X151629152Y-117393993D01*
X151632971Y-117467086D01*
X151809010Y-117514957D01*
X151873211Y-117532553D01*
X151929649Y-117548277D01*
X151973422Y-117560746D01*
X151999630Y-117568574D01*
X152003903Y-117570020D01*
X151998990Y-117576014D01*
X151973532Y-117588101D01*
X151930997Y-117604893D01*
X151874850Y-117625003D01*
X151824130Y-117642003D01*
X151625504Y-117706794D01*
X151629237Y-117756524D01*
G36*
X151630417Y-118513411D02*
X151643290Y-118566411D01*
X151650110Y-118581731D01*
X151667974Y-118611428D01*
X151688093Y-118634220D01*
X151713962Y-118651083D01*
X151749073Y-118662998D01*
X151796920Y-118670942D01*
X151860996Y-118675894D01*
X151944794Y-118678831D01*
X152000768Y-118679947D01*
X152242822Y-118684052D01*
X152242822Y-118613932D01*
X152241038Y-118571393D01*
X152234942Y-118549476D01*
X152224706Y-118543812D01*
X152213637Y-118540821D01*
X152215754Y-118527451D01*
X152224629Y-118509233D01*
X152238233Y-118463624D01*
X152241899Y-118405007D01*
X152235903Y-118343354D01*
X152220521Y-118288638D01*
X152218386Y-118283730D01*
X152183255Y-118233723D01*
X152134419Y-118200756D01*
X152077333Y-118185587D01*
X152056824Y-118186746D01*
X152056824Y-118310508D01*
X152084425Y-118321413D01*
X152104204Y-118353745D01*
X152114819Y-118405910D01*
X152116228Y-118433787D01*
X152112620Y-118480247D01*
X152098597Y-118511129D01*
X152091931Y-118518664D01*
X152055666Y-118539076D01*
X152022773Y-118543812D01*
X151978763Y-118543812D01*
X151978763Y-118482513D01*
X151982395Y-118411256D01*
X151993818Y-118361276D01*
X152013824Y-118329696D01*
X152022743Y-118322626D01*
X152056824Y-118310508D01*
X152056824Y-118186746D01*
X152017456Y-118188971D01*
X151960244Y-118211663D01*
X151921580Y-118242624D01*
X151904864Y-118261376D01*
X151893878Y-118279733D01*
X151887180Y-118303619D01*
X151883326Y-118338957D01*
X151880873Y-118391669D01*
X151880168Y-118412577D01*
X151875879Y-118543812D01*
X151836158Y-118543620D01*
X151794405Y-118538537D01*
X151769158Y-118520162D01*
X151753030Y-118483039D01*
X151752742Y-118482043D01*
X151746400Y-118429410D01*
X151754684Y-118377906D01*
X151774827Y-118339630D01*
X151784773Y-118324272D01*
X151783397Y-118307730D01*
X151768987Y-118282275D01*
X151758817Y-118267328D01*
X151737088Y-118238091D01*
X151720800Y-118219980D01*
X151716137Y-118217074D01*
X151692005Y-118229040D01*
X151663185Y-118264396D01*
X151653461Y-118279753D01*
X151636714Y-118323901D01*
X151627227Y-118383398D01*
X151625095Y-118449487D01*
X151630417Y-118513411D01*
X151630417Y-118513411D01*
G37*
X151630417Y-118513411D02*
X151643290Y-118566411D01*
X151650110Y-118581731D01*
X151667974Y-118611428D01*
X151688093Y-118634220D01*
X151713962Y-118651083D01*
X151749073Y-118662998D01*
X151796920Y-118670942D01*
X151860996Y-118675894D01*
X151944794Y-118678831D01*
X152000768Y-118679947D01*
X152242822Y-118684052D01*
X152242822Y-118613932D01*
X152241038Y-118571393D01*
X152234942Y-118549476D01*
X152224706Y-118543812D01*
X152213637Y-118540821D01*
X152215754Y-118527451D01*
X152224629Y-118509233D01*
X152238233Y-118463624D01*
X152241899Y-118405007D01*
X152235903Y-118343354D01*
X152220521Y-118288638D01*
X152218386Y-118283730D01*
X152183255Y-118233723D01*
X152134419Y-118200756D01*
X152077333Y-118185587D01*
X152056824Y-118186746D01*
X152056824Y-118310508D01*
X152084425Y-118321413D01*
X152104204Y-118353745D01*
X152114819Y-118405910D01*
X152116228Y-118433787D01*
X152112620Y-118480247D01*
X152098597Y-118511129D01*
X152091931Y-118518664D01*
X152055666Y-118539076D01*
X152022773Y-118543812D01*
X151978763Y-118543812D01*
X151978763Y-118482513D01*
X151982395Y-118411256D01*
X151993818Y-118361276D01*
X152013824Y-118329696D01*
X152022743Y-118322626D01*
X152056824Y-118310508D01*
X152056824Y-118186746D01*
X152017456Y-118188971D01*
X151960244Y-118211663D01*
X151921580Y-118242624D01*
X151904864Y-118261376D01*
X151893878Y-118279733D01*
X151887180Y-118303619D01*
X151883326Y-118338957D01*
X151880873Y-118391669D01*
X151880168Y-118412577D01*
X151875879Y-118543812D01*
X151836158Y-118543620D01*
X151794405Y-118538537D01*
X151769158Y-118520162D01*
X151753030Y-118483039D01*
X151752742Y-118482043D01*
X151746400Y-118429410D01*
X151754684Y-118377906D01*
X151774827Y-118339630D01*
X151784773Y-118324272D01*
X151783397Y-118307730D01*
X151768987Y-118282275D01*
X151758817Y-118267328D01*
X151737088Y-118238091D01*
X151720800Y-118219980D01*
X151716137Y-118217074D01*
X151692005Y-118229040D01*
X151663185Y-118264396D01*
X151653461Y-118279753D01*
X151636714Y-118323901D01*
X151627227Y-118383398D01*
X151625095Y-118449487D01*
X151630417Y-118513411D01*
G36*
X151626486Y-119110255D02*
X151636015Y-119158595D01*
X151650125Y-119186114D01*
X151673568Y-119215064D01*
X151725571Y-119173876D01*
X151757064Y-119148482D01*
X151772428Y-119131238D01*
X151774776Y-119114102D01*
X151767217Y-119089027D01*
X151762941Y-119077257D01*
X151756631Y-119029270D01*
X151770156Y-118985324D01*
X151800710Y-118953060D01*
X151810452Y-118947819D01*
X151836258Y-118942112D01*
X151883817Y-118937706D01*
X151949758Y-118934811D01*
X152030710Y-118933631D01*
X152042226Y-118933614D01*
X152242822Y-118933614D01*
X152242822Y-118795297D01*
X151626683Y-118795297D01*
X151626683Y-118864456D01*
X151627725Y-118904333D01*
X151632358Y-118925107D01*
X151642849Y-118932789D01*
X151652745Y-118933614D01*
X151678806Y-118933614D01*
X151652745Y-118966745D01*
X151634965Y-119004735D01*
X151626174Y-119055770D01*
X151626486Y-119110255D01*
X151626486Y-119110255D01*
G37*
X151626486Y-119110255D02*
X151636015Y-119158595D01*
X151650125Y-119186114D01*
X151673568Y-119215064D01*
X151725571Y-119173876D01*
X151757064Y-119148482D01*
X151772428Y-119131238D01*
X151774776Y-119114102D01*
X151767217Y-119089027D01*
X151762941Y-119077257D01*
X151756631Y-119029270D01*
X151770156Y-118985324D01*
X151800710Y-118953060D01*
X151810452Y-118947819D01*
X151836258Y-118942112D01*
X151883817Y-118937706D01*
X151949758Y-118934811D01*
X152030710Y-118933631D01*
X152042226Y-118933614D01*
X152242822Y-118933614D01*
X152242822Y-118795297D01*
X151626683Y-118795297D01*
X151626683Y-118864456D01*
X151627725Y-118904333D01*
X151632358Y-118925107D01*
X151642849Y-118932789D01*
X151652745Y-118933614D01*
X151678806Y-118933614D01*
X151652745Y-118966745D01*
X151634965Y-119004735D01*
X151626174Y-119055770D01*
X151626486Y-119110255D01*
G36*
X151629970Y-119507581D02*
X151645597Y-119567685D01*
X151677848Y-119618021D01*
X151701940Y-119642393D01*
X151758895Y-119682345D01*
X151824965Y-119705242D01*
X151906182Y-119713108D01*
X151912748Y-119713148D01*
X151978763Y-119713218D01*
X151978763Y-119333264D01*
X152013342Y-119341363D01*
X152044659Y-119355987D01*
X152077291Y-119381581D01*
X152082500Y-119386935D01*
X152110694Y-119432943D01*
X152115475Y-119485410D01*
X152096926Y-119545803D01*
X152091931Y-119556040D01*
X152076745Y-119587439D01*
X152068094Y-119608470D01*
X152067293Y-119612139D01*
X152075063Y-119624948D01*
X152094072Y-119649378D01*
X152104460Y-119661779D01*
X152128321Y-119687476D01*
X152144077Y-119695915D01*
X152158571Y-119690058D01*
X152162534Y-119686928D01*
X152179879Y-119665725D01*
X152200959Y-119630738D01*
X152213265Y-119606337D01*
X152234946Y-119537072D01*
X152241971Y-119460388D01*
X152233647Y-119387765D01*
X152227686Y-119367426D01*
X152193952Y-119304476D01*
X152142045Y-119257815D01*
X152071459Y-119227173D01*
X151981692Y-119212282D01*
X151934753Y-119210647D01*
X151866413Y-119215421D01*
X151866413Y-119335990D01*
X151871465Y-119347652D01*
X151875429Y-119378998D01*
X151877768Y-119424571D01*
X151878169Y-119455446D01*
X151877783Y-119510981D01*
X151875975Y-119546033D01*
X151871773Y-119565262D01*
X151864203Y-119573330D01*
X151853218Y-119574901D01*
X151819381Y-119564121D01*
X151785940Y-119536980D01*
X151760272Y-119501277D01*
X151749772Y-119465560D01*
X151759086Y-119417048D01*
X151786013Y-119375053D01*
X151824827Y-119345936D01*
X151866413Y-119335990D01*
X151866413Y-119215421D01*
X151835236Y-119217599D01*
X151755949Y-119239055D01*
X151696263Y-119275470D01*
X151655549Y-119327297D01*
X151633179Y-119394990D01*
X151628871Y-119431662D01*
X151629970Y-119507581D01*
X151629970Y-119507581D01*
G37*
X151629970Y-119507581D02*
X151645597Y-119567685D01*
X151677848Y-119618021D01*
X151701940Y-119642393D01*
X151758895Y-119682345D01*
X151824965Y-119705242D01*
X151906182Y-119713108D01*
X151912748Y-119713148D01*
X151978763Y-119713218D01*
X151978763Y-119333264D01*
X152013342Y-119341363D01*
X152044659Y-119355987D01*
X152077291Y-119381581D01*
X152082500Y-119386935D01*
X152110694Y-119432943D01*
X152115475Y-119485410D01*
X152096926Y-119545803D01*
X152091931Y-119556040D01*
X152076745Y-119587439D01*
X152068094Y-119608470D01*
X152067293Y-119612139D01*
X152075063Y-119624948D01*
X152094072Y-119649378D01*
X152104460Y-119661779D01*
X152128321Y-119687476D01*
X152144077Y-119695915D01*
X152158571Y-119690058D01*
X152162534Y-119686928D01*
X152179879Y-119665725D01*
X152200959Y-119630738D01*
X152213265Y-119606337D01*
X152234946Y-119537072D01*
X152241971Y-119460388D01*
X152233647Y-119387765D01*
X152227686Y-119367426D01*
X152193952Y-119304476D01*
X152142045Y-119257815D01*
X152071459Y-119227173D01*
X151981692Y-119212282D01*
X151934753Y-119210647D01*
X151866413Y-119215421D01*
X151866413Y-119335990D01*
X151871465Y-119347652D01*
X151875429Y-119378998D01*
X151877768Y-119424571D01*
X151878169Y-119455446D01*
X151877783Y-119510981D01*
X151875975Y-119546033D01*
X151871773Y-119565262D01*
X151864203Y-119573330D01*
X151853218Y-119574901D01*
X151819381Y-119564121D01*
X151785940Y-119536980D01*
X151760272Y-119501277D01*
X151749772Y-119465560D01*
X151759086Y-119417048D01*
X151786013Y-119375053D01*
X151824827Y-119345936D01*
X151866413Y-119335990D01*
X151866413Y-119215421D01*
X151835236Y-119217599D01*
X151755949Y-119239055D01*
X151696263Y-119275470D01*
X151655549Y-119327297D01*
X151633179Y-119394990D01*
X151628871Y-119431662D01*
X151629970Y-119507581D01*
G36*
X150690148Y-114936739D02*
X150719231Y-115002521D01*
X150767793Y-115052460D01*
X150835908Y-115086626D01*
X150923651Y-115105093D01*
X150937351Y-115106417D01*
X151033939Y-115107454D01*
X151118602Y-115094007D01*
X151187221Y-115066892D01*
X151209294Y-115052373D01*
X151256011Y-115001799D01*
X151286268Y-114937391D01*
X151298824Y-114865334D01*
X151292439Y-114791815D01*
X151272772Y-114735928D01*
X151239629Y-114687868D01*
X151196175Y-114648588D01*
X151195158Y-114647908D01*
X151168338Y-114631956D01*
X151141368Y-114621590D01*
X151107332Y-114615312D01*
X151059310Y-114611627D01*
X151019931Y-114610003D01*
X150984219Y-114609328D01*
X150984219Y-114735045D01*
X151019770Y-114736274D01*
X151067094Y-114740734D01*
X151097465Y-114748603D01*
X151119072Y-114762793D01*
X151131694Y-114776083D01*
X151158122Y-114823198D01*
X151161653Y-114872495D01*
X151142639Y-114918407D01*
X151121331Y-114941362D01*
X151099859Y-114957904D01*
X151079313Y-114967579D01*
X151052574Y-114971826D01*
X151012523Y-114972080D01*
X150975638Y-114970772D01*
X150922947Y-114967957D01*
X150888772Y-114963495D01*
X150866480Y-114955452D01*
X150849442Y-114941897D01*
X150839703Y-114931155D01*
X150814123Y-114886223D01*
X150812847Y-114837751D01*
X150827999Y-114797106D01*
X150859642Y-114762433D01*
X150911620Y-114741776D01*
X150984219Y-114735045D01*
X150984219Y-114609328D01*
X150941621Y-114608521D01*
X150883056Y-114611052D01*
X150839007Y-114618638D01*
X150804248Y-114632319D01*
X150773551Y-114653135D01*
X150764436Y-114660853D01*
X150719021Y-114709111D01*
X150692493Y-114760872D01*
X150681379Y-114824172D01*
X150680471Y-114855039D01*
X150690148Y-114936739D01*
X150690148Y-114936739D01*
G37*
X150690148Y-114936739D02*
X150719231Y-115002521D01*
X150767793Y-115052460D01*
X150835908Y-115086626D01*
X150923651Y-115105093D01*
X150937351Y-115106417D01*
X151033939Y-115107454D01*
X151118602Y-115094007D01*
X151187221Y-115066892D01*
X151209294Y-115052373D01*
X151256011Y-115001799D01*
X151286268Y-114937391D01*
X151298824Y-114865334D01*
X151292439Y-114791815D01*
X151272772Y-114735928D01*
X151239629Y-114687868D01*
X151196175Y-114648588D01*
X151195158Y-114647908D01*
X151168338Y-114631956D01*
X151141368Y-114621590D01*
X151107332Y-114615312D01*
X151059310Y-114611627D01*
X151019931Y-114610003D01*
X150984219Y-114609328D01*
X150984219Y-114735045D01*
X151019770Y-114736274D01*
X151067094Y-114740734D01*
X151097465Y-114748603D01*
X151119072Y-114762793D01*
X151131694Y-114776083D01*
X151158122Y-114823198D01*
X151161653Y-114872495D01*
X151142639Y-114918407D01*
X151121331Y-114941362D01*
X151099859Y-114957904D01*
X151079313Y-114967579D01*
X151052574Y-114971826D01*
X151012523Y-114972080D01*
X150975638Y-114970772D01*
X150922947Y-114967957D01*
X150888772Y-114963495D01*
X150866480Y-114955452D01*
X150849442Y-114941897D01*
X150839703Y-114931155D01*
X150814123Y-114886223D01*
X150812847Y-114837751D01*
X150827999Y-114797106D01*
X150859642Y-114762433D01*
X150911620Y-114741776D01*
X150984219Y-114735045D01*
X150984219Y-114609328D01*
X150941621Y-114608521D01*
X150883056Y-114611052D01*
X150839007Y-114618638D01*
X150804248Y-114632319D01*
X150773551Y-114653135D01*
X150764436Y-114660853D01*
X150719021Y-114709111D01*
X150692493Y-114760872D01*
X150681379Y-114824172D01*
X150680471Y-114855039D01*
X150690148Y-114936739D01*
G36*
X150697614Y-116118301D02*
X150703514Y-116130832D01*
X150735283Y-116174201D01*
X150781646Y-116215210D01*
X150832696Y-116245832D01*
X150856166Y-116254541D01*
X150898091Y-116262488D01*
X150948757Y-116267226D01*
X150969679Y-116267801D01*
X151035693Y-116267871D01*
X151035693Y-115887917D01*
X151070273Y-115896017D01*
X151111170Y-115915896D01*
X151146514Y-115950653D01*
X151169282Y-115992002D01*
X151174010Y-116018351D01*
X151168273Y-116054084D01*
X151153882Y-116096718D01*
X151147262Y-116111201D01*
X151120513Y-116164760D01*
X151155376Y-116210467D01*
X151178955Y-116236842D01*
X151198417Y-116250876D01*
X151204129Y-116251586D01*
X151217973Y-116239049D01*
X151239012Y-116211572D01*
X151255425Y-116186634D01*
X151284930Y-116119336D01*
X151298284Y-116043890D01*
X151294812Y-115969112D01*
X151276663Y-115909505D01*
X151237784Y-115848059D01*
X151186595Y-115804392D01*
X151120367Y-115777074D01*
X151036371Y-115764678D01*
X150997936Y-115763579D01*
X150909861Y-115767978D01*
X150907299Y-115768518D01*
X150907299Y-115894418D01*
X150915558Y-115897885D01*
X150920113Y-115912137D01*
X150922065Y-115941530D01*
X150922517Y-115990425D01*
X150922525Y-116009252D01*
X150921843Y-116066533D01*
X150919364Y-116102859D01*
X150914443Y-116122396D01*
X150906434Y-116129310D01*
X150903862Y-116129555D01*
X150883423Y-116121664D01*
X150854789Y-116101915D01*
X150844763Y-116093425D01*
X150816408Y-116061906D01*
X150805259Y-116029051D01*
X150804327Y-116011349D01*
X150815981Y-115963461D01*
X150847285Y-115923301D01*
X150892752Y-115897827D01*
X150894233Y-115897375D01*
X150907299Y-115894418D01*
X150907299Y-115768518D01*
X150840510Y-115782608D01*
X150785025Y-115808962D01*
X150745639Y-115841193D01*
X150702931Y-115900783D01*
X150680109Y-115970832D01*
X150678046Y-116045339D01*
X150697614Y-116118301D01*
X150697614Y-116118301D01*
G37*
X150697614Y-116118301D02*
X150703514Y-116130832D01*
X150735283Y-116174201D01*
X150781646Y-116215210D01*
X150832696Y-116245832D01*
X150856166Y-116254541D01*
X150898091Y-116262488D01*
X150948757Y-116267226D01*
X150969679Y-116267801D01*
X151035693Y-116267871D01*
X151035693Y-115887917D01*
X151070273Y-115896017D01*
X151111170Y-115915896D01*
X151146514Y-115950653D01*
X151169282Y-115992002D01*
X151174010Y-116018351D01*
X151168273Y-116054084D01*
X151153882Y-116096718D01*
X151147262Y-116111201D01*
X151120513Y-116164760D01*
X151155376Y-116210467D01*
X151178955Y-116236842D01*
X151198417Y-116250876D01*
X151204129Y-116251586D01*
X151217973Y-116239049D01*
X151239012Y-116211572D01*
X151255425Y-116186634D01*
X151284930Y-116119336D01*
X151298284Y-116043890D01*
X151294812Y-115969112D01*
X151276663Y-115909505D01*
X151237784Y-115848059D01*
X151186595Y-115804392D01*
X151120367Y-115777074D01*
X151036371Y-115764678D01*
X150997936Y-115763579D01*
X150909861Y-115767978D01*
X150907299Y-115768518D01*
X150907299Y-115894418D01*
X150915558Y-115897885D01*
X150920113Y-115912137D01*
X150922065Y-115941530D01*
X150922517Y-115990425D01*
X150922525Y-116009252D01*
X150921843Y-116066533D01*
X150919364Y-116102859D01*
X150914443Y-116122396D01*
X150906434Y-116129310D01*
X150903862Y-116129555D01*
X150883423Y-116121664D01*
X150854789Y-116101915D01*
X150844763Y-116093425D01*
X150816408Y-116061906D01*
X150805259Y-116029051D01*
X150804327Y-116011349D01*
X150815981Y-115963461D01*
X150847285Y-115923301D01*
X150892752Y-115897827D01*
X150894233Y-115897375D01*
X150907299Y-115894418D01*
X150907299Y-115768518D01*
X150840510Y-115782608D01*
X150785025Y-115808962D01*
X150745639Y-115841193D01*
X150702931Y-115900783D01*
X150680109Y-115970832D01*
X150678046Y-116045339D01*
X150697614Y-116118301D01*
G36*
X150681452Y-117489017D02*
X150690482Y-117536634D01*
X150709370Y-117586034D01*
X150711777Y-117591312D01*
X150731476Y-117628774D01*
X150749781Y-117654717D01*
X150761508Y-117663103D01*
X150780632Y-117655117D01*
X150808850Y-117635720D01*
X150819384Y-117627110D01*
X150860847Y-117591628D01*
X150833858Y-117545885D01*
X150815878Y-117502350D01*
X150806267Y-117452050D01*
X150805660Y-117403812D01*
X150814691Y-117366467D01*
X150820327Y-117357505D01*
X150846171Y-117340437D01*
X150875941Y-117338363D01*
X150899197Y-117351134D01*
X150903708Y-117358688D01*
X150909309Y-117381325D01*
X150915892Y-117421115D01*
X150922183Y-117470166D01*
X150923170Y-117479215D01*
X150936798Y-117557996D01*
X150959946Y-117615136D01*
X150994752Y-117653030D01*
X151043354Y-117674079D01*
X151102718Y-117680635D01*
X151170198Y-117671577D01*
X151223188Y-117642164D01*
X151261783Y-117592278D01*
X151286081Y-117521800D01*
X151295667Y-117443565D01*
X151295552Y-117379766D01*
X151286845Y-117328016D01*
X151274825Y-117292673D01*
X151253880Y-117248017D01*
X151229574Y-117206747D01*
X151218876Y-117192079D01*
X151188084Y-117154357D01*
X151142049Y-117199852D01*
X151096013Y-117245347D01*
X151130243Y-117297072D01*
X151155952Y-117348952D01*
X151169399Y-117404351D01*
X151170818Y-117457605D01*
X151160443Y-117503049D01*
X151138507Y-117535016D01*
X151119998Y-117545338D01*
X151090314Y-117543789D01*
X151067615Y-117518140D01*
X151051940Y-117468460D01*
X151044695Y-117414031D01*
X151030873Y-117330264D01*
X151004796Y-117268033D01*
X150965699Y-117226507D01*
X150912820Y-117204853D01*
X150850126Y-117201853D01*
X150784642Y-117216671D01*
X150735144Y-117250454D01*
X150701408Y-117303505D01*
X150683207Y-117376126D01*
X150679639Y-117429928D01*
X150681452Y-117489017D01*
X150681452Y-117489017D01*
G37*
X150681452Y-117489017D02*
X150690482Y-117536634D01*
X150709370Y-117586034D01*
X150711777Y-117591312D01*
X150731476Y-117628774D01*
X150749781Y-117654717D01*
X150761508Y-117663103D01*
X150780632Y-117655117D01*
X150808850Y-117635720D01*
X150819384Y-117627110D01*
X150860847Y-117591628D01*
X150833858Y-117545885D01*
X150815878Y-117502350D01*
X150806267Y-117452050D01*
X150805660Y-117403812D01*
X150814691Y-117366467D01*
X150820327Y-117357505D01*
X150846171Y-117340437D01*
X150875941Y-117338363D01*
X150899197Y-117351134D01*
X150903708Y-117358688D01*
X150909309Y-117381325D01*
X150915892Y-117421115D01*
X150922183Y-117470166D01*
X150923170Y-117479215D01*
X150936798Y-117557996D01*
X150959946Y-117615136D01*
X150994752Y-117653030D01*
X151043354Y-117674079D01*
X151102718Y-117680635D01*
X151170198Y-117671577D01*
X151223188Y-117642164D01*
X151261783Y-117592278D01*
X151286081Y-117521800D01*
X151295667Y-117443565D01*
X151295552Y-117379766D01*
X151286845Y-117328016D01*
X151274825Y-117292673D01*
X151253880Y-117248017D01*
X151229574Y-117206747D01*
X151218876Y-117192079D01*
X151188084Y-117154357D01*
X151142049Y-117199852D01*
X151096013Y-117245347D01*
X151130243Y-117297072D01*
X151155952Y-117348952D01*
X151169399Y-117404351D01*
X151170818Y-117457605D01*
X151160443Y-117503049D01*
X151138507Y-117535016D01*
X151119998Y-117545338D01*
X151090314Y-117543789D01*
X151067615Y-117518140D01*
X151051940Y-117468460D01*
X151044695Y-117414031D01*
X151030873Y-117330264D01*
X151004796Y-117268033D01*
X150965699Y-117226507D01*
X150912820Y-117204853D01*
X150850126Y-117201853D01*
X150784642Y-117216671D01*
X150735144Y-117250454D01*
X150701408Y-117303505D01*
X150683207Y-117376126D01*
X150679639Y-117429928D01*
X150681452Y-117489017D01*
G36*
X150691055Y-118085762D02*
X150725692Y-118149363D01*
X150780372Y-118199123D01*
X150824842Y-118222568D01*
X150864121Y-118232634D01*
X150920116Y-118239156D01*
X150984621Y-118241951D01*
X151049429Y-118240836D01*
X151106334Y-118235626D01*
X151136727Y-118229541D01*
X151178306Y-118209014D01*
X151222468Y-118173463D01*
X151261087Y-118130619D01*
X151286034Y-118088211D01*
X151286430Y-118087177D01*
X151297331Y-118034553D01*
X151297601Y-117972188D01*
X151287676Y-117912924D01*
X151279722Y-117890040D01*
X151246300Y-117831102D01*
X151202511Y-117788890D01*
X151144538Y-117761156D01*
X151068565Y-117745651D01*
X151028771Y-117742143D01*
X150978766Y-117742590D01*
X150978766Y-117877376D01*
X151051732Y-117881917D01*
X151107334Y-117894986D01*
X151142861Y-117915756D01*
X151153020Y-117930552D01*
X151160104Y-117968464D01*
X151158007Y-118013527D01*
X151147812Y-118052487D01*
X151142204Y-118062704D01*
X151109538Y-118089659D01*
X151059545Y-118107451D01*
X150998705Y-118115024D01*
X150933497Y-118111325D01*
X150894253Y-118103057D01*
X150848805Y-118079320D01*
X150820396Y-118041849D01*
X150810573Y-117996720D01*
X150820887Y-117950011D01*
X150846112Y-117914132D01*
X150866925Y-117895277D01*
X150887439Y-117884272D01*
X150915203Y-117879026D01*
X150957762Y-117877449D01*
X150978766Y-117877376D01*
X150978766Y-117742590D01*
X150922580Y-117743094D01*
X150835501Y-117760388D01*
X150767530Y-117794029D01*
X150718664Y-117844018D01*
X150688899Y-117910356D01*
X150685448Y-117924601D01*
X150677345Y-118010210D01*
X150691055Y-118085762D01*
X150691055Y-118085762D01*
G37*
X150691055Y-118085762D02*
X150725692Y-118149363D01*
X150780372Y-118199123D01*
X150824842Y-118222568D01*
X150864121Y-118232634D01*
X150920116Y-118239156D01*
X150984621Y-118241951D01*
X151049429Y-118240836D01*
X151106334Y-118235626D01*
X151136727Y-118229541D01*
X151178306Y-118209014D01*
X151222468Y-118173463D01*
X151261087Y-118130619D01*
X151286034Y-118088211D01*
X151286430Y-118087177D01*
X151297331Y-118034553D01*
X151297601Y-117972188D01*
X151287676Y-117912924D01*
X151279722Y-117890040D01*
X151246300Y-117831102D01*
X151202511Y-117788890D01*
X151144538Y-117761156D01*
X151068565Y-117745651D01*
X151028771Y-117742143D01*
X150978766Y-117742590D01*
X150978766Y-117877376D01*
X151051732Y-117881917D01*
X151107334Y-117894986D01*
X151142861Y-117915756D01*
X151153020Y-117930552D01*
X151160104Y-117968464D01*
X151158007Y-118013527D01*
X151147812Y-118052487D01*
X151142204Y-118062704D01*
X151109538Y-118089659D01*
X151059545Y-118107451D01*
X150998705Y-118115024D01*
X150933497Y-118111325D01*
X150894253Y-118103057D01*
X150848805Y-118079320D01*
X150820396Y-118041849D01*
X150810573Y-117996720D01*
X150820887Y-117950011D01*
X150846112Y-117914132D01*
X150866925Y-117895277D01*
X150887439Y-117884272D01*
X150915203Y-117879026D01*
X150957762Y-117877449D01*
X150978766Y-117877376D01*
X150978766Y-117742590D01*
X150922580Y-117743094D01*
X150835501Y-117760388D01*
X150767530Y-117794029D01*
X150718664Y-117844018D01*
X150688899Y-117910356D01*
X150685448Y-117924601D01*
X150677345Y-118010210D01*
X150691055Y-118085762D01*
G36*
X150879342Y-118468367D02*
X150971563Y-118469555D01*
X151041610Y-118473897D01*
X151092381Y-118482558D01*
X151126772Y-118496704D01*
X151147679Y-118517500D01*
X151158000Y-118546110D01*
X151160636Y-118581535D01*
X151157682Y-118618636D01*
X151146889Y-118646818D01*
X151125360Y-118667243D01*
X151090199Y-118681079D01*
X151038510Y-118689491D01*
X150967394Y-118693643D01*
X150879342Y-118694703D01*
X150683614Y-118694703D01*
X150683614Y-118833020D01*
X151287179Y-118833020D01*
X151287179Y-118763862D01*
X151285489Y-118722170D01*
X151279556Y-118700701D01*
X151268293Y-118694703D01*
X151258261Y-118691091D01*
X151260383Y-118676714D01*
X151274580Y-118647736D01*
X151296480Y-118581319D01*
X151294928Y-118510875D01*
X151271147Y-118443377D01*
X151252362Y-118411233D01*
X151232022Y-118386715D01*
X151206573Y-118368804D01*
X151172458Y-118356479D01*
X151126121Y-118348723D01*
X151064007Y-118344516D01*
X150982561Y-118342840D01*
X150919578Y-118342624D01*
X150683614Y-118342624D01*
X150683614Y-118468367D01*
X150879342Y-118468367D01*
X150879342Y-118468367D01*
G37*
X150879342Y-118468367D02*
X150971563Y-118469555D01*
X151041610Y-118473897D01*
X151092381Y-118482558D01*
X151126772Y-118496704D01*
X151147679Y-118517500D01*
X151158000Y-118546110D01*
X151160636Y-118581535D01*
X151157682Y-118618636D01*
X151146889Y-118646818D01*
X151125360Y-118667243D01*
X151090199Y-118681079D01*
X151038510Y-118689491D01*
X150967394Y-118693643D01*
X150879342Y-118694703D01*
X150683614Y-118694703D01*
X150683614Y-118833020D01*
X151287179Y-118833020D01*
X151287179Y-118763862D01*
X151285489Y-118722170D01*
X151279556Y-118700701D01*
X151268293Y-118694703D01*
X151258261Y-118691091D01*
X151260383Y-118676714D01*
X151274580Y-118647736D01*
X151296480Y-118581319D01*
X151294928Y-118510875D01*
X151271147Y-118443377D01*
X151252362Y-118411233D01*
X151232022Y-118386715D01*
X151206573Y-118368804D01*
X151172458Y-118356479D01*
X151126121Y-118348723D01*
X151064007Y-118344516D01*
X150982561Y-118342840D01*
X150919578Y-118342624D01*
X150683614Y-118342624D01*
X150683614Y-118468367D01*
X150879342Y-118468367D01*
G36*
X150688880Y-119692226D02*
X150719830Y-119765080D01*
X150734895Y-119788027D01*
X150758048Y-119817354D01*
X150776253Y-119835764D01*
X150782183Y-119838961D01*
X150795340Y-119829935D01*
X150817667Y-119806837D01*
X150833250Y-119788344D01*
X150873926Y-119737728D01*
X150840295Y-119697760D01*
X150818584Y-119666874D01*
X150811090Y-119636759D01*
X150812920Y-119602292D01*
X150826528Y-119547561D01*
X150854772Y-119509886D01*
X150900433Y-119486991D01*
X150966289Y-119476597D01*
X150966331Y-119476595D01*
X151039939Y-119477494D01*
X151093946Y-119491463D01*
X151130716Y-119519328D01*
X151143168Y-119538325D01*
X151158673Y-119588776D01*
X151158683Y-119642663D01*
X151143638Y-119689546D01*
X151136287Y-119700644D01*
X151117511Y-119728476D01*
X151114434Y-119750236D01*
X151128409Y-119773704D01*
X151153510Y-119799649D01*
X151195880Y-119840716D01*
X151233464Y-119795121D01*
X151275882Y-119724674D01*
X151296785Y-119645233D01*
X151295272Y-119562215D01*
X151281411Y-119507694D01*
X151247135Y-119443970D01*
X151193212Y-119393005D01*
X151155149Y-119369851D01*
X151100536Y-119351099D01*
X151031369Y-119341715D01*
X150956407Y-119341643D01*
X150884409Y-119350824D01*
X150824137Y-119369199D01*
X150817958Y-119372093D01*
X150757351Y-119414952D01*
X150713224Y-119472979D01*
X150686493Y-119541591D01*
X150678073Y-119616201D01*
X150688880Y-119692226D01*
X150688880Y-119692226D01*
G37*
X150688880Y-119692226D02*
X150719830Y-119765080D01*
X150734895Y-119788027D01*
X150758048Y-119817354D01*
X150776253Y-119835764D01*
X150782183Y-119838961D01*
X150795340Y-119829935D01*
X150817667Y-119806837D01*
X150833250Y-119788344D01*
X150873926Y-119737728D01*
X150840295Y-119697760D01*
X150818584Y-119666874D01*
X150811090Y-119636759D01*
X150812920Y-119602292D01*
X150826528Y-119547561D01*
X150854772Y-119509886D01*
X150900433Y-119486991D01*
X150966289Y-119476597D01*
X150966331Y-119476595D01*
X151039939Y-119477494D01*
X151093946Y-119491463D01*
X151130716Y-119519328D01*
X151143168Y-119538325D01*
X151158673Y-119588776D01*
X151158683Y-119642663D01*
X151143638Y-119689546D01*
X151136287Y-119700644D01*
X151117511Y-119728476D01*
X151114434Y-119750236D01*
X151128409Y-119773704D01*
X151153510Y-119799649D01*
X151195880Y-119840716D01*
X151233464Y-119795121D01*
X151275882Y-119724674D01*
X151296785Y-119645233D01*
X151295272Y-119562215D01*
X151281411Y-119507694D01*
X151247135Y-119443970D01*
X151193212Y-119393005D01*
X151155149Y-119369851D01*
X151100536Y-119351099D01*
X151031369Y-119341715D01*
X150956407Y-119341643D01*
X150884409Y-119350824D01*
X150824137Y-119369199D01*
X150817958Y-119372093D01*
X150757351Y-119414952D01*
X150713224Y-119472979D01*
X150686493Y-119541591D01*
X150678073Y-119616201D01*
X150688880Y-119692226D01*
G36*
X150681457Y-120152898D02*
X150689279Y-120185096D01*
X150717921Y-120246825D01*
X150761667Y-120299610D01*
X150814117Y-120336141D01*
X150825893Y-120341160D01*
X150856740Y-120348045D01*
X150902371Y-120352864D01*
X150948492Y-120354505D01*
X151035693Y-120354505D01*
X151035693Y-120172178D01*
X151035978Y-120096979D01*
X151037704Y-120044003D01*
X151042181Y-120010325D01*
X151050720Y-119993020D01*
X151064630Y-119989163D01*
X151085222Y-119995829D01*
X151109315Y-120007770D01*
X151149525Y-120041080D01*
X151169558Y-120087368D01*
X151168905Y-120143944D01*
X151147101Y-120208031D01*
X151120193Y-120263417D01*
X151156532Y-120309375D01*
X151192872Y-120355333D01*
X151232819Y-120312096D01*
X151270563Y-120254374D01*
X151293320Y-120183386D01*
X151299688Y-120107029D01*
X151288268Y-120033199D01*
X151284393Y-120021287D01*
X151250506Y-119956399D01*
X151199986Y-119908130D01*
X151131325Y-119875465D01*
X151043014Y-119857385D01*
X151041121Y-119857175D01*
X150944878Y-119855556D01*
X150910542Y-119862100D01*
X150910542Y-119989852D01*
X150915822Y-120001584D01*
X150919867Y-120033438D01*
X150922176Y-120080397D01*
X150922525Y-120110154D01*
X150922306Y-120165648D01*
X150920916Y-120200346D01*
X150917251Y-120218601D01*
X150910210Y-120224766D01*
X150898690Y-120223195D01*
X150894233Y-120221878D01*
X150852355Y-120199382D01*
X150818604Y-120164003D01*
X150803773Y-120132780D01*
X150804668Y-120091301D01*
X150823164Y-120049269D01*
X150853786Y-120014012D01*
X150891062Y-119992854D01*
X150910542Y-119989852D01*
X150910542Y-119862100D01*
X150860229Y-119871690D01*
X150789191Y-119903698D01*
X150733779Y-119949701D01*
X150696009Y-120007821D01*
X150677896Y-120076180D01*
X150681457Y-120152898D01*
X150681457Y-120152898D01*
G37*
X150681457Y-120152898D02*
X150689279Y-120185096D01*
X150717921Y-120246825D01*
X150761667Y-120299610D01*
X150814117Y-120336141D01*
X150825893Y-120341160D01*
X150856740Y-120348045D01*
X150902371Y-120352864D01*
X150948492Y-120354505D01*
X151035693Y-120354505D01*
X151035693Y-120172178D01*
X151035978Y-120096979D01*
X151037704Y-120044003D01*
X151042181Y-120010325D01*
X151050720Y-119993020D01*
X151064630Y-119989163D01*
X151085222Y-119995829D01*
X151109315Y-120007770D01*
X151149525Y-120041080D01*
X151169558Y-120087368D01*
X151168905Y-120143944D01*
X151147101Y-120208031D01*
X151120193Y-120263417D01*
X151156532Y-120309375D01*
X151192872Y-120355333D01*
X151232819Y-120312096D01*
X151270563Y-120254374D01*
X151293320Y-120183386D01*
X151299688Y-120107029D01*
X151288268Y-120033199D01*
X151284393Y-120021287D01*
X151250506Y-119956399D01*
X151199986Y-119908130D01*
X151131325Y-119875465D01*
X151043014Y-119857385D01*
X151041121Y-119857175D01*
X150944878Y-119855556D01*
X150910542Y-119862100D01*
X150910542Y-119989852D01*
X150915822Y-120001584D01*
X150919867Y-120033438D01*
X150922176Y-120080397D01*
X150922525Y-120110154D01*
X150922306Y-120165648D01*
X150920916Y-120200346D01*
X150917251Y-120218601D01*
X150910210Y-120224766D01*
X150898690Y-120223195D01*
X150894233Y-120221878D01*
X150852355Y-120199382D01*
X150818604Y-120164003D01*
X150803773Y-120132780D01*
X150804668Y-120091301D01*
X150823164Y-120049269D01*
X150853786Y-120014012D01*
X150891062Y-119992854D01*
X150910542Y-119989852D01*
X150910542Y-119862100D01*
X150860229Y-119871690D01*
X150789191Y-119903698D01*
X150733779Y-119949701D01*
X150696009Y-120007821D01*
X150677896Y-120076180D01*
X150681457Y-120152898D01*
G36*
X150694002Y-116720988D02*
X150708950Y-116752283D01*
X150730541Y-116782591D01*
X150755391Y-116805682D01*
X150787087Y-116822500D01*
X150829214Y-116833994D01*
X150885358Y-116841109D01*
X150959106Y-116844793D01*
X151054044Y-116845992D01*
X151063985Y-116846011D01*
X151287179Y-116846287D01*
X151287179Y-116707970D01*
X151081418Y-116707970D01*
X151005189Y-116707872D01*
X150949939Y-116707191D01*
X150911501Y-116705349D01*
X150885706Y-116701767D01*
X150868384Y-116695868D01*
X150855368Y-116687073D01*
X150842507Y-116674820D01*
X150814873Y-116631953D01*
X150809745Y-116585157D01*
X150827217Y-116540576D01*
X150840221Y-116525072D01*
X150852447Y-116513690D01*
X150865540Y-116505519D01*
X150883615Y-116500026D01*
X150910787Y-116496680D01*
X150951170Y-116494949D01*
X151008879Y-116494303D01*
X151079132Y-116494208D01*
X151287179Y-116494208D01*
X151287179Y-116355891D01*
X150683614Y-116355891D01*
X150683614Y-116425050D01*
X150685256Y-116466572D01*
X150691087Y-116487994D01*
X150702461Y-116494205D01*
X150702798Y-116494208D01*
X150713938Y-116497090D01*
X150712674Y-116509801D01*
X150700434Y-116535074D01*
X150682424Y-116592395D01*
X150680421Y-116657963D01*
X150694002Y-116720988D01*
X150694002Y-116720988D01*
G37*
X150694002Y-116720988D02*
X150708950Y-116752283D01*
X150730541Y-116782591D01*
X150755391Y-116805682D01*
X150787087Y-116822500D01*
X150829214Y-116833994D01*
X150885358Y-116841109D01*
X150959106Y-116844793D01*
X151054044Y-116845992D01*
X151063985Y-116846011D01*
X151287179Y-116846287D01*
X151287179Y-116707970D01*
X151081418Y-116707970D01*
X151005189Y-116707872D01*
X150949939Y-116707191D01*
X150911501Y-116705349D01*
X150885706Y-116701767D01*
X150868384Y-116695868D01*
X150855368Y-116687073D01*
X150842507Y-116674820D01*
X150814873Y-116631953D01*
X150809745Y-116585157D01*
X150827217Y-116540576D01*
X150840221Y-116525072D01*
X150852447Y-116513690D01*
X150865540Y-116505519D01*
X150883615Y-116500026D01*
X150910787Y-116496680D01*
X150951170Y-116494949D01*
X151008879Y-116494303D01*
X151079132Y-116494208D01*
X151287179Y-116494208D01*
X151287179Y-116355891D01*
X150683614Y-116355891D01*
X150683614Y-116425050D01*
X150685256Y-116466572D01*
X150691087Y-116487994D01*
X150702461Y-116494205D01*
X150702798Y-116494208D01*
X150713938Y-116497090D01*
X150712674Y-116509801D01*
X150700434Y-116535074D01*
X150682424Y-116592395D01*
X150680421Y-116657963D01*
X150694002Y-116720988D01*
G36*
X150683030Y-119274460D02*
X150696245Y-119317711D01*
X150712941Y-119345558D01*
X150726145Y-119354629D01*
X150741797Y-119352132D01*
X150766385Y-119335931D01*
X150783800Y-119322232D01*
X150815283Y-119293992D01*
X150828529Y-119272775D01*
X150827664Y-119254688D01*
X150814010Y-119201035D01*
X150814630Y-119161630D01*
X150830104Y-119129632D01*
X150839161Y-119118890D01*
X150871027Y-119084505D01*
X151287179Y-119084505D01*
X151287179Y-118946188D01*
X150683614Y-118946188D01*
X150683614Y-119015347D01*
X150685256Y-119056869D01*
X150691087Y-119078291D01*
X150702461Y-119084502D01*
X150702798Y-119084505D01*
X150714713Y-119087439D01*
X150713159Y-119100704D01*
X150704563Y-119119084D01*
X150688568Y-119157046D01*
X150678945Y-119187872D01*
X150676478Y-119227536D01*
X150683030Y-119274460D01*
X150683030Y-119274460D01*
G37*
X150683030Y-119274460D02*
X150696245Y-119317711D01*
X150712941Y-119345558D01*
X150726145Y-119354629D01*
X150741797Y-119352132D01*
X150766385Y-119335931D01*
X150783800Y-119322232D01*
X150815283Y-119293992D01*
X150828529Y-119272775D01*
X150827664Y-119254688D01*
X150814010Y-119201035D01*
X150814630Y-119161630D01*
X150830104Y-119129632D01*
X150839161Y-119118890D01*
X150871027Y-119084505D01*
X151287179Y-119084505D01*
X151287179Y-118946188D01*
X150683614Y-118946188D01*
X150683614Y-119015347D01*
X150685256Y-119056869D01*
X150691087Y-119078291D01*
X150702461Y-119084502D01*
X150702798Y-119084505D01*
X150714713Y-119087439D01*
X150713159Y-119100704D01*
X150704563Y-119119084D01*
X150688568Y-119157046D01*
X150678945Y-119187872D01*
X150676478Y-119227536D01*
X150683030Y-119274460D01*
G36*
X146515018Y-117851964D02*
X146816570Y-117908812D01*
X146989512Y-118328338D01*
X146818395Y-118579984D01*
X146770750Y-118650458D01*
X146728210Y-118714163D01*
X146692715Y-118768126D01*
X146666210Y-118809373D01*
X146650636Y-118834934D01*
X146647278Y-118841895D01*
X146655914Y-118854435D01*
X146679792Y-118881231D01*
X146715859Y-118919280D01*
X146761067Y-118965579D01*
X146812364Y-119017123D01*
X146866701Y-119070909D01*
X146921028Y-119123935D01*
X146972295Y-119173195D01*
X147017451Y-119215687D01*
X147053446Y-119248407D01*
X147077230Y-119268351D01*
X147085190Y-119273119D01*
X147099865Y-119266257D01*
X147132014Y-119247020D01*
X147178492Y-119217430D01*
X147236156Y-119179510D01*
X147301860Y-119135282D01*
X147339336Y-119109654D01*
X147407768Y-119062941D01*
X147469520Y-119021432D01*
X147521519Y-118987140D01*
X147560692Y-118962080D01*
X147583965Y-118948264D01*
X147588855Y-118946188D01*
X147602755Y-118950895D01*
X147635150Y-118963723D01*
X147681485Y-118982738D01*
X147737206Y-119006003D01*
X147797758Y-119031584D01*
X147858586Y-119057545D01*
X147915136Y-119081950D01*
X147962852Y-119102863D01*
X147997181Y-119118349D01*
X148013568Y-119126472D01*
X148014212Y-119126952D01*
X148017341Y-119139707D01*
X148024321Y-119173677D01*
X148034467Y-119225340D01*
X148047092Y-119291176D01*
X148061509Y-119367664D01*
X148069823Y-119412290D01*
X148085384Y-119494021D01*
X148100192Y-119567843D01*
X148113436Y-119630021D01*
X148124305Y-119676822D01*
X148131989Y-119704509D01*
X148134427Y-119710074D01*
X148150930Y-119715526D01*
X148188200Y-119719924D01*
X148241880Y-119723272D01*
X148307612Y-119725574D01*
X148381037Y-119726832D01*
X148457796Y-119727048D01*
X148533532Y-119726227D01*
X148603886Y-119724371D01*
X148664500Y-119721482D01*
X148711016Y-119717565D01*
X148739075Y-119712622D01*
X148744916Y-119709657D01*
X148751917Y-119691934D01*
X148761927Y-119654381D01*
X148773769Y-119601964D01*
X148786267Y-119539652D01*
X148790310Y-119517900D01*
X148809520Y-119413024D01*
X148824991Y-119330180D01*
X148837337Y-119266630D01*
X148847173Y-119219637D01*
X148855114Y-119186463D01*
X148861776Y-119164371D01*
X148867773Y-119150624D01*
X148873719Y-119142484D01*
X148874894Y-119141345D01*
X148893826Y-119129977D01*
X148930669Y-119112635D01*
X148980913Y-119091050D01*
X149040046Y-119066954D01*
X149103556Y-119042079D01*
X149166932Y-119018157D01*
X149225662Y-118996919D01*
X149275235Y-118980097D01*
X149311139Y-118969422D01*
X149328862Y-118966627D01*
X149329483Y-118966860D01*
X149343970Y-118976331D01*
X149375844Y-118997818D01*
X149421789Y-119029063D01*
X149478485Y-119067807D01*
X149542617Y-119111793D01*
X149560842Y-119124319D01*
X149626914Y-119168984D01*
X149687200Y-119208288D01*
X149738235Y-119240088D01*
X149776560Y-119262245D01*
X149798711Y-119272617D01*
X149801432Y-119273119D01*
X149815736Y-119264405D01*
X149844072Y-119240325D01*
X149883396Y-119203976D01*
X149930661Y-119158453D01*
X149982823Y-119106852D01*
X150036835Y-119052267D01*
X150089653Y-118997794D01*
X150138231Y-118946529D01*
X150179523Y-118901567D01*
X150210485Y-118866004D01*
X150228070Y-118842935D01*
X150230941Y-118836554D01*
X150224178Y-118821699D01*
X150205939Y-118791286D01*
X150179297Y-118750268D01*
X150157852Y-118718709D01*
X150118503Y-118661525D01*
X150072171Y-118593806D01*
X150025913Y-118525880D01*
X150001155Y-118489361D01*
X149917547Y-118365752D01*
X149973650Y-118261991D01*
X149998228Y-118214720D01*
X150017331Y-118174523D01*
X150028227Y-118147326D01*
X150029743Y-118140402D01*
X150018549Y-118132077D01*
X149986917Y-118115654D01*
X149937765Y-118092357D01*
X149874010Y-118063414D01*
X149798571Y-118030050D01*
X149714364Y-117993491D01*
X149624308Y-117954964D01*
X149531321Y-117915694D01*
X149438320Y-117876908D01*
X149348223Y-117839830D01*
X149263948Y-117805689D01*
X149188413Y-117775708D01*
X149124534Y-117751116D01*
X149075231Y-117733136D01*
X149043421Y-117722997D01*
X149032496Y-117721366D01*
X149018561Y-117734291D01*
X148995940Y-117762589D01*
X148969333Y-117800346D01*
X148967228Y-117803515D01*
X148889114Y-117901100D01*
X148797982Y-117979786D01*
X148696745Y-118038891D01*
X148588318Y-118077732D01*
X148475614Y-118095628D01*
X148361548Y-118091897D01*
X148249034Y-118065857D01*
X148140985Y-118016825D01*
X148117345Y-118002400D01*
X148021887Y-117927369D01*
X147945232Y-117838730D01*
X147887780Y-117739549D01*
X147849929Y-117632895D01*
X147832078Y-117521836D01*
X147834625Y-117409439D01*
X147857970Y-117298773D01*
X147902510Y-117192906D01*
X147968645Y-117094905D01*
X147995487Y-117064590D01*
X148079512Y-116987438D01*
X148167966Y-116931218D01*
X148267115Y-116892653D01*
X148365303Y-116871174D01*
X148475697Y-116865872D01*
X148586640Y-116883552D01*
X148694381Y-116922419D01*
X148795169Y-116980677D01*
X148885256Y-117056531D01*
X148960892Y-117148183D01*
X148968864Y-117160228D01*
X148994974Y-117198389D01*
X149017595Y-117227399D01*
X149032039Y-117241268D01*
X149032496Y-117241469D01*
X149048121Y-117238492D01*
X149083582Y-117226689D01*
X149135962Y-117207286D01*
X149202345Y-117181512D01*
X149279814Y-117150591D01*
X149365450Y-117115751D01*
X149456337Y-117078217D01*
X149549559Y-117039217D01*
X149642197Y-116999977D01*
X149731335Y-116961724D01*
X149814055Y-116925683D01*
X149887441Y-116893083D01*
X149948575Y-116865148D01*
X149994541Y-116843105D01*
X150022421Y-116828182D01*
X150029743Y-116822172D01*
X150024041Y-116803809D01*
X150008749Y-116769448D01*
X149986599Y-116725016D01*
X149973650Y-116700583D01*
X149917547Y-116596822D01*
X150001155Y-116473213D01*
X150043987Y-116410114D01*
X150091122Y-116341030D01*
X150135503Y-116276293D01*
X150157852Y-116243866D01*
X150188477Y-116198259D01*
X150212747Y-116159640D01*
X150227587Y-116133048D01*
X150230724Y-116124410D01*
X150222261Y-116111839D01*
X150198636Y-116084016D01*
X150162302Y-116043639D01*
X150115711Y-115993405D01*
X150061317Y-115936012D01*
X150026392Y-115899714D01*
X149963996Y-115836210D01*
X149908188Y-115781327D01*
X149861354Y-115737286D01*
X149825882Y-115706305D01*
X149804161Y-115690602D01*
X149799752Y-115689095D01*
X149782985Y-115696086D01*
X149749082Y-115715406D01*
X149701476Y-115744909D01*
X149643599Y-115782455D01*
X149578884Y-115825900D01*
X149560842Y-115838255D01*
X149495267Y-115883273D01*
X149436228Y-115923660D01*
X149387042Y-115957160D01*
X149351028Y-115981514D01*
X149331502Y-115994464D01*
X149329483Y-115995715D01*
X149313922Y-115993844D01*
X149279709Y-115983913D01*
X149231355Y-115967653D01*
X149173371Y-115946795D01*
X149110270Y-115923073D01*
X149046563Y-115898216D01*
X148986761Y-115873958D01*
X148935376Y-115852029D01*
X148896919Y-115834162D01*
X148875902Y-115822087D01*
X148874894Y-115821229D01*
X148868888Y-115813846D01*
X148862948Y-115801375D01*
X148856460Y-115781080D01*
X148848809Y-115750222D01*
X148839380Y-115706066D01*
X148827559Y-115645874D01*
X148812729Y-115566907D01*
X148794277Y-115466430D01*
X148790310Y-115444675D01*
X148777853Y-115380198D01*
X148765666Y-115323989D01*
X148754926Y-115281013D01*
X148746809Y-115256240D01*
X148744916Y-115252918D01*
X148728138Y-115247444D01*
X148690645Y-115242994D01*
X148636794Y-115239572D01*
X148570944Y-115237181D01*
X148497453Y-115235823D01*
X148420680Y-115235501D01*
X148344983Y-115236219D01*
X148274720Y-115237979D01*
X148214250Y-115240784D01*
X148167930Y-115244638D01*
X148140119Y-115249543D01*
X148134427Y-115252500D01*
X148128686Y-115268963D01*
X148119345Y-115306449D01*
X148107215Y-115361225D01*
X148093107Y-115429555D01*
X148077830Y-115507706D01*
X148069823Y-115550284D01*
X148054721Y-115631071D01*
X148041040Y-115703113D01*
X148029467Y-115762889D01*
X148020687Y-115806879D01*
X148015387Y-115831561D01*
X148014212Y-115835623D01*
X148000965Y-115842489D01*
X147969057Y-115857002D01*
X147923047Y-115877229D01*
X147867492Y-115901234D01*
X147806953Y-115927082D01*
X147745986Y-115952840D01*
X147689151Y-115976573D01*
X147641006Y-115996346D01*
X147606110Y-116010224D01*
X147589021Y-116016274D01*
X147588274Y-116016386D01*
X147574793Y-116009528D01*
X147543770Y-115990302D01*
X147498289Y-115960728D01*
X147441432Y-115922827D01*
X147376283Y-115878620D01*
X147338862Y-115852921D01*
X147270247Y-115806093D01*
X147207952Y-115764501D01*
X147155129Y-115730175D01*
X147114927Y-115705143D01*
X147090500Y-115691435D01*
X147085024Y-115689456D01*
X147072278Y-115697966D01*
X147045063Y-115721493D01*
X147006428Y-115757032D01*
X146959423Y-115801577D01*
X146907095Y-115852123D01*
X146852495Y-115905664D01*
X146798670Y-115959195D01*
X146748670Y-116009711D01*
X146705543Y-116054206D01*
X146672339Y-116089675D01*
X146652106Y-116113113D01*
X146647278Y-116120954D01*
X146654067Y-116133720D01*
X146673142Y-116164256D01*
X146702561Y-116209590D01*
X146740381Y-116266756D01*
X146784661Y-116332784D01*
X146818395Y-116382590D01*
X146989512Y-116634236D01*
X146903041Y-116843999D01*
X146816570Y-117053763D01*
X146515018Y-117110611D01*
X146213466Y-117167460D01*
X146213466Y-117795115D01*
X146515018Y-117851964D01*
X146515018Y-117851964D01*
G37*
X146515018Y-117851964D02*
X146816570Y-117908812D01*
X146989512Y-118328338D01*
X146818395Y-118579984D01*
X146770750Y-118650458D01*
X146728210Y-118714163D01*
X146692715Y-118768126D01*
X146666210Y-118809373D01*
X146650636Y-118834934D01*
X146647278Y-118841895D01*
X146655914Y-118854435D01*
X146679792Y-118881231D01*
X146715859Y-118919280D01*
X146761067Y-118965579D01*
X146812364Y-119017123D01*
X146866701Y-119070909D01*
X146921028Y-119123935D01*
X146972295Y-119173195D01*
X147017451Y-119215687D01*
X147053446Y-119248407D01*
X147077230Y-119268351D01*
X147085190Y-119273119D01*
X147099865Y-119266257D01*
X147132014Y-119247020D01*
X147178492Y-119217430D01*
X147236156Y-119179510D01*
X147301860Y-119135282D01*
X147339336Y-119109654D01*
X147407768Y-119062941D01*
X147469520Y-119021432D01*
X147521519Y-118987140D01*
X147560692Y-118962080D01*
X147583965Y-118948264D01*
X147588855Y-118946188D01*
X147602755Y-118950895D01*
X147635150Y-118963723D01*
X147681485Y-118982738D01*
X147737206Y-119006003D01*
X147797758Y-119031584D01*
X147858586Y-119057545D01*
X147915136Y-119081950D01*
X147962852Y-119102863D01*
X147997181Y-119118349D01*
X148013568Y-119126472D01*
X148014212Y-119126952D01*
X148017341Y-119139707D01*
X148024321Y-119173677D01*
X148034467Y-119225340D01*
X148047092Y-119291176D01*
X148061509Y-119367664D01*
X148069823Y-119412290D01*
X148085384Y-119494021D01*
X148100192Y-119567843D01*
X148113436Y-119630021D01*
X148124305Y-119676822D01*
X148131989Y-119704509D01*
X148134427Y-119710074D01*
X148150930Y-119715526D01*
X148188200Y-119719924D01*
X148241880Y-119723272D01*
X148307612Y-119725574D01*
X148381037Y-119726832D01*
X148457796Y-119727048D01*
X148533532Y-119726227D01*
X148603886Y-119724371D01*
X148664500Y-119721482D01*
X148711016Y-119717565D01*
X148739075Y-119712622D01*
X148744916Y-119709657D01*
X148751917Y-119691934D01*
X148761927Y-119654381D01*
X148773769Y-119601964D01*
X148786267Y-119539652D01*
X148790310Y-119517900D01*
X148809520Y-119413024D01*
X148824991Y-119330180D01*
X148837337Y-119266630D01*
X148847173Y-119219637D01*
X148855114Y-119186463D01*
X148861776Y-119164371D01*
X148867773Y-119150624D01*
X148873719Y-119142484D01*
X148874894Y-119141345D01*
X148893826Y-119129977D01*
X148930669Y-119112635D01*
X148980913Y-119091050D01*
X149040046Y-119066954D01*
X149103556Y-119042079D01*
X149166932Y-119018157D01*
X149225662Y-118996919D01*
X149275235Y-118980097D01*
X149311139Y-118969422D01*
X149328862Y-118966627D01*
X149329483Y-118966860D01*
X149343970Y-118976331D01*
X149375844Y-118997818D01*
X149421789Y-119029063D01*
X149478485Y-119067807D01*
X149542617Y-119111793D01*
X149560842Y-119124319D01*
X149626914Y-119168984D01*
X149687200Y-119208288D01*
X149738235Y-119240088D01*
X149776560Y-119262245D01*
X149798711Y-119272617D01*
X149801432Y-119273119D01*
X149815736Y-119264405D01*
X149844072Y-119240325D01*
X149883396Y-119203976D01*
X149930661Y-119158453D01*
X149982823Y-119106852D01*
X150036835Y-119052267D01*
X150089653Y-118997794D01*
X150138231Y-118946529D01*
X150179523Y-118901567D01*
X150210485Y-118866004D01*
X150228070Y-118842935D01*
X150230941Y-118836554D01*
X150224178Y-118821699D01*
X150205939Y-118791286D01*
X150179297Y-118750268D01*
X150157852Y-118718709D01*
X150118503Y-118661525D01*
X150072171Y-118593806D01*
X150025913Y-118525880D01*
X150001155Y-118489361D01*
X149917547Y-118365752D01*
X149973650Y-118261991D01*
X149998228Y-118214720D01*
X150017331Y-118174523D01*
X150028227Y-118147326D01*
X150029743Y-118140402D01*
X150018549Y-118132077D01*
X149986917Y-118115654D01*
X149937765Y-118092357D01*
X149874010Y-118063414D01*
X149798571Y-118030050D01*
X149714364Y-117993491D01*
X149624308Y-117954964D01*
X149531321Y-117915694D01*
X149438320Y-117876908D01*
X149348223Y-117839830D01*
X149263948Y-117805689D01*
X149188413Y-117775708D01*
X149124534Y-117751116D01*
X149075231Y-117733136D01*
X149043421Y-117722997D01*
X149032496Y-117721366D01*
X149018561Y-117734291D01*
X148995940Y-117762589D01*
X148969333Y-117800346D01*
X148967228Y-117803515D01*
X148889114Y-117901100D01*
X148797982Y-117979786D01*
X148696745Y-118038891D01*
X148588318Y-118077732D01*
X148475614Y-118095628D01*
X148361548Y-118091897D01*
X148249034Y-118065857D01*
X148140985Y-118016825D01*
X148117345Y-118002400D01*
X148021887Y-117927369D01*
X147945232Y-117838730D01*
X147887780Y-117739549D01*
X147849929Y-117632895D01*
X147832078Y-117521836D01*
X147834625Y-117409439D01*
X147857970Y-117298773D01*
X147902510Y-117192906D01*
X147968645Y-117094905D01*
X147995487Y-117064590D01*
X148079512Y-116987438D01*
X148167966Y-116931218D01*
X148267115Y-116892653D01*
X148365303Y-116871174D01*
X148475697Y-116865872D01*
X148586640Y-116883552D01*
X148694381Y-116922419D01*
X148795169Y-116980677D01*
X148885256Y-117056531D01*
X148960892Y-117148183D01*
X148968864Y-117160228D01*
X148994974Y-117198389D01*
X149017595Y-117227399D01*
X149032039Y-117241268D01*
X149032496Y-117241469D01*
X149048121Y-117238492D01*
X149083582Y-117226689D01*
X149135962Y-117207286D01*
X149202345Y-117181512D01*
X149279814Y-117150591D01*
X149365450Y-117115751D01*
X149456337Y-117078217D01*
X149549559Y-117039217D01*
X149642197Y-116999977D01*
X149731335Y-116961724D01*
X149814055Y-116925683D01*
X149887441Y-116893083D01*
X149948575Y-116865148D01*
X149994541Y-116843105D01*
X150022421Y-116828182D01*
X150029743Y-116822172D01*
X150024041Y-116803809D01*
X150008749Y-116769448D01*
X149986599Y-116725016D01*
X149973650Y-116700583D01*
X149917547Y-116596822D01*
X150001155Y-116473213D01*
X150043987Y-116410114D01*
X150091122Y-116341030D01*
X150135503Y-116276293D01*
X150157852Y-116243866D01*
X150188477Y-116198259D01*
X150212747Y-116159640D01*
X150227587Y-116133048D01*
X150230724Y-116124410D01*
X150222261Y-116111839D01*
X150198636Y-116084016D01*
X150162302Y-116043639D01*
X150115711Y-115993405D01*
X150061317Y-115936012D01*
X150026392Y-115899714D01*
X149963996Y-115836210D01*
X149908188Y-115781327D01*
X149861354Y-115737286D01*
X149825882Y-115706305D01*
X149804161Y-115690602D01*
X149799752Y-115689095D01*
X149782985Y-115696086D01*
X149749082Y-115715406D01*
X149701476Y-115744909D01*
X149643599Y-115782455D01*
X149578884Y-115825900D01*
X149560842Y-115838255D01*
X149495267Y-115883273D01*
X149436228Y-115923660D01*
X149387042Y-115957160D01*
X149351028Y-115981514D01*
X149331502Y-115994464D01*
X149329483Y-115995715D01*
X149313922Y-115993844D01*
X149279709Y-115983913D01*
X149231355Y-115967653D01*
X149173371Y-115946795D01*
X149110270Y-115923073D01*
X149046563Y-115898216D01*
X148986761Y-115873958D01*
X148935376Y-115852029D01*
X148896919Y-115834162D01*
X148875902Y-115822087D01*
X148874894Y-115821229D01*
X148868888Y-115813846D01*
X148862948Y-115801375D01*
X148856460Y-115781080D01*
X148848809Y-115750222D01*
X148839380Y-115706066D01*
X148827559Y-115645874D01*
X148812729Y-115566907D01*
X148794277Y-115466430D01*
X148790310Y-115444675D01*
X148777853Y-115380198D01*
X148765666Y-115323989D01*
X148754926Y-115281013D01*
X148746809Y-115256240D01*
X148744916Y-115252918D01*
X148728138Y-115247444D01*
X148690645Y-115242994D01*
X148636794Y-115239572D01*
X148570944Y-115237181D01*
X148497453Y-115235823D01*
X148420680Y-115235501D01*
X148344983Y-115236219D01*
X148274720Y-115237979D01*
X148214250Y-115240784D01*
X148167930Y-115244638D01*
X148140119Y-115249543D01*
X148134427Y-115252500D01*
X148128686Y-115268963D01*
X148119345Y-115306449D01*
X148107215Y-115361225D01*
X148093107Y-115429555D01*
X148077830Y-115507706D01*
X148069823Y-115550284D01*
X148054721Y-115631071D01*
X148041040Y-115703113D01*
X148029467Y-115762889D01*
X148020687Y-115806879D01*
X148015387Y-115831561D01*
X148014212Y-115835623D01*
X148000965Y-115842489D01*
X147969057Y-115857002D01*
X147923047Y-115877229D01*
X147867492Y-115901234D01*
X147806953Y-115927082D01*
X147745986Y-115952840D01*
X147689151Y-115976573D01*
X147641006Y-115996346D01*
X147606110Y-116010224D01*
X147589021Y-116016274D01*
X147588274Y-116016386D01*
X147574793Y-116009528D01*
X147543770Y-115990302D01*
X147498289Y-115960728D01*
X147441432Y-115922827D01*
X147376283Y-115878620D01*
X147338862Y-115852921D01*
X147270247Y-115806093D01*
X147207952Y-115764501D01*
X147155129Y-115730175D01*
X147114927Y-115705143D01*
X147090500Y-115691435D01*
X147085024Y-115689456D01*
X147072278Y-115697966D01*
X147045063Y-115721493D01*
X147006428Y-115757032D01*
X146959423Y-115801577D01*
X146907095Y-115852123D01*
X146852495Y-115905664D01*
X146798670Y-115959195D01*
X146748670Y-116009711D01*
X146705543Y-116054206D01*
X146672339Y-116089675D01*
X146652106Y-116113113D01*
X146647278Y-116120954D01*
X146654067Y-116133720D01*
X146673142Y-116164256D01*
X146702561Y-116209590D01*
X146740381Y-116266756D01*
X146784661Y-116332784D01*
X146818395Y-116382590D01*
X146989512Y-116634236D01*
X146903041Y-116843999D01*
X146816570Y-117053763D01*
X146515018Y-117110611D01*
X146213466Y-117167460D01*
X146213466Y-117795115D01*
X146515018Y-117851964D01*
D12*
X177860000Y-90110000D02*
X177860000Y-92770000D01*
X149860000Y-90110000D02*
X177860000Y-90110000D01*
X149860000Y-92770000D02*
X177860000Y-92770000D01*
X149860000Y-90110000D02*
X149860000Y-92770000D01*
X148590000Y-90110000D02*
X147260000Y-90110000D01*
X147260000Y-90110000D02*
X147260000Y-91440000D01*
X147260000Y-121980000D02*
X147260000Y-119320000D01*
X175260000Y-121980000D02*
X147260000Y-121980000D01*
X175260000Y-119320000D02*
X147260000Y-119320000D01*
X175260000Y-121980000D02*
X175260000Y-119320000D01*
X176530000Y-121980000D02*
X177860000Y-121980000D01*
X177860000Y-121980000D02*
X177860000Y-120650000D01*
M02*
