G04 #@! TF.FileFunction,Copper,L2,Bot,Signal*
%FSLAX46Y46*%
G04 Gerber Fmt 4.6, Leading zero omitted, Abs format (unit mm)*
G04 Created by KiCad (PCBNEW 4.0.7-e2-6376~60~ubuntu17.10.1) date Tue Nov 21 13:17:33 2017*
%MOMM*%
%LPD*%
G01*
G04 APERTURE LIST*
%ADD10C,0.100000*%
%ADD11R,1.308000X1.308000*%
%ADD12C,1.308000*%
%ADD13R,1.700000X1.700000*%
%ADD14O,1.700000X1.700000*%
%ADD15C,0.600000*%
%ADD16C,0.250000*%
%ADD17C,0.254000*%
G04 APERTURE END LIST*
D10*
D11*
X147574000Y-99060000D03*
D12*
X147574000Y-101600000D03*
X147574000Y-104140000D03*
X147574000Y-106680000D03*
X147574000Y-109220000D03*
X177165000Y-99060000D03*
X177165000Y-101600000D03*
X177165000Y-104140000D03*
X177165000Y-106680000D03*
D13*
X148590000Y-91440000D03*
D14*
X151130000Y-91440000D03*
X153670000Y-91440000D03*
X156210000Y-91440000D03*
X158750000Y-91440000D03*
X161290000Y-91440000D03*
X163830000Y-91440000D03*
X166370000Y-91440000D03*
X168910000Y-91440000D03*
X171450000Y-91440000D03*
X173990000Y-91440000D03*
X176530000Y-91440000D03*
D13*
X176530000Y-120650000D03*
D14*
X173990000Y-120650000D03*
X171450000Y-120650000D03*
X168910000Y-120650000D03*
X166370000Y-120650000D03*
X163830000Y-120650000D03*
X161290000Y-120650000D03*
X158750000Y-120650000D03*
X156210000Y-120650000D03*
X153670000Y-120650000D03*
X151130000Y-120650000D03*
X148590000Y-120650000D03*
D15*
X163830000Y-115692700D03*
D16*
X151130000Y-98044000D02*
X147574000Y-101600000D01*
X151130000Y-91440000D02*
X151130000Y-98044000D01*
D17*
G36*
X179020000Y-91723736D02*
X179020000Y-120366264D01*
X178027440Y-121358824D01*
X178027440Y-119800000D01*
X177983162Y-119564683D01*
X177844090Y-119348559D01*
X177631890Y-119203569D01*
X177380000Y-119152560D01*
X175680000Y-119152560D01*
X175444683Y-119196838D01*
X175228559Y-119335910D01*
X175083569Y-119548110D01*
X175069914Y-119615541D01*
X175040054Y-119570853D01*
X174558285Y-119248946D01*
X173990000Y-119135907D01*
X173421715Y-119248946D01*
X172939946Y-119570853D01*
X172720000Y-119900026D01*
X172500054Y-119570853D01*
X172018285Y-119248946D01*
X171450000Y-119135907D01*
X170881715Y-119248946D01*
X170399946Y-119570853D01*
X170180000Y-119900026D01*
X169960054Y-119570853D01*
X169478285Y-119248946D01*
X168910000Y-119135907D01*
X168341715Y-119248946D01*
X167859946Y-119570853D01*
X167640000Y-119900026D01*
X167420054Y-119570853D01*
X166938285Y-119248946D01*
X166370000Y-119135907D01*
X165801715Y-119248946D01*
X165319946Y-119570853D01*
X165100000Y-119900026D01*
X164880054Y-119570853D01*
X164398285Y-119248946D01*
X163830000Y-119135907D01*
X163261715Y-119248946D01*
X162779946Y-119570853D01*
X162560000Y-119900026D01*
X162340054Y-119570853D01*
X161858285Y-119248946D01*
X161290000Y-119135907D01*
X160721715Y-119248946D01*
X160239946Y-119570853D01*
X160020000Y-119900026D01*
X159800054Y-119570853D01*
X159318285Y-119248946D01*
X158750000Y-119135907D01*
X158181715Y-119248946D01*
X157699946Y-119570853D01*
X157480000Y-119900026D01*
X157260054Y-119570853D01*
X156778285Y-119248946D01*
X156210000Y-119135907D01*
X155641715Y-119248946D01*
X155159946Y-119570853D01*
X154940000Y-119900026D01*
X154720054Y-119570853D01*
X154238285Y-119248946D01*
X153670000Y-119135907D01*
X153101715Y-119248946D01*
X152619946Y-119570853D01*
X152400000Y-119900026D01*
X152180054Y-119570853D01*
X151698285Y-119248946D01*
X151130000Y-119135907D01*
X150561715Y-119248946D01*
X150079946Y-119570853D01*
X149860000Y-119900026D01*
X149640054Y-119570853D01*
X149158285Y-119248946D01*
X148590000Y-119135907D01*
X148021715Y-119248946D01*
X147539946Y-119570853D01*
X147218039Y-120052622D01*
X147105000Y-120620907D01*
X147105000Y-120679093D01*
X147218039Y-121247378D01*
X147539946Y-121729147D01*
X148021715Y-122051054D01*
X148590000Y-122164093D01*
X149158285Y-122051054D01*
X149640054Y-121729147D01*
X149860000Y-121399974D01*
X150079946Y-121729147D01*
X150561715Y-122051054D01*
X151130000Y-122164093D01*
X151698285Y-122051054D01*
X152180054Y-121729147D01*
X152400000Y-121399974D01*
X152619946Y-121729147D01*
X153101715Y-122051054D01*
X153670000Y-122164093D01*
X154238285Y-122051054D01*
X154720054Y-121729147D01*
X154940000Y-121399974D01*
X155159946Y-121729147D01*
X155641715Y-122051054D01*
X156210000Y-122164093D01*
X156778285Y-122051054D01*
X157260054Y-121729147D01*
X157480000Y-121399974D01*
X157699946Y-121729147D01*
X158181715Y-122051054D01*
X158750000Y-122164093D01*
X159318285Y-122051054D01*
X159800054Y-121729147D01*
X160020000Y-121399974D01*
X160239946Y-121729147D01*
X160721715Y-122051054D01*
X161290000Y-122164093D01*
X161858285Y-122051054D01*
X162340054Y-121729147D01*
X162560000Y-121399974D01*
X162779946Y-121729147D01*
X163261715Y-122051054D01*
X163830000Y-122164093D01*
X164398285Y-122051054D01*
X164880054Y-121729147D01*
X165100000Y-121399974D01*
X165319946Y-121729147D01*
X165801715Y-122051054D01*
X166370000Y-122164093D01*
X166938285Y-122051054D01*
X167420054Y-121729147D01*
X167640000Y-121399974D01*
X167859946Y-121729147D01*
X168341715Y-122051054D01*
X168910000Y-122164093D01*
X169478285Y-122051054D01*
X169960054Y-121729147D01*
X170180000Y-121399974D01*
X170399946Y-121729147D01*
X170881715Y-122051054D01*
X171450000Y-122164093D01*
X172018285Y-122051054D01*
X172500054Y-121729147D01*
X172720000Y-121399974D01*
X172939946Y-121729147D01*
X173421715Y-122051054D01*
X173990000Y-122164093D01*
X174558285Y-122051054D01*
X175040054Y-121729147D01*
X175067850Y-121687548D01*
X175076838Y-121735317D01*
X175215910Y-121951441D01*
X175428110Y-122096431D01*
X175680000Y-122147440D01*
X177238824Y-122147440D01*
X176881264Y-122505000D01*
X148238736Y-122505000D01*
X146100000Y-120366264D01*
X146100000Y-91723736D01*
X147092560Y-90731176D01*
X147092560Y-92290000D01*
X147136838Y-92525317D01*
X147275910Y-92741441D01*
X147488110Y-92886431D01*
X147740000Y-92937440D01*
X149440000Y-92937440D01*
X149675317Y-92893162D01*
X149891441Y-92754090D01*
X150036431Y-92541890D01*
X150050086Y-92474459D01*
X150079946Y-92519147D01*
X150370000Y-92712954D01*
X150370000Y-97729198D01*
X148875440Y-99223758D01*
X148875440Y-98406000D01*
X148831162Y-98170683D01*
X148692090Y-97954559D01*
X148479890Y-97809569D01*
X148228000Y-97758560D01*
X146920000Y-97758560D01*
X146684683Y-97802838D01*
X146468559Y-97941910D01*
X146323569Y-98154110D01*
X146272560Y-98406000D01*
X146272560Y-99714000D01*
X146316838Y-99949317D01*
X146455910Y-100165441D01*
X146668110Y-100310431D01*
X146920000Y-100361440D01*
X147196113Y-100361440D01*
X146844794Y-100506602D01*
X146481876Y-100868887D01*
X146285224Y-101342477D01*
X146284777Y-101855273D01*
X146480602Y-102329206D01*
X146842887Y-102692124D01*
X147271730Y-102870196D01*
X146844794Y-103046602D01*
X146481876Y-103408887D01*
X146285224Y-103882477D01*
X146284777Y-104395273D01*
X146480602Y-104869206D01*
X146842887Y-105232124D01*
X147271730Y-105410196D01*
X146844794Y-105586602D01*
X146481876Y-105948887D01*
X146285224Y-106422477D01*
X146284777Y-106935273D01*
X146480602Y-107409206D01*
X146842887Y-107772124D01*
X147271730Y-107950196D01*
X146844794Y-108126602D01*
X146481876Y-108488887D01*
X146285224Y-108962477D01*
X146284777Y-109475273D01*
X146480602Y-109949206D01*
X146842887Y-110312124D01*
X147316477Y-110508776D01*
X147829273Y-110509223D01*
X148303206Y-110313398D01*
X148666124Y-109951113D01*
X148862776Y-109477523D01*
X148863223Y-108964727D01*
X148667398Y-108490794D01*
X148305113Y-108127876D01*
X147876270Y-107949804D01*
X148303206Y-107773398D01*
X148666124Y-107411113D01*
X148862776Y-106937523D01*
X148863223Y-106424727D01*
X148667398Y-105950794D01*
X148305113Y-105587876D01*
X147876270Y-105409804D01*
X148303206Y-105233398D01*
X148666124Y-104871113D01*
X148862776Y-104397523D01*
X148863223Y-103884727D01*
X148667398Y-103410794D01*
X148305113Y-103047876D01*
X147876270Y-102869804D01*
X148303206Y-102693398D01*
X148666124Y-102331113D01*
X148862776Y-101857523D01*
X148863187Y-101385615D01*
X150933529Y-99315273D01*
X175875777Y-99315273D01*
X176071602Y-99789206D01*
X176433887Y-100152124D01*
X176862730Y-100330196D01*
X176435794Y-100506602D01*
X176072876Y-100868887D01*
X175876224Y-101342477D01*
X175875777Y-101855273D01*
X176071602Y-102329206D01*
X176433887Y-102692124D01*
X176862730Y-102870196D01*
X176435794Y-103046602D01*
X176072876Y-103408887D01*
X175876224Y-103882477D01*
X175875777Y-104395273D01*
X176071602Y-104869206D01*
X176433887Y-105232124D01*
X176862730Y-105410196D01*
X176435794Y-105586602D01*
X176072876Y-105948887D01*
X175876224Y-106422477D01*
X175875777Y-106935273D01*
X176071602Y-107409206D01*
X176433887Y-107772124D01*
X176907477Y-107968776D01*
X177420273Y-107969223D01*
X177894206Y-107773398D01*
X178257124Y-107411113D01*
X178453776Y-106937523D01*
X178454223Y-106424727D01*
X178258398Y-105950794D01*
X177896113Y-105587876D01*
X177467270Y-105409804D01*
X177894206Y-105233398D01*
X178257124Y-104871113D01*
X178453776Y-104397523D01*
X178454223Y-103884727D01*
X178258398Y-103410794D01*
X177896113Y-103047876D01*
X177467270Y-102869804D01*
X177894206Y-102693398D01*
X178257124Y-102331113D01*
X178453776Y-101857523D01*
X178454223Y-101344727D01*
X178258398Y-100870794D01*
X177896113Y-100507876D01*
X177467270Y-100329804D01*
X177894206Y-100153398D01*
X178257124Y-99791113D01*
X178453776Y-99317523D01*
X178454223Y-98804727D01*
X178258398Y-98330794D01*
X177896113Y-97967876D01*
X177422523Y-97771224D01*
X176909727Y-97770777D01*
X176435794Y-97966602D01*
X176072876Y-98328887D01*
X175876224Y-98802477D01*
X175875777Y-99315273D01*
X150933529Y-99315273D01*
X151667401Y-98581401D01*
X151832148Y-98334840D01*
X151841746Y-98286586D01*
X151890000Y-98044000D01*
X151890000Y-92712954D01*
X152180054Y-92519147D01*
X152400000Y-92189974D01*
X152619946Y-92519147D01*
X153101715Y-92841054D01*
X153670000Y-92954093D01*
X154238285Y-92841054D01*
X154720054Y-92519147D01*
X154940000Y-92189974D01*
X155159946Y-92519147D01*
X155641715Y-92841054D01*
X156210000Y-92954093D01*
X156778285Y-92841054D01*
X157260054Y-92519147D01*
X157480000Y-92189974D01*
X157699946Y-92519147D01*
X158181715Y-92841054D01*
X158750000Y-92954093D01*
X159318285Y-92841054D01*
X159800054Y-92519147D01*
X160020000Y-92189974D01*
X160239946Y-92519147D01*
X160721715Y-92841054D01*
X161290000Y-92954093D01*
X161858285Y-92841054D01*
X162340054Y-92519147D01*
X162560000Y-92189974D01*
X162779946Y-92519147D01*
X163261715Y-92841054D01*
X163830000Y-92954093D01*
X164398285Y-92841054D01*
X164880054Y-92519147D01*
X165100000Y-92189974D01*
X165319946Y-92519147D01*
X165801715Y-92841054D01*
X166370000Y-92954093D01*
X166938285Y-92841054D01*
X167420054Y-92519147D01*
X167640000Y-92189974D01*
X167859946Y-92519147D01*
X168341715Y-92841054D01*
X168910000Y-92954093D01*
X169478285Y-92841054D01*
X169960054Y-92519147D01*
X170180000Y-92189974D01*
X170399946Y-92519147D01*
X170881715Y-92841054D01*
X171450000Y-92954093D01*
X172018285Y-92841054D01*
X172500054Y-92519147D01*
X172720000Y-92189974D01*
X172939946Y-92519147D01*
X173421715Y-92841054D01*
X173990000Y-92954093D01*
X174558285Y-92841054D01*
X175040054Y-92519147D01*
X175260000Y-92189974D01*
X175479946Y-92519147D01*
X175961715Y-92841054D01*
X176530000Y-92954093D01*
X177098285Y-92841054D01*
X177580054Y-92519147D01*
X177901961Y-92037378D01*
X178015000Y-91469093D01*
X178015000Y-91410907D01*
X177901961Y-90842622D01*
X177580054Y-90360853D01*
X177098285Y-90038946D01*
X176530000Y-89925907D01*
X175961715Y-90038946D01*
X175479946Y-90360853D01*
X175260000Y-90690026D01*
X175040054Y-90360853D01*
X174558285Y-90038946D01*
X173990000Y-89925907D01*
X173421715Y-90038946D01*
X172939946Y-90360853D01*
X172720000Y-90690026D01*
X172500054Y-90360853D01*
X172018285Y-90038946D01*
X171450000Y-89925907D01*
X170881715Y-90038946D01*
X170399946Y-90360853D01*
X170180000Y-90690026D01*
X169960054Y-90360853D01*
X169478285Y-90038946D01*
X168910000Y-89925907D01*
X168341715Y-90038946D01*
X167859946Y-90360853D01*
X167640000Y-90690026D01*
X167420054Y-90360853D01*
X166938285Y-90038946D01*
X166370000Y-89925907D01*
X165801715Y-90038946D01*
X165319946Y-90360853D01*
X165100000Y-90690026D01*
X164880054Y-90360853D01*
X164398285Y-90038946D01*
X163830000Y-89925907D01*
X163261715Y-90038946D01*
X162779946Y-90360853D01*
X162560000Y-90690026D01*
X162340054Y-90360853D01*
X161858285Y-90038946D01*
X161290000Y-89925907D01*
X160721715Y-90038946D01*
X160239946Y-90360853D01*
X160020000Y-90690026D01*
X159800054Y-90360853D01*
X159318285Y-90038946D01*
X158750000Y-89925907D01*
X158181715Y-90038946D01*
X157699946Y-90360853D01*
X157480000Y-90690026D01*
X157260054Y-90360853D01*
X156778285Y-90038946D01*
X156210000Y-89925907D01*
X155641715Y-90038946D01*
X155159946Y-90360853D01*
X154940000Y-90690026D01*
X154720054Y-90360853D01*
X154238285Y-90038946D01*
X153670000Y-89925907D01*
X153101715Y-90038946D01*
X152619946Y-90360853D01*
X152400000Y-90690026D01*
X152180054Y-90360853D01*
X151698285Y-90038946D01*
X151130000Y-89925907D01*
X150561715Y-90038946D01*
X150079946Y-90360853D01*
X150052150Y-90402452D01*
X150043162Y-90354683D01*
X149904090Y-90138559D01*
X149691890Y-89993569D01*
X149440000Y-89942560D01*
X147881176Y-89942560D01*
X148238736Y-89585000D01*
X176881264Y-89585000D01*
X179020000Y-91723736D01*
X179020000Y-91723736D01*
G37*
X179020000Y-91723736D02*
X179020000Y-120366264D01*
X178027440Y-121358824D01*
X178027440Y-119800000D01*
X177983162Y-119564683D01*
X177844090Y-119348559D01*
X177631890Y-119203569D01*
X177380000Y-119152560D01*
X175680000Y-119152560D01*
X175444683Y-119196838D01*
X175228559Y-119335910D01*
X175083569Y-119548110D01*
X175069914Y-119615541D01*
X175040054Y-119570853D01*
X174558285Y-119248946D01*
X173990000Y-119135907D01*
X173421715Y-119248946D01*
X172939946Y-119570853D01*
X172720000Y-119900026D01*
X172500054Y-119570853D01*
X172018285Y-119248946D01*
X171450000Y-119135907D01*
X170881715Y-119248946D01*
X170399946Y-119570853D01*
X170180000Y-119900026D01*
X169960054Y-119570853D01*
X169478285Y-119248946D01*
X168910000Y-119135907D01*
X168341715Y-119248946D01*
X167859946Y-119570853D01*
X167640000Y-119900026D01*
X167420054Y-119570853D01*
X166938285Y-119248946D01*
X166370000Y-119135907D01*
X165801715Y-119248946D01*
X165319946Y-119570853D01*
X165100000Y-119900026D01*
X164880054Y-119570853D01*
X164398285Y-119248946D01*
X163830000Y-119135907D01*
X163261715Y-119248946D01*
X162779946Y-119570853D01*
X162560000Y-119900026D01*
X162340054Y-119570853D01*
X161858285Y-119248946D01*
X161290000Y-119135907D01*
X160721715Y-119248946D01*
X160239946Y-119570853D01*
X160020000Y-119900026D01*
X159800054Y-119570853D01*
X159318285Y-119248946D01*
X158750000Y-119135907D01*
X158181715Y-119248946D01*
X157699946Y-119570853D01*
X157480000Y-119900026D01*
X157260054Y-119570853D01*
X156778285Y-119248946D01*
X156210000Y-119135907D01*
X155641715Y-119248946D01*
X155159946Y-119570853D01*
X154940000Y-119900026D01*
X154720054Y-119570853D01*
X154238285Y-119248946D01*
X153670000Y-119135907D01*
X153101715Y-119248946D01*
X152619946Y-119570853D01*
X152400000Y-119900026D01*
X152180054Y-119570853D01*
X151698285Y-119248946D01*
X151130000Y-119135907D01*
X150561715Y-119248946D01*
X150079946Y-119570853D01*
X149860000Y-119900026D01*
X149640054Y-119570853D01*
X149158285Y-119248946D01*
X148590000Y-119135907D01*
X148021715Y-119248946D01*
X147539946Y-119570853D01*
X147218039Y-120052622D01*
X147105000Y-120620907D01*
X147105000Y-120679093D01*
X147218039Y-121247378D01*
X147539946Y-121729147D01*
X148021715Y-122051054D01*
X148590000Y-122164093D01*
X149158285Y-122051054D01*
X149640054Y-121729147D01*
X149860000Y-121399974D01*
X150079946Y-121729147D01*
X150561715Y-122051054D01*
X151130000Y-122164093D01*
X151698285Y-122051054D01*
X152180054Y-121729147D01*
X152400000Y-121399974D01*
X152619946Y-121729147D01*
X153101715Y-122051054D01*
X153670000Y-122164093D01*
X154238285Y-122051054D01*
X154720054Y-121729147D01*
X154940000Y-121399974D01*
X155159946Y-121729147D01*
X155641715Y-122051054D01*
X156210000Y-122164093D01*
X156778285Y-122051054D01*
X157260054Y-121729147D01*
X157480000Y-121399974D01*
X157699946Y-121729147D01*
X158181715Y-122051054D01*
X158750000Y-122164093D01*
X159318285Y-122051054D01*
X159800054Y-121729147D01*
X160020000Y-121399974D01*
X160239946Y-121729147D01*
X160721715Y-122051054D01*
X161290000Y-122164093D01*
X161858285Y-122051054D01*
X162340054Y-121729147D01*
X162560000Y-121399974D01*
X162779946Y-121729147D01*
X163261715Y-122051054D01*
X163830000Y-122164093D01*
X164398285Y-122051054D01*
X164880054Y-121729147D01*
X165100000Y-121399974D01*
X165319946Y-121729147D01*
X165801715Y-122051054D01*
X166370000Y-122164093D01*
X166938285Y-122051054D01*
X167420054Y-121729147D01*
X167640000Y-121399974D01*
X167859946Y-121729147D01*
X168341715Y-122051054D01*
X168910000Y-122164093D01*
X169478285Y-122051054D01*
X169960054Y-121729147D01*
X170180000Y-121399974D01*
X170399946Y-121729147D01*
X170881715Y-122051054D01*
X171450000Y-122164093D01*
X172018285Y-122051054D01*
X172500054Y-121729147D01*
X172720000Y-121399974D01*
X172939946Y-121729147D01*
X173421715Y-122051054D01*
X173990000Y-122164093D01*
X174558285Y-122051054D01*
X175040054Y-121729147D01*
X175067850Y-121687548D01*
X175076838Y-121735317D01*
X175215910Y-121951441D01*
X175428110Y-122096431D01*
X175680000Y-122147440D01*
X177238824Y-122147440D01*
X176881264Y-122505000D01*
X148238736Y-122505000D01*
X146100000Y-120366264D01*
X146100000Y-91723736D01*
X147092560Y-90731176D01*
X147092560Y-92290000D01*
X147136838Y-92525317D01*
X147275910Y-92741441D01*
X147488110Y-92886431D01*
X147740000Y-92937440D01*
X149440000Y-92937440D01*
X149675317Y-92893162D01*
X149891441Y-92754090D01*
X150036431Y-92541890D01*
X150050086Y-92474459D01*
X150079946Y-92519147D01*
X150370000Y-92712954D01*
X150370000Y-97729198D01*
X148875440Y-99223758D01*
X148875440Y-98406000D01*
X148831162Y-98170683D01*
X148692090Y-97954559D01*
X148479890Y-97809569D01*
X148228000Y-97758560D01*
X146920000Y-97758560D01*
X146684683Y-97802838D01*
X146468559Y-97941910D01*
X146323569Y-98154110D01*
X146272560Y-98406000D01*
X146272560Y-99714000D01*
X146316838Y-99949317D01*
X146455910Y-100165441D01*
X146668110Y-100310431D01*
X146920000Y-100361440D01*
X147196113Y-100361440D01*
X146844794Y-100506602D01*
X146481876Y-100868887D01*
X146285224Y-101342477D01*
X146284777Y-101855273D01*
X146480602Y-102329206D01*
X146842887Y-102692124D01*
X147271730Y-102870196D01*
X146844794Y-103046602D01*
X146481876Y-103408887D01*
X146285224Y-103882477D01*
X146284777Y-104395273D01*
X146480602Y-104869206D01*
X146842887Y-105232124D01*
X147271730Y-105410196D01*
X146844794Y-105586602D01*
X146481876Y-105948887D01*
X146285224Y-106422477D01*
X146284777Y-106935273D01*
X146480602Y-107409206D01*
X146842887Y-107772124D01*
X147271730Y-107950196D01*
X146844794Y-108126602D01*
X146481876Y-108488887D01*
X146285224Y-108962477D01*
X146284777Y-109475273D01*
X146480602Y-109949206D01*
X146842887Y-110312124D01*
X147316477Y-110508776D01*
X147829273Y-110509223D01*
X148303206Y-110313398D01*
X148666124Y-109951113D01*
X148862776Y-109477523D01*
X148863223Y-108964727D01*
X148667398Y-108490794D01*
X148305113Y-108127876D01*
X147876270Y-107949804D01*
X148303206Y-107773398D01*
X148666124Y-107411113D01*
X148862776Y-106937523D01*
X148863223Y-106424727D01*
X148667398Y-105950794D01*
X148305113Y-105587876D01*
X147876270Y-105409804D01*
X148303206Y-105233398D01*
X148666124Y-104871113D01*
X148862776Y-104397523D01*
X148863223Y-103884727D01*
X148667398Y-103410794D01*
X148305113Y-103047876D01*
X147876270Y-102869804D01*
X148303206Y-102693398D01*
X148666124Y-102331113D01*
X148862776Y-101857523D01*
X148863187Y-101385615D01*
X150933529Y-99315273D01*
X175875777Y-99315273D01*
X176071602Y-99789206D01*
X176433887Y-100152124D01*
X176862730Y-100330196D01*
X176435794Y-100506602D01*
X176072876Y-100868887D01*
X175876224Y-101342477D01*
X175875777Y-101855273D01*
X176071602Y-102329206D01*
X176433887Y-102692124D01*
X176862730Y-102870196D01*
X176435794Y-103046602D01*
X176072876Y-103408887D01*
X175876224Y-103882477D01*
X175875777Y-104395273D01*
X176071602Y-104869206D01*
X176433887Y-105232124D01*
X176862730Y-105410196D01*
X176435794Y-105586602D01*
X176072876Y-105948887D01*
X175876224Y-106422477D01*
X175875777Y-106935273D01*
X176071602Y-107409206D01*
X176433887Y-107772124D01*
X176907477Y-107968776D01*
X177420273Y-107969223D01*
X177894206Y-107773398D01*
X178257124Y-107411113D01*
X178453776Y-106937523D01*
X178454223Y-106424727D01*
X178258398Y-105950794D01*
X177896113Y-105587876D01*
X177467270Y-105409804D01*
X177894206Y-105233398D01*
X178257124Y-104871113D01*
X178453776Y-104397523D01*
X178454223Y-103884727D01*
X178258398Y-103410794D01*
X177896113Y-103047876D01*
X177467270Y-102869804D01*
X177894206Y-102693398D01*
X178257124Y-102331113D01*
X178453776Y-101857523D01*
X178454223Y-101344727D01*
X178258398Y-100870794D01*
X177896113Y-100507876D01*
X177467270Y-100329804D01*
X177894206Y-100153398D01*
X178257124Y-99791113D01*
X178453776Y-99317523D01*
X178454223Y-98804727D01*
X178258398Y-98330794D01*
X177896113Y-97967876D01*
X177422523Y-97771224D01*
X176909727Y-97770777D01*
X176435794Y-97966602D01*
X176072876Y-98328887D01*
X175876224Y-98802477D01*
X175875777Y-99315273D01*
X150933529Y-99315273D01*
X151667401Y-98581401D01*
X151832148Y-98334840D01*
X151841746Y-98286586D01*
X151890000Y-98044000D01*
X151890000Y-92712954D01*
X152180054Y-92519147D01*
X152400000Y-92189974D01*
X152619946Y-92519147D01*
X153101715Y-92841054D01*
X153670000Y-92954093D01*
X154238285Y-92841054D01*
X154720054Y-92519147D01*
X154940000Y-92189974D01*
X155159946Y-92519147D01*
X155641715Y-92841054D01*
X156210000Y-92954093D01*
X156778285Y-92841054D01*
X157260054Y-92519147D01*
X157480000Y-92189974D01*
X157699946Y-92519147D01*
X158181715Y-92841054D01*
X158750000Y-92954093D01*
X159318285Y-92841054D01*
X159800054Y-92519147D01*
X160020000Y-92189974D01*
X160239946Y-92519147D01*
X160721715Y-92841054D01*
X161290000Y-92954093D01*
X161858285Y-92841054D01*
X162340054Y-92519147D01*
X162560000Y-92189974D01*
X162779946Y-92519147D01*
X163261715Y-92841054D01*
X163830000Y-92954093D01*
X164398285Y-92841054D01*
X164880054Y-92519147D01*
X165100000Y-92189974D01*
X165319946Y-92519147D01*
X165801715Y-92841054D01*
X166370000Y-92954093D01*
X166938285Y-92841054D01*
X167420054Y-92519147D01*
X167640000Y-92189974D01*
X167859946Y-92519147D01*
X168341715Y-92841054D01*
X168910000Y-92954093D01*
X169478285Y-92841054D01*
X169960054Y-92519147D01*
X170180000Y-92189974D01*
X170399946Y-92519147D01*
X170881715Y-92841054D01*
X171450000Y-92954093D01*
X172018285Y-92841054D01*
X172500054Y-92519147D01*
X172720000Y-92189974D01*
X172939946Y-92519147D01*
X173421715Y-92841054D01*
X173990000Y-92954093D01*
X174558285Y-92841054D01*
X175040054Y-92519147D01*
X175260000Y-92189974D01*
X175479946Y-92519147D01*
X175961715Y-92841054D01*
X176530000Y-92954093D01*
X177098285Y-92841054D01*
X177580054Y-92519147D01*
X177901961Y-92037378D01*
X178015000Y-91469093D01*
X178015000Y-91410907D01*
X177901961Y-90842622D01*
X177580054Y-90360853D01*
X177098285Y-90038946D01*
X176530000Y-89925907D01*
X175961715Y-90038946D01*
X175479946Y-90360853D01*
X175260000Y-90690026D01*
X175040054Y-90360853D01*
X174558285Y-90038946D01*
X173990000Y-89925907D01*
X173421715Y-90038946D01*
X172939946Y-90360853D01*
X172720000Y-90690026D01*
X172500054Y-90360853D01*
X172018285Y-90038946D01*
X171450000Y-89925907D01*
X170881715Y-90038946D01*
X170399946Y-90360853D01*
X170180000Y-90690026D01*
X169960054Y-90360853D01*
X169478285Y-90038946D01*
X168910000Y-89925907D01*
X168341715Y-90038946D01*
X167859946Y-90360853D01*
X167640000Y-90690026D01*
X167420054Y-90360853D01*
X166938285Y-90038946D01*
X166370000Y-89925907D01*
X165801715Y-90038946D01*
X165319946Y-90360853D01*
X165100000Y-90690026D01*
X164880054Y-90360853D01*
X164398285Y-90038946D01*
X163830000Y-89925907D01*
X163261715Y-90038946D01*
X162779946Y-90360853D01*
X162560000Y-90690026D01*
X162340054Y-90360853D01*
X161858285Y-90038946D01*
X161290000Y-89925907D01*
X160721715Y-90038946D01*
X160239946Y-90360853D01*
X160020000Y-90690026D01*
X159800054Y-90360853D01*
X159318285Y-90038946D01*
X158750000Y-89925907D01*
X158181715Y-90038946D01*
X157699946Y-90360853D01*
X157480000Y-90690026D01*
X157260054Y-90360853D01*
X156778285Y-90038946D01*
X156210000Y-89925907D01*
X155641715Y-90038946D01*
X155159946Y-90360853D01*
X154940000Y-90690026D01*
X154720054Y-90360853D01*
X154238285Y-90038946D01*
X153670000Y-89925907D01*
X153101715Y-90038946D01*
X152619946Y-90360853D01*
X152400000Y-90690026D01*
X152180054Y-90360853D01*
X151698285Y-90038946D01*
X151130000Y-89925907D01*
X150561715Y-90038946D01*
X150079946Y-90360853D01*
X150052150Y-90402452D01*
X150043162Y-90354683D01*
X149904090Y-90138559D01*
X149691890Y-89993569D01*
X149440000Y-89942560D01*
X147881176Y-89942560D01*
X148238736Y-89585000D01*
X176881264Y-89585000D01*
X179020000Y-91723736D01*
M02*
