G04 #@! TF.FileFunction,Soldermask,Top*
%FSLAX46Y46*%
G04 Gerber Fmt 4.6, Leading zero omitted, Abs format (unit mm)*
G04 Created by KiCad (PCBNEW 4.0.7-e2-6376~60~ubuntu17.10.1) date Tue Nov 21 13:17:33 2017*
%MOMM*%
%LPD*%
G01*
G04 APERTURE LIST*
%ADD10C,0.100000*%
%ADD11R,1.308000X1.308000*%
%ADD12C,1.308000*%
%ADD13R,0.970000X1.270000*%
%ADD14R,1.900000X0.800000*%
%ADD15R,1.700000X1.700000*%
%ADD16O,1.700000X1.700000*%
G04 APERTURE END LIST*
D10*
D11*
X147574000Y-99060000D03*
D12*
X147574000Y-101600000D03*
X147574000Y-104140000D03*
X147574000Y-106680000D03*
X147574000Y-109220000D03*
X177165000Y-99060000D03*
X177165000Y-101600000D03*
X177165000Y-104140000D03*
X177165000Y-106680000D03*
D13*
X168910000Y-116840000D03*
X170180000Y-116840000D03*
X171450000Y-116840000D03*
X165100000Y-116840000D03*
X163830000Y-116840000D03*
X162560000Y-116840000D03*
D14*
X178030000Y-117155000D03*
X178030000Y-115255000D03*
X175030000Y-116205000D03*
D15*
X148590000Y-91440000D03*
D16*
X151130000Y-91440000D03*
X153670000Y-91440000D03*
X156210000Y-91440000D03*
X158750000Y-91440000D03*
X161290000Y-91440000D03*
X163830000Y-91440000D03*
X166370000Y-91440000D03*
X168910000Y-91440000D03*
X171450000Y-91440000D03*
X173990000Y-91440000D03*
X176530000Y-91440000D03*
D15*
X176530000Y-120650000D03*
D16*
X173990000Y-120650000D03*
X171450000Y-120650000D03*
X168910000Y-120650000D03*
X166370000Y-120650000D03*
X163830000Y-120650000D03*
X161290000Y-120650000D03*
X158750000Y-120650000D03*
X156210000Y-120650000D03*
X153670000Y-120650000D03*
X151130000Y-120650000D03*
X148590000Y-120650000D03*
M02*
