M48
INCH,TZ
T1C0.016
T2C0.031
T3C0.039
%
G90
G05
T1
X66500Y-37000
T2
X57500Y-41750
X57500Y-42750
X57500Y-43750
X57500Y-44750
X69150Y-40750
X69150Y-41750
X69150Y-42750
X69150Y-43750
X69150Y-44750
T3
X62500Y-36000
X62500Y-47500
X63500Y-36000
X63500Y-47500
X64500Y-36000
X64500Y-47500
X65500Y-36000
X65500Y-47500
X66500Y-36000
X66500Y-47500
X67500Y-36000
X67500Y-47500
X68500Y-36000
X68500Y-47500
X69500Y-36000
X69500Y-47500
X70750Y-37750
X70750Y-38750
X70750Y-39750
X70750Y-40750
X70750Y-41750
X70750Y-42750
X70750Y-43750
X70750Y-44750
X70750Y-45750
T0
M30
