M48
INCH,TZ
T1C0.016
T2C0.031
T3C0.039
%
G90
G05
T1
X64500Y-45548
T2
X58100Y-39000
X58100Y-40000
X58100Y-41000
X58100Y-42000
X58100Y-43000
X69750Y-39000
X69750Y-40000
X69750Y-41000
X69750Y-42000
T3
X58500Y-36000
X58500Y-47500
X59500Y-36000
X59500Y-47500
X60500Y-36000
X60500Y-47500
X61500Y-36000
X61500Y-47500
X62500Y-36000
X62500Y-47500
X63500Y-36000
X63500Y-47500
X64500Y-36000
X64500Y-47500
X65500Y-36000
X65500Y-47500
X66500Y-36000
X66500Y-47500
X67500Y-36000
X67500Y-47500
X68500Y-36000
X68500Y-47500
X69500Y-36000
X69500Y-47500
T0
M30
