G04 #@! TF.FileFunction,Copper,L2,Bot,Signal*
%FSLAX46Y46*%
G04 Gerber Fmt 4.6, Leading zero omitted, Abs format (unit mm)*
G04 Created by KiCad (PCBNEW 4.0.7-e2-6376~58~ubuntu17.04.1) date Tue Oct  3 10:22:26 2017*
%MOMM*%
%LPD*%
G01*
G04 APERTURE LIST*
%ADD10C,0.100000*%
%ADD11R,1.700000X1.700000*%
%ADD12O,1.700000X1.700000*%
%ADD13R,1.750000X1.750000*%
%ADD14C,1.750000*%
%ADD15C,0.600000*%
%ADD16C,0.250000*%
G04 APERTURE END LIST*
D10*
D11*
X158750000Y-120650000D03*
D12*
X161290000Y-120650000D03*
X163830000Y-120650000D03*
X166370000Y-120650000D03*
X168910000Y-120650000D03*
X171450000Y-120650000D03*
X173990000Y-120650000D03*
X176530000Y-120650000D03*
D11*
X158750000Y-91440000D03*
D12*
X161290000Y-91440000D03*
X163830000Y-91440000D03*
X166370000Y-91440000D03*
X168910000Y-91440000D03*
X171450000Y-91440000D03*
X173990000Y-91440000D03*
X176530000Y-91440000D03*
D13*
X158750000Y-100330000D03*
D14*
X161250000Y-100330000D03*
X163750000Y-100330000D03*
X166250000Y-100330000D03*
D13*
X158750000Y-108585000D03*
D14*
X161250000Y-108585000D03*
X163750000Y-108585000D03*
X166250000Y-108585000D03*
D15*
X173035000Y-107315000D03*
X173355000Y-110490000D03*
X173355000Y-100965000D03*
X173355000Y-102870000D03*
X165735000Y-93980000D03*
X168910000Y-94615000D03*
X169250200Y-101100700D03*
D16*
X173355000Y-107635000D02*
X173355000Y-110490000D01*
X173035000Y-107315000D02*
X173355000Y-107635000D01*
X173355000Y-102870000D02*
X173355000Y-100965000D01*
X165735000Y-93980000D02*
X165735000Y-95885000D01*
X163750000Y-97870000D02*
X163750000Y-100330000D01*
X165735000Y-95885000D02*
X163750000Y-97870000D01*
X168275000Y-93980000D02*
X165735000Y-93980000D01*
X168910000Y-94615000D02*
X168275000Y-93980000D01*
X168820500Y-101530400D02*
X169250200Y-101100700D01*
X162450400Y-101530400D02*
X168820500Y-101530400D01*
X161250000Y-100330000D02*
X162450400Y-101530400D01*
X163830000Y-91440000D02*
X162654700Y-91440000D01*
X161290000Y-91440000D02*
X162654700Y-91440000D01*
M02*
