G04 #@! TF.FileFunction,Copper,L2,Bot,Signal*
%FSLAX46Y46*%
G04 Gerber Fmt 4.6, Leading zero omitted, Abs format (unit mm)*
G04 Created by KiCad (PCBNEW 4.0.7-e1-6374~58~ubuntu16.04.1) date Wed Aug  2 11:39:31 2017*
%MOMM*%
%LPD*%
G01*
G04 APERTURE LIST*
%ADD10C,0.100000*%
%ADD11R,1.750000X1.750000*%
%ADD12C,1.750000*%
%ADD13R,1.700000X1.700000*%
%ADD14O,1.700000X1.700000*%
%ADD15C,0.600000*%
%ADD16C,0.250000*%
G04 APERTURE END LIST*
D10*
D11*
X156845000Y-114300000D03*
D12*
X154345000Y-114300000D03*
X151845000Y-114300000D03*
X149345000Y-114300000D03*
D11*
X156845000Y-123190000D03*
D12*
X154345000Y-123190000D03*
X151845000Y-123190000D03*
X149345000Y-123190000D03*
D13*
X149225000Y-132715000D03*
D14*
X151765000Y-132715000D03*
X154305000Y-132715000D03*
X156845000Y-132715000D03*
X159385000Y-132715000D03*
X161925000Y-132715000D03*
X164465000Y-132715000D03*
D13*
X149225000Y-105410000D03*
D14*
X151765000Y-105410000D03*
X154305000Y-105410000D03*
X156845000Y-105410000D03*
X159385000Y-105410000D03*
X161925000Y-105410000D03*
X164465000Y-105410000D03*
D15*
X150495000Y-110383800D03*
X159106400Y-109522700D03*
D16*
X154345000Y-114233800D02*
X154345000Y-114300000D01*
X150495000Y-110383800D02*
X154345000Y-114233800D01*
X154305000Y-132715000D02*
X154305000Y-131539700D01*
X159318200Y-109734500D02*
X159106400Y-109522700D01*
X159318200Y-126526500D02*
X159318200Y-109734500D01*
X154305000Y-131539700D02*
X159318200Y-126526500D01*
X154305000Y-105410000D02*
X151765000Y-105410000D01*
X159385000Y-105410000D02*
X156845000Y-105410000D01*
M02*
