G04 #@! TF.FileFunction,Legend,Top*
%FSLAX46Y46*%
G04 Gerber Fmt 4.6, Leading zero omitted, Abs format (unit mm)*
G04 Created by KiCad (PCBNEW 4.0.7-e1-6374~58~ubuntu16.04.1) date Wed Aug  2 11:39:31 2017*
%MOMM*%
%LPD*%
G01*
G04 APERTURE LIST*
%ADD10C,0.100000*%
%ADD11C,0.120000*%
%ADD12C,0.150000*%
G04 APERTURE END LIST*
D10*
X148410714Y-107272143D02*
X148496428Y-107300714D01*
X148525000Y-107329286D01*
X148553571Y-107386429D01*
X148553571Y-107472143D01*
X148525000Y-107529286D01*
X148496428Y-107557857D01*
X148439286Y-107586429D01*
X148210714Y-107586429D01*
X148210714Y-106986429D01*
X148410714Y-106986429D01*
X148467857Y-107015000D01*
X148496428Y-107043571D01*
X148525000Y-107100714D01*
X148525000Y-107157857D01*
X148496428Y-107215000D01*
X148467857Y-107243571D01*
X148410714Y-107272143D01*
X148210714Y-107272143D01*
X148782143Y-107415000D02*
X149067857Y-107415000D01*
X148725000Y-107586429D02*
X148925000Y-106986429D01*
X149125000Y-107586429D01*
X149239286Y-106986429D02*
X149582143Y-106986429D01*
X149410714Y-107586429D02*
X149410714Y-106986429D01*
X149782143Y-107357857D02*
X150239286Y-107357857D01*
X150010715Y-107586429D02*
X150010715Y-107129286D01*
X152149285Y-106986429D02*
X152520714Y-106986429D01*
X152320714Y-107215000D01*
X152406428Y-107215000D01*
X152463571Y-107243571D01*
X152492142Y-107272143D01*
X152520714Y-107329286D01*
X152520714Y-107472143D01*
X152492142Y-107529286D01*
X152463571Y-107557857D01*
X152406428Y-107586429D01*
X152235000Y-107586429D01*
X152177857Y-107557857D01*
X152149285Y-107529286D01*
X152777857Y-107529286D02*
X152806429Y-107557857D01*
X152777857Y-107586429D01*
X152749286Y-107557857D01*
X152777857Y-107529286D01*
X152777857Y-107586429D01*
X153006428Y-106986429D02*
X153377857Y-106986429D01*
X153177857Y-107215000D01*
X153263571Y-107215000D01*
X153320714Y-107243571D01*
X153349285Y-107272143D01*
X153377857Y-107329286D01*
X153377857Y-107472143D01*
X153349285Y-107529286D01*
X153320714Y-107557857D01*
X153263571Y-107586429D01*
X153092143Y-107586429D01*
X153035000Y-107557857D01*
X153006428Y-107529286D01*
X153549286Y-106986429D02*
X153749286Y-107586429D01*
X153949286Y-106986429D01*
X157657858Y-107015000D02*
X157600715Y-106986429D01*
X157515001Y-106986429D01*
X157429286Y-107015000D01*
X157372144Y-107072143D01*
X157343572Y-107129286D01*
X157315001Y-107243571D01*
X157315001Y-107329286D01*
X157343572Y-107443571D01*
X157372144Y-107500714D01*
X157429286Y-107557857D01*
X157515001Y-107586429D01*
X157572144Y-107586429D01*
X157657858Y-107557857D01*
X157686429Y-107529286D01*
X157686429Y-107329286D01*
X157572144Y-107329286D01*
X157943572Y-107586429D02*
X157943572Y-106986429D01*
X158286429Y-107586429D01*
X158286429Y-106986429D01*
X158572143Y-107586429D02*
X158572143Y-106986429D01*
X158715000Y-106986429D01*
X158800715Y-107015000D01*
X158857857Y-107072143D01*
X158886429Y-107129286D01*
X158915000Y-107243571D01*
X158915000Y-107329286D01*
X158886429Y-107443571D01*
X158857857Y-107500714D01*
X158800715Y-107557857D01*
X158715000Y-107586429D01*
X158572143Y-107586429D01*
X162025000Y-107743571D02*
X162025000Y-107457857D01*
X162196429Y-107800714D02*
X161596429Y-107600714D01*
X162196429Y-107400714D01*
X161796429Y-106943571D02*
X162196429Y-106943571D01*
X161567857Y-107086428D02*
X161996429Y-107229285D01*
X161996429Y-106857857D01*
X164565000Y-107743571D02*
X164565000Y-107457857D01*
X164736429Y-107800714D02*
X164136429Y-107600714D01*
X164736429Y-107400714D01*
X164136429Y-106915000D02*
X164136429Y-107200714D01*
X164422143Y-107229285D01*
X164393571Y-107200714D01*
X164365000Y-107143571D01*
X164365000Y-107000714D01*
X164393571Y-106943571D01*
X164422143Y-106915000D01*
X164479286Y-106886428D01*
X164622143Y-106886428D01*
X164679286Y-106915000D01*
X164707857Y-106943571D01*
X164736429Y-107000714D01*
X164736429Y-107143571D01*
X164707857Y-107200714D01*
X164679286Y-107229285D01*
X164565000Y-131238571D02*
X164565000Y-130952857D01*
X164736429Y-131295714D02*
X164136429Y-131095714D01*
X164736429Y-130895714D01*
X164736429Y-130381428D02*
X164736429Y-130724285D01*
X164736429Y-130552857D02*
X164136429Y-130552857D01*
X164222143Y-130610000D01*
X164279286Y-130667142D01*
X164307857Y-130724285D01*
X162025000Y-131238571D02*
X162025000Y-130952857D01*
X162196429Y-131295714D02*
X161596429Y-131095714D01*
X162196429Y-130895714D01*
X161596429Y-130581428D02*
X161596429Y-130524285D01*
X161625000Y-130467142D01*
X161653571Y-130438571D01*
X161710714Y-130410000D01*
X161825000Y-130381428D01*
X161967857Y-130381428D01*
X162082143Y-130410000D01*
X162139286Y-130438571D01*
X162167857Y-130467142D01*
X162196429Y-130524285D01*
X162196429Y-130581428D01*
X162167857Y-130638571D01*
X162139286Y-130667142D01*
X162082143Y-130695714D01*
X161967857Y-130724285D01*
X161825000Y-130724285D01*
X161710714Y-130695714D01*
X161653571Y-130667142D01*
X161625000Y-130638571D01*
X161596429Y-130581428D01*
X159656429Y-131252857D02*
X159056429Y-131252857D01*
X159056429Y-131110000D01*
X159085000Y-131024285D01*
X159142143Y-130967143D01*
X159199286Y-130938571D01*
X159313571Y-130910000D01*
X159399286Y-130910000D01*
X159513571Y-130938571D01*
X159570714Y-130967143D01*
X159627857Y-131024285D01*
X159656429Y-131110000D01*
X159656429Y-131252857D01*
X159056429Y-130710000D02*
X159056429Y-130310000D01*
X159656429Y-130567143D01*
X157116429Y-131252857D02*
X156516429Y-131252857D01*
X156516429Y-131110000D01*
X156545000Y-131024285D01*
X156602143Y-130967143D01*
X156659286Y-130938571D01*
X156773571Y-130910000D01*
X156859286Y-130910000D01*
X156973571Y-130938571D01*
X157030714Y-130967143D01*
X157087857Y-131024285D01*
X157116429Y-131110000D01*
X157116429Y-131252857D01*
X156516429Y-130395714D02*
X156516429Y-130510000D01*
X156545000Y-130567143D01*
X156573571Y-130595714D01*
X156659286Y-130652857D01*
X156773571Y-130681428D01*
X157002143Y-130681428D01*
X157059286Y-130652857D01*
X157087857Y-130624285D01*
X157116429Y-130567143D01*
X157116429Y-130452857D01*
X157087857Y-130395714D01*
X157059286Y-130367143D01*
X157002143Y-130338571D01*
X156859286Y-130338571D01*
X156802143Y-130367143D01*
X156773571Y-130395714D01*
X156745000Y-130452857D01*
X156745000Y-130567143D01*
X156773571Y-130624285D01*
X156802143Y-130652857D01*
X156859286Y-130681428D01*
X154576429Y-131252857D02*
X153976429Y-131252857D01*
X153976429Y-131110000D01*
X154005000Y-131024285D01*
X154062143Y-130967143D01*
X154119286Y-130938571D01*
X154233571Y-130910000D01*
X154319286Y-130910000D01*
X154433571Y-130938571D01*
X154490714Y-130967143D01*
X154547857Y-131024285D01*
X154576429Y-131110000D01*
X154576429Y-131252857D01*
X153976429Y-130367143D02*
X153976429Y-130652857D01*
X154262143Y-130681428D01*
X154233571Y-130652857D01*
X154205000Y-130595714D01*
X154205000Y-130452857D01*
X154233571Y-130395714D01*
X154262143Y-130367143D01*
X154319286Y-130338571D01*
X154462143Y-130338571D01*
X154519286Y-130367143D01*
X154547857Y-130395714D01*
X154576429Y-130452857D01*
X154576429Y-130595714D01*
X154547857Y-130652857D01*
X154519286Y-130681428D01*
X152036429Y-131252857D02*
X151436429Y-131252857D01*
X151436429Y-131110000D01*
X151465000Y-131024285D01*
X151522143Y-130967143D01*
X151579286Y-130938571D01*
X151693571Y-130910000D01*
X151779286Y-130910000D01*
X151893571Y-130938571D01*
X151950714Y-130967143D01*
X152007857Y-131024285D01*
X152036429Y-131110000D01*
X152036429Y-131252857D01*
X151636429Y-130395714D02*
X152036429Y-130395714D01*
X151407857Y-130538571D02*
X151836429Y-130681428D01*
X151836429Y-130310000D01*
X149496429Y-131252857D02*
X148896429Y-131252857D01*
X148896429Y-131110000D01*
X148925000Y-131024285D01*
X148982143Y-130967143D01*
X149039286Y-130938571D01*
X149153571Y-130910000D01*
X149239286Y-130910000D01*
X149353571Y-130938571D01*
X149410714Y-130967143D01*
X149467857Y-131024285D01*
X149496429Y-131110000D01*
X149496429Y-131252857D01*
X148896429Y-130710000D02*
X148896429Y-130338571D01*
X149125000Y-130538571D01*
X149125000Y-130452857D01*
X149153571Y-130395714D01*
X149182143Y-130367143D01*
X149239286Y-130338571D01*
X149382143Y-130338571D01*
X149439286Y-130367143D01*
X149467857Y-130395714D01*
X149496429Y-130452857D01*
X149496429Y-130624285D01*
X149467857Y-130681428D01*
X149439286Y-130710000D01*
X153419285Y-108256429D02*
X153790714Y-108256429D01*
X153590714Y-108485000D01*
X153676428Y-108485000D01*
X153733571Y-108513571D01*
X153762142Y-108542143D01*
X153790714Y-108599286D01*
X153790714Y-108742143D01*
X153762142Y-108799286D01*
X153733571Y-108827857D01*
X153676428Y-108856429D01*
X153505000Y-108856429D01*
X153447857Y-108827857D01*
X153419285Y-108799286D01*
X154047857Y-108799286D02*
X154076429Y-108827857D01*
X154047857Y-108856429D01*
X154019286Y-108827857D01*
X154047857Y-108799286D01*
X154047857Y-108856429D01*
X154276428Y-108256429D02*
X154647857Y-108256429D01*
X154447857Y-108485000D01*
X154533571Y-108485000D01*
X154590714Y-108513571D01*
X154619285Y-108542143D01*
X154647857Y-108599286D01*
X154647857Y-108742143D01*
X154619285Y-108799286D01*
X154590714Y-108827857D01*
X154533571Y-108856429D01*
X154362143Y-108856429D01*
X154305000Y-108827857D01*
X154276428Y-108799286D01*
X154819286Y-108256429D02*
X155019286Y-108856429D01*
X155219286Y-108256429D01*
X152577858Y-109555000D02*
X152520715Y-109526429D01*
X152435001Y-109526429D01*
X152349286Y-109555000D01*
X152292144Y-109612143D01*
X152263572Y-109669286D01*
X152235001Y-109783571D01*
X152235001Y-109869286D01*
X152263572Y-109983571D01*
X152292144Y-110040714D01*
X152349286Y-110097857D01*
X152435001Y-110126429D01*
X152492144Y-110126429D01*
X152577858Y-110097857D01*
X152606429Y-110069286D01*
X152606429Y-109869286D01*
X152492144Y-109869286D01*
X152863572Y-110126429D02*
X152863572Y-109526429D01*
X153206429Y-110126429D01*
X153206429Y-109526429D01*
X153492143Y-110126429D02*
X153492143Y-109526429D01*
X153635000Y-109526429D01*
X153720715Y-109555000D01*
X153777857Y-109612143D01*
X153806429Y-109669286D01*
X153835000Y-109783571D01*
X153835000Y-109869286D01*
X153806429Y-109983571D01*
X153777857Y-110040714D01*
X153720715Y-110097857D01*
X153635000Y-110126429D01*
X153492143Y-110126429D01*
X147438334Y-109536667D02*
X147438334Y-108836667D01*
X147605000Y-108836667D01*
X147705000Y-108870000D01*
X147771667Y-108936667D01*
X147805000Y-109003333D01*
X147838334Y-109136667D01*
X147838334Y-109236667D01*
X147805000Y-109370000D01*
X147771667Y-109436667D01*
X147705000Y-109503333D01*
X147605000Y-109536667D01*
X147438334Y-109536667D01*
X148438334Y-108836667D02*
X148305000Y-108836667D01*
X148238334Y-108870000D01*
X148205000Y-108903333D01*
X148138334Y-109003333D01*
X148105000Y-109136667D01*
X148105000Y-109403333D01*
X148138334Y-109470000D01*
X148171667Y-109503333D01*
X148238334Y-109536667D01*
X148371667Y-109536667D01*
X148438334Y-109503333D01*
X148471667Y-109470000D01*
X148505000Y-109403333D01*
X148505000Y-109236667D01*
X148471667Y-109170000D01*
X148438334Y-109136667D01*
X148371667Y-109103333D01*
X148238334Y-109103333D01*
X148171667Y-109136667D01*
X148138334Y-109170000D01*
X148105000Y-109236667D01*
X158868334Y-109536667D02*
X158868334Y-108836667D01*
X159035000Y-108836667D01*
X159135000Y-108870000D01*
X159201667Y-108936667D01*
X159235000Y-109003333D01*
X159268334Y-109136667D01*
X159268334Y-109236667D01*
X159235000Y-109370000D01*
X159201667Y-109436667D01*
X159135000Y-109503333D01*
X159035000Y-109536667D01*
X158868334Y-109536667D01*
X159901667Y-108836667D02*
X159568334Y-108836667D01*
X159535000Y-109170000D01*
X159568334Y-109136667D01*
X159635000Y-109103333D01*
X159801667Y-109103333D01*
X159868334Y-109136667D01*
X159901667Y-109170000D01*
X159935000Y-109236667D01*
X159935000Y-109403333D01*
X159901667Y-109470000D01*
X159868334Y-109503333D01*
X159801667Y-109536667D01*
X159635000Y-109536667D01*
X159568334Y-109503333D01*
X159535000Y-109470000D01*
D11*
X160690000Y-118460000D02*
X160690000Y-117760000D01*
X161890000Y-117760000D02*
X161890000Y-118460000D01*
X156495000Y-117510000D02*
X157195000Y-117510000D01*
X157195000Y-118710000D02*
X156495000Y-118710000D01*
X150145000Y-117510000D02*
X150845000Y-117510000D01*
X150845000Y-118710000D02*
X150145000Y-118710000D01*
X161255000Y-113315000D02*
X161255000Y-114015000D01*
X160055000Y-114015000D02*
X160055000Y-113315000D01*
X160690000Y-123540000D02*
X160690000Y-122840000D01*
X161890000Y-122840000D02*
X161890000Y-123540000D01*
X164500000Y-126715000D02*
X164500000Y-126015000D01*
X165700000Y-126015000D02*
X165700000Y-126715000D01*
X162275000Y-126965000D02*
X161575000Y-126965000D01*
X161575000Y-125765000D02*
X162275000Y-125765000D01*
X161575000Y-128305000D02*
X162275000Y-128305000D01*
X162275000Y-129505000D02*
X161575000Y-129505000D01*
X159395000Y-116750000D02*
X159395000Y-110800000D01*
X159395000Y-110800000D02*
X146795000Y-110800000D01*
X146795000Y-110800000D02*
X146795000Y-116750000D01*
X146795000Y-116750000D02*
X159395000Y-116750000D01*
X156095000Y-116750000D02*
X156095000Y-116000000D01*
X156095000Y-116000000D02*
X150095000Y-116000000D01*
X150095000Y-116000000D02*
X150095000Y-116750000D01*
X150095000Y-116750000D02*
X156095000Y-116750000D01*
X159395000Y-116750000D02*
X159395000Y-116000000D01*
X159395000Y-116000000D02*
X157595000Y-116000000D01*
X157595000Y-116000000D02*
X157595000Y-116750000D01*
X157595000Y-116750000D02*
X159395000Y-116750000D01*
X148595000Y-116750000D02*
X148595000Y-116000000D01*
X148595000Y-116000000D02*
X146795000Y-116000000D01*
X146795000Y-116000000D02*
X146795000Y-116750000D01*
X146795000Y-116750000D02*
X148595000Y-116750000D01*
X159395000Y-114500000D02*
X158645000Y-114500000D01*
X158645000Y-114500000D02*
X158645000Y-111550000D01*
X158645000Y-111550000D02*
X153095000Y-111550000D01*
X146795000Y-114500000D02*
X147545000Y-114500000D01*
X147545000Y-114500000D02*
X147545000Y-111550000D01*
X147545000Y-111550000D02*
X153095000Y-111550000D01*
X157195000Y-117050000D02*
X159695000Y-117050000D01*
X159695000Y-117050000D02*
X159695000Y-114550000D01*
X159395000Y-125640000D02*
X159395000Y-119690000D01*
X159395000Y-119690000D02*
X146795000Y-119690000D01*
X146795000Y-119690000D02*
X146795000Y-125640000D01*
X146795000Y-125640000D02*
X159395000Y-125640000D01*
X156095000Y-125640000D02*
X156095000Y-124890000D01*
X156095000Y-124890000D02*
X150095000Y-124890000D01*
X150095000Y-124890000D02*
X150095000Y-125640000D01*
X150095000Y-125640000D02*
X156095000Y-125640000D01*
X159395000Y-125640000D02*
X159395000Y-124890000D01*
X159395000Y-124890000D02*
X157595000Y-124890000D01*
X157595000Y-124890000D02*
X157595000Y-125640000D01*
X157595000Y-125640000D02*
X159395000Y-125640000D01*
X148595000Y-125640000D02*
X148595000Y-124890000D01*
X148595000Y-124890000D02*
X146795000Y-124890000D01*
X146795000Y-124890000D02*
X146795000Y-125640000D01*
X146795000Y-125640000D02*
X148595000Y-125640000D01*
X159395000Y-123390000D02*
X158645000Y-123390000D01*
X158645000Y-123390000D02*
X158645000Y-120440000D01*
X158645000Y-120440000D02*
X153095000Y-120440000D01*
X146795000Y-123390000D02*
X147545000Y-123390000D01*
X147545000Y-123390000D02*
X147545000Y-120440000D01*
X147545000Y-120440000D02*
X153095000Y-120440000D01*
X157195000Y-125940000D02*
X159695000Y-125940000D01*
X159695000Y-125940000D02*
X159695000Y-123440000D01*
X158755000Y-108330000D02*
X154935000Y-108330000D01*
X154935000Y-108330000D02*
X154935000Y-110110000D01*
X154935000Y-110110000D02*
X158755000Y-110110000D01*
X158755000Y-108330000D02*
X158755000Y-110110000D01*
X148585000Y-110110000D02*
X152405000Y-110110000D01*
X152405000Y-110110000D02*
X152405000Y-108330000D01*
X152405000Y-108330000D02*
X148585000Y-108330000D01*
X148585000Y-110110000D02*
X148585000Y-108330000D01*
X150620000Y-129850000D02*
X150620000Y-128920000D01*
X150620000Y-126690000D02*
X150620000Y-127620000D01*
X150620000Y-126690000D02*
X147460000Y-126690000D01*
X150620000Y-129850000D02*
X149160000Y-129850000D01*
X156970000Y-129850000D02*
X156970000Y-128920000D01*
X156970000Y-126690000D02*
X156970000Y-127620000D01*
X156970000Y-126690000D02*
X153810000Y-126690000D01*
X156970000Y-129850000D02*
X155510000Y-129850000D01*
X162435000Y-108275000D02*
X162435000Y-109205000D01*
X162435000Y-111435000D02*
X162435000Y-110505000D01*
X162435000Y-111435000D02*
X165595000Y-111435000D01*
X162435000Y-108275000D02*
X163895000Y-108275000D01*
X163365000Y-113920000D02*
X163065000Y-113920000D01*
X163065000Y-113920000D02*
X163065000Y-117220000D01*
X163065000Y-117220000D02*
X163365000Y-117220000D01*
X165565000Y-113920000D02*
X165865000Y-113920000D01*
X165865000Y-113920000D02*
X165865000Y-117220000D01*
X165865000Y-117220000D02*
X165565000Y-117220000D01*
X165565000Y-122935000D02*
X165865000Y-122935000D01*
X165865000Y-122935000D02*
X165865000Y-119635000D01*
X165865000Y-119635000D02*
X165565000Y-119635000D01*
X163365000Y-122935000D02*
X163065000Y-122935000D01*
X163065000Y-122935000D02*
X163065000Y-119635000D01*
X163065000Y-119635000D02*
X163365000Y-119635000D01*
D12*
X160397143Y-118276666D02*
X160444762Y-118324285D01*
X160492381Y-118467142D01*
X160492381Y-118562380D01*
X160444762Y-118705238D01*
X160349524Y-118800476D01*
X160254286Y-118848095D01*
X160063810Y-118895714D01*
X159920952Y-118895714D01*
X159730476Y-118848095D01*
X159635238Y-118800476D01*
X159540000Y-118705238D01*
X159492381Y-118562380D01*
X159492381Y-118467142D01*
X159540000Y-118324285D01*
X159587619Y-118276666D01*
X160492381Y-117324285D02*
X160492381Y-117895714D01*
X160492381Y-117610000D02*
X159492381Y-117610000D01*
X159635238Y-117705238D01*
X159730476Y-117800476D01*
X159778095Y-117895714D01*
X154027143Y-118276666D02*
X154074762Y-118324285D01*
X154122381Y-118467142D01*
X154122381Y-118562380D01*
X154074762Y-118705238D01*
X153979524Y-118800476D01*
X153884286Y-118848095D01*
X153693810Y-118895714D01*
X153550952Y-118895714D01*
X153360476Y-118848095D01*
X153265238Y-118800476D01*
X153170000Y-118705238D01*
X153122381Y-118562380D01*
X153122381Y-118467142D01*
X153170000Y-118324285D01*
X153217619Y-118276666D01*
X153217619Y-117895714D02*
X153170000Y-117848095D01*
X153122381Y-117752857D01*
X153122381Y-117514761D01*
X153170000Y-117419523D01*
X153217619Y-117371904D01*
X153312857Y-117324285D01*
X153408095Y-117324285D01*
X153550952Y-117371904D01*
X154122381Y-117943333D01*
X154122381Y-117324285D01*
X148312143Y-118276666D02*
X148359762Y-118324285D01*
X148407381Y-118467142D01*
X148407381Y-118562380D01*
X148359762Y-118705238D01*
X148264524Y-118800476D01*
X148169286Y-118848095D01*
X147978810Y-118895714D01*
X147835952Y-118895714D01*
X147645476Y-118848095D01*
X147550238Y-118800476D01*
X147455000Y-118705238D01*
X147407381Y-118562380D01*
X147407381Y-118467142D01*
X147455000Y-118324285D01*
X147502619Y-118276666D01*
X147407381Y-117943333D02*
X147407381Y-117324285D01*
X147788333Y-117657619D01*
X147788333Y-117514761D01*
X147835952Y-117419523D01*
X147883571Y-117371904D01*
X147978810Y-117324285D01*
X148216905Y-117324285D01*
X148312143Y-117371904D01*
X148359762Y-117419523D01*
X148407381Y-117514761D01*
X148407381Y-117800476D01*
X148359762Y-117895714D01*
X148312143Y-117943333D01*
X162282143Y-115101666D02*
X162329762Y-115149285D01*
X162377381Y-115292142D01*
X162377381Y-115387380D01*
X162329762Y-115530238D01*
X162234524Y-115625476D01*
X162139286Y-115673095D01*
X161948810Y-115720714D01*
X161805952Y-115720714D01*
X161615476Y-115673095D01*
X161520238Y-115625476D01*
X161425000Y-115530238D01*
X161377381Y-115387380D01*
X161377381Y-115292142D01*
X161425000Y-115149285D01*
X161472619Y-115101666D01*
X161710714Y-114244523D02*
X162377381Y-114244523D01*
X161329762Y-114482619D02*
X162044048Y-114720714D01*
X162044048Y-114101666D01*
X160397143Y-123356666D02*
X160444762Y-123404285D01*
X160492381Y-123547142D01*
X160492381Y-123642380D01*
X160444762Y-123785238D01*
X160349524Y-123880476D01*
X160254286Y-123928095D01*
X160063810Y-123975714D01*
X159920952Y-123975714D01*
X159730476Y-123928095D01*
X159635238Y-123880476D01*
X159540000Y-123785238D01*
X159492381Y-123642380D01*
X159492381Y-123547142D01*
X159540000Y-123404285D01*
X159587619Y-123356666D01*
X159492381Y-122451904D02*
X159492381Y-122928095D01*
X159968571Y-122975714D01*
X159920952Y-122928095D01*
X159873333Y-122832857D01*
X159873333Y-122594761D01*
X159920952Y-122499523D01*
X159968571Y-122451904D01*
X160063810Y-122404285D01*
X160301905Y-122404285D01*
X160397143Y-122451904D01*
X160444762Y-122499523D01*
X160492381Y-122594761D01*
X160492381Y-122832857D01*
X160444762Y-122928095D01*
X160397143Y-122975714D01*
X165457143Y-129071666D02*
X165504762Y-129119285D01*
X165552381Y-129262142D01*
X165552381Y-129357380D01*
X165504762Y-129500238D01*
X165409524Y-129595476D01*
X165314286Y-129643095D01*
X165123810Y-129690714D01*
X164980952Y-129690714D01*
X164790476Y-129643095D01*
X164695238Y-129595476D01*
X164600000Y-129500238D01*
X164552381Y-129357380D01*
X164552381Y-129262142D01*
X164600000Y-129119285D01*
X164647619Y-129071666D01*
X164552381Y-128214523D02*
X164552381Y-128405000D01*
X164600000Y-128500238D01*
X164647619Y-128547857D01*
X164790476Y-128643095D01*
X164980952Y-128690714D01*
X165361905Y-128690714D01*
X165457143Y-128643095D01*
X165504762Y-128595476D01*
X165552381Y-128500238D01*
X165552381Y-128309761D01*
X165504762Y-128214523D01*
X165457143Y-128166904D01*
X165361905Y-128119285D01*
X165123810Y-128119285D01*
X165028571Y-128166904D01*
X164980952Y-128214523D01*
X164933333Y-128309761D01*
X164933333Y-128500238D01*
X164980952Y-128595476D01*
X165028571Y-128643095D01*
X165123810Y-128690714D01*
X160488334Y-127992143D02*
X160440715Y-128039762D01*
X160297858Y-128087381D01*
X160202620Y-128087381D01*
X160059762Y-128039762D01*
X159964524Y-127944524D01*
X159916905Y-127849286D01*
X159869286Y-127658810D01*
X159869286Y-127515952D01*
X159916905Y-127325476D01*
X159964524Y-127230238D01*
X160059762Y-127135000D01*
X160202620Y-127087381D01*
X160297858Y-127087381D01*
X160440715Y-127135000D01*
X160488334Y-127182619D01*
X160821667Y-127087381D02*
X161488334Y-127087381D01*
X161059762Y-128087381D01*
X163028334Y-125452143D02*
X162980715Y-125499762D01*
X162837858Y-125547381D01*
X162742620Y-125547381D01*
X162599762Y-125499762D01*
X162504524Y-125404524D01*
X162456905Y-125309286D01*
X162409286Y-125118810D01*
X162409286Y-124975952D01*
X162456905Y-124785476D01*
X162504524Y-124690238D01*
X162599762Y-124595000D01*
X162742620Y-124547381D01*
X162837858Y-124547381D01*
X162980715Y-124595000D01*
X163028334Y-124642619D01*
X163599762Y-124975952D02*
X163504524Y-124928333D01*
X163456905Y-124880714D01*
X163409286Y-124785476D01*
X163409286Y-124737857D01*
X163456905Y-124642619D01*
X163504524Y-124595000D01*
X163599762Y-124547381D01*
X163790239Y-124547381D01*
X163885477Y-124595000D01*
X163933096Y-124642619D01*
X163980715Y-124737857D01*
X163980715Y-124785476D01*
X163933096Y-124880714D01*
X163885477Y-124928333D01*
X163790239Y-124975952D01*
X163599762Y-124975952D01*
X163504524Y-125023571D01*
X163456905Y-125071190D01*
X163409286Y-125166429D01*
X163409286Y-125356905D01*
X163456905Y-125452143D01*
X163504524Y-125499762D01*
X163599762Y-125547381D01*
X163790239Y-125547381D01*
X163885477Y-125499762D01*
X163933096Y-125452143D01*
X163980715Y-125356905D01*
X163980715Y-125166429D01*
X163933096Y-125071190D01*
X163885477Y-125023571D01*
X163790239Y-124975952D01*
X152487381Y-112093333D02*
X153201667Y-112093333D01*
X153344524Y-112140953D01*
X153439762Y-112236191D01*
X153487381Y-112379048D01*
X153487381Y-112474286D01*
X153487381Y-111093333D02*
X153487381Y-111664762D01*
X153487381Y-111379048D02*
X152487381Y-111379048D01*
X152630238Y-111474286D01*
X152725476Y-111569524D01*
X152773095Y-111664762D01*
X155876667Y-120737381D02*
X155876667Y-121451667D01*
X155829047Y-121594524D01*
X155733809Y-121689762D01*
X155590952Y-121737381D01*
X155495714Y-121737381D01*
X156305238Y-120832619D02*
X156352857Y-120785000D01*
X156448095Y-120737381D01*
X156686191Y-120737381D01*
X156781429Y-120785000D01*
X156829048Y-120832619D01*
X156876667Y-120927857D01*
X156876667Y-121023095D01*
X156829048Y-121165952D01*
X156257619Y-121737381D01*
X156876667Y-121737381D01*
X146772381Y-133048333D02*
X147486667Y-133048333D01*
X147629524Y-133095953D01*
X147724762Y-133191191D01*
X147772381Y-133334048D01*
X147772381Y-133429286D01*
X146772381Y-132667381D02*
X146772381Y-132048333D01*
X147153333Y-132381667D01*
X147153333Y-132238809D01*
X147200952Y-132143571D01*
X147248571Y-132095952D01*
X147343810Y-132048333D01*
X147581905Y-132048333D01*
X147677143Y-132095952D01*
X147724762Y-132143571D01*
X147772381Y-132238809D01*
X147772381Y-132524524D01*
X147724762Y-132619762D01*
X147677143Y-132667381D01*
X146772381Y-105743333D02*
X147486667Y-105743333D01*
X147629524Y-105790953D01*
X147724762Y-105886191D01*
X147772381Y-106029048D01*
X147772381Y-106124286D01*
X147105714Y-104838571D02*
X147772381Y-104838571D01*
X146724762Y-105076667D02*
X147439048Y-105314762D01*
X147439048Y-104695714D01*
X152312619Y-127095238D02*
X152265000Y-127190476D01*
X152169762Y-127285714D01*
X152026905Y-127428571D01*
X151979286Y-127523810D01*
X151979286Y-127619048D01*
X152217381Y-127571429D02*
X152169762Y-127666667D01*
X152074524Y-127761905D01*
X151884048Y-127809524D01*
X151550714Y-127809524D01*
X151360238Y-127761905D01*
X151265000Y-127666667D01*
X151217381Y-127571429D01*
X151217381Y-127380952D01*
X151265000Y-127285714D01*
X151360238Y-127190476D01*
X151550714Y-127142857D01*
X151884048Y-127142857D01*
X152074524Y-127190476D01*
X152169762Y-127285714D01*
X152217381Y-127380952D01*
X152217381Y-127571429D01*
X152217381Y-126190476D02*
X152217381Y-126761905D01*
X152217381Y-126476191D02*
X151217381Y-126476191D01*
X151360238Y-126571429D01*
X151455476Y-126666667D01*
X151503095Y-126761905D01*
X158662619Y-127095238D02*
X158615000Y-127190476D01*
X158519762Y-127285714D01*
X158376905Y-127428571D01*
X158329286Y-127523810D01*
X158329286Y-127619048D01*
X158567381Y-127571429D02*
X158519762Y-127666667D01*
X158424524Y-127761905D01*
X158234048Y-127809524D01*
X157900714Y-127809524D01*
X157710238Y-127761905D01*
X157615000Y-127666667D01*
X157567381Y-127571429D01*
X157567381Y-127380952D01*
X157615000Y-127285714D01*
X157710238Y-127190476D01*
X157900714Y-127142857D01*
X158234048Y-127142857D01*
X158424524Y-127190476D01*
X158519762Y-127285714D01*
X158567381Y-127380952D01*
X158567381Y-127571429D01*
X157662619Y-126761905D02*
X157615000Y-126714286D01*
X157567381Y-126619048D01*
X157567381Y-126380952D01*
X157615000Y-126285714D01*
X157662619Y-126238095D01*
X157757857Y-126190476D01*
X157853095Y-126190476D01*
X157995952Y-126238095D01*
X158567381Y-126809524D01*
X158567381Y-126190476D01*
X160742381Y-111886905D02*
X161551905Y-111886905D01*
X161647143Y-111839286D01*
X161694762Y-111791667D01*
X161742381Y-111696429D01*
X161742381Y-111505952D01*
X161694762Y-111410714D01*
X161647143Y-111363095D01*
X161551905Y-111315476D01*
X160742381Y-111315476D01*
X161742381Y-110315476D02*
X161742381Y-110886905D01*
X161742381Y-110601191D02*
X160742381Y-110601191D01*
X160885238Y-110696429D01*
X160980476Y-110791667D01*
X161028095Y-110886905D01*
X163131667Y-112799762D02*
X163274524Y-112847381D01*
X163512620Y-112847381D01*
X163607858Y-112799762D01*
X163655477Y-112752143D01*
X163703096Y-112656905D01*
X163703096Y-112561667D01*
X163655477Y-112466429D01*
X163607858Y-112418810D01*
X163512620Y-112371190D01*
X163322143Y-112323571D01*
X163226905Y-112275952D01*
X163179286Y-112228333D01*
X163131667Y-112133095D01*
X163131667Y-112037857D01*
X163179286Y-111942619D01*
X163226905Y-111895000D01*
X163322143Y-111847381D01*
X163560239Y-111847381D01*
X163703096Y-111895000D01*
X164036429Y-111847381D02*
X164274524Y-112847381D01*
X164465001Y-112133095D01*
X164655477Y-112847381D01*
X164893572Y-111847381D01*
X165798334Y-112847381D02*
X165226905Y-112847381D01*
X165512619Y-112847381D02*
X165512619Y-111847381D01*
X165417381Y-111990238D01*
X165322143Y-112085476D01*
X165226905Y-112133095D01*
X162964762Y-122618333D02*
X163012381Y-122475476D01*
X163012381Y-122237380D01*
X162964762Y-122142142D01*
X162917143Y-122094523D01*
X162821905Y-122046904D01*
X162726667Y-122046904D01*
X162631429Y-122094523D01*
X162583810Y-122142142D01*
X162536190Y-122237380D01*
X162488571Y-122427857D01*
X162440952Y-122523095D01*
X162393333Y-122570714D01*
X162298095Y-122618333D01*
X162202857Y-122618333D01*
X162107619Y-122570714D01*
X162060000Y-122523095D01*
X162012381Y-122427857D01*
X162012381Y-122189761D01*
X162060000Y-122046904D01*
X162012381Y-121713571D02*
X163012381Y-121475476D01*
X162298095Y-121284999D01*
X163012381Y-121094523D01*
X162012381Y-120856428D01*
X162107619Y-120523095D02*
X162060000Y-120475476D01*
X162012381Y-120380238D01*
X162012381Y-120142142D01*
X162060000Y-120046904D01*
X162107619Y-119999285D01*
X162202857Y-119951666D01*
X162298095Y-119951666D01*
X162440952Y-119999285D01*
X163012381Y-120570714D01*
X163012381Y-119951666D01*
M02*
