M48
;DRILL file {KiCad 4.0.7-e1-6374~58~ubuntu16.04.1} date Wed Aug  2 11:06:10 2017
;FORMAT={-:-/ absolute / inch / decimal}
FMAT,2
INCH,TZ
T1C0.016
T2C0.039
%
G90
G05
M72
T1
X5.925Y-4.3458
X6.264Y-4.3119
T2
X5.875Y-4.15
X5.875Y-5.225
X5.8797Y-4.5
X5.8797Y-4.85
X5.975Y-4.15
X5.975Y-5.225
X5.9781Y-4.5
X5.9781Y-4.85
X6.075Y-4.15
X6.075Y-5.225
X6.0766Y-4.5
X6.0766Y-4.85
X6.175Y-4.15
X6.175Y-4.5
X6.175Y-4.85
X6.175Y-5.225
X6.275Y-4.15
X6.275Y-5.225
X6.375Y-4.15
X6.375Y-5.225
X6.475Y-4.15
X6.475Y-5.225
T0
M30
