G04 #@! TF.FileFunction,Legend,Top*
%FSLAX46Y46*%
G04 Gerber Fmt 4.6, Leading zero omitted, Abs format (unit mm)*
G04 Created by KiCad (PCBNEW 4.0.7-e2-6376~60~ubuntu17.10.1) date Thu Nov  2 21:58:26 2017*
%MOMM*%
%LPD*%
G01*
G04 APERTURE LIST*
%ADD10C,0.100000*%
%ADD11C,0.300000*%
%ADD12C,0.120000*%
%ADD13C,0.010000*%
G04 APERTURE END LIST*
D10*
X177115000Y-93850000D02*
X177115000Y-94383333D01*
X176848333Y-94116666D02*
X177381667Y-94116666D01*
X177548333Y-94650000D02*
X177548333Y-95083333D01*
X177281667Y-94850000D01*
X177281667Y-94950000D01*
X177248333Y-95016667D01*
X177215000Y-95050000D01*
X177148333Y-95083333D01*
X176981667Y-95083333D01*
X176915000Y-95050000D01*
X176881667Y-95016667D01*
X176848333Y-94950000D01*
X176848333Y-94750000D01*
X176881667Y-94683333D01*
X176915000Y-94650000D01*
X176915000Y-95383334D02*
X176881667Y-95416667D01*
X176848333Y-95383334D01*
X176881667Y-95350000D01*
X176915000Y-95383334D01*
X176848333Y-95383334D01*
X177548333Y-95650000D02*
X177548333Y-96083333D01*
X177281667Y-95850000D01*
X177281667Y-95950000D01*
X177248333Y-96016667D01*
X177215000Y-96050000D01*
X177148333Y-96083333D01*
X176981667Y-96083333D01*
X176915000Y-96050000D01*
X176881667Y-96016667D01*
X176848333Y-95950000D01*
X176848333Y-95750000D01*
X176881667Y-95683333D01*
X176915000Y-95650000D01*
X177548333Y-96283334D02*
X176848333Y-96516667D01*
X177548333Y-96750000D01*
X171778571Y-95634285D02*
X171778571Y-96005714D01*
X171550000Y-95805714D01*
X171550000Y-95891428D01*
X171521429Y-95948571D01*
X171492857Y-95977142D01*
X171435714Y-96005714D01*
X171292857Y-96005714D01*
X171235714Y-95977142D01*
X171207143Y-95948571D01*
X171178571Y-95891428D01*
X171178571Y-95720000D01*
X171207143Y-95662857D01*
X171235714Y-95634285D01*
X171235714Y-96262857D02*
X171207143Y-96291429D01*
X171178571Y-96262857D01*
X171207143Y-96234286D01*
X171235714Y-96262857D01*
X171178571Y-96262857D01*
X171778571Y-96491428D02*
X171778571Y-96862857D01*
X171550000Y-96662857D01*
X171550000Y-96748571D01*
X171521429Y-96805714D01*
X171492857Y-96834285D01*
X171435714Y-96862857D01*
X171292857Y-96862857D01*
X171235714Y-96834285D01*
X171207143Y-96805714D01*
X171178571Y-96748571D01*
X171178571Y-96577143D01*
X171207143Y-96520000D01*
X171235714Y-96491428D01*
X171778571Y-97034286D02*
X171178571Y-97234286D01*
X171778571Y-97434286D01*
X167333571Y-95634285D02*
X167333571Y-96005714D01*
X167105000Y-95805714D01*
X167105000Y-95891428D01*
X167076429Y-95948571D01*
X167047857Y-95977142D01*
X166990714Y-96005714D01*
X166847857Y-96005714D01*
X166790714Y-95977142D01*
X166762143Y-95948571D01*
X166733571Y-95891428D01*
X166733571Y-95720000D01*
X166762143Y-95662857D01*
X166790714Y-95634285D01*
X166790714Y-96262857D02*
X166762143Y-96291429D01*
X166733571Y-96262857D01*
X166762143Y-96234286D01*
X166790714Y-96262857D01*
X166733571Y-96262857D01*
X167333571Y-96491428D02*
X167333571Y-96862857D01*
X167105000Y-96662857D01*
X167105000Y-96748571D01*
X167076429Y-96805714D01*
X167047857Y-96834285D01*
X166990714Y-96862857D01*
X166847857Y-96862857D01*
X166790714Y-96834285D01*
X166762143Y-96805714D01*
X166733571Y-96748571D01*
X166733571Y-96577143D01*
X166762143Y-96520000D01*
X166790714Y-96491428D01*
X167333571Y-97034286D02*
X166733571Y-97234286D01*
X167333571Y-97434286D01*
X162888571Y-95634285D02*
X162888571Y-96005714D01*
X162660000Y-95805714D01*
X162660000Y-95891428D01*
X162631429Y-95948571D01*
X162602857Y-95977142D01*
X162545714Y-96005714D01*
X162402857Y-96005714D01*
X162345714Y-95977142D01*
X162317143Y-95948571D01*
X162288571Y-95891428D01*
X162288571Y-95720000D01*
X162317143Y-95662857D01*
X162345714Y-95634285D01*
X162345714Y-96262857D02*
X162317143Y-96291429D01*
X162288571Y-96262857D01*
X162317143Y-96234286D01*
X162345714Y-96262857D01*
X162288571Y-96262857D01*
X162888571Y-96491428D02*
X162888571Y-96862857D01*
X162660000Y-96662857D01*
X162660000Y-96748571D01*
X162631429Y-96805714D01*
X162602857Y-96834285D01*
X162545714Y-96862857D01*
X162402857Y-96862857D01*
X162345714Y-96834285D01*
X162317143Y-96805714D01*
X162288571Y-96748571D01*
X162288571Y-96577143D01*
X162317143Y-96520000D01*
X162345714Y-96491428D01*
X162888571Y-97034286D02*
X162288571Y-97234286D01*
X162888571Y-97434286D01*
X158443571Y-95634285D02*
X158443571Y-96005714D01*
X158215000Y-95805714D01*
X158215000Y-95891428D01*
X158186429Y-95948571D01*
X158157857Y-95977142D01*
X158100714Y-96005714D01*
X157957857Y-96005714D01*
X157900714Y-95977142D01*
X157872143Y-95948571D01*
X157843571Y-95891428D01*
X157843571Y-95720000D01*
X157872143Y-95662857D01*
X157900714Y-95634285D01*
X157900714Y-96262857D02*
X157872143Y-96291429D01*
X157843571Y-96262857D01*
X157872143Y-96234286D01*
X157900714Y-96262857D01*
X157843571Y-96262857D01*
X158443571Y-96491428D02*
X158443571Y-96862857D01*
X158215000Y-96662857D01*
X158215000Y-96748571D01*
X158186429Y-96805714D01*
X158157857Y-96834285D01*
X158100714Y-96862857D01*
X157957857Y-96862857D01*
X157900714Y-96834285D01*
X157872143Y-96805714D01*
X157843571Y-96748571D01*
X157843571Y-96577143D01*
X157872143Y-96520000D01*
X157900714Y-96491428D01*
X158443571Y-97034286D02*
X157843571Y-97234286D01*
X158443571Y-97434286D01*
X153998571Y-95634285D02*
X153998571Y-96005714D01*
X153770000Y-95805714D01*
X153770000Y-95891428D01*
X153741429Y-95948571D01*
X153712857Y-95977142D01*
X153655714Y-96005714D01*
X153512857Y-96005714D01*
X153455714Y-95977142D01*
X153427143Y-95948571D01*
X153398571Y-95891428D01*
X153398571Y-95720000D01*
X153427143Y-95662857D01*
X153455714Y-95634285D01*
X153455714Y-96262857D02*
X153427143Y-96291429D01*
X153398571Y-96262857D01*
X153427143Y-96234286D01*
X153455714Y-96262857D01*
X153398571Y-96262857D01*
X153998571Y-96491428D02*
X153998571Y-96862857D01*
X153770000Y-96662857D01*
X153770000Y-96748571D01*
X153741429Y-96805714D01*
X153712857Y-96834285D01*
X153655714Y-96862857D01*
X153512857Y-96862857D01*
X153455714Y-96834285D01*
X153427143Y-96805714D01*
X153398571Y-96748571D01*
X153398571Y-96577143D01*
X153427143Y-96520000D01*
X153455714Y-96491428D01*
X153998571Y-97034286D02*
X153398571Y-97234286D01*
X153998571Y-97434286D01*
X149553571Y-95634285D02*
X149553571Y-96005714D01*
X149325000Y-95805714D01*
X149325000Y-95891428D01*
X149296429Y-95948571D01*
X149267857Y-95977142D01*
X149210714Y-96005714D01*
X149067857Y-96005714D01*
X149010714Y-95977142D01*
X148982143Y-95948571D01*
X148953571Y-95891428D01*
X148953571Y-95720000D01*
X148982143Y-95662857D01*
X149010714Y-95634285D01*
X149010714Y-96262857D02*
X148982143Y-96291429D01*
X148953571Y-96262857D01*
X148982143Y-96234286D01*
X149010714Y-96262857D01*
X148953571Y-96262857D01*
X149553571Y-96491428D02*
X149553571Y-96862857D01*
X149325000Y-96662857D01*
X149325000Y-96748571D01*
X149296429Y-96805714D01*
X149267857Y-96834285D01*
X149210714Y-96862857D01*
X149067857Y-96862857D01*
X149010714Y-96834285D01*
X148982143Y-96805714D01*
X148953571Y-96748571D01*
X148953571Y-96577143D01*
X148982143Y-96520000D01*
X149010714Y-96491428D01*
X149553571Y-97034286D02*
X148953571Y-97234286D01*
X149553571Y-97434286D01*
X145108571Y-95634285D02*
X145108571Y-96005714D01*
X144880000Y-95805714D01*
X144880000Y-95891428D01*
X144851429Y-95948571D01*
X144822857Y-95977142D01*
X144765714Y-96005714D01*
X144622857Y-96005714D01*
X144565714Y-95977142D01*
X144537143Y-95948571D01*
X144508571Y-95891428D01*
X144508571Y-95720000D01*
X144537143Y-95662857D01*
X144565714Y-95634285D01*
X144565714Y-96262857D02*
X144537143Y-96291429D01*
X144508571Y-96262857D01*
X144537143Y-96234286D01*
X144565714Y-96262857D01*
X144508571Y-96262857D01*
X145108571Y-96491428D02*
X145108571Y-96862857D01*
X144880000Y-96662857D01*
X144880000Y-96748571D01*
X144851429Y-96805714D01*
X144822857Y-96834285D01*
X144765714Y-96862857D01*
X144622857Y-96862857D01*
X144565714Y-96834285D01*
X144537143Y-96805714D01*
X144508571Y-96748571D01*
X144508571Y-96577143D01*
X144537143Y-96520000D01*
X144565714Y-96491428D01*
X145108571Y-97034286D02*
X144508571Y-97234286D01*
X145108571Y-97434286D01*
X171750000Y-101142858D02*
X171778571Y-101085715D01*
X171778571Y-101000001D01*
X171750000Y-100914286D01*
X171692857Y-100857144D01*
X171635714Y-100828572D01*
X171521429Y-100800001D01*
X171435714Y-100800001D01*
X171321429Y-100828572D01*
X171264286Y-100857144D01*
X171207143Y-100914286D01*
X171178571Y-101000001D01*
X171178571Y-101057144D01*
X171207143Y-101142858D01*
X171235714Y-101171429D01*
X171435714Y-101171429D01*
X171435714Y-101057144D01*
X171178571Y-101428572D02*
X171778571Y-101428572D01*
X171178571Y-101771429D01*
X171778571Y-101771429D01*
X171178571Y-102057143D02*
X171778571Y-102057143D01*
X171778571Y-102200000D01*
X171750000Y-102285715D01*
X171692857Y-102342857D01*
X171635714Y-102371429D01*
X171521429Y-102400000D01*
X171435714Y-102400000D01*
X171321429Y-102371429D01*
X171264286Y-102342857D01*
X171207143Y-102285715D01*
X171178571Y-102200000D01*
X171178571Y-102057143D01*
X167305000Y-101142858D02*
X167333571Y-101085715D01*
X167333571Y-101000001D01*
X167305000Y-100914286D01*
X167247857Y-100857144D01*
X167190714Y-100828572D01*
X167076429Y-100800001D01*
X166990714Y-100800001D01*
X166876429Y-100828572D01*
X166819286Y-100857144D01*
X166762143Y-100914286D01*
X166733571Y-101000001D01*
X166733571Y-101057144D01*
X166762143Y-101142858D01*
X166790714Y-101171429D01*
X166990714Y-101171429D01*
X166990714Y-101057144D01*
X166733571Y-101428572D02*
X167333571Y-101428572D01*
X166733571Y-101771429D01*
X167333571Y-101771429D01*
X166733571Y-102057143D02*
X167333571Y-102057143D01*
X167333571Y-102200000D01*
X167305000Y-102285715D01*
X167247857Y-102342857D01*
X167190714Y-102371429D01*
X167076429Y-102400000D01*
X166990714Y-102400000D01*
X166876429Y-102371429D01*
X166819286Y-102342857D01*
X166762143Y-102285715D01*
X166733571Y-102200000D01*
X166733571Y-102057143D01*
X162860000Y-101142858D02*
X162888571Y-101085715D01*
X162888571Y-101000001D01*
X162860000Y-100914286D01*
X162802857Y-100857144D01*
X162745714Y-100828572D01*
X162631429Y-100800001D01*
X162545714Y-100800001D01*
X162431429Y-100828572D01*
X162374286Y-100857144D01*
X162317143Y-100914286D01*
X162288571Y-101000001D01*
X162288571Y-101057144D01*
X162317143Y-101142858D01*
X162345714Y-101171429D01*
X162545714Y-101171429D01*
X162545714Y-101057144D01*
X162288571Y-101428572D02*
X162888571Y-101428572D01*
X162288571Y-101771429D01*
X162888571Y-101771429D01*
X162288571Y-102057143D02*
X162888571Y-102057143D01*
X162888571Y-102200000D01*
X162860000Y-102285715D01*
X162802857Y-102342857D01*
X162745714Y-102371429D01*
X162631429Y-102400000D01*
X162545714Y-102400000D01*
X162431429Y-102371429D01*
X162374286Y-102342857D01*
X162317143Y-102285715D01*
X162288571Y-102200000D01*
X162288571Y-102057143D01*
X158415000Y-101142858D02*
X158443571Y-101085715D01*
X158443571Y-101000001D01*
X158415000Y-100914286D01*
X158357857Y-100857144D01*
X158300714Y-100828572D01*
X158186429Y-100800001D01*
X158100714Y-100800001D01*
X157986429Y-100828572D01*
X157929286Y-100857144D01*
X157872143Y-100914286D01*
X157843571Y-101000001D01*
X157843571Y-101057144D01*
X157872143Y-101142858D01*
X157900714Y-101171429D01*
X158100714Y-101171429D01*
X158100714Y-101057144D01*
X157843571Y-101428572D02*
X158443571Y-101428572D01*
X157843571Y-101771429D01*
X158443571Y-101771429D01*
X157843571Y-102057143D02*
X158443571Y-102057143D01*
X158443571Y-102200000D01*
X158415000Y-102285715D01*
X158357857Y-102342857D01*
X158300714Y-102371429D01*
X158186429Y-102400000D01*
X158100714Y-102400000D01*
X157986429Y-102371429D01*
X157929286Y-102342857D01*
X157872143Y-102285715D01*
X157843571Y-102200000D01*
X157843571Y-102057143D01*
X153970000Y-101142858D02*
X153998571Y-101085715D01*
X153998571Y-101000001D01*
X153970000Y-100914286D01*
X153912857Y-100857144D01*
X153855714Y-100828572D01*
X153741429Y-100800001D01*
X153655714Y-100800001D01*
X153541429Y-100828572D01*
X153484286Y-100857144D01*
X153427143Y-100914286D01*
X153398571Y-101000001D01*
X153398571Y-101057144D01*
X153427143Y-101142858D01*
X153455714Y-101171429D01*
X153655714Y-101171429D01*
X153655714Y-101057144D01*
X153398571Y-101428572D02*
X153998571Y-101428572D01*
X153398571Y-101771429D01*
X153998571Y-101771429D01*
X153398571Y-102057143D02*
X153998571Y-102057143D01*
X153998571Y-102200000D01*
X153970000Y-102285715D01*
X153912857Y-102342857D01*
X153855714Y-102371429D01*
X153741429Y-102400000D01*
X153655714Y-102400000D01*
X153541429Y-102371429D01*
X153484286Y-102342857D01*
X153427143Y-102285715D01*
X153398571Y-102200000D01*
X153398571Y-102057143D01*
X149525000Y-101142858D02*
X149553571Y-101085715D01*
X149553571Y-101000001D01*
X149525000Y-100914286D01*
X149467857Y-100857144D01*
X149410714Y-100828572D01*
X149296429Y-100800001D01*
X149210714Y-100800001D01*
X149096429Y-100828572D01*
X149039286Y-100857144D01*
X148982143Y-100914286D01*
X148953571Y-101000001D01*
X148953571Y-101057144D01*
X148982143Y-101142858D01*
X149010714Y-101171429D01*
X149210714Y-101171429D01*
X149210714Y-101057144D01*
X148953571Y-101428572D02*
X149553571Y-101428572D01*
X148953571Y-101771429D01*
X149553571Y-101771429D01*
X148953571Y-102057143D02*
X149553571Y-102057143D01*
X149553571Y-102200000D01*
X149525000Y-102285715D01*
X149467857Y-102342857D01*
X149410714Y-102371429D01*
X149296429Y-102400000D01*
X149210714Y-102400000D01*
X149096429Y-102371429D01*
X149039286Y-102342857D01*
X148982143Y-102285715D01*
X148953571Y-102200000D01*
X148953571Y-102057143D01*
X145080000Y-101142858D02*
X145108571Y-101085715D01*
X145108571Y-101000001D01*
X145080000Y-100914286D01*
X145022857Y-100857144D01*
X144965714Y-100828572D01*
X144851429Y-100800001D01*
X144765714Y-100800001D01*
X144651429Y-100828572D01*
X144594286Y-100857144D01*
X144537143Y-100914286D01*
X144508571Y-101000001D01*
X144508571Y-101057144D01*
X144537143Y-101142858D01*
X144565714Y-101171429D01*
X144765714Y-101171429D01*
X144765714Y-101057144D01*
X144508571Y-101428572D02*
X145108571Y-101428572D01*
X144508571Y-101771429D01*
X145108571Y-101771429D01*
X144508571Y-102057143D02*
X145108571Y-102057143D01*
X145108571Y-102200000D01*
X145080000Y-102285715D01*
X145022857Y-102342857D01*
X144965714Y-102371429D01*
X144851429Y-102400000D01*
X144765714Y-102400000D01*
X144651429Y-102371429D01*
X144594286Y-102342857D01*
X144537143Y-102285715D01*
X144508571Y-102200000D01*
X144508571Y-102057143D01*
X166733571Y-98617143D02*
X167333571Y-98617143D01*
X167333571Y-98760000D01*
X167305000Y-98845715D01*
X167247857Y-98902857D01*
X167190714Y-98931429D01*
X167076429Y-98960000D01*
X166990714Y-98960000D01*
X166876429Y-98931429D01*
X166819286Y-98902857D01*
X166762143Y-98845715D01*
X166733571Y-98760000D01*
X166733571Y-98617143D01*
X167333571Y-99474286D02*
X167333571Y-99360000D01*
X167305000Y-99302857D01*
X167276429Y-99274286D01*
X167190714Y-99217143D01*
X167076429Y-99188572D01*
X166847857Y-99188572D01*
X166790714Y-99217143D01*
X166762143Y-99245715D01*
X166733571Y-99302857D01*
X166733571Y-99417143D01*
X166762143Y-99474286D01*
X166790714Y-99502857D01*
X166847857Y-99531429D01*
X166990714Y-99531429D01*
X167047857Y-99502857D01*
X167076429Y-99474286D01*
X167105000Y-99417143D01*
X167105000Y-99302857D01*
X167076429Y-99245715D01*
X167047857Y-99217143D01*
X166990714Y-99188572D01*
X171178571Y-98617143D02*
X171778571Y-98617143D01*
X171778571Y-98760000D01*
X171750000Y-98845715D01*
X171692857Y-98902857D01*
X171635714Y-98931429D01*
X171521429Y-98960000D01*
X171435714Y-98960000D01*
X171321429Y-98931429D01*
X171264286Y-98902857D01*
X171207143Y-98845715D01*
X171178571Y-98760000D01*
X171178571Y-98617143D01*
X171778571Y-99160000D02*
X171778571Y-99560000D01*
X171178571Y-99302857D01*
X162288571Y-98617143D02*
X162888571Y-98617143D01*
X162888571Y-98760000D01*
X162860000Y-98845715D01*
X162802857Y-98902857D01*
X162745714Y-98931429D01*
X162631429Y-98960000D01*
X162545714Y-98960000D01*
X162431429Y-98931429D01*
X162374286Y-98902857D01*
X162317143Y-98845715D01*
X162288571Y-98760000D01*
X162288571Y-98617143D01*
X162688571Y-99474286D02*
X162288571Y-99474286D01*
X162917143Y-99331429D02*
X162488571Y-99188572D01*
X162488571Y-99560000D01*
X158015000Y-98631429D02*
X158015000Y-98917143D01*
X157843571Y-98574286D02*
X158443571Y-98774286D01*
X157843571Y-98974286D01*
X158443571Y-99117143D02*
X158443571Y-99517143D01*
X157843571Y-99260000D01*
X153570000Y-98631429D02*
X153570000Y-98917143D01*
X153398571Y-98574286D02*
X153998571Y-98774286D01*
X153398571Y-98974286D01*
X153998571Y-99431429D02*
X153998571Y-99317143D01*
X153970000Y-99260000D01*
X153941429Y-99231429D01*
X153855714Y-99174286D01*
X153741429Y-99145715D01*
X153512857Y-99145715D01*
X153455714Y-99174286D01*
X153427143Y-99202858D01*
X153398571Y-99260000D01*
X153398571Y-99374286D01*
X153427143Y-99431429D01*
X153455714Y-99460000D01*
X153512857Y-99488572D01*
X153655714Y-99488572D01*
X153712857Y-99460000D01*
X153741429Y-99431429D01*
X153770000Y-99374286D01*
X153770000Y-99260000D01*
X153741429Y-99202858D01*
X153712857Y-99174286D01*
X153655714Y-99145715D01*
X149125000Y-98631429D02*
X149125000Y-98917143D01*
X148953571Y-98574286D02*
X149553571Y-98774286D01*
X148953571Y-98974286D01*
X148953571Y-99488572D02*
X148953571Y-99145715D01*
X148953571Y-99317143D02*
X149553571Y-99317143D01*
X149467857Y-99260000D01*
X149410714Y-99202858D01*
X149382143Y-99145715D01*
X144680000Y-98631429D02*
X144680000Y-98917143D01*
X144508571Y-98574286D02*
X145108571Y-98774286D01*
X144508571Y-98974286D01*
X145108571Y-99288572D02*
X145108571Y-99345715D01*
X145080000Y-99402858D01*
X145051429Y-99431429D01*
X144994286Y-99460000D01*
X144880000Y-99488572D01*
X144737143Y-99488572D01*
X144622857Y-99460000D01*
X144565714Y-99431429D01*
X144537143Y-99402858D01*
X144508571Y-99345715D01*
X144508571Y-99288572D01*
X144537143Y-99231429D01*
X144565714Y-99202858D01*
X144622857Y-99174286D01*
X144737143Y-99145715D01*
X144880000Y-99145715D01*
X144994286Y-99174286D01*
X145051429Y-99202858D01*
X145080000Y-99231429D01*
X145108571Y-99288572D01*
X180055000Y-94716667D02*
X180088333Y-94650001D01*
X180088333Y-94550001D01*
X180055000Y-94450001D01*
X179988333Y-94383334D01*
X179921667Y-94350001D01*
X179788333Y-94316667D01*
X179688333Y-94316667D01*
X179555000Y-94350001D01*
X179488333Y-94383334D01*
X179421667Y-94450001D01*
X179388333Y-94550001D01*
X179388333Y-94616667D01*
X179421667Y-94716667D01*
X179455000Y-94750001D01*
X179688333Y-94750001D01*
X179688333Y-94616667D01*
X179388333Y-95050001D02*
X180088333Y-95050001D01*
X179388333Y-95450001D01*
X180088333Y-95450001D01*
X179388333Y-95783334D02*
X180088333Y-95783334D01*
X180088333Y-95950000D01*
X180055000Y-96050000D01*
X179988333Y-96116667D01*
X179921667Y-96150000D01*
X179788333Y-96183334D01*
X179688333Y-96183334D01*
X179555000Y-96150000D01*
X179488333Y-96116667D01*
X179421667Y-96050000D01*
X179388333Y-95950000D01*
X179388333Y-95783334D01*
X177115000Y-112900000D02*
X177115000Y-113433333D01*
X176848333Y-113166666D02*
X177381667Y-113166666D01*
X177548333Y-113700000D02*
X177548333Y-114133333D01*
X177281667Y-113900000D01*
X177281667Y-114000000D01*
X177248333Y-114066667D01*
X177215000Y-114100000D01*
X177148333Y-114133333D01*
X176981667Y-114133333D01*
X176915000Y-114100000D01*
X176881667Y-114066667D01*
X176848333Y-114000000D01*
X176848333Y-113800000D01*
X176881667Y-113733333D01*
X176915000Y-113700000D01*
X176915000Y-114433334D02*
X176881667Y-114466667D01*
X176848333Y-114433334D01*
X176881667Y-114400000D01*
X176915000Y-114433334D01*
X176848333Y-114433334D01*
X177548333Y-114700000D02*
X177548333Y-115133333D01*
X177281667Y-114900000D01*
X177281667Y-115000000D01*
X177248333Y-115066667D01*
X177215000Y-115100000D01*
X177148333Y-115133333D01*
X176981667Y-115133333D01*
X176915000Y-115100000D01*
X176881667Y-115066667D01*
X176848333Y-115000000D01*
X176848333Y-114800000D01*
X176881667Y-114733333D01*
X176915000Y-114700000D01*
X177548333Y-115333334D02*
X176848333Y-115566667D01*
X177548333Y-115800000D01*
D11*
X179748571Y-91154286D02*
X179962857Y-91440000D01*
X179748571Y-91725715D01*
D10*
X158307143Y-119016429D02*
X158307143Y-118416429D01*
X158450000Y-118416429D01*
X158535715Y-118445000D01*
X158592857Y-118502143D01*
X158621429Y-118559286D01*
X158650000Y-118673571D01*
X158650000Y-118759286D01*
X158621429Y-118873571D01*
X158592857Y-118930714D01*
X158535715Y-118987857D01*
X158450000Y-119016429D01*
X158307143Y-119016429D01*
X158935715Y-119016429D02*
X159050000Y-119016429D01*
X159107143Y-118987857D01*
X159135715Y-118959286D01*
X159192857Y-118873571D01*
X159221429Y-118759286D01*
X159221429Y-118530714D01*
X159192857Y-118473571D01*
X159164286Y-118445000D01*
X159107143Y-118416429D01*
X158992857Y-118416429D01*
X158935715Y-118445000D01*
X158907143Y-118473571D01*
X158878572Y-118530714D01*
X158878572Y-118673571D01*
X158907143Y-118730714D01*
X158935715Y-118759286D01*
X158992857Y-118787857D01*
X159107143Y-118787857D01*
X159164286Y-118759286D01*
X159192857Y-118730714D01*
X159221429Y-118673571D01*
X147818572Y-118987857D02*
X147904286Y-119016429D01*
X148047143Y-119016429D01*
X148104286Y-118987857D01*
X148132857Y-118959286D01*
X148161429Y-118902143D01*
X148161429Y-118845000D01*
X148132857Y-118787857D01*
X148104286Y-118759286D01*
X148047143Y-118730714D01*
X147932857Y-118702143D01*
X147875715Y-118673571D01*
X147847143Y-118645000D01*
X147818572Y-118587857D01*
X147818572Y-118530714D01*
X147847143Y-118473571D01*
X147875715Y-118445000D01*
X147932857Y-118416429D01*
X148075715Y-118416429D01*
X148161429Y-118445000D01*
X148761429Y-118959286D02*
X148732858Y-118987857D01*
X148647144Y-119016429D01*
X148590001Y-119016429D01*
X148504286Y-118987857D01*
X148447144Y-118930714D01*
X148418572Y-118873571D01*
X148390001Y-118759286D01*
X148390001Y-118673571D01*
X148418572Y-118559286D01*
X148447144Y-118502143D01*
X148504286Y-118445000D01*
X148590001Y-118416429D01*
X148647144Y-118416429D01*
X148732858Y-118445000D01*
X148761429Y-118473571D01*
X149018572Y-119016429D02*
X149018572Y-118416429D01*
X149361429Y-119016429D02*
X149104286Y-118673571D01*
X149361429Y-118416429D02*
X149018572Y-118759286D01*
X150187143Y-119016429D02*
X150187143Y-118416429D01*
X150387143Y-118845000D01*
X150587143Y-118416429D01*
X150587143Y-119016429D01*
X150872857Y-119016429D02*
X150872857Y-118416429D01*
X151130000Y-118987857D02*
X151215714Y-119016429D01*
X151358571Y-119016429D01*
X151415714Y-118987857D01*
X151444285Y-118959286D01*
X151472857Y-118902143D01*
X151472857Y-118845000D01*
X151444285Y-118787857D01*
X151415714Y-118759286D01*
X151358571Y-118730714D01*
X151244285Y-118702143D01*
X151187143Y-118673571D01*
X151158571Y-118645000D01*
X151130000Y-118587857D01*
X151130000Y-118530714D01*
X151158571Y-118473571D01*
X151187143Y-118445000D01*
X151244285Y-118416429D01*
X151387143Y-118416429D01*
X151472857Y-118445000D01*
X151844286Y-118416429D02*
X151958572Y-118416429D01*
X152015714Y-118445000D01*
X152072857Y-118502143D01*
X152101429Y-118616429D01*
X152101429Y-118816429D01*
X152072857Y-118930714D01*
X152015714Y-118987857D01*
X151958572Y-119016429D01*
X151844286Y-119016429D01*
X151787143Y-118987857D01*
X151730000Y-118930714D01*
X151701429Y-118816429D01*
X151701429Y-118616429D01*
X151730000Y-118502143D01*
X151787143Y-118445000D01*
X151844286Y-118416429D01*
X152727143Y-119016429D02*
X152727143Y-118416429D01*
X152927143Y-118845000D01*
X153127143Y-118416429D01*
X153127143Y-119016429D01*
X153527143Y-118416429D02*
X153641429Y-118416429D01*
X153698571Y-118445000D01*
X153755714Y-118502143D01*
X153784286Y-118616429D01*
X153784286Y-118816429D01*
X153755714Y-118930714D01*
X153698571Y-118987857D01*
X153641429Y-119016429D01*
X153527143Y-119016429D01*
X153470000Y-118987857D01*
X153412857Y-118930714D01*
X153384286Y-118816429D01*
X153384286Y-118616429D01*
X153412857Y-118502143D01*
X153470000Y-118445000D01*
X153527143Y-118416429D01*
X154012857Y-118987857D02*
X154098571Y-119016429D01*
X154241428Y-119016429D01*
X154298571Y-118987857D01*
X154327142Y-118959286D01*
X154355714Y-118902143D01*
X154355714Y-118845000D01*
X154327142Y-118787857D01*
X154298571Y-118759286D01*
X154241428Y-118730714D01*
X154127142Y-118702143D01*
X154070000Y-118673571D01*
X154041428Y-118645000D01*
X154012857Y-118587857D01*
X154012857Y-118530714D01*
X154041428Y-118473571D01*
X154070000Y-118445000D01*
X154127142Y-118416429D01*
X154270000Y-118416429D01*
X154355714Y-118445000D01*
X154612857Y-119016429D02*
X154612857Y-118416429D01*
X155881428Y-119016429D02*
X155681428Y-118730714D01*
X155538571Y-119016429D02*
X155538571Y-118416429D01*
X155767143Y-118416429D01*
X155824285Y-118445000D01*
X155852857Y-118473571D01*
X155881428Y-118530714D01*
X155881428Y-118616429D01*
X155852857Y-118673571D01*
X155824285Y-118702143D01*
X155767143Y-118730714D01*
X155538571Y-118730714D01*
X156110000Y-118987857D02*
X156195714Y-119016429D01*
X156338571Y-119016429D01*
X156395714Y-118987857D01*
X156424285Y-118959286D01*
X156452857Y-118902143D01*
X156452857Y-118845000D01*
X156424285Y-118787857D01*
X156395714Y-118759286D01*
X156338571Y-118730714D01*
X156224285Y-118702143D01*
X156167143Y-118673571D01*
X156138571Y-118645000D01*
X156110000Y-118587857D01*
X156110000Y-118530714D01*
X156138571Y-118473571D01*
X156167143Y-118445000D01*
X156224285Y-118416429D01*
X156367143Y-118416429D01*
X156452857Y-118445000D01*
X156624286Y-118416429D02*
X156967143Y-118416429D01*
X156795714Y-119016429D02*
X156795714Y-118416429D01*
X160847143Y-119016429D02*
X160847143Y-118416429D01*
X160990000Y-118416429D01*
X161075715Y-118445000D01*
X161132857Y-118502143D01*
X161161429Y-118559286D01*
X161190000Y-118673571D01*
X161190000Y-118759286D01*
X161161429Y-118873571D01*
X161132857Y-118930714D01*
X161075715Y-118987857D01*
X160990000Y-119016429D01*
X160847143Y-119016429D01*
X161532857Y-118673571D02*
X161475715Y-118645000D01*
X161447143Y-118616429D01*
X161418572Y-118559286D01*
X161418572Y-118530714D01*
X161447143Y-118473571D01*
X161475715Y-118445000D01*
X161532857Y-118416429D01*
X161647143Y-118416429D01*
X161704286Y-118445000D01*
X161732857Y-118473571D01*
X161761429Y-118530714D01*
X161761429Y-118559286D01*
X161732857Y-118616429D01*
X161704286Y-118645000D01*
X161647143Y-118673571D01*
X161532857Y-118673571D01*
X161475715Y-118702143D01*
X161447143Y-118730714D01*
X161418572Y-118787857D01*
X161418572Y-118902143D01*
X161447143Y-118959286D01*
X161475715Y-118987857D01*
X161532857Y-119016429D01*
X161647143Y-119016429D01*
X161704286Y-118987857D01*
X161732857Y-118959286D01*
X161761429Y-118902143D01*
X161761429Y-118787857D01*
X161732857Y-118730714D01*
X161704286Y-118702143D01*
X161647143Y-118673571D01*
X163387143Y-119016429D02*
X163387143Y-118416429D01*
X163530000Y-118416429D01*
X163615715Y-118445000D01*
X163672857Y-118502143D01*
X163701429Y-118559286D01*
X163730000Y-118673571D01*
X163730000Y-118759286D01*
X163701429Y-118873571D01*
X163672857Y-118930714D01*
X163615715Y-118987857D01*
X163530000Y-119016429D01*
X163387143Y-119016429D01*
X163930000Y-118416429D02*
X164330000Y-118416429D01*
X164072857Y-119016429D01*
X165927143Y-119016429D02*
X165927143Y-118416429D01*
X166070000Y-118416429D01*
X166155715Y-118445000D01*
X166212857Y-118502143D01*
X166241429Y-118559286D01*
X166270000Y-118673571D01*
X166270000Y-118759286D01*
X166241429Y-118873571D01*
X166212857Y-118930714D01*
X166155715Y-118987857D01*
X166070000Y-119016429D01*
X165927143Y-119016429D01*
X166784286Y-118416429D02*
X166670000Y-118416429D01*
X166612857Y-118445000D01*
X166584286Y-118473571D01*
X166527143Y-118559286D01*
X166498572Y-118673571D01*
X166498572Y-118902143D01*
X166527143Y-118959286D01*
X166555715Y-118987857D01*
X166612857Y-119016429D01*
X166727143Y-119016429D01*
X166784286Y-118987857D01*
X166812857Y-118959286D01*
X166841429Y-118902143D01*
X166841429Y-118759286D01*
X166812857Y-118702143D01*
X166784286Y-118673571D01*
X166727143Y-118645000D01*
X166612857Y-118645000D01*
X166555715Y-118673571D01*
X166527143Y-118702143D01*
X166498572Y-118759286D01*
X168467143Y-119016429D02*
X168467143Y-118416429D01*
X168610000Y-118416429D01*
X168695715Y-118445000D01*
X168752857Y-118502143D01*
X168781429Y-118559286D01*
X168810000Y-118673571D01*
X168810000Y-118759286D01*
X168781429Y-118873571D01*
X168752857Y-118930714D01*
X168695715Y-118987857D01*
X168610000Y-119016429D01*
X168467143Y-119016429D01*
X169352857Y-118416429D02*
X169067143Y-118416429D01*
X169038572Y-118702143D01*
X169067143Y-118673571D01*
X169124286Y-118645000D01*
X169267143Y-118645000D01*
X169324286Y-118673571D01*
X169352857Y-118702143D01*
X169381429Y-118759286D01*
X169381429Y-118902143D01*
X169352857Y-118959286D01*
X169324286Y-118987857D01*
X169267143Y-119016429D01*
X169124286Y-119016429D01*
X169067143Y-118987857D01*
X169038572Y-118959286D01*
X170992858Y-118445000D02*
X170935715Y-118416429D01*
X170850001Y-118416429D01*
X170764286Y-118445000D01*
X170707144Y-118502143D01*
X170678572Y-118559286D01*
X170650001Y-118673571D01*
X170650001Y-118759286D01*
X170678572Y-118873571D01*
X170707144Y-118930714D01*
X170764286Y-118987857D01*
X170850001Y-119016429D01*
X170907144Y-119016429D01*
X170992858Y-118987857D01*
X171021429Y-118959286D01*
X171021429Y-118759286D01*
X170907144Y-118759286D01*
X171278572Y-119016429D02*
X171278572Y-118416429D01*
X171621429Y-119016429D01*
X171621429Y-118416429D01*
X171907143Y-119016429D02*
X171907143Y-118416429D01*
X172050000Y-118416429D01*
X172135715Y-118445000D01*
X172192857Y-118502143D01*
X172221429Y-118559286D01*
X172250000Y-118673571D01*
X172250000Y-118759286D01*
X172221429Y-118873571D01*
X172192857Y-118930714D01*
X172135715Y-118987857D01*
X172050000Y-119016429D01*
X171907143Y-119016429D01*
X173104285Y-118416429D02*
X173475714Y-118416429D01*
X173275714Y-118645000D01*
X173361428Y-118645000D01*
X173418571Y-118673571D01*
X173447142Y-118702143D01*
X173475714Y-118759286D01*
X173475714Y-118902143D01*
X173447142Y-118959286D01*
X173418571Y-118987857D01*
X173361428Y-119016429D01*
X173190000Y-119016429D01*
X173132857Y-118987857D01*
X173104285Y-118959286D01*
X173732857Y-118959286D02*
X173761429Y-118987857D01*
X173732857Y-119016429D01*
X173704286Y-118987857D01*
X173732857Y-118959286D01*
X173732857Y-119016429D01*
X173961428Y-118416429D02*
X174332857Y-118416429D01*
X174132857Y-118645000D01*
X174218571Y-118645000D01*
X174275714Y-118673571D01*
X174304285Y-118702143D01*
X174332857Y-118759286D01*
X174332857Y-118902143D01*
X174304285Y-118959286D01*
X174275714Y-118987857D01*
X174218571Y-119016429D01*
X174047143Y-119016429D01*
X173990000Y-118987857D01*
X173961428Y-118959286D01*
X174504286Y-118416429D02*
X174704286Y-119016429D01*
X174904286Y-118416429D01*
X148161429Y-93445000D02*
X148447143Y-93445000D01*
X148104286Y-93616429D02*
X148304286Y-93016429D01*
X148504286Y-93616429D01*
X148818572Y-93016429D02*
X148875715Y-93016429D01*
X148932858Y-93045000D01*
X148961429Y-93073571D01*
X148990000Y-93130714D01*
X149018572Y-93245000D01*
X149018572Y-93387857D01*
X148990000Y-93502143D01*
X148961429Y-93559286D01*
X148932858Y-93587857D01*
X148875715Y-93616429D01*
X148818572Y-93616429D01*
X148761429Y-93587857D01*
X148732858Y-93559286D01*
X148704286Y-93502143D01*
X148675715Y-93387857D01*
X148675715Y-93245000D01*
X148704286Y-93130714D01*
X148732858Y-93073571D01*
X148761429Y-93045000D01*
X148818572Y-93016429D01*
X150701429Y-93445000D02*
X150987143Y-93445000D01*
X150644286Y-93616429D02*
X150844286Y-93016429D01*
X151044286Y-93616429D01*
X151558572Y-93616429D02*
X151215715Y-93616429D01*
X151387143Y-93616429D02*
X151387143Y-93016429D01*
X151330000Y-93102143D01*
X151272858Y-93159286D01*
X151215715Y-93187857D01*
X153241429Y-93445000D02*
X153527143Y-93445000D01*
X153184286Y-93616429D02*
X153384286Y-93016429D01*
X153584286Y-93616429D01*
X153727143Y-93016429D02*
X154098572Y-93016429D01*
X153898572Y-93245000D01*
X153984286Y-93245000D01*
X154041429Y-93273571D01*
X154070000Y-93302143D01*
X154098572Y-93359286D01*
X154098572Y-93502143D01*
X154070000Y-93559286D01*
X154041429Y-93587857D01*
X153984286Y-93616429D01*
X153812858Y-93616429D01*
X153755715Y-93587857D01*
X153727143Y-93559286D01*
X155781429Y-93445000D02*
X156067143Y-93445000D01*
X155724286Y-93616429D02*
X155924286Y-93016429D01*
X156124286Y-93616429D01*
X156581429Y-93216429D02*
X156581429Y-93616429D01*
X156438572Y-92987857D02*
X156295715Y-93416429D01*
X156667143Y-93416429D01*
X158321429Y-93445000D02*
X158607143Y-93445000D01*
X158264286Y-93616429D02*
X158464286Y-93016429D01*
X158664286Y-93616429D01*
X159150000Y-93016429D02*
X158864286Y-93016429D01*
X158835715Y-93302143D01*
X158864286Y-93273571D01*
X158921429Y-93245000D01*
X159064286Y-93245000D01*
X159121429Y-93273571D01*
X159150000Y-93302143D01*
X159178572Y-93359286D01*
X159178572Y-93502143D01*
X159150000Y-93559286D01*
X159121429Y-93587857D01*
X159064286Y-93616429D01*
X158921429Y-93616429D01*
X158864286Y-93587857D01*
X158835715Y-93559286D01*
X176087143Y-93616429D02*
X176087143Y-93016429D01*
X176230000Y-93016429D01*
X176315715Y-93045000D01*
X176372857Y-93102143D01*
X176401429Y-93159286D01*
X176430000Y-93273571D01*
X176430000Y-93359286D01*
X176401429Y-93473571D01*
X176372857Y-93530714D01*
X176315715Y-93587857D01*
X176230000Y-93616429D01*
X176087143Y-93616429D01*
X176944286Y-93216429D02*
X176944286Y-93616429D01*
X176801429Y-92987857D02*
X176658572Y-93416429D01*
X177030000Y-93416429D01*
X173547143Y-93616429D02*
X173547143Y-93016429D01*
X173690000Y-93016429D01*
X173775715Y-93045000D01*
X173832857Y-93102143D01*
X173861429Y-93159286D01*
X173890000Y-93273571D01*
X173890000Y-93359286D01*
X173861429Y-93473571D01*
X173832857Y-93530714D01*
X173775715Y-93587857D01*
X173690000Y-93616429D01*
X173547143Y-93616429D01*
X174090000Y-93016429D02*
X174461429Y-93016429D01*
X174261429Y-93245000D01*
X174347143Y-93245000D01*
X174404286Y-93273571D01*
X174432857Y-93302143D01*
X174461429Y-93359286D01*
X174461429Y-93502143D01*
X174432857Y-93559286D01*
X174404286Y-93587857D01*
X174347143Y-93616429D01*
X174175715Y-93616429D01*
X174118572Y-93587857D01*
X174090000Y-93559286D01*
X171007143Y-93616429D02*
X171007143Y-93016429D01*
X171150000Y-93016429D01*
X171235715Y-93045000D01*
X171292857Y-93102143D01*
X171321429Y-93159286D01*
X171350000Y-93273571D01*
X171350000Y-93359286D01*
X171321429Y-93473571D01*
X171292857Y-93530714D01*
X171235715Y-93587857D01*
X171150000Y-93616429D01*
X171007143Y-93616429D01*
X171578572Y-93073571D02*
X171607143Y-93045000D01*
X171664286Y-93016429D01*
X171807143Y-93016429D01*
X171864286Y-93045000D01*
X171892857Y-93073571D01*
X171921429Y-93130714D01*
X171921429Y-93187857D01*
X171892857Y-93273571D01*
X171550000Y-93616429D01*
X171921429Y-93616429D01*
X168452857Y-93016429D02*
X168795714Y-93016429D01*
X168624285Y-93616429D02*
X168624285Y-93016429D01*
X168938571Y-93016429D02*
X169338571Y-93616429D01*
X169338571Y-93016429D02*
X168938571Y-93616429D01*
X166270000Y-93616429D02*
X166070000Y-93330714D01*
X165927143Y-93616429D02*
X165927143Y-93016429D01*
X166155715Y-93016429D01*
X166212857Y-93045000D01*
X166241429Y-93073571D01*
X166270000Y-93130714D01*
X166270000Y-93216429D01*
X166241429Y-93273571D01*
X166212857Y-93302143D01*
X166155715Y-93330714D01*
X165927143Y-93330714D01*
X166470000Y-93016429D02*
X166870000Y-93616429D01*
X166870000Y-93016429D02*
X166470000Y-93616429D01*
X163401429Y-93445000D02*
X163687143Y-93445000D01*
X163344286Y-93616429D02*
X163544286Y-93016429D01*
X163744286Y-93616429D01*
X163887143Y-93016429D02*
X164287143Y-93016429D01*
X164030000Y-93616429D01*
X160861429Y-93445000D02*
X161147143Y-93445000D01*
X160804286Y-93616429D02*
X161004286Y-93016429D01*
X161204286Y-93616429D01*
X161661429Y-93016429D02*
X161547143Y-93016429D01*
X161490000Y-93045000D01*
X161461429Y-93073571D01*
X161404286Y-93159286D01*
X161375715Y-93273571D01*
X161375715Y-93502143D01*
X161404286Y-93559286D01*
X161432858Y-93587857D01*
X161490000Y-93616429D01*
X161604286Y-93616429D01*
X161661429Y-93587857D01*
X161690000Y-93559286D01*
X161718572Y-93502143D01*
X161718572Y-93359286D01*
X161690000Y-93302143D01*
X161661429Y-93273571D01*
X161604286Y-93245000D01*
X161490000Y-93245000D01*
X161432858Y-93273571D01*
X161404286Y-93302143D01*
X161375715Y-93359286D01*
X180055000Y-113766667D02*
X180088333Y-113700001D01*
X180088333Y-113600001D01*
X180055000Y-113500001D01*
X179988333Y-113433334D01*
X179921667Y-113400001D01*
X179788333Y-113366667D01*
X179688333Y-113366667D01*
X179555000Y-113400001D01*
X179488333Y-113433334D01*
X179421667Y-113500001D01*
X179388333Y-113600001D01*
X179388333Y-113666667D01*
X179421667Y-113766667D01*
X179455000Y-113800001D01*
X179688333Y-113800001D01*
X179688333Y-113666667D01*
X179388333Y-114100001D02*
X180088333Y-114100001D01*
X179388333Y-114500001D01*
X180088333Y-114500001D01*
X179388333Y-114833334D02*
X180088333Y-114833334D01*
X180088333Y-115000000D01*
X180055000Y-115100000D01*
X179988333Y-115166667D01*
X179921667Y-115200000D01*
X179788333Y-115233334D01*
X179688333Y-115233334D01*
X179555000Y-115200000D01*
X179488333Y-115166667D01*
X179421667Y-115100000D01*
X179388333Y-115000000D01*
X179388333Y-114833334D01*
X147220000Y-110537858D02*
X147220000Y-110823572D01*
X147048571Y-110480715D02*
X147648571Y-110680715D01*
X147048571Y-110880715D01*
X147048571Y-111366429D02*
X147048571Y-111080715D01*
X147648571Y-111080715D01*
X147648571Y-111680715D02*
X147648571Y-111795001D01*
X147620000Y-111852143D01*
X147562857Y-111909286D01*
X147448571Y-111937858D01*
X147248571Y-111937858D01*
X147134286Y-111909286D01*
X147077143Y-111852143D01*
X147048571Y-111795001D01*
X147048571Y-111680715D01*
X147077143Y-111623572D01*
X147134286Y-111566429D01*
X147248571Y-111537858D01*
X147448571Y-111537858D01*
X147562857Y-111566429D01*
X147620000Y-111623572D01*
X147648571Y-111680715D01*
X147362857Y-112195000D02*
X147362857Y-112395000D01*
X147048571Y-112480714D02*
X147048571Y-112195000D01*
X147648571Y-112195000D01*
X147648571Y-112480714D01*
X147077143Y-112709286D02*
X147048571Y-112795000D01*
X147048571Y-112937857D01*
X147077143Y-112995000D01*
X147105714Y-113023571D01*
X147162857Y-113052143D01*
X147220000Y-113052143D01*
X147277143Y-113023571D01*
X147305714Y-112995000D01*
X147334286Y-112937857D01*
X147362857Y-112823571D01*
X147391429Y-112766429D01*
X147420000Y-112737857D01*
X147477143Y-112709286D01*
X147534286Y-112709286D01*
X147591429Y-112737857D01*
X147620000Y-112766429D01*
X147648571Y-112823571D01*
X147648571Y-112966429D01*
X147620000Y-113052143D01*
X147105714Y-113309286D02*
X147077143Y-113337858D01*
X147048571Y-113309286D01*
X147077143Y-113280715D01*
X147105714Y-113309286D01*
X147048571Y-113309286D01*
X147048571Y-113595000D02*
X147648571Y-113595000D01*
X147648571Y-113995000D02*
X147648571Y-114109286D01*
X147620000Y-114166428D01*
X147562857Y-114223571D01*
X147448571Y-114252143D01*
X147248571Y-114252143D01*
X147134286Y-114223571D01*
X147077143Y-114166428D01*
X147048571Y-114109286D01*
X147048571Y-113995000D01*
X147077143Y-113937857D01*
X147134286Y-113880714D01*
X147248571Y-113852143D01*
X147448571Y-113852143D01*
X147562857Y-113880714D01*
X147620000Y-113937857D01*
X147648571Y-113995000D01*
X175715714Y-118702143D02*
X175801428Y-118730714D01*
X175830000Y-118759286D01*
X175858571Y-118816429D01*
X175858571Y-118902143D01*
X175830000Y-118959286D01*
X175801428Y-118987857D01*
X175744286Y-119016429D01*
X175515714Y-119016429D01*
X175515714Y-118416429D01*
X175715714Y-118416429D01*
X175772857Y-118445000D01*
X175801428Y-118473571D01*
X175830000Y-118530714D01*
X175830000Y-118587857D01*
X175801428Y-118645000D01*
X175772857Y-118673571D01*
X175715714Y-118702143D01*
X175515714Y-118702143D01*
X176087143Y-118845000D02*
X176372857Y-118845000D01*
X176030000Y-119016429D02*
X176230000Y-118416429D01*
X176430000Y-119016429D01*
X176544286Y-118416429D02*
X176887143Y-118416429D01*
X176715714Y-119016429D02*
X176715714Y-118416429D01*
X177087143Y-118787857D02*
X177544286Y-118787857D01*
X177315715Y-119016429D02*
X177315715Y-118559286D01*
D12*
X163135000Y-102930000D02*
X165795000Y-102930000D01*
X163135000Y-97790000D02*
X163135000Y-102930000D01*
X165795000Y-97790000D02*
X165795000Y-102930000D01*
X163135000Y-97790000D02*
X165795000Y-97790000D01*
X163135000Y-96520000D02*
X163135000Y-95190000D01*
X163135000Y-95190000D02*
X164465000Y-95190000D01*
X172025000Y-102930000D02*
X174685000Y-102930000D01*
X172025000Y-97790000D02*
X172025000Y-102930000D01*
X174685000Y-97790000D02*
X174685000Y-102930000D01*
X172025000Y-97790000D02*
X174685000Y-97790000D01*
X172025000Y-96520000D02*
X172025000Y-95190000D01*
X172025000Y-95190000D02*
X173355000Y-95190000D01*
X167580000Y-102930000D02*
X170240000Y-102930000D01*
X167580000Y-97790000D02*
X167580000Y-102930000D01*
X170240000Y-97790000D02*
X170240000Y-102930000D01*
X167580000Y-97790000D02*
X170240000Y-97790000D01*
X167580000Y-96520000D02*
X167580000Y-95190000D01*
X167580000Y-95190000D02*
X168910000Y-95190000D01*
D13*
G36*
X149114874Y-107305055D02*
X149114780Y-107396325D01*
X149114581Y-107473284D01*
X149114240Y-107537242D01*
X149113716Y-107589511D01*
X149112973Y-107631401D01*
X149111972Y-107664224D01*
X149110675Y-107689291D01*
X149109043Y-107707912D01*
X149107038Y-107721399D01*
X149104621Y-107731062D01*
X149101755Y-107738213D01*
X149098970Y-107743242D01*
X149073360Y-107770972D01*
X149040607Y-107785062D01*
X149004557Y-107783969D01*
X149000338Y-107782789D01*
X148984051Y-107775767D01*
X148955909Y-107761474D01*
X148918215Y-107741244D01*
X148873275Y-107716410D01*
X148823394Y-107688305D01*
X148770876Y-107658261D01*
X148718027Y-107627612D01*
X148667152Y-107597691D01*
X148620555Y-107569830D01*
X148580542Y-107545362D01*
X148549417Y-107525621D01*
X148529485Y-107511939D01*
X148523963Y-107507306D01*
X148517887Y-107499936D01*
X148513202Y-107490884D01*
X148509633Y-107477821D01*
X148506904Y-107458415D01*
X148504739Y-107430336D01*
X148502862Y-107391254D01*
X148500996Y-107338837D01*
X148499892Y-107304015D01*
X148498078Y-107250299D01*
X148496196Y-107202776D01*
X148494365Y-107163879D01*
X148492704Y-107136038D01*
X148491334Y-107121687D01*
X148490879Y-107120267D01*
X148482795Y-107124277D01*
X148462651Y-107135342D01*
X148433032Y-107152012D01*
X148396523Y-107172838D01*
X148373846Y-107185883D01*
X148260116Y-107251500D01*
X148259800Y-107641814D01*
X148451614Y-107751127D01*
X148504451Y-107781619D01*
X148553270Y-107810512D01*
X148595851Y-107836435D01*
X148629973Y-107858016D01*
X148653414Y-107873883D01*
X148663281Y-107881850D01*
X148683133Y-107903260D01*
X148683133Y-108971145D01*
X148655213Y-108998206D01*
X148641387Y-109010806D01*
X148628113Y-109019833D01*
X148613731Y-109024741D01*
X148596583Y-109024984D01*
X148575008Y-109020015D01*
X148547346Y-109009289D01*
X148511939Y-108992259D01*
X148467128Y-108968378D01*
X148411251Y-108937102D01*
X148342651Y-108897883D01*
X148332266Y-108891917D01*
X148260727Y-108850480D01*
X148203021Y-108816294D01*
X148158034Y-108788646D01*
X148124657Y-108766824D01*
X148101778Y-108750115D01*
X148088284Y-108737805D01*
X148084765Y-108733167D01*
X148079390Y-108722296D01*
X148075229Y-108707977D01*
X148072045Y-108687779D01*
X148069599Y-108659271D01*
X148067652Y-108620023D01*
X148065965Y-108567603D01*
X148065066Y-108532450D01*
X148060833Y-108357132D01*
X147944417Y-108425318D01*
X147828000Y-108493504D01*
X147826923Y-108647202D01*
X147826239Y-108705142D01*
X147825051Y-108765283D01*
X147823496Y-108822317D01*
X147821709Y-108870938D01*
X147820573Y-108894033D01*
X147815300Y-108987167D01*
X147768733Y-109017919D01*
X147748494Y-109030723D01*
X147716213Y-109050461D01*
X147674497Y-109075571D01*
X147625952Y-109104489D01*
X147573186Y-109135655D01*
X147532116Y-109159736D01*
X147472585Y-109194327D01*
X147425584Y-109221080D01*
X147389169Y-109240950D01*
X147361399Y-109254891D01*
X147340332Y-109263858D01*
X147324026Y-109268805D01*
X147310539Y-109270688D01*
X147306200Y-109270800D01*
X147297328Y-109270035D01*
X147286218Y-109267323D01*
X147271709Y-109262046D01*
X147252640Y-109253581D01*
X147227851Y-109241307D01*
X147196181Y-109224602D01*
X147156470Y-109202847D01*
X147107558Y-109175420D01*
X147048283Y-109141699D01*
X146977486Y-109101064D01*
X146894005Y-109052893D01*
X146831617Y-109016799D01*
X146749323Y-108968951D01*
X146671941Y-108923564D01*
X146600729Y-108881399D01*
X146536945Y-108843220D01*
X146481845Y-108809787D01*
X146436688Y-108781862D01*
X146402732Y-108760207D01*
X146381233Y-108745585D01*
X146373892Y-108739515D01*
X146358092Y-108707645D01*
X146356309Y-108671289D01*
X146368658Y-108636120D01*
X146379071Y-108625173D01*
X146400977Y-108608632D01*
X146435089Y-108586042D01*
X146482118Y-108556949D01*
X146542776Y-108520900D01*
X146612800Y-108480297D01*
X146679241Y-108442278D01*
X146732817Y-108412077D01*
X146775210Y-108388855D01*
X146808105Y-108371768D01*
X146833187Y-108359974D01*
X146852140Y-108352633D01*
X146866648Y-108348902D01*
X146877608Y-108347934D01*
X146893666Y-108349515D01*
X146912719Y-108355029D01*
X146937310Y-108365631D01*
X146969983Y-108382477D01*
X147013278Y-108406723D01*
X147036675Y-108420221D01*
X147079787Y-108445156D01*
X147119459Y-108467935D01*
X147152660Y-108486832D01*
X147176356Y-108500117D01*
X147185575Y-108505105D01*
X147209933Y-108517702D01*
X147209671Y-108242100D01*
X147017185Y-108132034D01*
X146964343Y-108101465D01*
X146915562Y-108072580D01*
X146873044Y-108046734D01*
X146838988Y-108025283D01*
X146815595Y-108009584D01*
X146805650Y-108001681D01*
X146800506Y-107995894D01*
X146796385Y-107989455D01*
X146793176Y-107980555D01*
X146790769Y-107967388D01*
X146789052Y-107948145D01*
X146787915Y-107921020D01*
X146787247Y-107884205D01*
X146786936Y-107835892D01*
X146786871Y-107774276D01*
X146786943Y-107697547D01*
X146786944Y-107696881D01*
X146787288Y-107412367D01*
X146810227Y-107386362D01*
X146824579Y-107374286D01*
X146851120Y-107355938D01*
X146887616Y-107332588D01*
X146931833Y-107305505D01*
X146981538Y-107275960D01*
X147034496Y-107245223D01*
X147088473Y-107214564D01*
X147141236Y-107185253D01*
X147190550Y-107158560D01*
X147234182Y-107135754D01*
X147269899Y-107118107D01*
X147295464Y-107106887D01*
X147308069Y-107103333D01*
X147334234Y-107110049D01*
X147363434Y-107128368D01*
X147364637Y-107129350D01*
X147396200Y-107155366D01*
X147397119Y-107351600D01*
X147397622Y-107410847D01*
X147398521Y-107467357D01*
X147399730Y-107517931D01*
X147401168Y-107559369D01*
X147402752Y-107588473D01*
X147403469Y-107596508D01*
X147408900Y-107645182D01*
X147525317Y-107712079D01*
X147641733Y-107778975D01*
X147641733Y-107004953D01*
X147475207Y-106909501D01*
X147420621Y-106878398D01*
X147378649Y-106855036D01*
X147347342Y-106838509D01*
X147324754Y-106827912D01*
X147308937Y-106822340D01*
X147297945Y-106820888D01*
X147289830Y-106822651D01*
X147289088Y-106822975D01*
X147276517Y-106829611D01*
X147251584Y-106843522D01*
X147216541Y-106863425D01*
X147173638Y-106888036D01*
X147125124Y-106916073D01*
X147087427Y-106937984D01*
X147022704Y-106975225D01*
X146971091Y-107003830D01*
X146931480Y-107024361D01*
X146902762Y-107037382D01*
X146883831Y-107043452D01*
X146878268Y-107044067D01*
X146867205Y-107042742D01*
X146852421Y-107038294D01*
X146832592Y-107030016D01*
X146806389Y-107017198D01*
X146772488Y-106999131D01*
X146729561Y-106975108D01*
X146676282Y-106944419D01*
X146611325Y-106906356D01*
X146533363Y-106860210D01*
X146526496Y-106856130D01*
X146480052Y-106828028D01*
X146438372Y-106801845D01*
X146403760Y-106779106D01*
X146378519Y-106761337D01*
X146364953Y-106750064D01*
X146363512Y-106748193D01*
X146356064Y-106720518D01*
X146356918Y-106687208D01*
X146365746Y-106657195D01*
X146366952Y-106654903D01*
X146378713Y-106643321D01*
X146405009Y-106624381D01*
X146445300Y-106598430D01*
X146499040Y-106565815D01*
X146565689Y-106526882D01*
X146580435Y-106518417D01*
X146782366Y-106402795D01*
X146784690Y-106261520D01*
X146787014Y-106120244D01*
X146750823Y-106141435D01*
X146735651Y-106150260D01*
X146707603Y-106166513D01*
X146668467Y-106189162D01*
X146620033Y-106217170D01*
X146564091Y-106249504D01*
X146502430Y-106285128D01*
X146436840Y-106323009D01*
X146414066Y-106336158D01*
X146113500Y-106509689D01*
X146111381Y-106702795D01*
X146109262Y-106895900D01*
X146308918Y-107009858D01*
X146369704Y-107045063D01*
X146422706Y-107076781D01*
X146466363Y-107104023D01*
X146499116Y-107125801D01*
X146519406Y-107141127D01*
X146524820Y-107146631D01*
X146528151Y-107151886D01*
X146530993Y-107158438D01*
X146533385Y-107167585D01*
X146535366Y-107180626D01*
X146536974Y-107198861D01*
X146538249Y-107223588D01*
X146539227Y-107256106D01*
X146539950Y-107297714D01*
X146540454Y-107349709D01*
X146540779Y-107413392D01*
X146540964Y-107490061D01*
X146541047Y-107581015D01*
X146541066Y-107687552D01*
X146541066Y-107692074D01*
X146541050Y-107799214D01*
X146540975Y-107890730D01*
X146540801Y-107967932D01*
X146540489Y-108032131D01*
X146539999Y-108084636D01*
X146539290Y-108126757D01*
X146538323Y-108159804D01*
X146537059Y-108185087D01*
X146535457Y-108203916D01*
X146533478Y-108217600D01*
X146531082Y-108227450D01*
X146528229Y-108234776D01*
X146524879Y-108240887D01*
X146524364Y-108241726D01*
X146500947Y-108266025D01*
X146469935Y-108280418D01*
X146437353Y-108282638D01*
X146424453Y-108279321D01*
X146409304Y-108272118D01*
X146382208Y-108257786D01*
X146345452Y-108237639D01*
X146301322Y-108212992D01*
X146252107Y-108185162D01*
X146200092Y-108155463D01*
X146147565Y-108125211D01*
X146096813Y-108095722D01*
X146050123Y-108068310D01*
X146009782Y-108044291D01*
X145978077Y-108024981D01*
X145957294Y-108011695D01*
X145950517Y-108006726D01*
X145944345Y-108000585D01*
X145939675Y-107993383D01*
X145936296Y-107982856D01*
X145934001Y-107966740D01*
X145932579Y-107942772D01*
X145931822Y-107908686D01*
X145931521Y-107862220D01*
X145931467Y-107801109D01*
X145931467Y-107800358D01*
X145931196Y-107745860D01*
X145930437Y-107697553D01*
X145929270Y-107657828D01*
X145927777Y-107629078D01*
X145926037Y-107613693D01*
X145925117Y-107611759D01*
X145915962Y-107615951D01*
X145894859Y-107627238D01*
X145864465Y-107644152D01*
X145827438Y-107665221D01*
X145804467Y-107678479D01*
X145690167Y-107744774D01*
X145684946Y-107942637D01*
X145683387Y-108001828D01*
X145681913Y-108058023D01*
X145680603Y-108108108D01*
X145679541Y-108148967D01*
X145678806Y-108177488D01*
X145678596Y-108185787D01*
X145676403Y-108214792D01*
X145669732Y-108234201D01*
X145655732Y-108251273D01*
X145651171Y-108255637D01*
X145618951Y-108275598D01*
X145584050Y-108280647D01*
X145550270Y-108271513D01*
X145521416Y-108248926D01*
X145507454Y-108228069D01*
X145500790Y-108212817D01*
X145496329Y-108195643D01*
X145493740Y-108173097D01*
X145492689Y-108141731D01*
X145492843Y-108098095D01*
X145493118Y-108079454D01*
X145493926Y-108029920D01*
X145494905Y-107969450D01*
X145495957Y-107904042D01*
X145496986Y-107839692D01*
X145497533Y-107805255D01*
X145498507Y-107749825D01*
X145499619Y-107708801D01*
X145501178Y-107679657D01*
X145503495Y-107659868D01*
X145506878Y-107646907D01*
X145511635Y-107638248D01*
X145518077Y-107631365D01*
X145518899Y-107630611D01*
X145530843Y-107622128D01*
X145555495Y-107606461D01*
X145590853Y-107584816D01*
X145634916Y-107558402D01*
X145685682Y-107528425D01*
X145741151Y-107496092D01*
X145759692Y-107485373D01*
X145823475Y-107448688D01*
X145874498Y-107419704D01*
X145914591Y-107397528D01*
X145945584Y-107381266D01*
X145969309Y-107370025D01*
X145987596Y-107362913D01*
X146002276Y-107359037D01*
X146015178Y-107357503D01*
X146022159Y-107357334D01*
X146048666Y-107358855D01*
X146066039Y-107365764D01*
X146081976Y-107381580D01*
X146085983Y-107386515D01*
X146109267Y-107415695D01*
X146109269Y-107651098D01*
X146109271Y-107886500D01*
X146187585Y-107930846D01*
X146226033Y-107952668D01*
X146264497Y-107974584D01*
X146297166Y-107993279D01*
X146310350Y-108000867D01*
X146354800Y-108026543D01*
X146354761Y-107639021D01*
X146354723Y-107251500D01*
X146174845Y-107150672D01*
X146122638Y-107120907D01*
X146073666Y-107092051D01*
X146030459Y-107065667D01*
X145995543Y-107043318D01*
X145971447Y-107026567D01*
X145963217Y-107019837D01*
X145931467Y-106989830D01*
X145931736Y-106701565D01*
X145931930Y-106620968D01*
X145932390Y-106555711D01*
X145933178Y-106504202D01*
X145934358Y-106464849D01*
X145935994Y-106436060D01*
X145938148Y-106416244D01*
X145940883Y-106403808D01*
X145943819Y-106397709D01*
X145953108Y-106390781D01*
X145975784Y-106376219D01*
X146010540Y-106354801D01*
X146056069Y-106327306D01*
X146111064Y-106294513D01*
X146174217Y-106257203D01*
X146244222Y-106216155D01*
X146319770Y-106172147D01*
X146399555Y-106125959D01*
X146401809Y-106124659D01*
X146497426Y-106069497D01*
X146579528Y-106022265D01*
X146649277Y-105982448D01*
X146707836Y-105949535D01*
X146756369Y-105923010D01*
X146796038Y-105902361D01*
X146828007Y-105887075D01*
X146853437Y-105876638D01*
X146873493Y-105870536D01*
X146889337Y-105868256D01*
X146902132Y-105869286D01*
X146913041Y-105873111D01*
X146923227Y-105879217D01*
X146933852Y-105887093D01*
X146936084Y-105888798D01*
X146964400Y-105910395D01*
X146964400Y-106200923D01*
X146964354Y-106279003D01*
X146964154Y-106341940D01*
X146963706Y-106391524D01*
X146962915Y-106429546D01*
X146961687Y-106457796D01*
X146959929Y-106478064D01*
X146957547Y-106492140D01*
X146954446Y-106501815D01*
X146950532Y-106508880D01*
X146948042Y-106512245D01*
X146935576Y-106523117D01*
X146911052Y-106540485D01*
X146877186Y-106562569D01*
X146836694Y-106587592D01*
X146797759Y-106610620D01*
X146754283Y-106635851D01*
X146715417Y-106658495D01*
X146683726Y-106677050D01*
X146661774Y-106690016D01*
X146652392Y-106695713D01*
X146652143Y-106701796D01*
X146663278Y-106712923D01*
X146686569Y-106729609D01*
X146722785Y-106752367D01*
X146772698Y-106781713D01*
X146829241Y-106813774D01*
X146876116Y-106840040D01*
X147074775Y-106726333D01*
X147137725Y-106690565D01*
X147187918Y-106662718D01*
X147227079Y-106641941D01*
X147256935Y-106627381D01*
X147279211Y-106618188D01*
X147295633Y-106613510D01*
X147305652Y-106612446D01*
X147317211Y-106613755D01*
X147332523Y-106618337D01*
X147353175Y-106627001D01*
X147380756Y-106640558D01*
X147416853Y-106659817D01*
X147463052Y-106685589D01*
X147520940Y-106718683D01*
X147574273Y-106749546D01*
X147641100Y-106788516D01*
X147694633Y-106820171D01*
X147736344Y-106845486D01*
X147767707Y-106865434D01*
X147790192Y-106880990D01*
X147805272Y-106893128D01*
X147814420Y-106902821D01*
X147819107Y-106911044D01*
X147819337Y-106911676D01*
X147821299Y-106926014D01*
X147823026Y-106956771D01*
X147824509Y-107003437D01*
X147825742Y-107065499D01*
X147826716Y-107142445D01*
X147827422Y-107233764D01*
X147827853Y-107338943D01*
X147828000Y-107457471D01*
X147828000Y-107980699D01*
X147803921Y-108003767D01*
X147776789Y-108024076D01*
X147748313Y-108032313D01*
X147715406Y-108028464D01*
X147674979Y-108012511D01*
X147656431Y-108002964D01*
X147601005Y-107972621D01*
X147543063Y-107940108D01*
X147484567Y-107906603D01*
X147427481Y-107873282D01*
X147373766Y-107841324D01*
X147325385Y-107811906D01*
X147284301Y-107786206D01*
X147252478Y-107765402D01*
X147231877Y-107750671D01*
X147224722Y-107743928D01*
X147220330Y-107727241D01*
X147216545Y-107693806D01*
X147213382Y-107643800D01*
X147210852Y-107577397D01*
X147210012Y-107545941D01*
X147205700Y-107366248D01*
X147084893Y-107434758D01*
X146964087Y-107503269D01*
X146966360Y-107694885D01*
X146968633Y-107886500D01*
X147161851Y-107997360D01*
X147214818Y-108028087D01*
X147263775Y-108057123D01*
X147306520Y-108083112D01*
X147340851Y-108104697D01*
X147364564Y-108120522D01*
X147374888Y-108128594D01*
X147394708Y-108148967D01*
X147397571Y-108424133D01*
X147398253Y-108505171D01*
X147398414Y-108570857D01*
X147398011Y-108622767D01*
X147397001Y-108662477D01*
X147395341Y-108691560D01*
X147392989Y-108711593D01*
X147389902Y-108724151D01*
X147389379Y-108725473D01*
X147371824Y-108748879D01*
X147344047Y-108768006D01*
X147312760Y-108778724D01*
X147301193Y-108779734D01*
X147289130Y-108775642D01*
X147264621Y-108764124D01*
X147229828Y-108746310D01*
X147186916Y-108723335D01*
X147138048Y-108696329D01*
X147091930Y-108670186D01*
X147039755Y-108640371D01*
X146991877Y-108613210D01*
X146950422Y-108589893D01*
X146917514Y-108571611D01*
X146895280Y-108559554D01*
X146886236Y-108555038D01*
X146871765Y-108556978D01*
X146843682Y-108568683D01*
X146801927Y-108590180D01*
X146757119Y-108615321D01*
X146717968Y-108638163D01*
X146684630Y-108658195D01*
X146659596Y-108673874D01*
X146645360Y-108683656D01*
X146643033Y-108686019D01*
X146650149Y-108690935D01*
X146670154Y-108703205D01*
X146701234Y-108721777D01*
X146741577Y-108745603D01*
X146789369Y-108773633D01*
X146842798Y-108804817D01*
X146900051Y-108838106D01*
X146959314Y-108872449D01*
X147018774Y-108906797D01*
X147076620Y-108940101D01*
X147131037Y-108971310D01*
X147180213Y-108999376D01*
X147222334Y-109023247D01*
X147255588Y-109041875D01*
X147278162Y-109054210D01*
X147285436Y-109057964D01*
X147293629Y-109061338D01*
X147302352Y-109062449D01*
X147313641Y-109060394D01*
X147329528Y-109054267D01*
X147352050Y-109043162D01*
X147383240Y-109026176D01*
X147425133Y-109002402D01*
X147475391Y-108973461D01*
X147641733Y-108877426D01*
X147641768Y-108737563D01*
X147642159Y-108679313D01*
X147643210Y-108616344D01*
X147644773Y-108555224D01*
X147646701Y-108502519D01*
X147647323Y-108489445D01*
X147652844Y-108381190D01*
X147725605Y-108336304D01*
X147754924Y-108318503D01*
X147795536Y-108294247D01*
X147844061Y-108265534D01*
X147897119Y-108234361D01*
X147951331Y-108202726D01*
X147968640Y-108192676D01*
X148029175Y-108157861D01*
X148077238Y-108131262D01*
X148114842Y-108112322D01*
X148143997Y-108100483D01*
X148166716Y-108095188D01*
X148185010Y-108095878D01*
X148200890Y-108101996D01*
X148216369Y-108112985D01*
X148225933Y-108121350D01*
X148255566Y-108148270D01*
X148258530Y-108391076D01*
X148261493Y-108633883D01*
X148371976Y-108696225D01*
X148411148Y-108718249D01*
X148445201Y-108737246D01*
X148471362Y-108751680D01*
X148486859Y-108760017D01*
X148489663Y-108761389D01*
X148491140Y-108753794D01*
X148492514Y-108730933D01*
X148493756Y-108694470D01*
X148494832Y-108646071D01*
X148495713Y-108587403D01*
X148496366Y-108520132D01*
X148496759Y-108445923D01*
X148496867Y-108379872D01*
X148496867Y-107995532D01*
X148294305Y-107878052D01*
X148223929Y-107836732D01*
X148168183Y-107802868D01*
X148126635Y-107776178D01*
X148098852Y-107756383D01*
X148084402Y-107743199D01*
X148082451Y-107740176D01*
X148079160Y-107724663D01*
X148076140Y-107694850D01*
X148073436Y-107653366D01*
X148071094Y-107602843D01*
X148069158Y-107545911D01*
X148067676Y-107485202D01*
X148066692Y-107423346D01*
X148066252Y-107362974D01*
X148066402Y-107306717D01*
X148067187Y-107257205D01*
X148068652Y-107217070D01*
X148070845Y-107188942D01*
X148072708Y-107178248D01*
X148075653Y-107167429D01*
X148078745Y-107158256D01*
X148083429Y-107149709D01*
X148091156Y-107140763D01*
X148103372Y-107130396D01*
X148121525Y-107117586D01*
X148147063Y-107101310D01*
X148181435Y-107080545D01*
X148226087Y-107054269D01*
X148282468Y-107021459D01*
X148351080Y-106981642D01*
X148416589Y-106943804D01*
X148469389Y-106913945D01*
X148511301Y-106891340D01*
X148544142Y-106875266D01*
X148569732Y-106865000D01*
X148589888Y-106859816D01*
X148606430Y-106858991D01*
X148621175Y-106861803D01*
X148635943Y-106867525D01*
X148636803Y-106867915D01*
X148649705Y-106874650D01*
X148659967Y-106883055D01*
X148667890Y-106895005D01*
X148673774Y-106912378D01*
X148677921Y-106937049D01*
X148680629Y-106970895D01*
X148682200Y-107015791D01*
X148682934Y-107073615D01*
X148683131Y-107146241D01*
X148683133Y-107157274D01*
X148683133Y-107389856D01*
X148802560Y-107458261D01*
X148842876Y-107481239D01*
X148877806Y-107500930D01*
X148904824Y-107515927D01*
X148921401Y-107524822D01*
X148925412Y-107526667D01*
X148926066Y-107518480D01*
X148926586Y-107495040D01*
X148926964Y-107458024D01*
X148927197Y-107409111D01*
X148927278Y-107349981D01*
X148927203Y-107282312D01*
X148926966Y-107207784D01*
X148926635Y-107140709D01*
X148924433Y-106754750D01*
X148758737Y-106659338D01*
X148593041Y-106563925D01*
X148390992Y-106681080D01*
X148331034Y-106715760D01*
X148283784Y-106742764D01*
X148247348Y-106762987D01*
X148219833Y-106777325D01*
X148199344Y-106786673D01*
X148183985Y-106791926D01*
X148171863Y-106793981D01*
X148161083Y-106793733D01*
X148154522Y-106792859D01*
X148137059Y-106786931D01*
X148106060Y-106772452D01*
X148061378Y-106749340D01*
X148002863Y-106717515D01*
X147930365Y-106676898D01*
X147843737Y-106627409D01*
X147798367Y-106601216D01*
X147688266Y-106537423D01*
X147592118Y-106481600D01*
X147509179Y-106433308D01*
X147438704Y-106392105D01*
X147379949Y-106357553D01*
X147332169Y-106329211D01*
X147294621Y-106306639D01*
X147266559Y-106289396D01*
X147247241Y-106277044D01*
X147235920Y-106269142D01*
X147233833Y-106267453D01*
X147219205Y-106244931D01*
X147213081Y-106214243D01*
X147216102Y-106182218D01*
X147223998Y-106162670D01*
X147236197Y-106150441D01*
X147261137Y-106131698D01*
X147296572Y-106107740D01*
X147340257Y-106079867D01*
X147389944Y-106049380D01*
X147443388Y-106017578D01*
X147498343Y-105985761D01*
X147552562Y-105955230D01*
X147603800Y-105927284D01*
X147649810Y-105903223D01*
X147688347Y-105884347D01*
X147717163Y-105871957D01*
X147734013Y-105867352D01*
X147734264Y-105867348D01*
X147749725Y-105869888D01*
X147772248Y-105878188D01*
X147803549Y-105893074D01*
X147845346Y-105915373D01*
X147899353Y-105945913D01*
X147909671Y-105951867D01*
X147954528Y-105977683D01*
X147994301Y-106000324D01*
X148026705Y-106018511D01*
X148049455Y-106030962D01*
X148060266Y-106036399D01*
X148060766Y-106036534D01*
X148062215Y-106028539D01*
X148063198Y-106006430D01*
X148063666Y-105973024D01*
X148063570Y-105931135D01*
X148063160Y-105899379D01*
X148060833Y-105762225D01*
X147877037Y-105655962D01*
X147824959Y-105625459D01*
X147776491Y-105596330D01*
X147733996Y-105570053D01*
X147699835Y-105548106D01*
X147676371Y-105531966D01*
X147667487Y-105524833D01*
X147646642Y-105494304D01*
X147641854Y-105459204D01*
X147653272Y-105420770D01*
X147654521Y-105418297D01*
X147672462Y-105393714D01*
X147697114Y-105380405D01*
X147732755Y-105376150D01*
X147735738Y-105376134D01*
X147748039Y-105377149D01*
X147762654Y-105380781D01*
X147781369Y-105387914D01*
X147805970Y-105399428D01*
X147838245Y-105416205D01*
X147879981Y-105439128D01*
X147932963Y-105469077D01*
X147988178Y-105500718D01*
X148044780Y-105533720D01*
X148097856Y-105565503D01*
X148145246Y-105594709D01*
X148184786Y-105619976D01*
X148214316Y-105639947D01*
X148231673Y-105653260D01*
X148233491Y-105655002D01*
X148262215Y-105684700D01*
X148253419Y-106251508D01*
X148226842Y-106275254D01*
X148211465Y-106287806D01*
X148196420Y-106296234D01*
X148179899Y-106299974D01*
X148160096Y-106298463D01*
X148135203Y-106291137D01*
X148103413Y-106277433D01*
X148062917Y-106256788D01*
X148011910Y-106228638D01*
X147948584Y-106192419D01*
X147933856Y-106183911D01*
X147734813Y-106068823D01*
X147694623Y-106091953D01*
X147669811Y-106106292D01*
X147635734Y-106126062D01*
X147597747Y-106148154D01*
X147575115Y-106161342D01*
X147495797Y-106207600D01*
X147570882Y-106251443D01*
X147596493Y-106266325D01*
X147634414Y-106288259D01*
X147682264Y-106315873D01*
X147737663Y-106347796D01*
X147798232Y-106382656D01*
X147861589Y-106419081D01*
X147902373Y-106442507D01*
X148158780Y-106589726D01*
X148190240Y-106574749D01*
X148207415Y-106565855D01*
X148236337Y-106550091D01*
X148274100Y-106529072D01*
X148317798Y-106504419D01*
X148364526Y-106477746D01*
X148365633Y-106477111D01*
X148426782Y-106442040D01*
X148475099Y-106414581D01*
X148512429Y-106393894D01*
X148540615Y-106379141D01*
X148561501Y-106369483D01*
X148576930Y-106364082D01*
X148588746Y-106362099D01*
X148598792Y-106362696D01*
X148608913Y-106365034D01*
X148610865Y-106365570D01*
X148625284Y-106371713D01*
X148652251Y-106385276D01*
X148689692Y-106405137D01*
X148735534Y-106430173D01*
X148787706Y-106459260D01*
X148844135Y-106491276D01*
X148865386Y-106503472D01*
X148936354Y-106544675D01*
X148993359Y-106578583D01*
X149037396Y-106605838D01*
X149069461Y-106627078D01*
X149090549Y-106642945D01*
X149101655Y-106654078D01*
X149103041Y-106656296D01*
X149105555Y-106663589D01*
X149107703Y-106675866D01*
X149109511Y-106694334D01*
X149111005Y-106720200D01*
X149112212Y-106754670D01*
X149113158Y-106798951D01*
X149113869Y-106854250D01*
X149114373Y-106921773D01*
X149114695Y-107002726D01*
X149114862Y-107098317D01*
X149114902Y-107198163D01*
X149114874Y-107305055D01*
X149114874Y-107305055D01*
G37*
X149114874Y-107305055D02*
X149114780Y-107396325D01*
X149114581Y-107473284D01*
X149114240Y-107537242D01*
X149113716Y-107589511D01*
X149112973Y-107631401D01*
X149111972Y-107664224D01*
X149110675Y-107689291D01*
X149109043Y-107707912D01*
X149107038Y-107721399D01*
X149104621Y-107731062D01*
X149101755Y-107738213D01*
X149098970Y-107743242D01*
X149073360Y-107770972D01*
X149040607Y-107785062D01*
X149004557Y-107783969D01*
X149000338Y-107782789D01*
X148984051Y-107775767D01*
X148955909Y-107761474D01*
X148918215Y-107741244D01*
X148873275Y-107716410D01*
X148823394Y-107688305D01*
X148770876Y-107658261D01*
X148718027Y-107627612D01*
X148667152Y-107597691D01*
X148620555Y-107569830D01*
X148580542Y-107545362D01*
X148549417Y-107525621D01*
X148529485Y-107511939D01*
X148523963Y-107507306D01*
X148517887Y-107499936D01*
X148513202Y-107490884D01*
X148509633Y-107477821D01*
X148506904Y-107458415D01*
X148504739Y-107430336D01*
X148502862Y-107391254D01*
X148500996Y-107338837D01*
X148499892Y-107304015D01*
X148498078Y-107250299D01*
X148496196Y-107202776D01*
X148494365Y-107163879D01*
X148492704Y-107136038D01*
X148491334Y-107121687D01*
X148490879Y-107120267D01*
X148482795Y-107124277D01*
X148462651Y-107135342D01*
X148433032Y-107152012D01*
X148396523Y-107172838D01*
X148373846Y-107185883D01*
X148260116Y-107251500D01*
X148259800Y-107641814D01*
X148451614Y-107751127D01*
X148504451Y-107781619D01*
X148553270Y-107810512D01*
X148595851Y-107836435D01*
X148629973Y-107858016D01*
X148653414Y-107873883D01*
X148663281Y-107881850D01*
X148683133Y-107903260D01*
X148683133Y-108971145D01*
X148655213Y-108998206D01*
X148641387Y-109010806D01*
X148628113Y-109019833D01*
X148613731Y-109024741D01*
X148596583Y-109024984D01*
X148575008Y-109020015D01*
X148547346Y-109009289D01*
X148511939Y-108992259D01*
X148467128Y-108968378D01*
X148411251Y-108937102D01*
X148342651Y-108897883D01*
X148332266Y-108891917D01*
X148260727Y-108850480D01*
X148203021Y-108816294D01*
X148158034Y-108788646D01*
X148124657Y-108766824D01*
X148101778Y-108750115D01*
X148088284Y-108737805D01*
X148084765Y-108733167D01*
X148079390Y-108722296D01*
X148075229Y-108707977D01*
X148072045Y-108687779D01*
X148069599Y-108659271D01*
X148067652Y-108620023D01*
X148065965Y-108567603D01*
X148065066Y-108532450D01*
X148060833Y-108357132D01*
X147944417Y-108425318D01*
X147828000Y-108493504D01*
X147826923Y-108647202D01*
X147826239Y-108705142D01*
X147825051Y-108765283D01*
X147823496Y-108822317D01*
X147821709Y-108870938D01*
X147820573Y-108894033D01*
X147815300Y-108987167D01*
X147768733Y-109017919D01*
X147748494Y-109030723D01*
X147716213Y-109050461D01*
X147674497Y-109075571D01*
X147625952Y-109104489D01*
X147573186Y-109135655D01*
X147532116Y-109159736D01*
X147472585Y-109194327D01*
X147425584Y-109221080D01*
X147389169Y-109240950D01*
X147361399Y-109254891D01*
X147340332Y-109263858D01*
X147324026Y-109268805D01*
X147310539Y-109270688D01*
X147306200Y-109270800D01*
X147297328Y-109270035D01*
X147286218Y-109267323D01*
X147271709Y-109262046D01*
X147252640Y-109253581D01*
X147227851Y-109241307D01*
X147196181Y-109224602D01*
X147156470Y-109202847D01*
X147107558Y-109175420D01*
X147048283Y-109141699D01*
X146977486Y-109101064D01*
X146894005Y-109052893D01*
X146831617Y-109016799D01*
X146749323Y-108968951D01*
X146671941Y-108923564D01*
X146600729Y-108881399D01*
X146536945Y-108843220D01*
X146481845Y-108809787D01*
X146436688Y-108781862D01*
X146402732Y-108760207D01*
X146381233Y-108745585D01*
X146373892Y-108739515D01*
X146358092Y-108707645D01*
X146356309Y-108671289D01*
X146368658Y-108636120D01*
X146379071Y-108625173D01*
X146400977Y-108608632D01*
X146435089Y-108586042D01*
X146482118Y-108556949D01*
X146542776Y-108520900D01*
X146612800Y-108480297D01*
X146679241Y-108442278D01*
X146732817Y-108412077D01*
X146775210Y-108388855D01*
X146808105Y-108371768D01*
X146833187Y-108359974D01*
X146852140Y-108352633D01*
X146866648Y-108348902D01*
X146877608Y-108347934D01*
X146893666Y-108349515D01*
X146912719Y-108355029D01*
X146937310Y-108365631D01*
X146969983Y-108382477D01*
X147013278Y-108406723D01*
X147036675Y-108420221D01*
X147079787Y-108445156D01*
X147119459Y-108467935D01*
X147152660Y-108486832D01*
X147176356Y-108500117D01*
X147185575Y-108505105D01*
X147209933Y-108517702D01*
X147209671Y-108242100D01*
X147017185Y-108132034D01*
X146964343Y-108101465D01*
X146915562Y-108072580D01*
X146873044Y-108046734D01*
X146838988Y-108025283D01*
X146815595Y-108009584D01*
X146805650Y-108001681D01*
X146800506Y-107995894D01*
X146796385Y-107989455D01*
X146793176Y-107980555D01*
X146790769Y-107967388D01*
X146789052Y-107948145D01*
X146787915Y-107921020D01*
X146787247Y-107884205D01*
X146786936Y-107835892D01*
X146786871Y-107774276D01*
X146786943Y-107697547D01*
X146786944Y-107696881D01*
X146787288Y-107412367D01*
X146810227Y-107386362D01*
X146824579Y-107374286D01*
X146851120Y-107355938D01*
X146887616Y-107332588D01*
X146931833Y-107305505D01*
X146981538Y-107275960D01*
X147034496Y-107245223D01*
X147088473Y-107214564D01*
X147141236Y-107185253D01*
X147190550Y-107158560D01*
X147234182Y-107135754D01*
X147269899Y-107118107D01*
X147295464Y-107106887D01*
X147308069Y-107103333D01*
X147334234Y-107110049D01*
X147363434Y-107128368D01*
X147364637Y-107129350D01*
X147396200Y-107155366D01*
X147397119Y-107351600D01*
X147397622Y-107410847D01*
X147398521Y-107467357D01*
X147399730Y-107517931D01*
X147401168Y-107559369D01*
X147402752Y-107588473D01*
X147403469Y-107596508D01*
X147408900Y-107645182D01*
X147525317Y-107712079D01*
X147641733Y-107778975D01*
X147641733Y-107004953D01*
X147475207Y-106909501D01*
X147420621Y-106878398D01*
X147378649Y-106855036D01*
X147347342Y-106838509D01*
X147324754Y-106827912D01*
X147308937Y-106822340D01*
X147297945Y-106820888D01*
X147289830Y-106822651D01*
X147289088Y-106822975D01*
X147276517Y-106829611D01*
X147251584Y-106843522D01*
X147216541Y-106863425D01*
X147173638Y-106888036D01*
X147125124Y-106916073D01*
X147087427Y-106937984D01*
X147022704Y-106975225D01*
X146971091Y-107003830D01*
X146931480Y-107024361D01*
X146902762Y-107037382D01*
X146883831Y-107043452D01*
X146878268Y-107044067D01*
X146867205Y-107042742D01*
X146852421Y-107038294D01*
X146832592Y-107030016D01*
X146806389Y-107017198D01*
X146772488Y-106999131D01*
X146729561Y-106975108D01*
X146676282Y-106944419D01*
X146611325Y-106906356D01*
X146533363Y-106860210D01*
X146526496Y-106856130D01*
X146480052Y-106828028D01*
X146438372Y-106801845D01*
X146403760Y-106779106D01*
X146378519Y-106761337D01*
X146364953Y-106750064D01*
X146363512Y-106748193D01*
X146356064Y-106720518D01*
X146356918Y-106687208D01*
X146365746Y-106657195D01*
X146366952Y-106654903D01*
X146378713Y-106643321D01*
X146405009Y-106624381D01*
X146445300Y-106598430D01*
X146499040Y-106565815D01*
X146565689Y-106526882D01*
X146580435Y-106518417D01*
X146782366Y-106402795D01*
X146784690Y-106261520D01*
X146787014Y-106120244D01*
X146750823Y-106141435D01*
X146735651Y-106150260D01*
X146707603Y-106166513D01*
X146668467Y-106189162D01*
X146620033Y-106217170D01*
X146564091Y-106249504D01*
X146502430Y-106285128D01*
X146436840Y-106323009D01*
X146414066Y-106336158D01*
X146113500Y-106509689D01*
X146111381Y-106702795D01*
X146109262Y-106895900D01*
X146308918Y-107009858D01*
X146369704Y-107045063D01*
X146422706Y-107076781D01*
X146466363Y-107104023D01*
X146499116Y-107125801D01*
X146519406Y-107141127D01*
X146524820Y-107146631D01*
X146528151Y-107151886D01*
X146530993Y-107158438D01*
X146533385Y-107167585D01*
X146535366Y-107180626D01*
X146536974Y-107198861D01*
X146538249Y-107223588D01*
X146539227Y-107256106D01*
X146539950Y-107297714D01*
X146540454Y-107349709D01*
X146540779Y-107413392D01*
X146540964Y-107490061D01*
X146541047Y-107581015D01*
X146541066Y-107687552D01*
X146541066Y-107692074D01*
X146541050Y-107799214D01*
X146540975Y-107890730D01*
X146540801Y-107967932D01*
X146540489Y-108032131D01*
X146539999Y-108084636D01*
X146539290Y-108126757D01*
X146538323Y-108159804D01*
X146537059Y-108185087D01*
X146535457Y-108203916D01*
X146533478Y-108217600D01*
X146531082Y-108227450D01*
X146528229Y-108234776D01*
X146524879Y-108240887D01*
X146524364Y-108241726D01*
X146500947Y-108266025D01*
X146469935Y-108280418D01*
X146437353Y-108282638D01*
X146424453Y-108279321D01*
X146409304Y-108272118D01*
X146382208Y-108257786D01*
X146345452Y-108237639D01*
X146301322Y-108212992D01*
X146252107Y-108185162D01*
X146200092Y-108155463D01*
X146147565Y-108125211D01*
X146096813Y-108095722D01*
X146050123Y-108068310D01*
X146009782Y-108044291D01*
X145978077Y-108024981D01*
X145957294Y-108011695D01*
X145950517Y-108006726D01*
X145944345Y-108000585D01*
X145939675Y-107993383D01*
X145936296Y-107982856D01*
X145934001Y-107966740D01*
X145932579Y-107942772D01*
X145931822Y-107908686D01*
X145931521Y-107862220D01*
X145931467Y-107801109D01*
X145931467Y-107800358D01*
X145931196Y-107745860D01*
X145930437Y-107697553D01*
X145929270Y-107657828D01*
X145927777Y-107629078D01*
X145926037Y-107613693D01*
X145925117Y-107611759D01*
X145915962Y-107615951D01*
X145894859Y-107627238D01*
X145864465Y-107644152D01*
X145827438Y-107665221D01*
X145804467Y-107678479D01*
X145690167Y-107744774D01*
X145684946Y-107942637D01*
X145683387Y-108001828D01*
X145681913Y-108058023D01*
X145680603Y-108108108D01*
X145679541Y-108148967D01*
X145678806Y-108177488D01*
X145678596Y-108185787D01*
X145676403Y-108214792D01*
X145669732Y-108234201D01*
X145655732Y-108251273D01*
X145651171Y-108255637D01*
X145618951Y-108275598D01*
X145584050Y-108280647D01*
X145550270Y-108271513D01*
X145521416Y-108248926D01*
X145507454Y-108228069D01*
X145500790Y-108212817D01*
X145496329Y-108195643D01*
X145493740Y-108173097D01*
X145492689Y-108141731D01*
X145492843Y-108098095D01*
X145493118Y-108079454D01*
X145493926Y-108029920D01*
X145494905Y-107969450D01*
X145495957Y-107904042D01*
X145496986Y-107839692D01*
X145497533Y-107805255D01*
X145498507Y-107749825D01*
X145499619Y-107708801D01*
X145501178Y-107679657D01*
X145503495Y-107659868D01*
X145506878Y-107646907D01*
X145511635Y-107638248D01*
X145518077Y-107631365D01*
X145518899Y-107630611D01*
X145530843Y-107622128D01*
X145555495Y-107606461D01*
X145590853Y-107584816D01*
X145634916Y-107558402D01*
X145685682Y-107528425D01*
X145741151Y-107496092D01*
X145759692Y-107485373D01*
X145823475Y-107448688D01*
X145874498Y-107419704D01*
X145914591Y-107397528D01*
X145945584Y-107381266D01*
X145969309Y-107370025D01*
X145987596Y-107362913D01*
X146002276Y-107359037D01*
X146015178Y-107357503D01*
X146022159Y-107357334D01*
X146048666Y-107358855D01*
X146066039Y-107365764D01*
X146081976Y-107381580D01*
X146085983Y-107386515D01*
X146109267Y-107415695D01*
X146109269Y-107651098D01*
X146109271Y-107886500D01*
X146187585Y-107930846D01*
X146226033Y-107952668D01*
X146264497Y-107974584D01*
X146297166Y-107993279D01*
X146310350Y-108000867D01*
X146354800Y-108026543D01*
X146354761Y-107639021D01*
X146354723Y-107251500D01*
X146174845Y-107150672D01*
X146122638Y-107120907D01*
X146073666Y-107092051D01*
X146030459Y-107065667D01*
X145995543Y-107043318D01*
X145971447Y-107026567D01*
X145963217Y-107019837D01*
X145931467Y-106989830D01*
X145931736Y-106701565D01*
X145931930Y-106620968D01*
X145932390Y-106555711D01*
X145933178Y-106504202D01*
X145934358Y-106464849D01*
X145935994Y-106436060D01*
X145938148Y-106416244D01*
X145940883Y-106403808D01*
X145943819Y-106397709D01*
X145953108Y-106390781D01*
X145975784Y-106376219D01*
X146010540Y-106354801D01*
X146056069Y-106327306D01*
X146111064Y-106294513D01*
X146174217Y-106257203D01*
X146244222Y-106216155D01*
X146319770Y-106172147D01*
X146399555Y-106125959D01*
X146401809Y-106124659D01*
X146497426Y-106069497D01*
X146579528Y-106022265D01*
X146649277Y-105982448D01*
X146707836Y-105949535D01*
X146756369Y-105923010D01*
X146796038Y-105902361D01*
X146828007Y-105887075D01*
X146853437Y-105876638D01*
X146873493Y-105870536D01*
X146889337Y-105868256D01*
X146902132Y-105869286D01*
X146913041Y-105873111D01*
X146923227Y-105879217D01*
X146933852Y-105887093D01*
X146936084Y-105888798D01*
X146964400Y-105910395D01*
X146964400Y-106200923D01*
X146964354Y-106279003D01*
X146964154Y-106341940D01*
X146963706Y-106391524D01*
X146962915Y-106429546D01*
X146961687Y-106457796D01*
X146959929Y-106478064D01*
X146957547Y-106492140D01*
X146954446Y-106501815D01*
X146950532Y-106508880D01*
X146948042Y-106512245D01*
X146935576Y-106523117D01*
X146911052Y-106540485D01*
X146877186Y-106562569D01*
X146836694Y-106587592D01*
X146797759Y-106610620D01*
X146754283Y-106635851D01*
X146715417Y-106658495D01*
X146683726Y-106677050D01*
X146661774Y-106690016D01*
X146652392Y-106695713D01*
X146652143Y-106701796D01*
X146663278Y-106712923D01*
X146686569Y-106729609D01*
X146722785Y-106752367D01*
X146772698Y-106781713D01*
X146829241Y-106813774D01*
X146876116Y-106840040D01*
X147074775Y-106726333D01*
X147137725Y-106690565D01*
X147187918Y-106662718D01*
X147227079Y-106641941D01*
X147256935Y-106627381D01*
X147279211Y-106618188D01*
X147295633Y-106613510D01*
X147305652Y-106612446D01*
X147317211Y-106613755D01*
X147332523Y-106618337D01*
X147353175Y-106627001D01*
X147380756Y-106640558D01*
X147416853Y-106659817D01*
X147463052Y-106685589D01*
X147520940Y-106718683D01*
X147574273Y-106749546D01*
X147641100Y-106788516D01*
X147694633Y-106820171D01*
X147736344Y-106845486D01*
X147767707Y-106865434D01*
X147790192Y-106880990D01*
X147805272Y-106893128D01*
X147814420Y-106902821D01*
X147819107Y-106911044D01*
X147819337Y-106911676D01*
X147821299Y-106926014D01*
X147823026Y-106956771D01*
X147824509Y-107003437D01*
X147825742Y-107065499D01*
X147826716Y-107142445D01*
X147827422Y-107233764D01*
X147827853Y-107338943D01*
X147828000Y-107457471D01*
X147828000Y-107980699D01*
X147803921Y-108003767D01*
X147776789Y-108024076D01*
X147748313Y-108032313D01*
X147715406Y-108028464D01*
X147674979Y-108012511D01*
X147656431Y-108002964D01*
X147601005Y-107972621D01*
X147543063Y-107940108D01*
X147484567Y-107906603D01*
X147427481Y-107873282D01*
X147373766Y-107841324D01*
X147325385Y-107811906D01*
X147284301Y-107786206D01*
X147252478Y-107765402D01*
X147231877Y-107750671D01*
X147224722Y-107743928D01*
X147220330Y-107727241D01*
X147216545Y-107693806D01*
X147213382Y-107643800D01*
X147210852Y-107577397D01*
X147210012Y-107545941D01*
X147205700Y-107366248D01*
X147084893Y-107434758D01*
X146964087Y-107503269D01*
X146966360Y-107694885D01*
X146968633Y-107886500D01*
X147161851Y-107997360D01*
X147214818Y-108028087D01*
X147263775Y-108057123D01*
X147306520Y-108083112D01*
X147340851Y-108104697D01*
X147364564Y-108120522D01*
X147374888Y-108128594D01*
X147394708Y-108148967D01*
X147397571Y-108424133D01*
X147398253Y-108505171D01*
X147398414Y-108570857D01*
X147398011Y-108622767D01*
X147397001Y-108662477D01*
X147395341Y-108691560D01*
X147392989Y-108711593D01*
X147389902Y-108724151D01*
X147389379Y-108725473D01*
X147371824Y-108748879D01*
X147344047Y-108768006D01*
X147312760Y-108778724D01*
X147301193Y-108779734D01*
X147289130Y-108775642D01*
X147264621Y-108764124D01*
X147229828Y-108746310D01*
X147186916Y-108723335D01*
X147138048Y-108696329D01*
X147091930Y-108670186D01*
X147039755Y-108640371D01*
X146991877Y-108613210D01*
X146950422Y-108589893D01*
X146917514Y-108571611D01*
X146895280Y-108559554D01*
X146886236Y-108555038D01*
X146871765Y-108556978D01*
X146843682Y-108568683D01*
X146801927Y-108590180D01*
X146757119Y-108615321D01*
X146717968Y-108638163D01*
X146684630Y-108658195D01*
X146659596Y-108673874D01*
X146645360Y-108683656D01*
X146643033Y-108686019D01*
X146650149Y-108690935D01*
X146670154Y-108703205D01*
X146701234Y-108721777D01*
X146741577Y-108745603D01*
X146789369Y-108773633D01*
X146842798Y-108804817D01*
X146900051Y-108838106D01*
X146959314Y-108872449D01*
X147018774Y-108906797D01*
X147076620Y-108940101D01*
X147131037Y-108971310D01*
X147180213Y-108999376D01*
X147222334Y-109023247D01*
X147255588Y-109041875D01*
X147278162Y-109054210D01*
X147285436Y-109057964D01*
X147293629Y-109061338D01*
X147302352Y-109062449D01*
X147313641Y-109060394D01*
X147329528Y-109054267D01*
X147352050Y-109043162D01*
X147383240Y-109026176D01*
X147425133Y-109002402D01*
X147475391Y-108973461D01*
X147641733Y-108877426D01*
X147641768Y-108737563D01*
X147642159Y-108679313D01*
X147643210Y-108616344D01*
X147644773Y-108555224D01*
X147646701Y-108502519D01*
X147647323Y-108489445D01*
X147652844Y-108381190D01*
X147725605Y-108336304D01*
X147754924Y-108318503D01*
X147795536Y-108294247D01*
X147844061Y-108265534D01*
X147897119Y-108234361D01*
X147951331Y-108202726D01*
X147968640Y-108192676D01*
X148029175Y-108157861D01*
X148077238Y-108131262D01*
X148114842Y-108112322D01*
X148143997Y-108100483D01*
X148166716Y-108095188D01*
X148185010Y-108095878D01*
X148200890Y-108101996D01*
X148216369Y-108112985D01*
X148225933Y-108121350D01*
X148255566Y-108148270D01*
X148258530Y-108391076D01*
X148261493Y-108633883D01*
X148371976Y-108696225D01*
X148411148Y-108718249D01*
X148445201Y-108737246D01*
X148471362Y-108751680D01*
X148486859Y-108760017D01*
X148489663Y-108761389D01*
X148491140Y-108753794D01*
X148492514Y-108730933D01*
X148493756Y-108694470D01*
X148494832Y-108646071D01*
X148495713Y-108587403D01*
X148496366Y-108520132D01*
X148496759Y-108445923D01*
X148496867Y-108379872D01*
X148496867Y-107995532D01*
X148294305Y-107878052D01*
X148223929Y-107836732D01*
X148168183Y-107802868D01*
X148126635Y-107776178D01*
X148098852Y-107756383D01*
X148084402Y-107743199D01*
X148082451Y-107740176D01*
X148079160Y-107724663D01*
X148076140Y-107694850D01*
X148073436Y-107653366D01*
X148071094Y-107602843D01*
X148069158Y-107545911D01*
X148067676Y-107485202D01*
X148066692Y-107423346D01*
X148066252Y-107362974D01*
X148066402Y-107306717D01*
X148067187Y-107257205D01*
X148068652Y-107217070D01*
X148070845Y-107188942D01*
X148072708Y-107178248D01*
X148075653Y-107167429D01*
X148078745Y-107158256D01*
X148083429Y-107149709D01*
X148091156Y-107140763D01*
X148103372Y-107130396D01*
X148121525Y-107117586D01*
X148147063Y-107101310D01*
X148181435Y-107080545D01*
X148226087Y-107054269D01*
X148282468Y-107021459D01*
X148351080Y-106981642D01*
X148416589Y-106943804D01*
X148469389Y-106913945D01*
X148511301Y-106891340D01*
X148544142Y-106875266D01*
X148569732Y-106865000D01*
X148589888Y-106859816D01*
X148606430Y-106858991D01*
X148621175Y-106861803D01*
X148635943Y-106867525D01*
X148636803Y-106867915D01*
X148649705Y-106874650D01*
X148659967Y-106883055D01*
X148667890Y-106895005D01*
X148673774Y-106912378D01*
X148677921Y-106937049D01*
X148680629Y-106970895D01*
X148682200Y-107015791D01*
X148682934Y-107073615D01*
X148683131Y-107146241D01*
X148683133Y-107157274D01*
X148683133Y-107389856D01*
X148802560Y-107458261D01*
X148842876Y-107481239D01*
X148877806Y-107500930D01*
X148904824Y-107515927D01*
X148921401Y-107524822D01*
X148925412Y-107526667D01*
X148926066Y-107518480D01*
X148926586Y-107495040D01*
X148926964Y-107458024D01*
X148927197Y-107409111D01*
X148927278Y-107349981D01*
X148927203Y-107282312D01*
X148926966Y-107207784D01*
X148926635Y-107140709D01*
X148924433Y-106754750D01*
X148758737Y-106659338D01*
X148593041Y-106563925D01*
X148390992Y-106681080D01*
X148331034Y-106715760D01*
X148283784Y-106742764D01*
X148247348Y-106762987D01*
X148219833Y-106777325D01*
X148199344Y-106786673D01*
X148183985Y-106791926D01*
X148171863Y-106793981D01*
X148161083Y-106793733D01*
X148154522Y-106792859D01*
X148137059Y-106786931D01*
X148106060Y-106772452D01*
X148061378Y-106749340D01*
X148002863Y-106717515D01*
X147930365Y-106676898D01*
X147843737Y-106627409D01*
X147798367Y-106601216D01*
X147688266Y-106537423D01*
X147592118Y-106481600D01*
X147509179Y-106433308D01*
X147438704Y-106392105D01*
X147379949Y-106357553D01*
X147332169Y-106329211D01*
X147294621Y-106306639D01*
X147266559Y-106289396D01*
X147247241Y-106277044D01*
X147235920Y-106269142D01*
X147233833Y-106267453D01*
X147219205Y-106244931D01*
X147213081Y-106214243D01*
X147216102Y-106182218D01*
X147223998Y-106162670D01*
X147236197Y-106150441D01*
X147261137Y-106131698D01*
X147296572Y-106107740D01*
X147340257Y-106079867D01*
X147389944Y-106049380D01*
X147443388Y-106017578D01*
X147498343Y-105985761D01*
X147552562Y-105955230D01*
X147603800Y-105927284D01*
X147649810Y-105903223D01*
X147688347Y-105884347D01*
X147717163Y-105871957D01*
X147734013Y-105867352D01*
X147734264Y-105867348D01*
X147749725Y-105869888D01*
X147772248Y-105878188D01*
X147803549Y-105893074D01*
X147845346Y-105915373D01*
X147899353Y-105945913D01*
X147909671Y-105951867D01*
X147954528Y-105977683D01*
X147994301Y-106000324D01*
X148026705Y-106018511D01*
X148049455Y-106030962D01*
X148060266Y-106036399D01*
X148060766Y-106036534D01*
X148062215Y-106028539D01*
X148063198Y-106006430D01*
X148063666Y-105973024D01*
X148063570Y-105931135D01*
X148063160Y-105899379D01*
X148060833Y-105762225D01*
X147877037Y-105655962D01*
X147824959Y-105625459D01*
X147776491Y-105596330D01*
X147733996Y-105570053D01*
X147699835Y-105548106D01*
X147676371Y-105531966D01*
X147667487Y-105524833D01*
X147646642Y-105494304D01*
X147641854Y-105459204D01*
X147653272Y-105420770D01*
X147654521Y-105418297D01*
X147672462Y-105393714D01*
X147697114Y-105380405D01*
X147732755Y-105376150D01*
X147735738Y-105376134D01*
X147748039Y-105377149D01*
X147762654Y-105380781D01*
X147781369Y-105387914D01*
X147805970Y-105399428D01*
X147838245Y-105416205D01*
X147879981Y-105439128D01*
X147932963Y-105469077D01*
X147988178Y-105500718D01*
X148044780Y-105533720D01*
X148097856Y-105565503D01*
X148145246Y-105594709D01*
X148184786Y-105619976D01*
X148214316Y-105639947D01*
X148231673Y-105653260D01*
X148233491Y-105655002D01*
X148262215Y-105684700D01*
X148253419Y-106251508D01*
X148226842Y-106275254D01*
X148211465Y-106287806D01*
X148196420Y-106296234D01*
X148179899Y-106299974D01*
X148160096Y-106298463D01*
X148135203Y-106291137D01*
X148103413Y-106277433D01*
X148062917Y-106256788D01*
X148011910Y-106228638D01*
X147948584Y-106192419D01*
X147933856Y-106183911D01*
X147734813Y-106068823D01*
X147694623Y-106091953D01*
X147669811Y-106106292D01*
X147635734Y-106126062D01*
X147597747Y-106148154D01*
X147575115Y-106161342D01*
X147495797Y-106207600D01*
X147570882Y-106251443D01*
X147596493Y-106266325D01*
X147634414Y-106288259D01*
X147682264Y-106315873D01*
X147737663Y-106347796D01*
X147798232Y-106382656D01*
X147861589Y-106419081D01*
X147902373Y-106442507D01*
X148158780Y-106589726D01*
X148190240Y-106574749D01*
X148207415Y-106565855D01*
X148236337Y-106550091D01*
X148274100Y-106529072D01*
X148317798Y-106504419D01*
X148364526Y-106477746D01*
X148365633Y-106477111D01*
X148426782Y-106442040D01*
X148475099Y-106414581D01*
X148512429Y-106393894D01*
X148540615Y-106379141D01*
X148561501Y-106369483D01*
X148576930Y-106364082D01*
X148588746Y-106362099D01*
X148598792Y-106362696D01*
X148608913Y-106365034D01*
X148610865Y-106365570D01*
X148625284Y-106371713D01*
X148652251Y-106385276D01*
X148689692Y-106405137D01*
X148735534Y-106430173D01*
X148787706Y-106459260D01*
X148844135Y-106491276D01*
X148865386Y-106503472D01*
X148936354Y-106544675D01*
X148993359Y-106578583D01*
X149037396Y-106605838D01*
X149069461Y-106627078D01*
X149090549Y-106642945D01*
X149101655Y-106654078D01*
X149103041Y-106656296D01*
X149105555Y-106663589D01*
X149107703Y-106675866D01*
X149109511Y-106694334D01*
X149111005Y-106720200D01*
X149112212Y-106754670D01*
X149113158Y-106798951D01*
X149113869Y-106854250D01*
X149114373Y-106921773D01*
X149114695Y-107002726D01*
X149114862Y-107098317D01*
X149114902Y-107198163D01*
X149114874Y-107305055D01*
D12*
X158690000Y-102930000D02*
X161350000Y-102930000D01*
X158690000Y-97790000D02*
X158690000Y-102930000D01*
X161350000Y-97790000D02*
X161350000Y-102930000D01*
X158690000Y-97790000D02*
X161350000Y-97790000D01*
X158690000Y-96520000D02*
X158690000Y-95190000D01*
X158690000Y-95190000D02*
X160020000Y-95190000D01*
X154245000Y-102930000D02*
X156905000Y-102930000D01*
X154245000Y-97790000D02*
X154245000Y-102930000D01*
X156905000Y-97790000D02*
X156905000Y-102930000D01*
X154245000Y-97790000D02*
X156905000Y-97790000D01*
X154245000Y-96520000D02*
X154245000Y-95190000D01*
X154245000Y-95190000D02*
X155575000Y-95190000D01*
X145355000Y-102930000D02*
X148015000Y-102930000D01*
X145355000Y-97790000D02*
X145355000Y-102930000D01*
X148015000Y-97790000D02*
X148015000Y-102930000D01*
X145355000Y-97790000D02*
X148015000Y-97790000D01*
X145355000Y-96520000D02*
X145355000Y-95190000D01*
X145355000Y-95190000D02*
X146685000Y-95190000D01*
X149800000Y-102930000D02*
X152460000Y-102930000D01*
X149800000Y-97790000D02*
X149800000Y-102930000D01*
X152460000Y-97790000D02*
X152460000Y-102930000D01*
X149800000Y-97790000D02*
X152460000Y-97790000D01*
X149800000Y-96520000D02*
X149800000Y-95190000D01*
X149800000Y-95190000D02*
X151130000Y-95190000D01*
X175835000Y-112455000D02*
X181035000Y-112455000D01*
X175835000Y-99695000D02*
X175835000Y-112455000D01*
X181035000Y-97095000D02*
X181035000Y-112455000D01*
X175835000Y-99695000D02*
X178435000Y-99695000D01*
X178435000Y-99695000D02*
X178435000Y-97095000D01*
X178435000Y-97095000D02*
X181035000Y-97095000D01*
X175835000Y-98425000D02*
X175835000Y-97095000D01*
X175835000Y-97095000D02*
X177165000Y-97095000D01*
X174050000Y-109915000D02*
X174050000Y-104715000D01*
X153670000Y-109915000D02*
X174050000Y-109915000D01*
X151070000Y-104715000D02*
X174050000Y-104715000D01*
X153670000Y-109915000D02*
X153670000Y-107315000D01*
X153670000Y-107315000D02*
X151070000Y-107315000D01*
X151070000Y-107315000D02*
X151070000Y-104715000D01*
X152400000Y-109915000D02*
X151070000Y-109915000D01*
X151070000Y-109915000D02*
X151070000Y-108585000D01*
X174050000Y-114995000D02*
X174050000Y-109795000D01*
X153670000Y-114995000D02*
X174050000Y-114995000D01*
X151070000Y-109795000D02*
X174050000Y-109795000D01*
X153670000Y-114995000D02*
X153670000Y-112395000D01*
X153670000Y-112395000D02*
X151070000Y-112395000D01*
X151070000Y-112395000D02*
X151070000Y-109795000D01*
X152400000Y-114995000D02*
X151070000Y-114995000D01*
X151070000Y-114995000D02*
X151070000Y-113665000D01*
M02*
