M48
INCH,TZ
T1C0.039
%
G90
G05
T1
X57750Y-38000
X57750Y-39000
X57750Y-40000
X58500Y-36000
X58500Y-47500
X59500Y-36000
X59500Y-38000
X59500Y-39000
X59500Y-40000
X59500Y-47500
X60000Y-41750
X60000Y-42750
X60000Y-43750
X60000Y-44750
X60500Y-36000
X60500Y-47500
X61000Y-41750
X61000Y-42750
X61000Y-43750
X61000Y-44750
X61250Y-38000
X61250Y-39000
X61250Y-40000
X61500Y-36000
X61500Y-47500
X62000Y-41750
X62000Y-42750
X62000Y-43750
X62000Y-44750
X62500Y-36000
X62500Y-47500
X63000Y-38000
X63000Y-39000
X63000Y-40000
X63000Y-41750
X63000Y-42750
X63000Y-43750
X63000Y-44750
X63500Y-36000
X63500Y-47500
X64000Y-41750
X64000Y-42750
X64000Y-43750
X64000Y-44750
X64500Y-36000
X64500Y-47500
X64750Y-38000
X64750Y-39000
X64750Y-40000
X65000Y-41750
X65000Y-42750
X65000Y-43750
X65000Y-44750
X65500Y-36000
X65500Y-47500
X66000Y-41750
X66000Y-42750
X66000Y-43750
X66000Y-44750
X66500Y-36000
X66500Y-38000
X66500Y-39000
X66500Y-40000
X66500Y-47500
X67000Y-41750
X67000Y-42750
X67000Y-43750
X67000Y-44750
X67500Y-36000
X67500Y-47500
X68000Y-41750
X68000Y-42750
X68000Y-43750
X68000Y-44750
X68250Y-38000
X68250Y-39000
X68250Y-40000
X68500Y-36000
X68500Y-47500
X69500Y-36000
X69500Y-47500
X69750Y-38750
X69750Y-39750
X69750Y-40750
X69750Y-41750
X69750Y-42750
X69750Y-43750
X70750Y-38750
X70750Y-39750
X70750Y-40750
X70750Y-41750
X70750Y-42750
X70750Y-43750
T0
M30
