G04 #@! TF.FileFunction,Soldermask,Bot*
%FSLAX46Y46*%
G04 Gerber Fmt 4.6, Leading zero omitted, Abs format (unit mm)*
G04 Created by KiCad (PCBNEW 4.0.7-e2-6376~60~ubuntu17.10.1) date Thu Nov  2 21:58:26 2017*
%MOMM*%
%LPD*%
G01*
G04 APERTURE LIST*
%ADD10C,0.100000*%
%ADD11R,1.700000X1.700000*%
%ADD12O,1.700000X1.700000*%
G04 APERTURE END LIST*
D10*
D11*
X164465000Y-96520000D03*
D12*
X164465000Y-99060000D03*
X164465000Y-101600000D03*
D11*
X148590000Y-91440000D03*
D12*
X151130000Y-91440000D03*
X153670000Y-91440000D03*
X156210000Y-91440000D03*
X158750000Y-91440000D03*
X161290000Y-91440000D03*
X163830000Y-91440000D03*
X166370000Y-91440000D03*
X168910000Y-91440000D03*
X171450000Y-91440000D03*
X173990000Y-91440000D03*
X176530000Y-91440000D03*
D11*
X176530000Y-120650000D03*
D12*
X173990000Y-120650000D03*
X171450000Y-120650000D03*
X168910000Y-120650000D03*
X166370000Y-120650000D03*
X163830000Y-120650000D03*
X161290000Y-120650000D03*
X158750000Y-120650000D03*
X156210000Y-120650000D03*
X153670000Y-120650000D03*
X151130000Y-120650000D03*
X148590000Y-120650000D03*
D11*
X173355000Y-96520000D03*
D12*
X173355000Y-99060000D03*
X173355000Y-101600000D03*
D11*
X168910000Y-96520000D03*
D12*
X168910000Y-99060000D03*
X168910000Y-101600000D03*
D11*
X160020000Y-96520000D03*
D12*
X160020000Y-99060000D03*
X160020000Y-101600000D03*
D11*
X155575000Y-96520000D03*
D12*
X155575000Y-99060000D03*
X155575000Y-101600000D03*
D11*
X146685000Y-96520000D03*
D12*
X146685000Y-99060000D03*
X146685000Y-101600000D03*
D11*
X151130000Y-96520000D03*
D12*
X151130000Y-99060000D03*
X151130000Y-101600000D03*
D11*
X177165000Y-98425000D03*
D12*
X179705000Y-98425000D03*
X177165000Y-100965000D03*
X179705000Y-100965000D03*
X177165000Y-103505000D03*
X179705000Y-103505000D03*
X177165000Y-106045000D03*
X179705000Y-106045000D03*
X177165000Y-108585000D03*
X179705000Y-108585000D03*
X177165000Y-111125000D03*
X179705000Y-111125000D03*
D11*
X152400000Y-108585000D03*
D12*
X152400000Y-106045000D03*
X154940000Y-108585000D03*
X154940000Y-106045000D03*
X157480000Y-108585000D03*
X157480000Y-106045000D03*
X160020000Y-108585000D03*
X160020000Y-106045000D03*
X162560000Y-108585000D03*
X162560000Y-106045000D03*
X165100000Y-108585000D03*
X165100000Y-106045000D03*
X167640000Y-108585000D03*
X167640000Y-106045000D03*
X170180000Y-108585000D03*
X170180000Y-106045000D03*
X172720000Y-108585000D03*
X172720000Y-106045000D03*
D11*
X152400000Y-113665000D03*
D12*
X152400000Y-111125000D03*
X154940000Y-113665000D03*
X154940000Y-111125000D03*
X157480000Y-113665000D03*
X157480000Y-111125000D03*
X160020000Y-113665000D03*
X160020000Y-111125000D03*
X162560000Y-113665000D03*
X162560000Y-111125000D03*
X165100000Y-113665000D03*
X165100000Y-111125000D03*
X167640000Y-113665000D03*
X167640000Y-111125000D03*
X170180000Y-113665000D03*
X170180000Y-111125000D03*
X172720000Y-113665000D03*
X172720000Y-111125000D03*
M02*
