M48
INCH,TZ
T1C0.016
T2C0.031
T3C0.038
T4C0.039
%
G90
G05
T1
X59176Y-37789
X59619Y-36342
X60353Y-44254
X60945Y-38532
X61356Y-43270
X62118Y-46280
X62885Y-45222
T2
X67500Y-38000
X68500Y-38000
X69500Y-38000
T3
X65000Y-42750
X65000Y-43750
T4
X62500Y-36000
X62500Y-47500
X63500Y-36000
X63500Y-47500
X64500Y-36000
X64500Y-47500
X65500Y-36000
X65500Y-47500
X66500Y-36000
X66500Y-47500
X67500Y-36000
X67500Y-47500
X68500Y-36000
X68500Y-47500
X69500Y-36000
X69500Y-47500
T0
M30
