G04 #@! TF.FileFunction,Soldermask,Top*
%FSLAX46Y46*%
G04 Gerber Fmt 4.6, Leading zero omitted, Abs format (unit mm)*
G04 Created by KiCad (PCBNEW 4.0.7-e2-6376~58~ubuntu17.04.1) date Wed Oct  4 03:32:47 2017*
%MOMM*%
%LPD*%
G01*
G04 APERTURE LIST*
%ADD10C,0.100000*%
%ADD11C,1.600000*%
%ADD12R,1.700000X1.700000*%
%ADD13O,1.700000X1.700000*%
%ADD14R,0.750000X1.200000*%
%ADD15R,1.200000X0.750000*%
%ADD16R,0.900000X1.200000*%
%ADD17C,1.440000*%
%ADD18R,0.600000X1.550000*%
%ADD19R,1.550000X0.600000*%
G04 APERTURE END LIST*
D10*
D11*
X165100000Y-108585000D03*
X165100000Y-111125000D03*
D12*
X158750000Y-120650000D03*
D13*
X161290000Y-120650000D03*
X163830000Y-120650000D03*
X166370000Y-120650000D03*
X168910000Y-120650000D03*
X171450000Y-120650000D03*
X173990000Y-120650000D03*
X176530000Y-120650000D03*
D14*
X152400000Y-112710000D03*
X152400000Y-110810000D03*
X149225000Y-112710000D03*
X149225000Y-110810000D03*
X149225000Y-98740000D03*
X149225000Y-96840000D03*
X149225000Y-117790000D03*
X149225000Y-115890000D03*
X152400000Y-96840000D03*
X152400000Y-98740000D03*
X155575000Y-113345000D03*
X155575000Y-111445000D03*
D15*
X166685000Y-100965000D03*
X164785000Y-100965000D03*
D14*
X155575000Y-108265000D03*
X155575000Y-106365000D03*
X155575000Y-103820000D03*
X155575000Y-101920000D03*
X149225000Y-91760000D03*
X149225000Y-93660000D03*
X158750000Y-101920000D03*
X158750000Y-103820000D03*
X161925000Y-103820000D03*
X161925000Y-101920000D03*
D16*
X167005000Y-96055000D03*
X167005000Y-98255000D03*
D12*
X158750000Y-91440000D03*
D13*
X161290000Y-91440000D03*
X163830000Y-91440000D03*
X166370000Y-91440000D03*
X168910000Y-91440000D03*
X171450000Y-91440000D03*
X173990000Y-91440000D03*
X176530000Y-91440000D03*
D16*
X155575000Y-96690000D03*
X155575000Y-98890000D03*
X152400000Y-117940000D03*
X152400000Y-115740000D03*
X155575000Y-116375000D03*
X155575000Y-118575000D03*
X155575000Y-91610000D03*
X155575000Y-93810000D03*
X152400000Y-91610000D03*
X152400000Y-93810000D03*
X158750000Y-117305000D03*
X158750000Y-115105000D03*
X161925000Y-115105000D03*
X161925000Y-117305000D03*
D17*
X176530000Y-96520000D03*
X173990000Y-96520000D03*
X171450000Y-96520000D03*
D18*
X161925000Y-106520000D03*
X160655000Y-106520000D03*
X159385000Y-106520000D03*
X158115000Y-106520000D03*
X158115000Y-111920000D03*
X159385000Y-111920000D03*
X160655000Y-111920000D03*
X161925000Y-111920000D03*
X153035000Y-102075000D03*
X151765000Y-102075000D03*
X150495000Y-102075000D03*
X149225000Y-102075000D03*
X149225000Y-107475000D03*
X150495000Y-107475000D03*
X151765000Y-107475000D03*
X153035000Y-107475000D03*
D19*
X163990000Y-98425000D03*
X163990000Y-97155000D03*
X163990000Y-95885000D03*
X163990000Y-94615000D03*
X158590000Y-94615000D03*
X158590000Y-95885000D03*
X158590000Y-97155000D03*
X158590000Y-98425000D03*
M02*
