G04 #@! TF.FileFunction,Legend,Top*
%FSLAX46Y46*%
G04 Gerber Fmt 4.6, Leading zero omitted, Abs format (unit mm)*
G04 Created by KiCad (PCBNEW 4.0.7-e2-6376~58~ubuntu17.04.1) date Wed Oct  4 03:32:47 2017*
%MOMM*%
%LPD*%
G01*
G04 APERTURE LIST*
%ADD10C,0.100000*%
%ADD11C,0.200000*%
%ADD12C,0.120000*%
%ADD13C,0.010000*%
%ADD14C,0.150000*%
G04 APERTURE END LIST*
D10*
X154421667Y-122816666D02*
X154421667Y-122483332D01*
X154621667Y-122883332D02*
X153921667Y-122649999D01*
X154621667Y-122416666D01*
X154621667Y-121849999D02*
X154621667Y-122183332D01*
X153921667Y-122183332D01*
X153921667Y-121483332D02*
X153921667Y-121349999D01*
X153955000Y-121283332D01*
X154021667Y-121216665D01*
X154155000Y-121183332D01*
X154388333Y-121183332D01*
X154521667Y-121216665D01*
X154588333Y-121283332D01*
X154621667Y-121349999D01*
X154621667Y-121483332D01*
X154588333Y-121549999D01*
X154521667Y-121616665D01*
X154388333Y-121649999D01*
X154155000Y-121649999D01*
X154021667Y-121616665D01*
X153955000Y-121549999D01*
X153921667Y-121483332D01*
X154255000Y-120883332D02*
X154255000Y-120649999D01*
X154621667Y-120549999D02*
X154621667Y-120883332D01*
X153921667Y-120883332D01*
X153921667Y-120549999D01*
X154588333Y-120283333D02*
X154621667Y-120183333D01*
X154621667Y-120016666D01*
X154588333Y-119949999D01*
X154555000Y-119916666D01*
X154488333Y-119883333D01*
X154421667Y-119883333D01*
X154355000Y-119916666D01*
X154321667Y-119949999D01*
X154288333Y-120016666D01*
X154255000Y-120149999D01*
X154221667Y-120216666D01*
X154188333Y-120249999D01*
X154121667Y-120283333D01*
X154055000Y-120283333D01*
X153988333Y-120249999D01*
X153955000Y-120216666D01*
X153921667Y-120149999D01*
X153921667Y-119983333D01*
X153955000Y-119883333D01*
X154555000Y-119583332D02*
X154588333Y-119549999D01*
X154621667Y-119583332D01*
X154588333Y-119616666D01*
X154555000Y-119583332D01*
X154621667Y-119583332D01*
X154621667Y-119249999D02*
X153921667Y-119249999D01*
X153921667Y-118783333D02*
X153921667Y-118650000D01*
X153955000Y-118583333D01*
X154021667Y-118516666D01*
X154155000Y-118483333D01*
X154388333Y-118483333D01*
X154521667Y-118516666D01*
X154588333Y-118583333D01*
X154621667Y-118650000D01*
X154621667Y-118783333D01*
X154588333Y-118850000D01*
X154521667Y-118916666D01*
X154388333Y-118950000D01*
X154155000Y-118950000D01*
X154021667Y-118916666D01*
X153955000Y-118850000D01*
X153921667Y-118783333D01*
X176646667Y-90035000D02*
X176646667Y-89701666D01*
X176846667Y-90101666D02*
X176146667Y-89868333D01*
X176846667Y-89635000D01*
X176146667Y-89468333D02*
X176146667Y-89001666D01*
X176846667Y-89301666D01*
X174106667Y-90035000D02*
X174106667Y-89701666D01*
X174306667Y-90101666D02*
X173606667Y-89868333D01*
X174306667Y-89635000D01*
X173606667Y-89068333D02*
X173606667Y-89401666D01*
X173940000Y-89435000D01*
X173906667Y-89401666D01*
X173873333Y-89335000D01*
X173873333Y-89168333D01*
X173906667Y-89101666D01*
X173940000Y-89068333D01*
X174006667Y-89035000D01*
X174173333Y-89035000D01*
X174240000Y-89068333D01*
X174273333Y-89101666D01*
X174306667Y-89168333D01*
X174306667Y-89335000D01*
X174273333Y-89401666D01*
X174240000Y-89435000D01*
X171566667Y-90035000D02*
X171566667Y-89701666D01*
X171766667Y-90101666D02*
X171066667Y-89868333D01*
X171766667Y-89635000D01*
X171300000Y-89101666D02*
X171766667Y-89101666D01*
X171033333Y-89268333D02*
X171533333Y-89435000D01*
X171533333Y-89001666D01*
X167106667Y-89185000D02*
X167040001Y-89151667D01*
X166940001Y-89151667D01*
X166840001Y-89185000D01*
X166773334Y-89251667D01*
X166740001Y-89318333D01*
X166706667Y-89451667D01*
X166706667Y-89551667D01*
X166740001Y-89685000D01*
X166773334Y-89751667D01*
X166840001Y-89818333D01*
X166940001Y-89851667D01*
X167006667Y-89851667D01*
X167106667Y-89818333D01*
X167140001Y-89785000D01*
X167140001Y-89551667D01*
X167006667Y-89551667D01*
X167440001Y-89851667D02*
X167440001Y-89151667D01*
X167840001Y-89851667D01*
X167840001Y-89151667D01*
X168173334Y-89851667D02*
X168173334Y-89151667D01*
X168340000Y-89151667D01*
X168440000Y-89185000D01*
X168506667Y-89251667D01*
X168540000Y-89318333D01*
X168573334Y-89451667D01*
X168573334Y-89551667D01*
X168540000Y-89685000D01*
X168506667Y-89751667D01*
X168440000Y-89818333D01*
X168340000Y-89851667D01*
X168173334Y-89851667D01*
X161326667Y-89585000D02*
X161860000Y-89585000D01*
X161593333Y-89851667D02*
X161593333Y-89318333D01*
X162126667Y-89151667D02*
X162560000Y-89151667D01*
X162326667Y-89418333D01*
X162426667Y-89418333D01*
X162493334Y-89451667D01*
X162526667Y-89485000D01*
X162560000Y-89551667D01*
X162560000Y-89718333D01*
X162526667Y-89785000D01*
X162493334Y-89818333D01*
X162426667Y-89851667D01*
X162226667Y-89851667D01*
X162160000Y-89818333D01*
X162126667Y-89785000D01*
X162760001Y-89151667D02*
X162993334Y-89851667D01*
X163226667Y-89151667D01*
X163393334Y-89151667D02*
X163826667Y-89151667D01*
X163593334Y-89418333D01*
X163693334Y-89418333D01*
X163760001Y-89451667D01*
X163793334Y-89485000D01*
X163826667Y-89551667D01*
X163826667Y-89718333D01*
X163793334Y-89785000D01*
X163760001Y-89818333D01*
X163693334Y-89851667D01*
X163493334Y-89851667D01*
X163426667Y-89818333D01*
X163393334Y-89785000D01*
X156931667Y-89585000D02*
X157465000Y-89585000D01*
X157198333Y-89851667D02*
X157198333Y-89318333D01*
X158031667Y-89485000D02*
X158131667Y-89518333D01*
X158165000Y-89551667D01*
X158198334Y-89618333D01*
X158198334Y-89718333D01*
X158165000Y-89785000D01*
X158131667Y-89818333D01*
X158065000Y-89851667D01*
X157798334Y-89851667D01*
X157798334Y-89151667D01*
X158031667Y-89151667D01*
X158098334Y-89185000D01*
X158131667Y-89218333D01*
X158165000Y-89285000D01*
X158165000Y-89351667D01*
X158131667Y-89418333D01*
X158098334Y-89451667D01*
X158031667Y-89485000D01*
X157798334Y-89485000D01*
X158465000Y-89651667D02*
X158798334Y-89651667D01*
X158398334Y-89851667D02*
X158631667Y-89151667D01*
X158865000Y-89851667D01*
X158998334Y-89151667D02*
X159398334Y-89151667D01*
X159198334Y-89851667D02*
X159198334Y-89151667D01*
X176646667Y-123055000D02*
X176646667Y-122721666D01*
X176846667Y-123121666D02*
X176146667Y-122888333D01*
X176846667Y-122655000D01*
X176146667Y-122121666D02*
X176146667Y-122255000D01*
X176180000Y-122321666D01*
X176213333Y-122355000D01*
X176313333Y-122421666D01*
X176446667Y-122455000D01*
X176713333Y-122455000D01*
X176780000Y-122421666D01*
X176813333Y-122388333D01*
X176846667Y-122321666D01*
X176846667Y-122188333D01*
X176813333Y-122121666D01*
X176780000Y-122088333D01*
X176713333Y-122055000D01*
X176546667Y-122055000D01*
X176480000Y-122088333D01*
X176446667Y-122121666D01*
X176413333Y-122188333D01*
X176413333Y-122321666D01*
X176446667Y-122388333D01*
X176480000Y-122421666D01*
X176546667Y-122455000D01*
X174106667Y-123055000D02*
X174106667Y-122721666D01*
X174306667Y-123121666D02*
X173606667Y-122888333D01*
X174306667Y-122655000D01*
X174306667Y-122055000D02*
X174306667Y-122455000D01*
X174306667Y-122255000D02*
X173606667Y-122255000D01*
X173706667Y-122321666D01*
X173773333Y-122388333D01*
X173806667Y-122455000D01*
X171566667Y-123055000D02*
X171566667Y-122721666D01*
X171766667Y-123121666D02*
X171066667Y-122888333D01*
X171766667Y-122655000D01*
X171066667Y-122288333D02*
X171066667Y-122221666D01*
X171100000Y-122155000D01*
X171133333Y-122121666D01*
X171200000Y-122088333D01*
X171333333Y-122055000D01*
X171500000Y-122055000D01*
X171633333Y-122088333D01*
X171700000Y-122121666D01*
X171733333Y-122155000D01*
X171766667Y-122221666D01*
X171766667Y-122288333D01*
X171733333Y-122355000D01*
X171700000Y-122388333D01*
X171633333Y-122421666D01*
X171500000Y-122455000D01*
X171333333Y-122455000D01*
X171200000Y-122421666D01*
X171133333Y-122388333D01*
X171100000Y-122355000D01*
X171066667Y-122288333D01*
X169226667Y-123071666D02*
X168526667Y-123071666D01*
X168526667Y-122905000D01*
X168560000Y-122805000D01*
X168626667Y-122738333D01*
X168693333Y-122705000D01*
X168826667Y-122671666D01*
X168926667Y-122671666D01*
X169060000Y-122705000D01*
X169126667Y-122738333D01*
X169193333Y-122805000D01*
X169226667Y-122905000D01*
X169226667Y-123071666D01*
X168526667Y-122438333D02*
X168526667Y-121971666D01*
X169226667Y-122271666D01*
X166686667Y-123071666D02*
X165986667Y-123071666D01*
X165986667Y-122905000D01*
X166020000Y-122805000D01*
X166086667Y-122738333D01*
X166153333Y-122705000D01*
X166286667Y-122671666D01*
X166386667Y-122671666D01*
X166520000Y-122705000D01*
X166586667Y-122738333D01*
X166653333Y-122805000D01*
X166686667Y-122905000D01*
X166686667Y-123071666D01*
X165986667Y-122071666D02*
X165986667Y-122205000D01*
X166020000Y-122271666D01*
X166053333Y-122305000D01*
X166153333Y-122371666D01*
X166286667Y-122405000D01*
X166553333Y-122405000D01*
X166620000Y-122371666D01*
X166653333Y-122338333D01*
X166686667Y-122271666D01*
X166686667Y-122138333D01*
X166653333Y-122071666D01*
X166620000Y-122038333D01*
X166553333Y-122005000D01*
X166386667Y-122005000D01*
X166320000Y-122038333D01*
X166286667Y-122071666D01*
X166253333Y-122138333D01*
X166253333Y-122271666D01*
X166286667Y-122338333D01*
X166320000Y-122371666D01*
X166386667Y-122405000D01*
X164146667Y-123071666D02*
X163446667Y-123071666D01*
X163446667Y-122905000D01*
X163480000Y-122805000D01*
X163546667Y-122738333D01*
X163613333Y-122705000D01*
X163746667Y-122671666D01*
X163846667Y-122671666D01*
X163980000Y-122705000D01*
X164046667Y-122738333D01*
X164113333Y-122805000D01*
X164146667Y-122905000D01*
X164146667Y-123071666D01*
X163446667Y-122038333D02*
X163446667Y-122371666D01*
X163780000Y-122405000D01*
X163746667Y-122371666D01*
X163713333Y-122305000D01*
X163713333Y-122138333D01*
X163746667Y-122071666D01*
X163780000Y-122038333D01*
X163846667Y-122005000D01*
X164013333Y-122005000D01*
X164080000Y-122038333D01*
X164113333Y-122071666D01*
X164146667Y-122138333D01*
X164146667Y-122305000D01*
X164113333Y-122371666D01*
X164080000Y-122405000D01*
X161606667Y-123071666D02*
X160906667Y-123071666D01*
X160906667Y-122905000D01*
X160940000Y-122805000D01*
X161006667Y-122738333D01*
X161073333Y-122705000D01*
X161206667Y-122671666D01*
X161306667Y-122671666D01*
X161440000Y-122705000D01*
X161506667Y-122738333D01*
X161573333Y-122805000D01*
X161606667Y-122905000D01*
X161606667Y-123071666D01*
X161140000Y-122071666D02*
X161606667Y-122071666D01*
X160873333Y-122238333D02*
X161373333Y-122405000D01*
X161373333Y-121971666D01*
X159066667Y-123071666D02*
X158366667Y-123071666D01*
X158366667Y-122905000D01*
X158400000Y-122805000D01*
X158466667Y-122738333D01*
X158533333Y-122705000D01*
X158666667Y-122671666D01*
X158766667Y-122671666D01*
X158900000Y-122705000D01*
X158966667Y-122738333D01*
X159033333Y-122805000D01*
X159066667Y-122905000D01*
X159066667Y-123071666D01*
X158366667Y-122438333D02*
X158366667Y-122005000D01*
X158633333Y-122238333D01*
X158633333Y-122138333D01*
X158666667Y-122071666D01*
X158700000Y-122038333D01*
X158766667Y-122005000D01*
X158933333Y-122005000D01*
X159000000Y-122038333D01*
X159033333Y-122071666D01*
X159066667Y-122138333D01*
X159066667Y-122338333D01*
X159033333Y-122405000D01*
X159000000Y-122438333D01*
D11*
X163820000Y-103745000D02*
X163820000Y-118505000D01*
X163820000Y-118505000D02*
X177550000Y-118505000D01*
X177550000Y-118505000D02*
X177550000Y-103745000D01*
X177550000Y-103745000D02*
X163820000Y-103745000D01*
X177800000Y-105590000D02*
X186310000Y-105590000D01*
X186310000Y-105590000D02*
X186310000Y-116660000D01*
X186310000Y-116660000D02*
X177800000Y-116660000D01*
X186690000Y-106625000D02*
X193680000Y-106625000D01*
X193680000Y-106625000D02*
X195680000Y-106625000D01*
X195680000Y-106625000D02*
X198750000Y-106625000D01*
X198750000Y-106625000D02*
X198750000Y-115625000D01*
X198750000Y-115625000D02*
X195680000Y-115625000D01*
X195680000Y-115625000D02*
X193680000Y-115625000D01*
X193680000Y-115625000D02*
X186690000Y-115625000D01*
X195680000Y-106625000D02*
X195680000Y-105625000D01*
X195680000Y-105625000D02*
X193680000Y-105625000D01*
X193680000Y-105625000D02*
X193680000Y-106625000D01*
X195680000Y-116625000D02*
X193680000Y-116625000D01*
X195680000Y-116625000D02*
X195680000Y-115625000D01*
X193680000Y-115625000D02*
X193680000Y-116625000D01*
D12*
X151800000Y-112110000D02*
X151800000Y-111410000D01*
X153000000Y-111410000D02*
X153000000Y-112110000D01*
X148625000Y-112110000D02*
X148625000Y-111410000D01*
X149825000Y-111410000D02*
X149825000Y-112110000D01*
X148625000Y-98140000D02*
X148625000Y-97440000D01*
X149825000Y-97440000D02*
X149825000Y-98140000D01*
X148625000Y-117190000D02*
X148625000Y-116490000D01*
X149825000Y-116490000D02*
X149825000Y-117190000D01*
X153000000Y-97440000D02*
X153000000Y-98140000D01*
X151800000Y-98140000D02*
X151800000Y-97440000D01*
X154975000Y-112745000D02*
X154975000Y-112045000D01*
X156175000Y-112045000D02*
X156175000Y-112745000D01*
X166085000Y-101565000D02*
X165385000Y-101565000D01*
X165385000Y-100365000D02*
X166085000Y-100365000D01*
X154975000Y-107665000D02*
X154975000Y-106965000D01*
X156175000Y-106965000D02*
X156175000Y-107665000D01*
X154975000Y-103220000D02*
X154975000Y-102520000D01*
X156175000Y-102520000D02*
X156175000Y-103220000D01*
X149825000Y-92360000D02*
X149825000Y-93060000D01*
X148625000Y-93060000D02*
X148625000Y-92360000D01*
X159350000Y-102520000D02*
X159350000Y-103220000D01*
X158150000Y-103220000D02*
X158150000Y-102520000D01*
X161325000Y-103220000D02*
X161325000Y-102520000D01*
X162525000Y-102520000D02*
X162525000Y-103220000D01*
X167555000Y-95355000D02*
X166455000Y-95355000D01*
X166455000Y-95355000D02*
X166455000Y-97955000D01*
X167555000Y-95355000D02*
X167555000Y-97955000D01*
D13*
G36*
X149335126Y-120659945D02*
X149335220Y-120568675D01*
X149335419Y-120491716D01*
X149335760Y-120427758D01*
X149336284Y-120375489D01*
X149337027Y-120333599D01*
X149338028Y-120300776D01*
X149339325Y-120275709D01*
X149340957Y-120257088D01*
X149342962Y-120243601D01*
X149345379Y-120233938D01*
X149348245Y-120226787D01*
X149351030Y-120221758D01*
X149376640Y-120194028D01*
X149409393Y-120179938D01*
X149445443Y-120181031D01*
X149449662Y-120182211D01*
X149465949Y-120189233D01*
X149494091Y-120203526D01*
X149531785Y-120223756D01*
X149576725Y-120248590D01*
X149626606Y-120276695D01*
X149679124Y-120306739D01*
X149731973Y-120337388D01*
X149782848Y-120367309D01*
X149829445Y-120395170D01*
X149869458Y-120419638D01*
X149900583Y-120439379D01*
X149920515Y-120453061D01*
X149926037Y-120457694D01*
X149932113Y-120465064D01*
X149936798Y-120474116D01*
X149940367Y-120487179D01*
X149943096Y-120506585D01*
X149945261Y-120534664D01*
X149947138Y-120573746D01*
X149949004Y-120626163D01*
X149950108Y-120660985D01*
X149951922Y-120714701D01*
X149953804Y-120762224D01*
X149955635Y-120801121D01*
X149957296Y-120828962D01*
X149958666Y-120843313D01*
X149959121Y-120844733D01*
X149967205Y-120840723D01*
X149987349Y-120829658D01*
X150016968Y-120812988D01*
X150053477Y-120792162D01*
X150076154Y-120779117D01*
X150189884Y-120713500D01*
X150190200Y-120323186D01*
X149998386Y-120213873D01*
X149945549Y-120183381D01*
X149896730Y-120154488D01*
X149854149Y-120128565D01*
X149820027Y-120106984D01*
X149796586Y-120091117D01*
X149786719Y-120083150D01*
X149766867Y-120061740D01*
X149766867Y-118993855D01*
X149794787Y-118966794D01*
X149808613Y-118954194D01*
X149821887Y-118945167D01*
X149836269Y-118940259D01*
X149853417Y-118940016D01*
X149874992Y-118944985D01*
X149902654Y-118955711D01*
X149938061Y-118972741D01*
X149982872Y-118996622D01*
X150038749Y-119027898D01*
X150107349Y-119067117D01*
X150117734Y-119073083D01*
X150189273Y-119114520D01*
X150246979Y-119148706D01*
X150291966Y-119176354D01*
X150325343Y-119198176D01*
X150348222Y-119214885D01*
X150361716Y-119227195D01*
X150365235Y-119231833D01*
X150370610Y-119242704D01*
X150374771Y-119257023D01*
X150377955Y-119277221D01*
X150380401Y-119305729D01*
X150382348Y-119344977D01*
X150384035Y-119397397D01*
X150384934Y-119432550D01*
X150389167Y-119607868D01*
X150505583Y-119539682D01*
X150622000Y-119471496D01*
X150623077Y-119317798D01*
X150623761Y-119259858D01*
X150624949Y-119199717D01*
X150626504Y-119142683D01*
X150628291Y-119094062D01*
X150629427Y-119070967D01*
X150634700Y-118977833D01*
X150681267Y-118947081D01*
X150701506Y-118934277D01*
X150733787Y-118914539D01*
X150775503Y-118889429D01*
X150824048Y-118860511D01*
X150876814Y-118829345D01*
X150917884Y-118805264D01*
X150977415Y-118770673D01*
X151024416Y-118743920D01*
X151060831Y-118724050D01*
X151088601Y-118710109D01*
X151109668Y-118701142D01*
X151125974Y-118696195D01*
X151139461Y-118694312D01*
X151143800Y-118694200D01*
X151152672Y-118694965D01*
X151163782Y-118697677D01*
X151178291Y-118702954D01*
X151197360Y-118711419D01*
X151222149Y-118723693D01*
X151253819Y-118740398D01*
X151293530Y-118762153D01*
X151342442Y-118789580D01*
X151401717Y-118823301D01*
X151472514Y-118863936D01*
X151555995Y-118912107D01*
X151618383Y-118948201D01*
X151700677Y-118996049D01*
X151778059Y-119041436D01*
X151849271Y-119083601D01*
X151913055Y-119121780D01*
X151968155Y-119155213D01*
X152013312Y-119183138D01*
X152047268Y-119204793D01*
X152068767Y-119219415D01*
X152076108Y-119225485D01*
X152091908Y-119257355D01*
X152093691Y-119293711D01*
X152081342Y-119328880D01*
X152070929Y-119339827D01*
X152049023Y-119356368D01*
X152014911Y-119378958D01*
X151967882Y-119408051D01*
X151907224Y-119444100D01*
X151837200Y-119484703D01*
X151770759Y-119522722D01*
X151717183Y-119552923D01*
X151674790Y-119576145D01*
X151641895Y-119593232D01*
X151616813Y-119605026D01*
X151597860Y-119612367D01*
X151583352Y-119616098D01*
X151572392Y-119617066D01*
X151556334Y-119615485D01*
X151537281Y-119609971D01*
X151512690Y-119599369D01*
X151480017Y-119582523D01*
X151436722Y-119558277D01*
X151413325Y-119544779D01*
X151370213Y-119519844D01*
X151330541Y-119497065D01*
X151297340Y-119478168D01*
X151273644Y-119464883D01*
X151264425Y-119459895D01*
X151240067Y-119447298D01*
X151240329Y-119722900D01*
X151432815Y-119832966D01*
X151485657Y-119863535D01*
X151534438Y-119892420D01*
X151576956Y-119918266D01*
X151611012Y-119939717D01*
X151634405Y-119955416D01*
X151644350Y-119963319D01*
X151649494Y-119969106D01*
X151653615Y-119975545D01*
X151656824Y-119984445D01*
X151659231Y-119997612D01*
X151660948Y-120016855D01*
X151662085Y-120043980D01*
X151662753Y-120080795D01*
X151663064Y-120129108D01*
X151663129Y-120190724D01*
X151663057Y-120267453D01*
X151663056Y-120268119D01*
X151662712Y-120552633D01*
X151639773Y-120578638D01*
X151625421Y-120590714D01*
X151598880Y-120609062D01*
X151562384Y-120632412D01*
X151518167Y-120659495D01*
X151468462Y-120689040D01*
X151415504Y-120719777D01*
X151361527Y-120750436D01*
X151308764Y-120779747D01*
X151259450Y-120806440D01*
X151215818Y-120829246D01*
X151180101Y-120846893D01*
X151154536Y-120858113D01*
X151141931Y-120861667D01*
X151115766Y-120854951D01*
X151086566Y-120836632D01*
X151085363Y-120835650D01*
X151053800Y-120809634D01*
X151052881Y-120613400D01*
X151052378Y-120554153D01*
X151051479Y-120497643D01*
X151050270Y-120447069D01*
X151048832Y-120405631D01*
X151047248Y-120376527D01*
X151046531Y-120368492D01*
X151041100Y-120319818D01*
X150924683Y-120252921D01*
X150808267Y-120186025D01*
X150808267Y-120960047D01*
X150974793Y-121055499D01*
X151029379Y-121086602D01*
X151071351Y-121109964D01*
X151102658Y-121126491D01*
X151125246Y-121137088D01*
X151141063Y-121142660D01*
X151152055Y-121144112D01*
X151160170Y-121142349D01*
X151160912Y-121142025D01*
X151173483Y-121135389D01*
X151198416Y-121121478D01*
X151233459Y-121101575D01*
X151276362Y-121076964D01*
X151324876Y-121048927D01*
X151362573Y-121027016D01*
X151427296Y-120989775D01*
X151478909Y-120961170D01*
X151518520Y-120940639D01*
X151547238Y-120927618D01*
X151566169Y-120921548D01*
X151571732Y-120920933D01*
X151582795Y-120922258D01*
X151597579Y-120926706D01*
X151617408Y-120934984D01*
X151643611Y-120947802D01*
X151677512Y-120965869D01*
X151720439Y-120989892D01*
X151773718Y-121020581D01*
X151838675Y-121058644D01*
X151916637Y-121104790D01*
X151923504Y-121108870D01*
X151969948Y-121136972D01*
X152011628Y-121163155D01*
X152046240Y-121185894D01*
X152071481Y-121203663D01*
X152085047Y-121214936D01*
X152086488Y-121216807D01*
X152093936Y-121244482D01*
X152093082Y-121277792D01*
X152084254Y-121307805D01*
X152083048Y-121310097D01*
X152071287Y-121321679D01*
X152044991Y-121340619D01*
X152004700Y-121366570D01*
X151950960Y-121399185D01*
X151884311Y-121438118D01*
X151869565Y-121446583D01*
X151667634Y-121562205D01*
X151665310Y-121703480D01*
X151662986Y-121844756D01*
X151699177Y-121823565D01*
X151714349Y-121814740D01*
X151742397Y-121798487D01*
X151781533Y-121775838D01*
X151829967Y-121747830D01*
X151885909Y-121715496D01*
X151947570Y-121679872D01*
X152013160Y-121641991D01*
X152035934Y-121628842D01*
X152336500Y-121455311D01*
X152338619Y-121262205D01*
X152340738Y-121069100D01*
X152141082Y-120955142D01*
X152080296Y-120919937D01*
X152027294Y-120888219D01*
X151983637Y-120860977D01*
X151950884Y-120839199D01*
X151930594Y-120823873D01*
X151925180Y-120818369D01*
X151921849Y-120813114D01*
X151919007Y-120806562D01*
X151916615Y-120797415D01*
X151914634Y-120784374D01*
X151913026Y-120766139D01*
X151911751Y-120741412D01*
X151910773Y-120708894D01*
X151910050Y-120667286D01*
X151909546Y-120615291D01*
X151909221Y-120551608D01*
X151909036Y-120474939D01*
X151908953Y-120383985D01*
X151908934Y-120277448D01*
X151908934Y-120272926D01*
X151908950Y-120165786D01*
X151909025Y-120074270D01*
X151909199Y-119997068D01*
X151909511Y-119932869D01*
X151910001Y-119880364D01*
X151910710Y-119838243D01*
X151911677Y-119805196D01*
X151912941Y-119779913D01*
X151914543Y-119761084D01*
X151916522Y-119747400D01*
X151918918Y-119737550D01*
X151921771Y-119730224D01*
X151925121Y-119724113D01*
X151925636Y-119723274D01*
X151949053Y-119698975D01*
X151980065Y-119684582D01*
X152012647Y-119682362D01*
X152025547Y-119685679D01*
X152040696Y-119692882D01*
X152067792Y-119707214D01*
X152104548Y-119727361D01*
X152148678Y-119752008D01*
X152197893Y-119779838D01*
X152249908Y-119809537D01*
X152302435Y-119839789D01*
X152353187Y-119869278D01*
X152399877Y-119896690D01*
X152440218Y-119920709D01*
X152471923Y-119940019D01*
X152492706Y-119953305D01*
X152499483Y-119958274D01*
X152505655Y-119964415D01*
X152510325Y-119971617D01*
X152513704Y-119982144D01*
X152515999Y-119998260D01*
X152517421Y-120022228D01*
X152518178Y-120056314D01*
X152518479Y-120102780D01*
X152518533Y-120163891D01*
X152518533Y-120164642D01*
X152518804Y-120219140D01*
X152519563Y-120267447D01*
X152520730Y-120307172D01*
X152522223Y-120335922D01*
X152523963Y-120351307D01*
X152524883Y-120353241D01*
X152534038Y-120349049D01*
X152555141Y-120337762D01*
X152585535Y-120320848D01*
X152622562Y-120299779D01*
X152645533Y-120286521D01*
X152759833Y-120220226D01*
X152765054Y-120022363D01*
X152766613Y-119963172D01*
X152768087Y-119906977D01*
X152769397Y-119856892D01*
X152770459Y-119816033D01*
X152771194Y-119787512D01*
X152771404Y-119779213D01*
X152773597Y-119750208D01*
X152780268Y-119730799D01*
X152794268Y-119713727D01*
X152798829Y-119709363D01*
X152831049Y-119689402D01*
X152865950Y-119684353D01*
X152899730Y-119693487D01*
X152928584Y-119716074D01*
X152942546Y-119736931D01*
X152949210Y-119752183D01*
X152953671Y-119769357D01*
X152956260Y-119791903D01*
X152957311Y-119823269D01*
X152957157Y-119866905D01*
X152956882Y-119885546D01*
X152956074Y-119935080D01*
X152955095Y-119995550D01*
X152954043Y-120060958D01*
X152953014Y-120125308D01*
X152952467Y-120159745D01*
X152951493Y-120215175D01*
X152950381Y-120256199D01*
X152948822Y-120285343D01*
X152946505Y-120305132D01*
X152943122Y-120318093D01*
X152938365Y-120326752D01*
X152931923Y-120333635D01*
X152931101Y-120334389D01*
X152919157Y-120342872D01*
X152894505Y-120358539D01*
X152859147Y-120380184D01*
X152815084Y-120406598D01*
X152764318Y-120436575D01*
X152708849Y-120468908D01*
X152690308Y-120479627D01*
X152626525Y-120516312D01*
X152575502Y-120545296D01*
X152535409Y-120567472D01*
X152504416Y-120583734D01*
X152480691Y-120594975D01*
X152462404Y-120602087D01*
X152447724Y-120605963D01*
X152434822Y-120607497D01*
X152427841Y-120607666D01*
X152401334Y-120606145D01*
X152383961Y-120599236D01*
X152368024Y-120583420D01*
X152364017Y-120578485D01*
X152340733Y-120549305D01*
X152340731Y-120313902D01*
X152340729Y-120078500D01*
X152262415Y-120034154D01*
X152223967Y-120012332D01*
X152185503Y-119990416D01*
X152152834Y-119971721D01*
X152139650Y-119964133D01*
X152095200Y-119938457D01*
X152095239Y-120325979D01*
X152095277Y-120713500D01*
X152275155Y-120814328D01*
X152327362Y-120844093D01*
X152376334Y-120872949D01*
X152419541Y-120899333D01*
X152454457Y-120921682D01*
X152478553Y-120938433D01*
X152486783Y-120945163D01*
X152518533Y-120975170D01*
X152518264Y-121263435D01*
X152518070Y-121344032D01*
X152517610Y-121409289D01*
X152516822Y-121460798D01*
X152515642Y-121500151D01*
X152514006Y-121528940D01*
X152511852Y-121548756D01*
X152509117Y-121561192D01*
X152506181Y-121567291D01*
X152496892Y-121574219D01*
X152474216Y-121588781D01*
X152439460Y-121610199D01*
X152393931Y-121637694D01*
X152338936Y-121670487D01*
X152275783Y-121707797D01*
X152205778Y-121748845D01*
X152130230Y-121792853D01*
X152050445Y-121839041D01*
X152048191Y-121840341D01*
X151952574Y-121895503D01*
X151870472Y-121942735D01*
X151800723Y-121982552D01*
X151742164Y-122015465D01*
X151693631Y-122041990D01*
X151653962Y-122062639D01*
X151621993Y-122077925D01*
X151596563Y-122088362D01*
X151576507Y-122094464D01*
X151560663Y-122096744D01*
X151547868Y-122095714D01*
X151536959Y-122091889D01*
X151526773Y-122085783D01*
X151516148Y-122077907D01*
X151513916Y-122076202D01*
X151485600Y-122054605D01*
X151485600Y-121764077D01*
X151485646Y-121685997D01*
X151485846Y-121623060D01*
X151486294Y-121573476D01*
X151487085Y-121535454D01*
X151488313Y-121507204D01*
X151490071Y-121486936D01*
X151492453Y-121472860D01*
X151495554Y-121463185D01*
X151499468Y-121456120D01*
X151501958Y-121452755D01*
X151514424Y-121441883D01*
X151538948Y-121424515D01*
X151572814Y-121402431D01*
X151613306Y-121377408D01*
X151652241Y-121354380D01*
X151695717Y-121329149D01*
X151734583Y-121306505D01*
X151766274Y-121287950D01*
X151788226Y-121274984D01*
X151797608Y-121269287D01*
X151797857Y-121263204D01*
X151786722Y-121252077D01*
X151763431Y-121235391D01*
X151727215Y-121212633D01*
X151677302Y-121183287D01*
X151620759Y-121151226D01*
X151573884Y-121124960D01*
X151375225Y-121238667D01*
X151312275Y-121274435D01*
X151262082Y-121302282D01*
X151222921Y-121323059D01*
X151193065Y-121337619D01*
X151170789Y-121346812D01*
X151154367Y-121351490D01*
X151144348Y-121352554D01*
X151132789Y-121351245D01*
X151117477Y-121346663D01*
X151096825Y-121337999D01*
X151069244Y-121324442D01*
X151033147Y-121305183D01*
X150986948Y-121279411D01*
X150929060Y-121246317D01*
X150875727Y-121215454D01*
X150808900Y-121176484D01*
X150755367Y-121144829D01*
X150713656Y-121119514D01*
X150682293Y-121099566D01*
X150659808Y-121084010D01*
X150644728Y-121071872D01*
X150635580Y-121062179D01*
X150630893Y-121053956D01*
X150630663Y-121053324D01*
X150628701Y-121038986D01*
X150626974Y-121008229D01*
X150625491Y-120961563D01*
X150624258Y-120899501D01*
X150623284Y-120822555D01*
X150622578Y-120731236D01*
X150622147Y-120626057D01*
X150622000Y-120507529D01*
X150622000Y-119984301D01*
X150646079Y-119961233D01*
X150673211Y-119940924D01*
X150701687Y-119932687D01*
X150734594Y-119936536D01*
X150775021Y-119952489D01*
X150793569Y-119962036D01*
X150848995Y-119992379D01*
X150906937Y-120024892D01*
X150965433Y-120058397D01*
X151022519Y-120091718D01*
X151076234Y-120123676D01*
X151124615Y-120153094D01*
X151165699Y-120178794D01*
X151197522Y-120199598D01*
X151218123Y-120214329D01*
X151225278Y-120221072D01*
X151229670Y-120237759D01*
X151233455Y-120271194D01*
X151236618Y-120321200D01*
X151239148Y-120387603D01*
X151239988Y-120419059D01*
X151244300Y-120598752D01*
X151365107Y-120530242D01*
X151485913Y-120461731D01*
X151483640Y-120270115D01*
X151481367Y-120078500D01*
X151288149Y-119967640D01*
X151235182Y-119936913D01*
X151186225Y-119907877D01*
X151143480Y-119881888D01*
X151109149Y-119860303D01*
X151085436Y-119844478D01*
X151075112Y-119836406D01*
X151055292Y-119816033D01*
X151052429Y-119540867D01*
X151051747Y-119459829D01*
X151051586Y-119394143D01*
X151051989Y-119342233D01*
X151052999Y-119302523D01*
X151054659Y-119273440D01*
X151057011Y-119253407D01*
X151060098Y-119240849D01*
X151060621Y-119239527D01*
X151078176Y-119216121D01*
X151105953Y-119196994D01*
X151137240Y-119186276D01*
X151148807Y-119185266D01*
X151160870Y-119189358D01*
X151185379Y-119200876D01*
X151220172Y-119218690D01*
X151263084Y-119241665D01*
X151311952Y-119268671D01*
X151358070Y-119294814D01*
X151410245Y-119324629D01*
X151458123Y-119351790D01*
X151499578Y-119375107D01*
X151532486Y-119393389D01*
X151554720Y-119405446D01*
X151563764Y-119409962D01*
X151578235Y-119408022D01*
X151606318Y-119396317D01*
X151648073Y-119374820D01*
X151692881Y-119349679D01*
X151732032Y-119326837D01*
X151765370Y-119306805D01*
X151790404Y-119291126D01*
X151804640Y-119281344D01*
X151806967Y-119278981D01*
X151799851Y-119274065D01*
X151779846Y-119261795D01*
X151748766Y-119243223D01*
X151708423Y-119219397D01*
X151660631Y-119191367D01*
X151607202Y-119160183D01*
X151549949Y-119126894D01*
X151490686Y-119092551D01*
X151431226Y-119058203D01*
X151373380Y-119024899D01*
X151318963Y-118993690D01*
X151269787Y-118965624D01*
X151227666Y-118941753D01*
X151194412Y-118923125D01*
X151171838Y-118910790D01*
X151164564Y-118907036D01*
X151156371Y-118903662D01*
X151147648Y-118902551D01*
X151136359Y-118904606D01*
X151120472Y-118910733D01*
X151097950Y-118921838D01*
X151066760Y-118938824D01*
X151024867Y-118962598D01*
X150974609Y-118991539D01*
X150808267Y-119087574D01*
X150808232Y-119227437D01*
X150807841Y-119285687D01*
X150806790Y-119348656D01*
X150805227Y-119409776D01*
X150803299Y-119462481D01*
X150802677Y-119475555D01*
X150797156Y-119583810D01*
X150724395Y-119628696D01*
X150695076Y-119646497D01*
X150654464Y-119670753D01*
X150605939Y-119699466D01*
X150552881Y-119730639D01*
X150498669Y-119762274D01*
X150481360Y-119772324D01*
X150420825Y-119807139D01*
X150372762Y-119833738D01*
X150335158Y-119852678D01*
X150306003Y-119864517D01*
X150283284Y-119869812D01*
X150264990Y-119869122D01*
X150249110Y-119863004D01*
X150233631Y-119852015D01*
X150224067Y-119843650D01*
X150194434Y-119816730D01*
X150191470Y-119573924D01*
X150188507Y-119331117D01*
X150078024Y-119268775D01*
X150038852Y-119246751D01*
X150004799Y-119227754D01*
X149978638Y-119213320D01*
X149963141Y-119204983D01*
X149960337Y-119203611D01*
X149958860Y-119211206D01*
X149957486Y-119234067D01*
X149956244Y-119270530D01*
X149955168Y-119318929D01*
X149954287Y-119377597D01*
X149953634Y-119444868D01*
X149953241Y-119519077D01*
X149953133Y-119585128D01*
X149953133Y-119969468D01*
X150155695Y-120086948D01*
X150226071Y-120128268D01*
X150281817Y-120162132D01*
X150323365Y-120188822D01*
X150351148Y-120208617D01*
X150365598Y-120221801D01*
X150367549Y-120224824D01*
X150370840Y-120240337D01*
X150373860Y-120270150D01*
X150376564Y-120311634D01*
X150378906Y-120362157D01*
X150380842Y-120419089D01*
X150382324Y-120479798D01*
X150383308Y-120541654D01*
X150383748Y-120602026D01*
X150383598Y-120658283D01*
X150382813Y-120707795D01*
X150381348Y-120747930D01*
X150379155Y-120776058D01*
X150377292Y-120786752D01*
X150374347Y-120797571D01*
X150371255Y-120806744D01*
X150366571Y-120815291D01*
X150358844Y-120824237D01*
X150346628Y-120834604D01*
X150328475Y-120847414D01*
X150302937Y-120863690D01*
X150268565Y-120884455D01*
X150223913Y-120910731D01*
X150167532Y-120943541D01*
X150098920Y-120983358D01*
X150033411Y-121021196D01*
X149980611Y-121051055D01*
X149938699Y-121073660D01*
X149905858Y-121089734D01*
X149880268Y-121100000D01*
X149860112Y-121105184D01*
X149843570Y-121106009D01*
X149828825Y-121103197D01*
X149814057Y-121097475D01*
X149813197Y-121097085D01*
X149800295Y-121090350D01*
X149790033Y-121081945D01*
X149782110Y-121069995D01*
X149776226Y-121052622D01*
X149772079Y-121027951D01*
X149769371Y-120994105D01*
X149767800Y-120949209D01*
X149767066Y-120891385D01*
X149766869Y-120818759D01*
X149766867Y-120807726D01*
X149766867Y-120575144D01*
X149647440Y-120506739D01*
X149607124Y-120483761D01*
X149572194Y-120464070D01*
X149545176Y-120449073D01*
X149528599Y-120440178D01*
X149524588Y-120438333D01*
X149523934Y-120446520D01*
X149523414Y-120469960D01*
X149523036Y-120506976D01*
X149522803Y-120555889D01*
X149522722Y-120615019D01*
X149522797Y-120682688D01*
X149523034Y-120757216D01*
X149523365Y-120824291D01*
X149525567Y-121210250D01*
X149691263Y-121305662D01*
X149856959Y-121401075D01*
X150059008Y-121283920D01*
X150118966Y-121249240D01*
X150166216Y-121222236D01*
X150202652Y-121202013D01*
X150230167Y-121187675D01*
X150250656Y-121178327D01*
X150266015Y-121173074D01*
X150278137Y-121171019D01*
X150288917Y-121171267D01*
X150295478Y-121172141D01*
X150312941Y-121178069D01*
X150343940Y-121192548D01*
X150388622Y-121215660D01*
X150447137Y-121247485D01*
X150519635Y-121288102D01*
X150606263Y-121337591D01*
X150651633Y-121363784D01*
X150761734Y-121427577D01*
X150857882Y-121483400D01*
X150940821Y-121531692D01*
X151011296Y-121572895D01*
X151070051Y-121607447D01*
X151117831Y-121635789D01*
X151155379Y-121658361D01*
X151183441Y-121675604D01*
X151202759Y-121687956D01*
X151214080Y-121695858D01*
X151216167Y-121697547D01*
X151230795Y-121720069D01*
X151236919Y-121750757D01*
X151233898Y-121782782D01*
X151226002Y-121802330D01*
X151213803Y-121814559D01*
X151188863Y-121833302D01*
X151153428Y-121857260D01*
X151109743Y-121885133D01*
X151060056Y-121915620D01*
X151006612Y-121947422D01*
X150951657Y-121979239D01*
X150897438Y-122009770D01*
X150846200Y-122037716D01*
X150800190Y-122061777D01*
X150761653Y-122080653D01*
X150732837Y-122093043D01*
X150715987Y-122097648D01*
X150715736Y-122097652D01*
X150700275Y-122095112D01*
X150677752Y-122086812D01*
X150646451Y-122071926D01*
X150604654Y-122049627D01*
X150550647Y-122019087D01*
X150540329Y-122013133D01*
X150495472Y-121987317D01*
X150455699Y-121964676D01*
X150423295Y-121946489D01*
X150400545Y-121934038D01*
X150389734Y-121928601D01*
X150389234Y-121928466D01*
X150387785Y-121936461D01*
X150386802Y-121958570D01*
X150386334Y-121991976D01*
X150386430Y-122033865D01*
X150386840Y-122065621D01*
X150389167Y-122202775D01*
X150572963Y-122309038D01*
X150625041Y-122339541D01*
X150673509Y-122368670D01*
X150716004Y-122394947D01*
X150750165Y-122416894D01*
X150773629Y-122433034D01*
X150782513Y-122440167D01*
X150803358Y-122470696D01*
X150808146Y-122505796D01*
X150796728Y-122544230D01*
X150795479Y-122546703D01*
X150777538Y-122571286D01*
X150752886Y-122584595D01*
X150717245Y-122588850D01*
X150714262Y-122588866D01*
X150701961Y-122587851D01*
X150687346Y-122584219D01*
X150668631Y-122577086D01*
X150644030Y-122565572D01*
X150611755Y-122548795D01*
X150570019Y-122525872D01*
X150517037Y-122495923D01*
X150461822Y-122464282D01*
X150405220Y-122431280D01*
X150352144Y-122399497D01*
X150304754Y-122370291D01*
X150265214Y-122345024D01*
X150235684Y-122325053D01*
X150218327Y-122311740D01*
X150216509Y-122309998D01*
X150187785Y-122280300D01*
X150196581Y-121713492D01*
X150223158Y-121689746D01*
X150238535Y-121677194D01*
X150253580Y-121668766D01*
X150270101Y-121665026D01*
X150289904Y-121666537D01*
X150314797Y-121673863D01*
X150346587Y-121687567D01*
X150387083Y-121708212D01*
X150438090Y-121736362D01*
X150501416Y-121772581D01*
X150516144Y-121781089D01*
X150715187Y-121896177D01*
X150755377Y-121873047D01*
X150780189Y-121858708D01*
X150814266Y-121838938D01*
X150852253Y-121816846D01*
X150874885Y-121803658D01*
X150954203Y-121757400D01*
X150879118Y-121713557D01*
X150853507Y-121698675D01*
X150815586Y-121676741D01*
X150767736Y-121649127D01*
X150712337Y-121617204D01*
X150651768Y-121582344D01*
X150588411Y-121545919D01*
X150547627Y-121522493D01*
X150291220Y-121375274D01*
X150259760Y-121390251D01*
X150242585Y-121399145D01*
X150213663Y-121414909D01*
X150175900Y-121435928D01*
X150132202Y-121460581D01*
X150085474Y-121487254D01*
X150084367Y-121487889D01*
X150023218Y-121522960D01*
X149974901Y-121550419D01*
X149937571Y-121571106D01*
X149909385Y-121585859D01*
X149888499Y-121595517D01*
X149873070Y-121600918D01*
X149861254Y-121602901D01*
X149851208Y-121602304D01*
X149841087Y-121599966D01*
X149839135Y-121599430D01*
X149824716Y-121593287D01*
X149797749Y-121579724D01*
X149760308Y-121559863D01*
X149714466Y-121534827D01*
X149662294Y-121505740D01*
X149605865Y-121473724D01*
X149584614Y-121461528D01*
X149513646Y-121420325D01*
X149456641Y-121386417D01*
X149412604Y-121359162D01*
X149380539Y-121337922D01*
X149359451Y-121322055D01*
X149348345Y-121310922D01*
X149346959Y-121308704D01*
X149344445Y-121301411D01*
X149342297Y-121289134D01*
X149340489Y-121270666D01*
X149338995Y-121244800D01*
X149337788Y-121210330D01*
X149336842Y-121166049D01*
X149336131Y-121110750D01*
X149335627Y-121043227D01*
X149335305Y-120962274D01*
X149335138Y-120866683D01*
X149335098Y-120766837D01*
X149335126Y-120659945D01*
X149335126Y-120659945D01*
G37*
X149335126Y-120659945D02*
X149335220Y-120568675D01*
X149335419Y-120491716D01*
X149335760Y-120427758D01*
X149336284Y-120375489D01*
X149337027Y-120333599D01*
X149338028Y-120300776D01*
X149339325Y-120275709D01*
X149340957Y-120257088D01*
X149342962Y-120243601D01*
X149345379Y-120233938D01*
X149348245Y-120226787D01*
X149351030Y-120221758D01*
X149376640Y-120194028D01*
X149409393Y-120179938D01*
X149445443Y-120181031D01*
X149449662Y-120182211D01*
X149465949Y-120189233D01*
X149494091Y-120203526D01*
X149531785Y-120223756D01*
X149576725Y-120248590D01*
X149626606Y-120276695D01*
X149679124Y-120306739D01*
X149731973Y-120337388D01*
X149782848Y-120367309D01*
X149829445Y-120395170D01*
X149869458Y-120419638D01*
X149900583Y-120439379D01*
X149920515Y-120453061D01*
X149926037Y-120457694D01*
X149932113Y-120465064D01*
X149936798Y-120474116D01*
X149940367Y-120487179D01*
X149943096Y-120506585D01*
X149945261Y-120534664D01*
X149947138Y-120573746D01*
X149949004Y-120626163D01*
X149950108Y-120660985D01*
X149951922Y-120714701D01*
X149953804Y-120762224D01*
X149955635Y-120801121D01*
X149957296Y-120828962D01*
X149958666Y-120843313D01*
X149959121Y-120844733D01*
X149967205Y-120840723D01*
X149987349Y-120829658D01*
X150016968Y-120812988D01*
X150053477Y-120792162D01*
X150076154Y-120779117D01*
X150189884Y-120713500D01*
X150190200Y-120323186D01*
X149998386Y-120213873D01*
X149945549Y-120183381D01*
X149896730Y-120154488D01*
X149854149Y-120128565D01*
X149820027Y-120106984D01*
X149796586Y-120091117D01*
X149786719Y-120083150D01*
X149766867Y-120061740D01*
X149766867Y-118993855D01*
X149794787Y-118966794D01*
X149808613Y-118954194D01*
X149821887Y-118945167D01*
X149836269Y-118940259D01*
X149853417Y-118940016D01*
X149874992Y-118944985D01*
X149902654Y-118955711D01*
X149938061Y-118972741D01*
X149982872Y-118996622D01*
X150038749Y-119027898D01*
X150107349Y-119067117D01*
X150117734Y-119073083D01*
X150189273Y-119114520D01*
X150246979Y-119148706D01*
X150291966Y-119176354D01*
X150325343Y-119198176D01*
X150348222Y-119214885D01*
X150361716Y-119227195D01*
X150365235Y-119231833D01*
X150370610Y-119242704D01*
X150374771Y-119257023D01*
X150377955Y-119277221D01*
X150380401Y-119305729D01*
X150382348Y-119344977D01*
X150384035Y-119397397D01*
X150384934Y-119432550D01*
X150389167Y-119607868D01*
X150505583Y-119539682D01*
X150622000Y-119471496D01*
X150623077Y-119317798D01*
X150623761Y-119259858D01*
X150624949Y-119199717D01*
X150626504Y-119142683D01*
X150628291Y-119094062D01*
X150629427Y-119070967D01*
X150634700Y-118977833D01*
X150681267Y-118947081D01*
X150701506Y-118934277D01*
X150733787Y-118914539D01*
X150775503Y-118889429D01*
X150824048Y-118860511D01*
X150876814Y-118829345D01*
X150917884Y-118805264D01*
X150977415Y-118770673D01*
X151024416Y-118743920D01*
X151060831Y-118724050D01*
X151088601Y-118710109D01*
X151109668Y-118701142D01*
X151125974Y-118696195D01*
X151139461Y-118694312D01*
X151143800Y-118694200D01*
X151152672Y-118694965D01*
X151163782Y-118697677D01*
X151178291Y-118702954D01*
X151197360Y-118711419D01*
X151222149Y-118723693D01*
X151253819Y-118740398D01*
X151293530Y-118762153D01*
X151342442Y-118789580D01*
X151401717Y-118823301D01*
X151472514Y-118863936D01*
X151555995Y-118912107D01*
X151618383Y-118948201D01*
X151700677Y-118996049D01*
X151778059Y-119041436D01*
X151849271Y-119083601D01*
X151913055Y-119121780D01*
X151968155Y-119155213D01*
X152013312Y-119183138D01*
X152047268Y-119204793D01*
X152068767Y-119219415D01*
X152076108Y-119225485D01*
X152091908Y-119257355D01*
X152093691Y-119293711D01*
X152081342Y-119328880D01*
X152070929Y-119339827D01*
X152049023Y-119356368D01*
X152014911Y-119378958D01*
X151967882Y-119408051D01*
X151907224Y-119444100D01*
X151837200Y-119484703D01*
X151770759Y-119522722D01*
X151717183Y-119552923D01*
X151674790Y-119576145D01*
X151641895Y-119593232D01*
X151616813Y-119605026D01*
X151597860Y-119612367D01*
X151583352Y-119616098D01*
X151572392Y-119617066D01*
X151556334Y-119615485D01*
X151537281Y-119609971D01*
X151512690Y-119599369D01*
X151480017Y-119582523D01*
X151436722Y-119558277D01*
X151413325Y-119544779D01*
X151370213Y-119519844D01*
X151330541Y-119497065D01*
X151297340Y-119478168D01*
X151273644Y-119464883D01*
X151264425Y-119459895D01*
X151240067Y-119447298D01*
X151240329Y-119722900D01*
X151432815Y-119832966D01*
X151485657Y-119863535D01*
X151534438Y-119892420D01*
X151576956Y-119918266D01*
X151611012Y-119939717D01*
X151634405Y-119955416D01*
X151644350Y-119963319D01*
X151649494Y-119969106D01*
X151653615Y-119975545D01*
X151656824Y-119984445D01*
X151659231Y-119997612D01*
X151660948Y-120016855D01*
X151662085Y-120043980D01*
X151662753Y-120080795D01*
X151663064Y-120129108D01*
X151663129Y-120190724D01*
X151663057Y-120267453D01*
X151663056Y-120268119D01*
X151662712Y-120552633D01*
X151639773Y-120578638D01*
X151625421Y-120590714D01*
X151598880Y-120609062D01*
X151562384Y-120632412D01*
X151518167Y-120659495D01*
X151468462Y-120689040D01*
X151415504Y-120719777D01*
X151361527Y-120750436D01*
X151308764Y-120779747D01*
X151259450Y-120806440D01*
X151215818Y-120829246D01*
X151180101Y-120846893D01*
X151154536Y-120858113D01*
X151141931Y-120861667D01*
X151115766Y-120854951D01*
X151086566Y-120836632D01*
X151085363Y-120835650D01*
X151053800Y-120809634D01*
X151052881Y-120613400D01*
X151052378Y-120554153D01*
X151051479Y-120497643D01*
X151050270Y-120447069D01*
X151048832Y-120405631D01*
X151047248Y-120376527D01*
X151046531Y-120368492D01*
X151041100Y-120319818D01*
X150924683Y-120252921D01*
X150808267Y-120186025D01*
X150808267Y-120960047D01*
X150974793Y-121055499D01*
X151029379Y-121086602D01*
X151071351Y-121109964D01*
X151102658Y-121126491D01*
X151125246Y-121137088D01*
X151141063Y-121142660D01*
X151152055Y-121144112D01*
X151160170Y-121142349D01*
X151160912Y-121142025D01*
X151173483Y-121135389D01*
X151198416Y-121121478D01*
X151233459Y-121101575D01*
X151276362Y-121076964D01*
X151324876Y-121048927D01*
X151362573Y-121027016D01*
X151427296Y-120989775D01*
X151478909Y-120961170D01*
X151518520Y-120940639D01*
X151547238Y-120927618D01*
X151566169Y-120921548D01*
X151571732Y-120920933D01*
X151582795Y-120922258D01*
X151597579Y-120926706D01*
X151617408Y-120934984D01*
X151643611Y-120947802D01*
X151677512Y-120965869D01*
X151720439Y-120989892D01*
X151773718Y-121020581D01*
X151838675Y-121058644D01*
X151916637Y-121104790D01*
X151923504Y-121108870D01*
X151969948Y-121136972D01*
X152011628Y-121163155D01*
X152046240Y-121185894D01*
X152071481Y-121203663D01*
X152085047Y-121214936D01*
X152086488Y-121216807D01*
X152093936Y-121244482D01*
X152093082Y-121277792D01*
X152084254Y-121307805D01*
X152083048Y-121310097D01*
X152071287Y-121321679D01*
X152044991Y-121340619D01*
X152004700Y-121366570D01*
X151950960Y-121399185D01*
X151884311Y-121438118D01*
X151869565Y-121446583D01*
X151667634Y-121562205D01*
X151665310Y-121703480D01*
X151662986Y-121844756D01*
X151699177Y-121823565D01*
X151714349Y-121814740D01*
X151742397Y-121798487D01*
X151781533Y-121775838D01*
X151829967Y-121747830D01*
X151885909Y-121715496D01*
X151947570Y-121679872D01*
X152013160Y-121641991D01*
X152035934Y-121628842D01*
X152336500Y-121455311D01*
X152338619Y-121262205D01*
X152340738Y-121069100D01*
X152141082Y-120955142D01*
X152080296Y-120919937D01*
X152027294Y-120888219D01*
X151983637Y-120860977D01*
X151950884Y-120839199D01*
X151930594Y-120823873D01*
X151925180Y-120818369D01*
X151921849Y-120813114D01*
X151919007Y-120806562D01*
X151916615Y-120797415D01*
X151914634Y-120784374D01*
X151913026Y-120766139D01*
X151911751Y-120741412D01*
X151910773Y-120708894D01*
X151910050Y-120667286D01*
X151909546Y-120615291D01*
X151909221Y-120551608D01*
X151909036Y-120474939D01*
X151908953Y-120383985D01*
X151908934Y-120277448D01*
X151908934Y-120272926D01*
X151908950Y-120165786D01*
X151909025Y-120074270D01*
X151909199Y-119997068D01*
X151909511Y-119932869D01*
X151910001Y-119880364D01*
X151910710Y-119838243D01*
X151911677Y-119805196D01*
X151912941Y-119779913D01*
X151914543Y-119761084D01*
X151916522Y-119747400D01*
X151918918Y-119737550D01*
X151921771Y-119730224D01*
X151925121Y-119724113D01*
X151925636Y-119723274D01*
X151949053Y-119698975D01*
X151980065Y-119684582D01*
X152012647Y-119682362D01*
X152025547Y-119685679D01*
X152040696Y-119692882D01*
X152067792Y-119707214D01*
X152104548Y-119727361D01*
X152148678Y-119752008D01*
X152197893Y-119779838D01*
X152249908Y-119809537D01*
X152302435Y-119839789D01*
X152353187Y-119869278D01*
X152399877Y-119896690D01*
X152440218Y-119920709D01*
X152471923Y-119940019D01*
X152492706Y-119953305D01*
X152499483Y-119958274D01*
X152505655Y-119964415D01*
X152510325Y-119971617D01*
X152513704Y-119982144D01*
X152515999Y-119998260D01*
X152517421Y-120022228D01*
X152518178Y-120056314D01*
X152518479Y-120102780D01*
X152518533Y-120163891D01*
X152518533Y-120164642D01*
X152518804Y-120219140D01*
X152519563Y-120267447D01*
X152520730Y-120307172D01*
X152522223Y-120335922D01*
X152523963Y-120351307D01*
X152524883Y-120353241D01*
X152534038Y-120349049D01*
X152555141Y-120337762D01*
X152585535Y-120320848D01*
X152622562Y-120299779D01*
X152645533Y-120286521D01*
X152759833Y-120220226D01*
X152765054Y-120022363D01*
X152766613Y-119963172D01*
X152768087Y-119906977D01*
X152769397Y-119856892D01*
X152770459Y-119816033D01*
X152771194Y-119787512D01*
X152771404Y-119779213D01*
X152773597Y-119750208D01*
X152780268Y-119730799D01*
X152794268Y-119713727D01*
X152798829Y-119709363D01*
X152831049Y-119689402D01*
X152865950Y-119684353D01*
X152899730Y-119693487D01*
X152928584Y-119716074D01*
X152942546Y-119736931D01*
X152949210Y-119752183D01*
X152953671Y-119769357D01*
X152956260Y-119791903D01*
X152957311Y-119823269D01*
X152957157Y-119866905D01*
X152956882Y-119885546D01*
X152956074Y-119935080D01*
X152955095Y-119995550D01*
X152954043Y-120060958D01*
X152953014Y-120125308D01*
X152952467Y-120159745D01*
X152951493Y-120215175D01*
X152950381Y-120256199D01*
X152948822Y-120285343D01*
X152946505Y-120305132D01*
X152943122Y-120318093D01*
X152938365Y-120326752D01*
X152931923Y-120333635D01*
X152931101Y-120334389D01*
X152919157Y-120342872D01*
X152894505Y-120358539D01*
X152859147Y-120380184D01*
X152815084Y-120406598D01*
X152764318Y-120436575D01*
X152708849Y-120468908D01*
X152690308Y-120479627D01*
X152626525Y-120516312D01*
X152575502Y-120545296D01*
X152535409Y-120567472D01*
X152504416Y-120583734D01*
X152480691Y-120594975D01*
X152462404Y-120602087D01*
X152447724Y-120605963D01*
X152434822Y-120607497D01*
X152427841Y-120607666D01*
X152401334Y-120606145D01*
X152383961Y-120599236D01*
X152368024Y-120583420D01*
X152364017Y-120578485D01*
X152340733Y-120549305D01*
X152340731Y-120313902D01*
X152340729Y-120078500D01*
X152262415Y-120034154D01*
X152223967Y-120012332D01*
X152185503Y-119990416D01*
X152152834Y-119971721D01*
X152139650Y-119964133D01*
X152095200Y-119938457D01*
X152095239Y-120325979D01*
X152095277Y-120713500D01*
X152275155Y-120814328D01*
X152327362Y-120844093D01*
X152376334Y-120872949D01*
X152419541Y-120899333D01*
X152454457Y-120921682D01*
X152478553Y-120938433D01*
X152486783Y-120945163D01*
X152518533Y-120975170D01*
X152518264Y-121263435D01*
X152518070Y-121344032D01*
X152517610Y-121409289D01*
X152516822Y-121460798D01*
X152515642Y-121500151D01*
X152514006Y-121528940D01*
X152511852Y-121548756D01*
X152509117Y-121561192D01*
X152506181Y-121567291D01*
X152496892Y-121574219D01*
X152474216Y-121588781D01*
X152439460Y-121610199D01*
X152393931Y-121637694D01*
X152338936Y-121670487D01*
X152275783Y-121707797D01*
X152205778Y-121748845D01*
X152130230Y-121792853D01*
X152050445Y-121839041D01*
X152048191Y-121840341D01*
X151952574Y-121895503D01*
X151870472Y-121942735D01*
X151800723Y-121982552D01*
X151742164Y-122015465D01*
X151693631Y-122041990D01*
X151653962Y-122062639D01*
X151621993Y-122077925D01*
X151596563Y-122088362D01*
X151576507Y-122094464D01*
X151560663Y-122096744D01*
X151547868Y-122095714D01*
X151536959Y-122091889D01*
X151526773Y-122085783D01*
X151516148Y-122077907D01*
X151513916Y-122076202D01*
X151485600Y-122054605D01*
X151485600Y-121764077D01*
X151485646Y-121685997D01*
X151485846Y-121623060D01*
X151486294Y-121573476D01*
X151487085Y-121535454D01*
X151488313Y-121507204D01*
X151490071Y-121486936D01*
X151492453Y-121472860D01*
X151495554Y-121463185D01*
X151499468Y-121456120D01*
X151501958Y-121452755D01*
X151514424Y-121441883D01*
X151538948Y-121424515D01*
X151572814Y-121402431D01*
X151613306Y-121377408D01*
X151652241Y-121354380D01*
X151695717Y-121329149D01*
X151734583Y-121306505D01*
X151766274Y-121287950D01*
X151788226Y-121274984D01*
X151797608Y-121269287D01*
X151797857Y-121263204D01*
X151786722Y-121252077D01*
X151763431Y-121235391D01*
X151727215Y-121212633D01*
X151677302Y-121183287D01*
X151620759Y-121151226D01*
X151573884Y-121124960D01*
X151375225Y-121238667D01*
X151312275Y-121274435D01*
X151262082Y-121302282D01*
X151222921Y-121323059D01*
X151193065Y-121337619D01*
X151170789Y-121346812D01*
X151154367Y-121351490D01*
X151144348Y-121352554D01*
X151132789Y-121351245D01*
X151117477Y-121346663D01*
X151096825Y-121337999D01*
X151069244Y-121324442D01*
X151033147Y-121305183D01*
X150986948Y-121279411D01*
X150929060Y-121246317D01*
X150875727Y-121215454D01*
X150808900Y-121176484D01*
X150755367Y-121144829D01*
X150713656Y-121119514D01*
X150682293Y-121099566D01*
X150659808Y-121084010D01*
X150644728Y-121071872D01*
X150635580Y-121062179D01*
X150630893Y-121053956D01*
X150630663Y-121053324D01*
X150628701Y-121038986D01*
X150626974Y-121008229D01*
X150625491Y-120961563D01*
X150624258Y-120899501D01*
X150623284Y-120822555D01*
X150622578Y-120731236D01*
X150622147Y-120626057D01*
X150622000Y-120507529D01*
X150622000Y-119984301D01*
X150646079Y-119961233D01*
X150673211Y-119940924D01*
X150701687Y-119932687D01*
X150734594Y-119936536D01*
X150775021Y-119952489D01*
X150793569Y-119962036D01*
X150848995Y-119992379D01*
X150906937Y-120024892D01*
X150965433Y-120058397D01*
X151022519Y-120091718D01*
X151076234Y-120123676D01*
X151124615Y-120153094D01*
X151165699Y-120178794D01*
X151197522Y-120199598D01*
X151218123Y-120214329D01*
X151225278Y-120221072D01*
X151229670Y-120237759D01*
X151233455Y-120271194D01*
X151236618Y-120321200D01*
X151239148Y-120387603D01*
X151239988Y-120419059D01*
X151244300Y-120598752D01*
X151365107Y-120530242D01*
X151485913Y-120461731D01*
X151483640Y-120270115D01*
X151481367Y-120078500D01*
X151288149Y-119967640D01*
X151235182Y-119936913D01*
X151186225Y-119907877D01*
X151143480Y-119881888D01*
X151109149Y-119860303D01*
X151085436Y-119844478D01*
X151075112Y-119836406D01*
X151055292Y-119816033D01*
X151052429Y-119540867D01*
X151051747Y-119459829D01*
X151051586Y-119394143D01*
X151051989Y-119342233D01*
X151052999Y-119302523D01*
X151054659Y-119273440D01*
X151057011Y-119253407D01*
X151060098Y-119240849D01*
X151060621Y-119239527D01*
X151078176Y-119216121D01*
X151105953Y-119196994D01*
X151137240Y-119186276D01*
X151148807Y-119185266D01*
X151160870Y-119189358D01*
X151185379Y-119200876D01*
X151220172Y-119218690D01*
X151263084Y-119241665D01*
X151311952Y-119268671D01*
X151358070Y-119294814D01*
X151410245Y-119324629D01*
X151458123Y-119351790D01*
X151499578Y-119375107D01*
X151532486Y-119393389D01*
X151554720Y-119405446D01*
X151563764Y-119409962D01*
X151578235Y-119408022D01*
X151606318Y-119396317D01*
X151648073Y-119374820D01*
X151692881Y-119349679D01*
X151732032Y-119326837D01*
X151765370Y-119306805D01*
X151790404Y-119291126D01*
X151804640Y-119281344D01*
X151806967Y-119278981D01*
X151799851Y-119274065D01*
X151779846Y-119261795D01*
X151748766Y-119243223D01*
X151708423Y-119219397D01*
X151660631Y-119191367D01*
X151607202Y-119160183D01*
X151549949Y-119126894D01*
X151490686Y-119092551D01*
X151431226Y-119058203D01*
X151373380Y-119024899D01*
X151318963Y-118993690D01*
X151269787Y-118965624D01*
X151227666Y-118941753D01*
X151194412Y-118923125D01*
X151171838Y-118910790D01*
X151164564Y-118907036D01*
X151156371Y-118903662D01*
X151147648Y-118902551D01*
X151136359Y-118904606D01*
X151120472Y-118910733D01*
X151097950Y-118921838D01*
X151066760Y-118938824D01*
X151024867Y-118962598D01*
X150974609Y-118991539D01*
X150808267Y-119087574D01*
X150808232Y-119227437D01*
X150807841Y-119285687D01*
X150806790Y-119348656D01*
X150805227Y-119409776D01*
X150803299Y-119462481D01*
X150802677Y-119475555D01*
X150797156Y-119583810D01*
X150724395Y-119628696D01*
X150695076Y-119646497D01*
X150654464Y-119670753D01*
X150605939Y-119699466D01*
X150552881Y-119730639D01*
X150498669Y-119762274D01*
X150481360Y-119772324D01*
X150420825Y-119807139D01*
X150372762Y-119833738D01*
X150335158Y-119852678D01*
X150306003Y-119864517D01*
X150283284Y-119869812D01*
X150264990Y-119869122D01*
X150249110Y-119863004D01*
X150233631Y-119852015D01*
X150224067Y-119843650D01*
X150194434Y-119816730D01*
X150191470Y-119573924D01*
X150188507Y-119331117D01*
X150078024Y-119268775D01*
X150038852Y-119246751D01*
X150004799Y-119227754D01*
X149978638Y-119213320D01*
X149963141Y-119204983D01*
X149960337Y-119203611D01*
X149958860Y-119211206D01*
X149957486Y-119234067D01*
X149956244Y-119270530D01*
X149955168Y-119318929D01*
X149954287Y-119377597D01*
X149953634Y-119444868D01*
X149953241Y-119519077D01*
X149953133Y-119585128D01*
X149953133Y-119969468D01*
X150155695Y-120086948D01*
X150226071Y-120128268D01*
X150281817Y-120162132D01*
X150323365Y-120188822D01*
X150351148Y-120208617D01*
X150365598Y-120221801D01*
X150367549Y-120224824D01*
X150370840Y-120240337D01*
X150373860Y-120270150D01*
X150376564Y-120311634D01*
X150378906Y-120362157D01*
X150380842Y-120419089D01*
X150382324Y-120479798D01*
X150383308Y-120541654D01*
X150383748Y-120602026D01*
X150383598Y-120658283D01*
X150382813Y-120707795D01*
X150381348Y-120747930D01*
X150379155Y-120776058D01*
X150377292Y-120786752D01*
X150374347Y-120797571D01*
X150371255Y-120806744D01*
X150366571Y-120815291D01*
X150358844Y-120824237D01*
X150346628Y-120834604D01*
X150328475Y-120847414D01*
X150302937Y-120863690D01*
X150268565Y-120884455D01*
X150223913Y-120910731D01*
X150167532Y-120943541D01*
X150098920Y-120983358D01*
X150033411Y-121021196D01*
X149980611Y-121051055D01*
X149938699Y-121073660D01*
X149905858Y-121089734D01*
X149880268Y-121100000D01*
X149860112Y-121105184D01*
X149843570Y-121106009D01*
X149828825Y-121103197D01*
X149814057Y-121097475D01*
X149813197Y-121097085D01*
X149800295Y-121090350D01*
X149790033Y-121081945D01*
X149782110Y-121069995D01*
X149776226Y-121052622D01*
X149772079Y-121027951D01*
X149769371Y-120994105D01*
X149767800Y-120949209D01*
X149767066Y-120891385D01*
X149766869Y-120818759D01*
X149766867Y-120807726D01*
X149766867Y-120575144D01*
X149647440Y-120506739D01*
X149607124Y-120483761D01*
X149572194Y-120464070D01*
X149545176Y-120449073D01*
X149528599Y-120440178D01*
X149524588Y-120438333D01*
X149523934Y-120446520D01*
X149523414Y-120469960D01*
X149523036Y-120506976D01*
X149522803Y-120555889D01*
X149522722Y-120615019D01*
X149522797Y-120682688D01*
X149523034Y-120757216D01*
X149523365Y-120824291D01*
X149525567Y-121210250D01*
X149691263Y-121305662D01*
X149856959Y-121401075D01*
X150059008Y-121283920D01*
X150118966Y-121249240D01*
X150166216Y-121222236D01*
X150202652Y-121202013D01*
X150230167Y-121187675D01*
X150250656Y-121178327D01*
X150266015Y-121173074D01*
X150278137Y-121171019D01*
X150288917Y-121171267D01*
X150295478Y-121172141D01*
X150312941Y-121178069D01*
X150343940Y-121192548D01*
X150388622Y-121215660D01*
X150447137Y-121247485D01*
X150519635Y-121288102D01*
X150606263Y-121337591D01*
X150651633Y-121363784D01*
X150761734Y-121427577D01*
X150857882Y-121483400D01*
X150940821Y-121531692D01*
X151011296Y-121572895D01*
X151070051Y-121607447D01*
X151117831Y-121635789D01*
X151155379Y-121658361D01*
X151183441Y-121675604D01*
X151202759Y-121687956D01*
X151214080Y-121695858D01*
X151216167Y-121697547D01*
X151230795Y-121720069D01*
X151236919Y-121750757D01*
X151233898Y-121782782D01*
X151226002Y-121802330D01*
X151213803Y-121814559D01*
X151188863Y-121833302D01*
X151153428Y-121857260D01*
X151109743Y-121885133D01*
X151060056Y-121915620D01*
X151006612Y-121947422D01*
X150951657Y-121979239D01*
X150897438Y-122009770D01*
X150846200Y-122037716D01*
X150800190Y-122061777D01*
X150761653Y-122080653D01*
X150732837Y-122093043D01*
X150715987Y-122097648D01*
X150715736Y-122097652D01*
X150700275Y-122095112D01*
X150677752Y-122086812D01*
X150646451Y-122071926D01*
X150604654Y-122049627D01*
X150550647Y-122019087D01*
X150540329Y-122013133D01*
X150495472Y-121987317D01*
X150455699Y-121964676D01*
X150423295Y-121946489D01*
X150400545Y-121934038D01*
X150389734Y-121928601D01*
X150389234Y-121928466D01*
X150387785Y-121936461D01*
X150386802Y-121958570D01*
X150386334Y-121991976D01*
X150386430Y-122033865D01*
X150386840Y-122065621D01*
X150389167Y-122202775D01*
X150572963Y-122309038D01*
X150625041Y-122339541D01*
X150673509Y-122368670D01*
X150716004Y-122394947D01*
X150750165Y-122416894D01*
X150773629Y-122433034D01*
X150782513Y-122440167D01*
X150803358Y-122470696D01*
X150808146Y-122505796D01*
X150796728Y-122544230D01*
X150795479Y-122546703D01*
X150777538Y-122571286D01*
X150752886Y-122584595D01*
X150717245Y-122588850D01*
X150714262Y-122588866D01*
X150701961Y-122587851D01*
X150687346Y-122584219D01*
X150668631Y-122577086D01*
X150644030Y-122565572D01*
X150611755Y-122548795D01*
X150570019Y-122525872D01*
X150517037Y-122495923D01*
X150461822Y-122464282D01*
X150405220Y-122431280D01*
X150352144Y-122399497D01*
X150304754Y-122370291D01*
X150265214Y-122345024D01*
X150235684Y-122325053D01*
X150218327Y-122311740D01*
X150216509Y-122309998D01*
X150187785Y-122280300D01*
X150196581Y-121713492D01*
X150223158Y-121689746D01*
X150238535Y-121677194D01*
X150253580Y-121668766D01*
X150270101Y-121665026D01*
X150289904Y-121666537D01*
X150314797Y-121673863D01*
X150346587Y-121687567D01*
X150387083Y-121708212D01*
X150438090Y-121736362D01*
X150501416Y-121772581D01*
X150516144Y-121781089D01*
X150715187Y-121896177D01*
X150755377Y-121873047D01*
X150780189Y-121858708D01*
X150814266Y-121838938D01*
X150852253Y-121816846D01*
X150874885Y-121803658D01*
X150954203Y-121757400D01*
X150879118Y-121713557D01*
X150853507Y-121698675D01*
X150815586Y-121676741D01*
X150767736Y-121649127D01*
X150712337Y-121617204D01*
X150651768Y-121582344D01*
X150588411Y-121545919D01*
X150547627Y-121522493D01*
X150291220Y-121375274D01*
X150259760Y-121390251D01*
X150242585Y-121399145D01*
X150213663Y-121414909D01*
X150175900Y-121435928D01*
X150132202Y-121460581D01*
X150085474Y-121487254D01*
X150084367Y-121487889D01*
X150023218Y-121522960D01*
X149974901Y-121550419D01*
X149937571Y-121571106D01*
X149909385Y-121585859D01*
X149888499Y-121595517D01*
X149873070Y-121600918D01*
X149861254Y-121602901D01*
X149851208Y-121602304D01*
X149841087Y-121599966D01*
X149839135Y-121599430D01*
X149824716Y-121593287D01*
X149797749Y-121579724D01*
X149760308Y-121559863D01*
X149714466Y-121534827D01*
X149662294Y-121505740D01*
X149605865Y-121473724D01*
X149584614Y-121461528D01*
X149513646Y-121420325D01*
X149456641Y-121386417D01*
X149412604Y-121359162D01*
X149380539Y-121337922D01*
X149359451Y-121322055D01*
X149348345Y-121310922D01*
X149346959Y-121308704D01*
X149344445Y-121301411D01*
X149342297Y-121289134D01*
X149340489Y-121270666D01*
X149338995Y-121244800D01*
X149337788Y-121210330D01*
X149336842Y-121166049D01*
X149336131Y-121110750D01*
X149335627Y-121043227D01*
X149335305Y-120962274D01*
X149335138Y-120866683D01*
X149335098Y-120766837D01*
X149335126Y-120659945D01*
D12*
X154895000Y-98290000D02*
X154895000Y-97290000D01*
X156255000Y-97290000D02*
X156255000Y-98290000D01*
X153080000Y-116340000D02*
X153080000Y-117340000D01*
X151720000Y-117340000D02*
X151720000Y-116340000D01*
X154895000Y-117975000D02*
X154895000Y-116975000D01*
X156255000Y-116975000D02*
X156255000Y-117975000D01*
X154895000Y-93210000D02*
X154895000Y-92210000D01*
X156255000Y-92210000D02*
X156255000Y-93210000D01*
X151720000Y-93210000D02*
X151720000Y-92210000D01*
X153080000Y-92210000D02*
X153080000Y-93210000D01*
X159430000Y-115705000D02*
X159430000Y-116705000D01*
X158070000Y-116705000D02*
X158070000Y-115705000D01*
X161245000Y-116705000D02*
X161245000Y-115705000D01*
X162605000Y-115705000D02*
X162605000Y-116705000D01*
X177444691Y-96515704D02*
G75*
G02X177485000Y-98825000I40309J-1154296D01*
G01*
X177505121Y-98824052D02*
G75*
G02X176356000Y-97430000I-20121J1154052D01*
G01*
X169165000Y-94050000D02*
X178815000Y-94050000D01*
X169165000Y-99001000D02*
X178815000Y-99001000D01*
X169165000Y-94050000D02*
X169165000Y-99001000D01*
X178815000Y-94050000D02*
X178815000Y-99001000D01*
X178361000Y-96936000D02*
X176750000Y-98546000D01*
X178221000Y-96795000D02*
X176609000Y-98405000D01*
D14*
X162595000Y-107145000D02*
X162545000Y-107145000D01*
X162595000Y-111295000D02*
X162450000Y-111295000D01*
X157445000Y-111295000D02*
X157590000Y-111295000D01*
X157445000Y-107145000D02*
X157590000Y-107145000D01*
X162595000Y-107145000D02*
X162595000Y-111295000D01*
X157445000Y-107145000D02*
X157445000Y-111295000D01*
X162545000Y-107145000D02*
X162545000Y-105745000D01*
X153705000Y-102700000D02*
X153655000Y-102700000D01*
X153705000Y-106850000D02*
X153560000Y-106850000D01*
X148555000Y-106850000D02*
X148700000Y-106850000D01*
X148555000Y-102700000D02*
X148700000Y-102700000D01*
X153705000Y-102700000D02*
X153705000Y-106850000D01*
X148555000Y-102700000D02*
X148555000Y-106850000D01*
X153655000Y-102700000D02*
X153655000Y-101300000D01*
X163365000Y-99095000D02*
X163365000Y-99045000D01*
X159215000Y-99095000D02*
X159215000Y-98950000D01*
X159215000Y-93945000D02*
X159215000Y-94090000D01*
X163365000Y-93945000D02*
X163365000Y-94090000D01*
X163365000Y-99095000D02*
X159215000Y-99095000D01*
X163365000Y-93945000D02*
X159215000Y-93945000D01*
X163365000Y-99045000D02*
X164765000Y-99045000D01*
X171751667Y-104227381D02*
X171751667Y-104941667D01*
X171704047Y-105084524D01*
X171608809Y-105179762D01*
X171465952Y-105227381D01*
X171370714Y-105227381D01*
X172751667Y-105227381D02*
X172180238Y-105227381D01*
X172465952Y-105227381D02*
X172465952Y-104227381D01*
X172370714Y-104370238D01*
X172275476Y-104465476D01*
X172180238Y-104513095D01*
X154027143Y-111926666D02*
X154074762Y-111974285D01*
X154122381Y-112117142D01*
X154122381Y-112212380D01*
X154074762Y-112355238D01*
X153979524Y-112450476D01*
X153884286Y-112498095D01*
X153693810Y-112545714D01*
X153550952Y-112545714D01*
X153360476Y-112498095D01*
X153265238Y-112450476D01*
X153170000Y-112355238D01*
X153122381Y-112212380D01*
X153122381Y-112117142D01*
X153170000Y-111974285D01*
X153217619Y-111926666D01*
X154122381Y-110974285D02*
X154122381Y-111545714D01*
X154122381Y-111260000D02*
X153122381Y-111260000D01*
X153265238Y-111355238D01*
X153360476Y-111450476D01*
X153408095Y-111545714D01*
X150852143Y-111926666D02*
X150899762Y-111974285D01*
X150947381Y-112117142D01*
X150947381Y-112212380D01*
X150899762Y-112355238D01*
X150804524Y-112450476D01*
X150709286Y-112498095D01*
X150518810Y-112545714D01*
X150375952Y-112545714D01*
X150185476Y-112498095D01*
X150090238Y-112450476D01*
X149995000Y-112355238D01*
X149947381Y-112212380D01*
X149947381Y-112117142D01*
X149995000Y-111974285D01*
X150042619Y-111926666D01*
X150042619Y-111545714D02*
X149995000Y-111498095D01*
X149947381Y-111402857D01*
X149947381Y-111164761D01*
X149995000Y-111069523D01*
X150042619Y-111021904D01*
X150137857Y-110974285D01*
X150233095Y-110974285D01*
X150375952Y-111021904D01*
X150947381Y-111593333D01*
X150947381Y-110974285D01*
X150852143Y-97956666D02*
X150899762Y-98004285D01*
X150947381Y-98147142D01*
X150947381Y-98242380D01*
X150899762Y-98385238D01*
X150804524Y-98480476D01*
X150709286Y-98528095D01*
X150518810Y-98575714D01*
X150375952Y-98575714D01*
X150185476Y-98528095D01*
X150090238Y-98480476D01*
X149995000Y-98385238D01*
X149947381Y-98242380D01*
X149947381Y-98147142D01*
X149995000Y-98004285D01*
X150042619Y-97956666D01*
X149947381Y-97623333D02*
X149947381Y-97004285D01*
X150328333Y-97337619D01*
X150328333Y-97194761D01*
X150375952Y-97099523D01*
X150423571Y-97051904D01*
X150518810Y-97004285D01*
X150756905Y-97004285D01*
X150852143Y-97051904D01*
X150899762Y-97099523D01*
X150947381Y-97194761D01*
X150947381Y-97480476D01*
X150899762Y-97575714D01*
X150852143Y-97623333D01*
X154027143Y-117006666D02*
X154074762Y-117054285D01*
X154122381Y-117197142D01*
X154122381Y-117292380D01*
X154074762Y-117435238D01*
X153979524Y-117530476D01*
X153884286Y-117578095D01*
X153693810Y-117625714D01*
X153550952Y-117625714D01*
X153360476Y-117578095D01*
X153265238Y-117530476D01*
X153170000Y-117435238D01*
X153122381Y-117292380D01*
X153122381Y-117197142D01*
X153170000Y-117054285D01*
X153217619Y-117006666D01*
X153455714Y-116149523D02*
X154122381Y-116149523D01*
X153074762Y-116387619D02*
X153789048Y-116625714D01*
X153789048Y-116006666D01*
X154007143Y-97956666D02*
X154054762Y-98004285D01*
X154102381Y-98147142D01*
X154102381Y-98242380D01*
X154054762Y-98385238D01*
X153959524Y-98480476D01*
X153864286Y-98528095D01*
X153673810Y-98575714D01*
X153530952Y-98575714D01*
X153340476Y-98528095D01*
X153245238Y-98480476D01*
X153150000Y-98385238D01*
X153102381Y-98242380D01*
X153102381Y-98147142D01*
X153150000Y-98004285D01*
X153197619Y-97956666D01*
X153102381Y-97051904D02*
X153102381Y-97528095D01*
X153578571Y-97575714D01*
X153530952Y-97528095D01*
X153483333Y-97432857D01*
X153483333Y-97194761D01*
X153530952Y-97099523D01*
X153578571Y-97051904D01*
X153673810Y-97004285D01*
X153911905Y-97004285D01*
X154007143Y-97051904D01*
X154054762Y-97099523D01*
X154102381Y-97194761D01*
X154102381Y-97432857D01*
X154054762Y-97528095D01*
X154007143Y-97575714D01*
X157202143Y-112561666D02*
X157249762Y-112609285D01*
X157297381Y-112752142D01*
X157297381Y-112847380D01*
X157249762Y-112990238D01*
X157154524Y-113085476D01*
X157059286Y-113133095D01*
X156868810Y-113180714D01*
X156725952Y-113180714D01*
X156535476Y-113133095D01*
X156440238Y-113085476D01*
X156345000Y-112990238D01*
X156297381Y-112847380D01*
X156297381Y-112752142D01*
X156345000Y-112609285D01*
X156392619Y-112561666D01*
X156297381Y-111704523D02*
X156297381Y-111895000D01*
X156345000Y-111990238D01*
X156392619Y-112037857D01*
X156535476Y-112133095D01*
X156725952Y-112180714D01*
X157106905Y-112180714D01*
X157202143Y-112133095D01*
X157249762Y-112085476D01*
X157297381Y-111990238D01*
X157297381Y-111799761D01*
X157249762Y-111704523D01*
X157202143Y-111656904D01*
X157106905Y-111609285D01*
X156868810Y-111609285D01*
X156773571Y-111656904D01*
X156725952Y-111704523D01*
X156678333Y-111799761D01*
X156678333Y-111990238D01*
X156725952Y-112085476D01*
X156773571Y-112133095D01*
X156868810Y-112180714D01*
X165568334Y-102572143D02*
X165520715Y-102619762D01*
X165377858Y-102667381D01*
X165282620Y-102667381D01*
X165139762Y-102619762D01*
X165044524Y-102524524D01*
X164996905Y-102429286D01*
X164949286Y-102238810D01*
X164949286Y-102095952D01*
X164996905Y-101905476D01*
X165044524Y-101810238D01*
X165139762Y-101715000D01*
X165282620Y-101667381D01*
X165377858Y-101667381D01*
X165520715Y-101715000D01*
X165568334Y-101762619D01*
X165901667Y-101667381D02*
X166568334Y-101667381D01*
X166139762Y-102667381D01*
X157202143Y-107481666D02*
X157249762Y-107529285D01*
X157297381Y-107672142D01*
X157297381Y-107767380D01*
X157249762Y-107910238D01*
X157154524Y-108005476D01*
X157059286Y-108053095D01*
X156868810Y-108100714D01*
X156725952Y-108100714D01*
X156535476Y-108053095D01*
X156440238Y-108005476D01*
X156345000Y-107910238D01*
X156297381Y-107767380D01*
X156297381Y-107672142D01*
X156345000Y-107529285D01*
X156392619Y-107481666D01*
X156725952Y-106910238D02*
X156678333Y-107005476D01*
X156630714Y-107053095D01*
X156535476Y-107100714D01*
X156487857Y-107100714D01*
X156392619Y-107053095D01*
X156345000Y-107005476D01*
X156297381Y-106910238D01*
X156297381Y-106719761D01*
X156345000Y-106624523D01*
X156392619Y-106576904D01*
X156487857Y-106529285D01*
X156535476Y-106529285D01*
X156630714Y-106576904D01*
X156678333Y-106624523D01*
X156725952Y-106719761D01*
X156725952Y-106910238D01*
X156773571Y-107005476D01*
X156821190Y-107053095D01*
X156916429Y-107100714D01*
X157106905Y-107100714D01*
X157202143Y-107053095D01*
X157249762Y-107005476D01*
X157297381Y-106910238D01*
X157297381Y-106719761D01*
X157249762Y-106624523D01*
X157202143Y-106576904D01*
X157106905Y-106529285D01*
X156916429Y-106529285D01*
X156821190Y-106576904D01*
X156773571Y-106624523D01*
X156725952Y-106719761D01*
X157202143Y-103036666D02*
X157249762Y-103084285D01*
X157297381Y-103227142D01*
X157297381Y-103322380D01*
X157249762Y-103465238D01*
X157154524Y-103560476D01*
X157059286Y-103608095D01*
X156868810Y-103655714D01*
X156725952Y-103655714D01*
X156535476Y-103608095D01*
X156440238Y-103560476D01*
X156345000Y-103465238D01*
X156297381Y-103322380D01*
X156297381Y-103227142D01*
X156345000Y-103084285D01*
X156392619Y-103036666D01*
X157297381Y-102560476D02*
X157297381Y-102370000D01*
X157249762Y-102274761D01*
X157202143Y-102227142D01*
X157059286Y-102131904D01*
X156868810Y-102084285D01*
X156487857Y-102084285D01*
X156392619Y-102131904D01*
X156345000Y-102179523D01*
X156297381Y-102274761D01*
X156297381Y-102465238D01*
X156345000Y-102560476D01*
X156392619Y-102608095D01*
X156487857Y-102655714D01*
X156725952Y-102655714D01*
X156821190Y-102608095D01*
X156868810Y-102560476D01*
X156916429Y-102465238D01*
X156916429Y-102274761D01*
X156868810Y-102179523D01*
X156821190Y-102131904D01*
X156725952Y-102084285D01*
X150852143Y-93352857D02*
X150899762Y-93400476D01*
X150947381Y-93543333D01*
X150947381Y-93638571D01*
X150899762Y-93781429D01*
X150804524Y-93876667D01*
X150709286Y-93924286D01*
X150518810Y-93971905D01*
X150375952Y-93971905D01*
X150185476Y-93924286D01*
X150090238Y-93876667D01*
X149995000Y-93781429D01*
X149947381Y-93638571D01*
X149947381Y-93543333D01*
X149995000Y-93400476D01*
X150042619Y-93352857D01*
X150947381Y-92400476D02*
X150947381Y-92971905D01*
X150947381Y-92686191D02*
X149947381Y-92686191D01*
X150090238Y-92781429D01*
X150185476Y-92876667D01*
X150233095Y-92971905D01*
X149947381Y-91781429D02*
X149947381Y-91686190D01*
X149995000Y-91590952D01*
X150042619Y-91543333D01*
X150137857Y-91495714D01*
X150328333Y-91448095D01*
X150566429Y-91448095D01*
X150756905Y-91495714D01*
X150852143Y-91543333D01*
X150899762Y-91590952D01*
X150947381Y-91686190D01*
X150947381Y-91781429D01*
X150899762Y-91876667D01*
X150852143Y-91924286D01*
X150756905Y-91971905D01*
X150566429Y-92019524D01*
X150328333Y-92019524D01*
X150137857Y-91971905D01*
X150042619Y-91924286D01*
X149995000Y-91876667D01*
X149947381Y-91781429D01*
X160377143Y-103512857D02*
X160424762Y-103560476D01*
X160472381Y-103703333D01*
X160472381Y-103798571D01*
X160424762Y-103941429D01*
X160329524Y-104036667D01*
X160234286Y-104084286D01*
X160043810Y-104131905D01*
X159900952Y-104131905D01*
X159710476Y-104084286D01*
X159615238Y-104036667D01*
X159520000Y-103941429D01*
X159472381Y-103798571D01*
X159472381Y-103703333D01*
X159520000Y-103560476D01*
X159567619Y-103512857D01*
X160472381Y-102560476D02*
X160472381Y-103131905D01*
X160472381Y-102846191D02*
X159472381Y-102846191D01*
X159615238Y-102941429D01*
X159710476Y-103036667D01*
X159758095Y-103131905D01*
X160472381Y-101608095D02*
X160472381Y-102179524D01*
X160472381Y-101893810D02*
X159472381Y-101893810D01*
X159615238Y-101989048D01*
X159710476Y-102084286D01*
X159758095Y-102179524D01*
X163552143Y-103512857D02*
X163599762Y-103560476D01*
X163647381Y-103703333D01*
X163647381Y-103798571D01*
X163599762Y-103941429D01*
X163504524Y-104036667D01*
X163409286Y-104084286D01*
X163218810Y-104131905D01*
X163075952Y-104131905D01*
X162885476Y-104084286D01*
X162790238Y-104036667D01*
X162695000Y-103941429D01*
X162647381Y-103798571D01*
X162647381Y-103703333D01*
X162695000Y-103560476D01*
X162742619Y-103512857D01*
X163647381Y-102560476D02*
X163647381Y-103131905D01*
X163647381Y-102846191D02*
X162647381Y-102846191D01*
X162790238Y-102941429D01*
X162885476Y-103036667D01*
X162933095Y-103131905D01*
X162742619Y-102179524D02*
X162695000Y-102131905D01*
X162647381Y-102036667D01*
X162647381Y-101798571D01*
X162695000Y-101703333D01*
X162742619Y-101655714D01*
X162837857Y-101608095D01*
X162933095Y-101608095D01*
X163075952Y-101655714D01*
X163647381Y-102227143D01*
X163647381Y-101608095D01*
X168727381Y-97893095D02*
X167727381Y-97893095D01*
X167727381Y-97655000D01*
X167775000Y-97512142D01*
X167870238Y-97416904D01*
X167965476Y-97369285D01*
X168155952Y-97321666D01*
X168298810Y-97321666D01*
X168489286Y-97369285D01*
X168584524Y-97416904D01*
X168679762Y-97512142D01*
X168727381Y-97655000D01*
X168727381Y-97893095D01*
X168727381Y-96369285D02*
X168727381Y-96940714D01*
X168727381Y-96655000D02*
X167727381Y-96655000D01*
X167870238Y-96750238D01*
X167965476Y-96845476D01*
X168013095Y-96940714D01*
X157297381Y-97956666D02*
X156821190Y-98290000D01*
X157297381Y-98528095D02*
X156297381Y-98528095D01*
X156297381Y-98147142D01*
X156345000Y-98051904D01*
X156392619Y-98004285D01*
X156487857Y-97956666D01*
X156630714Y-97956666D01*
X156725952Y-98004285D01*
X156773571Y-98051904D01*
X156821190Y-98147142D01*
X156821190Y-98528095D01*
X157297381Y-97004285D02*
X157297381Y-97575714D01*
X157297381Y-97290000D02*
X156297381Y-97290000D01*
X156440238Y-97385238D01*
X156535476Y-97480476D01*
X156583095Y-97575714D01*
X151402381Y-117006666D02*
X150926190Y-117340000D01*
X151402381Y-117578095D02*
X150402381Y-117578095D01*
X150402381Y-117197142D01*
X150450000Y-117101904D01*
X150497619Y-117054285D01*
X150592857Y-117006666D01*
X150735714Y-117006666D01*
X150830952Y-117054285D01*
X150878571Y-117101904D01*
X150926190Y-117197142D01*
X150926190Y-117578095D01*
X150497619Y-116625714D02*
X150450000Y-116578095D01*
X150402381Y-116482857D01*
X150402381Y-116244761D01*
X150450000Y-116149523D01*
X150497619Y-116101904D01*
X150592857Y-116054285D01*
X150688095Y-116054285D01*
X150830952Y-116101904D01*
X151402381Y-116673333D01*
X151402381Y-116054285D01*
X157297381Y-117641666D02*
X156821190Y-117975000D01*
X157297381Y-118213095D02*
X156297381Y-118213095D01*
X156297381Y-117832142D01*
X156345000Y-117736904D01*
X156392619Y-117689285D01*
X156487857Y-117641666D01*
X156630714Y-117641666D01*
X156725952Y-117689285D01*
X156773571Y-117736904D01*
X156821190Y-117832142D01*
X156821190Y-118213095D01*
X156297381Y-117308333D02*
X156297381Y-116689285D01*
X156678333Y-117022619D01*
X156678333Y-116879761D01*
X156725952Y-116784523D01*
X156773571Y-116736904D01*
X156868810Y-116689285D01*
X157106905Y-116689285D01*
X157202143Y-116736904D01*
X157249762Y-116784523D01*
X157297381Y-116879761D01*
X157297381Y-117165476D01*
X157249762Y-117260714D01*
X157202143Y-117308333D01*
X157297381Y-92876666D02*
X156821190Y-93210000D01*
X157297381Y-93448095D02*
X156297381Y-93448095D01*
X156297381Y-93067142D01*
X156345000Y-92971904D01*
X156392619Y-92924285D01*
X156487857Y-92876666D01*
X156630714Y-92876666D01*
X156725952Y-92924285D01*
X156773571Y-92971904D01*
X156821190Y-93067142D01*
X156821190Y-93448095D01*
X156630714Y-92019523D02*
X157297381Y-92019523D01*
X156249762Y-92257619D02*
X156964048Y-92495714D01*
X156964048Y-91876666D01*
X154122381Y-92876666D02*
X153646190Y-93210000D01*
X154122381Y-93448095D02*
X153122381Y-93448095D01*
X153122381Y-93067142D01*
X153170000Y-92971904D01*
X153217619Y-92924285D01*
X153312857Y-92876666D01*
X153455714Y-92876666D01*
X153550952Y-92924285D01*
X153598571Y-92971904D01*
X153646190Y-93067142D01*
X153646190Y-93448095D01*
X153122381Y-91971904D02*
X153122381Y-92448095D01*
X153598571Y-92495714D01*
X153550952Y-92448095D01*
X153503333Y-92352857D01*
X153503333Y-92114761D01*
X153550952Y-92019523D01*
X153598571Y-91971904D01*
X153693810Y-91924285D01*
X153931905Y-91924285D01*
X154027143Y-91971904D01*
X154074762Y-92019523D01*
X154122381Y-92114761D01*
X154122381Y-92352857D01*
X154074762Y-92448095D01*
X154027143Y-92495714D01*
X160472381Y-116371666D02*
X159996190Y-116705000D01*
X160472381Y-116943095D02*
X159472381Y-116943095D01*
X159472381Y-116562142D01*
X159520000Y-116466904D01*
X159567619Y-116419285D01*
X159662857Y-116371666D01*
X159805714Y-116371666D01*
X159900952Y-116419285D01*
X159948571Y-116466904D01*
X159996190Y-116562142D01*
X159996190Y-116943095D01*
X159472381Y-115514523D02*
X159472381Y-115705000D01*
X159520000Y-115800238D01*
X159567619Y-115847857D01*
X159710476Y-115943095D01*
X159900952Y-115990714D01*
X160281905Y-115990714D01*
X160377143Y-115943095D01*
X160424762Y-115895476D01*
X160472381Y-115800238D01*
X160472381Y-115609761D01*
X160424762Y-115514523D01*
X160377143Y-115466904D01*
X160281905Y-115419285D01*
X160043810Y-115419285D01*
X159948571Y-115466904D01*
X159900952Y-115514523D01*
X159853333Y-115609761D01*
X159853333Y-115800238D01*
X159900952Y-115895476D01*
X159948571Y-115943095D01*
X160043810Y-115990714D01*
X163827381Y-116371666D02*
X163351190Y-116705000D01*
X163827381Y-116943095D02*
X162827381Y-116943095D01*
X162827381Y-116562142D01*
X162875000Y-116466904D01*
X162922619Y-116419285D01*
X163017857Y-116371666D01*
X163160714Y-116371666D01*
X163255952Y-116419285D01*
X163303571Y-116466904D01*
X163351190Y-116562142D01*
X163351190Y-116943095D01*
X163255952Y-115800238D02*
X163208333Y-115895476D01*
X163160714Y-115943095D01*
X163065476Y-115990714D01*
X163017857Y-115990714D01*
X162922619Y-115943095D01*
X162875000Y-115895476D01*
X162827381Y-115800238D01*
X162827381Y-115609761D01*
X162875000Y-115514523D01*
X162922619Y-115466904D01*
X163017857Y-115419285D01*
X163065476Y-115419285D01*
X163160714Y-115466904D01*
X163208333Y-115514523D01*
X163255952Y-115609761D01*
X163255952Y-115800238D01*
X163303571Y-115895476D01*
X163351190Y-115943095D01*
X163446429Y-115990714D01*
X163636905Y-115990714D01*
X163732143Y-115943095D01*
X163779762Y-115895476D01*
X163827381Y-115800238D01*
X163827381Y-115609761D01*
X163779762Y-115514523D01*
X163732143Y-115466904D01*
X163636905Y-115419285D01*
X163446429Y-115419285D01*
X163351190Y-115466904D01*
X163303571Y-115514523D01*
X163255952Y-115609761D01*
X173394762Y-93312381D02*
X173061428Y-92836190D01*
X172823333Y-93312381D02*
X172823333Y-92312381D01*
X173204286Y-92312381D01*
X173299524Y-92360000D01*
X173347143Y-92407619D01*
X173394762Y-92502857D01*
X173394762Y-92645714D01*
X173347143Y-92740952D01*
X173299524Y-92788571D01*
X173204286Y-92836190D01*
X172823333Y-92836190D01*
X173680476Y-92312381D02*
X174013809Y-93312381D01*
X174347143Y-92312381D01*
X175204286Y-93312381D02*
X174632857Y-93312381D01*
X174918571Y-93312381D02*
X174918571Y-92312381D01*
X174823333Y-92455238D01*
X174728095Y-92550476D01*
X174632857Y-92598095D01*
X162972381Y-109981905D02*
X163781905Y-109981905D01*
X163877143Y-109934286D01*
X163924762Y-109886667D01*
X163972381Y-109791429D01*
X163972381Y-109600952D01*
X163924762Y-109505714D01*
X163877143Y-109458095D01*
X163781905Y-109410476D01*
X162972381Y-109410476D01*
X162972381Y-109029524D02*
X162972381Y-108410476D01*
X163353333Y-108743810D01*
X163353333Y-108600952D01*
X163400952Y-108505714D01*
X163448571Y-108458095D01*
X163543810Y-108410476D01*
X163781905Y-108410476D01*
X163877143Y-108458095D01*
X163924762Y-108505714D01*
X163972381Y-108600952D01*
X163972381Y-108886667D01*
X163924762Y-108981905D01*
X163877143Y-109029524D01*
X153757381Y-104901905D02*
X154566905Y-104901905D01*
X154662143Y-104854286D01*
X154709762Y-104806667D01*
X154757381Y-104711429D01*
X154757381Y-104520952D01*
X154709762Y-104425714D01*
X154662143Y-104378095D01*
X154566905Y-104330476D01*
X153757381Y-104330476D01*
X154757381Y-103330476D02*
X154757381Y-103901905D01*
X154757381Y-103616191D02*
X153757381Y-103616191D01*
X153900238Y-103711429D01*
X153995476Y-103806667D01*
X154043095Y-103901905D01*
X160528095Y-99472381D02*
X160528095Y-100281905D01*
X160575714Y-100377143D01*
X160623333Y-100424762D01*
X160718571Y-100472381D01*
X160909048Y-100472381D01*
X161004286Y-100424762D01*
X161051905Y-100377143D01*
X161099524Y-100281905D01*
X161099524Y-99472381D01*
X161528095Y-99567619D02*
X161575714Y-99520000D01*
X161670952Y-99472381D01*
X161909048Y-99472381D01*
X162004286Y-99520000D01*
X162051905Y-99567619D01*
X162099524Y-99662857D01*
X162099524Y-99758095D01*
X162051905Y-99900952D01*
X161480476Y-100472381D01*
X162099524Y-100472381D01*
M02*
