G04 #@! TF.FileFunction,Copper,L1,Top,Signal*
%FSLAX46Y46*%
G04 Gerber Fmt 4.6, Leading zero omitted, Abs format (unit mm)*
G04 Created by KiCad (PCBNEW 4.0.7-e2-6376~58~ubuntu17.04.1) date Wed Oct  4 03:32:47 2017*
%MOMM*%
%LPD*%
G01*
G04 APERTURE LIST*
%ADD10C,0.100000*%
%ADD11C,1.600000*%
%ADD12R,1.700000X1.700000*%
%ADD13O,1.700000X1.700000*%
%ADD14R,0.750000X1.200000*%
%ADD15R,1.200000X0.750000*%
%ADD16R,0.900000X1.200000*%
%ADD17C,1.440000*%
%ADD18R,0.600000X1.550000*%
%ADD19R,1.550000X0.600000*%
%ADD20C,0.600000*%
%ADD21C,0.250000*%
%ADD22C,0.254000*%
G04 APERTURE END LIST*
D10*
D11*
X165100000Y-108585000D03*
X165100000Y-111125000D03*
D12*
X158750000Y-120650000D03*
D13*
X161290000Y-120650000D03*
X163830000Y-120650000D03*
X166370000Y-120650000D03*
X168910000Y-120650000D03*
X171450000Y-120650000D03*
X173990000Y-120650000D03*
X176530000Y-120650000D03*
D14*
X152400000Y-112710000D03*
X152400000Y-110810000D03*
X149225000Y-112710000D03*
X149225000Y-110810000D03*
X149225000Y-98740000D03*
X149225000Y-96840000D03*
X149225000Y-117790000D03*
X149225000Y-115890000D03*
X152400000Y-96840000D03*
X152400000Y-98740000D03*
X155575000Y-113345000D03*
X155575000Y-111445000D03*
D15*
X166685000Y-100965000D03*
X164785000Y-100965000D03*
D14*
X155575000Y-108265000D03*
X155575000Y-106365000D03*
X155575000Y-103820000D03*
X155575000Y-101920000D03*
X149225000Y-91760000D03*
X149225000Y-93660000D03*
X158750000Y-101920000D03*
X158750000Y-103820000D03*
X161925000Y-103820000D03*
X161925000Y-101920000D03*
D16*
X167005000Y-96055000D03*
X167005000Y-98255000D03*
D12*
X158750000Y-91440000D03*
D13*
X161290000Y-91440000D03*
X163830000Y-91440000D03*
X166370000Y-91440000D03*
X168910000Y-91440000D03*
X171450000Y-91440000D03*
X173990000Y-91440000D03*
X176530000Y-91440000D03*
D16*
X155575000Y-96690000D03*
X155575000Y-98890000D03*
X152400000Y-117940000D03*
X152400000Y-115740000D03*
X155575000Y-116375000D03*
X155575000Y-118575000D03*
X155575000Y-91610000D03*
X155575000Y-93810000D03*
X152400000Y-91610000D03*
X152400000Y-93810000D03*
X158750000Y-117305000D03*
X158750000Y-115105000D03*
X161925000Y-115105000D03*
X161925000Y-117305000D03*
D17*
X176530000Y-96520000D03*
X173990000Y-96520000D03*
X171450000Y-96520000D03*
D18*
X161925000Y-106520000D03*
X160655000Y-106520000D03*
X159385000Y-106520000D03*
X158115000Y-106520000D03*
X158115000Y-111920000D03*
X159385000Y-111920000D03*
X160655000Y-111920000D03*
X161925000Y-111920000D03*
X153035000Y-102075000D03*
X151765000Y-102075000D03*
X150495000Y-102075000D03*
X149225000Y-102075000D03*
X149225000Y-107475000D03*
X150495000Y-107475000D03*
X151765000Y-107475000D03*
X153035000Y-107475000D03*
D19*
X163990000Y-98425000D03*
X163990000Y-97155000D03*
X163990000Y-95885000D03*
X163990000Y-94615000D03*
X158590000Y-94615000D03*
X158590000Y-95885000D03*
X158590000Y-97155000D03*
X158590000Y-98425000D03*
D20*
X159727300Y-114864400D03*
X153295400Y-112404700D03*
X150308200Y-95985100D03*
X155844300Y-109904800D03*
X154799700Y-97872500D03*
X157780600Y-117551600D03*
X151431200Y-92307700D03*
D21*
X149869700Y-108980000D02*
X151699700Y-110810000D01*
X149869700Y-103800600D02*
X149869700Y-108980000D01*
X150495000Y-103175300D02*
X149869700Y-103800600D01*
X152400000Y-110810000D02*
X151699700Y-110810000D01*
X150495000Y-102625100D02*
X150495000Y-103175300D01*
X150495000Y-102625100D02*
X150495000Y-102075000D01*
X154024400Y-99665300D02*
X154799700Y-98890000D01*
X151804400Y-99665300D02*
X154024400Y-99665300D01*
X150495000Y-100974700D02*
X151804400Y-99665300D01*
X150495000Y-102075000D02*
X150495000Y-100974700D01*
X155575000Y-98890000D02*
X154799700Y-98890000D01*
X158750000Y-115105000D02*
X158750000Y-114642300D01*
X159385000Y-111920000D02*
X159385000Y-114642300D01*
X158750000Y-114642300D02*
X159385000Y-114642300D01*
X159505200Y-114642300D02*
X159727300Y-114864400D01*
X159385000Y-114642300D02*
X159505200Y-114642300D01*
X165091600Y-90178400D02*
X163830000Y-91440000D01*
X169385100Y-90178400D02*
X165091600Y-90178400D01*
X170180000Y-90973300D02*
X169385100Y-90178400D01*
X170180000Y-91884700D02*
X170180000Y-90973300D01*
X171821200Y-93525900D02*
X170180000Y-91884700D01*
X175074000Y-93525900D02*
X171821200Y-93525900D01*
X177622700Y-96074600D02*
X175074000Y-93525900D01*
X177622700Y-102382600D02*
X177622700Y-96074600D01*
X162700300Y-117305000D02*
X177622700Y-102382600D01*
X158590000Y-98425000D02*
X159690300Y-98425000D01*
X158590000Y-95885000D02*
X159690300Y-95885000D01*
X159690300Y-98425000D02*
X159690300Y-95885000D01*
X161290000Y-92027600D02*
X161290000Y-92615300D01*
X162067100Y-92027600D02*
X162654700Y-91440000D01*
X161290000Y-92027600D02*
X162067100Y-92027600D01*
X163830000Y-91440000D02*
X162654700Y-91440000D01*
X161290000Y-94285300D02*
X159690300Y-95885000D01*
X161290000Y-92615300D02*
X161290000Y-94285300D01*
X161290000Y-91733800D02*
X161290000Y-92027600D01*
X161290000Y-91733800D02*
X161290000Y-91440000D01*
X151420700Y-90264600D02*
X149925300Y-91760000D01*
X159747300Y-90264600D02*
X151420700Y-90264600D01*
X160114700Y-90632000D02*
X159747300Y-90264600D01*
X160114700Y-91440000D02*
X160114700Y-90632000D01*
X161290000Y-91440000D02*
X160114700Y-91440000D01*
X149225000Y-91760000D02*
X149925300Y-91760000D01*
X155575000Y-108265000D02*
X156275300Y-108265000D01*
X148524700Y-117790000D02*
X148524700Y-110810000D01*
X149225000Y-117790000D02*
X148524700Y-117790000D01*
X149225000Y-110810000D02*
X148524700Y-110810000D01*
X153854900Y-111552700D02*
X153263300Y-111552700D01*
X154672600Y-112370400D02*
X153854900Y-111552700D01*
X156088100Y-112370400D02*
X154672600Y-112370400D01*
X156484100Y-111974400D02*
X156088100Y-112370400D01*
X156484100Y-108473800D02*
X156484100Y-111974400D01*
X156275300Y-108265000D02*
X156484100Y-108473800D01*
X151765000Y-108720700D02*
X151765000Y-107475000D01*
X153263300Y-110219000D02*
X151765000Y-108720700D01*
X153263300Y-111552700D02*
X153263300Y-110219000D01*
X150850700Y-111735400D02*
X149925300Y-110810000D01*
X153080600Y-111735400D02*
X150850700Y-111735400D01*
X153263300Y-111552700D02*
X153080600Y-111735400D01*
X149225000Y-110810000D02*
X149925300Y-110810000D01*
X161925000Y-117305000D02*
X162312700Y-117305000D01*
X162312700Y-117305000D02*
X162700300Y-117305000D01*
X151635700Y-119500400D02*
X149925300Y-117790000D01*
X157015600Y-119500400D02*
X151635700Y-119500400D01*
X157081600Y-119434400D02*
X157015600Y-119500400D01*
X160183300Y-119434400D02*
X157081600Y-119434400D01*
X162312700Y-117305000D02*
X160183300Y-119434400D01*
X149225000Y-117790000D02*
X149925300Y-117790000D01*
X166370000Y-91440000D02*
X165194700Y-91440000D01*
X160655000Y-111920000D02*
X160655000Y-110819700D01*
X159385000Y-105380300D02*
X158750000Y-104745300D01*
X159385000Y-106520000D02*
X159385000Y-105380300D01*
X158750000Y-103820000D02*
X158750000Y-104745300D01*
X161925000Y-103820000D02*
X161925000Y-104745300D01*
X159385000Y-106520000D02*
X159385000Y-107620300D01*
X163990000Y-95885000D02*
X163365600Y-95885000D01*
X163365600Y-95885000D02*
X162889700Y-95885000D01*
X161925000Y-103820000D02*
X162625300Y-103820000D01*
X155575000Y-106365000D02*
X155575000Y-103820000D01*
X167005000Y-96055000D02*
X167005000Y-95129700D01*
X155575000Y-106365000D02*
X156275300Y-106365000D01*
X157530600Y-107620300D02*
X156275300Y-106365000D01*
X159385000Y-107620300D02*
X157530600Y-107620300D01*
X164433300Y-92557900D02*
X167005000Y-95129700D01*
X162889700Y-94101500D02*
X164433300Y-92557900D01*
X162889700Y-95885000D02*
X162889700Y-94101500D01*
X165194700Y-91796500D02*
X165194700Y-91440000D01*
X164433300Y-92557900D02*
X165194700Y-91796500D01*
X149225000Y-115890000D02*
X149225000Y-114964700D01*
X149225000Y-93660000D02*
X149925300Y-93660000D01*
X149225000Y-114964700D02*
X149225000Y-112710000D01*
X160655000Y-110819700D02*
X160655000Y-107657700D01*
X159422400Y-107657700D02*
X159385000Y-107620300D01*
X160655000Y-107657700D02*
X159422400Y-107657700D01*
X149225000Y-115890000D02*
X149925300Y-115890000D01*
X150075300Y-115740000D02*
X149925300Y-115890000D01*
X152400000Y-115740000D02*
X150075300Y-115740000D01*
X162439300Y-96335400D02*
X162889700Y-95885000D01*
X162439300Y-100246600D02*
X162439300Y-96335400D01*
X163075600Y-100882900D02*
X162439300Y-100246600D01*
X163075600Y-103369700D02*
X163075600Y-100882900D01*
X162625300Y-103820000D02*
X163075600Y-103369700D01*
X162550800Y-105371100D02*
X162550800Y-107657700D01*
X161925000Y-104745300D02*
X162550800Y-105371100D01*
X164172700Y-107657700D02*
X162550800Y-107657700D01*
X165100000Y-108585000D02*
X164172700Y-107657700D01*
X162550800Y-107657700D02*
X160655000Y-107657700D01*
X153295400Y-112514900D02*
X153295400Y-112404700D01*
X153100300Y-112710000D02*
X153295400Y-112514900D01*
X152400000Y-112710000D02*
X152750200Y-112710000D01*
X152750200Y-112710000D02*
X153100300Y-112710000D01*
X152750200Y-114464500D02*
X152400000Y-114814700D01*
X152750200Y-112710000D02*
X152750200Y-114464500D01*
X152400000Y-115740000D02*
X152400000Y-114814700D01*
X152400000Y-98740000D02*
X151699700Y-98740000D01*
X149925300Y-95602200D02*
X150308200Y-95985100D01*
X149925300Y-93660000D02*
X149925300Y-95602200D01*
X149225000Y-98740000D02*
X149925300Y-98740000D01*
X150308200Y-97922900D02*
X150525300Y-98140000D01*
X150308200Y-95985100D02*
X150308200Y-97922900D01*
X151099700Y-98140000D02*
X150525300Y-98140000D01*
X151699700Y-98740000D02*
X151099700Y-98140000D01*
X150525300Y-98140000D02*
X149925300Y-98740000D01*
X148524700Y-92920400D02*
X148524700Y-96840000D01*
X148710500Y-92734600D02*
X148524700Y-92920400D01*
X150549300Y-92734600D02*
X148710500Y-92734600D01*
X151624700Y-93810000D02*
X150549300Y-92734600D01*
X152400000Y-93810000D02*
X151624700Y-93810000D01*
X149225000Y-96840000D02*
X148524700Y-96840000D01*
X148524700Y-100274400D02*
X148524700Y-96840000D01*
X149225000Y-100974700D02*
X148524700Y-100274400D01*
X149225000Y-102075000D02*
X149225000Y-100974700D01*
X152400000Y-95914700D02*
X152400000Y-93810000D01*
X152400000Y-96840000D02*
X152400000Y-95914700D01*
X158590000Y-94615000D02*
X157489700Y-94615000D01*
X152400000Y-93810000D02*
X153175300Y-93810000D01*
X158750000Y-101920000D02*
X161925000Y-101920000D01*
X154100700Y-92884600D02*
X153175300Y-93810000D01*
X156228300Y-92884600D02*
X154100700Y-92884600D01*
X157489700Y-94146000D02*
X156228300Y-92884600D01*
X157489700Y-94615000D02*
X157489700Y-94146000D01*
X155575000Y-101920000D02*
X156275300Y-101920000D01*
X158750000Y-101920000D02*
X158049700Y-101920000D01*
X157285800Y-101156100D02*
X158049700Y-101920000D01*
X157039200Y-101156100D02*
X157285800Y-101156100D01*
X157039200Y-95065500D02*
X157039200Y-101156100D01*
X157489700Y-94615000D02*
X157039200Y-95065500D01*
X157039200Y-101156100D02*
X156275300Y-101920000D01*
X158049700Y-105354400D02*
X158049700Y-101920000D01*
X158115000Y-105419700D02*
X158049700Y-105354400D01*
X158115000Y-106520000D02*
X158115000Y-105419700D01*
X155575000Y-116375000D02*
X155575000Y-113345000D01*
X150495000Y-107475000D02*
X150495000Y-106374700D01*
X155575000Y-93810000D02*
X156350300Y-93810000D01*
X155575000Y-113345000D02*
X156275300Y-113345000D01*
X155042500Y-100967000D02*
X154874400Y-100967000D01*
X156350300Y-99659200D02*
X155042500Y-100967000D01*
X156350300Y-93810000D02*
X156350300Y-99659200D01*
X151139600Y-105730100D02*
X150495000Y-106374700D01*
X151139600Y-101090900D02*
X151139600Y-105730100D01*
X151263500Y-100967000D02*
X151139600Y-101090900D01*
X154874400Y-100967000D02*
X151263500Y-100967000D01*
X154874400Y-107115700D02*
X154874400Y-100967000D01*
X155049100Y-107290400D02*
X154874400Y-107115700D01*
X156111300Y-107290400D02*
X155049100Y-107290400D01*
X157004100Y-108183200D02*
X156111300Y-107290400D01*
X157004100Y-112616200D02*
X157004100Y-108183200D01*
X156275300Y-113345000D02*
X157004100Y-112616200D01*
X154647200Y-108870300D02*
X155735100Y-109958100D01*
X154647200Y-107525400D02*
X154647200Y-108870300D01*
X151765000Y-104643200D02*
X154647200Y-107525400D01*
X151765000Y-102075000D02*
X151765000Y-104643200D01*
X155788400Y-109904800D02*
X155735100Y-109958100D01*
X155844300Y-109904800D02*
X155788400Y-109904800D01*
X155575000Y-110118200D02*
X155575000Y-111445000D01*
X155735100Y-109958100D02*
X155575000Y-110118200D01*
X163990000Y-97155000D02*
X162889700Y-97155000D01*
X166685000Y-100965000D02*
X166685000Y-101665300D01*
X162889700Y-100060000D02*
X162889700Y-97155000D01*
X163525900Y-100696200D02*
X162889700Y-100060000D01*
X163525900Y-101155800D02*
X163525900Y-100696200D01*
X164035400Y-101665300D02*
X163525900Y-101155800D01*
X166685000Y-101665300D02*
X164035400Y-101665300D01*
X165090300Y-99959400D02*
X164785000Y-100264700D01*
X165090300Y-94615000D02*
X165090300Y-99959400D01*
X163990000Y-94615000D02*
X165090300Y-94615000D01*
X164785000Y-100965000D02*
X164785000Y-100264700D01*
X167005000Y-98255000D02*
X167780300Y-98255000D01*
X170592100Y-95443200D02*
X167780300Y-98255000D01*
X171914500Y-95443200D02*
X170592100Y-95443200D01*
X172507100Y-96035800D02*
X171914500Y-95443200D01*
X172507100Y-97103100D02*
X172507100Y-96035800D01*
X168741600Y-100868600D02*
X172507100Y-97103100D01*
X168741600Y-109161600D02*
X168741600Y-100868600D01*
X162798200Y-115105000D02*
X168741600Y-109161600D01*
X161925000Y-115105000D02*
X162798200Y-115105000D01*
X155575000Y-96690000D02*
X154799700Y-96690000D01*
X154799700Y-96690000D02*
X154799700Y-97872500D01*
X158729900Y-93989600D02*
X156350300Y-91610000D01*
X159549300Y-93989600D02*
X158729900Y-93989600D01*
X159690400Y-94130700D02*
X159549300Y-93989600D01*
X159690400Y-95118900D02*
X159690400Y-94130700D01*
X159561300Y-95248000D02*
X159690400Y-95118900D01*
X157624700Y-95248000D02*
X159561300Y-95248000D01*
X157489600Y-95383100D02*
X157624700Y-95248000D01*
X157489600Y-98898700D02*
X157489600Y-95383100D01*
X158613400Y-100022500D02*
X157489600Y-98898700D01*
X161485400Y-100022500D02*
X158613400Y-100022500D01*
X162625300Y-101162400D02*
X161485400Y-100022500D01*
X162625300Y-102720400D02*
X162625300Y-101162400D01*
X162475700Y-102870000D02*
X162625300Y-102720400D01*
X161428700Y-102870000D02*
X162475700Y-102870000D01*
X160655000Y-103643700D02*
X161428700Y-102870000D01*
X160655000Y-106520000D02*
X160655000Y-103643700D01*
X155575000Y-91610000D02*
X156350300Y-91610000D01*
X153650300Y-117465000D02*
X153175300Y-117940000D01*
X156583400Y-117465000D02*
X153650300Y-117465000D01*
X157699400Y-116349000D02*
X156583400Y-117465000D01*
X159127200Y-116349000D02*
X157699400Y-116349000D01*
X162572500Y-112903700D02*
X159127200Y-116349000D01*
X162572500Y-112018200D02*
X162572500Y-112903700D01*
X164735700Y-109855000D02*
X162572500Y-112018200D01*
X165496700Y-109855000D02*
X164735700Y-109855000D01*
X167840900Y-107510800D02*
X165496700Y-109855000D01*
X167840900Y-100129100D02*
X167840900Y-107510800D01*
X171450000Y-96520000D02*
X167840900Y-100129100D01*
X152400000Y-117940000D02*
X153175300Y-117940000D01*
X159144900Y-118575000D02*
X155575000Y-118575000D01*
X161340200Y-116379700D02*
X159144900Y-118575000D01*
X162160400Y-116379700D02*
X161340200Y-116379700D01*
X176530000Y-102010100D02*
X162160400Y-116379700D01*
X176530000Y-96520000D02*
X176530000Y-102010100D01*
X152400000Y-91610000D02*
X151624700Y-91610000D01*
X158750000Y-117305000D02*
X157974700Y-117305000D01*
X151624700Y-92114200D02*
X151624700Y-91610000D01*
X151431200Y-92307700D02*
X151624700Y-92114200D01*
X157974700Y-117357500D02*
X157780600Y-117551600D01*
X157974700Y-117305000D02*
X157974700Y-117357500D01*
D22*
G36*
X150313299Y-112272801D02*
X150559860Y-112437548D01*
X150850700Y-112495400D01*
X151461150Y-112495400D01*
X151548750Y-112583000D01*
X152273000Y-112583000D01*
X152273000Y-112563000D01*
X152527000Y-112563000D01*
X152527000Y-112583000D01*
X153251250Y-112583000D01*
X153410000Y-112424250D01*
X153410000Y-112411782D01*
X153547384Y-112319986D01*
X154135199Y-112907801D01*
X154381760Y-113072548D01*
X154430014Y-113082146D01*
X154552560Y-113106522D01*
X154552560Y-113945000D01*
X154596838Y-114180317D01*
X154735910Y-114396441D01*
X154815000Y-114450481D01*
X154815000Y-115219895D01*
X154673559Y-115310910D01*
X154528569Y-115523110D01*
X154477560Y-115775000D01*
X154477560Y-116705000D01*
X153650300Y-116705000D01*
X153407714Y-116753254D01*
X153359460Y-116762852D01*
X153256132Y-116831893D01*
X153388327Y-116699698D01*
X153485000Y-116466309D01*
X153485000Y-116025750D01*
X153326250Y-115867000D01*
X152527000Y-115867000D01*
X152527000Y-115887000D01*
X152273000Y-115887000D01*
X152273000Y-115867000D01*
X151473750Y-115867000D01*
X151315000Y-116025750D01*
X151315000Y-116466309D01*
X151411673Y-116699698D01*
X151552910Y-116840936D01*
X151498559Y-116875910D01*
X151353569Y-117088110D01*
X151302560Y-117340000D01*
X151302560Y-118092458D01*
X150462701Y-117252599D01*
X150229957Y-117097085D01*
X150203162Y-116954683D01*
X150136671Y-116851354D01*
X150138327Y-116849698D01*
X150235000Y-116616309D01*
X150235000Y-116175750D01*
X150076250Y-116017000D01*
X149352000Y-116017000D01*
X149352000Y-116037000D01*
X149284700Y-116037000D01*
X149284700Y-115743000D01*
X149352000Y-115743000D01*
X149352000Y-115763000D01*
X150076250Y-115763000D01*
X150235000Y-115604250D01*
X150235000Y-115163691D01*
X150172868Y-115013691D01*
X151315000Y-115013691D01*
X151315000Y-115454250D01*
X151473750Y-115613000D01*
X152273000Y-115613000D01*
X152273000Y-114663750D01*
X152527000Y-114663750D01*
X152527000Y-115613000D01*
X153326250Y-115613000D01*
X153485000Y-115454250D01*
X153485000Y-115013691D01*
X153388327Y-114780302D01*
X153209699Y-114601673D01*
X152976310Y-114505000D01*
X152685750Y-114505000D01*
X152527000Y-114663750D01*
X152273000Y-114663750D01*
X152114250Y-114505000D01*
X151823690Y-114505000D01*
X151590301Y-114601673D01*
X151411673Y-114780302D01*
X151315000Y-115013691D01*
X150172868Y-115013691D01*
X150138327Y-114930302D01*
X149959699Y-114751673D01*
X149726310Y-114655000D01*
X149510750Y-114655000D01*
X149352002Y-114813748D01*
X149352002Y-114655000D01*
X149284700Y-114655000D01*
X149284700Y-113945000D01*
X149352002Y-113945000D01*
X149352002Y-113786252D01*
X149510750Y-113945000D01*
X149726310Y-113945000D01*
X149959699Y-113848327D01*
X150138327Y-113669698D01*
X150235000Y-113436309D01*
X150235000Y-112995750D01*
X151390000Y-112995750D01*
X151390000Y-113436309D01*
X151486673Y-113669698D01*
X151665301Y-113848327D01*
X151898690Y-113945000D01*
X152114250Y-113945000D01*
X152273000Y-113786250D01*
X152273000Y-112837000D01*
X152527000Y-112837000D01*
X152527000Y-113786250D01*
X152685750Y-113945000D01*
X152901310Y-113945000D01*
X153134699Y-113848327D01*
X153313327Y-113669698D01*
X153410000Y-113436309D01*
X153410000Y-112995750D01*
X153251250Y-112837000D01*
X152527000Y-112837000D01*
X152273000Y-112837000D01*
X151548750Y-112837000D01*
X151390000Y-112995750D01*
X150235000Y-112995750D01*
X150076250Y-112837000D01*
X149352000Y-112837000D01*
X149352000Y-112857000D01*
X149284700Y-112857000D01*
X149284700Y-112563000D01*
X149352000Y-112563000D01*
X149352000Y-112583000D01*
X150076250Y-112583000D01*
X150235000Y-112424250D01*
X150235000Y-112194502D01*
X150313299Y-112272801D01*
X150313299Y-112272801D01*
G37*
X150313299Y-112272801D02*
X150559860Y-112437548D01*
X150850700Y-112495400D01*
X151461150Y-112495400D01*
X151548750Y-112583000D01*
X152273000Y-112583000D01*
X152273000Y-112563000D01*
X152527000Y-112563000D01*
X152527000Y-112583000D01*
X153251250Y-112583000D01*
X153410000Y-112424250D01*
X153410000Y-112411782D01*
X153547384Y-112319986D01*
X154135199Y-112907801D01*
X154381760Y-113072548D01*
X154430014Y-113082146D01*
X154552560Y-113106522D01*
X154552560Y-113945000D01*
X154596838Y-114180317D01*
X154735910Y-114396441D01*
X154815000Y-114450481D01*
X154815000Y-115219895D01*
X154673559Y-115310910D01*
X154528569Y-115523110D01*
X154477560Y-115775000D01*
X154477560Y-116705000D01*
X153650300Y-116705000D01*
X153407714Y-116753254D01*
X153359460Y-116762852D01*
X153256132Y-116831893D01*
X153388327Y-116699698D01*
X153485000Y-116466309D01*
X153485000Y-116025750D01*
X153326250Y-115867000D01*
X152527000Y-115867000D01*
X152527000Y-115887000D01*
X152273000Y-115887000D01*
X152273000Y-115867000D01*
X151473750Y-115867000D01*
X151315000Y-116025750D01*
X151315000Y-116466309D01*
X151411673Y-116699698D01*
X151552910Y-116840936D01*
X151498559Y-116875910D01*
X151353569Y-117088110D01*
X151302560Y-117340000D01*
X151302560Y-118092458D01*
X150462701Y-117252599D01*
X150229957Y-117097085D01*
X150203162Y-116954683D01*
X150136671Y-116851354D01*
X150138327Y-116849698D01*
X150235000Y-116616309D01*
X150235000Y-116175750D01*
X150076250Y-116017000D01*
X149352000Y-116017000D01*
X149352000Y-116037000D01*
X149284700Y-116037000D01*
X149284700Y-115743000D01*
X149352000Y-115743000D01*
X149352000Y-115763000D01*
X150076250Y-115763000D01*
X150235000Y-115604250D01*
X150235000Y-115163691D01*
X150172868Y-115013691D01*
X151315000Y-115013691D01*
X151315000Y-115454250D01*
X151473750Y-115613000D01*
X152273000Y-115613000D01*
X152273000Y-114663750D01*
X152527000Y-114663750D01*
X152527000Y-115613000D01*
X153326250Y-115613000D01*
X153485000Y-115454250D01*
X153485000Y-115013691D01*
X153388327Y-114780302D01*
X153209699Y-114601673D01*
X152976310Y-114505000D01*
X152685750Y-114505000D01*
X152527000Y-114663750D01*
X152273000Y-114663750D01*
X152114250Y-114505000D01*
X151823690Y-114505000D01*
X151590301Y-114601673D01*
X151411673Y-114780302D01*
X151315000Y-115013691D01*
X150172868Y-115013691D01*
X150138327Y-114930302D01*
X149959699Y-114751673D01*
X149726310Y-114655000D01*
X149510750Y-114655000D01*
X149352002Y-114813748D01*
X149352002Y-114655000D01*
X149284700Y-114655000D01*
X149284700Y-113945000D01*
X149352002Y-113945000D01*
X149352002Y-113786252D01*
X149510750Y-113945000D01*
X149726310Y-113945000D01*
X149959699Y-113848327D01*
X150138327Y-113669698D01*
X150235000Y-113436309D01*
X150235000Y-112995750D01*
X151390000Y-112995750D01*
X151390000Y-113436309D01*
X151486673Y-113669698D01*
X151665301Y-113848327D01*
X151898690Y-113945000D01*
X152114250Y-113945000D01*
X152273000Y-113786250D01*
X152273000Y-112837000D01*
X152527000Y-112837000D01*
X152527000Y-113786250D01*
X152685750Y-113945000D01*
X152901310Y-113945000D01*
X153134699Y-113848327D01*
X153313327Y-113669698D01*
X153410000Y-113436309D01*
X153410000Y-112995750D01*
X153251250Y-112837000D01*
X152527000Y-112837000D01*
X152273000Y-112837000D01*
X151548750Y-112837000D01*
X151390000Y-112995750D01*
X150235000Y-112995750D01*
X150076250Y-112837000D01*
X149352000Y-112837000D01*
X149352000Y-112857000D01*
X149284700Y-112857000D01*
X149284700Y-112563000D01*
X149352000Y-112563000D01*
X149352000Y-112583000D01*
X150076250Y-112583000D01*
X150235000Y-112424250D01*
X150235000Y-112194502D01*
X150313299Y-112272801D01*
G36*
X163497999Y-102202701D02*
X163744561Y-102367448D01*
X164035400Y-102425300D01*
X166685000Y-102425300D01*
X166975839Y-102367448D01*
X167080900Y-102297249D01*
X167080900Y-107195998D01*
X166380822Y-107896076D01*
X166353864Y-107830995D01*
X166107745Y-107756861D01*
X165279605Y-108585000D01*
X165293748Y-108599142D01*
X165114142Y-108778748D01*
X165100000Y-108764605D01*
X165085858Y-108778748D01*
X164906252Y-108599142D01*
X164920395Y-108585000D01*
X164092255Y-107756861D01*
X163846136Y-107830995D01*
X163653035Y-108368223D01*
X163680222Y-108938454D01*
X163846136Y-109339005D01*
X164092253Y-109413139D01*
X163977378Y-109528014D01*
X163982631Y-109533267D01*
X162741262Y-110774636D01*
X162689090Y-110693559D01*
X162476890Y-110548569D01*
X162225000Y-110497560D01*
X161625000Y-110497560D01*
X161389683Y-110541838D01*
X161299020Y-110600178D01*
X161081310Y-110510000D01*
X160940750Y-110510000D01*
X160782000Y-110668750D01*
X160782000Y-111793000D01*
X160802000Y-111793000D01*
X160802000Y-112047000D01*
X160782000Y-112047000D01*
X160782000Y-113171250D01*
X160940750Y-113330000D01*
X161071398Y-113330000D01*
X160293377Y-114108021D01*
X160257627Y-114072208D01*
X160145000Y-114025441D01*
X160145000Y-113295334D01*
X160228690Y-113330000D01*
X160369250Y-113330000D01*
X160528000Y-113171250D01*
X160528000Y-112047000D01*
X160508000Y-112047000D01*
X160508000Y-111793000D01*
X160528000Y-111793000D01*
X160528000Y-110668750D01*
X160369250Y-110510000D01*
X160228690Y-110510000D01*
X160011878Y-110599806D01*
X159936890Y-110548569D01*
X159685000Y-110497560D01*
X159085000Y-110497560D01*
X158849683Y-110541838D01*
X158750472Y-110605678D01*
X158666890Y-110548569D01*
X158415000Y-110497560D01*
X157815000Y-110497560D01*
X157764100Y-110507138D01*
X157764100Y-108183200D01*
X157712063Y-107921595D01*
X157815000Y-107942440D01*
X158415000Y-107942440D01*
X158650317Y-107898162D01*
X158740980Y-107839822D01*
X158958690Y-107930000D01*
X159099250Y-107930000D01*
X159258000Y-107771250D01*
X159258000Y-106647000D01*
X159238000Y-106647000D01*
X159238000Y-106393000D01*
X159258000Y-106393000D01*
X159258000Y-105268750D01*
X159099250Y-105110000D01*
X158958690Y-105110000D01*
X158824456Y-105165602D01*
X158817148Y-105128861D01*
X158809700Y-105117714D01*
X158809700Y-105055000D01*
X158877002Y-105055000D01*
X158877002Y-104896252D01*
X159035750Y-105055000D01*
X159251310Y-105055000D01*
X159484699Y-104958327D01*
X159663327Y-104779698D01*
X159760000Y-104546309D01*
X159760000Y-104105750D01*
X159601250Y-103947000D01*
X158877000Y-103947000D01*
X158877000Y-103967000D01*
X158809700Y-103967000D01*
X158809700Y-103673000D01*
X158877000Y-103673000D01*
X158877000Y-103693000D01*
X159601250Y-103693000D01*
X159760000Y-103534250D01*
X159760000Y-103093691D01*
X159663327Y-102860302D01*
X159661957Y-102858932D01*
X159721431Y-102771890D01*
X159740039Y-102680000D01*
X160543898Y-102680000D01*
X160117599Y-103106299D01*
X159952852Y-103352861D01*
X159895000Y-103643700D01*
X159895000Y-105144666D01*
X159811310Y-105110000D01*
X159670750Y-105110000D01*
X159512000Y-105268750D01*
X159512000Y-106393000D01*
X159532000Y-106393000D01*
X159532000Y-106647000D01*
X159512000Y-106647000D01*
X159512000Y-107771250D01*
X159670750Y-107930000D01*
X159811310Y-107930000D01*
X160028122Y-107840194D01*
X160103110Y-107891431D01*
X160355000Y-107942440D01*
X160955000Y-107942440D01*
X161190317Y-107898162D01*
X161289528Y-107834322D01*
X161373110Y-107891431D01*
X161625000Y-107942440D01*
X162225000Y-107942440D01*
X162460317Y-107898162D01*
X162676441Y-107759090D01*
X162800683Y-107577255D01*
X164271861Y-107577255D01*
X165100000Y-108405395D01*
X165928139Y-107577255D01*
X165854005Y-107331136D01*
X165316777Y-107138035D01*
X164746546Y-107165222D01*
X164345995Y-107331136D01*
X164271861Y-107577255D01*
X162800683Y-107577255D01*
X162821431Y-107546890D01*
X162872440Y-107295000D01*
X162872440Y-105745000D01*
X162828162Y-105509683D01*
X162689090Y-105293559D01*
X162476890Y-105148569D01*
X162225000Y-105097560D01*
X161625000Y-105097560D01*
X161415000Y-105137074D01*
X161415000Y-105051400D01*
X161423690Y-105055000D01*
X161639250Y-105055000D01*
X161798000Y-104896250D01*
X161798000Y-103947000D01*
X162052000Y-103947000D01*
X162052000Y-104896250D01*
X162210750Y-105055000D01*
X162426310Y-105055000D01*
X162659699Y-104958327D01*
X162838327Y-104779698D01*
X162935000Y-104546309D01*
X162935000Y-104105750D01*
X162776250Y-103947000D01*
X162052000Y-103947000D01*
X161798000Y-103947000D01*
X161778000Y-103947000D01*
X161778000Y-103693000D01*
X161798000Y-103693000D01*
X161798000Y-103673000D01*
X162052000Y-103673000D01*
X162052000Y-103693000D01*
X162776250Y-103693000D01*
X162935000Y-103534250D01*
X162935000Y-103459586D01*
X163013101Y-103407401D01*
X163162701Y-103257801D01*
X163327448Y-103011240D01*
X163385300Y-102720400D01*
X163385300Y-102090002D01*
X163497999Y-102202701D01*
X163497999Y-102202701D01*
G37*
X163497999Y-102202701D02*
X163744561Y-102367448D01*
X164035400Y-102425300D01*
X166685000Y-102425300D01*
X166975839Y-102367448D01*
X167080900Y-102297249D01*
X167080900Y-107195998D01*
X166380822Y-107896076D01*
X166353864Y-107830995D01*
X166107745Y-107756861D01*
X165279605Y-108585000D01*
X165293748Y-108599142D01*
X165114142Y-108778748D01*
X165100000Y-108764605D01*
X165085858Y-108778748D01*
X164906252Y-108599142D01*
X164920395Y-108585000D01*
X164092255Y-107756861D01*
X163846136Y-107830995D01*
X163653035Y-108368223D01*
X163680222Y-108938454D01*
X163846136Y-109339005D01*
X164092253Y-109413139D01*
X163977378Y-109528014D01*
X163982631Y-109533267D01*
X162741262Y-110774636D01*
X162689090Y-110693559D01*
X162476890Y-110548569D01*
X162225000Y-110497560D01*
X161625000Y-110497560D01*
X161389683Y-110541838D01*
X161299020Y-110600178D01*
X161081310Y-110510000D01*
X160940750Y-110510000D01*
X160782000Y-110668750D01*
X160782000Y-111793000D01*
X160802000Y-111793000D01*
X160802000Y-112047000D01*
X160782000Y-112047000D01*
X160782000Y-113171250D01*
X160940750Y-113330000D01*
X161071398Y-113330000D01*
X160293377Y-114108021D01*
X160257627Y-114072208D01*
X160145000Y-114025441D01*
X160145000Y-113295334D01*
X160228690Y-113330000D01*
X160369250Y-113330000D01*
X160528000Y-113171250D01*
X160528000Y-112047000D01*
X160508000Y-112047000D01*
X160508000Y-111793000D01*
X160528000Y-111793000D01*
X160528000Y-110668750D01*
X160369250Y-110510000D01*
X160228690Y-110510000D01*
X160011878Y-110599806D01*
X159936890Y-110548569D01*
X159685000Y-110497560D01*
X159085000Y-110497560D01*
X158849683Y-110541838D01*
X158750472Y-110605678D01*
X158666890Y-110548569D01*
X158415000Y-110497560D01*
X157815000Y-110497560D01*
X157764100Y-110507138D01*
X157764100Y-108183200D01*
X157712063Y-107921595D01*
X157815000Y-107942440D01*
X158415000Y-107942440D01*
X158650317Y-107898162D01*
X158740980Y-107839822D01*
X158958690Y-107930000D01*
X159099250Y-107930000D01*
X159258000Y-107771250D01*
X159258000Y-106647000D01*
X159238000Y-106647000D01*
X159238000Y-106393000D01*
X159258000Y-106393000D01*
X159258000Y-105268750D01*
X159099250Y-105110000D01*
X158958690Y-105110000D01*
X158824456Y-105165602D01*
X158817148Y-105128861D01*
X158809700Y-105117714D01*
X158809700Y-105055000D01*
X158877002Y-105055000D01*
X158877002Y-104896252D01*
X159035750Y-105055000D01*
X159251310Y-105055000D01*
X159484699Y-104958327D01*
X159663327Y-104779698D01*
X159760000Y-104546309D01*
X159760000Y-104105750D01*
X159601250Y-103947000D01*
X158877000Y-103947000D01*
X158877000Y-103967000D01*
X158809700Y-103967000D01*
X158809700Y-103673000D01*
X158877000Y-103673000D01*
X158877000Y-103693000D01*
X159601250Y-103693000D01*
X159760000Y-103534250D01*
X159760000Y-103093691D01*
X159663327Y-102860302D01*
X159661957Y-102858932D01*
X159721431Y-102771890D01*
X159740039Y-102680000D01*
X160543898Y-102680000D01*
X160117599Y-103106299D01*
X159952852Y-103352861D01*
X159895000Y-103643700D01*
X159895000Y-105144666D01*
X159811310Y-105110000D01*
X159670750Y-105110000D01*
X159512000Y-105268750D01*
X159512000Y-106393000D01*
X159532000Y-106393000D01*
X159532000Y-106647000D01*
X159512000Y-106647000D01*
X159512000Y-107771250D01*
X159670750Y-107930000D01*
X159811310Y-107930000D01*
X160028122Y-107840194D01*
X160103110Y-107891431D01*
X160355000Y-107942440D01*
X160955000Y-107942440D01*
X161190317Y-107898162D01*
X161289528Y-107834322D01*
X161373110Y-107891431D01*
X161625000Y-107942440D01*
X162225000Y-107942440D01*
X162460317Y-107898162D01*
X162676441Y-107759090D01*
X162800683Y-107577255D01*
X164271861Y-107577255D01*
X165100000Y-108405395D01*
X165928139Y-107577255D01*
X165854005Y-107331136D01*
X165316777Y-107138035D01*
X164746546Y-107165222D01*
X164345995Y-107331136D01*
X164271861Y-107577255D01*
X162800683Y-107577255D01*
X162821431Y-107546890D01*
X162872440Y-107295000D01*
X162872440Y-105745000D01*
X162828162Y-105509683D01*
X162689090Y-105293559D01*
X162476890Y-105148569D01*
X162225000Y-105097560D01*
X161625000Y-105097560D01*
X161415000Y-105137074D01*
X161415000Y-105051400D01*
X161423690Y-105055000D01*
X161639250Y-105055000D01*
X161798000Y-104896250D01*
X161798000Y-103947000D01*
X162052000Y-103947000D01*
X162052000Y-104896250D01*
X162210750Y-105055000D01*
X162426310Y-105055000D01*
X162659699Y-104958327D01*
X162838327Y-104779698D01*
X162935000Y-104546309D01*
X162935000Y-104105750D01*
X162776250Y-103947000D01*
X162052000Y-103947000D01*
X161798000Y-103947000D01*
X161778000Y-103947000D01*
X161778000Y-103693000D01*
X161798000Y-103693000D01*
X161798000Y-103673000D01*
X162052000Y-103673000D01*
X162052000Y-103693000D01*
X162776250Y-103693000D01*
X162935000Y-103534250D01*
X162935000Y-103459586D01*
X163013101Y-103407401D01*
X163162701Y-103257801D01*
X163327448Y-103011240D01*
X163385300Y-102720400D01*
X163385300Y-102090002D01*
X163497999Y-102202701D01*
G36*
X157289700Y-102234802D02*
X157289700Y-105354400D01*
X157295032Y-105381203D01*
X157218569Y-105493110D01*
X157167560Y-105745000D01*
X157167560Y-107271858D01*
X156648701Y-106752999D01*
X156585000Y-106710435D01*
X156585000Y-106650750D01*
X156426250Y-106492000D01*
X155702000Y-106492000D01*
X155702000Y-106512000D01*
X155634400Y-106512000D01*
X155634400Y-106218000D01*
X155702000Y-106218000D01*
X155702000Y-106238000D01*
X156426250Y-106238000D01*
X156585000Y-106079250D01*
X156585000Y-105638691D01*
X156488327Y-105405302D01*
X156309699Y-105226673D01*
X156076310Y-105130000D01*
X155860750Y-105130000D01*
X155702002Y-105288748D01*
X155702002Y-105130000D01*
X155634400Y-105130000D01*
X155634400Y-105055000D01*
X155702002Y-105055000D01*
X155702002Y-104896252D01*
X155860750Y-105055000D01*
X156076310Y-105055000D01*
X156309699Y-104958327D01*
X156488327Y-104779698D01*
X156585000Y-104546309D01*
X156585000Y-104105750D01*
X156426250Y-103947000D01*
X155702000Y-103947000D01*
X155702000Y-103967000D01*
X155634400Y-103967000D01*
X155634400Y-103673000D01*
X155702000Y-103673000D01*
X155702000Y-103693000D01*
X156426250Y-103693000D01*
X156585000Y-103534250D01*
X156585000Y-103093691D01*
X156488327Y-102860302D01*
X156486957Y-102858932D01*
X156546431Y-102771890D01*
X156578416Y-102613945D01*
X156812701Y-102457401D01*
X157162500Y-102107602D01*
X157289700Y-102234802D01*
X157289700Y-102234802D01*
G37*
X157289700Y-102234802D02*
X157289700Y-105354400D01*
X157295032Y-105381203D01*
X157218569Y-105493110D01*
X157167560Y-105745000D01*
X157167560Y-107271858D01*
X156648701Y-106752999D01*
X156585000Y-106710435D01*
X156585000Y-106650750D01*
X156426250Y-106492000D01*
X155702000Y-106492000D01*
X155702000Y-106512000D01*
X155634400Y-106512000D01*
X155634400Y-106218000D01*
X155702000Y-106218000D01*
X155702000Y-106238000D01*
X156426250Y-106238000D01*
X156585000Y-106079250D01*
X156585000Y-105638691D01*
X156488327Y-105405302D01*
X156309699Y-105226673D01*
X156076310Y-105130000D01*
X155860750Y-105130000D01*
X155702002Y-105288748D01*
X155702002Y-105130000D01*
X155634400Y-105130000D01*
X155634400Y-105055000D01*
X155702002Y-105055000D01*
X155702002Y-104896252D01*
X155860750Y-105055000D01*
X156076310Y-105055000D01*
X156309699Y-104958327D01*
X156488327Y-104779698D01*
X156585000Y-104546309D01*
X156585000Y-104105750D01*
X156426250Y-103947000D01*
X155702000Y-103947000D01*
X155702000Y-103967000D01*
X155634400Y-103967000D01*
X155634400Y-103673000D01*
X155702000Y-103673000D01*
X155702000Y-103693000D01*
X156426250Y-103693000D01*
X156585000Y-103534250D01*
X156585000Y-103093691D01*
X156488327Y-102860302D01*
X156486957Y-102858932D01*
X156546431Y-102771890D01*
X156578416Y-102613945D01*
X156812701Y-102457401D01*
X157162500Y-102107602D01*
X157289700Y-102234802D01*
G36*
X151087299Y-94347401D02*
X151320043Y-94502916D01*
X151346838Y-94645317D01*
X151485910Y-94861441D01*
X151640000Y-94966726D01*
X151640000Y-95733156D01*
X151573559Y-95775910D01*
X151428569Y-95988110D01*
X151377560Y-96240000D01*
X151377560Y-97440000D01*
X151421838Y-97675317D01*
X151488329Y-97778646D01*
X151486673Y-97780302D01*
X151390000Y-98013691D01*
X151390000Y-98454250D01*
X151548750Y-98613000D01*
X152273000Y-98613000D01*
X152273000Y-98593000D01*
X152527000Y-98593000D01*
X152527000Y-98613000D01*
X153251250Y-98613000D01*
X153410000Y-98454250D01*
X153410000Y-98013691D01*
X153313327Y-97780302D01*
X153311957Y-97778932D01*
X153371431Y-97691890D01*
X153422440Y-97440000D01*
X153422440Y-96240000D01*
X153378162Y-96004683D01*
X153239090Y-95788559D01*
X153160000Y-95734519D01*
X153160000Y-94965105D01*
X153301441Y-94874090D01*
X153446431Y-94661890D01*
X153478416Y-94503945D01*
X153712701Y-94347401D01*
X154415502Y-93644600D01*
X154477560Y-93644600D01*
X154477560Y-94410000D01*
X154521838Y-94645317D01*
X154660910Y-94861441D01*
X154873110Y-95006431D01*
X155125000Y-95057440D01*
X155590300Y-95057440D01*
X155590300Y-95442560D01*
X155125000Y-95442560D01*
X154889683Y-95486838D01*
X154673559Y-95625910D01*
X154528569Y-95838110D01*
X154496584Y-95996055D01*
X154262299Y-96152599D01*
X154097552Y-96399161D01*
X154039700Y-96690000D01*
X154039700Y-97310037D01*
X154007508Y-97342173D01*
X153864862Y-97685701D01*
X153864538Y-98057667D01*
X154006583Y-98401443D01*
X154109929Y-98504969D01*
X153709598Y-98905300D01*
X153289550Y-98905300D01*
X153251250Y-98867000D01*
X152527000Y-98867000D01*
X152527000Y-98887000D01*
X152273000Y-98887000D01*
X152273000Y-98867000D01*
X151548750Y-98867000D01*
X151390000Y-99025750D01*
X151390000Y-99045712D01*
X151266999Y-99127899D01*
X149957599Y-100437299D01*
X149860000Y-100583367D01*
X149762401Y-100437299D01*
X149300102Y-99975000D01*
X149352002Y-99975000D01*
X149352002Y-99816252D01*
X149510750Y-99975000D01*
X149726310Y-99975000D01*
X149959699Y-99878327D01*
X150138327Y-99699698D01*
X150235000Y-99466309D01*
X150235000Y-99025750D01*
X150076250Y-98867000D01*
X149352000Y-98867000D01*
X149352000Y-98887000D01*
X149284700Y-98887000D01*
X149284700Y-98593000D01*
X149352000Y-98593000D01*
X149352000Y-98613000D01*
X150076250Y-98613000D01*
X150235000Y-98454250D01*
X150235000Y-98013691D01*
X150138327Y-97780302D01*
X150136957Y-97778932D01*
X150196431Y-97691890D01*
X150247440Y-97440000D01*
X150247440Y-96240000D01*
X150203162Y-96004683D01*
X150064090Y-95788559D01*
X149851890Y-95643569D01*
X149600000Y-95592560D01*
X149284700Y-95592560D01*
X149284700Y-94895000D01*
X149352002Y-94895000D01*
X149352002Y-94736252D01*
X149510750Y-94895000D01*
X149726310Y-94895000D01*
X149959699Y-94798327D01*
X150138327Y-94619698D01*
X150235000Y-94386309D01*
X150235000Y-93945750D01*
X150076250Y-93787000D01*
X149352000Y-93787000D01*
X149352000Y-93807000D01*
X149284700Y-93807000D01*
X149284700Y-93513000D01*
X149352000Y-93513000D01*
X149352000Y-93533000D01*
X150076250Y-93533000D01*
X150114650Y-93494600D01*
X150234498Y-93494600D01*
X151087299Y-94347401D01*
X151087299Y-94347401D01*
G37*
X151087299Y-94347401D02*
X151320043Y-94502916D01*
X151346838Y-94645317D01*
X151485910Y-94861441D01*
X151640000Y-94966726D01*
X151640000Y-95733156D01*
X151573559Y-95775910D01*
X151428569Y-95988110D01*
X151377560Y-96240000D01*
X151377560Y-97440000D01*
X151421838Y-97675317D01*
X151488329Y-97778646D01*
X151486673Y-97780302D01*
X151390000Y-98013691D01*
X151390000Y-98454250D01*
X151548750Y-98613000D01*
X152273000Y-98613000D01*
X152273000Y-98593000D01*
X152527000Y-98593000D01*
X152527000Y-98613000D01*
X153251250Y-98613000D01*
X153410000Y-98454250D01*
X153410000Y-98013691D01*
X153313327Y-97780302D01*
X153311957Y-97778932D01*
X153371431Y-97691890D01*
X153422440Y-97440000D01*
X153422440Y-96240000D01*
X153378162Y-96004683D01*
X153239090Y-95788559D01*
X153160000Y-95734519D01*
X153160000Y-94965105D01*
X153301441Y-94874090D01*
X153446431Y-94661890D01*
X153478416Y-94503945D01*
X153712701Y-94347401D01*
X154415502Y-93644600D01*
X154477560Y-93644600D01*
X154477560Y-94410000D01*
X154521838Y-94645317D01*
X154660910Y-94861441D01*
X154873110Y-95006431D01*
X155125000Y-95057440D01*
X155590300Y-95057440D01*
X155590300Y-95442560D01*
X155125000Y-95442560D01*
X154889683Y-95486838D01*
X154673559Y-95625910D01*
X154528569Y-95838110D01*
X154496584Y-95996055D01*
X154262299Y-96152599D01*
X154097552Y-96399161D01*
X154039700Y-96690000D01*
X154039700Y-97310037D01*
X154007508Y-97342173D01*
X153864862Y-97685701D01*
X153864538Y-98057667D01*
X154006583Y-98401443D01*
X154109929Y-98504969D01*
X153709598Y-98905300D01*
X153289550Y-98905300D01*
X153251250Y-98867000D01*
X152527000Y-98867000D01*
X152527000Y-98887000D01*
X152273000Y-98887000D01*
X152273000Y-98867000D01*
X151548750Y-98867000D01*
X151390000Y-99025750D01*
X151390000Y-99045712D01*
X151266999Y-99127899D01*
X149957599Y-100437299D01*
X149860000Y-100583367D01*
X149762401Y-100437299D01*
X149300102Y-99975000D01*
X149352002Y-99975000D01*
X149352002Y-99816252D01*
X149510750Y-99975000D01*
X149726310Y-99975000D01*
X149959699Y-99878327D01*
X150138327Y-99699698D01*
X150235000Y-99466309D01*
X150235000Y-99025750D01*
X150076250Y-98867000D01*
X149352000Y-98867000D01*
X149352000Y-98887000D01*
X149284700Y-98887000D01*
X149284700Y-98593000D01*
X149352000Y-98593000D01*
X149352000Y-98613000D01*
X150076250Y-98613000D01*
X150235000Y-98454250D01*
X150235000Y-98013691D01*
X150138327Y-97780302D01*
X150136957Y-97778932D01*
X150196431Y-97691890D01*
X150247440Y-97440000D01*
X150247440Y-96240000D01*
X150203162Y-96004683D01*
X150064090Y-95788559D01*
X149851890Y-95643569D01*
X149600000Y-95592560D01*
X149284700Y-95592560D01*
X149284700Y-94895000D01*
X149352002Y-94895000D01*
X149352002Y-94736252D01*
X149510750Y-94895000D01*
X149726310Y-94895000D01*
X149959699Y-94798327D01*
X150138327Y-94619698D01*
X150235000Y-94386309D01*
X150235000Y-93945750D01*
X150076250Y-93787000D01*
X149352000Y-93787000D01*
X149352000Y-93807000D01*
X149284700Y-93807000D01*
X149284700Y-93513000D01*
X149352000Y-93513000D01*
X149352000Y-93533000D01*
X150076250Y-93533000D01*
X150114650Y-93494600D01*
X150234498Y-93494600D01*
X151087299Y-94347401D01*
G36*
X166497000Y-91313000D02*
X168783000Y-91313000D01*
X168783000Y-91293000D01*
X169037000Y-91293000D01*
X169037000Y-91313000D01*
X169057000Y-91313000D01*
X169057000Y-91567000D01*
X169037000Y-91567000D01*
X169037000Y-92760155D01*
X169266890Y-92881476D01*
X169676924Y-92711645D01*
X169810453Y-92589955D01*
X171283799Y-94063301D01*
X171530360Y-94228048D01*
X171821200Y-94285900D01*
X174759198Y-94285900D01*
X175820391Y-95347093D01*
X175763457Y-95370617D01*
X175381957Y-95751452D01*
X175259955Y-96045264D01*
X175139383Y-95753457D01*
X174758548Y-95371957D01*
X174260709Y-95165236D01*
X173721656Y-95164765D01*
X173223457Y-95370617D01*
X173064888Y-95528910D01*
X173044501Y-95498399D01*
X172451901Y-94905799D01*
X172205339Y-94741052D01*
X171914500Y-94683200D01*
X170592100Y-94683200D01*
X170301261Y-94741052D01*
X170054699Y-94905799D01*
X168026934Y-96933564D01*
X168090000Y-96781309D01*
X168090000Y-96340750D01*
X167931250Y-96182000D01*
X167132000Y-96182000D01*
X167132000Y-96202000D01*
X166878000Y-96202000D01*
X166878000Y-96182000D01*
X166078750Y-96182000D01*
X165920000Y-96340750D01*
X165920000Y-96781309D01*
X166016673Y-97014698D01*
X166157910Y-97155936D01*
X166103559Y-97190910D01*
X165958569Y-97403110D01*
X165907560Y-97655000D01*
X165907560Y-98855000D01*
X165951838Y-99090317D01*
X166090910Y-99306441D01*
X166303110Y-99451431D01*
X166555000Y-99502440D01*
X167392758Y-99502440D01*
X167303499Y-99591699D01*
X167138752Y-99838261D01*
X167118005Y-99942560D01*
X166085000Y-99942560D01*
X165849683Y-99986838D01*
X165844132Y-99990410D01*
X165850300Y-99959400D01*
X165850300Y-95328691D01*
X165920000Y-95328691D01*
X165920000Y-95769250D01*
X166078750Y-95928000D01*
X166878000Y-95928000D01*
X166878000Y-94978750D01*
X167132000Y-94978750D01*
X167132000Y-95928000D01*
X167931250Y-95928000D01*
X168090000Y-95769250D01*
X168090000Y-95328691D01*
X167993327Y-95095302D01*
X167814699Y-94916673D01*
X167581310Y-94820000D01*
X167290750Y-94820000D01*
X167132000Y-94978750D01*
X166878000Y-94978750D01*
X166719250Y-94820000D01*
X166428690Y-94820000D01*
X166195301Y-94916673D01*
X166016673Y-95095302D01*
X165920000Y-95328691D01*
X165850300Y-95328691D01*
X165850300Y-94615000D01*
X165792448Y-94324161D01*
X165627701Y-94077599D01*
X165381139Y-93912852D01*
X165243146Y-93885403D01*
X165229090Y-93863559D01*
X165016890Y-93718569D01*
X164765000Y-93667560D01*
X163215000Y-93667560D01*
X162979683Y-93711838D01*
X162763559Y-93850910D01*
X162618569Y-94063110D01*
X162567560Y-94315000D01*
X162567560Y-94915000D01*
X162611838Y-95150317D01*
X162670178Y-95240980D01*
X162580000Y-95458690D01*
X162580000Y-95599250D01*
X162738750Y-95758000D01*
X163863000Y-95758000D01*
X163863000Y-95738000D01*
X164117000Y-95738000D01*
X164117000Y-95758000D01*
X164137000Y-95758000D01*
X164137000Y-96012000D01*
X164117000Y-96012000D01*
X164117000Y-96032000D01*
X163863000Y-96032000D01*
X163863000Y-96012000D01*
X162738750Y-96012000D01*
X162580000Y-96170750D01*
X162580000Y-96311310D01*
X162635602Y-96445544D01*
X162598861Y-96452852D01*
X162352299Y-96617599D01*
X162187552Y-96864161D01*
X162129700Y-97155000D01*
X162129700Y-99591998D01*
X162022801Y-99485099D01*
X161776239Y-99320352D01*
X161485400Y-99262500D01*
X159702359Y-99262500D01*
X159816441Y-99189090D01*
X159839516Y-99155319D01*
X159981139Y-99127148D01*
X160227701Y-98962401D01*
X160392448Y-98715839D01*
X160450300Y-98425000D01*
X160450300Y-96199802D01*
X161827401Y-94822701D01*
X161992148Y-94576140D01*
X162009680Y-94488000D01*
X162050000Y-94285300D01*
X162050000Y-92787600D01*
X162067100Y-92787600D01*
X162357939Y-92729748D01*
X162604501Y-92565001D01*
X162728039Y-92441463D01*
X162779946Y-92519147D01*
X163261715Y-92841054D01*
X163830000Y-92954093D01*
X164398285Y-92841054D01*
X164880054Y-92519147D01*
X165107702Y-92178447D01*
X165174817Y-92321358D01*
X165603076Y-92711645D01*
X166013110Y-92881476D01*
X166243000Y-92760155D01*
X166243000Y-91567000D01*
X166497000Y-91567000D01*
X166497000Y-92760155D01*
X166726890Y-92881476D01*
X167136924Y-92711645D01*
X167565183Y-92321358D01*
X167640000Y-92162046D01*
X167714817Y-92321358D01*
X168143076Y-92711645D01*
X168553110Y-92881476D01*
X168783000Y-92760155D01*
X168783000Y-91567000D01*
X166497000Y-91567000D01*
X166243000Y-91567000D01*
X166223000Y-91567000D01*
X166223000Y-91313000D01*
X166243000Y-91313000D01*
X166243000Y-91293000D01*
X166497000Y-91293000D01*
X166497000Y-91313000D01*
X166497000Y-91313000D01*
G37*
X166497000Y-91313000D02*
X168783000Y-91313000D01*
X168783000Y-91293000D01*
X169037000Y-91293000D01*
X169037000Y-91313000D01*
X169057000Y-91313000D01*
X169057000Y-91567000D01*
X169037000Y-91567000D01*
X169037000Y-92760155D01*
X169266890Y-92881476D01*
X169676924Y-92711645D01*
X169810453Y-92589955D01*
X171283799Y-94063301D01*
X171530360Y-94228048D01*
X171821200Y-94285900D01*
X174759198Y-94285900D01*
X175820391Y-95347093D01*
X175763457Y-95370617D01*
X175381957Y-95751452D01*
X175259955Y-96045264D01*
X175139383Y-95753457D01*
X174758548Y-95371957D01*
X174260709Y-95165236D01*
X173721656Y-95164765D01*
X173223457Y-95370617D01*
X173064888Y-95528910D01*
X173044501Y-95498399D01*
X172451901Y-94905799D01*
X172205339Y-94741052D01*
X171914500Y-94683200D01*
X170592100Y-94683200D01*
X170301261Y-94741052D01*
X170054699Y-94905799D01*
X168026934Y-96933564D01*
X168090000Y-96781309D01*
X168090000Y-96340750D01*
X167931250Y-96182000D01*
X167132000Y-96182000D01*
X167132000Y-96202000D01*
X166878000Y-96202000D01*
X166878000Y-96182000D01*
X166078750Y-96182000D01*
X165920000Y-96340750D01*
X165920000Y-96781309D01*
X166016673Y-97014698D01*
X166157910Y-97155936D01*
X166103559Y-97190910D01*
X165958569Y-97403110D01*
X165907560Y-97655000D01*
X165907560Y-98855000D01*
X165951838Y-99090317D01*
X166090910Y-99306441D01*
X166303110Y-99451431D01*
X166555000Y-99502440D01*
X167392758Y-99502440D01*
X167303499Y-99591699D01*
X167138752Y-99838261D01*
X167118005Y-99942560D01*
X166085000Y-99942560D01*
X165849683Y-99986838D01*
X165844132Y-99990410D01*
X165850300Y-99959400D01*
X165850300Y-95328691D01*
X165920000Y-95328691D01*
X165920000Y-95769250D01*
X166078750Y-95928000D01*
X166878000Y-95928000D01*
X166878000Y-94978750D01*
X167132000Y-94978750D01*
X167132000Y-95928000D01*
X167931250Y-95928000D01*
X168090000Y-95769250D01*
X168090000Y-95328691D01*
X167993327Y-95095302D01*
X167814699Y-94916673D01*
X167581310Y-94820000D01*
X167290750Y-94820000D01*
X167132000Y-94978750D01*
X166878000Y-94978750D01*
X166719250Y-94820000D01*
X166428690Y-94820000D01*
X166195301Y-94916673D01*
X166016673Y-95095302D01*
X165920000Y-95328691D01*
X165850300Y-95328691D01*
X165850300Y-94615000D01*
X165792448Y-94324161D01*
X165627701Y-94077599D01*
X165381139Y-93912852D01*
X165243146Y-93885403D01*
X165229090Y-93863559D01*
X165016890Y-93718569D01*
X164765000Y-93667560D01*
X163215000Y-93667560D01*
X162979683Y-93711838D01*
X162763559Y-93850910D01*
X162618569Y-94063110D01*
X162567560Y-94315000D01*
X162567560Y-94915000D01*
X162611838Y-95150317D01*
X162670178Y-95240980D01*
X162580000Y-95458690D01*
X162580000Y-95599250D01*
X162738750Y-95758000D01*
X163863000Y-95758000D01*
X163863000Y-95738000D01*
X164117000Y-95738000D01*
X164117000Y-95758000D01*
X164137000Y-95758000D01*
X164137000Y-96012000D01*
X164117000Y-96012000D01*
X164117000Y-96032000D01*
X163863000Y-96032000D01*
X163863000Y-96012000D01*
X162738750Y-96012000D01*
X162580000Y-96170750D01*
X162580000Y-96311310D01*
X162635602Y-96445544D01*
X162598861Y-96452852D01*
X162352299Y-96617599D01*
X162187552Y-96864161D01*
X162129700Y-97155000D01*
X162129700Y-99591998D01*
X162022801Y-99485099D01*
X161776239Y-99320352D01*
X161485400Y-99262500D01*
X159702359Y-99262500D01*
X159816441Y-99189090D01*
X159839516Y-99155319D01*
X159981139Y-99127148D01*
X160227701Y-98962401D01*
X160392448Y-98715839D01*
X160450300Y-98425000D01*
X160450300Y-96199802D01*
X161827401Y-94822701D01*
X161992148Y-94576140D01*
X162009680Y-94488000D01*
X162050000Y-94285300D01*
X162050000Y-92787600D01*
X162067100Y-92787600D01*
X162357939Y-92729748D01*
X162604501Y-92565001D01*
X162728039Y-92441463D01*
X162779946Y-92519147D01*
X163261715Y-92841054D01*
X163830000Y-92954093D01*
X164398285Y-92841054D01*
X164880054Y-92519147D01*
X165107702Y-92178447D01*
X165174817Y-92321358D01*
X165603076Y-92711645D01*
X166013110Y-92881476D01*
X166243000Y-92760155D01*
X166243000Y-91567000D01*
X166497000Y-91567000D01*
X166497000Y-92760155D01*
X166726890Y-92881476D01*
X167136924Y-92711645D01*
X167565183Y-92321358D01*
X167640000Y-92162046D01*
X167714817Y-92321358D01*
X168143076Y-92711645D01*
X168553110Y-92881476D01*
X168783000Y-92760155D01*
X168783000Y-91567000D01*
X166497000Y-91567000D01*
X166243000Y-91567000D01*
X166223000Y-91567000D01*
X166223000Y-91313000D01*
X166243000Y-91313000D01*
X166243000Y-91293000D01*
X166497000Y-91293000D01*
X166497000Y-91313000D01*
M02*
