G04 #@! TF.FileFunction,Copper,L2,Bot,Signal*
%FSLAX46Y46*%
G04 Gerber Fmt 4.6, Leading zero omitted, Abs format (unit mm)*
G04 Created by KiCad (PCBNEW 4.0.7-e2-6376~58~ubuntu17.04.1) date Wed Oct  4 03:32:47 2017*
%MOMM*%
%LPD*%
G01*
G04 APERTURE LIST*
%ADD10C,0.100000*%
%ADD11C,1.600000*%
%ADD12R,1.700000X1.700000*%
%ADD13O,1.700000X1.700000*%
%ADD14C,1.440000*%
%ADD15C,0.600000*%
%ADD16C,0.250000*%
%ADD17C,0.254000*%
G04 APERTURE END LIST*
D10*
D11*
X165100000Y-108585000D03*
X165100000Y-111125000D03*
D12*
X158750000Y-120650000D03*
D13*
X161290000Y-120650000D03*
X163830000Y-120650000D03*
X166370000Y-120650000D03*
X168910000Y-120650000D03*
X171450000Y-120650000D03*
X173990000Y-120650000D03*
X176530000Y-120650000D03*
D12*
X158750000Y-91440000D03*
D13*
X161290000Y-91440000D03*
X163830000Y-91440000D03*
X166370000Y-91440000D03*
X168910000Y-91440000D03*
X171450000Y-91440000D03*
X173990000Y-91440000D03*
X176530000Y-91440000D03*
D14*
X176530000Y-96520000D03*
X173990000Y-96520000D03*
X171450000Y-96520000D03*
D15*
X159727300Y-114864400D03*
X153295400Y-112404700D03*
X150308200Y-95985100D03*
X155844300Y-109904800D03*
X154799700Y-97872500D03*
X157780600Y-117551600D03*
X151431200Y-92307700D03*
D16*
X173990000Y-120650000D02*
X172814700Y-120650000D01*
X164337600Y-119474700D02*
X159727300Y-114864400D01*
X172006800Y-119474700D02*
X164337600Y-119474700D01*
X172814700Y-120282600D02*
X172006800Y-119474700D01*
X172814700Y-120650000D02*
X172814700Y-120282600D01*
X168910000Y-91440000D02*
X166370000Y-91440000D01*
X161016900Y-95985100D02*
X150308200Y-95985100D01*
X165194700Y-91807300D02*
X161016900Y-95985100D01*
X165194700Y-91440000D02*
X165194700Y-91807300D01*
X166370000Y-91440000D02*
X165194700Y-91440000D01*
X165446000Y-112404700D02*
X153295400Y-112404700D01*
X166236100Y-111614600D02*
X165446000Y-112404700D01*
X166236100Y-109721100D02*
X166236100Y-111614600D01*
X165100000Y-108585000D02*
X166236100Y-109721100D01*
X160605200Y-109904800D02*
X155844300Y-109904800D01*
X173990000Y-96520000D02*
X160605200Y-109904800D01*
X156180200Y-111125000D02*
X165100000Y-111125000D01*
X154799700Y-109744500D02*
X156180200Y-111125000D01*
X154799700Y-97872500D02*
X154799700Y-109744500D01*
X157547800Y-117551600D02*
X157780600Y-117551600D01*
X149682900Y-109686700D02*
X157547800Y-117551600D01*
X149682900Y-94056000D02*
X149682900Y-109686700D01*
X151431200Y-92307700D02*
X149682900Y-94056000D01*
D17*
G36*
X177750000Y-90615196D02*
X177580054Y-90360853D01*
X177098285Y-90038946D01*
X176530000Y-89925907D01*
X175961715Y-90038946D01*
X175479946Y-90360853D01*
X175260000Y-90690026D01*
X175040054Y-90360853D01*
X174558285Y-90038946D01*
X173990000Y-89925907D01*
X173421715Y-90038946D01*
X172939946Y-90360853D01*
X172720000Y-90690026D01*
X172500054Y-90360853D01*
X172018285Y-90038946D01*
X171450000Y-89925907D01*
X170881715Y-90038946D01*
X170399946Y-90360853D01*
X170172298Y-90701553D01*
X170105183Y-90558642D01*
X169676924Y-90168355D01*
X169266890Y-89998524D01*
X169037000Y-90119845D01*
X169037000Y-91313000D01*
X169057000Y-91313000D01*
X169057000Y-91567000D01*
X169037000Y-91567000D01*
X169037000Y-92760155D01*
X169266890Y-92881476D01*
X169676924Y-92711645D01*
X170105183Y-92321358D01*
X170172298Y-92178447D01*
X170399946Y-92519147D01*
X170881715Y-92841054D01*
X171450000Y-92954093D01*
X172018285Y-92841054D01*
X172500054Y-92519147D01*
X172720000Y-92189974D01*
X172939946Y-92519147D01*
X173421715Y-92841054D01*
X173990000Y-92954093D01*
X174558285Y-92841054D01*
X175040054Y-92519147D01*
X175260000Y-92189974D01*
X175479946Y-92519147D01*
X175961715Y-92841054D01*
X176530000Y-92954093D01*
X177098285Y-92841054D01*
X177580054Y-92519147D01*
X177750000Y-92264804D01*
X177750000Y-95924363D01*
X177679383Y-95753457D01*
X177298548Y-95371957D01*
X176800709Y-95165236D01*
X176261656Y-95164765D01*
X175763457Y-95370617D01*
X175381957Y-95751452D01*
X175259955Y-96045264D01*
X175139383Y-95753457D01*
X174758548Y-95371957D01*
X174260709Y-95165236D01*
X173721656Y-95164765D01*
X173223457Y-95370617D01*
X172841957Y-95751452D01*
X172719955Y-96045264D01*
X172599383Y-95753457D01*
X172218548Y-95371957D01*
X171720709Y-95165236D01*
X171181656Y-95164765D01*
X170683457Y-95370617D01*
X170301957Y-95751452D01*
X170095236Y-96249291D01*
X170094765Y-96788344D01*
X170300617Y-97286543D01*
X170681452Y-97668043D01*
X171179291Y-97874764D01*
X171560101Y-97875097D01*
X160290398Y-109144800D01*
X156406763Y-109144800D01*
X156374627Y-109112608D01*
X156031099Y-108969962D01*
X155659133Y-108969638D01*
X155559700Y-109010723D01*
X155559700Y-98434963D01*
X155591892Y-98402827D01*
X155734538Y-98059299D01*
X155734862Y-97687333D01*
X155592817Y-97343557D01*
X155330027Y-97080308D01*
X154986499Y-96937662D01*
X154614533Y-96937338D01*
X154270757Y-97079383D01*
X154007508Y-97342173D01*
X153864862Y-97685701D01*
X153864538Y-98057667D01*
X154006583Y-98401443D01*
X154039700Y-98434618D01*
X154039700Y-109744500D01*
X154097552Y-110035339D01*
X154262299Y-110281901D01*
X155642799Y-111662401D01*
X155889361Y-111827148D01*
X156180200Y-111885000D01*
X163861354Y-111885000D01*
X163882757Y-111936800D01*
X164286077Y-112340824D01*
X164813309Y-112559750D01*
X165384187Y-112560248D01*
X165911800Y-112342243D01*
X166315824Y-111938923D01*
X166534750Y-111411691D01*
X166535248Y-110840813D01*
X166317243Y-110313200D01*
X165913923Y-109909176D01*
X165799232Y-109861552D01*
X165854005Y-109838864D01*
X165928139Y-109592745D01*
X165100000Y-108764605D01*
X164271861Y-109592745D01*
X164345995Y-109838864D01*
X164404254Y-109859805D01*
X164288200Y-109907757D01*
X163884176Y-110311077D01*
X163861785Y-110365000D01*
X161219802Y-110365000D01*
X163216579Y-108368223D01*
X163653035Y-108368223D01*
X163680222Y-108938454D01*
X163846136Y-109339005D01*
X164092255Y-109413139D01*
X164920395Y-108585000D01*
X165279605Y-108585000D01*
X166107745Y-109413139D01*
X166353864Y-109339005D01*
X166546965Y-108801777D01*
X166519778Y-108231546D01*
X166353864Y-107830995D01*
X166107745Y-107756861D01*
X165279605Y-108585000D01*
X164920395Y-108585000D01*
X164092255Y-107756861D01*
X163846136Y-107830995D01*
X163653035Y-108368223D01*
X163216579Y-108368223D01*
X164007547Y-107577255D01*
X164271861Y-107577255D01*
X165100000Y-108405395D01*
X165928139Y-107577255D01*
X165854005Y-107331136D01*
X165316777Y-107138035D01*
X164746546Y-107165222D01*
X164345995Y-107331136D01*
X164271861Y-107577255D01*
X164007547Y-107577255D01*
X165207095Y-106377707D01*
X168499709Y-106377707D01*
X168754935Y-106995400D01*
X169227114Y-107468404D01*
X169844361Y-107724708D01*
X170512707Y-107725291D01*
X171130400Y-107470065D01*
X171603404Y-106997886D01*
X171859708Y-106380639D01*
X171860291Y-105712293D01*
X171605065Y-105094600D01*
X171132886Y-104621596D01*
X170515639Y-104365292D01*
X169847293Y-104364709D01*
X169229600Y-104619935D01*
X168756596Y-105092114D01*
X168500292Y-105709361D01*
X168499709Y-106377707D01*
X165207095Y-106377707D01*
X173712753Y-97872049D01*
X173719291Y-97874764D01*
X174258344Y-97875235D01*
X174756543Y-97669383D01*
X175138043Y-97288548D01*
X175260045Y-96994736D01*
X175380617Y-97286543D01*
X175761452Y-97668043D01*
X176259291Y-97874764D01*
X176798344Y-97875235D01*
X177296543Y-97669383D01*
X177678043Y-97288548D01*
X177750000Y-97115256D01*
X177750000Y-119825196D01*
X177580054Y-119570853D01*
X177098285Y-119248946D01*
X176530000Y-119135907D01*
X175961715Y-119248946D01*
X175479946Y-119570853D01*
X175260000Y-119900026D01*
X175040054Y-119570853D01*
X174558285Y-119248946D01*
X173990000Y-119135907D01*
X173421715Y-119248946D01*
X173082502Y-119475600D01*
X172544201Y-118937299D01*
X172297639Y-118772552D01*
X172006800Y-118714700D01*
X164652402Y-118714700D01*
X162475409Y-116537707D01*
X168499709Y-116537707D01*
X168754935Y-117155400D01*
X169227114Y-117628404D01*
X169844361Y-117884708D01*
X170512707Y-117885291D01*
X171130400Y-117630065D01*
X171603404Y-117157886D01*
X171859708Y-116540639D01*
X171860291Y-115872293D01*
X171605065Y-115254600D01*
X171132886Y-114781596D01*
X170515639Y-114525292D01*
X169847293Y-114524709D01*
X169229600Y-114779935D01*
X168756596Y-115252114D01*
X168500292Y-115869361D01*
X168499709Y-116537707D01*
X162475409Y-116537707D01*
X160662422Y-114724720D01*
X160662462Y-114679233D01*
X160520417Y-114335457D01*
X160257627Y-114072208D01*
X159914099Y-113929562D01*
X159542133Y-113929238D01*
X159198357Y-114071283D01*
X158935108Y-114334073D01*
X158792462Y-114677601D01*
X158792138Y-115049567D01*
X158934183Y-115393343D01*
X159196973Y-115656592D01*
X159540501Y-115799238D01*
X159587377Y-115799279D01*
X163127034Y-119338936D01*
X162779946Y-119570853D01*
X162560000Y-119900026D01*
X162340054Y-119570853D01*
X161858285Y-119248946D01*
X161290000Y-119135907D01*
X160721715Y-119248946D01*
X160239946Y-119570853D01*
X160212150Y-119612452D01*
X160203162Y-119564683D01*
X160064090Y-119348559D01*
X159851890Y-119203569D01*
X159600000Y-119152560D01*
X157900000Y-119152560D01*
X157664683Y-119196838D01*
X157448559Y-119335910D01*
X157303569Y-119548110D01*
X157252560Y-119800000D01*
X157252560Y-121500000D01*
X157296838Y-121735317D01*
X157435910Y-121951441D01*
X157648110Y-122096431D01*
X157900000Y-122147440D01*
X159600000Y-122147440D01*
X159835317Y-122103162D01*
X160051441Y-121964090D01*
X160196431Y-121751890D01*
X160210086Y-121684459D01*
X160239946Y-121729147D01*
X160721715Y-122051054D01*
X161290000Y-122164093D01*
X161858285Y-122051054D01*
X162340054Y-121729147D01*
X162560000Y-121399974D01*
X162779946Y-121729147D01*
X163261715Y-122051054D01*
X163830000Y-122164093D01*
X164398285Y-122051054D01*
X164880054Y-121729147D01*
X165100000Y-121399974D01*
X165319946Y-121729147D01*
X165801715Y-122051054D01*
X166370000Y-122164093D01*
X166938285Y-122051054D01*
X167420054Y-121729147D01*
X167640000Y-121399974D01*
X167859946Y-121729147D01*
X168341715Y-122051054D01*
X168910000Y-122164093D01*
X169478285Y-122051054D01*
X169960054Y-121729147D01*
X170180000Y-121399974D01*
X170399946Y-121729147D01*
X170881715Y-122051054D01*
X171450000Y-122164093D01*
X172018285Y-122051054D01*
X172500054Y-121729147D01*
X172720000Y-121399974D01*
X172939946Y-121729147D01*
X173421715Y-122051054D01*
X173990000Y-122164093D01*
X174558285Y-122051054D01*
X175040054Y-121729147D01*
X175260000Y-121399974D01*
X175479946Y-121729147D01*
X175961715Y-122051054D01*
X176530000Y-122164093D01*
X177098285Y-122051054D01*
X177580054Y-121729147D01*
X177750000Y-121474804D01*
X177750000Y-122505000D01*
X150778736Y-122505000D01*
X148640000Y-120366264D01*
X148640000Y-94056000D01*
X148922900Y-94056000D01*
X148922900Y-109686700D01*
X148980752Y-109977539D01*
X149145499Y-110224101D01*
X156977303Y-118055905D01*
X156987483Y-118080543D01*
X157250273Y-118343792D01*
X157593801Y-118486438D01*
X157965767Y-118486762D01*
X158309543Y-118344717D01*
X158572792Y-118081927D01*
X158715438Y-117738399D01*
X158715762Y-117366433D01*
X158573717Y-117022657D01*
X158310927Y-116759408D01*
X157967399Y-116616762D01*
X157687520Y-116616518D01*
X150442900Y-109371898D01*
X150442900Y-94370802D01*
X151570880Y-93242822D01*
X151616367Y-93242862D01*
X151960143Y-93100817D01*
X152223392Y-92838027D01*
X152366038Y-92494499D01*
X152366362Y-92122533D01*
X152224317Y-91778757D01*
X151961527Y-91515508D01*
X151617999Y-91372862D01*
X151246033Y-91372538D01*
X150902257Y-91514583D01*
X150639008Y-91777373D01*
X150496362Y-92120901D01*
X150496321Y-92167777D01*
X149145499Y-93518599D01*
X148980752Y-93765161D01*
X148922900Y-94056000D01*
X148640000Y-94056000D01*
X148640000Y-91723736D01*
X149773736Y-90590000D01*
X157252560Y-90590000D01*
X157252560Y-92290000D01*
X157296838Y-92525317D01*
X157435910Y-92741441D01*
X157648110Y-92886431D01*
X157900000Y-92937440D01*
X159600000Y-92937440D01*
X159835317Y-92893162D01*
X160051441Y-92754090D01*
X160196431Y-92541890D01*
X160210086Y-92474459D01*
X160239946Y-92519147D01*
X160721715Y-92841054D01*
X161290000Y-92954093D01*
X161858285Y-92841054D01*
X162340054Y-92519147D01*
X162560000Y-92189974D01*
X162779946Y-92519147D01*
X163261715Y-92841054D01*
X163830000Y-92954093D01*
X164398285Y-92841054D01*
X164880054Y-92519147D01*
X165107702Y-92178447D01*
X165174817Y-92321358D01*
X165603076Y-92711645D01*
X166013110Y-92881476D01*
X166243000Y-92760155D01*
X166243000Y-91567000D01*
X166497000Y-91567000D01*
X166497000Y-92760155D01*
X166726890Y-92881476D01*
X167136924Y-92711645D01*
X167565183Y-92321358D01*
X167640000Y-92162046D01*
X167714817Y-92321358D01*
X168143076Y-92711645D01*
X168553110Y-92881476D01*
X168783000Y-92760155D01*
X168783000Y-91567000D01*
X166497000Y-91567000D01*
X166243000Y-91567000D01*
X166223000Y-91567000D01*
X166223000Y-91313000D01*
X166243000Y-91313000D01*
X166243000Y-90119845D01*
X166497000Y-90119845D01*
X166497000Y-91313000D01*
X168783000Y-91313000D01*
X168783000Y-90119845D01*
X168553110Y-89998524D01*
X168143076Y-90168355D01*
X167714817Y-90558642D01*
X167640000Y-90717954D01*
X167565183Y-90558642D01*
X167136924Y-90168355D01*
X166726890Y-89998524D01*
X166497000Y-90119845D01*
X166243000Y-90119845D01*
X166013110Y-89998524D01*
X165603076Y-90168355D01*
X165174817Y-90558642D01*
X165107702Y-90701553D01*
X164880054Y-90360853D01*
X164398285Y-90038946D01*
X163830000Y-89925907D01*
X163261715Y-90038946D01*
X162779946Y-90360853D01*
X162560000Y-90690026D01*
X162340054Y-90360853D01*
X161858285Y-90038946D01*
X161290000Y-89925907D01*
X160721715Y-90038946D01*
X160239946Y-90360853D01*
X160212150Y-90402452D01*
X160203162Y-90354683D01*
X160064090Y-90138559D01*
X159851890Y-89993569D01*
X159600000Y-89942560D01*
X157900000Y-89942560D01*
X157664683Y-89986838D01*
X157448559Y-90125910D01*
X157303569Y-90338110D01*
X157252560Y-90590000D01*
X149773736Y-90590000D01*
X150778736Y-89585000D01*
X177750000Y-89585000D01*
X177750000Y-90615196D01*
X177750000Y-90615196D01*
G37*
X177750000Y-90615196D02*
X177580054Y-90360853D01*
X177098285Y-90038946D01*
X176530000Y-89925907D01*
X175961715Y-90038946D01*
X175479946Y-90360853D01*
X175260000Y-90690026D01*
X175040054Y-90360853D01*
X174558285Y-90038946D01*
X173990000Y-89925907D01*
X173421715Y-90038946D01*
X172939946Y-90360853D01*
X172720000Y-90690026D01*
X172500054Y-90360853D01*
X172018285Y-90038946D01*
X171450000Y-89925907D01*
X170881715Y-90038946D01*
X170399946Y-90360853D01*
X170172298Y-90701553D01*
X170105183Y-90558642D01*
X169676924Y-90168355D01*
X169266890Y-89998524D01*
X169037000Y-90119845D01*
X169037000Y-91313000D01*
X169057000Y-91313000D01*
X169057000Y-91567000D01*
X169037000Y-91567000D01*
X169037000Y-92760155D01*
X169266890Y-92881476D01*
X169676924Y-92711645D01*
X170105183Y-92321358D01*
X170172298Y-92178447D01*
X170399946Y-92519147D01*
X170881715Y-92841054D01*
X171450000Y-92954093D01*
X172018285Y-92841054D01*
X172500054Y-92519147D01*
X172720000Y-92189974D01*
X172939946Y-92519147D01*
X173421715Y-92841054D01*
X173990000Y-92954093D01*
X174558285Y-92841054D01*
X175040054Y-92519147D01*
X175260000Y-92189974D01*
X175479946Y-92519147D01*
X175961715Y-92841054D01*
X176530000Y-92954093D01*
X177098285Y-92841054D01*
X177580054Y-92519147D01*
X177750000Y-92264804D01*
X177750000Y-95924363D01*
X177679383Y-95753457D01*
X177298548Y-95371957D01*
X176800709Y-95165236D01*
X176261656Y-95164765D01*
X175763457Y-95370617D01*
X175381957Y-95751452D01*
X175259955Y-96045264D01*
X175139383Y-95753457D01*
X174758548Y-95371957D01*
X174260709Y-95165236D01*
X173721656Y-95164765D01*
X173223457Y-95370617D01*
X172841957Y-95751452D01*
X172719955Y-96045264D01*
X172599383Y-95753457D01*
X172218548Y-95371957D01*
X171720709Y-95165236D01*
X171181656Y-95164765D01*
X170683457Y-95370617D01*
X170301957Y-95751452D01*
X170095236Y-96249291D01*
X170094765Y-96788344D01*
X170300617Y-97286543D01*
X170681452Y-97668043D01*
X171179291Y-97874764D01*
X171560101Y-97875097D01*
X160290398Y-109144800D01*
X156406763Y-109144800D01*
X156374627Y-109112608D01*
X156031099Y-108969962D01*
X155659133Y-108969638D01*
X155559700Y-109010723D01*
X155559700Y-98434963D01*
X155591892Y-98402827D01*
X155734538Y-98059299D01*
X155734862Y-97687333D01*
X155592817Y-97343557D01*
X155330027Y-97080308D01*
X154986499Y-96937662D01*
X154614533Y-96937338D01*
X154270757Y-97079383D01*
X154007508Y-97342173D01*
X153864862Y-97685701D01*
X153864538Y-98057667D01*
X154006583Y-98401443D01*
X154039700Y-98434618D01*
X154039700Y-109744500D01*
X154097552Y-110035339D01*
X154262299Y-110281901D01*
X155642799Y-111662401D01*
X155889361Y-111827148D01*
X156180200Y-111885000D01*
X163861354Y-111885000D01*
X163882757Y-111936800D01*
X164286077Y-112340824D01*
X164813309Y-112559750D01*
X165384187Y-112560248D01*
X165911800Y-112342243D01*
X166315824Y-111938923D01*
X166534750Y-111411691D01*
X166535248Y-110840813D01*
X166317243Y-110313200D01*
X165913923Y-109909176D01*
X165799232Y-109861552D01*
X165854005Y-109838864D01*
X165928139Y-109592745D01*
X165100000Y-108764605D01*
X164271861Y-109592745D01*
X164345995Y-109838864D01*
X164404254Y-109859805D01*
X164288200Y-109907757D01*
X163884176Y-110311077D01*
X163861785Y-110365000D01*
X161219802Y-110365000D01*
X163216579Y-108368223D01*
X163653035Y-108368223D01*
X163680222Y-108938454D01*
X163846136Y-109339005D01*
X164092255Y-109413139D01*
X164920395Y-108585000D01*
X165279605Y-108585000D01*
X166107745Y-109413139D01*
X166353864Y-109339005D01*
X166546965Y-108801777D01*
X166519778Y-108231546D01*
X166353864Y-107830995D01*
X166107745Y-107756861D01*
X165279605Y-108585000D01*
X164920395Y-108585000D01*
X164092255Y-107756861D01*
X163846136Y-107830995D01*
X163653035Y-108368223D01*
X163216579Y-108368223D01*
X164007547Y-107577255D01*
X164271861Y-107577255D01*
X165100000Y-108405395D01*
X165928139Y-107577255D01*
X165854005Y-107331136D01*
X165316777Y-107138035D01*
X164746546Y-107165222D01*
X164345995Y-107331136D01*
X164271861Y-107577255D01*
X164007547Y-107577255D01*
X165207095Y-106377707D01*
X168499709Y-106377707D01*
X168754935Y-106995400D01*
X169227114Y-107468404D01*
X169844361Y-107724708D01*
X170512707Y-107725291D01*
X171130400Y-107470065D01*
X171603404Y-106997886D01*
X171859708Y-106380639D01*
X171860291Y-105712293D01*
X171605065Y-105094600D01*
X171132886Y-104621596D01*
X170515639Y-104365292D01*
X169847293Y-104364709D01*
X169229600Y-104619935D01*
X168756596Y-105092114D01*
X168500292Y-105709361D01*
X168499709Y-106377707D01*
X165207095Y-106377707D01*
X173712753Y-97872049D01*
X173719291Y-97874764D01*
X174258344Y-97875235D01*
X174756543Y-97669383D01*
X175138043Y-97288548D01*
X175260045Y-96994736D01*
X175380617Y-97286543D01*
X175761452Y-97668043D01*
X176259291Y-97874764D01*
X176798344Y-97875235D01*
X177296543Y-97669383D01*
X177678043Y-97288548D01*
X177750000Y-97115256D01*
X177750000Y-119825196D01*
X177580054Y-119570853D01*
X177098285Y-119248946D01*
X176530000Y-119135907D01*
X175961715Y-119248946D01*
X175479946Y-119570853D01*
X175260000Y-119900026D01*
X175040054Y-119570853D01*
X174558285Y-119248946D01*
X173990000Y-119135907D01*
X173421715Y-119248946D01*
X173082502Y-119475600D01*
X172544201Y-118937299D01*
X172297639Y-118772552D01*
X172006800Y-118714700D01*
X164652402Y-118714700D01*
X162475409Y-116537707D01*
X168499709Y-116537707D01*
X168754935Y-117155400D01*
X169227114Y-117628404D01*
X169844361Y-117884708D01*
X170512707Y-117885291D01*
X171130400Y-117630065D01*
X171603404Y-117157886D01*
X171859708Y-116540639D01*
X171860291Y-115872293D01*
X171605065Y-115254600D01*
X171132886Y-114781596D01*
X170515639Y-114525292D01*
X169847293Y-114524709D01*
X169229600Y-114779935D01*
X168756596Y-115252114D01*
X168500292Y-115869361D01*
X168499709Y-116537707D01*
X162475409Y-116537707D01*
X160662422Y-114724720D01*
X160662462Y-114679233D01*
X160520417Y-114335457D01*
X160257627Y-114072208D01*
X159914099Y-113929562D01*
X159542133Y-113929238D01*
X159198357Y-114071283D01*
X158935108Y-114334073D01*
X158792462Y-114677601D01*
X158792138Y-115049567D01*
X158934183Y-115393343D01*
X159196973Y-115656592D01*
X159540501Y-115799238D01*
X159587377Y-115799279D01*
X163127034Y-119338936D01*
X162779946Y-119570853D01*
X162560000Y-119900026D01*
X162340054Y-119570853D01*
X161858285Y-119248946D01*
X161290000Y-119135907D01*
X160721715Y-119248946D01*
X160239946Y-119570853D01*
X160212150Y-119612452D01*
X160203162Y-119564683D01*
X160064090Y-119348559D01*
X159851890Y-119203569D01*
X159600000Y-119152560D01*
X157900000Y-119152560D01*
X157664683Y-119196838D01*
X157448559Y-119335910D01*
X157303569Y-119548110D01*
X157252560Y-119800000D01*
X157252560Y-121500000D01*
X157296838Y-121735317D01*
X157435910Y-121951441D01*
X157648110Y-122096431D01*
X157900000Y-122147440D01*
X159600000Y-122147440D01*
X159835317Y-122103162D01*
X160051441Y-121964090D01*
X160196431Y-121751890D01*
X160210086Y-121684459D01*
X160239946Y-121729147D01*
X160721715Y-122051054D01*
X161290000Y-122164093D01*
X161858285Y-122051054D01*
X162340054Y-121729147D01*
X162560000Y-121399974D01*
X162779946Y-121729147D01*
X163261715Y-122051054D01*
X163830000Y-122164093D01*
X164398285Y-122051054D01*
X164880054Y-121729147D01*
X165100000Y-121399974D01*
X165319946Y-121729147D01*
X165801715Y-122051054D01*
X166370000Y-122164093D01*
X166938285Y-122051054D01*
X167420054Y-121729147D01*
X167640000Y-121399974D01*
X167859946Y-121729147D01*
X168341715Y-122051054D01*
X168910000Y-122164093D01*
X169478285Y-122051054D01*
X169960054Y-121729147D01*
X170180000Y-121399974D01*
X170399946Y-121729147D01*
X170881715Y-122051054D01*
X171450000Y-122164093D01*
X172018285Y-122051054D01*
X172500054Y-121729147D01*
X172720000Y-121399974D01*
X172939946Y-121729147D01*
X173421715Y-122051054D01*
X173990000Y-122164093D01*
X174558285Y-122051054D01*
X175040054Y-121729147D01*
X175260000Y-121399974D01*
X175479946Y-121729147D01*
X175961715Y-122051054D01*
X176530000Y-122164093D01*
X177098285Y-122051054D01*
X177580054Y-121729147D01*
X177750000Y-121474804D01*
X177750000Y-122505000D01*
X150778736Y-122505000D01*
X148640000Y-120366264D01*
X148640000Y-94056000D01*
X148922900Y-94056000D01*
X148922900Y-109686700D01*
X148980752Y-109977539D01*
X149145499Y-110224101D01*
X156977303Y-118055905D01*
X156987483Y-118080543D01*
X157250273Y-118343792D01*
X157593801Y-118486438D01*
X157965767Y-118486762D01*
X158309543Y-118344717D01*
X158572792Y-118081927D01*
X158715438Y-117738399D01*
X158715762Y-117366433D01*
X158573717Y-117022657D01*
X158310927Y-116759408D01*
X157967399Y-116616762D01*
X157687520Y-116616518D01*
X150442900Y-109371898D01*
X150442900Y-94370802D01*
X151570880Y-93242822D01*
X151616367Y-93242862D01*
X151960143Y-93100817D01*
X152223392Y-92838027D01*
X152366038Y-92494499D01*
X152366362Y-92122533D01*
X152224317Y-91778757D01*
X151961527Y-91515508D01*
X151617999Y-91372862D01*
X151246033Y-91372538D01*
X150902257Y-91514583D01*
X150639008Y-91777373D01*
X150496362Y-92120901D01*
X150496321Y-92167777D01*
X149145499Y-93518599D01*
X148980752Y-93765161D01*
X148922900Y-94056000D01*
X148640000Y-94056000D01*
X148640000Y-91723736D01*
X149773736Y-90590000D01*
X157252560Y-90590000D01*
X157252560Y-92290000D01*
X157296838Y-92525317D01*
X157435910Y-92741441D01*
X157648110Y-92886431D01*
X157900000Y-92937440D01*
X159600000Y-92937440D01*
X159835317Y-92893162D01*
X160051441Y-92754090D01*
X160196431Y-92541890D01*
X160210086Y-92474459D01*
X160239946Y-92519147D01*
X160721715Y-92841054D01*
X161290000Y-92954093D01*
X161858285Y-92841054D01*
X162340054Y-92519147D01*
X162560000Y-92189974D01*
X162779946Y-92519147D01*
X163261715Y-92841054D01*
X163830000Y-92954093D01*
X164398285Y-92841054D01*
X164880054Y-92519147D01*
X165107702Y-92178447D01*
X165174817Y-92321358D01*
X165603076Y-92711645D01*
X166013110Y-92881476D01*
X166243000Y-92760155D01*
X166243000Y-91567000D01*
X166497000Y-91567000D01*
X166497000Y-92760155D01*
X166726890Y-92881476D01*
X167136924Y-92711645D01*
X167565183Y-92321358D01*
X167640000Y-92162046D01*
X167714817Y-92321358D01*
X168143076Y-92711645D01*
X168553110Y-92881476D01*
X168783000Y-92760155D01*
X168783000Y-91567000D01*
X166497000Y-91567000D01*
X166243000Y-91567000D01*
X166223000Y-91567000D01*
X166223000Y-91313000D01*
X166243000Y-91313000D01*
X166243000Y-90119845D01*
X166497000Y-90119845D01*
X166497000Y-91313000D01*
X168783000Y-91313000D01*
X168783000Y-90119845D01*
X168553110Y-89998524D01*
X168143076Y-90168355D01*
X167714817Y-90558642D01*
X167640000Y-90717954D01*
X167565183Y-90558642D01*
X167136924Y-90168355D01*
X166726890Y-89998524D01*
X166497000Y-90119845D01*
X166243000Y-90119845D01*
X166013110Y-89998524D01*
X165603076Y-90168355D01*
X165174817Y-90558642D01*
X165107702Y-90701553D01*
X164880054Y-90360853D01*
X164398285Y-90038946D01*
X163830000Y-89925907D01*
X163261715Y-90038946D01*
X162779946Y-90360853D01*
X162560000Y-90690026D01*
X162340054Y-90360853D01*
X161858285Y-90038946D01*
X161290000Y-89925907D01*
X160721715Y-90038946D01*
X160239946Y-90360853D01*
X160212150Y-90402452D01*
X160203162Y-90354683D01*
X160064090Y-90138559D01*
X159851890Y-89993569D01*
X159600000Y-89942560D01*
X157900000Y-89942560D01*
X157664683Y-89986838D01*
X157448559Y-90125910D01*
X157303569Y-90338110D01*
X157252560Y-90590000D01*
X149773736Y-90590000D01*
X150778736Y-89585000D01*
X177750000Y-89585000D01*
X177750000Y-90615196D01*
M02*
