M48
INCH,TZ
T1C0.016
T2C0.039
%
G90
G05
T1
X66595Y-43872
X66624Y-48066
X67376Y-45803
X67834Y-44440
X68621Y-49074
X68861Y-46615
X69890Y-43860
X70000Y-46191
X70898Y-43829
X71960Y-46926
X73199Y-50500
T2
X66000Y-41750
X66000Y-53250
X67000Y-41750
X67000Y-53250
X68000Y-41750
X68000Y-53250
X69000Y-41750
X69000Y-53250
X70000Y-41750
X70000Y-53250
X71000Y-41750
X71000Y-53250
X72000Y-41750
X72000Y-53250
X73000Y-41750
X73000Y-53250
T0
M30
