G04 #@! TF.FileFunction,Legend,Bot*
%FSLAX46Y46*%
G04 Gerber Fmt 4.6, Leading zero omitted, Abs format (unit mm)*
G04 Created by KiCad (PCBNEW 4.0.7-e2-6376~58~ubuntu17.04.1) date Thu Oct  5 13:20:25 2017*
%MOMM*%
%LPD*%
G01*
G04 APERTURE LIST*
%ADD10C,0.100000*%
%ADD11C,0.120000*%
%ADD12C,0.010000*%
G04 APERTURE END LIST*
D10*
X175390000Y-118001668D02*
X175390000Y-118235001D01*
X175756667Y-118335001D02*
X175756667Y-118001668D01*
X175056667Y-118001668D01*
X175056667Y-118335001D01*
X175756667Y-118568334D02*
X175290000Y-118935001D01*
X175290000Y-118568334D02*
X175756667Y-118935001D01*
X175290000Y-119101668D02*
X175290000Y-119368334D01*
X175056667Y-119201668D02*
X175656667Y-119201668D01*
X175723333Y-119235001D01*
X175756667Y-119301668D01*
X175756667Y-119368334D01*
X175723333Y-119868334D02*
X175756667Y-119801668D01*
X175756667Y-119668334D01*
X175723333Y-119601668D01*
X175656667Y-119568334D01*
X175390000Y-119568334D01*
X175323333Y-119601668D01*
X175290000Y-119668334D01*
X175290000Y-119801668D01*
X175323333Y-119868334D01*
X175390000Y-119901668D01*
X175456667Y-119901668D01*
X175523333Y-119568334D01*
X175290000Y-120201668D02*
X175756667Y-120201668D01*
X175356667Y-120201668D02*
X175323333Y-120235001D01*
X175290000Y-120301668D01*
X175290000Y-120401668D01*
X175323333Y-120468334D01*
X175390000Y-120501668D01*
X175756667Y-120501668D01*
X175723333Y-120801667D02*
X175756667Y-120868334D01*
X175756667Y-121001667D01*
X175723333Y-121068334D01*
X175656667Y-121101667D01*
X175623333Y-121101667D01*
X175556667Y-121068334D01*
X175523333Y-121001667D01*
X175523333Y-120901667D01*
X175490000Y-120835001D01*
X175423333Y-120801667D01*
X175390000Y-120801667D01*
X175323333Y-120835001D01*
X175290000Y-120901667D01*
X175290000Y-121001667D01*
X175323333Y-121068334D01*
X175756667Y-121401668D02*
X175290000Y-121401668D01*
X175056667Y-121401668D02*
X175090000Y-121368334D01*
X175123333Y-121401668D01*
X175090000Y-121435001D01*
X175056667Y-121401668D01*
X175123333Y-121401668D01*
X175756667Y-121835001D02*
X175723333Y-121768334D01*
X175690000Y-121735001D01*
X175623333Y-121701667D01*
X175423333Y-121701667D01*
X175356667Y-121735001D01*
X175323333Y-121768334D01*
X175290000Y-121835001D01*
X175290000Y-121935001D01*
X175323333Y-122001667D01*
X175356667Y-122035001D01*
X175423333Y-122068334D01*
X175623333Y-122068334D01*
X175690000Y-122035001D01*
X175723333Y-122001667D01*
X175756667Y-121935001D01*
X175756667Y-121835001D01*
X175290000Y-122368334D02*
X175756667Y-122368334D01*
X175356667Y-122368334D02*
X175323333Y-122401667D01*
X175290000Y-122468334D01*
X175290000Y-122568334D01*
X175323333Y-122635000D01*
X175390000Y-122668334D01*
X175756667Y-122668334D01*
X175290000Y-123501666D02*
X175290000Y-124001666D01*
X174990000Y-123701666D02*
X175890000Y-123501666D01*
X175590000Y-123935000D02*
X175590000Y-123435000D01*
X175890000Y-123735000D02*
X174990000Y-123935000D01*
X175756667Y-124601666D02*
X175756667Y-124201666D01*
X175756667Y-124401666D02*
X175056667Y-124401666D01*
X175156667Y-124335000D01*
X175223333Y-124268333D01*
X175256667Y-124201666D01*
X176206667Y-119135000D02*
X176206667Y-119535000D01*
X176906667Y-119335000D02*
X176206667Y-119335000D01*
X176873333Y-119734999D02*
X176906667Y-119834999D01*
X176906667Y-120001666D01*
X176873333Y-120068333D01*
X176840000Y-120101666D01*
X176773333Y-120134999D01*
X176706667Y-120134999D01*
X176640000Y-120101666D01*
X176606667Y-120068333D01*
X176573333Y-120001666D01*
X176540000Y-119868333D01*
X176506667Y-119801666D01*
X176473333Y-119768333D01*
X176406667Y-119734999D01*
X176340000Y-119734999D01*
X176273333Y-119768333D01*
X176240000Y-119801666D01*
X176206667Y-119868333D01*
X176206667Y-120034999D01*
X176240000Y-120134999D01*
X176906667Y-120768333D02*
X176906667Y-120435000D01*
X176206667Y-120435000D01*
X176273333Y-120968333D02*
X176240000Y-121001667D01*
X176206667Y-121068333D01*
X176206667Y-121235000D01*
X176240000Y-121301667D01*
X176273333Y-121335000D01*
X176340000Y-121368333D01*
X176406667Y-121368333D01*
X176506667Y-121335000D01*
X176906667Y-120935000D01*
X176906667Y-121368333D01*
X176206667Y-122001667D02*
X176206667Y-121668334D01*
X176540000Y-121635000D01*
X176506667Y-121668334D01*
X176473333Y-121735000D01*
X176473333Y-121901667D01*
X176506667Y-121968334D01*
X176540000Y-122001667D01*
X176606667Y-122035000D01*
X176773333Y-122035000D01*
X176840000Y-122001667D01*
X176873333Y-121968334D01*
X176906667Y-121901667D01*
X176906667Y-121735000D01*
X176873333Y-121668334D01*
X176840000Y-121635000D01*
X176206667Y-122635001D02*
X176206667Y-122501667D01*
X176240000Y-122435001D01*
X176273333Y-122401667D01*
X176373333Y-122335001D01*
X176506667Y-122301667D01*
X176773333Y-122301667D01*
X176840000Y-122335001D01*
X176873333Y-122368334D01*
X176906667Y-122435001D01*
X176906667Y-122568334D01*
X176873333Y-122635001D01*
X176840000Y-122668334D01*
X176773333Y-122701667D01*
X176606667Y-122701667D01*
X176540000Y-122668334D01*
X176506667Y-122635001D01*
X176473333Y-122568334D01*
X176473333Y-122435001D01*
X176506667Y-122368334D01*
X176540000Y-122335001D01*
X176606667Y-122301667D01*
X176906667Y-123368334D02*
X176906667Y-122968334D01*
X176906667Y-123168334D02*
X176206667Y-123168334D01*
X176306667Y-123101668D01*
X176373333Y-123035001D01*
X176406667Y-122968334D01*
X177690000Y-119585000D02*
X177723333Y-119685000D01*
X177756667Y-119718333D01*
X177823333Y-119751667D01*
X177923333Y-119751667D01*
X177990000Y-119718333D01*
X178023333Y-119685000D01*
X178056667Y-119618333D01*
X178056667Y-119351667D01*
X177356667Y-119351667D01*
X177356667Y-119585000D01*
X177390000Y-119651667D01*
X177423333Y-119685000D01*
X177490000Y-119718333D01*
X177556667Y-119718333D01*
X177623333Y-119685000D01*
X177656667Y-119651667D01*
X177690000Y-119585000D01*
X177690000Y-119351667D01*
X178056667Y-120051667D02*
X177356667Y-120051667D01*
X177856667Y-120285000D01*
X177356667Y-120518333D01*
X178056667Y-120518333D01*
X178056667Y-120851667D02*
X177356667Y-120851667D01*
X177356667Y-121118333D01*
X177390000Y-121185000D01*
X177423333Y-121218333D01*
X177490000Y-121251667D01*
X177590000Y-121251667D01*
X177656667Y-121218333D01*
X177690000Y-121185000D01*
X177723333Y-121118333D01*
X177723333Y-120851667D01*
X178056667Y-121918333D02*
X178056667Y-121518333D01*
X178056667Y-121718333D02*
X177356667Y-121718333D01*
X177456667Y-121651667D01*
X177523333Y-121585000D01*
X177556667Y-121518333D01*
X177656667Y-122318334D02*
X177623333Y-122251667D01*
X177590000Y-122218334D01*
X177523333Y-122185000D01*
X177490000Y-122185000D01*
X177423333Y-122218334D01*
X177390000Y-122251667D01*
X177356667Y-122318334D01*
X177356667Y-122451667D01*
X177390000Y-122518334D01*
X177423333Y-122551667D01*
X177490000Y-122585000D01*
X177523333Y-122585000D01*
X177590000Y-122551667D01*
X177623333Y-122518334D01*
X177656667Y-122451667D01*
X177656667Y-122318334D01*
X177690000Y-122251667D01*
X177723333Y-122218334D01*
X177790000Y-122185000D01*
X177923333Y-122185000D01*
X177990000Y-122218334D01*
X178023333Y-122251667D01*
X178056667Y-122318334D01*
X178056667Y-122451667D01*
X178023333Y-122518334D01*
X177990000Y-122551667D01*
X177923333Y-122585000D01*
X177790000Y-122585000D01*
X177723333Y-122551667D01*
X177690000Y-122518334D01*
X177656667Y-122451667D01*
X177356667Y-123018334D02*
X177356667Y-123085001D01*
X177390000Y-123151667D01*
X177423333Y-123185001D01*
X177490000Y-123218334D01*
X177623333Y-123251667D01*
X177790000Y-123251667D01*
X177923333Y-123218334D01*
X177990000Y-123185001D01*
X178023333Y-123151667D01*
X178056667Y-123085001D01*
X178056667Y-123018334D01*
X178023333Y-122951667D01*
X177990000Y-122918334D01*
X177923333Y-122885001D01*
X177790000Y-122851667D01*
X177623333Y-122851667D01*
X177490000Y-122885001D01*
X177423333Y-122918334D01*
X177390000Y-122951667D01*
X177356667Y-123018334D01*
X179173333Y-119584999D02*
X179206667Y-119684999D01*
X179206667Y-119851666D01*
X179173333Y-119918333D01*
X179140000Y-119951666D01*
X179073333Y-119984999D01*
X179006667Y-119984999D01*
X178940000Y-119951666D01*
X178906667Y-119918333D01*
X178873333Y-119851666D01*
X178840000Y-119718333D01*
X178806667Y-119651666D01*
X178773333Y-119618333D01*
X178706667Y-119584999D01*
X178640000Y-119584999D01*
X178573333Y-119618333D01*
X178540000Y-119651666D01*
X178506667Y-119718333D01*
X178506667Y-119884999D01*
X178540000Y-119984999D01*
X179206667Y-120285000D02*
X178740000Y-120285000D01*
X178506667Y-120285000D02*
X178540000Y-120251666D01*
X178573333Y-120285000D01*
X178540000Y-120318333D01*
X178506667Y-120285000D01*
X178573333Y-120285000D01*
X178506667Y-120551666D02*
X178506667Y-121018333D01*
X179206667Y-120718333D01*
X178506667Y-121418333D02*
X178506667Y-121485000D01*
X178540000Y-121551666D01*
X178573333Y-121585000D01*
X178640000Y-121618333D01*
X178773333Y-121651666D01*
X178940000Y-121651666D01*
X179073333Y-121618333D01*
X179140000Y-121585000D01*
X179173333Y-121551666D01*
X179206667Y-121485000D01*
X179206667Y-121418333D01*
X179173333Y-121351666D01*
X179140000Y-121318333D01*
X179073333Y-121285000D01*
X178940000Y-121251666D01*
X178773333Y-121251666D01*
X178640000Y-121285000D01*
X178573333Y-121318333D01*
X178540000Y-121351666D01*
X178506667Y-121418333D01*
X178573333Y-121918333D02*
X178540000Y-121951667D01*
X178506667Y-122018333D01*
X178506667Y-122185000D01*
X178540000Y-122251667D01*
X178573333Y-122285000D01*
X178640000Y-122318333D01*
X178706667Y-122318333D01*
X178806667Y-122285000D01*
X179206667Y-121885000D01*
X179206667Y-122318333D01*
X179206667Y-122985000D02*
X179206667Y-122585000D01*
X179206667Y-122785000D02*
X178506667Y-122785000D01*
X178606667Y-122718334D01*
X178673333Y-122651667D01*
X178706667Y-122585000D01*
D11*
X168910000Y-134560000D02*
X186750000Y-134560000D01*
X186750000Y-134560000D02*
X186750000Y-137220000D01*
X186750000Y-137220000D02*
X168910000Y-137220000D01*
X168910000Y-137220000D02*
X168910000Y-134560000D01*
X167640000Y-134560000D02*
X166310000Y-134560000D01*
X166310000Y-134560000D02*
X166310000Y-135890000D01*
X168910000Y-104080000D02*
X186750000Y-104080000D01*
X186750000Y-104080000D02*
X186750000Y-106740000D01*
X186750000Y-106740000D02*
X168910000Y-106740000D01*
X168910000Y-106740000D02*
X168910000Y-104080000D01*
X167640000Y-104080000D02*
X166310000Y-104080000D01*
X166310000Y-104080000D02*
X166310000Y-105410000D01*
D12*
G36*
X169744184Y-109216241D02*
X169757282Y-109242753D01*
X169780106Y-109275447D01*
X169804996Y-109299275D01*
X169836249Y-109315594D01*
X169878166Y-109325760D01*
X169935044Y-109331128D01*
X170011184Y-109333056D01*
X170043917Y-109333169D01*
X170115656Y-109332839D01*
X170166927Y-109331473D01*
X170202404Y-109328500D01*
X170226763Y-109323351D01*
X170244680Y-109315457D01*
X170256902Y-109307243D01*
X170308905Y-109254813D01*
X170340184Y-109193070D01*
X170349592Y-109126464D01*
X170335980Y-109059442D01*
X170326354Y-109038208D01*
X170299859Y-108987376D01*
X170715052Y-108987376D01*
X170695868Y-109024475D01*
X170681025Y-109073357D01*
X170677222Y-109133439D01*
X170684243Y-109193436D01*
X170700013Y-109238744D01*
X170730047Y-109276325D01*
X170773024Y-109308436D01*
X170777436Y-109310850D01*
X170798221Y-109321033D01*
X170819170Y-109328470D01*
X170844548Y-109333589D01*
X170878618Y-109336819D01*
X170925641Y-109338587D01*
X170989882Y-109339323D01*
X171062176Y-109339456D01*
X171292822Y-109339456D01*
X171292822Y-109201139D01*
X170867533Y-109201139D01*
X170834979Y-109162451D01*
X170808940Y-109122262D01*
X170804205Y-109084203D01*
X170816389Y-109045934D01*
X170828320Y-109025538D01*
X170845313Y-109010358D01*
X170870995Y-108999562D01*
X170908991Y-108992317D01*
X170962926Y-108987792D01*
X171036425Y-108985156D01*
X171085347Y-108984228D01*
X171286535Y-108981089D01*
X171290336Y-108915074D01*
X171294136Y-108849060D01*
X170045650Y-108849060D01*
X170045650Y-108987376D01*
X170115254Y-108990903D01*
X170163569Y-109002785D01*
X170193631Y-109024980D01*
X170208471Y-109059441D01*
X170211436Y-109094258D01*
X170208028Y-109133671D01*
X170194617Y-109159829D01*
X170176896Y-109176186D01*
X170157835Y-109189063D01*
X170136601Y-109196728D01*
X170106849Y-109200139D01*
X170062236Y-109200251D01*
X170024880Y-109199103D01*
X169968604Y-109196468D01*
X169931658Y-109192544D01*
X169908223Y-109185937D01*
X169892480Y-109175251D01*
X169883380Y-109165167D01*
X169863537Y-109123030D01*
X169860332Y-109073160D01*
X169867168Y-109044524D01*
X169891464Y-109016172D01*
X169938728Y-108997391D01*
X170008624Y-108988288D01*
X170045650Y-108987376D01*
X170045650Y-108849060D01*
X169733614Y-108849060D01*
X169733614Y-108918218D01*
X169735256Y-108959740D01*
X169741087Y-108981162D01*
X169752461Y-108987374D01*
X169752798Y-108987376D01*
X169763938Y-108990258D01*
X169762673Y-109002970D01*
X169750433Y-109028243D01*
X169731707Y-109087131D01*
X169729739Y-109153385D01*
X169744184Y-109216241D01*
X169744184Y-109216241D01*
G37*
X169744184Y-109216241D02*
X169757282Y-109242753D01*
X169780106Y-109275447D01*
X169804996Y-109299275D01*
X169836249Y-109315594D01*
X169878166Y-109325760D01*
X169935044Y-109331128D01*
X170011184Y-109333056D01*
X170043917Y-109333169D01*
X170115656Y-109332839D01*
X170166927Y-109331473D01*
X170202404Y-109328500D01*
X170226763Y-109323351D01*
X170244680Y-109315457D01*
X170256902Y-109307243D01*
X170308905Y-109254813D01*
X170340184Y-109193070D01*
X170349592Y-109126464D01*
X170335980Y-109059442D01*
X170326354Y-109038208D01*
X170299859Y-108987376D01*
X170715052Y-108987376D01*
X170695868Y-109024475D01*
X170681025Y-109073357D01*
X170677222Y-109133439D01*
X170684243Y-109193436D01*
X170700013Y-109238744D01*
X170730047Y-109276325D01*
X170773024Y-109308436D01*
X170777436Y-109310850D01*
X170798221Y-109321033D01*
X170819170Y-109328470D01*
X170844548Y-109333589D01*
X170878618Y-109336819D01*
X170925641Y-109338587D01*
X170989882Y-109339323D01*
X171062176Y-109339456D01*
X171292822Y-109339456D01*
X171292822Y-109201139D01*
X170867533Y-109201139D01*
X170834979Y-109162451D01*
X170808940Y-109122262D01*
X170804205Y-109084203D01*
X170816389Y-109045934D01*
X170828320Y-109025538D01*
X170845313Y-109010358D01*
X170870995Y-108999562D01*
X170908991Y-108992317D01*
X170962926Y-108987792D01*
X171036425Y-108985156D01*
X171085347Y-108984228D01*
X171286535Y-108981089D01*
X171290336Y-108915074D01*
X171294136Y-108849060D01*
X170045650Y-108849060D01*
X170045650Y-108987376D01*
X170115254Y-108990903D01*
X170163569Y-109002785D01*
X170193631Y-109024980D01*
X170208471Y-109059441D01*
X170211436Y-109094258D01*
X170208028Y-109133671D01*
X170194617Y-109159829D01*
X170176896Y-109176186D01*
X170157835Y-109189063D01*
X170136601Y-109196728D01*
X170106849Y-109200139D01*
X170062236Y-109200251D01*
X170024880Y-109199103D01*
X169968604Y-109196468D01*
X169931658Y-109192544D01*
X169908223Y-109185937D01*
X169892480Y-109175251D01*
X169883380Y-109165167D01*
X169863537Y-109123030D01*
X169860332Y-109073160D01*
X169867168Y-109044524D01*
X169891464Y-109016172D01*
X169938728Y-108997391D01*
X170008624Y-108988288D01*
X170045650Y-108987376D01*
X170045650Y-108849060D01*
X169733614Y-108849060D01*
X169733614Y-108918218D01*
X169735256Y-108959740D01*
X169741087Y-108981162D01*
X169752461Y-108987374D01*
X169752798Y-108987376D01*
X169763938Y-108990258D01*
X169762673Y-109002970D01*
X169750433Y-109028243D01*
X169731707Y-109087131D01*
X169729739Y-109153385D01*
X169744184Y-109216241D01*
G36*
X170681555Y-109740790D02*
X170697339Y-109799945D01*
X170725948Y-109844977D01*
X170763419Y-109876754D01*
X170779411Y-109886634D01*
X170796163Y-109893927D01*
X170817592Y-109899026D01*
X170847616Y-109902321D01*
X170890154Y-109904203D01*
X170949122Y-109905063D01*
X171028440Y-109905293D01*
X171049484Y-109905297D01*
X171292822Y-109905297D01*
X171292822Y-109844941D01*
X171290126Y-109806443D01*
X171283295Y-109777977D01*
X171279083Y-109770845D01*
X171271813Y-109751348D01*
X171279083Y-109731434D01*
X171288160Y-109698647D01*
X171291813Y-109651022D01*
X171290228Y-109598236D01*
X171283589Y-109549964D01*
X171275072Y-109521782D01*
X171240063Y-109467247D01*
X171191479Y-109433165D01*
X171126882Y-109417843D01*
X171125223Y-109417701D01*
X171096566Y-109419045D01*
X171096566Y-109540644D01*
X171129161Y-109551274D01*
X171147505Y-109568590D01*
X171161379Y-109603348D01*
X171166917Y-109649227D01*
X171164191Y-109696012D01*
X171153274Y-109733486D01*
X171146269Y-109743985D01*
X171113904Y-109762332D01*
X171077111Y-109766980D01*
X171028763Y-109766980D01*
X171028763Y-109697418D01*
X171033850Y-109631333D01*
X171048263Y-109581236D01*
X171070729Y-109550071D01*
X171096566Y-109540644D01*
X171096566Y-109419045D01*
X171054647Y-109421013D01*
X170998845Y-109444290D01*
X170956647Y-109488052D01*
X170952808Y-109494101D01*
X170940309Y-109520093D01*
X170932740Y-109552265D01*
X170929061Y-109597240D01*
X170928216Y-109650669D01*
X170928169Y-109766980D01*
X170879411Y-109766980D01*
X170841581Y-109762047D01*
X170816236Y-109749457D01*
X170814887Y-109747983D01*
X170803800Y-109719966D01*
X170799503Y-109677674D01*
X170801615Y-109630936D01*
X170809756Y-109589582D01*
X170821965Y-109565043D01*
X170831746Y-109551747D01*
X170833613Y-109537706D01*
X170825600Y-109518329D01*
X170805739Y-109489024D01*
X170772063Y-109445197D01*
X170768909Y-109441175D01*
X170757236Y-109443236D01*
X170737822Y-109460432D01*
X170716248Y-109486567D01*
X170698096Y-109515448D01*
X170693809Y-109524522D01*
X170685256Y-109557620D01*
X170679155Y-109606120D01*
X170676708Y-109660305D01*
X170676703Y-109662839D01*
X170681555Y-109740790D01*
X170681555Y-109740790D01*
G37*
X170681555Y-109740790D02*
X170697339Y-109799945D01*
X170725948Y-109844977D01*
X170763419Y-109876754D01*
X170779411Y-109886634D01*
X170796163Y-109893927D01*
X170817592Y-109899026D01*
X170847616Y-109902321D01*
X170890154Y-109904203D01*
X170949122Y-109905063D01*
X171028440Y-109905293D01*
X171049484Y-109905297D01*
X171292822Y-109905297D01*
X171292822Y-109844941D01*
X171290126Y-109806443D01*
X171283295Y-109777977D01*
X171279083Y-109770845D01*
X171271813Y-109751348D01*
X171279083Y-109731434D01*
X171288160Y-109698647D01*
X171291813Y-109651022D01*
X171290228Y-109598236D01*
X171283589Y-109549964D01*
X171275072Y-109521782D01*
X171240063Y-109467247D01*
X171191479Y-109433165D01*
X171126882Y-109417843D01*
X171125223Y-109417701D01*
X171096566Y-109419045D01*
X171096566Y-109540644D01*
X171129161Y-109551274D01*
X171147505Y-109568590D01*
X171161379Y-109603348D01*
X171166917Y-109649227D01*
X171164191Y-109696012D01*
X171153274Y-109733486D01*
X171146269Y-109743985D01*
X171113904Y-109762332D01*
X171077111Y-109766980D01*
X171028763Y-109766980D01*
X171028763Y-109697418D01*
X171033850Y-109631333D01*
X171048263Y-109581236D01*
X171070729Y-109550071D01*
X171096566Y-109540644D01*
X171096566Y-109419045D01*
X171054647Y-109421013D01*
X170998845Y-109444290D01*
X170956647Y-109488052D01*
X170952808Y-109494101D01*
X170940309Y-109520093D01*
X170932740Y-109552265D01*
X170929061Y-109597240D01*
X170928216Y-109650669D01*
X170928169Y-109766980D01*
X170879411Y-109766980D01*
X170841581Y-109762047D01*
X170816236Y-109749457D01*
X170814887Y-109747983D01*
X170803800Y-109719966D01*
X170799503Y-109677674D01*
X170801615Y-109630936D01*
X170809756Y-109589582D01*
X170821965Y-109565043D01*
X170831746Y-109551747D01*
X170833613Y-109537706D01*
X170825600Y-109518329D01*
X170805739Y-109489024D01*
X170772063Y-109445197D01*
X170768909Y-109441175D01*
X170757236Y-109443236D01*
X170737822Y-109460432D01*
X170716248Y-109486567D01*
X170698096Y-109515448D01*
X170693809Y-109524522D01*
X170685256Y-109557620D01*
X170679155Y-109606120D01*
X170676708Y-109660305D01*
X170676703Y-109662839D01*
X170681555Y-109740790D01*
G36*
X170678020Y-110131644D02*
X170683660Y-110150461D01*
X170696053Y-110156527D01*
X170701647Y-110156782D01*
X170717230Y-110157871D01*
X170719676Y-110165368D01*
X170708993Y-110185619D01*
X170701694Y-110197649D01*
X170686063Y-110235600D01*
X170678334Y-110280928D01*
X170677740Y-110328456D01*
X170683513Y-110373005D01*
X170694884Y-110409398D01*
X170711088Y-110432457D01*
X170731355Y-110437004D01*
X170736843Y-110434709D01*
X170759626Y-110417980D01*
X170787647Y-110392037D01*
X170792177Y-110387345D01*
X170813005Y-110362617D01*
X170819735Y-110341282D01*
X170815038Y-110311445D01*
X170811917Y-110299492D01*
X170804421Y-110262295D01*
X170807792Y-110236141D01*
X170819681Y-110214054D01*
X170835635Y-110193822D01*
X170855700Y-110178921D01*
X170883702Y-110168566D01*
X170923467Y-110161971D01*
X170978823Y-110158351D01*
X171053594Y-110156922D01*
X171098740Y-110156782D01*
X171292822Y-110156782D01*
X171292822Y-110031040D01*
X170676683Y-110031040D01*
X170676683Y-110093911D01*
X170678020Y-110131644D01*
X170678020Y-110131644D01*
G37*
X170678020Y-110131644D02*
X170683660Y-110150461D01*
X170696053Y-110156527D01*
X170701647Y-110156782D01*
X170717230Y-110157871D01*
X170719676Y-110165368D01*
X170708993Y-110185619D01*
X170701694Y-110197649D01*
X170686063Y-110235600D01*
X170678334Y-110280928D01*
X170677740Y-110328456D01*
X170683513Y-110373005D01*
X170694884Y-110409398D01*
X170711088Y-110432457D01*
X170731355Y-110437004D01*
X170736843Y-110434709D01*
X170759626Y-110417980D01*
X170787647Y-110392037D01*
X170792177Y-110387345D01*
X170813005Y-110362617D01*
X170819735Y-110341282D01*
X170815038Y-110311445D01*
X170811917Y-110299492D01*
X170804421Y-110262295D01*
X170807792Y-110236141D01*
X170819681Y-110214054D01*
X170835635Y-110193822D01*
X170855700Y-110178921D01*
X170883702Y-110168566D01*
X170923467Y-110161971D01*
X170978823Y-110158351D01*
X171053594Y-110156922D01*
X171098740Y-110156782D01*
X171292822Y-110156782D01*
X171292822Y-110031040D01*
X170676683Y-110031040D01*
X170676683Y-110093911D01*
X170678020Y-110131644D01*
G36*
X171292822Y-110923812D02*
X171292822Y-110854654D01*
X171291645Y-110814512D01*
X171286772Y-110793606D01*
X171276186Y-110786078D01*
X171269029Y-110785495D01*
X171254676Y-110784226D01*
X171251923Y-110776221D01*
X171260771Y-110755185D01*
X171269029Y-110738827D01*
X171288597Y-110676023D01*
X171289729Y-110607752D01*
X171275135Y-110552248D01*
X171239877Y-110500562D01*
X171187835Y-110461162D01*
X171126450Y-110439587D01*
X171123018Y-110439038D01*
X171085571Y-110435833D01*
X171031813Y-110434239D01*
X170991155Y-110434367D01*
X170991155Y-110571721D01*
X171045194Y-110574903D01*
X171089735Y-110582141D01*
X171114888Y-110591940D01*
X171149260Y-110629011D01*
X171161582Y-110673026D01*
X171151618Y-110718416D01*
X171121895Y-110757203D01*
X171101905Y-110771892D01*
X171078050Y-110780481D01*
X171043230Y-110784504D01*
X170990930Y-110785495D01*
X170939139Y-110783722D01*
X170893634Y-110779037D01*
X170863181Y-110772397D01*
X170860452Y-110771290D01*
X170828000Y-110744509D01*
X170810183Y-110705421D01*
X170807306Y-110661685D01*
X170819674Y-110620962D01*
X170847593Y-110590913D01*
X170853148Y-110587796D01*
X170887022Y-110578039D01*
X170935728Y-110572723D01*
X170991155Y-110571721D01*
X170991155Y-110434367D01*
X170970540Y-110434432D01*
X170937563Y-110435336D01*
X170855981Y-110441486D01*
X170794730Y-110454267D01*
X170749449Y-110475529D01*
X170715779Y-110507122D01*
X170696014Y-110537793D01*
X170682120Y-110580646D01*
X170677354Y-110633944D01*
X170681236Y-110688520D01*
X170693282Y-110735208D01*
X170707693Y-110759876D01*
X170730878Y-110785495D01*
X170437773Y-110785495D01*
X170437773Y-110923812D01*
X171292822Y-110923812D01*
X171292822Y-110923812D01*
G37*
X171292822Y-110923812D02*
X171292822Y-110854654D01*
X171291645Y-110814512D01*
X171286772Y-110793606D01*
X171276186Y-110786078D01*
X171269029Y-110785495D01*
X171254676Y-110784226D01*
X171251923Y-110776221D01*
X171260771Y-110755185D01*
X171269029Y-110738827D01*
X171288597Y-110676023D01*
X171289729Y-110607752D01*
X171275135Y-110552248D01*
X171239877Y-110500562D01*
X171187835Y-110461162D01*
X171126450Y-110439587D01*
X171123018Y-110439038D01*
X171085571Y-110435833D01*
X171031813Y-110434239D01*
X170991155Y-110434367D01*
X170991155Y-110571721D01*
X171045194Y-110574903D01*
X171089735Y-110582141D01*
X171114888Y-110591940D01*
X171149260Y-110629011D01*
X171161582Y-110673026D01*
X171151618Y-110718416D01*
X171121895Y-110757203D01*
X171101905Y-110771892D01*
X171078050Y-110780481D01*
X171043230Y-110784504D01*
X170990930Y-110785495D01*
X170939139Y-110783722D01*
X170893634Y-110779037D01*
X170863181Y-110772397D01*
X170860452Y-110771290D01*
X170828000Y-110744509D01*
X170810183Y-110705421D01*
X170807306Y-110661685D01*
X170819674Y-110620962D01*
X170847593Y-110590913D01*
X170853148Y-110587796D01*
X170887022Y-110578039D01*
X170935728Y-110572723D01*
X170991155Y-110571721D01*
X170991155Y-110434367D01*
X170970540Y-110434432D01*
X170937563Y-110435336D01*
X170855981Y-110441486D01*
X170794730Y-110454267D01*
X170749449Y-110475529D01*
X170715779Y-110507122D01*
X170696014Y-110537793D01*
X170682120Y-110580646D01*
X170677354Y-110633944D01*
X170681236Y-110688520D01*
X170693282Y-110735208D01*
X170707693Y-110759876D01*
X170730878Y-110785495D01*
X170437773Y-110785495D01*
X170437773Y-110923812D01*
X171292822Y-110923812D01*
G36*
X170679237Y-111406524D02*
X170682971Y-111456255D01*
X171072773Y-111586291D01*
X171003614Y-111606678D01*
X170960874Y-111618946D01*
X170903115Y-111635085D01*
X170839625Y-111652512D01*
X170805570Y-111661726D01*
X170676683Y-111696388D01*
X170676683Y-111839391D01*
X170811857Y-111796646D01*
X170878342Y-111775596D01*
X170958539Y-111750167D01*
X171042193Y-111723610D01*
X171116782Y-111699902D01*
X171286535Y-111645902D01*
X171290328Y-111587598D01*
X171294122Y-111529295D01*
X171189734Y-111497679D01*
X171124889Y-111478182D01*
X171053400Y-111456904D01*
X170990263Y-111438308D01*
X170987750Y-111437574D01*
X170944969Y-111423684D01*
X170915779Y-111411429D01*
X170904741Y-111402846D01*
X170906018Y-111401082D01*
X170923130Y-111394891D01*
X170959787Y-111383128D01*
X171011378Y-111367225D01*
X171073294Y-111348614D01*
X171107352Y-111338543D01*
X171292822Y-111284007D01*
X171292822Y-111168264D01*
X171000471Y-111075737D01*
X170918462Y-111049744D01*
X170843987Y-111026066D01*
X170780544Y-111005820D01*
X170731632Y-110990126D01*
X170700749Y-110980102D01*
X170691726Y-110977055D01*
X170682487Y-110979467D01*
X170678441Y-110998408D01*
X170678846Y-111037823D01*
X170679152Y-111043993D01*
X170682971Y-111117086D01*
X170859010Y-111164957D01*
X170923211Y-111182553D01*
X170979649Y-111198277D01*
X171023422Y-111210746D01*
X171049630Y-111218574D01*
X171053903Y-111220020D01*
X171048990Y-111226014D01*
X171023532Y-111238101D01*
X170980997Y-111254893D01*
X170924850Y-111275003D01*
X170874130Y-111292003D01*
X170675504Y-111356794D01*
X170679237Y-111406524D01*
X170679237Y-111406524D01*
G37*
X170679237Y-111406524D02*
X170682971Y-111456255D01*
X171072773Y-111586291D01*
X171003614Y-111606678D01*
X170960874Y-111618946D01*
X170903115Y-111635085D01*
X170839625Y-111652512D01*
X170805570Y-111661726D01*
X170676683Y-111696388D01*
X170676683Y-111839391D01*
X170811857Y-111796646D01*
X170878342Y-111775596D01*
X170958539Y-111750167D01*
X171042193Y-111723610D01*
X171116782Y-111699902D01*
X171286535Y-111645902D01*
X171290328Y-111587598D01*
X171294122Y-111529295D01*
X171189734Y-111497679D01*
X171124889Y-111478182D01*
X171053400Y-111456904D01*
X170990263Y-111438308D01*
X170987750Y-111437574D01*
X170944969Y-111423684D01*
X170915779Y-111411429D01*
X170904741Y-111402846D01*
X170906018Y-111401082D01*
X170923130Y-111394891D01*
X170959787Y-111383128D01*
X171011378Y-111367225D01*
X171073294Y-111348614D01*
X171107352Y-111338543D01*
X171292822Y-111284007D01*
X171292822Y-111168264D01*
X171000471Y-111075737D01*
X170918462Y-111049744D01*
X170843987Y-111026066D01*
X170780544Y-111005820D01*
X170731632Y-110990126D01*
X170700749Y-110980102D01*
X170691726Y-110977055D01*
X170682487Y-110979467D01*
X170678441Y-110998408D01*
X170678846Y-111037823D01*
X170679152Y-111043993D01*
X170682971Y-111117086D01*
X170859010Y-111164957D01*
X170923211Y-111182553D01*
X170979649Y-111198277D01*
X171023422Y-111210746D01*
X171049630Y-111218574D01*
X171053903Y-111220020D01*
X171048990Y-111226014D01*
X171023532Y-111238101D01*
X170980997Y-111254893D01*
X170924850Y-111275003D01*
X170874130Y-111292003D01*
X170675504Y-111356794D01*
X170679237Y-111406524D01*
G36*
X170680417Y-112163411D02*
X170693290Y-112216411D01*
X170700110Y-112231731D01*
X170717974Y-112261428D01*
X170738093Y-112284220D01*
X170763962Y-112301083D01*
X170799073Y-112312998D01*
X170846920Y-112320942D01*
X170910996Y-112325894D01*
X170994794Y-112328831D01*
X171050768Y-112329947D01*
X171292822Y-112334052D01*
X171292822Y-112263932D01*
X171291038Y-112221393D01*
X171284942Y-112199476D01*
X171274706Y-112193812D01*
X171263637Y-112190821D01*
X171265754Y-112177451D01*
X171274629Y-112159233D01*
X171288233Y-112113624D01*
X171291899Y-112055007D01*
X171285903Y-111993354D01*
X171270521Y-111938638D01*
X171268386Y-111933730D01*
X171233255Y-111883723D01*
X171184419Y-111850756D01*
X171127333Y-111835587D01*
X171106824Y-111836746D01*
X171106824Y-111960508D01*
X171134425Y-111971413D01*
X171154204Y-112003745D01*
X171164819Y-112055910D01*
X171166228Y-112083787D01*
X171162620Y-112130247D01*
X171148597Y-112161129D01*
X171141931Y-112168664D01*
X171105666Y-112189076D01*
X171072773Y-112193812D01*
X171028763Y-112193812D01*
X171028763Y-112132513D01*
X171032395Y-112061256D01*
X171043818Y-112011276D01*
X171063824Y-111979696D01*
X171072743Y-111972626D01*
X171106824Y-111960508D01*
X171106824Y-111836746D01*
X171067456Y-111838971D01*
X171010244Y-111861663D01*
X170971580Y-111892624D01*
X170954864Y-111911376D01*
X170943878Y-111929733D01*
X170937180Y-111953619D01*
X170933326Y-111988957D01*
X170930873Y-112041669D01*
X170930168Y-112062577D01*
X170925879Y-112193812D01*
X170886158Y-112193620D01*
X170844405Y-112188537D01*
X170819158Y-112170162D01*
X170803030Y-112133039D01*
X170802742Y-112132043D01*
X170796400Y-112079410D01*
X170804684Y-112027906D01*
X170824827Y-111989630D01*
X170834773Y-111974272D01*
X170833397Y-111957730D01*
X170818987Y-111932275D01*
X170808817Y-111917328D01*
X170787088Y-111888091D01*
X170770800Y-111869980D01*
X170766137Y-111867074D01*
X170742005Y-111879040D01*
X170713185Y-111914396D01*
X170703461Y-111929753D01*
X170686714Y-111973901D01*
X170677227Y-112033398D01*
X170675095Y-112099487D01*
X170680417Y-112163411D01*
X170680417Y-112163411D01*
G37*
X170680417Y-112163411D02*
X170693290Y-112216411D01*
X170700110Y-112231731D01*
X170717974Y-112261428D01*
X170738093Y-112284220D01*
X170763962Y-112301083D01*
X170799073Y-112312998D01*
X170846920Y-112320942D01*
X170910996Y-112325894D01*
X170994794Y-112328831D01*
X171050768Y-112329947D01*
X171292822Y-112334052D01*
X171292822Y-112263932D01*
X171291038Y-112221393D01*
X171284942Y-112199476D01*
X171274706Y-112193812D01*
X171263637Y-112190821D01*
X171265754Y-112177451D01*
X171274629Y-112159233D01*
X171288233Y-112113624D01*
X171291899Y-112055007D01*
X171285903Y-111993354D01*
X171270521Y-111938638D01*
X171268386Y-111933730D01*
X171233255Y-111883723D01*
X171184419Y-111850756D01*
X171127333Y-111835587D01*
X171106824Y-111836746D01*
X171106824Y-111960508D01*
X171134425Y-111971413D01*
X171154204Y-112003745D01*
X171164819Y-112055910D01*
X171166228Y-112083787D01*
X171162620Y-112130247D01*
X171148597Y-112161129D01*
X171141931Y-112168664D01*
X171105666Y-112189076D01*
X171072773Y-112193812D01*
X171028763Y-112193812D01*
X171028763Y-112132513D01*
X171032395Y-112061256D01*
X171043818Y-112011276D01*
X171063824Y-111979696D01*
X171072743Y-111972626D01*
X171106824Y-111960508D01*
X171106824Y-111836746D01*
X171067456Y-111838971D01*
X171010244Y-111861663D01*
X170971580Y-111892624D01*
X170954864Y-111911376D01*
X170943878Y-111929733D01*
X170937180Y-111953619D01*
X170933326Y-111988957D01*
X170930873Y-112041669D01*
X170930168Y-112062577D01*
X170925879Y-112193812D01*
X170886158Y-112193620D01*
X170844405Y-112188537D01*
X170819158Y-112170162D01*
X170803030Y-112133039D01*
X170802742Y-112132043D01*
X170796400Y-112079410D01*
X170804684Y-112027906D01*
X170824827Y-111989630D01*
X170834773Y-111974272D01*
X170833397Y-111957730D01*
X170818987Y-111932275D01*
X170808817Y-111917328D01*
X170787088Y-111888091D01*
X170770800Y-111869980D01*
X170766137Y-111867074D01*
X170742005Y-111879040D01*
X170713185Y-111914396D01*
X170703461Y-111929753D01*
X170686714Y-111973901D01*
X170677227Y-112033398D01*
X170675095Y-112099487D01*
X170680417Y-112163411D01*
G36*
X170676486Y-112760255D02*
X170686015Y-112808595D01*
X170700125Y-112836114D01*
X170723568Y-112865064D01*
X170775571Y-112823876D01*
X170807064Y-112798482D01*
X170822428Y-112781238D01*
X170824776Y-112764102D01*
X170817217Y-112739027D01*
X170812941Y-112727257D01*
X170806631Y-112679270D01*
X170820156Y-112635324D01*
X170850710Y-112603060D01*
X170860452Y-112597819D01*
X170886258Y-112592112D01*
X170933817Y-112587706D01*
X170999758Y-112584811D01*
X171080710Y-112583631D01*
X171092226Y-112583614D01*
X171292822Y-112583614D01*
X171292822Y-112445297D01*
X170676683Y-112445297D01*
X170676683Y-112514456D01*
X170677725Y-112554333D01*
X170682358Y-112575107D01*
X170692849Y-112582789D01*
X170702745Y-112583614D01*
X170728806Y-112583614D01*
X170702745Y-112616745D01*
X170684965Y-112654735D01*
X170676174Y-112705770D01*
X170676486Y-112760255D01*
X170676486Y-112760255D01*
G37*
X170676486Y-112760255D02*
X170686015Y-112808595D01*
X170700125Y-112836114D01*
X170723568Y-112865064D01*
X170775571Y-112823876D01*
X170807064Y-112798482D01*
X170822428Y-112781238D01*
X170824776Y-112764102D01*
X170817217Y-112739027D01*
X170812941Y-112727257D01*
X170806631Y-112679270D01*
X170820156Y-112635324D01*
X170850710Y-112603060D01*
X170860452Y-112597819D01*
X170886258Y-112592112D01*
X170933817Y-112587706D01*
X170999758Y-112584811D01*
X171080710Y-112583631D01*
X171092226Y-112583614D01*
X171292822Y-112583614D01*
X171292822Y-112445297D01*
X170676683Y-112445297D01*
X170676683Y-112514456D01*
X170677725Y-112554333D01*
X170682358Y-112575107D01*
X170692849Y-112582789D01*
X170702745Y-112583614D01*
X170728806Y-112583614D01*
X170702745Y-112616745D01*
X170684965Y-112654735D01*
X170676174Y-112705770D01*
X170676486Y-112760255D01*
G36*
X170679970Y-113157581D02*
X170695597Y-113217685D01*
X170727848Y-113268021D01*
X170751940Y-113292393D01*
X170808895Y-113332345D01*
X170874965Y-113355242D01*
X170956182Y-113363108D01*
X170962748Y-113363148D01*
X171028763Y-113363218D01*
X171028763Y-112983264D01*
X171063342Y-112991363D01*
X171094659Y-113005987D01*
X171127291Y-113031581D01*
X171132500Y-113036935D01*
X171160694Y-113082943D01*
X171165475Y-113135410D01*
X171146926Y-113195803D01*
X171141931Y-113206040D01*
X171126745Y-113237439D01*
X171118094Y-113258470D01*
X171117293Y-113262139D01*
X171125063Y-113274948D01*
X171144072Y-113299378D01*
X171154460Y-113311779D01*
X171178321Y-113337476D01*
X171194077Y-113345915D01*
X171208571Y-113340058D01*
X171212534Y-113336928D01*
X171229879Y-113315725D01*
X171250959Y-113280738D01*
X171263265Y-113256337D01*
X171284946Y-113187072D01*
X171291971Y-113110388D01*
X171283647Y-113037765D01*
X171277686Y-113017426D01*
X171243952Y-112954476D01*
X171192045Y-112907815D01*
X171121459Y-112877173D01*
X171031692Y-112862282D01*
X170984753Y-112860647D01*
X170916413Y-112865421D01*
X170916413Y-112985990D01*
X170921465Y-112997652D01*
X170925429Y-113028998D01*
X170927768Y-113074571D01*
X170928169Y-113105446D01*
X170927783Y-113160981D01*
X170925975Y-113196033D01*
X170921773Y-113215262D01*
X170914203Y-113223330D01*
X170903218Y-113224901D01*
X170869381Y-113214121D01*
X170835940Y-113186980D01*
X170810272Y-113151277D01*
X170799772Y-113115560D01*
X170809086Y-113067048D01*
X170836013Y-113025053D01*
X170874827Y-112995936D01*
X170916413Y-112985990D01*
X170916413Y-112865421D01*
X170885236Y-112867599D01*
X170805949Y-112889055D01*
X170746263Y-112925470D01*
X170705549Y-112977297D01*
X170683179Y-113044990D01*
X170678871Y-113081662D01*
X170679970Y-113157581D01*
X170679970Y-113157581D01*
G37*
X170679970Y-113157581D02*
X170695597Y-113217685D01*
X170727848Y-113268021D01*
X170751940Y-113292393D01*
X170808895Y-113332345D01*
X170874965Y-113355242D01*
X170956182Y-113363108D01*
X170962748Y-113363148D01*
X171028763Y-113363218D01*
X171028763Y-112983264D01*
X171063342Y-112991363D01*
X171094659Y-113005987D01*
X171127291Y-113031581D01*
X171132500Y-113036935D01*
X171160694Y-113082943D01*
X171165475Y-113135410D01*
X171146926Y-113195803D01*
X171141931Y-113206040D01*
X171126745Y-113237439D01*
X171118094Y-113258470D01*
X171117293Y-113262139D01*
X171125063Y-113274948D01*
X171144072Y-113299378D01*
X171154460Y-113311779D01*
X171178321Y-113337476D01*
X171194077Y-113345915D01*
X171208571Y-113340058D01*
X171212534Y-113336928D01*
X171229879Y-113315725D01*
X171250959Y-113280738D01*
X171263265Y-113256337D01*
X171284946Y-113187072D01*
X171291971Y-113110388D01*
X171283647Y-113037765D01*
X171277686Y-113017426D01*
X171243952Y-112954476D01*
X171192045Y-112907815D01*
X171121459Y-112877173D01*
X171031692Y-112862282D01*
X170984753Y-112860647D01*
X170916413Y-112865421D01*
X170916413Y-112985990D01*
X170921465Y-112997652D01*
X170925429Y-113028998D01*
X170927768Y-113074571D01*
X170928169Y-113105446D01*
X170927783Y-113160981D01*
X170925975Y-113196033D01*
X170921773Y-113215262D01*
X170914203Y-113223330D01*
X170903218Y-113224901D01*
X170869381Y-113214121D01*
X170835940Y-113186980D01*
X170810272Y-113151277D01*
X170799772Y-113115560D01*
X170809086Y-113067048D01*
X170836013Y-113025053D01*
X170874827Y-112995936D01*
X170916413Y-112985990D01*
X170916413Y-112865421D01*
X170885236Y-112867599D01*
X170805949Y-112889055D01*
X170746263Y-112925470D01*
X170705549Y-112977297D01*
X170683179Y-113044990D01*
X170678871Y-113081662D01*
X170679970Y-113157581D01*
G36*
X169740148Y-108586739D02*
X169769231Y-108652521D01*
X169817793Y-108702460D01*
X169885908Y-108736626D01*
X169973651Y-108755093D01*
X169987351Y-108756417D01*
X170083939Y-108757454D01*
X170168602Y-108744007D01*
X170237221Y-108716892D01*
X170259294Y-108702373D01*
X170306011Y-108651799D01*
X170336268Y-108587391D01*
X170348824Y-108515334D01*
X170342439Y-108441815D01*
X170322772Y-108385928D01*
X170289629Y-108337868D01*
X170246175Y-108298588D01*
X170245158Y-108297908D01*
X170218338Y-108281956D01*
X170191368Y-108271590D01*
X170157332Y-108265312D01*
X170109310Y-108261627D01*
X170069931Y-108260003D01*
X170034219Y-108259328D01*
X170034219Y-108385045D01*
X170069770Y-108386274D01*
X170117094Y-108390734D01*
X170147465Y-108398603D01*
X170169072Y-108412793D01*
X170181694Y-108426083D01*
X170208122Y-108473198D01*
X170211653Y-108522495D01*
X170192639Y-108568407D01*
X170171331Y-108591362D01*
X170149859Y-108607904D01*
X170129313Y-108617579D01*
X170102574Y-108621826D01*
X170062523Y-108622080D01*
X170025638Y-108620772D01*
X169972947Y-108617957D01*
X169938772Y-108613495D01*
X169916480Y-108605452D01*
X169899442Y-108591897D01*
X169889703Y-108581155D01*
X169864123Y-108536223D01*
X169862847Y-108487751D01*
X169877999Y-108447106D01*
X169909642Y-108412433D01*
X169961620Y-108391776D01*
X170034219Y-108385045D01*
X170034219Y-108259328D01*
X169991621Y-108258521D01*
X169933056Y-108261052D01*
X169889007Y-108268638D01*
X169854248Y-108282319D01*
X169823551Y-108303135D01*
X169814436Y-108310853D01*
X169769021Y-108359111D01*
X169742493Y-108410872D01*
X169731379Y-108474172D01*
X169730471Y-108505039D01*
X169740148Y-108586739D01*
X169740148Y-108586739D01*
G37*
X169740148Y-108586739D02*
X169769231Y-108652521D01*
X169817793Y-108702460D01*
X169885908Y-108736626D01*
X169973651Y-108755093D01*
X169987351Y-108756417D01*
X170083939Y-108757454D01*
X170168602Y-108744007D01*
X170237221Y-108716892D01*
X170259294Y-108702373D01*
X170306011Y-108651799D01*
X170336268Y-108587391D01*
X170348824Y-108515334D01*
X170342439Y-108441815D01*
X170322772Y-108385928D01*
X170289629Y-108337868D01*
X170246175Y-108298588D01*
X170245158Y-108297908D01*
X170218338Y-108281956D01*
X170191368Y-108271590D01*
X170157332Y-108265312D01*
X170109310Y-108261627D01*
X170069931Y-108260003D01*
X170034219Y-108259328D01*
X170034219Y-108385045D01*
X170069770Y-108386274D01*
X170117094Y-108390734D01*
X170147465Y-108398603D01*
X170169072Y-108412793D01*
X170181694Y-108426083D01*
X170208122Y-108473198D01*
X170211653Y-108522495D01*
X170192639Y-108568407D01*
X170171331Y-108591362D01*
X170149859Y-108607904D01*
X170129313Y-108617579D01*
X170102574Y-108621826D01*
X170062523Y-108622080D01*
X170025638Y-108620772D01*
X169972947Y-108617957D01*
X169938772Y-108613495D01*
X169916480Y-108605452D01*
X169899442Y-108591897D01*
X169889703Y-108581155D01*
X169864123Y-108536223D01*
X169862847Y-108487751D01*
X169877999Y-108447106D01*
X169909642Y-108412433D01*
X169961620Y-108391776D01*
X170034219Y-108385045D01*
X170034219Y-108259328D01*
X169991621Y-108258521D01*
X169933056Y-108261052D01*
X169889007Y-108268638D01*
X169854248Y-108282319D01*
X169823551Y-108303135D01*
X169814436Y-108310853D01*
X169769021Y-108359111D01*
X169742493Y-108410872D01*
X169731379Y-108474172D01*
X169730471Y-108505039D01*
X169740148Y-108586739D01*
G36*
X169747614Y-109768301D02*
X169753514Y-109780832D01*
X169785283Y-109824201D01*
X169831646Y-109865210D01*
X169882696Y-109895832D01*
X169906166Y-109904541D01*
X169948091Y-109912488D01*
X169998757Y-109917226D01*
X170019679Y-109917801D01*
X170085693Y-109917871D01*
X170085693Y-109537917D01*
X170120273Y-109546017D01*
X170161170Y-109565896D01*
X170196514Y-109600653D01*
X170219282Y-109642002D01*
X170224010Y-109668351D01*
X170218273Y-109704084D01*
X170203882Y-109746718D01*
X170197262Y-109761201D01*
X170170513Y-109814760D01*
X170205376Y-109860467D01*
X170228955Y-109886842D01*
X170248417Y-109900876D01*
X170254129Y-109901586D01*
X170267973Y-109889049D01*
X170289012Y-109861572D01*
X170305425Y-109836634D01*
X170334930Y-109769336D01*
X170348284Y-109693890D01*
X170344812Y-109619112D01*
X170326663Y-109559505D01*
X170287784Y-109498059D01*
X170236595Y-109454392D01*
X170170367Y-109427074D01*
X170086371Y-109414678D01*
X170047936Y-109413579D01*
X169959861Y-109417978D01*
X169957299Y-109418518D01*
X169957299Y-109544418D01*
X169965558Y-109547885D01*
X169970113Y-109562137D01*
X169972065Y-109591530D01*
X169972517Y-109640425D01*
X169972525Y-109659252D01*
X169971843Y-109716533D01*
X169969364Y-109752859D01*
X169964443Y-109772396D01*
X169956434Y-109779310D01*
X169953862Y-109779555D01*
X169933423Y-109771664D01*
X169904789Y-109751915D01*
X169894763Y-109743425D01*
X169866408Y-109711906D01*
X169855259Y-109679051D01*
X169854327Y-109661349D01*
X169865981Y-109613461D01*
X169897285Y-109573301D01*
X169942752Y-109547827D01*
X169944233Y-109547375D01*
X169957299Y-109544418D01*
X169957299Y-109418518D01*
X169890510Y-109432608D01*
X169835025Y-109458962D01*
X169795639Y-109491193D01*
X169752931Y-109550783D01*
X169730109Y-109620832D01*
X169728046Y-109695339D01*
X169747614Y-109768301D01*
X169747614Y-109768301D01*
G37*
X169747614Y-109768301D02*
X169753514Y-109780832D01*
X169785283Y-109824201D01*
X169831646Y-109865210D01*
X169882696Y-109895832D01*
X169906166Y-109904541D01*
X169948091Y-109912488D01*
X169998757Y-109917226D01*
X170019679Y-109917801D01*
X170085693Y-109917871D01*
X170085693Y-109537917D01*
X170120273Y-109546017D01*
X170161170Y-109565896D01*
X170196514Y-109600653D01*
X170219282Y-109642002D01*
X170224010Y-109668351D01*
X170218273Y-109704084D01*
X170203882Y-109746718D01*
X170197262Y-109761201D01*
X170170513Y-109814760D01*
X170205376Y-109860467D01*
X170228955Y-109886842D01*
X170248417Y-109900876D01*
X170254129Y-109901586D01*
X170267973Y-109889049D01*
X170289012Y-109861572D01*
X170305425Y-109836634D01*
X170334930Y-109769336D01*
X170348284Y-109693890D01*
X170344812Y-109619112D01*
X170326663Y-109559505D01*
X170287784Y-109498059D01*
X170236595Y-109454392D01*
X170170367Y-109427074D01*
X170086371Y-109414678D01*
X170047936Y-109413579D01*
X169959861Y-109417978D01*
X169957299Y-109418518D01*
X169957299Y-109544418D01*
X169965558Y-109547885D01*
X169970113Y-109562137D01*
X169972065Y-109591530D01*
X169972517Y-109640425D01*
X169972525Y-109659252D01*
X169971843Y-109716533D01*
X169969364Y-109752859D01*
X169964443Y-109772396D01*
X169956434Y-109779310D01*
X169953862Y-109779555D01*
X169933423Y-109771664D01*
X169904789Y-109751915D01*
X169894763Y-109743425D01*
X169866408Y-109711906D01*
X169855259Y-109679051D01*
X169854327Y-109661349D01*
X169865981Y-109613461D01*
X169897285Y-109573301D01*
X169942752Y-109547827D01*
X169944233Y-109547375D01*
X169957299Y-109544418D01*
X169957299Y-109418518D01*
X169890510Y-109432608D01*
X169835025Y-109458962D01*
X169795639Y-109491193D01*
X169752931Y-109550783D01*
X169730109Y-109620832D01*
X169728046Y-109695339D01*
X169747614Y-109768301D01*
G36*
X169731452Y-111139017D02*
X169740482Y-111186634D01*
X169759370Y-111236034D01*
X169761777Y-111241312D01*
X169781476Y-111278774D01*
X169799781Y-111304717D01*
X169811508Y-111313103D01*
X169830632Y-111305117D01*
X169858850Y-111285720D01*
X169869384Y-111277110D01*
X169910847Y-111241628D01*
X169883858Y-111195885D01*
X169865878Y-111152350D01*
X169856267Y-111102050D01*
X169855660Y-111053812D01*
X169864691Y-111016467D01*
X169870327Y-111007505D01*
X169896171Y-110990437D01*
X169925941Y-110988363D01*
X169949197Y-111001134D01*
X169953708Y-111008688D01*
X169959309Y-111031325D01*
X169965892Y-111071115D01*
X169972183Y-111120166D01*
X169973170Y-111129215D01*
X169986798Y-111207996D01*
X170009946Y-111265136D01*
X170044752Y-111303030D01*
X170093354Y-111324079D01*
X170152718Y-111330635D01*
X170220198Y-111321577D01*
X170273188Y-111292164D01*
X170311783Y-111242278D01*
X170336081Y-111171800D01*
X170345667Y-111093565D01*
X170345552Y-111029766D01*
X170336845Y-110978016D01*
X170324825Y-110942673D01*
X170303880Y-110898017D01*
X170279574Y-110856747D01*
X170268876Y-110842079D01*
X170238084Y-110804357D01*
X170192049Y-110849852D01*
X170146013Y-110895347D01*
X170180243Y-110947072D01*
X170205952Y-110998952D01*
X170219399Y-111054351D01*
X170220818Y-111107605D01*
X170210443Y-111153049D01*
X170188507Y-111185016D01*
X170169998Y-111195338D01*
X170140314Y-111193789D01*
X170117615Y-111168140D01*
X170101940Y-111118460D01*
X170094695Y-111064031D01*
X170080873Y-110980264D01*
X170054796Y-110918033D01*
X170015699Y-110876507D01*
X169962820Y-110854853D01*
X169900126Y-110851853D01*
X169834642Y-110866671D01*
X169785144Y-110900454D01*
X169751408Y-110953505D01*
X169733207Y-111026126D01*
X169729639Y-111079928D01*
X169731452Y-111139017D01*
X169731452Y-111139017D01*
G37*
X169731452Y-111139017D02*
X169740482Y-111186634D01*
X169759370Y-111236034D01*
X169761777Y-111241312D01*
X169781476Y-111278774D01*
X169799781Y-111304717D01*
X169811508Y-111313103D01*
X169830632Y-111305117D01*
X169858850Y-111285720D01*
X169869384Y-111277110D01*
X169910847Y-111241628D01*
X169883858Y-111195885D01*
X169865878Y-111152350D01*
X169856267Y-111102050D01*
X169855660Y-111053812D01*
X169864691Y-111016467D01*
X169870327Y-111007505D01*
X169896171Y-110990437D01*
X169925941Y-110988363D01*
X169949197Y-111001134D01*
X169953708Y-111008688D01*
X169959309Y-111031325D01*
X169965892Y-111071115D01*
X169972183Y-111120166D01*
X169973170Y-111129215D01*
X169986798Y-111207996D01*
X170009946Y-111265136D01*
X170044752Y-111303030D01*
X170093354Y-111324079D01*
X170152718Y-111330635D01*
X170220198Y-111321577D01*
X170273188Y-111292164D01*
X170311783Y-111242278D01*
X170336081Y-111171800D01*
X170345667Y-111093565D01*
X170345552Y-111029766D01*
X170336845Y-110978016D01*
X170324825Y-110942673D01*
X170303880Y-110898017D01*
X170279574Y-110856747D01*
X170268876Y-110842079D01*
X170238084Y-110804357D01*
X170192049Y-110849852D01*
X170146013Y-110895347D01*
X170180243Y-110947072D01*
X170205952Y-110998952D01*
X170219399Y-111054351D01*
X170220818Y-111107605D01*
X170210443Y-111153049D01*
X170188507Y-111185016D01*
X170169998Y-111195338D01*
X170140314Y-111193789D01*
X170117615Y-111168140D01*
X170101940Y-111118460D01*
X170094695Y-111064031D01*
X170080873Y-110980264D01*
X170054796Y-110918033D01*
X170015699Y-110876507D01*
X169962820Y-110854853D01*
X169900126Y-110851853D01*
X169834642Y-110866671D01*
X169785144Y-110900454D01*
X169751408Y-110953505D01*
X169733207Y-111026126D01*
X169729639Y-111079928D01*
X169731452Y-111139017D01*
G36*
X169741055Y-111735762D02*
X169775692Y-111799363D01*
X169830372Y-111849123D01*
X169874842Y-111872568D01*
X169914121Y-111882634D01*
X169970116Y-111889156D01*
X170034621Y-111891951D01*
X170099429Y-111890836D01*
X170156334Y-111885626D01*
X170186727Y-111879541D01*
X170228306Y-111859014D01*
X170272468Y-111823463D01*
X170311087Y-111780619D01*
X170336034Y-111738211D01*
X170336430Y-111737177D01*
X170347331Y-111684553D01*
X170347601Y-111622188D01*
X170337676Y-111562924D01*
X170329722Y-111540040D01*
X170296300Y-111481102D01*
X170252511Y-111438890D01*
X170194538Y-111411156D01*
X170118565Y-111395651D01*
X170078771Y-111392143D01*
X170028766Y-111392590D01*
X170028766Y-111527376D01*
X170101732Y-111531917D01*
X170157334Y-111544986D01*
X170192861Y-111565756D01*
X170203020Y-111580552D01*
X170210104Y-111618464D01*
X170208007Y-111663527D01*
X170197812Y-111702487D01*
X170192204Y-111712704D01*
X170159538Y-111739659D01*
X170109545Y-111757451D01*
X170048705Y-111765024D01*
X169983497Y-111761325D01*
X169944253Y-111753057D01*
X169898805Y-111729320D01*
X169870396Y-111691849D01*
X169860573Y-111646720D01*
X169870887Y-111600011D01*
X169896112Y-111564132D01*
X169916925Y-111545277D01*
X169937439Y-111534272D01*
X169965203Y-111529026D01*
X170007762Y-111527449D01*
X170028766Y-111527376D01*
X170028766Y-111392590D01*
X169972580Y-111393094D01*
X169885501Y-111410388D01*
X169817530Y-111444029D01*
X169768664Y-111494018D01*
X169738899Y-111560356D01*
X169735448Y-111574601D01*
X169727345Y-111660210D01*
X169741055Y-111735762D01*
X169741055Y-111735762D01*
G37*
X169741055Y-111735762D02*
X169775692Y-111799363D01*
X169830372Y-111849123D01*
X169874842Y-111872568D01*
X169914121Y-111882634D01*
X169970116Y-111889156D01*
X170034621Y-111891951D01*
X170099429Y-111890836D01*
X170156334Y-111885626D01*
X170186727Y-111879541D01*
X170228306Y-111859014D01*
X170272468Y-111823463D01*
X170311087Y-111780619D01*
X170336034Y-111738211D01*
X170336430Y-111737177D01*
X170347331Y-111684553D01*
X170347601Y-111622188D01*
X170337676Y-111562924D01*
X170329722Y-111540040D01*
X170296300Y-111481102D01*
X170252511Y-111438890D01*
X170194538Y-111411156D01*
X170118565Y-111395651D01*
X170078771Y-111392143D01*
X170028766Y-111392590D01*
X170028766Y-111527376D01*
X170101732Y-111531917D01*
X170157334Y-111544986D01*
X170192861Y-111565756D01*
X170203020Y-111580552D01*
X170210104Y-111618464D01*
X170208007Y-111663527D01*
X170197812Y-111702487D01*
X170192204Y-111712704D01*
X170159538Y-111739659D01*
X170109545Y-111757451D01*
X170048705Y-111765024D01*
X169983497Y-111761325D01*
X169944253Y-111753057D01*
X169898805Y-111729320D01*
X169870396Y-111691849D01*
X169860573Y-111646720D01*
X169870887Y-111600011D01*
X169896112Y-111564132D01*
X169916925Y-111545277D01*
X169937439Y-111534272D01*
X169965203Y-111529026D01*
X170007762Y-111527449D01*
X170028766Y-111527376D01*
X170028766Y-111392590D01*
X169972580Y-111393094D01*
X169885501Y-111410388D01*
X169817530Y-111444029D01*
X169768664Y-111494018D01*
X169738899Y-111560356D01*
X169735448Y-111574601D01*
X169727345Y-111660210D01*
X169741055Y-111735762D01*
G36*
X169929342Y-112118367D02*
X170021563Y-112119555D01*
X170091610Y-112123897D01*
X170142381Y-112132558D01*
X170176772Y-112146704D01*
X170197679Y-112167500D01*
X170208000Y-112196110D01*
X170210636Y-112231535D01*
X170207682Y-112268636D01*
X170196889Y-112296818D01*
X170175360Y-112317243D01*
X170140199Y-112331079D01*
X170088510Y-112339491D01*
X170017394Y-112343643D01*
X169929342Y-112344703D01*
X169733614Y-112344703D01*
X169733614Y-112483020D01*
X170337179Y-112483020D01*
X170337179Y-112413862D01*
X170335489Y-112372170D01*
X170329556Y-112350701D01*
X170318293Y-112344703D01*
X170308261Y-112341091D01*
X170310383Y-112326714D01*
X170324580Y-112297736D01*
X170346480Y-112231319D01*
X170344928Y-112160875D01*
X170321147Y-112093377D01*
X170302362Y-112061233D01*
X170282022Y-112036715D01*
X170256573Y-112018804D01*
X170222458Y-112006479D01*
X170176121Y-111998723D01*
X170114007Y-111994516D01*
X170032561Y-111992840D01*
X169969578Y-111992624D01*
X169733614Y-111992624D01*
X169733614Y-112118367D01*
X169929342Y-112118367D01*
X169929342Y-112118367D01*
G37*
X169929342Y-112118367D02*
X170021563Y-112119555D01*
X170091610Y-112123897D01*
X170142381Y-112132558D01*
X170176772Y-112146704D01*
X170197679Y-112167500D01*
X170208000Y-112196110D01*
X170210636Y-112231535D01*
X170207682Y-112268636D01*
X170196889Y-112296818D01*
X170175360Y-112317243D01*
X170140199Y-112331079D01*
X170088510Y-112339491D01*
X170017394Y-112343643D01*
X169929342Y-112344703D01*
X169733614Y-112344703D01*
X169733614Y-112483020D01*
X170337179Y-112483020D01*
X170337179Y-112413862D01*
X170335489Y-112372170D01*
X170329556Y-112350701D01*
X170318293Y-112344703D01*
X170308261Y-112341091D01*
X170310383Y-112326714D01*
X170324580Y-112297736D01*
X170346480Y-112231319D01*
X170344928Y-112160875D01*
X170321147Y-112093377D01*
X170302362Y-112061233D01*
X170282022Y-112036715D01*
X170256573Y-112018804D01*
X170222458Y-112006479D01*
X170176121Y-111998723D01*
X170114007Y-111994516D01*
X170032561Y-111992840D01*
X169969578Y-111992624D01*
X169733614Y-111992624D01*
X169733614Y-112118367D01*
X169929342Y-112118367D01*
G36*
X169738880Y-113342226D02*
X169769830Y-113415080D01*
X169784895Y-113438027D01*
X169808048Y-113467354D01*
X169826253Y-113485764D01*
X169832183Y-113488961D01*
X169845340Y-113479935D01*
X169867667Y-113456837D01*
X169883250Y-113438344D01*
X169923926Y-113387728D01*
X169890295Y-113347760D01*
X169868584Y-113316874D01*
X169861090Y-113286759D01*
X169862920Y-113252292D01*
X169876528Y-113197561D01*
X169904772Y-113159886D01*
X169950433Y-113136991D01*
X170016289Y-113126597D01*
X170016331Y-113126595D01*
X170089939Y-113127494D01*
X170143946Y-113141463D01*
X170180716Y-113169328D01*
X170193168Y-113188325D01*
X170208673Y-113238776D01*
X170208683Y-113292663D01*
X170193638Y-113339546D01*
X170186287Y-113350644D01*
X170167511Y-113378476D01*
X170164434Y-113400236D01*
X170178409Y-113423704D01*
X170203510Y-113449649D01*
X170245880Y-113490716D01*
X170283464Y-113445121D01*
X170325882Y-113374674D01*
X170346785Y-113295233D01*
X170345272Y-113212215D01*
X170331411Y-113157694D01*
X170297135Y-113093970D01*
X170243212Y-113043005D01*
X170205149Y-113019851D01*
X170150536Y-113001099D01*
X170081369Y-112991715D01*
X170006407Y-112991643D01*
X169934409Y-113000824D01*
X169874137Y-113019199D01*
X169867958Y-113022093D01*
X169807351Y-113064952D01*
X169763224Y-113122979D01*
X169736493Y-113191591D01*
X169728073Y-113266201D01*
X169738880Y-113342226D01*
X169738880Y-113342226D01*
G37*
X169738880Y-113342226D02*
X169769830Y-113415080D01*
X169784895Y-113438027D01*
X169808048Y-113467354D01*
X169826253Y-113485764D01*
X169832183Y-113488961D01*
X169845340Y-113479935D01*
X169867667Y-113456837D01*
X169883250Y-113438344D01*
X169923926Y-113387728D01*
X169890295Y-113347760D01*
X169868584Y-113316874D01*
X169861090Y-113286759D01*
X169862920Y-113252292D01*
X169876528Y-113197561D01*
X169904772Y-113159886D01*
X169950433Y-113136991D01*
X170016289Y-113126597D01*
X170016331Y-113126595D01*
X170089939Y-113127494D01*
X170143946Y-113141463D01*
X170180716Y-113169328D01*
X170193168Y-113188325D01*
X170208673Y-113238776D01*
X170208683Y-113292663D01*
X170193638Y-113339546D01*
X170186287Y-113350644D01*
X170167511Y-113378476D01*
X170164434Y-113400236D01*
X170178409Y-113423704D01*
X170203510Y-113449649D01*
X170245880Y-113490716D01*
X170283464Y-113445121D01*
X170325882Y-113374674D01*
X170346785Y-113295233D01*
X170345272Y-113212215D01*
X170331411Y-113157694D01*
X170297135Y-113093970D01*
X170243212Y-113043005D01*
X170205149Y-113019851D01*
X170150536Y-113001099D01*
X170081369Y-112991715D01*
X170006407Y-112991643D01*
X169934409Y-113000824D01*
X169874137Y-113019199D01*
X169867958Y-113022093D01*
X169807351Y-113064952D01*
X169763224Y-113122979D01*
X169736493Y-113191591D01*
X169728073Y-113266201D01*
X169738880Y-113342226D01*
G36*
X169731457Y-113802898D02*
X169739279Y-113835096D01*
X169767921Y-113896825D01*
X169811667Y-113949610D01*
X169864117Y-113986141D01*
X169875893Y-113991160D01*
X169906740Y-113998045D01*
X169952371Y-114002864D01*
X169998492Y-114004505D01*
X170085693Y-114004505D01*
X170085693Y-113822178D01*
X170085978Y-113746979D01*
X170087704Y-113694003D01*
X170092181Y-113660325D01*
X170100720Y-113643020D01*
X170114630Y-113639163D01*
X170135222Y-113645829D01*
X170159315Y-113657770D01*
X170199525Y-113691080D01*
X170219558Y-113737368D01*
X170218905Y-113793944D01*
X170197101Y-113858031D01*
X170170193Y-113913417D01*
X170206532Y-113959375D01*
X170242872Y-114005333D01*
X170282819Y-113962096D01*
X170320563Y-113904374D01*
X170343320Y-113833386D01*
X170349688Y-113757029D01*
X170338268Y-113683199D01*
X170334393Y-113671287D01*
X170300506Y-113606399D01*
X170249986Y-113558130D01*
X170181325Y-113525465D01*
X170093014Y-113507385D01*
X170091121Y-113507175D01*
X169994878Y-113505556D01*
X169960542Y-113512100D01*
X169960542Y-113639852D01*
X169965822Y-113651584D01*
X169969867Y-113683438D01*
X169972176Y-113730397D01*
X169972525Y-113760154D01*
X169972306Y-113815648D01*
X169970916Y-113850346D01*
X169967251Y-113868601D01*
X169960210Y-113874766D01*
X169948690Y-113873195D01*
X169944233Y-113871878D01*
X169902355Y-113849382D01*
X169868604Y-113814003D01*
X169853773Y-113782780D01*
X169854668Y-113741301D01*
X169873164Y-113699269D01*
X169903786Y-113664012D01*
X169941062Y-113642854D01*
X169960542Y-113639852D01*
X169960542Y-113512100D01*
X169910229Y-113521690D01*
X169839191Y-113553698D01*
X169783779Y-113599701D01*
X169746009Y-113657821D01*
X169727896Y-113726180D01*
X169731457Y-113802898D01*
X169731457Y-113802898D01*
G37*
X169731457Y-113802898D02*
X169739279Y-113835096D01*
X169767921Y-113896825D01*
X169811667Y-113949610D01*
X169864117Y-113986141D01*
X169875893Y-113991160D01*
X169906740Y-113998045D01*
X169952371Y-114002864D01*
X169998492Y-114004505D01*
X170085693Y-114004505D01*
X170085693Y-113822178D01*
X170085978Y-113746979D01*
X170087704Y-113694003D01*
X170092181Y-113660325D01*
X170100720Y-113643020D01*
X170114630Y-113639163D01*
X170135222Y-113645829D01*
X170159315Y-113657770D01*
X170199525Y-113691080D01*
X170219558Y-113737368D01*
X170218905Y-113793944D01*
X170197101Y-113858031D01*
X170170193Y-113913417D01*
X170206532Y-113959375D01*
X170242872Y-114005333D01*
X170282819Y-113962096D01*
X170320563Y-113904374D01*
X170343320Y-113833386D01*
X170349688Y-113757029D01*
X170338268Y-113683199D01*
X170334393Y-113671287D01*
X170300506Y-113606399D01*
X170249986Y-113558130D01*
X170181325Y-113525465D01*
X170093014Y-113507385D01*
X170091121Y-113507175D01*
X169994878Y-113505556D01*
X169960542Y-113512100D01*
X169960542Y-113639852D01*
X169965822Y-113651584D01*
X169969867Y-113683438D01*
X169972176Y-113730397D01*
X169972525Y-113760154D01*
X169972306Y-113815648D01*
X169970916Y-113850346D01*
X169967251Y-113868601D01*
X169960210Y-113874766D01*
X169948690Y-113873195D01*
X169944233Y-113871878D01*
X169902355Y-113849382D01*
X169868604Y-113814003D01*
X169853773Y-113782780D01*
X169854668Y-113741301D01*
X169873164Y-113699269D01*
X169903786Y-113664012D01*
X169941062Y-113642854D01*
X169960542Y-113639852D01*
X169960542Y-113512100D01*
X169910229Y-113521690D01*
X169839191Y-113553698D01*
X169783779Y-113599701D01*
X169746009Y-113657821D01*
X169727896Y-113726180D01*
X169731457Y-113802898D01*
G36*
X169744002Y-110370988D02*
X169758950Y-110402283D01*
X169780541Y-110432591D01*
X169805391Y-110455682D01*
X169837087Y-110472500D01*
X169879214Y-110483994D01*
X169935358Y-110491109D01*
X170009106Y-110494793D01*
X170104044Y-110495992D01*
X170113985Y-110496011D01*
X170337179Y-110496287D01*
X170337179Y-110357970D01*
X170131418Y-110357970D01*
X170055189Y-110357872D01*
X169999939Y-110357191D01*
X169961501Y-110355349D01*
X169935706Y-110351767D01*
X169918384Y-110345868D01*
X169905368Y-110337073D01*
X169892507Y-110324820D01*
X169864873Y-110281953D01*
X169859745Y-110235157D01*
X169877217Y-110190576D01*
X169890221Y-110175072D01*
X169902447Y-110163690D01*
X169915540Y-110155519D01*
X169933615Y-110150026D01*
X169960787Y-110146680D01*
X170001170Y-110144949D01*
X170058879Y-110144303D01*
X170129132Y-110144208D01*
X170337179Y-110144208D01*
X170337179Y-110005891D01*
X169733614Y-110005891D01*
X169733614Y-110075050D01*
X169735256Y-110116572D01*
X169741087Y-110137994D01*
X169752461Y-110144205D01*
X169752798Y-110144208D01*
X169763938Y-110147090D01*
X169762674Y-110159801D01*
X169750434Y-110185074D01*
X169732424Y-110242395D01*
X169730421Y-110307963D01*
X169744002Y-110370988D01*
X169744002Y-110370988D01*
G37*
X169744002Y-110370988D02*
X169758950Y-110402283D01*
X169780541Y-110432591D01*
X169805391Y-110455682D01*
X169837087Y-110472500D01*
X169879214Y-110483994D01*
X169935358Y-110491109D01*
X170009106Y-110494793D01*
X170104044Y-110495992D01*
X170113985Y-110496011D01*
X170337179Y-110496287D01*
X170337179Y-110357970D01*
X170131418Y-110357970D01*
X170055189Y-110357872D01*
X169999939Y-110357191D01*
X169961501Y-110355349D01*
X169935706Y-110351767D01*
X169918384Y-110345868D01*
X169905368Y-110337073D01*
X169892507Y-110324820D01*
X169864873Y-110281953D01*
X169859745Y-110235157D01*
X169877217Y-110190576D01*
X169890221Y-110175072D01*
X169902447Y-110163690D01*
X169915540Y-110155519D01*
X169933615Y-110150026D01*
X169960787Y-110146680D01*
X170001170Y-110144949D01*
X170058879Y-110144303D01*
X170129132Y-110144208D01*
X170337179Y-110144208D01*
X170337179Y-110005891D01*
X169733614Y-110005891D01*
X169733614Y-110075050D01*
X169735256Y-110116572D01*
X169741087Y-110137994D01*
X169752461Y-110144205D01*
X169752798Y-110144208D01*
X169763938Y-110147090D01*
X169762674Y-110159801D01*
X169750434Y-110185074D01*
X169732424Y-110242395D01*
X169730421Y-110307963D01*
X169744002Y-110370988D01*
G36*
X169733030Y-112924460D02*
X169746245Y-112967711D01*
X169762941Y-112995558D01*
X169776145Y-113004629D01*
X169791797Y-113002132D01*
X169816385Y-112985931D01*
X169833800Y-112972232D01*
X169865283Y-112943992D01*
X169878529Y-112922775D01*
X169877664Y-112904688D01*
X169864010Y-112851035D01*
X169864630Y-112811630D01*
X169880104Y-112779632D01*
X169889161Y-112768890D01*
X169921027Y-112734505D01*
X170337179Y-112734505D01*
X170337179Y-112596188D01*
X169733614Y-112596188D01*
X169733614Y-112665347D01*
X169735256Y-112706869D01*
X169741087Y-112728291D01*
X169752461Y-112734502D01*
X169752798Y-112734505D01*
X169764713Y-112737439D01*
X169763159Y-112750704D01*
X169754563Y-112769084D01*
X169738568Y-112807046D01*
X169728945Y-112837872D01*
X169726478Y-112877536D01*
X169733030Y-112924460D01*
X169733030Y-112924460D01*
G37*
X169733030Y-112924460D02*
X169746245Y-112967711D01*
X169762941Y-112995558D01*
X169776145Y-113004629D01*
X169791797Y-113002132D01*
X169816385Y-112985931D01*
X169833800Y-112972232D01*
X169865283Y-112943992D01*
X169878529Y-112922775D01*
X169877664Y-112904688D01*
X169864010Y-112851035D01*
X169864630Y-112811630D01*
X169880104Y-112779632D01*
X169889161Y-112768890D01*
X169921027Y-112734505D01*
X170337179Y-112734505D01*
X170337179Y-112596188D01*
X169733614Y-112596188D01*
X169733614Y-112665347D01*
X169735256Y-112706869D01*
X169741087Y-112728291D01*
X169752461Y-112734502D01*
X169752798Y-112734505D01*
X169764713Y-112737439D01*
X169763159Y-112750704D01*
X169754563Y-112769084D01*
X169738568Y-112807046D01*
X169728945Y-112837872D01*
X169726478Y-112877536D01*
X169733030Y-112924460D01*
G36*
X165565018Y-111501964D02*
X165866570Y-111558812D01*
X166039512Y-111978338D01*
X165868395Y-112229984D01*
X165820750Y-112300458D01*
X165778210Y-112364163D01*
X165742715Y-112418126D01*
X165716210Y-112459373D01*
X165700636Y-112484934D01*
X165697278Y-112491895D01*
X165705914Y-112504435D01*
X165729792Y-112531231D01*
X165765859Y-112569280D01*
X165811067Y-112615579D01*
X165862364Y-112667123D01*
X165916701Y-112720909D01*
X165971028Y-112773935D01*
X166022295Y-112823195D01*
X166067451Y-112865687D01*
X166103446Y-112898407D01*
X166127230Y-112918351D01*
X166135190Y-112923119D01*
X166149865Y-112916257D01*
X166182014Y-112897020D01*
X166228492Y-112867430D01*
X166286156Y-112829510D01*
X166351860Y-112785282D01*
X166389336Y-112759654D01*
X166457768Y-112712941D01*
X166519520Y-112671432D01*
X166571519Y-112637140D01*
X166610692Y-112612080D01*
X166633965Y-112598264D01*
X166638855Y-112596188D01*
X166652755Y-112600895D01*
X166685150Y-112613723D01*
X166731485Y-112632738D01*
X166787206Y-112656003D01*
X166847758Y-112681584D01*
X166908586Y-112707545D01*
X166965136Y-112731950D01*
X167012852Y-112752863D01*
X167047181Y-112768349D01*
X167063568Y-112776472D01*
X167064212Y-112776952D01*
X167067341Y-112789707D01*
X167074321Y-112823677D01*
X167084467Y-112875340D01*
X167097092Y-112941176D01*
X167111509Y-113017664D01*
X167119823Y-113062290D01*
X167135384Y-113144021D01*
X167150192Y-113217843D01*
X167163436Y-113280021D01*
X167174305Y-113326822D01*
X167181989Y-113354509D01*
X167184427Y-113360074D01*
X167200930Y-113365526D01*
X167238200Y-113369924D01*
X167291880Y-113373272D01*
X167357612Y-113375574D01*
X167431037Y-113376832D01*
X167507796Y-113377048D01*
X167583532Y-113376227D01*
X167653886Y-113374371D01*
X167714500Y-113371482D01*
X167761016Y-113367565D01*
X167789075Y-113362622D01*
X167794916Y-113359657D01*
X167801917Y-113341934D01*
X167811927Y-113304381D01*
X167823769Y-113251964D01*
X167836267Y-113189652D01*
X167840310Y-113167900D01*
X167859520Y-113063024D01*
X167874991Y-112980180D01*
X167887337Y-112916630D01*
X167897173Y-112869637D01*
X167905114Y-112836463D01*
X167911776Y-112814371D01*
X167917773Y-112800624D01*
X167923719Y-112792484D01*
X167924894Y-112791345D01*
X167943826Y-112779977D01*
X167980669Y-112762635D01*
X168030913Y-112741050D01*
X168090046Y-112716954D01*
X168153556Y-112692079D01*
X168216932Y-112668157D01*
X168275662Y-112646919D01*
X168325235Y-112630097D01*
X168361139Y-112619422D01*
X168378862Y-112616627D01*
X168379483Y-112616860D01*
X168393970Y-112626331D01*
X168425844Y-112647818D01*
X168471789Y-112679063D01*
X168528485Y-112717807D01*
X168592617Y-112761793D01*
X168610842Y-112774319D01*
X168676914Y-112818984D01*
X168737200Y-112858288D01*
X168788235Y-112890088D01*
X168826560Y-112912245D01*
X168848711Y-112922617D01*
X168851432Y-112923119D01*
X168865736Y-112914405D01*
X168894072Y-112890325D01*
X168933396Y-112853976D01*
X168980661Y-112808453D01*
X169032823Y-112756852D01*
X169086835Y-112702267D01*
X169139653Y-112647794D01*
X169188231Y-112596529D01*
X169229523Y-112551567D01*
X169260485Y-112516004D01*
X169278070Y-112492935D01*
X169280941Y-112486554D01*
X169274178Y-112471699D01*
X169255939Y-112441286D01*
X169229297Y-112400268D01*
X169207852Y-112368709D01*
X169168503Y-112311525D01*
X169122171Y-112243806D01*
X169075913Y-112175880D01*
X169051155Y-112139361D01*
X168967547Y-112015752D01*
X169023650Y-111911991D01*
X169048228Y-111864720D01*
X169067331Y-111824523D01*
X169078227Y-111797326D01*
X169079743Y-111790402D01*
X169068549Y-111782077D01*
X169036917Y-111765654D01*
X168987765Y-111742357D01*
X168924010Y-111713414D01*
X168848571Y-111680050D01*
X168764364Y-111643491D01*
X168674308Y-111604964D01*
X168581321Y-111565694D01*
X168488320Y-111526908D01*
X168398223Y-111489830D01*
X168313948Y-111455689D01*
X168238413Y-111425708D01*
X168174534Y-111401116D01*
X168125231Y-111383136D01*
X168093421Y-111372997D01*
X168082496Y-111371366D01*
X168068561Y-111384291D01*
X168045940Y-111412589D01*
X168019333Y-111450346D01*
X168017228Y-111453515D01*
X167939114Y-111551100D01*
X167847982Y-111629786D01*
X167746745Y-111688891D01*
X167638318Y-111727732D01*
X167525614Y-111745628D01*
X167411548Y-111741897D01*
X167299034Y-111715857D01*
X167190985Y-111666825D01*
X167167345Y-111652400D01*
X167071887Y-111577369D01*
X166995232Y-111488730D01*
X166937780Y-111389549D01*
X166899929Y-111282895D01*
X166882078Y-111171836D01*
X166884625Y-111059439D01*
X166907970Y-110948773D01*
X166952510Y-110842906D01*
X167018645Y-110744905D01*
X167045487Y-110714590D01*
X167129512Y-110637438D01*
X167217966Y-110581218D01*
X167317115Y-110542653D01*
X167415303Y-110521174D01*
X167525697Y-110515872D01*
X167636640Y-110533552D01*
X167744381Y-110572419D01*
X167845169Y-110630677D01*
X167935256Y-110706531D01*
X168010892Y-110798183D01*
X168018864Y-110810228D01*
X168044974Y-110848389D01*
X168067595Y-110877399D01*
X168082039Y-110891268D01*
X168082496Y-110891469D01*
X168098121Y-110888492D01*
X168133582Y-110876689D01*
X168185962Y-110857286D01*
X168252345Y-110831512D01*
X168329814Y-110800591D01*
X168415450Y-110765751D01*
X168506337Y-110728217D01*
X168599559Y-110689217D01*
X168692197Y-110649977D01*
X168781335Y-110611724D01*
X168864055Y-110575683D01*
X168937441Y-110543083D01*
X168998575Y-110515148D01*
X169044541Y-110493105D01*
X169072421Y-110478182D01*
X169079743Y-110472172D01*
X169074041Y-110453809D01*
X169058749Y-110419448D01*
X169036599Y-110375016D01*
X169023650Y-110350583D01*
X168967547Y-110246822D01*
X169051155Y-110123213D01*
X169093987Y-110060114D01*
X169141122Y-109991030D01*
X169185503Y-109926293D01*
X169207852Y-109893866D01*
X169238477Y-109848259D01*
X169262747Y-109809640D01*
X169277587Y-109783048D01*
X169280724Y-109774410D01*
X169272261Y-109761839D01*
X169248636Y-109734016D01*
X169212302Y-109693639D01*
X169165711Y-109643405D01*
X169111317Y-109586012D01*
X169076392Y-109549714D01*
X169013996Y-109486210D01*
X168958188Y-109431327D01*
X168911354Y-109387286D01*
X168875882Y-109356305D01*
X168854161Y-109340602D01*
X168849752Y-109339095D01*
X168832985Y-109346086D01*
X168799082Y-109365406D01*
X168751476Y-109394909D01*
X168693599Y-109432455D01*
X168628884Y-109475900D01*
X168610842Y-109488255D01*
X168545267Y-109533273D01*
X168486228Y-109573660D01*
X168437042Y-109607160D01*
X168401028Y-109631514D01*
X168381502Y-109644464D01*
X168379483Y-109645715D01*
X168363922Y-109643844D01*
X168329709Y-109633913D01*
X168281355Y-109617653D01*
X168223371Y-109596795D01*
X168160270Y-109573073D01*
X168096563Y-109548216D01*
X168036761Y-109523958D01*
X167985376Y-109502029D01*
X167946919Y-109484162D01*
X167925902Y-109472087D01*
X167924894Y-109471229D01*
X167918888Y-109463846D01*
X167912948Y-109451375D01*
X167906460Y-109431080D01*
X167898809Y-109400222D01*
X167889380Y-109356066D01*
X167877559Y-109295874D01*
X167862729Y-109216907D01*
X167844277Y-109116430D01*
X167840310Y-109094675D01*
X167827853Y-109030198D01*
X167815666Y-108973989D01*
X167804926Y-108931013D01*
X167796809Y-108906240D01*
X167794916Y-108902918D01*
X167778138Y-108897444D01*
X167740645Y-108892994D01*
X167686794Y-108889572D01*
X167620944Y-108887181D01*
X167547453Y-108885823D01*
X167470680Y-108885501D01*
X167394983Y-108886219D01*
X167324720Y-108887979D01*
X167264250Y-108890784D01*
X167217930Y-108894638D01*
X167190119Y-108899543D01*
X167184427Y-108902500D01*
X167178686Y-108918963D01*
X167169345Y-108956449D01*
X167157215Y-109011225D01*
X167143107Y-109079555D01*
X167127830Y-109157706D01*
X167119823Y-109200284D01*
X167104721Y-109281071D01*
X167091040Y-109353113D01*
X167079467Y-109412889D01*
X167070687Y-109456879D01*
X167065387Y-109481561D01*
X167064212Y-109485623D01*
X167050965Y-109492489D01*
X167019057Y-109507002D01*
X166973047Y-109527229D01*
X166917492Y-109551234D01*
X166856953Y-109577082D01*
X166795986Y-109602840D01*
X166739151Y-109626573D01*
X166691006Y-109646346D01*
X166656110Y-109660224D01*
X166639021Y-109666274D01*
X166638274Y-109666386D01*
X166624793Y-109659528D01*
X166593770Y-109640302D01*
X166548289Y-109610728D01*
X166491432Y-109572827D01*
X166426283Y-109528620D01*
X166388862Y-109502921D01*
X166320247Y-109456093D01*
X166257952Y-109414501D01*
X166205129Y-109380175D01*
X166164927Y-109355143D01*
X166140500Y-109341435D01*
X166135024Y-109339456D01*
X166122278Y-109347966D01*
X166095063Y-109371493D01*
X166056428Y-109407032D01*
X166009423Y-109451577D01*
X165957095Y-109502123D01*
X165902495Y-109555664D01*
X165848670Y-109609195D01*
X165798670Y-109659711D01*
X165755543Y-109704206D01*
X165722339Y-109739675D01*
X165702106Y-109763113D01*
X165697278Y-109770954D01*
X165704067Y-109783720D01*
X165723142Y-109814256D01*
X165752561Y-109859590D01*
X165790381Y-109916756D01*
X165834661Y-109982784D01*
X165868395Y-110032590D01*
X166039512Y-110284236D01*
X165953041Y-110493999D01*
X165866570Y-110703763D01*
X165565018Y-110760611D01*
X165263466Y-110817460D01*
X165263466Y-111445115D01*
X165565018Y-111501964D01*
X165565018Y-111501964D01*
G37*
X165565018Y-111501964D02*
X165866570Y-111558812D01*
X166039512Y-111978338D01*
X165868395Y-112229984D01*
X165820750Y-112300458D01*
X165778210Y-112364163D01*
X165742715Y-112418126D01*
X165716210Y-112459373D01*
X165700636Y-112484934D01*
X165697278Y-112491895D01*
X165705914Y-112504435D01*
X165729792Y-112531231D01*
X165765859Y-112569280D01*
X165811067Y-112615579D01*
X165862364Y-112667123D01*
X165916701Y-112720909D01*
X165971028Y-112773935D01*
X166022295Y-112823195D01*
X166067451Y-112865687D01*
X166103446Y-112898407D01*
X166127230Y-112918351D01*
X166135190Y-112923119D01*
X166149865Y-112916257D01*
X166182014Y-112897020D01*
X166228492Y-112867430D01*
X166286156Y-112829510D01*
X166351860Y-112785282D01*
X166389336Y-112759654D01*
X166457768Y-112712941D01*
X166519520Y-112671432D01*
X166571519Y-112637140D01*
X166610692Y-112612080D01*
X166633965Y-112598264D01*
X166638855Y-112596188D01*
X166652755Y-112600895D01*
X166685150Y-112613723D01*
X166731485Y-112632738D01*
X166787206Y-112656003D01*
X166847758Y-112681584D01*
X166908586Y-112707545D01*
X166965136Y-112731950D01*
X167012852Y-112752863D01*
X167047181Y-112768349D01*
X167063568Y-112776472D01*
X167064212Y-112776952D01*
X167067341Y-112789707D01*
X167074321Y-112823677D01*
X167084467Y-112875340D01*
X167097092Y-112941176D01*
X167111509Y-113017664D01*
X167119823Y-113062290D01*
X167135384Y-113144021D01*
X167150192Y-113217843D01*
X167163436Y-113280021D01*
X167174305Y-113326822D01*
X167181989Y-113354509D01*
X167184427Y-113360074D01*
X167200930Y-113365526D01*
X167238200Y-113369924D01*
X167291880Y-113373272D01*
X167357612Y-113375574D01*
X167431037Y-113376832D01*
X167507796Y-113377048D01*
X167583532Y-113376227D01*
X167653886Y-113374371D01*
X167714500Y-113371482D01*
X167761016Y-113367565D01*
X167789075Y-113362622D01*
X167794916Y-113359657D01*
X167801917Y-113341934D01*
X167811927Y-113304381D01*
X167823769Y-113251964D01*
X167836267Y-113189652D01*
X167840310Y-113167900D01*
X167859520Y-113063024D01*
X167874991Y-112980180D01*
X167887337Y-112916630D01*
X167897173Y-112869637D01*
X167905114Y-112836463D01*
X167911776Y-112814371D01*
X167917773Y-112800624D01*
X167923719Y-112792484D01*
X167924894Y-112791345D01*
X167943826Y-112779977D01*
X167980669Y-112762635D01*
X168030913Y-112741050D01*
X168090046Y-112716954D01*
X168153556Y-112692079D01*
X168216932Y-112668157D01*
X168275662Y-112646919D01*
X168325235Y-112630097D01*
X168361139Y-112619422D01*
X168378862Y-112616627D01*
X168379483Y-112616860D01*
X168393970Y-112626331D01*
X168425844Y-112647818D01*
X168471789Y-112679063D01*
X168528485Y-112717807D01*
X168592617Y-112761793D01*
X168610842Y-112774319D01*
X168676914Y-112818984D01*
X168737200Y-112858288D01*
X168788235Y-112890088D01*
X168826560Y-112912245D01*
X168848711Y-112922617D01*
X168851432Y-112923119D01*
X168865736Y-112914405D01*
X168894072Y-112890325D01*
X168933396Y-112853976D01*
X168980661Y-112808453D01*
X169032823Y-112756852D01*
X169086835Y-112702267D01*
X169139653Y-112647794D01*
X169188231Y-112596529D01*
X169229523Y-112551567D01*
X169260485Y-112516004D01*
X169278070Y-112492935D01*
X169280941Y-112486554D01*
X169274178Y-112471699D01*
X169255939Y-112441286D01*
X169229297Y-112400268D01*
X169207852Y-112368709D01*
X169168503Y-112311525D01*
X169122171Y-112243806D01*
X169075913Y-112175880D01*
X169051155Y-112139361D01*
X168967547Y-112015752D01*
X169023650Y-111911991D01*
X169048228Y-111864720D01*
X169067331Y-111824523D01*
X169078227Y-111797326D01*
X169079743Y-111790402D01*
X169068549Y-111782077D01*
X169036917Y-111765654D01*
X168987765Y-111742357D01*
X168924010Y-111713414D01*
X168848571Y-111680050D01*
X168764364Y-111643491D01*
X168674308Y-111604964D01*
X168581321Y-111565694D01*
X168488320Y-111526908D01*
X168398223Y-111489830D01*
X168313948Y-111455689D01*
X168238413Y-111425708D01*
X168174534Y-111401116D01*
X168125231Y-111383136D01*
X168093421Y-111372997D01*
X168082496Y-111371366D01*
X168068561Y-111384291D01*
X168045940Y-111412589D01*
X168019333Y-111450346D01*
X168017228Y-111453515D01*
X167939114Y-111551100D01*
X167847982Y-111629786D01*
X167746745Y-111688891D01*
X167638318Y-111727732D01*
X167525614Y-111745628D01*
X167411548Y-111741897D01*
X167299034Y-111715857D01*
X167190985Y-111666825D01*
X167167345Y-111652400D01*
X167071887Y-111577369D01*
X166995232Y-111488730D01*
X166937780Y-111389549D01*
X166899929Y-111282895D01*
X166882078Y-111171836D01*
X166884625Y-111059439D01*
X166907970Y-110948773D01*
X166952510Y-110842906D01*
X167018645Y-110744905D01*
X167045487Y-110714590D01*
X167129512Y-110637438D01*
X167217966Y-110581218D01*
X167317115Y-110542653D01*
X167415303Y-110521174D01*
X167525697Y-110515872D01*
X167636640Y-110533552D01*
X167744381Y-110572419D01*
X167845169Y-110630677D01*
X167935256Y-110706531D01*
X168010892Y-110798183D01*
X168018864Y-110810228D01*
X168044974Y-110848389D01*
X168067595Y-110877399D01*
X168082039Y-110891268D01*
X168082496Y-110891469D01*
X168098121Y-110888492D01*
X168133582Y-110876689D01*
X168185962Y-110857286D01*
X168252345Y-110831512D01*
X168329814Y-110800591D01*
X168415450Y-110765751D01*
X168506337Y-110728217D01*
X168599559Y-110689217D01*
X168692197Y-110649977D01*
X168781335Y-110611724D01*
X168864055Y-110575683D01*
X168937441Y-110543083D01*
X168998575Y-110515148D01*
X169044541Y-110493105D01*
X169072421Y-110478182D01*
X169079743Y-110472172D01*
X169074041Y-110453809D01*
X169058749Y-110419448D01*
X169036599Y-110375016D01*
X169023650Y-110350583D01*
X168967547Y-110246822D01*
X169051155Y-110123213D01*
X169093987Y-110060114D01*
X169141122Y-109991030D01*
X169185503Y-109926293D01*
X169207852Y-109893866D01*
X169238477Y-109848259D01*
X169262747Y-109809640D01*
X169277587Y-109783048D01*
X169280724Y-109774410D01*
X169272261Y-109761839D01*
X169248636Y-109734016D01*
X169212302Y-109693639D01*
X169165711Y-109643405D01*
X169111317Y-109586012D01*
X169076392Y-109549714D01*
X169013996Y-109486210D01*
X168958188Y-109431327D01*
X168911354Y-109387286D01*
X168875882Y-109356305D01*
X168854161Y-109340602D01*
X168849752Y-109339095D01*
X168832985Y-109346086D01*
X168799082Y-109365406D01*
X168751476Y-109394909D01*
X168693599Y-109432455D01*
X168628884Y-109475900D01*
X168610842Y-109488255D01*
X168545267Y-109533273D01*
X168486228Y-109573660D01*
X168437042Y-109607160D01*
X168401028Y-109631514D01*
X168381502Y-109644464D01*
X168379483Y-109645715D01*
X168363922Y-109643844D01*
X168329709Y-109633913D01*
X168281355Y-109617653D01*
X168223371Y-109596795D01*
X168160270Y-109573073D01*
X168096563Y-109548216D01*
X168036761Y-109523958D01*
X167985376Y-109502029D01*
X167946919Y-109484162D01*
X167925902Y-109472087D01*
X167924894Y-109471229D01*
X167918888Y-109463846D01*
X167912948Y-109451375D01*
X167906460Y-109431080D01*
X167898809Y-109400222D01*
X167889380Y-109356066D01*
X167877559Y-109295874D01*
X167862729Y-109216907D01*
X167844277Y-109116430D01*
X167840310Y-109094675D01*
X167827853Y-109030198D01*
X167815666Y-108973989D01*
X167804926Y-108931013D01*
X167796809Y-108906240D01*
X167794916Y-108902918D01*
X167778138Y-108897444D01*
X167740645Y-108892994D01*
X167686794Y-108889572D01*
X167620944Y-108887181D01*
X167547453Y-108885823D01*
X167470680Y-108885501D01*
X167394983Y-108886219D01*
X167324720Y-108887979D01*
X167264250Y-108890784D01*
X167217930Y-108894638D01*
X167190119Y-108899543D01*
X167184427Y-108902500D01*
X167178686Y-108918963D01*
X167169345Y-108956449D01*
X167157215Y-109011225D01*
X167143107Y-109079555D01*
X167127830Y-109157706D01*
X167119823Y-109200284D01*
X167104721Y-109281071D01*
X167091040Y-109353113D01*
X167079467Y-109412889D01*
X167070687Y-109456879D01*
X167065387Y-109481561D01*
X167064212Y-109485623D01*
X167050965Y-109492489D01*
X167019057Y-109507002D01*
X166973047Y-109527229D01*
X166917492Y-109551234D01*
X166856953Y-109577082D01*
X166795986Y-109602840D01*
X166739151Y-109626573D01*
X166691006Y-109646346D01*
X166656110Y-109660224D01*
X166639021Y-109666274D01*
X166638274Y-109666386D01*
X166624793Y-109659528D01*
X166593770Y-109640302D01*
X166548289Y-109610728D01*
X166491432Y-109572827D01*
X166426283Y-109528620D01*
X166388862Y-109502921D01*
X166320247Y-109456093D01*
X166257952Y-109414501D01*
X166205129Y-109380175D01*
X166164927Y-109355143D01*
X166140500Y-109341435D01*
X166135024Y-109339456D01*
X166122278Y-109347966D01*
X166095063Y-109371493D01*
X166056428Y-109407032D01*
X166009423Y-109451577D01*
X165957095Y-109502123D01*
X165902495Y-109555664D01*
X165848670Y-109609195D01*
X165798670Y-109659711D01*
X165755543Y-109704206D01*
X165722339Y-109739675D01*
X165702106Y-109763113D01*
X165697278Y-109770954D01*
X165704067Y-109783720D01*
X165723142Y-109814256D01*
X165752561Y-109859590D01*
X165790381Y-109916756D01*
X165834661Y-109982784D01*
X165868395Y-110032590D01*
X166039512Y-110284236D01*
X165953041Y-110493999D01*
X165866570Y-110703763D01*
X165565018Y-110760611D01*
X165263466Y-110817460D01*
X165263466Y-111445115D01*
X165565018Y-111501964D01*
M02*
