M48
INCH,TZ
T1C0.016
T2C0.039
%
G90
G05
T1
X65113Y-48771
X67404Y-48446
X67443Y-45563
X68020Y-44679
X68293Y-45862
X68391Y-44085
X69600Y-48235
X69804Y-44466
X72152Y-44171
X72292Y-48170
T2
X66000Y-41500
X66000Y-53500
X67000Y-41500
X67000Y-53500
X68000Y-41500
X68000Y-53500
X69000Y-41500
X69000Y-53500
X70000Y-41500
X70000Y-53500
X71000Y-41500
X71000Y-53500
X72000Y-41500
X72000Y-53500
X73000Y-41500
X73000Y-53500
T0
M30
