G04 #@! TF.FileFunction,Copper,L1,Top,Signal*
%FSLAX46Y46*%
G04 Gerber Fmt 4.6, Leading zero omitted, Abs format (unit mm)*
G04 Created by KiCad (PCBNEW 4.0.7-e2-6376~58~ubuntu17.04.1) date Thu Oct  5 13:20:25 2017*
%MOMM*%
%LPD*%
G01*
G04 APERTURE LIST*
%ADD10C,0.100000*%
%ADD11R,0.750000X1.200000*%
%ADD12R,0.970000X1.270000*%
%ADD13R,1.700000X1.700000*%
%ADD14O,1.700000X1.700000*%
%ADD15R,1.270000X0.970000*%
%ADD16R,1.200000X0.900000*%
%ADD17R,0.700000X1.300000*%
%ADD18R,0.600000X0.500000*%
%ADD19R,0.500000X0.600000*%
%ADD20R,0.850000X0.450000*%
%ADD21R,1.600000X2.500000*%
%ADD22C,0.600000*%
%ADD23C,0.250000*%
G04 APERTURE END LIST*
D10*
D11*
X174625000Y-113980000D03*
X174625000Y-112080000D03*
X175895000Y-124775000D03*
X175895000Y-122875000D03*
X184150000Y-113980000D03*
X184150000Y-112080000D03*
X172085000Y-124775000D03*
X172085000Y-122875000D03*
D12*
X166365000Y-117475000D03*
X167645000Y-117475000D03*
D13*
X167640000Y-135890000D03*
D14*
X170180000Y-135890000D03*
X172720000Y-135890000D03*
X175260000Y-135890000D03*
X177800000Y-135890000D03*
X180340000Y-135890000D03*
X182880000Y-135890000D03*
X185420000Y-135890000D03*
D13*
X167640000Y-105410000D03*
D14*
X170180000Y-105410000D03*
X172720000Y-105410000D03*
X175260000Y-105410000D03*
X177800000Y-105410000D03*
X180340000Y-105410000D03*
X182880000Y-105410000D03*
X185420000Y-105410000D03*
D15*
X184785000Y-121285000D03*
X184785000Y-122555000D03*
X184785000Y-123825000D03*
X180340000Y-121285000D03*
X180340000Y-122555000D03*
X180340000Y-123825000D03*
D16*
X170985000Y-117475000D03*
X173185000Y-117475000D03*
D17*
X169230000Y-114580000D03*
X170180000Y-114580000D03*
X171130000Y-114580000D03*
X171130000Y-111480000D03*
X170180000Y-111480000D03*
X169230000Y-111480000D03*
D18*
X166140000Y-125275000D03*
X167640000Y-125275000D03*
X169140000Y-125275000D03*
X169140000Y-122375000D03*
X167640000Y-122375000D03*
X166140000Y-122375000D03*
D19*
X166140000Y-123825000D03*
D20*
X178255000Y-112030000D03*
X178255000Y-113030000D03*
X178255000Y-114030000D03*
X181155000Y-114030000D03*
X181155000Y-113030000D03*
X181155000Y-112030000D03*
D21*
X179705000Y-113030000D03*
D22*
X173465100Y-116489100D03*
X183267300Y-112195000D03*
X176783300Y-122517500D03*
X183621600Y-122351900D03*
X171305100Y-115730400D03*
X171207200Y-123052500D03*
X173711900Y-111977000D03*
X177301600Y-112943400D03*
X165387800Y-123877500D03*
X172769800Y-113483500D03*
D23*
X175895000Y-124775000D02*
X176595300Y-124775000D01*
X174625000Y-118364700D02*
X174625000Y-113980000D01*
X178815300Y-122555000D02*
X174625000Y-118364700D01*
X178815300Y-122555000D02*
X176595300Y-124775000D01*
X167640000Y-125275000D02*
X167640000Y-124699700D01*
X165480400Y-117549300D02*
X165554700Y-117475000D01*
X165480400Y-122751200D02*
X165480400Y-117549300D01*
X165723200Y-122994000D02*
X165480400Y-122751200D01*
X166339500Y-122994000D02*
X165723200Y-122994000D01*
X167640000Y-124294500D02*
X166339500Y-122994000D01*
X167640000Y-124699700D02*
X167640000Y-124294500D01*
X184150000Y-113980000D02*
X183449700Y-113980000D01*
X178815300Y-122555000D02*
X180340000Y-122555000D01*
X182255200Y-113980000D02*
X183449700Y-113980000D01*
X182255200Y-121600100D02*
X182255200Y-113980000D01*
X181300300Y-122555000D02*
X182255200Y-121600100D01*
X181905300Y-113630100D02*
X181905300Y-113030000D01*
X182255200Y-113980000D02*
X181905300Y-113630100D01*
X180340000Y-122555000D02*
X181300300Y-122555000D01*
X181155000Y-113030000D02*
X181905300Y-113030000D01*
X166365000Y-117475000D02*
X165959900Y-117475000D01*
X165959900Y-117475000D02*
X165554700Y-117475000D01*
X167879600Y-115555300D02*
X169230000Y-115555300D01*
X165959900Y-117475000D02*
X167879600Y-115555300D01*
X169230000Y-114580000D02*
X169230000Y-115555300D01*
X175895000Y-124775000D02*
X172085000Y-124775000D01*
X172085000Y-124775000D02*
X171384700Y-124775000D01*
X170884700Y-125275000D02*
X169140000Y-125275000D01*
X171384700Y-124775000D02*
X170884700Y-125275000D01*
X169140000Y-125275000D02*
X167640000Y-125275000D01*
X173185000Y-117475000D02*
X173185000Y-116699700D01*
X173254500Y-116699700D02*
X173185000Y-116699700D01*
X173465100Y-116489100D02*
X173254500Y-116699700D01*
X184150000Y-112080000D02*
X183449700Y-112080000D01*
X183334700Y-112195000D02*
X183449700Y-112080000D01*
X183267300Y-112195000D02*
X183334700Y-112195000D01*
X175895000Y-122875000D02*
X176595300Y-122875000D01*
X176595300Y-122705500D02*
X176595300Y-122875000D01*
X176783300Y-122517500D02*
X176595300Y-122705500D01*
X184785000Y-122555000D02*
X183824700Y-122555000D01*
X183621600Y-122351900D02*
X183824700Y-122555000D01*
X171130000Y-114580000D02*
X171130000Y-115555300D01*
X171305100Y-115730400D02*
X171130000Y-115555300D01*
X172085000Y-122875000D02*
X171384700Y-122875000D01*
X171207200Y-123052500D02*
X171384700Y-122875000D01*
X173821700Y-111977000D02*
X173924700Y-112080000D01*
X173711900Y-111977000D02*
X173821700Y-111977000D01*
X174625000Y-112080000D02*
X173924700Y-112080000D01*
X178255000Y-113030000D02*
X177504700Y-113030000D01*
X177418100Y-112943400D02*
X177504700Y-113030000D01*
X177301600Y-112943400D02*
X177418100Y-112943400D01*
X165512200Y-123877500D02*
X165564700Y-123825000D01*
X165387800Y-123877500D02*
X165512200Y-123877500D01*
X166140000Y-123825000D02*
X165564700Y-123825000D01*
X170985000Y-117475000D02*
X170985000Y-117087300D01*
X170180000Y-114580000D02*
X170180000Y-115555300D01*
X167645000Y-117475000D02*
X168455300Y-117475000D01*
X170180000Y-116782700D02*
X170180000Y-115555300D01*
X170680400Y-116782700D02*
X170180000Y-116782700D01*
X170985000Y-117087300D02*
X170680400Y-116782700D01*
X169147600Y-116782700D02*
X168455300Y-117475000D01*
X170180000Y-116782700D02*
X169147600Y-116782700D01*
X164760600Y-131835300D02*
X167640000Y-134714700D01*
X164760600Y-117432800D02*
X164760600Y-131835300D01*
X169738100Y-112455300D02*
X164760600Y-117432800D01*
X170180000Y-112455300D02*
X169738100Y-112455300D01*
X170180000Y-111480000D02*
X170180000Y-112455300D01*
X167640000Y-135890000D02*
X167640000Y-134714700D01*
X170260600Y-134714700D02*
X170180000Y-134714700D01*
X180340000Y-124635300D02*
X170260600Y-134714700D01*
X180340000Y-123825000D02*
X180340000Y-124635300D01*
X170180000Y-135890000D02*
X170180000Y-134714700D01*
X184785000Y-125189700D02*
X175260000Y-134714700D01*
X184785000Y-123825000D02*
X184785000Y-125189700D01*
X175260000Y-135890000D02*
X175260000Y-134714700D01*
X176415000Y-110280300D02*
X172720000Y-106585300D01*
X176415000Y-116549700D02*
X176415000Y-110280300D01*
X180340000Y-120474700D02*
X176415000Y-116549700D01*
X180340000Y-121285000D02*
X180340000Y-120474700D01*
X172720000Y-105410000D02*
X172720000Y-106585300D01*
X178975300Y-105042600D02*
X178975300Y-105410000D01*
X179783200Y-104234700D02*
X178975300Y-105042600D01*
X183412900Y-104234700D02*
X179783200Y-104234700D01*
X184150000Y-104971800D02*
X183412900Y-104234700D01*
X184150000Y-107642900D02*
X184150000Y-104971800D01*
X184850400Y-108343300D02*
X184150000Y-107642900D01*
X184850400Y-120409300D02*
X184850400Y-108343300D01*
X184785000Y-120474700D02*
X184850400Y-120409300D01*
X184785000Y-121285000D02*
X184785000Y-120474700D01*
X177800000Y-105410000D02*
X178975300Y-105410000D01*
X166140000Y-122375000D02*
X166765300Y-122375000D01*
X169230000Y-111480000D02*
X169230000Y-110504700D01*
X180340000Y-105410000D02*
X180340000Y-106585300D01*
X178255000Y-112030000D02*
X178255000Y-108670300D01*
X178255000Y-108670300D02*
X180340000Y-106585300D01*
X171534200Y-104924200D02*
X171534200Y-110504700D01*
X172256700Y-104201700D02*
X171534200Y-104924200D01*
X173202400Y-104201700D02*
X172256700Y-104201700D01*
X173990000Y-104989300D02*
X173202400Y-104201700D01*
X173990000Y-105910900D02*
X173990000Y-104989300D01*
X176749400Y-108670300D02*
X173990000Y-105910900D01*
X178255000Y-108670300D02*
X176749400Y-108670300D01*
X169230000Y-110504700D02*
X171534200Y-110504700D01*
X171664900Y-110504700D02*
X171534200Y-110504700D01*
X173048800Y-111888600D02*
X171664900Y-110504700D01*
X173048800Y-112878100D02*
X173048800Y-111888600D01*
X173395100Y-113224400D02*
X173048800Y-112878100D01*
X173395100Y-114435200D02*
X173395100Y-113224400D01*
X174110400Y-115150500D02*
X173395100Y-114435200D01*
X174110400Y-118487800D02*
X174110400Y-115150500D01*
X169647800Y-122950400D02*
X174110400Y-118487800D01*
X167144200Y-122950400D02*
X169647800Y-122950400D01*
X166765300Y-122571500D02*
X167144200Y-122950400D01*
X166765300Y-122375000D02*
X166765300Y-122571500D01*
X171130000Y-111480000D02*
X171130000Y-112455300D01*
X167640000Y-122375000D02*
X167640000Y-121799700D01*
X172355600Y-113680800D02*
X171130000Y-112455300D01*
X171930500Y-114105900D02*
X172355600Y-113680800D01*
X171930500Y-118084500D02*
X171930500Y-114105900D01*
X168215300Y-121799700D02*
X171930500Y-118084500D01*
X167640000Y-121799700D02*
X168215300Y-121799700D01*
X172552900Y-113483500D02*
X172769800Y-113483500D01*
X172355600Y-113680800D02*
X172552900Y-113483500D01*
X181905300Y-107560000D02*
X182880000Y-106585300D01*
X181905300Y-112030000D02*
X181905300Y-107560000D01*
X181155000Y-112030000D02*
X181905300Y-112030000D01*
X182880000Y-105410000D02*
X182880000Y-106585300D01*
M02*
