G04 #@! TF.FileFunction,Soldermask,Top*
%FSLAX46Y46*%
G04 Gerber Fmt 4.6, Leading zero omitted, Abs format (unit mm)*
G04 Created by KiCad (PCBNEW 4.0.7-e2-6376~58~ubuntu17.04.1) date Fri Oct 27 10:19:20 2017*
%MOMM*%
%LPD*%
G01*
G04 APERTURE LIST*
%ADD10C,0.100000*%
%ADD11R,1.150000X1.600000*%
%ADD12R,1.370000X1.670000*%
%ADD13R,2.100000X2.100000*%
%ADD14O,2.100000X2.100000*%
%ADD15R,1.670000X1.370000*%
%ADD16R,1.600000X1.300000*%
%ADD17R,1.100000X1.700000*%
%ADD18R,1.000000X0.900000*%
%ADD19R,0.900000X1.000000*%
%ADD20R,1.250000X0.850000*%
%ADD21R,2.000000X2.900000*%
G04 APERTURE END LIST*
D10*
D11*
X168275000Y-113345000D03*
X168275000Y-111445000D03*
X177800000Y-120330000D03*
X177800000Y-118430000D03*
X180975000Y-113345000D03*
X180975000Y-111445000D03*
X173990000Y-120330000D03*
X173990000Y-118430000D03*
D12*
X165095000Y-124460000D03*
X166375000Y-124460000D03*
D13*
X167640000Y-135255000D03*
D14*
X170180000Y-135255000D03*
X172720000Y-135255000D03*
X175260000Y-135255000D03*
X177800000Y-135255000D03*
X180340000Y-135255000D03*
X182880000Y-135255000D03*
X185420000Y-135255000D03*
D13*
X167640000Y-106045000D03*
D14*
X170180000Y-106045000D03*
X172720000Y-106045000D03*
X175260000Y-106045000D03*
X177800000Y-106045000D03*
X180340000Y-106045000D03*
X182880000Y-106045000D03*
X185420000Y-106045000D03*
D15*
X184785000Y-127000000D03*
X184785000Y-128270000D03*
X184785000Y-129540000D03*
X180340000Y-127000000D03*
X180340000Y-128270000D03*
X180340000Y-129540000D03*
D16*
X170985000Y-124460000D03*
X173185000Y-124460000D03*
D17*
X167325000Y-120930000D03*
X168275000Y-120930000D03*
X169225000Y-120930000D03*
X169225000Y-117830000D03*
X168275000Y-117830000D03*
X167325000Y-117830000D03*
D18*
X182015000Y-120830000D03*
X183515000Y-120830000D03*
X185015000Y-120830000D03*
X185015000Y-117930000D03*
X183515000Y-117930000D03*
X182015000Y-117930000D03*
D19*
X182015000Y-119380000D03*
D20*
X173175000Y-111395000D03*
X173175000Y-112395000D03*
X173175000Y-113395000D03*
X176075000Y-113395000D03*
X176075000Y-112395000D03*
X176075000Y-111395000D03*
D21*
X174625000Y-112395000D03*
M02*
