G04 #@! TF.FileFunction,Copper,L2,Bot,Signal*
%FSLAX46Y46*%
G04 Gerber Fmt 4.6, Leading zero omitted, Abs format (unit mm)*
G04 Created by KiCad (PCBNEW 4.0.7-e2-6376~58~ubuntu17.04.1) date Thu Oct  5 13:20:25 2017*
%MOMM*%
%LPD*%
G01*
G04 APERTURE LIST*
%ADD10C,0.100000*%
%ADD11R,1.700000X1.700000*%
%ADD12O,1.700000X1.700000*%
%ADD13C,0.600000*%
%ADD14C,0.250000*%
%ADD15C,0.254000*%
G04 APERTURE END LIST*
D10*
D11*
X167640000Y-135890000D03*
D12*
X170180000Y-135890000D03*
X172720000Y-135890000D03*
X175260000Y-135890000D03*
X177800000Y-135890000D03*
X180340000Y-135890000D03*
X182880000Y-135890000D03*
X185420000Y-135890000D03*
D11*
X167640000Y-105410000D03*
D12*
X170180000Y-105410000D03*
X172720000Y-105410000D03*
X175260000Y-105410000D03*
X177800000Y-105410000D03*
X180340000Y-105410000D03*
X182880000Y-105410000D03*
X185420000Y-105410000D03*
D13*
X173465100Y-116489100D03*
X183267300Y-112195000D03*
X176783300Y-122517500D03*
X183621600Y-122351900D03*
X171305100Y-115730400D03*
X171207200Y-123052500D03*
X173711900Y-111977000D03*
X177301600Y-112943400D03*
X165387800Y-123877500D03*
X172769800Y-113483500D03*
D14*
X170180000Y-105410000D02*
X171355300Y-105410000D01*
X172720000Y-105410000D02*
X171355300Y-105410000D01*
X177800000Y-105410000D02*
X175260000Y-105410000D01*
X173998500Y-113483500D02*
X172769800Y-113483500D01*
X181704700Y-105777300D02*
X173998500Y-113483500D01*
X181704700Y-105410000D02*
X181704700Y-105777300D01*
X182880000Y-105410000D02*
X181704700Y-105410000D01*
D15*
G36*
X186615000Y-104547781D02*
X186470054Y-104330853D01*
X185988285Y-104008946D01*
X185420000Y-103895907D01*
X184851715Y-104008946D01*
X184369946Y-104330853D01*
X184150000Y-104660026D01*
X183930054Y-104330853D01*
X183448285Y-104008946D01*
X182880000Y-103895907D01*
X182311715Y-104008946D01*
X181829946Y-104330853D01*
X181610000Y-104660026D01*
X181390054Y-104330853D01*
X180908285Y-104008946D01*
X180340000Y-103895907D01*
X179771715Y-104008946D01*
X179289946Y-104330853D01*
X179070000Y-104660026D01*
X178850054Y-104330853D01*
X178368285Y-104008946D01*
X177800000Y-103895907D01*
X177231715Y-104008946D01*
X176749946Y-104330853D01*
X176536699Y-104650000D01*
X176523301Y-104650000D01*
X176310054Y-104330853D01*
X175828285Y-104008946D01*
X175260000Y-103895907D01*
X174691715Y-104008946D01*
X174209946Y-104330853D01*
X173990000Y-104660026D01*
X173770054Y-104330853D01*
X173288285Y-104008946D01*
X172720000Y-103895907D01*
X172151715Y-104008946D01*
X171669946Y-104330853D01*
X171456699Y-104650000D01*
X171443301Y-104650000D01*
X171230054Y-104330853D01*
X170748285Y-104008946D01*
X170180000Y-103895907D01*
X169611715Y-104008946D01*
X169129946Y-104330853D01*
X169102150Y-104372452D01*
X169093162Y-104324683D01*
X168954090Y-104108559D01*
X168741890Y-103963569D01*
X168490000Y-103912560D01*
X166790000Y-103912560D01*
X166554683Y-103956838D01*
X166338559Y-104095910D01*
X166193569Y-104308110D01*
X166142560Y-104560000D01*
X166142560Y-106260000D01*
X166186838Y-106495317D01*
X166325910Y-106711441D01*
X166538110Y-106856431D01*
X166790000Y-106907440D01*
X168490000Y-106907440D01*
X168725317Y-106863162D01*
X168941441Y-106724090D01*
X169086431Y-106511890D01*
X169100086Y-106444459D01*
X169129946Y-106489147D01*
X169611715Y-106811054D01*
X170180000Y-106924093D01*
X170748285Y-106811054D01*
X171230054Y-106489147D01*
X171443301Y-106170000D01*
X171456699Y-106170000D01*
X171669946Y-106489147D01*
X172151715Y-106811054D01*
X172720000Y-106924093D01*
X173288285Y-106811054D01*
X173770054Y-106489147D01*
X173990000Y-106159974D01*
X174209946Y-106489147D01*
X174691715Y-106811054D01*
X175260000Y-106924093D01*
X175828285Y-106811054D01*
X176310054Y-106489147D01*
X176523301Y-106170000D01*
X176536699Y-106170000D01*
X176749946Y-106489147D01*
X177231715Y-106811054D01*
X177800000Y-106924093D01*
X178368285Y-106811054D01*
X178850054Y-106489147D01*
X179070000Y-106159974D01*
X179289946Y-106489147D01*
X179666468Y-106740730D01*
X173683698Y-112723500D01*
X173332263Y-112723500D01*
X173300127Y-112691308D01*
X172956599Y-112548662D01*
X172584633Y-112548338D01*
X172240857Y-112690383D01*
X171977608Y-112953173D01*
X171834962Y-113296701D01*
X171834638Y-113668667D01*
X171976683Y-114012443D01*
X172239473Y-114275692D01*
X172583001Y-114418338D01*
X172954967Y-114418662D01*
X173298743Y-114276617D01*
X173331918Y-114243500D01*
X173998500Y-114243500D01*
X174289339Y-114185648D01*
X174535901Y-114020901D01*
X181972442Y-106584360D01*
X182311715Y-106811054D01*
X182880000Y-106924093D01*
X183448285Y-106811054D01*
X183930054Y-106489147D01*
X184150000Y-106159974D01*
X184369946Y-106489147D01*
X184851715Y-106811054D01*
X185420000Y-106924093D01*
X185988285Y-106811054D01*
X186470054Y-106489147D01*
X186615000Y-106272219D01*
X186615000Y-135027781D01*
X186470054Y-134810853D01*
X185988285Y-134488946D01*
X185420000Y-134375907D01*
X184851715Y-134488946D01*
X184369946Y-134810853D01*
X184150000Y-135140026D01*
X183930054Y-134810853D01*
X183448285Y-134488946D01*
X182880000Y-134375907D01*
X182311715Y-134488946D01*
X181829946Y-134810853D01*
X181610000Y-135140026D01*
X181390054Y-134810853D01*
X180908285Y-134488946D01*
X180340000Y-134375907D01*
X179771715Y-134488946D01*
X179289946Y-134810853D01*
X179070000Y-135140026D01*
X178850054Y-134810853D01*
X178368285Y-134488946D01*
X177800000Y-134375907D01*
X177231715Y-134488946D01*
X176749946Y-134810853D01*
X176530000Y-135140026D01*
X176310054Y-134810853D01*
X175828285Y-134488946D01*
X175260000Y-134375907D01*
X174691715Y-134488946D01*
X174209946Y-134810853D01*
X173990000Y-135140026D01*
X173770054Y-134810853D01*
X173288285Y-134488946D01*
X172720000Y-134375907D01*
X172151715Y-134488946D01*
X171669946Y-134810853D01*
X171450000Y-135140026D01*
X171230054Y-134810853D01*
X170748285Y-134488946D01*
X170180000Y-134375907D01*
X169611715Y-134488946D01*
X169129946Y-134810853D01*
X169102150Y-134852452D01*
X169093162Y-134804683D01*
X168954090Y-134588559D01*
X168741890Y-134443569D01*
X168490000Y-134392560D01*
X166790000Y-134392560D01*
X166554683Y-134436838D01*
X166338559Y-134575910D01*
X166193569Y-134788110D01*
X166142560Y-135040000D01*
X166142560Y-136740000D01*
X166186838Y-136975317D01*
X166325910Y-137191441D01*
X166538110Y-137336431D01*
X166790000Y-137387440D01*
X168490000Y-137387440D01*
X168725317Y-137343162D01*
X168941441Y-137204090D01*
X169086431Y-136991890D01*
X169100086Y-136924459D01*
X169129946Y-136969147D01*
X169611715Y-137291054D01*
X170180000Y-137404093D01*
X170748285Y-137291054D01*
X171230054Y-136969147D01*
X171450000Y-136639974D01*
X171669946Y-136969147D01*
X172151715Y-137291054D01*
X172720000Y-137404093D01*
X173288285Y-137291054D01*
X173770054Y-136969147D01*
X173990000Y-136639974D01*
X174209946Y-136969147D01*
X174691715Y-137291054D01*
X175260000Y-137404093D01*
X175828285Y-137291054D01*
X176310054Y-136969147D01*
X176530000Y-136639974D01*
X176749946Y-136969147D01*
X177231715Y-137291054D01*
X177800000Y-137404093D01*
X178368285Y-137291054D01*
X178850054Y-136969147D01*
X179070000Y-136639974D01*
X179289946Y-136969147D01*
X179771715Y-137291054D01*
X180340000Y-137404093D01*
X180908285Y-137291054D01*
X181390054Y-136969147D01*
X181610000Y-136639974D01*
X181829946Y-136969147D01*
X182311715Y-137291054D01*
X182880000Y-137404093D01*
X183448285Y-137291054D01*
X183930054Y-136969147D01*
X184150000Y-136639974D01*
X184369946Y-136969147D01*
X184851715Y-137291054D01*
X185420000Y-137404093D01*
X185988285Y-137291054D01*
X186470054Y-136969147D01*
X186615000Y-136752219D01*
X186615000Y-137720000D01*
X166664091Y-137720000D01*
X164540000Y-135595908D01*
X164540000Y-105704092D01*
X166664091Y-103580000D01*
X186615000Y-103580000D01*
X186615000Y-104547781D01*
X186615000Y-104547781D01*
G37*
X186615000Y-104547781D02*
X186470054Y-104330853D01*
X185988285Y-104008946D01*
X185420000Y-103895907D01*
X184851715Y-104008946D01*
X184369946Y-104330853D01*
X184150000Y-104660026D01*
X183930054Y-104330853D01*
X183448285Y-104008946D01*
X182880000Y-103895907D01*
X182311715Y-104008946D01*
X181829946Y-104330853D01*
X181610000Y-104660026D01*
X181390054Y-104330853D01*
X180908285Y-104008946D01*
X180340000Y-103895907D01*
X179771715Y-104008946D01*
X179289946Y-104330853D01*
X179070000Y-104660026D01*
X178850054Y-104330853D01*
X178368285Y-104008946D01*
X177800000Y-103895907D01*
X177231715Y-104008946D01*
X176749946Y-104330853D01*
X176536699Y-104650000D01*
X176523301Y-104650000D01*
X176310054Y-104330853D01*
X175828285Y-104008946D01*
X175260000Y-103895907D01*
X174691715Y-104008946D01*
X174209946Y-104330853D01*
X173990000Y-104660026D01*
X173770054Y-104330853D01*
X173288285Y-104008946D01*
X172720000Y-103895907D01*
X172151715Y-104008946D01*
X171669946Y-104330853D01*
X171456699Y-104650000D01*
X171443301Y-104650000D01*
X171230054Y-104330853D01*
X170748285Y-104008946D01*
X170180000Y-103895907D01*
X169611715Y-104008946D01*
X169129946Y-104330853D01*
X169102150Y-104372452D01*
X169093162Y-104324683D01*
X168954090Y-104108559D01*
X168741890Y-103963569D01*
X168490000Y-103912560D01*
X166790000Y-103912560D01*
X166554683Y-103956838D01*
X166338559Y-104095910D01*
X166193569Y-104308110D01*
X166142560Y-104560000D01*
X166142560Y-106260000D01*
X166186838Y-106495317D01*
X166325910Y-106711441D01*
X166538110Y-106856431D01*
X166790000Y-106907440D01*
X168490000Y-106907440D01*
X168725317Y-106863162D01*
X168941441Y-106724090D01*
X169086431Y-106511890D01*
X169100086Y-106444459D01*
X169129946Y-106489147D01*
X169611715Y-106811054D01*
X170180000Y-106924093D01*
X170748285Y-106811054D01*
X171230054Y-106489147D01*
X171443301Y-106170000D01*
X171456699Y-106170000D01*
X171669946Y-106489147D01*
X172151715Y-106811054D01*
X172720000Y-106924093D01*
X173288285Y-106811054D01*
X173770054Y-106489147D01*
X173990000Y-106159974D01*
X174209946Y-106489147D01*
X174691715Y-106811054D01*
X175260000Y-106924093D01*
X175828285Y-106811054D01*
X176310054Y-106489147D01*
X176523301Y-106170000D01*
X176536699Y-106170000D01*
X176749946Y-106489147D01*
X177231715Y-106811054D01*
X177800000Y-106924093D01*
X178368285Y-106811054D01*
X178850054Y-106489147D01*
X179070000Y-106159974D01*
X179289946Y-106489147D01*
X179666468Y-106740730D01*
X173683698Y-112723500D01*
X173332263Y-112723500D01*
X173300127Y-112691308D01*
X172956599Y-112548662D01*
X172584633Y-112548338D01*
X172240857Y-112690383D01*
X171977608Y-112953173D01*
X171834962Y-113296701D01*
X171834638Y-113668667D01*
X171976683Y-114012443D01*
X172239473Y-114275692D01*
X172583001Y-114418338D01*
X172954967Y-114418662D01*
X173298743Y-114276617D01*
X173331918Y-114243500D01*
X173998500Y-114243500D01*
X174289339Y-114185648D01*
X174535901Y-114020901D01*
X181972442Y-106584360D01*
X182311715Y-106811054D01*
X182880000Y-106924093D01*
X183448285Y-106811054D01*
X183930054Y-106489147D01*
X184150000Y-106159974D01*
X184369946Y-106489147D01*
X184851715Y-106811054D01*
X185420000Y-106924093D01*
X185988285Y-106811054D01*
X186470054Y-106489147D01*
X186615000Y-106272219D01*
X186615000Y-135027781D01*
X186470054Y-134810853D01*
X185988285Y-134488946D01*
X185420000Y-134375907D01*
X184851715Y-134488946D01*
X184369946Y-134810853D01*
X184150000Y-135140026D01*
X183930054Y-134810853D01*
X183448285Y-134488946D01*
X182880000Y-134375907D01*
X182311715Y-134488946D01*
X181829946Y-134810853D01*
X181610000Y-135140026D01*
X181390054Y-134810853D01*
X180908285Y-134488946D01*
X180340000Y-134375907D01*
X179771715Y-134488946D01*
X179289946Y-134810853D01*
X179070000Y-135140026D01*
X178850054Y-134810853D01*
X178368285Y-134488946D01*
X177800000Y-134375907D01*
X177231715Y-134488946D01*
X176749946Y-134810853D01*
X176530000Y-135140026D01*
X176310054Y-134810853D01*
X175828285Y-134488946D01*
X175260000Y-134375907D01*
X174691715Y-134488946D01*
X174209946Y-134810853D01*
X173990000Y-135140026D01*
X173770054Y-134810853D01*
X173288285Y-134488946D01*
X172720000Y-134375907D01*
X172151715Y-134488946D01*
X171669946Y-134810853D01*
X171450000Y-135140026D01*
X171230054Y-134810853D01*
X170748285Y-134488946D01*
X170180000Y-134375907D01*
X169611715Y-134488946D01*
X169129946Y-134810853D01*
X169102150Y-134852452D01*
X169093162Y-134804683D01*
X168954090Y-134588559D01*
X168741890Y-134443569D01*
X168490000Y-134392560D01*
X166790000Y-134392560D01*
X166554683Y-134436838D01*
X166338559Y-134575910D01*
X166193569Y-134788110D01*
X166142560Y-135040000D01*
X166142560Y-136740000D01*
X166186838Y-136975317D01*
X166325910Y-137191441D01*
X166538110Y-137336431D01*
X166790000Y-137387440D01*
X168490000Y-137387440D01*
X168725317Y-137343162D01*
X168941441Y-137204090D01*
X169086431Y-136991890D01*
X169100086Y-136924459D01*
X169129946Y-136969147D01*
X169611715Y-137291054D01*
X170180000Y-137404093D01*
X170748285Y-137291054D01*
X171230054Y-136969147D01*
X171450000Y-136639974D01*
X171669946Y-136969147D01*
X172151715Y-137291054D01*
X172720000Y-137404093D01*
X173288285Y-137291054D01*
X173770054Y-136969147D01*
X173990000Y-136639974D01*
X174209946Y-136969147D01*
X174691715Y-137291054D01*
X175260000Y-137404093D01*
X175828285Y-137291054D01*
X176310054Y-136969147D01*
X176530000Y-136639974D01*
X176749946Y-136969147D01*
X177231715Y-137291054D01*
X177800000Y-137404093D01*
X178368285Y-137291054D01*
X178850054Y-136969147D01*
X179070000Y-136639974D01*
X179289946Y-136969147D01*
X179771715Y-137291054D01*
X180340000Y-137404093D01*
X180908285Y-137291054D01*
X181390054Y-136969147D01*
X181610000Y-136639974D01*
X181829946Y-136969147D01*
X182311715Y-137291054D01*
X182880000Y-137404093D01*
X183448285Y-137291054D01*
X183930054Y-136969147D01*
X184150000Y-136639974D01*
X184369946Y-136969147D01*
X184851715Y-137291054D01*
X185420000Y-137404093D01*
X185988285Y-137291054D01*
X186470054Y-136969147D01*
X186615000Y-136752219D01*
X186615000Y-137720000D01*
X166664091Y-137720000D01*
X164540000Y-135595908D01*
X164540000Y-105704092D01*
X166664091Y-103580000D01*
X186615000Y-103580000D01*
X186615000Y-104547781D01*
M02*
