G04 #@! TF.FileFunction,Copper,L1,Top,Signal*
%FSLAX46Y46*%
G04 Gerber Fmt 4.6, Leading zero omitted, Abs format (unit mm)*
G04 Created by KiCad (PCBNEW 4.0.7-e2-6376~58~ubuntu17.04.1) date Fri Oct 27 10:19:20 2017*
%MOMM*%
%LPD*%
G01*
G04 APERTURE LIST*
%ADD10C,0.100000*%
%ADD11R,0.750000X1.200000*%
%ADD12R,0.970000X1.270000*%
%ADD13R,1.700000X1.700000*%
%ADD14O,1.700000X1.700000*%
%ADD15R,1.270000X0.970000*%
%ADD16R,1.200000X0.900000*%
%ADD17R,0.700000X1.300000*%
%ADD18R,0.600000X0.500000*%
%ADD19R,0.500000X0.600000*%
%ADD20R,0.850000X0.450000*%
%ADD21R,1.600000X2.500000*%
%ADD22C,0.600000*%
%ADD23C,0.250000*%
G04 APERTURE END LIST*
D10*
D11*
X168275000Y-113345000D03*
X168275000Y-111445000D03*
X177800000Y-120330000D03*
X177800000Y-118430000D03*
X180975000Y-113345000D03*
X180975000Y-111445000D03*
X173990000Y-120330000D03*
X173990000Y-118430000D03*
D12*
X165095000Y-124460000D03*
X166375000Y-124460000D03*
D13*
X167640000Y-135255000D03*
D14*
X170180000Y-135255000D03*
X172720000Y-135255000D03*
X175260000Y-135255000D03*
X177800000Y-135255000D03*
X180340000Y-135255000D03*
X182880000Y-135255000D03*
X185420000Y-135255000D03*
D13*
X167640000Y-106045000D03*
D14*
X170180000Y-106045000D03*
X172720000Y-106045000D03*
X175260000Y-106045000D03*
X177800000Y-106045000D03*
X180340000Y-106045000D03*
X182880000Y-106045000D03*
X185420000Y-106045000D03*
D15*
X184785000Y-127000000D03*
X184785000Y-128270000D03*
X184785000Y-129540000D03*
X180340000Y-127000000D03*
X180340000Y-128270000D03*
X180340000Y-129540000D03*
D16*
X170985000Y-124460000D03*
X173185000Y-124460000D03*
D17*
X167325000Y-120930000D03*
X168275000Y-120930000D03*
X169225000Y-120930000D03*
X169225000Y-117830000D03*
X168275000Y-117830000D03*
X167325000Y-117830000D03*
D18*
X182015000Y-120830000D03*
X183515000Y-120830000D03*
X185015000Y-120830000D03*
X185015000Y-117930000D03*
X183515000Y-117930000D03*
X182015000Y-117930000D03*
D19*
X182015000Y-119380000D03*
D20*
X173175000Y-111395000D03*
X173175000Y-112395000D03*
X173175000Y-113395000D03*
X176075000Y-113395000D03*
X176075000Y-112395000D03*
X176075000Y-111395000D03*
D21*
X174625000Y-112395000D03*
D22*
X185926000Y-128270000D03*
X174907900Y-118402800D03*
X169151900Y-111436100D03*
X174298200Y-124647900D03*
X169225000Y-122086900D03*
X177800000Y-117324000D03*
X172299600Y-112878300D03*
X180082000Y-111325500D03*
X182779200Y-119191100D03*
X177519800Y-111405200D03*
X171134800Y-116338500D03*
D23*
X185015000Y-120830000D02*
X184389700Y-120830000D01*
X183515000Y-120830000D02*
X184389700Y-120830000D01*
X166649600Y-114270100D02*
X167574700Y-113345000D01*
X166649600Y-119279300D02*
X166649600Y-114270100D01*
X167325000Y-119954700D02*
X166649600Y-119279300D01*
X167325000Y-120930000D02*
X167325000Y-119954700D01*
X183515000Y-120830000D02*
X183515000Y-121405300D01*
X183515000Y-126055300D02*
X181300300Y-128270000D01*
X183515000Y-121405300D02*
X183515000Y-126055300D01*
X177800000Y-120330000D02*
X177099700Y-120330000D01*
X173990000Y-120330000D02*
X177099700Y-120330000D01*
X168275000Y-113345000D02*
X167574700Y-113345000D01*
X165095000Y-134882700D02*
X165095000Y-124460000D01*
X166671800Y-136459500D02*
X165095000Y-134882700D01*
X173229800Y-136459500D02*
X166671800Y-136459500D01*
X173990000Y-135699300D02*
X173229800Y-136459500D01*
X173990000Y-134849400D02*
X173990000Y-135699300D01*
X178489100Y-130350300D02*
X173990000Y-134849400D01*
X181127400Y-130350300D02*
X178489100Y-130350300D01*
X181300300Y-130177400D02*
X181127400Y-130350300D01*
X181300300Y-128270000D02*
X181300300Y-130177400D01*
X165730600Y-123499700D02*
X167325000Y-121905300D01*
X165095000Y-123499700D02*
X165730600Y-123499700D01*
X167325000Y-120930000D02*
X167325000Y-121905300D01*
X165095000Y-124460000D02*
X165095000Y-123499700D01*
X180820200Y-128270000D02*
X181300300Y-128270000D01*
X180975000Y-113345000D02*
X180274700Y-113345000D01*
X176075000Y-112395000D02*
X176825300Y-112395000D01*
X177800000Y-120330000D02*
X178500300Y-120330000D01*
X176825300Y-112395000D02*
X179025000Y-114594700D01*
X179025000Y-119805300D02*
X179025000Y-114594700D01*
X178500300Y-120330000D02*
X179025000Y-119805300D01*
X179025000Y-114594700D02*
X180274700Y-113345000D01*
X180820200Y-128270000D02*
X180340000Y-128270000D01*
X179379700Y-121209400D02*
X178500300Y-120330000D01*
X179379700Y-128270000D02*
X179379700Y-121209400D01*
X180340000Y-128270000D02*
X179379700Y-128270000D01*
X184785000Y-128270000D02*
X185926000Y-128270000D01*
X173990000Y-118430000D02*
X174690300Y-118430000D01*
X174717500Y-118402800D02*
X174690300Y-118430000D01*
X174907900Y-118402800D02*
X174717500Y-118402800D01*
X168984200Y-111436100D02*
X168975300Y-111445000D01*
X169151900Y-111436100D02*
X168984200Y-111436100D01*
X168275000Y-111445000D02*
X168975300Y-111445000D01*
X173185000Y-124460000D02*
X174110300Y-124460000D01*
X174298200Y-124647900D02*
X174110300Y-124460000D01*
X169225000Y-122086900D02*
X169225000Y-120930000D01*
X177800000Y-117324000D02*
X177800000Y-118430000D01*
X173175000Y-112395000D02*
X172424700Y-112395000D01*
X172424700Y-112753200D02*
X172424700Y-112395000D01*
X172299600Y-112878300D02*
X172424700Y-112753200D01*
X180975000Y-111445000D02*
X180274700Y-111445000D01*
X180155200Y-111325500D02*
X180274700Y-111445000D01*
X180082000Y-111325500D02*
X180155200Y-111325500D01*
X182015000Y-119380000D02*
X182590300Y-119380000D01*
X182779200Y-119191100D02*
X182590300Y-119380000D01*
X166375000Y-124460000D02*
X167185300Y-124460000D01*
X169364700Y-124460000D02*
X168275000Y-123370300D01*
X170985000Y-124460000D02*
X169364700Y-124460000D01*
X168275000Y-120930000D02*
X168275000Y-123370300D01*
X168275000Y-123370300D02*
X167185300Y-124460000D01*
X171910400Y-129809300D02*
X167640000Y-134079700D01*
X171910400Y-122127600D02*
X171910400Y-129809300D01*
X168588100Y-118805300D02*
X171910400Y-122127600D01*
X168275000Y-118805300D02*
X168588100Y-118805300D01*
X168275000Y-117830000D02*
X168275000Y-118805300D01*
X167640000Y-135255000D02*
X167640000Y-134079700D01*
X171355300Y-134887700D02*
X171355300Y-135255000D01*
X176703000Y-129540000D02*
X171355300Y-134887700D01*
X180340000Y-129540000D02*
X176703000Y-129540000D01*
X170180000Y-135255000D02*
X171355300Y-135255000D01*
X184785000Y-129540000D02*
X184785000Y-130350300D01*
X175260000Y-135255000D02*
X176435300Y-135255000D01*
X184334700Y-130800600D02*
X184785000Y-130350300D01*
X180522400Y-130800600D02*
X184334700Y-130800600D01*
X176435300Y-134887700D02*
X180522400Y-130800600D01*
X176435300Y-135255000D02*
X176435300Y-134887700D01*
X173902400Y-104862600D02*
X172720000Y-106045000D01*
X180821500Y-104862600D02*
X173902400Y-104862600D01*
X181610000Y-105651100D02*
X180821500Y-104862600D01*
X181610000Y-107370600D02*
X181610000Y-105651100D01*
X182844700Y-108605300D02*
X181610000Y-107370600D01*
X182844700Y-118350400D02*
X182844700Y-108605300D01*
X183408500Y-118914200D02*
X182844700Y-118350400D01*
X183408500Y-119506100D02*
X183408500Y-118914200D01*
X182681700Y-120232900D02*
X183408500Y-119506100D01*
X182681700Y-123848000D02*
X182681700Y-120232900D01*
X180340000Y-126189700D02*
X182681700Y-123848000D01*
X180340000Y-127000000D02*
X180340000Y-126189700D01*
X177800000Y-106045000D02*
X176624700Y-106045000D01*
X175260000Y-106045000D02*
X176624700Y-106045000D01*
X184785000Y-127000000D02*
X184785000Y-126189700D01*
X175260000Y-106045000D02*
X174084700Y-106045000D01*
X174084700Y-106412400D02*
X174084700Y-106045000D01*
X173276800Y-107220300D02*
X174084700Y-106412400D01*
X172225600Y-107220300D02*
X173276800Y-107220300D01*
X171532400Y-106527100D02*
X172225600Y-107220300D01*
X171532400Y-105564400D02*
X171532400Y-106527100D01*
X172722000Y-104374800D02*
X171532400Y-105564400D01*
X182909700Y-104374800D02*
X172722000Y-104374800D01*
X184150000Y-105615100D02*
X182909700Y-104374800D01*
X184150000Y-110932600D02*
X184150000Y-105615100D01*
X185640400Y-112423000D02*
X184150000Y-110932600D01*
X185640400Y-125334300D02*
X185640400Y-112423000D01*
X184785000Y-126189700D02*
X185640400Y-125334300D01*
X167325000Y-117830000D02*
X167325000Y-116854700D01*
X172424700Y-111755000D02*
X172424700Y-111395000D01*
X167325000Y-116854700D02*
X172424700Y-111755000D01*
X180340000Y-106045000D02*
X180340000Y-107220300D01*
X182015000Y-117930000D02*
X182015000Y-117354700D01*
X172612300Y-111395000D02*
X172424700Y-111395000D01*
X177230700Y-107220300D02*
X180340000Y-107220300D01*
X173115500Y-111335500D02*
X177230700Y-107220300D01*
X173175000Y-111395000D02*
X173115500Y-111335500D01*
X172671800Y-111335500D02*
X172612300Y-111395000D01*
X173115500Y-111335500D02*
X172671800Y-111335500D01*
X182015000Y-108895300D02*
X182015000Y-117354700D01*
X180340000Y-107220300D02*
X182015000Y-108895300D01*
X176075000Y-111395000D02*
X176825300Y-111395000D01*
X176835500Y-111405200D02*
X177519800Y-111405200D01*
X176825300Y-111395000D02*
X176835500Y-111405200D01*
X183515000Y-107855300D02*
X183515000Y-117930000D01*
X182880000Y-107220300D02*
X183515000Y-107855300D01*
X182880000Y-106045000D02*
X182880000Y-107220300D01*
X169741200Y-116338500D02*
X169225000Y-116854700D01*
X171134800Y-116338500D02*
X169741200Y-116338500D01*
X169225000Y-117830000D02*
X169225000Y-116854700D01*
M02*
