G04 #@! TF.FileFunction,Copper,L1,Top,Signal*
%FSLAX46Y46*%
G04 Gerber Fmt 4.6, Leading zero omitted, Abs format (unit mm)*
G04 Created by KiCad (PCBNEW 4.0.7-e2-6376~58~ubuntu17.04.1) date Thu Oct  5 12:14:12 2017*
%MOMM*%
%LPD*%
G01*
G04 APERTURE LIST*
%ADD10C,0.100000*%
%ADD11R,0.750000X1.200000*%
%ADD12R,1.750000X1.750000*%
%ADD13C,1.750000*%
%ADD14R,1.700000X1.700000*%
%ADD15O,1.700000X1.700000*%
%ADD16R,1.270000X0.970000*%
%ADD17R,0.900000X1.200000*%
%ADD18R,1.900000X0.800000*%
%ADD19R,1.560000X0.650000*%
%ADD20C,0.600000*%
%ADD21C,0.250000*%
G04 APERTURE END LIST*
D10*
D11*
X151765000Y-101920000D03*
X151765000Y-103820000D03*
X154940000Y-101920000D03*
X154940000Y-103820000D03*
X148590000Y-98105000D03*
X148590000Y-96205000D03*
X148590000Y-101920000D03*
X148590000Y-103820000D03*
X145415000Y-101920000D03*
X145415000Y-103820000D03*
X154940000Y-98105000D03*
X154940000Y-96205000D03*
X151765000Y-98105000D03*
X151765000Y-96205000D03*
D12*
X147320000Y-114935000D03*
D13*
X149820000Y-114935000D03*
X152320000Y-114935000D03*
D14*
X144145000Y-121285000D03*
D15*
X146685000Y-121285000D03*
X149225000Y-121285000D03*
X151765000Y-121285000D03*
X154305000Y-121285000D03*
X156845000Y-121285000D03*
X159385000Y-121285000D03*
X161925000Y-121285000D03*
D14*
X144145000Y-92075000D03*
D15*
X146685000Y-92075000D03*
X149225000Y-92075000D03*
X151765000Y-92075000D03*
X154305000Y-92075000D03*
X156845000Y-92075000D03*
X159385000Y-92075000D03*
X161925000Y-92075000D03*
D16*
X161925000Y-113665000D03*
X161925000Y-114935000D03*
X161925000Y-116205000D03*
X157480000Y-113665000D03*
X157480000Y-114935000D03*
X157480000Y-116205000D03*
D17*
X142240000Y-113835000D03*
X142240000Y-116035000D03*
X148590000Y-109685000D03*
X148590000Y-107485000D03*
X151765000Y-107485000D03*
X151765000Y-109685000D03*
X154940000Y-107485000D03*
X154940000Y-109685000D03*
X158115000Y-109685000D03*
X158115000Y-107485000D03*
X161290000Y-107485000D03*
X161290000Y-109685000D03*
X158115000Y-103970000D03*
X158115000Y-101770000D03*
X142240000Y-101770000D03*
X142240000Y-103970000D03*
X161290000Y-103970000D03*
X161290000Y-101770000D03*
D18*
X142010000Y-107635000D03*
X142010000Y-109535000D03*
X145010000Y-108585000D03*
D19*
X158035000Y-96205000D03*
X158035000Y-97155000D03*
X158035000Y-98105000D03*
X160735000Y-98105000D03*
X160735000Y-96205000D03*
X142160000Y-96205000D03*
X142160000Y-97155000D03*
X142160000Y-98105000D03*
X144860000Y-98105000D03*
X144860000Y-96205000D03*
D20*
X156539200Y-97267700D03*
X163067100Y-114876200D03*
X157150100Y-101850500D03*
X157038000Y-111575300D03*
D21*
X143754700Y-101030600D02*
X143015300Y-101770000D01*
X143754700Y-96205000D02*
X143754700Y-101030600D01*
X144860000Y-96205000D02*
X144621800Y-96205000D01*
X144621800Y-96205000D02*
X143754700Y-96205000D01*
X151765000Y-101920000D02*
X151765000Y-100994700D01*
X142240000Y-101770000D02*
X142627700Y-101770000D01*
X142627700Y-101770000D02*
X143015300Y-101770000D01*
X150114700Y-102870000D02*
X151064700Y-101920000D01*
X143727700Y-102870000D02*
X150114700Y-102870000D01*
X142627700Y-101770000D02*
X143727700Y-102870000D01*
X151765000Y-101920000D02*
X151064700Y-101920000D01*
X151765000Y-98105000D02*
X151765000Y-100994700D01*
X154940000Y-98105000D02*
X154239700Y-98105000D01*
X151765000Y-98105000D02*
X154239700Y-98105000D01*
X155449400Y-97179700D02*
X154940000Y-97179700D01*
X157074400Y-95554700D02*
X155449400Y-97179700D01*
X159142100Y-95554700D02*
X157074400Y-95554700D01*
X159629700Y-96042300D02*
X159142100Y-95554700D01*
X159629700Y-96205000D02*
X159629700Y-96042300D01*
X160735000Y-96205000D02*
X159629700Y-96205000D01*
X154940000Y-98105000D02*
X154940000Y-97179700D01*
X148590000Y-103820000D02*
X147889700Y-103820000D01*
X148590000Y-96205000D02*
X149290300Y-96205000D01*
X145415000Y-103820000D02*
X146115300Y-103820000D01*
X147889700Y-103820000D02*
X146115300Y-103820000D01*
X145415000Y-103820000D02*
X145415000Y-104745300D01*
X145010000Y-108585000D02*
X145010000Y-107859700D01*
X148590000Y-103820000D02*
X149290300Y-103820000D01*
X147320000Y-114935000D02*
X147320000Y-113734700D01*
X145406500Y-107859700D02*
X145415000Y-107851200D01*
X145010000Y-107859700D02*
X145406500Y-107859700D01*
X145415000Y-107851200D02*
X145415000Y-104745300D01*
X149290300Y-103820000D02*
X151765000Y-103820000D01*
X158035000Y-97155000D02*
X156929700Y-97155000D01*
X151765000Y-103820000D02*
X152465300Y-103820000D01*
X156148700Y-97658200D02*
X156539200Y-97267700D01*
X156148700Y-98408400D02*
X156148700Y-97658200D01*
X152465300Y-102091800D02*
X156148700Y-98408400D01*
X152465300Y-103820000D02*
X152465300Y-102091800D01*
X156817000Y-97267700D02*
X156929700Y-97155000D01*
X156539200Y-97267700D02*
X156817000Y-97267700D01*
X146751400Y-95066700D02*
X147889700Y-96205000D01*
X141682400Y-95066700D02*
X146751400Y-95066700D01*
X141054700Y-95694400D02*
X141682400Y-95066700D01*
X141054700Y-97155000D02*
X141054700Y-95694400D01*
X142160000Y-97155000D02*
X141054700Y-97155000D01*
X148590000Y-96205000D02*
X147889700Y-96205000D01*
X149290300Y-96205000D02*
X151765000Y-96205000D01*
X154305000Y-92075000D02*
X154305000Y-93250300D01*
X154305000Y-96205000D02*
X154305000Y-93250300D01*
X151765000Y-96205000D02*
X154305000Y-96205000D01*
X149365400Y-111689300D02*
X147320000Y-113734700D01*
X149365400Y-108903900D02*
X149365400Y-111689300D01*
X148871900Y-108410400D02*
X149365400Y-108903900D01*
X145974200Y-108410400D02*
X148871900Y-108410400D01*
X145415000Y-107851200D02*
X145974200Y-108410400D01*
X161925000Y-113665000D02*
X161925000Y-112854700D01*
X154305000Y-96205000D02*
X154940000Y-96205000D01*
X162551800Y-112227900D02*
X161925000Y-112854700D01*
X162551800Y-96396700D02*
X162551800Y-112227900D01*
X161246200Y-95091100D02*
X162551800Y-96396700D01*
X156754200Y-95091100D02*
X161246200Y-95091100D01*
X155640300Y-96205000D02*
X156754200Y-95091100D01*
X154940000Y-96205000D02*
X155640300Y-96205000D01*
X161925000Y-114935000D02*
X162885300Y-114935000D01*
X162944100Y-114876200D02*
X162885300Y-114935000D01*
X163067100Y-114876200D02*
X162944100Y-114876200D01*
X158115000Y-101770000D02*
X157339700Y-101770000D01*
X157259200Y-101850500D02*
X157150100Y-101850500D01*
X157339700Y-101770000D02*
X157259200Y-101850500D01*
X155709800Y-101850500D02*
X155640300Y-101920000D01*
X157150100Y-101850500D02*
X155709800Y-101850500D01*
X154940000Y-101920000D02*
X155640300Y-101920000D01*
X161290000Y-103970000D02*
X160514700Y-103970000D01*
X154940000Y-103820000D02*
X155640300Y-103820000D01*
X159589300Y-107407200D02*
X159589300Y-104895400D01*
X160654500Y-108472400D02*
X159589300Y-107407200D01*
X161634300Y-108472400D02*
X160654500Y-108472400D01*
X162065400Y-108903500D02*
X161634300Y-108472400D01*
X162065400Y-111503200D02*
X162065400Y-108903500D01*
X160297200Y-113271400D02*
X162065400Y-111503200D01*
X160297200Y-116657500D02*
X160297200Y-113271400D01*
X156845000Y-120109700D02*
X160297200Y-116657500D01*
X160514700Y-103970000D02*
X159589300Y-104895400D01*
X156715700Y-104895400D02*
X155640300Y-103820000D01*
X159589300Y-104895400D02*
X156715700Y-104895400D01*
X156845000Y-121285000D02*
X156845000Y-120109700D01*
X142160000Y-96205000D02*
X142712700Y-96205000D01*
X147889700Y-97667300D02*
X147889700Y-98105000D01*
X145739800Y-95517400D02*
X147889700Y-97667300D01*
X143781400Y-95517400D02*
X145739800Y-95517400D01*
X142934500Y-96364300D02*
X143781400Y-95517400D01*
X143265300Y-96695200D02*
X142934500Y-96364300D01*
X143265300Y-98105000D02*
X143265300Y-96695200D01*
X142775100Y-96205000D02*
X142712700Y-96205000D01*
X142934500Y-96364300D02*
X142775100Y-96205000D01*
X148590000Y-98105000D02*
X148239900Y-98105000D01*
X148239900Y-98105000D02*
X147889700Y-98105000D01*
X148239900Y-100644600D02*
X148590000Y-100994700D01*
X148239900Y-98105000D02*
X148239900Y-100644600D01*
X148590000Y-101920000D02*
X148590000Y-100994700D01*
X142160000Y-98105000D02*
X142298200Y-98105000D01*
X142298200Y-98105000D02*
X143265300Y-98105000D01*
X155968800Y-114935000D02*
X157480000Y-114935000D01*
X153924100Y-116979700D02*
X155968800Y-114935000D01*
X141609100Y-116979700D02*
X153924100Y-116979700D01*
X140707700Y-116078300D02*
X141609100Y-116979700D01*
X140707700Y-99695500D02*
X140707700Y-116078300D01*
X142298200Y-98105000D02*
X140707700Y-99695500D01*
X145965300Y-100444400D02*
X145415000Y-100994700D01*
X145965300Y-98105000D02*
X145965300Y-100444400D01*
X144860000Y-98105000D02*
X145965300Y-98105000D01*
X145415000Y-101920000D02*
X145415000Y-100994700D01*
X151765000Y-112990000D02*
X149820000Y-114935000D01*
X151765000Y-109685000D02*
X151765000Y-112990000D01*
X142240000Y-116035000D02*
X143015300Y-116035000D01*
X143115700Y-116135400D02*
X143015300Y-116035000D01*
X151119600Y-116135400D02*
X143115700Y-116135400D01*
X152320000Y-114935000D02*
X151119600Y-116135400D01*
X157339700Y-109915300D02*
X152320000Y-114935000D01*
X157339700Y-109685000D02*
X157339700Y-109915300D01*
X158115000Y-109685000D02*
X157339700Y-109685000D01*
X145320300Y-120917700D02*
X145320300Y-121285000D01*
X147370500Y-118867500D02*
X145320300Y-120917700D01*
X155627800Y-118867500D02*
X147370500Y-118867500D01*
X157480000Y-117015300D02*
X155627800Y-118867500D01*
X157480000Y-116205000D02*
X157480000Y-117015300D01*
X144145000Y-121285000D02*
X145320300Y-121285000D01*
X152940300Y-121652400D02*
X152940300Y-121285000D01*
X153748200Y-122460300D02*
X152940300Y-121652400D01*
X157360400Y-122460300D02*
X153748200Y-122460300D01*
X158115000Y-121705700D02*
X157360400Y-122460300D01*
X158115000Y-120825300D02*
X158115000Y-121705700D01*
X161925000Y-117015300D02*
X158115000Y-120825300D01*
X161925000Y-116205000D02*
X161925000Y-117015300D01*
X151765000Y-121285000D02*
X152940300Y-121285000D01*
X157038000Y-112412700D02*
X157038000Y-111575300D01*
X157480000Y-112854700D02*
X157038000Y-112412700D01*
X157480000Y-113665000D02*
X157480000Y-112854700D01*
X142010000Y-109535000D02*
X142010000Y-110260300D01*
X148590000Y-109685000D02*
X147814700Y-109685000D01*
X147009400Y-110490300D02*
X147814700Y-109685000D01*
X142240000Y-110490300D02*
X147009400Y-110490300D01*
X142010000Y-110260300D02*
X142240000Y-110490300D01*
X142240000Y-110490300D02*
X142240000Y-113835000D01*
X142010000Y-109535000D02*
X142010000Y-107635000D01*
X142010000Y-105125300D02*
X142240000Y-104895300D01*
X142010000Y-107635000D02*
X142010000Y-105125300D01*
X142240000Y-103970000D02*
X142240000Y-104895300D01*
X148590000Y-107485000D02*
X151765000Y-107485000D01*
X152540300Y-108060600D02*
X154164700Y-109685000D01*
X152540300Y-107485000D02*
X152540300Y-108060600D01*
X154940000Y-109685000D02*
X154164700Y-109685000D01*
X151765000Y-107485000D02*
X152540300Y-107485000D01*
X154940000Y-107485000D02*
X154940000Y-106559700D01*
X158035000Y-96205000D02*
X159140300Y-96205000D01*
X159140300Y-102257000D02*
X157965000Y-103432300D01*
X159140300Y-96205000D02*
X159140300Y-102257000D01*
X158115000Y-103582300D02*
X157965000Y-103432300D01*
X158115000Y-103970000D02*
X158115000Y-103582300D01*
X154239600Y-105859300D02*
X154940000Y-106559700D01*
X154239600Y-103070500D02*
X154239600Y-105859300D01*
X154415500Y-102894600D02*
X154239600Y-103070500D01*
X157427300Y-102894600D02*
X154415500Y-102894600D01*
X157965000Y-103432300D02*
X157427300Y-102894600D01*
X160514700Y-109109400D02*
X158890300Y-107485000D01*
X160514700Y-109685000D02*
X160514700Y-109109400D01*
X161290000Y-109685000D02*
X160514700Y-109685000D01*
X158115000Y-107485000D02*
X158890300Y-107485000D01*
X156414300Y-108410400D02*
X157339700Y-107485000D01*
X154317100Y-108410400D02*
X156414300Y-108410400D01*
X153784000Y-107877300D02*
X154317100Y-108410400D01*
X153784000Y-101631700D02*
X153784000Y-107877300D01*
X156929700Y-98486000D02*
X153784000Y-101631700D01*
X156929700Y-98105000D02*
X156929700Y-98486000D01*
X158035000Y-98105000D02*
X156929700Y-98105000D01*
X158115000Y-107485000D02*
X157339700Y-107485000D01*
X161840300Y-100294400D02*
X161290000Y-100844700D01*
X161840300Y-98105000D02*
X161840300Y-100294400D01*
X160735000Y-98105000D02*
X161840300Y-98105000D01*
X161290000Y-101307300D02*
X161290000Y-101688000D01*
X161290000Y-101770000D02*
X161290000Y-101688000D01*
X161290000Y-101307300D02*
X161290000Y-100844700D01*
X162065300Y-102463300D02*
X162065300Y-107485000D01*
X161290000Y-101688000D02*
X162065300Y-102463300D01*
X161290000Y-107485000D02*
X162065300Y-107485000D01*
M02*
