M48
INCH,TZ
T1C0.016
T2C0.039
%
G90
G05
T1
X61630Y-38294
X61826Y-43927
X61870Y-40099
X64200Y-45227
T2
X56750Y-36250
X56750Y-47750
X57750Y-36250
X57750Y-47750
X58000Y-45250
X58750Y-36250
X58750Y-47750
X58984Y-45250
X59750Y-36250
X59750Y-47750
X59969Y-45250
X60750Y-36250
X60750Y-47750
X61750Y-36250
X61750Y-47750
X62750Y-36250
X62750Y-47750
X63750Y-36250
X63750Y-47750
T0
M30
