G04 #@! TF.FileFunction,Legend,Top*
%FSLAX46Y46*%
G04 Gerber Fmt 4.6, Leading zero omitted, Abs format (unit mm)*
G04 Created by KiCad (PCBNEW 4.0.7-e2-6376~58~ubuntu17.04.1) date Thu Oct  5 12:14:12 2017*
%MOMM*%
%LPD*%
G01*
G04 APERTURE LIST*
%ADD10C,0.100000*%
%ADD11C,0.150000*%
%ADD12C,0.120000*%
%ADD13C,0.010000*%
G04 APERTURE END LIST*
D10*
D11*
X139866667Y-115490238D02*
X139866667Y-115014047D01*
X140152381Y-115585476D02*
X139152381Y-115252143D01*
X140152381Y-114918809D01*
X140152381Y-114109285D02*
X140152381Y-114585476D01*
X139152381Y-114585476D01*
X139152381Y-113585476D02*
X139152381Y-113394999D01*
X139200000Y-113299761D01*
X139295238Y-113204523D01*
X139485714Y-113156904D01*
X139819048Y-113156904D01*
X140009524Y-113204523D01*
X140104762Y-113299761D01*
X140152381Y-113394999D01*
X140152381Y-113585476D01*
X140104762Y-113680714D01*
X140009524Y-113775952D01*
X139819048Y-113823571D01*
X139485714Y-113823571D01*
X139295238Y-113775952D01*
X139200000Y-113680714D01*
X139152381Y-113585476D01*
X139628571Y-112728333D02*
X139628571Y-112394999D01*
X140152381Y-112252142D02*
X140152381Y-112728333D01*
X139152381Y-112728333D01*
X139152381Y-112252142D01*
X140104762Y-111871190D02*
X140152381Y-111728333D01*
X140152381Y-111490237D01*
X140104762Y-111394999D01*
X140057143Y-111347380D01*
X139961905Y-111299761D01*
X139866667Y-111299761D01*
X139771429Y-111347380D01*
X139723810Y-111394999D01*
X139676190Y-111490237D01*
X139628571Y-111680714D01*
X139580952Y-111775952D01*
X139533333Y-111823571D01*
X139438095Y-111871190D01*
X139342857Y-111871190D01*
X139247619Y-111823571D01*
X139200000Y-111775952D01*
X139152381Y-111680714D01*
X139152381Y-111442618D01*
X139200000Y-111299761D01*
X140057143Y-110871190D02*
X140104762Y-110823571D01*
X140152381Y-110871190D01*
X140104762Y-110918809D01*
X140057143Y-110871190D01*
X140152381Y-110871190D01*
X140152381Y-110395000D02*
X139152381Y-110395000D01*
X139152381Y-109728334D02*
X139152381Y-109537857D01*
X139200000Y-109442619D01*
X139295238Y-109347381D01*
X139485714Y-109299762D01*
X139819048Y-109299762D01*
X140009524Y-109347381D01*
X140104762Y-109442619D01*
X140152381Y-109537857D01*
X140152381Y-109728334D01*
X140104762Y-109823572D01*
X140009524Y-109918810D01*
X139819048Y-109966429D01*
X139485714Y-109966429D01*
X139295238Y-109918810D01*
X139200000Y-109823572D01*
X139152381Y-109728334D01*
D10*
X144461667Y-123706666D02*
X143761667Y-123706666D01*
X143761667Y-123540000D01*
X143795000Y-123440000D01*
X143861667Y-123373333D01*
X143928333Y-123340000D01*
X144061667Y-123306666D01*
X144161667Y-123306666D01*
X144295000Y-123340000D01*
X144361667Y-123373333D01*
X144428333Y-123440000D01*
X144461667Y-123540000D01*
X144461667Y-123706666D01*
X143761667Y-123073333D02*
X143761667Y-122640000D01*
X144028333Y-122873333D01*
X144028333Y-122773333D01*
X144061667Y-122706666D01*
X144095000Y-122673333D01*
X144161667Y-122640000D01*
X144328333Y-122640000D01*
X144395000Y-122673333D01*
X144428333Y-122706666D01*
X144461667Y-122773333D01*
X144461667Y-122973333D01*
X144428333Y-123040000D01*
X144395000Y-123073333D01*
X143195000Y-90120000D02*
X143295000Y-90153333D01*
X143328333Y-90186667D01*
X143361667Y-90253333D01*
X143361667Y-90353333D01*
X143328333Y-90420000D01*
X143295000Y-90453333D01*
X143228333Y-90486667D01*
X142961667Y-90486667D01*
X142961667Y-89786667D01*
X143195000Y-89786667D01*
X143261667Y-89820000D01*
X143295000Y-89853333D01*
X143328333Y-89920000D01*
X143328333Y-89986667D01*
X143295000Y-90053333D01*
X143261667Y-90086667D01*
X143195000Y-90120000D01*
X142961667Y-90120000D01*
X143628333Y-90286667D02*
X143961667Y-90286667D01*
X143561667Y-90486667D02*
X143795000Y-89786667D01*
X144028333Y-90486667D01*
X144161667Y-89786667D02*
X144561667Y-89786667D01*
X144361667Y-90486667D02*
X144361667Y-89786667D01*
X144795000Y-90220000D02*
X145328333Y-90220000D01*
X145061666Y-90486667D02*
X145061666Y-89953333D01*
X162041667Y-123690000D02*
X162041667Y-123356666D01*
X162241667Y-123756666D02*
X161541667Y-123523333D01*
X162241667Y-123290000D01*
X161541667Y-122756666D02*
X161541667Y-122890000D01*
X161575000Y-122956666D01*
X161608333Y-122990000D01*
X161708333Y-123056666D01*
X161841667Y-123090000D01*
X162108333Y-123090000D01*
X162175000Y-123056666D01*
X162208333Y-123023333D01*
X162241667Y-122956666D01*
X162241667Y-122823333D01*
X162208333Y-122756666D01*
X162175000Y-122723333D01*
X162108333Y-122690000D01*
X161941667Y-122690000D01*
X161875000Y-122723333D01*
X161841667Y-122756666D01*
X161808333Y-122823333D01*
X161808333Y-122956666D01*
X161841667Y-123023333D01*
X161875000Y-123056666D01*
X161941667Y-123090000D01*
X162041667Y-90670000D02*
X162041667Y-90336666D01*
X162241667Y-90736666D02*
X161541667Y-90503333D01*
X162241667Y-90270000D01*
X161541667Y-90103333D02*
X161541667Y-89636666D01*
X162241667Y-89936666D01*
X156594285Y-111431429D02*
X156965714Y-111431429D01*
X156765714Y-111660000D01*
X156851428Y-111660000D01*
X156908571Y-111688571D01*
X156937142Y-111717143D01*
X156965714Y-111774286D01*
X156965714Y-111917143D01*
X156937142Y-111974286D01*
X156908571Y-112002857D01*
X156851428Y-112031429D01*
X156680000Y-112031429D01*
X156622857Y-112002857D01*
X156594285Y-111974286D01*
X157222857Y-111974286D02*
X157251429Y-112002857D01*
X157222857Y-112031429D01*
X157194286Y-112002857D01*
X157222857Y-111974286D01*
X157222857Y-112031429D01*
X157451428Y-111431429D02*
X157822857Y-111431429D01*
X157622857Y-111660000D01*
X157708571Y-111660000D01*
X157765714Y-111688571D01*
X157794285Y-111717143D01*
X157822857Y-111774286D01*
X157822857Y-111917143D01*
X157794285Y-111974286D01*
X157765714Y-112002857D01*
X157708571Y-112031429D01*
X157537143Y-112031429D01*
X157480000Y-112002857D01*
X157451428Y-111974286D01*
X157994286Y-111431429D02*
X158194286Y-112031429D01*
X158394286Y-111431429D01*
X161467858Y-111460000D02*
X161410715Y-111431429D01*
X161325001Y-111431429D01*
X161239286Y-111460000D01*
X161182144Y-111517143D01*
X161153572Y-111574286D01*
X161125001Y-111688571D01*
X161125001Y-111774286D01*
X161153572Y-111888571D01*
X161182144Y-111945714D01*
X161239286Y-112002857D01*
X161325001Y-112031429D01*
X161382144Y-112031429D01*
X161467858Y-112002857D01*
X161496429Y-111974286D01*
X161496429Y-111774286D01*
X161382144Y-111774286D01*
X161753572Y-112031429D02*
X161753572Y-111431429D01*
X162096429Y-112031429D01*
X162096429Y-111431429D01*
X162382143Y-112031429D02*
X162382143Y-111431429D01*
X162525000Y-111431429D01*
X162610715Y-111460000D01*
X162667857Y-111517143D01*
X162696429Y-111574286D01*
X162725000Y-111688571D01*
X162725000Y-111774286D01*
X162696429Y-111888571D01*
X162667857Y-111945714D01*
X162610715Y-112002857D01*
X162525000Y-112031429D01*
X162382143Y-112031429D01*
X157037143Y-118381429D02*
X157037143Y-117781429D01*
X157180000Y-117781429D01*
X157265715Y-117810000D01*
X157322857Y-117867143D01*
X157351429Y-117924286D01*
X157380000Y-118038571D01*
X157380000Y-118124286D01*
X157351429Y-118238571D01*
X157322857Y-118295714D01*
X157265715Y-118352857D01*
X157180000Y-118381429D01*
X157037143Y-118381429D01*
X157580000Y-117781429D02*
X157951429Y-117781429D01*
X157751429Y-118010000D01*
X157837143Y-118010000D01*
X157894286Y-118038571D01*
X157922857Y-118067143D01*
X157951429Y-118124286D01*
X157951429Y-118267143D01*
X157922857Y-118324286D01*
X157894286Y-118352857D01*
X157837143Y-118381429D01*
X157665715Y-118381429D01*
X157608572Y-118352857D01*
X157580000Y-118324286D01*
X161482143Y-118381429D02*
X161482143Y-117781429D01*
X161625000Y-117781429D01*
X161710715Y-117810000D01*
X161767857Y-117867143D01*
X161796429Y-117924286D01*
X161825000Y-118038571D01*
X161825000Y-118124286D01*
X161796429Y-118238571D01*
X161767857Y-118295714D01*
X161710715Y-118352857D01*
X161625000Y-118381429D01*
X161482143Y-118381429D01*
X162339286Y-117781429D02*
X162225000Y-117781429D01*
X162167857Y-117810000D01*
X162139286Y-117838571D01*
X162082143Y-117924286D01*
X162053572Y-118038571D01*
X162053572Y-118267143D01*
X162082143Y-118324286D01*
X162110715Y-118352857D01*
X162167857Y-118381429D01*
X162282143Y-118381429D01*
X162339286Y-118352857D01*
X162367857Y-118324286D01*
X162396429Y-118267143D01*
X162396429Y-118124286D01*
X162367857Y-118067143D01*
X162339286Y-118038571D01*
X162282143Y-118010000D01*
X162167857Y-118010000D01*
X162110715Y-118038571D01*
X162082143Y-118067143D01*
X162053572Y-118124286D01*
X144461667Y-123706666D02*
X143761667Y-123706666D01*
X143761667Y-123540000D01*
X143795000Y-123440000D01*
X143861667Y-123373333D01*
X143928333Y-123340000D01*
X144061667Y-123306666D01*
X144161667Y-123306666D01*
X144295000Y-123340000D01*
X144361667Y-123373333D01*
X144428333Y-123440000D01*
X144461667Y-123540000D01*
X144461667Y-123706666D01*
X143761667Y-123073333D02*
X143761667Y-122640000D01*
X144028333Y-122873333D01*
X144028333Y-122773333D01*
X144061667Y-122706666D01*
X144095000Y-122673333D01*
X144161667Y-122640000D01*
X144328333Y-122640000D01*
X144395000Y-122673333D01*
X144428333Y-122706666D01*
X144461667Y-122773333D01*
X144461667Y-122973333D01*
X144428333Y-123040000D01*
X144395000Y-123073333D01*
X147001667Y-123706666D02*
X146301667Y-123706666D01*
X146301667Y-123540000D01*
X146335000Y-123440000D01*
X146401667Y-123373333D01*
X146468333Y-123340000D01*
X146601667Y-123306666D01*
X146701667Y-123306666D01*
X146835000Y-123340000D01*
X146901667Y-123373333D01*
X146968333Y-123440000D01*
X147001667Y-123540000D01*
X147001667Y-123706666D01*
X146535000Y-122706666D02*
X147001667Y-122706666D01*
X146268333Y-122873333D02*
X146768333Y-123040000D01*
X146768333Y-122606666D01*
X149541667Y-123706666D02*
X148841667Y-123706666D01*
X148841667Y-123540000D01*
X148875000Y-123440000D01*
X148941667Y-123373333D01*
X149008333Y-123340000D01*
X149141667Y-123306666D01*
X149241667Y-123306666D01*
X149375000Y-123340000D01*
X149441667Y-123373333D01*
X149508333Y-123440000D01*
X149541667Y-123540000D01*
X149541667Y-123706666D01*
X148841667Y-122673333D02*
X148841667Y-123006666D01*
X149175000Y-123040000D01*
X149141667Y-123006666D01*
X149108333Y-122940000D01*
X149108333Y-122773333D01*
X149141667Y-122706666D01*
X149175000Y-122673333D01*
X149241667Y-122640000D01*
X149408333Y-122640000D01*
X149475000Y-122673333D01*
X149508333Y-122706666D01*
X149541667Y-122773333D01*
X149541667Y-122940000D01*
X149508333Y-123006666D01*
X149475000Y-123040000D01*
X152081667Y-123706666D02*
X151381667Y-123706666D01*
X151381667Y-123540000D01*
X151415000Y-123440000D01*
X151481667Y-123373333D01*
X151548333Y-123340000D01*
X151681667Y-123306666D01*
X151781667Y-123306666D01*
X151915000Y-123340000D01*
X151981667Y-123373333D01*
X152048333Y-123440000D01*
X152081667Y-123540000D01*
X152081667Y-123706666D01*
X151381667Y-122706666D02*
X151381667Y-122840000D01*
X151415000Y-122906666D01*
X151448333Y-122940000D01*
X151548333Y-123006666D01*
X151681667Y-123040000D01*
X151948333Y-123040000D01*
X152015000Y-123006666D01*
X152048333Y-122973333D01*
X152081667Y-122906666D01*
X152081667Y-122773333D01*
X152048333Y-122706666D01*
X152015000Y-122673333D01*
X151948333Y-122640000D01*
X151781667Y-122640000D01*
X151715000Y-122673333D01*
X151681667Y-122706666D01*
X151648333Y-122773333D01*
X151648333Y-122906666D01*
X151681667Y-122973333D01*
X151715000Y-123006666D01*
X151781667Y-123040000D01*
X154621667Y-123706666D02*
X153921667Y-123706666D01*
X153921667Y-123540000D01*
X153955000Y-123440000D01*
X154021667Y-123373333D01*
X154088333Y-123340000D01*
X154221667Y-123306666D01*
X154321667Y-123306666D01*
X154455000Y-123340000D01*
X154521667Y-123373333D01*
X154588333Y-123440000D01*
X154621667Y-123540000D01*
X154621667Y-123706666D01*
X153921667Y-123073333D02*
X153921667Y-122606666D01*
X154621667Y-122906666D01*
X156961667Y-123690000D02*
X156961667Y-123356666D01*
X157161667Y-123756666D02*
X156461667Y-123523333D01*
X157161667Y-123290000D01*
X156461667Y-122923333D02*
X156461667Y-122856666D01*
X156495000Y-122790000D01*
X156528333Y-122756666D01*
X156595000Y-122723333D01*
X156728333Y-122690000D01*
X156895000Y-122690000D01*
X157028333Y-122723333D01*
X157095000Y-122756666D01*
X157128333Y-122790000D01*
X157161667Y-122856666D01*
X157161667Y-122923333D01*
X157128333Y-122990000D01*
X157095000Y-123023333D01*
X157028333Y-123056666D01*
X156895000Y-123090000D01*
X156728333Y-123090000D01*
X156595000Y-123056666D01*
X156528333Y-123023333D01*
X156495000Y-122990000D01*
X156461667Y-122923333D01*
X159501667Y-123690000D02*
X159501667Y-123356666D01*
X159701667Y-123756666D02*
X159001667Y-123523333D01*
X159701667Y-123290000D01*
X159701667Y-122690000D02*
X159701667Y-123090000D01*
X159701667Y-122890000D02*
X159001667Y-122890000D01*
X159101667Y-122956666D01*
X159168333Y-123023333D01*
X159201667Y-123090000D01*
X159501667Y-90670000D02*
X159501667Y-90336666D01*
X159701667Y-90736666D02*
X159001667Y-90503333D01*
X159701667Y-90270000D01*
X159001667Y-89703333D02*
X159001667Y-90036666D01*
X159335000Y-90070000D01*
X159301667Y-90036666D01*
X159268333Y-89970000D01*
X159268333Y-89803333D01*
X159301667Y-89736666D01*
X159335000Y-89703333D01*
X159401667Y-89670000D01*
X159568333Y-89670000D01*
X159635000Y-89703333D01*
X159668333Y-89736666D01*
X159701667Y-89803333D01*
X159701667Y-89970000D01*
X159668333Y-90036666D01*
X159635000Y-90070000D01*
X156961667Y-90670000D02*
X156961667Y-90336666D01*
X157161667Y-90736666D02*
X156461667Y-90503333D01*
X157161667Y-90270000D01*
X156695000Y-89736666D02*
X157161667Y-89736666D01*
X156428333Y-89903333D02*
X156928333Y-90070000D01*
X156928333Y-89636666D01*
X152501667Y-89820000D02*
X152435001Y-89786667D01*
X152335001Y-89786667D01*
X152235001Y-89820000D01*
X152168334Y-89886667D01*
X152135001Y-89953333D01*
X152101667Y-90086667D01*
X152101667Y-90186667D01*
X152135001Y-90320000D01*
X152168334Y-90386667D01*
X152235001Y-90453333D01*
X152335001Y-90486667D01*
X152401667Y-90486667D01*
X152501667Y-90453333D01*
X152535001Y-90420000D01*
X152535001Y-90186667D01*
X152401667Y-90186667D01*
X152835001Y-90486667D02*
X152835001Y-89786667D01*
X153235001Y-90486667D01*
X153235001Y-89786667D01*
X153568334Y-90486667D02*
X153568334Y-89786667D01*
X153735000Y-89786667D01*
X153835000Y-89820000D01*
X153901667Y-89886667D01*
X153935000Y-89953333D01*
X153968334Y-90086667D01*
X153968334Y-90186667D01*
X153935000Y-90320000D01*
X153901667Y-90386667D01*
X153835000Y-90453333D01*
X153735000Y-90486667D01*
X153568334Y-90486667D01*
X145920000Y-90220000D02*
X146453333Y-90220000D01*
X146186666Y-90486667D02*
X146186666Y-89953333D01*
X146720000Y-89786667D02*
X147153333Y-89786667D01*
X146920000Y-90053333D01*
X147020000Y-90053333D01*
X147086667Y-90086667D01*
X147120000Y-90120000D01*
X147153333Y-90186667D01*
X147153333Y-90353333D01*
X147120000Y-90420000D01*
X147086667Y-90453333D01*
X147020000Y-90486667D01*
X146820000Y-90486667D01*
X146753333Y-90453333D01*
X146720000Y-90420000D01*
X147453334Y-90420000D02*
X147486667Y-90453333D01*
X147453334Y-90486667D01*
X147420000Y-90453333D01*
X147453334Y-90420000D01*
X147453334Y-90486667D01*
X147720000Y-89786667D02*
X148153333Y-89786667D01*
X147920000Y-90053333D01*
X148020000Y-90053333D01*
X148086667Y-90086667D01*
X148120000Y-90120000D01*
X148153333Y-90186667D01*
X148153333Y-90353333D01*
X148120000Y-90420000D01*
X148086667Y-90453333D01*
X148020000Y-90486667D01*
X147820000Y-90486667D01*
X147753333Y-90453333D01*
X147720000Y-90420000D01*
X148353334Y-89786667D02*
X148586667Y-90486667D01*
X148820000Y-89786667D01*
D12*
X152365000Y-102520000D02*
X152365000Y-103220000D01*
X151165000Y-103220000D02*
X151165000Y-102520000D01*
X155540000Y-102520000D02*
X155540000Y-103220000D01*
X154340000Y-103220000D02*
X154340000Y-102520000D01*
X147990000Y-97505000D02*
X147990000Y-96805000D01*
X149190000Y-96805000D02*
X149190000Y-97505000D01*
X149190000Y-102520000D02*
X149190000Y-103220000D01*
X147990000Y-103220000D02*
X147990000Y-102520000D01*
X146015000Y-102520000D02*
X146015000Y-103220000D01*
X144815000Y-103220000D02*
X144815000Y-102520000D01*
X154340000Y-97505000D02*
X154340000Y-96805000D01*
X155540000Y-96805000D02*
X155540000Y-97505000D01*
X151165000Y-97505000D02*
X151165000Y-96805000D01*
X152365000Y-96805000D02*
X152365000Y-97505000D01*
X144770000Y-112485000D02*
X144770000Y-118435000D01*
X144770000Y-118435000D02*
X154870000Y-118435000D01*
X154870000Y-118435000D02*
X154870000Y-112485000D01*
X154870000Y-112485000D02*
X144770000Y-112485000D01*
X148070000Y-112485000D02*
X148070000Y-113235000D01*
X148070000Y-113235000D02*
X151570000Y-113235000D01*
X151570000Y-113235000D02*
X151570000Y-112485000D01*
X151570000Y-112485000D02*
X148070000Y-112485000D01*
X144770000Y-112485000D02*
X144770000Y-113235000D01*
X144770000Y-113235000D02*
X146570000Y-113235000D01*
X146570000Y-113235000D02*
X146570000Y-112485000D01*
X146570000Y-112485000D02*
X144770000Y-112485000D01*
X153070000Y-112485000D02*
X153070000Y-113235000D01*
X153070000Y-113235000D02*
X154870000Y-113235000D01*
X154870000Y-113235000D02*
X154870000Y-112485000D01*
X154870000Y-112485000D02*
X153070000Y-112485000D01*
X144770000Y-114735000D02*
X145520000Y-114735000D01*
X145520000Y-114735000D02*
X145520000Y-117685000D01*
X145520000Y-117685000D02*
X149820000Y-117685000D01*
X154870000Y-114735000D02*
X154120000Y-114735000D01*
X154120000Y-114735000D02*
X154120000Y-117685000D01*
X154120000Y-117685000D02*
X149820000Y-117685000D01*
X146970000Y-112185000D02*
X144470000Y-112185000D01*
X144470000Y-112185000D02*
X144470000Y-114685000D01*
X161035000Y-113025000D02*
X161035000Y-116845000D01*
X161035000Y-116845000D02*
X162815000Y-116845000D01*
X162815000Y-116845000D02*
X162815000Y-113025000D01*
X161035000Y-113025000D02*
X162815000Y-113025000D01*
X156590000Y-113025000D02*
X156590000Y-116845000D01*
X156590000Y-116845000D02*
X158370000Y-116845000D01*
X158370000Y-116845000D02*
X158370000Y-113025000D01*
X156590000Y-113025000D02*
X158370000Y-113025000D01*
D13*
G36*
X138540126Y-118754945D02*
X138540220Y-118663675D01*
X138540419Y-118586716D01*
X138540760Y-118522758D01*
X138541284Y-118470489D01*
X138542027Y-118428599D01*
X138543028Y-118395776D01*
X138544325Y-118370709D01*
X138545957Y-118352088D01*
X138547962Y-118338601D01*
X138550379Y-118328938D01*
X138553245Y-118321787D01*
X138556030Y-118316758D01*
X138581640Y-118289028D01*
X138614393Y-118274938D01*
X138650443Y-118276031D01*
X138654662Y-118277211D01*
X138670949Y-118284233D01*
X138699091Y-118298526D01*
X138736785Y-118318756D01*
X138781725Y-118343590D01*
X138831606Y-118371695D01*
X138884124Y-118401739D01*
X138936973Y-118432388D01*
X138987848Y-118462309D01*
X139034445Y-118490170D01*
X139074458Y-118514638D01*
X139105583Y-118534379D01*
X139125515Y-118548061D01*
X139131037Y-118552694D01*
X139137113Y-118560064D01*
X139141798Y-118569116D01*
X139145367Y-118582179D01*
X139148096Y-118601585D01*
X139150261Y-118629664D01*
X139152138Y-118668746D01*
X139154004Y-118721163D01*
X139155108Y-118755985D01*
X139156922Y-118809701D01*
X139158804Y-118857224D01*
X139160635Y-118896121D01*
X139162296Y-118923962D01*
X139163666Y-118938313D01*
X139164121Y-118939733D01*
X139172205Y-118935723D01*
X139192349Y-118924658D01*
X139221968Y-118907988D01*
X139258477Y-118887162D01*
X139281154Y-118874117D01*
X139394884Y-118808500D01*
X139395200Y-118418186D01*
X139203386Y-118308873D01*
X139150549Y-118278381D01*
X139101730Y-118249488D01*
X139059149Y-118223565D01*
X139025027Y-118201984D01*
X139001586Y-118186117D01*
X138991719Y-118178150D01*
X138971867Y-118156740D01*
X138971867Y-117088855D01*
X138999787Y-117061794D01*
X139013613Y-117049194D01*
X139026887Y-117040167D01*
X139041269Y-117035259D01*
X139058417Y-117035016D01*
X139079992Y-117039985D01*
X139107654Y-117050711D01*
X139143061Y-117067741D01*
X139187872Y-117091622D01*
X139243749Y-117122898D01*
X139312349Y-117162117D01*
X139322734Y-117168083D01*
X139394273Y-117209520D01*
X139451979Y-117243706D01*
X139496966Y-117271354D01*
X139530343Y-117293176D01*
X139553222Y-117309885D01*
X139566716Y-117322195D01*
X139570235Y-117326833D01*
X139575610Y-117337704D01*
X139579771Y-117352023D01*
X139582955Y-117372221D01*
X139585401Y-117400729D01*
X139587348Y-117439977D01*
X139589035Y-117492397D01*
X139589934Y-117527550D01*
X139594167Y-117702868D01*
X139710583Y-117634682D01*
X139827000Y-117566496D01*
X139828077Y-117412798D01*
X139828761Y-117354858D01*
X139829949Y-117294717D01*
X139831504Y-117237683D01*
X139833291Y-117189062D01*
X139834427Y-117165967D01*
X139839700Y-117072833D01*
X139886267Y-117042081D01*
X139906506Y-117029277D01*
X139938787Y-117009539D01*
X139980503Y-116984429D01*
X140029048Y-116955511D01*
X140081814Y-116924345D01*
X140122884Y-116900264D01*
X140182415Y-116865673D01*
X140229416Y-116838920D01*
X140265831Y-116819050D01*
X140293601Y-116805109D01*
X140314668Y-116796142D01*
X140330974Y-116791195D01*
X140344461Y-116789312D01*
X140348800Y-116789200D01*
X140357672Y-116789965D01*
X140368782Y-116792677D01*
X140383291Y-116797954D01*
X140402360Y-116806419D01*
X140427149Y-116818693D01*
X140458819Y-116835398D01*
X140498530Y-116857153D01*
X140547442Y-116884580D01*
X140606717Y-116918301D01*
X140677514Y-116958936D01*
X140760995Y-117007107D01*
X140823383Y-117043201D01*
X140905677Y-117091049D01*
X140983059Y-117136436D01*
X141054271Y-117178601D01*
X141118055Y-117216780D01*
X141173155Y-117250213D01*
X141218312Y-117278138D01*
X141252268Y-117299793D01*
X141273767Y-117314415D01*
X141281108Y-117320485D01*
X141296908Y-117352355D01*
X141298691Y-117388711D01*
X141286342Y-117423880D01*
X141275929Y-117434827D01*
X141254023Y-117451368D01*
X141219911Y-117473958D01*
X141172882Y-117503051D01*
X141112224Y-117539100D01*
X141042200Y-117579703D01*
X140975759Y-117617722D01*
X140922183Y-117647923D01*
X140879790Y-117671145D01*
X140846895Y-117688232D01*
X140821813Y-117700026D01*
X140802860Y-117707367D01*
X140788352Y-117711098D01*
X140777392Y-117712066D01*
X140761334Y-117710485D01*
X140742281Y-117704971D01*
X140717690Y-117694369D01*
X140685017Y-117677523D01*
X140641722Y-117653277D01*
X140618325Y-117639779D01*
X140575213Y-117614844D01*
X140535541Y-117592065D01*
X140502340Y-117573168D01*
X140478644Y-117559883D01*
X140469425Y-117554895D01*
X140445067Y-117542298D01*
X140445329Y-117817900D01*
X140637815Y-117927966D01*
X140690657Y-117958535D01*
X140739438Y-117987420D01*
X140781956Y-118013266D01*
X140816012Y-118034717D01*
X140839405Y-118050416D01*
X140849350Y-118058319D01*
X140854494Y-118064106D01*
X140858615Y-118070545D01*
X140861824Y-118079445D01*
X140864231Y-118092612D01*
X140865948Y-118111855D01*
X140867085Y-118138980D01*
X140867753Y-118175795D01*
X140868064Y-118224108D01*
X140868129Y-118285724D01*
X140868057Y-118362453D01*
X140868056Y-118363119D01*
X140867712Y-118647633D01*
X140844773Y-118673638D01*
X140830421Y-118685714D01*
X140803880Y-118704062D01*
X140767384Y-118727412D01*
X140723167Y-118754495D01*
X140673462Y-118784040D01*
X140620504Y-118814777D01*
X140566527Y-118845436D01*
X140513764Y-118874747D01*
X140464450Y-118901440D01*
X140420818Y-118924246D01*
X140385101Y-118941893D01*
X140359536Y-118953113D01*
X140346931Y-118956667D01*
X140320766Y-118949951D01*
X140291566Y-118931632D01*
X140290363Y-118930650D01*
X140258800Y-118904634D01*
X140257881Y-118708400D01*
X140257378Y-118649153D01*
X140256479Y-118592643D01*
X140255270Y-118542069D01*
X140253832Y-118500631D01*
X140252248Y-118471527D01*
X140251531Y-118463492D01*
X140246100Y-118414818D01*
X140129683Y-118347921D01*
X140013267Y-118281025D01*
X140013267Y-119055047D01*
X140179793Y-119150499D01*
X140234379Y-119181602D01*
X140276351Y-119204964D01*
X140307658Y-119221491D01*
X140330246Y-119232088D01*
X140346063Y-119237660D01*
X140357055Y-119239112D01*
X140365170Y-119237349D01*
X140365912Y-119237025D01*
X140378483Y-119230389D01*
X140403416Y-119216478D01*
X140438459Y-119196575D01*
X140481362Y-119171964D01*
X140529876Y-119143927D01*
X140567573Y-119122016D01*
X140632296Y-119084775D01*
X140683909Y-119056170D01*
X140723520Y-119035639D01*
X140752238Y-119022618D01*
X140771169Y-119016548D01*
X140776732Y-119015933D01*
X140787795Y-119017258D01*
X140802579Y-119021706D01*
X140822408Y-119029984D01*
X140848611Y-119042802D01*
X140882512Y-119060869D01*
X140925439Y-119084892D01*
X140978718Y-119115581D01*
X141043675Y-119153644D01*
X141121637Y-119199790D01*
X141128504Y-119203870D01*
X141174948Y-119231972D01*
X141216628Y-119258155D01*
X141251240Y-119280894D01*
X141276481Y-119298663D01*
X141290047Y-119309936D01*
X141291488Y-119311807D01*
X141298936Y-119339482D01*
X141298082Y-119372792D01*
X141289254Y-119402805D01*
X141288048Y-119405097D01*
X141276287Y-119416679D01*
X141249991Y-119435619D01*
X141209700Y-119461570D01*
X141155960Y-119494185D01*
X141089311Y-119533118D01*
X141074565Y-119541583D01*
X140872634Y-119657205D01*
X140870310Y-119798480D01*
X140867986Y-119939756D01*
X140904177Y-119918565D01*
X140919349Y-119909740D01*
X140947397Y-119893487D01*
X140986533Y-119870838D01*
X141034967Y-119842830D01*
X141090909Y-119810496D01*
X141152570Y-119774872D01*
X141218160Y-119736991D01*
X141240934Y-119723842D01*
X141541500Y-119550311D01*
X141543619Y-119357205D01*
X141545738Y-119164100D01*
X141346082Y-119050142D01*
X141285296Y-119014937D01*
X141232294Y-118983219D01*
X141188637Y-118955977D01*
X141155884Y-118934199D01*
X141135594Y-118918873D01*
X141130180Y-118913369D01*
X141126849Y-118908114D01*
X141124007Y-118901562D01*
X141121615Y-118892415D01*
X141119634Y-118879374D01*
X141118026Y-118861139D01*
X141116751Y-118836412D01*
X141115773Y-118803894D01*
X141115050Y-118762286D01*
X141114546Y-118710291D01*
X141114221Y-118646608D01*
X141114036Y-118569939D01*
X141113953Y-118478985D01*
X141113934Y-118372448D01*
X141113934Y-118367926D01*
X141113950Y-118260786D01*
X141114025Y-118169270D01*
X141114199Y-118092068D01*
X141114511Y-118027869D01*
X141115001Y-117975364D01*
X141115710Y-117933243D01*
X141116677Y-117900196D01*
X141117941Y-117874913D01*
X141119543Y-117856084D01*
X141121522Y-117842400D01*
X141123918Y-117832550D01*
X141126771Y-117825224D01*
X141130121Y-117819113D01*
X141130636Y-117818274D01*
X141154053Y-117793975D01*
X141185065Y-117779582D01*
X141217647Y-117777362D01*
X141230547Y-117780679D01*
X141245696Y-117787882D01*
X141272792Y-117802214D01*
X141309548Y-117822361D01*
X141353678Y-117847008D01*
X141402893Y-117874838D01*
X141454908Y-117904537D01*
X141507435Y-117934789D01*
X141558187Y-117964278D01*
X141604877Y-117991690D01*
X141645218Y-118015709D01*
X141676923Y-118035019D01*
X141697706Y-118048305D01*
X141704483Y-118053274D01*
X141710655Y-118059415D01*
X141715325Y-118066617D01*
X141718704Y-118077144D01*
X141720999Y-118093260D01*
X141722421Y-118117228D01*
X141723178Y-118151314D01*
X141723479Y-118197780D01*
X141723533Y-118258891D01*
X141723533Y-118259642D01*
X141723804Y-118314140D01*
X141724563Y-118362447D01*
X141725730Y-118402172D01*
X141727223Y-118430922D01*
X141728963Y-118446307D01*
X141729883Y-118448241D01*
X141739038Y-118444049D01*
X141760141Y-118432762D01*
X141790535Y-118415848D01*
X141827562Y-118394779D01*
X141850533Y-118381521D01*
X141964833Y-118315226D01*
X141970054Y-118117363D01*
X141971613Y-118058172D01*
X141973087Y-118001977D01*
X141974397Y-117951892D01*
X141975459Y-117911033D01*
X141976194Y-117882512D01*
X141976404Y-117874213D01*
X141978597Y-117845208D01*
X141985268Y-117825799D01*
X141999268Y-117808727D01*
X142003829Y-117804363D01*
X142036049Y-117784402D01*
X142070950Y-117779353D01*
X142104730Y-117788487D01*
X142133584Y-117811074D01*
X142147546Y-117831931D01*
X142154210Y-117847183D01*
X142158671Y-117864357D01*
X142161260Y-117886903D01*
X142162311Y-117918269D01*
X142162157Y-117961905D01*
X142161882Y-117980546D01*
X142161074Y-118030080D01*
X142160095Y-118090550D01*
X142159043Y-118155958D01*
X142158014Y-118220308D01*
X142157467Y-118254745D01*
X142156493Y-118310175D01*
X142155381Y-118351199D01*
X142153822Y-118380343D01*
X142151505Y-118400132D01*
X142148122Y-118413093D01*
X142143365Y-118421752D01*
X142136923Y-118428635D01*
X142136101Y-118429389D01*
X142124157Y-118437872D01*
X142099505Y-118453539D01*
X142064147Y-118475184D01*
X142020084Y-118501598D01*
X141969318Y-118531575D01*
X141913849Y-118563908D01*
X141895308Y-118574627D01*
X141831525Y-118611312D01*
X141780502Y-118640296D01*
X141740409Y-118662472D01*
X141709416Y-118678734D01*
X141685691Y-118689975D01*
X141667404Y-118697087D01*
X141652724Y-118700963D01*
X141639822Y-118702497D01*
X141632841Y-118702666D01*
X141606334Y-118701145D01*
X141588961Y-118694236D01*
X141573024Y-118678420D01*
X141569017Y-118673485D01*
X141545733Y-118644305D01*
X141545731Y-118408902D01*
X141545729Y-118173500D01*
X141467415Y-118129154D01*
X141428967Y-118107332D01*
X141390503Y-118085416D01*
X141357834Y-118066721D01*
X141344650Y-118059133D01*
X141300200Y-118033457D01*
X141300239Y-118420979D01*
X141300277Y-118808500D01*
X141480155Y-118909328D01*
X141532362Y-118939093D01*
X141581334Y-118967949D01*
X141624541Y-118994333D01*
X141659457Y-119016682D01*
X141683553Y-119033433D01*
X141691783Y-119040163D01*
X141723533Y-119070170D01*
X141723264Y-119358435D01*
X141723070Y-119439032D01*
X141722610Y-119504289D01*
X141721822Y-119555798D01*
X141720642Y-119595151D01*
X141719006Y-119623940D01*
X141716852Y-119643756D01*
X141714117Y-119656192D01*
X141711181Y-119662291D01*
X141701892Y-119669219D01*
X141679216Y-119683781D01*
X141644460Y-119705199D01*
X141598931Y-119732694D01*
X141543936Y-119765487D01*
X141480783Y-119802797D01*
X141410778Y-119843845D01*
X141335230Y-119887853D01*
X141255445Y-119934041D01*
X141253191Y-119935341D01*
X141157574Y-119990503D01*
X141075472Y-120037735D01*
X141005723Y-120077552D01*
X140947164Y-120110465D01*
X140898631Y-120136990D01*
X140858962Y-120157639D01*
X140826993Y-120172925D01*
X140801563Y-120183362D01*
X140781507Y-120189464D01*
X140765663Y-120191744D01*
X140752868Y-120190714D01*
X140741959Y-120186889D01*
X140731773Y-120180783D01*
X140721148Y-120172907D01*
X140718916Y-120171202D01*
X140690600Y-120149605D01*
X140690600Y-119859077D01*
X140690646Y-119780997D01*
X140690846Y-119718060D01*
X140691294Y-119668476D01*
X140692085Y-119630454D01*
X140693313Y-119602204D01*
X140695071Y-119581936D01*
X140697453Y-119567860D01*
X140700554Y-119558185D01*
X140704468Y-119551120D01*
X140706958Y-119547755D01*
X140719424Y-119536883D01*
X140743948Y-119519515D01*
X140777814Y-119497431D01*
X140818306Y-119472408D01*
X140857241Y-119449380D01*
X140900717Y-119424149D01*
X140939583Y-119401505D01*
X140971274Y-119382950D01*
X140993226Y-119369984D01*
X141002608Y-119364287D01*
X141002857Y-119358204D01*
X140991722Y-119347077D01*
X140968431Y-119330391D01*
X140932215Y-119307633D01*
X140882302Y-119278287D01*
X140825759Y-119246226D01*
X140778884Y-119219960D01*
X140580225Y-119333667D01*
X140517275Y-119369435D01*
X140467082Y-119397282D01*
X140427921Y-119418059D01*
X140398065Y-119432619D01*
X140375789Y-119441812D01*
X140359367Y-119446490D01*
X140349348Y-119447554D01*
X140337789Y-119446245D01*
X140322477Y-119441663D01*
X140301825Y-119432999D01*
X140274244Y-119419442D01*
X140238147Y-119400183D01*
X140191948Y-119374411D01*
X140134060Y-119341317D01*
X140080727Y-119310454D01*
X140013900Y-119271484D01*
X139960367Y-119239829D01*
X139918656Y-119214514D01*
X139887293Y-119194566D01*
X139864808Y-119179010D01*
X139849728Y-119166872D01*
X139840580Y-119157179D01*
X139835893Y-119148956D01*
X139835663Y-119148324D01*
X139833701Y-119133986D01*
X139831974Y-119103229D01*
X139830491Y-119056563D01*
X139829258Y-118994501D01*
X139828284Y-118917555D01*
X139827578Y-118826236D01*
X139827147Y-118721057D01*
X139827000Y-118602529D01*
X139827000Y-118079301D01*
X139851079Y-118056233D01*
X139878211Y-118035924D01*
X139906687Y-118027687D01*
X139939594Y-118031536D01*
X139980021Y-118047489D01*
X139998569Y-118057036D01*
X140053995Y-118087379D01*
X140111937Y-118119892D01*
X140170433Y-118153397D01*
X140227519Y-118186718D01*
X140281234Y-118218676D01*
X140329615Y-118248094D01*
X140370699Y-118273794D01*
X140402522Y-118294598D01*
X140423123Y-118309329D01*
X140430278Y-118316072D01*
X140434670Y-118332759D01*
X140438455Y-118366194D01*
X140441618Y-118416200D01*
X140444148Y-118482603D01*
X140444988Y-118514059D01*
X140449300Y-118693752D01*
X140570107Y-118625242D01*
X140690913Y-118556731D01*
X140688640Y-118365115D01*
X140686367Y-118173500D01*
X140493149Y-118062640D01*
X140440182Y-118031913D01*
X140391225Y-118002877D01*
X140348480Y-117976888D01*
X140314149Y-117955303D01*
X140290436Y-117939478D01*
X140280112Y-117931406D01*
X140260292Y-117911033D01*
X140257429Y-117635867D01*
X140256747Y-117554829D01*
X140256586Y-117489143D01*
X140256989Y-117437233D01*
X140257999Y-117397523D01*
X140259659Y-117368440D01*
X140262011Y-117348407D01*
X140265098Y-117335849D01*
X140265621Y-117334527D01*
X140283176Y-117311121D01*
X140310953Y-117291994D01*
X140342240Y-117281276D01*
X140353807Y-117280266D01*
X140365870Y-117284358D01*
X140390379Y-117295876D01*
X140425172Y-117313690D01*
X140468084Y-117336665D01*
X140516952Y-117363671D01*
X140563070Y-117389814D01*
X140615245Y-117419629D01*
X140663123Y-117446790D01*
X140704578Y-117470107D01*
X140737486Y-117488389D01*
X140759720Y-117500446D01*
X140768764Y-117504962D01*
X140783235Y-117503022D01*
X140811318Y-117491317D01*
X140853073Y-117469820D01*
X140897881Y-117444679D01*
X140937032Y-117421837D01*
X140970370Y-117401805D01*
X140995404Y-117386126D01*
X141009640Y-117376344D01*
X141011967Y-117373981D01*
X141004851Y-117369065D01*
X140984846Y-117356795D01*
X140953766Y-117338223D01*
X140913423Y-117314397D01*
X140865631Y-117286367D01*
X140812202Y-117255183D01*
X140754949Y-117221894D01*
X140695686Y-117187551D01*
X140636226Y-117153203D01*
X140578380Y-117119899D01*
X140523963Y-117088690D01*
X140474787Y-117060624D01*
X140432666Y-117036753D01*
X140399412Y-117018125D01*
X140376838Y-117005790D01*
X140369564Y-117002036D01*
X140361371Y-116998662D01*
X140352648Y-116997551D01*
X140341359Y-116999606D01*
X140325472Y-117005733D01*
X140302950Y-117016838D01*
X140271760Y-117033824D01*
X140229867Y-117057598D01*
X140179609Y-117086539D01*
X140013267Y-117182574D01*
X140013232Y-117322437D01*
X140012841Y-117380687D01*
X140011790Y-117443656D01*
X140010227Y-117504776D01*
X140008299Y-117557481D01*
X140007677Y-117570555D01*
X140002156Y-117678810D01*
X139929395Y-117723696D01*
X139900076Y-117741497D01*
X139859464Y-117765753D01*
X139810939Y-117794466D01*
X139757881Y-117825639D01*
X139703669Y-117857274D01*
X139686360Y-117867324D01*
X139625825Y-117902139D01*
X139577762Y-117928738D01*
X139540158Y-117947678D01*
X139511003Y-117959517D01*
X139488284Y-117964812D01*
X139469990Y-117964122D01*
X139454110Y-117958004D01*
X139438631Y-117947015D01*
X139429067Y-117938650D01*
X139399434Y-117911730D01*
X139396470Y-117668924D01*
X139393507Y-117426117D01*
X139283024Y-117363775D01*
X139243852Y-117341751D01*
X139209799Y-117322754D01*
X139183638Y-117308320D01*
X139168141Y-117299983D01*
X139165337Y-117298611D01*
X139163860Y-117306206D01*
X139162486Y-117329067D01*
X139161244Y-117365530D01*
X139160168Y-117413929D01*
X139159287Y-117472597D01*
X139158634Y-117539868D01*
X139158241Y-117614077D01*
X139158133Y-117680128D01*
X139158133Y-118064468D01*
X139360695Y-118181948D01*
X139431071Y-118223268D01*
X139486817Y-118257132D01*
X139528365Y-118283822D01*
X139556148Y-118303617D01*
X139570598Y-118316801D01*
X139572549Y-118319824D01*
X139575840Y-118335337D01*
X139578860Y-118365150D01*
X139581564Y-118406634D01*
X139583906Y-118457157D01*
X139585842Y-118514089D01*
X139587324Y-118574798D01*
X139588308Y-118636654D01*
X139588748Y-118697026D01*
X139588598Y-118753283D01*
X139587813Y-118802795D01*
X139586348Y-118842930D01*
X139584155Y-118871058D01*
X139582292Y-118881752D01*
X139579347Y-118892571D01*
X139576255Y-118901744D01*
X139571571Y-118910291D01*
X139563844Y-118919237D01*
X139551628Y-118929604D01*
X139533475Y-118942414D01*
X139507937Y-118958690D01*
X139473565Y-118979455D01*
X139428913Y-119005731D01*
X139372532Y-119038541D01*
X139303920Y-119078358D01*
X139238411Y-119116196D01*
X139185611Y-119146055D01*
X139143699Y-119168660D01*
X139110858Y-119184734D01*
X139085268Y-119195000D01*
X139065112Y-119200184D01*
X139048570Y-119201009D01*
X139033825Y-119198197D01*
X139019057Y-119192475D01*
X139018197Y-119192085D01*
X139005295Y-119185350D01*
X138995033Y-119176945D01*
X138987110Y-119164995D01*
X138981226Y-119147622D01*
X138977079Y-119122951D01*
X138974371Y-119089105D01*
X138972800Y-119044209D01*
X138972066Y-118986385D01*
X138971869Y-118913759D01*
X138971867Y-118902726D01*
X138971867Y-118670144D01*
X138852440Y-118601739D01*
X138812124Y-118578761D01*
X138777194Y-118559070D01*
X138750176Y-118544073D01*
X138733599Y-118535178D01*
X138729588Y-118533333D01*
X138728934Y-118541520D01*
X138728414Y-118564960D01*
X138728036Y-118601976D01*
X138727803Y-118650889D01*
X138727722Y-118710019D01*
X138727797Y-118777688D01*
X138728034Y-118852216D01*
X138728365Y-118919291D01*
X138730567Y-119305250D01*
X138896263Y-119400662D01*
X139061959Y-119496075D01*
X139264008Y-119378920D01*
X139323966Y-119344240D01*
X139371216Y-119317236D01*
X139407652Y-119297013D01*
X139435167Y-119282675D01*
X139455656Y-119273327D01*
X139471015Y-119268074D01*
X139483137Y-119266019D01*
X139493917Y-119266267D01*
X139500478Y-119267141D01*
X139517941Y-119273069D01*
X139548940Y-119287548D01*
X139593622Y-119310660D01*
X139652137Y-119342485D01*
X139724635Y-119383102D01*
X139811263Y-119432591D01*
X139856633Y-119458784D01*
X139966734Y-119522577D01*
X140062882Y-119578400D01*
X140145821Y-119626692D01*
X140216296Y-119667895D01*
X140275051Y-119702447D01*
X140322831Y-119730789D01*
X140360379Y-119753361D01*
X140388441Y-119770604D01*
X140407759Y-119782956D01*
X140419080Y-119790858D01*
X140421167Y-119792547D01*
X140435795Y-119815069D01*
X140441919Y-119845757D01*
X140438898Y-119877782D01*
X140431002Y-119897330D01*
X140418803Y-119909559D01*
X140393863Y-119928302D01*
X140358428Y-119952260D01*
X140314743Y-119980133D01*
X140265056Y-120010620D01*
X140211612Y-120042422D01*
X140156657Y-120074239D01*
X140102438Y-120104770D01*
X140051200Y-120132716D01*
X140005190Y-120156777D01*
X139966653Y-120175653D01*
X139937837Y-120188043D01*
X139920987Y-120192648D01*
X139920736Y-120192652D01*
X139905275Y-120190112D01*
X139882752Y-120181812D01*
X139851451Y-120166926D01*
X139809654Y-120144627D01*
X139755647Y-120114087D01*
X139745329Y-120108133D01*
X139700472Y-120082317D01*
X139660699Y-120059676D01*
X139628295Y-120041489D01*
X139605545Y-120029038D01*
X139594734Y-120023601D01*
X139594234Y-120023466D01*
X139592785Y-120031461D01*
X139591802Y-120053570D01*
X139591334Y-120086976D01*
X139591430Y-120128865D01*
X139591840Y-120160621D01*
X139594167Y-120297775D01*
X139777963Y-120404038D01*
X139830041Y-120434541D01*
X139878509Y-120463670D01*
X139921004Y-120489947D01*
X139955165Y-120511894D01*
X139978629Y-120528034D01*
X139987513Y-120535167D01*
X140008358Y-120565696D01*
X140013146Y-120600796D01*
X140001728Y-120639230D01*
X140000479Y-120641703D01*
X139982538Y-120666286D01*
X139957886Y-120679595D01*
X139922245Y-120683850D01*
X139919262Y-120683866D01*
X139906961Y-120682851D01*
X139892346Y-120679219D01*
X139873631Y-120672086D01*
X139849030Y-120660572D01*
X139816755Y-120643795D01*
X139775019Y-120620872D01*
X139722037Y-120590923D01*
X139666822Y-120559282D01*
X139610220Y-120526280D01*
X139557144Y-120494497D01*
X139509754Y-120465291D01*
X139470214Y-120440024D01*
X139440684Y-120420053D01*
X139423327Y-120406740D01*
X139421509Y-120404998D01*
X139392785Y-120375300D01*
X139401581Y-119808492D01*
X139428158Y-119784746D01*
X139443535Y-119772194D01*
X139458580Y-119763766D01*
X139475101Y-119760026D01*
X139494904Y-119761537D01*
X139519797Y-119768863D01*
X139551587Y-119782567D01*
X139592083Y-119803212D01*
X139643090Y-119831362D01*
X139706416Y-119867581D01*
X139721144Y-119876089D01*
X139920187Y-119991177D01*
X139960377Y-119968047D01*
X139985189Y-119953708D01*
X140019266Y-119933938D01*
X140057253Y-119911846D01*
X140079885Y-119898658D01*
X140159203Y-119852400D01*
X140084118Y-119808557D01*
X140058507Y-119793675D01*
X140020586Y-119771741D01*
X139972736Y-119744127D01*
X139917337Y-119712204D01*
X139856768Y-119677344D01*
X139793411Y-119640919D01*
X139752627Y-119617493D01*
X139496220Y-119470274D01*
X139464760Y-119485251D01*
X139447585Y-119494145D01*
X139418663Y-119509909D01*
X139380900Y-119530928D01*
X139337202Y-119555581D01*
X139290474Y-119582254D01*
X139289367Y-119582889D01*
X139228218Y-119617960D01*
X139179901Y-119645419D01*
X139142571Y-119666106D01*
X139114385Y-119680859D01*
X139093499Y-119690517D01*
X139078070Y-119695918D01*
X139066254Y-119697901D01*
X139056208Y-119697304D01*
X139046087Y-119694966D01*
X139044135Y-119694430D01*
X139029716Y-119688287D01*
X139002749Y-119674724D01*
X138965308Y-119654863D01*
X138919466Y-119629827D01*
X138867294Y-119600740D01*
X138810865Y-119568724D01*
X138789614Y-119556528D01*
X138718646Y-119515325D01*
X138661641Y-119481417D01*
X138617604Y-119454162D01*
X138585539Y-119432922D01*
X138564451Y-119417055D01*
X138553345Y-119405922D01*
X138551959Y-119403704D01*
X138549445Y-119396411D01*
X138547297Y-119384134D01*
X138545489Y-119365666D01*
X138543995Y-119339800D01*
X138542788Y-119305330D01*
X138541842Y-119261049D01*
X138541131Y-119205750D01*
X138540627Y-119138227D01*
X138540305Y-119057274D01*
X138540138Y-118961683D01*
X138540098Y-118861837D01*
X138540126Y-118754945D01*
X138540126Y-118754945D01*
G37*
X138540126Y-118754945D02*
X138540220Y-118663675D01*
X138540419Y-118586716D01*
X138540760Y-118522758D01*
X138541284Y-118470489D01*
X138542027Y-118428599D01*
X138543028Y-118395776D01*
X138544325Y-118370709D01*
X138545957Y-118352088D01*
X138547962Y-118338601D01*
X138550379Y-118328938D01*
X138553245Y-118321787D01*
X138556030Y-118316758D01*
X138581640Y-118289028D01*
X138614393Y-118274938D01*
X138650443Y-118276031D01*
X138654662Y-118277211D01*
X138670949Y-118284233D01*
X138699091Y-118298526D01*
X138736785Y-118318756D01*
X138781725Y-118343590D01*
X138831606Y-118371695D01*
X138884124Y-118401739D01*
X138936973Y-118432388D01*
X138987848Y-118462309D01*
X139034445Y-118490170D01*
X139074458Y-118514638D01*
X139105583Y-118534379D01*
X139125515Y-118548061D01*
X139131037Y-118552694D01*
X139137113Y-118560064D01*
X139141798Y-118569116D01*
X139145367Y-118582179D01*
X139148096Y-118601585D01*
X139150261Y-118629664D01*
X139152138Y-118668746D01*
X139154004Y-118721163D01*
X139155108Y-118755985D01*
X139156922Y-118809701D01*
X139158804Y-118857224D01*
X139160635Y-118896121D01*
X139162296Y-118923962D01*
X139163666Y-118938313D01*
X139164121Y-118939733D01*
X139172205Y-118935723D01*
X139192349Y-118924658D01*
X139221968Y-118907988D01*
X139258477Y-118887162D01*
X139281154Y-118874117D01*
X139394884Y-118808500D01*
X139395200Y-118418186D01*
X139203386Y-118308873D01*
X139150549Y-118278381D01*
X139101730Y-118249488D01*
X139059149Y-118223565D01*
X139025027Y-118201984D01*
X139001586Y-118186117D01*
X138991719Y-118178150D01*
X138971867Y-118156740D01*
X138971867Y-117088855D01*
X138999787Y-117061794D01*
X139013613Y-117049194D01*
X139026887Y-117040167D01*
X139041269Y-117035259D01*
X139058417Y-117035016D01*
X139079992Y-117039985D01*
X139107654Y-117050711D01*
X139143061Y-117067741D01*
X139187872Y-117091622D01*
X139243749Y-117122898D01*
X139312349Y-117162117D01*
X139322734Y-117168083D01*
X139394273Y-117209520D01*
X139451979Y-117243706D01*
X139496966Y-117271354D01*
X139530343Y-117293176D01*
X139553222Y-117309885D01*
X139566716Y-117322195D01*
X139570235Y-117326833D01*
X139575610Y-117337704D01*
X139579771Y-117352023D01*
X139582955Y-117372221D01*
X139585401Y-117400729D01*
X139587348Y-117439977D01*
X139589035Y-117492397D01*
X139589934Y-117527550D01*
X139594167Y-117702868D01*
X139710583Y-117634682D01*
X139827000Y-117566496D01*
X139828077Y-117412798D01*
X139828761Y-117354858D01*
X139829949Y-117294717D01*
X139831504Y-117237683D01*
X139833291Y-117189062D01*
X139834427Y-117165967D01*
X139839700Y-117072833D01*
X139886267Y-117042081D01*
X139906506Y-117029277D01*
X139938787Y-117009539D01*
X139980503Y-116984429D01*
X140029048Y-116955511D01*
X140081814Y-116924345D01*
X140122884Y-116900264D01*
X140182415Y-116865673D01*
X140229416Y-116838920D01*
X140265831Y-116819050D01*
X140293601Y-116805109D01*
X140314668Y-116796142D01*
X140330974Y-116791195D01*
X140344461Y-116789312D01*
X140348800Y-116789200D01*
X140357672Y-116789965D01*
X140368782Y-116792677D01*
X140383291Y-116797954D01*
X140402360Y-116806419D01*
X140427149Y-116818693D01*
X140458819Y-116835398D01*
X140498530Y-116857153D01*
X140547442Y-116884580D01*
X140606717Y-116918301D01*
X140677514Y-116958936D01*
X140760995Y-117007107D01*
X140823383Y-117043201D01*
X140905677Y-117091049D01*
X140983059Y-117136436D01*
X141054271Y-117178601D01*
X141118055Y-117216780D01*
X141173155Y-117250213D01*
X141218312Y-117278138D01*
X141252268Y-117299793D01*
X141273767Y-117314415D01*
X141281108Y-117320485D01*
X141296908Y-117352355D01*
X141298691Y-117388711D01*
X141286342Y-117423880D01*
X141275929Y-117434827D01*
X141254023Y-117451368D01*
X141219911Y-117473958D01*
X141172882Y-117503051D01*
X141112224Y-117539100D01*
X141042200Y-117579703D01*
X140975759Y-117617722D01*
X140922183Y-117647923D01*
X140879790Y-117671145D01*
X140846895Y-117688232D01*
X140821813Y-117700026D01*
X140802860Y-117707367D01*
X140788352Y-117711098D01*
X140777392Y-117712066D01*
X140761334Y-117710485D01*
X140742281Y-117704971D01*
X140717690Y-117694369D01*
X140685017Y-117677523D01*
X140641722Y-117653277D01*
X140618325Y-117639779D01*
X140575213Y-117614844D01*
X140535541Y-117592065D01*
X140502340Y-117573168D01*
X140478644Y-117559883D01*
X140469425Y-117554895D01*
X140445067Y-117542298D01*
X140445329Y-117817900D01*
X140637815Y-117927966D01*
X140690657Y-117958535D01*
X140739438Y-117987420D01*
X140781956Y-118013266D01*
X140816012Y-118034717D01*
X140839405Y-118050416D01*
X140849350Y-118058319D01*
X140854494Y-118064106D01*
X140858615Y-118070545D01*
X140861824Y-118079445D01*
X140864231Y-118092612D01*
X140865948Y-118111855D01*
X140867085Y-118138980D01*
X140867753Y-118175795D01*
X140868064Y-118224108D01*
X140868129Y-118285724D01*
X140868057Y-118362453D01*
X140868056Y-118363119D01*
X140867712Y-118647633D01*
X140844773Y-118673638D01*
X140830421Y-118685714D01*
X140803880Y-118704062D01*
X140767384Y-118727412D01*
X140723167Y-118754495D01*
X140673462Y-118784040D01*
X140620504Y-118814777D01*
X140566527Y-118845436D01*
X140513764Y-118874747D01*
X140464450Y-118901440D01*
X140420818Y-118924246D01*
X140385101Y-118941893D01*
X140359536Y-118953113D01*
X140346931Y-118956667D01*
X140320766Y-118949951D01*
X140291566Y-118931632D01*
X140290363Y-118930650D01*
X140258800Y-118904634D01*
X140257881Y-118708400D01*
X140257378Y-118649153D01*
X140256479Y-118592643D01*
X140255270Y-118542069D01*
X140253832Y-118500631D01*
X140252248Y-118471527D01*
X140251531Y-118463492D01*
X140246100Y-118414818D01*
X140129683Y-118347921D01*
X140013267Y-118281025D01*
X140013267Y-119055047D01*
X140179793Y-119150499D01*
X140234379Y-119181602D01*
X140276351Y-119204964D01*
X140307658Y-119221491D01*
X140330246Y-119232088D01*
X140346063Y-119237660D01*
X140357055Y-119239112D01*
X140365170Y-119237349D01*
X140365912Y-119237025D01*
X140378483Y-119230389D01*
X140403416Y-119216478D01*
X140438459Y-119196575D01*
X140481362Y-119171964D01*
X140529876Y-119143927D01*
X140567573Y-119122016D01*
X140632296Y-119084775D01*
X140683909Y-119056170D01*
X140723520Y-119035639D01*
X140752238Y-119022618D01*
X140771169Y-119016548D01*
X140776732Y-119015933D01*
X140787795Y-119017258D01*
X140802579Y-119021706D01*
X140822408Y-119029984D01*
X140848611Y-119042802D01*
X140882512Y-119060869D01*
X140925439Y-119084892D01*
X140978718Y-119115581D01*
X141043675Y-119153644D01*
X141121637Y-119199790D01*
X141128504Y-119203870D01*
X141174948Y-119231972D01*
X141216628Y-119258155D01*
X141251240Y-119280894D01*
X141276481Y-119298663D01*
X141290047Y-119309936D01*
X141291488Y-119311807D01*
X141298936Y-119339482D01*
X141298082Y-119372792D01*
X141289254Y-119402805D01*
X141288048Y-119405097D01*
X141276287Y-119416679D01*
X141249991Y-119435619D01*
X141209700Y-119461570D01*
X141155960Y-119494185D01*
X141089311Y-119533118D01*
X141074565Y-119541583D01*
X140872634Y-119657205D01*
X140870310Y-119798480D01*
X140867986Y-119939756D01*
X140904177Y-119918565D01*
X140919349Y-119909740D01*
X140947397Y-119893487D01*
X140986533Y-119870838D01*
X141034967Y-119842830D01*
X141090909Y-119810496D01*
X141152570Y-119774872D01*
X141218160Y-119736991D01*
X141240934Y-119723842D01*
X141541500Y-119550311D01*
X141543619Y-119357205D01*
X141545738Y-119164100D01*
X141346082Y-119050142D01*
X141285296Y-119014937D01*
X141232294Y-118983219D01*
X141188637Y-118955977D01*
X141155884Y-118934199D01*
X141135594Y-118918873D01*
X141130180Y-118913369D01*
X141126849Y-118908114D01*
X141124007Y-118901562D01*
X141121615Y-118892415D01*
X141119634Y-118879374D01*
X141118026Y-118861139D01*
X141116751Y-118836412D01*
X141115773Y-118803894D01*
X141115050Y-118762286D01*
X141114546Y-118710291D01*
X141114221Y-118646608D01*
X141114036Y-118569939D01*
X141113953Y-118478985D01*
X141113934Y-118372448D01*
X141113934Y-118367926D01*
X141113950Y-118260786D01*
X141114025Y-118169270D01*
X141114199Y-118092068D01*
X141114511Y-118027869D01*
X141115001Y-117975364D01*
X141115710Y-117933243D01*
X141116677Y-117900196D01*
X141117941Y-117874913D01*
X141119543Y-117856084D01*
X141121522Y-117842400D01*
X141123918Y-117832550D01*
X141126771Y-117825224D01*
X141130121Y-117819113D01*
X141130636Y-117818274D01*
X141154053Y-117793975D01*
X141185065Y-117779582D01*
X141217647Y-117777362D01*
X141230547Y-117780679D01*
X141245696Y-117787882D01*
X141272792Y-117802214D01*
X141309548Y-117822361D01*
X141353678Y-117847008D01*
X141402893Y-117874838D01*
X141454908Y-117904537D01*
X141507435Y-117934789D01*
X141558187Y-117964278D01*
X141604877Y-117991690D01*
X141645218Y-118015709D01*
X141676923Y-118035019D01*
X141697706Y-118048305D01*
X141704483Y-118053274D01*
X141710655Y-118059415D01*
X141715325Y-118066617D01*
X141718704Y-118077144D01*
X141720999Y-118093260D01*
X141722421Y-118117228D01*
X141723178Y-118151314D01*
X141723479Y-118197780D01*
X141723533Y-118258891D01*
X141723533Y-118259642D01*
X141723804Y-118314140D01*
X141724563Y-118362447D01*
X141725730Y-118402172D01*
X141727223Y-118430922D01*
X141728963Y-118446307D01*
X141729883Y-118448241D01*
X141739038Y-118444049D01*
X141760141Y-118432762D01*
X141790535Y-118415848D01*
X141827562Y-118394779D01*
X141850533Y-118381521D01*
X141964833Y-118315226D01*
X141970054Y-118117363D01*
X141971613Y-118058172D01*
X141973087Y-118001977D01*
X141974397Y-117951892D01*
X141975459Y-117911033D01*
X141976194Y-117882512D01*
X141976404Y-117874213D01*
X141978597Y-117845208D01*
X141985268Y-117825799D01*
X141999268Y-117808727D01*
X142003829Y-117804363D01*
X142036049Y-117784402D01*
X142070950Y-117779353D01*
X142104730Y-117788487D01*
X142133584Y-117811074D01*
X142147546Y-117831931D01*
X142154210Y-117847183D01*
X142158671Y-117864357D01*
X142161260Y-117886903D01*
X142162311Y-117918269D01*
X142162157Y-117961905D01*
X142161882Y-117980546D01*
X142161074Y-118030080D01*
X142160095Y-118090550D01*
X142159043Y-118155958D01*
X142158014Y-118220308D01*
X142157467Y-118254745D01*
X142156493Y-118310175D01*
X142155381Y-118351199D01*
X142153822Y-118380343D01*
X142151505Y-118400132D01*
X142148122Y-118413093D01*
X142143365Y-118421752D01*
X142136923Y-118428635D01*
X142136101Y-118429389D01*
X142124157Y-118437872D01*
X142099505Y-118453539D01*
X142064147Y-118475184D01*
X142020084Y-118501598D01*
X141969318Y-118531575D01*
X141913849Y-118563908D01*
X141895308Y-118574627D01*
X141831525Y-118611312D01*
X141780502Y-118640296D01*
X141740409Y-118662472D01*
X141709416Y-118678734D01*
X141685691Y-118689975D01*
X141667404Y-118697087D01*
X141652724Y-118700963D01*
X141639822Y-118702497D01*
X141632841Y-118702666D01*
X141606334Y-118701145D01*
X141588961Y-118694236D01*
X141573024Y-118678420D01*
X141569017Y-118673485D01*
X141545733Y-118644305D01*
X141545731Y-118408902D01*
X141545729Y-118173500D01*
X141467415Y-118129154D01*
X141428967Y-118107332D01*
X141390503Y-118085416D01*
X141357834Y-118066721D01*
X141344650Y-118059133D01*
X141300200Y-118033457D01*
X141300239Y-118420979D01*
X141300277Y-118808500D01*
X141480155Y-118909328D01*
X141532362Y-118939093D01*
X141581334Y-118967949D01*
X141624541Y-118994333D01*
X141659457Y-119016682D01*
X141683553Y-119033433D01*
X141691783Y-119040163D01*
X141723533Y-119070170D01*
X141723264Y-119358435D01*
X141723070Y-119439032D01*
X141722610Y-119504289D01*
X141721822Y-119555798D01*
X141720642Y-119595151D01*
X141719006Y-119623940D01*
X141716852Y-119643756D01*
X141714117Y-119656192D01*
X141711181Y-119662291D01*
X141701892Y-119669219D01*
X141679216Y-119683781D01*
X141644460Y-119705199D01*
X141598931Y-119732694D01*
X141543936Y-119765487D01*
X141480783Y-119802797D01*
X141410778Y-119843845D01*
X141335230Y-119887853D01*
X141255445Y-119934041D01*
X141253191Y-119935341D01*
X141157574Y-119990503D01*
X141075472Y-120037735D01*
X141005723Y-120077552D01*
X140947164Y-120110465D01*
X140898631Y-120136990D01*
X140858962Y-120157639D01*
X140826993Y-120172925D01*
X140801563Y-120183362D01*
X140781507Y-120189464D01*
X140765663Y-120191744D01*
X140752868Y-120190714D01*
X140741959Y-120186889D01*
X140731773Y-120180783D01*
X140721148Y-120172907D01*
X140718916Y-120171202D01*
X140690600Y-120149605D01*
X140690600Y-119859077D01*
X140690646Y-119780997D01*
X140690846Y-119718060D01*
X140691294Y-119668476D01*
X140692085Y-119630454D01*
X140693313Y-119602204D01*
X140695071Y-119581936D01*
X140697453Y-119567860D01*
X140700554Y-119558185D01*
X140704468Y-119551120D01*
X140706958Y-119547755D01*
X140719424Y-119536883D01*
X140743948Y-119519515D01*
X140777814Y-119497431D01*
X140818306Y-119472408D01*
X140857241Y-119449380D01*
X140900717Y-119424149D01*
X140939583Y-119401505D01*
X140971274Y-119382950D01*
X140993226Y-119369984D01*
X141002608Y-119364287D01*
X141002857Y-119358204D01*
X140991722Y-119347077D01*
X140968431Y-119330391D01*
X140932215Y-119307633D01*
X140882302Y-119278287D01*
X140825759Y-119246226D01*
X140778884Y-119219960D01*
X140580225Y-119333667D01*
X140517275Y-119369435D01*
X140467082Y-119397282D01*
X140427921Y-119418059D01*
X140398065Y-119432619D01*
X140375789Y-119441812D01*
X140359367Y-119446490D01*
X140349348Y-119447554D01*
X140337789Y-119446245D01*
X140322477Y-119441663D01*
X140301825Y-119432999D01*
X140274244Y-119419442D01*
X140238147Y-119400183D01*
X140191948Y-119374411D01*
X140134060Y-119341317D01*
X140080727Y-119310454D01*
X140013900Y-119271484D01*
X139960367Y-119239829D01*
X139918656Y-119214514D01*
X139887293Y-119194566D01*
X139864808Y-119179010D01*
X139849728Y-119166872D01*
X139840580Y-119157179D01*
X139835893Y-119148956D01*
X139835663Y-119148324D01*
X139833701Y-119133986D01*
X139831974Y-119103229D01*
X139830491Y-119056563D01*
X139829258Y-118994501D01*
X139828284Y-118917555D01*
X139827578Y-118826236D01*
X139827147Y-118721057D01*
X139827000Y-118602529D01*
X139827000Y-118079301D01*
X139851079Y-118056233D01*
X139878211Y-118035924D01*
X139906687Y-118027687D01*
X139939594Y-118031536D01*
X139980021Y-118047489D01*
X139998569Y-118057036D01*
X140053995Y-118087379D01*
X140111937Y-118119892D01*
X140170433Y-118153397D01*
X140227519Y-118186718D01*
X140281234Y-118218676D01*
X140329615Y-118248094D01*
X140370699Y-118273794D01*
X140402522Y-118294598D01*
X140423123Y-118309329D01*
X140430278Y-118316072D01*
X140434670Y-118332759D01*
X140438455Y-118366194D01*
X140441618Y-118416200D01*
X140444148Y-118482603D01*
X140444988Y-118514059D01*
X140449300Y-118693752D01*
X140570107Y-118625242D01*
X140690913Y-118556731D01*
X140688640Y-118365115D01*
X140686367Y-118173500D01*
X140493149Y-118062640D01*
X140440182Y-118031913D01*
X140391225Y-118002877D01*
X140348480Y-117976888D01*
X140314149Y-117955303D01*
X140290436Y-117939478D01*
X140280112Y-117931406D01*
X140260292Y-117911033D01*
X140257429Y-117635867D01*
X140256747Y-117554829D01*
X140256586Y-117489143D01*
X140256989Y-117437233D01*
X140257999Y-117397523D01*
X140259659Y-117368440D01*
X140262011Y-117348407D01*
X140265098Y-117335849D01*
X140265621Y-117334527D01*
X140283176Y-117311121D01*
X140310953Y-117291994D01*
X140342240Y-117281276D01*
X140353807Y-117280266D01*
X140365870Y-117284358D01*
X140390379Y-117295876D01*
X140425172Y-117313690D01*
X140468084Y-117336665D01*
X140516952Y-117363671D01*
X140563070Y-117389814D01*
X140615245Y-117419629D01*
X140663123Y-117446790D01*
X140704578Y-117470107D01*
X140737486Y-117488389D01*
X140759720Y-117500446D01*
X140768764Y-117504962D01*
X140783235Y-117503022D01*
X140811318Y-117491317D01*
X140853073Y-117469820D01*
X140897881Y-117444679D01*
X140937032Y-117421837D01*
X140970370Y-117401805D01*
X140995404Y-117386126D01*
X141009640Y-117376344D01*
X141011967Y-117373981D01*
X141004851Y-117369065D01*
X140984846Y-117356795D01*
X140953766Y-117338223D01*
X140913423Y-117314397D01*
X140865631Y-117286367D01*
X140812202Y-117255183D01*
X140754949Y-117221894D01*
X140695686Y-117187551D01*
X140636226Y-117153203D01*
X140578380Y-117119899D01*
X140523963Y-117088690D01*
X140474787Y-117060624D01*
X140432666Y-117036753D01*
X140399412Y-117018125D01*
X140376838Y-117005790D01*
X140369564Y-117002036D01*
X140361371Y-116998662D01*
X140352648Y-116997551D01*
X140341359Y-116999606D01*
X140325472Y-117005733D01*
X140302950Y-117016838D01*
X140271760Y-117033824D01*
X140229867Y-117057598D01*
X140179609Y-117086539D01*
X140013267Y-117182574D01*
X140013232Y-117322437D01*
X140012841Y-117380687D01*
X140011790Y-117443656D01*
X140010227Y-117504776D01*
X140008299Y-117557481D01*
X140007677Y-117570555D01*
X140002156Y-117678810D01*
X139929395Y-117723696D01*
X139900076Y-117741497D01*
X139859464Y-117765753D01*
X139810939Y-117794466D01*
X139757881Y-117825639D01*
X139703669Y-117857274D01*
X139686360Y-117867324D01*
X139625825Y-117902139D01*
X139577762Y-117928738D01*
X139540158Y-117947678D01*
X139511003Y-117959517D01*
X139488284Y-117964812D01*
X139469990Y-117964122D01*
X139454110Y-117958004D01*
X139438631Y-117947015D01*
X139429067Y-117938650D01*
X139399434Y-117911730D01*
X139396470Y-117668924D01*
X139393507Y-117426117D01*
X139283024Y-117363775D01*
X139243852Y-117341751D01*
X139209799Y-117322754D01*
X139183638Y-117308320D01*
X139168141Y-117299983D01*
X139165337Y-117298611D01*
X139163860Y-117306206D01*
X139162486Y-117329067D01*
X139161244Y-117365530D01*
X139160168Y-117413929D01*
X139159287Y-117472597D01*
X139158634Y-117539868D01*
X139158241Y-117614077D01*
X139158133Y-117680128D01*
X139158133Y-118064468D01*
X139360695Y-118181948D01*
X139431071Y-118223268D01*
X139486817Y-118257132D01*
X139528365Y-118283822D01*
X139556148Y-118303617D01*
X139570598Y-118316801D01*
X139572549Y-118319824D01*
X139575840Y-118335337D01*
X139578860Y-118365150D01*
X139581564Y-118406634D01*
X139583906Y-118457157D01*
X139585842Y-118514089D01*
X139587324Y-118574798D01*
X139588308Y-118636654D01*
X139588748Y-118697026D01*
X139588598Y-118753283D01*
X139587813Y-118802795D01*
X139586348Y-118842930D01*
X139584155Y-118871058D01*
X139582292Y-118881752D01*
X139579347Y-118892571D01*
X139576255Y-118901744D01*
X139571571Y-118910291D01*
X139563844Y-118919237D01*
X139551628Y-118929604D01*
X139533475Y-118942414D01*
X139507937Y-118958690D01*
X139473565Y-118979455D01*
X139428913Y-119005731D01*
X139372532Y-119038541D01*
X139303920Y-119078358D01*
X139238411Y-119116196D01*
X139185611Y-119146055D01*
X139143699Y-119168660D01*
X139110858Y-119184734D01*
X139085268Y-119195000D01*
X139065112Y-119200184D01*
X139048570Y-119201009D01*
X139033825Y-119198197D01*
X139019057Y-119192475D01*
X139018197Y-119192085D01*
X139005295Y-119185350D01*
X138995033Y-119176945D01*
X138987110Y-119164995D01*
X138981226Y-119147622D01*
X138977079Y-119122951D01*
X138974371Y-119089105D01*
X138972800Y-119044209D01*
X138972066Y-118986385D01*
X138971869Y-118913759D01*
X138971867Y-118902726D01*
X138971867Y-118670144D01*
X138852440Y-118601739D01*
X138812124Y-118578761D01*
X138777194Y-118559070D01*
X138750176Y-118544073D01*
X138733599Y-118535178D01*
X138729588Y-118533333D01*
X138728934Y-118541520D01*
X138728414Y-118564960D01*
X138728036Y-118601976D01*
X138727803Y-118650889D01*
X138727722Y-118710019D01*
X138727797Y-118777688D01*
X138728034Y-118852216D01*
X138728365Y-118919291D01*
X138730567Y-119305250D01*
X138896263Y-119400662D01*
X139061959Y-119496075D01*
X139264008Y-119378920D01*
X139323966Y-119344240D01*
X139371216Y-119317236D01*
X139407652Y-119297013D01*
X139435167Y-119282675D01*
X139455656Y-119273327D01*
X139471015Y-119268074D01*
X139483137Y-119266019D01*
X139493917Y-119266267D01*
X139500478Y-119267141D01*
X139517941Y-119273069D01*
X139548940Y-119287548D01*
X139593622Y-119310660D01*
X139652137Y-119342485D01*
X139724635Y-119383102D01*
X139811263Y-119432591D01*
X139856633Y-119458784D01*
X139966734Y-119522577D01*
X140062882Y-119578400D01*
X140145821Y-119626692D01*
X140216296Y-119667895D01*
X140275051Y-119702447D01*
X140322831Y-119730789D01*
X140360379Y-119753361D01*
X140388441Y-119770604D01*
X140407759Y-119782956D01*
X140419080Y-119790858D01*
X140421167Y-119792547D01*
X140435795Y-119815069D01*
X140441919Y-119845757D01*
X140438898Y-119877782D01*
X140431002Y-119897330D01*
X140418803Y-119909559D01*
X140393863Y-119928302D01*
X140358428Y-119952260D01*
X140314743Y-119980133D01*
X140265056Y-120010620D01*
X140211612Y-120042422D01*
X140156657Y-120074239D01*
X140102438Y-120104770D01*
X140051200Y-120132716D01*
X140005190Y-120156777D01*
X139966653Y-120175653D01*
X139937837Y-120188043D01*
X139920987Y-120192648D01*
X139920736Y-120192652D01*
X139905275Y-120190112D01*
X139882752Y-120181812D01*
X139851451Y-120166926D01*
X139809654Y-120144627D01*
X139755647Y-120114087D01*
X139745329Y-120108133D01*
X139700472Y-120082317D01*
X139660699Y-120059676D01*
X139628295Y-120041489D01*
X139605545Y-120029038D01*
X139594734Y-120023601D01*
X139594234Y-120023466D01*
X139592785Y-120031461D01*
X139591802Y-120053570D01*
X139591334Y-120086976D01*
X139591430Y-120128865D01*
X139591840Y-120160621D01*
X139594167Y-120297775D01*
X139777963Y-120404038D01*
X139830041Y-120434541D01*
X139878509Y-120463670D01*
X139921004Y-120489947D01*
X139955165Y-120511894D01*
X139978629Y-120528034D01*
X139987513Y-120535167D01*
X140008358Y-120565696D01*
X140013146Y-120600796D01*
X140001728Y-120639230D01*
X140000479Y-120641703D01*
X139982538Y-120666286D01*
X139957886Y-120679595D01*
X139922245Y-120683850D01*
X139919262Y-120683866D01*
X139906961Y-120682851D01*
X139892346Y-120679219D01*
X139873631Y-120672086D01*
X139849030Y-120660572D01*
X139816755Y-120643795D01*
X139775019Y-120620872D01*
X139722037Y-120590923D01*
X139666822Y-120559282D01*
X139610220Y-120526280D01*
X139557144Y-120494497D01*
X139509754Y-120465291D01*
X139470214Y-120440024D01*
X139440684Y-120420053D01*
X139423327Y-120406740D01*
X139421509Y-120404998D01*
X139392785Y-120375300D01*
X139401581Y-119808492D01*
X139428158Y-119784746D01*
X139443535Y-119772194D01*
X139458580Y-119763766D01*
X139475101Y-119760026D01*
X139494904Y-119761537D01*
X139519797Y-119768863D01*
X139551587Y-119782567D01*
X139592083Y-119803212D01*
X139643090Y-119831362D01*
X139706416Y-119867581D01*
X139721144Y-119876089D01*
X139920187Y-119991177D01*
X139960377Y-119968047D01*
X139985189Y-119953708D01*
X140019266Y-119933938D01*
X140057253Y-119911846D01*
X140079885Y-119898658D01*
X140159203Y-119852400D01*
X140084118Y-119808557D01*
X140058507Y-119793675D01*
X140020586Y-119771741D01*
X139972736Y-119744127D01*
X139917337Y-119712204D01*
X139856768Y-119677344D01*
X139793411Y-119640919D01*
X139752627Y-119617493D01*
X139496220Y-119470274D01*
X139464760Y-119485251D01*
X139447585Y-119494145D01*
X139418663Y-119509909D01*
X139380900Y-119530928D01*
X139337202Y-119555581D01*
X139290474Y-119582254D01*
X139289367Y-119582889D01*
X139228218Y-119617960D01*
X139179901Y-119645419D01*
X139142571Y-119666106D01*
X139114385Y-119680859D01*
X139093499Y-119690517D01*
X139078070Y-119695918D01*
X139066254Y-119697901D01*
X139056208Y-119697304D01*
X139046087Y-119694966D01*
X139044135Y-119694430D01*
X139029716Y-119688287D01*
X139002749Y-119674724D01*
X138965308Y-119654863D01*
X138919466Y-119629827D01*
X138867294Y-119600740D01*
X138810865Y-119568724D01*
X138789614Y-119556528D01*
X138718646Y-119515325D01*
X138661641Y-119481417D01*
X138617604Y-119454162D01*
X138585539Y-119432922D01*
X138564451Y-119417055D01*
X138553345Y-119405922D01*
X138551959Y-119403704D01*
X138549445Y-119396411D01*
X138547297Y-119384134D01*
X138545489Y-119365666D01*
X138543995Y-119339800D01*
X138542788Y-119305330D01*
X138541842Y-119261049D01*
X138541131Y-119205750D01*
X138540627Y-119138227D01*
X138540305Y-119057274D01*
X138540138Y-118961683D01*
X138540098Y-118861837D01*
X138540126Y-118754945D01*
D12*
X141560000Y-115435000D02*
X141560000Y-114435000D01*
X142920000Y-114435000D02*
X142920000Y-115435000D01*
X149270000Y-108085000D02*
X149270000Y-109085000D01*
X147910000Y-109085000D02*
X147910000Y-108085000D01*
X151085000Y-109085000D02*
X151085000Y-108085000D01*
X152445000Y-108085000D02*
X152445000Y-109085000D01*
X154260000Y-109085000D02*
X154260000Y-108085000D01*
X155620000Y-108085000D02*
X155620000Y-109085000D01*
X158795000Y-108085000D02*
X158795000Y-109085000D01*
X157435000Y-109085000D02*
X157435000Y-108085000D01*
X160610000Y-109085000D02*
X160610000Y-108085000D01*
X161970000Y-108085000D02*
X161970000Y-109085000D01*
X158795000Y-102370000D02*
X158795000Y-103370000D01*
X157435000Y-103370000D02*
X157435000Y-102370000D01*
X141560000Y-103370000D02*
X141560000Y-102370000D01*
X142920000Y-102370000D02*
X142920000Y-103370000D01*
X161970000Y-102370000D02*
X161970000Y-103370000D01*
X160610000Y-103370000D02*
X160610000Y-102370000D01*
X144270000Y-110165000D02*
X144270000Y-109235000D01*
X144270000Y-107005000D02*
X144270000Y-107935000D01*
X144270000Y-107005000D02*
X141110000Y-107005000D01*
X144270000Y-110165000D02*
X142810000Y-110165000D01*
X158485000Y-98765000D02*
X160285000Y-98765000D01*
X160285000Y-95545000D02*
X157835000Y-95545000D01*
X142610000Y-98765000D02*
X144410000Y-98765000D01*
X144410000Y-95545000D02*
X141960000Y-95545000D01*
D11*
X153372143Y-103036666D02*
X153419762Y-103084285D01*
X153467381Y-103227142D01*
X153467381Y-103322380D01*
X153419762Y-103465238D01*
X153324524Y-103560476D01*
X153229286Y-103608095D01*
X153038810Y-103655714D01*
X152895952Y-103655714D01*
X152705476Y-103608095D01*
X152610238Y-103560476D01*
X152515000Y-103465238D01*
X152467381Y-103322380D01*
X152467381Y-103227142D01*
X152515000Y-103084285D01*
X152562619Y-103036666D01*
X153467381Y-102084285D02*
X153467381Y-102655714D01*
X153467381Y-102370000D02*
X152467381Y-102370000D01*
X152610238Y-102465238D01*
X152705476Y-102560476D01*
X152753095Y-102655714D01*
X156547143Y-103036666D02*
X156594762Y-103084285D01*
X156642381Y-103227142D01*
X156642381Y-103322380D01*
X156594762Y-103465238D01*
X156499524Y-103560476D01*
X156404286Y-103608095D01*
X156213810Y-103655714D01*
X156070952Y-103655714D01*
X155880476Y-103608095D01*
X155785238Y-103560476D01*
X155690000Y-103465238D01*
X155642381Y-103322380D01*
X155642381Y-103227142D01*
X155690000Y-103084285D01*
X155737619Y-103036666D01*
X155737619Y-102655714D02*
X155690000Y-102608095D01*
X155642381Y-102512857D01*
X155642381Y-102274761D01*
X155690000Y-102179523D01*
X155737619Y-102131904D01*
X155832857Y-102084285D01*
X155928095Y-102084285D01*
X156070952Y-102131904D01*
X156642381Y-102703333D01*
X156642381Y-102084285D01*
X150217143Y-97321666D02*
X150264762Y-97369285D01*
X150312381Y-97512142D01*
X150312381Y-97607380D01*
X150264762Y-97750238D01*
X150169524Y-97845476D01*
X150074286Y-97893095D01*
X149883810Y-97940714D01*
X149740952Y-97940714D01*
X149550476Y-97893095D01*
X149455238Y-97845476D01*
X149360000Y-97750238D01*
X149312381Y-97607380D01*
X149312381Y-97512142D01*
X149360000Y-97369285D01*
X149407619Y-97321666D01*
X149312381Y-96988333D02*
X149312381Y-96369285D01*
X149693333Y-96702619D01*
X149693333Y-96559761D01*
X149740952Y-96464523D01*
X149788571Y-96416904D01*
X149883810Y-96369285D01*
X150121905Y-96369285D01*
X150217143Y-96416904D01*
X150264762Y-96464523D01*
X150312381Y-96559761D01*
X150312381Y-96845476D01*
X150264762Y-96940714D01*
X150217143Y-96988333D01*
X150197143Y-103036666D02*
X150244762Y-103084285D01*
X150292381Y-103227142D01*
X150292381Y-103322380D01*
X150244762Y-103465238D01*
X150149524Y-103560476D01*
X150054286Y-103608095D01*
X149863810Y-103655714D01*
X149720952Y-103655714D01*
X149530476Y-103608095D01*
X149435238Y-103560476D01*
X149340000Y-103465238D01*
X149292381Y-103322380D01*
X149292381Y-103227142D01*
X149340000Y-103084285D01*
X149387619Y-103036666D01*
X149625714Y-102179523D02*
X150292381Y-102179523D01*
X149244762Y-102417619D02*
X149959048Y-102655714D01*
X149959048Y-102036666D01*
X147022143Y-103036666D02*
X147069762Y-103084285D01*
X147117381Y-103227142D01*
X147117381Y-103322380D01*
X147069762Y-103465238D01*
X146974524Y-103560476D01*
X146879286Y-103608095D01*
X146688810Y-103655714D01*
X146545952Y-103655714D01*
X146355476Y-103608095D01*
X146260238Y-103560476D01*
X146165000Y-103465238D01*
X146117381Y-103322380D01*
X146117381Y-103227142D01*
X146165000Y-103084285D01*
X146212619Y-103036666D01*
X146117381Y-102131904D02*
X146117381Y-102608095D01*
X146593571Y-102655714D01*
X146545952Y-102608095D01*
X146498333Y-102512857D01*
X146498333Y-102274761D01*
X146545952Y-102179523D01*
X146593571Y-102131904D01*
X146688810Y-102084285D01*
X146926905Y-102084285D01*
X147022143Y-102131904D01*
X147069762Y-102179523D01*
X147117381Y-102274761D01*
X147117381Y-102512857D01*
X147069762Y-102608095D01*
X147022143Y-102655714D01*
X156567143Y-97321666D02*
X156614762Y-97369285D01*
X156662381Y-97512142D01*
X156662381Y-97607380D01*
X156614762Y-97750238D01*
X156519524Y-97845476D01*
X156424286Y-97893095D01*
X156233810Y-97940714D01*
X156090952Y-97940714D01*
X155900476Y-97893095D01*
X155805238Y-97845476D01*
X155710000Y-97750238D01*
X155662381Y-97607380D01*
X155662381Y-97512142D01*
X155710000Y-97369285D01*
X155757619Y-97321666D01*
X155662381Y-96464523D02*
X155662381Y-96655000D01*
X155710000Y-96750238D01*
X155757619Y-96797857D01*
X155900476Y-96893095D01*
X156090952Y-96940714D01*
X156471905Y-96940714D01*
X156567143Y-96893095D01*
X156614762Y-96845476D01*
X156662381Y-96750238D01*
X156662381Y-96559761D01*
X156614762Y-96464523D01*
X156567143Y-96416904D01*
X156471905Y-96369285D01*
X156233810Y-96369285D01*
X156138571Y-96416904D01*
X156090952Y-96464523D01*
X156043333Y-96559761D01*
X156043333Y-96750238D01*
X156090952Y-96845476D01*
X156138571Y-96893095D01*
X156233810Y-96940714D01*
X153392143Y-97321666D02*
X153439762Y-97369285D01*
X153487381Y-97512142D01*
X153487381Y-97607380D01*
X153439762Y-97750238D01*
X153344524Y-97845476D01*
X153249286Y-97893095D01*
X153058810Y-97940714D01*
X152915952Y-97940714D01*
X152725476Y-97893095D01*
X152630238Y-97845476D01*
X152535000Y-97750238D01*
X152487381Y-97607380D01*
X152487381Y-97512142D01*
X152535000Y-97369285D01*
X152582619Y-97321666D01*
X152487381Y-96988333D02*
X152487381Y-96321666D01*
X153487381Y-96750238D01*
X149486667Y-110887381D02*
X149486667Y-111601667D01*
X149439047Y-111744524D01*
X149343809Y-111839762D01*
X149200952Y-111887381D01*
X149105714Y-111887381D01*
X150486667Y-111887381D02*
X149915238Y-111887381D01*
X150200952Y-111887381D02*
X150200952Y-110887381D01*
X150105714Y-111030238D01*
X150010476Y-111125476D01*
X149915238Y-111173095D01*
X144142381Y-115101666D02*
X143666190Y-115435000D01*
X144142381Y-115673095D02*
X143142381Y-115673095D01*
X143142381Y-115292142D01*
X143190000Y-115196904D01*
X143237619Y-115149285D01*
X143332857Y-115101666D01*
X143475714Y-115101666D01*
X143570952Y-115149285D01*
X143618571Y-115196904D01*
X143666190Y-115292142D01*
X143666190Y-115673095D01*
X144142381Y-114149285D02*
X144142381Y-114720714D01*
X144142381Y-114435000D02*
X143142381Y-114435000D01*
X143285238Y-114530238D01*
X143380476Y-114625476D01*
X143428095Y-114720714D01*
X150312381Y-108751666D02*
X149836190Y-109085000D01*
X150312381Y-109323095D02*
X149312381Y-109323095D01*
X149312381Y-108942142D01*
X149360000Y-108846904D01*
X149407619Y-108799285D01*
X149502857Y-108751666D01*
X149645714Y-108751666D01*
X149740952Y-108799285D01*
X149788571Y-108846904D01*
X149836190Y-108942142D01*
X149836190Y-109323095D01*
X149407619Y-108370714D02*
X149360000Y-108323095D01*
X149312381Y-108227857D01*
X149312381Y-107989761D01*
X149360000Y-107894523D01*
X149407619Y-107846904D01*
X149502857Y-107799285D01*
X149598095Y-107799285D01*
X149740952Y-107846904D01*
X150312381Y-108418333D01*
X150312381Y-107799285D01*
X153667381Y-108751666D02*
X153191190Y-109085000D01*
X153667381Y-109323095D02*
X152667381Y-109323095D01*
X152667381Y-108942142D01*
X152715000Y-108846904D01*
X152762619Y-108799285D01*
X152857857Y-108751666D01*
X153000714Y-108751666D01*
X153095952Y-108799285D01*
X153143571Y-108846904D01*
X153191190Y-108942142D01*
X153191190Y-109323095D01*
X152667381Y-108418333D02*
X152667381Y-107799285D01*
X153048333Y-108132619D01*
X153048333Y-107989761D01*
X153095952Y-107894523D01*
X153143571Y-107846904D01*
X153238810Y-107799285D01*
X153476905Y-107799285D01*
X153572143Y-107846904D01*
X153619762Y-107894523D01*
X153667381Y-107989761D01*
X153667381Y-108275476D01*
X153619762Y-108370714D01*
X153572143Y-108418333D01*
X156842381Y-108751666D02*
X156366190Y-109085000D01*
X156842381Y-109323095D02*
X155842381Y-109323095D01*
X155842381Y-108942142D01*
X155890000Y-108846904D01*
X155937619Y-108799285D01*
X156032857Y-108751666D01*
X156175714Y-108751666D01*
X156270952Y-108799285D01*
X156318571Y-108846904D01*
X156366190Y-108942142D01*
X156366190Y-109323095D01*
X156175714Y-107894523D02*
X156842381Y-107894523D01*
X155794762Y-108132619D02*
X156509048Y-108370714D01*
X156509048Y-107751666D01*
X159837381Y-108751666D02*
X159361190Y-109085000D01*
X159837381Y-109323095D02*
X158837381Y-109323095D01*
X158837381Y-108942142D01*
X158885000Y-108846904D01*
X158932619Y-108799285D01*
X159027857Y-108751666D01*
X159170714Y-108751666D01*
X159265952Y-108799285D01*
X159313571Y-108846904D01*
X159361190Y-108942142D01*
X159361190Y-109323095D01*
X158837381Y-107846904D02*
X158837381Y-108323095D01*
X159313571Y-108370714D01*
X159265952Y-108323095D01*
X159218333Y-108227857D01*
X159218333Y-107989761D01*
X159265952Y-107894523D01*
X159313571Y-107846904D01*
X159408810Y-107799285D01*
X159646905Y-107799285D01*
X159742143Y-107846904D01*
X159789762Y-107894523D01*
X159837381Y-107989761D01*
X159837381Y-108227857D01*
X159789762Y-108323095D01*
X159742143Y-108370714D01*
X163192381Y-108751666D02*
X162716190Y-109085000D01*
X163192381Y-109323095D02*
X162192381Y-109323095D01*
X162192381Y-108942142D01*
X162240000Y-108846904D01*
X162287619Y-108799285D01*
X162382857Y-108751666D01*
X162525714Y-108751666D01*
X162620952Y-108799285D01*
X162668571Y-108846904D01*
X162716190Y-108942142D01*
X162716190Y-109323095D01*
X162192381Y-107894523D02*
X162192381Y-108085000D01*
X162240000Y-108180238D01*
X162287619Y-108227857D01*
X162430476Y-108323095D01*
X162620952Y-108370714D01*
X163001905Y-108370714D01*
X163097143Y-108323095D01*
X163144762Y-108275476D01*
X163192381Y-108180238D01*
X163192381Y-107989761D01*
X163144762Y-107894523D01*
X163097143Y-107846904D01*
X163001905Y-107799285D01*
X162763810Y-107799285D01*
X162668571Y-107846904D01*
X162620952Y-107894523D01*
X162573333Y-107989761D01*
X162573333Y-108180238D01*
X162620952Y-108275476D01*
X162668571Y-108323095D01*
X162763810Y-108370714D01*
X159837381Y-103036666D02*
X159361190Y-103370000D01*
X159837381Y-103608095D02*
X158837381Y-103608095D01*
X158837381Y-103227142D01*
X158885000Y-103131904D01*
X158932619Y-103084285D01*
X159027857Y-103036666D01*
X159170714Y-103036666D01*
X159265952Y-103084285D01*
X159313571Y-103131904D01*
X159361190Y-103227142D01*
X159361190Y-103608095D01*
X158837381Y-102703333D02*
X158837381Y-102036666D01*
X159837381Y-102465238D01*
X144142381Y-103036666D02*
X143666190Y-103370000D01*
X144142381Y-103608095D02*
X143142381Y-103608095D01*
X143142381Y-103227142D01*
X143190000Y-103131904D01*
X143237619Y-103084285D01*
X143332857Y-103036666D01*
X143475714Y-103036666D01*
X143570952Y-103084285D01*
X143618571Y-103131904D01*
X143666190Y-103227142D01*
X143666190Y-103608095D01*
X143570952Y-102465238D02*
X143523333Y-102560476D01*
X143475714Y-102608095D01*
X143380476Y-102655714D01*
X143332857Y-102655714D01*
X143237619Y-102608095D01*
X143190000Y-102560476D01*
X143142381Y-102465238D01*
X143142381Y-102274761D01*
X143190000Y-102179523D01*
X143237619Y-102131904D01*
X143332857Y-102084285D01*
X143380476Y-102084285D01*
X143475714Y-102131904D01*
X143523333Y-102179523D01*
X143570952Y-102274761D01*
X143570952Y-102465238D01*
X143618571Y-102560476D01*
X143666190Y-102608095D01*
X143761429Y-102655714D01*
X143951905Y-102655714D01*
X144047143Y-102608095D01*
X144094762Y-102560476D01*
X144142381Y-102465238D01*
X144142381Y-102274761D01*
X144094762Y-102179523D01*
X144047143Y-102131904D01*
X143951905Y-102084285D01*
X143761429Y-102084285D01*
X143666190Y-102131904D01*
X143618571Y-102179523D01*
X143570952Y-102274761D01*
X163012381Y-103036666D02*
X162536190Y-103370000D01*
X163012381Y-103608095D02*
X162012381Y-103608095D01*
X162012381Y-103227142D01*
X162060000Y-103131904D01*
X162107619Y-103084285D01*
X162202857Y-103036666D01*
X162345714Y-103036666D01*
X162440952Y-103084285D01*
X162488571Y-103131904D01*
X162536190Y-103227142D01*
X162536190Y-103608095D01*
X163012381Y-102560476D02*
X163012381Y-102370000D01*
X162964762Y-102274761D01*
X162917143Y-102227142D01*
X162774286Y-102131904D01*
X162583810Y-102084285D01*
X162202857Y-102084285D01*
X162107619Y-102131904D01*
X162060000Y-102179523D01*
X162012381Y-102274761D01*
X162012381Y-102465238D01*
X162060000Y-102560476D01*
X162107619Y-102608095D01*
X162202857Y-102655714D01*
X162440952Y-102655714D01*
X162536190Y-102608095D01*
X162583810Y-102560476D01*
X162631429Y-102465238D01*
X162631429Y-102274761D01*
X162583810Y-102179523D01*
X162536190Y-102131904D01*
X162440952Y-102084285D01*
X146137381Y-109346905D02*
X146946905Y-109346905D01*
X147042143Y-109299286D01*
X147089762Y-109251667D01*
X147137381Y-109156429D01*
X147137381Y-108965952D01*
X147089762Y-108870714D01*
X147042143Y-108823095D01*
X146946905Y-108775476D01*
X146137381Y-108775476D01*
X147137381Y-107775476D02*
X147137381Y-108346905D01*
X147137381Y-108061191D02*
X146137381Y-108061191D01*
X146280238Y-108156429D01*
X146375476Y-108251667D01*
X146423095Y-108346905D01*
X162012381Y-97916905D02*
X162821905Y-97916905D01*
X162917143Y-97869286D01*
X162964762Y-97821667D01*
X163012381Y-97726429D01*
X163012381Y-97535952D01*
X162964762Y-97440714D01*
X162917143Y-97393095D01*
X162821905Y-97345476D01*
X162012381Y-97345476D01*
X162107619Y-96916905D02*
X162060000Y-96869286D01*
X162012381Y-96774048D01*
X162012381Y-96535952D01*
X162060000Y-96440714D01*
X162107619Y-96393095D01*
X162202857Y-96345476D01*
X162298095Y-96345476D01*
X162440952Y-96393095D01*
X163012381Y-96964524D01*
X163012381Y-96345476D01*
X146137381Y-97916905D02*
X146946905Y-97916905D01*
X147042143Y-97869286D01*
X147089762Y-97821667D01*
X147137381Y-97726429D01*
X147137381Y-97535952D01*
X147089762Y-97440714D01*
X147042143Y-97393095D01*
X146946905Y-97345476D01*
X146137381Y-97345476D01*
X146137381Y-96964524D02*
X146137381Y-96345476D01*
X146518333Y-96678810D01*
X146518333Y-96535952D01*
X146565952Y-96440714D01*
X146613571Y-96393095D01*
X146708810Y-96345476D01*
X146946905Y-96345476D01*
X147042143Y-96393095D01*
X147089762Y-96440714D01*
X147137381Y-96535952D01*
X147137381Y-96821667D01*
X147089762Y-96916905D01*
X147042143Y-96964524D01*
M02*
