G04 #@! TF.FileFunction,Paste,Top*
%FSLAX46Y46*%
G04 Gerber Fmt 4.6, Leading zero omitted, Abs format (unit mm)*
G04 Created by KiCad (PCBNEW 4.0.7-e2-6376~58~ubuntu17.04.1) date Thu Oct  5 12:14:12 2017*
%MOMM*%
%LPD*%
G01*
G04 APERTURE LIST*
%ADD10C,0.100000*%
%ADD11R,0.750000X1.200000*%
%ADD12R,1.270000X0.970000*%
%ADD13R,0.900000X1.200000*%
%ADD14R,1.900000X0.800000*%
%ADD15R,1.560000X0.650000*%
G04 APERTURE END LIST*
D10*
D11*
X151765000Y-101920000D03*
X151765000Y-103820000D03*
X154940000Y-101920000D03*
X154940000Y-103820000D03*
X148590000Y-98105000D03*
X148590000Y-96205000D03*
X148590000Y-101920000D03*
X148590000Y-103820000D03*
X145415000Y-101920000D03*
X145415000Y-103820000D03*
X154940000Y-98105000D03*
X154940000Y-96205000D03*
X151765000Y-98105000D03*
X151765000Y-96205000D03*
D12*
X161925000Y-113665000D03*
X161925000Y-114935000D03*
X161925000Y-116205000D03*
X157480000Y-113665000D03*
X157480000Y-114935000D03*
X157480000Y-116205000D03*
D13*
X142240000Y-113835000D03*
X142240000Y-116035000D03*
X148590000Y-109685000D03*
X148590000Y-107485000D03*
X151765000Y-107485000D03*
X151765000Y-109685000D03*
X154940000Y-107485000D03*
X154940000Y-109685000D03*
X158115000Y-109685000D03*
X158115000Y-107485000D03*
X161290000Y-107485000D03*
X161290000Y-109685000D03*
X158115000Y-103970000D03*
X158115000Y-101770000D03*
X142240000Y-101770000D03*
X142240000Y-103970000D03*
X161290000Y-103970000D03*
X161290000Y-101770000D03*
D14*
X142010000Y-107635000D03*
X142010000Y-109535000D03*
X145010000Y-108585000D03*
D15*
X158035000Y-96205000D03*
X158035000Y-97155000D03*
X158035000Y-98105000D03*
X160735000Y-98105000D03*
X160735000Y-96205000D03*
X142160000Y-96205000D03*
X142160000Y-97155000D03*
X142160000Y-98105000D03*
X144860000Y-98105000D03*
X144860000Y-96205000D03*
M02*
