G04 #@! TF.FileFunction,Copper,L2,Bot,Signal*
%FSLAX46Y46*%
G04 Gerber Fmt 4.6, Leading zero omitted, Abs format (unit mm)*
G04 Created by KiCad (PCBNEW 4.0.7-e2-6376~58~ubuntu17.04.1) date Thu Oct  5 12:14:12 2017*
%MOMM*%
%LPD*%
G01*
G04 APERTURE LIST*
%ADD10C,0.100000*%
%ADD11R,1.750000X1.750000*%
%ADD12C,1.750000*%
%ADD13R,1.700000X1.700000*%
%ADD14O,1.700000X1.700000*%
%ADD15C,0.600000*%
%ADD16C,0.250000*%
%ADD17C,0.254000*%
G04 APERTURE END LIST*
D10*
D11*
X147320000Y-114935000D03*
D12*
X149820000Y-114935000D03*
X152320000Y-114935000D03*
D13*
X144145000Y-121285000D03*
D14*
X146685000Y-121285000D03*
X149225000Y-121285000D03*
X151765000Y-121285000D03*
X154305000Y-121285000D03*
X156845000Y-121285000D03*
X159385000Y-121285000D03*
X161925000Y-121285000D03*
D13*
X144145000Y-92075000D03*
D14*
X146685000Y-92075000D03*
X149225000Y-92075000D03*
X151765000Y-92075000D03*
X154305000Y-92075000D03*
X156845000Y-92075000D03*
X159385000Y-92075000D03*
X161925000Y-92075000D03*
D15*
X156539200Y-97267700D03*
X163067100Y-114876200D03*
X157150100Y-101850500D03*
X157038000Y-111575300D03*
D16*
X151765000Y-92075000D02*
X152940300Y-92075000D01*
X154305000Y-92075000D02*
X152940300Y-92075000D01*
X154305000Y-95033500D02*
X156539200Y-97267700D01*
X154305000Y-92075000D02*
X154305000Y-95033500D01*
X149225000Y-92075000D02*
X149225000Y-92662600D01*
X146685000Y-92075000D02*
X147860300Y-92075000D01*
X148447900Y-92662600D02*
X147860300Y-92075000D01*
X149225000Y-92662600D02*
X148447900Y-92662600D01*
X149225000Y-103762300D02*
X149225000Y-92662600D01*
X157038000Y-111575300D02*
X149225000Y-103762300D01*
D17*
G36*
X163120000Y-91212781D02*
X162975054Y-90995853D01*
X162493285Y-90673946D01*
X161925000Y-90560907D01*
X161356715Y-90673946D01*
X160874946Y-90995853D01*
X160655000Y-91325026D01*
X160435054Y-90995853D01*
X159953285Y-90673946D01*
X159385000Y-90560907D01*
X158816715Y-90673946D01*
X158334946Y-90995853D01*
X158115000Y-91325026D01*
X157895054Y-90995853D01*
X157413285Y-90673946D01*
X156845000Y-90560907D01*
X156276715Y-90673946D01*
X155794946Y-90995853D01*
X155575000Y-91325026D01*
X155355054Y-90995853D01*
X154873285Y-90673946D01*
X154305000Y-90560907D01*
X153736715Y-90673946D01*
X153254946Y-90995853D01*
X153041699Y-91315000D01*
X153028301Y-91315000D01*
X152815054Y-90995853D01*
X152333285Y-90673946D01*
X151765000Y-90560907D01*
X151196715Y-90673946D01*
X150714946Y-90995853D01*
X150495000Y-91325026D01*
X150275054Y-90995853D01*
X149793285Y-90673946D01*
X149225000Y-90560907D01*
X148656715Y-90673946D01*
X148174946Y-90995853D01*
X147955000Y-91325026D01*
X147735054Y-90995853D01*
X147253285Y-90673946D01*
X146685000Y-90560907D01*
X146116715Y-90673946D01*
X145634946Y-90995853D01*
X145607150Y-91037452D01*
X145598162Y-90989683D01*
X145459090Y-90773559D01*
X145246890Y-90628569D01*
X144995000Y-90577560D01*
X143295000Y-90577560D01*
X143059683Y-90621838D01*
X142843559Y-90760910D01*
X142698569Y-90973110D01*
X142647560Y-91225000D01*
X142647560Y-92925000D01*
X142691838Y-93160317D01*
X142830910Y-93376441D01*
X143043110Y-93521431D01*
X143295000Y-93572440D01*
X144995000Y-93572440D01*
X145230317Y-93528162D01*
X145446441Y-93389090D01*
X145591431Y-93176890D01*
X145605086Y-93109459D01*
X145634946Y-93154147D01*
X146116715Y-93476054D01*
X146685000Y-93589093D01*
X147253285Y-93476054D01*
X147735054Y-93154147D01*
X147786961Y-93076463D01*
X147910499Y-93200001D01*
X148157061Y-93364748D01*
X148447900Y-93422600D01*
X148465000Y-93422600D01*
X148465000Y-103762300D01*
X148522852Y-104053139D01*
X148687599Y-104299701D01*
X156102878Y-111714980D01*
X156102838Y-111760467D01*
X156244883Y-112104243D01*
X156507673Y-112367492D01*
X156851201Y-112510138D01*
X157223167Y-112510462D01*
X157566943Y-112368417D01*
X157830192Y-112105627D01*
X157972838Y-111762099D01*
X157973162Y-111390133D01*
X157831117Y-111046357D01*
X157568327Y-110783108D01*
X157224799Y-110640462D01*
X157177923Y-110640421D01*
X149985000Y-103447498D01*
X149985000Y-93347954D01*
X150275054Y-93154147D01*
X150495000Y-92824974D01*
X150714946Y-93154147D01*
X151196715Y-93476054D01*
X151765000Y-93589093D01*
X152333285Y-93476054D01*
X152815054Y-93154147D01*
X153028301Y-92835000D01*
X153041699Y-92835000D01*
X153254946Y-93154147D01*
X153545000Y-93347954D01*
X153545000Y-95033500D01*
X153602852Y-95324339D01*
X153767599Y-95570901D01*
X155604078Y-97407380D01*
X155604038Y-97452867D01*
X155746083Y-97796643D01*
X156008873Y-98059892D01*
X156352401Y-98202538D01*
X156724367Y-98202862D01*
X157068143Y-98060817D01*
X157331392Y-97798027D01*
X157474038Y-97454499D01*
X157474362Y-97082533D01*
X157332317Y-96738757D01*
X157069527Y-96475508D01*
X156725999Y-96332862D01*
X156679123Y-96332821D01*
X155065000Y-94718698D01*
X155065000Y-93347954D01*
X155355054Y-93154147D01*
X155575000Y-92824974D01*
X155794946Y-93154147D01*
X156276715Y-93476054D01*
X156845000Y-93589093D01*
X157413285Y-93476054D01*
X157895054Y-93154147D01*
X158115000Y-92824974D01*
X158334946Y-93154147D01*
X158816715Y-93476054D01*
X159385000Y-93589093D01*
X159953285Y-93476054D01*
X160435054Y-93154147D01*
X160655000Y-92824974D01*
X160874946Y-93154147D01*
X161356715Y-93476054D01*
X161925000Y-93589093D01*
X162493285Y-93476054D01*
X162975054Y-93154147D01*
X163120000Y-92937219D01*
X163120000Y-120422781D01*
X162975054Y-120205853D01*
X162493285Y-119883946D01*
X161925000Y-119770907D01*
X161356715Y-119883946D01*
X160874946Y-120205853D01*
X160655000Y-120535026D01*
X160435054Y-120205853D01*
X159953285Y-119883946D01*
X159385000Y-119770907D01*
X158816715Y-119883946D01*
X158334946Y-120205853D01*
X158115000Y-120535026D01*
X157895054Y-120205853D01*
X157413285Y-119883946D01*
X156845000Y-119770907D01*
X156276715Y-119883946D01*
X155794946Y-120205853D01*
X155575000Y-120535026D01*
X155355054Y-120205853D01*
X154873285Y-119883946D01*
X154305000Y-119770907D01*
X153736715Y-119883946D01*
X153254946Y-120205853D01*
X153035000Y-120535026D01*
X152815054Y-120205853D01*
X152333285Y-119883946D01*
X151765000Y-119770907D01*
X151196715Y-119883946D01*
X150714946Y-120205853D01*
X150495000Y-120535026D01*
X150275054Y-120205853D01*
X149793285Y-119883946D01*
X149225000Y-119770907D01*
X148656715Y-119883946D01*
X148174946Y-120205853D01*
X147955000Y-120535026D01*
X147735054Y-120205853D01*
X147253285Y-119883946D01*
X146685000Y-119770907D01*
X146116715Y-119883946D01*
X145634946Y-120205853D01*
X145607150Y-120247452D01*
X145598162Y-120199683D01*
X145459090Y-119983559D01*
X145246890Y-119838569D01*
X144995000Y-119787560D01*
X143295000Y-119787560D01*
X143059683Y-119831838D01*
X142843559Y-119970910D01*
X142698569Y-120183110D01*
X142647560Y-120435000D01*
X142647560Y-122135000D01*
X142691838Y-122370317D01*
X142830910Y-122586441D01*
X143043110Y-122731431D01*
X143295000Y-122782440D01*
X144995000Y-122782440D01*
X145230317Y-122738162D01*
X145446441Y-122599090D01*
X145591431Y-122386890D01*
X145605086Y-122319459D01*
X145634946Y-122364147D01*
X146116715Y-122686054D01*
X146685000Y-122799093D01*
X147253285Y-122686054D01*
X147735054Y-122364147D01*
X147955000Y-122034974D01*
X148174946Y-122364147D01*
X148656715Y-122686054D01*
X149225000Y-122799093D01*
X149793285Y-122686054D01*
X150275054Y-122364147D01*
X150495000Y-122034974D01*
X150714946Y-122364147D01*
X151196715Y-122686054D01*
X151765000Y-122799093D01*
X152333285Y-122686054D01*
X152815054Y-122364147D01*
X153035000Y-122034974D01*
X153254946Y-122364147D01*
X153736715Y-122686054D01*
X154305000Y-122799093D01*
X154873285Y-122686054D01*
X155355054Y-122364147D01*
X155575000Y-122034974D01*
X155794946Y-122364147D01*
X156276715Y-122686054D01*
X156845000Y-122799093D01*
X157413285Y-122686054D01*
X157895054Y-122364147D01*
X158115000Y-122034974D01*
X158334946Y-122364147D01*
X158816715Y-122686054D01*
X159385000Y-122799093D01*
X159953285Y-122686054D01*
X160435054Y-122364147D01*
X160655000Y-122034974D01*
X160874946Y-122364147D01*
X161356715Y-122686054D01*
X161925000Y-122799093D01*
X162493285Y-122686054D01*
X162975054Y-122364147D01*
X163120000Y-122147219D01*
X163120000Y-123115000D01*
X141264091Y-123115000D01*
X139140000Y-120990908D01*
X139140000Y-114060000D01*
X145797560Y-114060000D01*
X145797560Y-115810000D01*
X145841838Y-116045317D01*
X145980910Y-116261441D01*
X146193110Y-116406431D01*
X146445000Y-116457440D01*
X148195000Y-116457440D01*
X148430317Y-116413162D01*
X148646441Y-116274090D01*
X148791431Y-116061890D01*
X148794786Y-116045324D01*
X148963537Y-116214370D01*
X149518325Y-116444738D01*
X150119040Y-116445262D01*
X150674229Y-116215862D01*
X151070318Y-115820464D01*
X151463537Y-116214370D01*
X152018325Y-116444738D01*
X152619040Y-116445262D01*
X153174229Y-116215862D01*
X153599370Y-115791463D01*
X153829738Y-115236675D01*
X153830262Y-114635960D01*
X153600862Y-114080771D01*
X153176463Y-113655630D01*
X152621675Y-113425262D01*
X152020960Y-113424738D01*
X151465771Y-113654138D01*
X151069682Y-114049536D01*
X150676463Y-113655630D01*
X150121675Y-113425262D01*
X149520960Y-113424738D01*
X148965771Y-113654138D01*
X148796897Y-113822717D01*
X148659090Y-113608559D01*
X148446890Y-113463569D01*
X148195000Y-113412560D01*
X146445000Y-113412560D01*
X146209683Y-113456838D01*
X145993559Y-113595910D01*
X145848569Y-113808110D01*
X145797560Y-114060000D01*
X139140000Y-114060000D01*
X139140000Y-92369092D01*
X141264091Y-90245000D01*
X163120000Y-90245000D01*
X163120000Y-91212781D01*
X163120000Y-91212781D01*
G37*
X163120000Y-91212781D02*
X162975054Y-90995853D01*
X162493285Y-90673946D01*
X161925000Y-90560907D01*
X161356715Y-90673946D01*
X160874946Y-90995853D01*
X160655000Y-91325026D01*
X160435054Y-90995853D01*
X159953285Y-90673946D01*
X159385000Y-90560907D01*
X158816715Y-90673946D01*
X158334946Y-90995853D01*
X158115000Y-91325026D01*
X157895054Y-90995853D01*
X157413285Y-90673946D01*
X156845000Y-90560907D01*
X156276715Y-90673946D01*
X155794946Y-90995853D01*
X155575000Y-91325026D01*
X155355054Y-90995853D01*
X154873285Y-90673946D01*
X154305000Y-90560907D01*
X153736715Y-90673946D01*
X153254946Y-90995853D01*
X153041699Y-91315000D01*
X153028301Y-91315000D01*
X152815054Y-90995853D01*
X152333285Y-90673946D01*
X151765000Y-90560907D01*
X151196715Y-90673946D01*
X150714946Y-90995853D01*
X150495000Y-91325026D01*
X150275054Y-90995853D01*
X149793285Y-90673946D01*
X149225000Y-90560907D01*
X148656715Y-90673946D01*
X148174946Y-90995853D01*
X147955000Y-91325026D01*
X147735054Y-90995853D01*
X147253285Y-90673946D01*
X146685000Y-90560907D01*
X146116715Y-90673946D01*
X145634946Y-90995853D01*
X145607150Y-91037452D01*
X145598162Y-90989683D01*
X145459090Y-90773559D01*
X145246890Y-90628569D01*
X144995000Y-90577560D01*
X143295000Y-90577560D01*
X143059683Y-90621838D01*
X142843559Y-90760910D01*
X142698569Y-90973110D01*
X142647560Y-91225000D01*
X142647560Y-92925000D01*
X142691838Y-93160317D01*
X142830910Y-93376441D01*
X143043110Y-93521431D01*
X143295000Y-93572440D01*
X144995000Y-93572440D01*
X145230317Y-93528162D01*
X145446441Y-93389090D01*
X145591431Y-93176890D01*
X145605086Y-93109459D01*
X145634946Y-93154147D01*
X146116715Y-93476054D01*
X146685000Y-93589093D01*
X147253285Y-93476054D01*
X147735054Y-93154147D01*
X147786961Y-93076463D01*
X147910499Y-93200001D01*
X148157061Y-93364748D01*
X148447900Y-93422600D01*
X148465000Y-93422600D01*
X148465000Y-103762300D01*
X148522852Y-104053139D01*
X148687599Y-104299701D01*
X156102878Y-111714980D01*
X156102838Y-111760467D01*
X156244883Y-112104243D01*
X156507673Y-112367492D01*
X156851201Y-112510138D01*
X157223167Y-112510462D01*
X157566943Y-112368417D01*
X157830192Y-112105627D01*
X157972838Y-111762099D01*
X157973162Y-111390133D01*
X157831117Y-111046357D01*
X157568327Y-110783108D01*
X157224799Y-110640462D01*
X157177923Y-110640421D01*
X149985000Y-103447498D01*
X149985000Y-93347954D01*
X150275054Y-93154147D01*
X150495000Y-92824974D01*
X150714946Y-93154147D01*
X151196715Y-93476054D01*
X151765000Y-93589093D01*
X152333285Y-93476054D01*
X152815054Y-93154147D01*
X153028301Y-92835000D01*
X153041699Y-92835000D01*
X153254946Y-93154147D01*
X153545000Y-93347954D01*
X153545000Y-95033500D01*
X153602852Y-95324339D01*
X153767599Y-95570901D01*
X155604078Y-97407380D01*
X155604038Y-97452867D01*
X155746083Y-97796643D01*
X156008873Y-98059892D01*
X156352401Y-98202538D01*
X156724367Y-98202862D01*
X157068143Y-98060817D01*
X157331392Y-97798027D01*
X157474038Y-97454499D01*
X157474362Y-97082533D01*
X157332317Y-96738757D01*
X157069527Y-96475508D01*
X156725999Y-96332862D01*
X156679123Y-96332821D01*
X155065000Y-94718698D01*
X155065000Y-93347954D01*
X155355054Y-93154147D01*
X155575000Y-92824974D01*
X155794946Y-93154147D01*
X156276715Y-93476054D01*
X156845000Y-93589093D01*
X157413285Y-93476054D01*
X157895054Y-93154147D01*
X158115000Y-92824974D01*
X158334946Y-93154147D01*
X158816715Y-93476054D01*
X159385000Y-93589093D01*
X159953285Y-93476054D01*
X160435054Y-93154147D01*
X160655000Y-92824974D01*
X160874946Y-93154147D01*
X161356715Y-93476054D01*
X161925000Y-93589093D01*
X162493285Y-93476054D01*
X162975054Y-93154147D01*
X163120000Y-92937219D01*
X163120000Y-120422781D01*
X162975054Y-120205853D01*
X162493285Y-119883946D01*
X161925000Y-119770907D01*
X161356715Y-119883946D01*
X160874946Y-120205853D01*
X160655000Y-120535026D01*
X160435054Y-120205853D01*
X159953285Y-119883946D01*
X159385000Y-119770907D01*
X158816715Y-119883946D01*
X158334946Y-120205853D01*
X158115000Y-120535026D01*
X157895054Y-120205853D01*
X157413285Y-119883946D01*
X156845000Y-119770907D01*
X156276715Y-119883946D01*
X155794946Y-120205853D01*
X155575000Y-120535026D01*
X155355054Y-120205853D01*
X154873285Y-119883946D01*
X154305000Y-119770907D01*
X153736715Y-119883946D01*
X153254946Y-120205853D01*
X153035000Y-120535026D01*
X152815054Y-120205853D01*
X152333285Y-119883946D01*
X151765000Y-119770907D01*
X151196715Y-119883946D01*
X150714946Y-120205853D01*
X150495000Y-120535026D01*
X150275054Y-120205853D01*
X149793285Y-119883946D01*
X149225000Y-119770907D01*
X148656715Y-119883946D01*
X148174946Y-120205853D01*
X147955000Y-120535026D01*
X147735054Y-120205853D01*
X147253285Y-119883946D01*
X146685000Y-119770907D01*
X146116715Y-119883946D01*
X145634946Y-120205853D01*
X145607150Y-120247452D01*
X145598162Y-120199683D01*
X145459090Y-119983559D01*
X145246890Y-119838569D01*
X144995000Y-119787560D01*
X143295000Y-119787560D01*
X143059683Y-119831838D01*
X142843559Y-119970910D01*
X142698569Y-120183110D01*
X142647560Y-120435000D01*
X142647560Y-122135000D01*
X142691838Y-122370317D01*
X142830910Y-122586441D01*
X143043110Y-122731431D01*
X143295000Y-122782440D01*
X144995000Y-122782440D01*
X145230317Y-122738162D01*
X145446441Y-122599090D01*
X145591431Y-122386890D01*
X145605086Y-122319459D01*
X145634946Y-122364147D01*
X146116715Y-122686054D01*
X146685000Y-122799093D01*
X147253285Y-122686054D01*
X147735054Y-122364147D01*
X147955000Y-122034974D01*
X148174946Y-122364147D01*
X148656715Y-122686054D01*
X149225000Y-122799093D01*
X149793285Y-122686054D01*
X150275054Y-122364147D01*
X150495000Y-122034974D01*
X150714946Y-122364147D01*
X151196715Y-122686054D01*
X151765000Y-122799093D01*
X152333285Y-122686054D01*
X152815054Y-122364147D01*
X153035000Y-122034974D01*
X153254946Y-122364147D01*
X153736715Y-122686054D01*
X154305000Y-122799093D01*
X154873285Y-122686054D01*
X155355054Y-122364147D01*
X155575000Y-122034974D01*
X155794946Y-122364147D01*
X156276715Y-122686054D01*
X156845000Y-122799093D01*
X157413285Y-122686054D01*
X157895054Y-122364147D01*
X158115000Y-122034974D01*
X158334946Y-122364147D01*
X158816715Y-122686054D01*
X159385000Y-122799093D01*
X159953285Y-122686054D01*
X160435054Y-122364147D01*
X160655000Y-122034974D01*
X160874946Y-122364147D01*
X161356715Y-122686054D01*
X161925000Y-122799093D01*
X162493285Y-122686054D01*
X162975054Y-122364147D01*
X163120000Y-122147219D01*
X163120000Y-123115000D01*
X141264091Y-123115000D01*
X139140000Y-120990908D01*
X139140000Y-114060000D01*
X145797560Y-114060000D01*
X145797560Y-115810000D01*
X145841838Y-116045317D01*
X145980910Y-116261441D01*
X146193110Y-116406431D01*
X146445000Y-116457440D01*
X148195000Y-116457440D01*
X148430317Y-116413162D01*
X148646441Y-116274090D01*
X148791431Y-116061890D01*
X148794786Y-116045324D01*
X148963537Y-116214370D01*
X149518325Y-116444738D01*
X150119040Y-116445262D01*
X150674229Y-116215862D01*
X151070318Y-115820464D01*
X151463537Y-116214370D01*
X152018325Y-116444738D01*
X152619040Y-116445262D01*
X153174229Y-116215862D01*
X153599370Y-115791463D01*
X153829738Y-115236675D01*
X153830262Y-114635960D01*
X153600862Y-114080771D01*
X153176463Y-113655630D01*
X152621675Y-113425262D01*
X152020960Y-113424738D01*
X151465771Y-113654138D01*
X151069682Y-114049536D01*
X150676463Y-113655630D01*
X150121675Y-113425262D01*
X149520960Y-113424738D01*
X148965771Y-113654138D01*
X148796897Y-113822717D01*
X148659090Y-113608559D01*
X148446890Y-113463569D01*
X148195000Y-113412560D01*
X146445000Y-113412560D01*
X146209683Y-113456838D01*
X145993559Y-113595910D01*
X145848569Y-113808110D01*
X145797560Y-114060000D01*
X139140000Y-114060000D01*
X139140000Y-92369092D01*
X141264091Y-90245000D01*
X163120000Y-90245000D01*
X163120000Y-91212781D01*
M02*
