G04 #@! TF.FileFunction,Soldermask,Top*
%FSLAX46Y46*%
G04 Gerber Fmt 4.6, Leading zero omitted, Abs format (unit mm)*
G04 Created by KiCad (PCBNEW 4.0.7-e2-6376~58~ubuntu17.04.1) date Thu Oct  5 12:14:12 2017*
%MOMM*%
%LPD*%
G01*
G04 APERTURE LIST*
%ADD10C,0.100000*%
%ADD11R,1.150000X1.600000*%
%ADD12R,2.150000X2.150000*%
%ADD13C,2.150000*%
%ADD14R,2.100000X2.100000*%
%ADD15O,2.100000X2.100000*%
%ADD16R,1.670000X1.370000*%
%ADD17R,1.300000X1.600000*%
%ADD18R,2.300000X1.200000*%
%ADD19R,1.960000X1.050000*%
G04 APERTURE END LIST*
D10*
D11*
X151765000Y-101920000D03*
X151765000Y-103820000D03*
X154940000Y-101920000D03*
X154940000Y-103820000D03*
X148590000Y-98105000D03*
X148590000Y-96205000D03*
X148590000Y-101920000D03*
X148590000Y-103820000D03*
X145415000Y-101920000D03*
X145415000Y-103820000D03*
X154940000Y-98105000D03*
X154940000Y-96205000D03*
X151765000Y-98105000D03*
X151765000Y-96205000D03*
D12*
X147320000Y-114935000D03*
D13*
X149820000Y-114935000D03*
X152320000Y-114935000D03*
D14*
X144145000Y-121285000D03*
D15*
X146685000Y-121285000D03*
X149225000Y-121285000D03*
X151765000Y-121285000D03*
X154305000Y-121285000D03*
X156845000Y-121285000D03*
X159385000Y-121285000D03*
X161925000Y-121285000D03*
D14*
X144145000Y-92075000D03*
D15*
X146685000Y-92075000D03*
X149225000Y-92075000D03*
X151765000Y-92075000D03*
X154305000Y-92075000D03*
X156845000Y-92075000D03*
X159385000Y-92075000D03*
X161925000Y-92075000D03*
D16*
X161925000Y-113665000D03*
X161925000Y-114935000D03*
X161925000Y-116205000D03*
X157480000Y-113665000D03*
X157480000Y-114935000D03*
X157480000Y-116205000D03*
D17*
X142240000Y-113835000D03*
X142240000Y-116035000D03*
X148590000Y-109685000D03*
X148590000Y-107485000D03*
X151765000Y-107485000D03*
X151765000Y-109685000D03*
X154940000Y-107485000D03*
X154940000Y-109685000D03*
X158115000Y-109685000D03*
X158115000Y-107485000D03*
X161290000Y-107485000D03*
X161290000Y-109685000D03*
X158115000Y-103970000D03*
X158115000Y-101770000D03*
X142240000Y-101770000D03*
X142240000Y-103970000D03*
X161290000Y-103970000D03*
X161290000Y-101770000D03*
D18*
X142010000Y-107635000D03*
X142010000Y-109535000D03*
X145010000Y-108585000D03*
D19*
X158035000Y-96205000D03*
X158035000Y-97155000D03*
X158035000Y-98105000D03*
X160735000Y-98105000D03*
X160735000Y-96205000D03*
X142160000Y-96205000D03*
X142160000Y-97155000D03*
X142160000Y-98105000D03*
X144860000Y-98105000D03*
X144860000Y-96205000D03*
M02*
