G04 #@! TF.FileFunction,Paste,Bot*
%FSLAX46Y46*%
G04 Gerber Fmt 4.6, Leading zero omitted, Abs format (unit mm)*
G04 Created by KiCad (PCBNEW 4.0.7-e2-6376~58~ubuntu17.04.1) date Sat Oct 28 17:51:25 2017*
%MOMM*%
%LPD*%
G01*
G04 APERTURE LIST*
%ADD10C,0.100000*%
%ADD11R,1.016000X1.524000*%
%ADD12R,1.524000X1.016000*%
%ADD13R,4.700000X1.350000*%
%ADD14R,4.200000X1.270000*%
G04 APERTURE END LIST*
D10*
D11*
X159385000Y-103505000D03*
X160655000Y-103505000D03*
X161925000Y-103505000D03*
X163195000Y-103505000D03*
X164465000Y-103505000D03*
X165735000Y-103505000D03*
X167005000Y-103505000D03*
X168275000Y-103505000D03*
X169545000Y-103505000D03*
X170815000Y-103505000D03*
X172085000Y-103505000D03*
X173355000Y-103505000D03*
X174625000Y-103505000D03*
X175895000Y-103505000D03*
X177165000Y-103505000D03*
X178435000Y-103505000D03*
X179705000Y-103505000D03*
X180975000Y-103505000D03*
X182245000Y-103505000D03*
X183515000Y-103505000D03*
X183515000Y-85725000D03*
D12*
X184785000Y-98425000D03*
X184785000Y-97155000D03*
X184785000Y-95885000D03*
X184785000Y-94615000D03*
X184785000Y-93345000D03*
X184785000Y-92075000D03*
X184785000Y-90805000D03*
D11*
X182245000Y-85725000D03*
X180975000Y-85725000D03*
X179705000Y-85725000D03*
X178435000Y-85725000D03*
X177165000Y-85725000D03*
X175895000Y-85725000D03*
X174625000Y-85725000D03*
X173355000Y-85725000D03*
X172085000Y-85725000D03*
X170815000Y-85725000D03*
X169545000Y-85725000D03*
X168275000Y-85725000D03*
X167005000Y-85725000D03*
X165735000Y-85725000D03*
X164465000Y-85725000D03*
X163195000Y-85725000D03*
X161925000Y-85725000D03*
X160655000Y-85725000D03*
X159385000Y-85725000D03*
D13*
X190500000Y-97010000D03*
X190500000Y-91440000D03*
X190500000Y-91440000D03*
D14*
X190750000Y-94225000D03*
D13*
X190500000Y-97010000D03*
M02*
