M48
INCH,TZ
T1C0.016
T2C0.024
T3C0.030
T4C0.033
T5C0.039
%
G90
G05
T1
X59642Y-35612
X60209Y-34486
X61078Y-39060
X62093Y-37893
X62410Y-37503
X62871Y-37771
X63583Y-34657
X64426Y-34259
X64624Y-35725
X64755Y-37059
X65788Y-41428
X65882Y-36990
X65885Y-37743
X65998Y-39484
X66297Y-37852
X66583Y-41297
X66813Y-38159
X67345Y-37612
X67439Y-35606
X67669Y-36208
X67785Y-35592
X68131Y-34559
X68498Y-41725
X68509Y-36977
X69000Y-36419
X69013Y-36001
X69345Y-41849
X69431Y-36397
X69543Y-37853
X69557Y-36850
X69820Y-40252
X70329Y-39368
X72129Y-33181
X72393Y-34591
X73360Y-41069
T3
X58750Y-32500
X58750Y-33287
T4
X59175Y-35016
X59175Y-36984
T5
X58250Y-38500
X58250Y-39500
X58250Y-40500
X58250Y-41500
X58250Y-42500
X60250Y-31500
X60250Y-43000
X61250Y-31500
X61250Y-43000
X62250Y-31500
X62250Y-43000
X63250Y-31500
X63250Y-43000
X64250Y-31500
X64250Y-43000
X65250Y-31500
X65250Y-43000
X66250Y-31500
X66250Y-43000
X67250Y-31500
X67250Y-43000
X68250Y-31500
X68250Y-43000
X69250Y-31500
X69250Y-43000
X70250Y-31500
X70250Y-43000
X71250Y-31500
X71250Y-43000
T2
X57974Y-34622G85X58250Y-34622
G05
X58250Y-37378G85X57974Y-37378
G05
T0
M30
