G04 #@! TF.FileFunction,Legend,Bot*
%FSLAX46Y46*%
G04 Gerber Fmt 4.6, Leading zero omitted, Abs format (unit mm)*
G04 Created by KiCad (PCBNEW 4.0.7-e2-6376~58~ubuntu17.04.1) date Sat Oct 28 17:51:25 2017*
%MOMM*%
%LPD*%
G01*
G04 APERTURE LIST*
%ADD10C,0.100000*%
%ADD11C,0.010000*%
%ADD12C,0.150000*%
G04 APERTURE END LIST*
D10*
X154684286Y-106667381D02*
X154646190Y-106705476D01*
X154608095Y-106819762D01*
X154608095Y-106895952D01*
X154646190Y-107010238D01*
X154722381Y-107086429D01*
X154798571Y-107124524D01*
X154950952Y-107162619D01*
X155065238Y-107162619D01*
X155217619Y-107124524D01*
X155293810Y-107086429D01*
X155370000Y-107010238D01*
X155408095Y-106895952D01*
X155408095Y-106819762D01*
X155370000Y-106705476D01*
X155331905Y-106667381D01*
X154608095Y-106210238D02*
X154646190Y-106286429D01*
X154684286Y-106324524D01*
X154760476Y-106362619D01*
X154989048Y-106362619D01*
X155065238Y-106324524D01*
X155103333Y-106286429D01*
X155141429Y-106210238D01*
X155141429Y-106095952D01*
X155103333Y-106019762D01*
X155065238Y-105981667D01*
X154989048Y-105943571D01*
X154760476Y-105943571D01*
X154684286Y-105981667D01*
X154646190Y-106019762D01*
X154608095Y-106095952D01*
X154608095Y-106210238D01*
X154646190Y-105638809D02*
X154608095Y-105562619D01*
X154608095Y-105410238D01*
X154646190Y-105334047D01*
X154722381Y-105295952D01*
X154760476Y-105295952D01*
X154836667Y-105334047D01*
X154874762Y-105410238D01*
X154874762Y-105524523D01*
X154912857Y-105600714D01*
X154989048Y-105638809D01*
X155027143Y-105638809D01*
X155103333Y-105600714D01*
X155141429Y-105524523D01*
X155141429Y-105410238D01*
X155103333Y-105334047D01*
X154608095Y-104953095D02*
X155141429Y-104953095D01*
X155065238Y-104953095D02*
X155103333Y-104915000D01*
X155141429Y-104838809D01*
X155141429Y-104724523D01*
X155103333Y-104648333D01*
X155027143Y-104610238D01*
X154608095Y-104610238D01*
X155027143Y-104610238D02*
X155103333Y-104572142D01*
X155141429Y-104495952D01*
X155141429Y-104381666D01*
X155103333Y-104305476D01*
X155027143Y-104267381D01*
X154608095Y-104267381D01*
X154608095Y-103772142D02*
X154646190Y-103848333D01*
X154684286Y-103886428D01*
X154760476Y-103924523D01*
X154989048Y-103924523D01*
X155065238Y-103886428D01*
X155103333Y-103848333D01*
X155141429Y-103772142D01*
X155141429Y-103657856D01*
X155103333Y-103581666D01*
X155065238Y-103543571D01*
X154989048Y-103505475D01*
X154760476Y-103505475D01*
X154684286Y-103543571D01*
X154646190Y-103581666D01*
X154608095Y-103657856D01*
X154608095Y-103772142D01*
X155141429Y-103162618D02*
X154608095Y-103162618D01*
X155065238Y-103162618D02*
X155103333Y-103124523D01*
X155141429Y-103048332D01*
X155141429Y-102934046D01*
X155103333Y-102857856D01*
X155027143Y-102819761D01*
X154608095Y-102819761D01*
X154608095Y-102324522D02*
X154646190Y-102400713D01*
X154684286Y-102438808D01*
X154760476Y-102476903D01*
X154989048Y-102476903D01*
X155065238Y-102438808D01*
X155103333Y-102400713D01*
X155141429Y-102324522D01*
X155141429Y-102210236D01*
X155103333Y-102134046D01*
X155065238Y-102095951D01*
X154989048Y-102057855D01*
X154760476Y-102057855D01*
X154684286Y-102095951D01*
X154646190Y-102134046D01*
X154608095Y-102210236D01*
X154608095Y-102324522D01*
X154608095Y-101372141D02*
X155408095Y-101372141D01*
X154646190Y-101372141D02*
X154608095Y-101448331D01*
X154608095Y-101600712D01*
X154646190Y-101676903D01*
X154684286Y-101714998D01*
X154760476Y-101753093D01*
X154989048Y-101753093D01*
X155065238Y-101714998D01*
X155103333Y-101676903D01*
X155141429Y-101600712D01*
X155141429Y-101448331D01*
X155103333Y-101372141D01*
X154646190Y-100686426D02*
X154608095Y-100762616D01*
X154608095Y-100914997D01*
X154646190Y-100991188D01*
X154722381Y-101029283D01*
X155027143Y-101029283D01*
X155103333Y-100991188D01*
X155141429Y-100914997D01*
X155141429Y-100762616D01*
X155103333Y-100686426D01*
X155027143Y-100648331D01*
X154950952Y-100648331D01*
X154874762Y-101029283D01*
X155141429Y-99772140D02*
X154608095Y-99581664D01*
X155141429Y-99391188D01*
X155408095Y-98934045D02*
X155408095Y-98857854D01*
X155370000Y-98781664D01*
X155331905Y-98743569D01*
X155255714Y-98705473D01*
X155103333Y-98667378D01*
X154912857Y-98667378D01*
X154760476Y-98705473D01*
X154684286Y-98743569D01*
X154646190Y-98781664D01*
X154608095Y-98857854D01*
X154608095Y-98934045D01*
X154646190Y-99010235D01*
X154684286Y-99048331D01*
X154760476Y-99086426D01*
X154912857Y-99124521D01*
X155103333Y-99124521D01*
X155255714Y-99086426D01*
X155331905Y-99048331D01*
X155370000Y-99010235D01*
X155408095Y-98934045D01*
X154684286Y-98324521D02*
X154646190Y-98286426D01*
X154608095Y-98324521D01*
X154646190Y-98362616D01*
X154684286Y-98324521D01*
X154608095Y-98324521D01*
X155408095Y-97562616D02*
X155408095Y-97943569D01*
X155027143Y-97981664D01*
X155065238Y-97943569D01*
X155103333Y-97867378D01*
X155103333Y-97676902D01*
X155065238Y-97600712D01*
X155027143Y-97562616D01*
X154950952Y-97524521D01*
X154760476Y-97524521D01*
X154684286Y-97562616D01*
X154646190Y-97600712D01*
X154608095Y-97676902D01*
X154608095Y-97867378D01*
X154646190Y-97943569D01*
X154684286Y-97981664D01*
X154646190Y-97143569D02*
X154608095Y-97143569D01*
X154531905Y-97181664D01*
X154493810Y-97219759D01*
X154608095Y-96191188D02*
X155408095Y-96191188D01*
X155103333Y-96191188D02*
X155141429Y-96114997D01*
X155141429Y-95962616D01*
X155103333Y-95886426D01*
X155065238Y-95848331D01*
X154989048Y-95810235D01*
X154760476Y-95810235D01*
X154684286Y-95848331D01*
X154646190Y-95886426D01*
X154608095Y-95962616D01*
X154608095Y-96114997D01*
X154646190Y-96191188D01*
X155141429Y-95543568D02*
X154608095Y-95353092D01*
X155141429Y-95162616D02*
X154608095Y-95353092D01*
X154417619Y-95429283D01*
X154379524Y-95467378D01*
X154341429Y-95543568D01*
X155370000Y-93829282D02*
X155408095Y-93905473D01*
X155408095Y-94019758D01*
X155370000Y-94134044D01*
X155293810Y-94210235D01*
X155217619Y-94248330D01*
X155065238Y-94286425D01*
X154950952Y-94286425D01*
X154798571Y-94248330D01*
X154722381Y-94210235D01*
X154646190Y-94134044D01*
X154608095Y-94019758D01*
X154608095Y-93943568D01*
X154646190Y-93829282D01*
X154684286Y-93791187D01*
X154950952Y-93791187D01*
X154950952Y-93943568D01*
X154646190Y-93143568D02*
X154608095Y-93219758D01*
X154608095Y-93372139D01*
X154646190Y-93448330D01*
X154722381Y-93486425D01*
X155027143Y-93486425D01*
X155103333Y-93448330D01*
X155141429Y-93372139D01*
X155141429Y-93219758D01*
X155103333Y-93143568D01*
X155027143Y-93105473D01*
X154950952Y-93105473D01*
X154874762Y-93486425D01*
X155141429Y-92876902D02*
X155141429Y-92572140D01*
X155408095Y-92762616D02*
X154722381Y-92762616D01*
X154646190Y-92724521D01*
X154608095Y-92648330D01*
X154608095Y-92572140D01*
X154608095Y-92191187D02*
X154646190Y-92267378D01*
X154722381Y-92305473D01*
X155408095Y-92305473D01*
X154608095Y-91543568D02*
X155027143Y-91543568D01*
X155103333Y-91581663D01*
X155141429Y-91657853D01*
X155141429Y-91810234D01*
X155103333Y-91886425D01*
X154646190Y-91543568D02*
X154608095Y-91619758D01*
X154608095Y-91810234D01*
X154646190Y-91886425D01*
X154722381Y-91924520D01*
X154798571Y-91924520D01*
X154874762Y-91886425D01*
X154912857Y-91810234D01*
X154912857Y-91619758D01*
X154950952Y-91543568D01*
X154608095Y-91162615D02*
X155141429Y-91162615D01*
X154989048Y-91162615D02*
X155065238Y-91124520D01*
X155103333Y-91086424D01*
X155141429Y-91010234D01*
X155141429Y-90934043D01*
X155141429Y-90324520D02*
X154493810Y-90324520D01*
X154417619Y-90362615D01*
X154379524Y-90400710D01*
X154341429Y-90476901D01*
X154341429Y-90591186D01*
X154379524Y-90667377D01*
X154646190Y-90324520D02*
X154608095Y-90400710D01*
X154608095Y-90553091D01*
X154646190Y-90629282D01*
X154684286Y-90667377D01*
X154760476Y-90705472D01*
X154989048Y-90705472D01*
X155065238Y-90667377D01*
X155103333Y-90629282D01*
X155141429Y-90553091D01*
X155141429Y-90400710D01*
X155103333Y-90324520D01*
X154646190Y-89638805D02*
X154608095Y-89714995D01*
X154608095Y-89867376D01*
X154646190Y-89943567D01*
X154722381Y-89981662D01*
X155027143Y-89981662D01*
X155103333Y-89943567D01*
X155141429Y-89867376D01*
X155141429Y-89714995D01*
X155103333Y-89638805D01*
X155027143Y-89600710D01*
X154950952Y-89600710D01*
X154874762Y-89981662D01*
X152008095Y-107124524D02*
X152808095Y-107124524D01*
X152008095Y-106781667D02*
X152427143Y-106781667D01*
X152503333Y-106819762D01*
X152541429Y-106895952D01*
X152541429Y-107010238D01*
X152503333Y-107086429D01*
X152465238Y-107124524D01*
X152541429Y-106515000D02*
X152541429Y-106210238D01*
X152808095Y-106400714D02*
X152122381Y-106400714D01*
X152046190Y-106362619D01*
X152008095Y-106286428D01*
X152008095Y-106210238D01*
X152541429Y-106057857D02*
X152541429Y-105753095D01*
X152808095Y-105943571D02*
X152122381Y-105943571D01*
X152046190Y-105905476D01*
X152008095Y-105829285D01*
X152008095Y-105753095D01*
X152541429Y-105486428D02*
X151741429Y-105486428D01*
X152503333Y-105486428D02*
X152541429Y-105410237D01*
X152541429Y-105257856D01*
X152503333Y-105181666D01*
X152465238Y-105143571D01*
X152389048Y-105105475D01*
X152160476Y-105105475D01*
X152084286Y-105143571D01*
X152046190Y-105181666D01*
X152008095Y-105257856D01*
X152008095Y-105410237D01*
X152046190Y-105486428D01*
X152046190Y-104800713D02*
X152008095Y-104724523D01*
X152008095Y-104572142D01*
X152046190Y-104495951D01*
X152122381Y-104457856D01*
X152160476Y-104457856D01*
X152236667Y-104495951D01*
X152274762Y-104572142D01*
X152274762Y-104686427D01*
X152312857Y-104762618D01*
X152389048Y-104800713D01*
X152427143Y-104800713D01*
X152503333Y-104762618D01*
X152541429Y-104686427D01*
X152541429Y-104572142D01*
X152503333Y-104495951D01*
X152084286Y-104114999D02*
X152046190Y-104076904D01*
X152008095Y-104114999D01*
X152046190Y-104153094D01*
X152084286Y-104114999D01*
X152008095Y-104114999D01*
X152503333Y-104114999D02*
X152465238Y-104076904D01*
X152427143Y-104114999D01*
X152465238Y-104153094D01*
X152503333Y-104114999D01*
X152427143Y-104114999D01*
X152846190Y-103162618D02*
X151817619Y-103848333D01*
X152846190Y-102324523D02*
X151817619Y-103010238D01*
X152008095Y-101715000D02*
X152427143Y-101715000D01*
X152503333Y-101753095D01*
X152541429Y-101829285D01*
X152541429Y-101981666D01*
X152503333Y-102057857D01*
X152046190Y-101715000D02*
X152008095Y-101791190D01*
X152008095Y-101981666D01*
X152046190Y-102057857D01*
X152122381Y-102095952D01*
X152198571Y-102095952D01*
X152274762Y-102057857D01*
X152312857Y-101981666D01*
X152312857Y-101791190D01*
X152350952Y-101715000D01*
X152008095Y-101219761D02*
X152046190Y-101295952D01*
X152122381Y-101334047D01*
X152808095Y-101334047D01*
X152008095Y-100800713D02*
X152046190Y-100876904D01*
X152084286Y-100914999D01*
X152160476Y-100953094D01*
X152389048Y-100953094D01*
X152465238Y-100914999D01*
X152503333Y-100876904D01*
X152541429Y-100800713D01*
X152541429Y-100686427D01*
X152503333Y-100610237D01*
X152465238Y-100572142D01*
X152389048Y-100534046D01*
X152160476Y-100534046D01*
X152084286Y-100572142D01*
X152046190Y-100610237D01*
X152008095Y-100686427D01*
X152008095Y-100800713D01*
X152046190Y-99886427D02*
X152008095Y-99962617D01*
X152008095Y-100114998D01*
X152046190Y-100191189D01*
X152122381Y-100229284D01*
X152427143Y-100229284D01*
X152503333Y-100191189D01*
X152541429Y-100114998D01*
X152541429Y-99962617D01*
X152503333Y-99886427D01*
X152427143Y-99848332D01*
X152350952Y-99848332D01*
X152274762Y-100229284D01*
X152046190Y-99543570D02*
X152008095Y-99467380D01*
X152008095Y-99314999D01*
X152046190Y-99238808D01*
X152122381Y-99200713D01*
X152160476Y-99200713D01*
X152236667Y-99238808D01*
X152274762Y-99314999D01*
X152274762Y-99429284D01*
X152312857Y-99505475D01*
X152389048Y-99543570D01*
X152427143Y-99543570D01*
X152503333Y-99505475D01*
X152541429Y-99429284D01*
X152541429Y-99314999D01*
X152503333Y-99238808D01*
X152084286Y-98857856D02*
X152046190Y-98819761D01*
X152008095Y-98857856D01*
X152046190Y-98895951D01*
X152084286Y-98857856D01*
X152008095Y-98857856D01*
X152008095Y-98476904D02*
X152541429Y-98476904D01*
X152808095Y-98476904D02*
X152770000Y-98514999D01*
X152731905Y-98476904D01*
X152770000Y-98438809D01*
X152808095Y-98476904D01*
X152731905Y-98476904D01*
X152008095Y-97981666D02*
X152046190Y-98057857D01*
X152084286Y-98095952D01*
X152160476Y-98134047D01*
X152389048Y-98134047D01*
X152465238Y-98095952D01*
X152503333Y-98057857D01*
X152541429Y-97981666D01*
X152541429Y-97867380D01*
X152503333Y-97791190D01*
X152465238Y-97753095D01*
X152389048Y-97714999D01*
X152160476Y-97714999D01*
X152084286Y-97753095D01*
X152046190Y-97791190D01*
X152008095Y-97867380D01*
X152008095Y-97981666D01*
X149682142Y-85425000D02*
X149739285Y-85396429D01*
X149824999Y-85396429D01*
X149910714Y-85425000D01*
X149967856Y-85482143D01*
X149996428Y-85539286D01*
X150024999Y-85653571D01*
X150024999Y-85739286D01*
X149996428Y-85853571D01*
X149967856Y-85910714D01*
X149910714Y-85967857D01*
X149824999Y-85996429D01*
X149767856Y-85996429D01*
X149682142Y-85967857D01*
X149653571Y-85939286D01*
X149653571Y-85739286D01*
X149767856Y-85739286D01*
X149396428Y-85996429D02*
X149396428Y-85396429D01*
X149053571Y-85996429D01*
X149053571Y-85396429D01*
X148767857Y-85996429D02*
X148767857Y-85396429D01*
X148625000Y-85396429D01*
X148539285Y-85425000D01*
X148482143Y-85482143D01*
X148453571Y-85539286D01*
X148425000Y-85653571D01*
X148425000Y-85739286D01*
X148453571Y-85853571D01*
X148482143Y-85910714D01*
X148539285Y-85967857D01*
X148625000Y-85996429D01*
X148767857Y-85996429D01*
X150239286Y-81322857D02*
X149782143Y-81322857D01*
X150010714Y-81551429D02*
X150010714Y-81094286D01*
X149296429Y-81237143D02*
X149210715Y-81265714D01*
X149182143Y-81294286D01*
X149153572Y-81351429D01*
X149153572Y-81437143D01*
X149182143Y-81494286D01*
X149210715Y-81522857D01*
X149267857Y-81551429D01*
X149496429Y-81551429D01*
X149496429Y-80951429D01*
X149296429Y-80951429D01*
X149239286Y-80980000D01*
X149210715Y-81008571D01*
X149182143Y-81065714D01*
X149182143Y-81122857D01*
X149210715Y-81180000D01*
X149239286Y-81208571D01*
X149296429Y-81237143D01*
X149496429Y-81237143D01*
X148925000Y-81380000D02*
X148639286Y-81380000D01*
X148982143Y-81551429D02*
X148782143Y-80951429D01*
X148582143Y-81551429D01*
X148467857Y-80951429D02*
X148125000Y-80951429D01*
X148296429Y-81551429D02*
X148296429Y-80951429D01*
D11*
G36*
X186675082Y-104635256D02*
X186647432Y-104579799D01*
X186596520Y-104530852D01*
X186577662Y-104517371D01*
X186552985Y-104502686D01*
X186526184Y-104493158D01*
X186490413Y-104487707D01*
X186438831Y-104485253D01*
X186370733Y-104484714D01*
X186277412Y-104487148D01*
X186207343Y-104495606D01*
X186155069Y-104511826D01*
X186115131Y-104537546D01*
X186082071Y-104574503D01*
X186080114Y-104577218D01*
X186060092Y-104613640D01*
X186050185Y-104657498D01*
X186047743Y-104713276D01*
X186047743Y-104803952D01*
X185959717Y-104803990D01*
X185910692Y-104804834D01*
X185881935Y-104809976D01*
X185864689Y-104823413D01*
X185850192Y-104849142D01*
X185847231Y-104855321D01*
X185833352Y-104884236D01*
X185824586Y-104906624D01*
X185823829Y-104923271D01*
X185833977Y-104934964D01*
X185857927Y-104942490D01*
X185898574Y-104946634D01*
X185958814Y-104948185D01*
X186041545Y-104947929D01*
X186149661Y-104946651D01*
X186182000Y-104946252D01*
X186293476Y-104944815D01*
X186366397Y-104943528D01*
X186366397Y-104804029D01*
X186304501Y-104803245D01*
X186264003Y-104799760D01*
X186237292Y-104791876D01*
X186216756Y-104777895D01*
X186206740Y-104768403D01*
X186177433Y-104729596D01*
X186175048Y-104695237D01*
X186199250Y-104659784D01*
X186200143Y-104658886D01*
X186218847Y-104644461D01*
X186244268Y-104635687D01*
X186283416Y-104631261D01*
X186343303Y-104629882D01*
X186356570Y-104629857D01*
X186439099Y-104633188D01*
X186496309Y-104644031D01*
X186531234Y-104663660D01*
X186546906Y-104693350D01*
X186548486Y-104710509D01*
X186541074Y-104751234D01*
X186516670Y-104779168D01*
X186472020Y-104795983D01*
X186403870Y-104803350D01*
X186366397Y-104804029D01*
X186366397Y-104943528D01*
X186379755Y-104943292D01*
X186444667Y-104941323D01*
X186492042Y-104938550D01*
X186525710Y-104934612D01*
X186549502Y-104929151D01*
X186567247Y-104921808D01*
X186582776Y-104912223D01*
X186588619Y-104908113D01*
X186643815Y-104853595D01*
X186675110Y-104784664D01*
X186683835Y-104704928D01*
X186675082Y-104635256D01*
X186675082Y-104635256D01*
G37*
X186675082Y-104635256D02*
X186647432Y-104579799D01*
X186596520Y-104530852D01*
X186577662Y-104517371D01*
X186552985Y-104502686D01*
X186526184Y-104493158D01*
X186490413Y-104487707D01*
X186438831Y-104485253D01*
X186370733Y-104484714D01*
X186277412Y-104487148D01*
X186207343Y-104495606D01*
X186155069Y-104511826D01*
X186115131Y-104537546D01*
X186082071Y-104574503D01*
X186080114Y-104577218D01*
X186060092Y-104613640D01*
X186050185Y-104657498D01*
X186047743Y-104713276D01*
X186047743Y-104803952D01*
X185959717Y-104803990D01*
X185910692Y-104804834D01*
X185881935Y-104809976D01*
X185864689Y-104823413D01*
X185850192Y-104849142D01*
X185847231Y-104855321D01*
X185833352Y-104884236D01*
X185824586Y-104906624D01*
X185823829Y-104923271D01*
X185833977Y-104934964D01*
X185857927Y-104942490D01*
X185898574Y-104946634D01*
X185958814Y-104948185D01*
X186041545Y-104947929D01*
X186149661Y-104946651D01*
X186182000Y-104946252D01*
X186293476Y-104944815D01*
X186366397Y-104943528D01*
X186366397Y-104804029D01*
X186304501Y-104803245D01*
X186264003Y-104799760D01*
X186237292Y-104791876D01*
X186216756Y-104777895D01*
X186206740Y-104768403D01*
X186177433Y-104729596D01*
X186175048Y-104695237D01*
X186199250Y-104659784D01*
X186200143Y-104658886D01*
X186218847Y-104644461D01*
X186244268Y-104635687D01*
X186283416Y-104631261D01*
X186343303Y-104629882D01*
X186356570Y-104629857D01*
X186439099Y-104633188D01*
X186496309Y-104644031D01*
X186531234Y-104663660D01*
X186546906Y-104693350D01*
X186548486Y-104710509D01*
X186541074Y-104751234D01*
X186516670Y-104779168D01*
X186472020Y-104795983D01*
X186403870Y-104803350D01*
X186366397Y-104804029D01*
X186366397Y-104943528D01*
X186379755Y-104943292D01*
X186444667Y-104941323D01*
X186492042Y-104938550D01*
X186525710Y-104934612D01*
X186549502Y-104929151D01*
X186567247Y-104921808D01*
X186582776Y-104912223D01*
X186588619Y-104908113D01*
X186643815Y-104853595D01*
X186675110Y-104784664D01*
X186683835Y-104704928D01*
X186675082Y-104635256D01*
G36*
X186667220Y-103518907D02*
X186640277Y-103472328D01*
X186613534Y-103439943D01*
X186585516Y-103416258D01*
X186551252Y-103399941D01*
X186505773Y-103389661D01*
X186444108Y-103384086D01*
X186361289Y-103381884D01*
X186301754Y-103381629D01*
X186082609Y-103381629D01*
X186054956Y-103443314D01*
X186027303Y-103505000D01*
X186267330Y-103512257D01*
X186356972Y-103515256D01*
X186422038Y-103518402D01*
X186466974Y-103522299D01*
X186496230Y-103527553D01*
X186514252Y-103534769D01*
X186525489Y-103544550D01*
X186527921Y-103547688D01*
X186546917Y-103595239D01*
X186539400Y-103643303D01*
X186519457Y-103671914D01*
X186505325Y-103683553D01*
X186486780Y-103691609D01*
X186458666Y-103696729D01*
X186415827Y-103699559D01*
X186353105Y-103700744D01*
X186287739Y-103700943D01*
X186205732Y-103700982D01*
X186147684Y-103702386D01*
X186108535Y-103707086D01*
X186083220Y-103717013D01*
X186066677Y-103734097D01*
X186053844Y-103760268D01*
X186040509Y-103795225D01*
X186025993Y-103833404D01*
X186283611Y-103828859D01*
X186376481Y-103827029D01*
X186445111Y-103824888D01*
X186494289Y-103821819D01*
X186528802Y-103817206D01*
X186553438Y-103810432D01*
X186572984Y-103800881D01*
X186590230Y-103789366D01*
X186645320Y-103733810D01*
X186677178Y-103666020D01*
X186684809Y-103592287D01*
X186667220Y-103518907D01*
X186667220Y-103518907D01*
G37*
X186667220Y-103518907D02*
X186640277Y-103472328D01*
X186613534Y-103439943D01*
X186585516Y-103416258D01*
X186551252Y-103399941D01*
X186505773Y-103389661D01*
X186444108Y-103384086D01*
X186361289Y-103381884D01*
X186301754Y-103381629D01*
X186082609Y-103381629D01*
X186054956Y-103443314D01*
X186027303Y-103505000D01*
X186267330Y-103512257D01*
X186356972Y-103515256D01*
X186422038Y-103518402D01*
X186466974Y-103522299D01*
X186496230Y-103527553D01*
X186514252Y-103534769D01*
X186525489Y-103544550D01*
X186527921Y-103547688D01*
X186546917Y-103595239D01*
X186539400Y-103643303D01*
X186519457Y-103671914D01*
X186505325Y-103683553D01*
X186486780Y-103691609D01*
X186458666Y-103696729D01*
X186415827Y-103699559D01*
X186353105Y-103700744D01*
X186287739Y-103700943D01*
X186205732Y-103700982D01*
X186147684Y-103702386D01*
X186108535Y-103707086D01*
X186083220Y-103717013D01*
X186066677Y-103734097D01*
X186053844Y-103760268D01*
X186040509Y-103795225D01*
X186025993Y-103833404D01*
X186283611Y-103828859D01*
X186376481Y-103827029D01*
X186445111Y-103824888D01*
X186494289Y-103821819D01*
X186528802Y-103817206D01*
X186553438Y-103810432D01*
X186572984Y-103800881D01*
X186590230Y-103789366D01*
X186645320Y-103733810D01*
X186677178Y-103666020D01*
X186684809Y-103592287D01*
X186667220Y-103518907D01*
G36*
X186673038Y-105193885D02*
X186637267Y-105125855D01*
X186579699Y-105075649D01*
X186542688Y-105057815D01*
X186487118Y-105043937D01*
X186416904Y-105036833D01*
X186340273Y-105036160D01*
X186265448Y-105041573D01*
X186200658Y-105052730D01*
X186154127Y-105069286D01*
X186146113Y-105074374D01*
X186086293Y-105134645D01*
X186050465Y-105206231D01*
X186039980Y-105283908D01*
X186056190Y-105362452D01*
X186065908Y-105384311D01*
X186095857Y-105426878D01*
X186135567Y-105464237D01*
X186140603Y-105467768D01*
X186164876Y-105482119D01*
X186190822Y-105491606D01*
X186224978Y-105497210D01*
X186273881Y-105499914D01*
X186344065Y-105500701D01*
X186359800Y-105500714D01*
X186364808Y-105500678D01*
X186364808Y-105355571D01*
X186298570Y-105354727D01*
X186254614Y-105351404D01*
X186226221Y-105344417D01*
X186206675Y-105332584D01*
X186200143Y-105326543D01*
X186175320Y-105291814D01*
X186176452Y-105258097D01*
X186197984Y-105224005D01*
X186220971Y-105203671D01*
X186254522Y-105191629D01*
X186307431Y-105184866D01*
X186313601Y-105184402D01*
X186409487Y-105183248D01*
X186480701Y-105195312D01*
X186526806Y-105220430D01*
X186547365Y-105258440D01*
X186548486Y-105272008D01*
X186542848Y-105307636D01*
X186523314Y-105332006D01*
X186485958Y-105346907D01*
X186426850Y-105354125D01*
X186364808Y-105355571D01*
X186364808Y-105500678D01*
X186434587Y-105500174D01*
X186486841Y-105497904D01*
X186523051Y-105492932D01*
X186549701Y-105484287D01*
X186573278Y-105470995D01*
X186577662Y-105468057D01*
X186636751Y-105418687D01*
X186671053Y-105364891D01*
X186684669Y-105299398D01*
X186685335Y-105277158D01*
X186673038Y-105193885D01*
X186673038Y-105193885D01*
G37*
X186673038Y-105193885D02*
X186637267Y-105125855D01*
X186579699Y-105075649D01*
X186542688Y-105057815D01*
X186487118Y-105043937D01*
X186416904Y-105036833D01*
X186340273Y-105036160D01*
X186265448Y-105041573D01*
X186200658Y-105052730D01*
X186154127Y-105069286D01*
X186146113Y-105074374D01*
X186086293Y-105134645D01*
X186050465Y-105206231D01*
X186039980Y-105283908D01*
X186056190Y-105362452D01*
X186065908Y-105384311D01*
X186095857Y-105426878D01*
X186135567Y-105464237D01*
X186140603Y-105467768D01*
X186164876Y-105482119D01*
X186190822Y-105491606D01*
X186224978Y-105497210D01*
X186273881Y-105499914D01*
X186344065Y-105500701D01*
X186359800Y-105500714D01*
X186364808Y-105500678D01*
X186364808Y-105355571D01*
X186298570Y-105354727D01*
X186254614Y-105351404D01*
X186226221Y-105344417D01*
X186206675Y-105332584D01*
X186200143Y-105326543D01*
X186175320Y-105291814D01*
X186176452Y-105258097D01*
X186197984Y-105224005D01*
X186220971Y-105203671D01*
X186254522Y-105191629D01*
X186307431Y-105184866D01*
X186313601Y-105184402D01*
X186409487Y-105183248D01*
X186480701Y-105195312D01*
X186526806Y-105220430D01*
X186547365Y-105258440D01*
X186548486Y-105272008D01*
X186542848Y-105307636D01*
X186523314Y-105332006D01*
X186485958Y-105346907D01*
X186426850Y-105354125D01*
X186364808Y-105355571D01*
X186364808Y-105500678D01*
X186434587Y-105500174D01*
X186486841Y-105497904D01*
X186523051Y-105492932D01*
X186549701Y-105484287D01*
X186573278Y-105470995D01*
X186577662Y-105468057D01*
X186636751Y-105418687D01*
X186671053Y-105364891D01*
X186684669Y-105299398D01*
X186685335Y-105277158D01*
X186673038Y-105193885D01*
G36*
X186663761Y-104066697D02*
X186625265Y-104009473D01*
X186569665Y-103965251D01*
X186498914Y-103938833D01*
X186446838Y-103933490D01*
X186425107Y-103934097D01*
X186408469Y-103939178D01*
X186393563Y-103953145D01*
X186377027Y-103980411D01*
X186355502Y-104025388D01*
X186325626Y-104092489D01*
X186325476Y-104092829D01*
X186297187Y-104154593D01*
X186272067Y-104205241D01*
X186252821Y-104239596D01*
X186242152Y-104252482D01*
X186242066Y-104252486D01*
X186218834Y-104241128D01*
X186193226Y-104214569D01*
X186174779Y-104184077D01*
X186171114Y-104168630D01*
X186183788Y-104126485D01*
X186215529Y-104090192D01*
X186250428Y-104072483D01*
X186276155Y-104055448D01*
X186305454Y-104022078D01*
X186330765Y-103982851D01*
X186344529Y-103948244D01*
X186345286Y-103941007D01*
X186332840Y-103932861D01*
X186301028Y-103932370D01*
X186258134Y-103938357D01*
X186212442Y-103949643D01*
X186172239Y-103965050D01*
X186170678Y-103965829D01*
X186105938Y-104012196D01*
X186061903Y-104072289D01*
X186040289Y-104140535D01*
X186042815Y-104211362D01*
X186071196Y-104279196D01*
X186073192Y-104282212D01*
X186121552Y-104335573D01*
X186184648Y-104370660D01*
X186267613Y-104390078D01*
X186290922Y-104392684D01*
X186400945Y-104397299D01*
X186452252Y-104391767D01*
X186452252Y-104252486D01*
X186420247Y-104250676D01*
X186410907Y-104240778D01*
X186417895Y-104216102D01*
X186434413Y-104177205D01*
X186455119Y-104133725D01*
X186455667Y-104132644D01*
X186475051Y-104095791D01*
X186487987Y-104081000D01*
X186501549Y-104084647D01*
X186519368Y-104100005D01*
X186545155Y-104139077D01*
X186547050Y-104181154D01*
X186528283Y-104218897D01*
X186492085Y-104244966D01*
X186452252Y-104252486D01*
X186452252Y-104391767D01*
X186488973Y-104387806D01*
X186558788Y-104363450D01*
X186607698Y-104329544D01*
X186657122Y-104268347D01*
X186681641Y-104200937D01*
X186683203Y-104132120D01*
X186663761Y-104066697D01*
X186663761Y-104066697D01*
G37*
X186663761Y-104066697D02*
X186625265Y-104009473D01*
X186569665Y-103965251D01*
X186498914Y-103938833D01*
X186446838Y-103933490D01*
X186425107Y-103934097D01*
X186408469Y-103939178D01*
X186393563Y-103953145D01*
X186377027Y-103980411D01*
X186355502Y-104025388D01*
X186325626Y-104092489D01*
X186325476Y-104092829D01*
X186297187Y-104154593D01*
X186272067Y-104205241D01*
X186252821Y-104239596D01*
X186242152Y-104252482D01*
X186242066Y-104252486D01*
X186218834Y-104241128D01*
X186193226Y-104214569D01*
X186174779Y-104184077D01*
X186171114Y-104168630D01*
X186183788Y-104126485D01*
X186215529Y-104090192D01*
X186250428Y-104072483D01*
X186276155Y-104055448D01*
X186305454Y-104022078D01*
X186330765Y-103982851D01*
X186344529Y-103948244D01*
X186345286Y-103941007D01*
X186332840Y-103932861D01*
X186301028Y-103932370D01*
X186258134Y-103938357D01*
X186212442Y-103949643D01*
X186172239Y-103965050D01*
X186170678Y-103965829D01*
X186105938Y-104012196D01*
X186061903Y-104072289D01*
X186040289Y-104140535D01*
X186042815Y-104211362D01*
X186071196Y-104279196D01*
X186073192Y-104282212D01*
X186121552Y-104335573D01*
X186184648Y-104370660D01*
X186267613Y-104390078D01*
X186290922Y-104392684D01*
X186400945Y-104397299D01*
X186452252Y-104391767D01*
X186452252Y-104252486D01*
X186420247Y-104250676D01*
X186410907Y-104240778D01*
X186417895Y-104216102D01*
X186434413Y-104177205D01*
X186455119Y-104133725D01*
X186455667Y-104132644D01*
X186475051Y-104095791D01*
X186487987Y-104081000D01*
X186501549Y-104084647D01*
X186519368Y-104100005D01*
X186545155Y-104139077D01*
X186547050Y-104181154D01*
X186528283Y-104218897D01*
X186492085Y-104244966D01*
X186452252Y-104252486D01*
X186452252Y-104391767D01*
X186488973Y-104387806D01*
X186558788Y-104363450D01*
X186607698Y-104329544D01*
X186657122Y-104268347D01*
X186681641Y-104200937D01*
X186683203Y-104132120D01*
X186663761Y-104066697D01*
G36*
X186743711Y-102859114D02*
X186684387Y-102854861D01*
X186649428Y-102849975D01*
X186634180Y-102843205D01*
X186633985Y-102833298D01*
X186635805Y-102830086D01*
X186648985Y-102787356D01*
X186648215Y-102731773D01*
X186634667Y-102675263D01*
X186617139Y-102639918D01*
X186589139Y-102603679D01*
X186557451Y-102577187D01*
X186517187Y-102559001D01*
X186463457Y-102547678D01*
X186391374Y-102541778D01*
X186296049Y-102539857D01*
X186277763Y-102539823D01*
X186072354Y-102539800D01*
X186056420Y-102585509D01*
X186045580Y-102617973D01*
X186040532Y-102635785D01*
X186040486Y-102636309D01*
X186054172Y-102638063D01*
X186091924Y-102639556D01*
X186148776Y-102640674D01*
X186219766Y-102641303D01*
X186262927Y-102641400D01*
X186348027Y-102641602D01*
X186409019Y-102642642D01*
X186450823Y-102645169D01*
X186478358Y-102649836D01*
X186496544Y-102657293D01*
X186510302Y-102668189D01*
X186516927Y-102674993D01*
X186543625Y-102721728D01*
X186545625Y-102772728D01*
X186523045Y-102818999D01*
X186514893Y-102827556D01*
X186499564Y-102840107D01*
X186481382Y-102848812D01*
X186455091Y-102854369D01*
X186415438Y-102857474D01*
X186357168Y-102858824D01*
X186276827Y-102859114D01*
X186072354Y-102859114D01*
X186056420Y-102904823D01*
X186045580Y-102937287D01*
X186040532Y-102955099D01*
X186040486Y-102955623D01*
X186054377Y-102956963D01*
X186093561Y-102958172D01*
X186154300Y-102959199D01*
X186232859Y-102959998D01*
X186325502Y-102960519D01*
X186428491Y-102960714D01*
X186825658Y-102960714D01*
X186845556Y-102913543D01*
X186865453Y-102866371D01*
X186743711Y-102859114D01*
X186743711Y-102859114D01*
G37*
X186743711Y-102859114D02*
X186684387Y-102854861D01*
X186649428Y-102849975D01*
X186634180Y-102843205D01*
X186633985Y-102833298D01*
X186635805Y-102830086D01*
X186648985Y-102787356D01*
X186648215Y-102731773D01*
X186634667Y-102675263D01*
X186617139Y-102639918D01*
X186589139Y-102603679D01*
X186557451Y-102577187D01*
X186517187Y-102559001D01*
X186463457Y-102547678D01*
X186391374Y-102541778D01*
X186296049Y-102539857D01*
X186277763Y-102539823D01*
X186072354Y-102539800D01*
X186056420Y-102585509D01*
X186045580Y-102617973D01*
X186040532Y-102635785D01*
X186040486Y-102636309D01*
X186054172Y-102638063D01*
X186091924Y-102639556D01*
X186148776Y-102640674D01*
X186219766Y-102641303D01*
X186262927Y-102641400D01*
X186348027Y-102641602D01*
X186409019Y-102642642D01*
X186450823Y-102645169D01*
X186478358Y-102649836D01*
X186496544Y-102657293D01*
X186510302Y-102668189D01*
X186516927Y-102674993D01*
X186543625Y-102721728D01*
X186545625Y-102772728D01*
X186523045Y-102818999D01*
X186514893Y-102827556D01*
X186499564Y-102840107D01*
X186481382Y-102848812D01*
X186455091Y-102854369D01*
X186415438Y-102857474D01*
X186357168Y-102858824D01*
X186276827Y-102859114D01*
X186072354Y-102859114D01*
X186056420Y-102904823D01*
X186045580Y-102937287D01*
X186040532Y-102955099D01*
X186040486Y-102955623D01*
X186054377Y-102956963D01*
X186093561Y-102958172D01*
X186154300Y-102959199D01*
X186232859Y-102959998D01*
X186325502Y-102960519D01*
X186428491Y-102960714D01*
X186825658Y-102960714D01*
X186845556Y-102913543D01*
X186865453Y-102866371D01*
X186743711Y-102859114D01*
G36*
X186644032Y-102195256D02*
X186622913Y-102138384D01*
X186622507Y-102137733D01*
X186596620Y-102102560D01*
X186566367Y-102076593D01*
X186526942Y-102058330D01*
X186473538Y-102046268D01*
X186401349Y-102038904D01*
X186305568Y-102034736D01*
X186291922Y-102034371D01*
X186086158Y-102029124D01*
X186063322Y-102073284D01*
X186047890Y-102105237D01*
X186040577Y-102124530D01*
X186040486Y-102125422D01*
X186053978Y-102128761D01*
X186090374Y-102131413D01*
X186143548Y-102133044D01*
X186186607Y-102133400D01*
X186256359Y-102133408D01*
X186300163Y-102136597D01*
X186321056Y-102147712D01*
X186322075Y-102171499D01*
X186306259Y-102212704D01*
X186277185Y-102274914D01*
X186253037Y-102320659D01*
X186232087Y-102344187D01*
X186209253Y-102351104D01*
X186208123Y-102351114D01*
X186168788Y-102339701D01*
X186147538Y-102305908D01*
X186144461Y-102254191D01*
X186144994Y-102216939D01*
X186134265Y-102197297D01*
X186108495Y-102185048D01*
X186075663Y-102177998D01*
X186057034Y-102188158D01*
X186054368Y-102191983D01*
X186043660Y-102227999D01*
X186042144Y-102278434D01*
X186049241Y-102330374D01*
X186062212Y-102367178D01*
X186105415Y-102418062D01*
X186165554Y-102446986D01*
X186212538Y-102452714D01*
X186254918Y-102448343D01*
X186289512Y-102432525D01*
X186320237Y-102401203D01*
X186351010Y-102350322D01*
X186385748Y-102275824D01*
X186387712Y-102271286D01*
X186418713Y-102204179D01*
X186444138Y-102162768D01*
X186466986Y-102145019D01*
X186490255Y-102148893D01*
X186516944Y-102172357D01*
X186523086Y-102179373D01*
X186546900Y-102226370D01*
X186545897Y-102275067D01*
X186522549Y-102317478D01*
X186479325Y-102345616D01*
X186470840Y-102348231D01*
X186429692Y-102373692D01*
X186409872Y-102405999D01*
X186390230Y-102452714D01*
X186441050Y-102452714D01*
X186514918Y-102438504D01*
X186582673Y-102396325D01*
X186605339Y-102374376D01*
X186634431Y-102324483D01*
X186647600Y-102261033D01*
X186644032Y-102195256D01*
X186644032Y-102195256D01*
G37*
X186644032Y-102195256D02*
X186622913Y-102138384D01*
X186622507Y-102137733D01*
X186596620Y-102102560D01*
X186566367Y-102076593D01*
X186526942Y-102058330D01*
X186473538Y-102046268D01*
X186401349Y-102038904D01*
X186305568Y-102034736D01*
X186291922Y-102034371D01*
X186086158Y-102029124D01*
X186063322Y-102073284D01*
X186047890Y-102105237D01*
X186040577Y-102124530D01*
X186040486Y-102125422D01*
X186053978Y-102128761D01*
X186090374Y-102131413D01*
X186143548Y-102133044D01*
X186186607Y-102133400D01*
X186256359Y-102133408D01*
X186300163Y-102136597D01*
X186321056Y-102147712D01*
X186322075Y-102171499D01*
X186306259Y-102212704D01*
X186277185Y-102274914D01*
X186253037Y-102320659D01*
X186232087Y-102344187D01*
X186209253Y-102351104D01*
X186208123Y-102351114D01*
X186168788Y-102339701D01*
X186147538Y-102305908D01*
X186144461Y-102254191D01*
X186144994Y-102216939D01*
X186134265Y-102197297D01*
X186108495Y-102185048D01*
X186075663Y-102177998D01*
X186057034Y-102188158D01*
X186054368Y-102191983D01*
X186043660Y-102227999D01*
X186042144Y-102278434D01*
X186049241Y-102330374D01*
X186062212Y-102367178D01*
X186105415Y-102418062D01*
X186165554Y-102446986D01*
X186212538Y-102452714D01*
X186254918Y-102448343D01*
X186289512Y-102432525D01*
X186320237Y-102401203D01*
X186351010Y-102350322D01*
X186385748Y-102275824D01*
X186387712Y-102271286D01*
X186418713Y-102204179D01*
X186444138Y-102162768D01*
X186466986Y-102145019D01*
X186490255Y-102148893D01*
X186516944Y-102172357D01*
X186523086Y-102179373D01*
X186546900Y-102226370D01*
X186545897Y-102275067D01*
X186522549Y-102317478D01*
X186479325Y-102345616D01*
X186470840Y-102348231D01*
X186429692Y-102373692D01*
X186409872Y-102405999D01*
X186390230Y-102452714D01*
X186441050Y-102452714D01*
X186514918Y-102438504D01*
X186582673Y-102396325D01*
X186605339Y-102374376D01*
X186634431Y-102324483D01*
X186647600Y-102261033D01*
X186644032Y-102195256D01*
G36*
X186645245Y-101705074D02*
X186620916Y-101639142D01*
X186577883Y-101585727D01*
X186547591Y-101564836D01*
X186492006Y-101542061D01*
X186451814Y-101542534D01*
X186424783Y-101566438D01*
X186420187Y-101575283D01*
X186405856Y-101613470D01*
X186409528Y-101632972D01*
X186433593Y-101639578D01*
X186446886Y-101639914D01*
X186495790Y-101652008D01*
X186530001Y-101683529D01*
X186546524Y-101727341D01*
X186542366Y-101776305D01*
X186520773Y-101816106D01*
X186508456Y-101829550D01*
X186493513Y-101839079D01*
X186470925Y-101845515D01*
X186435672Y-101849683D01*
X186382734Y-101852403D01*
X186307093Y-101854498D01*
X186283143Y-101855040D01*
X186201210Y-101857019D01*
X186143545Y-101859269D01*
X186105392Y-101862643D01*
X186081996Y-101867994D01*
X186068602Y-101876176D01*
X186060455Y-101888041D01*
X186056856Y-101895638D01*
X186044548Y-101927898D01*
X186040486Y-101946889D01*
X186054052Y-101953164D01*
X186095066Y-101956994D01*
X186164001Y-101958400D01*
X186261331Y-101957402D01*
X186276343Y-101957092D01*
X186365141Y-101954899D01*
X186429981Y-101952307D01*
X186475933Y-101948618D01*
X186508065Y-101943136D01*
X186531447Y-101935165D01*
X186551148Y-101924007D01*
X186559590Y-101918170D01*
X186596943Y-101884704D01*
X186625997Y-101847273D01*
X186628533Y-101842691D01*
X186648557Y-101775574D01*
X186645245Y-101705074D01*
X186645245Y-101705074D01*
G37*
X186645245Y-101705074D02*
X186620916Y-101639142D01*
X186577883Y-101585727D01*
X186547591Y-101564836D01*
X186492006Y-101542061D01*
X186451814Y-101542534D01*
X186424783Y-101566438D01*
X186420187Y-101575283D01*
X186405856Y-101613470D01*
X186409528Y-101632972D01*
X186433593Y-101639578D01*
X186446886Y-101639914D01*
X186495790Y-101652008D01*
X186530001Y-101683529D01*
X186546524Y-101727341D01*
X186542366Y-101776305D01*
X186520773Y-101816106D01*
X186508456Y-101829550D01*
X186493513Y-101839079D01*
X186470925Y-101845515D01*
X186435672Y-101849683D01*
X186382734Y-101852403D01*
X186307093Y-101854498D01*
X186283143Y-101855040D01*
X186201210Y-101857019D01*
X186143545Y-101859269D01*
X186105392Y-101862643D01*
X186081996Y-101867994D01*
X186068602Y-101876176D01*
X186060455Y-101888041D01*
X186056856Y-101895638D01*
X186044548Y-101927898D01*
X186040486Y-101946889D01*
X186054052Y-101953164D01*
X186095066Y-101956994D01*
X186164001Y-101958400D01*
X186261331Y-101957402D01*
X186276343Y-101957092D01*
X186365141Y-101954899D01*
X186429981Y-101952307D01*
X186475933Y-101948618D01*
X186508065Y-101943136D01*
X186531447Y-101935165D01*
X186551148Y-101924007D01*
X186559590Y-101918170D01*
X186596943Y-101884704D01*
X186625997Y-101847273D01*
X186628533Y-101842691D01*
X186648557Y-101775574D01*
X186645245Y-101705074D01*
G36*
X186529642Y-101044883D02*
X186421163Y-101045067D01*
X186337713Y-101045781D01*
X186275296Y-101047325D01*
X186229915Y-101049999D01*
X186197571Y-101054106D01*
X186174267Y-101059945D01*
X186156005Y-101067818D01*
X186145582Y-101073779D01*
X186089055Y-101123145D01*
X186053623Y-101185736D01*
X186040910Y-101254987D01*
X186052537Y-101324332D01*
X186073432Y-101365625D01*
X186109578Y-101408975D01*
X186153724Y-101438519D01*
X186211538Y-101456345D01*
X186288687Y-101464537D01*
X186345286Y-101465698D01*
X186349353Y-101465542D01*
X186349353Y-101364143D01*
X186284450Y-101363524D01*
X186241486Y-101360686D01*
X186213378Y-101354160D01*
X186193047Y-101342477D01*
X186177712Y-101328517D01*
X186148110Y-101281635D01*
X186145581Y-101231299D01*
X186170295Y-101183724D01*
X186173644Y-101180021D01*
X186191065Y-101164217D01*
X186211791Y-101154307D01*
X186242638Y-101148942D01*
X186290423Y-101146772D01*
X186343252Y-101146429D01*
X186409619Y-101147173D01*
X186453894Y-101150252D01*
X186482991Y-101156939D01*
X186503827Y-101168504D01*
X186514893Y-101177987D01*
X186542802Y-101222040D01*
X186546157Y-101272776D01*
X186524841Y-101321204D01*
X186516927Y-101330550D01*
X186499353Y-101346460D01*
X186478413Y-101356390D01*
X186447218Y-101361722D01*
X186398878Y-101363837D01*
X186349353Y-101364143D01*
X186349353Y-101465542D01*
X186436432Y-101462190D01*
X186504914Y-101450274D01*
X186556400Y-101427865D01*
X186596557Y-101392876D01*
X186617139Y-101365625D01*
X186639375Y-101316093D01*
X186649696Y-101258684D01*
X186646933Y-101205318D01*
X186635788Y-101175457D01*
X186632617Y-101163739D01*
X186644443Y-101155963D01*
X186676134Y-101150535D01*
X186724407Y-101146429D01*
X186778171Y-101141933D01*
X186810518Y-101135687D01*
X186829015Y-101124324D01*
X186841230Y-101104472D01*
X186846638Y-101092000D01*
X186866399Y-101044829D01*
X186529642Y-101044883D01*
X186529642Y-101044883D01*
G37*
X186529642Y-101044883D02*
X186421163Y-101045067D01*
X186337713Y-101045781D01*
X186275296Y-101047325D01*
X186229915Y-101049999D01*
X186197571Y-101054106D01*
X186174267Y-101059945D01*
X186156005Y-101067818D01*
X186145582Y-101073779D01*
X186089055Y-101123145D01*
X186053623Y-101185736D01*
X186040910Y-101254987D01*
X186052537Y-101324332D01*
X186073432Y-101365625D01*
X186109578Y-101408975D01*
X186153724Y-101438519D01*
X186211538Y-101456345D01*
X186288687Y-101464537D01*
X186345286Y-101465698D01*
X186349353Y-101465542D01*
X186349353Y-101364143D01*
X186284450Y-101363524D01*
X186241486Y-101360686D01*
X186213378Y-101354160D01*
X186193047Y-101342477D01*
X186177712Y-101328517D01*
X186148110Y-101281635D01*
X186145581Y-101231299D01*
X186170295Y-101183724D01*
X186173644Y-101180021D01*
X186191065Y-101164217D01*
X186211791Y-101154307D01*
X186242638Y-101148942D01*
X186290423Y-101146772D01*
X186343252Y-101146429D01*
X186409619Y-101147173D01*
X186453894Y-101150252D01*
X186482991Y-101156939D01*
X186503827Y-101168504D01*
X186514893Y-101177987D01*
X186542802Y-101222040D01*
X186546157Y-101272776D01*
X186524841Y-101321204D01*
X186516927Y-101330550D01*
X186499353Y-101346460D01*
X186478413Y-101356390D01*
X186447218Y-101361722D01*
X186398878Y-101363837D01*
X186349353Y-101364143D01*
X186349353Y-101465542D01*
X186436432Y-101462190D01*
X186504914Y-101450274D01*
X186556400Y-101427865D01*
X186596557Y-101392876D01*
X186617139Y-101365625D01*
X186639375Y-101316093D01*
X186649696Y-101258684D01*
X186646933Y-101205318D01*
X186635788Y-101175457D01*
X186632617Y-101163739D01*
X186644443Y-101155963D01*
X186676134Y-101150535D01*
X186724407Y-101146429D01*
X186778171Y-101141933D01*
X186810518Y-101135687D01*
X186829015Y-101124324D01*
X186841230Y-101104472D01*
X186846638Y-101092000D01*
X186866399Y-101044829D01*
X186529642Y-101044883D01*
G36*
X186636337Y-100455167D02*
X186598150Y-100452952D01*
X186540114Y-100451216D01*
X186466820Y-100450101D01*
X186389945Y-100449743D01*
X186129804Y-100449743D01*
X186083873Y-100495674D01*
X186055571Y-100527325D01*
X186044107Y-100555110D01*
X186044832Y-100593085D01*
X186046679Y-100608160D01*
X186052052Y-100655274D01*
X186055131Y-100694244D01*
X186055415Y-100703743D01*
X186053555Y-100735767D01*
X186048886Y-100781568D01*
X186046679Y-100799326D01*
X186043265Y-100842943D01*
X186050680Y-100872255D01*
X186073573Y-100901320D01*
X186083873Y-100911812D01*
X186129804Y-100957743D01*
X186616398Y-100957743D01*
X186633242Y-100920774D01*
X186645718Y-100888941D01*
X186650086Y-100870317D01*
X186636282Y-100865542D01*
X186597714Y-100861079D01*
X186538644Y-100857225D01*
X186463337Y-100854278D01*
X186399714Y-100852857D01*
X186149343Y-100848886D01*
X186144444Y-100814241D01*
X186147869Y-100782732D01*
X186158959Y-100767292D01*
X186179692Y-100762977D01*
X186223855Y-100759292D01*
X186285854Y-100756531D01*
X186360091Y-100754988D01*
X186398294Y-100754765D01*
X186618217Y-100754543D01*
X186634151Y-100708834D01*
X186644985Y-100676482D01*
X186650038Y-100658885D01*
X186650086Y-100658377D01*
X186636352Y-100656612D01*
X186598270Y-100654671D01*
X186540518Y-100652718D01*
X186467773Y-100650916D01*
X186399714Y-100649657D01*
X186149343Y-100645686D01*
X186149343Y-100558600D01*
X186377760Y-100554604D01*
X186606178Y-100550608D01*
X186628132Y-100508153D01*
X186643207Y-100476808D01*
X186650049Y-100458256D01*
X186650086Y-100457721D01*
X186636337Y-100455167D01*
X186636337Y-100455167D01*
G37*
X186636337Y-100455167D02*
X186598150Y-100452952D01*
X186540114Y-100451216D01*
X186466820Y-100450101D01*
X186389945Y-100449743D01*
X186129804Y-100449743D01*
X186083873Y-100495674D01*
X186055571Y-100527325D01*
X186044107Y-100555110D01*
X186044832Y-100593085D01*
X186046679Y-100608160D01*
X186052052Y-100655274D01*
X186055131Y-100694244D01*
X186055415Y-100703743D01*
X186053555Y-100735767D01*
X186048886Y-100781568D01*
X186046679Y-100799326D01*
X186043265Y-100842943D01*
X186050680Y-100872255D01*
X186073573Y-100901320D01*
X186083873Y-100911812D01*
X186129804Y-100957743D01*
X186616398Y-100957743D01*
X186633242Y-100920774D01*
X186645718Y-100888941D01*
X186650086Y-100870317D01*
X186636282Y-100865542D01*
X186597714Y-100861079D01*
X186538644Y-100857225D01*
X186463337Y-100854278D01*
X186399714Y-100852857D01*
X186149343Y-100848886D01*
X186144444Y-100814241D01*
X186147869Y-100782732D01*
X186158959Y-100767292D01*
X186179692Y-100762977D01*
X186223855Y-100759292D01*
X186285854Y-100756531D01*
X186360091Y-100754988D01*
X186398294Y-100754765D01*
X186618217Y-100754543D01*
X186634151Y-100708834D01*
X186644985Y-100676482D01*
X186650038Y-100658885D01*
X186650086Y-100658377D01*
X186636352Y-100656612D01*
X186598270Y-100654671D01*
X186540518Y-100652718D01*
X186467773Y-100650916D01*
X186399714Y-100649657D01*
X186149343Y-100645686D01*
X186149343Y-100558600D01*
X186377760Y-100554604D01*
X186606178Y-100550608D01*
X186628132Y-100508153D01*
X186643207Y-100476808D01*
X186650049Y-100458256D01*
X186650086Y-100457721D01*
X186636337Y-100455167D01*
G36*
X186638665Y-100090124D02*
X186619656Y-100048333D01*
X186596622Y-100015531D01*
X186570867Y-99991497D01*
X186537642Y-99974903D01*
X186492200Y-99964423D01*
X186429793Y-99958729D01*
X186345673Y-99956493D01*
X186290279Y-99956257D01*
X186074174Y-99956257D01*
X186057330Y-99993226D01*
X186045019Y-100022344D01*
X186040486Y-100036769D01*
X186053975Y-100039528D01*
X186090347Y-100041718D01*
X186143458Y-100043058D01*
X186185628Y-100043343D01*
X186246553Y-100044566D01*
X186294885Y-100047864D01*
X186324482Y-100052679D01*
X186330771Y-100056504D01*
X186324348Y-100082217D01*
X186307875Y-100122582D01*
X186285542Y-100169321D01*
X186261543Y-100214155D01*
X186240070Y-100248807D01*
X186225315Y-100264998D01*
X186225155Y-100265062D01*
X186197848Y-100263670D01*
X186171781Y-100251182D01*
X186150608Y-100229257D01*
X186143526Y-100197257D01*
X186144351Y-100169908D01*
X186144958Y-100131174D01*
X186135884Y-100110842D01*
X186111908Y-100098631D01*
X186107387Y-100097091D01*
X186073194Y-100091797D01*
X186052432Y-100105953D01*
X186042538Y-100142852D01*
X186040708Y-100182711D01*
X186054273Y-100254438D01*
X186073645Y-100291568D01*
X186119155Y-100337424D01*
X186175017Y-100361744D01*
X186234043Y-100363927D01*
X186289047Y-100343371D01*
X186323514Y-100312451D01*
X186342811Y-100281580D01*
X186367241Y-100233058D01*
X186392015Y-100176515D01*
X186395801Y-100167090D01*
X186423209Y-100104981D01*
X186447366Y-100069178D01*
X186471381Y-100057663D01*
X186498365Y-100068420D01*
X186519457Y-100086886D01*
X186545428Y-100130531D01*
X186547376Y-100178554D01*
X186527363Y-100222594D01*
X186487449Y-100254291D01*
X186477152Y-100258451D01*
X186439276Y-100282673D01*
X186411158Y-100318035D01*
X186388083Y-100362657D01*
X186453515Y-100362657D01*
X186493494Y-100360031D01*
X186525003Y-100348770D01*
X186558622Y-100323801D01*
X186584516Y-100299831D01*
X186621183Y-100262559D01*
X186640879Y-100233599D01*
X186648780Y-100202495D01*
X186650086Y-100167287D01*
X186638665Y-100090124D01*
X186638665Y-100090124D01*
G37*
X186638665Y-100090124D02*
X186619656Y-100048333D01*
X186596622Y-100015531D01*
X186570867Y-99991497D01*
X186537642Y-99974903D01*
X186492200Y-99964423D01*
X186429793Y-99958729D01*
X186345673Y-99956493D01*
X186290279Y-99956257D01*
X186074174Y-99956257D01*
X186057330Y-99993226D01*
X186045019Y-100022344D01*
X186040486Y-100036769D01*
X186053975Y-100039528D01*
X186090347Y-100041718D01*
X186143458Y-100043058D01*
X186185628Y-100043343D01*
X186246553Y-100044566D01*
X186294885Y-100047864D01*
X186324482Y-100052679D01*
X186330771Y-100056504D01*
X186324348Y-100082217D01*
X186307875Y-100122582D01*
X186285542Y-100169321D01*
X186261543Y-100214155D01*
X186240070Y-100248807D01*
X186225315Y-100264998D01*
X186225155Y-100265062D01*
X186197848Y-100263670D01*
X186171781Y-100251182D01*
X186150608Y-100229257D01*
X186143526Y-100197257D01*
X186144351Y-100169908D01*
X186144958Y-100131174D01*
X186135884Y-100110842D01*
X186111908Y-100098631D01*
X186107387Y-100097091D01*
X186073194Y-100091797D01*
X186052432Y-100105953D01*
X186042538Y-100142852D01*
X186040708Y-100182711D01*
X186054273Y-100254438D01*
X186073645Y-100291568D01*
X186119155Y-100337424D01*
X186175017Y-100361744D01*
X186234043Y-100363927D01*
X186289047Y-100343371D01*
X186323514Y-100312451D01*
X186342811Y-100281580D01*
X186367241Y-100233058D01*
X186392015Y-100176515D01*
X186395801Y-100167090D01*
X186423209Y-100104981D01*
X186447366Y-100069178D01*
X186471381Y-100057663D01*
X186498365Y-100068420D01*
X186519457Y-100086886D01*
X186545428Y-100130531D01*
X186547376Y-100178554D01*
X186527363Y-100222594D01*
X186487449Y-100254291D01*
X186477152Y-100258451D01*
X186439276Y-100282673D01*
X186411158Y-100318035D01*
X186388083Y-100362657D01*
X186453515Y-100362657D01*
X186493494Y-100360031D01*
X186525003Y-100348770D01*
X186558622Y-100323801D01*
X186584516Y-100299831D01*
X186621183Y-100262559D01*
X186640879Y-100233599D01*
X186648780Y-100202495D01*
X186650086Y-100167287D01*
X186638665Y-100090124D01*
G36*
X186636248Y-99582400D02*
X186628666Y-99565052D01*
X186595872Y-99523644D01*
X186548453Y-99488235D01*
X186497849Y-99466336D01*
X186472902Y-99462771D01*
X186438073Y-99474721D01*
X186419643Y-99500933D01*
X186408484Y-99529036D01*
X186406428Y-99541905D01*
X186421351Y-99548171D01*
X186453825Y-99560544D01*
X186468498Y-99565972D01*
X186519256Y-99596410D01*
X186544573Y-99640480D01*
X186543794Y-99696990D01*
X186542797Y-99701175D01*
X186528493Y-99731345D01*
X186500607Y-99753524D01*
X186455713Y-99768673D01*
X186390385Y-99777750D01*
X186301196Y-99781714D01*
X186253739Y-99782086D01*
X186178929Y-99782270D01*
X186127931Y-99783478D01*
X186095529Y-99786691D01*
X186076505Y-99792891D01*
X186065644Y-99803060D01*
X186057728Y-99818181D01*
X186057330Y-99819054D01*
X186045019Y-99848172D01*
X186040486Y-99862597D01*
X186054191Y-99864814D01*
X186092075Y-99866711D01*
X186149285Y-99868153D01*
X186220973Y-99869002D01*
X186273435Y-99869171D01*
X186374953Y-99868308D01*
X186451968Y-99864930D01*
X186508977Y-99857858D01*
X186550474Y-99845912D01*
X186580957Y-99827910D01*
X186604920Y-99802673D01*
X186621645Y-99777753D01*
X186643903Y-99717829D01*
X186648924Y-99648089D01*
X186636248Y-99582400D01*
X186636248Y-99582400D01*
G37*
X186636248Y-99582400D02*
X186628666Y-99565052D01*
X186595872Y-99523644D01*
X186548453Y-99488235D01*
X186497849Y-99466336D01*
X186472902Y-99462771D01*
X186438073Y-99474721D01*
X186419643Y-99500933D01*
X186408484Y-99529036D01*
X186406428Y-99541905D01*
X186421351Y-99548171D01*
X186453825Y-99560544D01*
X186468498Y-99565972D01*
X186519256Y-99596410D01*
X186544573Y-99640480D01*
X186543794Y-99696990D01*
X186542797Y-99701175D01*
X186528493Y-99731345D01*
X186500607Y-99753524D01*
X186455713Y-99768673D01*
X186390385Y-99777750D01*
X186301196Y-99781714D01*
X186253739Y-99782086D01*
X186178929Y-99782270D01*
X186127931Y-99783478D01*
X186095529Y-99786691D01*
X186076505Y-99792891D01*
X186065644Y-99803060D01*
X186057728Y-99818181D01*
X186057330Y-99819054D01*
X186045019Y-99848172D01*
X186040486Y-99862597D01*
X186054191Y-99864814D01*
X186092075Y-99866711D01*
X186149285Y-99868153D01*
X186220973Y-99869002D01*
X186273435Y-99869171D01*
X186374953Y-99868308D01*
X186451968Y-99864930D01*
X186508977Y-99857858D01*
X186550474Y-99845912D01*
X186580957Y-99827910D01*
X186604920Y-99802673D01*
X186621645Y-99777753D01*
X186643903Y-99717829D01*
X186648924Y-99648089D01*
X186636248Y-99582400D01*
G36*
X186628034Y-99081405D02*
X186590503Y-99023979D01*
X186556904Y-98996281D01*
X186495936Y-98974338D01*
X186447692Y-98972595D01*
X186383184Y-98976543D01*
X186318066Y-99125314D01*
X186284798Y-99197651D01*
X186258036Y-99244916D01*
X186234856Y-99269493D01*
X186212333Y-99273763D01*
X186187545Y-99260111D01*
X186171114Y-99245057D01*
X186144765Y-99201254D01*
X186142919Y-99153611D01*
X186163454Y-99109855D01*
X186204248Y-99077711D01*
X186218653Y-99071962D01*
X186263644Y-99044424D01*
X186282818Y-99012742D01*
X186299221Y-98969286D01*
X186237034Y-98969286D01*
X186194717Y-98973128D01*
X186159031Y-98988177D01*
X186118057Y-99019720D01*
X186112733Y-99024408D01*
X186076280Y-99059494D01*
X186056717Y-99089653D01*
X186047717Y-99127385D01*
X186044770Y-99158665D01*
X186044035Y-99214615D01*
X186053340Y-99254445D01*
X186067154Y-99279292D01*
X186097533Y-99318344D01*
X186130387Y-99345375D01*
X186171706Y-99362483D01*
X186227479Y-99371762D01*
X186303695Y-99375307D01*
X186342378Y-99375590D01*
X186388753Y-99374628D01*
X186388753Y-99286993D01*
X186363874Y-99285977D01*
X186359800Y-99283444D01*
X186365335Y-99266726D01*
X186379983Y-99230751D01*
X186400810Y-99182669D01*
X186405286Y-99172614D01*
X186436186Y-99111848D01*
X186463343Y-99078368D01*
X186488780Y-99071010D01*
X186514519Y-99088609D01*
X186525891Y-99103144D01*
X186548636Y-99155590D01*
X186544878Y-99204678D01*
X186517116Y-99245773D01*
X186467848Y-99274242D01*
X186428743Y-99283369D01*
X186388753Y-99286993D01*
X186388753Y-99374628D01*
X186432751Y-99373715D01*
X186499616Y-99366804D01*
X186548305Y-99353116D01*
X186584151Y-99330904D01*
X186612487Y-99298426D01*
X186621645Y-99284267D01*
X186645493Y-99219947D01*
X186646994Y-99149527D01*
X186628034Y-99081405D01*
X186628034Y-99081405D01*
G37*
X186628034Y-99081405D02*
X186590503Y-99023979D01*
X186556904Y-98996281D01*
X186495936Y-98974338D01*
X186447692Y-98972595D01*
X186383184Y-98976543D01*
X186318066Y-99125314D01*
X186284798Y-99197651D01*
X186258036Y-99244916D01*
X186234856Y-99269493D01*
X186212333Y-99273763D01*
X186187545Y-99260111D01*
X186171114Y-99245057D01*
X186144765Y-99201254D01*
X186142919Y-99153611D01*
X186163454Y-99109855D01*
X186204248Y-99077711D01*
X186218653Y-99071962D01*
X186263644Y-99044424D01*
X186282818Y-99012742D01*
X186299221Y-98969286D01*
X186237034Y-98969286D01*
X186194717Y-98973128D01*
X186159031Y-98988177D01*
X186118057Y-99019720D01*
X186112733Y-99024408D01*
X186076280Y-99059494D01*
X186056717Y-99089653D01*
X186047717Y-99127385D01*
X186044770Y-99158665D01*
X186044035Y-99214615D01*
X186053340Y-99254445D01*
X186067154Y-99279292D01*
X186097533Y-99318344D01*
X186130387Y-99345375D01*
X186171706Y-99362483D01*
X186227479Y-99371762D01*
X186303695Y-99375307D01*
X186342378Y-99375590D01*
X186388753Y-99374628D01*
X186388753Y-99286993D01*
X186363874Y-99285977D01*
X186359800Y-99283444D01*
X186365335Y-99266726D01*
X186379983Y-99230751D01*
X186400810Y-99182669D01*
X186405286Y-99172614D01*
X186436186Y-99111848D01*
X186463343Y-99078368D01*
X186488780Y-99071010D01*
X186514519Y-99088609D01*
X186525891Y-99103144D01*
X186548636Y-99155590D01*
X186544878Y-99204678D01*
X186517116Y-99245773D01*
X186467848Y-99274242D01*
X186428743Y-99283369D01*
X186388753Y-99286993D01*
X186388753Y-99374628D01*
X186432751Y-99373715D01*
X186499616Y-99366804D01*
X186548305Y-99353116D01*
X186584151Y-99330904D01*
X186612487Y-99298426D01*
X186621645Y-99284267D01*
X186645493Y-99219947D01*
X186646994Y-99149527D01*
X186628034Y-99081405D01*
G36*
X191352652Y-102131090D02*
X191352222Y-102052546D01*
X191351058Y-101995702D01*
X191348793Y-101956895D01*
X191345060Y-101932462D01*
X191339494Y-101918738D01*
X191331727Y-101912060D01*
X191321395Y-101908764D01*
X191320057Y-101908444D01*
X191295921Y-101903438D01*
X191248299Y-101894171D01*
X191182259Y-101881608D01*
X191102872Y-101866713D01*
X191015204Y-101850449D01*
X191012125Y-101849881D01*
X190926211Y-101833590D01*
X190850304Y-101818348D01*
X190788955Y-101805139D01*
X190746718Y-101794946D01*
X190728145Y-101788752D01*
X190727816Y-101788457D01*
X190718747Y-101770212D01*
X190703633Y-101732595D01*
X190685738Y-101683729D01*
X190685642Y-101683457D01*
X190662507Y-101621907D01*
X190633035Y-101549343D01*
X190603403Y-101480943D01*
X190601938Y-101477706D01*
X190551374Y-101366298D01*
X190719840Y-101119601D01*
X190771197Y-101043923D01*
X190817111Y-100975369D01*
X190854970Y-100917912D01*
X190882163Y-100875524D01*
X190896079Y-100852175D01*
X190897111Y-100849958D01*
X190892516Y-100832990D01*
X190870345Y-100801299D01*
X190829553Y-100753648D01*
X190769095Y-100688802D01*
X190704773Y-100622603D01*
X190641388Y-100558786D01*
X190583549Y-100501671D01*
X190534825Y-100454695D01*
X190498790Y-100421297D01*
X190479016Y-100404915D01*
X190477998Y-100404306D01*
X190464428Y-100402495D01*
X190442267Y-100409317D01*
X190408522Y-100426460D01*
X190360200Y-100455607D01*
X190294308Y-100498445D01*
X190209483Y-100555552D01*
X190134823Y-100606234D01*
X190067860Y-100651539D01*
X190012484Y-100688850D01*
X189972580Y-100715548D01*
X189952038Y-100729015D01*
X189950644Y-100729863D01*
X189930962Y-100728219D01*
X189892707Y-100715755D01*
X189843111Y-100694952D01*
X189827272Y-100687538D01*
X189756710Y-100655186D01*
X189676647Y-100620672D01*
X189607371Y-100592635D01*
X189555955Y-100572432D01*
X189516881Y-100556385D01*
X189496459Y-100547112D01*
X189494886Y-100545959D01*
X189492279Y-100528904D01*
X189485137Y-100488702D01*
X189474477Y-100430698D01*
X189461315Y-100360237D01*
X189446667Y-100282665D01*
X189431551Y-100203328D01*
X189416982Y-100127569D01*
X189403978Y-100060736D01*
X189393555Y-100008172D01*
X189386730Y-99975224D01*
X189384801Y-99967143D01*
X189380038Y-99958795D01*
X189369282Y-99952494D01*
X189348902Y-99947955D01*
X189315266Y-99944896D01*
X189264745Y-99943033D01*
X189193708Y-99942082D01*
X189098524Y-99941760D01*
X189059508Y-99941743D01*
X188742201Y-99941743D01*
X188727161Y-100017943D01*
X188719005Y-100060337D01*
X188707101Y-100123600D01*
X188692884Y-100200038D01*
X188677790Y-100281957D01*
X188673645Y-100304600D01*
X188658947Y-100380194D01*
X188644495Y-100446047D01*
X188631625Y-100496634D01*
X188621678Y-100526426D01*
X188618713Y-100531388D01*
X188597717Y-100543574D01*
X188557033Y-100561047D01*
X188504678Y-100580423D01*
X188493400Y-100584266D01*
X188423477Y-100609661D01*
X188344582Y-100641183D01*
X188273734Y-100672031D01*
X188273405Y-100672183D01*
X188162267Y-100723553D01*
X187913747Y-100554601D01*
X187665228Y-100385648D01*
X187447942Y-100602571D01*
X187383274Y-100668181D01*
X187326267Y-100728021D01*
X187279967Y-100778733D01*
X187247416Y-100816954D01*
X187231657Y-100839325D01*
X187230657Y-100842534D01*
X187238531Y-100861374D01*
X187260422Y-100899820D01*
X187293733Y-100953670D01*
X187335869Y-101018724D01*
X187383057Y-101089060D01*
X187431190Y-101160445D01*
X187473072Y-101224092D01*
X187506129Y-101275959D01*
X187527782Y-101312005D01*
X187535457Y-101328133D01*
X187528963Y-101347811D01*
X187511850Y-101385125D01*
X187487674Y-101432379D01*
X187484987Y-101437388D01*
X187453073Y-101501023D01*
X187437421Y-101544659D01*
X187437255Y-101571798D01*
X187451796Y-101585943D01*
X187452000Y-101586025D01*
X187469221Y-101593095D01*
X187510101Y-101609958D01*
X187571475Y-101635305D01*
X187650181Y-101667829D01*
X187743053Y-101706222D01*
X187846928Y-101749178D01*
X187947498Y-101790778D01*
X188058484Y-101836496D01*
X188161297Y-101878474D01*
X188252785Y-101915452D01*
X188329799Y-101946173D01*
X188389185Y-101969378D01*
X188427791Y-101983810D01*
X188442200Y-101988257D01*
X188458728Y-101977104D01*
X188485070Y-101947931D01*
X188514113Y-101909029D01*
X188605961Y-101798243D01*
X188711241Y-101711649D01*
X188827734Y-101650284D01*
X188953224Y-101615185D01*
X189085493Y-101607392D01*
X189146543Y-101613057D01*
X189273205Y-101643922D01*
X189385059Y-101697080D01*
X189480999Y-101769233D01*
X189559924Y-101857083D01*
X189620730Y-101957335D01*
X189662313Y-102066690D01*
X189683572Y-102181853D01*
X189683401Y-102299525D01*
X189660699Y-102416410D01*
X189614362Y-102529211D01*
X189543287Y-102634631D01*
X189503089Y-102678632D01*
X189399871Y-102763021D01*
X189287075Y-102821778D01*
X189167990Y-102855296D01*
X189045905Y-102863965D01*
X188924107Y-102848177D01*
X188805884Y-102808322D01*
X188694525Y-102744793D01*
X188593316Y-102657979D01*
X188514113Y-102560971D01*
X188483838Y-102520563D01*
X188457781Y-102492018D01*
X188442175Y-102481743D01*
X188425157Y-102487123D01*
X188384500Y-102502425D01*
X188323358Y-102526388D01*
X188244881Y-102557756D01*
X188152220Y-102595268D01*
X188048528Y-102637667D01*
X187947474Y-102679337D01*
X187836393Y-102725310D01*
X187733459Y-102767893D01*
X187641835Y-102805779D01*
X187564684Y-102837660D01*
X187505169Y-102862229D01*
X187466456Y-102878180D01*
X187452000Y-102884090D01*
X187437315Y-102898052D01*
X187437358Y-102925060D01*
X187452901Y-102968587D01*
X187484716Y-103032110D01*
X187484987Y-103032612D01*
X187509677Y-103080440D01*
X187527662Y-103119103D01*
X187535386Y-103140905D01*
X187535457Y-103141867D01*
X187527622Y-103158279D01*
X187505835Y-103194513D01*
X187472672Y-103246526D01*
X187430709Y-103310275D01*
X187383057Y-103380940D01*
X187334809Y-103452884D01*
X187292849Y-103517726D01*
X187259773Y-103571265D01*
X187238179Y-103609303D01*
X187230657Y-103627467D01*
X187240543Y-103644192D01*
X187268174Y-103677820D01*
X187310505Y-103724990D01*
X187364495Y-103782342D01*
X187427101Y-103846516D01*
X187448017Y-103867503D01*
X187665377Y-104084501D01*
X187907780Y-103919332D01*
X187982219Y-103869136D01*
X188049028Y-103825081D01*
X188104335Y-103789638D01*
X188144271Y-103765281D01*
X188164964Y-103754478D01*
X188166437Y-103754162D01*
X188185942Y-103759857D01*
X188225178Y-103775174D01*
X188277570Y-103797463D01*
X188312645Y-103813107D01*
X188379799Y-103842359D01*
X188447642Y-103869906D01*
X188504966Y-103891263D01*
X188522428Y-103897065D01*
X188569062Y-103913548D01*
X188605095Y-103929660D01*
X188618713Y-103938510D01*
X188627048Y-103958040D01*
X188638863Y-104000666D01*
X188652819Y-104060855D01*
X188667578Y-104133078D01*
X188673645Y-104165400D01*
X188688727Y-104247478D01*
X188703331Y-104326205D01*
X188716020Y-104393891D01*
X188725358Y-104442840D01*
X188727161Y-104452057D01*
X188742201Y-104528257D01*
X189059508Y-104528257D01*
X189163846Y-104528086D01*
X189242787Y-104527384D01*
X189299962Y-104525866D01*
X189339001Y-104523251D01*
X189363535Y-104519254D01*
X189377195Y-104513591D01*
X189383611Y-104505980D01*
X189384801Y-104502857D01*
X189389020Y-104484022D01*
X189397438Y-104442412D01*
X189409039Y-104383370D01*
X189422805Y-104312243D01*
X189437720Y-104234375D01*
X189452768Y-104155113D01*
X189466931Y-104079802D01*
X189479194Y-104013787D01*
X189488539Y-103962413D01*
X189493950Y-103931025D01*
X189494886Y-103924041D01*
X189507404Y-103917715D01*
X189540754Y-103903710D01*
X189588623Y-103884645D01*
X189607371Y-103877366D01*
X189679805Y-103848004D01*
X189759830Y-103813429D01*
X189827272Y-103782463D01*
X189878841Y-103759677D01*
X189921215Y-103744518D01*
X189947166Y-103739458D01*
X189950644Y-103740264D01*
X189967064Y-103750959D01*
X190003583Y-103775380D01*
X190056313Y-103810905D01*
X190121365Y-103854913D01*
X190194849Y-103904783D01*
X190209355Y-103914644D01*
X190295296Y-103972508D01*
X190360739Y-104015044D01*
X190408696Y-104043946D01*
X190442180Y-104060910D01*
X190464205Y-104067633D01*
X190477783Y-104065810D01*
X190477869Y-104065764D01*
X190495703Y-104051414D01*
X190530183Y-104019677D01*
X190577732Y-103973990D01*
X190634778Y-103917796D01*
X190697745Y-103854532D01*
X190704773Y-103847398D01*
X190781980Y-103767670D01*
X190838670Y-103706143D01*
X190875890Y-103661579D01*
X190894685Y-103632743D01*
X190897111Y-103620042D01*
X190886529Y-103601506D01*
X190862084Y-103563039D01*
X190826388Y-103508614D01*
X190782053Y-103442202D01*
X190731689Y-103367775D01*
X190719840Y-103350399D01*
X190551374Y-103103703D01*
X190601938Y-102992294D01*
X190631405Y-102924543D01*
X190661041Y-102851817D01*
X190684670Y-102789297D01*
X190685642Y-102786543D01*
X190703543Y-102737640D01*
X190718680Y-102699943D01*
X190727790Y-102681575D01*
X190727816Y-102681544D01*
X190744283Y-102675715D01*
X190784781Y-102665808D01*
X190844758Y-102652805D01*
X190919660Y-102637691D01*
X191004936Y-102621448D01*
X191012125Y-102620119D01*
X191099986Y-102603825D01*
X191179740Y-102588867D01*
X191246319Y-102576209D01*
X191294653Y-102566814D01*
X191319675Y-102561646D01*
X191320057Y-102561556D01*
X191330701Y-102558411D01*
X191338738Y-102552296D01*
X191344533Y-102539547D01*
X191348453Y-102516500D01*
X191350865Y-102479491D01*
X191352135Y-102424856D01*
X191352629Y-102348933D01*
X191352714Y-102248056D01*
X191352714Y-102235000D01*
X191352652Y-102131090D01*
X191352652Y-102131090D01*
G37*
X191352652Y-102131090D02*
X191352222Y-102052546D01*
X191351058Y-101995702D01*
X191348793Y-101956895D01*
X191345060Y-101932462D01*
X191339494Y-101918738D01*
X191331727Y-101912060D01*
X191321395Y-101908764D01*
X191320057Y-101908444D01*
X191295921Y-101903438D01*
X191248299Y-101894171D01*
X191182259Y-101881608D01*
X191102872Y-101866713D01*
X191015204Y-101850449D01*
X191012125Y-101849881D01*
X190926211Y-101833590D01*
X190850304Y-101818348D01*
X190788955Y-101805139D01*
X190746718Y-101794946D01*
X190728145Y-101788752D01*
X190727816Y-101788457D01*
X190718747Y-101770212D01*
X190703633Y-101732595D01*
X190685738Y-101683729D01*
X190685642Y-101683457D01*
X190662507Y-101621907D01*
X190633035Y-101549343D01*
X190603403Y-101480943D01*
X190601938Y-101477706D01*
X190551374Y-101366298D01*
X190719840Y-101119601D01*
X190771197Y-101043923D01*
X190817111Y-100975369D01*
X190854970Y-100917912D01*
X190882163Y-100875524D01*
X190896079Y-100852175D01*
X190897111Y-100849958D01*
X190892516Y-100832990D01*
X190870345Y-100801299D01*
X190829553Y-100753648D01*
X190769095Y-100688802D01*
X190704773Y-100622603D01*
X190641388Y-100558786D01*
X190583549Y-100501671D01*
X190534825Y-100454695D01*
X190498790Y-100421297D01*
X190479016Y-100404915D01*
X190477998Y-100404306D01*
X190464428Y-100402495D01*
X190442267Y-100409317D01*
X190408522Y-100426460D01*
X190360200Y-100455607D01*
X190294308Y-100498445D01*
X190209483Y-100555552D01*
X190134823Y-100606234D01*
X190067860Y-100651539D01*
X190012484Y-100688850D01*
X189972580Y-100715548D01*
X189952038Y-100729015D01*
X189950644Y-100729863D01*
X189930962Y-100728219D01*
X189892707Y-100715755D01*
X189843111Y-100694952D01*
X189827272Y-100687538D01*
X189756710Y-100655186D01*
X189676647Y-100620672D01*
X189607371Y-100592635D01*
X189555955Y-100572432D01*
X189516881Y-100556385D01*
X189496459Y-100547112D01*
X189494886Y-100545959D01*
X189492279Y-100528904D01*
X189485137Y-100488702D01*
X189474477Y-100430698D01*
X189461315Y-100360237D01*
X189446667Y-100282665D01*
X189431551Y-100203328D01*
X189416982Y-100127569D01*
X189403978Y-100060736D01*
X189393555Y-100008172D01*
X189386730Y-99975224D01*
X189384801Y-99967143D01*
X189380038Y-99958795D01*
X189369282Y-99952494D01*
X189348902Y-99947955D01*
X189315266Y-99944896D01*
X189264745Y-99943033D01*
X189193708Y-99942082D01*
X189098524Y-99941760D01*
X189059508Y-99941743D01*
X188742201Y-99941743D01*
X188727161Y-100017943D01*
X188719005Y-100060337D01*
X188707101Y-100123600D01*
X188692884Y-100200038D01*
X188677790Y-100281957D01*
X188673645Y-100304600D01*
X188658947Y-100380194D01*
X188644495Y-100446047D01*
X188631625Y-100496634D01*
X188621678Y-100526426D01*
X188618713Y-100531388D01*
X188597717Y-100543574D01*
X188557033Y-100561047D01*
X188504678Y-100580423D01*
X188493400Y-100584266D01*
X188423477Y-100609661D01*
X188344582Y-100641183D01*
X188273734Y-100672031D01*
X188273405Y-100672183D01*
X188162267Y-100723553D01*
X187913747Y-100554601D01*
X187665228Y-100385648D01*
X187447942Y-100602571D01*
X187383274Y-100668181D01*
X187326267Y-100728021D01*
X187279967Y-100778733D01*
X187247416Y-100816954D01*
X187231657Y-100839325D01*
X187230657Y-100842534D01*
X187238531Y-100861374D01*
X187260422Y-100899820D01*
X187293733Y-100953670D01*
X187335869Y-101018724D01*
X187383057Y-101089060D01*
X187431190Y-101160445D01*
X187473072Y-101224092D01*
X187506129Y-101275959D01*
X187527782Y-101312005D01*
X187535457Y-101328133D01*
X187528963Y-101347811D01*
X187511850Y-101385125D01*
X187487674Y-101432379D01*
X187484987Y-101437388D01*
X187453073Y-101501023D01*
X187437421Y-101544659D01*
X187437255Y-101571798D01*
X187451796Y-101585943D01*
X187452000Y-101586025D01*
X187469221Y-101593095D01*
X187510101Y-101609958D01*
X187571475Y-101635305D01*
X187650181Y-101667829D01*
X187743053Y-101706222D01*
X187846928Y-101749178D01*
X187947498Y-101790778D01*
X188058484Y-101836496D01*
X188161297Y-101878474D01*
X188252785Y-101915452D01*
X188329799Y-101946173D01*
X188389185Y-101969378D01*
X188427791Y-101983810D01*
X188442200Y-101988257D01*
X188458728Y-101977104D01*
X188485070Y-101947931D01*
X188514113Y-101909029D01*
X188605961Y-101798243D01*
X188711241Y-101711649D01*
X188827734Y-101650284D01*
X188953224Y-101615185D01*
X189085493Y-101607392D01*
X189146543Y-101613057D01*
X189273205Y-101643922D01*
X189385059Y-101697080D01*
X189480999Y-101769233D01*
X189559924Y-101857083D01*
X189620730Y-101957335D01*
X189662313Y-102066690D01*
X189683572Y-102181853D01*
X189683401Y-102299525D01*
X189660699Y-102416410D01*
X189614362Y-102529211D01*
X189543287Y-102634631D01*
X189503089Y-102678632D01*
X189399871Y-102763021D01*
X189287075Y-102821778D01*
X189167990Y-102855296D01*
X189045905Y-102863965D01*
X188924107Y-102848177D01*
X188805884Y-102808322D01*
X188694525Y-102744793D01*
X188593316Y-102657979D01*
X188514113Y-102560971D01*
X188483838Y-102520563D01*
X188457781Y-102492018D01*
X188442175Y-102481743D01*
X188425157Y-102487123D01*
X188384500Y-102502425D01*
X188323358Y-102526388D01*
X188244881Y-102557756D01*
X188152220Y-102595268D01*
X188048528Y-102637667D01*
X187947474Y-102679337D01*
X187836393Y-102725310D01*
X187733459Y-102767893D01*
X187641835Y-102805779D01*
X187564684Y-102837660D01*
X187505169Y-102862229D01*
X187466456Y-102878180D01*
X187452000Y-102884090D01*
X187437315Y-102898052D01*
X187437358Y-102925060D01*
X187452901Y-102968587D01*
X187484716Y-103032110D01*
X187484987Y-103032612D01*
X187509677Y-103080440D01*
X187527662Y-103119103D01*
X187535386Y-103140905D01*
X187535457Y-103141867D01*
X187527622Y-103158279D01*
X187505835Y-103194513D01*
X187472672Y-103246526D01*
X187430709Y-103310275D01*
X187383057Y-103380940D01*
X187334809Y-103452884D01*
X187292849Y-103517726D01*
X187259773Y-103571265D01*
X187238179Y-103609303D01*
X187230657Y-103627467D01*
X187240543Y-103644192D01*
X187268174Y-103677820D01*
X187310505Y-103724990D01*
X187364495Y-103782342D01*
X187427101Y-103846516D01*
X187448017Y-103867503D01*
X187665377Y-104084501D01*
X187907780Y-103919332D01*
X187982219Y-103869136D01*
X188049028Y-103825081D01*
X188104335Y-103789638D01*
X188144271Y-103765281D01*
X188164964Y-103754478D01*
X188166437Y-103754162D01*
X188185942Y-103759857D01*
X188225178Y-103775174D01*
X188277570Y-103797463D01*
X188312645Y-103813107D01*
X188379799Y-103842359D01*
X188447642Y-103869906D01*
X188504966Y-103891263D01*
X188522428Y-103897065D01*
X188569062Y-103913548D01*
X188605095Y-103929660D01*
X188618713Y-103938510D01*
X188627048Y-103958040D01*
X188638863Y-104000666D01*
X188652819Y-104060855D01*
X188667578Y-104133078D01*
X188673645Y-104165400D01*
X188688727Y-104247478D01*
X188703331Y-104326205D01*
X188716020Y-104393891D01*
X188725358Y-104442840D01*
X188727161Y-104452057D01*
X188742201Y-104528257D01*
X189059508Y-104528257D01*
X189163846Y-104528086D01*
X189242787Y-104527384D01*
X189299962Y-104525866D01*
X189339001Y-104523251D01*
X189363535Y-104519254D01*
X189377195Y-104513591D01*
X189383611Y-104505980D01*
X189384801Y-104502857D01*
X189389020Y-104484022D01*
X189397438Y-104442412D01*
X189409039Y-104383370D01*
X189422805Y-104312243D01*
X189437720Y-104234375D01*
X189452768Y-104155113D01*
X189466931Y-104079802D01*
X189479194Y-104013787D01*
X189488539Y-103962413D01*
X189493950Y-103931025D01*
X189494886Y-103924041D01*
X189507404Y-103917715D01*
X189540754Y-103903710D01*
X189588623Y-103884645D01*
X189607371Y-103877366D01*
X189679805Y-103848004D01*
X189759830Y-103813429D01*
X189827272Y-103782463D01*
X189878841Y-103759677D01*
X189921215Y-103744518D01*
X189947166Y-103739458D01*
X189950644Y-103740264D01*
X189967064Y-103750959D01*
X190003583Y-103775380D01*
X190056313Y-103810905D01*
X190121365Y-103854913D01*
X190194849Y-103904783D01*
X190209355Y-103914644D01*
X190295296Y-103972508D01*
X190360739Y-104015044D01*
X190408696Y-104043946D01*
X190442180Y-104060910D01*
X190464205Y-104067633D01*
X190477783Y-104065810D01*
X190477869Y-104065764D01*
X190495703Y-104051414D01*
X190530183Y-104019677D01*
X190577732Y-103973990D01*
X190634778Y-103917796D01*
X190697745Y-103854532D01*
X190704773Y-103847398D01*
X190781980Y-103767670D01*
X190838670Y-103706143D01*
X190875890Y-103661579D01*
X190894685Y-103632743D01*
X190897111Y-103620042D01*
X190886529Y-103601506D01*
X190862084Y-103563039D01*
X190826388Y-103508614D01*
X190782053Y-103442202D01*
X190731689Y-103367775D01*
X190719840Y-103350399D01*
X190551374Y-103103703D01*
X190601938Y-102992294D01*
X190631405Y-102924543D01*
X190661041Y-102851817D01*
X190684670Y-102789297D01*
X190685642Y-102786543D01*
X190703543Y-102737640D01*
X190718680Y-102699943D01*
X190727790Y-102681575D01*
X190727816Y-102681544D01*
X190744283Y-102675715D01*
X190784781Y-102665808D01*
X190844758Y-102652805D01*
X190919660Y-102637691D01*
X191004936Y-102621448D01*
X191012125Y-102620119D01*
X191099986Y-102603825D01*
X191179740Y-102588867D01*
X191246319Y-102576209D01*
X191294653Y-102566814D01*
X191319675Y-102561646D01*
X191320057Y-102561556D01*
X191330701Y-102558411D01*
X191338738Y-102552296D01*
X191344533Y-102539547D01*
X191348453Y-102516500D01*
X191350865Y-102479491D01*
X191352135Y-102424856D01*
X191352629Y-102348933D01*
X191352714Y-102248056D01*
X191352714Y-102235000D01*
X191352652Y-102131090D01*
G36*
X185577178Y-106837178D02*
X185577178Y-110357971D01*
X186444802Y-110357971D01*
X186444802Y-106837178D01*
X185577178Y-106837178D01*
X185577178Y-106837178D01*
G37*
X185577178Y-106837178D02*
X185577178Y-110357971D01*
X186444802Y-110357971D01*
X186444802Y-106837178D01*
X185577178Y-106837178D01*
G36*
X191530152Y-106460570D02*
X191443069Y-106461189D01*
X190984109Y-106912914D01*
X190525148Y-107364639D01*
X190314529Y-107364968D01*
X190103911Y-107365297D01*
X190103911Y-107640390D01*
X190050470Y-107647478D01*
X190026112Y-107650162D01*
X189980241Y-107654687D01*
X189915595Y-107660809D01*
X189834909Y-107668288D01*
X189740919Y-107676881D01*
X189636363Y-107686346D01*
X189523975Y-107696442D01*
X189406493Y-107706926D01*
X189286652Y-107717556D01*
X189167189Y-107728091D01*
X189050841Y-107738287D01*
X188940343Y-107747905D01*
X188838431Y-107756700D01*
X188747842Y-107764432D01*
X188671313Y-107770858D01*
X188611579Y-107775737D01*
X188571376Y-107778825D01*
X188553441Y-107779883D01*
X188553356Y-107779882D01*
X188538965Y-107772173D01*
X188509252Y-107749019D01*
X188463869Y-107710105D01*
X188402471Y-107655116D01*
X188324712Y-107583736D01*
X188230246Y-107495651D01*
X188118728Y-107390546D01*
X187989812Y-107268105D01*
X187953713Y-107233690D01*
X187381584Y-106687863D01*
X187293564Y-106776119D01*
X187371242Y-106847515D01*
X187399314Y-106873634D01*
X187442726Y-106914434D01*
X187498634Y-106967223D01*
X187564192Y-107029309D01*
X187636559Y-107098000D01*
X187712888Y-107170604D01*
X187758476Y-107214040D01*
X187843881Y-107295584D01*
X187912290Y-107361496D01*
X187964947Y-107413456D01*
X188003095Y-107453145D01*
X188027980Y-107482243D01*
X188040844Y-107502431D01*
X188042932Y-107515390D01*
X188035487Y-107522800D01*
X188019754Y-107526342D01*
X187996977Y-107527697D01*
X187990761Y-107527879D01*
X187947939Y-107537297D01*
X187896181Y-107560503D01*
X187843672Y-107592864D01*
X187798597Y-107629748D01*
X187784672Y-107644507D01*
X187735953Y-107720233D01*
X187708694Y-107808692D01*
X187702227Y-107886900D01*
X187714424Y-107975532D01*
X187750187Y-108057388D01*
X187808278Y-108129836D01*
X187822738Y-108143203D01*
X187878267Y-108192082D01*
X187878267Y-109037674D01*
X187702227Y-109037674D01*
X187702227Y-109264010D01*
X187784469Y-109264010D01*
X187840614Y-109266850D01*
X187879584Y-109276393D01*
X187900781Y-109287991D01*
X187915948Y-109296277D01*
X187937938Y-109303373D01*
X187970013Y-109309748D01*
X188015431Y-109315872D01*
X188077452Y-109322216D01*
X188159338Y-109329250D01*
X188220254Y-109334066D01*
X188505657Y-109356161D01*
X187956195Y-109898565D01*
X187856772Y-109996637D01*
X187761185Y-110090784D01*
X187671190Y-110179285D01*
X187588543Y-110260420D01*
X187514999Y-110332469D01*
X187452316Y-110393712D01*
X187402248Y-110442427D01*
X187366552Y-110476896D01*
X187347005Y-110495379D01*
X187316056Y-110525743D01*
X187294470Y-110551071D01*
X187287277Y-110564695D01*
X187295703Y-110582095D01*
X187316755Y-110607460D01*
X187325329Y-110616058D01*
X187363380Y-110652514D01*
X187567342Y-110451802D01*
X187619301Y-110400596D01*
X187686180Y-110334569D01*
X187765050Y-110256618D01*
X187852986Y-110169638D01*
X187947059Y-110076526D01*
X188044342Y-109980179D01*
X188141907Y-109883492D01*
X188211855Y-109814134D01*
X188318450Y-109708703D01*
X188408693Y-109620129D01*
X188483808Y-109547281D01*
X188545014Y-109489023D01*
X188593534Y-109444225D01*
X188618871Y-109422021D01*
X188618871Y-109243724D01*
X188333445Y-109221401D01*
X188249781Y-109214669D01*
X188173273Y-109208157D01*
X188107919Y-109202234D01*
X188057719Y-109197268D01*
X188026671Y-109193629D01*
X188019727Y-109192458D01*
X187991435Y-109185838D01*
X187991435Y-108236364D01*
X188070394Y-108230026D01*
X188163685Y-108210890D01*
X188246209Y-108170846D01*
X188314962Y-108112418D01*
X188366937Y-108038129D01*
X188398137Y-107954748D01*
X188412772Y-107927698D01*
X188444181Y-107914156D01*
X188445566Y-107913872D01*
X188458826Y-107912247D01*
X188472405Y-107914256D01*
X188488819Y-107921858D01*
X188510589Y-107937016D01*
X188540233Y-107961688D01*
X188580268Y-107997836D01*
X188633215Y-108047420D01*
X188701591Y-108112401D01*
X188705995Y-108116599D01*
X188779389Y-108186493D01*
X188857563Y-108260800D01*
X188935136Y-108334414D01*
X189006725Y-108402229D01*
X189066949Y-108459140D01*
X189080413Y-108471832D01*
X189131180Y-108520487D01*
X189174625Y-108563709D01*
X189207759Y-108598395D01*
X189227595Y-108621444D01*
X189231954Y-108629182D01*
X189222830Y-108640722D01*
X189197800Y-108667710D01*
X189158948Y-108708021D01*
X189108357Y-108759529D01*
X189048112Y-108820109D01*
X188980296Y-108887636D01*
X188924435Y-108942826D01*
X188618871Y-109243724D01*
X188618871Y-109422021D01*
X188630589Y-109411751D01*
X188657401Y-109390471D01*
X188675192Y-109379251D01*
X188683430Y-109376754D01*
X188701410Y-109377700D01*
X188742108Y-109380573D01*
X188803181Y-109385187D01*
X188882287Y-109391358D01*
X188977086Y-109398898D01*
X189085233Y-109407621D01*
X189204388Y-109417343D01*
X189332209Y-109427876D01*
X189434365Y-109436365D01*
X190010326Y-109484396D01*
X190010326Y-109360805D01*
X189997896Y-109360273D01*
X189962890Y-109357769D01*
X189907785Y-109353496D01*
X189835057Y-109347653D01*
X189747186Y-109340443D01*
X189646649Y-109332066D01*
X189535923Y-109322723D01*
X189430795Y-109313758D01*
X189311517Y-109303602D01*
X189198920Y-109294142D01*
X189095695Y-109285596D01*
X189004527Y-109278179D01*
X188928105Y-109272108D01*
X188869117Y-109267601D01*
X188830251Y-109264873D01*
X188815156Y-109264116D01*
X188805762Y-109262935D01*
X188802034Y-109258256D01*
X188805529Y-109248276D01*
X188817801Y-109231190D01*
X188840406Y-109205196D01*
X188874900Y-109168490D01*
X188922838Y-109119267D01*
X188985776Y-109055726D01*
X189053032Y-108988305D01*
X189328523Y-108712601D01*
X189330594Y-108714533D01*
X189330594Y-108532290D01*
X189319220Y-108523984D01*
X189292437Y-108500733D01*
X189252708Y-108464865D01*
X189202493Y-108418713D01*
X189144254Y-108364606D01*
X189080453Y-108304874D01*
X189013551Y-108241848D01*
X188946010Y-108177858D01*
X188880290Y-108115236D01*
X188818854Y-108056310D01*
X188764163Y-108003412D01*
X188718678Y-107958872D01*
X188684862Y-107925020D01*
X188665174Y-107904188D01*
X188661163Y-107898506D01*
X188674109Y-107896634D01*
X188709866Y-107892746D01*
X188766196Y-107887057D01*
X188840860Y-107879781D01*
X188931620Y-107871131D01*
X189036238Y-107861322D01*
X189152474Y-107850566D01*
X189278092Y-107839079D01*
X189379382Y-107829907D01*
X189510721Y-107818174D01*
X189634448Y-107807335D01*
X189748319Y-107797570D01*
X189850089Y-107789063D01*
X189937513Y-107781995D01*
X190008347Y-107776549D01*
X190060347Y-107772908D01*
X190091268Y-107771253D01*
X190099297Y-107771442D01*
X190092146Y-107781334D01*
X190069159Y-107806524D01*
X190032561Y-107844810D01*
X189984578Y-107893989D01*
X189927434Y-107951861D01*
X189863353Y-108016222D01*
X189794562Y-108084871D01*
X189723284Y-108155605D01*
X189651745Y-108226222D01*
X189582170Y-108294520D01*
X189516783Y-108358296D01*
X189457809Y-108415350D01*
X189407473Y-108463478D01*
X189368001Y-108500478D01*
X189341617Y-108524148D01*
X189330594Y-108532290D01*
X189330594Y-108714533D01*
X189438705Y-108815409D01*
X189494623Y-108867768D01*
X189557052Y-108926535D01*
X189623557Y-108989385D01*
X189691702Y-109053995D01*
X189759052Y-109118042D01*
X189823172Y-109179203D01*
X189881628Y-109235153D01*
X189931982Y-109283570D01*
X189971802Y-109322130D01*
X189998650Y-109348509D01*
X190010092Y-109360384D01*
X190010326Y-109360805D01*
X190010326Y-109484396D01*
X190154274Y-109496401D01*
X190785842Y-110096938D01*
X191417411Y-110697475D01*
X191505685Y-110697034D01*
X191593960Y-110696592D01*
X191490334Y-110599583D01*
X191432537Y-110545291D01*
X191364632Y-110481192D01*
X191288428Y-110409016D01*
X191205731Y-110330492D01*
X191118347Y-110247349D01*
X191028085Y-110161319D01*
X190936750Y-110074130D01*
X190846151Y-109987513D01*
X190758093Y-109903197D01*
X190674385Y-109822912D01*
X190596833Y-109748387D01*
X190527243Y-109681354D01*
X190467424Y-109623541D01*
X190419182Y-109576679D01*
X190384324Y-109542496D01*
X190364657Y-109522724D01*
X190360884Y-109518390D01*
X190374008Y-109518092D01*
X190407611Y-109519731D01*
X190457120Y-109523023D01*
X190517963Y-109527682D01*
X190542268Y-109529682D01*
X190720049Y-109544577D01*
X190720049Y-109427955D01*
X190691757Y-109421934D01*
X190669382Y-109418863D01*
X190627283Y-109414548D01*
X190570822Y-109409488D01*
X190505365Y-109404181D01*
X190481138Y-109402344D01*
X190411579Y-109396927D01*
X190346982Y-109391459D01*
X190293452Y-109386488D01*
X190257090Y-109382561D01*
X190250491Y-109381675D01*
X190236944Y-109378334D01*
X190221086Y-109371101D01*
X190201139Y-109358440D01*
X190175327Y-109338811D01*
X190141871Y-109310678D01*
X190098993Y-109272502D01*
X190044917Y-109222746D01*
X189977864Y-109159871D01*
X189896057Y-109082341D01*
X189813050Y-109003251D01*
X189730906Y-108924564D01*
X189654831Y-108851112D01*
X189586675Y-108784724D01*
X189528288Y-108727227D01*
X189481519Y-108680451D01*
X189448218Y-108646224D01*
X189430233Y-108626373D01*
X189427558Y-108622140D01*
X189437259Y-108611003D01*
X189462559Y-108584971D01*
X189500918Y-108546570D01*
X189549800Y-108498328D01*
X189606666Y-108442770D01*
X189648094Y-108402592D01*
X189865000Y-108192831D01*
X189865000Y-108811337D01*
X190103911Y-108811337D01*
X190103911Y-108056881D01*
X189997458Y-108056881D01*
X190135346Y-107918565D01*
X190233160Y-107820447D01*
X190233160Y-107629357D01*
X190217730Y-107627529D01*
X190209133Y-107618277D01*
X190205387Y-107595950D01*
X190204511Y-107554895D01*
X190204505Y-107547624D01*
X190204505Y-107465891D01*
X190423828Y-107465891D01*
X190342821Y-107547624D01*
X190293572Y-107593730D01*
X190255841Y-107621306D01*
X190233160Y-107629357D01*
X190233160Y-107820447D01*
X190273234Y-107780248D01*
X190396048Y-107780248D01*
X190452550Y-107779863D01*
X190488495Y-107778100D01*
X190508470Y-107774050D01*
X190517063Y-107766801D01*
X190518861Y-107755870D01*
X190521502Y-107743712D01*
X190532088Y-107734727D01*
X190554619Y-107727826D01*
X190593091Y-107721924D01*
X190651502Y-107715935D01*
X190672896Y-107714013D01*
X190720049Y-107709852D01*
X190720049Y-109427955D01*
X190720049Y-109544577D01*
X190720049Y-109704109D01*
X190833218Y-109704109D01*
X190833218Y-109636314D01*
X190834304Y-109596662D01*
X190839546Y-109575116D01*
X190842666Y-109572480D01*
X190842666Y-109433616D01*
X190835538Y-109426308D01*
X190833338Y-109400993D01*
X190833218Y-109383908D01*
X190833218Y-109326881D01*
X190833218Y-109114221D01*
X190833218Y-107699698D01*
X190882214Y-107747542D01*
X190942676Y-107821850D01*
X190989309Y-107913816D01*
X191022751Y-108024998D01*
X191041247Y-108135471D01*
X191049878Y-108207773D01*
X190958960Y-108207773D01*
X190958960Y-108786188D01*
X191062107Y-108786188D01*
X191053504Y-108871065D01*
X191046244Y-108930368D01*
X191036621Y-108993551D01*
X191029748Y-109031386D01*
X191014593Y-109106832D01*
X190923905Y-109110526D01*
X190833218Y-109114221D01*
X190833218Y-109326881D01*
X190883515Y-109326881D01*
X190915024Y-109328544D01*
X190932537Y-109332697D01*
X190933812Y-109334371D01*
X190925746Y-109352987D01*
X190906180Y-109380183D01*
X190882056Y-109407448D01*
X190860318Y-109426267D01*
X190857492Y-109427943D01*
X190842666Y-109433616D01*
X190842666Y-109572480D01*
X190851919Y-109564662D01*
X190865396Y-109560442D01*
X190900373Y-109543219D01*
X190942421Y-109510138D01*
X190985644Y-109466893D01*
X191024146Y-109419174D01*
X191044199Y-109387830D01*
X191066149Y-109352123D01*
X191084589Y-109333819D01*
X191106332Y-109327388D01*
X191119282Y-109326894D01*
X191122425Y-109326894D01*
X191122425Y-108685594D01*
X191059554Y-108685594D01*
X191059554Y-108308367D01*
X191122425Y-108308367D01*
X191122425Y-108685594D01*
X191122425Y-109326894D01*
X191160148Y-109326881D01*
X191160148Y-109221048D01*
X191158971Y-109172355D01*
X191155835Y-109134405D01*
X191151329Y-109113308D01*
X191149505Y-109111023D01*
X191146705Y-109097641D01*
X191147852Y-109065074D01*
X191152607Y-109018916D01*
X191156997Y-108987376D01*
X191165622Y-108930188D01*
X191173409Y-108877886D01*
X191179153Y-108838582D01*
X191180785Y-108827055D01*
X191190112Y-108796937D01*
X191204728Y-108786188D01*
X191210680Y-108782920D01*
X191215222Y-108771230D01*
X191218530Y-108748288D01*
X191220785Y-108711265D01*
X191222166Y-108657332D01*
X191222850Y-108583660D01*
X191223020Y-108496980D01*
X191222923Y-108404471D01*
X191222470Y-108334094D01*
X191221410Y-108282836D01*
X191219497Y-108247680D01*
X191216481Y-108225611D01*
X191212115Y-108213615D01*
X191206151Y-108208676D01*
X191199216Y-108207773D01*
X191177205Y-108200079D01*
X191164679Y-108174879D01*
X191160212Y-108128991D01*
X191160148Y-108120736D01*
X191152132Y-108043027D01*
X191130064Y-107954767D01*
X191096916Y-107863915D01*
X191055661Y-107778430D01*
X191009269Y-107706274D01*
X191001918Y-107696928D01*
X190978002Y-107666467D01*
X190968424Y-107648428D01*
X190971520Y-107635831D01*
X190984296Y-107622900D01*
X191009322Y-107584707D01*
X191018929Y-107535002D01*
X191013933Y-107481476D01*
X190995149Y-107431822D01*
X190963394Y-107393733D01*
X190959703Y-107390975D01*
X190900425Y-107362474D01*
X190839066Y-107357172D01*
X190780573Y-107374482D01*
X190729896Y-107413820D01*
X190725711Y-107418630D01*
X190705833Y-107446560D01*
X190697079Y-107474898D01*
X190696447Y-107514737D01*
X190697008Y-107524689D01*
X190698438Y-107563668D01*
X190695161Y-107583746D01*
X190685272Y-107591015D01*
X190676039Y-107591760D01*
X190649256Y-107593284D01*
X190608975Y-107597065D01*
X190584876Y-107599782D01*
X190546599Y-107603723D01*
X190527004Y-107602084D01*
X190519842Y-107592579D01*
X190518861Y-107575649D01*
X190522099Y-107565608D01*
X190532580Y-107549410D01*
X190551452Y-107525855D01*
X190579865Y-107493743D01*
X190618965Y-107451872D01*
X190669903Y-107399043D01*
X190733827Y-107334055D01*
X190811886Y-107255709D01*
X190905228Y-107162803D01*
X191015002Y-107054137D01*
X191068048Y-107001769D01*
X191617233Y-106459951D01*
X191530152Y-106460570D01*
X191530152Y-106460570D01*
G37*
X191530152Y-106460570D02*
X191443069Y-106461189D01*
X190984109Y-106912914D01*
X190525148Y-107364639D01*
X190314529Y-107364968D01*
X190103911Y-107365297D01*
X190103911Y-107640390D01*
X190050470Y-107647478D01*
X190026112Y-107650162D01*
X189980241Y-107654687D01*
X189915595Y-107660809D01*
X189834909Y-107668288D01*
X189740919Y-107676881D01*
X189636363Y-107686346D01*
X189523975Y-107696442D01*
X189406493Y-107706926D01*
X189286652Y-107717556D01*
X189167189Y-107728091D01*
X189050841Y-107738287D01*
X188940343Y-107747905D01*
X188838431Y-107756700D01*
X188747842Y-107764432D01*
X188671313Y-107770858D01*
X188611579Y-107775737D01*
X188571376Y-107778825D01*
X188553441Y-107779883D01*
X188553356Y-107779882D01*
X188538965Y-107772173D01*
X188509252Y-107749019D01*
X188463869Y-107710105D01*
X188402471Y-107655116D01*
X188324712Y-107583736D01*
X188230246Y-107495651D01*
X188118728Y-107390546D01*
X187989812Y-107268105D01*
X187953713Y-107233690D01*
X187381584Y-106687863D01*
X187293564Y-106776119D01*
X187371242Y-106847515D01*
X187399314Y-106873634D01*
X187442726Y-106914434D01*
X187498634Y-106967223D01*
X187564192Y-107029309D01*
X187636559Y-107098000D01*
X187712888Y-107170604D01*
X187758476Y-107214040D01*
X187843881Y-107295584D01*
X187912290Y-107361496D01*
X187964947Y-107413456D01*
X188003095Y-107453145D01*
X188027980Y-107482243D01*
X188040844Y-107502431D01*
X188042932Y-107515390D01*
X188035487Y-107522800D01*
X188019754Y-107526342D01*
X187996977Y-107527697D01*
X187990761Y-107527879D01*
X187947939Y-107537297D01*
X187896181Y-107560503D01*
X187843672Y-107592864D01*
X187798597Y-107629748D01*
X187784672Y-107644507D01*
X187735953Y-107720233D01*
X187708694Y-107808692D01*
X187702227Y-107886900D01*
X187714424Y-107975532D01*
X187750187Y-108057388D01*
X187808278Y-108129836D01*
X187822738Y-108143203D01*
X187878267Y-108192082D01*
X187878267Y-109037674D01*
X187702227Y-109037674D01*
X187702227Y-109264010D01*
X187784469Y-109264010D01*
X187840614Y-109266850D01*
X187879584Y-109276393D01*
X187900781Y-109287991D01*
X187915948Y-109296277D01*
X187937938Y-109303373D01*
X187970013Y-109309748D01*
X188015431Y-109315872D01*
X188077452Y-109322216D01*
X188159338Y-109329250D01*
X188220254Y-109334066D01*
X188505657Y-109356161D01*
X187956195Y-109898565D01*
X187856772Y-109996637D01*
X187761185Y-110090784D01*
X187671190Y-110179285D01*
X187588543Y-110260420D01*
X187514999Y-110332469D01*
X187452316Y-110393712D01*
X187402248Y-110442427D01*
X187366552Y-110476896D01*
X187347005Y-110495379D01*
X187316056Y-110525743D01*
X187294470Y-110551071D01*
X187287277Y-110564695D01*
X187295703Y-110582095D01*
X187316755Y-110607460D01*
X187325329Y-110616058D01*
X187363380Y-110652514D01*
X187567342Y-110451802D01*
X187619301Y-110400596D01*
X187686180Y-110334569D01*
X187765050Y-110256618D01*
X187852986Y-110169638D01*
X187947059Y-110076526D01*
X188044342Y-109980179D01*
X188141907Y-109883492D01*
X188211855Y-109814134D01*
X188318450Y-109708703D01*
X188408693Y-109620129D01*
X188483808Y-109547281D01*
X188545014Y-109489023D01*
X188593534Y-109444225D01*
X188618871Y-109422021D01*
X188618871Y-109243724D01*
X188333445Y-109221401D01*
X188249781Y-109214669D01*
X188173273Y-109208157D01*
X188107919Y-109202234D01*
X188057719Y-109197268D01*
X188026671Y-109193629D01*
X188019727Y-109192458D01*
X187991435Y-109185838D01*
X187991435Y-108236364D01*
X188070394Y-108230026D01*
X188163685Y-108210890D01*
X188246209Y-108170846D01*
X188314962Y-108112418D01*
X188366937Y-108038129D01*
X188398137Y-107954748D01*
X188412772Y-107927698D01*
X188444181Y-107914156D01*
X188445566Y-107913872D01*
X188458826Y-107912247D01*
X188472405Y-107914256D01*
X188488819Y-107921858D01*
X188510589Y-107937016D01*
X188540233Y-107961688D01*
X188580268Y-107997836D01*
X188633215Y-108047420D01*
X188701591Y-108112401D01*
X188705995Y-108116599D01*
X188779389Y-108186493D01*
X188857563Y-108260800D01*
X188935136Y-108334414D01*
X189006725Y-108402229D01*
X189066949Y-108459140D01*
X189080413Y-108471832D01*
X189131180Y-108520487D01*
X189174625Y-108563709D01*
X189207759Y-108598395D01*
X189227595Y-108621444D01*
X189231954Y-108629182D01*
X189222830Y-108640722D01*
X189197800Y-108667710D01*
X189158948Y-108708021D01*
X189108357Y-108759529D01*
X189048112Y-108820109D01*
X188980296Y-108887636D01*
X188924435Y-108942826D01*
X188618871Y-109243724D01*
X188618871Y-109422021D01*
X188630589Y-109411751D01*
X188657401Y-109390471D01*
X188675192Y-109379251D01*
X188683430Y-109376754D01*
X188701410Y-109377700D01*
X188742108Y-109380573D01*
X188803181Y-109385187D01*
X188882287Y-109391358D01*
X188977086Y-109398898D01*
X189085233Y-109407621D01*
X189204388Y-109417343D01*
X189332209Y-109427876D01*
X189434365Y-109436365D01*
X190010326Y-109484396D01*
X190010326Y-109360805D01*
X189997896Y-109360273D01*
X189962890Y-109357769D01*
X189907785Y-109353496D01*
X189835057Y-109347653D01*
X189747186Y-109340443D01*
X189646649Y-109332066D01*
X189535923Y-109322723D01*
X189430795Y-109313758D01*
X189311517Y-109303602D01*
X189198920Y-109294142D01*
X189095695Y-109285596D01*
X189004527Y-109278179D01*
X188928105Y-109272108D01*
X188869117Y-109267601D01*
X188830251Y-109264873D01*
X188815156Y-109264116D01*
X188805762Y-109262935D01*
X188802034Y-109258256D01*
X188805529Y-109248276D01*
X188817801Y-109231190D01*
X188840406Y-109205196D01*
X188874900Y-109168490D01*
X188922838Y-109119267D01*
X188985776Y-109055726D01*
X189053032Y-108988305D01*
X189328523Y-108712601D01*
X189330594Y-108714533D01*
X189330594Y-108532290D01*
X189319220Y-108523984D01*
X189292437Y-108500733D01*
X189252708Y-108464865D01*
X189202493Y-108418713D01*
X189144254Y-108364606D01*
X189080453Y-108304874D01*
X189013551Y-108241848D01*
X188946010Y-108177858D01*
X188880290Y-108115236D01*
X188818854Y-108056310D01*
X188764163Y-108003412D01*
X188718678Y-107958872D01*
X188684862Y-107925020D01*
X188665174Y-107904188D01*
X188661163Y-107898506D01*
X188674109Y-107896634D01*
X188709866Y-107892746D01*
X188766196Y-107887057D01*
X188840860Y-107879781D01*
X188931620Y-107871131D01*
X189036238Y-107861322D01*
X189152474Y-107850566D01*
X189278092Y-107839079D01*
X189379382Y-107829907D01*
X189510721Y-107818174D01*
X189634448Y-107807335D01*
X189748319Y-107797570D01*
X189850089Y-107789063D01*
X189937513Y-107781995D01*
X190008347Y-107776549D01*
X190060347Y-107772908D01*
X190091268Y-107771253D01*
X190099297Y-107771442D01*
X190092146Y-107781334D01*
X190069159Y-107806524D01*
X190032561Y-107844810D01*
X189984578Y-107893989D01*
X189927434Y-107951861D01*
X189863353Y-108016222D01*
X189794562Y-108084871D01*
X189723284Y-108155605D01*
X189651745Y-108226222D01*
X189582170Y-108294520D01*
X189516783Y-108358296D01*
X189457809Y-108415350D01*
X189407473Y-108463478D01*
X189368001Y-108500478D01*
X189341617Y-108524148D01*
X189330594Y-108532290D01*
X189330594Y-108714533D01*
X189438705Y-108815409D01*
X189494623Y-108867768D01*
X189557052Y-108926535D01*
X189623557Y-108989385D01*
X189691702Y-109053995D01*
X189759052Y-109118042D01*
X189823172Y-109179203D01*
X189881628Y-109235153D01*
X189931982Y-109283570D01*
X189971802Y-109322130D01*
X189998650Y-109348509D01*
X190010092Y-109360384D01*
X190010326Y-109360805D01*
X190010326Y-109484396D01*
X190154274Y-109496401D01*
X190785842Y-110096938D01*
X191417411Y-110697475D01*
X191505685Y-110697034D01*
X191593960Y-110696592D01*
X191490334Y-110599583D01*
X191432537Y-110545291D01*
X191364632Y-110481192D01*
X191288428Y-110409016D01*
X191205731Y-110330492D01*
X191118347Y-110247349D01*
X191028085Y-110161319D01*
X190936750Y-110074130D01*
X190846151Y-109987513D01*
X190758093Y-109903197D01*
X190674385Y-109822912D01*
X190596833Y-109748387D01*
X190527243Y-109681354D01*
X190467424Y-109623541D01*
X190419182Y-109576679D01*
X190384324Y-109542496D01*
X190364657Y-109522724D01*
X190360884Y-109518390D01*
X190374008Y-109518092D01*
X190407611Y-109519731D01*
X190457120Y-109523023D01*
X190517963Y-109527682D01*
X190542268Y-109529682D01*
X190720049Y-109544577D01*
X190720049Y-109427955D01*
X190691757Y-109421934D01*
X190669382Y-109418863D01*
X190627283Y-109414548D01*
X190570822Y-109409488D01*
X190505365Y-109404181D01*
X190481138Y-109402344D01*
X190411579Y-109396927D01*
X190346982Y-109391459D01*
X190293452Y-109386488D01*
X190257090Y-109382561D01*
X190250491Y-109381675D01*
X190236944Y-109378334D01*
X190221086Y-109371101D01*
X190201139Y-109358440D01*
X190175327Y-109338811D01*
X190141871Y-109310678D01*
X190098993Y-109272502D01*
X190044917Y-109222746D01*
X189977864Y-109159871D01*
X189896057Y-109082341D01*
X189813050Y-109003251D01*
X189730906Y-108924564D01*
X189654831Y-108851112D01*
X189586675Y-108784724D01*
X189528288Y-108727227D01*
X189481519Y-108680451D01*
X189448218Y-108646224D01*
X189430233Y-108626373D01*
X189427558Y-108622140D01*
X189437259Y-108611003D01*
X189462559Y-108584971D01*
X189500918Y-108546570D01*
X189549800Y-108498328D01*
X189606666Y-108442770D01*
X189648094Y-108402592D01*
X189865000Y-108192831D01*
X189865000Y-108811337D01*
X190103911Y-108811337D01*
X190103911Y-108056881D01*
X189997458Y-108056881D01*
X190135346Y-107918565D01*
X190233160Y-107820447D01*
X190233160Y-107629357D01*
X190217730Y-107627529D01*
X190209133Y-107618277D01*
X190205387Y-107595950D01*
X190204511Y-107554895D01*
X190204505Y-107547624D01*
X190204505Y-107465891D01*
X190423828Y-107465891D01*
X190342821Y-107547624D01*
X190293572Y-107593730D01*
X190255841Y-107621306D01*
X190233160Y-107629357D01*
X190233160Y-107820447D01*
X190273234Y-107780248D01*
X190396048Y-107780248D01*
X190452550Y-107779863D01*
X190488495Y-107778100D01*
X190508470Y-107774050D01*
X190517063Y-107766801D01*
X190518861Y-107755870D01*
X190521502Y-107743712D01*
X190532088Y-107734727D01*
X190554619Y-107727826D01*
X190593091Y-107721924D01*
X190651502Y-107715935D01*
X190672896Y-107714013D01*
X190720049Y-107709852D01*
X190720049Y-109427955D01*
X190720049Y-109544577D01*
X190720049Y-109704109D01*
X190833218Y-109704109D01*
X190833218Y-109636314D01*
X190834304Y-109596662D01*
X190839546Y-109575116D01*
X190842666Y-109572480D01*
X190842666Y-109433616D01*
X190835538Y-109426308D01*
X190833338Y-109400993D01*
X190833218Y-109383908D01*
X190833218Y-109326881D01*
X190833218Y-109114221D01*
X190833218Y-107699698D01*
X190882214Y-107747542D01*
X190942676Y-107821850D01*
X190989309Y-107913816D01*
X191022751Y-108024998D01*
X191041247Y-108135471D01*
X191049878Y-108207773D01*
X190958960Y-108207773D01*
X190958960Y-108786188D01*
X191062107Y-108786188D01*
X191053504Y-108871065D01*
X191046244Y-108930368D01*
X191036621Y-108993551D01*
X191029748Y-109031386D01*
X191014593Y-109106832D01*
X190923905Y-109110526D01*
X190833218Y-109114221D01*
X190833218Y-109326881D01*
X190883515Y-109326881D01*
X190915024Y-109328544D01*
X190932537Y-109332697D01*
X190933812Y-109334371D01*
X190925746Y-109352987D01*
X190906180Y-109380183D01*
X190882056Y-109407448D01*
X190860318Y-109426267D01*
X190857492Y-109427943D01*
X190842666Y-109433616D01*
X190842666Y-109572480D01*
X190851919Y-109564662D01*
X190865396Y-109560442D01*
X190900373Y-109543219D01*
X190942421Y-109510138D01*
X190985644Y-109466893D01*
X191024146Y-109419174D01*
X191044199Y-109387830D01*
X191066149Y-109352123D01*
X191084589Y-109333819D01*
X191106332Y-109327388D01*
X191119282Y-109326894D01*
X191122425Y-109326894D01*
X191122425Y-108685594D01*
X191059554Y-108685594D01*
X191059554Y-108308367D01*
X191122425Y-108308367D01*
X191122425Y-108685594D01*
X191122425Y-109326894D01*
X191160148Y-109326881D01*
X191160148Y-109221048D01*
X191158971Y-109172355D01*
X191155835Y-109134405D01*
X191151329Y-109113308D01*
X191149505Y-109111023D01*
X191146705Y-109097641D01*
X191147852Y-109065074D01*
X191152607Y-109018916D01*
X191156997Y-108987376D01*
X191165622Y-108930188D01*
X191173409Y-108877886D01*
X191179153Y-108838582D01*
X191180785Y-108827055D01*
X191190112Y-108796937D01*
X191204728Y-108786188D01*
X191210680Y-108782920D01*
X191215222Y-108771230D01*
X191218530Y-108748288D01*
X191220785Y-108711265D01*
X191222166Y-108657332D01*
X191222850Y-108583660D01*
X191223020Y-108496980D01*
X191222923Y-108404471D01*
X191222470Y-108334094D01*
X191221410Y-108282836D01*
X191219497Y-108247680D01*
X191216481Y-108225611D01*
X191212115Y-108213615D01*
X191206151Y-108208676D01*
X191199216Y-108207773D01*
X191177205Y-108200079D01*
X191164679Y-108174879D01*
X191160212Y-108128991D01*
X191160148Y-108120736D01*
X191152132Y-108043027D01*
X191130064Y-107954767D01*
X191096916Y-107863915D01*
X191055661Y-107778430D01*
X191009269Y-107706274D01*
X191001918Y-107696928D01*
X190978002Y-107666467D01*
X190968424Y-107648428D01*
X190971520Y-107635831D01*
X190984296Y-107622900D01*
X191009322Y-107584707D01*
X191018929Y-107535002D01*
X191013933Y-107481476D01*
X190995149Y-107431822D01*
X190963394Y-107393733D01*
X190959703Y-107390975D01*
X190900425Y-107362474D01*
X190839066Y-107357172D01*
X190780573Y-107374482D01*
X190729896Y-107413820D01*
X190725711Y-107418630D01*
X190705833Y-107446560D01*
X190697079Y-107474898D01*
X190696447Y-107514737D01*
X190697008Y-107524689D01*
X190698438Y-107563668D01*
X190695161Y-107583746D01*
X190685272Y-107591015D01*
X190676039Y-107591760D01*
X190649256Y-107593284D01*
X190608975Y-107597065D01*
X190584876Y-107599782D01*
X190546599Y-107603723D01*
X190527004Y-107602084D01*
X190519842Y-107592579D01*
X190518861Y-107575649D01*
X190522099Y-107565608D01*
X190532580Y-107549410D01*
X190551452Y-107525855D01*
X190579865Y-107493743D01*
X190618965Y-107451872D01*
X190669903Y-107399043D01*
X190733827Y-107334055D01*
X190811886Y-107255709D01*
X190905228Y-107162803D01*
X191015002Y-107054137D01*
X191068048Y-107001769D01*
X191617233Y-106459951D01*
X191530152Y-106460570D01*
G36*
X190914749Y-82569890D02*
X190914561Y-82387350D01*
X190914163Y-82233433D01*
X190913480Y-82105517D01*
X190912433Y-82000979D01*
X190910947Y-81917198D01*
X190908945Y-81851552D01*
X190906351Y-81801419D01*
X190903086Y-81764176D01*
X190899076Y-81737203D01*
X190894243Y-81717877D01*
X190888511Y-81703575D01*
X190882940Y-81693517D01*
X190831721Y-81638056D01*
X190766215Y-81609877D01*
X190694115Y-81612062D01*
X190685676Y-81614422D01*
X190653103Y-81628467D01*
X190596819Y-81657053D01*
X190521431Y-81697512D01*
X190431551Y-81747180D01*
X190331789Y-81803391D01*
X190226753Y-81863478D01*
X190121055Y-81924776D01*
X190019304Y-81984619D01*
X189926111Y-82040341D01*
X189846084Y-82089276D01*
X189783834Y-82128759D01*
X189743971Y-82156123D01*
X189732927Y-82165388D01*
X189720774Y-82180129D01*
X189711405Y-82198232D01*
X189704267Y-82224359D01*
X189698809Y-82263171D01*
X189694479Y-82319328D01*
X189690724Y-82397493D01*
X189686993Y-82502326D01*
X189684785Y-82571971D01*
X189681156Y-82679403D01*
X189677392Y-82774448D01*
X189673730Y-82852243D01*
X189670409Y-82907924D01*
X189667668Y-82936626D01*
X189666759Y-82939467D01*
X189650590Y-82931446D01*
X189610302Y-82909317D01*
X189551065Y-82875977D01*
X189478047Y-82834324D01*
X189432693Y-82808234D01*
X189205232Y-82677000D01*
X189204600Y-81896372D01*
X189588228Y-81677746D01*
X189693902Y-81616762D01*
X189791541Y-81558976D01*
X189876703Y-81507131D01*
X189944946Y-81463969D01*
X189991828Y-81432235D01*
X190011562Y-81416300D01*
X190051267Y-81373480D01*
X190051267Y-79237710D01*
X189995427Y-79183589D01*
X189967775Y-79158388D01*
X189941227Y-79140334D01*
X189912463Y-79130518D01*
X189878166Y-79130033D01*
X189835016Y-79139970D01*
X189779693Y-79161423D01*
X189708879Y-79195483D01*
X189619256Y-79243244D01*
X189507503Y-79305797D01*
X189370302Y-79384234D01*
X189349532Y-79396167D01*
X189206455Y-79479041D01*
X189091042Y-79547413D01*
X189001069Y-79602708D01*
X188934315Y-79646352D01*
X188888556Y-79679771D01*
X188861569Y-79704391D01*
X188854530Y-79713667D01*
X188843780Y-79735408D01*
X188835459Y-79764046D01*
X188829091Y-79804442D01*
X188824198Y-79861458D01*
X188820304Y-79939955D01*
X188816931Y-80044795D01*
X188815133Y-80115101D01*
X188806667Y-80465736D01*
X188573834Y-80329364D01*
X188341000Y-80192992D01*
X188338846Y-79885596D01*
X188337479Y-79769717D01*
X188335103Y-79649435D01*
X188331992Y-79535366D01*
X188328418Y-79438125D01*
X188326146Y-79391934D01*
X188315600Y-79205667D01*
X188222467Y-79144162D01*
X188181988Y-79118554D01*
X188117426Y-79079078D01*
X188033994Y-79028859D01*
X187936905Y-78971022D01*
X187831373Y-78908690D01*
X187749233Y-78860529D01*
X187630171Y-78791346D01*
X187536168Y-78737840D01*
X187463338Y-78698100D01*
X187407799Y-78670219D01*
X187365665Y-78652285D01*
X187333053Y-78642390D01*
X187306078Y-78638624D01*
X187297401Y-78638400D01*
X187279657Y-78639931D01*
X187257436Y-78645354D01*
X187228418Y-78655909D01*
X187190280Y-78672839D01*
X187140702Y-78697387D01*
X187077363Y-78730796D01*
X186997941Y-78774306D01*
X186900117Y-78829160D01*
X186781567Y-78896602D01*
X186639973Y-78977872D01*
X186473011Y-79074214D01*
X186348235Y-79146403D01*
X186183647Y-79242099D01*
X186028883Y-79332873D01*
X185886459Y-79417202D01*
X185758890Y-79493561D01*
X185648691Y-79560427D01*
X185558377Y-79616277D01*
X185490464Y-79659586D01*
X185447466Y-79688831D01*
X185432784Y-79700970D01*
X185401185Y-79764710D01*
X185397619Y-79837422D01*
X185422316Y-79907760D01*
X185443142Y-79929655D01*
X185486955Y-79962737D01*
X185555179Y-80007917D01*
X185649237Y-80066102D01*
X185770553Y-80138201D01*
X185910600Y-80219406D01*
X186043483Y-80295445D01*
X186150634Y-80355846D01*
X186235420Y-80402291D01*
X186301211Y-80436465D01*
X186351375Y-80460052D01*
X186389281Y-80474735D01*
X186418296Y-80482197D01*
X186440217Y-80484133D01*
X186472332Y-80480971D01*
X186510438Y-80469943D01*
X186559621Y-80448738D01*
X186624966Y-80415046D01*
X186711557Y-80366555D01*
X186758350Y-80339558D01*
X186844574Y-80289689D01*
X186923919Y-80244130D01*
X186990320Y-80206336D01*
X187037713Y-80179766D01*
X187056150Y-80169790D01*
X187104867Y-80144597D01*
X187104604Y-80420199D01*
X187104342Y-80695800D01*
X186719371Y-80915933D01*
X186613686Y-80977071D01*
X186516125Y-81034841D01*
X186431088Y-81086532D01*
X186362976Y-81129434D01*
X186316191Y-81160832D01*
X186296300Y-81176639D01*
X186286012Y-81188212D01*
X186277770Y-81201090D01*
X186271353Y-81218890D01*
X186266539Y-81245225D01*
X186263105Y-81283711D01*
X186260831Y-81337961D01*
X186259494Y-81411591D01*
X186258872Y-81508216D01*
X186258743Y-81631449D01*
X186258887Y-81784906D01*
X186258888Y-81786239D01*
X186259577Y-82355267D01*
X186305455Y-82407276D01*
X186334159Y-82431428D01*
X186387241Y-82468124D01*
X186460233Y-82514825D01*
X186548667Y-82568990D01*
X186648076Y-82628080D01*
X186753992Y-82689554D01*
X186861946Y-82750872D01*
X186967472Y-82809494D01*
X187066101Y-82862881D01*
X187153365Y-82908492D01*
X187224798Y-82943787D01*
X187275929Y-82966227D01*
X187301139Y-82973334D01*
X187353469Y-82959902D01*
X187411868Y-82923265D01*
X187414275Y-82921301D01*
X187477400Y-82869268D01*
X187479238Y-82476801D01*
X187480245Y-82358307D01*
X187482042Y-82245287D01*
X187484461Y-82144139D01*
X187487337Y-82061262D01*
X187490504Y-82003054D01*
X187491938Y-81986985D01*
X187502800Y-81889637D01*
X187735634Y-81755843D01*
X187968467Y-81622050D01*
X187968467Y-83170094D01*
X187635414Y-83360998D01*
X187526243Y-83423204D01*
X187442298Y-83469929D01*
X187379684Y-83502983D01*
X187334508Y-83524176D01*
X187302875Y-83535320D01*
X187280891Y-83538224D01*
X187264661Y-83534699D01*
X187263177Y-83534050D01*
X187238034Y-83520779D01*
X187188169Y-83492957D01*
X187118083Y-83453151D01*
X187032276Y-83403928D01*
X186935249Y-83347854D01*
X186859855Y-83304032D01*
X186730409Y-83229551D01*
X186627183Y-83172341D01*
X186547960Y-83131278D01*
X186490525Y-83105237D01*
X186452662Y-83093096D01*
X186441537Y-83091867D01*
X186419410Y-83094517D01*
X186389843Y-83103412D01*
X186350184Y-83119969D01*
X186297779Y-83145605D01*
X186229976Y-83181738D01*
X186144122Y-83229785D01*
X186037565Y-83291163D01*
X185907651Y-83367289D01*
X185751727Y-83459581D01*
X185737992Y-83467740D01*
X185645104Y-83523944D01*
X185561745Y-83576310D01*
X185492521Y-83621788D01*
X185442039Y-83657326D01*
X185414906Y-83679873D01*
X185412025Y-83683614D01*
X185397128Y-83738964D01*
X185398836Y-83805585D01*
X185416492Y-83865611D01*
X185418904Y-83870195D01*
X185442426Y-83893359D01*
X185495019Y-83931239D01*
X185575600Y-83983141D01*
X185683081Y-84048371D01*
X185816379Y-84126236D01*
X185845871Y-84143166D01*
X186249733Y-84374410D01*
X186254381Y-84656961D01*
X186259028Y-84939513D01*
X186186647Y-84897130D01*
X186156303Y-84879481D01*
X186100206Y-84846974D01*
X186021934Y-84801677D01*
X185925067Y-84745660D01*
X185813183Y-84680992D01*
X185689861Y-84609744D01*
X185558681Y-84533983D01*
X185513133Y-84507685D01*
X184912000Y-84160623D01*
X184907763Y-83774411D01*
X184903525Y-83388200D01*
X185302836Y-83160285D01*
X185424409Y-83089874D01*
X185530412Y-83026439D01*
X185617727Y-82971955D01*
X185683233Y-82928399D01*
X185723812Y-82897747D01*
X185734640Y-82886738D01*
X185741302Y-82876229D01*
X185746987Y-82863125D01*
X185751771Y-82844831D01*
X185755733Y-82818748D01*
X185758949Y-82782278D01*
X185761498Y-82732824D01*
X185763455Y-82667788D01*
X185764900Y-82584573D01*
X185765909Y-82480582D01*
X185766559Y-82353216D01*
X185766929Y-82199878D01*
X185767094Y-82017971D01*
X185767133Y-81804897D01*
X185767133Y-81795852D01*
X185767101Y-81581573D01*
X185766951Y-81398541D01*
X185766603Y-81244136D01*
X185765979Y-81115739D01*
X185764998Y-81010729D01*
X185763581Y-80926486D01*
X185761647Y-80860392D01*
X185759119Y-80809826D01*
X185755915Y-80772169D01*
X185751957Y-80744800D01*
X185747165Y-80725100D01*
X185741458Y-80710449D01*
X185734759Y-80698227D01*
X185733729Y-80696549D01*
X185686895Y-80647951D01*
X185624871Y-80619165D01*
X185559707Y-80614725D01*
X185533907Y-80621359D01*
X185503609Y-80635764D01*
X185449416Y-80664429D01*
X185375904Y-80704723D01*
X185287645Y-80754016D01*
X185189214Y-80809677D01*
X185085184Y-80869074D01*
X184980131Y-80929578D01*
X184878627Y-80988557D01*
X184785247Y-81043381D01*
X184704564Y-81091418D01*
X184641154Y-81130038D01*
X184599589Y-81156610D01*
X184586034Y-81166549D01*
X184573691Y-81178831D01*
X184564350Y-81193235D01*
X184557593Y-81214289D01*
X184553002Y-81246520D01*
X184550158Y-81294457D01*
X184548644Y-81362628D01*
X184548042Y-81455560D01*
X184547934Y-81577782D01*
X184547934Y-81579285D01*
X184547392Y-81688281D01*
X184545874Y-81784895D01*
X184543541Y-81864344D01*
X184540555Y-81921845D01*
X184537075Y-81952614D01*
X184535234Y-81956482D01*
X184516925Y-81948099D01*
X184474719Y-81925524D01*
X184413931Y-81891697D01*
X184339877Y-81849558D01*
X184293934Y-81823042D01*
X184065334Y-81690453D01*
X184054893Y-81294727D01*
X184051775Y-81176345D01*
X184048826Y-81063955D01*
X184046207Y-80963785D01*
X184044082Y-80882066D01*
X184042613Y-80825025D01*
X184042193Y-80808427D01*
X184037807Y-80750416D01*
X184024464Y-80711598D01*
X183996465Y-80677454D01*
X183987343Y-80668727D01*
X183922903Y-80628805D01*
X183853100Y-80618707D01*
X183785540Y-80636975D01*
X183727832Y-80682148D01*
X183699909Y-80723862D01*
X183686580Y-80754367D01*
X183677658Y-80788715D01*
X183672480Y-80833806D01*
X183670378Y-80896538D01*
X183670687Y-80983810D01*
X183671237Y-81021092D01*
X183672853Y-81120161D01*
X183674810Y-81241100D01*
X183676914Y-81371917D01*
X183678972Y-81500617D01*
X183680067Y-81569490D01*
X183682014Y-81680351D01*
X183684238Y-81762399D01*
X183687357Y-81820686D01*
X183691991Y-81860265D01*
X183698756Y-81886187D01*
X183708271Y-81903504D01*
X183721154Y-81917270D01*
X183722798Y-81918779D01*
X183746687Y-81935745D01*
X183795991Y-81967079D01*
X183866706Y-82010368D01*
X183954832Y-82063196D01*
X184056364Y-82123150D01*
X184167302Y-82187817D01*
X184204385Y-82209255D01*
X184331951Y-82282624D01*
X184433996Y-82340592D01*
X184514182Y-82384945D01*
X184576169Y-82417469D01*
X184623619Y-82439950D01*
X184660193Y-82454174D01*
X184689552Y-82461927D01*
X184715356Y-82464995D01*
X184729319Y-82465333D01*
X184782332Y-82462291D01*
X184817079Y-82448473D01*
X184848953Y-82416841D01*
X184856967Y-82406971D01*
X184903534Y-82348610D01*
X184903542Y-81407000D01*
X185060171Y-81318308D01*
X185137067Y-81274665D01*
X185213995Y-81230833D01*
X185279332Y-81193443D01*
X185305700Y-81178266D01*
X185394600Y-81126915D01*
X185394523Y-81901958D01*
X185394447Y-82677000D01*
X185034690Y-82878657D01*
X184930276Y-82938187D01*
X184832333Y-82995899D01*
X184745918Y-83048667D01*
X184676086Y-83093365D01*
X184627894Y-83126867D01*
X184611434Y-83140327D01*
X184547934Y-83200340D01*
X184548472Y-83776870D01*
X184548861Y-83938065D01*
X184549780Y-84068579D01*
X184551357Y-84171597D01*
X184553717Y-84250303D01*
X184556988Y-84307880D01*
X184561296Y-84347513D01*
X184566767Y-84372385D01*
X184572639Y-84384583D01*
X184591216Y-84398438D01*
X184636568Y-84427562D01*
X184706081Y-84470399D01*
X184797139Y-84525389D01*
X184907128Y-84590974D01*
X185033435Y-84665594D01*
X185173444Y-84747691D01*
X185324541Y-84835707D01*
X185484111Y-84928082D01*
X185488618Y-84930683D01*
X185679852Y-85041007D01*
X185844056Y-85135471D01*
X185983554Y-85215104D01*
X186100673Y-85280931D01*
X186197739Y-85333980D01*
X186277077Y-85375278D01*
X186341014Y-85405850D01*
X186391875Y-85426725D01*
X186431986Y-85438929D01*
X186463674Y-85443488D01*
X186489264Y-85441429D01*
X186511082Y-85433779D01*
X186531454Y-85421566D01*
X186552705Y-85405815D01*
X186557168Y-85402405D01*
X186613800Y-85359210D01*
X186613800Y-84778155D01*
X186613709Y-84621995D01*
X186613308Y-84496121D01*
X186612412Y-84396953D01*
X186610830Y-84320909D01*
X186608375Y-84264409D01*
X186604859Y-84223873D01*
X186600094Y-84195720D01*
X186593892Y-84176370D01*
X186586064Y-84162241D01*
X186581085Y-84155510D01*
X186556153Y-84133766D01*
X186507105Y-84099031D01*
X186439372Y-84054862D01*
X186358389Y-84004816D01*
X186280518Y-83958761D01*
X186193567Y-83908299D01*
X186115834Y-83863011D01*
X186052452Y-83825900D01*
X186008549Y-83799969D01*
X185989784Y-83788575D01*
X185989286Y-83776408D01*
X186011557Y-83754154D01*
X186058139Y-83720782D01*
X186130571Y-83675266D01*
X186230396Y-83616575D01*
X186343483Y-83552452D01*
X186437232Y-83499921D01*
X186834550Y-83727335D01*
X186960451Y-83798870D01*
X187060837Y-83854564D01*
X187139159Y-83896119D01*
X187198870Y-83925238D01*
X187243422Y-83943625D01*
X187276267Y-83952981D01*
X187296305Y-83955108D01*
X187319422Y-83952490D01*
X187350046Y-83943326D01*
X187391351Y-83925998D01*
X187446513Y-83898885D01*
X187518706Y-83860367D01*
X187611104Y-83808823D01*
X187726881Y-83742634D01*
X187833546Y-83680908D01*
X187967200Y-83602969D01*
X188074266Y-83539658D01*
X188157689Y-83489029D01*
X188220414Y-83449132D01*
X188265384Y-83418020D01*
X188295545Y-83393745D01*
X188313840Y-83374358D01*
X188323215Y-83357913D01*
X188323674Y-83356648D01*
X188327598Y-83327973D01*
X188331052Y-83266458D01*
X188334019Y-83173127D01*
X188336485Y-83049003D01*
X188338432Y-82895110D01*
X188339844Y-82712473D01*
X188340706Y-82502114D01*
X188341000Y-82265058D01*
X188341000Y-81218603D01*
X188292843Y-81172466D01*
X188238578Y-81131849D01*
X188181627Y-81115374D01*
X188115813Y-81123072D01*
X188034959Y-81154978D01*
X187997862Y-81174073D01*
X187887010Y-81234758D01*
X187771126Y-81299784D01*
X187654135Y-81366795D01*
X187539962Y-81433436D01*
X187432532Y-81497352D01*
X187335770Y-81556188D01*
X187253603Y-81607588D01*
X187189956Y-81649196D01*
X187148754Y-81678658D01*
X187134445Y-81692144D01*
X187125660Y-81725519D01*
X187118091Y-81792389D01*
X187111764Y-81892401D01*
X187106704Y-82025206D01*
X187105025Y-82088119D01*
X187096400Y-82447505D01*
X186854787Y-82310484D01*
X186613175Y-82173462D01*
X186622267Y-81407000D01*
X187008702Y-81185280D01*
X187114636Y-81123827D01*
X187212550Y-81065755D01*
X187298041Y-81013777D01*
X187366702Y-80970606D01*
X187414128Y-80938957D01*
X187434777Y-80922813D01*
X187474417Y-80882067D01*
X187480142Y-80331734D01*
X187481506Y-80169658D01*
X187481828Y-80038286D01*
X187481022Y-79934466D01*
X187479002Y-79855047D01*
X187475683Y-79796880D01*
X187470979Y-79756814D01*
X187464805Y-79731698D01*
X187463759Y-79729054D01*
X187428648Y-79682242D01*
X187373094Y-79643988D01*
X187310520Y-79622552D01*
X187287386Y-79620533D01*
X187263261Y-79628716D01*
X187214242Y-79651753D01*
X187144657Y-79687380D01*
X187058833Y-79733331D01*
X186961096Y-79787342D01*
X186868860Y-79839629D01*
X186764511Y-79899259D01*
X186668755Y-79953581D01*
X186585844Y-80000214D01*
X186520028Y-80036778D01*
X186475560Y-80060893D01*
X186457472Y-80069924D01*
X186428531Y-80066045D01*
X186372365Y-80042635D01*
X186288855Y-79999641D01*
X186199238Y-79949358D01*
X186120937Y-79903675D01*
X186054261Y-79863610D01*
X186004193Y-79832252D01*
X185975721Y-79812689D01*
X185971066Y-79807963D01*
X185985298Y-79798130D01*
X186025308Y-79773591D01*
X186087468Y-79736446D01*
X186168154Y-79688794D01*
X186263739Y-79632734D01*
X186370596Y-79570366D01*
X186485102Y-79503789D01*
X186603628Y-79435102D01*
X186722549Y-79366406D01*
X186838240Y-79299798D01*
X186947074Y-79237380D01*
X187045426Y-79181249D01*
X187129669Y-79133506D01*
X187196177Y-79096250D01*
X187241325Y-79071581D01*
X187255873Y-79064072D01*
X187272258Y-79057325D01*
X187289705Y-79055102D01*
X187312282Y-79059212D01*
X187344057Y-79071467D01*
X187389101Y-79093676D01*
X187451481Y-79127649D01*
X187535267Y-79175196D01*
X187635782Y-79233079D01*
X187968467Y-79425148D01*
X187968536Y-79704874D01*
X187969319Y-79821375D01*
X187971421Y-79947312D01*
X187974547Y-80069552D01*
X187978403Y-80174962D01*
X187979646Y-80201110D01*
X187990688Y-80417620D01*
X188136211Y-80507393D01*
X188194848Y-80542995D01*
X188276072Y-80591507D01*
X188373122Y-80648932D01*
X188479239Y-80711278D01*
X188587663Y-80774548D01*
X188622281Y-80794649D01*
X188743350Y-80864279D01*
X188839477Y-80917476D01*
X188914684Y-80955356D01*
X188972994Y-80979034D01*
X189018432Y-80989625D01*
X189055020Y-80988245D01*
X189086781Y-80976009D01*
X189117738Y-80954031D01*
X189136867Y-80937301D01*
X189196133Y-80883461D01*
X189202060Y-80397848D01*
X189207986Y-79912235D01*
X189428953Y-79787551D01*
X189507297Y-79743502D01*
X189575403Y-79705508D01*
X189627725Y-79676640D01*
X189658719Y-79659967D01*
X189664327Y-79657222D01*
X189667280Y-79672412D01*
X189670029Y-79718135D01*
X189672512Y-79791061D01*
X189674665Y-79887858D01*
X189676426Y-80005194D01*
X189677732Y-80139737D01*
X189678519Y-80288154D01*
X189678734Y-80420257D01*
X189678734Y-81188937D01*
X189273611Y-81423897D01*
X189132859Y-81506537D01*
X189021367Y-81574265D01*
X188938271Y-81627644D01*
X188882705Y-81667235D01*
X188853805Y-81693603D01*
X188849902Y-81699649D01*
X188843321Y-81730674D01*
X188837281Y-81790301D01*
X188831873Y-81873269D01*
X188827188Y-81974315D01*
X188823317Y-82088178D01*
X188820352Y-82209596D01*
X188818384Y-82333308D01*
X188817504Y-82454052D01*
X188817804Y-82566567D01*
X188819374Y-82665590D01*
X188822305Y-82745860D01*
X188826690Y-82802116D01*
X188830416Y-82823505D01*
X188836307Y-82845143D01*
X188842490Y-82863488D01*
X188851859Y-82880583D01*
X188867312Y-82898475D01*
X188891744Y-82919209D01*
X188928050Y-82944829D01*
X188979127Y-82977381D01*
X189047870Y-83018911D01*
X189137175Y-83071462D01*
X189249937Y-83137082D01*
X189387161Y-83216716D01*
X189518178Y-83292392D01*
X189623779Y-83352111D01*
X189707602Y-83397320D01*
X189773285Y-83429468D01*
X189824464Y-83450001D01*
X189864777Y-83460369D01*
X189897860Y-83462018D01*
X189927351Y-83456395D01*
X189956887Y-83444950D01*
X189958607Y-83444170D01*
X189984410Y-83430701D01*
X190004934Y-83413891D01*
X190020780Y-83389990D01*
X190032549Y-83355244D01*
X190040842Y-83305902D01*
X190046258Y-83238210D01*
X190049400Y-83148418D01*
X190050868Y-83032771D01*
X190051263Y-82887519D01*
X190051267Y-82865452D01*
X190051267Y-82400289D01*
X190290120Y-82263478D01*
X190370752Y-82217522D01*
X190440613Y-82178141D01*
X190494648Y-82148147D01*
X190527802Y-82130357D01*
X190535824Y-82126667D01*
X190537133Y-82143040D01*
X190538172Y-82189921D01*
X190538929Y-82263953D01*
X190539394Y-82361778D01*
X190539557Y-82480038D01*
X190539406Y-82615376D01*
X190538932Y-82764433D01*
X190538271Y-82898583D01*
X190533867Y-83670500D01*
X190202474Y-83861325D01*
X189871082Y-84052150D01*
X189466985Y-83817841D01*
X189347068Y-83748480D01*
X189252568Y-83694473D01*
X189179697Y-83654027D01*
X189124667Y-83625351D01*
X189083688Y-83606655D01*
X189052971Y-83596148D01*
X189028727Y-83592038D01*
X189007167Y-83592535D01*
X188994045Y-83594283D01*
X188959118Y-83606138D01*
X188897121Y-83635097D01*
X188807757Y-83681321D01*
X188690726Y-83744970D01*
X188545731Y-83826204D01*
X188372474Y-83925183D01*
X188281734Y-83977568D01*
X188061532Y-84105154D01*
X187869237Y-84216800D01*
X187703359Y-84313385D01*
X187562408Y-84395790D01*
X187444898Y-84464895D01*
X187349339Y-84521579D01*
X187274242Y-84566723D01*
X187218119Y-84601208D01*
X187179482Y-84625912D01*
X187156841Y-84641716D01*
X187152667Y-84645094D01*
X187123411Y-84690138D01*
X187111163Y-84751515D01*
X187117204Y-84815564D01*
X187132996Y-84854660D01*
X187157394Y-84879118D01*
X187207275Y-84916605D01*
X187278145Y-84964521D01*
X187365514Y-85020267D01*
X187464889Y-85081241D01*
X187571777Y-85144845D01*
X187681687Y-85208478D01*
X187790125Y-85269541D01*
X187892601Y-85325433D01*
X187984621Y-85373554D01*
X188061694Y-85411306D01*
X188119326Y-85436087D01*
X188153027Y-85445297D01*
X188153529Y-85445305D01*
X188184450Y-85440224D01*
X188229496Y-85423624D01*
X188292099Y-85393852D01*
X188375692Y-85349254D01*
X188483706Y-85288175D01*
X188504342Y-85276267D01*
X188594057Y-85224635D01*
X188673603Y-85179352D01*
X188738411Y-85142979D01*
X188783911Y-85118076D01*
X188805533Y-85107203D01*
X188806533Y-85106933D01*
X188809430Y-85122923D01*
X188811396Y-85167140D01*
X188812332Y-85233952D01*
X188812140Y-85317731D01*
X188811320Y-85381242D01*
X188806667Y-85655551D01*
X188439075Y-85868076D01*
X188334918Y-85929083D01*
X188237983Y-85987341D01*
X188152993Y-86039895D01*
X188084671Y-86083789D01*
X188037742Y-86116068D01*
X188019975Y-86130335D01*
X187978285Y-86191393D01*
X187968708Y-86261593D01*
X187991544Y-86338461D01*
X187994042Y-86343406D01*
X188029924Y-86392573D01*
X188079229Y-86419191D01*
X188150510Y-86427701D01*
X188156476Y-86427733D01*
X188181079Y-86425703D01*
X188210308Y-86418438D01*
X188247738Y-86404173D01*
X188296941Y-86381145D01*
X188361491Y-86347590D01*
X188444962Y-86301745D01*
X188550926Y-86241847D01*
X188661356Y-86178564D01*
X188774560Y-86112561D01*
X188880713Y-86048994D01*
X188975492Y-85990583D01*
X189054573Y-85940048D01*
X189113633Y-85900107D01*
X189148347Y-85873480D01*
X189151982Y-85869997D01*
X189209431Y-85810600D01*
X189200634Y-85243792D01*
X189191838Y-84676984D01*
X189138685Y-84629492D01*
X189107931Y-84604388D01*
X189077840Y-84587533D01*
X189044799Y-84580053D01*
X189005193Y-84583075D01*
X188955407Y-84597727D01*
X188891826Y-84625134D01*
X188810835Y-84666425D01*
X188708821Y-84722725D01*
X188582168Y-84795163D01*
X188552712Y-84812178D01*
X188154626Y-85042355D01*
X188074246Y-84996094D01*
X188024623Y-84967417D01*
X187956469Y-84927877D01*
X187880494Y-84883692D01*
X187835230Y-84857317D01*
X187676594Y-84764801D01*
X187826764Y-84677114D01*
X187877987Y-84647351D01*
X187953829Y-84603483D01*
X188049529Y-84548255D01*
X188160327Y-84484409D01*
X188281464Y-84414689D01*
X188408178Y-84341839D01*
X188489747Y-84294987D01*
X189002560Y-84000548D01*
X189065480Y-84030502D01*
X189099831Y-84048290D01*
X189157674Y-84079819D01*
X189233200Y-84121856D01*
X189320596Y-84171163D01*
X189414053Y-84224508D01*
X189416267Y-84225779D01*
X189538564Y-84295920D01*
X189635199Y-84350839D01*
X189709859Y-84392213D01*
X189766231Y-84421719D01*
X189808002Y-84441035D01*
X189838861Y-84451837D01*
X189862492Y-84455802D01*
X189882585Y-84454608D01*
X189902826Y-84449932D01*
X189906730Y-84448861D01*
X189935569Y-84436575D01*
X189989502Y-84409448D01*
X190064384Y-84369726D01*
X190156069Y-84319654D01*
X190260413Y-84261480D01*
X190373270Y-84197448D01*
X190415772Y-84173057D01*
X190557709Y-84090651D01*
X190671719Y-84022834D01*
X190759793Y-83968325D01*
X190823922Y-83925844D01*
X190866098Y-83894111D01*
X190888311Y-83871844D01*
X190891083Y-83867408D01*
X190896111Y-83852822D01*
X190900407Y-83828268D01*
X190904022Y-83791332D01*
X190907010Y-83739600D01*
X190909424Y-83670660D01*
X190911316Y-83582098D01*
X190912739Y-83471500D01*
X190913746Y-83336455D01*
X190914391Y-83174548D01*
X190914725Y-82983366D01*
X190914804Y-82783674D01*
X190914749Y-82569890D01*
X190914749Y-82569890D01*
G37*
X190914749Y-82569890D02*
X190914561Y-82387350D01*
X190914163Y-82233433D01*
X190913480Y-82105517D01*
X190912433Y-82000979D01*
X190910947Y-81917198D01*
X190908945Y-81851552D01*
X190906351Y-81801419D01*
X190903086Y-81764176D01*
X190899076Y-81737203D01*
X190894243Y-81717877D01*
X190888511Y-81703575D01*
X190882940Y-81693517D01*
X190831721Y-81638056D01*
X190766215Y-81609877D01*
X190694115Y-81612062D01*
X190685676Y-81614422D01*
X190653103Y-81628467D01*
X190596819Y-81657053D01*
X190521431Y-81697512D01*
X190431551Y-81747180D01*
X190331789Y-81803391D01*
X190226753Y-81863478D01*
X190121055Y-81924776D01*
X190019304Y-81984619D01*
X189926111Y-82040341D01*
X189846084Y-82089276D01*
X189783834Y-82128759D01*
X189743971Y-82156123D01*
X189732927Y-82165388D01*
X189720774Y-82180129D01*
X189711405Y-82198232D01*
X189704267Y-82224359D01*
X189698809Y-82263171D01*
X189694479Y-82319328D01*
X189690724Y-82397493D01*
X189686993Y-82502326D01*
X189684785Y-82571971D01*
X189681156Y-82679403D01*
X189677392Y-82774448D01*
X189673730Y-82852243D01*
X189670409Y-82907924D01*
X189667668Y-82936626D01*
X189666759Y-82939467D01*
X189650590Y-82931446D01*
X189610302Y-82909317D01*
X189551065Y-82875977D01*
X189478047Y-82834324D01*
X189432693Y-82808234D01*
X189205232Y-82677000D01*
X189204600Y-81896372D01*
X189588228Y-81677746D01*
X189693902Y-81616762D01*
X189791541Y-81558976D01*
X189876703Y-81507131D01*
X189944946Y-81463969D01*
X189991828Y-81432235D01*
X190011562Y-81416300D01*
X190051267Y-81373480D01*
X190051267Y-79237710D01*
X189995427Y-79183589D01*
X189967775Y-79158388D01*
X189941227Y-79140334D01*
X189912463Y-79130518D01*
X189878166Y-79130033D01*
X189835016Y-79139970D01*
X189779693Y-79161423D01*
X189708879Y-79195483D01*
X189619256Y-79243244D01*
X189507503Y-79305797D01*
X189370302Y-79384234D01*
X189349532Y-79396167D01*
X189206455Y-79479041D01*
X189091042Y-79547413D01*
X189001069Y-79602708D01*
X188934315Y-79646352D01*
X188888556Y-79679771D01*
X188861569Y-79704391D01*
X188854530Y-79713667D01*
X188843780Y-79735408D01*
X188835459Y-79764046D01*
X188829091Y-79804442D01*
X188824198Y-79861458D01*
X188820304Y-79939955D01*
X188816931Y-80044795D01*
X188815133Y-80115101D01*
X188806667Y-80465736D01*
X188573834Y-80329364D01*
X188341000Y-80192992D01*
X188338846Y-79885596D01*
X188337479Y-79769717D01*
X188335103Y-79649435D01*
X188331992Y-79535366D01*
X188328418Y-79438125D01*
X188326146Y-79391934D01*
X188315600Y-79205667D01*
X188222467Y-79144162D01*
X188181988Y-79118554D01*
X188117426Y-79079078D01*
X188033994Y-79028859D01*
X187936905Y-78971022D01*
X187831373Y-78908690D01*
X187749233Y-78860529D01*
X187630171Y-78791346D01*
X187536168Y-78737840D01*
X187463338Y-78698100D01*
X187407799Y-78670219D01*
X187365665Y-78652285D01*
X187333053Y-78642390D01*
X187306078Y-78638624D01*
X187297401Y-78638400D01*
X187279657Y-78639931D01*
X187257436Y-78645354D01*
X187228418Y-78655909D01*
X187190280Y-78672839D01*
X187140702Y-78697387D01*
X187077363Y-78730796D01*
X186997941Y-78774306D01*
X186900117Y-78829160D01*
X186781567Y-78896602D01*
X186639973Y-78977872D01*
X186473011Y-79074214D01*
X186348235Y-79146403D01*
X186183647Y-79242099D01*
X186028883Y-79332873D01*
X185886459Y-79417202D01*
X185758890Y-79493561D01*
X185648691Y-79560427D01*
X185558377Y-79616277D01*
X185490464Y-79659586D01*
X185447466Y-79688831D01*
X185432784Y-79700970D01*
X185401185Y-79764710D01*
X185397619Y-79837422D01*
X185422316Y-79907760D01*
X185443142Y-79929655D01*
X185486955Y-79962737D01*
X185555179Y-80007917D01*
X185649237Y-80066102D01*
X185770553Y-80138201D01*
X185910600Y-80219406D01*
X186043483Y-80295445D01*
X186150634Y-80355846D01*
X186235420Y-80402291D01*
X186301211Y-80436465D01*
X186351375Y-80460052D01*
X186389281Y-80474735D01*
X186418296Y-80482197D01*
X186440217Y-80484133D01*
X186472332Y-80480971D01*
X186510438Y-80469943D01*
X186559621Y-80448738D01*
X186624966Y-80415046D01*
X186711557Y-80366555D01*
X186758350Y-80339558D01*
X186844574Y-80289689D01*
X186923919Y-80244130D01*
X186990320Y-80206336D01*
X187037713Y-80179766D01*
X187056150Y-80169790D01*
X187104867Y-80144597D01*
X187104604Y-80420199D01*
X187104342Y-80695800D01*
X186719371Y-80915933D01*
X186613686Y-80977071D01*
X186516125Y-81034841D01*
X186431088Y-81086532D01*
X186362976Y-81129434D01*
X186316191Y-81160832D01*
X186296300Y-81176639D01*
X186286012Y-81188212D01*
X186277770Y-81201090D01*
X186271353Y-81218890D01*
X186266539Y-81245225D01*
X186263105Y-81283711D01*
X186260831Y-81337961D01*
X186259494Y-81411591D01*
X186258872Y-81508216D01*
X186258743Y-81631449D01*
X186258887Y-81784906D01*
X186258888Y-81786239D01*
X186259577Y-82355267D01*
X186305455Y-82407276D01*
X186334159Y-82431428D01*
X186387241Y-82468124D01*
X186460233Y-82514825D01*
X186548667Y-82568990D01*
X186648076Y-82628080D01*
X186753992Y-82689554D01*
X186861946Y-82750872D01*
X186967472Y-82809494D01*
X187066101Y-82862881D01*
X187153365Y-82908492D01*
X187224798Y-82943787D01*
X187275929Y-82966227D01*
X187301139Y-82973334D01*
X187353469Y-82959902D01*
X187411868Y-82923265D01*
X187414275Y-82921301D01*
X187477400Y-82869268D01*
X187479238Y-82476801D01*
X187480245Y-82358307D01*
X187482042Y-82245287D01*
X187484461Y-82144139D01*
X187487337Y-82061262D01*
X187490504Y-82003054D01*
X187491938Y-81986985D01*
X187502800Y-81889637D01*
X187735634Y-81755843D01*
X187968467Y-81622050D01*
X187968467Y-83170094D01*
X187635414Y-83360998D01*
X187526243Y-83423204D01*
X187442298Y-83469929D01*
X187379684Y-83502983D01*
X187334508Y-83524176D01*
X187302875Y-83535320D01*
X187280891Y-83538224D01*
X187264661Y-83534699D01*
X187263177Y-83534050D01*
X187238034Y-83520779D01*
X187188169Y-83492957D01*
X187118083Y-83453151D01*
X187032276Y-83403928D01*
X186935249Y-83347854D01*
X186859855Y-83304032D01*
X186730409Y-83229551D01*
X186627183Y-83172341D01*
X186547960Y-83131278D01*
X186490525Y-83105237D01*
X186452662Y-83093096D01*
X186441537Y-83091867D01*
X186419410Y-83094517D01*
X186389843Y-83103412D01*
X186350184Y-83119969D01*
X186297779Y-83145605D01*
X186229976Y-83181738D01*
X186144122Y-83229785D01*
X186037565Y-83291163D01*
X185907651Y-83367289D01*
X185751727Y-83459581D01*
X185737992Y-83467740D01*
X185645104Y-83523944D01*
X185561745Y-83576310D01*
X185492521Y-83621788D01*
X185442039Y-83657326D01*
X185414906Y-83679873D01*
X185412025Y-83683614D01*
X185397128Y-83738964D01*
X185398836Y-83805585D01*
X185416492Y-83865611D01*
X185418904Y-83870195D01*
X185442426Y-83893359D01*
X185495019Y-83931239D01*
X185575600Y-83983141D01*
X185683081Y-84048371D01*
X185816379Y-84126236D01*
X185845871Y-84143166D01*
X186249733Y-84374410D01*
X186254381Y-84656961D01*
X186259028Y-84939513D01*
X186186647Y-84897130D01*
X186156303Y-84879481D01*
X186100206Y-84846974D01*
X186021934Y-84801677D01*
X185925067Y-84745660D01*
X185813183Y-84680992D01*
X185689861Y-84609744D01*
X185558681Y-84533983D01*
X185513133Y-84507685D01*
X184912000Y-84160623D01*
X184907763Y-83774411D01*
X184903525Y-83388200D01*
X185302836Y-83160285D01*
X185424409Y-83089874D01*
X185530412Y-83026439D01*
X185617727Y-82971955D01*
X185683233Y-82928399D01*
X185723812Y-82897747D01*
X185734640Y-82886738D01*
X185741302Y-82876229D01*
X185746987Y-82863125D01*
X185751771Y-82844831D01*
X185755733Y-82818748D01*
X185758949Y-82782278D01*
X185761498Y-82732824D01*
X185763455Y-82667788D01*
X185764900Y-82584573D01*
X185765909Y-82480582D01*
X185766559Y-82353216D01*
X185766929Y-82199878D01*
X185767094Y-82017971D01*
X185767133Y-81804897D01*
X185767133Y-81795852D01*
X185767101Y-81581573D01*
X185766951Y-81398541D01*
X185766603Y-81244136D01*
X185765979Y-81115739D01*
X185764998Y-81010729D01*
X185763581Y-80926486D01*
X185761647Y-80860392D01*
X185759119Y-80809826D01*
X185755915Y-80772169D01*
X185751957Y-80744800D01*
X185747165Y-80725100D01*
X185741458Y-80710449D01*
X185734759Y-80698227D01*
X185733729Y-80696549D01*
X185686895Y-80647951D01*
X185624871Y-80619165D01*
X185559707Y-80614725D01*
X185533907Y-80621359D01*
X185503609Y-80635764D01*
X185449416Y-80664429D01*
X185375904Y-80704723D01*
X185287645Y-80754016D01*
X185189214Y-80809677D01*
X185085184Y-80869074D01*
X184980131Y-80929578D01*
X184878627Y-80988557D01*
X184785247Y-81043381D01*
X184704564Y-81091418D01*
X184641154Y-81130038D01*
X184599589Y-81156610D01*
X184586034Y-81166549D01*
X184573691Y-81178831D01*
X184564350Y-81193235D01*
X184557593Y-81214289D01*
X184553002Y-81246520D01*
X184550158Y-81294457D01*
X184548644Y-81362628D01*
X184548042Y-81455560D01*
X184547934Y-81577782D01*
X184547934Y-81579285D01*
X184547392Y-81688281D01*
X184545874Y-81784895D01*
X184543541Y-81864344D01*
X184540555Y-81921845D01*
X184537075Y-81952614D01*
X184535234Y-81956482D01*
X184516925Y-81948099D01*
X184474719Y-81925524D01*
X184413931Y-81891697D01*
X184339877Y-81849558D01*
X184293934Y-81823042D01*
X184065334Y-81690453D01*
X184054893Y-81294727D01*
X184051775Y-81176345D01*
X184048826Y-81063955D01*
X184046207Y-80963785D01*
X184044082Y-80882066D01*
X184042613Y-80825025D01*
X184042193Y-80808427D01*
X184037807Y-80750416D01*
X184024464Y-80711598D01*
X183996465Y-80677454D01*
X183987343Y-80668727D01*
X183922903Y-80628805D01*
X183853100Y-80618707D01*
X183785540Y-80636975D01*
X183727832Y-80682148D01*
X183699909Y-80723862D01*
X183686580Y-80754367D01*
X183677658Y-80788715D01*
X183672480Y-80833806D01*
X183670378Y-80896538D01*
X183670687Y-80983810D01*
X183671237Y-81021092D01*
X183672853Y-81120161D01*
X183674810Y-81241100D01*
X183676914Y-81371917D01*
X183678972Y-81500617D01*
X183680067Y-81569490D01*
X183682014Y-81680351D01*
X183684238Y-81762399D01*
X183687357Y-81820686D01*
X183691991Y-81860265D01*
X183698756Y-81886187D01*
X183708271Y-81903504D01*
X183721154Y-81917270D01*
X183722798Y-81918779D01*
X183746687Y-81935745D01*
X183795991Y-81967079D01*
X183866706Y-82010368D01*
X183954832Y-82063196D01*
X184056364Y-82123150D01*
X184167302Y-82187817D01*
X184204385Y-82209255D01*
X184331951Y-82282624D01*
X184433996Y-82340592D01*
X184514182Y-82384945D01*
X184576169Y-82417469D01*
X184623619Y-82439950D01*
X184660193Y-82454174D01*
X184689552Y-82461927D01*
X184715356Y-82464995D01*
X184729319Y-82465333D01*
X184782332Y-82462291D01*
X184817079Y-82448473D01*
X184848953Y-82416841D01*
X184856967Y-82406971D01*
X184903534Y-82348610D01*
X184903542Y-81407000D01*
X185060171Y-81318308D01*
X185137067Y-81274665D01*
X185213995Y-81230833D01*
X185279332Y-81193443D01*
X185305700Y-81178266D01*
X185394600Y-81126915D01*
X185394523Y-81901958D01*
X185394447Y-82677000D01*
X185034690Y-82878657D01*
X184930276Y-82938187D01*
X184832333Y-82995899D01*
X184745918Y-83048667D01*
X184676086Y-83093365D01*
X184627894Y-83126867D01*
X184611434Y-83140327D01*
X184547934Y-83200340D01*
X184548472Y-83776870D01*
X184548861Y-83938065D01*
X184549780Y-84068579D01*
X184551357Y-84171597D01*
X184553717Y-84250303D01*
X184556988Y-84307880D01*
X184561296Y-84347513D01*
X184566767Y-84372385D01*
X184572639Y-84384583D01*
X184591216Y-84398438D01*
X184636568Y-84427562D01*
X184706081Y-84470399D01*
X184797139Y-84525389D01*
X184907128Y-84590974D01*
X185033435Y-84665594D01*
X185173444Y-84747691D01*
X185324541Y-84835707D01*
X185484111Y-84928082D01*
X185488618Y-84930683D01*
X185679852Y-85041007D01*
X185844056Y-85135471D01*
X185983554Y-85215104D01*
X186100673Y-85280931D01*
X186197739Y-85333980D01*
X186277077Y-85375278D01*
X186341014Y-85405850D01*
X186391875Y-85426725D01*
X186431986Y-85438929D01*
X186463674Y-85443488D01*
X186489264Y-85441429D01*
X186511082Y-85433779D01*
X186531454Y-85421566D01*
X186552705Y-85405815D01*
X186557168Y-85402405D01*
X186613800Y-85359210D01*
X186613800Y-84778155D01*
X186613709Y-84621995D01*
X186613308Y-84496121D01*
X186612412Y-84396953D01*
X186610830Y-84320909D01*
X186608375Y-84264409D01*
X186604859Y-84223873D01*
X186600094Y-84195720D01*
X186593892Y-84176370D01*
X186586064Y-84162241D01*
X186581085Y-84155510D01*
X186556153Y-84133766D01*
X186507105Y-84099031D01*
X186439372Y-84054862D01*
X186358389Y-84004816D01*
X186280518Y-83958761D01*
X186193567Y-83908299D01*
X186115834Y-83863011D01*
X186052452Y-83825900D01*
X186008549Y-83799969D01*
X185989784Y-83788575D01*
X185989286Y-83776408D01*
X186011557Y-83754154D01*
X186058139Y-83720782D01*
X186130571Y-83675266D01*
X186230396Y-83616575D01*
X186343483Y-83552452D01*
X186437232Y-83499921D01*
X186834550Y-83727335D01*
X186960451Y-83798870D01*
X187060837Y-83854564D01*
X187139159Y-83896119D01*
X187198870Y-83925238D01*
X187243422Y-83943625D01*
X187276267Y-83952981D01*
X187296305Y-83955108D01*
X187319422Y-83952490D01*
X187350046Y-83943326D01*
X187391351Y-83925998D01*
X187446513Y-83898885D01*
X187518706Y-83860367D01*
X187611104Y-83808823D01*
X187726881Y-83742634D01*
X187833546Y-83680908D01*
X187967200Y-83602969D01*
X188074266Y-83539658D01*
X188157689Y-83489029D01*
X188220414Y-83449132D01*
X188265384Y-83418020D01*
X188295545Y-83393745D01*
X188313840Y-83374358D01*
X188323215Y-83357913D01*
X188323674Y-83356648D01*
X188327598Y-83327973D01*
X188331052Y-83266458D01*
X188334019Y-83173127D01*
X188336485Y-83049003D01*
X188338432Y-82895110D01*
X188339844Y-82712473D01*
X188340706Y-82502114D01*
X188341000Y-82265058D01*
X188341000Y-81218603D01*
X188292843Y-81172466D01*
X188238578Y-81131849D01*
X188181627Y-81115374D01*
X188115813Y-81123072D01*
X188034959Y-81154978D01*
X187997862Y-81174073D01*
X187887010Y-81234758D01*
X187771126Y-81299784D01*
X187654135Y-81366795D01*
X187539962Y-81433436D01*
X187432532Y-81497352D01*
X187335770Y-81556188D01*
X187253603Y-81607588D01*
X187189956Y-81649196D01*
X187148754Y-81678658D01*
X187134445Y-81692144D01*
X187125660Y-81725519D01*
X187118091Y-81792389D01*
X187111764Y-81892401D01*
X187106704Y-82025206D01*
X187105025Y-82088119D01*
X187096400Y-82447505D01*
X186854787Y-82310484D01*
X186613175Y-82173462D01*
X186622267Y-81407000D01*
X187008702Y-81185280D01*
X187114636Y-81123827D01*
X187212550Y-81065755D01*
X187298041Y-81013777D01*
X187366702Y-80970606D01*
X187414128Y-80938957D01*
X187434777Y-80922813D01*
X187474417Y-80882067D01*
X187480142Y-80331734D01*
X187481506Y-80169658D01*
X187481828Y-80038286D01*
X187481022Y-79934466D01*
X187479002Y-79855047D01*
X187475683Y-79796880D01*
X187470979Y-79756814D01*
X187464805Y-79731698D01*
X187463759Y-79729054D01*
X187428648Y-79682242D01*
X187373094Y-79643988D01*
X187310520Y-79622552D01*
X187287386Y-79620533D01*
X187263261Y-79628716D01*
X187214242Y-79651753D01*
X187144657Y-79687380D01*
X187058833Y-79733331D01*
X186961096Y-79787342D01*
X186868860Y-79839629D01*
X186764511Y-79899259D01*
X186668755Y-79953581D01*
X186585844Y-80000214D01*
X186520028Y-80036778D01*
X186475560Y-80060893D01*
X186457472Y-80069924D01*
X186428531Y-80066045D01*
X186372365Y-80042635D01*
X186288855Y-79999641D01*
X186199238Y-79949358D01*
X186120937Y-79903675D01*
X186054261Y-79863610D01*
X186004193Y-79832252D01*
X185975721Y-79812689D01*
X185971066Y-79807963D01*
X185985298Y-79798130D01*
X186025308Y-79773591D01*
X186087468Y-79736446D01*
X186168154Y-79688794D01*
X186263739Y-79632734D01*
X186370596Y-79570366D01*
X186485102Y-79503789D01*
X186603628Y-79435102D01*
X186722549Y-79366406D01*
X186838240Y-79299798D01*
X186947074Y-79237380D01*
X187045426Y-79181249D01*
X187129669Y-79133506D01*
X187196177Y-79096250D01*
X187241325Y-79071581D01*
X187255873Y-79064072D01*
X187272258Y-79057325D01*
X187289705Y-79055102D01*
X187312282Y-79059212D01*
X187344057Y-79071467D01*
X187389101Y-79093676D01*
X187451481Y-79127649D01*
X187535267Y-79175196D01*
X187635782Y-79233079D01*
X187968467Y-79425148D01*
X187968536Y-79704874D01*
X187969319Y-79821375D01*
X187971421Y-79947312D01*
X187974547Y-80069552D01*
X187978403Y-80174962D01*
X187979646Y-80201110D01*
X187990688Y-80417620D01*
X188136211Y-80507393D01*
X188194848Y-80542995D01*
X188276072Y-80591507D01*
X188373122Y-80648932D01*
X188479239Y-80711278D01*
X188587663Y-80774548D01*
X188622281Y-80794649D01*
X188743350Y-80864279D01*
X188839477Y-80917476D01*
X188914684Y-80955356D01*
X188972994Y-80979034D01*
X189018432Y-80989625D01*
X189055020Y-80988245D01*
X189086781Y-80976009D01*
X189117738Y-80954031D01*
X189136867Y-80937301D01*
X189196133Y-80883461D01*
X189202060Y-80397848D01*
X189207986Y-79912235D01*
X189428953Y-79787551D01*
X189507297Y-79743502D01*
X189575403Y-79705508D01*
X189627725Y-79676640D01*
X189658719Y-79659967D01*
X189664327Y-79657222D01*
X189667280Y-79672412D01*
X189670029Y-79718135D01*
X189672512Y-79791061D01*
X189674665Y-79887858D01*
X189676426Y-80005194D01*
X189677732Y-80139737D01*
X189678519Y-80288154D01*
X189678734Y-80420257D01*
X189678734Y-81188937D01*
X189273611Y-81423897D01*
X189132859Y-81506537D01*
X189021367Y-81574265D01*
X188938271Y-81627644D01*
X188882705Y-81667235D01*
X188853805Y-81693603D01*
X188849902Y-81699649D01*
X188843321Y-81730674D01*
X188837281Y-81790301D01*
X188831873Y-81873269D01*
X188827188Y-81974315D01*
X188823317Y-82088178D01*
X188820352Y-82209596D01*
X188818384Y-82333308D01*
X188817504Y-82454052D01*
X188817804Y-82566567D01*
X188819374Y-82665590D01*
X188822305Y-82745860D01*
X188826690Y-82802116D01*
X188830416Y-82823505D01*
X188836307Y-82845143D01*
X188842490Y-82863488D01*
X188851859Y-82880583D01*
X188867312Y-82898475D01*
X188891744Y-82919209D01*
X188928050Y-82944829D01*
X188979127Y-82977381D01*
X189047870Y-83018911D01*
X189137175Y-83071462D01*
X189249937Y-83137082D01*
X189387161Y-83216716D01*
X189518178Y-83292392D01*
X189623779Y-83352111D01*
X189707602Y-83397320D01*
X189773285Y-83429468D01*
X189824464Y-83450001D01*
X189864777Y-83460369D01*
X189897860Y-83462018D01*
X189927351Y-83456395D01*
X189956887Y-83444950D01*
X189958607Y-83444170D01*
X189984410Y-83430701D01*
X190004934Y-83413891D01*
X190020780Y-83389990D01*
X190032549Y-83355244D01*
X190040842Y-83305902D01*
X190046258Y-83238210D01*
X190049400Y-83148418D01*
X190050868Y-83032771D01*
X190051263Y-82887519D01*
X190051267Y-82865452D01*
X190051267Y-82400289D01*
X190290120Y-82263478D01*
X190370752Y-82217522D01*
X190440613Y-82178141D01*
X190494648Y-82148147D01*
X190527802Y-82130357D01*
X190535824Y-82126667D01*
X190537133Y-82143040D01*
X190538172Y-82189921D01*
X190538929Y-82263953D01*
X190539394Y-82361778D01*
X190539557Y-82480038D01*
X190539406Y-82615376D01*
X190538932Y-82764433D01*
X190538271Y-82898583D01*
X190533867Y-83670500D01*
X190202474Y-83861325D01*
X189871082Y-84052150D01*
X189466985Y-83817841D01*
X189347068Y-83748480D01*
X189252568Y-83694473D01*
X189179697Y-83654027D01*
X189124667Y-83625351D01*
X189083688Y-83606655D01*
X189052971Y-83596148D01*
X189028727Y-83592038D01*
X189007167Y-83592535D01*
X188994045Y-83594283D01*
X188959118Y-83606138D01*
X188897121Y-83635097D01*
X188807757Y-83681321D01*
X188690726Y-83744970D01*
X188545731Y-83826204D01*
X188372474Y-83925183D01*
X188281734Y-83977568D01*
X188061532Y-84105154D01*
X187869237Y-84216800D01*
X187703359Y-84313385D01*
X187562408Y-84395790D01*
X187444898Y-84464895D01*
X187349339Y-84521579D01*
X187274242Y-84566723D01*
X187218119Y-84601208D01*
X187179482Y-84625912D01*
X187156841Y-84641716D01*
X187152667Y-84645094D01*
X187123411Y-84690138D01*
X187111163Y-84751515D01*
X187117204Y-84815564D01*
X187132996Y-84854660D01*
X187157394Y-84879118D01*
X187207275Y-84916605D01*
X187278145Y-84964521D01*
X187365514Y-85020267D01*
X187464889Y-85081241D01*
X187571777Y-85144845D01*
X187681687Y-85208478D01*
X187790125Y-85269541D01*
X187892601Y-85325433D01*
X187984621Y-85373554D01*
X188061694Y-85411306D01*
X188119326Y-85436087D01*
X188153027Y-85445297D01*
X188153529Y-85445305D01*
X188184450Y-85440224D01*
X188229496Y-85423624D01*
X188292099Y-85393852D01*
X188375692Y-85349254D01*
X188483706Y-85288175D01*
X188504342Y-85276267D01*
X188594057Y-85224635D01*
X188673603Y-85179352D01*
X188738411Y-85142979D01*
X188783911Y-85118076D01*
X188805533Y-85107203D01*
X188806533Y-85106933D01*
X188809430Y-85122923D01*
X188811396Y-85167140D01*
X188812332Y-85233952D01*
X188812140Y-85317731D01*
X188811320Y-85381242D01*
X188806667Y-85655551D01*
X188439075Y-85868076D01*
X188334918Y-85929083D01*
X188237983Y-85987341D01*
X188152993Y-86039895D01*
X188084671Y-86083789D01*
X188037742Y-86116068D01*
X188019975Y-86130335D01*
X187978285Y-86191393D01*
X187968708Y-86261593D01*
X187991544Y-86338461D01*
X187994042Y-86343406D01*
X188029924Y-86392573D01*
X188079229Y-86419191D01*
X188150510Y-86427701D01*
X188156476Y-86427733D01*
X188181079Y-86425703D01*
X188210308Y-86418438D01*
X188247738Y-86404173D01*
X188296941Y-86381145D01*
X188361491Y-86347590D01*
X188444962Y-86301745D01*
X188550926Y-86241847D01*
X188661356Y-86178564D01*
X188774560Y-86112561D01*
X188880713Y-86048994D01*
X188975492Y-85990583D01*
X189054573Y-85940048D01*
X189113633Y-85900107D01*
X189148347Y-85873480D01*
X189151982Y-85869997D01*
X189209431Y-85810600D01*
X189200634Y-85243792D01*
X189191838Y-84676984D01*
X189138685Y-84629492D01*
X189107931Y-84604388D01*
X189077840Y-84587533D01*
X189044799Y-84580053D01*
X189005193Y-84583075D01*
X188955407Y-84597727D01*
X188891826Y-84625134D01*
X188810835Y-84666425D01*
X188708821Y-84722725D01*
X188582168Y-84795163D01*
X188552712Y-84812178D01*
X188154626Y-85042355D01*
X188074246Y-84996094D01*
X188024623Y-84967417D01*
X187956469Y-84927877D01*
X187880494Y-84883692D01*
X187835230Y-84857317D01*
X187676594Y-84764801D01*
X187826764Y-84677114D01*
X187877987Y-84647351D01*
X187953829Y-84603483D01*
X188049529Y-84548255D01*
X188160327Y-84484409D01*
X188281464Y-84414689D01*
X188408178Y-84341839D01*
X188489747Y-84294987D01*
X189002560Y-84000548D01*
X189065480Y-84030502D01*
X189099831Y-84048290D01*
X189157674Y-84079819D01*
X189233200Y-84121856D01*
X189320596Y-84171163D01*
X189414053Y-84224508D01*
X189416267Y-84225779D01*
X189538564Y-84295920D01*
X189635199Y-84350839D01*
X189709859Y-84392213D01*
X189766231Y-84421719D01*
X189808002Y-84441035D01*
X189838861Y-84451837D01*
X189862492Y-84455802D01*
X189882585Y-84454608D01*
X189902826Y-84449932D01*
X189906730Y-84448861D01*
X189935569Y-84436575D01*
X189989502Y-84409448D01*
X190064384Y-84369726D01*
X190156069Y-84319654D01*
X190260413Y-84261480D01*
X190373270Y-84197448D01*
X190415772Y-84173057D01*
X190557709Y-84090651D01*
X190671719Y-84022834D01*
X190759793Y-83968325D01*
X190823922Y-83925844D01*
X190866098Y-83894111D01*
X190888311Y-83871844D01*
X190891083Y-83867408D01*
X190896111Y-83852822D01*
X190900407Y-83828268D01*
X190904022Y-83791332D01*
X190907010Y-83739600D01*
X190909424Y-83670660D01*
X190911316Y-83582098D01*
X190912739Y-83471500D01*
X190913746Y-83336455D01*
X190914391Y-83174548D01*
X190914725Y-82983366D01*
X190914804Y-82783674D01*
X190914749Y-82569890D01*
D12*
X159668981Y-87350600D02*
G75*
G03X159668981Y-87350600I-283981J0D01*
G01*
X158115000Y-103505000D02*
X158546800Y-103505000D01*
X158115000Y-85725000D02*
X158546800Y-85725000D01*
X184785000Y-85725000D02*
X184353200Y-85725000D01*
X184785000Y-89535000D02*
X184785000Y-89966800D01*
X184785000Y-103505000D02*
X184226200Y-103505000D01*
X184785000Y-99695000D02*
X184785000Y-99263200D01*
X184785000Y-89535000D02*
X184785000Y-85725000D01*
X184785000Y-103505000D02*
X184785000Y-99695000D01*
X158115000Y-103505000D02*
X158115000Y-85725000D01*
D10*
X195900000Y-97685000D02*
X195900000Y-90765000D01*
X192850000Y-90765000D02*
X195900000Y-90765000D01*
X192850000Y-90765000D02*
X192850000Y-97685000D01*
X192850000Y-97685000D02*
X195900000Y-97685000D01*
D12*
X158241905Y-84542381D02*
X158241905Y-85351905D01*
X158194286Y-85447143D01*
X158146667Y-85494762D01*
X158051429Y-85542381D01*
X157860952Y-85542381D01*
X157765714Y-85494762D01*
X157718095Y-85447143D01*
X157670476Y-85351905D01*
X157670476Y-84542381D01*
X157289524Y-84542381D02*
X156670476Y-84542381D01*
X157003810Y-84923333D01*
X156860952Y-84923333D01*
X156765714Y-84970952D01*
X156718095Y-85018571D01*
X156670476Y-85113810D01*
X156670476Y-85351905D01*
X156718095Y-85447143D01*
X156765714Y-85494762D01*
X156860952Y-85542381D01*
X157146667Y-85542381D01*
X157241905Y-85494762D01*
X157289524Y-85447143D01*
X194127381Y-93876905D02*
X193127381Y-93876905D01*
X193127381Y-94257858D01*
X193175000Y-94353096D01*
X193222619Y-94400715D01*
X193317857Y-94448334D01*
X193460714Y-94448334D01*
X193555952Y-94400715D01*
X193603571Y-94353096D01*
X193651190Y-94257858D01*
X193651190Y-93876905D01*
X194127381Y-95400715D02*
X194127381Y-94829286D01*
X194127381Y-95115000D02*
X193127381Y-95115000D01*
X193270238Y-95019762D01*
X193365476Y-94924524D01*
X193413095Y-94829286D01*
M02*
