G04 #@! TF.FileFunction,Paste,Top*
%FSLAX46Y46*%
G04 Gerber Fmt 4.6, Leading zero omitted, Abs format (unit mm)*
G04 Created by KiCad (PCBNEW 4.0.7-e2-6376~58~ubuntu17.04.1) date Sat Oct 28 17:51:25 2017*
%MOMM*%
%LPD*%
G01*
G04 APERTURE LIST*
%ADD10C,0.100000*%
%ADD11R,0.750000X1.200000*%
%ADD12R,1.200000X0.750000*%
%ADD13R,0.900000X1.200000*%
%ADD14R,1.200000X0.900000*%
%ADD15R,1.000760X1.000760*%
%ADD16R,0.550000X1.600000*%
%ADD17R,1.600000X0.550000*%
%ADD18R,0.600000X1.550000*%
%ADD19R,0.650000X1.220000*%
%ADD20R,0.700000X1.700000*%
%ADD21R,1.900000X1.500000*%
%ADD22R,1.350000X0.400000*%
%ADD23R,1.220000X0.650000*%
%ADD24R,0.970000X1.270000*%
%ADD25R,1.270000X0.970000*%
%ADD26R,1.560000X0.650000*%
%ADD27R,1.500000X1.950000*%
G04 APERTURE END LIST*
D10*
D11*
X166370000Y-85405000D03*
X166370000Y-83505000D03*
X169545000Y-83505000D03*
X169545000Y-85405000D03*
D12*
X181290000Y-104775000D03*
X179390000Y-104775000D03*
D11*
X156845000Y-85405000D03*
X156845000Y-83505000D03*
X163195000Y-85405000D03*
X163195000Y-83505000D03*
X185420000Y-85405000D03*
X185420000Y-83505000D03*
D13*
X182245000Y-94150000D03*
X182245000Y-96350000D03*
X185420000Y-88435000D03*
X185420000Y-90635000D03*
D14*
X181440000Y-100965000D03*
X179240000Y-100965000D03*
D13*
X182245000Y-85555000D03*
X182245000Y-83355000D03*
X179070000Y-85555000D03*
X179070000Y-83355000D03*
X153670000Y-85555000D03*
X153670000Y-83355000D03*
X182245000Y-88435000D03*
X182245000Y-90635000D03*
X160020000Y-83355000D03*
X160020000Y-85555000D03*
X163195000Y-88435000D03*
X163195000Y-90635000D03*
D15*
X187904120Y-104315260D03*
X184205880Y-110314740D03*
X184205880Y-104315260D03*
X187904120Y-110314740D03*
D16*
X171190000Y-97595000D03*
X171990000Y-97595000D03*
X172790000Y-97595000D03*
X173590000Y-97595000D03*
X174390000Y-97595000D03*
X175190000Y-97595000D03*
X175990000Y-97595000D03*
X176790000Y-97595000D03*
D17*
X178240000Y-96145000D03*
X178240000Y-95345000D03*
X178240000Y-94545000D03*
X178240000Y-93745000D03*
X178240000Y-92945000D03*
X178240000Y-92145000D03*
X178240000Y-91345000D03*
X178240000Y-90545000D03*
D16*
X176790000Y-89095000D03*
X175990000Y-89095000D03*
X175190000Y-89095000D03*
X174390000Y-89095000D03*
X173590000Y-89095000D03*
X172790000Y-89095000D03*
X171990000Y-89095000D03*
X171190000Y-89095000D03*
D17*
X169740000Y-90545000D03*
X169740000Y-91345000D03*
X169740000Y-92145000D03*
X169740000Y-92945000D03*
X169740000Y-93745000D03*
X169740000Y-94545000D03*
X169740000Y-95345000D03*
X169740000Y-96145000D03*
D18*
X165735000Y-100170000D03*
X164465000Y-100170000D03*
X163195000Y-100170000D03*
X161925000Y-100170000D03*
X161925000Y-105570000D03*
X163195000Y-105570000D03*
X164465000Y-105570000D03*
X165735000Y-105570000D03*
D19*
X173675000Y-85765000D03*
X175575000Y-85765000D03*
X174625000Y-83145000D03*
D20*
X176460000Y-100965000D03*
X175260000Y-100965000D03*
X174060000Y-100965000D03*
D11*
X160020000Y-88585000D03*
X160020000Y-90485000D03*
D14*
X159385000Y-93600000D03*
X159385000Y-96900000D03*
X163195000Y-93600000D03*
X163195000Y-96900000D03*
X153840000Y-92710000D03*
X156040000Y-92710000D03*
D21*
X147605000Y-92440000D03*
D22*
X150305000Y-90790000D03*
X150305000Y-90140000D03*
X150305000Y-92740000D03*
X150305000Y-92090000D03*
X150305000Y-91440000D03*
D21*
X147605000Y-90440000D03*
D23*
X168870000Y-103825000D03*
X168870000Y-105725000D03*
X171490000Y-104775000D03*
D14*
X174160000Y-104775000D03*
X176360000Y-104775000D03*
D13*
X166370000Y-94150000D03*
X166370000Y-96350000D03*
X166370000Y-90635000D03*
X166370000Y-88435000D03*
D24*
X168905000Y-100330000D03*
X170185000Y-100330000D03*
D14*
X190035000Y-101600000D03*
X192235000Y-101600000D03*
X190035000Y-106680000D03*
X192235000Y-106680000D03*
D25*
X185420000Y-95890000D03*
X185420000Y-94610000D03*
X185420000Y-101605000D03*
X185420000Y-100325000D03*
D14*
X192235000Y-99060000D03*
X190035000Y-99060000D03*
X192235000Y-104140000D03*
X190035000Y-104140000D03*
D26*
X156290000Y-97470000D03*
X156290000Y-96520000D03*
X156290000Y-95570000D03*
X153590000Y-95570000D03*
X153590000Y-97470000D03*
D19*
X156525000Y-88225000D03*
X154625000Y-88225000D03*
X155575000Y-90845000D03*
D27*
X153670000Y-100860000D03*
X153670000Y-103610000D03*
X158115000Y-100860000D03*
X158115000Y-103610000D03*
M02*
