G04 #@! TF.FileFunction,Legend,Bot*
%FSLAX46Y46*%
G04 Gerber Fmt 4.6, Leading zero omitted, Abs format (unit mm)*
G04 Created by KiCad (PCBNEW 4.0.7-e2-6376~60~ubuntu17.10.1) date Tue Dec  5 13:17:51 2017*
%MOMM*%
%LPD*%
G01*
G04 APERTURE LIST*
%ADD10C,0.100000*%
%ADD11C,0.010000*%
%ADD12C,0.150000*%
%ADD13C,0.381000*%
%ADD14C,0.304800*%
G04 APERTURE END LIST*
D10*
X149682142Y-85425000D02*
X149739285Y-85396429D01*
X149824999Y-85396429D01*
X149910714Y-85425000D01*
X149967856Y-85482143D01*
X149996428Y-85539286D01*
X150024999Y-85653571D01*
X150024999Y-85739286D01*
X149996428Y-85853571D01*
X149967856Y-85910714D01*
X149910714Y-85967857D01*
X149824999Y-85996429D01*
X149767856Y-85996429D01*
X149682142Y-85967857D01*
X149653571Y-85939286D01*
X149653571Y-85739286D01*
X149767856Y-85739286D01*
X149396428Y-85996429D02*
X149396428Y-85396429D01*
X149053571Y-85996429D01*
X149053571Y-85396429D01*
X148767857Y-85996429D02*
X148767857Y-85396429D01*
X148625000Y-85396429D01*
X148539285Y-85425000D01*
X148482143Y-85482143D01*
X148453571Y-85539286D01*
X148425000Y-85653571D01*
X148425000Y-85739286D01*
X148453571Y-85853571D01*
X148482143Y-85910714D01*
X148539285Y-85967857D01*
X148625000Y-85996429D01*
X148767857Y-85996429D01*
X150239286Y-81322857D02*
X149782143Y-81322857D01*
X150010714Y-81551429D02*
X150010714Y-81094286D01*
X149296429Y-81237143D02*
X149210715Y-81265714D01*
X149182143Y-81294286D01*
X149153572Y-81351429D01*
X149153572Y-81437143D01*
X149182143Y-81494286D01*
X149210715Y-81522857D01*
X149267857Y-81551429D01*
X149496429Y-81551429D01*
X149496429Y-80951429D01*
X149296429Y-80951429D01*
X149239286Y-80980000D01*
X149210715Y-81008571D01*
X149182143Y-81065714D01*
X149182143Y-81122857D01*
X149210715Y-81180000D01*
X149239286Y-81208571D01*
X149296429Y-81237143D01*
X149496429Y-81237143D01*
X148925000Y-81380000D02*
X148639286Y-81380000D01*
X148982143Y-81551429D02*
X148782143Y-80951429D01*
X148582143Y-81551429D01*
X148467857Y-80951429D02*
X148125000Y-80951429D01*
X148296429Y-81551429D02*
X148296429Y-80951429D01*
D11*
G36*
X186675082Y-105270256D02*
X186647432Y-105214799D01*
X186596520Y-105165852D01*
X186577662Y-105152371D01*
X186552985Y-105137686D01*
X186526184Y-105128158D01*
X186490413Y-105122707D01*
X186438831Y-105120253D01*
X186370733Y-105119714D01*
X186277412Y-105122148D01*
X186207343Y-105130606D01*
X186155069Y-105146826D01*
X186115131Y-105172546D01*
X186082071Y-105209503D01*
X186080114Y-105212218D01*
X186060092Y-105248640D01*
X186050185Y-105292498D01*
X186047743Y-105348276D01*
X186047743Y-105438952D01*
X185959717Y-105438990D01*
X185910692Y-105439834D01*
X185881935Y-105444976D01*
X185864689Y-105458413D01*
X185850192Y-105484142D01*
X185847231Y-105490321D01*
X185833352Y-105519236D01*
X185824586Y-105541624D01*
X185823829Y-105558271D01*
X185833977Y-105569964D01*
X185857927Y-105577490D01*
X185898574Y-105581634D01*
X185958814Y-105583185D01*
X186041545Y-105582929D01*
X186149661Y-105581651D01*
X186182000Y-105581252D01*
X186293476Y-105579815D01*
X186366397Y-105578528D01*
X186366397Y-105439029D01*
X186304501Y-105438245D01*
X186264003Y-105434760D01*
X186237292Y-105426876D01*
X186216756Y-105412895D01*
X186206740Y-105403403D01*
X186177433Y-105364596D01*
X186175048Y-105330237D01*
X186199250Y-105294784D01*
X186200143Y-105293886D01*
X186218847Y-105279461D01*
X186244268Y-105270687D01*
X186283416Y-105266261D01*
X186343303Y-105264882D01*
X186356570Y-105264857D01*
X186439099Y-105268188D01*
X186496309Y-105279031D01*
X186531234Y-105298660D01*
X186546906Y-105328350D01*
X186548486Y-105345509D01*
X186541074Y-105386234D01*
X186516670Y-105414168D01*
X186472020Y-105430983D01*
X186403870Y-105438350D01*
X186366397Y-105439029D01*
X186366397Y-105578528D01*
X186379755Y-105578292D01*
X186444667Y-105576323D01*
X186492042Y-105573550D01*
X186525710Y-105569612D01*
X186549502Y-105564151D01*
X186567247Y-105556808D01*
X186582776Y-105547223D01*
X186588619Y-105543113D01*
X186643815Y-105488595D01*
X186675110Y-105419664D01*
X186683835Y-105339928D01*
X186675082Y-105270256D01*
X186675082Y-105270256D01*
G37*
X186675082Y-105270256D02*
X186647432Y-105214799D01*
X186596520Y-105165852D01*
X186577662Y-105152371D01*
X186552985Y-105137686D01*
X186526184Y-105128158D01*
X186490413Y-105122707D01*
X186438831Y-105120253D01*
X186370733Y-105119714D01*
X186277412Y-105122148D01*
X186207343Y-105130606D01*
X186155069Y-105146826D01*
X186115131Y-105172546D01*
X186082071Y-105209503D01*
X186080114Y-105212218D01*
X186060092Y-105248640D01*
X186050185Y-105292498D01*
X186047743Y-105348276D01*
X186047743Y-105438952D01*
X185959717Y-105438990D01*
X185910692Y-105439834D01*
X185881935Y-105444976D01*
X185864689Y-105458413D01*
X185850192Y-105484142D01*
X185847231Y-105490321D01*
X185833352Y-105519236D01*
X185824586Y-105541624D01*
X185823829Y-105558271D01*
X185833977Y-105569964D01*
X185857927Y-105577490D01*
X185898574Y-105581634D01*
X185958814Y-105583185D01*
X186041545Y-105582929D01*
X186149661Y-105581651D01*
X186182000Y-105581252D01*
X186293476Y-105579815D01*
X186366397Y-105578528D01*
X186366397Y-105439029D01*
X186304501Y-105438245D01*
X186264003Y-105434760D01*
X186237292Y-105426876D01*
X186216756Y-105412895D01*
X186206740Y-105403403D01*
X186177433Y-105364596D01*
X186175048Y-105330237D01*
X186199250Y-105294784D01*
X186200143Y-105293886D01*
X186218847Y-105279461D01*
X186244268Y-105270687D01*
X186283416Y-105266261D01*
X186343303Y-105264882D01*
X186356570Y-105264857D01*
X186439099Y-105268188D01*
X186496309Y-105279031D01*
X186531234Y-105298660D01*
X186546906Y-105328350D01*
X186548486Y-105345509D01*
X186541074Y-105386234D01*
X186516670Y-105414168D01*
X186472020Y-105430983D01*
X186403870Y-105438350D01*
X186366397Y-105439029D01*
X186366397Y-105578528D01*
X186379755Y-105578292D01*
X186444667Y-105576323D01*
X186492042Y-105573550D01*
X186525710Y-105569612D01*
X186549502Y-105564151D01*
X186567247Y-105556808D01*
X186582776Y-105547223D01*
X186588619Y-105543113D01*
X186643815Y-105488595D01*
X186675110Y-105419664D01*
X186683835Y-105339928D01*
X186675082Y-105270256D01*
G36*
X186667220Y-104153907D02*
X186640277Y-104107328D01*
X186613534Y-104074943D01*
X186585516Y-104051258D01*
X186551252Y-104034941D01*
X186505773Y-104024661D01*
X186444108Y-104019086D01*
X186361289Y-104016884D01*
X186301754Y-104016629D01*
X186082609Y-104016629D01*
X186054956Y-104078314D01*
X186027303Y-104140000D01*
X186267330Y-104147257D01*
X186356972Y-104150256D01*
X186422038Y-104153402D01*
X186466974Y-104157299D01*
X186496230Y-104162553D01*
X186514252Y-104169769D01*
X186525489Y-104179550D01*
X186527921Y-104182688D01*
X186546917Y-104230239D01*
X186539400Y-104278303D01*
X186519457Y-104306914D01*
X186505325Y-104318553D01*
X186486780Y-104326609D01*
X186458666Y-104331729D01*
X186415827Y-104334559D01*
X186353105Y-104335744D01*
X186287739Y-104335943D01*
X186205732Y-104335982D01*
X186147684Y-104337386D01*
X186108535Y-104342086D01*
X186083220Y-104352013D01*
X186066677Y-104369097D01*
X186053844Y-104395268D01*
X186040509Y-104430225D01*
X186025993Y-104468404D01*
X186283611Y-104463859D01*
X186376481Y-104462029D01*
X186445111Y-104459888D01*
X186494289Y-104456819D01*
X186528802Y-104452206D01*
X186553438Y-104445432D01*
X186572984Y-104435881D01*
X186590230Y-104424366D01*
X186645320Y-104368810D01*
X186677178Y-104301020D01*
X186684809Y-104227287D01*
X186667220Y-104153907D01*
X186667220Y-104153907D01*
G37*
X186667220Y-104153907D02*
X186640277Y-104107328D01*
X186613534Y-104074943D01*
X186585516Y-104051258D01*
X186551252Y-104034941D01*
X186505773Y-104024661D01*
X186444108Y-104019086D01*
X186361289Y-104016884D01*
X186301754Y-104016629D01*
X186082609Y-104016629D01*
X186054956Y-104078314D01*
X186027303Y-104140000D01*
X186267330Y-104147257D01*
X186356972Y-104150256D01*
X186422038Y-104153402D01*
X186466974Y-104157299D01*
X186496230Y-104162553D01*
X186514252Y-104169769D01*
X186525489Y-104179550D01*
X186527921Y-104182688D01*
X186546917Y-104230239D01*
X186539400Y-104278303D01*
X186519457Y-104306914D01*
X186505325Y-104318553D01*
X186486780Y-104326609D01*
X186458666Y-104331729D01*
X186415827Y-104334559D01*
X186353105Y-104335744D01*
X186287739Y-104335943D01*
X186205732Y-104335982D01*
X186147684Y-104337386D01*
X186108535Y-104342086D01*
X186083220Y-104352013D01*
X186066677Y-104369097D01*
X186053844Y-104395268D01*
X186040509Y-104430225D01*
X186025993Y-104468404D01*
X186283611Y-104463859D01*
X186376481Y-104462029D01*
X186445111Y-104459888D01*
X186494289Y-104456819D01*
X186528802Y-104452206D01*
X186553438Y-104445432D01*
X186572984Y-104435881D01*
X186590230Y-104424366D01*
X186645320Y-104368810D01*
X186677178Y-104301020D01*
X186684809Y-104227287D01*
X186667220Y-104153907D01*
G36*
X186673038Y-105828885D02*
X186637267Y-105760855D01*
X186579699Y-105710649D01*
X186542688Y-105692815D01*
X186487118Y-105678937D01*
X186416904Y-105671833D01*
X186340273Y-105671160D01*
X186265448Y-105676573D01*
X186200658Y-105687730D01*
X186154127Y-105704286D01*
X186146113Y-105709374D01*
X186086293Y-105769645D01*
X186050465Y-105841231D01*
X186039980Y-105918908D01*
X186056190Y-105997452D01*
X186065908Y-106019311D01*
X186095857Y-106061878D01*
X186135567Y-106099237D01*
X186140603Y-106102768D01*
X186164876Y-106117119D01*
X186190822Y-106126606D01*
X186224978Y-106132210D01*
X186273881Y-106134914D01*
X186344065Y-106135701D01*
X186359800Y-106135714D01*
X186364808Y-106135678D01*
X186364808Y-105990571D01*
X186298570Y-105989727D01*
X186254614Y-105986404D01*
X186226221Y-105979417D01*
X186206675Y-105967584D01*
X186200143Y-105961543D01*
X186175320Y-105926814D01*
X186176452Y-105893097D01*
X186197984Y-105859005D01*
X186220971Y-105838671D01*
X186254522Y-105826629D01*
X186307431Y-105819866D01*
X186313601Y-105819402D01*
X186409487Y-105818248D01*
X186480701Y-105830312D01*
X186526806Y-105855430D01*
X186547365Y-105893440D01*
X186548486Y-105907008D01*
X186542848Y-105942636D01*
X186523314Y-105967006D01*
X186485958Y-105981907D01*
X186426850Y-105989125D01*
X186364808Y-105990571D01*
X186364808Y-106135678D01*
X186434587Y-106135174D01*
X186486841Y-106132904D01*
X186523051Y-106127932D01*
X186549701Y-106119287D01*
X186573278Y-106105995D01*
X186577662Y-106103057D01*
X186636751Y-106053687D01*
X186671053Y-105999891D01*
X186684669Y-105934398D01*
X186685335Y-105912158D01*
X186673038Y-105828885D01*
X186673038Y-105828885D01*
G37*
X186673038Y-105828885D02*
X186637267Y-105760855D01*
X186579699Y-105710649D01*
X186542688Y-105692815D01*
X186487118Y-105678937D01*
X186416904Y-105671833D01*
X186340273Y-105671160D01*
X186265448Y-105676573D01*
X186200658Y-105687730D01*
X186154127Y-105704286D01*
X186146113Y-105709374D01*
X186086293Y-105769645D01*
X186050465Y-105841231D01*
X186039980Y-105918908D01*
X186056190Y-105997452D01*
X186065908Y-106019311D01*
X186095857Y-106061878D01*
X186135567Y-106099237D01*
X186140603Y-106102768D01*
X186164876Y-106117119D01*
X186190822Y-106126606D01*
X186224978Y-106132210D01*
X186273881Y-106134914D01*
X186344065Y-106135701D01*
X186359800Y-106135714D01*
X186364808Y-106135678D01*
X186364808Y-105990571D01*
X186298570Y-105989727D01*
X186254614Y-105986404D01*
X186226221Y-105979417D01*
X186206675Y-105967584D01*
X186200143Y-105961543D01*
X186175320Y-105926814D01*
X186176452Y-105893097D01*
X186197984Y-105859005D01*
X186220971Y-105838671D01*
X186254522Y-105826629D01*
X186307431Y-105819866D01*
X186313601Y-105819402D01*
X186409487Y-105818248D01*
X186480701Y-105830312D01*
X186526806Y-105855430D01*
X186547365Y-105893440D01*
X186548486Y-105907008D01*
X186542848Y-105942636D01*
X186523314Y-105967006D01*
X186485958Y-105981907D01*
X186426850Y-105989125D01*
X186364808Y-105990571D01*
X186364808Y-106135678D01*
X186434587Y-106135174D01*
X186486841Y-106132904D01*
X186523051Y-106127932D01*
X186549701Y-106119287D01*
X186573278Y-106105995D01*
X186577662Y-106103057D01*
X186636751Y-106053687D01*
X186671053Y-105999891D01*
X186684669Y-105934398D01*
X186685335Y-105912158D01*
X186673038Y-105828885D01*
G36*
X186663761Y-104701697D02*
X186625265Y-104644473D01*
X186569665Y-104600251D01*
X186498914Y-104573833D01*
X186446838Y-104568490D01*
X186425107Y-104569097D01*
X186408469Y-104574178D01*
X186393563Y-104588145D01*
X186377027Y-104615411D01*
X186355502Y-104660388D01*
X186325626Y-104727489D01*
X186325476Y-104727829D01*
X186297187Y-104789593D01*
X186272067Y-104840241D01*
X186252821Y-104874596D01*
X186242152Y-104887482D01*
X186242066Y-104887486D01*
X186218834Y-104876128D01*
X186193226Y-104849569D01*
X186174779Y-104819077D01*
X186171114Y-104803630D01*
X186183788Y-104761485D01*
X186215529Y-104725192D01*
X186250428Y-104707483D01*
X186276155Y-104690448D01*
X186305454Y-104657078D01*
X186330765Y-104617851D01*
X186344529Y-104583244D01*
X186345286Y-104576007D01*
X186332840Y-104567861D01*
X186301028Y-104567370D01*
X186258134Y-104573357D01*
X186212442Y-104584643D01*
X186172239Y-104600050D01*
X186170678Y-104600829D01*
X186105938Y-104647196D01*
X186061903Y-104707289D01*
X186040289Y-104775535D01*
X186042815Y-104846362D01*
X186071196Y-104914196D01*
X186073192Y-104917212D01*
X186121552Y-104970573D01*
X186184648Y-105005660D01*
X186267613Y-105025078D01*
X186290922Y-105027684D01*
X186400945Y-105032299D01*
X186452252Y-105026767D01*
X186452252Y-104887486D01*
X186420247Y-104885676D01*
X186410907Y-104875778D01*
X186417895Y-104851102D01*
X186434413Y-104812205D01*
X186455119Y-104768725D01*
X186455667Y-104767644D01*
X186475051Y-104730791D01*
X186487987Y-104716000D01*
X186501549Y-104719647D01*
X186519368Y-104735005D01*
X186545155Y-104774077D01*
X186547050Y-104816154D01*
X186528283Y-104853897D01*
X186492085Y-104879966D01*
X186452252Y-104887486D01*
X186452252Y-105026767D01*
X186488973Y-105022806D01*
X186558788Y-104998450D01*
X186607698Y-104964544D01*
X186657122Y-104903347D01*
X186681641Y-104835937D01*
X186683203Y-104767120D01*
X186663761Y-104701697D01*
X186663761Y-104701697D01*
G37*
X186663761Y-104701697D02*
X186625265Y-104644473D01*
X186569665Y-104600251D01*
X186498914Y-104573833D01*
X186446838Y-104568490D01*
X186425107Y-104569097D01*
X186408469Y-104574178D01*
X186393563Y-104588145D01*
X186377027Y-104615411D01*
X186355502Y-104660388D01*
X186325626Y-104727489D01*
X186325476Y-104727829D01*
X186297187Y-104789593D01*
X186272067Y-104840241D01*
X186252821Y-104874596D01*
X186242152Y-104887482D01*
X186242066Y-104887486D01*
X186218834Y-104876128D01*
X186193226Y-104849569D01*
X186174779Y-104819077D01*
X186171114Y-104803630D01*
X186183788Y-104761485D01*
X186215529Y-104725192D01*
X186250428Y-104707483D01*
X186276155Y-104690448D01*
X186305454Y-104657078D01*
X186330765Y-104617851D01*
X186344529Y-104583244D01*
X186345286Y-104576007D01*
X186332840Y-104567861D01*
X186301028Y-104567370D01*
X186258134Y-104573357D01*
X186212442Y-104584643D01*
X186172239Y-104600050D01*
X186170678Y-104600829D01*
X186105938Y-104647196D01*
X186061903Y-104707289D01*
X186040289Y-104775535D01*
X186042815Y-104846362D01*
X186071196Y-104914196D01*
X186073192Y-104917212D01*
X186121552Y-104970573D01*
X186184648Y-105005660D01*
X186267613Y-105025078D01*
X186290922Y-105027684D01*
X186400945Y-105032299D01*
X186452252Y-105026767D01*
X186452252Y-104887486D01*
X186420247Y-104885676D01*
X186410907Y-104875778D01*
X186417895Y-104851102D01*
X186434413Y-104812205D01*
X186455119Y-104768725D01*
X186455667Y-104767644D01*
X186475051Y-104730791D01*
X186487987Y-104716000D01*
X186501549Y-104719647D01*
X186519368Y-104735005D01*
X186545155Y-104774077D01*
X186547050Y-104816154D01*
X186528283Y-104853897D01*
X186492085Y-104879966D01*
X186452252Y-104887486D01*
X186452252Y-105026767D01*
X186488973Y-105022806D01*
X186558788Y-104998450D01*
X186607698Y-104964544D01*
X186657122Y-104903347D01*
X186681641Y-104835937D01*
X186683203Y-104767120D01*
X186663761Y-104701697D01*
G36*
X186743711Y-103494114D02*
X186684387Y-103489861D01*
X186649428Y-103484975D01*
X186634180Y-103478205D01*
X186633985Y-103468298D01*
X186635805Y-103465086D01*
X186648985Y-103422356D01*
X186648215Y-103366773D01*
X186634667Y-103310263D01*
X186617139Y-103274918D01*
X186589139Y-103238679D01*
X186557451Y-103212187D01*
X186517187Y-103194001D01*
X186463457Y-103182678D01*
X186391374Y-103176778D01*
X186296049Y-103174857D01*
X186277763Y-103174823D01*
X186072354Y-103174800D01*
X186056420Y-103220509D01*
X186045580Y-103252973D01*
X186040532Y-103270785D01*
X186040486Y-103271309D01*
X186054172Y-103273063D01*
X186091924Y-103274556D01*
X186148776Y-103275674D01*
X186219766Y-103276303D01*
X186262927Y-103276400D01*
X186348027Y-103276602D01*
X186409019Y-103277642D01*
X186450823Y-103280169D01*
X186478358Y-103284836D01*
X186496544Y-103292293D01*
X186510302Y-103303189D01*
X186516927Y-103309993D01*
X186543625Y-103356728D01*
X186545625Y-103407728D01*
X186523045Y-103453999D01*
X186514893Y-103462556D01*
X186499564Y-103475107D01*
X186481382Y-103483812D01*
X186455091Y-103489369D01*
X186415438Y-103492474D01*
X186357168Y-103493824D01*
X186276827Y-103494114D01*
X186072354Y-103494114D01*
X186056420Y-103539823D01*
X186045580Y-103572287D01*
X186040532Y-103590099D01*
X186040486Y-103590623D01*
X186054377Y-103591963D01*
X186093561Y-103593172D01*
X186154300Y-103594199D01*
X186232859Y-103594998D01*
X186325502Y-103595519D01*
X186428491Y-103595714D01*
X186825658Y-103595714D01*
X186845556Y-103548543D01*
X186865453Y-103501371D01*
X186743711Y-103494114D01*
X186743711Y-103494114D01*
G37*
X186743711Y-103494114D02*
X186684387Y-103489861D01*
X186649428Y-103484975D01*
X186634180Y-103478205D01*
X186633985Y-103468298D01*
X186635805Y-103465086D01*
X186648985Y-103422356D01*
X186648215Y-103366773D01*
X186634667Y-103310263D01*
X186617139Y-103274918D01*
X186589139Y-103238679D01*
X186557451Y-103212187D01*
X186517187Y-103194001D01*
X186463457Y-103182678D01*
X186391374Y-103176778D01*
X186296049Y-103174857D01*
X186277763Y-103174823D01*
X186072354Y-103174800D01*
X186056420Y-103220509D01*
X186045580Y-103252973D01*
X186040532Y-103270785D01*
X186040486Y-103271309D01*
X186054172Y-103273063D01*
X186091924Y-103274556D01*
X186148776Y-103275674D01*
X186219766Y-103276303D01*
X186262927Y-103276400D01*
X186348027Y-103276602D01*
X186409019Y-103277642D01*
X186450823Y-103280169D01*
X186478358Y-103284836D01*
X186496544Y-103292293D01*
X186510302Y-103303189D01*
X186516927Y-103309993D01*
X186543625Y-103356728D01*
X186545625Y-103407728D01*
X186523045Y-103453999D01*
X186514893Y-103462556D01*
X186499564Y-103475107D01*
X186481382Y-103483812D01*
X186455091Y-103489369D01*
X186415438Y-103492474D01*
X186357168Y-103493824D01*
X186276827Y-103494114D01*
X186072354Y-103494114D01*
X186056420Y-103539823D01*
X186045580Y-103572287D01*
X186040532Y-103590099D01*
X186040486Y-103590623D01*
X186054377Y-103591963D01*
X186093561Y-103593172D01*
X186154300Y-103594199D01*
X186232859Y-103594998D01*
X186325502Y-103595519D01*
X186428491Y-103595714D01*
X186825658Y-103595714D01*
X186845556Y-103548543D01*
X186865453Y-103501371D01*
X186743711Y-103494114D01*
G36*
X186644032Y-102830256D02*
X186622913Y-102773384D01*
X186622507Y-102772733D01*
X186596620Y-102737560D01*
X186566367Y-102711593D01*
X186526942Y-102693330D01*
X186473538Y-102681268D01*
X186401349Y-102673904D01*
X186305568Y-102669736D01*
X186291922Y-102669371D01*
X186086158Y-102664124D01*
X186063322Y-102708284D01*
X186047890Y-102740237D01*
X186040577Y-102759530D01*
X186040486Y-102760422D01*
X186053978Y-102763761D01*
X186090374Y-102766413D01*
X186143548Y-102768044D01*
X186186607Y-102768400D01*
X186256359Y-102768408D01*
X186300163Y-102771597D01*
X186321056Y-102782712D01*
X186322075Y-102806499D01*
X186306259Y-102847704D01*
X186277185Y-102909914D01*
X186253037Y-102955659D01*
X186232087Y-102979187D01*
X186209253Y-102986104D01*
X186208123Y-102986114D01*
X186168788Y-102974701D01*
X186147538Y-102940908D01*
X186144461Y-102889191D01*
X186144994Y-102851939D01*
X186134265Y-102832297D01*
X186108495Y-102820048D01*
X186075663Y-102812998D01*
X186057034Y-102823158D01*
X186054368Y-102826983D01*
X186043660Y-102862999D01*
X186042144Y-102913434D01*
X186049241Y-102965374D01*
X186062212Y-103002178D01*
X186105415Y-103053062D01*
X186165554Y-103081986D01*
X186212538Y-103087714D01*
X186254918Y-103083343D01*
X186289512Y-103067525D01*
X186320237Y-103036203D01*
X186351010Y-102985322D01*
X186385748Y-102910824D01*
X186387712Y-102906286D01*
X186418713Y-102839179D01*
X186444138Y-102797768D01*
X186466986Y-102780019D01*
X186490255Y-102783893D01*
X186516944Y-102807357D01*
X186523086Y-102814373D01*
X186546900Y-102861370D01*
X186545897Y-102910067D01*
X186522549Y-102952478D01*
X186479325Y-102980616D01*
X186470840Y-102983231D01*
X186429692Y-103008692D01*
X186409872Y-103040999D01*
X186390230Y-103087714D01*
X186441050Y-103087714D01*
X186514918Y-103073504D01*
X186582673Y-103031325D01*
X186605339Y-103009376D01*
X186634431Y-102959483D01*
X186647600Y-102896033D01*
X186644032Y-102830256D01*
X186644032Y-102830256D01*
G37*
X186644032Y-102830256D02*
X186622913Y-102773384D01*
X186622507Y-102772733D01*
X186596620Y-102737560D01*
X186566367Y-102711593D01*
X186526942Y-102693330D01*
X186473538Y-102681268D01*
X186401349Y-102673904D01*
X186305568Y-102669736D01*
X186291922Y-102669371D01*
X186086158Y-102664124D01*
X186063322Y-102708284D01*
X186047890Y-102740237D01*
X186040577Y-102759530D01*
X186040486Y-102760422D01*
X186053978Y-102763761D01*
X186090374Y-102766413D01*
X186143548Y-102768044D01*
X186186607Y-102768400D01*
X186256359Y-102768408D01*
X186300163Y-102771597D01*
X186321056Y-102782712D01*
X186322075Y-102806499D01*
X186306259Y-102847704D01*
X186277185Y-102909914D01*
X186253037Y-102955659D01*
X186232087Y-102979187D01*
X186209253Y-102986104D01*
X186208123Y-102986114D01*
X186168788Y-102974701D01*
X186147538Y-102940908D01*
X186144461Y-102889191D01*
X186144994Y-102851939D01*
X186134265Y-102832297D01*
X186108495Y-102820048D01*
X186075663Y-102812998D01*
X186057034Y-102823158D01*
X186054368Y-102826983D01*
X186043660Y-102862999D01*
X186042144Y-102913434D01*
X186049241Y-102965374D01*
X186062212Y-103002178D01*
X186105415Y-103053062D01*
X186165554Y-103081986D01*
X186212538Y-103087714D01*
X186254918Y-103083343D01*
X186289512Y-103067525D01*
X186320237Y-103036203D01*
X186351010Y-102985322D01*
X186385748Y-102910824D01*
X186387712Y-102906286D01*
X186418713Y-102839179D01*
X186444138Y-102797768D01*
X186466986Y-102780019D01*
X186490255Y-102783893D01*
X186516944Y-102807357D01*
X186523086Y-102814373D01*
X186546900Y-102861370D01*
X186545897Y-102910067D01*
X186522549Y-102952478D01*
X186479325Y-102980616D01*
X186470840Y-102983231D01*
X186429692Y-103008692D01*
X186409872Y-103040999D01*
X186390230Y-103087714D01*
X186441050Y-103087714D01*
X186514918Y-103073504D01*
X186582673Y-103031325D01*
X186605339Y-103009376D01*
X186634431Y-102959483D01*
X186647600Y-102896033D01*
X186644032Y-102830256D01*
G36*
X186645245Y-102340074D02*
X186620916Y-102274142D01*
X186577883Y-102220727D01*
X186547591Y-102199836D01*
X186492006Y-102177061D01*
X186451814Y-102177534D01*
X186424783Y-102201438D01*
X186420187Y-102210283D01*
X186405856Y-102248470D01*
X186409528Y-102267972D01*
X186433593Y-102274578D01*
X186446886Y-102274914D01*
X186495790Y-102287008D01*
X186530001Y-102318529D01*
X186546524Y-102362341D01*
X186542366Y-102411305D01*
X186520773Y-102451106D01*
X186508456Y-102464550D01*
X186493513Y-102474079D01*
X186470925Y-102480515D01*
X186435672Y-102484683D01*
X186382734Y-102487403D01*
X186307093Y-102489498D01*
X186283143Y-102490040D01*
X186201210Y-102492019D01*
X186143545Y-102494269D01*
X186105392Y-102497643D01*
X186081996Y-102502994D01*
X186068602Y-102511176D01*
X186060455Y-102523041D01*
X186056856Y-102530638D01*
X186044548Y-102562898D01*
X186040486Y-102581889D01*
X186054052Y-102588164D01*
X186095066Y-102591994D01*
X186164001Y-102593400D01*
X186261331Y-102592402D01*
X186276343Y-102592092D01*
X186365141Y-102589899D01*
X186429981Y-102587307D01*
X186475933Y-102583618D01*
X186508065Y-102578136D01*
X186531447Y-102570165D01*
X186551148Y-102559007D01*
X186559590Y-102553170D01*
X186596943Y-102519704D01*
X186625997Y-102482273D01*
X186628533Y-102477691D01*
X186648557Y-102410574D01*
X186645245Y-102340074D01*
X186645245Y-102340074D01*
G37*
X186645245Y-102340074D02*
X186620916Y-102274142D01*
X186577883Y-102220727D01*
X186547591Y-102199836D01*
X186492006Y-102177061D01*
X186451814Y-102177534D01*
X186424783Y-102201438D01*
X186420187Y-102210283D01*
X186405856Y-102248470D01*
X186409528Y-102267972D01*
X186433593Y-102274578D01*
X186446886Y-102274914D01*
X186495790Y-102287008D01*
X186530001Y-102318529D01*
X186546524Y-102362341D01*
X186542366Y-102411305D01*
X186520773Y-102451106D01*
X186508456Y-102464550D01*
X186493513Y-102474079D01*
X186470925Y-102480515D01*
X186435672Y-102484683D01*
X186382734Y-102487403D01*
X186307093Y-102489498D01*
X186283143Y-102490040D01*
X186201210Y-102492019D01*
X186143545Y-102494269D01*
X186105392Y-102497643D01*
X186081996Y-102502994D01*
X186068602Y-102511176D01*
X186060455Y-102523041D01*
X186056856Y-102530638D01*
X186044548Y-102562898D01*
X186040486Y-102581889D01*
X186054052Y-102588164D01*
X186095066Y-102591994D01*
X186164001Y-102593400D01*
X186261331Y-102592402D01*
X186276343Y-102592092D01*
X186365141Y-102589899D01*
X186429981Y-102587307D01*
X186475933Y-102583618D01*
X186508065Y-102578136D01*
X186531447Y-102570165D01*
X186551148Y-102559007D01*
X186559590Y-102553170D01*
X186596943Y-102519704D01*
X186625997Y-102482273D01*
X186628533Y-102477691D01*
X186648557Y-102410574D01*
X186645245Y-102340074D01*
G36*
X186529642Y-101679883D02*
X186421163Y-101680067D01*
X186337713Y-101680781D01*
X186275296Y-101682325D01*
X186229915Y-101684999D01*
X186197571Y-101689106D01*
X186174267Y-101694945D01*
X186156005Y-101702818D01*
X186145582Y-101708779D01*
X186089055Y-101758145D01*
X186053623Y-101820736D01*
X186040910Y-101889987D01*
X186052537Y-101959332D01*
X186073432Y-102000625D01*
X186109578Y-102043975D01*
X186153724Y-102073519D01*
X186211538Y-102091345D01*
X186288687Y-102099537D01*
X186345286Y-102100698D01*
X186349353Y-102100542D01*
X186349353Y-101999143D01*
X186284450Y-101998524D01*
X186241486Y-101995686D01*
X186213378Y-101989160D01*
X186193047Y-101977477D01*
X186177712Y-101963517D01*
X186148110Y-101916635D01*
X186145581Y-101866299D01*
X186170295Y-101818724D01*
X186173644Y-101815021D01*
X186191065Y-101799217D01*
X186211791Y-101789307D01*
X186242638Y-101783942D01*
X186290423Y-101781772D01*
X186343252Y-101781429D01*
X186409619Y-101782173D01*
X186453894Y-101785252D01*
X186482991Y-101791939D01*
X186503827Y-101803504D01*
X186514893Y-101812987D01*
X186542802Y-101857040D01*
X186546157Y-101907776D01*
X186524841Y-101956204D01*
X186516927Y-101965550D01*
X186499353Y-101981460D01*
X186478413Y-101991390D01*
X186447218Y-101996722D01*
X186398878Y-101998837D01*
X186349353Y-101999143D01*
X186349353Y-102100542D01*
X186436432Y-102097190D01*
X186504914Y-102085274D01*
X186556400Y-102062865D01*
X186596557Y-102027876D01*
X186617139Y-102000625D01*
X186639375Y-101951093D01*
X186649696Y-101893684D01*
X186646933Y-101840318D01*
X186635788Y-101810457D01*
X186632617Y-101798739D01*
X186644443Y-101790963D01*
X186676134Y-101785535D01*
X186724407Y-101781429D01*
X186778171Y-101776933D01*
X186810518Y-101770687D01*
X186829015Y-101759324D01*
X186841230Y-101739472D01*
X186846638Y-101727000D01*
X186866399Y-101679829D01*
X186529642Y-101679883D01*
X186529642Y-101679883D01*
G37*
X186529642Y-101679883D02*
X186421163Y-101680067D01*
X186337713Y-101680781D01*
X186275296Y-101682325D01*
X186229915Y-101684999D01*
X186197571Y-101689106D01*
X186174267Y-101694945D01*
X186156005Y-101702818D01*
X186145582Y-101708779D01*
X186089055Y-101758145D01*
X186053623Y-101820736D01*
X186040910Y-101889987D01*
X186052537Y-101959332D01*
X186073432Y-102000625D01*
X186109578Y-102043975D01*
X186153724Y-102073519D01*
X186211538Y-102091345D01*
X186288687Y-102099537D01*
X186345286Y-102100698D01*
X186349353Y-102100542D01*
X186349353Y-101999143D01*
X186284450Y-101998524D01*
X186241486Y-101995686D01*
X186213378Y-101989160D01*
X186193047Y-101977477D01*
X186177712Y-101963517D01*
X186148110Y-101916635D01*
X186145581Y-101866299D01*
X186170295Y-101818724D01*
X186173644Y-101815021D01*
X186191065Y-101799217D01*
X186211791Y-101789307D01*
X186242638Y-101783942D01*
X186290423Y-101781772D01*
X186343252Y-101781429D01*
X186409619Y-101782173D01*
X186453894Y-101785252D01*
X186482991Y-101791939D01*
X186503827Y-101803504D01*
X186514893Y-101812987D01*
X186542802Y-101857040D01*
X186546157Y-101907776D01*
X186524841Y-101956204D01*
X186516927Y-101965550D01*
X186499353Y-101981460D01*
X186478413Y-101991390D01*
X186447218Y-101996722D01*
X186398878Y-101998837D01*
X186349353Y-101999143D01*
X186349353Y-102100542D01*
X186436432Y-102097190D01*
X186504914Y-102085274D01*
X186556400Y-102062865D01*
X186596557Y-102027876D01*
X186617139Y-102000625D01*
X186639375Y-101951093D01*
X186649696Y-101893684D01*
X186646933Y-101840318D01*
X186635788Y-101810457D01*
X186632617Y-101798739D01*
X186644443Y-101790963D01*
X186676134Y-101785535D01*
X186724407Y-101781429D01*
X186778171Y-101776933D01*
X186810518Y-101770687D01*
X186829015Y-101759324D01*
X186841230Y-101739472D01*
X186846638Y-101727000D01*
X186866399Y-101679829D01*
X186529642Y-101679883D01*
G36*
X186636337Y-101090167D02*
X186598150Y-101087952D01*
X186540114Y-101086216D01*
X186466820Y-101085101D01*
X186389945Y-101084743D01*
X186129804Y-101084743D01*
X186083873Y-101130674D01*
X186055571Y-101162325D01*
X186044107Y-101190110D01*
X186044832Y-101228085D01*
X186046679Y-101243160D01*
X186052052Y-101290274D01*
X186055131Y-101329244D01*
X186055415Y-101338743D01*
X186053555Y-101370767D01*
X186048886Y-101416568D01*
X186046679Y-101434326D01*
X186043265Y-101477943D01*
X186050680Y-101507255D01*
X186073573Y-101536320D01*
X186083873Y-101546812D01*
X186129804Y-101592743D01*
X186616398Y-101592743D01*
X186633242Y-101555774D01*
X186645718Y-101523941D01*
X186650086Y-101505317D01*
X186636282Y-101500542D01*
X186597714Y-101496079D01*
X186538644Y-101492225D01*
X186463337Y-101489278D01*
X186399714Y-101487857D01*
X186149343Y-101483886D01*
X186144444Y-101449241D01*
X186147869Y-101417732D01*
X186158959Y-101402292D01*
X186179692Y-101397977D01*
X186223855Y-101394292D01*
X186285854Y-101391531D01*
X186360091Y-101389988D01*
X186398294Y-101389765D01*
X186618217Y-101389543D01*
X186634151Y-101343834D01*
X186644985Y-101311482D01*
X186650038Y-101293885D01*
X186650086Y-101293377D01*
X186636352Y-101291612D01*
X186598270Y-101289671D01*
X186540518Y-101287718D01*
X186467773Y-101285916D01*
X186399714Y-101284657D01*
X186149343Y-101280686D01*
X186149343Y-101193600D01*
X186377760Y-101189604D01*
X186606178Y-101185608D01*
X186628132Y-101143153D01*
X186643207Y-101111808D01*
X186650049Y-101093256D01*
X186650086Y-101092721D01*
X186636337Y-101090167D01*
X186636337Y-101090167D01*
G37*
X186636337Y-101090167D02*
X186598150Y-101087952D01*
X186540114Y-101086216D01*
X186466820Y-101085101D01*
X186389945Y-101084743D01*
X186129804Y-101084743D01*
X186083873Y-101130674D01*
X186055571Y-101162325D01*
X186044107Y-101190110D01*
X186044832Y-101228085D01*
X186046679Y-101243160D01*
X186052052Y-101290274D01*
X186055131Y-101329244D01*
X186055415Y-101338743D01*
X186053555Y-101370767D01*
X186048886Y-101416568D01*
X186046679Y-101434326D01*
X186043265Y-101477943D01*
X186050680Y-101507255D01*
X186073573Y-101536320D01*
X186083873Y-101546812D01*
X186129804Y-101592743D01*
X186616398Y-101592743D01*
X186633242Y-101555774D01*
X186645718Y-101523941D01*
X186650086Y-101505317D01*
X186636282Y-101500542D01*
X186597714Y-101496079D01*
X186538644Y-101492225D01*
X186463337Y-101489278D01*
X186399714Y-101487857D01*
X186149343Y-101483886D01*
X186144444Y-101449241D01*
X186147869Y-101417732D01*
X186158959Y-101402292D01*
X186179692Y-101397977D01*
X186223855Y-101394292D01*
X186285854Y-101391531D01*
X186360091Y-101389988D01*
X186398294Y-101389765D01*
X186618217Y-101389543D01*
X186634151Y-101343834D01*
X186644985Y-101311482D01*
X186650038Y-101293885D01*
X186650086Y-101293377D01*
X186636352Y-101291612D01*
X186598270Y-101289671D01*
X186540518Y-101287718D01*
X186467773Y-101285916D01*
X186399714Y-101284657D01*
X186149343Y-101280686D01*
X186149343Y-101193600D01*
X186377760Y-101189604D01*
X186606178Y-101185608D01*
X186628132Y-101143153D01*
X186643207Y-101111808D01*
X186650049Y-101093256D01*
X186650086Y-101092721D01*
X186636337Y-101090167D01*
G36*
X186638665Y-100725124D02*
X186619656Y-100683333D01*
X186596622Y-100650531D01*
X186570867Y-100626497D01*
X186537642Y-100609903D01*
X186492200Y-100599423D01*
X186429793Y-100593729D01*
X186345673Y-100591493D01*
X186290279Y-100591257D01*
X186074174Y-100591257D01*
X186057330Y-100628226D01*
X186045019Y-100657344D01*
X186040486Y-100671769D01*
X186053975Y-100674528D01*
X186090347Y-100676718D01*
X186143458Y-100678058D01*
X186185628Y-100678343D01*
X186246553Y-100679566D01*
X186294885Y-100682864D01*
X186324482Y-100687679D01*
X186330771Y-100691504D01*
X186324348Y-100717217D01*
X186307875Y-100757582D01*
X186285542Y-100804321D01*
X186261543Y-100849155D01*
X186240070Y-100883807D01*
X186225315Y-100899998D01*
X186225155Y-100900062D01*
X186197848Y-100898670D01*
X186171781Y-100886182D01*
X186150608Y-100864257D01*
X186143526Y-100832257D01*
X186144351Y-100804908D01*
X186144958Y-100766174D01*
X186135884Y-100745842D01*
X186111908Y-100733631D01*
X186107387Y-100732091D01*
X186073194Y-100726797D01*
X186052432Y-100740953D01*
X186042538Y-100777852D01*
X186040708Y-100817711D01*
X186054273Y-100889438D01*
X186073645Y-100926568D01*
X186119155Y-100972424D01*
X186175017Y-100996744D01*
X186234043Y-100998927D01*
X186289047Y-100978371D01*
X186323514Y-100947451D01*
X186342811Y-100916580D01*
X186367241Y-100868058D01*
X186392015Y-100811515D01*
X186395801Y-100802090D01*
X186423209Y-100739981D01*
X186447366Y-100704178D01*
X186471381Y-100692663D01*
X186498365Y-100703420D01*
X186519457Y-100721886D01*
X186545428Y-100765531D01*
X186547376Y-100813554D01*
X186527363Y-100857594D01*
X186487449Y-100889291D01*
X186477152Y-100893451D01*
X186439276Y-100917673D01*
X186411158Y-100953035D01*
X186388083Y-100997657D01*
X186453515Y-100997657D01*
X186493494Y-100995031D01*
X186525003Y-100983770D01*
X186558622Y-100958801D01*
X186584516Y-100934831D01*
X186621183Y-100897559D01*
X186640879Y-100868599D01*
X186648780Y-100837495D01*
X186650086Y-100802287D01*
X186638665Y-100725124D01*
X186638665Y-100725124D01*
G37*
X186638665Y-100725124D02*
X186619656Y-100683333D01*
X186596622Y-100650531D01*
X186570867Y-100626497D01*
X186537642Y-100609903D01*
X186492200Y-100599423D01*
X186429793Y-100593729D01*
X186345673Y-100591493D01*
X186290279Y-100591257D01*
X186074174Y-100591257D01*
X186057330Y-100628226D01*
X186045019Y-100657344D01*
X186040486Y-100671769D01*
X186053975Y-100674528D01*
X186090347Y-100676718D01*
X186143458Y-100678058D01*
X186185628Y-100678343D01*
X186246553Y-100679566D01*
X186294885Y-100682864D01*
X186324482Y-100687679D01*
X186330771Y-100691504D01*
X186324348Y-100717217D01*
X186307875Y-100757582D01*
X186285542Y-100804321D01*
X186261543Y-100849155D01*
X186240070Y-100883807D01*
X186225315Y-100899998D01*
X186225155Y-100900062D01*
X186197848Y-100898670D01*
X186171781Y-100886182D01*
X186150608Y-100864257D01*
X186143526Y-100832257D01*
X186144351Y-100804908D01*
X186144958Y-100766174D01*
X186135884Y-100745842D01*
X186111908Y-100733631D01*
X186107387Y-100732091D01*
X186073194Y-100726797D01*
X186052432Y-100740953D01*
X186042538Y-100777852D01*
X186040708Y-100817711D01*
X186054273Y-100889438D01*
X186073645Y-100926568D01*
X186119155Y-100972424D01*
X186175017Y-100996744D01*
X186234043Y-100998927D01*
X186289047Y-100978371D01*
X186323514Y-100947451D01*
X186342811Y-100916580D01*
X186367241Y-100868058D01*
X186392015Y-100811515D01*
X186395801Y-100802090D01*
X186423209Y-100739981D01*
X186447366Y-100704178D01*
X186471381Y-100692663D01*
X186498365Y-100703420D01*
X186519457Y-100721886D01*
X186545428Y-100765531D01*
X186547376Y-100813554D01*
X186527363Y-100857594D01*
X186487449Y-100889291D01*
X186477152Y-100893451D01*
X186439276Y-100917673D01*
X186411158Y-100953035D01*
X186388083Y-100997657D01*
X186453515Y-100997657D01*
X186493494Y-100995031D01*
X186525003Y-100983770D01*
X186558622Y-100958801D01*
X186584516Y-100934831D01*
X186621183Y-100897559D01*
X186640879Y-100868599D01*
X186648780Y-100837495D01*
X186650086Y-100802287D01*
X186638665Y-100725124D01*
G36*
X186636248Y-100217400D02*
X186628666Y-100200052D01*
X186595872Y-100158644D01*
X186548453Y-100123235D01*
X186497849Y-100101336D01*
X186472902Y-100097771D01*
X186438073Y-100109721D01*
X186419643Y-100135933D01*
X186408484Y-100164036D01*
X186406428Y-100176905D01*
X186421351Y-100183171D01*
X186453825Y-100195544D01*
X186468498Y-100200972D01*
X186519256Y-100231410D01*
X186544573Y-100275480D01*
X186543794Y-100331990D01*
X186542797Y-100336175D01*
X186528493Y-100366345D01*
X186500607Y-100388524D01*
X186455713Y-100403673D01*
X186390385Y-100412750D01*
X186301196Y-100416714D01*
X186253739Y-100417086D01*
X186178929Y-100417270D01*
X186127931Y-100418478D01*
X186095529Y-100421691D01*
X186076505Y-100427891D01*
X186065644Y-100438060D01*
X186057728Y-100453181D01*
X186057330Y-100454054D01*
X186045019Y-100483172D01*
X186040486Y-100497597D01*
X186054191Y-100499814D01*
X186092075Y-100501711D01*
X186149285Y-100503153D01*
X186220973Y-100504002D01*
X186273435Y-100504171D01*
X186374953Y-100503308D01*
X186451968Y-100499930D01*
X186508977Y-100492858D01*
X186550474Y-100480912D01*
X186580957Y-100462910D01*
X186604920Y-100437673D01*
X186621645Y-100412753D01*
X186643903Y-100352829D01*
X186648924Y-100283089D01*
X186636248Y-100217400D01*
X186636248Y-100217400D01*
G37*
X186636248Y-100217400D02*
X186628666Y-100200052D01*
X186595872Y-100158644D01*
X186548453Y-100123235D01*
X186497849Y-100101336D01*
X186472902Y-100097771D01*
X186438073Y-100109721D01*
X186419643Y-100135933D01*
X186408484Y-100164036D01*
X186406428Y-100176905D01*
X186421351Y-100183171D01*
X186453825Y-100195544D01*
X186468498Y-100200972D01*
X186519256Y-100231410D01*
X186544573Y-100275480D01*
X186543794Y-100331990D01*
X186542797Y-100336175D01*
X186528493Y-100366345D01*
X186500607Y-100388524D01*
X186455713Y-100403673D01*
X186390385Y-100412750D01*
X186301196Y-100416714D01*
X186253739Y-100417086D01*
X186178929Y-100417270D01*
X186127931Y-100418478D01*
X186095529Y-100421691D01*
X186076505Y-100427891D01*
X186065644Y-100438060D01*
X186057728Y-100453181D01*
X186057330Y-100454054D01*
X186045019Y-100483172D01*
X186040486Y-100497597D01*
X186054191Y-100499814D01*
X186092075Y-100501711D01*
X186149285Y-100503153D01*
X186220973Y-100504002D01*
X186273435Y-100504171D01*
X186374953Y-100503308D01*
X186451968Y-100499930D01*
X186508977Y-100492858D01*
X186550474Y-100480912D01*
X186580957Y-100462910D01*
X186604920Y-100437673D01*
X186621645Y-100412753D01*
X186643903Y-100352829D01*
X186648924Y-100283089D01*
X186636248Y-100217400D01*
G36*
X186628034Y-99716405D02*
X186590503Y-99658979D01*
X186556904Y-99631281D01*
X186495936Y-99609338D01*
X186447692Y-99607595D01*
X186383184Y-99611543D01*
X186318066Y-99760314D01*
X186284798Y-99832651D01*
X186258036Y-99879916D01*
X186234856Y-99904493D01*
X186212333Y-99908763D01*
X186187545Y-99895111D01*
X186171114Y-99880057D01*
X186144765Y-99836254D01*
X186142919Y-99788611D01*
X186163454Y-99744855D01*
X186204248Y-99712711D01*
X186218653Y-99706962D01*
X186263644Y-99679424D01*
X186282818Y-99647742D01*
X186299221Y-99604286D01*
X186237034Y-99604286D01*
X186194717Y-99608128D01*
X186159031Y-99623177D01*
X186118057Y-99654720D01*
X186112733Y-99659408D01*
X186076280Y-99694494D01*
X186056717Y-99724653D01*
X186047717Y-99762385D01*
X186044770Y-99793665D01*
X186044035Y-99849615D01*
X186053340Y-99889445D01*
X186067154Y-99914292D01*
X186097533Y-99953344D01*
X186130387Y-99980375D01*
X186171706Y-99997483D01*
X186227479Y-100006762D01*
X186303695Y-100010307D01*
X186342378Y-100010590D01*
X186388753Y-100009628D01*
X186388753Y-99921993D01*
X186363874Y-99920977D01*
X186359800Y-99918444D01*
X186365335Y-99901726D01*
X186379983Y-99865751D01*
X186400810Y-99817669D01*
X186405286Y-99807614D01*
X186436186Y-99746848D01*
X186463343Y-99713368D01*
X186488780Y-99706010D01*
X186514519Y-99723609D01*
X186525891Y-99738144D01*
X186548636Y-99790590D01*
X186544878Y-99839678D01*
X186517116Y-99880773D01*
X186467848Y-99909242D01*
X186428743Y-99918369D01*
X186388753Y-99921993D01*
X186388753Y-100009628D01*
X186432751Y-100008715D01*
X186499616Y-100001804D01*
X186548305Y-99988116D01*
X186584151Y-99965904D01*
X186612487Y-99933426D01*
X186621645Y-99919267D01*
X186645493Y-99854947D01*
X186646994Y-99784527D01*
X186628034Y-99716405D01*
X186628034Y-99716405D01*
G37*
X186628034Y-99716405D02*
X186590503Y-99658979D01*
X186556904Y-99631281D01*
X186495936Y-99609338D01*
X186447692Y-99607595D01*
X186383184Y-99611543D01*
X186318066Y-99760314D01*
X186284798Y-99832651D01*
X186258036Y-99879916D01*
X186234856Y-99904493D01*
X186212333Y-99908763D01*
X186187545Y-99895111D01*
X186171114Y-99880057D01*
X186144765Y-99836254D01*
X186142919Y-99788611D01*
X186163454Y-99744855D01*
X186204248Y-99712711D01*
X186218653Y-99706962D01*
X186263644Y-99679424D01*
X186282818Y-99647742D01*
X186299221Y-99604286D01*
X186237034Y-99604286D01*
X186194717Y-99608128D01*
X186159031Y-99623177D01*
X186118057Y-99654720D01*
X186112733Y-99659408D01*
X186076280Y-99694494D01*
X186056717Y-99724653D01*
X186047717Y-99762385D01*
X186044770Y-99793665D01*
X186044035Y-99849615D01*
X186053340Y-99889445D01*
X186067154Y-99914292D01*
X186097533Y-99953344D01*
X186130387Y-99980375D01*
X186171706Y-99997483D01*
X186227479Y-100006762D01*
X186303695Y-100010307D01*
X186342378Y-100010590D01*
X186388753Y-100009628D01*
X186388753Y-99921993D01*
X186363874Y-99920977D01*
X186359800Y-99918444D01*
X186365335Y-99901726D01*
X186379983Y-99865751D01*
X186400810Y-99817669D01*
X186405286Y-99807614D01*
X186436186Y-99746848D01*
X186463343Y-99713368D01*
X186488780Y-99706010D01*
X186514519Y-99723609D01*
X186525891Y-99738144D01*
X186548636Y-99790590D01*
X186544878Y-99839678D01*
X186517116Y-99880773D01*
X186467848Y-99909242D01*
X186428743Y-99918369D01*
X186388753Y-99921993D01*
X186388753Y-100009628D01*
X186432751Y-100008715D01*
X186499616Y-100001804D01*
X186548305Y-99988116D01*
X186584151Y-99965904D01*
X186612487Y-99933426D01*
X186621645Y-99919267D01*
X186645493Y-99854947D01*
X186646994Y-99784527D01*
X186628034Y-99716405D01*
G36*
X191352652Y-102766090D02*
X191352222Y-102687546D01*
X191351058Y-102630702D01*
X191348793Y-102591895D01*
X191345060Y-102567462D01*
X191339494Y-102553738D01*
X191331727Y-102547060D01*
X191321395Y-102543764D01*
X191320057Y-102543444D01*
X191295921Y-102538438D01*
X191248299Y-102529171D01*
X191182259Y-102516608D01*
X191102872Y-102501713D01*
X191015204Y-102485449D01*
X191012125Y-102484881D01*
X190926211Y-102468590D01*
X190850304Y-102453348D01*
X190788955Y-102440139D01*
X190746718Y-102429946D01*
X190728145Y-102423752D01*
X190727816Y-102423457D01*
X190718747Y-102405212D01*
X190703633Y-102367595D01*
X190685738Y-102318729D01*
X190685642Y-102318457D01*
X190662507Y-102256907D01*
X190633035Y-102184343D01*
X190603403Y-102115943D01*
X190601938Y-102112706D01*
X190551374Y-102001298D01*
X190719840Y-101754601D01*
X190771197Y-101678923D01*
X190817111Y-101610369D01*
X190854970Y-101552912D01*
X190882163Y-101510524D01*
X190896079Y-101487175D01*
X190897111Y-101484958D01*
X190892516Y-101467990D01*
X190870345Y-101436299D01*
X190829553Y-101388648D01*
X190769095Y-101323802D01*
X190704773Y-101257603D01*
X190641388Y-101193786D01*
X190583549Y-101136671D01*
X190534825Y-101089695D01*
X190498790Y-101056297D01*
X190479016Y-101039915D01*
X190477998Y-101039306D01*
X190464428Y-101037495D01*
X190442267Y-101044317D01*
X190408522Y-101061460D01*
X190360200Y-101090607D01*
X190294308Y-101133445D01*
X190209483Y-101190552D01*
X190134823Y-101241234D01*
X190067860Y-101286539D01*
X190012484Y-101323850D01*
X189972580Y-101350548D01*
X189952038Y-101364015D01*
X189950644Y-101364863D01*
X189930962Y-101363219D01*
X189892707Y-101350755D01*
X189843111Y-101329952D01*
X189827272Y-101322538D01*
X189756710Y-101290186D01*
X189676647Y-101255672D01*
X189607371Y-101227635D01*
X189555955Y-101207432D01*
X189516881Y-101191385D01*
X189496459Y-101182112D01*
X189494886Y-101180959D01*
X189492279Y-101163904D01*
X189485137Y-101123702D01*
X189474477Y-101065698D01*
X189461315Y-100995237D01*
X189446667Y-100917665D01*
X189431551Y-100838328D01*
X189416982Y-100762569D01*
X189403978Y-100695736D01*
X189393555Y-100643172D01*
X189386730Y-100610224D01*
X189384801Y-100602143D01*
X189380038Y-100593795D01*
X189369282Y-100587494D01*
X189348902Y-100582955D01*
X189315266Y-100579896D01*
X189264745Y-100578033D01*
X189193708Y-100577082D01*
X189098524Y-100576760D01*
X189059508Y-100576743D01*
X188742201Y-100576743D01*
X188727161Y-100652943D01*
X188719005Y-100695337D01*
X188707101Y-100758600D01*
X188692884Y-100835038D01*
X188677790Y-100916957D01*
X188673645Y-100939600D01*
X188658947Y-101015194D01*
X188644495Y-101081047D01*
X188631625Y-101131634D01*
X188621678Y-101161426D01*
X188618713Y-101166388D01*
X188597717Y-101178574D01*
X188557033Y-101196047D01*
X188504678Y-101215423D01*
X188493400Y-101219266D01*
X188423477Y-101244661D01*
X188344582Y-101276183D01*
X188273734Y-101307031D01*
X188273405Y-101307183D01*
X188162267Y-101358553D01*
X187913747Y-101189601D01*
X187665228Y-101020648D01*
X187447942Y-101237571D01*
X187383274Y-101303181D01*
X187326267Y-101363021D01*
X187279967Y-101413733D01*
X187247416Y-101451954D01*
X187231657Y-101474325D01*
X187230657Y-101477534D01*
X187238531Y-101496374D01*
X187260422Y-101534820D01*
X187293733Y-101588670D01*
X187335869Y-101653724D01*
X187383057Y-101724060D01*
X187431190Y-101795445D01*
X187473072Y-101859092D01*
X187506129Y-101910959D01*
X187527782Y-101947005D01*
X187535457Y-101963133D01*
X187528963Y-101982811D01*
X187511850Y-102020125D01*
X187487674Y-102067379D01*
X187484987Y-102072388D01*
X187453073Y-102136023D01*
X187437421Y-102179659D01*
X187437255Y-102206798D01*
X187451796Y-102220943D01*
X187452000Y-102221025D01*
X187469221Y-102228095D01*
X187510101Y-102244958D01*
X187571475Y-102270305D01*
X187650181Y-102302829D01*
X187743053Y-102341222D01*
X187846928Y-102384178D01*
X187947498Y-102425778D01*
X188058484Y-102471496D01*
X188161297Y-102513474D01*
X188252785Y-102550452D01*
X188329799Y-102581173D01*
X188389185Y-102604378D01*
X188427791Y-102618810D01*
X188442200Y-102623257D01*
X188458728Y-102612104D01*
X188485070Y-102582931D01*
X188514113Y-102544029D01*
X188605961Y-102433243D01*
X188711241Y-102346649D01*
X188827734Y-102285284D01*
X188953224Y-102250185D01*
X189085493Y-102242392D01*
X189146543Y-102248057D01*
X189273205Y-102278922D01*
X189385059Y-102332080D01*
X189480999Y-102404233D01*
X189559924Y-102492083D01*
X189620730Y-102592335D01*
X189662313Y-102701690D01*
X189683572Y-102816853D01*
X189683401Y-102934525D01*
X189660699Y-103051410D01*
X189614362Y-103164211D01*
X189543287Y-103269631D01*
X189503089Y-103313632D01*
X189399871Y-103398021D01*
X189287075Y-103456778D01*
X189167990Y-103490296D01*
X189045905Y-103498965D01*
X188924107Y-103483177D01*
X188805884Y-103443322D01*
X188694525Y-103379793D01*
X188593316Y-103292979D01*
X188514113Y-103195971D01*
X188483838Y-103155563D01*
X188457781Y-103127018D01*
X188442175Y-103116743D01*
X188425157Y-103122123D01*
X188384500Y-103137425D01*
X188323358Y-103161388D01*
X188244881Y-103192756D01*
X188152220Y-103230268D01*
X188048528Y-103272667D01*
X187947474Y-103314337D01*
X187836393Y-103360310D01*
X187733459Y-103402893D01*
X187641835Y-103440779D01*
X187564684Y-103472660D01*
X187505169Y-103497229D01*
X187466456Y-103513180D01*
X187452000Y-103519090D01*
X187437315Y-103533052D01*
X187437358Y-103560060D01*
X187452901Y-103603587D01*
X187484716Y-103667110D01*
X187484987Y-103667612D01*
X187509677Y-103715440D01*
X187527662Y-103754103D01*
X187535386Y-103775905D01*
X187535457Y-103776867D01*
X187527622Y-103793279D01*
X187505835Y-103829513D01*
X187472672Y-103881526D01*
X187430709Y-103945275D01*
X187383057Y-104015940D01*
X187334809Y-104087884D01*
X187292849Y-104152726D01*
X187259773Y-104206265D01*
X187238179Y-104244303D01*
X187230657Y-104262467D01*
X187240543Y-104279192D01*
X187268174Y-104312820D01*
X187310505Y-104359990D01*
X187364495Y-104417342D01*
X187427101Y-104481516D01*
X187448017Y-104502503D01*
X187665377Y-104719501D01*
X187907780Y-104554332D01*
X187982219Y-104504136D01*
X188049028Y-104460081D01*
X188104335Y-104424638D01*
X188144271Y-104400281D01*
X188164964Y-104389478D01*
X188166437Y-104389162D01*
X188185942Y-104394857D01*
X188225178Y-104410174D01*
X188277570Y-104432463D01*
X188312645Y-104448107D01*
X188379799Y-104477359D01*
X188447642Y-104504906D01*
X188504966Y-104526263D01*
X188522428Y-104532065D01*
X188569062Y-104548548D01*
X188605095Y-104564660D01*
X188618713Y-104573510D01*
X188627048Y-104593040D01*
X188638863Y-104635666D01*
X188652819Y-104695855D01*
X188667578Y-104768078D01*
X188673645Y-104800400D01*
X188688727Y-104882478D01*
X188703331Y-104961205D01*
X188716020Y-105028891D01*
X188725358Y-105077840D01*
X188727161Y-105087057D01*
X188742201Y-105163257D01*
X189059508Y-105163257D01*
X189163846Y-105163086D01*
X189242787Y-105162384D01*
X189299962Y-105160866D01*
X189339001Y-105158251D01*
X189363535Y-105154254D01*
X189377195Y-105148591D01*
X189383611Y-105140980D01*
X189384801Y-105137857D01*
X189389020Y-105119022D01*
X189397438Y-105077412D01*
X189409039Y-105018370D01*
X189422805Y-104947243D01*
X189437720Y-104869375D01*
X189452768Y-104790113D01*
X189466931Y-104714802D01*
X189479194Y-104648787D01*
X189488539Y-104597413D01*
X189493950Y-104566025D01*
X189494886Y-104559041D01*
X189507404Y-104552715D01*
X189540754Y-104538710D01*
X189588623Y-104519645D01*
X189607371Y-104512366D01*
X189679805Y-104483004D01*
X189759830Y-104448429D01*
X189827272Y-104417463D01*
X189878841Y-104394677D01*
X189921215Y-104379518D01*
X189947166Y-104374458D01*
X189950644Y-104375264D01*
X189967064Y-104385959D01*
X190003583Y-104410380D01*
X190056313Y-104445905D01*
X190121365Y-104489913D01*
X190194849Y-104539783D01*
X190209355Y-104549644D01*
X190295296Y-104607508D01*
X190360739Y-104650044D01*
X190408696Y-104678946D01*
X190442180Y-104695910D01*
X190464205Y-104702633D01*
X190477783Y-104700810D01*
X190477869Y-104700764D01*
X190495703Y-104686414D01*
X190530183Y-104654677D01*
X190577732Y-104608990D01*
X190634778Y-104552796D01*
X190697745Y-104489532D01*
X190704773Y-104482398D01*
X190781980Y-104402670D01*
X190838670Y-104341143D01*
X190875890Y-104296579D01*
X190894685Y-104267743D01*
X190897111Y-104255042D01*
X190886529Y-104236506D01*
X190862084Y-104198039D01*
X190826388Y-104143614D01*
X190782053Y-104077202D01*
X190731689Y-104002775D01*
X190719840Y-103985399D01*
X190551374Y-103738703D01*
X190601938Y-103627294D01*
X190631405Y-103559543D01*
X190661041Y-103486817D01*
X190684670Y-103424297D01*
X190685642Y-103421543D01*
X190703543Y-103372640D01*
X190718680Y-103334943D01*
X190727790Y-103316575D01*
X190727816Y-103316544D01*
X190744283Y-103310715D01*
X190784781Y-103300808D01*
X190844758Y-103287805D01*
X190919660Y-103272691D01*
X191004936Y-103256448D01*
X191012125Y-103255119D01*
X191099986Y-103238825D01*
X191179740Y-103223867D01*
X191246319Y-103211209D01*
X191294653Y-103201814D01*
X191319675Y-103196646D01*
X191320057Y-103196556D01*
X191330701Y-103193411D01*
X191338738Y-103187296D01*
X191344533Y-103174547D01*
X191348453Y-103151500D01*
X191350865Y-103114491D01*
X191352135Y-103059856D01*
X191352629Y-102983933D01*
X191352714Y-102883056D01*
X191352714Y-102870000D01*
X191352652Y-102766090D01*
X191352652Y-102766090D01*
G37*
X191352652Y-102766090D02*
X191352222Y-102687546D01*
X191351058Y-102630702D01*
X191348793Y-102591895D01*
X191345060Y-102567462D01*
X191339494Y-102553738D01*
X191331727Y-102547060D01*
X191321395Y-102543764D01*
X191320057Y-102543444D01*
X191295921Y-102538438D01*
X191248299Y-102529171D01*
X191182259Y-102516608D01*
X191102872Y-102501713D01*
X191015204Y-102485449D01*
X191012125Y-102484881D01*
X190926211Y-102468590D01*
X190850304Y-102453348D01*
X190788955Y-102440139D01*
X190746718Y-102429946D01*
X190728145Y-102423752D01*
X190727816Y-102423457D01*
X190718747Y-102405212D01*
X190703633Y-102367595D01*
X190685738Y-102318729D01*
X190685642Y-102318457D01*
X190662507Y-102256907D01*
X190633035Y-102184343D01*
X190603403Y-102115943D01*
X190601938Y-102112706D01*
X190551374Y-102001298D01*
X190719840Y-101754601D01*
X190771197Y-101678923D01*
X190817111Y-101610369D01*
X190854970Y-101552912D01*
X190882163Y-101510524D01*
X190896079Y-101487175D01*
X190897111Y-101484958D01*
X190892516Y-101467990D01*
X190870345Y-101436299D01*
X190829553Y-101388648D01*
X190769095Y-101323802D01*
X190704773Y-101257603D01*
X190641388Y-101193786D01*
X190583549Y-101136671D01*
X190534825Y-101089695D01*
X190498790Y-101056297D01*
X190479016Y-101039915D01*
X190477998Y-101039306D01*
X190464428Y-101037495D01*
X190442267Y-101044317D01*
X190408522Y-101061460D01*
X190360200Y-101090607D01*
X190294308Y-101133445D01*
X190209483Y-101190552D01*
X190134823Y-101241234D01*
X190067860Y-101286539D01*
X190012484Y-101323850D01*
X189972580Y-101350548D01*
X189952038Y-101364015D01*
X189950644Y-101364863D01*
X189930962Y-101363219D01*
X189892707Y-101350755D01*
X189843111Y-101329952D01*
X189827272Y-101322538D01*
X189756710Y-101290186D01*
X189676647Y-101255672D01*
X189607371Y-101227635D01*
X189555955Y-101207432D01*
X189516881Y-101191385D01*
X189496459Y-101182112D01*
X189494886Y-101180959D01*
X189492279Y-101163904D01*
X189485137Y-101123702D01*
X189474477Y-101065698D01*
X189461315Y-100995237D01*
X189446667Y-100917665D01*
X189431551Y-100838328D01*
X189416982Y-100762569D01*
X189403978Y-100695736D01*
X189393555Y-100643172D01*
X189386730Y-100610224D01*
X189384801Y-100602143D01*
X189380038Y-100593795D01*
X189369282Y-100587494D01*
X189348902Y-100582955D01*
X189315266Y-100579896D01*
X189264745Y-100578033D01*
X189193708Y-100577082D01*
X189098524Y-100576760D01*
X189059508Y-100576743D01*
X188742201Y-100576743D01*
X188727161Y-100652943D01*
X188719005Y-100695337D01*
X188707101Y-100758600D01*
X188692884Y-100835038D01*
X188677790Y-100916957D01*
X188673645Y-100939600D01*
X188658947Y-101015194D01*
X188644495Y-101081047D01*
X188631625Y-101131634D01*
X188621678Y-101161426D01*
X188618713Y-101166388D01*
X188597717Y-101178574D01*
X188557033Y-101196047D01*
X188504678Y-101215423D01*
X188493400Y-101219266D01*
X188423477Y-101244661D01*
X188344582Y-101276183D01*
X188273734Y-101307031D01*
X188273405Y-101307183D01*
X188162267Y-101358553D01*
X187913747Y-101189601D01*
X187665228Y-101020648D01*
X187447942Y-101237571D01*
X187383274Y-101303181D01*
X187326267Y-101363021D01*
X187279967Y-101413733D01*
X187247416Y-101451954D01*
X187231657Y-101474325D01*
X187230657Y-101477534D01*
X187238531Y-101496374D01*
X187260422Y-101534820D01*
X187293733Y-101588670D01*
X187335869Y-101653724D01*
X187383057Y-101724060D01*
X187431190Y-101795445D01*
X187473072Y-101859092D01*
X187506129Y-101910959D01*
X187527782Y-101947005D01*
X187535457Y-101963133D01*
X187528963Y-101982811D01*
X187511850Y-102020125D01*
X187487674Y-102067379D01*
X187484987Y-102072388D01*
X187453073Y-102136023D01*
X187437421Y-102179659D01*
X187437255Y-102206798D01*
X187451796Y-102220943D01*
X187452000Y-102221025D01*
X187469221Y-102228095D01*
X187510101Y-102244958D01*
X187571475Y-102270305D01*
X187650181Y-102302829D01*
X187743053Y-102341222D01*
X187846928Y-102384178D01*
X187947498Y-102425778D01*
X188058484Y-102471496D01*
X188161297Y-102513474D01*
X188252785Y-102550452D01*
X188329799Y-102581173D01*
X188389185Y-102604378D01*
X188427791Y-102618810D01*
X188442200Y-102623257D01*
X188458728Y-102612104D01*
X188485070Y-102582931D01*
X188514113Y-102544029D01*
X188605961Y-102433243D01*
X188711241Y-102346649D01*
X188827734Y-102285284D01*
X188953224Y-102250185D01*
X189085493Y-102242392D01*
X189146543Y-102248057D01*
X189273205Y-102278922D01*
X189385059Y-102332080D01*
X189480999Y-102404233D01*
X189559924Y-102492083D01*
X189620730Y-102592335D01*
X189662313Y-102701690D01*
X189683572Y-102816853D01*
X189683401Y-102934525D01*
X189660699Y-103051410D01*
X189614362Y-103164211D01*
X189543287Y-103269631D01*
X189503089Y-103313632D01*
X189399871Y-103398021D01*
X189287075Y-103456778D01*
X189167990Y-103490296D01*
X189045905Y-103498965D01*
X188924107Y-103483177D01*
X188805884Y-103443322D01*
X188694525Y-103379793D01*
X188593316Y-103292979D01*
X188514113Y-103195971D01*
X188483838Y-103155563D01*
X188457781Y-103127018D01*
X188442175Y-103116743D01*
X188425157Y-103122123D01*
X188384500Y-103137425D01*
X188323358Y-103161388D01*
X188244881Y-103192756D01*
X188152220Y-103230268D01*
X188048528Y-103272667D01*
X187947474Y-103314337D01*
X187836393Y-103360310D01*
X187733459Y-103402893D01*
X187641835Y-103440779D01*
X187564684Y-103472660D01*
X187505169Y-103497229D01*
X187466456Y-103513180D01*
X187452000Y-103519090D01*
X187437315Y-103533052D01*
X187437358Y-103560060D01*
X187452901Y-103603587D01*
X187484716Y-103667110D01*
X187484987Y-103667612D01*
X187509677Y-103715440D01*
X187527662Y-103754103D01*
X187535386Y-103775905D01*
X187535457Y-103776867D01*
X187527622Y-103793279D01*
X187505835Y-103829513D01*
X187472672Y-103881526D01*
X187430709Y-103945275D01*
X187383057Y-104015940D01*
X187334809Y-104087884D01*
X187292849Y-104152726D01*
X187259773Y-104206265D01*
X187238179Y-104244303D01*
X187230657Y-104262467D01*
X187240543Y-104279192D01*
X187268174Y-104312820D01*
X187310505Y-104359990D01*
X187364495Y-104417342D01*
X187427101Y-104481516D01*
X187448017Y-104502503D01*
X187665377Y-104719501D01*
X187907780Y-104554332D01*
X187982219Y-104504136D01*
X188049028Y-104460081D01*
X188104335Y-104424638D01*
X188144271Y-104400281D01*
X188164964Y-104389478D01*
X188166437Y-104389162D01*
X188185942Y-104394857D01*
X188225178Y-104410174D01*
X188277570Y-104432463D01*
X188312645Y-104448107D01*
X188379799Y-104477359D01*
X188447642Y-104504906D01*
X188504966Y-104526263D01*
X188522428Y-104532065D01*
X188569062Y-104548548D01*
X188605095Y-104564660D01*
X188618713Y-104573510D01*
X188627048Y-104593040D01*
X188638863Y-104635666D01*
X188652819Y-104695855D01*
X188667578Y-104768078D01*
X188673645Y-104800400D01*
X188688727Y-104882478D01*
X188703331Y-104961205D01*
X188716020Y-105028891D01*
X188725358Y-105077840D01*
X188727161Y-105087057D01*
X188742201Y-105163257D01*
X189059508Y-105163257D01*
X189163846Y-105163086D01*
X189242787Y-105162384D01*
X189299962Y-105160866D01*
X189339001Y-105158251D01*
X189363535Y-105154254D01*
X189377195Y-105148591D01*
X189383611Y-105140980D01*
X189384801Y-105137857D01*
X189389020Y-105119022D01*
X189397438Y-105077412D01*
X189409039Y-105018370D01*
X189422805Y-104947243D01*
X189437720Y-104869375D01*
X189452768Y-104790113D01*
X189466931Y-104714802D01*
X189479194Y-104648787D01*
X189488539Y-104597413D01*
X189493950Y-104566025D01*
X189494886Y-104559041D01*
X189507404Y-104552715D01*
X189540754Y-104538710D01*
X189588623Y-104519645D01*
X189607371Y-104512366D01*
X189679805Y-104483004D01*
X189759830Y-104448429D01*
X189827272Y-104417463D01*
X189878841Y-104394677D01*
X189921215Y-104379518D01*
X189947166Y-104374458D01*
X189950644Y-104375264D01*
X189967064Y-104385959D01*
X190003583Y-104410380D01*
X190056313Y-104445905D01*
X190121365Y-104489913D01*
X190194849Y-104539783D01*
X190209355Y-104549644D01*
X190295296Y-104607508D01*
X190360739Y-104650044D01*
X190408696Y-104678946D01*
X190442180Y-104695910D01*
X190464205Y-104702633D01*
X190477783Y-104700810D01*
X190477869Y-104700764D01*
X190495703Y-104686414D01*
X190530183Y-104654677D01*
X190577732Y-104608990D01*
X190634778Y-104552796D01*
X190697745Y-104489532D01*
X190704773Y-104482398D01*
X190781980Y-104402670D01*
X190838670Y-104341143D01*
X190875890Y-104296579D01*
X190894685Y-104267743D01*
X190897111Y-104255042D01*
X190886529Y-104236506D01*
X190862084Y-104198039D01*
X190826388Y-104143614D01*
X190782053Y-104077202D01*
X190731689Y-104002775D01*
X190719840Y-103985399D01*
X190551374Y-103738703D01*
X190601938Y-103627294D01*
X190631405Y-103559543D01*
X190661041Y-103486817D01*
X190684670Y-103424297D01*
X190685642Y-103421543D01*
X190703543Y-103372640D01*
X190718680Y-103334943D01*
X190727790Y-103316575D01*
X190727816Y-103316544D01*
X190744283Y-103310715D01*
X190784781Y-103300808D01*
X190844758Y-103287805D01*
X190919660Y-103272691D01*
X191004936Y-103256448D01*
X191012125Y-103255119D01*
X191099986Y-103238825D01*
X191179740Y-103223867D01*
X191246319Y-103211209D01*
X191294653Y-103201814D01*
X191319675Y-103196646D01*
X191320057Y-103196556D01*
X191330701Y-103193411D01*
X191338738Y-103187296D01*
X191344533Y-103174547D01*
X191348453Y-103151500D01*
X191350865Y-103114491D01*
X191352135Y-103059856D01*
X191352629Y-102983933D01*
X191352714Y-102883056D01*
X191352714Y-102870000D01*
X191352652Y-102766090D01*
G36*
X151922178Y-86517178D02*
X151922178Y-90037971D01*
X152789802Y-90037971D01*
X152789802Y-86517178D01*
X151922178Y-86517178D01*
X151922178Y-86517178D01*
G37*
X151922178Y-86517178D02*
X151922178Y-90037971D01*
X152789802Y-90037971D01*
X152789802Y-86517178D01*
X151922178Y-86517178D01*
G36*
X157875152Y-86140570D02*
X157788069Y-86141189D01*
X157329109Y-86592914D01*
X156870148Y-87044639D01*
X156659529Y-87044968D01*
X156448911Y-87045297D01*
X156448911Y-87320390D01*
X156395470Y-87327478D01*
X156371112Y-87330162D01*
X156325241Y-87334687D01*
X156260595Y-87340809D01*
X156179909Y-87348288D01*
X156085919Y-87356881D01*
X155981363Y-87366346D01*
X155868975Y-87376442D01*
X155751493Y-87386926D01*
X155631652Y-87397556D01*
X155512189Y-87408091D01*
X155395841Y-87418287D01*
X155285343Y-87427905D01*
X155183431Y-87436700D01*
X155092842Y-87444432D01*
X155016313Y-87450858D01*
X154956579Y-87455737D01*
X154916376Y-87458825D01*
X154898441Y-87459883D01*
X154898356Y-87459882D01*
X154883965Y-87452173D01*
X154854252Y-87429019D01*
X154808869Y-87390105D01*
X154747471Y-87335116D01*
X154669712Y-87263736D01*
X154575246Y-87175651D01*
X154463728Y-87070546D01*
X154334812Y-86948105D01*
X154298713Y-86913690D01*
X153726584Y-86367863D01*
X153638564Y-86456119D01*
X153716242Y-86527515D01*
X153744314Y-86553634D01*
X153787726Y-86594434D01*
X153843634Y-86647223D01*
X153909192Y-86709309D01*
X153981559Y-86778000D01*
X154057888Y-86850604D01*
X154103476Y-86894040D01*
X154188881Y-86975584D01*
X154257290Y-87041496D01*
X154309947Y-87093456D01*
X154348095Y-87133145D01*
X154372980Y-87162243D01*
X154385844Y-87182431D01*
X154387932Y-87195390D01*
X154380487Y-87202800D01*
X154364754Y-87206342D01*
X154341977Y-87207697D01*
X154335761Y-87207879D01*
X154292939Y-87217297D01*
X154241181Y-87240503D01*
X154188672Y-87272864D01*
X154143597Y-87309748D01*
X154129672Y-87324507D01*
X154080953Y-87400233D01*
X154053694Y-87488692D01*
X154047227Y-87566900D01*
X154059424Y-87655532D01*
X154095187Y-87737388D01*
X154153278Y-87809836D01*
X154167738Y-87823203D01*
X154223267Y-87872082D01*
X154223267Y-88717674D01*
X154047227Y-88717674D01*
X154047227Y-88944010D01*
X154129469Y-88944010D01*
X154185614Y-88946850D01*
X154224584Y-88956393D01*
X154245781Y-88967991D01*
X154260948Y-88976277D01*
X154282938Y-88983373D01*
X154315013Y-88989748D01*
X154360431Y-88995872D01*
X154422452Y-89002216D01*
X154504338Y-89009250D01*
X154565254Y-89014066D01*
X154850657Y-89036161D01*
X154301195Y-89578565D01*
X154201772Y-89676637D01*
X154106185Y-89770784D01*
X154016190Y-89859285D01*
X153933543Y-89940420D01*
X153859999Y-90012469D01*
X153797316Y-90073712D01*
X153747248Y-90122427D01*
X153711552Y-90156896D01*
X153692005Y-90175379D01*
X153661056Y-90205743D01*
X153639470Y-90231071D01*
X153632277Y-90244695D01*
X153640703Y-90262095D01*
X153661755Y-90287460D01*
X153670329Y-90296058D01*
X153708380Y-90332514D01*
X153912342Y-90131802D01*
X153964301Y-90080596D01*
X154031180Y-90014569D01*
X154110050Y-89936618D01*
X154197986Y-89849638D01*
X154292059Y-89756526D01*
X154389342Y-89660179D01*
X154486907Y-89563492D01*
X154556855Y-89494134D01*
X154663450Y-89388703D01*
X154753693Y-89300129D01*
X154828808Y-89227281D01*
X154890014Y-89169023D01*
X154938534Y-89124225D01*
X154963871Y-89102021D01*
X154963871Y-88923724D01*
X154678445Y-88901401D01*
X154594781Y-88894669D01*
X154518273Y-88888157D01*
X154452919Y-88882234D01*
X154402719Y-88877268D01*
X154371671Y-88873629D01*
X154364727Y-88872458D01*
X154336435Y-88865838D01*
X154336435Y-87916364D01*
X154415394Y-87910026D01*
X154508685Y-87890890D01*
X154591209Y-87850846D01*
X154659962Y-87792418D01*
X154711937Y-87718129D01*
X154743137Y-87634748D01*
X154757772Y-87607698D01*
X154789181Y-87594156D01*
X154790566Y-87593872D01*
X154803826Y-87592247D01*
X154817405Y-87594256D01*
X154833819Y-87601858D01*
X154855589Y-87617016D01*
X154885233Y-87641688D01*
X154925268Y-87677836D01*
X154978215Y-87727420D01*
X155046591Y-87792401D01*
X155050995Y-87796599D01*
X155124389Y-87866493D01*
X155202563Y-87940800D01*
X155280136Y-88014414D01*
X155351725Y-88082229D01*
X155411949Y-88139140D01*
X155425413Y-88151832D01*
X155476180Y-88200487D01*
X155519625Y-88243709D01*
X155552759Y-88278395D01*
X155572595Y-88301444D01*
X155576954Y-88309182D01*
X155567830Y-88320722D01*
X155542800Y-88347710D01*
X155503948Y-88388021D01*
X155453357Y-88439529D01*
X155393112Y-88500109D01*
X155325296Y-88567636D01*
X155269435Y-88622826D01*
X154963871Y-88923724D01*
X154963871Y-89102021D01*
X154975589Y-89091751D01*
X155002401Y-89070471D01*
X155020192Y-89059251D01*
X155028430Y-89056754D01*
X155046410Y-89057700D01*
X155087108Y-89060573D01*
X155148181Y-89065187D01*
X155227287Y-89071358D01*
X155322086Y-89078898D01*
X155430233Y-89087621D01*
X155549388Y-89097343D01*
X155677209Y-89107876D01*
X155779365Y-89116365D01*
X156355326Y-89164396D01*
X156355326Y-89040805D01*
X156342896Y-89040273D01*
X156307890Y-89037769D01*
X156252785Y-89033496D01*
X156180057Y-89027653D01*
X156092186Y-89020443D01*
X155991649Y-89012066D01*
X155880923Y-89002723D01*
X155775795Y-88993758D01*
X155656517Y-88983602D01*
X155543920Y-88974142D01*
X155440695Y-88965596D01*
X155349527Y-88958179D01*
X155273105Y-88952108D01*
X155214117Y-88947601D01*
X155175251Y-88944873D01*
X155160156Y-88944116D01*
X155150762Y-88942935D01*
X155147034Y-88938256D01*
X155150529Y-88928276D01*
X155162801Y-88911190D01*
X155185406Y-88885196D01*
X155219900Y-88848490D01*
X155267838Y-88799267D01*
X155330776Y-88735726D01*
X155398032Y-88668305D01*
X155673523Y-88392601D01*
X155675594Y-88394533D01*
X155675594Y-88212290D01*
X155664220Y-88203984D01*
X155637437Y-88180733D01*
X155597708Y-88144865D01*
X155547493Y-88098713D01*
X155489254Y-88044606D01*
X155425453Y-87984874D01*
X155358551Y-87921848D01*
X155291010Y-87857858D01*
X155225290Y-87795236D01*
X155163854Y-87736310D01*
X155109163Y-87683412D01*
X155063678Y-87638872D01*
X155029862Y-87605020D01*
X155010174Y-87584188D01*
X155006163Y-87578506D01*
X155019109Y-87576634D01*
X155054866Y-87572746D01*
X155111196Y-87567057D01*
X155185860Y-87559781D01*
X155276620Y-87551131D01*
X155381238Y-87541322D01*
X155497474Y-87530566D01*
X155623092Y-87519079D01*
X155724382Y-87509907D01*
X155855721Y-87498174D01*
X155979448Y-87487335D01*
X156093319Y-87477570D01*
X156195089Y-87469063D01*
X156282513Y-87461995D01*
X156353347Y-87456549D01*
X156405347Y-87452908D01*
X156436268Y-87451253D01*
X156444297Y-87451442D01*
X156437146Y-87461334D01*
X156414159Y-87486524D01*
X156377561Y-87524810D01*
X156329578Y-87573989D01*
X156272434Y-87631861D01*
X156208353Y-87696222D01*
X156139562Y-87764871D01*
X156068284Y-87835605D01*
X155996745Y-87906222D01*
X155927170Y-87974520D01*
X155861783Y-88038296D01*
X155802809Y-88095350D01*
X155752473Y-88143478D01*
X155713001Y-88180478D01*
X155686617Y-88204148D01*
X155675594Y-88212290D01*
X155675594Y-88394533D01*
X155783705Y-88495409D01*
X155839623Y-88547768D01*
X155902052Y-88606535D01*
X155968557Y-88669385D01*
X156036702Y-88733995D01*
X156104052Y-88798042D01*
X156168172Y-88859203D01*
X156226628Y-88915153D01*
X156276982Y-88963570D01*
X156316802Y-89002130D01*
X156343650Y-89028509D01*
X156355092Y-89040384D01*
X156355326Y-89040805D01*
X156355326Y-89164396D01*
X156499274Y-89176401D01*
X157130842Y-89776938D01*
X157762411Y-90377475D01*
X157850685Y-90377034D01*
X157938960Y-90376592D01*
X157835334Y-90279583D01*
X157777537Y-90225291D01*
X157709632Y-90161192D01*
X157633428Y-90089016D01*
X157550731Y-90010492D01*
X157463347Y-89927349D01*
X157373085Y-89841319D01*
X157281750Y-89754130D01*
X157191151Y-89667513D01*
X157103093Y-89583197D01*
X157019385Y-89502912D01*
X156941833Y-89428387D01*
X156872243Y-89361354D01*
X156812424Y-89303541D01*
X156764182Y-89256679D01*
X156729324Y-89222496D01*
X156709657Y-89202724D01*
X156705884Y-89198390D01*
X156719008Y-89198092D01*
X156752611Y-89199731D01*
X156802120Y-89203023D01*
X156862963Y-89207682D01*
X156887268Y-89209682D01*
X157065049Y-89224577D01*
X157065049Y-89107955D01*
X157036757Y-89101934D01*
X157014382Y-89098863D01*
X156972283Y-89094548D01*
X156915822Y-89089488D01*
X156850365Y-89084181D01*
X156826138Y-89082344D01*
X156756579Y-89076927D01*
X156691982Y-89071459D01*
X156638452Y-89066488D01*
X156602090Y-89062561D01*
X156595491Y-89061675D01*
X156581944Y-89058334D01*
X156566086Y-89051101D01*
X156546139Y-89038440D01*
X156520327Y-89018811D01*
X156486871Y-88990678D01*
X156443993Y-88952502D01*
X156389917Y-88902746D01*
X156322864Y-88839871D01*
X156241057Y-88762341D01*
X156158050Y-88683251D01*
X156075906Y-88604564D01*
X155999831Y-88531112D01*
X155931675Y-88464724D01*
X155873288Y-88407227D01*
X155826519Y-88360451D01*
X155793218Y-88326224D01*
X155775233Y-88306373D01*
X155772558Y-88302140D01*
X155782259Y-88291003D01*
X155807559Y-88264971D01*
X155845918Y-88226570D01*
X155894800Y-88178328D01*
X155951666Y-88122770D01*
X155993094Y-88082592D01*
X156210000Y-87872831D01*
X156210000Y-88491337D01*
X156448911Y-88491337D01*
X156448911Y-87736881D01*
X156342458Y-87736881D01*
X156480346Y-87598565D01*
X156578160Y-87500447D01*
X156578160Y-87309357D01*
X156562730Y-87307529D01*
X156554133Y-87298277D01*
X156550387Y-87275950D01*
X156549511Y-87234895D01*
X156549505Y-87227624D01*
X156549505Y-87145891D01*
X156768828Y-87145891D01*
X156687821Y-87227624D01*
X156638572Y-87273730D01*
X156600841Y-87301306D01*
X156578160Y-87309357D01*
X156578160Y-87500447D01*
X156618234Y-87460248D01*
X156741048Y-87460248D01*
X156797550Y-87459863D01*
X156833495Y-87458100D01*
X156853470Y-87454050D01*
X156862063Y-87446801D01*
X156863861Y-87435870D01*
X156866502Y-87423712D01*
X156877088Y-87414727D01*
X156899619Y-87407826D01*
X156938091Y-87401924D01*
X156996502Y-87395935D01*
X157017896Y-87394013D01*
X157065049Y-87389852D01*
X157065049Y-89107955D01*
X157065049Y-89224577D01*
X157065049Y-89384109D01*
X157178218Y-89384109D01*
X157178218Y-89316314D01*
X157179304Y-89276662D01*
X157184546Y-89255116D01*
X157187666Y-89252480D01*
X157187666Y-89113616D01*
X157180538Y-89106308D01*
X157178338Y-89080993D01*
X157178218Y-89063908D01*
X157178218Y-89006881D01*
X157178218Y-88794221D01*
X157178218Y-87379698D01*
X157227214Y-87427542D01*
X157287676Y-87501850D01*
X157334309Y-87593816D01*
X157367751Y-87704998D01*
X157386247Y-87815471D01*
X157394878Y-87887773D01*
X157303960Y-87887773D01*
X157303960Y-88466188D01*
X157407107Y-88466188D01*
X157398504Y-88551065D01*
X157391244Y-88610368D01*
X157381621Y-88673551D01*
X157374748Y-88711386D01*
X157359593Y-88786832D01*
X157268905Y-88790526D01*
X157178218Y-88794221D01*
X157178218Y-89006881D01*
X157228515Y-89006881D01*
X157260024Y-89008544D01*
X157277537Y-89012697D01*
X157278812Y-89014371D01*
X157270746Y-89032987D01*
X157251180Y-89060183D01*
X157227056Y-89087448D01*
X157205318Y-89106267D01*
X157202492Y-89107943D01*
X157187666Y-89113616D01*
X157187666Y-89252480D01*
X157196919Y-89244662D01*
X157210396Y-89240442D01*
X157245373Y-89223219D01*
X157287421Y-89190138D01*
X157330644Y-89146893D01*
X157369146Y-89099174D01*
X157389199Y-89067830D01*
X157411149Y-89032123D01*
X157429589Y-89013819D01*
X157451332Y-89007388D01*
X157464282Y-89006894D01*
X157467425Y-89006894D01*
X157467425Y-88365594D01*
X157404554Y-88365594D01*
X157404554Y-87988367D01*
X157467425Y-87988367D01*
X157467425Y-88365594D01*
X157467425Y-89006894D01*
X157505148Y-89006881D01*
X157505148Y-88901048D01*
X157503971Y-88852355D01*
X157500835Y-88814405D01*
X157496329Y-88793308D01*
X157494505Y-88791023D01*
X157491705Y-88777641D01*
X157492852Y-88745074D01*
X157497607Y-88698916D01*
X157501997Y-88667376D01*
X157510622Y-88610188D01*
X157518409Y-88557886D01*
X157524153Y-88518582D01*
X157525785Y-88507055D01*
X157535112Y-88476937D01*
X157549728Y-88466188D01*
X157555680Y-88462920D01*
X157560222Y-88451230D01*
X157563530Y-88428288D01*
X157565785Y-88391265D01*
X157567166Y-88337332D01*
X157567850Y-88263660D01*
X157568020Y-88176980D01*
X157567923Y-88084471D01*
X157567470Y-88014094D01*
X157566410Y-87962836D01*
X157564497Y-87927680D01*
X157561481Y-87905611D01*
X157557115Y-87893615D01*
X157551151Y-87888676D01*
X157544216Y-87887773D01*
X157522205Y-87880079D01*
X157509679Y-87854879D01*
X157505212Y-87808991D01*
X157505148Y-87800736D01*
X157497132Y-87723027D01*
X157475064Y-87634767D01*
X157441916Y-87543915D01*
X157400661Y-87458430D01*
X157354269Y-87386274D01*
X157346918Y-87376928D01*
X157323002Y-87346467D01*
X157313424Y-87328428D01*
X157316520Y-87315831D01*
X157329296Y-87302900D01*
X157354322Y-87264707D01*
X157363929Y-87215002D01*
X157358933Y-87161476D01*
X157340149Y-87111822D01*
X157308394Y-87073733D01*
X157304703Y-87070975D01*
X157245425Y-87042474D01*
X157184066Y-87037172D01*
X157125573Y-87054482D01*
X157074896Y-87093820D01*
X157070711Y-87098630D01*
X157050833Y-87126560D01*
X157042079Y-87154898D01*
X157041447Y-87194737D01*
X157042008Y-87204689D01*
X157043438Y-87243668D01*
X157040161Y-87263746D01*
X157030272Y-87271015D01*
X157021039Y-87271760D01*
X156994256Y-87273284D01*
X156953975Y-87277065D01*
X156929876Y-87279782D01*
X156891599Y-87283723D01*
X156872004Y-87282084D01*
X156864842Y-87272579D01*
X156863861Y-87255649D01*
X156867099Y-87245608D01*
X156877580Y-87229410D01*
X156896452Y-87205855D01*
X156924865Y-87173743D01*
X156963965Y-87131872D01*
X157014903Y-87079043D01*
X157078827Y-87014055D01*
X157156886Y-86935709D01*
X157250228Y-86842803D01*
X157360002Y-86734137D01*
X157413048Y-86681769D01*
X157962233Y-86139951D01*
X157875152Y-86140570D01*
X157875152Y-86140570D01*
G37*
X157875152Y-86140570D02*
X157788069Y-86141189D01*
X157329109Y-86592914D01*
X156870148Y-87044639D01*
X156659529Y-87044968D01*
X156448911Y-87045297D01*
X156448911Y-87320390D01*
X156395470Y-87327478D01*
X156371112Y-87330162D01*
X156325241Y-87334687D01*
X156260595Y-87340809D01*
X156179909Y-87348288D01*
X156085919Y-87356881D01*
X155981363Y-87366346D01*
X155868975Y-87376442D01*
X155751493Y-87386926D01*
X155631652Y-87397556D01*
X155512189Y-87408091D01*
X155395841Y-87418287D01*
X155285343Y-87427905D01*
X155183431Y-87436700D01*
X155092842Y-87444432D01*
X155016313Y-87450858D01*
X154956579Y-87455737D01*
X154916376Y-87458825D01*
X154898441Y-87459883D01*
X154898356Y-87459882D01*
X154883965Y-87452173D01*
X154854252Y-87429019D01*
X154808869Y-87390105D01*
X154747471Y-87335116D01*
X154669712Y-87263736D01*
X154575246Y-87175651D01*
X154463728Y-87070546D01*
X154334812Y-86948105D01*
X154298713Y-86913690D01*
X153726584Y-86367863D01*
X153638564Y-86456119D01*
X153716242Y-86527515D01*
X153744314Y-86553634D01*
X153787726Y-86594434D01*
X153843634Y-86647223D01*
X153909192Y-86709309D01*
X153981559Y-86778000D01*
X154057888Y-86850604D01*
X154103476Y-86894040D01*
X154188881Y-86975584D01*
X154257290Y-87041496D01*
X154309947Y-87093456D01*
X154348095Y-87133145D01*
X154372980Y-87162243D01*
X154385844Y-87182431D01*
X154387932Y-87195390D01*
X154380487Y-87202800D01*
X154364754Y-87206342D01*
X154341977Y-87207697D01*
X154335761Y-87207879D01*
X154292939Y-87217297D01*
X154241181Y-87240503D01*
X154188672Y-87272864D01*
X154143597Y-87309748D01*
X154129672Y-87324507D01*
X154080953Y-87400233D01*
X154053694Y-87488692D01*
X154047227Y-87566900D01*
X154059424Y-87655532D01*
X154095187Y-87737388D01*
X154153278Y-87809836D01*
X154167738Y-87823203D01*
X154223267Y-87872082D01*
X154223267Y-88717674D01*
X154047227Y-88717674D01*
X154047227Y-88944010D01*
X154129469Y-88944010D01*
X154185614Y-88946850D01*
X154224584Y-88956393D01*
X154245781Y-88967991D01*
X154260948Y-88976277D01*
X154282938Y-88983373D01*
X154315013Y-88989748D01*
X154360431Y-88995872D01*
X154422452Y-89002216D01*
X154504338Y-89009250D01*
X154565254Y-89014066D01*
X154850657Y-89036161D01*
X154301195Y-89578565D01*
X154201772Y-89676637D01*
X154106185Y-89770784D01*
X154016190Y-89859285D01*
X153933543Y-89940420D01*
X153859999Y-90012469D01*
X153797316Y-90073712D01*
X153747248Y-90122427D01*
X153711552Y-90156896D01*
X153692005Y-90175379D01*
X153661056Y-90205743D01*
X153639470Y-90231071D01*
X153632277Y-90244695D01*
X153640703Y-90262095D01*
X153661755Y-90287460D01*
X153670329Y-90296058D01*
X153708380Y-90332514D01*
X153912342Y-90131802D01*
X153964301Y-90080596D01*
X154031180Y-90014569D01*
X154110050Y-89936618D01*
X154197986Y-89849638D01*
X154292059Y-89756526D01*
X154389342Y-89660179D01*
X154486907Y-89563492D01*
X154556855Y-89494134D01*
X154663450Y-89388703D01*
X154753693Y-89300129D01*
X154828808Y-89227281D01*
X154890014Y-89169023D01*
X154938534Y-89124225D01*
X154963871Y-89102021D01*
X154963871Y-88923724D01*
X154678445Y-88901401D01*
X154594781Y-88894669D01*
X154518273Y-88888157D01*
X154452919Y-88882234D01*
X154402719Y-88877268D01*
X154371671Y-88873629D01*
X154364727Y-88872458D01*
X154336435Y-88865838D01*
X154336435Y-87916364D01*
X154415394Y-87910026D01*
X154508685Y-87890890D01*
X154591209Y-87850846D01*
X154659962Y-87792418D01*
X154711937Y-87718129D01*
X154743137Y-87634748D01*
X154757772Y-87607698D01*
X154789181Y-87594156D01*
X154790566Y-87593872D01*
X154803826Y-87592247D01*
X154817405Y-87594256D01*
X154833819Y-87601858D01*
X154855589Y-87617016D01*
X154885233Y-87641688D01*
X154925268Y-87677836D01*
X154978215Y-87727420D01*
X155046591Y-87792401D01*
X155050995Y-87796599D01*
X155124389Y-87866493D01*
X155202563Y-87940800D01*
X155280136Y-88014414D01*
X155351725Y-88082229D01*
X155411949Y-88139140D01*
X155425413Y-88151832D01*
X155476180Y-88200487D01*
X155519625Y-88243709D01*
X155552759Y-88278395D01*
X155572595Y-88301444D01*
X155576954Y-88309182D01*
X155567830Y-88320722D01*
X155542800Y-88347710D01*
X155503948Y-88388021D01*
X155453357Y-88439529D01*
X155393112Y-88500109D01*
X155325296Y-88567636D01*
X155269435Y-88622826D01*
X154963871Y-88923724D01*
X154963871Y-89102021D01*
X154975589Y-89091751D01*
X155002401Y-89070471D01*
X155020192Y-89059251D01*
X155028430Y-89056754D01*
X155046410Y-89057700D01*
X155087108Y-89060573D01*
X155148181Y-89065187D01*
X155227287Y-89071358D01*
X155322086Y-89078898D01*
X155430233Y-89087621D01*
X155549388Y-89097343D01*
X155677209Y-89107876D01*
X155779365Y-89116365D01*
X156355326Y-89164396D01*
X156355326Y-89040805D01*
X156342896Y-89040273D01*
X156307890Y-89037769D01*
X156252785Y-89033496D01*
X156180057Y-89027653D01*
X156092186Y-89020443D01*
X155991649Y-89012066D01*
X155880923Y-89002723D01*
X155775795Y-88993758D01*
X155656517Y-88983602D01*
X155543920Y-88974142D01*
X155440695Y-88965596D01*
X155349527Y-88958179D01*
X155273105Y-88952108D01*
X155214117Y-88947601D01*
X155175251Y-88944873D01*
X155160156Y-88944116D01*
X155150762Y-88942935D01*
X155147034Y-88938256D01*
X155150529Y-88928276D01*
X155162801Y-88911190D01*
X155185406Y-88885196D01*
X155219900Y-88848490D01*
X155267838Y-88799267D01*
X155330776Y-88735726D01*
X155398032Y-88668305D01*
X155673523Y-88392601D01*
X155675594Y-88394533D01*
X155675594Y-88212290D01*
X155664220Y-88203984D01*
X155637437Y-88180733D01*
X155597708Y-88144865D01*
X155547493Y-88098713D01*
X155489254Y-88044606D01*
X155425453Y-87984874D01*
X155358551Y-87921848D01*
X155291010Y-87857858D01*
X155225290Y-87795236D01*
X155163854Y-87736310D01*
X155109163Y-87683412D01*
X155063678Y-87638872D01*
X155029862Y-87605020D01*
X155010174Y-87584188D01*
X155006163Y-87578506D01*
X155019109Y-87576634D01*
X155054866Y-87572746D01*
X155111196Y-87567057D01*
X155185860Y-87559781D01*
X155276620Y-87551131D01*
X155381238Y-87541322D01*
X155497474Y-87530566D01*
X155623092Y-87519079D01*
X155724382Y-87509907D01*
X155855721Y-87498174D01*
X155979448Y-87487335D01*
X156093319Y-87477570D01*
X156195089Y-87469063D01*
X156282513Y-87461995D01*
X156353347Y-87456549D01*
X156405347Y-87452908D01*
X156436268Y-87451253D01*
X156444297Y-87451442D01*
X156437146Y-87461334D01*
X156414159Y-87486524D01*
X156377561Y-87524810D01*
X156329578Y-87573989D01*
X156272434Y-87631861D01*
X156208353Y-87696222D01*
X156139562Y-87764871D01*
X156068284Y-87835605D01*
X155996745Y-87906222D01*
X155927170Y-87974520D01*
X155861783Y-88038296D01*
X155802809Y-88095350D01*
X155752473Y-88143478D01*
X155713001Y-88180478D01*
X155686617Y-88204148D01*
X155675594Y-88212290D01*
X155675594Y-88394533D01*
X155783705Y-88495409D01*
X155839623Y-88547768D01*
X155902052Y-88606535D01*
X155968557Y-88669385D01*
X156036702Y-88733995D01*
X156104052Y-88798042D01*
X156168172Y-88859203D01*
X156226628Y-88915153D01*
X156276982Y-88963570D01*
X156316802Y-89002130D01*
X156343650Y-89028509D01*
X156355092Y-89040384D01*
X156355326Y-89040805D01*
X156355326Y-89164396D01*
X156499274Y-89176401D01*
X157130842Y-89776938D01*
X157762411Y-90377475D01*
X157850685Y-90377034D01*
X157938960Y-90376592D01*
X157835334Y-90279583D01*
X157777537Y-90225291D01*
X157709632Y-90161192D01*
X157633428Y-90089016D01*
X157550731Y-90010492D01*
X157463347Y-89927349D01*
X157373085Y-89841319D01*
X157281750Y-89754130D01*
X157191151Y-89667513D01*
X157103093Y-89583197D01*
X157019385Y-89502912D01*
X156941833Y-89428387D01*
X156872243Y-89361354D01*
X156812424Y-89303541D01*
X156764182Y-89256679D01*
X156729324Y-89222496D01*
X156709657Y-89202724D01*
X156705884Y-89198390D01*
X156719008Y-89198092D01*
X156752611Y-89199731D01*
X156802120Y-89203023D01*
X156862963Y-89207682D01*
X156887268Y-89209682D01*
X157065049Y-89224577D01*
X157065049Y-89107955D01*
X157036757Y-89101934D01*
X157014382Y-89098863D01*
X156972283Y-89094548D01*
X156915822Y-89089488D01*
X156850365Y-89084181D01*
X156826138Y-89082344D01*
X156756579Y-89076927D01*
X156691982Y-89071459D01*
X156638452Y-89066488D01*
X156602090Y-89062561D01*
X156595491Y-89061675D01*
X156581944Y-89058334D01*
X156566086Y-89051101D01*
X156546139Y-89038440D01*
X156520327Y-89018811D01*
X156486871Y-88990678D01*
X156443993Y-88952502D01*
X156389917Y-88902746D01*
X156322864Y-88839871D01*
X156241057Y-88762341D01*
X156158050Y-88683251D01*
X156075906Y-88604564D01*
X155999831Y-88531112D01*
X155931675Y-88464724D01*
X155873288Y-88407227D01*
X155826519Y-88360451D01*
X155793218Y-88326224D01*
X155775233Y-88306373D01*
X155772558Y-88302140D01*
X155782259Y-88291003D01*
X155807559Y-88264971D01*
X155845918Y-88226570D01*
X155894800Y-88178328D01*
X155951666Y-88122770D01*
X155993094Y-88082592D01*
X156210000Y-87872831D01*
X156210000Y-88491337D01*
X156448911Y-88491337D01*
X156448911Y-87736881D01*
X156342458Y-87736881D01*
X156480346Y-87598565D01*
X156578160Y-87500447D01*
X156578160Y-87309357D01*
X156562730Y-87307529D01*
X156554133Y-87298277D01*
X156550387Y-87275950D01*
X156549511Y-87234895D01*
X156549505Y-87227624D01*
X156549505Y-87145891D01*
X156768828Y-87145891D01*
X156687821Y-87227624D01*
X156638572Y-87273730D01*
X156600841Y-87301306D01*
X156578160Y-87309357D01*
X156578160Y-87500447D01*
X156618234Y-87460248D01*
X156741048Y-87460248D01*
X156797550Y-87459863D01*
X156833495Y-87458100D01*
X156853470Y-87454050D01*
X156862063Y-87446801D01*
X156863861Y-87435870D01*
X156866502Y-87423712D01*
X156877088Y-87414727D01*
X156899619Y-87407826D01*
X156938091Y-87401924D01*
X156996502Y-87395935D01*
X157017896Y-87394013D01*
X157065049Y-87389852D01*
X157065049Y-89107955D01*
X157065049Y-89224577D01*
X157065049Y-89384109D01*
X157178218Y-89384109D01*
X157178218Y-89316314D01*
X157179304Y-89276662D01*
X157184546Y-89255116D01*
X157187666Y-89252480D01*
X157187666Y-89113616D01*
X157180538Y-89106308D01*
X157178338Y-89080993D01*
X157178218Y-89063908D01*
X157178218Y-89006881D01*
X157178218Y-88794221D01*
X157178218Y-87379698D01*
X157227214Y-87427542D01*
X157287676Y-87501850D01*
X157334309Y-87593816D01*
X157367751Y-87704998D01*
X157386247Y-87815471D01*
X157394878Y-87887773D01*
X157303960Y-87887773D01*
X157303960Y-88466188D01*
X157407107Y-88466188D01*
X157398504Y-88551065D01*
X157391244Y-88610368D01*
X157381621Y-88673551D01*
X157374748Y-88711386D01*
X157359593Y-88786832D01*
X157268905Y-88790526D01*
X157178218Y-88794221D01*
X157178218Y-89006881D01*
X157228515Y-89006881D01*
X157260024Y-89008544D01*
X157277537Y-89012697D01*
X157278812Y-89014371D01*
X157270746Y-89032987D01*
X157251180Y-89060183D01*
X157227056Y-89087448D01*
X157205318Y-89106267D01*
X157202492Y-89107943D01*
X157187666Y-89113616D01*
X157187666Y-89252480D01*
X157196919Y-89244662D01*
X157210396Y-89240442D01*
X157245373Y-89223219D01*
X157287421Y-89190138D01*
X157330644Y-89146893D01*
X157369146Y-89099174D01*
X157389199Y-89067830D01*
X157411149Y-89032123D01*
X157429589Y-89013819D01*
X157451332Y-89007388D01*
X157464282Y-89006894D01*
X157467425Y-89006894D01*
X157467425Y-88365594D01*
X157404554Y-88365594D01*
X157404554Y-87988367D01*
X157467425Y-87988367D01*
X157467425Y-88365594D01*
X157467425Y-89006894D01*
X157505148Y-89006881D01*
X157505148Y-88901048D01*
X157503971Y-88852355D01*
X157500835Y-88814405D01*
X157496329Y-88793308D01*
X157494505Y-88791023D01*
X157491705Y-88777641D01*
X157492852Y-88745074D01*
X157497607Y-88698916D01*
X157501997Y-88667376D01*
X157510622Y-88610188D01*
X157518409Y-88557886D01*
X157524153Y-88518582D01*
X157525785Y-88507055D01*
X157535112Y-88476937D01*
X157549728Y-88466188D01*
X157555680Y-88462920D01*
X157560222Y-88451230D01*
X157563530Y-88428288D01*
X157565785Y-88391265D01*
X157567166Y-88337332D01*
X157567850Y-88263660D01*
X157568020Y-88176980D01*
X157567923Y-88084471D01*
X157567470Y-88014094D01*
X157566410Y-87962836D01*
X157564497Y-87927680D01*
X157561481Y-87905611D01*
X157557115Y-87893615D01*
X157551151Y-87888676D01*
X157544216Y-87887773D01*
X157522205Y-87880079D01*
X157509679Y-87854879D01*
X157505212Y-87808991D01*
X157505148Y-87800736D01*
X157497132Y-87723027D01*
X157475064Y-87634767D01*
X157441916Y-87543915D01*
X157400661Y-87458430D01*
X157354269Y-87386274D01*
X157346918Y-87376928D01*
X157323002Y-87346467D01*
X157313424Y-87328428D01*
X157316520Y-87315831D01*
X157329296Y-87302900D01*
X157354322Y-87264707D01*
X157363929Y-87215002D01*
X157358933Y-87161476D01*
X157340149Y-87111822D01*
X157308394Y-87073733D01*
X157304703Y-87070975D01*
X157245425Y-87042474D01*
X157184066Y-87037172D01*
X157125573Y-87054482D01*
X157074896Y-87093820D01*
X157070711Y-87098630D01*
X157050833Y-87126560D01*
X157042079Y-87154898D01*
X157041447Y-87194737D01*
X157042008Y-87204689D01*
X157043438Y-87243668D01*
X157040161Y-87263746D01*
X157030272Y-87271015D01*
X157021039Y-87271760D01*
X156994256Y-87273284D01*
X156953975Y-87277065D01*
X156929876Y-87279782D01*
X156891599Y-87283723D01*
X156872004Y-87282084D01*
X156864842Y-87272579D01*
X156863861Y-87255649D01*
X156867099Y-87245608D01*
X156877580Y-87229410D01*
X156896452Y-87205855D01*
X156924865Y-87173743D01*
X156963965Y-87131872D01*
X157014903Y-87079043D01*
X157078827Y-87014055D01*
X157156886Y-86935709D01*
X157250228Y-86842803D01*
X157360002Y-86734137D01*
X157413048Y-86681769D01*
X157962233Y-86139951D01*
X157875152Y-86140570D01*
G36*
X191549749Y-86379890D02*
X191549561Y-86197350D01*
X191549163Y-86043433D01*
X191548480Y-85915517D01*
X191547433Y-85810979D01*
X191545947Y-85727198D01*
X191543945Y-85661552D01*
X191541351Y-85611419D01*
X191538086Y-85574176D01*
X191534076Y-85547203D01*
X191529243Y-85527877D01*
X191523511Y-85513575D01*
X191517940Y-85503517D01*
X191466721Y-85448056D01*
X191401215Y-85419877D01*
X191329115Y-85422062D01*
X191320676Y-85424422D01*
X191288103Y-85438467D01*
X191231819Y-85467053D01*
X191156431Y-85507512D01*
X191066551Y-85557180D01*
X190966789Y-85613391D01*
X190861753Y-85673478D01*
X190756055Y-85734776D01*
X190654304Y-85794619D01*
X190561111Y-85850341D01*
X190481084Y-85899276D01*
X190418834Y-85938759D01*
X190378971Y-85966123D01*
X190367927Y-85975388D01*
X190355774Y-85990129D01*
X190346405Y-86008232D01*
X190339267Y-86034359D01*
X190333809Y-86073171D01*
X190329479Y-86129328D01*
X190325724Y-86207493D01*
X190321993Y-86312326D01*
X190319785Y-86381971D01*
X190316156Y-86489403D01*
X190312392Y-86584448D01*
X190308730Y-86662243D01*
X190305409Y-86717924D01*
X190302668Y-86746626D01*
X190301759Y-86749467D01*
X190285590Y-86741446D01*
X190245302Y-86719317D01*
X190186065Y-86685977D01*
X190113047Y-86644324D01*
X190067693Y-86618234D01*
X189840232Y-86487000D01*
X189839600Y-85706372D01*
X190223228Y-85487746D01*
X190328902Y-85426762D01*
X190426541Y-85368976D01*
X190511703Y-85317131D01*
X190579946Y-85273969D01*
X190626828Y-85242235D01*
X190646562Y-85226300D01*
X190686267Y-85183480D01*
X190686267Y-83047710D01*
X190630427Y-82993589D01*
X190602775Y-82968388D01*
X190576227Y-82950334D01*
X190547463Y-82940518D01*
X190513166Y-82940033D01*
X190470016Y-82949970D01*
X190414693Y-82971423D01*
X190343879Y-83005483D01*
X190254256Y-83053244D01*
X190142503Y-83115797D01*
X190005302Y-83194234D01*
X189984532Y-83206167D01*
X189841455Y-83289041D01*
X189726042Y-83357413D01*
X189636069Y-83412708D01*
X189569315Y-83456352D01*
X189523556Y-83489771D01*
X189496569Y-83514391D01*
X189489530Y-83523667D01*
X189478780Y-83545408D01*
X189470459Y-83574046D01*
X189464091Y-83614442D01*
X189459198Y-83671458D01*
X189455304Y-83749955D01*
X189451931Y-83854795D01*
X189450133Y-83925101D01*
X189441667Y-84275736D01*
X189208834Y-84139364D01*
X188976000Y-84002992D01*
X188973846Y-83695596D01*
X188972479Y-83579717D01*
X188970103Y-83459435D01*
X188966992Y-83345366D01*
X188963418Y-83248125D01*
X188961146Y-83201934D01*
X188950600Y-83015667D01*
X188857467Y-82954162D01*
X188816988Y-82928554D01*
X188752426Y-82889078D01*
X188668994Y-82838859D01*
X188571905Y-82781022D01*
X188466373Y-82718690D01*
X188384233Y-82670529D01*
X188265171Y-82601346D01*
X188171168Y-82547840D01*
X188098338Y-82508100D01*
X188042799Y-82480219D01*
X188000665Y-82462285D01*
X187968053Y-82452390D01*
X187941078Y-82448624D01*
X187932401Y-82448400D01*
X187914657Y-82449931D01*
X187892436Y-82455354D01*
X187863418Y-82465909D01*
X187825280Y-82482839D01*
X187775702Y-82507387D01*
X187712363Y-82540796D01*
X187632941Y-82584306D01*
X187535117Y-82639160D01*
X187416567Y-82706602D01*
X187274973Y-82787872D01*
X187108011Y-82884214D01*
X186983235Y-82956403D01*
X186818647Y-83052099D01*
X186663883Y-83142873D01*
X186521459Y-83227202D01*
X186393890Y-83303561D01*
X186283691Y-83370427D01*
X186193377Y-83426277D01*
X186125464Y-83469586D01*
X186082466Y-83498831D01*
X186067784Y-83510970D01*
X186036185Y-83574710D01*
X186032619Y-83647422D01*
X186057316Y-83717760D01*
X186078142Y-83739655D01*
X186121955Y-83772737D01*
X186190179Y-83817917D01*
X186284237Y-83876102D01*
X186405553Y-83948201D01*
X186545600Y-84029406D01*
X186678483Y-84105445D01*
X186785634Y-84165846D01*
X186870420Y-84212291D01*
X186936211Y-84246465D01*
X186986375Y-84270052D01*
X187024281Y-84284735D01*
X187053296Y-84292197D01*
X187075217Y-84294133D01*
X187107332Y-84290971D01*
X187145438Y-84279943D01*
X187194621Y-84258738D01*
X187259966Y-84225046D01*
X187346557Y-84176555D01*
X187393350Y-84149558D01*
X187479574Y-84099689D01*
X187558919Y-84054130D01*
X187625320Y-84016336D01*
X187672713Y-83989766D01*
X187691150Y-83979790D01*
X187739867Y-83954597D01*
X187739604Y-84230199D01*
X187739342Y-84505800D01*
X187354371Y-84725933D01*
X187248686Y-84787071D01*
X187151125Y-84844841D01*
X187066088Y-84896532D01*
X186997976Y-84939434D01*
X186951191Y-84970832D01*
X186931300Y-84986639D01*
X186921012Y-84998212D01*
X186912770Y-85011090D01*
X186906353Y-85028890D01*
X186901539Y-85055225D01*
X186898105Y-85093711D01*
X186895831Y-85147961D01*
X186894494Y-85221591D01*
X186893872Y-85318216D01*
X186893743Y-85441449D01*
X186893887Y-85594906D01*
X186893888Y-85596239D01*
X186894577Y-86165267D01*
X186940455Y-86217276D01*
X186969159Y-86241428D01*
X187022241Y-86278124D01*
X187095233Y-86324825D01*
X187183667Y-86378990D01*
X187283076Y-86438080D01*
X187388992Y-86499554D01*
X187496946Y-86560872D01*
X187602472Y-86619494D01*
X187701101Y-86672881D01*
X187788365Y-86718492D01*
X187859798Y-86753787D01*
X187910929Y-86776227D01*
X187936139Y-86783334D01*
X187988469Y-86769902D01*
X188046868Y-86733265D01*
X188049275Y-86731301D01*
X188112400Y-86679268D01*
X188114238Y-86286801D01*
X188115245Y-86168307D01*
X188117042Y-86055287D01*
X188119461Y-85954139D01*
X188122337Y-85871262D01*
X188125504Y-85813054D01*
X188126938Y-85796985D01*
X188137800Y-85699637D01*
X188370634Y-85565843D01*
X188603467Y-85432050D01*
X188603467Y-86980094D01*
X188270414Y-87170998D01*
X188161243Y-87233204D01*
X188077298Y-87279929D01*
X188014684Y-87312983D01*
X187969508Y-87334176D01*
X187937875Y-87345320D01*
X187915891Y-87348224D01*
X187899661Y-87344699D01*
X187898177Y-87344050D01*
X187873034Y-87330779D01*
X187823169Y-87302957D01*
X187753083Y-87263151D01*
X187667276Y-87213928D01*
X187570249Y-87157854D01*
X187494855Y-87114032D01*
X187365409Y-87039551D01*
X187262183Y-86982341D01*
X187182960Y-86941278D01*
X187125525Y-86915237D01*
X187087662Y-86903096D01*
X187076537Y-86901867D01*
X187054410Y-86904517D01*
X187024843Y-86913412D01*
X186985184Y-86929969D01*
X186932779Y-86955605D01*
X186864976Y-86991738D01*
X186779122Y-87039785D01*
X186672565Y-87101163D01*
X186542651Y-87177289D01*
X186386727Y-87269581D01*
X186372992Y-87277740D01*
X186280104Y-87333944D01*
X186196745Y-87386310D01*
X186127521Y-87431788D01*
X186077039Y-87467326D01*
X186049906Y-87489873D01*
X186047025Y-87493614D01*
X186032128Y-87548964D01*
X186033836Y-87615585D01*
X186051492Y-87675611D01*
X186053904Y-87680195D01*
X186077426Y-87703359D01*
X186130019Y-87741239D01*
X186210600Y-87793141D01*
X186318081Y-87858371D01*
X186451379Y-87936236D01*
X186480871Y-87953166D01*
X186884733Y-88184410D01*
X186889381Y-88466961D01*
X186894028Y-88749513D01*
X186821647Y-88707130D01*
X186791303Y-88689481D01*
X186735206Y-88656974D01*
X186656934Y-88611677D01*
X186560067Y-88555660D01*
X186448183Y-88490992D01*
X186324861Y-88419744D01*
X186193681Y-88343983D01*
X186148133Y-88317685D01*
X185547000Y-87970623D01*
X185542763Y-87584411D01*
X185538525Y-87198200D01*
X185937836Y-86970285D01*
X186059409Y-86899874D01*
X186165412Y-86836439D01*
X186252727Y-86781955D01*
X186318233Y-86738399D01*
X186358812Y-86707747D01*
X186369640Y-86696738D01*
X186376302Y-86686229D01*
X186381987Y-86673125D01*
X186386771Y-86654831D01*
X186390733Y-86628748D01*
X186393949Y-86592278D01*
X186396498Y-86542824D01*
X186398455Y-86477788D01*
X186399900Y-86394573D01*
X186400909Y-86290582D01*
X186401559Y-86163216D01*
X186401929Y-86009878D01*
X186402094Y-85827971D01*
X186402133Y-85614897D01*
X186402133Y-85605852D01*
X186402101Y-85391573D01*
X186401951Y-85208541D01*
X186401603Y-85054136D01*
X186400979Y-84925739D01*
X186399998Y-84820729D01*
X186398581Y-84736486D01*
X186396647Y-84670392D01*
X186394119Y-84619826D01*
X186390915Y-84582169D01*
X186386957Y-84554800D01*
X186382165Y-84535100D01*
X186376458Y-84520449D01*
X186369759Y-84508227D01*
X186368729Y-84506549D01*
X186321895Y-84457951D01*
X186259871Y-84429165D01*
X186194707Y-84424725D01*
X186168907Y-84431359D01*
X186138609Y-84445764D01*
X186084416Y-84474429D01*
X186010904Y-84514723D01*
X185922645Y-84564016D01*
X185824214Y-84619677D01*
X185720184Y-84679074D01*
X185615131Y-84739578D01*
X185513627Y-84798557D01*
X185420247Y-84853381D01*
X185339564Y-84901418D01*
X185276154Y-84940038D01*
X185234589Y-84966610D01*
X185221034Y-84976549D01*
X185208691Y-84988831D01*
X185199350Y-85003235D01*
X185192593Y-85024289D01*
X185188002Y-85056520D01*
X185185158Y-85104457D01*
X185183644Y-85172628D01*
X185183042Y-85265560D01*
X185182934Y-85387782D01*
X185182934Y-85389285D01*
X185182392Y-85498281D01*
X185180874Y-85594895D01*
X185178541Y-85674344D01*
X185175555Y-85731845D01*
X185172075Y-85762614D01*
X185170234Y-85766482D01*
X185151925Y-85758099D01*
X185109719Y-85735524D01*
X185048931Y-85701697D01*
X184974877Y-85659558D01*
X184928934Y-85633042D01*
X184700334Y-85500453D01*
X184689893Y-85104727D01*
X184686775Y-84986345D01*
X184683826Y-84873955D01*
X184681207Y-84773785D01*
X184679082Y-84692066D01*
X184677613Y-84635025D01*
X184677193Y-84618427D01*
X184672807Y-84560416D01*
X184659464Y-84521598D01*
X184631465Y-84487454D01*
X184622343Y-84478727D01*
X184557903Y-84438805D01*
X184488100Y-84428707D01*
X184420540Y-84446975D01*
X184362832Y-84492148D01*
X184334909Y-84533862D01*
X184321580Y-84564367D01*
X184312658Y-84598715D01*
X184307480Y-84643806D01*
X184305378Y-84706538D01*
X184305687Y-84793810D01*
X184306237Y-84831092D01*
X184307853Y-84930161D01*
X184309810Y-85051100D01*
X184311914Y-85181917D01*
X184313972Y-85310617D01*
X184315067Y-85379490D01*
X184317014Y-85490351D01*
X184319238Y-85572399D01*
X184322357Y-85630686D01*
X184326991Y-85670265D01*
X184333756Y-85696187D01*
X184343271Y-85713504D01*
X184356154Y-85727270D01*
X184357798Y-85728779D01*
X184381687Y-85745745D01*
X184430991Y-85777079D01*
X184501706Y-85820368D01*
X184589832Y-85873196D01*
X184691364Y-85933150D01*
X184802302Y-85997817D01*
X184839385Y-86019255D01*
X184966951Y-86092624D01*
X185068996Y-86150592D01*
X185149182Y-86194945D01*
X185211169Y-86227469D01*
X185258619Y-86249950D01*
X185295193Y-86264174D01*
X185324552Y-86271927D01*
X185350356Y-86274995D01*
X185364319Y-86275333D01*
X185417332Y-86272291D01*
X185452079Y-86258473D01*
X185483953Y-86226841D01*
X185491967Y-86216971D01*
X185538534Y-86158610D01*
X185538542Y-85217000D01*
X185695171Y-85128308D01*
X185772067Y-85084665D01*
X185848995Y-85040833D01*
X185914332Y-85003443D01*
X185940700Y-84988266D01*
X186029600Y-84936915D01*
X186029523Y-85711958D01*
X186029447Y-86487000D01*
X185669690Y-86688657D01*
X185565276Y-86748187D01*
X185467333Y-86805899D01*
X185380918Y-86858667D01*
X185311086Y-86903365D01*
X185262894Y-86936867D01*
X185246434Y-86950327D01*
X185182934Y-87010340D01*
X185183472Y-87586870D01*
X185183861Y-87748065D01*
X185184780Y-87878579D01*
X185186357Y-87981597D01*
X185188717Y-88060303D01*
X185191988Y-88117880D01*
X185196296Y-88157513D01*
X185201767Y-88182385D01*
X185207639Y-88194583D01*
X185226216Y-88208438D01*
X185271568Y-88237562D01*
X185341081Y-88280399D01*
X185432139Y-88335389D01*
X185542128Y-88400974D01*
X185668435Y-88475594D01*
X185808444Y-88557691D01*
X185959541Y-88645707D01*
X186119111Y-88738082D01*
X186123618Y-88740683D01*
X186314852Y-88851007D01*
X186479056Y-88945471D01*
X186618554Y-89025104D01*
X186735673Y-89090931D01*
X186832739Y-89143980D01*
X186912077Y-89185278D01*
X186976014Y-89215850D01*
X187026875Y-89236725D01*
X187066986Y-89248929D01*
X187098674Y-89253488D01*
X187124264Y-89251429D01*
X187146082Y-89243779D01*
X187166454Y-89231566D01*
X187187705Y-89215815D01*
X187192168Y-89212405D01*
X187248800Y-89169210D01*
X187248800Y-88588155D01*
X187248709Y-88431995D01*
X187248308Y-88306121D01*
X187247412Y-88206953D01*
X187245830Y-88130909D01*
X187243375Y-88074409D01*
X187239859Y-88033873D01*
X187235094Y-88005720D01*
X187228892Y-87986370D01*
X187221064Y-87972241D01*
X187216085Y-87965510D01*
X187191153Y-87943766D01*
X187142105Y-87909031D01*
X187074372Y-87864862D01*
X186993389Y-87814816D01*
X186915518Y-87768761D01*
X186828567Y-87718299D01*
X186750834Y-87673011D01*
X186687452Y-87635900D01*
X186643549Y-87609969D01*
X186624784Y-87598575D01*
X186624286Y-87586408D01*
X186646557Y-87564154D01*
X186693139Y-87530782D01*
X186765571Y-87485266D01*
X186865396Y-87426575D01*
X186978483Y-87362452D01*
X187072232Y-87309921D01*
X187469550Y-87537335D01*
X187595451Y-87608870D01*
X187695837Y-87664564D01*
X187774159Y-87706119D01*
X187833870Y-87735238D01*
X187878422Y-87753625D01*
X187911267Y-87762981D01*
X187931305Y-87765108D01*
X187954422Y-87762490D01*
X187985046Y-87753326D01*
X188026351Y-87735998D01*
X188081513Y-87708885D01*
X188153706Y-87670367D01*
X188246104Y-87618823D01*
X188361881Y-87552634D01*
X188468546Y-87490908D01*
X188602200Y-87412969D01*
X188709266Y-87349658D01*
X188792689Y-87299029D01*
X188855414Y-87259132D01*
X188900384Y-87228020D01*
X188930545Y-87203745D01*
X188948840Y-87184358D01*
X188958215Y-87167913D01*
X188958674Y-87166648D01*
X188962598Y-87137973D01*
X188966052Y-87076458D01*
X188969019Y-86983127D01*
X188971485Y-86859003D01*
X188973432Y-86705110D01*
X188974844Y-86522473D01*
X188975706Y-86312114D01*
X188976000Y-86075058D01*
X188976000Y-85028603D01*
X188927843Y-84982466D01*
X188873578Y-84941849D01*
X188816627Y-84925374D01*
X188750813Y-84933072D01*
X188669959Y-84964978D01*
X188632862Y-84984073D01*
X188522010Y-85044758D01*
X188406126Y-85109784D01*
X188289135Y-85176795D01*
X188174962Y-85243436D01*
X188067532Y-85307352D01*
X187970770Y-85366188D01*
X187888603Y-85417588D01*
X187824956Y-85459196D01*
X187783754Y-85488658D01*
X187769445Y-85502144D01*
X187760660Y-85535519D01*
X187753091Y-85602389D01*
X187746764Y-85702401D01*
X187741704Y-85835206D01*
X187740025Y-85898119D01*
X187731400Y-86257505D01*
X187489787Y-86120484D01*
X187248175Y-85983462D01*
X187257267Y-85217000D01*
X187643702Y-84995280D01*
X187749636Y-84933827D01*
X187847550Y-84875755D01*
X187933041Y-84823777D01*
X188001702Y-84780606D01*
X188049128Y-84748957D01*
X188069777Y-84732813D01*
X188109417Y-84692067D01*
X188115142Y-84141734D01*
X188116506Y-83979658D01*
X188116828Y-83848286D01*
X188116022Y-83744466D01*
X188114002Y-83665047D01*
X188110683Y-83606880D01*
X188105979Y-83566814D01*
X188099805Y-83541698D01*
X188098759Y-83539054D01*
X188063648Y-83492242D01*
X188008094Y-83453988D01*
X187945520Y-83432552D01*
X187922386Y-83430533D01*
X187898261Y-83438716D01*
X187849242Y-83461753D01*
X187779657Y-83497380D01*
X187693833Y-83543331D01*
X187596096Y-83597342D01*
X187503860Y-83649629D01*
X187399511Y-83709259D01*
X187303755Y-83763581D01*
X187220844Y-83810214D01*
X187155028Y-83846778D01*
X187110560Y-83870893D01*
X187092472Y-83879924D01*
X187063531Y-83876045D01*
X187007365Y-83852635D01*
X186923855Y-83809641D01*
X186834238Y-83759358D01*
X186755937Y-83713675D01*
X186689261Y-83673610D01*
X186639193Y-83642252D01*
X186610721Y-83622689D01*
X186606066Y-83617963D01*
X186620298Y-83608130D01*
X186660308Y-83583591D01*
X186722468Y-83546446D01*
X186803154Y-83498794D01*
X186898739Y-83442734D01*
X187005596Y-83380366D01*
X187120102Y-83313789D01*
X187238628Y-83245102D01*
X187357549Y-83176406D01*
X187473240Y-83109798D01*
X187582074Y-83047380D01*
X187680426Y-82991249D01*
X187764669Y-82943506D01*
X187831177Y-82906250D01*
X187876325Y-82881581D01*
X187890873Y-82874072D01*
X187907258Y-82867325D01*
X187924705Y-82865102D01*
X187947282Y-82869212D01*
X187979057Y-82881467D01*
X188024101Y-82903676D01*
X188086481Y-82937649D01*
X188170267Y-82985196D01*
X188270782Y-83043079D01*
X188603467Y-83235148D01*
X188603536Y-83514874D01*
X188604319Y-83631375D01*
X188606421Y-83757312D01*
X188609547Y-83879552D01*
X188613403Y-83984962D01*
X188614646Y-84011110D01*
X188625688Y-84227620D01*
X188771211Y-84317393D01*
X188829848Y-84352995D01*
X188911072Y-84401507D01*
X189008122Y-84458932D01*
X189114239Y-84521278D01*
X189222663Y-84584548D01*
X189257281Y-84604649D01*
X189378350Y-84674279D01*
X189474477Y-84727476D01*
X189549684Y-84765356D01*
X189607994Y-84789034D01*
X189653432Y-84799625D01*
X189690020Y-84798245D01*
X189721781Y-84786009D01*
X189752738Y-84764031D01*
X189771867Y-84747301D01*
X189831133Y-84693461D01*
X189837060Y-84207848D01*
X189842986Y-83722235D01*
X190063953Y-83597551D01*
X190142297Y-83553502D01*
X190210403Y-83515508D01*
X190262725Y-83486640D01*
X190293719Y-83469967D01*
X190299327Y-83467222D01*
X190302280Y-83482412D01*
X190305029Y-83528135D01*
X190307512Y-83601061D01*
X190309665Y-83697858D01*
X190311426Y-83815194D01*
X190312732Y-83949737D01*
X190313519Y-84098154D01*
X190313734Y-84230257D01*
X190313734Y-84998937D01*
X189908611Y-85233897D01*
X189767859Y-85316537D01*
X189656367Y-85384265D01*
X189573271Y-85437644D01*
X189517705Y-85477235D01*
X189488805Y-85503603D01*
X189484902Y-85509649D01*
X189478321Y-85540674D01*
X189472281Y-85600301D01*
X189466873Y-85683269D01*
X189462188Y-85784315D01*
X189458317Y-85898178D01*
X189455352Y-86019596D01*
X189453384Y-86143308D01*
X189452504Y-86264052D01*
X189452804Y-86376567D01*
X189454374Y-86475590D01*
X189457305Y-86555860D01*
X189461690Y-86612116D01*
X189465416Y-86633505D01*
X189471307Y-86655143D01*
X189477490Y-86673488D01*
X189486859Y-86690583D01*
X189502312Y-86708475D01*
X189526744Y-86729209D01*
X189563050Y-86754829D01*
X189614127Y-86787381D01*
X189682870Y-86828911D01*
X189772175Y-86881462D01*
X189884937Y-86947082D01*
X190022161Y-87026716D01*
X190153178Y-87102392D01*
X190258779Y-87162111D01*
X190342602Y-87207320D01*
X190408285Y-87239468D01*
X190459464Y-87260001D01*
X190499777Y-87270369D01*
X190532860Y-87272018D01*
X190562351Y-87266395D01*
X190591887Y-87254950D01*
X190593607Y-87254170D01*
X190619410Y-87240701D01*
X190639934Y-87223891D01*
X190655780Y-87199990D01*
X190667549Y-87165244D01*
X190675842Y-87115902D01*
X190681258Y-87048210D01*
X190684400Y-86958418D01*
X190685868Y-86842771D01*
X190686263Y-86697519D01*
X190686267Y-86675452D01*
X190686267Y-86210289D01*
X190925120Y-86073478D01*
X191005752Y-86027522D01*
X191075613Y-85988141D01*
X191129648Y-85958147D01*
X191162802Y-85940357D01*
X191170824Y-85936667D01*
X191172133Y-85953040D01*
X191173172Y-85999921D01*
X191173929Y-86073953D01*
X191174394Y-86171778D01*
X191174557Y-86290038D01*
X191174406Y-86425376D01*
X191173932Y-86574433D01*
X191173271Y-86708583D01*
X191168867Y-87480500D01*
X190837474Y-87671325D01*
X190506082Y-87862150D01*
X190101985Y-87627841D01*
X189982068Y-87558480D01*
X189887568Y-87504473D01*
X189814697Y-87464027D01*
X189759667Y-87435351D01*
X189718688Y-87416655D01*
X189687971Y-87406148D01*
X189663727Y-87402038D01*
X189642167Y-87402535D01*
X189629045Y-87404283D01*
X189594118Y-87416138D01*
X189532121Y-87445097D01*
X189442757Y-87491321D01*
X189325726Y-87554970D01*
X189180731Y-87636204D01*
X189007474Y-87735183D01*
X188916734Y-87787568D01*
X188696532Y-87915154D01*
X188504237Y-88026800D01*
X188338359Y-88123385D01*
X188197408Y-88205790D01*
X188079898Y-88274895D01*
X187984339Y-88331579D01*
X187909242Y-88376723D01*
X187853119Y-88411208D01*
X187814482Y-88435912D01*
X187791841Y-88451716D01*
X187787667Y-88455094D01*
X187758411Y-88500138D01*
X187746163Y-88561515D01*
X187752204Y-88625564D01*
X187767996Y-88664660D01*
X187792394Y-88689118D01*
X187842275Y-88726605D01*
X187913145Y-88774521D01*
X188000514Y-88830267D01*
X188099889Y-88891241D01*
X188206777Y-88954845D01*
X188316687Y-89018478D01*
X188425125Y-89079541D01*
X188527601Y-89135433D01*
X188619621Y-89183554D01*
X188696694Y-89221306D01*
X188754326Y-89246087D01*
X188788027Y-89255297D01*
X188788529Y-89255305D01*
X188819450Y-89250224D01*
X188864496Y-89233624D01*
X188927099Y-89203852D01*
X189010692Y-89159254D01*
X189118706Y-89098175D01*
X189139342Y-89086267D01*
X189229057Y-89034635D01*
X189308603Y-88989352D01*
X189373411Y-88952979D01*
X189418911Y-88928076D01*
X189440533Y-88917203D01*
X189441533Y-88916933D01*
X189444430Y-88932923D01*
X189446396Y-88977140D01*
X189447332Y-89043952D01*
X189447140Y-89127731D01*
X189446320Y-89191242D01*
X189441667Y-89465551D01*
X189074075Y-89678076D01*
X188969918Y-89739083D01*
X188872983Y-89797341D01*
X188787993Y-89849895D01*
X188719671Y-89893789D01*
X188672742Y-89926068D01*
X188654975Y-89940335D01*
X188613285Y-90001393D01*
X188603708Y-90071593D01*
X188626544Y-90148461D01*
X188629042Y-90153406D01*
X188664924Y-90202573D01*
X188714229Y-90229191D01*
X188785510Y-90237701D01*
X188791476Y-90237733D01*
X188816079Y-90235703D01*
X188845308Y-90228438D01*
X188882738Y-90214173D01*
X188931941Y-90191145D01*
X188996491Y-90157590D01*
X189079962Y-90111745D01*
X189185926Y-90051847D01*
X189296356Y-89988564D01*
X189409560Y-89922561D01*
X189515713Y-89858994D01*
X189610492Y-89800583D01*
X189689573Y-89750048D01*
X189748633Y-89710107D01*
X189783347Y-89683480D01*
X189786982Y-89679997D01*
X189844431Y-89620600D01*
X189835634Y-89053792D01*
X189826838Y-88486984D01*
X189773685Y-88439492D01*
X189742931Y-88414388D01*
X189712840Y-88397533D01*
X189679799Y-88390053D01*
X189640193Y-88393075D01*
X189590407Y-88407727D01*
X189526826Y-88435134D01*
X189445835Y-88476425D01*
X189343821Y-88532725D01*
X189217168Y-88605163D01*
X189187712Y-88622178D01*
X188789626Y-88852355D01*
X188709246Y-88806094D01*
X188659623Y-88777417D01*
X188591469Y-88737877D01*
X188515494Y-88693692D01*
X188470230Y-88667317D01*
X188311594Y-88574801D01*
X188461764Y-88487114D01*
X188512987Y-88457351D01*
X188588829Y-88413483D01*
X188684529Y-88358255D01*
X188795327Y-88294409D01*
X188916464Y-88224689D01*
X189043178Y-88151839D01*
X189124747Y-88104987D01*
X189637560Y-87810548D01*
X189700480Y-87840502D01*
X189734831Y-87858290D01*
X189792674Y-87889819D01*
X189868200Y-87931856D01*
X189955596Y-87981163D01*
X190049053Y-88034508D01*
X190051267Y-88035779D01*
X190173564Y-88105920D01*
X190270199Y-88160839D01*
X190344859Y-88202213D01*
X190401231Y-88231719D01*
X190443002Y-88251035D01*
X190473861Y-88261837D01*
X190497492Y-88265802D01*
X190517585Y-88264608D01*
X190537826Y-88259932D01*
X190541730Y-88258861D01*
X190570569Y-88246575D01*
X190624502Y-88219448D01*
X190699384Y-88179726D01*
X190791069Y-88129654D01*
X190895413Y-88071480D01*
X191008270Y-88007448D01*
X191050772Y-87983057D01*
X191192709Y-87900651D01*
X191306719Y-87832834D01*
X191394793Y-87778325D01*
X191458922Y-87735844D01*
X191501098Y-87704111D01*
X191523311Y-87681844D01*
X191526083Y-87677408D01*
X191531111Y-87662822D01*
X191535407Y-87638268D01*
X191539022Y-87601332D01*
X191542010Y-87549600D01*
X191544424Y-87480660D01*
X191546316Y-87392098D01*
X191547739Y-87281500D01*
X191548746Y-87146455D01*
X191549391Y-86984548D01*
X191549725Y-86793366D01*
X191549804Y-86593674D01*
X191549749Y-86379890D01*
X191549749Y-86379890D01*
G37*
X191549749Y-86379890D02*
X191549561Y-86197350D01*
X191549163Y-86043433D01*
X191548480Y-85915517D01*
X191547433Y-85810979D01*
X191545947Y-85727198D01*
X191543945Y-85661552D01*
X191541351Y-85611419D01*
X191538086Y-85574176D01*
X191534076Y-85547203D01*
X191529243Y-85527877D01*
X191523511Y-85513575D01*
X191517940Y-85503517D01*
X191466721Y-85448056D01*
X191401215Y-85419877D01*
X191329115Y-85422062D01*
X191320676Y-85424422D01*
X191288103Y-85438467D01*
X191231819Y-85467053D01*
X191156431Y-85507512D01*
X191066551Y-85557180D01*
X190966789Y-85613391D01*
X190861753Y-85673478D01*
X190756055Y-85734776D01*
X190654304Y-85794619D01*
X190561111Y-85850341D01*
X190481084Y-85899276D01*
X190418834Y-85938759D01*
X190378971Y-85966123D01*
X190367927Y-85975388D01*
X190355774Y-85990129D01*
X190346405Y-86008232D01*
X190339267Y-86034359D01*
X190333809Y-86073171D01*
X190329479Y-86129328D01*
X190325724Y-86207493D01*
X190321993Y-86312326D01*
X190319785Y-86381971D01*
X190316156Y-86489403D01*
X190312392Y-86584448D01*
X190308730Y-86662243D01*
X190305409Y-86717924D01*
X190302668Y-86746626D01*
X190301759Y-86749467D01*
X190285590Y-86741446D01*
X190245302Y-86719317D01*
X190186065Y-86685977D01*
X190113047Y-86644324D01*
X190067693Y-86618234D01*
X189840232Y-86487000D01*
X189839600Y-85706372D01*
X190223228Y-85487746D01*
X190328902Y-85426762D01*
X190426541Y-85368976D01*
X190511703Y-85317131D01*
X190579946Y-85273969D01*
X190626828Y-85242235D01*
X190646562Y-85226300D01*
X190686267Y-85183480D01*
X190686267Y-83047710D01*
X190630427Y-82993589D01*
X190602775Y-82968388D01*
X190576227Y-82950334D01*
X190547463Y-82940518D01*
X190513166Y-82940033D01*
X190470016Y-82949970D01*
X190414693Y-82971423D01*
X190343879Y-83005483D01*
X190254256Y-83053244D01*
X190142503Y-83115797D01*
X190005302Y-83194234D01*
X189984532Y-83206167D01*
X189841455Y-83289041D01*
X189726042Y-83357413D01*
X189636069Y-83412708D01*
X189569315Y-83456352D01*
X189523556Y-83489771D01*
X189496569Y-83514391D01*
X189489530Y-83523667D01*
X189478780Y-83545408D01*
X189470459Y-83574046D01*
X189464091Y-83614442D01*
X189459198Y-83671458D01*
X189455304Y-83749955D01*
X189451931Y-83854795D01*
X189450133Y-83925101D01*
X189441667Y-84275736D01*
X189208834Y-84139364D01*
X188976000Y-84002992D01*
X188973846Y-83695596D01*
X188972479Y-83579717D01*
X188970103Y-83459435D01*
X188966992Y-83345366D01*
X188963418Y-83248125D01*
X188961146Y-83201934D01*
X188950600Y-83015667D01*
X188857467Y-82954162D01*
X188816988Y-82928554D01*
X188752426Y-82889078D01*
X188668994Y-82838859D01*
X188571905Y-82781022D01*
X188466373Y-82718690D01*
X188384233Y-82670529D01*
X188265171Y-82601346D01*
X188171168Y-82547840D01*
X188098338Y-82508100D01*
X188042799Y-82480219D01*
X188000665Y-82462285D01*
X187968053Y-82452390D01*
X187941078Y-82448624D01*
X187932401Y-82448400D01*
X187914657Y-82449931D01*
X187892436Y-82455354D01*
X187863418Y-82465909D01*
X187825280Y-82482839D01*
X187775702Y-82507387D01*
X187712363Y-82540796D01*
X187632941Y-82584306D01*
X187535117Y-82639160D01*
X187416567Y-82706602D01*
X187274973Y-82787872D01*
X187108011Y-82884214D01*
X186983235Y-82956403D01*
X186818647Y-83052099D01*
X186663883Y-83142873D01*
X186521459Y-83227202D01*
X186393890Y-83303561D01*
X186283691Y-83370427D01*
X186193377Y-83426277D01*
X186125464Y-83469586D01*
X186082466Y-83498831D01*
X186067784Y-83510970D01*
X186036185Y-83574710D01*
X186032619Y-83647422D01*
X186057316Y-83717760D01*
X186078142Y-83739655D01*
X186121955Y-83772737D01*
X186190179Y-83817917D01*
X186284237Y-83876102D01*
X186405553Y-83948201D01*
X186545600Y-84029406D01*
X186678483Y-84105445D01*
X186785634Y-84165846D01*
X186870420Y-84212291D01*
X186936211Y-84246465D01*
X186986375Y-84270052D01*
X187024281Y-84284735D01*
X187053296Y-84292197D01*
X187075217Y-84294133D01*
X187107332Y-84290971D01*
X187145438Y-84279943D01*
X187194621Y-84258738D01*
X187259966Y-84225046D01*
X187346557Y-84176555D01*
X187393350Y-84149558D01*
X187479574Y-84099689D01*
X187558919Y-84054130D01*
X187625320Y-84016336D01*
X187672713Y-83989766D01*
X187691150Y-83979790D01*
X187739867Y-83954597D01*
X187739604Y-84230199D01*
X187739342Y-84505800D01*
X187354371Y-84725933D01*
X187248686Y-84787071D01*
X187151125Y-84844841D01*
X187066088Y-84896532D01*
X186997976Y-84939434D01*
X186951191Y-84970832D01*
X186931300Y-84986639D01*
X186921012Y-84998212D01*
X186912770Y-85011090D01*
X186906353Y-85028890D01*
X186901539Y-85055225D01*
X186898105Y-85093711D01*
X186895831Y-85147961D01*
X186894494Y-85221591D01*
X186893872Y-85318216D01*
X186893743Y-85441449D01*
X186893887Y-85594906D01*
X186893888Y-85596239D01*
X186894577Y-86165267D01*
X186940455Y-86217276D01*
X186969159Y-86241428D01*
X187022241Y-86278124D01*
X187095233Y-86324825D01*
X187183667Y-86378990D01*
X187283076Y-86438080D01*
X187388992Y-86499554D01*
X187496946Y-86560872D01*
X187602472Y-86619494D01*
X187701101Y-86672881D01*
X187788365Y-86718492D01*
X187859798Y-86753787D01*
X187910929Y-86776227D01*
X187936139Y-86783334D01*
X187988469Y-86769902D01*
X188046868Y-86733265D01*
X188049275Y-86731301D01*
X188112400Y-86679268D01*
X188114238Y-86286801D01*
X188115245Y-86168307D01*
X188117042Y-86055287D01*
X188119461Y-85954139D01*
X188122337Y-85871262D01*
X188125504Y-85813054D01*
X188126938Y-85796985D01*
X188137800Y-85699637D01*
X188370634Y-85565843D01*
X188603467Y-85432050D01*
X188603467Y-86980094D01*
X188270414Y-87170998D01*
X188161243Y-87233204D01*
X188077298Y-87279929D01*
X188014684Y-87312983D01*
X187969508Y-87334176D01*
X187937875Y-87345320D01*
X187915891Y-87348224D01*
X187899661Y-87344699D01*
X187898177Y-87344050D01*
X187873034Y-87330779D01*
X187823169Y-87302957D01*
X187753083Y-87263151D01*
X187667276Y-87213928D01*
X187570249Y-87157854D01*
X187494855Y-87114032D01*
X187365409Y-87039551D01*
X187262183Y-86982341D01*
X187182960Y-86941278D01*
X187125525Y-86915237D01*
X187087662Y-86903096D01*
X187076537Y-86901867D01*
X187054410Y-86904517D01*
X187024843Y-86913412D01*
X186985184Y-86929969D01*
X186932779Y-86955605D01*
X186864976Y-86991738D01*
X186779122Y-87039785D01*
X186672565Y-87101163D01*
X186542651Y-87177289D01*
X186386727Y-87269581D01*
X186372992Y-87277740D01*
X186280104Y-87333944D01*
X186196745Y-87386310D01*
X186127521Y-87431788D01*
X186077039Y-87467326D01*
X186049906Y-87489873D01*
X186047025Y-87493614D01*
X186032128Y-87548964D01*
X186033836Y-87615585D01*
X186051492Y-87675611D01*
X186053904Y-87680195D01*
X186077426Y-87703359D01*
X186130019Y-87741239D01*
X186210600Y-87793141D01*
X186318081Y-87858371D01*
X186451379Y-87936236D01*
X186480871Y-87953166D01*
X186884733Y-88184410D01*
X186889381Y-88466961D01*
X186894028Y-88749513D01*
X186821647Y-88707130D01*
X186791303Y-88689481D01*
X186735206Y-88656974D01*
X186656934Y-88611677D01*
X186560067Y-88555660D01*
X186448183Y-88490992D01*
X186324861Y-88419744D01*
X186193681Y-88343983D01*
X186148133Y-88317685D01*
X185547000Y-87970623D01*
X185542763Y-87584411D01*
X185538525Y-87198200D01*
X185937836Y-86970285D01*
X186059409Y-86899874D01*
X186165412Y-86836439D01*
X186252727Y-86781955D01*
X186318233Y-86738399D01*
X186358812Y-86707747D01*
X186369640Y-86696738D01*
X186376302Y-86686229D01*
X186381987Y-86673125D01*
X186386771Y-86654831D01*
X186390733Y-86628748D01*
X186393949Y-86592278D01*
X186396498Y-86542824D01*
X186398455Y-86477788D01*
X186399900Y-86394573D01*
X186400909Y-86290582D01*
X186401559Y-86163216D01*
X186401929Y-86009878D01*
X186402094Y-85827971D01*
X186402133Y-85614897D01*
X186402133Y-85605852D01*
X186402101Y-85391573D01*
X186401951Y-85208541D01*
X186401603Y-85054136D01*
X186400979Y-84925739D01*
X186399998Y-84820729D01*
X186398581Y-84736486D01*
X186396647Y-84670392D01*
X186394119Y-84619826D01*
X186390915Y-84582169D01*
X186386957Y-84554800D01*
X186382165Y-84535100D01*
X186376458Y-84520449D01*
X186369759Y-84508227D01*
X186368729Y-84506549D01*
X186321895Y-84457951D01*
X186259871Y-84429165D01*
X186194707Y-84424725D01*
X186168907Y-84431359D01*
X186138609Y-84445764D01*
X186084416Y-84474429D01*
X186010904Y-84514723D01*
X185922645Y-84564016D01*
X185824214Y-84619677D01*
X185720184Y-84679074D01*
X185615131Y-84739578D01*
X185513627Y-84798557D01*
X185420247Y-84853381D01*
X185339564Y-84901418D01*
X185276154Y-84940038D01*
X185234589Y-84966610D01*
X185221034Y-84976549D01*
X185208691Y-84988831D01*
X185199350Y-85003235D01*
X185192593Y-85024289D01*
X185188002Y-85056520D01*
X185185158Y-85104457D01*
X185183644Y-85172628D01*
X185183042Y-85265560D01*
X185182934Y-85387782D01*
X185182934Y-85389285D01*
X185182392Y-85498281D01*
X185180874Y-85594895D01*
X185178541Y-85674344D01*
X185175555Y-85731845D01*
X185172075Y-85762614D01*
X185170234Y-85766482D01*
X185151925Y-85758099D01*
X185109719Y-85735524D01*
X185048931Y-85701697D01*
X184974877Y-85659558D01*
X184928934Y-85633042D01*
X184700334Y-85500453D01*
X184689893Y-85104727D01*
X184686775Y-84986345D01*
X184683826Y-84873955D01*
X184681207Y-84773785D01*
X184679082Y-84692066D01*
X184677613Y-84635025D01*
X184677193Y-84618427D01*
X184672807Y-84560416D01*
X184659464Y-84521598D01*
X184631465Y-84487454D01*
X184622343Y-84478727D01*
X184557903Y-84438805D01*
X184488100Y-84428707D01*
X184420540Y-84446975D01*
X184362832Y-84492148D01*
X184334909Y-84533862D01*
X184321580Y-84564367D01*
X184312658Y-84598715D01*
X184307480Y-84643806D01*
X184305378Y-84706538D01*
X184305687Y-84793810D01*
X184306237Y-84831092D01*
X184307853Y-84930161D01*
X184309810Y-85051100D01*
X184311914Y-85181917D01*
X184313972Y-85310617D01*
X184315067Y-85379490D01*
X184317014Y-85490351D01*
X184319238Y-85572399D01*
X184322357Y-85630686D01*
X184326991Y-85670265D01*
X184333756Y-85696187D01*
X184343271Y-85713504D01*
X184356154Y-85727270D01*
X184357798Y-85728779D01*
X184381687Y-85745745D01*
X184430991Y-85777079D01*
X184501706Y-85820368D01*
X184589832Y-85873196D01*
X184691364Y-85933150D01*
X184802302Y-85997817D01*
X184839385Y-86019255D01*
X184966951Y-86092624D01*
X185068996Y-86150592D01*
X185149182Y-86194945D01*
X185211169Y-86227469D01*
X185258619Y-86249950D01*
X185295193Y-86264174D01*
X185324552Y-86271927D01*
X185350356Y-86274995D01*
X185364319Y-86275333D01*
X185417332Y-86272291D01*
X185452079Y-86258473D01*
X185483953Y-86226841D01*
X185491967Y-86216971D01*
X185538534Y-86158610D01*
X185538542Y-85217000D01*
X185695171Y-85128308D01*
X185772067Y-85084665D01*
X185848995Y-85040833D01*
X185914332Y-85003443D01*
X185940700Y-84988266D01*
X186029600Y-84936915D01*
X186029523Y-85711958D01*
X186029447Y-86487000D01*
X185669690Y-86688657D01*
X185565276Y-86748187D01*
X185467333Y-86805899D01*
X185380918Y-86858667D01*
X185311086Y-86903365D01*
X185262894Y-86936867D01*
X185246434Y-86950327D01*
X185182934Y-87010340D01*
X185183472Y-87586870D01*
X185183861Y-87748065D01*
X185184780Y-87878579D01*
X185186357Y-87981597D01*
X185188717Y-88060303D01*
X185191988Y-88117880D01*
X185196296Y-88157513D01*
X185201767Y-88182385D01*
X185207639Y-88194583D01*
X185226216Y-88208438D01*
X185271568Y-88237562D01*
X185341081Y-88280399D01*
X185432139Y-88335389D01*
X185542128Y-88400974D01*
X185668435Y-88475594D01*
X185808444Y-88557691D01*
X185959541Y-88645707D01*
X186119111Y-88738082D01*
X186123618Y-88740683D01*
X186314852Y-88851007D01*
X186479056Y-88945471D01*
X186618554Y-89025104D01*
X186735673Y-89090931D01*
X186832739Y-89143980D01*
X186912077Y-89185278D01*
X186976014Y-89215850D01*
X187026875Y-89236725D01*
X187066986Y-89248929D01*
X187098674Y-89253488D01*
X187124264Y-89251429D01*
X187146082Y-89243779D01*
X187166454Y-89231566D01*
X187187705Y-89215815D01*
X187192168Y-89212405D01*
X187248800Y-89169210D01*
X187248800Y-88588155D01*
X187248709Y-88431995D01*
X187248308Y-88306121D01*
X187247412Y-88206953D01*
X187245830Y-88130909D01*
X187243375Y-88074409D01*
X187239859Y-88033873D01*
X187235094Y-88005720D01*
X187228892Y-87986370D01*
X187221064Y-87972241D01*
X187216085Y-87965510D01*
X187191153Y-87943766D01*
X187142105Y-87909031D01*
X187074372Y-87864862D01*
X186993389Y-87814816D01*
X186915518Y-87768761D01*
X186828567Y-87718299D01*
X186750834Y-87673011D01*
X186687452Y-87635900D01*
X186643549Y-87609969D01*
X186624784Y-87598575D01*
X186624286Y-87586408D01*
X186646557Y-87564154D01*
X186693139Y-87530782D01*
X186765571Y-87485266D01*
X186865396Y-87426575D01*
X186978483Y-87362452D01*
X187072232Y-87309921D01*
X187469550Y-87537335D01*
X187595451Y-87608870D01*
X187695837Y-87664564D01*
X187774159Y-87706119D01*
X187833870Y-87735238D01*
X187878422Y-87753625D01*
X187911267Y-87762981D01*
X187931305Y-87765108D01*
X187954422Y-87762490D01*
X187985046Y-87753326D01*
X188026351Y-87735998D01*
X188081513Y-87708885D01*
X188153706Y-87670367D01*
X188246104Y-87618823D01*
X188361881Y-87552634D01*
X188468546Y-87490908D01*
X188602200Y-87412969D01*
X188709266Y-87349658D01*
X188792689Y-87299029D01*
X188855414Y-87259132D01*
X188900384Y-87228020D01*
X188930545Y-87203745D01*
X188948840Y-87184358D01*
X188958215Y-87167913D01*
X188958674Y-87166648D01*
X188962598Y-87137973D01*
X188966052Y-87076458D01*
X188969019Y-86983127D01*
X188971485Y-86859003D01*
X188973432Y-86705110D01*
X188974844Y-86522473D01*
X188975706Y-86312114D01*
X188976000Y-86075058D01*
X188976000Y-85028603D01*
X188927843Y-84982466D01*
X188873578Y-84941849D01*
X188816627Y-84925374D01*
X188750813Y-84933072D01*
X188669959Y-84964978D01*
X188632862Y-84984073D01*
X188522010Y-85044758D01*
X188406126Y-85109784D01*
X188289135Y-85176795D01*
X188174962Y-85243436D01*
X188067532Y-85307352D01*
X187970770Y-85366188D01*
X187888603Y-85417588D01*
X187824956Y-85459196D01*
X187783754Y-85488658D01*
X187769445Y-85502144D01*
X187760660Y-85535519D01*
X187753091Y-85602389D01*
X187746764Y-85702401D01*
X187741704Y-85835206D01*
X187740025Y-85898119D01*
X187731400Y-86257505D01*
X187489787Y-86120484D01*
X187248175Y-85983462D01*
X187257267Y-85217000D01*
X187643702Y-84995280D01*
X187749636Y-84933827D01*
X187847550Y-84875755D01*
X187933041Y-84823777D01*
X188001702Y-84780606D01*
X188049128Y-84748957D01*
X188069777Y-84732813D01*
X188109417Y-84692067D01*
X188115142Y-84141734D01*
X188116506Y-83979658D01*
X188116828Y-83848286D01*
X188116022Y-83744466D01*
X188114002Y-83665047D01*
X188110683Y-83606880D01*
X188105979Y-83566814D01*
X188099805Y-83541698D01*
X188098759Y-83539054D01*
X188063648Y-83492242D01*
X188008094Y-83453988D01*
X187945520Y-83432552D01*
X187922386Y-83430533D01*
X187898261Y-83438716D01*
X187849242Y-83461753D01*
X187779657Y-83497380D01*
X187693833Y-83543331D01*
X187596096Y-83597342D01*
X187503860Y-83649629D01*
X187399511Y-83709259D01*
X187303755Y-83763581D01*
X187220844Y-83810214D01*
X187155028Y-83846778D01*
X187110560Y-83870893D01*
X187092472Y-83879924D01*
X187063531Y-83876045D01*
X187007365Y-83852635D01*
X186923855Y-83809641D01*
X186834238Y-83759358D01*
X186755937Y-83713675D01*
X186689261Y-83673610D01*
X186639193Y-83642252D01*
X186610721Y-83622689D01*
X186606066Y-83617963D01*
X186620298Y-83608130D01*
X186660308Y-83583591D01*
X186722468Y-83546446D01*
X186803154Y-83498794D01*
X186898739Y-83442734D01*
X187005596Y-83380366D01*
X187120102Y-83313789D01*
X187238628Y-83245102D01*
X187357549Y-83176406D01*
X187473240Y-83109798D01*
X187582074Y-83047380D01*
X187680426Y-82991249D01*
X187764669Y-82943506D01*
X187831177Y-82906250D01*
X187876325Y-82881581D01*
X187890873Y-82874072D01*
X187907258Y-82867325D01*
X187924705Y-82865102D01*
X187947282Y-82869212D01*
X187979057Y-82881467D01*
X188024101Y-82903676D01*
X188086481Y-82937649D01*
X188170267Y-82985196D01*
X188270782Y-83043079D01*
X188603467Y-83235148D01*
X188603536Y-83514874D01*
X188604319Y-83631375D01*
X188606421Y-83757312D01*
X188609547Y-83879552D01*
X188613403Y-83984962D01*
X188614646Y-84011110D01*
X188625688Y-84227620D01*
X188771211Y-84317393D01*
X188829848Y-84352995D01*
X188911072Y-84401507D01*
X189008122Y-84458932D01*
X189114239Y-84521278D01*
X189222663Y-84584548D01*
X189257281Y-84604649D01*
X189378350Y-84674279D01*
X189474477Y-84727476D01*
X189549684Y-84765356D01*
X189607994Y-84789034D01*
X189653432Y-84799625D01*
X189690020Y-84798245D01*
X189721781Y-84786009D01*
X189752738Y-84764031D01*
X189771867Y-84747301D01*
X189831133Y-84693461D01*
X189837060Y-84207848D01*
X189842986Y-83722235D01*
X190063953Y-83597551D01*
X190142297Y-83553502D01*
X190210403Y-83515508D01*
X190262725Y-83486640D01*
X190293719Y-83469967D01*
X190299327Y-83467222D01*
X190302280Y-83482412D01*
X190305029Y-83528135D01*
X190307512Y-83601061D01*
X190309665Y-83697858D01*
X190311426Y-83815194D01*
X190312732Y-83949737D01*
X190313519Y-84098154D01*
X190313734Y-84230257D01*
X190313734Y-84998937D01*
X189908611Y-85233897D01*
X189767859Y-85316537D01*
X189656367Y-85384265D01*
X189573271Y-85437644D01*
X189517705Y-85477235D01*
X189488805Y-85503603D01*
X189484902Y-85509649D01*
X189478321Y-85540674D01*
X189472281Y-85600301D01*
X189466873Y-85683269D01*
X189462188Y-85784315D01*
X189458317Y-85898178D01*
X189455352Y-86019596D01*
X189453384Y-86143308D01*
X189452504Y-86264052D01*
X189452804Y-86376567D01*
X189454374Y-86475590D01*
X189457305Y-86555860D01*
X189461690Y-86612116D01*
X189465416Y-86633505D01*
X189471307Y-86655143D01*
X189477490Y-86673488D01*
X189486859Y-86690583D01*
X189502312Y-86708475D01*
X189526744Y-86729209D01*
X189563050Y-86754829D01*
X189614127Y-86787381D01*
X189682870Y-86828911D01*
X189772175Y-86881462D01*
X189884937Y-86947082D01*
X190022161Y-87026716D01*
X190153178Y-87102392D01*
X190258779Y-87162111D01*
X190342602Y-87207320D01*
X190408285Y-87239468D01*
X190459464Y-87260001D01*
X190499777Y-87270369D01*
X190532860Y-87272018D01*
X190562351Y-87266395D01*
X190591887Y-87254950D01*
X190593607Y-87254170D01*
X190619410Y-87240701D01*
X190639934Y-87223891D01*
X190655780Y-87199990D01*
X190667549Y-87165244D01*
X190675842Y-87115902D01*
X190681258Y-87048210D01*
X190684400Y-86958418D01*
X190685868Y-86842771D01*
X190686263Y-86697519D01*
X190686267Y-86675452D01*
X190686267Y-86210289D01*
X190925120Y-86073478D01*
X191005752Y-86027522D01*
X191075613Y-85988141D01*
X191129648Y-85958147D01*
X191162802Y-85940357D01*
X191170824Y-85936667D01*
X191172133Y-85953040D01*
X191173172Y-85999921D01*
X191173929Y-86073953D01*
X191174394Y-86171778D01*
X191174557Y-86290038D01*
X191174406Y-86425376D01*
X191173932Y-86574433D01*
X191173271Y-86708583D01*
X191168867Y-87480500D01*
X190837474Y-87671325D01*
X190506082Y-87862150D01*
X190101985Y-87627841D01*
X189982068Y-87558480D01*
X189887568Y-87504473D01*
X189814697Y-87464027D01*
X189759667Y-87435351D01*
X189718688Y-87416655D01*
X189687971Y-87406148D01*
X189663727Y-87402038D01*
X189642167Y-87402535D01*
X189629045Y-87404283D01*
X189594118Y-87416138D01*
X189532121Y-87445097D01*
X189442757Y-87491321D01*
X189325726Y-87554970D01*
X189180731Y-87636204D01*
X189007474Y-87735183D01*
X188916734Y-87787568D01*
X188696532Y-87915154D01*
X188504237Y-88026800D01*
X188338359Y-88123385D01*
X188197408Y-88205790D01*
X188079898Y-88274895D01*
X187984339Y-88331579D01*
X187909242Y-88376723D01*
X187853119Y-88411208D01*
X187814482Y-88435912D01*
X187791841Y-88451716D01*
X187787667Y-88455094D01*
X187758411Y-88500138D01*
X187746163Y-88561515D01*
X187752204Y-88625564D01*
X187767996Y-88664660D01*
X187792394Y-88689118D01*
X187842275Y-88726605D01*
X187913145Y-88774521D01*
X188000514Y-88830267D01*
X188099889Y-88891241D01*
X188206777Y-88954845D01*
X188316687Y-89018478D01*
X188425125Y-89079541D01*
X188527601Y-89135433D01*
X188619621Y-89183554D01*
X188696694Y-89221306D01*
X188754326Y-89246087D01*
X188788027Y-89255297D01*
X188788529Y-89255305D01*
X188819450Y-89250224D01*
X188864496Y-89233624D01*
X188927099Y-89203852D01*
X189010692Y-89159254D01*
X189118706Y-89098175D01*
X189139342Y-89086267D01*
X189229057Y-89034635D01*
X189308603Y-88989352D01*
X189373411Y-88952979D01*
X189418911Y-88928076D01*
X189440533Y-88917203D01*
X189441533Y-88916933D01*
X189444430Y-88932923D01*
X189446396Y-88977140D01*
X189447332Y-89043952D01*
X189447140Y-89127731D01*
X189446320Y-89191242D01*
X189441667Y-89465551D01*
X189074075Y-89678076D01*
X188969918Y-89739083D01*
X188872983Y-89797341D01*
X188787993Y-89849895D01*
X188719671Y-89893789D01*
X188672742Y-89926068D01*
X188654975Y-89940335D01*
X188613285Y-90001393D01*
X188603708Y-90071593D01*
X188626544Y-90148461D01*
X188629042Y-90153406D01*
X188664924Y-90202573D01*
X188714229Y-90229191D01*
X188785510Y-90237701D01*
X188791476Y-90237733D01*
X188816079Y-90235703D01*
X188845308Y-90228438D01*
X188882738Y-90214173D01*
X188931941Y-90191145D01*
X188996491Y-90157590D01*
X189079962Y-90111745D01*
X189185926Y-90051847D01*
X189296356Y-89988564D01*
X189409560Y-89922561D01*
X189515713Y-89858994D01*
X189610492Y-89800583D01*
X189689573Y-89750048D01*
X189748633Y-89710107D01*
X189783347Y-89683480D01*
X189786982Y-89679997D01*
X189844431Y-89620600D01*
X189835634Y-89053792D01*
X189826838Y-88486984D01*
X189773685Y-88439492D01*
X189742931Y-88414388D01*
X189712840Y-88397533D01*
X189679799Y-88390053D01*
X189640193Y-88393075D01*
X189590407Y-88407727D01*
X189526826Y-88435134D01*
X189445835Y-88476425D01*
X189343821Y-88532725D01*
X189217168Y-88605163D01*
X189187712Y-88622178D01*
X188789626Y-88852355D01*
X188709246Y-88806094D01*
X188659623Y-88777417D01*
X188591469Y-88737877D01*
X188515494Y-88693692D01*
X188470230Y-88667317D01*
X188311594Y-88574801D01*
X188461764Y-88487114D01*
X188512987Y-88457351D01*
X188588829Y-88413483D01*
X188684529Y-88358255D01*
X188795327Y-88294409D01*
X188916464Y-88224689D01*
X189043178Y-88151839D01*
X189124747Y-88104987D01*
X189637560Y-87810548D01*
X189700480Y-87840502D01*
X189734831Y-87858290D01*
X189792674Y-87889819D01*
X189868200Y-87931856D01*
X189955596Y-87981163D01*
X190049053Y-88034508D01*
X190051267Y-88035779D01*
X190173564Y-88105920D01*
X190270199Y-88160839D01*
X190344859Y-88202213D01*
X190401231Y-88231719D01*
X190443002Y-88251035D01*
X190473861Y-88261837D01*
X190497492Y-88265802D01*
X190517585Y-88264608D01*
X190537826Y-88259932D01*
X190541730Y-88258861D01*
X190570569Y-88246575D01*
X190624502Y-88219448D01*
X190699384Y-88179726D01*
X190791069Y-88129654D01*
X190895413Y-88071480D01*
X191008270Y-88007448D01*
X191050772Y-87983057D01*
X191192709Y-87900651D01*
X191306719Y-87832834D01*
X191394793Y-87778325D01*
X191458922Y-87735844D01*
X191501098Y-87704111D01*
X191523311Y-87681844D01*
X191526083Y-87677408D01*
X191531111Y-87662822D01*
X191535407Y-87638268D01*
X191539022Y-87601332D01*
X191542010Y-87549600D01*
X191544424Y-87480660D01*
X191546316Y-87392098D01*
X191547739Y-87281500D01*
X191548746Y-87146455D01*
X191549391Y-86984548D01*
X191549725Y-86793366D01*
X191549804Y-86593674D01*
X191549749Y-86379890D01*
D12*
X160303981Y-87350600D02*
G75*
G03X160303981Y-87350600I-283981J0D01*
G01*
X158750000Y-103505000D02*
X159181800Y-103505000D01*
X158750000Y-85725000D02*
X159181800Y-85725000D01*
X185420000Y-85725000D02*
X184988200Y-85725000D01*
X185420000Y-89535000D02*
X185420000Y-89966800D01*
X185420000Y-103505000D02*
X184861200Y-103505000D01*
X185420000Y-99695000D02*
X185420000Y-99263200D01*
X185420000Y-89535000D02*
X185420000Y-85725000D01*
X185420000Y-103505000D02*
X185420000Y-99695000D01*
X158750000Y-103505000D02*
X158750000Y-85725000D01*
D10*
X195900000Y-97685000D02*
X195900000Y-90765000D01*
X192850000Y-90765000D02*
X195900000Y-90765000D01*
X192850000Y-90765000D02*
X192850000Y-97685000D01*
X192850000Y-97685000D02*
X195900000Y-97685000D01*
D13*
X171790360Y-98016060D02*
X171790360Y-91213940D01*
X168191180Y-91213940D02*
X168191180Y-98016060D01*
X169989500Y-89413080D02*
G75*
G02X171790360Y-91213940I0J-1800860D01*
G01*
X168191180Y-91213940D02*
G75*
G02X169989500Y-89415620I1798320J0D01*
G01*
X171787820Y-98016060D02*
G75*
G02X169989500Y-99814380I-1798320J0D01*
G01*
X169989500Y-99814380D02*
G75*
G02X168191180Y-98016060I0J1798320D01*
G01*
X169989500Y-88912700D02*
G75*
G02X172290740Y-91213940I0J-2301240D01*
G01*
X167690800Y-91213940D02*
G75*
G02X169989500Y-88915240I2298700J0D01*
G01*
X172288200Y-98016060D02*
G75*
G02X169989500Y-100314760I-2298700J0D01*
G01*
X169989500Y-100314760D02*
G75*
G02X167690800Y-98016060I0J2298700D01*
G01*
X172290740Y-88915240D02*
X167690800Y-88915240D01*
X167690800Y-88915240D02*
X167690800Y-100314760D01*
X167690800Y-100314760D02*
X172290740Y-100314760D01*
X172290740Y-100314760D02*
X172290740Y-88915240D01*
X179992020Y-96116140D02*
G75*
G03X179992020Y-96116140I-3101340J0D01*
G01*
X166039800Y-102664260D02*
X181940200Y-102664260D01*
X181940200Y-102664260D02*
X181940200Y-86565740D01*
X181940200Y-86565740D02*
X166039800Y-86565740D01*
X166039800Y-86565740D02*
X166039800Y-102664260D01*
D12*
X158876905Y-84542381D02*
X158876905Y-85351905D01*
X158829286Y-85447143D01*
X158781667Y-85494762D01*
X158686429Y-85542381D01*
X158495952Y-85542381D01*
X158400714Y-85494762D01*
X158353095Y-85447143D01*
X158305476Y-85351905D01*
X158305476Y-84542381D01*
X157924524Y-84542381D02*
X157305476Y-84542381D01*
X157638810Y-84923333D01*
X157495952Y-84923333D01*
X157400714Y-84970952D01*
X157353095Y-85018571D01*
X157305476Y-85113810D01*
X157305476Y-85351905D01*
X157353095Y-85447143D01*
X157400714Y-85494762D01*
X157495952Y-85542381D01*
X157781667Y-85542381D01*
X157876905Y-85494762D01*
X157924524Y-85447143D01*
X194127381Y-93876905D02*
X193127381Y-93876905D01*
X193127381Y-94257858D01*
X193175000Y-94353096D01*
X193222619Y-94400715D01*
X193317857Y-94448334D01*
X193460714Y-94448334D01*
X193555952Y-94400715D01*
X193603571Y-94353096D01*
X193651190Y-94257858D01*
X193651190Y-93876905D01*
X194127381Y-95400715D02*
X194127381Y-94829286D01*
X194127381Y-95115000D02*
X193127381Y-95115000D01*
X193270238Y-95019762D01*
X193365476Y-94924524D01*
X193413095Y-94829286D01*
D14*
X175151143Y-103280029D02*
X175151143Y-104513743D01*
X175078571Y-104658886D01*
X175006000Y-104731457D01*
X174860857Y-104804029D01*
X174570571Y-104804029D01*
X174425429Y-104731457D01*
X174352857Y-104658886D01*
X174280286Y-104513743D01*
X174280286Y-103280029D01*
X173627143Y-103425171D02*
X173554572Y-103352600D01*
X173409429Y-103280029D01*
X173046572Y-103280029D01*
X172901429Y-103352600D01*
X172828858Y-103425171D01*
X172756286Y-103570314D01*
X172756286Y-103715457D01*
X172828858Y-103933171D01*
X173699715Y-104804029D01*
X172756286Y-104804029D01*
X178126572Y-85804829D02*
X178634572Y-85079114D01*
X178997429Y-85804829D02*
X178997429Y-84280829D01*
X178416857Y-84280829D01*
X178271715Y-84353400D01*
X178199143Y-84425971D01*
X178126572Y-84571114D01*
X178126572Y-84788829D01*
X178199143Y-84933971D01*
X178271715Y-85006543D01*
X178416857Y-85079114D01*
X178997429Y-85079114D01*
X176965429Y-85006543D02*
X177473429Y-85006543D01*
X177473429Y-85804829D02*
X177473429Y-84280829D01*
X176747715Y-84280829D01*
X176167143Y-85804829D02*
X176167143Y-84280829D01*
X175659143Y-85369400D01*
X175151143Y-84280829D01*
X175151143Y-85804829D01*
X173772286Y-84280829D02*
X174062572Y-84280829D01*
X174207715Y-84353400D01*
X174280286Y-84425971D01*
X174425429Y-84643686D01*
X174498000Y-84933971D01*
X174498000Y-85514543D01*
X174425429Y-85659686D01*
X174352857Y-85732257D01*
X174207715Y-85804829D01*
X173917429Y-85804829D01*
X173772286Y-85732257D01*
X173699715Y-85659686D01*
X173627143Y-85514543D01*
X173627143Y-85151686D01*
X173699715Y-85006543D01*
X173772286Y-84933971D01*
X173917429Y-84861400D01*
X174207715Y-84861400D01*
X174352857Y-84933971D01*
X174425429Y-85006543D01*
X174498000Y-85151686D01*
X172901428Y-85804829D02*
X172611143Y-85804829D01*
X172466000Y-85732257D01*
X172393428Y-85659686D01*
X172248286Y-85441971D01*
X172175714Y-85151686D01*
X172175714Y-84571114D01*
X172248286Y-84425971D01*
X172320857Y-84353400D01*
X172466000Y-84280829D01*
X172756286Y-84280829D01*
X172901428Y-84353400D01*
X172974000Y-84425971D01*
X173046571Y-84571114D01*
X173046571Y-84933971D01*
X172974000Y-85079114D01*
X172901428Y-85151686D01*
X172756286Y-85224257D01*
X172466000Y-85224257D01*
X172320857Y-85151686D01*
X172248286Y-85079114D01*
X172175714Y-84933971D01*
X170651714Y-85659686D02*
X170724285Y-85732257D01*
X170941999Y-85804829D01*
X171087142Y-85804829D01*
X171304857Y-85732257D01*
X171449999Y-85587114D01*
X171522571Y-85441971D01*
X171595142Y-85151686D01*
X171595142Y-84933971D01*
X171522571Y-84643686D01*
X171449999Y-84498543D01*
X171304857Y-84353400D01*
X171087142Y-84280829D01*
X170941999Y-84280829D01*
X170724285Y-84353400D01*
X170651714Y-84425971D01*
X170143714Y-84280829D02*
X169780857Y-85804829D01*
X169490571Y-84716257D01*
X169200285Y-85804829D01*
X168837428Y-84280829D01*
M02*
