M48
INCH,TZ
T1C0.016
T2C0.030
T3C0.039
%
G90
G05
T1
X65800Y-42188
X66744Y-34001
X67063Y-37696
X67624Y-41306
X67628Y-35307
X67752Y-37733
X67878Y-35536
X68264Y-36363
X68377Y-41130
X68558Y-35943
X69337Y-34889
X69594Y-37309
X69600Y-36202
X69642Y-35780
X69673Y-38711
X69681Y-37625
X70362Y-35830
X70544Y-39941
X70593Y-36865
X70925Y-35916
X71334Y-36865
X71517Y-36500
X71521Y-38687
X71800Y-35772
X71834Y-34064
X71838Y-38695
X71910Y-36089
X72113Y-34384
X72939Y-35713
X72964Y-36036
X73139Y-36865
X73188Y-35482
X73445Y-36673
T2
X59250Y-32250
X59250Y-33037
T3
X67000Y-31500
X67000Y-43000
X68000Y-31500
X68000Y-43000
X69000Y-31500
X69000Y-43000
X70000Y-31500
X70000Y-43000
X71000Y-31500
X71000Y-43000
X72000Y-31500
X72000Y-43000
X73000Y-31500
X73000Y-43000
X74000Y-31500
X74000Y-43000
X75500Y-33250
X75500Y-34250
X75500Y-35250
X75500Y-36250
X75500Y-37250
X75500Y-38250
X75500Y-39250
X75500Y-40250
X75500Y-41250
T0
M30
