G04 #@! TF.FileFunction,Paste,Top*
%FSLAX46Y46*%
G04 Gerber Fmt 4.6, Leading zero omitted, Abs format (unit mm)*
G04 Created by KiCad (PCBNEW 4.0.7-e2-6376~58~ubuntu17.04.1) date Wed Oct  4 00:11:51 2017*
%MOMM*%
%LPD*%
G01*
G04 APERTURE LIST*
%ADD10C,0.100000*%
%ADD11R,0.750000X1.200000*%
%ADD12R,1.200000X0.750000*%
%ADD13R,3.200000X1.500000*%
%ADD14R,0.900000X1.200000*%
%ADD15R,1.000760X1.000760*%
%ADD16R,0.550000X1.600000*%
%ADD17R,1.600000X0.550000*%
%ADD18R,1.597660X2.997200*%
%ADD19R,2.000000X1.000000*%
%ADD20R,0.600000X1.550000*%
%ADD21R,1.220000X0.650000*%
%ADD22R,0.700000X1.700000*%
%ADD23R,0.970000X1.270000*%
G04 APERTURE END LIST*
D10*
D11*
X170815000Y-86040000D03*
X170815000Y-84140000D03*
X173990000Y-84140000D03*
X173990000Y-86040000D03*
D12*
X182565000Y-100330000D03*
X184465000Y-100330000D03*
D13*
X149130000Y-88900000D03*
X153130000Y-88900000D03*
X156115000Y-85090000D03*
X160115000Y-85090000D03*
D11*
X164465000Y-79695000D03*
X164465000Y-81595000D03*
X167640000Y-79695000D03*
X167640000Y-81595000D03*
X187960000Y-85405000D03*
X187960000Y-83505000D03*
D14*
X187325000Y-94150000D03*
X187325000Y-96350000D03*
X181610000Y-103040000D03*
X181610000Y-105240000D03*
X187325000Y-99230000D03*
X187325000Y-101430000D03*
X184785000Y-85555000D03*
X184785000Y-83355000D03*
X181610000Y-85555000D03*
X181610000Y-83355000D03*
X161290000Y-79545000D03*
X161290000Y-81745000D03*
X187325000Y-88435000D03*
X187325000Y-90635000D03*
X167640000Y-83990000D03*
X167640000Y-86190000D03*
X164465000Y-86190000D03*
X164465000Y-83990000D03*
D15*
X151709120Y-97330260D03*
X148010880Y-103329740D03*
X148010880Y-97330260D03*
X151709120Y-103329740D03*
D16*
X182505000Y-88460000D03*
X181705000Y-88460000D03*
X180905000Y-88460000D03*
X180105000Y-88460000D03*
X179305000Y-88460000D03*
X178505000Y-88460000D03*
X177705000Y-88460000D03*
X176905000Y-88460000D03*
D17*
X175455000Y-89910000D03*
X175455000Y-90710000D03*
X175455000Y-91510000D03*
X175455000Y-92310000D03*
X175455000Y-93110000D03*
X175455000Y-93910000D03*
X175455000Y-94710000D03*
X175455000Y-95510000D03*
D16*
X176905000Y-96960000D03*
X177705000Y-96960000D03*
X178505000Y-96960000D03*
X179305000Y-96960000D03*
X180105000Y-96960000D03*
X180905000Y-96960000D03*
X181705000Y-96960000D03*
X182505000Y-96960000D03*
D17*
X183955000Y-95510000D03*
X183955000Y-94710000D03*
X183955000Y-93910000D03*
X183955000Y-93110000D03*
X183955000Y-92310000D03*
X183955000Y-91510000D03*
X183955000Y-90710000D03*
X183955000Y-89910000D03*
D18*
X170464480Y-89156540D03*
X168465500Y-89154000D03*
X166463980Y-89154000D03*
X164465000Y-89154000D03*
X162466020Y-89154000D03*
X160464500Y-89154000D03*
X158465520Y-89154000D03*
X158465520Y-105156000D03*
X160464500Y-105156000D03*
X162466020Y-105156000D03*
X164465000Y-105156000D03*
X166463980Y-105156000D03*
X168465500Y-105156000D03*
X170464480Y-105156000D03*
D19*
X155130000Y-92120000D03*
X155130000Y-93390000D03*
X155130000Y-94660000D03*
X155130000Y-95930000D03*
X155130000Y-97200000D03*
X155130000Y-98470000D03*
X155130000Y-99740000D03*
X155130000Y-101010000D03*
D20*
X175260000Y-105570000D03*
X176530000Y-105570000D03*
X177800000Y-105570000D03*
X179070000Y-105570000D03*
X179070000Y-100170000D03*
X177800000Y-100170000D03*
X176530000Y-100170000D03*
X175260000Y-100170000D03*
D21*
X158155000Y-81595000D03*
X158155000Y-79695000D03*
X155535000Y-80645000D03*
X184745000Y-103825000D03*
X184745000Y-105725000D03*
X187365000Y-104775000D03*
D22*
X176600000Y-85090000D03*
X177800000Y-85090000D03*
X179000000Y-85090000D03*
D23*
X160020000Y-109220000D03*
X161290000Y-109220000D03*
X162560000Y-109220000D03*
M02*
