G04 #@! TF.FileFunction,Paste,Bot*
%FSLAX46Y46*%
G04 Gerber Fmt 4.6, Leading zero omitted, Abs format (unit mm)*
G04 Created by KiCad (PCBNEW 4.0.7-e2-6376~60~ubuntu17.10.1) date Tue Dec  5 13:17:51 2017*
%MOMM*%
%LPD*%
G01*
G04 APERTURE LIST*
%ADD10C,0.100000*%
%ADD11R,1.016000X1.524000*%
%ADD12R,1.524000X1.016000*%
%ADD13R,4.700000X1.350000*%
%ADD14R,4.200000X1.270000*%
%ADD15R,2.997200X1.597660*%
G04 APERTURE END LIST*
D10*
D11*
X160020000Y-103505000D03*
X161290000Y-103505000D03*
X162560000Y-103505000D03*
X163830000Y-103505000D03*
X165100000Y-103505000D03*
X166370000Y-103505000D03*
X167640000Y-103505000D03*
X168910000Y-103505000D03*
X170180000Y-103505000D03*
X171450000Y-103505000D03*
X172720000Y-103505000D03*
X173990000Y-103505000D03*
X175260000Y-103505000D03*
X176530000Y-103505000D03*
X177800000Y-103505000D03*
X179070000Y-103505000D03*
X180340000Y-103505000D03*
X181610000Y-103505000D03*
X182880000Y-103505000D03*
X184150000Y-103505000D03*
X184150000Y-85725000D03*
D12*
X185420000Y-98425000D03*
X185420000Y-97155000D03*
X185420000Y-95885000D03*
X185420000Y-94615000D03*
X185420000Y-93345000D03*
X185420000Y-92075000D03*
X185420000Y-90805000D03*
D11*
X182880000Y-85725000D03*
X181610000Y-85725000D03*
X180340000Y-85725000D03*
X179070000Y-85725000D03*
X177800000Y-85725000D03*
X176530000Y-85725000D03*
X175260000Y-85725000D03*
X173990000Y-85725000D03*
X172720000Y-85725000D03*
X171450000Y-85725000D03*
X170180000Y-85725000D03*
X168910000Y-85725000D03*
X167640000Y-85725000D03*
X166370000Y-85725000D03*
X165100000Y-85725000D03*
X163830000Y-85725000D03*
X162560000Y-85725000D03*
X161290000Y-85725000D03*
X160020000Y-85725000D03*
D13*
X190500000Y-97010000D03*
X190500000Y-91440000D03*
X190500000Y-91440000D03*
D14*
X190750000Y-94225000D03*
D13*
X190500000Y-97010000D03*
D15*
X165991540Y-100614480D03*
X165989000Y-98615500D03*
X165989000Y-96613980D03*
X165989000Y-94615000D03*
X165989000Y-92616020D03*
X165989000Y-90614500D03*
X165989000Y-88615520D03*
X181991000Y-88615520D03*
X181991000Y-90614500D03*
X181991000Y-92616020D03*
X181991000Y-94615000D03*
X181991000Y-96613980D03*
X181991000Y-98615500D03*
X181991000Y-100614480D03*
M02*
