G04 #@! TF.FileFunction,Copper,L1,Top,Signal*
%FSLAX46Y46*%
G04 Gerber Fmt 4.6, Leading zero omitted, Abs format (unit mm)*
G04 Created by KiCad (PCBNEW 4.0.7-e2-6376~58~ubuntu17.04.1) date Wed Oct  4 00:11:51 2017*
%MOMM*%
%LPD*%
G01*
G04 APERTURE LIST*
%ADD10C,0.100000*%
%ADD11R,0.750000X1.200000*%
%ADD12R,1.200000X0.750000*%
%ADD13R,3.200000X1.500000*%
%ADD14R,1.700000X1.700000*%
%ADD15O,1.700000X1.700000*%
%ADD16R,1.700000X1.200000*%
%ADD17O,1.700000X1.200000*%
%ADD18R,0.900000X1.200000*%
%ADD19R,1.000760X1.000760*%
%ADD20R,0.550000X1.600000*%
%ADD21R,1.600000X0.550000*%
%ADD22R,1.597660X2.997200*%
%ADD23R,2.000000X1.000000*%
%ADD24R,0.600000X1.550000*%
%ADD25R,1.220000X0.650000*%
%ADD26R,0.700000X1.700000*%
%ADD27R,0.970000X1.270000*%
%ADD28C,0.600000*%
%ADD29C,0.250000*%
%ADD30C,0.254000*%
G04 APERTURE END LIST*
D10*
D11*
X170815000Y-86040000D03*
X170815000Y-84140000D03*
X173990000Y-84140000D03*
X173990000Y-86040000D03*
D12*
X182565000Y-100330000D03*
X184465000Y-100330000D03*
D13*
X149130000Y-88900000D03*
X153130000Y-88900000D03*
X156115000Y-85090000D03*
X160115000Y-85090000D03*
D11*
X164465000Y-79695000D03*
X164465000Y-81595000D03*
X167640000Y-79695000D03*
X167640000Y-81595000D03*
X187960000Y-85405000D03*
X187960000Y-83505000D03*
D14*
X170180000Y-109220000D03*
D15*
X172720000Y-109220000D03*
X175260000Y-109220000D03*
X177800000Y-109220000D03*
X180340000Y-109220000D03*
X182880000Y-109220000D03*
X185420000Y-109220000D03*
X187960000Y-109220000D03*
D14*
X170180000Y-80010000D03*
D15*
X172720000Y-80010000D03*
X175260000Y-80010000D03*
X177800000Y-80010000D03*
X180340000Y-80010000D03*
X182880000Y-80010000D03*
X185420000Y-80010000D03*
X187960000Y-80010000D03*
D16*
X150495000Y-81915000D03*
D17*
X150495000Y-83915000D03*
D18*
X187325000Y-94150000D03*
X187325000Y-96350000D03*
X181610000Y-103040000D03*
X181610000Y-105240000D03*
X187325000Y-99230000D03*
X187325000Y-101430000D03*
X184785000Y-85555000D03*
X184785000Y-83355000D03*
X181610000Y-85555000D03*
X181610000Y-83355000D03*
X161290000Y-79545000D03*
X161290000Y-81745000D03*
X187325000Y-88435000D03*
X187325000Y-90635000D03*
X167640000Y-83990000D03*
X167640000Y-86190000D03*
X164465000Y-86190000D03*
X164465000Y-83990000D03*
D19*
X151709120Y-97330260D03*
X148010880Y-103329740D03*
X148010880Y-97330260D03*
X151709120Y-103329740D03*
D20*
X182505000Y-88460000D03*
X181705000Y-88460000D03*
X180905000Y-88460000D03*
X180105000Y-88460000D03*
X179305000Y-88460000D03*
X178505000Y-88460000D03*
X177705000Y-88460000D03*
X176905000Y-88460000D03*
D21*
X175455000Y-89910000D03*
X175455000Y-90710000D03*
X175455000Y-91510000D03*
X175455000Y-92310000D03*
X175455000Y-93110000D03*
X175455000Y-93910000D03*
X175455000Y-94710000D03*
X175455000Y-95510000D03*
D20*
X176905000Y-96960000D03*
X177705000Y-96960000D03*
X178505000Y-96960000D03*
X179305000Y-96960000D03*
X180105000Y-96960000D03*
X180905000Y-96960000D03*
X181705000Y-96960000D03*
X182505000Y-96960000D03*
D21*
X183955000Y-95510000D03*
X183955000Y-94710000D03*
X183955000Y-93910000D03*
X183955000Y-93110000D03*
X183955000Y-92310000D03*
X183955000Y-91510000D03*
X183955000Y-90710000D03*
X183955000Y-89910000D03*
D22*
X170464480Y-89156540D03*
X168465500Y-89154000D03*
X166463980Y-89154000D03*
X164465000Y-89154000D03*
X162466020Y-89154000D03*
X160464500Y-89154000D03*
X158465520Y-89154000D03*
X158465520Y-105156000D03*
X160464500Y-105156000D03*
X162466020Y-105156000D03*
X164465000Y-105156000D03*
X166463980Y-105156000D03*
X168465500Y-105156000D03*
X170464480Y-105156000D03*
D23*
X155130000Y-92120000D03*
X155130000Y-93390000D03*
X155130000Y-94660000D03*
X155130000Y-95930000D03*
X155130000Y-97200000D03*
X155130000Y-98470000D03*
X155130000Y-99740000D03*
X155130000Y-101010000D03*
D24*
X175260000Y-105570000D03*
X176530000Y-105570000D03*
X177800000Y-105570000D03*
X179070000Y-105570000D03*
X179070000Y-100170000D03*
X177800000Y-100170000D03*
X176530000Y-100170000D03*
X175260000Y-100170000D03*
D25*
X158155000Y-81595000D03*
X158155000Y-79695000D03*
X155535000Y-80645000D03*
X184745000Y-103825000D03*
X184745000Y-105725000D03*
X187365000Y-104775000D03*
D26*
X176600000Y-85090000D03*
X177800000Y-85090000D03*
X179000000Y-85090000D03*
D27*
X160020000Y-109220000D03*
X161290000Y-109220000D03*
X162560000Y-109220000D03*
D14*
X191135000Y-84455000D03*
D15*
X191135000Y-86995000D03*
X191135000Y-89535000D03*
X191135000Y-92075000D03*
X191135000Y-94615000D03*
X191135000Y-97155000D03*
X191135000Y-99695000D03*
X191135000Y-102235000D03*
X191135000Y-104775000D03*
D28*
X180240100Y-95339800D03*
X181260300Y-93140600D03*
X169907100Y-84241800D03*
X185269900Y-92298800D03*
X185795000Y-97700300D03*
X181549800Y-86682300D03*
X180739900Y-87151400D03*
X173866300Y-91975800D03*
X174142900Y-91153800D03*
X177414100Y-94124200D03*
X181562600Y-98262500D03*
X182368500Y-98296400D03*
X182537600Y-91850600D03*
X182651700Y-92767100D03*
X185907200Y-90747200D03*
X171764000Y-89251300D03*
X171998300Y-97699400D03*
X156938800Y-99479100D03*
X172104900Y-103953300D03*
X170256600Y-101389000D03*
X167342700Y-102861500D03*
X169048000Y-102949900D03*
X171638900Y-100977800D03*
X180356400Y-99708600D03*
X176777600Y-92591700D03*
X184938000Y-102981700D03*
X183454900Y-97554800D03*
X180449300Y-98285500D03*
X181978700Y-95366100D03*
X176096800Y-89115500D03*
X181523900Y-89910000D03*
X179305000Y-95656000D03*
X175469100Y-88490200D03*
D29*
X153804700Y-94409000D02*
X151709100Y-96504600D01*
X153804700Y-93390000D02*
X153804700Y-94409000D01*
X151709100Y-97330300D02*
X151709100Y-96504600D01*
X154467400Y-93390000D02*
X153804700Y-93390000D01*
X154467400Y-93390000D02*
X155130000Y-93390000D01*
X156455300Y-92988100D02*
X158465500Y-90977900D01*
X156455300Y-93390000D02*
X156455300Y-92988100D01*
X155130000Y-93390000D02*
X156455300Y-93390000D01*
X158465500Y-89154000D02*
X158465500Y-90977900D01*
X164465000Y-83990000D02*
X163689700Y-83990000D01*
X191135000Y-102235000D02*
X190072300Y-102235000D01*
X151709100Y-99608300D02*
X151709100Y-97330300D01*
X155432900Y-103332100D02*
X151709100Y-99608300D01*
X162466000Y-103332100D02*
X155432900Y-103332100D01*
X162466000Y-105156000D02*
X162466000Y-103332100D01*
X170815000Y-84140000D02*
X170815000Y-83214700D01*
X170815000Y-84140000D02*
X170815000Y-85065300D01*
X173990000Y-84140000D02*
X173990000Y-85065300D01*
X174915600Y-83914700D02*
X174690300Y-84140000D01*
X177800000Y-83914700D02*
X174915600Y-83914700D01*
X173990000Y-84140000D02*
X174690300Y-84140000D01*
X177800000Y-80010000D02*
X177800000Y-80597600D01*
X177800000Y-80597600D02*
X177800000Y-81185300D01*
X178577100Y-80597600D02*
X179164700Y-80010000D01*
X177800000Y-80597600D02*
X178577100Y-80597600D01*
X180340000Y-80010000D02*
X179164700Y-80010000D01*
X163052400Y-84627300D02*
X163689700Y-83990000D01*
X163052400Y-85090000D02*
X163052400Y-84627300D01*
X163052400Y-86296200D02*
X163052400Y-85090000D01*
X163871600Y-87115400D02*
X163052400Y-86296200D01*
X169963400Y-87115400D02*
X163871600Y-87115400D01*
X170097300Y-86981500D02*
X169963400Y-87115400D01*
X171385200Y-86981500D02*
X170097300Y-86981500D01*
X173301400Y-85065300D02*
X171385200Y-86981500D01*
X173990000Y-85065300D02*
X173301400Y-85065300D01*
X170284700Y-85065300D02*
X170815000Y-85065300D01*
X170097300Y-85252700D02*
X170284700Y-85065300D01*
X170097300Y-86981500D02*
X170097300Y-85252700D01*
X184465000Y-100330000D02*
X185390300Y-100330000D01*
X163052400Y-85090000D02*
X160115000Y-85090000D01*
X158950200Y-87330100D02*
X158465500Y-87330100D01*
X160115000Y-86165300D02*
X158950200Y-87330100D01*
X160115000Y-85090000D02*
X160115000Y-86165300D01*
X158465500Y-89154000D02*
X158465500Y-88601900D01*
X158465500Y-88601900D02*
X158465500Y-87330100D01*
X155353400Y-88601900D02*
X155055300Y-88900000D01*
X158465500Y-88601900D02*
X155353400Y-88601900D01*
X153130000Y-88900000D02*
X155055300Y-88900000D01*
X153130000Y-87475300D02*
X153130000Y-88900000D01*
X150495000Y-84840300D02*
X153130000Y-87475300D01*
X150495000Y-83915000D02*
X150495000Y-84840300D01*
X164465000Y-81595000D02*
X165165300Y-81595000D01*
X162989300Y-80819600D02*
X163764700Y-81595000D01*
X158280100Y-80819600D02*
X162989300Y-80819600D01*
X158155000Y-80944700D02*
X158280100Y-80819600D01*
X158155000Y-81595000D02*
X158155000Y-80944700D01*
X164465000Y-81595000D02*
X163764700Y-81595000D01*
X167640000Y-79695000D02*
X167640000Y-80620300D01*
X167640000Y-80669600D02*
X167640000Y-80620300D01*
X168269900Y-80669600D02*
X167640000Y-80669600D01*
X170815000Y-83214700D02*
X168269900Y-80669600D01*
X166090700Y-80669600D02*
X165165300Y-81595000D01*
X167640000Y-80669600D02*
X166090700Y-80669600D01*
X177800000Y-84027300D02*
X177800000Y-83914700D01*
X177800000Y-83914700D02*
X177800000Y-81185300D01*
X187960000Y-85405000D02*
X187259700Y-85405000D01*
X186285100Y-84430400D02*
X187259700Y-85405000D01*
X180394400Y-84430400D02*
X186285100Y-84430400D01*
X179878700Y-83914700D02*
X180394400Y-84430400D01*
X177800000Y-83914700D02*
X179878700Y-83914700D01*
X177800000Y-84558600D02*
X177800000Y-84027300D01*
X177800000Y-84558600D02*
X177800000Y-85090000D01*
X180105000Y-96960000D02*
X180105000Y-95834700D01*
X180240100Y-95699600D02*
X180240100Y-95339800D01*
X180105000Y-95834700D02*
X180240100Y-95699600D01*
X180240100Y-95339800D02*
X180240100Y-89644500D01*
X180180900Y-89585300D02*
X180240100Y-89644500D01*
X179305000Y-89585300D02*
X180180900Y-89585300D01*
X180845800Y-89644500D02*
X180905000Y-89585300D01*
X180240100Y-89644500D02*
X180845800Y-89644500D01*
X180905000Y-88460000D02*
X180905000Y-89585300D01*
X179305000Y-88460000D02*
X179305000Y-89585300D01*
X179665400Y-106165400D02*
X179070000Y-105570000D01*
X182198000Y-106165400D02*
X179665400Y-106165400D01*
X182431700Y-105931700D02*
X182198000Y-106165400D01*
X182431700Y-104506100D02*
X182431700Y-105931700D01*
X182226200Y-104300600D02*
X182431700Y-104506100D01*
X181360500Y-104300600D02*
X182226200Y-104300600D01*
X180834600Y-103774700D02*
X181360500Y-104300600D01*
X180834600Y-102284200D02*
X180834600Y-103774700D01*
X181030800Y-102088000D02*
X180834600Y-102284200D01*
X182208200Y-102088000D02*
X181030800Y-102088000D01*
X183809600Y-103689400D02*
X182208200Y-102088000D01*
X183809600Y-104297000D02*
X183809600Y-103689400D01*
X184287600Y-104775000D02*
X183809600Y-104297000D01*
X187365000Y-104775000D02*
X184287600Y-104775000D01*
X188167300Y-100330000D02*
X185390300Y-100330000D01*
X190072300Y-102235000D02*
X188167300Y-100330000D01*
X187365000Y-104775000D02*
X188300300Y-104775000D01*
X188300300Y-104007000D02*
X188300300Y-104775000D01*
X190072300Y-102235000D02*
X188300300Y-104007000D01*
X167640000Y-81595000D02*
X168340300Y-81595000D01*
X167640000Y-86190000D02*
X164465000Y-86190000D01*
X167640000Y-86190000D02*
X168415300Y-86190000D01*
X169308700Y-82563400D02*
X169308700Y-84241800D01*
X168340300Y-81595000D02*
X169308700Y-82563400D01*
X169308700Y-85296600D02*
X168415300Y-86190000D01*
X169308700Y-84241800D02*
X169308700Y-85296600D01*
X169907100Y-84241800D02*
X169308700Y-84241800D01*
X183955000Y-94710000D02*
X182829700Y-94710000D01*
X182829700Y-94710000D02*
X181260300Y-93140600D01*
X181610000Y-103040000D02*
X182385300Y-103040000D01*
X164465000Y-79695000D02*
X163764700Y-79695000D01*
X163614700Y-79545000D02*
X161290000Y-79545000D01*
X163764700Y-79695000D02*
X163614700Y-79545000D01*
X159240300Y-79545000D02*
X159090300Y-79695000D01*
X161290000Y-79545000D02*
X159240300Y-79545000D01*
X158155000Y-79695000D02*
X159090300Y-79695000D01*
X175260000Y-100170000D02*
X175260000Y-99619800D01*
X176530000Y-100170000D02*
X176530000Y-99069700D01*
X175810100Y-99069700D02*
X176530000Y-99069700D01*
X175260000Y-99619800D02*
X175810100Y-99069700D01*
X177705000Y-96960000D02*
X177705000Y-95834700D01*
X187960000Y-83505000D02*
X187259700Y-83505000D01*
X186690000Y-82935300D02*
X187259700Y-83505000D01*
X186690000Y-79547900D02*
X186690000Y-82935300D01*
X185962900Y-78820800D02*
X186690000Y-79547900D01*
X177257200Y-78820800D02*
X185962900Y-78820800D01*
X176435300Y-79642700D02*
X177257200Y-78820800D01*
X176435300Y-80010000D02*
X176435300Y-79642700D01*
X175260000Y-80010000D02*
X176435300Y-80010000D01*
X187960000Y-83505000D02*
X188660300Y-83505000D01*
X184785000Y-85555000D02*
X185560300Y-85555000D01*
X172720000Y-80010000D02*
X175260000Y-80010000D01*
X172720000Y-80010000D02*
X172132400Y-80010000D01*
X170815000Y-86040000D02*
X171515300Y-86040000D01*
X180105000Y-88460000D02*
X180105000Y-87334700D01*
X178505000Y-88460000D02*
X178505000Y-87334700D01*
X180105000Y-87334700D02*
X178505000Y-87334700D01*
X184785000Y-85555000D02*
X181610000Y-85555000D01*
X180105000Y-86284700D02*
X180105000Y-87334700D01*
X180834700Y-85555000D02*
X180105000Y-86284700D01*
X181610000Y-85555000D02*
X180834700Y-85555000D01*
X164465000Y-79695000D02*
X165165300Y-79695000D01*
X172132400Y-85422900D02*
X172132400Y-80010000D01*
X171515300Y-86040000D02*
X172132400Y-85422900D01*
X166090700Y-78769600D02*
X165165300Y-79695000D01*
X171103500Y-78769600D02*
X166090700Y-78769600D01*
X172132400Y-79798500D02*
X171103500Y-78769600D01*
X172132400Y-80010000D02*
X172132400Y-79798500D01*
X186335600Y-86330300D02*
X185560300Y-85555000D01*
X188560400Y-86330300D02*
X186335600Y-86330300D01*
X188660300Y-86230400D02*
X188560400Y-86330300D01*
X188660300Y-86230400D02*
X188660300Y-83505000D01*
X191135000Y-99107300D02*
X191135000Y-98519700D01*
X188223000Y-99107300D02*
X188100300Y-99230000D01*
X191135000Y-99107300D02*
X188223000Y-99107300D01*
X177705000Y-96960000D02*
X177705000Y-97844400D01*
X176530000Y-99019400D02*
X176530000Y-99069700D01*
X177705000Y-97844400D02*
X176530000Y-99019400D01*
X187325000Y-99230000D02*
X188100300Y-99230000D01*
X178505000Y-95034700D02*
X178505000Y-88460000D01*
X177705000Y-95834700D02*
X178505000Y-95034700D01*
X191135000Y-99695000D02*
X191135000Y-99107300D01*
X191135000Y-99695000D02*
X191135000Y-100870300D01*
X188033800Y-105725000D02*
X184745000Y-105725000D01*
X190253800Y-103505000D02*
X188033800Y-105725000D01*
X191527400Y-103505000D02*
X190253800Y-103505000D01*
X192310300Y-102722100D02*
X191527400Y-103505000D01*
X192310300Y-101678200D02*
X192310300Y-102722100D01*
X191502400Y-100870300D02*
X192310300Y-101678200D01*
X191135000Y-100870300D02*
X191502400Y-100870300D01*
X184745000Y-105725000D02*
X183809700Y-105725000D01*
X188185300Y-90720000D02*
X188100300Y-90635000D01*
X192335900Y-90720000D02*
X188185300Y-90720000D01*
X192335900Y-97686100D02*
X192335900Y-90720000D01*
X191502300Y-98519700D02*
X192335900Y-97686100D01*
X191135000Y-98519700D02*
X191502300Y-98519700D01*
X190694900Y-88265000D02*
X188660300Y-86230400D01*
X191534200Y-88265000D02*
X190694900Y-88265000D01*
X192335900Y-89066700D02*
X191534200Y-88265000D01*
X192335900Y-90720000D02*
X192335900Y-89066700D01*
X187325000Y-90635000D02*
X187987600Y-90635000D01*
X187987600Y-90635000D02*
X188100300Y-90635000D01*
X187987600Y-92562100D02*
X187325000Y-93224700D01*
X187987600Y-90635000D02*
X187987600Y-92562100D01*
X187325000Y-94150000D02*
X187325000Y-93224700D01*
X183809700Y-105088200D02*
X183809700Y-105725000D01*
X182385300Y-103663800D02*
X183809700Y-105088200D01*
X182385300Y-103040000D02*
X182385300Y-103663800D01*
X182864400Y-106670300D02*
X177800000Y-106670300D01*
X183809700Y-105725000D02*
X182864400Y-106670300D01*
X177800000Y-105570000D02*
X177800000Y-106670300D01*
X177800000Y-106757400D02*
X177800000Y-106670300D01*
X176581400Y-107976000D02*
X177800000Y-106757400D01*
X167075100Y-107976000D02*
X176581400Y-107976000D01*
X164870800Y-110180300D02*
X167075100Y-107976000D01*
X161290000Y-110180300D02*
X164870800Y-110180300D01*
X161290000Y-109220000D02*
X161290000Y-110180300D01*
X187325000Y-101430000D02*
X186549700Y-101430000D01*
X183955000Y-92310000D02*
X185080300Y-92310000D01*
X185091500Y-92298800D02*
X185269900Y-92298800D01*
X185080300Y-92310000D02*
X185091500Y-92298800D01*
X182565000Y-100330000D02*
X183379900Y-100330000D01*
X183379900Y-100330000D02*
X183490300Y-100330000D01*
X185547300Y-97700300D02*
X185795000Y-97700300D01*
X183379900Y-99867700D02*
X185547300Y-97700300D01*
X183379900Y-100330000D02*
X183379900Y-99867700D01*
X183490300Y-100804700D02*
X183490300Y-100330000D01*
X184115600Y-101430000D02*
X183490300Y-100804700D01*
X186549700Y-101430000D02*
X184115600Y-101430000D01*
X147185200Y-101678300D02*
X148010900Y-102504000D01*
X147185200Y-83277400D02*
X147185200Y-101678300D01*
X152144900Y-78317700D02*
X147185200Y-83277400D01*
X187966700Y-78317700D02*
X152144900Y-78317700D01*
X191135000Y-81486000D02*
X187966700Y-78317700D01*
X191135000Y-84455000D02*
X191135000Y-81486000D01*
X148010900Y-103329700D02*
X148010900Y-102504000D01*
X167640000Y-83990000D02*
X166864700Y-83990000D01*
X161290000Y-81745000D02*
X160514700Y-81745000D01*
X155535000Y-80645000D02*
X154599700Y-80645000D01*
X156115000Y-82295100D02*
X156115000Y-85090000D01*
X159964600Y-82295100D02*
X160514700Y-81745000D01*
X156115000Y-82295100D02*
X159964600Y-82295100D01*
X155875200Y-82295100D02*
X156115000Y-82295100D01*
X154599700Y-81019600D02*
X155875200Y-82295100D01*
X154599700Y-80645000D02*
X154599700Y-81019600D01*
X153704300Y-81915000D02*
X151670300Y-81915000D01*
X154599700Y-81019600D02*
X153704300Y-81915000D01*
X150875000Y-81915000D02*
X151670300Y-81915000D01*
X150875000Y-81915000D02*
X150495000Y-81915000D01*
X149130000Y-83699300D02*
X149130000Y-88900000D01*
X149989000Y-82840300D02*
X149130000Y-83699300D01*
X150495000Y-82840300D02*
X149989000Y-82840300D01*
X150495000Y-81915000D02*
X150495000Y-82840300D01*
X161290000Y-81745000D02*
X161677700Y-81745000D01*
X165423500Y-82548800D02*
X166864700Y-83990000D01*
X162481500Y-82548800D02*
X165423500Y-82548800D01*
X161677700Y-81745000D02*
X162481500Y-82548800D01*
X181852600Y-86682300D02*
X181549800Y-86682300D01*
X182505000Y-87334700D02*
X181852600Y-86682300D01*
X182505000Y-88460000D02*
X182505000Y-87334700D01*
X180923200Y-87334700D02*
X180739900Y-87151400D01*
X181705000Y-87334700D02*
X180923200Y-87334700D01*
X181705000Y-88460000D02*
X181705000Y-87334700D01*
X175455000Y-89910000D02*
X174329700Y-89910000D01*
X173517500Y-91627000D02*
X173866300Y-91975800D01*
X173517500Y-90722200D02*
X173517500Y-91627000D01*
X174329700Y-89910000D02*
X173517500Y-90722200D01*
X175455000Y-90710000D02*
X174329700Y-90710000D01*
X174329700Y-90967000D02*
X174142900Y-91153800D01*
X174329700Y-90710000D02*
X174329700Y-90967000D01*
X175455000Y-91510000D02*
X176580300Y-91510000D01*
X177414100Y-92343800D02*
X176580300Y-91510000D01*
X177414100Y-94124200D02*
X177414100Y-92343800D01*
X181705000Y-98120100D02*
X181562600Y-98262500D01*
X181705000Y-96960000D02*
X181705000Y-98120100D01*
X182368500Y-98221800D02*
X182368500Y-98296400D01*
X182505000Y-98085300D02*
X182368500Y-98221800D01*
X182505000Y-96960000D02*
X182505000Y-98085300D01*
X181635600Y-82429700D02*
X182880000Y-81185300D01*
X181610000Y-82429700D02*
X181635600Y-82429700D01*
X182880000Y-80010000D02*
X182880000Y-81185300D01*
X181610000Y-83355000D02*
X181610000Y-82429700D01*
X183955000Y-93910000D02*
X182829700Y-93910000D01*
X182026300Y-92361900D02*
X182537600Y-91850600D01*
X182026300Y-93106600D02*
X182026300Y-92361900D01*
X182829700Y-93910000D02*
X182026300Y-93106600D01*
X184785000Y-81820300D02*
X184785000Y-83355000D01*
X185420000Y-81185300D02*
X184785000Y-81820300D01*
X185420000Y-80010000D02*
X185420000Y-81185300D01*
X183955000Y-93110000D02*
X182829700Y-93110000D01*
X182829700Y-92945100D02*
X182651700Y-92767100D01*
X182829700Y-93110000D02*
X182829700Y-92945100D01*
X183955000Y-91510000D02*
X185080300Y-91510000D01*
X185843100Y-90747200D02*
X185907200Y-90747200D01*
X185080300Y-91510000D02*
X185843100Y-90747200D01*
X185080300Y-89155300D02*
X185080300Y-90710000D01*
X186726000Y-87509600D02*
X185080300Y-89155300D01*
X187934300Y-87509600D02*
X186726000Y-87509600D01*
X189959700Y-89535000D02*
X187934300Y-87509600D01*
X191135000Y-89535000D02*
X189959700Y-89535000D01*
X183955000Y-90710000D02*
X185080300Y-90710000D01*
X170559300Y-89251300D02*
X170464500Y-89156500D01*
X171764000Y-89251300D02*
X170559300Y-89251300D01*
X175455000Y-95510000D02*
X174329700Y-95510000D01*
X172140300Y-97699400D02*
X171998300Y-97699400D01*
X174329700Y-95510000D02*
X172140300Y-97699400D01*
X156716200Y-99479100D02*
X156455300Y-99740000D01*
X156938800Y-99479100D02*
X156716200Y-99479100D01*
X155130000Y-99740000D02*
X156455300Y-99740000D01*
X176530000Y-105570000D02*
X176530000Y-106670300D01*
X174821900Y-106670300D02*
X176530000Y-106670300D01*
X172104900Y-103953300D02*
X174821900Y-106670300D01*
X175455000Y-94710000D02*
X174329700Y-94710000D01*
X179070000Y-100170000D02*
X179070000Y-101270300D01*
X166464000Y-105156000D02*
X166464000Y-103332100D01*
X161601900Y-98470000D02*
X166464000Y-103332100D01*
X155130000Y-98470000D02*
X161601900Y-98470000D01*
X166934600Y-102861500D02*
X166464000Y-103332100D01*
X167342700Y-102861500D02*
X166934600Y-102861500D01*
X174103400Y-94710000D02*
X174329700Y-94710000D01*
X170993500Y-97819900D02*
X174103400Y-94710000D01*
X170993500Y-101389000D02*
X170993500Y-97819900D01*
X171366200Y-101761700D02*
X170993500Y-101389000D01*
X178578600Y-101761700D02*
X171366200Y-101761700D01*
X179070000Y-101270300D02*
X178578600Y-101761700D01*
X170993500Y-101389000D02*
X170256600Y-101389000D01*
X191135000Y-92075000D02*
X189959700Y-92075000D01*
X179070000Y-100170000D02*
X179070000Y-99069700D01*
X189959700Y-93029900D02*
X189959700Y-92075000D01*
X187914200Y-95075400D02*
X189959700Y-93029900D01*
X186860800Y-95075400D02*
X187914200Y-95075400D01*
X182866500Y-99069700D02*
X186860800Y-95075400D01*
X179070000Y-99069700D02*
X182866500Y-99069700D01*
X177800000Y-100170000D02*
X177800000Y-101270300D01*
X168465500Y-105156000D02*
X168465500Y-103444700D01*
X162641400Y-97200000D02*
X155130000Y-97200000D01*
X168465500Y-103024100D02*
X162641400Y-97200000D01*
X168465500Y-103444700D02*
X168465500Y-103024100D01*
X168973800Y-103024100D02*
X169048000Y-102949900D01*
X168465500Y-103024100D02*
X168973800Y-103024100D01*
X171638900Y-100977800D02*
X174595700Y-100977800D01*
X174595700Y-101048200D02*
X174595700Y-100977800D01*
X174817800Y-101270300D02*
X174595700Y-101048200D01*
X177800000Y-101270300D02*
X174817800Y-101270300D01*
X174595700Y-99269300D02*
X176905000Y-96960000D01*
X174595700Y-100977800D02*
X174595700Y-99269300D01*
X175260000Y-105570000D02*
X175260000Y-104469700D01*
X180356400Y-100686400D02*
X180356400Y-99708600D01*
X176573100Y-104469700D02*
X180356400Y-100686400D01*
X175260000Y-104469700D02*
X176573100Y-104469700D01*
X175455000Y-92310000D02*
X176580300Y-92310000D01*
X176580300Y-92394400D02*
X176777600Y-92591700D01*
X176580300Y-92310000D02*
X176580300Y-92394400D01*
X186223100Y-96350000D02*
X187325000Y-96350000D01*
X182953300Y-99619800D02*
X186223100Y-96350000D01*
X180445200Y-99619800D02*
X182953300Y-99619800D01*
X180356400Y-99708600D02*
X180445200Y-99619800D01*
X170464500Y-104940800D02*
X170464500Y-104950900D01*
X170464500Y-104940800D02*
X170464500Y-103344800D01*
X174266500Y-93910000D02*
X168157100Y-100019400D01*
X174329700Y-93910000D02*
X174266500Y-93910000D01*
X164067500Y-95930000D02*
X155130000Y-95930000D01*
X166112200Y-97974700D02*
X164067500Y-95930000D01*
X166112300Y-97974700D02*
X166112200Y-97974700D01*
X168157100Y-100019400D02*
X166112300Y-97974700D01*
X174892400Y-93910000D02*
X174329700Y-93910000D01*
X174892400Y-93910000D02*
X175455000Y-93910000D01*
X170464500Y-105130300D02*
X170464500Y-104950900D01*
X170464500Y-105130300D02*
X170464500Y-105156000D01*
X180064300Y-104469600D02*
X180834700Y-105240000D01*
X177349400Y-104469600D02*
X180064300Y-104469600D01*
X177155400Y-104663600D02*
X177349400Y-104469600D01*
X177155400Y-106752800D02*
X177155400Y-104663600D01*
X176762000Y-107146200D02*
X177155400Y-106752800D01*
X170630800Y-107146200D02*
X176762000Y-107146200D01*
X170464500Y-106979900D02*
X170630800Y-107146200D01*
X170464500Y-105156000D02*
X170464500Y-106979900D01*
X181610000Y-105240000D02*
X180834700Y-105240000D01*
X170464500Y-103003200D02*
X170464500Y-103344800D01*
X169673400Y-102212100D02*
X170464500Y-103003200D01*
X169673400Y-102106300D02*
X169673400Y-102212100D01*
X169628500Y-102061400D02*
X169673400Y-102106300D01*
X169628500Y-101490900D02*
X169628500Y-102061400D01*
X168157100Y-100019400D02*
X169628500Y-101490900D01*
X184745000Y-103825000D02*
X184745000Y-103174700D01*
X184745000Y-103174700D02*
X184938000Y-102981700D01*
X187325000Y-88435000D02*
X186549700Y-88435000D01*
X183955000Y-95510000D02*
X185080300Y-95510000D01*
X186549700Y-94040600D02*
X185080300Y-95510000D01*
X186549700Y-88435000D02*
X186549700Y-94040600D01*
X183454900Y-96010100D02*
X183454900Y-97554800D01*
X183955000Y-95510000D02*
X183454900Y-96010100D01*
X178774400Y-86265300D02*
X177705000Y-87334700D01*
X179000000Y-86265300D02*
X178774400Y-86265300D01*
X179000000Y-85090000D02*
X179000000Y-86265300D01*
X177705000Y-88460000D02*
X177705000Y-87334700D01*
X176905000Y-86570300D02*
X176905000Y-88460000D01*
X176600000Y-86265300D02*
X176905000Y-86570300D01*
X176600000Y-85090000D02*
X176600000Y-86265300D01*
X160137400Y-90977900D02*
X160464500Y-90977900D01*
X156455300Y-94660000D02*
X160137400Y-90977900D01*
X155130000Y-94660000D02*
X156455300Y-94660000D01*
X160464500Y-89154000D02*
X160464500Y-90865300D01*
X160464500Y-90865300D02*
X160464500Y-90977900D01*
X162596600Y-93110000D02*
X175455000Y-93110000D01*
X160464500Y-90977900D02*
X162596600Y-93110000D01*
X178505000Y-96960000D02*
X178505000Y-98085300D01*
X180249100Y-98085300D02*
X180449300Y-98285500D01*
X178505000Y-98085300D02*
X180249100Y-98085300D01*
X180905000Y-96960000D02*
X180905000Y-95834700D01*
X181510100Y-95834700D02*
X181978700Y-95366100D01*
X180905000Y-95834700D02*
X181510100Y-95834700D01*
X183955000Y-89910000D02*
X182829700Y-89910000D01*
X168465500Y-89154000D02*
X168465500Y-90977900D01*
X182829700Y-89910000D02*
X181523900Y-89910000D01*
X168468100Y-90980500D02*
X168465500Y-90977900D01*
X171696500Y-90980500D02*
X168468100Y-90980500D01*
X173561500Y-89115500D02*
X171696500Y-90980500D01*
X176096800Y-89115500D02*
X173561500Y-89115500D01*
X150883300Y-100893600D02*
X159209700Y-109220000D01*
X150883300Y-95041400D02*
X150883300Y-100893600D01*
X153804700Y-92120000D02*
X150883300Y-95041400D01*
X155130000Y-92120000D02*
X153804700Y-92120000D01*
X160020000Y-109220000D02*
X159209700Y-109220000D01*
X161280200Y-106979900D02*
X160464500Y-106979900D01*
X162560000Y-108259700D02*
X161280200Y-106979900D01*
X162560000Y-109220000D02*
X162560000Y-108259700D01*
X160464500Y-105156000D02*
X160464500Y-106979900D01*
X179305000Y-95656000D02*
X179305000Y-96960000D01*
X173990000Y-86040000D02*
X174690300Y-86040000D01*
X175469100Y-86818800D02*
X175469100Y-88490200D01*
X174690300Y-86040000D02*
X175469100Y-86818800D01*
D30*
G36*
X155337799Y-82832501D02*
X155355000Y-82843994D01*
X155355000Y-83692560D01*
X154515000Y-83692560D01*
X154279683Y-83736838D01*
X154063559Y-83875910D01*
X153918569Y-84088110D01*
X153867560Y-84340000D01*
X153867560Y-85840000D01*
X153911838Y-86075317D01*
X154050910Y-86291441D01*
X154263110Y-86436431D01*
X154515000Y-86487440D01*
X157715000Y-86487440D01*
X157950317Y-86443162D01*
X158114493Y-86337518D01*
X158155302Y-86378327D01*
X158388691Y-86475000D01*
X159829250Y-86475000D01*
X159988000Y-86316250D01*
X159988000Y-85217000D01*
X160242000Y-85217000D01*
X160242000Y-86316250D01*
X160400750Y-86475000D01*
X161841309Y-86475000D01*
X162074698Y-86378327D01*
X162253327Y-86199699D01*
X162350000Y-85966310D01*
X162350000Y-85375750D01*
X162191250Y-85217000D01*
X160242000Y-85217000D01*
X159988000Y-85217000D01*
X159968000Y-85217000D01*
X159968000Y-84963000D01*
X159988000Y-84963000D01*
X159988000Y-83863750D01*
X160242000Y-83863750D01*
X160242000Y-84963000D01*
X162191250Y-84963000D01*
X162350000Y-84804250D01*
X162350000Y-84213690D01*
X162253327Y-83980301D01*
X162074698Y-83801673D01*
X161841309Y-83705000D01*
X160400750Y-83705000D01*
X160242000Y-83863750D01*
X159988000Y-83863750D01*
X159829250Y-83705000D01*
X158388691Y-83705000D01*
X158155302Y-83801673D01*
X158113340Y-83843634D01*
X157966890Y-83743569D01*
X157715000Y-83692560D01*
X156875000Y-83692560D01*
X156875000Y-83055100D01*
X159964600Y-83055100D01*
X160255439Y-82997248D01*
X160464934Y-82857268D01*
X160588110Y-82941431D01*
X160840000Y-82992440D01*
X161740000Y-82992440D01*
X161832864Y-82974966D01*
X161944099Y-83086201D01*
X162190661Y-83250948D01*
X162481500Y-83308800D01*
X163380000Y-83308800D01*
X163380000Y-83704250D01*
X163538750Y-83863000D01*
X164338000Y-83863000D01*
X164338000Y-83843000D01*
X164592000Y-83843000D01*
X164592000Y-83863000D01*
X165391250Y-83863000D01*
X165527074Y-83727176D01*
X166327299Y-84527401D01*
X166560043Y-84682915D01*
X166586838Y-84825317D01*
X166725910Y-85041441D01*
X166795711Y-85089134D01*
X166738559Y-85125910D01*
X166593569Y-85338110D01*
X166574961Y-85430000D01*
X165532334Y-85430000D01*
X165518162Y-85354683D01*
X165379090Y-85138559D01*
X165310994Y-85092031D01*
X165453327Y-84949698D01*
X165550000Y-84716309D01*
X165550000Y-84275750D01*
X165391250Y-84117000D01*
X164592000Y-84117000D01*
X164592000Y-84137000D01*
X164338000Y-84137000D01*
X164338000Y-84117000D01*
X163538750Y-84117000D01*
X163380000Y-84275750D01*
X163380000Y-84716309D01*
X163476673Y-84949698D01*
X163617910Y-85090936D01*
X163563559Y-85125910D01*
X163418569Y-85338110D01*
X163367560Y-85590000D01*
X163367560Y-86790000D01*
X163411838Y-87025317D01*
X163421019Y-87039585D01*
X163264850Y-87007960D01*
X161667190Y-87007960D01*
X161457847Y-87047351D01*
X161263330Y-87007960D01*
X159665670Y-87007960D01*
X159455913Y-87047429D01*
X159390660Y-87020400D01*
X158751270Y-87020400D01*
X158592520Y-87179150D01*
X158592520Y-89027000D01*
X158612520Y-89027000D01*
X158612520Y-89281000D01*
X158592520Y-89281000D01*
X158592520Y-91128850D01*
X158751270Y-91287600D01*
X158752898Y-91287600D01*
X156765000Y-93275498D01*
X156765000Y-93262998D01*
X156606252Y-93262998D01*
X156765000Y-93104250D01*
X156765000Y-92763691D01*
X156753812Y-92736680D01*
X156777440Y-92620000D01*
X156777440Y-91620000D01*
X156733162Y-91384683D01*
X156594090Y-91168559D01*
X156381890Y-91023569D01*
X156130000Y-90972560D01*
X154130000Y-90972560D01*
X153894683Y-91016838D01*
X153678559Y-91155910D01*
X153533569Y-91368110D01*
X153523900Y-91415855D01*
X153513861Y-91417852D01*
X153267299Y-91582598D01*
X151483668Y-93366229D01*
X151331719Y-92998485D01*
X150844082Y-92509996D01*
X150206627Y-92245301D01*
X149516401Y-92244699D01*
X148878485Y-92508281D01*
X148389996Y-92995918D01*
X148125301Y-93633373D01*
X148124699Y-94323599D01*
X148388281Y-94961515D01*
X148875918Y-95450004D01*
X149513373Y-95714699D01*
X150123300Y-95715231D01*
X150123300Y-100893600D01*
X150181152Y-101184439D01*
X150345899Y-101431001D01*
X151114543Y-102199645D01*
X150973423Y-102226198D01*
X150757299Y-102365270D01*
X150612309Y-102577470D01*
X150561300Y-102829360D01*
X150561300Y-103830120D01*
X150605578Y-104065437D01*
X150744650Y-104281561D01*
X150956850Y-104426551D01*
X151208740Y-104477560D01*
X152209500Y-104477560D01*
X152444817Y-104433282D01*
X152660941Y-104294210D01*
X152805931Y-104082010D01*
X152838092Y-103923194D01*
X158672299Y-109757401D01*
X158897510Y-109907882D01*
X158931838Y-110090317D01*
X159070910Y-110306441D01*
X159283110Y-110451431D01*
X159535000Y-110502440D01*
X160505000Y-110502440D01*
X160597177Y-110485096D01*
X160752599Y-110717701D01*
X160999161Y-110882448D01*
X161290000Y-110940300D01*
X164870800Y-110940300D01*
X165161639Y-110882448D01*
X165408201Y-110717701D01*
X167389902Y-108736000D01*
X168682560Y-108736000D01*
X168682560Y-110070000D01*
X168726838Y-110305317D01*
X168865910Y-110521441D01*
X169078110Y-110666431D01*
X169330000Y-110717440D01*
X171030000Y-110717440D01*
X171265317Y-110673162D01*
X171481441Y-110534090D01*
X171626431Y-110321890D01*
X171640086Y-110254459D01*
X171669946Y-110299147D01*
X172151715Y-110621054D01*
X172720000Y-110734093D01*
X173288285Y-110621054D01*
X173770054Y-110299147D01*
X173990000Y-109969974D01*
X174209946Y-110299147D01*
X174691715Y-110621054D01*
X175260000Y-110734093D01*
X175828285Y-110621054D01*
X176310054Y-110299147D01*
X176530000Y-109969974D01*
X176749946Y-110299147D01*
X177231715Y-110621054D01*
X177800000Y-110734093D01*
X178368285Y-110621054D01*
X178850054Y-110299147D01*
X179070000Y-109969974D01*
X179289946Y-110299147D01*
X179771715Y-110621054D01*
X180340000Y-110734093D01*
X180908285Y-110621054D01*
X181390054Y-110299147D01*
X181610000Y-109969974D01*
X181829946Y-110299147D01*
X182311715Y-110621054D01*
X182880000Y-110734093D01*
X183448285Y-110621054D01*
X183930054Y-110299147D01*
X184150000Y-109969974D01*
X184369946Y-110299147D01*
X184851715Y-110621054D01*
X185420000Y-110734093D01*
X185988285Y-110621054D01*
X186470054Y-110299147D01*
X186690000Y-109969974D01*
X186909946Y-110299147D01*
X187391715Y-110621054D01*
X187960000Y-110734093D01*
X188528285Y-110621054D01*
X189010054Y-110299147D01*
X189331961Y-109817378D01*
X189445000Y-109249093D01*
X189445000Y-109190907D01*
X189331961Y-108622622D01*
X189010054Y-108140853D01*
X188528285Y-107818946D01*
X187960000Y-107705907D01*
X187391715Y-107818946D01*
X186909946Y-108140853D01*
X186690000Y-108470026D01*
X186470054Y-108140853D01*
X185988285Y-107818946D01*
X185420000Y-107705907D01*
X184851715Y-107818946D01*
X184369946Y-108140853D01*
X184150000Y-108470026D01*
X183930054Y-108140853D01*
X183448285Y-107818946D01*
X182880000Y-107705907D01*
X182311715Y-107818946D01*
X181829946Y-108140853D01*
X181610000Y-108470026D01*
X181390054Y-108140853D01*
X180908285Y-107818946D01*
X180340000Y-107705907D01*
X179771715Y-107818946D01*
X179289946Y-108140853D01*
X179070000Y-108470026D01*
X178850054Y-108140853D01*
X178368285Y-107818946D01*
X177905341Y-107726861D01*
X178201902Y-107430300D01*
X182864400Y-107430300D01*
X183155239Y-107372448D01*
X183401801Y-107207701D01*
X183949605Y-106659897D01*
X184135000Y-106697440D01*
X185355000Y-106697440D01*
X185590317Y-106653162D01*
X185806441Y-106514090D01*
X185826317Y-106485000D01*
X188033800Y-106485000D01*
X188324639Y-106427148D01*
X188571201Y-106262401D01*
X189693525Y-105140077D01*
X189733946Y-105343285D01*
X190055853Y-105825054D01*
X190537622Y-106146961D01*
X191105907Y-106260000D01*
X191164093Y-106260000D01*
X191732378Y-106146961D01*
X192214147Y-105825054D01*
X192330000Y-105651667D01*
X192330000Y-108925909D01*
X190205908Y-111050000D01*
X148884091Y-111050000D01*
X146760000Y-108925908D01*
X146760000Y-102327902D01*
X146952834Y-102520736D01*
X146914069Y-102577470D01*
X146863060Y-102829360D01*
X146863060Y-103830120D01*
X146907338Y-104065437D01*
X147046410Y-104281561D01*
X147258610Y-104426551D01*
X147510500Y-104477560D01*
X148511260Y-104477560D01*
X148746577Y-104433282D01*
X148962701Y-104294210D01*
X149107691Y-104082010D01*
X149158700Y-103830120D01*
X149158700Y-102829360D01*
X149114422Y-102594043D01*
X148975350Y-102377919D01*
X148763150Y-102232929D01*
X148715042Y-102223187D01*
X148713048Y-102213161D01*
X148548301Y-101966599D01*
X147945200Y-101363498D01*
X147945200Y-98478080D01*
X148511260Y-98478080D01*
X148746577Y-98433802D01*
X148962701Y-98294730D01*
X149107691Y-98082530D01*
X149158700Y-97830640D01*
X149158700Y-96829880D01*
X149114422Y-96594563D01*
X148975350Y-96378439D01*
X148763150Y-96233449D01*
X148511260Y-96182440D01*
X147945200Y-96182440D01*
X147945200Y-90297440D01*
X150730000Y-90297440D01*
X150965317Y-90253162D01*
X151129493Y-90147518D01*
X151170302Y-90188327D01*
X151403691Y-90285000D01*
X152844250Y-90285000D01*
X153003000Y-90126250D01*
X153003000Y-89027000D01*
X153257000Y-89027000D01*
X153257000Y-90126250D01*
X153415750Y-90285000D01*
X154856309Y-90285000D01*
X155089698Y-90188327D01*
X155268327Y-90009699D01*
X155365000Y-89776310D01*
X155365000Y-89439750D01*
X157031690Y-89439750D01*
X157031690Y-90778909D01*
X157128363Y-91012298D01*
X157306991Y-91190927D01*
X157540380Y-91287600D01*
X158179770Y-91287600D01*
X158338520Y-91128850D01*
X158338520Y-89281000D01*
X157190440Y-89281000D01*
X157031690Y-89439750D01*
X155365000Y-89439750D01*
X155365000Y-89185750D01*
X155206250Y-89027000D01*
X153257000Y-89027000D01*
X153003000Y-89027000D01*
X152983000Y-89027000D01*
X152983000Y-88773000D01*
X153003000Y-88773000D01*
X153003000Y-87673750D01*
X153257000Y-87673750D01*
X153257000Y-88773000D01*
X155206250Y-88773000D01*
X155365000Y-88614250D01*
X155365000Y-88023690D01*
X155268327Y-87790301D01*
X155089698Y-87611673D01*
X154890328Y-87529091D01*
X157031690Y-87529091D01*
X157031690Y-88868250D01*
X157190440Y-89027000D01*
X158338520Y-89027000D01*
X158338520Y-87179150D01*
X158179770Y-87020400D01*
X157540380Y-87020400D01*
X157306991Y-87117073D01*
X157128363Y-87295702D01*
X157031690Y-87529091D01*
X154890328Y-87529091D01*
X154856309Y-87515000D01*
X153415750Y-87515000D01*
X153257000Y-87673750D01*
X153003000Y-87673750D01*
X152844250Y-87515000D01*
X151403691Y-87515000D01*
X151170302Y-87611673D01*
X151128340Y-87653634D01*
X150981890Y-87553569D01*
X150730000Y-87502560D01*
X149890000Y-87502560D01*
X149890000Y-85086768D01*
X150172304Y-85160256D01*
X150368000Y-84997547D01*
X150368000Y-84042000D01*
X150622000Y-84042000D01*
X150622000Y-84997547D01*
X150817696Y-85160256D01*
X151288701Y-85037647D01*
X151676933Y-84744125D01*
X151923286Y-84324376D01*
X151938462Y-84232609D01*
X151813731Y-84042000D01*
X150622000Y-84042000D01*
X150368000Y-84042000D01*
X150348000Y-84042000D01*
X150348000Y-83788000D01*
X150368000Y-83788000D01*
X150368000Y-83768000D01*
X150622000Y-83768000D01*
X150622000Y-83788000D01*
X151813731Y-83788000D01*
X151938462Y-83597391D01*
X151923286Y-83505624D01*
X151676933Y-83085875D01*
X151655580Y-83069731D01*
X151796441Y-82979090D01*
X151941431Y-82766890D01*
X151960039Y-82675000D01*
X153704300Y-82675000D01*
X153995139Y-82617148D01*
X154241701Y-82452401D01*
X154599700Y-82094402D01*
X155337799Y-82832501D01*
X155337799Y-82832501D01*
G37*
X155337799Y-82832501D02*
X155355000Y-82843994D01*
X155355000Y-83692560D01*
X154515000Y-83692560D01*
X154279683Y-83736838D01*
X154063559Y-83875910D01*
X153918569Y-84088110D01*
X153867560Y-84340000D01*
X153867560Y-85840000D01*
X153911838Y-86075317D01*
X154050910Y-86291441D01*
X154263110Y-86436431D01*
X154515000Y-86487440D01*
X157715000Y-86487440D01*
X157950317Y-86443162D01*
X158114493Y-86337518D01*
X158155302Y-86378327D01*
X158388691Y-86475000D01*
X159829250Y-86475000D01*
X159988000Y-86316250D01*
X159988000Y-85217000D01*
X160242000Y-85217000D01*
X160242000Y-86316250D01*
X160400750Y-86475000D01*
X161841309Y-86475000D01*
X162074698Y-86378327D01*
X162253327Y-86199699D01*
X162350000Y-85966310D01*
X162350000Y-85375750D01*
X162191250Y-85217000D01*
X160242000Y-85217000D01*
X159988000Y-85217000D01*
X159968000Y-85217000D01*
X159968000Y-84963000D01*
X159988000Y-84963000D01*
X159988000Y-83863750D01*
X160242000Y-83863750D01*
X160242000Y-84963000D01*
X162191250Y-84963000D01*
X162350000Y-84804250D01*
X162350000Y-84213690D01*
X162253327Y-83980301D01*
X162074698Y-83801673D01*
X161841309Y-83705000D01*
X160400750Y-83705000D01*
X160242000Y-83863750D01*
X159988000Y-83863750D01*
X159829250Y-83705000D01*
X158388691Y-83705000D01*
X158155302Y-83801673D01*
X158113340Y-83843634D01*
X157966890Y-83743569D01*
X157715000Y-83692560D01*
X156875000Y-83692560D01*
X156875000Y-83055100D01*
X159964600Y-83055100D01*
X160255439Y-82997248D01*
X160464934Y-82857268D01*
X160588110Y-82941431D01*
X160840000Y-82992440D01*
X161740000Y-82992440D01*
X161832864Y-82974966D01*
X161944099Y-83086201D01*
X162190661Y-83250948D01*
X162481500Y-83308800D01*
X163380000Y-83308800D01*
X163380000Y-83704250D01*
X163538750Y-83863000D01*
X164338000Y-83863000D01*
X164338000Y-83843000D01*
X164592000Y-83843000D01*
X164592000Y-83863000D01*
X165391250Y-83863000D01*
X165527074Y-83727176D01*
X166327299Y-84527401D01*
X166560043Y-84682915D01*
X166586838Y-84825317D01*
X166725910Y-85041441D01*
X166795711Y-85089134D01*
X166738559Y-85125910D01*
X166593569Y-85338110D01*
X166574961Y-85430000D01*
X165532334Y-85430000D01*
X165518162Y-85354683D01*
X165379090Y-85138559D01*
X165310994Y-85092031D01*
X165453327Y-84949698D01*
X165550000Y-84716309D01*
X165550000Y-84275750D01*
X165391250Y-84117000D01*
X164592000Y-84117000D01*
X164592000Y-84137000D01*
X164338000Y-84137000D01*
X164338000Y-84117000D01*
X163538750Y-84117000D01*
X163380000Y-84275750D01*
X163380000Y-84716309D01*
X163476673Y-84949698D01*
X163617910Y-85090936D01*
X163563559Y-85125910D01*
X163418569Y-85338110D01*
X163367560Y-85590000D01*
X163367560Y-86790000D01*
X163411838Y-87025317D01*
X163421019Y-87039585D01*
X163264850Y-87007960D01*
X161667190Y-87007960D01*
X161457847Y-87047351D01*
X161263330Y-87007960D01*
X159665670Y-87007960D01*
X159455913Y-87047429D01*
X159390660Y-87020400D01*
X158751270Y-87020400D01*
X158592520Y-87179150D01*
X158592520Y-89027000D01*
X158612520Y-89027000D01*
X158612520Y-89281000D01*
X158592520Y-89281000D01*
X158592520Y-91128850D01*
X158751270Y-91287600D01*
X158752898Y-91287600D01*
X156765000Y-93275498D01*
X156765000Y-93262998D01*
X156606252Y-93262998D01*
X156765000Y-93104250D01*
X156765000Y-92763691D01*
X156753812Y-92736680D01*
X156777440Y-92620000D01*
X156777440Y-91620000D01*
X156733162Y-91384683D01*
X156594090Y-91168559D01*
X156381890Y-91023569D01*
X156130000Y-90972560D01*
X154130000Y-90972560D01*
X153894683Y-91016838D01*
X153678559Y-91155910D01*
X153533569Y-91368110D01*
X153523900Y-91415855D01*
X153513861Y-91417852D01*
X153267299Y-91582598D01*
X151483668Y-93366229D01*
X151331719Y-92998485D01*
X150844082Y-92509996D01*
X150206627Y-92245301D01*
X149516401Y-92244699D01*
X148878485Y-92508281D01*
X148389996Y-92995918D01*
X148125301Y-93633373D01*
X148124699Y-94323599D01*
X148388281Y-94961515D01*
X148875918Y-95450004D01*
X149513373Y-95714699D01*
X150123300Y-95715231D01*
X150123300Y-100893600D01*
X150181152Y-101184439D01*
X150345899Y-101431001D01*
X151114543Y-102199645D01*
X150973423Y-102226198D01*
X150757299Y-102365270D01*
X150612309Y-102577470D01*
X150561300Y-102829360D01*
X150561300Y-103830120D01*
X150605578Y-104065437D01*
X150744650Y-104281561D01*
X150956850Y-104426551D01*
X151208740Y-104477560D01*
X152209500Y-104477560D01*
X152444817Y-104433282D01*
X152660941Y-104294210D01*
X152805931Y-104082010D01*
X152838092Y-103923194D01*
X158672299Y-109757401D01*
X158897510Y-109907882D01*
X158931838Y-110090317D01*
X159070910Y-110306441D01*
X159283110Y-110451431D01*
X159535000Y-110502440D01*
X160505000Y-110502440D01*
X160597177Y-110485096D01*
X160752599Y-110717701D01*
X160999161Y-110882448D01*
X161290000Y-110940300D01*
X164870800Y-110940300D01*
X165161639Y-110882448D01*
X165408201Y-110717701D01*
X167389902Y-108736000D01*
X168682560Y-108736000D01*
X168682560Y-110070000D01*
X168726838Y-110305317D01*
X168865910Y-110521441D01*
X169078110Y-110666431D01*
X169330000Y-110717440D01*
X171030000Y-110717440D01*
X171265317Y-110673162D01*
X171481441Y-110534090D01*
X171626431Y-110321890D01*
X171640086Y-110254459D01*
X171669946Y-110299147D01*
X172151715Y-110621054D01*
X172720000Y-110734093D01*
X173288285Y-110621054D01*
X173770054Y-110299147D01*
X173990000Y-109969974D01*
X174209946Y-110299147D01*
X174691715Y-110621054D01*
X175260000Y-110734093D01*
X175828285Y-110621054D01*
X176310054Y-110299147D01*
X176530000Y-109969974D01*
X176749946Y-110299147D01*
X177231715Y-110621054D01*
X177800000Y-110734093D01*
X178368285Y-110621054D01*
X178850054Y-110299147D01*
X179070000Y-109969974D01*
X179289946Y-110299147D01*
X179771715Y-110621054D01*
X180340000Y-110734093D01*
X180908285Y-110621054D01*
X181390054Y-110299147D01*
X181610000Y-109969974D01*
X181829946Y-110299147D01*
X182311715Y-110621054D01*
X182880000Y-110734093D01*
X183448285Y-110621054D01*
X183930054Y-110299147D01*
X184150000Y-109969974D01*
X184369946Y-110299147D01*
X184851715Y-110621054D01*
X185420000Y-110734093D01*
X185988285Y-110621054D01*
X186470054Y-110299147D01*
X186690000Y-109969974D01*
X186909946Y-110299147D01*
X187391715Y-110621054D01*
X187960000Y-110734093D01*
X188528285Y-110621054D01*
X189010054Y-110299147D01*
X189331961Y-109817378D01*
X189445000Y-109249093D01*
X189445000Y-109190907D01*
X189331961Y-108622622D01*
X189010054Y-108140853D01*
X188528285Y-107818946D01*
X187960000Y-107705907D01*
X187391715Y-107818946D01*
X186909946Y-108140853D01*
X186690000Y-108470026D01*
X186470054Y-108140853D01*
X185988285Y-107818946D01*
X185420000Y-107705907D01*
X184851715Y-107818946D01*
X184369946Y-108140853D01*
X184150000Y-108470026D01*
X183930054Y-108140853D01*
X183448285Y-107818946D01*
X182880000Y-107705907D01*
X182311715Y-107818946D01*
X181829946Y-108140853D01*
X181610000Y-108470026D01*
X181390054Y-108140853D01*
X180908285Y-107818946D01*
X180340000Y-107705907D01*
X179771715Y-107818946D01*
X179289946Y-108140853D01*
X179070000Y-108470026D01*
X178850054Y-108140853D01*
X178368285Y-107818946D01*
X177905341Y-107726861D01*
X178201902Y-107430300D01*
X182864400Y-107430300D01*
X183155239Y-107372448D01*
X183401801Y-107207701D01*
X183949605Y-106659897D01*
X184135000Y-106697440D01*
X185355000Y-106697440D01*
X185590317Y-106653162D01*
X185806441Y-106514090D01*
X185826317Y-106485000D01*
X188033800Y-106485000D01*
X188324639Y-106427148D01*
X188571201Y-106262401D01*
X189693525Y-105140077D01*
X189733946Y-105343285D01*
X190055853Y-105825054D01*
X190537622Y-106146961D01*
X191105907Y-106260000D01*
X191164093Y-106260000D01*
X191732378Y-106146961D01*
X192214147Y-105825054D01*
X192330000Y-105651667D01*
X192330000Y-108925909D01*
X190205908Y-111050000D01*
X148884091Y-111050000D01*
X146760000Y-108925908D01*
X146760000Y-102327902D01*
X146952834Y-102520736D01*
X146914069Y-102577470D01*
X146863060Y-102829360D01*
X146863060Y-103830120D01*
X146907338Y-104065437D01*
X147046410Y-104281561D01*
X147258610Y-104426551D01*
X147510500Y-104477560D01*
X148511260Y-104477560D01*
X148746577Y-104433282D01*
X148962701Y-104294210D01*
X149107691Y-104082010D01*
X149158700Y-103830120D01*
X149158700Y-102829360D01*
X149114422Y-102594043D01*
X148975350Y-102377919D01*
X148763150Y-102232929D01*
X148715042Y-102223187D01*
X148713048Y-102213161D01*
X148548301Y-101966599D01*
X147945200Y-101363498D01*
X147945200Y-98478080D01*
X148511260Y-98478080D01*
X148746577Y-98433802D01*
X148962701Y-98294730D01*
X149107691Y-98082530D01*
X149158700Y-97830640D01*
X149158700Y-96829880D01*
X149114422Y-96594563D01*
X148975350Y-96378439D01*
X148763150Y-96233449D01*
X148511260Y-96182440D01*
X147945200Y-96182440D01*
X147945200Y-90297440D01*
X150730000Y-90297440D01*
X150965317Y-90253162D01*
X151129493Y-90147518D01*
X151170302Y-90188327D01*
X151403691Y-90285000D01*
X152844250Y-90285000D01*
X153003000Y-90126250D01*
X153003000Y-89027000D01*
X153257000Y-89027000D01*
X153257000Y-90126250D01*
X153415750Y-90285000D01*
X154856309Y-90285000D01*
X155089698Y-90188327D01*
X155268327Y-90009699D01*
X155365000Y-89776310D01*
X155365000Y-89439750D01*
X157031690Y-89439750D01*
X157031690Y-90778909D01*
X157128363Y-91012298D01*
X157306991Y-91190927D01*
X157540380Y-91287600D01*
X158179770Y-91287600D01*
X158338520Y-91128850D01*
X158338520Y-89281000D01*
X157190440Y-89281000D01*
X157031690Y-89439750D01*
X155365000Y-89439750D01*
X155365000Y-89185750D01*
X155206250Y-89027000D01*
X153257000Y-89027000D01*
X153003000Y-89027000D01*
X152983000Y-89027000D01*
X152983000Y-88773000D01*
X153003000Y-88773000D01*
X153003000Y-87673750D01*
X153257000Y-87673750D01*
X153257000Y-88773000D01*
X155206250Y-88773000D01*
X155365000Y-88614250D01*
X155365000Y-88023690D01*
X155268327Y-87790301D01*
X155089698Y-87611673D01*
X154890328Y-87529091D01*
X157031690Y-87529091D01*
X157031690Y-88868250D01*
X157190440Y-89027000D01*
X158338520Y-89027000D01*
X158338520Y-87179150D01*
X158179770Y-87020400D01*
X157540380Y-87020400D01*
X157306991Y-87117073D01*
X157128363Y-87295702D01*
X157031690Y-87529091D01*
X154890328Y-87529091D01*
X154856309Y-87515000D01*
X153415750Y-87515000D01*
X153257000Y-87673750D01*
X153003000Y-87673750D01*
X152844250Y-87515000D01*
X151403691Y-87515000D01*
X151170302Y-87611673D01*
X151128340Y-87653634D01*
X150981890Y-87553569D01*
X150730000Y-87502560D01*
X149890000Y-87502560D01*
X149890000Y-85086768D01*
X150172304Y-85160256D01*
X150368000Y-84997547D01*
X150368000Y-84042000D01*
X150622000Y-84042000D01*
X150622000Y-84997547D01*
X150817696Y-85160256D01*
X151288701Y-85037647D01*
X151676933Y-84744125D01*
X151923286Y-84324376D01*
X151938462Y-84232609D01*
X151813731Y-84042000D01*
X150622000Y-84042000D01*
X150368000Y-84042000D01*
X150348000Y-84042000D01*
X150348000Y-83788000D01*
X150368000Y-83788000D01*
X150368000Y-83768000D01*
X150622000Y-83768000D01*
X150622000Y-83788000D01*
X151813731Y-83788000D01*
X151938462Y-83597391D01*
X151923286Y-83505624D01*
X151676933Y-83085875D01*
X151655580Y-83069731D01*
X151796441Y-82979090D01*
X151941431Y-82766890D01*
X151960039Y-82675000D01*
X153704300Y-82675000D01*
X153995139Y-82617148D01*
X154241701Y-82452401D01*
X154599700Y-82094402D01*
X155337799Y-82832501D01*
G36*
X153495000Y-93517002D02*
X153653748Y-93517002D01*
X153495000Y-93675750D01*
X153495000Y-94016309D01*
X153506188Y-94043320D01*
X153482560Y-94160000D01*
X153482560Y-95160000D01*
X153508895Y-95299956D01*
X153482560Y-95430000D01*
X153482560Y-96430000D01*
X153508895Y-96569956D01*
X153482560Y-96700000D01*
X153482560Y-97700000D01*
X153508895Y-97839956D01*
X153482560Y-97970000D01*
X153482560Y-98970000D01*
X153508895Y-99109956D01*
X153482560Y-99240000D01*
X153482560Y-100240000D01*
X153508895Y-100379956D01*
X153482560Y-100510000D01*
X153482560Y-101510000D01*
X153526838Y-101745317D01*
X153665910Y-101961441D01*
X153878110Y-102106431D01*
X154130000Y-102157440D01*
X156130000Y-102157440D01*
X156365317Y-102113162D01*
X156581441Y-101974090D01*
X156726431Y-101761890D01*
X156777440Y-101510000D01*
X156777440Y-100510000D01*
X156762603Y-100431147D01*
X156788311Y-100413970D01*
X157123967Y-100414262D01*
X157467743Y-100272217D01*
X157730992Y-100009427D01*
X157873638Y-99665899D01*
X157873962Y-99293933D01*
X157847545Y-99230000D01*
X161287098Y-99230000D01*
X165067058Y-103009960D01*
X163666170Y-103009960D01*
X163456413Y-103049429D01*
X163391160Y-103022400D01*
X162751770Y-103022400D01*
X162593020Y-103181150D01*
X162593020Y-105029000D01*
X162613020Y-105029000D01*
X162613020Y-105283000D01*
X162593020Y-105283000D01*
X162593020Y-105303000D01*
X162339020Y-105303000D01*
X162339020Y-105283000D01*
X162319020Y-105283000D01*
X162319020Y-105029000D01*
X162339020Y-105029000D01*
X162339020Y-103181150D01*
X162180270Y-103022400D01*
X161540880Y-103022400D01*
X161469915Y-103051795D01*
X161263330Y-103009960D01*
X159665670Y-103009960D01*
X159457644Y-103049103D01*
X159264350Y-103009960D01*
X157666690Y-103009960D01*
X157431373Y-103054238D01*
X157215249Y-103193310D01*
X157070259Y-103405510D01*
X157019250Y-103657400D01*
X157019250Y-105954748D01*
X151643300Y-100578798D01*
X151643300Y-97457260D01*
X151836120Y-97457260D01*
X151836120Y-98306890D01*
X151994870Y-98465640D01*
X152335810Y-98465640D01*
X152569199Y-98368967D01*
X152747827Y-98190338D01*
X152844500Y-97956949D01*
X152844500Y-97616010D01*
X152685750Y-97457260D01*
X151836120Y-97457260D01*
X151643300Y-97457260D01*
X151643300Y-96353630D01*
X151836120Y-96353630D01*
X151836120Y-97203260D01*
X152685750Y-97203260D01*
X152844500Y-97044510D01*
X152844500Y-96703571D01*
X152747827Y-96470182D01*
X152569199Y-96291553D01*
X152335810Y-96194880D01*
X151994870Y-96194880D01*
X151836120Y-96353630D01*
X151643300Y-96353630D01*
X151643300Y-95356202D01*
X153495000Y-93504503D01*
X153495000Y-93517002D01*
X153495000Y-93517002D01*
G37*
X153495000Y-93517002D02*
X153653748Y-93517002D01*
X153495000Y-93675750D01*
X153495000Y-94016309D01*
X153506188Y-94043320D01*
X153482560Y-94160000D01*
X153482560Y-95160000D01*
X153508895Y-95299956D01*
X153482560Y-95430000D01*
X153482560Y-96430000D01*
X153508895Y-96569956D01*
X153482560Y-96700000D01*
X153482560Y-97700000D01*
X153508895Y-97839956D01*
X153482560Y-97970000D01*
X153482560Y-98970000D01*
X153508895Y-99109956D01*
X153482560Y-99240000D01*
X153482560Y-100240000D01*
X153508895Y-100379956D01*
X153482560Y-100510000D01*
X153482560Y-101510000D01*
X153526838Y-101745317D01*
X153665910Y-101961441D01*
X153878110Y-102106431D01*
X154130000Y-102157440D01*
X156130000Y-102157440D01*
X156365317Y-102113162D01*
X156581441Y-101974090D01*
X156726431Y-101761890D01*
X156777440Y-101510000D01*
X156777440Y-100510000D01*
X156762603Y-100431147D01*
X156788311Y-100413970D01*
X157123967Y-100414262D01*
X157467743Y-100272217D01*
X157730992Y-100009427D01*
X157873638Y-99665899D01*
X157873962Y-99293933D01*
X157847545Y-99230000D01*
X161287098Y-99230000D01*
X165067058Y-103009960D01*
X163666170Y-103009960D01*
X163456413Y-103049429D01*
X163391160Y-103022400D01*
X162751770Y-103022400D01*
X162593020Y-103181150D01*
X162593020Y-105029000D01*
X162613020Y-105029000D01*
X162613020Y-105283000D01*
X162593020Y-105283000D01*
X162593020Y-105303000D01*
X162339020Y-105303000D01*
X162339020Y-105283000D01*
X162319020Y-105283000D01*
X162319020Y-105029000D01*
X162339020Y-105029000D01*
X162339020Y-103181150D01*
X162180270Y-103022400D01*
X161540880Y-103022400D01*
X161469915Y-103051795D01*
X161263330Y-103009960D01*
X159665670Y-103009960D01*
X159457644Y-103049103D01*
X159264350Y-103009960D01*
X157666690Y-103009960D01*
X157431373Y-103054238D01*
X157215249Y-103193310D01*
X157070259Y-103405510D01*
X157019250Y-103657400D01*
X157019250Y-105954748D01*
X151643300Y-100578798D01*
X151643300Y-97457260D01*
X151836120Y-97457260D01*
X151836120Y-98306890D01*
X151994870Y-98465640D01*
X152335810Y-98465640D01*
X152569199Y-98368967D01*
X152747827Y-98190338D01*
X152844500Y-97956949D01*
X152844500Y-97616010D01*
X152685750Y-97457260D01*
X151836120Y-97457260D01*
X151643300Y-97457260D01*
X151643300Y-96353630D01*
X151836120Y-96353630D01*
X151836120Y-97203260D01*
X152685750Y-97203260D01*
X152844500Y-97044510D01*
X152844500Y-96703571D01*
X152747827Y-96470182D01*
X152569199Y-96291553D01*
X152335810Y-96194880D01*
X151994870Y-96194880D01*
X151836120Y-96353630D01*
X151643300Y-96353630D01*
X151643300Y-95356202D01*
X153495000Y-93504503D01*
X153495000Y-93517002D01*
G36*
X180297299Y-105777401D02*
X180496197Y-105910300D01*
X180005000Y-105910300D01*
X180005000Y-105855750D01*
X179846250Y-105697000D01*
X179197000Y-105697000D01*
X179197000Y-105717000D01*
X178943000Y-105717000D01*
X178943000Y-105697000D01*
X178923000Y-105697000D01*
X178923000Y-105443000D01*
X178943000Y-105443000D01*
X178943000Y-105423000D01*
X179197000Y-105423000D01*
X179197000Y-105443000D01*
X179846250Y-105443000D01*
X179904574Y-105384676D01*
X180297299Y-105777401D01*
X180297299Y-105777401D01*
G37*
X180297299Y-105777401D02*
X180496197Y-105910300D01*
X180005000Y-105910300D01*
X180005000Y-105855750D01*
X179846250Y-105697000D01*
X179197000Y-105697000D01*
X179197000Y-105717000D01*
X178943000Y-105717000D01*
X178943000Y-105697000D01*
X178923000Y-105697000D01*
X178923000Y-105443000D01*
X178943000Y-105443000D01*
X178943000Y-105423000D01*
X179197000Y-105423000D01*
X179197000Y-105443000D01*
X179846250Y-105443000D01*
X179904574Y-105384676D01*
X180297299Y-105777401D01*
G36*
X189733946Y-100263285D02*
X190055853Y-100745054D01*
X190395188Y-100971790D01*
X190395470Y-100973211D01*
X190253642Y-101039817D01*
X189863355Y-101468076D01*
X189693524Y-101878110D01*
X189814845Y-102108000D01*
X191008000Y-102108000D01*
X191008000Y-102088000D01*
X191262000Y-102088000D01*
X191262000Y-102108000D01*
X191282000Y-102108000D01*
X191282000Y-102362000D01*
X191262000Y-102362000D01*
X191262000Y-102382000D01*
X191008000Y-102382000D01*
X191008000Y-102362000D01*
X189814845Y-102362000D01*
X189693524Y-102591890D01*
X189820365Y-102898131D01*
X189716399Y-102967599D01*
X188536867Y-104147131D01*
X188513327Y-104090301D01*
X188334698Y-103911673D01*
X188101309Y-103815000D01*
X187650750Y-103815000D01*
X187492000Y-103973750D01*
X187492000Y-104648000D01*
X187512000Y-104648000D01*
X187512000Y-104902000D01*
X187492000Y-104902000D01*
X187492000Y-104922000D01*
X187238000Y-104922000D01*
X187238000Y-104902000D01*
X186278750Y-104902000D01*
X186215750Y-104965000D01*
X185829669Y-104965000D01*
X185819090Y-104948559D01*
X185606890Y-104803569D01*
X185469880Y-104775824D01*
X185590317Y-104753162D01*
X185806441Y-104614090D01*
X185951431Y-104401890D01*
X185967266Y-104323690D01*
X186120000Y-104323690D01*
X186120000Y-104489250D01*
X186278750Y-104648000D01*
X187238000Y-104648000D01*
X187238000Y-103973750D01*
X187079250Y-103815000D01*
X186628691Y-103815000D01*
X186395302Y-103911673D01*
X186216673Y-104090301D01*
X186120000Y-104323690D01*
X185967266Y-104323690D01*
X186002440Y-104150000D01*
X186002440Y-103500000D01*
X185958162Y-103264683D01*
X185872870Y-103132135D01*
X185873162Y-102796533D01*
X185731117Y-102452757D01*
X185468818Y-102190000D01*
X186257666Y-102190000D01*
X186271838Y-102265317D01*
X186410910Y-102481441D01*
X186623110Y-102626431D01*
X186875000Y-102677440D01*
X187775000Y-102677440D01*
X188010317Y-102633162D01*
X188226441Y-102494090D01*
X188371431Y-102281890D01*
X188422440Y-102030000D01*
X188422440Y-100830000D01*
X188378162Y-100594683D01*
X188239090Y-100378559D01*
X188169289Y-100330866D01*
X188226441Y-100294090D01*
X188371431Y-100081890D01*
X188403416Y-99923945D01*
X188488191Y-99867300D01*
X189655180Y-99867300D01*
X189733946Y-100263285D01*
X189733946Y-100263285D01*
G37*
X189733946Y-100263285D02*
X190055853Y-100745054D01*
X190395188Y-100971790D01*
X190395470Y-100973211D01*
X190253642Y-101039817D01*
X189863355Y-101468076D01*
X189693524Y-101878110D01*
X189814845Y-102108000D01*
X191008000Y-102108000D01*
X191008000Y-102088000D01*
X191262000Y-102088000D01*
X191262000Y-102108000D01*
X191282000Y-102108000D01*
X191282000Y-102362000D01*
X191262000Y-102362000D01*
X191262000Y-102382000D01*
X191008000Y-102382000D01*
X191008000Y-102362000D01*
X189814845Y-102362000D01*
X189693524Y-102591890D01*
X189820365Y-102898131D01*
X189716399Y-102967599D01*
X188536867Y-104147131D01*
X188513327Y-104090301D01*
X188334698Y-103911673D01*
X188101309Y-103815000D01*
X187650750Y-103815000D01*
X187492000Y-103973750D01*
X187492000Y-104648000D01*
X187512000Y-104648000D01*
X187512000Y-104902000D01*
X187492000Y-104902000D01*
X187492000Y-104922000D01*
X187238000Y-104922000D01*
X187238000Y-104902000D01*
X186278750Y-104902000D01*
X186215750Y-104965000D01*
X185829669Y-104965000D01*
X185819090Y-104948559D01*
X185606890Y-104803569D01*
X185469880Y-104775824D01*
X185590317Y-104753162D01*
X185806441Y-104614090D01*
X185951431Y-104401890D01*
X185967266Y-104323690D01*
X186120000Y-104323690D01*
X186120000Y-104489250D01*
X186278750Y-104648000D01*
X187238000Y-104648000D01*
X187238000Y-103973750D01*
X187079250Y-103815000D01*
X186628691Y-103815000D01*
X186395302Y-103911673D01*
X186216673Y-104090301D01*
X186120000Y-104323690D01*
X185967266Y-104323690D01*
X186002440Y-104150000D01*
X186002440Y-103500000D01*
X185958162Y-103264683D01*
X185872870Y-103132135D01*
X185873162Y-102796533D01*
X185731117Y-102452757D01*
X185468818Y-102190000D01*
X186257666Y-102190000D01*
X186271838Y-102265317D01*
X186410910Y-102481441D01*
X186623110Y-102626431D01*
X186875000Y-102677440D01*
X187775000Y-102677440D01*
X188010317Y-102633162D01*
X188226441Y-102494090D01*
X188371431Y-102281890D01*
X188422440Y-102030000D01*
X188422440Y-100830000D01*
X188378162Y-100594683D01*
X188239090Y-100378559D01*
X188169289Y-100330866D01*
X188226441Y-100294090D01*
X188371431Y-100081890D01*
X188403416Y-99923945D01*
X188488191Y-99867300D01*
X189655180Y-99867300D01*
X189733946Y-100263285D01*
G36*
X186227560Y-98630000D02*
X186227560Y-99830000D01*
X186271838Y-100065317D01*
X186410910Y-100281441D01*
X186480711Y-100329134D01*
X186423559Y-100365910D01*
X186278569Y-100578110D01*
X186259961Y-100670000D01*
X185700000Y-100670000D01*
X185700000Y-100615750D01*
X185541250Y-100457000D01*
X184592000Y-100457000D01*
X184592000Y-100477000D01*
X184338000Y-100477000D01*
X184338000Y-100457000D01*
X184318000Y-100457000D01*
X184318000Y-100203000D01*
X184338000Y-100203000D01*
X184338000Y-100183000D01*
X184592000Y-100183000D01*
X184592000Y-100203000D01*
X185541250Y-100203000D01*
X185700000Y-100044250D01*
X185700000Y-99828690D01*
X185603327Y-99595301D01*
X185424698Y-99416673D01*
X185191309Y-99320000D01*
X185002402Y-99320000D01*
X185687195Y-98635207D01*
X185980167Y-98635462D01*
X186248943Y-98524406D01*
X186227560Y-98630000D01*
X186227560Y-98630000D01*
G37*
X186227560Y-98630000D02*
X186227560Y-99830000D01*
X186271838Y-100065317D01*
X186410910Y-100281441D01*
X186480711Y-100329134D01*
X186423559Y-100365910D01*
X186278569Y-100578110D01*
X186259961Y-100670000D01*
X185700000Y-100670000D01*
X185700000Y-100615750D01*
X185541250Y-100457000D01*
X184592000Y-100457000D01*
X184592000Y-100477000D01*
X184338000Y-100477000D01*
X184338000Y-100457000D01*
X184318000Y-100457000D01*
X184318000Y-100203000D01*
X184338000Y-100203000D01*
X184338000Y-100183000D01*
X184592000Y-100183000D01*
X184592000Y-100203000D01*
X185541250Y-100203000D01*
X185700000Y-100044250D01*
X185700000Y-99828690D01*
X185603327Y-99595301D01*
X185424698Y-99416673D01*
X185191309Y-99320000D01*
X185002402Y-99320000D01*
X185687195Y-98635207D01*
X185980167Y-98635462D01*
X186248943Y-98524406D01*
X186227560Y-98630000D01*
G36*
X179365910Y-89711441D02*
X179496245Y-89800495D01*
X179590750Y-89895000D01*
X179706310Y-89895000D01*
X179726753Y-89886532D01*
X179830000Y-89907440D01*
X180380000Y-89907440D01*
X180485705Y-89887550D01*
X180503690Y-89895000D01*
X180588912Y-89895000D01*
X180588738Y-90095167D01*
X180730783Y-90438943D01*
X180993573Y-90702192D01*
X181337101Y-90844838D01*
X181709067Y-90845162D01*
X182052843Y-90703117D01*
X182086018Y-90670000D01*
X182507560Y-90670000D01*
X182507560Y-90915573D01*
X182352433Y-90915438D01*
X182008657Y-91057483D01*
X181745408Y-91320273D01*
X181602762Y-91663801D01*
X181602721Y-91710677D01*
X181488899Y-91824499D01*
X181324152Y-92071061D01*
X181297384Y-92205632D01*
X181075133Y-92205438D01*
X180731357Y-92347483D01*
X180468108Y-92610273D01*
X180325462Y-92953801D01*
X180325138Y-93325767D01*
X180467183Y-93669543D01*
X180729973Y-93932792D01*
X181073501Y-94075438D01*
X181120377Y-94075479D01*
X181568725Y-94523827D01*
X181449757Y-94572983D01*
X181186508Y-94835773D01*
X181087296Y-95074700D01*
X180905000Y-95074700D01*
X180614161Y-95132552D01*
X180367599Y-95297299D01*
X180240147Y-95488045D01*
X180240162Y-95470833D01*
X180098117Y-95127057D01*
X179835327Y-94863808D01*
X179491799Y-94721162D01*
X179265000Y-94720964D01*
X179265000Y-89674975D01*
X179304884Y-89616603D01*
X179365910Y-89711441D01*
X179365910Y-89711441D01*
G37*
X179365910Y-89711441D02*
X179496245Y-89800495D01*
X179590750Y-89895000D01*
X179706310Y-89895000D01*
X179726753Y-89886532D01*
X179830000Y-89907440D01*
X180380000Y-89907440D01*
X180485705Y-89887550D01*
X180503690Y-89895000D01*
X180588912Y-89895000D01*
X180588738Y-90095167D01*
X180730783Y-90438943D01*
X180993573Y-90702192D01*
X181337101Y-90844838D01*
X181709067Y-90845162D01*
X182052843Y-90703117D01*
X182086018Y-90670000D01*
X182507560Y-90670000D01*
X182507560Y-90915573D01*
X182352433Y-90915438D01*
X182008657Y-91057483D01*
X181745408Y-91320273D01*
X181602762Y-91663801D01*
X181602721Y-91710677D01*
X181488899Y-91824499D01*
X181324152Y-92071061D01*
X181297384Y-92205632D01*
X181075133Y-92205438D01*
X180731357Y-92347483D01*
X180468108Y-92610273D01*
X180325462Y-92953801D01*
X180325138Y-93325767D01*
X180467183Y-93669543D01*
X180729973Y-93932792D01*
X181073501Y-94075438D01*
X181120377Y-94075479D01*
X181568725Y-94523827D01*
X181449757Y-94572983D01*
X181186508Y-94835773D01*
X181087296Y-95074700D01*
X180905000Y-95074700D01*
X180614161Y-95132552D01*
X180367599Y-95297299D01*
X180240147Y-95488045D01*
X180240162Y-95470833D01*
X180098117Y-95127057D01*
X179835327Y-94863808D01*
X179491799Y-94721162D01*
X179265000Y-94720964D01*
X179265000Y-89674975D01*
X179304884Y-89616603D01*
X179365910Y-89711441D01*
G36*
X155277000Y-93512560D02*
X154983000Y-93512560D01*
X154983000Y-93267440D01*
X155277000Y-93267440D01*
X155277000Y-93512560D01*
X155277000Y-93512560D01*
G37*
X155277000Y-93512560D02*
X154983000Y-93512560D01*
X154983000Y-93267440D01*
X155277000Y-93267440D01*
X155277000Y-93512560D01*
G36*
X177927000Y-79883000D02*
X180213000Y-79883000D01*
X180213000Y-79863000D01*
X180467000Y-79863000D01*
X180467000Y-79883000D01*
X180487000Y-79883000D01*
X180487000Y-80137000D01*
X180467000Y-80137000D01*
X180467000Y-81330155D01*
X180696890Y-81451476D01*
X181106924Y-81281645D01*
X181535183Y-80891358D01*
X181602298Y-80748447D01*
X181829946Y-81089147D01*
X181872750Y-81117748D01*
X181149749Y-81840749D01*
X181072599Y-81892299D01*
X180907852Y-82138861D01*
X180902421Y-82166163D01*
X180708559Y-82290910D01*
X180563569Y-82503110D01*
X180512560Y-82755000D01*
X180512560Y-83955000D01*
X180556838Y-84190317D01*
X180695910Y-84406441D01*
X180765711Y-84454134D01*
X180708559Y-84490910D01*
X180563569Y-84703110D01*
X180531584Y-84861055D01*
X180297299Y-85017599D01*
X179997440Y-85317458D01*
X179997440Y-84240000D01*
X179953162Y-84004683D01*
X179814090Y-83788559D01*
X179601890Y-83643569D01*
X179350000Y-83592560D01*
X178650000Y-83592560D01*
X178414683Y-83636838D01*
X178390594Y-83652339D01*
X178276309Y-83605000D01*
X178085750Y-83605000D01*
X177927000Y-83763750D01*
X177927000Y-84963000D01*
X177947000Y-84963000D01*
X177947000Y-85217000D01*
X177927000Y-85217000D01*
X177927000Y-85237000D01*
X177673000Y-85237000D01*
X177673000Y-85217000D01*
X177653000Y-85217000D01*
X177653000Y-84963000D01*
X177673000Y-84963000D01*
X177673000Y-83763750D01*
X177514250Y-83605000D01*
X177323691Y-83605000D01*
X177212717Y-83650967D01*
X177201890Y-83643569D01*
X176950000Y-83592560D01*
X176250000Y-83592560D01*
X176014683Y-83636838D01*
X175798559Y-83775910D01*
X175653569Y-83988110D01*
X175602560Y-84240000D01*
X175602560Y-85877458D01*
X175227701Y-85502599D01*
X174994957Y-85347085D01*
X174968162Y-85204683D01*
X174901671Y-85101354D01*
X174903327Y-85099698D01*
X175000000Y-84866309D01*
X175000000Y-84425750D01*
X174841250Y-84267000D01*
X174117000Y-84267000D01*
X174117000Y-84287000D01*
X173863000Y-84287000D01*
X173863000Y-84267000D01*
X173138750Y-84267000D01*
X172980000Y-84425750D01*
X172980000Y-84866309D01*
X173076673Y-85099698D01*
X173078043Y-85101068D01*
X173018569Y-85188110D01*
X172967560Y-85440000D01*
X172967560Y-86640000D01*
X173011838Y-86875317D01*
X173150910Y-87091441D01*
X173363110Y-87236431D01*
X173615000Y-87287440D01*
X174365000Y-87287440D01*
X174600317Y-87243162D01*
X174709100Y-87173162D01*
X174709100Y-87927737D01*
X174676908Y-87959873D01*
X174534262Y-88303401D01*
X174534217Y-88355500D01*
X173561500Y-88355500D01*
X173270660Y-88413352D01*
X173024099Y-88578099D01*
X172651475Y-88950723D01*
X172557117Y-88722357D01*
X172294327Y-88459108D01*
X171950799Y-88316462D01*
X171910750Y-88316427D01*
X171910750Y-87657940D01*
X171866472Y-87422623D01*
X171727400Y-87206499D01*
X171608522Y-87125273D01*
X171641441Y-87104090D01*
X171786431Y-86891890D01*
X171818416Y-86733945D01*
X172052701Y-86577401D01*
X172669801Y-85960301D01*
X172834548Y-85713740D01*
X172892400Y-85422900D01*
X172892400Y-83413691D01*
X172980000Y-83413691D01*
X172980000Y-83854250D01*
X173138750Y-84013000D01*
X173863000Y-84013000D01*
X173863000Y-83063750D01*
X174117000Y-83063750D01*
X174117000Y-84013000D01*
X174841250Y-84013000D01*
X175000000Y-83854250D01*
X175000000Y-83413691D01*
X174903327Y-83180302D01*
X174724699Y-83001673D01*
X174491310Y-82905000D01*
X174275750Y-82905000D01*
X174117000Y-83063750D01*
X173863000Y-83063750D01*
X173704250Y-82905000D01*
X173488690Y-82905000D01*
X173255301Y-83001673D01*
X173076673Y-83180302D01*
X172980000Y-83413691D01*
X172892400Y-83413691D01*
X172892400Y-81489800D01*
X173288285Y-81411054D01*
X173770054Y-81089147D01*
X173983301Y-80770000D01*
X173996699Y-80770000D01*
X174209946Y-81089147D01*
X174691715Y-81411054D01*
X175260000Y-81524093D01*
X175828285Y-81411054D01*
X176310054Y-81089147D01*
X176536790Y-80749812D01*
X176538211Y-80749530D01*
X176604817Y-80891358D01*
X177033076Y-81281645D01*
X177443110Y-81451476D01*
X177673000Y-81330155D01*
X177673000Y-80137000D01*
X177927000Y-80137000D01*
X177927000Y-81330155D01*
X178156890Y-81451476D01*
X178566924Y-81281645D01*
X178995183Y-80891358D01*
X179070000Y-80732046D01*
X179144817Y-80891358D01*
X179573076Y-81281645D01*
X179983110Y-81451476D01*
X180213000Y-81330155D01*
X180213000Y-80137000D01*
X177927000Y-80137000D01*
X177673000Y-80137000D01*
X177653000Y-80137000D01*
X177653000Y-79883000D01*
X177673000Y-79883000D01*
X177673000Y-79863000D01*
X177927000Y-79863000D01*
X177927000Y-79883000D01*
X177927000Y-79883000D01*
G37*
X177927000Y-79883000D02*
X180213000Y-79883000D01*
X180213000Y-79863000D01*
X180467000Y-79863000D01*
X180467000Y-79883000D01*
X180487000Y-79883000D01*
X180487000Y-80137000D01*
X180467000Y-80137000D01*
X180467000Y-81330155D01*
X180696890Y-81451476D01*
X181106924Y-81281645D01*
X181535183Y-80891358D01*
X181602298Y-80748447D01*
X181829946Y-81089147D01*
X181872750Y-81117748D01*
X181149749Y-81840749D01*
X181072599Y-81892299D01*
X180907852Y-82138861D01*
X180902421Y-82166163D01*
X180708559Y-82290910D01*
X180563569Y-82503110D01*
X180512560Y-82755000D01*
X180512560Y-83955000D01*
X180556838Y-84190317D01*
X180695910Y-84406441D01*
X180765711Y-84454134D01*
X180708559Y-84490910D01*
X180563569Y-84703110D01*
X180531584Y-84861055D01*
X180297299Y-85017599D01*
X179997440Y-85317458D01*
X179997440Y-84240000D01*
X179953162Y-84004683D01*
X179814090Y-83788559D01*
X179601890Y-83643569D01*
X179350000Y-83592560D01*
X178650000Y-83592560D01*
X178414683Y-83636838D01*
X178390594Y-83652339D01*
X178276309Y-83605000D01*
X178085750Y-83605000D01*
X177927000Y-83763750D01*
X177927000Y-84963000D01*
X177947000Y-84963000D01*
X177947000Y-85217000D01*
X177927000Y-85217000D01*
X177927000Y-85237000D01*
X177673000Y-85237000D01*
X177673000Y-85217000D01*
X177653000Y-85217000D01*
X177653000Y-84963000D01*
X177673000Y-84963000D01*
X177673000Y-83763750D01*
X177514250Y-83605000D01*
X177323691Y-83605000D01*
X177212717Y-83650967D01*
X177201890Y-83643569D01*
X176950000Y-83592560D01*
X176250000Y-83592560D01*
X176014683Y-83636838D01*
X175798559Y-83775910D01*
X175653569Y-83988110D01*
X175602560Y-84240000D01*
X175602560Y-85877458D01*
X175227701Y-85502599D01*
X174994957Y-85347085D01*
X174968162Y-85204683D01*
X174901671Y-85101354D01*
X174903327Y-85099698D01*
X175000000Y-84866309D01*
X175000000Y-84425750D01*
X174841250Y-84267000D01*
X174117000Y-84267000D01*
X174117000Y-84287000D01*
X173863000Y-84287000D01*
X173863000Y-84267000D01*
X173138750Y-84267000D01*
X172980000Y-84425750D01*
X172980000Y-84866309D01*
X173076673Y-85099698D01*
X173078043Y-85101068D01*
X173018569Y-85188110D01*
X172967560Y-85440000D01*
X172967560Y-86640000D01*
X173011838Y-86875317D01*
X173150910Y-87091441D01*
X173363110Y-87236431D01*
X173615000Y-87287440D01*
X174365000Y-87287440D01*
X174600317Y-87243162D01*
X174709100Y-87173162D01*
X174709100Y-87927737D01*
X174676908Y-87959873D01*
X174534262Y-88303401D01*
X174534217Y-88355500D01*
X173561500Y-88355500D01*
X173270660Y-88413352D01*
X173024099Y-88578099D01*
X172651475Y-88950723D01*
X172557117Y-88722357D01*
X172294327Y-88459108D01*
X171950799Y-88316462D01*
X171910750Y-88316427D01*
X171910750Y-87657940D01*
X171866472Y-87422623D01*
X171727400Y-87206499D01*
X171608522Y-87125273D01*
X171641441Y-87104090D01*
X171786431Y-86891890D01*
X171818416Y-86733945D01*
X172052701Y-86577401D01*
X172669801Y-85960301D01*
X172834548Y-85713740D01*
X172892400Y-85422900D01*
X172892400Y-83413691D01*
X172980000Y-83413691D01*
X172980000Y-83854250D01*
X173138750Y-84013000D01*
X173863000Y-84013000D01*
X173863000Y-83063750D01*
X174117000Y-83063750D01*
X174117000Y-84013000D01*
X174841250Y-84013000D01*
X175000000Y-83854250D01*
X175000000Y-83413691D01*
X174903327Y-83180302D01*
X174724699Y-83001673D01*
X174491310Y-82905000D01*
X174275750Y-82905000D01*
X174117000Y-83063750D01*
X173863000Y-83063750D01*
X173704250Y-82905000D01*
X173488690Y-82905000D01*
X173255301Y-83001673D01*
X173076673Y-83180302D01*
X172980000Y-83413691D01*
X172892400Y-83413691D01*
X172892400Y-81489800D01*
X173288285Y-81411054D01*
X173770054Y-81089147D01*
X173983301Y-80770000D01*
X173996699Y-80770000D01*
X174209946Y-81089147D01*
X174691715Y-81411054D01*
X175260000Y-81524093D01*
X175828285Y-81411054D01*
X176310054Y-81089147D01*
X176536790Y-80749812D01*
X176538211Y-80749530D01*
X176604817Y-80891358D01*
X177033076Y-81281645D01*
X177443110Y-81451476D01*
X177673000Y-81330155D01*
X177673000Y-80137000D01*
X177927000Y-80137000D01*
X177927000Y-81330155D01*
X178156890Y-81451476D01*
X178566924Y-81281645D01*
X178995183Y-80891358D01*
X179070000Y-80732046D01*
X179144817Y-80891358D01*
X179573076Y-81281645D01*
X179983110Y-81451476D01*
X180213000Y-81330155D01*
X180213000Y-80137000D01*
X177927000Y-80137000D01*
X177673000Y-80137000D01*
X177653000Y-80137000D01*
X177653000Y-79883000D01*
X177673000Y-79883000D01*
X177673000Y-79863000D01*
X177927000Y-79863000D01*
X177927000Y-79883000D01*
G36*
X185930000Y-82935300D02*
X185987852Y-83226139D01*
X186152599Y-83472701D01*
X186722299Y-84042401D01*
X186955043Y-84197916D01*
X186981838Y-84340317D01*
X187048329Y-84443646D01*
X187046673Y-84445302D01*
X186950000Y-84678691D01*
X186950000Y-85119250D01*
X187108750Y-85278000D01*
X187833000Y-85278000D01*
X187833000Y-85258000D01*
X187900300Y-85258000D01*
X187900300Y-85552000D01*
X187833000Y-85552000D01*
X187833000Y-85532000D01*
X187108750Y-85532000D01*
X187070450Y-85570300D01*
X186650402Y-85570300D01*
X186097701Y-85017599D01*
X185864957Y-84862085D01*
X185838162Y-84719683D01*
X185699090Y-84503559D01*
X185629289Y-84455866D01*
X185686441Y-84419090D01*
X185831431Y-84206890D01*
X185882440Y-83955000D01*
X185882440Y-82755000D01*
X185838162Y-82519683D01*
X185699090Y-82303559D01*
X185545000Y-82198274D01*
X185545000Y-82135102D01*
X185930000Y-81750102D01*
X185930000Y-82935300D01*
X185930000Y-82935300D01*
G37*
X185930000Y-82935300D02*
X185987852Y-83226139D01*
X186152599Y-83472701D01*
X186722299Y-84042401D01*
X186955043Y-84197916D01*
X186981838Y-84340317D01*
X187048329Y-84443646D01*
X187046673Y-84445302D01*
X186950000Y-84678691D01*
X186950000Y-85119250D01*
X187108750Y-85278000D01*
X187833000Y-85278000D01*
X187833000Y-85258000D01*
X187900300Y-85258000D01*
X187900300Y-85552000D01*
X187833000Y-85552000D01*
X187833000Y-85532000D01*
X187108750Y-85532000D01*
X187070450Y-85570300D01*
X186650402Y-85570300D01*
X186097701Y-85017599D01*
X185864957Y-84862085D01*
X185838162Y-84719683D01*
X185699090Y-84503559D01*
X185629289Y-84455866D01*
X185686441Y-84419090D01*
X185831431Y-84206890D01*
X185882440Y-83955000D01*
X185882440Y-82755000D01*
X185838162Y-82519683D01*
X185699090Y-82303559D01*
X185545000Y-82198274D01*
X185545000Y-82135102D01*
X185930000Y-81750102D01*
X185930000Y-82935300D01*
G36*
X171372400Y-82928233D02*
X171316310Y-82905000D01*
X171100750Y-82905000D01*
X170942000Y-83063750D01*
X170942000Y-84013000D01*
X170962000Y-84013000D01*
X170962000Y-84267000D01*
X170942000Y-84267000D01*
X170942000Y-84287000D01*
X170842061Y-84287000D01*
X170842262Y-84056633D01*
X170700217Y-83712857D01*
X170688000Y-83700619D01*
X170688000Y-83063750D01*
X170529250Y-82905000D01*
X170313690Y-82905000D01*
X170080301Y-83001673D01*
X170068700Y-83013274D01*
X170068700Y-82563400D01*
X170010848Y-82272561D01*
X170010848Y-82272560D01*
X169846101Y-82025999D01*
X169326918Y-81506816D01*
X169330000Y-81507440D01*
X171030000Y-81507440D01*
X171265317Y-81463162D01*
X171372400Y-81394256D01*
X171372400Y-82928233D01*
X171372400Y-82928233D01*
G37*
X171372400Y-82928233D02*
X171316310Y-82905000D01*
X171100750Y-82905000D01*
X170942000Y-83063750D01*
X170942000Y-84013000D01*
X170962000Y-84013000D01*
X170962000Y-84267000D01*
X170942000Y-84267000D01*
X170942000Y-84287000D01*
X170842061Y-84287000D01*
X170842262Y-84056633D01*
X170700217Y-83712857D01*
X170688000Y-83700619D01*
X170688000Y-83063750D01*
X170529250Y-82905000D01*
X170313690Y-82905000D01*
X170080301Y-83001673D01*
X170068700Y-83013274D01*
X170068700Y-82563400D01*
X170010848Y-82272561D01*
X170010848Y-82272560D01*
X169846101Y-82025999D01*
X169326918Y-81506816D01*
X169330000Y-81507440D01*
X171030000Y-81507440D01*
X171265317Y-81463162D01*
X171372400Y-81394256D01*
X171372400Y-82928233D01*
G36*
X166788750Y-79568000D02*
X167513000Y-79568000D01*
X167513000Y-79548000D01*
X167767000Y-79548000D01*
X167767000Y-79568000D01*
X168491250Y-79568000D01*
X168529650Y-79529600D01*
X168682560Y-79529600D01*
X168682560Y-80860000D01*
X168697025Y-80936876D01*
X168644957Y-80902085D01*
X168618162Y-80759683D01*
X168551671Y-80656354D01*
X168553327Y-80654698D01*
X168650000Y-80421309D01*
X168650000Y-79980750D01*
X168491250Y-79822000D01*
X167767000Y-79822000D01*
X167767000Y-79842000D01*
X167513000Y-79842000D01*
X167513000Y-79822000D01*
X166788750Y-79822000D01*
X166630000Y-79980750D01*
X166630000Y-80421309D01*
X166726673Y-80654698D01*
X166728043Y-80656068D01*
X166668569Y-80743110D01*
X166617560Y-80995000D01*
X166617560Y-82195000D01*
X166661838Y-82430317D01*
X166800910Y-82646441D01*
X166995224Y-82779210D01*
X166954683Y-82786838D01*
X166821829Y-82872327D01*
X165960901Y-82011399D01*
X165714339Y-81846652D01*
X165423500Y-81788800D01*
X165383050Y-81788800D01*
X165316250Y-81722000D01*
X164592000Y-81722000D01*
X164592000Y-81742000D01*
X164338000Y-81742000D01*
X164338000Y-81722000D01*
X163613750Y-81722000D01*
X163546950Y-81788800D01*
X162796302Y-81788800D01*
X162387440Y-81379938D01*
X162387440Y-81145000D01*
X162343162Y-80909683D01*
X162204090Y-80693559D01*
X162134289Y-80645866D01*
X162191441Y-80609090D01*
X162336431Y-80396890D01*
X162355039Y-80305000D01*
X163335951Y-80305000D01*
X163460043Y-80387915D01*
X163486838Y-80530317D01*
X163553329Y-80633646D01*
X163551673Y-80635302D01*
X163455000Y-80868691D01*
X163455000Y-81309250D01*
X163613750Y-81468000D01*
X164338000Y-81468000D01*
X164338000Y-81448000D01*
X164592000Y-81448000D01*
X164592000Y-81468000D01*
X165316250Y-81468000D01*
X165475000Y-81309250D01*
X165475000Y-80868691D01*
X165378327Y-80635302D01*
X165376957Y-80633932D01*
X165436431Y-80546890D01*
X165468416Y-80388945D01*
X165702701Y-80232401D01*
X166405502Y-79529600D01*
X166750350Y-79529600D01*
X166788750Y-79568000D01*
X166788750Y-79568000D01*
G37*
X166788750Y-79568000D02*
X167513000Y-79568000D01*
X167513000Y-79548000D01*
X167767000Y-79548000D01*
X167767000Y-79568000D01*
X168491250Y-79568000D01*
X168529650Y-79529600D01*
X168682560Y-79529600D01*
X168682560Y-80860000D01*
X168697025Y-80936876D01*
X168644957Y-80902085D01*
X168618162Y-80759683D01*
X168551671Y-80656354D01*
X168553327Y-80654698D01*
X168650000Y-80421309D01*
X168650000Y-79980750D01*
X168491250Y-79822000D01*
X167767000Y-79822000D01*
X167767000Y-79842000D01*
X167513000Y-79842000D01*
X167513000Y-79822000D01*
X166788750Y-79822000D01*
X166630000Y-79980750D01*
X166630000Y-80421309D01*
X166726673Y-80654698D01*
X166728043Y-80656068D01*
X166668569Y-80743110D01*
X166617560Y-80995000D01*
X166617560Y-82195000D01*
X166661838Y-82430317D01*
X166800910Y-82646441D01*
X166995224Y-82779210D01*
X166954683Y-82786838D01*
X166821829Y-82872327D01*
X165960901Y-82011399D01*
X165714339Y-81846652D01*
X165423500Y-81788800D01*
X165383050Y-81788800D01*
X165316250Y-81722000D01*
X164592000Y-81722000D01*
X164592000Y-81742000D01*
X164338000Y-81742000D01*
X164338000Y-81722000D01*
X163613750Y-81722000D01*
X163546950Y-81788800D01*
X162796302Y-81788800D01*
X162387440Y-81379938D01*
X162387440Y-81145000D01*
X162343162Y-80909683D01*
X162204090Y-80693559D01*
X162134289Y-80645866D01*
X162191441Y-80609090D01*
X162336431Y-80396890D01*
X162355039Y-80305000D01*
X163335951Y-80305000D01*
X163460043Y-80387915D01*
X163486838Y-80530317D01*
X163553329Y-80633646D01*
X163551673Y-80635302D01*
X163455000Y-80868691D01*
X163455000Y-81309250D01*
X163613750Y-81468000D01*
X164338000Y-81468000D01*
X164338000Y-81448000D01*
X164592000Y-81448000D01*
X164592000Y-81468000D01*
X165316250Y-81468000D01*
X165475000Y-81309250D01*
X165475000Y-80868691D01*
X165378327Y-80635302D01*
X165376957Y-80633932D01*
X165436431Y-80546890D01*
X165468416Y-80388945D01*
X165702701Y-80232401D01*
X166405502Y-79529600D01*
X166750350Y-79529600D01*
X166788750Y-79568000D01*
M02*
