G04 #@! TF.FileFunction,Legend,Top*
%FSLAX46Y46*%
G04 Gerber Fmt 4.6, Leading zero omitted, Abs format (unit mm)*
G04 Created by KiCad (PCBNEW 4.0.7-e2-6376~60~ubuntu17.10.1) date Tue Dec  5 13:17:51 2017*
%MOMM*%
%LPD*%
G01*
G04 APERTURE LIST*
%ADD10C,0.100000*%
%ADD11C,0.300000*%
%ADD12C,0.120000*%
%ADD13C,0.254000*%
%ADD14C,0.150000*%
%ADD15C,0.203200*%
%ADD16C,0.127000*%
%ADD17C,0.010000*%
G04 APERTURE END LIST*
D10*
X187436429Y-96356429D02*
X187293572Y-96356429D01*
X187293572Y-95499286D01*
X187436429Y-95499286D01*
X188065000Y-96356429D02*
X188207857Y-96356429D01*
X188207857Y-95499286D01*
X188065000Y-95499286D01*
X188865000Y-96156429D02*
X188665000Y-95870714D01*
X188522143Y-96156429D02*
X188522143Y-95556429D01*
X188750715Y-95556429D01*
X188807857Y-95585000D01*
X188836429Y-95613571D01*
X188865000Y-95670714D01*
X188865000Y-95756429D01*
X188836429Y-95813571D01*
X188807857Y-95842143D01*
X188750715Y-95870714D01*
X188522143Y-95870714D01*
X189322143Y-95842143D02*
X189122143Y-95842143D01*
X189122143Y-96156429D02*
X189122143Y-95556429D01*
X189407857Y-95556429D01*
X189636429Y-96156429D02*
X189636429Y-95556429D01*
X189836429Y-95985000D01*
X190036429Y-95556429D01*
X190036429Y-96156429D01*
X190579286Y-95556429D02*
X190465000Y-95556429D01*
X190407857Y-95585000D01*
X190379286Y-95613571D01*
X190322143Y-95699286D01*
X190293572Y-95813571D01*
X190293572Y-96042143D01*
X190322143Y-96099286D01*
X190350715Y-96127857D01*
X190407857Y-96156429D01*
X190522143Y-96156429D01*
X190579286Y-96127857D01*
X190607857Y-96099286D01*
X190636429Y-96042143D01*
X190636429Y-95899286D01*
X190607857Y-95842143D01*
X190579286Y-95813571D01*
X190522143Y-95785000D01*
X190407857Y-95785000D01*
X190350715Y-95813571D01*
X190322143Y-95842143D01*
X190293572Y-95899286D01*
X190922144Y-96156429D02*
X191036429Y-96156429D01*
X191093572Y-96127857D01*
X191122144Y-96099286D01*
X191179286Y-96013571D01*
X191207858Y-95899286D01*
X191207858Y-95670714D01*
X191179286Y-95613571D01*
X191150715Y-95585000D01*
X191093572Y-95556429D01*
X190979286Y-95556429D01*
X190922144Y-95585000D01*
X190893572Y-95613571D01*
X190865001Y-95670714D01*
X190865001Y-95813571D01*
X190893572Y-95870714D01*
X190922144Y-95899286D01*
X190979286Y-95927857D01*
X191093572Y-95927857D01*
X191150715Y-95899286D01*
X191179286Y-95870714D01*
X191207858Y-95813571D01*
X191807858Y-96099286D02*
X191779287Y-96127857D01*
X191693573Y-96156429D01*
X191636430Y-96156429D01*
X191550715Y-96127857D01*
X191493573Y-96070714D01*
X191465001Y-96013571D01*
X191436430Y-95899286D01*
X191436430Y-95813571D01*
X191465001Y-95699286D01*
X191493573Y-95642143D01*
X191550715Y-95585000D01*
X191636430Y-95556429D01*
X191693573Y-95556429D01*
X191779287Y-95585000D01*
X191807858Y-95613571D01*
X192007858Y-95556429D02*
X192150715Y-96156429D01*
X192265001Y-95727857D01*
X192379287Y-96156429D01*
X192522144Y-95556429D01*
X187793571Y-93181429D02*
X187650714Y-93181429D01*
X187650714Y-92324286D01*
X187793571Y-92324286D01*
X188422142Y-93181429D02*
X188564999Y-93181429D01*
X188564999Y-92324286D01*
X188422142Y-92324286D01*
X189222142Y-92981429D02*
X189022142Y-92695714D01*
X188879285Y-92981429D02*
X188879285Y-92381429D01*
X189107857Y-92381429D01*
X189164999Y-92410000D01*
X189193571Y-92438571D01*
X189222142Y-92495714D01*
X189222142Y-92581429D01*
X189193571Y-92638571D01*
X189164999Y-92667143D01*
X189107857Y-92695714D01*
X188879285Y-92695714D01*
X189479285Y-92981429D02*
X189479285Y-92381429D01*
X189822142Y-92981429D01*
X189822142Y-92381429D01*
X190079285Y-92438571D02*
X190107856Y-92410000D01*
X190164999Y-92381429D01*
X190307856Y-92381429D01*
X190364999Y-92410000D01*
X190393570Y-92438571D01*
X190422142Y-92495714D01*
X190422142Y-92552857D01*
X190393570Y-92638571D01*
X190050713Y-92981429D01*
X190422142Y-92981429D01*
X190936428Y-92581429D02*
X190936428Y-92981429D01*
X190793571Y-92352857D02*
X190650714Y-92781429D01*
X191022142Y-92781429D01*
X191336428Y-92638571D02*
X191279286Y-92610000D01*
X191250714Y-92581429D01*
X191222143Y-92524286D01*
X191222143Y-92495714D01*
X191250714Y-92438571D01*
X191279286Y-92410000D01*
X191336428Y-92381429D01*
X191450714Y-92381429D01*
X191507857Y-92410000D01*
X191536428Y-92438571D01*
X191565000Y-92495714D01*
X191565000Y-92524286D01*
X191536428Y-92581429D01*
X191507857Y-92610000D01*
X191450714Y-92638571D01*
X191336428Y-92638571D01*
X191279286Y-92667143D01*
X191250714Y-92695714D01*
X191222143Y-92752857D01*
X191222143Y-92867143D01*
X191250714Y-92924286D01*
X191279286Y-92952857D01*
X191336428Y-92981429D01*
X191450714Y-92981429D01*
X191507857Y-92952857D01*
X191536428Y-92924286D01*
X191565000Y-92867143D01*
X191565000Y-92752857D01*
X191536428Y-92695714D01*
X191507857Y-92667143D01*
X191450714Y-92638571D01*
X191765000Y-92381429D02*
X192136429Y-92381429D01*
X191936429Y-92610000D01*
X192022143Y-92610000D01*
X192079286Y-92638571D01*
X192107857Y-92667143D01*
X192136429Y-92724286D01*
X192136429Y-92867143D01*
X192107857Y-92924286D01*
X192079286Y-92952857D01*
X192022143Y-92981429D01*
X191850715Y-92981429D01*
X191793572Y-92952857D01*
X191765000Y-92924286D01*
D11*
X184193571Y-79724286D02*
X184407857Y-80010000D01*
X184193571Y-80295715D01*
D10*
X150037858Y-100030000D02*
X149980715Y-100001429D01*
X149895001Y-100001429D01*
X149809286Y-100030000D01*
X149752144Y-100087143D01*
X149723572Y-100144286D01*
X149695001Y-100258571D01*
X149695001Y-100344286D01*
X149723572Y-100458571D01*
X149752144Y-100515714D01*
X149809286Y-100572857D01*
X149895001Y-100601429D01*
X149952144Y-100601429D01*
X150037858Y-100572857D01*
X150066429Y-100544286D01*
X150066429Y-100344286D01*
X149952144Y-100344286D01*
X150323572Y-100601429D02*
X150323572Y-100001429D01*
X150666429Y-100601429D01*
X150666429Y-100001429D01*
X150952143Y-100601429D02*
X150952143Y-100001429D01*
X151095000Y-100001429D01*
X151180715Y-100030000D01*
X151237857Y-100087143D01*
X151266429Y-100144286D01*
X151295000Y-100258571D01*
X151295000Y-100344286D01*
X151266429Y-100458571D01*
X151237857Y-100515714D01*
X151180715Y-100572857D01*
X151095000Y-100601429D01*
X150952143Y-100601429D01*
X149437857Y-97832857D02*
X149895000Y-97832857D01*
X149666429Y-98061429D02*
X149666429Y-97604286D01*
X150123571Y-97461429D02*
X150495000Y-97461429D01*
X150295000Y-97690000D01*
X150380714Y-97690000D01*
X150437857Y-97718571D01*
X150466428Y-97747143D01*
X150495000Y-97804286D01*
X150495000Y-97947143D01*
X150466428Y-98004286D01*
X150437857Y-98032857D01*
X150380714Y-98061429D01*
X150209286Y-98061429D01*
X150152143Y-98032857D01*
X150123571Y-98004286D01*
X150666429Y-97461429D02*
X150866429Y-98061429D01*
X151066429Y-97461429D01*
X151209286Y-97461429D02*
X151580715Y-97461429D01*
X151380715Y-97690000D01*
X151466429Y-97690000D01*
X151523572Y-97718571D01*
X151552143Y-97747143D01*
X151580715Y-97804286D01*
X151580715Y-97947143D01*
X151552143Y-98004286D01*
X151523572Y-98032857D01*
X151466429Y-98061429D01*
X151295001Y-98061429D01*
X151237858Y-98032857D01*
X151209286Y-98004286D01*
X149809286Y-108221429D02*
X149809286Y-107621429D01*
X149952143Y-107621429D01*
X150037858Y-107650000D01*
X150095000Y-107707143D01*
X150123572Y-107764286D01*
X150152143Y-107878571D01*
X150152143Y-107964286D01*
X150123572Y-108078571D01*
X150095000Y-108135714D01*
X150037858Y-108192857D01*
X149952143Y-108221429D01*
X149809286Y-108221429D01*
X150323572Y-107621429D02*
X150666429Y-107621429D01*
X150495000Y-108221429D02*
X150495000Y-107621429D01*
X151209286Y-108221429D02*
X151009286Y-107935714D01*
X150866429Y-108221429D02*
X150866429Y-107621429D01*
X151095001Y-107621429D01*
X151152143Y-107650000D01*
X151180715Y-107678571D01*
X151209286Y-107735714D01*
X151209286Y-107821429D01*
X151180715Y-107878571D01*
X151152143Y-107907143D01*
X151095001Y-107935714D01*
X150866429Y-107935714D01*
X150037857Y-105081429D02*
X150380714Y-105081429D01*
X150209285Y-105681429D02*
X150209285Y-105081429D01*
X150523571Y-105081429D02*
X150923571Y-105681429D01*
X150923571Y-105081429D02*
X150523571Y-105681429D01*
X150395000Y-103141429D02*
X150195000Y-102855714D01*
X150052143Y-103141429D02*
X150052143Y-102541429D01*
X150280715Y-102541429D01*
X150337857Y-102570000D01*
X150366429Y-102598571D01*
X150395000Y-102655714D01*
X150395000Y-102741429D01*
X150366429Y-102798571D01*
X150337857Y-102827143D01*
X150280715Y-102855714D01*
X150052143Y-102855714D01*
X150595000Y-102541429D02*
X150995000Y-103141429D01*
X150995000Y-102541429D02*
X150595000Y-103141429D01*
X172897857Y-81586429D02*
X173240714Y-81586429D01*
X173069285Y-82186429D02*
X173069285Y-81586429D01*
X173383571Y-81586429D02*
X173783571Y-82186429D01*
X173783571Y-81586429D02*
X173383571Y-82186429D01*
X170715000Y-82186429D02*
X170515000Y-81900714D01*
X170372143Y-82186429D02*
X170372143Y-81586429D01*
X170600715Y-81586429D01*
X170657857Y-81615000D01*
X170686429Y-81643571D01*
X170715000Y-81700714D01*
X170715000Y-81786429D01*
X170686429Y-81843571D01*
X170657857Y-81872143D01*
X170600715Y-81900714D01*
X170372143Y-81900714D01*
X170915000Y-81586429D02*
X171315000Y-82186429D01*
X171315000Y-81586429D02*
X170915000Y-82186429D01*
X157686429Y-82015000D02*
X157972143Y-82015000D01*
X157629286Y-82186429D02*
X157829286Y-81586429D01*
X158029286Y-82186429D01*
X158172143Y-81586429D02*
X158543572Y-81586429D01*
X158343572Y-81815000D01*
X158429286Y-81815000D01*
X158486429Y-81843571D01*
X158515000Y-81872143D01*
X158543572Y-81929286D01*
X158543572Y-82072143D01*
X158515000Y-82129286D01*
X158486429Y-82157857D01*
X158429286Y-82186429D01*
X158257858Y-82186429D01*
X158200715Y-82157857D01*
X158172143Y-82129286D01*
X175452143Y-82186429D02*
X175452143Y-81586429D01*
X175595000Y-81586429D01*
X175680715Y-81615000D01*
X175737857Y-81672143D01*
X175766429Y-81729286D01*
X175795000Y-81843571D01*
X175795000Y-81929286D01*
X175766429Y-82043571D01*
X175737857Y-82100714D01*
X175680715Y-82157857D01*
X175595000Y-82186429D01*
X175452143Y-82186429D01*
X176023572Y-81643571D02*
X176052143Y-81615000D01*
X176109286Y-81586429D01*
X176252143Y-81586429D01*
X176309286Y-81615000D01*
X176337857Y-81643571D01*
X176366429Y-81700714D01*
X176366429Y-81757857D01*
X176337857Y-81843571D01*
X175995000Y-82186429D01*
X176366429Y-82186429D01*
X162752143Y-107586429D02*
X162752143Y-106986429D01*
X162895000Y-106986429D01*
X162980715Y-107015000D01*
X163037857Y-107072143D01*
X163066429Y-107129286D01*
X163095000Y-107243571D01*
X163095000Y-107329286D01*
X163066429Y-107443571D01*
X163037857Y-107500714D01*
X162980715Y-107557857D01*
X162895000Y-107586429D01*
X162752143Y-107586429D01*
X163380715Y-107586429D02*
X163495000Y-107586429D01*
X163552143Y-107557857D01*
X163580715Y-107529286D01*
X163637857Y-107443571D01*
X163666429Y-107329286D01*
X163666429Y-107100714D01*
X163637857Y-107043571D01*
X163609286Y-107015000D01*
X163552143Y-106986429D01*
X163437857Y-106986429D01*
X163380715Y-107015000D01*
X163352143Y-107043571D01*
X163323572Y-107100714D01*
X163323572Y-107243571D01*
X163352143Y-107300714D01*
X163380715Y-107329286D01*
X163437857Y-107357857D01*
X163552143Y-107357857D01*
X163609286Y-107329286D01*
X163637857Y-107300714D01*
X163666429Y-107243571D01*
X165292143Y-107586429D02*
X165292143Y-106986429D01*
X165435000Y-106986429D01*
X165520715Y-107015000D01*
X165577857Y-107072143D01*
X165606429Y-107129286D01*
X165635000Y-107243571D01*
X165635000Y-107329286D01*
X165606429Y-107443571D01*
X165577857Y-107500714D01*
X165520715Y-107557857D01*
X165435000Y-107586429D01*
X165292143Y-107586429D01*
X165977857Y-107243571D02*
X165920715Y-107215000D01*
X165892143Y-107186429D01*
X165863572Y-107129286D01*
X165863572Y-107100714D01*
X165892143Y-107043571D01*
X165920715Y-107015000D01*
X165977857Y-106986429D01*
X166092143Y-106986429D01*
X166149286Y-107015000D01*
X166177857Y-107043571D01*
X166206429Y-107100714D01*
X166206429Y-107129286D01*
X166177857Y-107186429D01*
X166149286Y-107215000D01*
X166092143Y-107243571D01*
X165977857Y-107243571D01*
X165920715Y-107272143D01*
X165892143Y-107300714D01*
X165863572Y-107357857D01*
X165863572Y-107472143D01*
X165892143Y-107529286D01*
X165920715Y-107557857D01*
X165977857Y-107586429D01*
X166092143Y-107586429D01*
X166149286Y-107557857D01*
X166177857Y-107529286D01*
X166206429Y-107472143D01*
X166206429Y-107357857D01*
X166177857Y-107300714D01*
X166149286Y-107272143D01*
X166092143Y-107243571D01*
X190383333Y-86098334D02*
X190383333Y-86431668D01*
X190183333Y-86031668D02*
X190883333Y-86265001D01*
X190183333Y-86498334D01*
X190183333Y-87065001D02*
X190183333Y-86731668D01*
X190883333Y-86731668D01*
X190883333Y-87431668D02*
X190883333Y-87565001D01*
X190850000Y-87631668D01*
X190783333Y-87698335D01*
X190650000Y-87731668D01*
X190416667Y-87731668D01*
X190283333Y-87698335D01*
X190216667Y-87631668D01*
X190183333Y-87565001D01*
X190183333Y-87431668D01*
X190216667Y-87365001D01*
X190283333Y-87298335D01*
X190416667Y-87265001D01*
X190650000Y-87265001D01*
X190783333Y-87298335D01*
X190850000Y-87365001D01*
X190883333Y-87431668D01*
X190550000Y-88031668D02*
X190550000Y-88265001D01*
X190183333Y-88365001D02*
X190183333Y-88031668D01*
X190883333Y-88031668D01*
X190883333Y-88365001D01*
X190216667Y-88631667D02*
X190183333Y-88731667D01*
X190183333Y-88898334D01*
X190216667Y-88965001D01*
X190250000Y-88998334D01*
X190316667Y-89031667D01*
X190383333Y-89031667D01*
X190450000Y-88998334D01*
X190483333Y-88965001D01*
X190516667Y-88898334D01*
X190550000Y-88765001D01*
X190583333Y-88698334D01*
X190616667Y-88665001D01*
X190683333Y-88631667D01*
X190750000Y-88631667D01*
X190816667Y-88665001D01*
X190850000Y-88698334D01*
X190883333Y-88765001D01*
X190883333Y-88931667D01*
X190850000Y-89031667D01*
X190250000Y-89331668D02*
X190216667Y-89365001D01*
X190183333Y-89331668D01*
X190216667Y-89298334D01*
X190250000Y-89331668D01*
X190183333Y-89331668D01*
X190183333Y-89665001D02*
X190883333Y-89665001D01*
X190883333Y-90131667D02*
X190883333Y-90265000D01*
X190850000Y-90331667D01*
X190783333Y-90398334D01*
X190650000Y-90431667D01*
X190416667Y-90431667D01*
X190283333Y-90398334D01*
X190216667Y-90331667D01*
X190183333Y-90265000D01*
X190183333Y-90131667D01*
X190216667Y-90065000D01*
X190283333Y-89998334D01*
X190416667Y-89965000D01*
X190650000Y-89965000D01*
X190783333Y-89998334D01*
X190850000Y-90065000D01*
X190883333Y-90131667D01*
X175745714Y-78319286D02*
X175717143Y-78347857D01*
X175631429Y-78376429D01*
X175574286Y-78376429D01*
X175488571Y-78347857D01*
X175431429Y-78290714D01*
X175402857Y-78233571D01*
X175374286Y-78119286D01*
X175374286Y-78033571D01*
X175402857Y-77919286D01*
X175431429Y-77862143D01*
X175488571Y-77805000D01*
X175574286Y-77776429D01*
X175631429Y-77776429D01*
X175717143Y-77805000D01*
X175745714Y-77833571D01*
X176088571Y-78376429D02*
X176031429Y-78347857D01*
X176002857Y-78319286D01*
X175974286Y-78262143D01*
X175974286Y-78090714D01*
X176002857Y-78033571D01*
X176031429Y-78005000D01*
X176088571Y-77976429D01*
X176174286Y-77976429D01*
X176231429Y-78005000D01*
X176260000Y-78033571D01*
X176288571Y-78090714D01*
X176288571Y-78262143D01*
X176260000Y-78319286D01*
X176231429Y-78347857D01*
X176174286Y-78376429D01*
X176088571Y-78376429D01*
X176517143Y-78347857D02*
X176574286Y-78376429D01*
X176688571Y-78376429D01*
X176745714Y-78347857D01*
X176774286Y-78290714D01*
X176774286Y-78262143D01*
X176745714Y-78205000D01*
X176688571Y-78176429D01*
X176602857Y-78176429D01*
X176545714Y-78147857D01*
X176517143Y-78090714D01*
X176517143Y-78062143D01*
X176545714Y-78005000D01*
X176602857Y-77976429D01*
X176688571Y-77976429D01*
X176745714Y-78005000D01*
X177031428Y-78376429D02*
X177031428Y-77976429D01*
X177031428Y-78033571D02*
X177060000Y-78005000D01*
X177117142Y-77976429D01*
X177202857Y-77976429D01*
X177260000Y-78005000D01*
X177288571Y-78062143D01*
X177288571Y-78376429D01*
X177288571Y-78062143D02*
X177317142Y-78005000D01*
X177374285Y-77976429D01*
X177460000Y-77976429D01*
X177517142Y-78005000D01*
X177545714Y-78062143D01*
X177545714Y-78376429D01*
X177917142Y-78376429D02*
X177860000Y-78347857D01*
X177831428Y-78319286D01*
X177802857Y-78262143D01*
X177802857Y-78090714D01*
X177831428Y-78033571D01*
X177860000Y-78005000D01*
X177917142Y-77976429D01*
X178002857Y-77976429D01*
X178060000Y-78005000D01*
X178088571Y-78033571D01*
X178117142Y-78090714D01*
X178117142Y-78262143D01*
X178088571Y-78319286D01*
X178060000Y-78347857D01*
X178002857Y-78376429D01*
X177917142Y-78376429D01*
X178374285Y-77976429D02*
X178374285Y-78376429D01*
X178374285Y-78033571D02*
X178402857Y-78005000D01*
X178459999Y-77976429D01*
X178545714Y-77976429D01*
X178602857Y-78005000D01*
X178631428Y-78062143D01*
X178631428Y-78376429D01*
X179002856Y-78376429D02*
X178945714Y-78347857D01*
X178917142Y-78319286D01*
X178888571Y-78262143D01*
X178888571Y-78090714D01*
X178917142Y-78033571D01*
X178945714Y-78005000D01*
X179002856Y-77976429D01*
X179088571Y-77976429D01*
X179145714Y-78005000D01*
X179174285Y-78033571D01*
X179202856Y-78090714D01*
X179202856Y-78262143D01*
X179174285Y-78319286D01*
X179145714Y-78347857D01*
X179088571Y-78376429D01*
X179002856Y-78376429D01*
X179717142Y-78376429D02*
X179717142Y-77776429D01*
X179717142Y-78347857D02*
X179659999Y-78376429D01*
X179545713Y-78376429D01*
X179488571Y-78347857D01*
X179459999Y-78319286D01*
X179431428Y-78262143D01*
X179431428Y-78090714D01*
X179459999Y-78033571D01*
X179488571Y-78005000D01*
X179545713Y-77976429D01*
X179659999Y-77976429D01*
X179717142Y-78005000D01*
X180231428Y-78347857D02*
X180174285Y-78376429D01*
X180059999Y-78376429D01*
X180002856Y-78347857D01*
X179974285Y-78290714D01*
X179974285Y-78062143D01*
X180002856Y-78005000D01*
X180059999Y-77976429D01*
X180174285Y-77976429D01*
X180231428Y-78005000D01*
X180259999Y-78062143D01*
X180259999Y-78119286D01*
X179974285Y-78176429D01*
X180917142Y-77976429D02*
X181059999Y-78376429D01*
X181202857Y-77976429D01*
X181545714Y-77776429D02*
X181602857Y-77776429D01*
X181660000Y-77805000D01*
X181688571Y-77833571D01*
X181717142Y-77890714D01*
X181745714Y-78005000D01*
X181745714Y-78147857D01*
X181717142Y-78262143D01*
X181688571Y-78319286D01*
X181660000Y-78347857D01*
X181602857Y-78376429D01*
X181545714Y-78376429D01*
X181488571Y-78347857D01*
X181460000Y-78319286D01*
X181431428Y-78262143D01*
X181402857Y-78147857D01*
X181402857Y-78005000D01*
X181431428Y-77890714D01*
X181460000Y-77833571D01*
X181488571Y-77805000D01*
X181545714Y-77776429D01*
X182002857Y-78319286D02*
X182031429Y-78347857D01*
X182002857Y-78376429D01*
X181974286Y-78347857D01*
X182002857Y-78319286D01*
X182002857Y-78376429D01*
X182231428Y-77776429D02*
X182631428Y-77776429D01*
X182374285Y-78376429D01*
X152263572Y-107557857D02*
X152349286Y-107586429D01*
X152492143Y-107586429D01*
X152549286Y-107557857D01*
X152577857Y-107529286D01*
X152606429Y-107472143D01*
X152606429Y-107415000D01*
X152577857Y-107357857D01*
X152549286Y-107329286D01*
X152492143Y-107300714D01*
X152377857Y-107272143D01*
X152320715Y-107243571D01*
X152292143Y-107215000D01*
X152263572Y-107157857D01*
X152263572Y-107100714D01*
X152292143Y-107043571D01*
X152320715Y-107015000D01*
X152377857Y-106986429D01*
X152520715Y-106986429D01*
X152606429Y-107015000D01*
X153206429Y-107529286D02*
X153177858Y-107557857D01*
X153092144Y-107586429D01*
X153035001Y-107586429D01*
X152949286Y-107557857D01*
X152892144Y-107500714D01*
X152863572Y-107443571D01*
X152835001Y-107329286D01*
X152835001Y-107243571D01*
X152863572Y-107129286D01*
X152892144Y-107072143D01*
X152949286Y-107015000D01*
X153035001Y-106986429D01*
X153092144Y-106986429D01*
X153177858Y-107015000D01*
X153206429Y-107043571D01*
X153463572Y-107586429D02*
X153463572Y-106986429D01*
X153806429Y-107586429D02*
X153549286Y-107243571D01*
X153806429Y-106986429D02*
X153463572Y-107329286D01*
X154632143Y-107586429D02*
X154632143Y-106986429D01*
X154832143Y-107415000D01*
X155032143Y-106986429D01*
X155032143Y-107586429D01*
X155317857Y-107586429D02*
X155317857Y-106986429D01*
X155575000Y-107557857D02*
X155660714Y-107586429D01*
X155803571Y-107586429D01*
X155860714Y-107557857D01*
X155889285Y-107529286D01*
X155917857Y-107472143D01*
X155917857Y-107415000D01*
X155889285Y-107357857D01*
X155860714Y-107329286D01*
X155803571Y-107300714D01*
X155689285Y-107272143D01*
X155632143Y-107243571D01*
X155603571Y-107215000D01*
X155575000Y-107157857D01*
X155575000Y-107100714D01*
X155603571Y-107043571D01*
X155632143Y-107015000D01*
X155689285Y-106986429D01*
X155832143Y-106986429D01*
X155917857Y-107015000D01*
X156289286Y-106986429D02*
X156403572Y-106986429D01*
X156460714Y-107015000D01*
X156517857Y-107072143D01*
X156546429Y-107186429D01*
X156546429Y-107386429D01*
X156517857Y-107500714D01*
X156460714Y-107557857D01*
X156403572Y-107586429D01*
X156289286Y-107586429D01*
X156232143Y-107557857D01*
X156175000Y-107500714D01*
X156146429Y-107386429D01*
X156146429Y-107186429D01*
X156175000Y-107072143D01*
X156232143Y-107015000D01*
X156289286Y-106986429D01*
X157172143Y-107586429D02*
X157172143Y-106986429D01*
X157372143Y-107415000D01*
X157572143Y-106986429D01*
X157572143Y-107586429D01*
X157972143Y-106986429D02*
X158086429Y-106986429D01*
X158143571Y-107015000D01*
X158200714Y-107072143D01*
X158229286Y-107186429D01*
X158229286Y-107386429D01*
X158200714Y-107500714D01*
X158143571Y-107557857D01*
X158086429Y-107586429D01*
X157972143Y-107586429D01*
X157915000Y-107557857D01*
X157857857Y-107500714D01*
X157829286Y-107386429D01*
X157829286Y-107186429D01*
X157857857Y-107072143D01*
X157915000Y-107015000D01*
X157972143Y-106986429D01*
X158457857Y-107557857D02*
X158543571Y-107586429D01*
X158686428Y-107586429D01*
X158743571Y-107557857D01*
X158772142Y-107529286D01*
X158800714Y-107472143D01*
X158800714Y-107415000D01*
X158772142Y-107357857D01*
X158743571Y-107329286D01*
X158686428Y-107300714D01*
X158572142Y-107272143D01*
X158515000Y-107243571D01*
X158486428Y-107215000D01*
X158457857Y-107157857D01*
X158457857Y-107100714D01*
X158486428Y-107043571D01*
X158515000Y-107015000D01*
X158572142Y-106986429D01*
X158715000Y-106986429D01*
X158800714Y-107015000D01*
X159057857Y-107586429D02*
X159057857Y-106986429D01*
X160326428Y-107586429D02*
X160126428Y-107300714D01*
X159983571Y-107586429D02*
X159983571Y-106986429D01*
X160212143Y-106986429D01*
X160269285Y-107015000D01*
X160297857Y-107043571D01*
X160326428Y-107100714D01*
X160326428Y-107186429D01*
X160297857Y-107243571D01*
X160269285Y-107272143D01*
X160212143Y-107300714D01*
X159983571Y-107300714D01*
X160555000Y-107557857D02*
X160640714Y-107586429D01*
X160783571Y-107586429D01*
X160840714Y-107557857D01*
X160869285Y-107529286D01*
X160897857Y-107472143D01*
X160897857Y-107415000D01*
X160869285Y-107357857D01*
X160840714Y-107329286D01*
X160783571Y-107300714D01*
X160669285Y-107272143D01*
X160612143Y-107243571D01*
X160583571Y-107215000D01*
X160555000Y-107157857D01*
X160555000Y-107100714D01*
X160583571Y-107043571D01*
X160612143Y-107015000D01*
X160669285Y-106986429D01*
X160812143Y-106986429D01*
X160897857Y-107015000D01*
X161069286Y-106986429D02*
X161412143Y-106986429D01*
X161240714Y-107586429D02*
X161240714Y-106986429D01*
X165306429Y-82015000D02*
X165592143Y-82015000D01*
X165249286Y-82186429D02*
X165449286Y-81586429D01*
X165649286Y-82186429D01*
X166106429Y-81586429D02*
X165992143Y-81586429D01*
X165935000Y-81615000D01*
X165906429Y-81643571D01*
X165849286Y-81729286D01*
X165820715Y-81843571D01*
X165820715Y-82072143D01*
X165849286Y-82129286D01*
X165877858Y-82157857D01*
X165935000Y-82186429D01*
X166049286Y-82186429D01*
X166106429Y-82157857D01*
X166135000Y-82129286D01*
X166163572Y-82072143D01*
X166163572Y-81929286D01*
X166135000Y-81872143D01*
X166106429Y-81843571D01*
X166049286Y-81815000D01*
X165935000Y-81815000D01*
X165877858Y-81843571D01*
X165849286Y-81872143D01*
X165820715Y-81929286D01*
X155146429Y-82015000D02*
X155432143Y-82015000D01*
X155089286Y-82186429D02*
X155289286Y-81586429D01*
X155489286Y-82186429D01*
X156003572Y-82186429D02*
X155660715Y-82186429D01*
X155832143Y-82186429D02*
X155832143Y-81586429D01*
X155775000Y-81672143D01*
X155717858Y-81729286D01*
X155660715Y-81757857D01*
X152606429Y-82015000D02*
X152892143Y-82015000D01*
X152549286Y-82186429D02*
X152749286Y-81586429D01*
X152949286Y-82186429D01*
X153263572Y-81586429D02*
X153320715Y-81586429D01*
X153377858Y-81615000D01*
X153406429Y-81643571D01*
X153435000Y-81700714D01*
X153463572Y-81815000D01*
X153463572Y-81957857D01*
X153435000Y-82072143D01*
X153406429Y-82129286D01*
X153377858Y-82157857D01*
X153320715Y-82186429D01*
X153263572Y-82186429D01*
X153206429Y-82157857D01*
X153177858Y-82129286D01*
X153149286Y-82072143D01*
X153120715Y-81957857D01*
X153120715Y-81815000D01*
X153149286Y-81700714D01*
X153177858Y-81643571D01*
X153206429Y-81615000D01*
X153263572Y-81586429D01*
X167832143Y-107586429D02*
X167832143Y-106986429D01*
X167975000Y-106986429D01*
X168060715Y-107015000D01*
X168117857Y-107072143D01*
X168146429Y-107129286D01*
X168175000Y-107243571D01*
X168175000Y-107329286D01*
X168146429Y-107443571D01*
X168117857Y-107500714D01*
X168060715Y-107557857D01*
X167975000Y-107586429D01*
X167832143Y-107586429D01*
X168375000Y-106986429D02*
X168775000Y-106986429D01*
X168517857Y-107586429D01*
X175437858Y-107015000D02*
X175380715Y-106986429D01*
X175295001Y-106986429D01*
X175209286Y-107015000D01*
X175152144Y-107072143D01*
X175123572Y-107129286D01*
X175095001Y-107243571D01*
X175095001Y-107329286D01*
X175123572Y-107443571D01*
X175152144Y-107500714D01*
X175209286Y-107557857D01*
X175295001Y-107586429D01*
X175352144Y-107586429D01*
X175437858Y-107557857D01*
X175466429Y-107529286D01*
X175466429Y-107329286D01*
X175352144Y-107329286D01*
X175723572Y-107586429D02*
X175723572Y-106986429D01*
X176066429Y-107586429D01*
X176066429Y-106986429D01*
X176352143Y-107586429D02*
X176352143Y-106986429D01*
X176495000Y-106986429D01*
X176580715Y-107015000D01*
X176637857Y-107072143D01*
X176666429Y-107129286D01*
X176695000Y-107243571D01*
X176695000Y-107329286D01*
X176666429Y-107443571D01*
X176637857Y-107500714D01*
X176580715Y-107557857D01*
X176495000Y-107586429D01*
X176352143Y-107586429D01*
X167846429Y-82015000D02*
X168132143Y-82015000D01*
X167789286Y-82186429D02*
X167989286Y-81586429D01*
X168189286Y-82186429D01*
X168332143Y-81586429D02*
X168732143Y-81586429D01*
X168475000Y-82186429D01*
X162766429Y-82015000D02*
X163052143Y-82015000D01*
X162709286Y-82186429D02*
X162909286Y-81586429D01*
X163109286Y-82186429D01*
X163595000Y-81586429D02*
X163309286Y-81586429D01*
X163280715Y-81872143D01*
X163309286Y-81843571D01*
X163366429Y-81815000D01*
X163509286Y-81815000D01*
X163566429Y-81843571D01*
X163595000Y-81872143D01*
X163623572Y-81929286D01*
X163623572Y-82072143D01*
X163595000Y-82129286D01*
X163566429Y-82157857D01*
X163509286Y-82186429D01*
X163366429Y-82186429D01*
X163309286Y-82157857D01*
X163280715Y-82129286D01*
X160226429Y-82015000D02*
X160512143Y-82015000D01*
X160169286Y-82186429D02*
X160369286Y-81586429D01*
X160569286Y-82186429D01*
X161026429Y-81786429D02*
X161026429Y-82186429D01*
X160883572Y-81557857D02*
X160740715Y-81986429D01*
X161112143Y-81986429D01*
X177549285Y-106986429D02*
X177920714Y-106986429D01*
X177720714Y-107215000D01*
X177806428Y-107215000D01*
X177863571Y-107243571D01*
X177892142Y-107272143D01*
X177920714Y-107329286D01*
X177920714Y-107472143D01*
X177892142Y-107529286D01*
X177863571Y-107557857D01*
X177806428Y-107586429D01*
X177635000Y-107586429D01*
X177577857Y-107557857D01*
X177549285Y-107529286D01*
X178177857Y-107529286D02*
X178206429Y-107557857D01*
X178177857Y-107586429D01*
X178149286Y-107557857D01*
X178177857Y-107529286D01*
X178177857Y-107586429D01*
X178406428Y-106986429D02*
X178777857Y-106986429D01*
X178577857Y-107215000D01*
X178663571Y-107215000D01*
X178720714Y-107243571D01*
X178749285Y-107272143D01*
X178777857Y-107329286D01*
X178777857Y-107472143D01*
X178749285Y-107529286D01*
X178720714Y-107557857D01*
X178663571Y-107586429D01*
X178492143Y-107586429D01*
X178435000Y-107557857D01*
X178406428Y-107529286D01*
X178949286Y-106986429D02*
X179149286Y-107586429D01*
X179349286Y-106986429D01*
X179960714Y-107357857D02*
X180417857Y-107357857D01*
X180189286Y-107586429D02*
X180189286Y-107129286D01*
X180903571Y-107272143D02*
X180989285Y-107300714D01*
X181017857Y-107329286D01*
X181046428Y-107386429D01*
X181046428Y-107472143D01*
X181017857Y-107529286D01*
X180989285Y-107557857D01*
X180932143Y-107586429D01*
X180703571Y-107586429D01*
X180703571Y-106986429D01*
X180903571Y-106986429D01*
X180960714Y-107015000D01*
X180989285Y-107043571D01*
X181017857Y-107100714D01*
X181017857Y-107157857D01*
X180989285Y-107215000D01*
X180960714Y-107243571D01*
X180903571Y-107272143D01*
X180703571Y-107272143D01*
X181275000Y-107415000D02*
X181560714Y-107415000D01*
X181217857Y-107586429D02*
X181417857Y-106986429D01*
X181617857Y-107586429D01*
X181732143Y-106986429D02*
X182075000Y-106986429D01*
X181903571Y-107586429D02*
X181903571Y-106986429D01*
X170372143Y-107586429D02*
X170372143Y-106986429D01*
X170515000Y-106986429D01*
X170600715Y-107015000D01*
X170657857Y-107072143D01*
X170686429Y-107129286D01*
X170715000Y-107243571D01*
X170715000Y-107329286D01*
X170686429Y-107443571D01*
X170657857Y-107500714D01*
X170600715Y-107557857D01*
X170515000Y-107586429D01*
X170372143Y-107586429D01*
X171229286Y-106986429D02*
X171115000Y-106986429D01*
X171057857Y-107015000D01*
X171029286Y-107043571D01*
X170972143Y-107129286D01*
X170943572Y-107243571D01*
X170943572Y-107472143D01*
X170972143Y-107529286D01*
X171000715Y-107557857D01*
X171057857Y-107586429D01*
X171172143Y-107586429D01*
X171229286Y-107557857D01*
X171257857Y-107529286D01*
X171286429Y-107472143D01*
X171286429Y-107329286D01*
X171257857Y-107272143D01*
X171229286Y-107243571D01*
X171172143Y-107215000D01*
X171057857Y-107215000D01*
X171000715Y-107243571D01*
X170972143Y-107272143D01*
X170943572Y-107329286D01*
X172912143Y-107586429D02*
X172912143Y-106986429D01*
X173055000Y-106986429D01*
X173140715Y-107015000D01*
X173197857Y-107072143D01*
X173226429Y-107129286D01*
X173255000Y-107243571D01*
X173255000Y-107329286D01*
X173226429Y-107443571D01*
X173197857Y-107500714D01*
X173140715Y-107557857D01*
X173055000Y-107586429D01*
X172912143Y-107586429D01*
X173797857Y-106986429D02*
X173512143Y-106986429D01*
X173483572Y-107272143D01*
X173512143Y-107243571D01*
X173569286Y-107215000D01*
X173712143Y-107215000D01*
X173769286Y-107243571D01*
X173797857Y-107272143D01*
X173826429Y-107329286D01*
X173826429Y-107472143D01*
X173797857Y-107529286D01*
X173769286Y-107557857D01*
X173712143Y-107586429D01*
X173569286Y-107586429D01*
X173512143Y-107557857D01*
X173483572Y-107529286D01*
X180532143Y-82186429D02*
X180532143Y-81586429D01*
X180675000Y-81586429D01*
X180760715Y-81615000D01*
X180817857Y-81672143D01*
X180846429Y-81729286D01*
X180875000Y-81843571D01*
X180875000Y-81929286D01*
X180846429Y-82043571D01*
X180817857Y-82100714D01*
X180760715Y-82157857D01*
X180675000Y-82186429D01*
X180532143Y-82186429D01*
X181389286Y-81786429D02*
X181389286Y-82186429D01*
X181246429Y-81557857D02*
X181103572Y-81986429D01*
X181475000Y-81986429D01*
X177992143Y-82186429D02*
X177992143Y-81586429D01*
X178135000Y-81586429D01*
X178220715Y-81615000D01*
X178277857Y-81672143D01*
X178306429Y-81729286D01*
X178335000Y-81843571D01*
X178335000Y-81929286D01*
X178306429Y-82043571D01*
X178277857Y-82100714D01*
X178220715Y-82157857D01*
X178135000Y-82186429D01*
X177992143Y-82186429D01*
X178535000Y-81586429D02*
X178906429Y-81586429D01*
X178706429Y-81815000D01*
X178792143Y-81815000D01*
X178849286Y-81843571D01*
X178877857Y-81872143D01*
X178906429Y-81929286D01*
X178906429Y-82072143D01*
X178877857Y-82129286D01*
X178849286Y-82157857D01*
X178792143Y-82186429D01*
X178620715Y-82186429D01*
X178563572Y-82157857D01*
X178535000Y-82129286D01*
D12*
X165770000Y-84805000D02*
X165770000Y-84105000D01*
X166970000Y-84105000D02*
X166970000Y-84805000D01*
X170145000Y-84105000D02*
X170145000Y-84805000D01*
X168945000Y-84805000D02*
X168945000Y-84105000D01*
X170145000Y-103155000D02*
X170145000Y-103855000D01*
X168945000Y-103855000D02*
X168945000Y-103155000D01*
X156245000Y-84805000D02*
X156245000Y-84105000D01*
X157445000Y-84105000D02*
X157445000Y-84805000D01*
X162595000Y-84805000D02*
X162595000Y-84105000D01*
X163795000Y-84105000D02*
X163795000Y-84805000D01*
X184185000Y-96870000D02*
X184185000Y-96170000D01*
X185385000Y-96170000D02*
X185385000Y-96870000D01*
X151025000Y-80500000D02*
X146325000Y-80500000D01*
X146325000Y-80500000D02*
X146325000Y-86600000D01*
X146325000Y-86600000D02*
X151025000Y-86600000D01*
X151025000Y-86600000D02*
X151025000Y-80500000D01*
X151025000Y-83050000D02*
X150425000Y-83050000D01*
X150425000Y-83050000D02*
X150425000Y-81100000D01*
X150425000Y-81100000D02*
X146925000Y-81100000D01*
X146925000Y-81100000D02*
X146925000Y-86000000D01*
X146925000Y-86000000D02*
X150425000Y-86000000D01*
X150425000Y-86000000D02*
X150425000Y-84050000D01*
X150425000Y-84050000D02*
X151025000Y-84050000D01*
X149725000Y-80500000D02*
X149725000Y-81100000D01*
X148425000Y-80500000D02*
X148425000Y-81100000D01*
X149725000Y-86600000D02*
X149725000Y-86000000D01*
X148425000Y-86600000D02*
X148425000Y-86000000D01*
X151025000Y-82250000D02*
X151225000Y-82250000D01*
X151225000Y-82250000D02*
X151225000Y-81950000D01*
X151225000Y-81950000D02*
X151025000Y-81950000D01*
X151125000Y-82250000D02*
X151125000Y-81950000D01*
X146925000Y-83450000D02*
X147425000Y-83450000D01*
X147425000Y-83450000D02*
X147425000Y-83650000D01*
X147425000Y-83650000D02*
X146925000Y-83650000D01*
X146925000Y-83550000D02*
X147425000Y-83550000D01*
X151325000Y-81450000D02*
X151325000Y-80200000D01*
X151325000Y-80200000D02*
X150075000Y-80200000D01*
X181565000Y-97020000D02*
X181565000Y-96020000D01*
X182925000Y-96020000D02*
X182925000Y-97020000D01*
X177845000Y-103005000D02*
X177845000Y-104005000D01*
X176485000Y-104005000D02*
X176485000Y-103005000D01*
X181020000Y-83955000D02*
X181020000Y-84955000D01*
X179660000Y-84955000D02*
X179660000Y-83955000D01*
X177845000Y-83955000D02*
X177845000Y-84955000D01*
X176485000Y-84955000D02*
X176485000Y-83955000D01*
X154350000Y-83955000D02*
X154350000Y-84955000D01*
X152990000Y-84955000D02*
X152990000Y-83955000D01*
X181565000Y-91305000D02*
X181565000Y-90305000D01*
X182925000Y-90305000D02*
X182925000Y-91305000D01*
X159340000Y-84955000D02*
X159340000Y-83955000D01*
X160700000Y-83955000D02*
X160700000Y-84955000D01*
X162515000Y-90035000D02*
X162515000Y-89035000D01*
X163875000Y-89035000D02*
X163875000Y-90035000D01*
D13*
X185559700Y-109451140D02*
X184660540Y-109451140D01*
X184660540Y-109451140D02*
X184660540Y-110149640D01*
X184660540Y-110149640D02*
X186260740Y-110149640D01*
X186260740Y-105750360D02*
X184660540Y-105750360D01*
X184660540Y-105750360D02*
X184660540Y-106448860D01*
X184660540Y-106448860D02*
X185559700Y-106448860D01*
X191259460Y-106448860D02*
X191259460Y-105750360D01*
X191259460Y-105750360D02*
X189659260Y-105750360D01*
X191259460Y-106448860D02*
X190360300Y-106448860D01*
X189659260Y-110149640D02*
X191259460Y-110149640D01*
X191259460Y-110149640D02*
X191259460Y-109451140D01*
X191259460Y-109451140D02*
X190360300Y-109451140D01*
X189958980Y-106949240D02*
X188960760Y-105951020D01*
X188960760Y-105951020D02*
X186959240Y-105951020D01*
X186959240Y-105951020D02*
X185961020Y-106949240D01*
X185961020Y-106949240D02*
X185961020Y-108950760D01*
X185961020Y-108950760D02*
X186959240Y-109948980D01*
X186959240Y-109948980D02*
X188960760Y-109948980D01*
X188960760Y-109948980D02*
X189958980Y-108950760D01*
X189958980Y-108950760D02*
X189958980Y-106949240D01*
X189260480Y-105349040D02*
X186659520Y-105349040D01*
X190560960Y-109250480D02*
X190560960Y-106649520D01*
X186659520Y-105349040D02*
X185359040Y-106649520D01*
X185359040Y-106649520D02*
X185359040Y-109250480D01*
X185359040Y-109250480D02*
X186659520Y-110550960D01*
X186659520Y-110550960D02*
X189260480Y-110550960D01*
X190560960Y-106649520D02*
X189260480Y-105349040D01*
X189260480Y-110550960D02*
X190560960Y-109250480D01*
X188960760Y-107950000D02*
G75*
G03X188960760Y-107950000I-1000760J0D01*
G01*
D14*
X171000000Y-98240000D02*
X171225000Y-98240000D01*
X171000000Y-90990000D02*
X171325000Y-90990000D01*
X178250000Y-90990000D02*
X177925000Y-90990000D01*
X178250000Y-98240000D02*
X177925000Y-98240000D01*
X171000000Y-98240000D02*
X171000000Y-97915000D01*
X178250000Y-98240000D02*
X178250000Y-97915000D01*
X178250000Y-90990000D02*
X178250000Y-91315000D01*
X171000000Y-90990000D02*
X171000000Y-91315000D01*
X171225000Y-98240000D02*
X171225000Y-99665000D01*
D12*
X173855000Y-83505000D02*
X174905000Y-83505000D01*
X174905000Y-83505000D02*
X174905000Y-85355000D01*
X171855000Y-83505000D02*
X172855000Y-83505000D01*
X171845000Y-83525000D02*
X171845000Y-85955000D01*
D15*
X172705000Y-101805000D02*
X172705000Y-101705000D01*
X172705000Y-101705000D02*
X174005000Y-101705000D01*
X174005000Y-101705000D02*
X174005000Y-101805000D01*
X174005000Y-105205000D02*
X174005000Y-105355000D01*
X174005000Y-105355000D02*
X172705000Y-105355000D01*
X172705000Y-105355000D02*
X172705000Y-105205000D01*
D16*
X172705000Y-104305000D02*
X172705000Y-103905000D01*
X172705000Y-103105000D02*
X172705000Y-102705000D01*
X174005000Y-104305000D02*
X174005000Y-103905000D01*
X174005000Y-103105000D02*
X174005000Y-102705000D01*
X174755000Y-104905000D02*
G75*
G03X174755000Y-104905000I-200000J0D01*
G01*
D12*
X160620000Y-89185000D02*
X160620000Y-89885000D01*
X159420000Y-89885000D02*
X159420000Y-89185000D01*
X160385000Y-93000000D02*
X158385000Y-93000000D01*
X158385000Y-93000000D02*
X158385000Y-96900000D01*
X160385000Y-93000000D02*
X160385000Y-96900000D01*
X164195000Y-93000000D02*
X162195000Y-93000000D01*
X162195000Y-93000000D02*
X162195000Y-96900000D01*
X164195000Y-93000000D02*
X164195000Y-96900000D01*
X153140000Y-92160000D02*
X153140000Y-93260000D01*
X153140000Y-93260000D02*
X155740000Y-93260000D01*
X153140000Y-92160000D02*
X155740000Y-92160000D01*
X150605000Y-87540000D02*
X150605000Y-87990000D01*
X148755000Y-87540000D02*
X150605000Y-87540000D01*
X146205000Y-95340000D02*
X146455000Y-95340000D01*
X146205000Y-87540000D02*
X146455000Y-87540000D01*
X148755000Y-95340000D02*
X150605000Y-95340000D01*
X150605000Y-95340000D02*
X150605000Y-94890000D01*
X151155000Y-89740000D02*
X151155000Y-90190000D01*
X151155000Y-89740000D02*
X150705000Y-89740000D01*
X146625000Y-109280000D02*
X149285000Y-109280000D01*
X146625000Y-99060000D02*
X146625000Y-109280000D01*
X149285000Y-99060000D02*
X149285000Y-109280000D01*
X146625000Y-99060000D02*
X149285000Y-99060000D01*
X146625000Y-97790000D02*
X146625000Y-96460000D01*
X146625000Y-96460000D02*
X147955000Y-96460000D01*
X165690000Y-95750000D02*
X165690000Y-94750000D01*
X167050000Y-94750000D02*
X167050000Y-95750000D01*
X167050000Y-89035000D02*
X167050000Y-90035000D01*
X165690000Y-90035000D02*
X165690000Y-89035000D01*
X182305000Y-81340000D02*
X182305000Y-78680000D01*
X154305000Y-81340000D02*
X182305000Y-81340000D01*
X154305000Y-78680000D02*
X182305000Y-78680000D01*
X154305000Y-81340000D02*
X154305000Y-78680000D01*
X153035000Y-81340000D02*
X151705000Y-81340000D01*
X151705000Y-81340000D02*
X151705000Y-80010000D01*
X151705000Y-107890000D02*
X151705000Y-110550000D01*
X179705000Y-107890000D02*
X151705000Y-107890000D01*
X179705000Y-110550000D02*
X151705000Y-110550000D01*
X179705000Y-107890000D02*
X179705000Y-110550000D01*
X180975000Y-107890000D02*
X182305000Y-107890000D01*
X182305000Y-107890000D02*
X182305000Y-109220000D01*
D17*
G36*
X192294874Y-83810055D02*
X192294780Y-83901325D01*
X192294581Y-83978284D01*
X192294240Y-84042242D01*
X192293716Y-84094511D01*
X192292973Y-84136401D01*
X192291972Y-84169224D01*
X192290675Y-84194291D01*
X192289043Y-84212912D01*
X192287038Y-84226399D01*
X192284621Y-84236062D01*
X192281755Y-84243213D01*
X192278970Y-84248242D01*
X192253360Y-84275972D01*
X192220607Y-84290062D01*
X192184557Y-84288969D01*
X192180338Y-84287789D01*
X192164051Y-84280767D01*
X192135909Y-84266474D01*
X192098215Y-84246244D01*
X192053275Y-84221410D01*
X192003394Y-84193305D01*
X191950876Y-84163261D01*
X191898027Y-84132612D01*
X191847152Y-84102691D01*
X191800555Y-84074830D01*
X191760542Y-84050362D01*
X191729417Y-84030621D01*
X191709485Y-84016939D01*
X191703963Y-84012306D01*
X191697887Y-84004936D01*
X191693202Y-83995884D01*
X191689633Y-83982821D01*
X191686904Y-83963415D01*
X191684739Y-83935336D01*
X191682862Y-83896254D01*
X191680996Y-83843837D01*
X191679892Y-83809015D01*
X191678078Y-83755299D01*
X191676196Y-83707776D01*
X191674365Y-83668879D01*
X191672704Y-83641038D01*
X191671334Y-83626687D01*
X191670879Y-83625267D01*
X191662795Y-83629277D01*
X191642651Y-83640342D01*
X191613032Y-83657012D01*
X191576523Y-83677838D01*
X191553846Y-83690883D01*
X191440116Y-83756500D01*
X191439800Y-84146814D01*
X191631614Y-84256127D01*
X191684451Y-84286619D01*
X191733270Y-84315512D01*
X191775851Y-84341435D01*
X191809973Y-84363016D01*
X191833414Y-84378883D01*
X191843281Y-84386850D01*
X191863133Y-84408260D01*
X191863133Y-85476145D01*
X191835213Y-85503206D01*
X191821387Y-85515806D01*
X191808113Y-85524833D01*
X191793731Y-85529741D01*
X191776583Y-85529984D01*
X191755008Y-85525015D01*
X191727346Y-85514289D01*
X191691939Y-85497259D01*
X191647128Y-85473378D01*
X191591251Y-85442102D01*
X191522651Y-85402883D01*
X191512266Y-85396917D01*
X191440727Y-85355480D01*
X191383021Y-85321294D01*
X191338034Y-85293646D01*
X191304657Y-85271824D01*
X191281778Y-85255115D01*
X191268284Y-85242805D01*
X191264765Y-85238167D01*
X191259390Y-85227296D01*
X191255229Y-85212977D01*
X191252045Y-85192779D01*
X191249599Y-85164271D01*
X191247652Y-85125023D01*
X191245965Y-85072603D01*
X191245066Y-85037450D01*
X191240833Y-84862132D01*
X191124417Y-84930318D01*
X191008000Y-84998504D01*
X191006923Y-85152202D01*
X191006239Y-85210142D01*
X191005051Y-85270283D01*
X191003496Y-85327317D01*
X191001709Y-85375938D01*
X191000573Y-85399033D01*
X190995300Y-85492167D01*
X190948733Y-85522919D01*
X190928494Y-85535723D01*
X190896213Y-85555461D01*
X190854497Y-85580571D01*
X190805952Y-85609489D01*
X190753186Y-85640655D01*
X190712116Y-85664736D01*
X190652585Y-85699327D01*
X190605584Y-85726080D01*
X190569169Y-85745950D01*
X190541399Y-85759891D01*
X190520332Y-85768858D01*
X190504026Y-85773805D01*
X190490539Y-85775688D01*
X190486200Y-85775800D01*
X190477328Y-85775035D01*
X190466218Y-85772323D01*
X190451709Y-85767046D01*
X190432640Y-85758581D01*
X190407851Y-85746307D01*
X190376181Y-85729602D01*
X190336470Y-85707847D01*
X190287558Y-85680420D01*
X190228283Y-85646699D01*
X190157486Y-85606064D01*
X190074005Y-85557893D01*
X190011617Y-85521799D01*
X189929323Y-85473951D01*
X189851941Y-85428564D01*
X189780729Y-85386399D01*
X189716945Y-85348220D01*
X189661845Y-85314787D01*
X189616688Y-85286862D01*
X189582732Y-85265207D01*
X189561233Y-85250585D01*
X189553892Y-85244515D01*
X189538092Y-85212645D01*
X189536309Y-85176289D01*
X189548658Y-85141120D01*
X189559071Y-85130173D01*
X189580977Y-85113632D01*
X189615089Y-85091042D01*
X189662118Y-85061949D01*
X189722776Y-85025900D01*
X189792800Y-84985297D01*
X189859241Y-84947278D01*
X189912817Y-84917077D01*
X189955210Y-84893855D01*
X189988105Y-84876768D01*
X190013187Y-84864974D01*
X190032140Y-84857633D01*
X190046648Y-84853902D01*
X190057608Y-84852934D01*
X190073666Y-84854515D01*
X190092719Y-84860029D01*
X190117310Y-84870631D01*
X190149983Y-84887477D01*
X190193278Y-84911723D01*
X190216675Y-84925221D01*
X190259787Y-84950156D01*
X190299459Y-84972935D01*
X190332660Y-84991832D01*
X190356356Y-85005117D01*
X190365575Y-85010105D01*
X190389933Y-85022702D01*
X190389671Y-84747100D01*
X190197185Y-84637034D01*
X190144343Y-84606465D01*
X190095562Y-84577580D01*
X190053044Y-84551734D01*
X190018988Y-84530283D01*
X189995595Y-84514584D01*
X189985650Y-84506681D01*
X189980506Y-84500894D01*
X189976385Y-84494455D01*
X189973176Y-84485555D01*
X189970769Y-84472388D01*
X189969052Y-84453145D01*
X189967915Y-84426020D01*
X189967247Y-84389205D01*
X189966936Y-84340892D01*
X189966871Y-84279276D01*
X189966943Y-84202547D01*
X189966944Y-84201881D01*
X189967288Y-83917367D01*
X189990227Y-83891362D01*
X190004579Y-83879286D01*
X190031120Y-83860938D01*
X190067616Y-83837588D01*
X190111833Y-83810505D01*
X190161538Y-83780960D01*
X190214496Y-83750223D01*
X190268473Y-83719564D01*
X190321236Y-83690253D01*
X190370550Y-83663560D01*
X190414182Y-83640754D01*
X190449899Y-83623107D01*
X190475464Y-83611887D01*
X190488069Y-83608333D01*
X190514234Y-83615049D01*
X190543434Y-83633368D01*
X190544637Y-83634350D01*
X190576200Y-83660366D01*
X190577119Y-83856600D01*
X190577622Y-83915847D01*
X190578521Y-83972357D01*
X190579730Y-84022931D01*
X190581168Y-84064369D01*
X190582752Y-84093473D01*
X190583469Y-84101508D01*
X190588900Y-84150182D01*
X190705317Y-84217079D01*
X190821733Y-84283975D01*
X190821733Y-83509953D01*
X190655207Y-83414501D01*
X190600621Y-83383398D01*
X190558649Y-83360036D01*
X190527342Y-83343509D01*
X190504754Y-83332912D01*
X190488937Y-83327340D01*
X190477945Y-83325888D01*
X190469830Y-83327651D01*
X190469088Y-83327975D01*
X190456517Y-83334611D01*
X190431584Y-83348522D01*
X190396541Y-83368425D01*
X190353638Y-83393036D01*
X190305124Y-83421073D01*
X190267427Y-83442984D01*
X190202704Y-83480225D01*
X190151091Y-83508830D01*
X190111480Y-83529361D01*
X190082762Y-83542382D01*
X190063831Y-83548452D01*
X190058268Y-83549067D01*
X190047205Y-83547742D01*
X190032421Y-83543294D01*
X190012592Y-83535016D01*
X189986389Y-83522198D01*
X189952488Y-83504131D01*
X189909561Y-83480108D01*
X189856282Y-83449419D01*
X189791325Y-83411356D01*
X189713363Y-83365210D01*
X189706496Y-83361130D01*
X189660052Y-83333028D01*
X189618372Y-83306845D01*
X189583760Y-83284106D01*
X189558519Y-83266337D01*
X189544953Y-83255064D01*
X189543512Y-83253193D01*
X189536064Y-83225518D01*
X189536918Y-83192208D01*
X189545746Y-83162195D01*
X189546952Y-83159903D01*
X189558713Y-83148321D01*
X189585009Y-83129381D01*
X189625300Y-83103430D01*
X189679040Y-83070815D01*
X189745689Y-83031882D01*
X189760435Y-83023417D01*
X189962366Y-82907795D01*
X189964690Y-82766520D01*
X189967014Y-82625244D01*
X189930823Y-82646435D01*
X189915651Y-82655260D01*
X189887603Y-82671513D01*
X189848467Y-82694162D01*
X189800033Y-82722170D01*
X189744091Y-82754504D01*
X189682430Y-82790128D01*
X189616840Y-82828009D01*
X189594066Y-82841158D01*
X189293500Y-83014689D01*
X189291381Y-83207795D01*
X189289262Y-83400900D01*
X189488918Y-83514858D01*
X189549704Y-83550063D01*
X189602706Y-83581781D01*
X189646363Y-83609023D01*
X189679116Y-83630801D01*
X189699406Y-83646127D01*
X189704820Y-83651631D01*
X189708151Y-83656886D01*
X189710993Y-83663438D01*
X189713385Y-83672585D01*
X189715366Y-83685626D01*
X189716974Y-83703861D01*
X189718249Y-83728588D01*
X189719227Y-83761106D01*
X189719950Y-83802714D01*
X189720454Y-83854709D01*
X189720779Y-83918392D01*
X189720964Y-83995061D01*
X189721047Y-84086015D01*
X189721066Y-84192552D01*
X189721066Y-84197074D01*
X189721050Y-84304214D01*
X189720975Y-84395730D01*
X189720801Y-84472932D01*
X189720489Y-84537131D01*
X189719999Y-84589636D01*
X189719290Y-84631757D01*
X189718323Y-84664804D01*
X189717059Y-84690087D01*
X189715457Y-84708916D01*
X189713478Y-84722600D01*
X189711082Y-84732450D01*
X189708229Y-84739776D01*
X189704879Y-84745887D01*
X189704364Y-84746726D01*
X189680947Y-84771025D01*
X189649935Y-84785418D01*
X189617353Y-84787638D01*
X189604453Y-84784321D01*
X189589304Y-84777118D01*
X189562208Y-84762786D01*
X189525452Y-84742639D01*
X189481322Y-84717992D01*
X189432107Y-84690162D01*
X189380092Y-84660463D01*
X189327565Y-84630211D01*
X189276813Y-84600722D01*
X189230123Y-84573310D01*
X189189782Y-84549291D01*
X189158077Y-84529981D01*
X189137294Y-84516695D01*
X189130517Y-84511726D01*
X189124345Y-84505585D01*
X189119675Y-84498383D01*
X189116296Y-84487856D01*
X189114001Y-84471740D01*
X189112579Y-84447772D01*
X189111822Y-84413686D01*
X189111521Y-84367220D01*
X189111467Y-84306109D01*
X189111467Y-84305358D01*
X189111196Y-84250860D01*
X189110437Y-84202553D01*
X189109270Y-84162828D01*
X189107777Y-84134078D01*
X189106037Y-84118693D01*
X189105117Y-84116759D01*
X189095962Y-84120951D01*
X189074859Y-84132238D01*
X189044465Y-84149152D01*
X189007438Y-84170221D01*
X188984467Y-84183479D01*
X188870167Y-84249774D01*
X188864946Y-84447637D01*
X188863387Y-84506828D01*
X188861913Y-84563023D01*
X188860603Y-84613108D01*
X188859541Y-84653967D01*
X188858806Y-84682488D01*
X188858596Y-84690787D01*
X188856403Y-84719792D01*
X188849732Y-84739201D01*
X188835732Y-84756273D01*
X188831171Y-84760637D01*
X188798951Y-84780598D01*
X188764050Y-84785647D01*
X188730270Y-84776513D01*
X188701416Y-84753926D01*
X188687454Y-84733069D01*
X188680790Y-84717817D01*
X188676329Y-84700643D01*
X188673740Y-84678097D01*
X188672689Y-84646731D01*
X188672843Y-84603095D01*
X188673118Y-84584454D01*
X188673926Y-84534920D01*
X188674905Y-84474450D01*
X188675957Y-84409042D01*
X188676986Y-84344692D01*
X188677533Y-84310255D01*
X188678507Y-84254825D01*
X188679619Y-84213801D01*
X188681178Y-84184657D01*
X188683495Y-84164868D01*
X188686878Y-84151907D01*
X188691635Y-84143248D01*
X188698077Y-84136365D01*
X188698899Y-84135611D01*
X188710843Y-84127128D01*
X188735495Y-84111461D01*
X188770853Y-84089816D01*
X188814916Y-84063402D01*
X188865682Y-84033425D01*
X188921151Y-84001092D01*
X188939692Y-83990373D01*
X189003475Y-83953688D01*
X189054498Y-83924704D01*
X189094591Y-83902528D01*
X189125584Y-83886266D01*
X189149309Y-83875025D01*
X189167596Y-83867913D01*
X189182276Y-83864037D01*
X189195178Y-83862503D01*
X189202159Y-83862334D01*
X189228666Y-83863855D01*
X189246039Y-83870764D01*
X189261976Y-83886580D01*
X189265983Y-83891515D01*
X189289267Y-83920695D01*
X189289269Y-84156098D01*
X189289271Y-84391500D01*
X189367585Y-84435846D01*
X189406033Y-84457668D01*
X189444497Y-84479584D01*
X189477166Y-84498279D01*
X189490350Y-84505867D01*
X189534800Y-84531543D01*
X189534761Y-84144021D01*
X189534723Y-83756500D01*
X189354845Y-83655672D01*
X189302638Y-83625907D01*
X189253666Y-83597051D01*
X189210459Y-83570667D01*
X189175543Y-83548318D01*
X189151447Y-83531567D01*
X189143217Y-83524837D01*
X189111467Y-83494830D01*
X189111736Y-83206565D01*
X189111930Y-83125968D01*
X189112390Y-83060711D01*
X189113178Y-83009202D01*
X189114358Y-82969849D01*
X189115994Y-82941060D01*
X189118148Y-82921244D01*
X189120883Y-82908808D01*
X189123819Y-82902709D01*
X189133108Y-82895781D01*
X189155784Y-82881219D01*
X189190540Y-82859801D01*
X189236069Y-82832306D01*
X189291064Y-82799513D01*
X189354217Y-82762203D01*
X189424222Y-82721155D01*
X189499770Y-82677147D01*
X189579555Y-82630959D01*
X189581809Y-82629659D01*
X189677426Y-82574497D01*
X189759528Y-82527265D01*
X189829277Y-82487448D01*
X189887836Y-82454535D01*
X189936369Y-82428010D01*
X189976038Y-82407361D01*
X190008007Y-82392075D01*
X190033437Y-82381638D01*
X190053493Y-82375536D01*
X190069337Y-82373256D01*
X190082132Y-82374286D01*
X190093041Y-82378111D01*
X190103227Y-82384217D01*
X190113852Y-82392093D01*
X190116084Y-82393798D01*
X190144400Y-82415395D01*
X190144400Y-82705923D01*
X190144354Y-82784003D01*
X190144154Y-82846940D01*
X190143706Y-82896524D01*
X190142915Y-82934546D01*
X190141687Y-82962796D01*
X190139929Y-82983064D01*
X190137547Y-82997140D01*
X190134446Y-83006815D01*
X190130532Y-83013880D01*
X190128042Y-83017245D01*
X190115576Y-83028117D01*
X190091052Y-83045485D01*
X190057186Y-83067569D01*
X190016694Y-83092592D01*
X189977759Y-83115620D01*
X189934283Y-83140851D01*
X189895417Y-83163495D01*
X189863726Y-83182050D01*
X189841774Y-83195016D01*
X189832392Y-83200713D01*
X189832143Y-83206796D01*
X189843278Y-83217923D01*
X189866569Y-83234609D01*
X189902785Y-83257367D01*
X189952698Y-83286713D01*
X190009241Y-83318774D01*
X190056116Y-83345040D01*
X190254775Y-83231333D01*
X190317725Y-83195565D01*
X190367918Y-83167718D01*
X190407079Y-83146941D01*
X190436935Y-83132381D01*
X190459211Y-83123188D01*
X190475633Y-83118510D01*
X190485652Y-83117446D01*
X190497211Y-83118755D01*
X190512523Y-83123337D01*
X190533175Y-83132001D01*
X190560756Y-83145558D01*
X190596853Y-83164817D01*
X190643052Y-83190589D01*
X190700940Y-83223683D01*
X190754273Y-83254546D01*
X190821100Y-83293516D01*
X190874633Y-83325171D01*
X190916344Y-83350486D01*
X190947707Y-83370434D01*
X190970192Y-83385990D01*
X190985272Y-83398128D01*
X190994420Y-83407821D01*
X190999107Y-83416044D01*
X190999337Y-83416676D01*
X191001299Y-83431014D01*
X191003026Y-83461771D01*
X191004509Y-83508437D01*
X191005742Y-83570499D01*
X191006716Y-83647445D01*
X191007422Y-83738764D01*
X191007853Y-83843943D01*
X191008000Y-83962471D01*
X191008000Y-84485699D01*
X190983921Y-84508767D01*
X190956789Y-84529076D01*
X190928313Y-84537313D01*
X190895406Y-84533464D01*
X190854979Y-84517511D01*
X190836431Y-84507964D01*
X190781005Y-84477621D01*
X190723063Y-84445108D01*
X190664567Y-84411603D01*
X190607481Y-84378282D01*
X190553766Y-84346324D01*
X190505385Y-84316906D01*
X190464301Y-84291206D01*
X190432478Y-84270402D01*
X190411877Y-84255671D01*
X190404722Y-84248928D01*
X190400330Y-84232241D01*
X190396545Y-84198806D01*
X190393382Y-84148800D01*
X190390852Y-84082397D01*
X190390012Y-84050941D01*
X190385700Y-83871248D01*
X190264893Y-83939758D01*
X190144087Y-84008269D01*
X190146360Y-84199885D01*
X190148633Y-84391500D01*
X190341851Y-84502360D01*
X190394818Y-84533087D01*
X190443775Y-84562123D01*
X190486520Y-84588112D01*
X190520851Y-84609697D01*
X190544564Y-84625522D01*
X190554888Y-84633594D01*
X190574708Y-84653967D01*
X190577571Y-84929133D01*
X190578253Y-85010171D01*
X190578414Y-85075857D01*
X190578011Y-85127767D01*
X190577001Y-85167477D01*
X190575341Y-85196560D01*
X190572989Y-85216593D01*
X190569902Y-85229151D01*
X190569379Y-85230473D01*
X190551824Y-85253879D01*
X190524047Y-85273006D01*
X190492760Y-85283724D01*
X190481193Y-85284734D01*
X190469130Y-85280642D01*
X190444621Y-85269124D01*
X190409828Y-85251310D01*
X190366916Y-85228335D01*
X190318048Y-85201329D01*
X190271930Y-85175186D01*
X190219755Y-85145371D01*
X190171877Y-85118210D01*
X190130422Y-85094893D01*
X190097514Y-85076611D01*
X190075280Y-85064554D01*
X190066236Y-85060038D01*
X190051765Y-85061978D01*
X190023682Y-85073683D01*
X189981927Y-85095180D01*
X189937119Y-85120321D01*
X189897968Y-85143163D01*
X189864630Y-85163195D01*
X189839596Y-85178874D01*
X189825360Y-85188656D01*
X189823033Y-85191019D01*
X189830149Y-85195935D01*
X189850154Y-85208205D01*
X189881234Y-85226777D01*
X189921577Y-85250603D01*
X189969369Y-85278633D01*
X190022798Y-85309817D01*
X190080051Y-85343106D01*
X190139314Y-85377449D01*
X190198774Y-85411797D01*
X190256620Y-85445101D01*
X190311037Y-85476310D01*
X190360213Y-85504376D01*
X190402334Y-85528247D01*
X190435588Y-85546875D01*
X190458162Y-85559210D01*
X190465436Y-85562964D01*
X190473629Y-85566338D01*
X190482352Y-85567449D01*
X190493641Y-85565394D01*
X190509528Y-85559267D01*
X190532050Y-85548162D01*
X190563240Y-85531176D01*
X190605133Y-85507402D01*
X190655391Y-85478461D01*
X190821733Y-85382426D01*
X190821768Y-85242563D01*
X190822159Y-85184313D01*
X190823210Y-85121344D01*
X190824773Y-85060224D01*
X190826701Y-85007519D01*
X190827323Y-84994445D01*
X190832844Y-84886190D01*
X190905605Y-84841304D01*
X190934924Y-84823503D01*
X190975536Y-84799247D01*
X191024061Y-84770534D01*
X191077119Y-84739361D01*
X191131331Y-84707726D01*
X191148640Y-84697676D01*
X191209175Y-84662861D01*
X191257238Y-84636262D01*
X191294842Y-84617322D01*
X191323997Y-84605483D01*
X191346716Y-84600188D01*
X191365010Y-84600878D01*
X191380890Y-84606996D01*
X191396369Y-84617985D01*
X191405933Y-84626350D01*
X191435566Y-84653270D01*
X191438530Y-84896076D01*
X191441493Y-85138883D01*
X191551976Y-85201225D01*
X191591148Y-85223249D01*
X191625201Y-85242246D01*
X191651362Y-85256680D01*
X191666859Y-85265017D01*
X191669663Y-85266389D01*
X191671140Y-85258794D01*
X191672514Y-85235933D01*
X191673756Y-85199470D01*
X191674832Y-85151071D01*
X191675713Y-85092403D01*
X191676366Y-85025132D01*
X191676759Y-84950923D01*
X191676867Y-84884872D01*
X191676867Y-84500532D01*
X191474305Y-84383052D01*
X191403929Y-84341732D01*
X191348183Y-84307868D01*
X191306635Y-84281178D01*
X191278852Y-84261383D01*
X191264402Y-84248199D01*
X191262451Y-84245176D01*
X191259160Y-84229663D01*
X191256140Y-84199850D01*
X191253436Y-84158366D01*
X191251094Y-84107843D01*
X191249158Y-84050911D01*
X191247676Y-83990202D01*
X191246692Y-83928346D01*
X191246252Y-83867974D01*
X191246402Y-83811717D01*
X191247187Y-83762205D01*
X191248652Y-83722070D01*
X191250845Y-83693942D01*
X191252708Y-83683248D01*
X191255653Y-83672429D01*
X191258745Y-83663256D01*
X191263429Y-83654709D01*
X191271156Y-83645763D01*
X191283372Y-83635396D01*
X191301525Y-83622586D01*
X191327063Y-83606310D01*
X191361435Y-83585545D01*
X191406087Y-83559269D01*
X191462468Y-83526459D01*
X191531080Y-83486642D01*
X191596589Y-83448804D01*
X191649389Y-83418945D01*
X191691301Y-83396340D01*
X191724142Y-83380266D01*
X191749732Y-83370000D01*
X191769888Y-83364816D01*
X191786430Y-83363991D01*
X191801175Y-83366803D01*
X191815943Y-83372525D01*
X191816803Y-83372915D01*
X191829705Y-83379650D01*
X191839967Y-83388055D01*
X191847890Y-83400005D01*
X191853774Y-83417378D01*
X191857921Y-83442049D01*
X191860629Y-83475895D01*
X191862200Y-83520791D01*
X191862934Y-83578615D01*
X191863131Y-83651241D01*
X191863133Y-83662274D01*
X191863133Y-83894856D01*
X191982560Y-83963261D01*
X192022876Y-83986239D01*
X192057806Y-84005930D01*
X192084824Y-84020927D01*
X192101401Y-84029822D01*
X192105412Y-84031667D01*
X192106066Y-84023480D01*
X192106586Y-84000040D01*
X192106964Y-83963024D01*
X192107197Y-83914111D01*
X192107278Y-83854981D01*
X192107203Y-83787312D01*
X192106966Y-83712784D01*
X192106635Y-83645709D01*
X192104433Y-83259750D01*
X191938737Y-83164338D01*
X191773041Y-83068925D01*
X191570992Y-83186080D01*
X191511034Y-83220760D01*
X191463784Y-83247764D01*
X191427348Y-83267987D01*
X191399833Y-83282325D01*
X191379344Y-83291673D01*
X191363985Y-83296926D01*
X191351863Y-83298981D01*
X191341083Y-83298733D01*
X191334522Y-83297859D01*
X191317059Y-83291931D01*
X191286060Y-83277452D01*
X191241378Y-83254340D01*
X191182863Y-83222515D01*
X191110365Y-83181898D01*
X191023737Y-83132409D01*
X190978367Y-83106216D01*
X190868266Y-83042423D01*
X190772118Y-82986600D01*
X190689179Y-82938308D01*
X190618704Y-82897105D01*
X190559949Y-82862553D01*
X190512169Y-82834211D01*
X190474621Y-82811639D01*
X190446559Y-82794396D01*
X190427241Y-82782044D01*
X190415920Y-82774142D01*
X190413833Y-82772453D01*
X190399205Y-82749931D01*
X190393081Y-82719243D01*
X190396102Y-82687218D01*
X190403998Y-82667670D01*
X190416197Y-82655441D01*
X190441137Y-82636698D01*
X190476572Y-82612740D01*
X190520257Y-82584867D01*
X190569944Y-82554380D01*
X190623388Y-82522578D01*
X190678343Y-82490761D01*
X190732562Y-82460230D01*
X190783800Y-82432284D01*
X190829810Y-82408223D01*
X190868347Y-82389347D01*
X190897163Y-82376957D01*
X190914013Y-82372352D01*
X190914264Y-82372348D01*
X190929725Y-82374888D01*
X190952248Y-82383188D01*
X190983549Y-82398074D01*
X191025346Y-82420373D01*
X191079353Y-82450913D01*
X191089671Y-82456867D01*
X191134528Y-82482683D01*
X191174301Y-82505324D01*
X191206705Y-82523511D01*
X191229455Y-82535962D01*
X191240266Y-82541399D01*
X191240766Y-82541534D01*
X191242215Y-82533539D01*
X191243198Y-82511430D01*
X191243666Y-82478024D01*
X191243570Y-82436135D01*
X191243160Y-82404379D01*
X191240833Y-82267225D01*
X191057037Y-82160962D01*
X191004959Y-82130459D01*
X190956491Y-82101330D01*
X190913996Y-82075053D01*
X190879835Y-82053106D01*
X190856371Y-82036966D01*
X190847487Y-82029833D01*
X190826642Y-81999304D01*
X190821854Y-81964204D01*
X190833272Y-81925770D01*
X190834521Y-81923297D01*
X190852462Y-81898714D01*
X190877114Y-81885405D01*
X190912755Y-81881150D01*
X190915738Y-81881134D01*
X190928039Y-81882149D01*
X190942654Y-81885781D01*
X190961369Y-81892914D01*
X190985970Y-81904428D01*
X191018245Y-81921205D01*
X191059981Y-81944128D01*
X191112963Y-81974077D01*
X191168178Y-82005718D01*
X191224780Y-82038720D01*
X191277856Y-82070503D01*
X191325246Y-82099709D01*
X191364786Y-82124976D01*
X191394316Y-82144947D01*
X191411673Y-82158260D01*
X191413491Y-82160002D01*
X191442215Y-82189700D01*
X191433419Y-82756508D01*
X191406842Y-82780254D01*
X191391465Y-82792806D01*
X191376420Y-82801234D01*
X191359899Y-82804974D01*
X191340096Y-82803463D01*
X191315203Y-82796137D01*
X191283413Y-82782433D01*
X191242917Y-82761788D01*
X191191910Y-82733638D01*
X191128584Y-82697419D01*
X191113856Y-82688911D01*
X190914813Y-82573823D01*
X190874623Y-82596953D01*
X190849811Y-82611292D01*
X190815734Y-82631062D01*
X190777747Y-82653154D01*
X190755115Y-82666342D01*
X190675797Y-82712600D01*
X190750882Y-82756443D01*
X190776493Y-82771325D01*
X190814414Y-82793259D01*
X190862264Y-82820873D01*
X190917663Y-82852796D01*
X190978232Y-82887656D01*
X191041589Y-82924081D01*
X191082373Y-82947507D01*
X191338780Y-83094726D01*
X191370240Y-83079749D01*
X191387415Y-83070855D01*
X191416337Y-83055091D01*
X191454100Y-83034072D01*
X191497798Y-83009419D01*
X191544526Y-82982746D01*
X191545633Y-82982111D01*
X191606782Y-82947040D01*
X191655099Y-82919581D01*
X191692429Y-82898894D01*
X191720615Y-82884141D01*
X191741501Y-82874483D01*
X191756930Y-82869082D01*
X191768746Y-82867099D01*
X191778792Y-82867696D01*
X191788913Y-82870034D01*
X191790865Y-82870570D01*
X191805284Y-82876713D01*
X191832251Y-82890276D01*
X191869692Y-82910137D01*
X191915534Y-82935173D01*
X191967706Y-82964260D01*
X192024135Y-82996276D01*
X192045386Y-83008472D01*
X192116354Y-83049675D01*
X192173359Y-83083583D01*
X192217396Y-83110838D01*
X192249461Y-83132078D01*
X192270549Y-83147945D01*
X192281655Y-83159078D01*
X192283041Y-83161296D01*
X192285555Y-83168589D01*
X192287703Y-83180866D01*
X192289511Y-83199334D01*
X192291005Y-83225200D01*
X192292212Y-83259670D01*
X192293158Y-83303951D01*
X192293869Y-83359250D01*
X192294373Y-83426773D01*
X192294695Y-83507726D01*
X192294862Y-83603317D01*
X192294902Y-83703163D01*
X192294874Y-83810055D01*
X192294874Y-83810055D01*
G37*
X192294874Y-83810055D02*
X192294780Y-83901325D01*
X192294581Y-83978284D01*
X192294240Y-84042242D01*
X192293716Y-84094511D01*
X192292973Y-84136401D01*
X192291972Y-84169224D01*
X192290675Y-84194291D01*
X192289043Y-84212912D01*
X192287038Y-84226399D01*
X192284621Y-84236062D01*
X192281755Y-84243213D01*
X192278970Y-84248242D01*
X192253360Y-84275972D01*
X192220607Y-84290062D01*
X192184557Y-84288969D01*
X192180338Y-84287789D01*
X192164051Y-84280767D01*
X192135909Y-84266474D01*
X192098215Y-84246244D01*
X192053275Y-84221410D01*
X192003394Y-84193305D01*
X191950876Y-84163261D01*
X191898027Y-84132612D01*
X191847152Y-84102691D01*
X191800555Y-84074830D01*
X191760542Y-84050362D01*
X191729417Y-84030621D01*
X191709485Y-84016939D01*
X191703963Y-84012306D01*
X191697887Y-84004936D01*
X191693202Y-83995884D01*
X191689633Y-83982821D01*
X191686904Y-83963415D01*
X191684739Y-83935336D01*
X191682862Y-83896254D01*
X191680996Y-83843837D01*
X191679892Y-83809015D01*
X191678078Y-83755299D01*
X191676196Y-83707776D01*
X191674365Y-83668879D01*
X191672704Y-83641038D01*
X191671334Y-83626687D01*
X191670879Y-83625267D01*
X191662795Y-83629277D01*
X191642651Y-83640342D01*
X191613032Y-83657012D01*
X191576523Y-83677838D01*
X191553846Y-83690883D01*
X191440116Y-83756500D01*
X191439800Y-84146814D01*
X191631614Y-84256127D01*
X191684451Y-84286619D01*
X191733270Y-84315512D01*
X191775851Y-84341435D01*
X191809973Y-84363016D01*
X191833414Y-84378883D01*
X191843281Y-84386850D01*
X191863133Y-84408260D01*
X191863133Y-85476145D01*
X191835213Y-85503206D01*
X191821387Y-85515806D01*
X191808113Y-85524833D01*
X191793731Y-85529741D01*
X191776583Y-85529984D01*
X191755008Y-85525015D01*
X191727346Y-85514289D01*
X191691939Y-85497259D01*
X191647128Y-85473378D01*
X191591251Y-85442102D01*
X191522651Y-85402883D01*
X191512266Y-85396917D01*
X191440727Y-85355480D01*
X191383021Y-85321294D01*
X191338034Y-85293646D01*
X191304657Y-85271824D01*
X191281778Y-85255115D01*
X191268284Y-85242805D01*
X191264765Y-85238167D01*
X191259390Y-85227296D01*
X191255229Y-85212977D01*
X191252045Y-85192779D01*
X191249599Y-85164271D01*
X191247652Y-85125023D01*
X191245965Y-85072603D01*
X191245066Y-85037450D01*
X191240833Y-84862132D01*
X191124417Y-84930318D01*
X191008000Y-84998504D01*
X191006923Y-85152202D01*
X191006239Y-85210142D01*
X191005051Y-85270283D01*
X191003496Y-85327317D01*
X191001709Y-85375938D01*
X191000573Y-85399033D01*
X190995300Y-85492167D01*
X190948733Y-85522919D01*
X190928494Y-85535723D01*
X190896213Y-85555461D01*
X190854497Y-85580571D01*
X190805952Y-85609489D01*
X190753186Y-85640655D01*
X190712116Y-85664736D01*
X190652585Y-85699327D01*
X190605584Y-85726080D01*
X190569169Y-85745950D01*
X190541399Y-85759891D01*
X190520332Y-85768858D01*
X190504026Y-85773805D01*
X190490539Y-85775688D01*
X190486200Y-85775800D01*
X190477328Y-85775035D01*
X190466218Y-85772323D01*
X190451709Y-85767046D01*
X190432640Y-85758581D01*
X190407851Y-85746307D01*
X190376181Y-85729602D01*
X190336470Y-85707847D01*
X190287558Y-85680420D01*
X190228283Y-85646699D01*
X190157486Y-85606064D01*
X190074005Y-85557893D01*
X190011617Y-85521799D01*
X189929323Y-85473951D01*
X189851941Y-85428564D01*
X189780729Y-85386399D01*
X189716945Y-85348220D01*
X189661845Y-85314787D01*
X189616688Y-85286862D01*
X189582732Y-85265207D01*
X189561233Y-85250585D01*
X189553892Y-85244515D01*
X189538092Y-85212645D01*
X189536309Y-85176289D01*
X189548658Y-85141120D01*
X189559071Y-85130173D01*
X189580977Y-85113632D01*
X189615089Y-85091042D01*
X189662118Y-85061949D01*
X189722776Y-85025900D01*
X189792800Y-84985297D01*
X189859241Y-84947278D01*
X189912817Y-84917077D01*
X189955210Y-84893855D01*
X189988105Y-84876768D01*
X190013187Y-84864974D01*
X190032140Y-84857633D01*
X190046648Y-84853902D01*
X190057608Y-84852934D01*
X190073666Y-84854515D01*
X190092719Y-84860029D01*
X190117310Y-84870631D01*
X190149983Y-84887477D01*
X190193278Y-84911723D01*
X190216675Y-84925221D01*
X190259787Y-84950156D01*
X190299459Y-84972935D01*
X190332660Y-84991832D01*
X190356356Y-85005117D01*
X190365575Y-85010105D01*
X190389933Y-85022702D01*
X190389671Y-84747100D01*
X190197185Y-84637034D01*
X190144343Y-84606465D01*
X190095562Y-84577580D01*
X190053044Y-84551734D01*
X190018988Y-84530283D01*
X189995595Y-84514584D01*
X189985650Y-84506681D01*
X189980506Y-84500894D01*
X189976385Y-84494455D01*
X189973176Y-84485555D01*
X189970769Y-84472388D01*
X189969052Y-84453145D01*
X189967915Y-84426020D01*
X189967247Y-84389205D01*
X189966936Y-84340892D01*
X189966871Y-84279276D01*
X189966943Y-84202547D01*
X189966944Y-84201881D01*
X189967288Y-83917367D01*
X189990227Y-83891362D01*
X190004579Y-83879286D01*
X190031120Y-83860938D01*
X190067616Y-83837588D01*
X190111833Y-83810505D01*
X190161538Y-83780960D01*
X190214496Y-83750223D01*
X190268473Y-83719564D01*
X190321236Y-83690253D01*
X190370550Y-83663560D01*
X190414182Y-83640754D01*
X190449899Y-83623107D01*
X190475464Y-83611887D01*
X190488069Y-83608333D01*
X190514234Y-83615049D01*
X190543434Y-83633368D01*
X190544637Y-83634350D01*
X190576200Y-83660366D01*
X190577119Y-83856600D01*
X190577622Y-83915847D01*
X190578521Y-83972357D01*
X190579730Y-84022931D01*
X190581168Y-84064369D01*
X190582752Y-84093473D01*
X190583469Y-84101508D01*
X190588900Y-84150182D01*
X190705317Y-84217079D01*
X190821733Y-84283975D01*
X190821733Y-83509953D01*
X190655207Y-83414501D01*
X190600621Y-83383398D01*
X190558649Y-83360036D01*
X190527342Y-83343509D01*
X190504754Y-83332912D01*
X190488937Y-83327340D01*
X190477945Y-83325888D01*
X190469830Y-83327651D01*
X190469088Y-83327975D01*
X190456517Y-83334611D01*
X190431584Y-83348522D01*
X190396541Y-83368425D01*
X190353638Y-83393036D01*
X190305124Y-83421073D01*
X190267427Y-83442984D01*
X190202704Y-83480225D01*
X190151091Y-83508830D01*
X190111480Y-83529361D01*
X190082762Y-83542382D01*
X190063831Y-83548452D01*
X190058268Y-83549067D01*
X190047205Y-83547742D01*
X190032421Y-83543294D01*
X190012592Y-83535016D01*
X189986389Y-83522198D01*
X189952488Y-83504131D01*
X189909561Y-83480108D01*
X189856282Y-83449419D01*
X189791325Y-83411356D01*
X189713363Y-83365210D01*
X189706496Y-83361130D01*
X189660052Y-83333028D01*
X189618372Y-83306845D01*
X189583760Y-83284106D01*
X189558519Y-83266337D01*
X189544953Y-83255064D01*
X189543512Y-83253193D01*
X189536064Y-83225518D01*
X189536918Y-83192208D01*
X189545746Y-83162195D01*
X189546952Y-83159903D01*
X189558713Y-83148321D01*
X189585009Y-83129381D01*
X189625300Y-83103430D01*
X189679040Y-83070815D01*
X189745689Y-83031882D01*
X189760435Y-83023417D01*
X189962366Y-82907795D01*
X189964690Y-82766520D01*
X189967014Y-82625244D01*
X189930823Y-82646435D01*
X189915651Y-82655260D01*
X189887603Y-82671513D01*
X189848467Y-82694162D01*
X189800033Y-82722170D01*
X189744091Y-82754504D01*
X189682430Y-82790128D01*
X189616840Y-82828009D01*
X189594066Y-82841158D01*
X189293500Y-83014689D01*
X189291381Y-83207795D01*
X189289262Y-83400900D01*
X189488918Y-83514858D01*
X189549704Y-83550063D01*
X189602706Y-83581781D01*
X189646363Y-83609023D01*
X189679116Y-83630801D01*
X189699406Y-83646127D01*
X189704820Y-83651631D01*
X189708151Y-83656886D01*
X189710993Y-83663438D01*
X189713385Y-83672585D01*
X189715366Y-83685626D01*
X189716974Y-83703861D01*
X189718249Y-83728588D01*
X189719227Y-83761106D01*
X189719950Y-83802714D01*
X189720454Y-83854709D01*
X189720779Y-83918392D01*
X189720964Y-83995061D01*
X189721047Y-84086015D01*
X189721066Y-84192552D01*
X189721066Y-84197074D01*
X189721050Y-84304214D01*
X189720975Y-84395730D01*
X189720801Y-84472932D01*
X189720489Y-84537131D01*
X189719999Y-84589636D01*
X189719290Y-84631757D01*
X189718323Y-84664804D01*
X189717059Y-84690087D01*
X189715457Y-84708916D01*
X189713478Y-84722600D01*
X189711082Y-84732450D01*
X189708229Y-84739776D01*
X189704879Y-84745887D01*
X189704364Y-84746726D01*
X189680947Y-84771025D01*
X189649935Y-84785418D01*
X189617353Y-84787638D01*
X189604453Y-84784321D01*
X189589304Y-84777118D01*
X189562208Y-84762786D01*
X189525452Y-84742639D01*
X189481322Y-84717992D01*
X189432107Y-84690162D01*
X189380092Y-84660463D01*
X189327565Y-84630211D01*
X189276813Y-84600722D01*
X189230123Y-84573310D01*
X189189782Y-84549291D01*
X189158077Y-84529981D01*
X189137294Y-84516695D01*
X189130517Y-84511726D01*
X189124345Y-84505585D01*
X189119675Y-84498383D01*
X189116296Y-84487856D01*
X189114001Y-84471740D01*
X189112579Y-84447772D01*
X189111822Y-84413686D01*
X189111521Y-84367220D01*
X189111467Y-84306109D01*
X189111467Y-84305358D01*
X189111196Y-84250860D01*
X189110437Y-84202553D01*
X189109270Y-84162828D01*
X189107777Y-84134078D01*
X189106037Y-84118693D01*
X189105117Y-84116759D01*
X189095962Y-84120951D01*
X189074859Y-84132238D01*
X189044465Y-84149152D01*
X189007438Y-84170221D01*
X188984467Y-84183479D01*
X188870167Y-84249774D01*
X188864946Y-84447637D01*
X188863387Y-84506828D01*
X188861913Y-84563023D01*
X188860603Y-84613108D01*
X188859541Y-84653967D01*
X188858806Y-84682488D01*
X188858596Y-84690787D01*
X188856403Y-84719792D01*
X188849732Y-84739201D01*
X188835732Y-84756273D01*
X188831171Y-84760637D01*
X188798951Y-84780598D01*
X188764050Y-84785647D01*
X188730270Y-84776513D01*
X188701416Y-84753926D01*
X188687454Y-84733069D01*
X188680790Y-84717817D01*
X188676329Y-84700643D01*
X188673740Y-84678097D01*
X188672689Y-84646731D01*
X188672843Y-84603095D01*
X188673118Y-84584454D01*
X188673926Y-84534920D01*
X188674905Y-84474450D01*
X188675957Y-84409042D01*
X188676986Y-84344692D01*
X188677533Y-84310255D01*
X188678507Y-84254825D01*
X188679619Y-84213801D01*
X188681178Y-84184657D01*
X188683495Y-84164868D01*
X188686878Y-84151907D01*
X188691635Y-84143248D01*
X188698077Y-84136365D01*
X188698899Y-84135611D01*
X188710843Y-84127128D01*
X188735495Y-84111461D01*
X188770853Y-84089816D01*
X188814916Y-84063402D01*
X188865682Y-84033425D01*
X188921151Y-84001092D01*
X188939692Y-83990373D01*
X189003475Y-83953688D01*
X189054498Y-83924704D01*
X189094591Y-83902528D01*
X189125584Y-83886266D01*
X189149309Y-83875025D01*
X189167596Y-83867913D01*
X189182276Y-83864037D01*
X189195178Y-83862503D01*
X189202159Y-83862334D01*
X189228666Y-83863855D01*
X189246039Y-83870764D01*
X189261976Y-83886580D01*
X189265983Y-83891515D01*
X189289267Y-83920695D01*
X189289269Y-84156098D01*
X189289271Y-84391500D01*
X189367585Y-84435846D01*
X189406033Y-84457668D01*
X189444497Y-84479584D01*
X189477166Y-84498279D01*
X189490350Y-84505867D01*
X189534800Y-84531543D01*
X189534761Y-84144021D01*
X189534723Y-83756500D01*
X189354845Y-83655672D01*
X189302638Y-83625907D01*
X189253666Y-83597051D01*
X189210459Y-83570667D01*
X189175543Y-83548318D01*
X189151447Y-83531567D01*
X189143217Y-83524837D01*
X189111467Y-83494830D01*
X189111736Y-83206565D01*
X189111930Y-83125968D01*
X189112390Y-83060711D01*
X189113178Y-83009202D01*
X189114358Y-82969849D01*
X189115994Y-82941060D01*
X189118148Y-82921244D01*
X189120883Y-82908808D01*
X189123819Y-82902709D01*
X189133108Y-82895781D01*
X189155784Y-82881219D01*
X189190540Y-82859801D01*
X189236069Y-82832306D01*
X189291064Y-82799513D01*
X189354217Y-82762203D01*
X189424222Y-82721155D01*
X189499770Y-82677147D01*
X189579555Y-82630959D01*
X189581809Y-82629659D01*
X189677426Y-82574497D01*
X189759528Y-82527265D01*
X189829277Y-82487448D01*
X189887836Y-82454535D01*
X189936369Y-82428010D01*
X189976038Y-82407361D01*
X190008007Y-82392075D01*
X190033437Y-82381638D01*
X190053493Y-82375536D01*
X190069337Y-82373256D01*
X190082132Y-82374286D01*
X190093041Y-82378111D01*
X190103227Y-82384217D01*
X190113852Y-82392093D01*
X190116084Y-82393798D01*
X190144400Y-82415395D01*
X190144400Y-82705923D01*
X190144354Y-82784003D01*
X190144154Y-82846940D01*
X190143706Y-82896524D01*
X190142915Y-82934546D01*
X190141687Y-82962796D01*
X190139929Y-82983064D01*
X190137547Y-82997140D01*
X190134446Y-83006815D01*
X190130532Y-83013880D01*
X190128042Y-83017245D01*
X190115576Y-83028117D01*
X190091052Y-83045485D01*
X190057186Y-83067569D01*
X190016694Y-83092592D01*
X189977759Y-83115620D01*
X189934283Y-83140851D01*
X189895417Y-83163495D01*
X189863726Y-83182050D01*
X189841774Y-83195016D01*
X189832392Y-83200713D01*
X189832143Y-83206796D01*
X189843278Y-83217923D01*
X189866569Y-83234609D01*
X189902785Y-83257367D01*
X189952698Y-83286713D01*
X190009241Y-83318774D01*
X190056116Y-83345040D01*
X190254775Y-83231333D01*
X190317725Y-83195565D01*
X190367918Y-83167718D01*
X190407079Y-83146941D01*
X190436935Y-83132381D01*
X190459211Y-83123188D01*
X190475633Y-83118510D01*
X190485652Y-83117446D01*
X190497211Y-83118755D01*
X190512523Y-83123337D01*
X190533175Y-83132001D01*
X190560756Y-83145558D01*
X190596853Y-83164817D01*
X190643052Y-83190589D01*
X190700940Y-83223683D01*
X190754273Y-83254546D01*
X190821100Y-83293516D01*
X190874633Y-83325171D01*
X190916344Y-83350486D01*
X190947707Y-83370434D01*
X190970192Y-83385990D01*
X190985272Y-83398128D01*
X190994420Y-83407821D01*
X190999107Y-83416044D01*
X190999337Y-83416676D01*
X191001299Y-83431014D01*
X191003026Y-83461771D01*
X191004509Y-83508437D01*
X191005742Y-83570499D01*
X191006716Y-83647445D01*
X191007422Y-83738764D01*
X191007853Y-83843943D01*
X191008000Y-83962471D01*
X191008000Y-84485699D01*
X190983921Y-84508767D01*
X190956789Y-84529076D01*
X190928313Y-84537313D01*
X190895406Y-84533464D01*
X190854979Y-84517511D01*
X190836431Y-84507964D01*
X190781005Y-84477621D01*
X190723063Y-84445108D01*
X190664567Y-84411603D01*
X190607481Y-84378282D01*
X190553766Y-84346324D01*
X190505385Y-84316906D01*
X190464301Y-84291206D01*
X190432478Y-84270402D01*
X190411877Y-84255671D01*
X190404722Y-84248928D01*
X190400330Y-84232241D01*
X190396545Y-84198806D01*
X190393382Y-84148800D01*
X190390852Y-84082397D01*
X190390012Y-84050941D01*
X190385700Y-83871248D01*
X190264893Y-83939758D01*
X190144087Y-84008269D01*
X190146360Y-84199885D01*
X190148633Y-84391500D01*
X190341851Y-84502360D01*
X190394818Y-84533087D01*
X190443775Y-84562123D01*
X190486520Y-84588112D01*
X190520851Y-84609697D01*
X190544564Y-84625522D01*
X190554888Y-84633594D01*
X190574708Y-84653967D01*
X190577571Y-84929133D01*
X190578253Y-85010171D01*
X190578414Y-85075857D01*
X190578011Y-85127767D01*
X190577001Y-85167477D01*
X190575341Y-85196560D01*
X190572989Y-85216593D01*
X190569902Y-85229151D01*
X190569379Y-85230473D01*
X190551824Y-85253879D01*
X190524047Y-85273006D01*
X190492760Y-85283724D01*
X190481193Y-85284734D01*
X190469130Y-85280642D01*
X190444621Y-85269124D01*
X190409828Y-85251310D01*
X190366916Y-85228335D01*
X190318048Y-85201329D01*
X190271930Y-85175186D01*
X190219755Y-85145371D01*
X190171877Y-85118210D01*
X190130422Y-85094893D01*
X190097514Y-85076611D01*
X190075280Y-85064554D01*
X190066236Y-85060038D01*
X190051765Y-85061978D01*
X190023682Y-85073683D01*
X189981927Y-85095180D01*
X189937119Y-85120321D01*
X189897968Y-85143163D01*
X189864630Y-85163195D01*
X189839596Y-85178874D01*
X189825360Y-85188656D01*
X189823033Y-85191019D01*
X189830149Y-85195935D01*
X189850154Y-85208205D01*
X189881234Y-85226777D01*
X189921577Y-85250603D01*
X189969369Y-85278633D01*
X190022798Y-85309817D01*
X190080051Y-85343106D01*
X190139314Y-85377449D01*
X190198774Y-85411797D01*
X190256620Y-85445101D01*
X190311037Y-85476310D01*
X190360213Y-85504376D01*
X190402334Y-85528247D01*
X190435588Y-85546875D01*
X190458162Y-85559210D01*
X190465436Y-85562964D01*
X190473629Y-85566338D01*
X190482352Y-85567449D01*
X190493641Y-85565394D01*
X190509528Y-85559267D01*
X190532050Y-85548162D01*
X190563240Y-85531176D01*
X190605133Y-85507402D01*
X190655391Y-85478461D01*
X190821733Y-85382426D01*
X190821768Y-85242563D01*
X190822159Y-85184313D01*
X190823210Y-85121344D01*
X190824773Y-85060224D01*
X190826701Y-85007519D01*
X190827323Y-84994445D01*
X190832844Y-84886190D01*
X190905605Y-84841304D01*
X190934924Y-84823503D01*
X190975536Y-84799247D01*
X191024061Y-84770534D01*
X191077119Y-84739361D01*
X191131331Y-84707726D01*
X191148640Y-84697676D01*
X191209175Y-84662861D01*
X191257238Y-84636262D01*
X191294842Y-84617322D01*
X191323997Y-84605483D01*
X191346716Y-84600188D01*
X191365010Y-84600878D01*
X191380890Y-84606996D01*
X191396369Y-84617985D01*
X191405933Y-84626350D01*
X191435566Y-84653270D01*
X191438530Y-84896076D01*
X191441493Y-85138883D01*
X191551976Y-85201225D01*
X191591148Y-85223249D01*
X191625201Y-85242246D01*
X191651362Y-85256680D01*
X191666859Y-85265017D01*
X191669663Y-85266389D01*
X191671140Y-85258794D01*
X191672514Y-85235933D01*
X191673756Y-85199470D01*
X191674832Y-85151071D01*
X191675713Y-85092403D01*
X191676366Y-85025132D01*
X191676759Y-84950923D01*
X191676867Y-84884872D01*
X191676867Y-84500532D01*
X191474305Y-84383052D01*
X191403929Y-84341732D01*
X191348183Y-84307868D01*
X191306635Y-84281178D01*
X191278852Y-84261383D01*
X191264402Y-84248199D01*
X191262451Y-84245176D01*
X191259160Y-84229663D01*
X191256140Y-84199850D01*
X191253436Y-84158366D01*
X191251094Y-84107843D01*
X191249158Y-84050911D01*
X191247676Y-83990202D01*
X191246692Y-83928346D01*
X191246252Y-83867974D01*
X191246402Y-83811717D01*
X191247187Y-83762205D01*
X191248652Y-83722070D01*
X191250845Y-83693942D01*
X191252708Y-83683248D01*
X191255653Y-83672429D01*
X191258745Y-83663256D01*
X191263429Y-83654709D01*
X191271156Y-83645763D01*
X191283372Y-83635396D01*
X191301525Y-83622586D01*
X191327063Y-83606310D01*
X191361435Y-83585545D01*
X191406087Y-83559269D01*
X191462468Y-83526459D01*
X191531080Y-83486642D01*
X191596589Y-83448804D01*
X191649389Y-83418945D01*
X191691301Y-83396340D01*
X191724142Y-83380266D01*
X191749732Y-83370000D01*
X191769888Y-83364816D01*
X191786430Y-83363991D01*
X191801175Y-83366803D01*
X191815943Y-83372525D01*
X191816803Y-83372915D01*
X191829705Y-83379650D01*
X191839967Y-83388055D01*
X191847890Y-83400005D01*
X191853774Y-83417378D01*
X191857921Y-83442049D01*
X191860629Y-83475895D01*
X191862200Y-83520791D01*
X191862934Y-83578615D01*
X191863131Y-83651241D01*
X191863133Y-83662274D01*
X191863133Y-83894856D01*
X191982560Y-83963261D01*
X192022876Y-83986239D01*
X192057806Y-84005930D01*
X192084824Y-84020927D01*
X192101401Y-84029822D01*
X192105412Y-84031667D01*
X192106066Y-84023480D01*
X192106586Y-84000040D01*
X192106964Y-83963024D01*
X192107197Y-83914111D01*
X192107278Y-83854981D01*
X192107203Y-83787312D01*
X192106966Y-83712784D01*
X192106635Y-83645709D01*
X192104433Y-83259750D01*
X191938737Y-83164338D01*
X191773041Y-83068925D01*
X191570992Y-83186080D01*
X191511034Y-83220760D01*
X191463784Y-83247764D01*
X191427348Y-83267987D01*
X191399833Y-83282325D01*
X191379344Y-83291673D01*
X191363985Y-83296926D01*
X191351863Y-83298981D01*
X191341083Y-83298733D01*
X191334522Y-83297859D01*
X191317059Y-83291931D01*
X191286060Y-83277452D01*
X191241378Y-83254340D01*
X191182863Y-83222515D01*
X191110365Y-83181898D01*
X191023737Y-83132409D01*
X190978367Y-83106216D01*
X190868266Y-83042423D01*
X190772118Y-82986600D01*
X190689179Y-82938308D01*
X190618704Y-82897105D01*
X190559949Y-82862553D01*
X190512169Y-82834211D01*
X190474621Y-82811639D01*
X190446559Y-82794396D01*
X190427241Y-82782044D01*
X190415920Y-82774142D01*
X190413833Y-82772453D01*
X190399205Y-82749931D01*
X190393081Y-82719243D01*
X190396102Y-82687218D01*
X190403998Y-82667670D01*
X190416197Y-82655441D01*
X190441137Y-82636698D01*
X190476572Y-82612740D01*
X190520257Y-82584867D01*
X190569944Y-82554380D01*
X190623388Y-82522578D01*
X190678343Y-82490761D01*
X190732562Y-82460230D01*
X190783800Y-82432284D01*
X190829810Y-82408223D01*
X190868347Y-82389347D01*
X190897163Y-82376957D01*
X190914013Y-82372352D01*
X190914264Y-82372348D01*
X190929725Y-82374888D01*
X190952248Y-82383188D01*
X190983549Y-82398074D01*
X191025346Y-82420373D01*
X191079353Y-82450913D01*
X191089671Y-82456867D01*
X191134528Y-82482683D01*
X191174301Y-82505324D01*
X191206705Y-82523511D01*
X191229455Y-82535962D01*
X191240266Y-82541399D01*
X191240766Y-82541534D01*
X191242215Y-82533539D01*
X191243198Y-82511430D01*
X191243666Y-82478024D01*
X191243570Y-82436135D01*
X191243160Y-82404379D01*
X191240833Y-82267225D01*
X191057037Y-82160962D01*
X191004959Y-82130459D01*
X190956491Y-82101330D01*
X190913996Y-82075053D01*
X190879835Y-82053106D01*
X190856371Y-82036966D01*
X190847487Y-82029833D01*
X190826642Y-81999304D01*
X190821854Y-81964204D01*
X190833272Y-81925770D01*
X190834521Y-81923297D01*
X190852462Y-81898714D01*
X190877114Y-81885405D01*
X190912755Y-81881150D01*
X190915738Y-81881134D01*
X190928039Y-81882149D01*
X190942654Y-81885781D01*
X190961369Y-81892914D01*
X190985970Y-81904428D01*
X191018245Y-81921205D01*
X191059981Y-81944128D01*
X191112963Y-81974077D01*
X191168178Y-82005718D01*
X191224780Y-82038720D01*
X191277856Y-82070503D01*
X191325246Y-82099709D01*
X191364786Y-82124976D01*
X191394316Y-82144947D01*
X191411673Y-82158260D01*
X191413491Y-82160002D01*
X191442215Y-82189700D01*
X191433419Y-82756508D01*
X191406842Y-82780254D01*
X191391465Y-82792806D01*
X191376420Y-82801234D01*
X191359899Y-82804974D01*
X191340096Y-82803463D01*
X191315203Y-82796137D01*
X191283413Y-82782433D01*
X191242917Y-82761788D01*
X191191910Y-82733638D01*
X191128584Y-82697419D01*
X191113856Y-82688911D01*
X190914813Y-82573823D01*
X190874623Y-82596953D01*
X190849811Y-82611292D01*
X190815734Y-82631062D01*
X190777747Y-82653154D01*
X190755115Y-82666342D01*
X190675797Y-82712600D01*
X190750882Y-82756443D01*
X190776493Y-82771325D01*
X190814414Y-82793259D01*
X190862264Y-82820873D01*
X190917663Y-82852796D01*
X190978232Y-82887656D01*
X191041589Y-82924081D01*
X191082373Y-82947507D01*
X191338780Y-83094726D01*
X191370240Y-83079749D01*
X191387415Y-83070855D01*
X191416337Y-83055091D01*
X191454100Y-83034072D01*
X191497798Y-83009419D01*
X191544526Y-82982746D01*
X191545633Y-82982111D01*
X191606782Y-82947040D01*
X191655099Y-82919581D01*
X191692429Y-82898894D01*
X191720615Y-82884141D01*
X191741501Y-82874483D01*
X191756930Y-82869082D01*
X191768746Y-82867099D01*
X191778792Y-82867696D01*
X191788913Y-82870034D01*
X191790865Y-82870570D01*
X191805284Y-82876713D01*
X191832251Y-82890276D01*
X191869692Y-82910137D01*
X191915534Y-82935173D01*
X191967706Y-82964260D01*
X192024135Y-82996276D01*
X192045386Y-83008472D01*
X192116354Y-83049675D01*
X192173359Y-83083583D01*
X192217396Y-83110838D01*
X192249461Y-83132078D01*
X192270549Y-83147945D01*
X192281655Y-83159078D01*
X192283041Y-83161296D01*
X192285555Y-83168589D01*
X192287703Y-83180866D01*
X192289511Y-83199334D01*
X192291005Y-83225200D01*
X192292212Y-83259670D01*
X192293158Y-83303951D01*
X192293869Y-83359250D01*
X192294373Y-83426773D01*
X192294695Y-83507726D01*
X192294862Y-83603317D01*
X192294902Y-83703163D01*
X192294874Y-83810055D01*
D12*
X187240000Y-83290000D02*
X186140000Y-83290000D01*
X186140000Y-83290000D02*
X186140000Y-85890000D01*
X187240000Y-83290000D02*
X187240000Y-85890000D01*
X187240000Y-99800000D02*
X186140000Y-99800000D01*
X186140000Y-99800000D02*
X186140000Y-102400000D01*
X187240000Y-99800000D02*
X187240000Y-102400000D01*
X184405000Y-85725000D02*
X184405000Y-83185000D01*
X182625000Y-83185000D02*
X182625000Y-85725000D01*
X182625000Y-83185000D02*
X184405000Y-83185000D01*
X184405000Y-85725000D02*
X182625000Y-85725000D01*
X184405000Y-104140000D02*
X184405000Y-101600000D01*
X182625000Y-101600000D02*
X182625000Y-104140000D01*
X182625000Y-101600000D02*
X184405000Y-101600000D01*
X184405000Y-104140000D02*
X182625000Y-104140000D01*
X184105000Y-91305000D02*
X184105000Y-90305000D01*
X185465000Y-90305000D02*
X185465000Y-91305000D01*
X181020000Y-103005000D02*
X181020000Y-104005000D01*
X179660000Y-104005000D02*
X179660000Y-103005000D01*
X155840000Y-94910000D02*
X154040000Y-94910000D01*
X154040000Y-98130000D02*
X156490000Y-98130000D01*
X155075000Y-90485000D02*
X154025000Y-90485000D01*
X154025000Y-90485000D02*
X154025000Y-88635000D01*
X157075000Y-90485000D02*
X156075000Y-90485000D01*
X157085000Y-90465000D02*
X157085000Y-88035000D01*
X157370000Y-103090000D02*
X161620000Y-103090000D01*
X157370000Y-105190000D02*
X161620000Y-105190000D01*
X157370000Y-103090000D02*
X157370000Y-105190000D01*
X157370000Y-99280000D02*
X161620000Y-99280000D01*
X157370000Y-101380000D02*
X161620000Y-101380000D01*
X157370000Y-99280000D02*
X157370000Y-101380000D01*
X167005000Y-103250000D02*
X164465000Y-103250000D01*
X164465000Y-105030000D02*
X167005000Y-105030000D01*
X164465000Y-105030000D02*
X164465000Y-103250000D01*
X167005000Y-103250000D02*
X167005000Y-105030000D01*
X167005000Y-99440000D02*
X164465000Y-99440000D01*
X164465000Y-101220000D02*
X167005000Y-101220000D01*
X164465000Y-101220000D02*
X164465000Y-99440000D01*
X167005000Y-99440000D02*
X167005000Y-101220000D01*
X155635000Y-99635000D02*
X152975000Y-99635000D01*
X155635000Y-102235000D02*
X155635000Y-99635000D01*
X152975000Y-102235000D02*
X152975000Y-99635000D01*
X155635000Y-102235000D02*
X152975000Y-102235000D01*
X155635000Y-103505000D02*
X155635000Y-104835000D01*
X155635000Y-104835000D02*
X154305000Y-104835000D01*
D14*
X166203334Y-87352143D02*
X166155715Y-87399762D01*
X166012858Y-87447381D01*
X165917620Y-87447381D01*
X165774762Y-87399762D01*
X165679524Y-87304524D01*
X165631905Y-87209286D01*
X165584286Y-87018810D01*
X165584286Y-86875952D01*
X165631905Y-86685476D01*
X165679524Y-86590238D01*
X165774762Y-86495000D01*
X165917620Y-86447381D01*
X166012858Y-86447381D01*
X166155715Y-86495000D01*
X166203334Y-86542619D01*
X167155715Y-87447381D02*
X166584286Y-87447381D01*
X166870000Y-87447381D02*
X166870000Y-86447381D01*
X166774762Y-86590238D01*
X166679524Y-86685476D01*
X166584286Y-86733095D01*
X169378334Y-87352143D02*
X169330715Y-87399762D01*
X169187858Y-87447381D01*
X169092620Y-87447381D01*
X168949762Y-87399762D01*
X168854524Y-87304524D01*
X168806905Y-87209286D01*
X168759286Y-87018810D01*
X168759286Y-86875952D01*
X168806905Y-86685476D01*
X168854524Y-86590238D01*
X168949762Y-86495000D01*
X169092620Y-86447381D01*
X169187858Y-86447381D01*
X169330715Y-86495000D01*
X169378334Y-86542619D01*
X169759286Y-86542619D02*
X169806905Y-86495000D01*
X169902143Y-86447381D01*
X170140239Y-86447381D01*
X170235477Y-86495000D01*
X170283096Y-86542619D01*
X170330715Y-86637857D01*
X170330715Y-86733095D01*
X170283096Y-86875952D01*
X169711667Y-87447381D01*
X170330715Y-87447381D01*
X169378334Y-106402143D02*
X169330715Y-106449762D01*
X169187858Y-106497381D01*
X169092620Y-106497381D01*
X168949762Y-106449762D01*
X168854524Y-106354524D01*
X168806905Y-106259286D01*
X168759286Y-106068810D01*
X168759286Y-105925952D01*
X168806905Y-105735476D01*
X168854524Y-105640238D01*
X168949762Y-105545000D01*
X169092620Y-105497381D01*
X169187858Y-105497381D01*
X169330715Y-105545000D01*
X169378334Y-105592619D01*
X169711667Y-105497381D02*
X170330715Y-105497381D01*
X169997381Y-105878333D01*
X170140239Y-105878333D01*
X170235477Y-105925952D01*
X170283096Y-105973571D01*
X170330715Y-106068810D01*
X170330715Y-106306905D01*
X170283096Y-106402143D01*
X170235477Y-106449762D01*
X170140239Y-106497381D01*
X169854524Y-106497381D01*
X169759286Y-106449762D01*
X169711667Y-106402143D01*
X156678334Y-87352143D02*
X156630715Y-87399762D01*
X156487858Y-87447381D01*
X156392620Y-87447381D01*
X156249762Y-87399762D01*
X156154524Y-87304524D01*
X156106905Y-87209286D01*
X156059286Y-87018810D01*
X156059286Y-86875952D01*
X156106905Y-86685476D01*
X156154524Y-86590238D01*
X156249762Y-86495000D01*
X156392620Y-86447381D01*
X156487858Y-86447381D01*
X156630715Y-86495000D01*
X156678334Y-86542619D01*
X157535477Y-86447381D02*
X157345000Y-86447381D01*
X157249762Y-86495000D01*
X157202143Y-86542619D01*
X157106905Y-86685476D01*
X157059286Y-86875952D01*
X157059286Y-87256905D01*
X157106905Y-87352143D01*
X157154524Y-87399762D01*
X157249762Y-87447381D01*
X157440239Y-87447381D01*
X157535477Y-87399762D01*
X157583096Y-87352143D01*
X157630715Y-87256905D01*
X157630715Y-87018810D01*
X157583096Y-86923571D01*
X157535477Y-86875952D01*
X157440239Y-86828333D01*
X157249762Y-86828333D01*
X157154524Y-86875952D01*
X157106905Y-86923571D01*
X157059286Y-87018810D01*
X163028334Y-87352143D02*
X162980715Y-87399762D01*
X162837858Y-87447381D01*
X162742620Y-87447381D01*
X162599762Y-87399762D01*
X162504524Y-87304524D01*
X162456905Y-87209286D01*
X162409286Y-87018810D01*
X162409286Y-86875952D01*
X162456905Y-86685476D01*
X162504524Y-86590238D01*
X162599762Y-86495000D01*
X162742620Y-86447381D01*
X162837858Y-86447381D01*
X162980715Y-86495000D01*
X163028334Y-86542619D01*
X163361667Y-86447381D02*
X164028334Y-86447381D01*
X163599762Y-87447381D01*
X184618334Y-99417143D02*
X184570715Y-99464762D01*
X184427858Y-99512381D01*
X184332620Y-99512381D01*
X184189762Y-99464762D01*
X184094524Y-99369524D01*
X184046905Y-99274286D01*
X183999286Y-99083810D01*
X183999286Y-98940952D01*
X184046905Y-98750476D01*
X184094524Y-98655238D01*
X184189762Y-98560000D01*
X184332620Y-98512381D01*
X184427858Y-98512381D01*
X184570715Y-98560000D01*
X184618334Y-98607619D01*
X185189762Y-98940952D02*
X185094524Y-98893333D01*
X185046905Y-98845714D01*
X184999286Y-98750476D01*
X184999286Y-98702857D01*
X185046905Y-98607619D01*
X185094524Y-98560000D01*
X185189762Y-98512381D01*
X185380239Y-98512381D01*
X185475477Y-98560000D01*
X185523096Y-98607619D01*
X185570715Y-98702857D01*
X185570715Y-98750476D01*
X185523096Y-98845714D01*
X185475477Y-98893333D01*
X185380239Y-98940952D01*
X185189762Y-98940952D01*
X185094524Y-98988571D01*
X185046905Y-99036190D01*
X184999286Y-99131429D01*
X184999286Y-99321905D01*
X185046905Y-99417143D01*
X185094524Y-99464762D01*
X185189762Y-99512381D01*
X185380239Y-99512381D01*
X185475477Y-99464762D01*
X185523096Y-99417143D01*
X185570715Y-99321905D01*
X185570715Y-99131429D01*
X185523096Y-99036190D01*
X185475477Y-98988571D01*
X185380239Y-98940952D01*
X147407381Y-84153333D02*
X148121667Y-84153333D01*
X148264524Y-84200953D01*
X148359762Y-84296191D01*
X148407381Y-84439048D01*
X148407381Y-84534286D01*
X147407381Y-83200952D02*
X147407381Y-83677143D01*
X147883571Y-83724762D01*
X147835952Y-83677143D01*
X147788333Y-83581905D01*
X147788333Y-83343809D01*
X147835952Y-83248571D01*
X147883571Y-83200952D01*
X147978810Y-83153333D01*
X148216905Y-83153333D01*
X148312143Y-83200952D01*
X148359762Y-83248571D01*
X148407381Y-83343809D01*
X148407381Y-83581905D01*
X148359762Y-83677143D01*
X148312143Y-83724762D01*
X182078334Y-99512381D02*
X181745000Y-99036190D01*
X181506905Y-99512381D02*
X181506905Y-98512381D01*
X181887858Y-98512381D01*
X181983096Y-98560000D01*
X182030715Y-98607619D01*
X182078334Y-98702857D01*
X182078334Y-98845714D01*
X182030715Y-98940952D01*
X181983096Y-98988571D01*
X181887858Y-99036190D01*
X181506905Y-99036190D01*
X183030715Y-99512381D02*
X182459286Y-99512381D01*
X182745000Y-99512381D02*
X182745000Y-98512381D01*
X182649762Y-98655238D01*
X182554524Y-98750476D01*
X182459286Y-98798095D01*
X176998334Y-106497381D02*
X176665000Y-106021190D01*
X176426905Y-106497381D02*
X176426905Y-105497381D01*
X176807858Y-105497381D01*
X176903096Y-105545000D01*
X176950715Y-105592619D01*
X176998334Y-105687857D01*
X176998334Y-105830714D01*
X176950715Y-105925952D01*
X176903096Y-105973571D01*
X176807858Y-106021190D01*
X176426905Y-106021190D01*
X177331667Y-105497381D02*
X177950715Y-105497381D01*
X177617381Y-105878333D01*
X177760239Y-105878333D01*
X177855477Y-105925952D01*
X177903096Y-105973571D01*
X177950715Y-106068810D01*
X177950715Y-106306905D01*
X177903096Y-106402143D01*
X177855477Y-106449762D01*
X177760239Y-106497381D01*
X177474524Y-106497381D01*
X177379286Y-106449762D01*
X177331667Y-106402143D01*
X180173334Y-87447381D02*
X179840000Y-86971190D01*
X179601905Y-87447381D02*
X179601905Y-86447381D01*
X179982858Y-86447381D01*
X180078096Y-86495000D01*
X180125715Y-86542619D01*
X180173334Y-86637857D01*
X180173334Y-86780714D01*
X180125715Y-86875952D01*
X180078096Y-86923571D01*
X179982858Y-86971190D01*
X179601905Y-86971190D01*
X181030477Y-86780714D02*
X181030477Y-87447381D01*
X180792381Y-86399762D02*
X180554286Y-87114048D01*
X181173334Y-87114048D01*
X176998334Y-87447381D02*
X176665000Y-86971190D01*
X176426905Y-87447381D02*
X176426905Y-86447381D01*
X176807858Y-86447381D01*
X176903096Y-86495000D01*
X176950715Y-86542619D01*
X176998334Y-86637857D01*
X176998334Y-86780714D01*
X176950715Y-86875952D01*
X176903096Y-86923571D01*
X176807858Y-86971190D01*
X176426905Y-86971190D01*
X177903096Y-86447381D02*
X177426905Y-86447381D01*
X177379286Y-86923571D01*
X177426905Y-86875952D01*
X177522143Y-86828333D01*
X177760239Y-86828333D01*
X177855477Y-86875952D01*
X177903096Y-86923571D01*
X177950715Y-87018810D01*
X177950715Y-87256905D01*
X177903096Y-87352143D01*
X177855477Y-87399762D01*
X177760239Y-87447381D01*
X177522143Y-87447381D01*
X177426905Y-87399762D01*
X177379286Y-87352143D01*
X153503334Y-87447381D02*
X153170000Y-86971190D01*
X152931905Y-87447381D02*
X152931905Y-86447381D01*
X153312858Y-86447381D01*
X153408096Y-86495000D01*
X153455715Y-86542619D01*
X153503334Y-86637857D01*
X153503334Y-86780714D01*
X153455715Y-86875952D01*
X153408096Y-86923571D01*
X153312858Y-86971190D01*
X152931905Y-86971190D01*
X154360477Y-86447381D02*
X154170000Y-86447381D01*
X154074762Y-86495000D01*
X154027143Y-86542619D01*
X153931905Y-86685476D01*
X153884286Y-86875952D01*
X153884286Y-87256905D01*
X153931905Y-87352143D01*
X153979524Y-87399762D01*
X154074762Y-87447381D01*
X154265239Y-87447381D01*
X154360477Y-87399762D01*
X154408096Y-87352143D01*
X154455715Y-87256905D01*
X154455715Y-87018810D01*
X154408096Y-86923571D01*
X154360477Y-86875952D01*
X154265239Y-86828333D01*
X154074762Y-86828333D01*
X153979524Y-86875952D01*
X153931905Y-86923571D01*
X153884286Y-87018810D01*
X182078334Y-93797381D02*
X181745000Y-93321190D01*
X181506905Y-93797381D02*
X181506905Y-92797381D01*
X181887858Y-92797381D01*
X181983096Y-92845000D01*
X182030715Y-92892619D01*
X182078334Y-92987857D01*
X182078334Y-93130714D01*
X182030715Y-93225952D01*
X181983096Y-93273571D01*
X181887858Y-93321190D01*
X181506905Y-93321190D01*
X182411667Y-92797381D02*
X183078334Y-92797381D01*
X182649762Y-93797381D01*
X159853334Y-87447381D02*
X159520000Y-86971190D01*
X159281905Y-87447381D02*
X159281905Y-86447381D01*
X159662858Y-86447381D01*
X159758096Y-86495000D01*
X159805715Y-86542619D01*
X159853334Y-86637857D01*
X159853334Y-86780714D01*
X159805715Y-86875952D01*
X159758096Y-86923571D01*
X159662858Y-86971190D01*
X159281905Y-86971190D01*
X160424762Y-86875952D02*
X160329524Y-86828333D01*
X160281905Y-86780714D01*
X160234286Y-86685476D01*
X160234286Y-86637857D01*
X160281905Y-86542619D01*
X160329524Y-86495000D01*
X160424762Y-86447381D01*
X160615239Y-86447381D01*
X160710477Y-86495000D01*
X160758096Y-86542619D01*
X160805715Y-86637857D01*
X160805715Y-86685476D01*
X160758096Y-86780714D01*
X160710477Y-86828333D01*
X160615239Y-86875952D01*
X160424762Y-86875952D01*
X160329524Y-86923571D01*
X160281905Y-86971190D01*
X160234286Y-87066429D01*
X160234286Y-87256905D01*
X160281905Y-87352143D01*
X160329524Y-87399762D01*
X160424762Y-87447381D01*
X160615239Y-87447381D01*
X160710477Y-87399762D01*
X160758096Y-87352143D01*
X160805715Y-87256905D01*
X160805715Y-87066429D01*
X160758096Y-86971190D01*
X160710477Y-86923571D01*
X160615239Y-86875952D01*
X163028334Y-92527381D02*
X162695000Y-92051190D01*
X162456905Y-92527381D02*
X162456905Y-91527381D01*
X162837858Y-91527381D01*
X162933096Y-91575000D01*
X162980715Y-91622619D01*
X163028334Y-91717857D01*
X163028334Y-91860714D01*
X162980715Y-91955952D01*
X162933096Y-92003571D01*
X162837858Y-92051190D01*
X162456905Y-92051190D01*
X163504524Y-92527381D02*
X163695000Y-92527381D01*
X163790239Y-92479762D01*
X163837858Y-92432143D01*
X163933096Y-92289286D01*
X163980715Y-92098810D01*
X163980715Y-91717857D01*
X163933096Y-91622619D01*
X163885477Y-91575000D01*
X163790239Y-91527381D01*
X163599762Y-91527381D01*
X163504524Y-91575000D01*
X163456905Y-91622619D01*
X163409286Y-91717857D01*
X163409286Y-91955952D01*
X163456905Y-92051190D01*
X163504524Y-92098810D01*
X163599762Y-92146429D01*
X163790239Y-92146429D01*
X163885477Y-92098810D01*
X163933096Y-92051190D01*
X163980715Y-91955952D01*
X186626667Y-112164762D02*
X186769524Y-112212381D01*
X187007620Y-112212381D01*
X187102858Y-112164762D01*
X187150477Y-112117143D01*
X187198096Y-112021905D01*
X187198096Y-111926667D01*
X187150477Y-111831429D01*
X187102858Y-111783810D01*
X187007620Y-111736190D01*
X186817143Y-111688571D01*
X186721905Y-111640952D01*
X186674286Y-111593333D01*
X186626667Y-111498095D01*
X186626667Y-111402857D01*
X186674286Y-111307619D01*
X186721905Y-111260000D01*
X186817143Y-111212381D01*
X187055239Y-111212381D01*
X187198096Y-111260000D01*
X187531429Y-111212381D02*
X187769524Y-112212381D01*
X187960001Y-111498095D01*
X188150477Y-112212381D01*
X188388572Y-111212381D01*
X189293334Y-112212381D02*
X188721905Y-112212381D01*
X189007619Y-112212381D02*
X189007619Y-111212381D01*
X188912381Y-111355238D01*
X188817143Y-111450476D01*
X188721905Y-111498095D01*
X169418095Y-98512381D02*
X169418095Y-99321905D01*
X169465714Y-99417143D01*
X169513333Y-99464762D01*
X169608571Y-99512381D01*
X169799048Y-99512381D01*
X169894286Y-99464762D01*
X169941905Y-99417143D01*
X169989524Y-99321905D01*
X169989524Y-98512381D01*
X170989524Y-99512381D02*
X170418095Y-99512381D01*
X170703809Y-99512381D02*
X170703809Y-98512381D01*
X170608571Y-98655238D01*
X170513333Y-98750476D01*
X170418095Y-98798095D01*
X172593095Y-86447381D02*
X172593095Y-87256905D01*
X172640714Y-87352143D01*
X172688333Y-87399762D01*
X172783571Y-87447381D01*
X172974048Y-87447381D01*
X173069286Y-87399762D01*
X173116905Y-87352143D01*
X173164524Y-87256905D01*
X173164524Y-86447381D01*
X174069286Y-86447381D02*
X173878809Y-86447381D01*
X173783571Y-86495000D01*
X173735952Y-86542619D01*
X173640714Y-86685476D01*
X173593095Y-86875952D01*
X173593095Y-87256905D01*
X173640714Y-87352143D01*
X173688333Y-87399762D01*
X173783571Y-87447381D01*
X173974048Y-87447381D01*
X174069286Y-87399762D01*
X174116905Y-87352143D01*
X174164524Y-87256905D01*
X174164524Y-87018810D01*
X174116905Y-86923571D01*
X174069286Y-86875952D01*
X173974048Y-86828333D01*
X173783571Y-86828333D01*
X173688333Y-86875952D01*
X173640714Y-86923571D01*
X173593095Y-87018810D01*
X172878809Y-106021190D02*
X172878809Y-106497381D01*
X172545476Y-105497381D02*
X172878809Y-106021190D01*
X173212143Y-105497381D01*
X174069286Y-106497381D02*
X173497857Y-106497381D01*
X173783571Y-106497381D02*
X173783571Y-105497381D01*
X173688333Y-105640238D01*
X173593095Y-105735476D01*
X173497857Y-105783095D01*
X159853334Y-92432143D02*
X159805715Y-92479762D01*
X159662858Y-92527381D01*
X159567620Y-92527381D01*
X159424762Y-92479762D01*
X159329524Y-92384524D01*
X159281905Y-92289286D01*
X159234286Y-92098810D01*
X159234286Y-91955952D01*
X159281905Y-91765476D01*
X159329524Y-91670238D01*
X159424762Y-91575000D01*
X159567620Y-91527381D01*
X159662858Y-91527381D01*
X159805715Y-91575000D01*
X159853334Y-91622619D01*
X160329524Y-92527381D02*
X160520000Y-92527381D01*
X160615239Y-92479762D01*
X160662858Y-92432143D01*
X160758096Y-92289286D01*
X160805715Y-92098810D01*
X160805715Y-91717857D01*
X160758096Y-91622619D01*
X160710477Y-91575000D01*
X160615239Y-91527381D01*
X160424762Y-91527381D01*
X160329524Y-91575000D01*
X160281905Y-91622619D01*
X160234286Y-91717857D01*
X160234286Y-91955952D01*
X160281905Y-92051190D01*
X160329524Y-92098810D01*
X160424762Y-92146429D01*
X160615239Y-92146429D01*
X160710477Y-92098810D01*
X160758096Y-92051190D01*
X160805715Y-91955952D01*
X158646905Y-98877381D02*
X158646905Y-97877381D01*
X158885000Y-97877381D01*
X159027858Y-97925000D01*
X159123096Y-98020238D01*
X159170715Y-98115476D01*
X159218334Y-98305952D01*
X159218334Y-98448810D01*
X159170715Y-98639286D01*
X159123096Y-98734524D01*
X159027858Y-98829762D01*
X158885000Y-98877381D01*
X158646905Y-98877381D01*
X160170715Y-98877381D02*
X159599286Y-98877381D01*
X159885000Y-98877381D02*
X159885000Y-97877381D01*
X159789762Y-98020238D01*
X159694524Y-98115476D01*
X159599286Y-98163095D01*
X162456905Y-98877381D02*
X162456905Y-97877381D01*
X162695000Y-97877381D01*
X162837858Y-97925000D01*
X162933096Y-98020238D01*
X162980715Y-98115476D01*
X163028334Y-98305952D01*
X163028334Y-98448810D01*
X162980715Y-98639286D01*
X162933096Y-98734524D01*
X162837858Y-98829762D01*
X162695000Y-98877381D01*
X162456905Y-98877381D01*
X163409286Y-97972619D02*
X163456905Y-97925000D01*
X163552143Y-97877381D01*
X163790239Y-97877381D01*
X163885477Y-97925000D01*
X163933096Y-97972619D01*
X163980715Y-98067857D01*
X163980715Y-98163095D01*
X163933096Y-98305952D01*
X163361667Y-98877381D01*
X163980715Y-98877381D01*
X154201905Y-94432381D02*
X154201905Y-93432381D01*
X154440000Y-93432381D01*
X154582858Y-93480000D01*
X154678096Y-93575238D01*
X154725715Y-93670476D01*
X154773334Y-93860952D01*
X154773334Y-94003810D01*
X154725715Y-94194286D01*
X154678096Y-94289524D01*
X154582858Y-94384762D01*
X154440000Y-94432381D01*
X154201905Y-94432381D01*
X155106667Y-93432381D02*
X155725715Y-93432381D01*
X155392381Y-93813333D01*
X155535239Y-93813333D01*
X155630477Y-93860952D01*
X155678096Y-93908571D01*
X155725715Y-94003810D01*
X155725715Y-94241905D01*
X155678096Y-94337143D01*
X155630477Y-94384762D01*
X155535239Y-94432381D01*
X155249524Y-94432381D01*
X155154286Y-94384762D01*
X155106667Y-94337143D01*
X147407381Y-91773333D02*
X148121667Y-91773333D01*
X148264524Y-91820953D01*
X148359762Y-91916191D01*
X148407381Y-92059048D01*
X148407381Y-92154286D01*
X147835952Y-91154286D02*
X147788333Y-91249524D01*
X147740714Y-91297143D01*
X147645476Y-91344762D01*
X147597857Y-91344762D01*
X147502619Y-91297143D01*
X147455000Y-91249524D01*
X147407381Y-91154286D01*
X147407381Y-90963809D01*
X147455000Y-90868571D01*
X147502619Y-90820952D01*
X147597857Y-90773333D01*
X147645476Y-90773333D01*
X147740714Y-90820952D01*
X147788333Y-90868571D01*
X147835952Y-90963809D01*
X147835952Y-91154286D01*
X147883571Y-91249524D01*
X147931190Y-91297143D01*
X148026429Y-91344762D01*
X148216905Y-91344762D01*
X148312143Y-91297143D01*
X148359762Y-91249524D01*
X148407381Y-91154286D01*
X148407381Y-90963809D01*
X148359762Y-90868571D01*
X148312143Y-90820952D01*
X148216905Y-90773333D01*
X148026429Y-90773333D01*
X147931190Y-90820952D01*
X147883571Y-90868571D01*
X147835952Y-90963809D01*
X165727143Y-98242381D02*
X165393809Y-97766190D01*
X165155714Y-98242381D02*
X165155714Y-97242381D01*
X165536667Y-97242381D01*
X165631905Y-97290000D01*
X165679524Y-97337619D01*
X165727143Y-97432857D01*
X165727143Y-97575714D01*
X165679524Y-97670952D01*
X165631905Y-97718571D01*
X165536667Y-97766190D01*
X165155714Y-97766190D01*
X166679524Y-98242381D02*
X166108095Y-98242381D01*
X166393809Y-98242381D02*
X166393809Y-97242381D01*
X166298571Y-97385238D01*
X166203333Y-97480476D01*
X166108095Y-97528095D01*
X167631905Y-98242381D02*
X167060476Y-98242381D01*
X167346190Y-98242381D02*
X167346190Y-97242381D01*
X167250952Y-97385238D01*
X167155714Y-97480476D01*
X167060476Y-97528095D01*
X165727143Y-92527381D02*
X165393809Y-92051190D01*
X165155714Y-92527381D02*
X165155714Y-91527381D01*
X165536667Y-91527381D01*
X165631905Y-91575000D01*
X165679524Y-91622619D01*
X165727143Y-91717857D01*
X165727143Y-91860714D01*
X165679524Y-91955952D01*
X165631905Y-92003571D01*
X165536667Y-92051190D01*
X165155714Y-92051190D01*
X166679524Y-92527381D02*
X166108095Y-92527381D01*
X166393809Y-92527381D02*
X166393809Y-91527381D01*
X166298571Y-91670238D01*
X166203333Y-91765476D01*
X166108095Y-91813095D01*
X167060476Y-91622619D02*
X167108095Y-91575000D01*
X167203333Y-91527381D01*
X167441429Y-91527381D01*
X167536667Y-91575000D01*
X167584286Y-91622619D01*
X167631905Y-91717857D01*
X167631905Y-91813095D01*
X167584286Y-91955952D01*
X167012857Y-92527381D01*
X167631905Y-92527381D01*
X185951905Y-88082381D02*
X185951905Y-87082381D01*
X186190000Y-87082381D01*
X186332858Y-87130000D01*
X186428096Y-87225238D01*
X186475715Y-87320476D01*
X186523334Y-87510952D01*
X186523334Y-87653810D01*
X186475715Y-87844286D01*
X186428096Y-87939524D01*
X186332858Y-88034762D01*
X186190000Y-88082381D01*
X185951905Y-88082381D01*
X187380477Y-87415714D02*
X187380477Y-88082381D01*
X187142381Y-87034762D02*
X186904286Y-87749048D01*
X187523334Y-87749048D01*
X185951905Y-104592381D02*
X185951905Y-103592381D01*
X186190000Y-103592381D01*
X186332858Y-103640000D01*
X186428096Y-103735238D01*
X186475715Y-103830476D01*
X186523334Y-104020952D01*
X186523334Y-104163810D01*
X186475715Y-104354286D01*
X186428096Y-104449524D01*
X186332858Y-104544762D01*
X186190000Y-104592381D01*
X185951905Y-104592381D01*
X187428096Y-103592381D02*
X186951905Y-103592381D01*
X186904286Y-104068571D01*
X186951905Y-104020952D01*
X187047143Y-103973333D01*
X187285239Y-103973333D01*
X187380477Y-104020952D01*
X187428096Y-104068571D01*
X187475715Y-104163810D01*
X187475715Y-104401905D01*
X187428096Y-104497143D01*
X187380477Y-104544762D01*
X187285239Y-104592381D01*
X187047143Y-104592381D01*
X186951905Y-104544762D01*
X186904286Y-104497143D01*
X183181667Y-85812381D02*
X183181667Y-86526667D01*
X183134047Y-86669524D01*
X183038809Y-86764762D01*
X182895952Y-86812381D01*
X182800714Y-86812381D01*
X183705476Y-86812381D02*
X183895952Y-86812381D01*
X183991191Y-86764762D01*
X184038810Y-86717143D01*
X184134048Y-86574286D01*
X184181667Y-86383810D01*
X184181667Y-86002857D01*
X184134048Y-85907619D01*
X184086429Y-85860000D01*
X183991191Y-85812381D01*
X183800714Y-85812381D01*
X183705476Y-85860000D01*
X183657857Y-85907619D01*
X183610238Y-86002857D01*
X183610238Y-86240952D01*
X183657857Y-86336190D01*
X183705476Y-86383810D01*
X183800714Y-86431429D01*
X183991191Y-86431429D01*
X184086429Y-86383810D01*
X184134048Y-86336190D01*
X184181667Y-86240952D01*
X182705477Y-104227381D02*
X182705477Y-104941667D01*
X182657857Y-105084524D01*
X182562619Y-105179762D01*
X182419762Y-105227381D01*
X182324524Y-105227381D01*
X183705477Y-105227381D02*
X183134048Y-105227381D01*
X183419762Y-105227381D02*
X183419762Y-104227381D01*
X183324524Y-104370238D01*
X183229286Y-104465476D01*
X183134048Y-104513095D01*
X184562620Y-104560714D02*
X184562620Y-105227381D01*
X184324524Y-104179762D02*
X184086429Y-104894048D01*
X184705477Y-104894048D01*
X184142143Y-93797381D02*
X183808809Y-93321190D01*
X183570714Y-93797381D02*
X183570714Y-92797381D01*
X183951667Y-92797381D01*
X184046905Y-92845000D01*
X184094524Y-92892619D01*
X184142143Y-92987857D01*
X184142143Y-93130714D01*
X184094524Y-93225952D01*
X184046905Y-93273571D01*
X183951667Y-93321190D01*
X183570714Y-93321190D01*
X185094524Y-93797381D02*
X184523095Y-93797381D01*
X184808809Y-93797381D02*
X184808809Y-92797381D01*
X184713571Y-92940238D01*
X184618333Y-93035476D01*
X184523095Y-93083095D01*
X185427857Y-92797381D02*
X186046905Y-92797381D01*
X185713571Y-93178333D01*
X185856429Y-93178333D01*
X185951667Y-93225952D01*
X185999286Y-93273571D01*
X186046905Y-93368810D01*
X186046905Y-93606905D01*
X185999286Y-93702143D01*
X185951667Y-93749762D01*
X185856429Y-93797381D01*
X185570714Y-93797381D01*
X185475476Y-93749762D01*
X185427857Y-93702143D01*
X179697143Y-106497381D02*
X179363809Y-106021190D01*
X179125714Y-106497381D02*
X179125714Y-105497381D01*
X179506667Y-105497381D01*
X179601905Y-105545000D01*
X179649524Y-105592619D01*
X179697143Y-105687857D01*
X179697143Y-105830714D01*
X179649524Y-105925952D01*
X179601905Y-105973571D01*
X179506667Y-106021190D01*
X179125714Y-106021190D01*
X180649524Y-106497381D02*
X180078095Y-106497381D01*
X180363809Y-106497381D02*
X180363809Y-105497381D01*
X180268571Y-105640238D01*
X180173333Y-105735476D01*
X180078095Y-105783095D01*
X181506667Y-105830714D02*
X181506667Y-106497381D01*
X181268571Y-105449762D02*
X181030476Y-106164048D01*
X181649524Y-106164048D01*
X154178095Y-98512381D02*
X154178095Y-99321905D01*
X154225714Y-99417143D01*
X154273333Y-99464762D01*
X154368571Y-99512381D01*
X154559048Y-99512381D01*
X154654286Y-99464762D01*
X154701905Y-99417143D01*
X154749524Y-99321905D01*
X154749524Y-98512381D01*
X155130476Y-98512381D02*
X155797143Y-98512381D01*
X155368571Y-99512381D01*
X156718095Y-90892381D02*
X156718095Y-91701905D01*
X156765714Y-91797143D01*
X156813333Y-91844762D01*
X156908571Y-91892381D01*
X157099048Y-91892381D01*
X157194286Y-91844762D01*
X157241905Y-91797143D01*
X157289524Y-91701905D01*
X157289524Y-90892381D01*
X158241905Y-90892381D02*
X157765714Y-90892381D01*
X157718095Y-91368571D01*
X157765714Y-91320952D01*
X157860952Y-91273333D01*
X158099048Y-91273333D01*
X158194286Y-91320952D01*
X158241905Y-91368571D01*
X158289524Y-91463810D01*
X158289524Y-91701905D01*
X158241905Y-91797143D01*
X158194286Y-91844762D01*
X158099048Y-91892381D01*
X157860952Y-91892381D01*
X157765714Y-91844762D01*
X157718095Y-91797143D01*
X159853334Y-106402143D02*
X159805715Y-106449762D01*
X159662858Y-106497381D01*
X159567620Y-106497381D01*
X159424762Y-106449762D01*
X159329524Y-106354524D01*
X159281905Y-106259286D01*
X159234286Y-106068810D01*
X159234286Y-105925952D01*
X159281905Y-105735476D01*
X159329524Y-105640238D01*
X159424762Y-105545000D01*
X159567620Y-105497381D01*
X159662858Y-105497381D01*
X159805715Y-105545000D01*
X159853334Y-105592619D01*
X160758096Y-105497381D02*
X160281905Y-105497381D01*
X160234286Y-105973571D01*
X160281905Y-105925952D01*
X160377143Y-105878333D01*
X160615239Y-105878333D01*
X160710477Y-105925952D01*
X160758096Y-105973571D01*
X160805715Y-106068810D01*
X160805715Y-106306905D01*
X160758096Y-106402143D01*
X160710477Y-106449762D01*
X160615239Y-106497381D01*
X160377143Y-106497381D01*
X160281905Y-106449762D01*
X160234286Y-106402143D01*
X159853334Y-102592143D02*
X159805715Y-102639762D01*
X159662858Y-102687381D01*
X159567620Y-102687381D01*
X159424762Y-102639762D01*
X159329524Y-102544524D01*
X159281905Y-102449286D01*
X159234286Y-102258810D01*
X159234286Y-102115952D01*
X159281905Y-101925476D01*
X159329524Y-101830238D01*
X159424762Y-101735000D01*
X159567620Y-101687381D01*
X159662858Y-101687381D01*
X159805715Y-101735000D01*
X159853334Y-101782619D01*
X160710477Y-102020714D02*
X160710477Y-102687381D01*
X160472381Y-101639762D02*
X160234286Y-102354048D01*
X160853334Y-102354048D01*
X165401667Y-104862381D02*
X165401667Y-105576667D01*
X165354047Y-105719524D01*
X165258809Y-105814762D01*
X165115952Y-105862381D01*
X165020714Y-105862381D01*
X165782619Y-104862381D02*
X166401667Y-104862381D01*
X166068333Y-105243333D01*
X166211191Y-105243333D01*
X166306429Y-105290952D01*
X166354048Y-105338571D01*
X166401667Y-105433810D01*
X166401667Y-105671905D01*
X166354048Y-105767143D01*
X166306429Y-105814762D01*
X166211191Y-105862381D01*
X165925476Y-105862381D01*
X165830238Y-105814762D01*
X165782619Y-105767143D01*
X165401667Y-101052381D02*
X165401667Y-101766667D01*
X165354047Y-101909524D01*
X165258809Y-102004762D01*
X165115952Y-102052381D01*
X165020714Y-102052381D01*
X166306429Y-101052381D02*
X166115952Y-101052381D01*
X166020714Y-101100000D01*
X165973095Y-101147619D01*
X165877857Y-101290476D01*
X165830238Y-101480952D01*
X165830238Y-101861905D01*
X165877857Y-101957143D01*
X165925476Y-102004762D01*
X166020714Y-102052381D01*
X166211191Y-102052381D01*
X166306429Y-102004762D01*
X166354048Y-101957143D01*
X166401667Y-101861905D01*
X166401667Y-101623810D01*
X166354048Y-101528571D01*
X166306429Y-101480952D01*
X166211191Y-101433333D01*
X166020714Y-101433333D01*
X165925476Y-101480952D01*
X165877857Y-101528571D01*
X165830238Y-101623810D01*
D10*
X153638334Y-105396905D02*
X153638334Y-105968333D01*
X153600238Y-106082619D01*
X153524048Y-106158810D01*
X153409762Y-106196905D01*
X153333572Y-106196905D01*
X154019286Y-106196905D02*
X154019286Y-105396905D01*
X154324048Y-105396905D01*
X154400239Y-105435000D01*
X154438334Y-105473095D01*
X154476429Y-105549286D01*
X154476429Y-105663571D01*
X154438334Y-105739762D01*
X154400239Y-105777857D01*
X154324048Y-105815952D01*
X154019286Y-105815952D01*
X155238334Y-106196905D02*
X154781191Y-106196905D01*
X155009762Y-106196905D02*
X155009762Y-105396905D01*
X154933572Y-105511190D01*
X154857381Y-105587381D01*
X154781191Y-105625476D01*
M02*
