G04 #@! TF.FileFunction,Copper,L1,Top,Signal*
%FSLAX46Y46*%
G04 Gerber Fmt 4.6, Leading zero omitted, Abs format (unit mm)*
G04 Created by KiCad (PCBNEW 4.0.7-e2-6376~58~ubuntu17.04.1) date Mon Oct  2 11:40:20 2017*
%MOMM*%
%LPD*%
G01*
G04 APERTURE LIST*
%ADD10C,0.100000*%
%ADD11R,0.750000X1.200000*%
%ADD12R,1.200000X0.750000*%
%ADD13R,3.200000X1.500000*%
%ADD14R,1.700000X1.700000*%
%ADD15O,1.700000X1.700000*%
%ADD16R,1.700000X1.200000*%
%ADD17O,1.700000X1.200000*%
%ADD18R,0.900000X1.200000*%
%ADD19R,1.000760X1.000760*%
%ADD20R,0.550000X1.600000*%
%ADD21R,1.600000X0.550000*%
%ADD22R,1.597660X2.997200*%
%ADD23R,2.000000X1.000000*%
%ADD24R,0.600000X1.550000*%
%ADD25R,1.220000X0.650000*%
%ADD26R,0.700000X1.700000*%
%ADD27R,0.970000X1.270000*%
%ADD28C,0.600000*%
%ADD29C,0.250000*%
%ADD30C,0.254000*%
G04 APERTURE END LIST*
D10*
D11*
X170815000Y-86040000D03*
X170815000Y-84140000D03*
X173990000Y-84140000D03*
X173990000Y-86040000D03*
D12*
X182565000Y-100330000D03*
X184465000Y-100330000D03*
D13*
X149130000Y-88900000D03*
X153130000Y-88900000D03*
X156115000Y-85090000D03*
X160115000Y-85090000D03*
D11*
X164465000Y-79695000D03*
X164465000Y-81595000D03*
X167640000Y-79695000D03*
X167640000Y-81595000D03*
X187960000Y-85405000D03*
X187960000Y-83505000D03*
D14*
X170180000Y-109220000D03*
D15*
X172720000Y-109220000D03*
X175260000Y-109220000D03*
X177800000Y-109220000D03*
X180340000Y-109220000D03*
X182880000Y-109220000D03*
X185420000Y-109220000D03*
X187960000Y-109220000D03*
D14*
X170180000Y-80010000D03*
D15*
X172720000Y-80010000D03*
X175260000Y-80010000D03*
X177800000Y-80010000D03*
X180340000Y-80010000D03*
X182880000Y-80010000D03*
X185420000Y-80010000D03*
X187960000Y-80010000D03*
D16*
X150495000Y-81915000D03*
D17*
X150495000Y-83915000D03*
D18*
X187325000Y-94150000D03*
X187325000Y-96350000D03*
X181610000Y-103040000D03*
X181610000Y-105240000D03*
X187325000Y-99230000D03*
X187325000Y-101430000D03*
X184785000Y-85555000D03*
X184785000Y-83355000D03*
X181610000Y-85555000D03*
X181610000Y-83355000D03*
X161290000Y-79545000D03*
X161290000Y-81745000D03*
X187325000Y-88435000D03*
X187325000Y-90635000D03*
X167640000Y-83990000D03*
X167640000Y-86190000D03*
X164465000Y-86190000D03*
X164465000Y-83990000D03*
D19*
X151709120Y-97330260D03*
X148010880Y-103329740D03*
X148010880Y-97330260D03*
X151709120Y-103329740D03*
D20*
X182505000Y-88460000D03*
X181705000Y-88460000D03*
X180905000Y-88460000D03*
X180105000Y-88460000D03*
X179305000Y-88460000D03*
X178505000Y-88460000D03*
X177705000Y-88460000D03*
X176905000Y-88460000D03*
D21*
X175455000Y-89910000D03*
X175455000Y-90710000D03*
X175455000Y-91510000D03*
X175455000Y-92310000D03*
X175455000Y-93110000D03*
X175455000Y-93910000D03*
X175455000Y-94710000D03*
X175455000Y-95510000D03*
D20*
X176905000Y-96960000D03*
X177705000Y-96960000D03*
X178505000Y-96960000D03*
X179305000Y-96960000D03*
X180105000Y-96960000D03*
X180905000Y-96960000D03*
X181705000Y-96960000D03*
X182505000Y-96960000D03*
D21*
X183955000Y-95510000D03*
X183955000Y-94710000D03*
X183955000Y-93910000D03*
X183955000Y-93110000D03*
X183955000Y-92310000D03*
X183955000Y-91510000D03*
X183955000Y-90710000D03*
X183955000Y-89910000D03*
D22*
X170464480Y-89156540D03*
X168465500Y-89154000D03*
X166463980Y-89154000D03*
X164465000Y-89154000D03*
X162466020Y-89154000D03*
X160464500Y-89154000D03*
X158465520Y-89154000D03*
X158465520Y-105156000D03*
X160464500Y-105156000D03*
X162466020Y-105156000D03*
X164465000Y-105156000D03*
X166463980Y-105156000D03*
X168465500Y-105156000D03*
X170464480Y-105156000D03*
D23*
X155130000Y-92120000D03*
X155130000Y-93390000D03*
X155130000Y-94660000D03*
X155130000Y-95930000D03*
X155130000Y-97200000D03*
X155130000Y-98470000D03*
X155130000Y-99740000D03*
X155130000Y-101010000D03*
D24*
X175260000Y-105570000D03*
X176530000Y-105570000D03*
X177800000Y-105570000D03*
X179070000Y-105570000D03*
X179070000Y-100170000D03*
X177800000Y-100170000D03*
X176530000Y-100170000D03*
X175260000Y-100170000D03*
D25*
X158155000Y-81595000D03*
X158155000Y-79695000D03*
X155535000Y-80645000D03*
X184745000Y-103825000D03*
X184745000Y-105725000D03*
X187365000Y-104775000D03*
D26*
X176600000Y-85090000D03*
X177800000Y-85090000D03*
X179000000Y-85090000D03*
D14*
X191770000Y-84455000D03*
D15*
X191770000Y-86995000D03*
X191770000Y-89535000D03*
X191770000Y-92075000D03*
X191770000Y-94615000D03*
X191770000Y-97155000D03*
X191770000Y-99695000D03*
X191770000Y-102235000D03*
X191770000Y-104775000D03*
D27*
X160020000Y-109220000D03*
X161290000Y-109220000D03*
X162560000Y-109220000D03*
D28*
X182457900Y-86521400D03*
X181653200Y-92709900D03*
X169528500Y-86363100D03*
X185896300Y-90123800D03*
X185773500Y-93636400D03*
X183167500Y-87334700D03*
X178718400Y-91007800D03*
X174137500Y-91294100D03*
X176889500Y-90880000D03*
X176783900Y-91953900D03*
X181662500Y-98264300D03*
X182469500Y-98285700D03*
X182372100Y-90860100D03*
X182652000Y-91666900D03*
X185327400Y-91531500D03*
X185264600Y-90710000D03*
X172091100Y-95841000D03*
X171775000Y-89679400D03*
X176989900Y-95566900D03*
X179182000Y-101449600D03*
X176768800Y-94764900D03*
X167131300Y-107156400D03*
X176968400Y-98325700D03*
X173391400Y-92362800D03*
X186549700Y-93148300D03*
X173678800Y-104469700D03*
X170339500Y-95747500D03*
X171764700Y-104917000D03*
X181188800Y-93636400D03*
X172409500Y-90262400D03*
X180150000Y-91226100D03*
X179305000Y-93636400D03*
X176116700Y-88618800D03*
D29*
X153804700Y-94409000D02*
X151709100Y-96504600D01*
X153804700Y-93390000D02*
X153804700Y-94409000D01*
X151709100Y-97330300D02*
X151709100Y-96504600D01*
X179305000Y-88460000D02*
X179305000Y-89585300D01*
X154467400Y-93390000D02*
X153804700Y-93390000D01*
X170815000Y-84140000D02*
X171515300Y-84140000D01*
X180105000Y-96960000D02*
X180105000Y-95834700D01*
X158950200Y-87330100D02*
X158465500Y-87330100D01*
X160115000Y-86165300D02*
X158950200Y-87330100D01*
X158465500Y-89154000D02*
X158465500Y-88601900D01*
X158465500Y-88601900D02*
X158465500Y-87330100D01*
X155353400Y-88601900D02*
X155055300Y-88900000D01*
X158465500Y-88601900D02*
X155353400Y-88601900D01*
X153130000Y-88900000D02*
X155055300Y-88900000D01*
X153130000Y-87475300D02*
X153130000Y-88900000D01*
X150495000Y-84840300D02*
X153130000Y-87475300D01*
X150495000Y-83915000D02*
X150495000Y-84840300D01*
X179070000Y-105570000D02*
X179070000Y-104469700D01*
X160115000Y-85289900D02*
X160115000Y-86165300D01*
X160115000Y-85289900D02*
X160115000Y-85264600D01*
X160115000Y-85090000D02*
X160115000Y-85177300D01*
X160115000Y-85177300D02*
X160115000Y-85264600D01*
X180905000Y-89585300D02*
X179305000Y-89585300D01*
X154467400Y-93390000D02*
X155130000Y-93390000D01*
X156455300Y-92988100D02*
X158465500Y-90977900D01*
X156455300Y-93390000D02*
X156455300Y-92988100D01*
X155130000Y-93390000D02*
X156455300Y-93390000D01*
X158465500Y-89154000D02*
X158465500Y-90977900D01*
X151709100Y-100232500D02*
X151709100Y-97330300D01*
X154808700Y-103332100D02*
X151709100Y-100232500D01*
X162466000Y-103332100D02*
X154808700Y-103332100D01*
X162466000Y-105156000D02*
X162466000Y-103332100D01*
X166939700Y-79820600D02*
X166939700Y-79695000D01*
X165165300Y-81595000D02*
X166939700Y-79820600D01*
X164465000Y-81595000D02*
X165165300Y-81595000D01*
X167640000Y-79695000D02*
X166939700Y-79695000D01*
X162466000Y-105156000D02*
X162466000Y-106979900D01*
X160115000Y-85177300D02*
X162502400Y-85177300D01*
X162502400Y-85177300D02*
X163689700Y-83990000D01*
X162989300Y-80819600D02*
X163764700Y-81595000D01*
X158280100Y-80819600D02*
X162989300Y-80819600D01*
X158155000Y-80944700D02*
X158280100Y-80819600D01*
X158155000Y-81595000D02*
X158155000Y-80944700D01*
X164465000Y-83990000D02*
X164271200Y-83990000D01*
X164271200Y-83990000D02*
X163689700Y-83990000D01*
X164271200Y-83990000D02*
X164271200Y-81595000D01*
X164465000Y-81595000D02*
X164271200Y-81595000D01*
X164271200Y-81595000D02*
X163764700Y-81595000D01*
X180105000Y-93278700D02*
X180105000Y-95834700D01*
X178087000Y-91260700D02*
X180105000Y-93278700D01*
X178087000Y-90742700D02*
X178087000Y-91260700D01*
X179244400Y-89585300D02*
X178087000Y-90742700D01*
X179305000Y-89585300D02*
X179244400Y-89585300D01*
X171515300Y-86806400D02*
X171515300Y-84140000D01*
X171192800Y-87128900D02*
X171515300Y-86806400D01*
X163885900Y-87128900D02*
X171192800Y-87128900D01*
X162502400Y-85745400D02*
X163885900Y-87128900D01*
X162502400Y-85177300D02*
X162502400Y-85745400D01*
X191770000Y-102235000D02*
X191770000Y-103410300D01*
X180905000Y-89022600D02*
X180905000Y-89585300D01*
X180905000Y-89022600D02*
X180905000Y-88460000D01*
X180905000Y-88460000D02*
X180905000Y-87334700D01*
X187960000Y-85405000D02*
X187259700Y-85405000D01*
X181718300Y-86521400D02*
X182457900Y-86521400D01*
X180905000Y-87334700D02*
X181718300Y-86521400D01*
X186143300Y-86521400D02*
X187259700Y-85405000D01*
X182457900Y-86521400D02*
X186143300Y-86521400D01*
X182454800Y-104499400D02*
X182454800Y-106966600D01*
X182270000Y-104314600D02*
X182454800Y-104499400D01*
X179225100Y-104314600D02*
X182270000Y-104314600D01*
X179070000Y-104469700D02*
X179225100Y-104314600D01*
X181638200Y-107783200D02*
X182454800Y-106966600D01*
X163269300Y-107783200D02*
X181638200Y-107783200D01*
X162466000Y-106979900D02*
X163269300Y-107783200D01*
X177800000Y-85090000D02*
X177800000Y-83914700D01*
X173990000Y-84140000D02*
X171515300Y-84140000D01*
X173990000Y-84140000D02*
X174690300Y-84140000D01*
X174915600Y-83914700D02*
X177800000Y-83914700D01*
X174690300Y-84140000D02*
X174915600Y-83914700D01*
X177800000Y-80010000D02*
X177800000Y-81185300D01*
X177800000Y-83914700D02*
X177800000Y-81185300D01*
X191770000Y-103410300D02*
X191770000Y-104775000D01*
X191770000Y-104775000D02*
X190594700Y-104775000D01*
X190594700Y-104775000D02*
X188654700Y-106715000D01*
X189159500Y-107219800D02*
X188654700Y-106715000D01*
X189159500Y-109710100D02*
X189159500Y-107219800D01*
X188463900Y-110405700D02*
X189159500Y-109710100D01*
X187455000Y-110405700D02*
X188463900Y-110405700D01*
X186690000Y-109640700D02*
X187455000Y-110405700D01*
X186690000Y-108825800D02*
X186690000Y-109640700D01*
X184830800Y-106966600D02*
X186690000Y-108825800D01*
X182454800Y-106966600D02*
X184830800Y-106966600D01*
X188654700Y-106715000D02*
X187365000Y-105425300D01*
X187365000Y-105100100D02*
X187365000Y-105425300D01*
X187365000Y-105100100D02*
X187365000Y-104775000D01*
X187365000Y-103930300D02*
X184465000Y-101030300D01*
X187365000Y-104775000D02*
X187365000Y-103930300D01*
X184465000Y-100330000D02*
X184465000Y-101030300D01*
X164465000Y-86190000D02*
X167640000Y-86190000D01*
X167640000Y-86190000D02*
X168415300Y-86190000D01*
X183955000Y-94710000D02*
X182829700Y-94710000D01*
X168588400Y-86363100D02*
X169528500Y-86363100D01*
X168415300Y-86190000D02*
X168588400Y-86363100D01*
X168415300Y-81670000D02*
X168415300Y-86190000D01*
X168340300Y-81595000D02*
X168415300Y-81670000D01*
X167640000Y-81595000D02*
X168340300Y-81595000D01*
X181814100Y-92870800D02*
X181653200Y-92709900D01*
X181814100Y-93694400D02*
X181814100Y-92870800D01*
X182829700Y-94710000D02*
X181814100Y-93694400D01*
X180105000Y-88460000D02*
X180105000Y-87334700D01*
X178505000Y-87679300D02*
X178505000Y-88460000D01*
X178849600Y-87334700D02*
X178505000Y-87679300D01*
X180105000Y-87334700D02*
X178849600Y-87334700D01*
X180105000Y-86284700D02*
X180105000Y-87334700D01*
X180834700Y-85555000D02*
X180105000Y-86284700D01*
X181610000Y-85555000D02*
X180834700Y-85555000D01*
X164465000Y-79695000D02*
X165165300Y-79695000D01*
X172720000Y-80010000D02*
X171544700Y-80010000D01*
X170815000Y-86040000D02*
X170114700Y-86040000D01*
X172720000Y-80010000D02*
X175260000Y-80010000D01*
X180834700Y-84870700D02*
X180834700Y-85555000D01*
X179070000Y-83106000D02*
X180834700Y-84870700D01*
X179070000Y-79547900D02*
X179070000Y-83106000D01*
X178342900Y-78820800D02*
X179070000Y-79547900D01*
X177257200Y-78820800D02*
X178342900Y-78820800D01*
X176435300Y-79642700D02*
X177257200Y-78820800D01*
X176435300Y-80010000D02*
X176435300Y-79642700D01*
X175260000Y-80010000D02*
X176435300Y-80010000D01*
X171544700Y-81689800D02*
X171544700Y-80010000D01*
X170114700Y-83119800D02*
X171544700Y-81689800D01*
X170114700Y-86040000D02*
X170114700Y-83119800D01*
X166099600Y-78760700D02*
X165165300Y-79695000D01*
X171103400Y-78760700D02*
X166099600Y-78760700D01*
X171544700Y-79202000D02*
X171103400Y-78760700D01*
X171544700Y-80010000D02*
X171544700Y-79202000D01*
X177705000Y-97522600D02*
X177705000Y-98085300D01*
X177705000Y-97522600D02*
X177705000Y-96960000D01*
X158155000Y-79695000D02*
X159090300Y-79695000D01*
X178505000Y-88460000D02*
X178505000Y-89585300D01*
X161290000Y-109220000D02*
X161290000Y-110180300D01*
X177800000Y-105570000D02*
X177800000Y-104469700D01*
X181610000Y-85555000D02*
X184785000Y-85555000D01*
X185560300Y-85204400D02*
X187259700Y-83505000D01*
X185560300Y-85555000D02*
X185560300Y-85204400D01*
X187960000Y-83505000D02*
X187259700Y-83505000D01*
X184785000Y-85555000D02*
X185560300Y-85555000D01*
X187960000Y-83505000D02*
X188660300Y-83505000D01*
X188660300Y-90075000D02*
X188660300Y-83505000D01*
X188100300Y-90635000D02*
X188660300Y-90075000D01*
X177705000Y-96960000D02*
X177705000Y-95834700D01*
X159240300Y-79545000D02*
X161290000Y-79545000D01*
X159090300Y-79695000D02*
X159240300Y-79545000D01*
X163614700Y-79545000D02*
X163764700Y-79695000D01*
X161290000Y-79545000D02*
X163614700Y-79545000D01*
X164465000Y-79695000D02*
X163764700Y-79695000D01*
X176524800Y-100170000D02*
X176530000Y-100164800D01*
X175260000Y-100170000D02*
X176524800Y-100170000D01*
X176530000Y-100170000D02*
X176530000Y-100164800D01*
X176530000Y-100164800D02*
X176530000Y-99069700D01*
X187325000Y-99230000D02*
X187980900Y-99230000D01*
X191770000Y-99695000D02*
X190594700Y-99695000D01*
X183809700Y-105036100D02*
X183809700Y-105725000D01*
X182385300Y-103611700D02*
X183809700Y-105036100D01*
X182385300Y-103040000D02*
X182385300Y-103611700D01*
X181610000Y-103040000D02*
X182385300Y-103040000D01*
X184745000Y-105725000D02*
X183809700Y-105725000D01*
X177636700Y-90453600D02*
X178505000Y-89585300D01*
X177636700Y-95766400D02*
X177636700Y-90453600D01*
X177705000Y-95834700D02*
X177636700Y-95766400D01*
X177705000Y-98514900D02*
X177705000Y-98085300D01*
X177150200Y-99069700D02*
X177705000Y-98514900D01*
X176530000Y-99069700D02*
X177150200Y-99069700D01*
X178425300Y-102783200D02*
X178923000Y-103280900D01*
X178425300Y-99235200D02*
X178425300Y-102783200D01*
X177705000Y-98514900D02*
X178425300Y-99235200D01*
X178923000Y-103346700D02*
X177800000Y-104469700D01*
X178923000Y-103280900D02*
X178923000Y-103346700D01*
X180593800Y-103280900D02*
X180834700Y-103040000D01*
X178923000Y-103280900D02*
X180593800Y-103280900D01*
X181610000Y-103040000D02*
X180834700Y-103040000D01*
X187325000Y-90635000D02*
X187712700Y-90635000D01*
X187712700Y-90635000D02*
X188100300Y-90635000D01*
X187712700Y-92837000D02*
X187325000Y-93224700D01*
X187712700Y-90635000D02*
X187712700Y-92837000D01*
X187325000Y-94150000D02*
X187325000Y-93224700D01*
X187325000Y-94150000D02*
X188100300Y-94150000D01*
X188287800Y-94337500D02*
X188100300Y-94150000D01*
X188287800Y-98923100D02*
X188287800Y-94337500D01*
X187980900Y-99230000D02*
X188287800Y-98923100D01*
X189822800Y-98923100D02*
X190594700Y-99695000D01*
X188287800Y-98923100D02*
X189822800Y-98923100D01*
X150741200Y-79695000D02*
X158155000Y-79695000D01*
X147204600Y-83231600D02*
X150741200Y-79695000D01*
X147204600Y-94379600D02*
X147204600Y-83231600D01*
X150432900Y-97607900D02*
X147204600Y-94379600D01*
X150432900Y-103517900D02*
X150432900Y-97607900D01*
X157095300Y-110180300D02*
X150432900Y-103517900D01*
X161290000Y-110180300D02*
X157095300Y-110180300D01*
X182565000Y-100330000D02*
X183490300Y-100330000D01*
X185442300Y-92310000D02*
X183955000Y-92310000D01*
X185954100Y-91798200D02*
X185442300Y-92310000D01*
X185954100Y-90181600D02*
X185954100Y-91798200D01*
X185896300Y-90123800D02*
X185954100Y-90181600D01*
X187068900Y-100504700D02*
X185641100Y-99076800D01*
X187325000Y-100504700D02*
X187068900Y-100504700D01*
X183490300Y-99827500D02*
X183490300Y-100330000D01*
X184141400Y-99176400D02*
X183490300Y-99827500D01*
X185541500Y-99176400D02*
X184141400Y-99176400D01*
X185641100Y-99076800D02*
X185541500Y-99176400D01*
X187325000Y-101430000D02*
X187325000Y-100504700D01*
X146710600Y-101203700D02*
X148010900Y-102504000D01*
X146710600Y-83088700D02*
X146710600Y-101203700D01*
X151508000Y-78291300D02*
X146710600Y-83088700D01*
X187903900Y-78291300D02*
X151508000Y-78291300D01*
X191770000Y-82157400D02*
X187903900Y-78291300D01*
X191770000Y-84455000D02*
X191770000Y-82157400D01*
X148010900Y-103329700D02*
X148010900Y-102504000D01*
X185773500Y-98944400D02*
X185773500Y-93636400D01*
X185641100Y-99076800D02*
X185773500Y-98944400D01*
X149130000Y-83699300D02*
X149130000Y-88900000D01*
X149989000Y-82840300D02*
X149130000Y-83699300D01*
X150495000Y-82840300D02*
X149989000Y-82840300D01*
X150495000Y-81915000D02*
X150495000Y-82840300D01*
X150495000Y-81915000D02*
X151670300Y-81915000D01*
X155535000Y-80645000D02*
X155535000Y-81295300D01*
X170180000Y-80010000D02*
X169004700Y-80010000D01*
X167640000Y-83990000D02*
X167640000Y-83064700D01*
X166892700Y-82317400D02*
X167640000Y-83064700D01*
X166892700Y-80892200D02*
X166892700Y-82317400D01*
X167164500Y-80620400D02*
X166892700Y-80892200D01*
X168394300Y-80620400D02*
X167164500Y-80620400D01*
X169004700Y-80010000D02*
X168394300Y-80620400D01*
X155084700Y-81915000D02*
X151670300Y-81915000D01*
X155084700Y-81745600D02*
X155084700Y-81915000D01*
X155535000Y-81295300D02*
X155084700Y-81745600D01*
X155084700Y-82984400D02*
X156115000Y-84014700D01*
X155084700Y-81915000D02*
X155084700Y-82984400D01*
X156115000Y-85090000D02*
X156115000Y-84014700D01*
X158245000Y-84014700D02*
X156115000Y-84014700D01*
X160514700Y-81745000D02*
X158245000Y-84014700D01*
X161290000Y-81745000D02*
X160514700Y-81745000D01*
X182505000Y-88460000D02*
X182505000Y-87334700D01*
X182505000Y-87334700D02*
X183167500Y-87334700D01*
X181705000Y-88460000D02*
X181705000Y-89585300D01*
X179125400Y-90600800D02*
X178718400Y-91007800D01*
X180689500Y-90600800D02*
X179125400Y-90600800D01*
X181705000Y-89585300D02*
X180689500Y-90600800D01*
X174329700Y-91101900D02*
X174137500Y-91294100D01*
X174329700Y-89910000D02*
X174329700Y-91101900D01*
X175455000Y-89910000D02*
X174329700Y-89910000D01*
X176719500Y-90710000D02*
X176889500Y-90880000D01*
X175455000Y-90710000D02*
X176719500Y-90710000D01*
X176580300Y-91750300D02*
X176783900Y-91953900D01*
X176580300Y-91510000D02*
X176580300Y-91750300D01*
X175455000Y-91510000D02*
X176580300Y-91510000D01*
X181705000Y-96960000D02*
X181705000Y-98085300D01*
X181705000Y-98221800D02*
X181662500Y-98264300D01*
X181705000Y-98085300D02*
X181705000Y-98221800D01*
X182505000Y-98250200D02*
X182469500Y-98285700D01*
X182505000Y-96960000D02*
X182505000Y-98250200D01*
X181635600Y-82429700D02*
X182880000Y-81185300D01*
X181610000Y-82429700D02*
X181635600Y-82429700D01*
X182880000Y-80010000D02*
X182880000Y-81185300D01*
X181610000Y-83355000D02*
X181610000Y-82429700D01*
X183955000Y-93910000D02*
X182829700Y-93910000D01*
X182025000Y-91207200D02*
X182372100Y-90860100D01*
X182025000Y-92057400D02*
X182025000Y-91207200D01*
X182278500Y-92310900D02*
X182025000Y-92057400D01*
X182278500Y-93358800D02*
X182278500Y-92310900D01*
X182829700Y-93910000D02*
X182278500Y-93358800D01*
X184785000Y-81820300D02*
X184785000Y-83355000D01*
X185420000Y-81185300D02*
X184785000Y-81820300D01*
X185420000Y-80010000D02*
X185420000Y-81185300D01*
X183955000Y-93110000D02*
X182829700Y-93110000D01*
X182829700Y-91844600D02*
X182652000Y-91666900D01*
X182829700Y-93110000D02*
X182829700Y-91844600D01*
X183955000Y-91510000D02*
X185080300Y-91510000D01*
X185101800Y-91531500D02*
X185327400Y-91531500D01*
X185080300Y-91510000D02*
X185101800Y-91531500D01*
X183955000Y-90710000D02*
X185080300Y-90710000D01*
X185080300Y-90710000D02*
X185264600Y-90710000D01*
X155130000Y-99740000D02*
X156455300Y-99740000D01*
X176530000Y-105570000D02*
X176530000Y-104469700D01*
X175455000Y-95510000D02*
X174442300Y-95510000D01*
X172422100Y-95510000D02*
X172091100Y-95841000D01*
X174442300Y-95510000D02*
X172422100Y-95510000D01*
X170987400Y-89679400D02*
X171775000Y-89679400D01*
X170464500Y-89156500D02*
X170987400Y-89679400D01*
X172091100Y-98802800D02*
X171558700Y-99335200D01*
X172091100Y-95841000D02*
X172091100Y-98802800D01*
X176530000Y-104306500D02*
X171558700Y-99335200D01*
X176530000Y-104469700D02*
X176530000Y-104306500D01*
X156860100Y-99335200D02*
X156455300Y-99740000D01*
X171558700Y-99335200D02*
X156860100Y-99335200D01*
X176637200Y-95566900D02*
X176580300Y-95510000D01*
X176989900Y-95566900D02*
X176637200Y-95566900D01*
X175455000Y-95510000D02*
X176580300Y-95510000D01*
X179070000Y-100170000D02*
X179070000Y-101270300D01*
X179182000Y-101382300D02*
X179070000Y-101270300D01*
X179182000Y-101449600D02*
X179182000Y-101382300D01*
X175455000Y-94710000D02*
X176580300Y-94710000D01*
X176635200Y-94764900D02*
X176768800Y-94764900D01*
X176580300Y-94710000D02*
X176635200Y-94764900D01*
X168507800Y-98470000D02*
X155130000Y-98470000D01*
X172267800Y-94710000D02*
X168507800Y-98470000D01*
X175455000Y-94710000D02*
X172267800Y-94710000D01*
X166954800Y-106979900D02*
X166464000Y-106979900D01*
X167131300Y-107156400D02*
X166954800Y-106979900D01*
X166464000Y-105156000D02*
X166464000Y-106979900D01*
X177800000Y-100170000D02*
X177800000Y-101270300D01*
X176905000Y-96960000D02*
X176905000Y-98085300D01*
X168465500Y-105156000D02*
X168465500Y-103332100D01*
X177800000Y-101270300D02*
X177174600Y-101270300D01*
X176816500Y-98173800D02*
X176905000Y-98085300D01*
X176968400Y-98325700D02*
X176816500Y-98173800D01*
X174785400Y-101270300D02*
X177174600Y-101270300D01*
X174595800Y-101080700D02*
X174785400Y-101270300D01*
X174595800Y-99269200D02*
X174595800Y-101080700D01*
X175691200Y-98173800D02*
X174595800Y-99269200D01*
X176816500Y-98173800D02*
X175691200Y-98173800D01*
X155130000Y-97200000D02*
X153804700Y-97200000D01*
X171485000Y-103332100D02*
X168465500Y-103332100D01*
X174823300Y-106670400D02*
X171485000Y-103332100D01*
X177029900Y-106670400D02*
X174823300Y-106670400D01*
X177174600Y-106525700D02*
X177029900Y-106670400D01*
X177174600Y-101270300D02*
X177174600Y-106525700D01*
X153804700Y-101687500D02*
X153804700Y-97200000D01*
X154609200Y-102492000D02*
X153804700Y-101687500D01*
X167625400Y-102492000D02*
X154609200Y-102492000D01*
X168465500Y-103332100D02*
X167625400Y-102492000D01*
X174276900Y-92362800D02*
X174329700Y-92310000D01*
X173391400Y-92362800D02*
X174276900Y-92362800D01*
X175455000Y-92310000D02*
X174329700Y-92310000D01*
X187325000Y-96350000D02*
X186549700Y-96350000D01*
X186549700Y-93148300D02*
X186549700Y-96350000D01*
X175260000Y-105570000D02*
X175260000Y-104469700D01*
X175260000Y-104469700D02*
X173678800Y-104469700D01*
X175455000Y-93910000D02*
X174329700Y-93910000D01*
X170157000Y-95930000D02*
X170339500Y-95747500D01*
X155130000Y-95930000D02*
X170157000Y-95930000D01*
X181610000Y-105240000D02*
X180834700Y-105240000D01*
X170703500Y-104917000D02*
X170464500Y-105156000D01*
X171764700Y-104917000D02*
X170703500Y-104917000D01*
X180834700Y-105433800D02*
X180834700Y-105240000D01*
X179134300Y-107134200D02*
X180834700Y-105433800D01*
X173981900Y-107134200D02*
X179134300Y-107134200D01*
X171764700Y-104917000D02*
X173981900Y-107134200D01*
X172177000Y-93910000D02*
X170339500Y-95747500D01*
X174329700Y-93910000D02*
X172177000Y-93910000D01*
X187325000Y-88435000D02*
X186549700Y-88435000D01*
X183955000Y-95510000D02*
X184517700Y-95510000D01*
X184517700Y-95510000D02*
X185080300Y-95510000D01*
X184542900Y-103825000D02*
X184745000Y-103825000D01*
X181639600Y-100921700D02*
X184542900Y-103825000D01*
X181639600Y-99817600D02*
X181639600Y-100921700D01*
X182202100Y-99255100D02*
X181639600Y-99817600D01*
X182389800Y-99255100D02*
X182202100Y-99255100D01*
X184517700Y-97127200D02*
X182389800Y-99255100D01*
X184517700Y-95510000D02*
X184517700Y-97127200D01*
X185080300Y-93445300D02*
X185080300Y-95510000D01*
X186549700Y-91975900D02*
X185080300Y-93445300D01*
X186549700Y-88435000D02*
X186549700Y-91975900D01*
X177930600Y-87334700D02*
X177705000Y-87334700D01*
X179000000Y-86265300D02*
X177930600Y-87334700D01*
X179000000Y-85090000D02*
X179000000Y-86265300D01*
X177705000Y-88460000D02*
X177705000Y-87334700D01*
X176905000Y-86570300D02*
X176905000Y-88460000D01*
X176600000Y-86265300D02*
X176905000Y-86570300D01*
X176600000Y-85090000D02*
X176600000Y-86265300D01*
X160137400Y-90977900D02*
X160464500Y-90977900D01*
X156455300Y-94660000D02*
X160137400Y-90977900D01*
X155130000Y-94660000D02*
X156455300Y-94660000D01*
X160464500Y-89154000D02*
X160464500Y-90865300D01*
X160464500Y-90865300D02*
X160464500Y-90977900D01*
X162596600Y-93110000D02*
X175455000Y-93110000D01*
X160464500Y-90977900D02*
X162596600Y-93110000D01*
X187960000Y-107542900D02*
X187960000Y-109220000D01*
X184892500Y-104475400D02*
X187960000Y-107542900D01*
X183925600Y-104475400D02*
X184892500Y-104475400D01*
X183700300Y-104250100D02*
X183925600Y-104475400D01*
X183700300Y-103619400D02*
X183700300Y-104250100D01*
X181163800Y-101082900D02*
X183700300Y-103619400D01*
X181163800Y-100655300D02*
X181163800Y-101082900D01*
X178593800Y-98085300D02*
X181163800Y-100655300D01*
X178505000Y-98085300D02*
X178593800Y-98085300D01*
X178505000Y-96960000D02*
X178505000Y-98085300D01*
X180905000Y-96960000D02*
X180905000Y-95834700D01*
X180905000Y-93920200D02*
X181188800Y-93636400D01*
X180905000Y-95834700D02*
X180905000Y-93920200D01*
X182393300Y-89910000D02*
X183955000Y-89910000D01*
X181077200Y-91226100D02*
X182393300Y-89910000D01*
X180150000Y-91226100D02*
X181077200Y-91226100D01*
X168465500Y-89154000D02*
X168465500Y-90977900D01*
X171691400Y-90980500D02*
X172409500Y-90262400D01*
X168468100Y-90980500D02*
X171691400Y-90980500D01*
X168465500Y-90977900D02*
X168468100Y-90980500D01*
X173990000Y-86040000D02*
X173990000Y-86965300D01*
X174463200Y-86965300D02*
X176116700Y-88618800D01*
X173990000Y-86965300D02*
X174463200Y-86965300D01*
X179305000Y-96960000D02*
X179305000Y-93636400D01*
X150883300Y-95041400D02*
X153804700Y-92120000D01*
X150883300Y-100893600D02*
X150883300Y-95041400D01*
X159209700Y-109220000D02*
X150883300Y-100893600D01*
X160020000Y-109220000D02*
X159209700Y-109220000D01*
X155130000Y-92120000D02*
X153804700Y-92120000D01*
X162560000Y-109220000D02*
X162560000Y-108259700D01*
X160464500Y-105156000D02*
X160464500Y-106979900D01*
X161280200Y-106979900D02*
X162560000Y-108259700D01*
X160464500Y-106979900D02*
X161280200Y-106979900D01*
D30*
G36*
X149672900Y-97922702D02*
X149672900Y-103517900D01*
X149730752Y-103808739D01*
X149895499Y-104055301D01*
X156557899Y-110717701D01*
X156804460Y-110882448D01*
X156852714Y-110892046D01*
X157095300Y-110940300D01*
X161290000Y-110940300D01*
X161580839Y-110882448D01*
X161827401Y-110717701D01*
X161983601Y-110483931D01*
X162075000Y-110502440D01*
X163045000Y-110502440D01*
X163280317Y-110458162D01*
X163496441Y-110319090D01*
X163641431Y-110106890D01*
X163692440Y-109855000D01*
X163692440Y-108585000D01*
X163648162Y-108349683D01*
X163509090Y-108133559D01*
X163296890Y-107988569D01*
X163264775Y-107982065D01*
X163262148Y-107968861D01*
X163097401Y-107722299D01*
X162593022Y-107217920D01*
X162593022Y-107130852D01*
X162751770Y-107289600D01*
X163391160Y-107289600D01*
X163461291Y-107260551D01*
X163666170Y-107302040D01*
X165263830Y-107302040D01*
X165471856Y-107262897D01*
X165665150Y-107302040D01*
X165782767Y-107302040D01*
X165926599Y-107517301D01*
X166173161Y-107682048D01*
X166374966Y-107722190D01*
X166600973Y-107948592D01*
X166944501Y-108091238D01*
X167316467Y-108091562D01*
X167660243Y-107949517D01*
X167923492Y-107686727D01*
X168066138Y-107343199D01*
X168066174Y-107302040D01*
X169264330Y-107302040D01*
X169472356Y-107262897D01*
X169665650Y-107302040D01*
X171263310Y-107302040D01*
X171498627Y-107257762D01*
X171714751Y-107118690D01*
X171859741Y-106906490D01*
X171910750Y-106654600D01*
X171910750Y-106137852D01*
X173444499Y-107671601D01*
X173691060Y-107836348D01*
X173981900Y-107894200D01*
X174579089Y-107894200D01*
X174209946Y-108140853D01*
X173990000Y-108470026D01*
X173770054Y-108140853D01*
X173288285Y-107818946D01*
X172720000Y-107705907D01*
X172151715Y-107818946D01*
X171669946Y-108140853D01*
X171642150Y-108182452D01*
X171633162Y-108134683D01*
X171494090Y-107918559D01*
X171281890Y-107773569D01*
X171030000Y-107722560D01*
X169330000Y-107722560D01*
X169094683Y-107766838D01*
X168878559Y-107905910D01*
X168733569Y-108118110D01*
X168682560Y-108370000D01*
X168682560Y-110070000D01*
X168726838Y-110305317D01*
X168865910Y-110521441D01*
X169078110Y-110666431D01*
X169330000Y-110717440D01*
X171030000Y-110717440D01*
X171265317Y-110673162D01*
X171481441Y-110534090D01*
X171626431Y-110321890D01*
X171640086Y-110254459D01*
X171669946Y-110299147D01*
X172151715Y-110621054D01*
X172720000Y-110734093D01*
X173288285Y-110621054D01*
X173770054Y-110299147D01*
X173990000Y-109969974D01*
X174209946Y-110299147D01*
X174691715Y-110621054D01*
X175260000Y-110734093D01*
X175828285Y-110621054D01*
X176310054Y-110299147D01*
X176530000Y-109969974D01*
X176749946Y-110299147D01*
X177231715Y-110621054D01*
X177800000Y-110734093D01*
X178368285Y-110621054D01*
X178850054Y-110299147D01*
X179070000Y-109969974D01*
X179289946Y-110299147D01*
X179771715Y-110621054D01*
X180340000Y-110734093D01*
X180908285Y-110621054D01*
X181390054Y-110299147D01*
X181610000Y-109969974D01*
X181829946Y-110299147D01*
X182311715Y-110621054D01*
X182880000Y-110734093D01*
X183448285Y-110621054D01*
X183930054Y-110299147D01*
X184150000Y-109969974D01*
X184369946Y-110299147D01*
X184851715Y-110621054D01*
X185420000Y-110734093D01*
X185988285Y-110621054D01*
X186470054Y-110299147D01*
X186690000Y-109969974D01*
X186909946Y-110299147D01*
X187391715Y-110621054D01*
X187960000Y-110734093D01*
X188528285Y-110621054D01*
X189010054Y-110299147D01*
X189331961Y-109817378D01*
X189445000Y-109249093D01*
X189445000Y-109190907D01*
X189331961Y-108622622D01*
X189010054Y-108140853D01*
X188720000Y-107947046D01*
X188720000Y-107542900D01*
X188662148Y-107252061D01*
X188497401Y-107005499D01*
X187153076Y-105661174D01*
X187238000Y-105576250D01*
X187238000Y-104902000D01*
X187492000Y-104902000D01*
X187492000Y-105576250D01*
X187650750Y-105735000D01*
X188101309Y-105735000D01*
X188334698Y-105638327D01*
X188513327Y-105459699D01*
X188610000Y-105226310D01*
X188610000Y-105131890D01*
X190328524Y-105131890D01*
X190498355Y-105541924D01*
X190888642Y-105970183D01*
X191413108Y-106216486D01*
X191643000Y-106095819D01*
X191643000Y-104902000D01*
X190449845Y-104902000D01*
X190328524Y-105131890D01*
X188610000Y-105131890D01*
X188610000Y-105060750D01*
X188451250Y-104902000D01*
X187492000Y-104902000D01*
X187238000Y-104902000D01*
X187218000Y-104902000D01*
X187218000Y-104648000D01*
X187238000Y-104648000D01*
X187238000Y-103973750D01*
X187492000Y-103973750D01*
X187492000Y-104648000D01*
X188451250Y-104648000D01*
X188610000Y-104489250D01*
X188610000Y-104323690D01*
X188513327Y-104090301D01*
X188334698Y-103911673D01*
X188101309Y-103815000D01*
X187650750Y-103815000D01*
X187492000Y-103973750D01*
X187238000Y-103973750D01*
X187079250Y-103815000D01*
X186628691Y-103815000D01*
X186395302Y-103911673D01*
X186216673Y-104090301D01*
X186120000Y-104323690D01*
X186120000Y-104489250D01*
X186278748Y-104647998D01*
X186139900Y-104647998D01*
X185928034Y-104436132D01*
X185951431Y-104401890D01*
X186002440Y-104150000D01*
X186002440Y-103500000D01*
X185958162Y-103264683D01*
X185819090Y-103048559D01*
X185606890Y-102903569D01*
X185355000Y-102852560D01*
X184645262Y-102852560D01*
X183145142Y-101352440D01*
X183165000Y-101352440D01*
X183400317Y-101308162D01*
X183503646Y-101241671D01*
X183505302Y-101243327D01*
X183738691Y-101340000D01*
X184179250Y-101340000D01*
X184338000Y-101181250D01*
X184338000Y-100457000D01*
X184592000Y-100457000D01*
X184592000Y-101181250D01*
X184750750Y-101340000D01*
X185191309Y-101340000D01*
X185424698Y-101243327D01*
X185603327Y-101064699D01*
X185700000Y-100831310D01*
X185700000Y-100615750D01*
X185541250Y-100457000D01*
X184592000Y-100457000D01*
X184338000Y-100457000D01*
X184318000Y-100457000D01*
X184318000Y-100203000D01*
X184338000Y-100203000D01*
X184338000Y-100183000D01*
X184592000Y-100183000D01*
X184592000Y-100203000D01*
X185541250Y-100203000D01*
X185616856Y-100127394D01*
X186243029Y-100753611D01*
X186227560Y-100830000D01*
X186227560Y-102030000D01*
X186271838Y-102265317D01*
X186410910Y-102481441D01*
X186623110Y-102626431D01*
X186875000Y-102677440D01*
X187775000Y-102677440D01*
X188010317Y-102633162D01*
X188074455Y-102591890D01*
X190328524Y-102591890D01*
X190498355Y-103001924D01*
X190888642Y-103430183D01*
X191047954Y-103505000D01*
X190888642Y-103579817D01*
X190498355Y-104008076D01*
X190328524Y-104418110D01*
X190449845Y-104648000D01*
X191643000Y-104648000D01*
X191643000Y-102362000D01*
X190449845Y-102362000D01*
X190328524Y-102591890D01*
X188074455Y-102591890D01*
X188226441Y-102494090D01*
X188371431Y-102281890D01*
X188422440Y-102030000D01*
X188422440Y-100830000D01*
X188378162Y-100594683D01*
X188239090Y-100378559D01*
X188169289Y-100330866D01*
X188226441Y-100294090D01*
X188371431Y-100081890D01*
X188422100Y-99831680D01*
X188518301Y-99767401D01*
X188602602Y-99683100D01*
X189507998Y-99683100D01*
X190057299Y-100232401D01*
X190303860Y-100397148D01*
X190352114Y-100406746D01*
X190482077Y-100432598D01*
X190690853Y-100745054D01*
X191031553Y-100972702D01*
X190888642Y-101039817D01*
X190498355Y-101468076D01*
X190328524Y-101878110D01*
X190449845Y-102108000D01*
X191643000Y-102108000D01*
X191643000Y-102088000D01*
X191897000Y-102088000D01*
X191897000Y-102108000D01*
X191917000Y-102108000D01*
X191917000Y-102362000D01*
X191897000Y-102362000D01*
X191897000Y-104648000D01*
X191917000Y-104648000D01*
X191917000Y-104902000D01*
X191897000Y-104902000D01*
X191897000Y-106095819D01*
X192126892Y-106216486D01*
X192330000Y-106121101D01*
X192330000Y-108925909D01*
X190205908Y-111050000D01*
X148884091Y-111050000D01*
X146760000Y-108925908D01*
X146760000Y-102327902D01*
X146952834Y-102520736D01*
X146914069Y-102577470D01*
X146863060Y-102829360D01*
X146863060Y-103830120D01*
X146907338Y-104065437D01*
X147046410Y-104281561D01*
X147258610Y-104426551D01*
X147510500Y-104477560D01*
X148511260Y-104477560D01*
X148746577Y-104433282D01*
X148962701Y-104294210D01*
X149107691Y-104082010D01*
X149158700Y-103830120D01*
X149158700Y-102829360D01*
X149114422Y-102594043D01*
X148975350Y-102377919D01*
X148763150Y-102232929D01*
X148715042Y-102223187D01*
X148713048Y-102213161D01*
X148548301Y-101966599D01*
X147470600Y-100888898D01*
X147470600Y-98470000D01*
X147510500Y-98478080D01*
X148511260Y-98478080D01*
X148746577Y-98433802D01*
X148962701Y-98294730D01*
X149107691Y-98082530D01*
X149158700Y-97830640D01*
X149158700Y-97408502D01*
X149672900Y-97922702D01*
X149672900Y-97922702D01*
G37*
X149672900Y-97922702D02*
X149672900Y-103517900D01*
X149730752Y-103808739D01*
X149895499Y-104055301D01*
X156557899Y-110717701D01*
X156804460Y-110882448D01*
X156852714Y-110892046D01*
X157095300Y-110940300D01*
X161290000Y-110940300D01*
X161580839Y-110882448D01*
X161827401Y-110717701D01*
X161983601Y-110483931D01*
X162075000Y-110502440D01*
X163045000Y-110502440D01*
X163280317Y-110458162D01*
X163496441Y-110319090D01*
X163641431Y-110106890D01*
X163692440Y-109855000D01*
X163692440Y-108585000D01*
X163648162Y-108349683D01*
X163509090Y-108133559D01*
X163296890Y-107988569D01*
X163264775Y-107982065D01*
X163262148Y-107968861D01*
X163097401Y-107722299D01*
X162593022Y-107217920D01*
X162593022Y-107130852D01*
X162751770Y-107289600D01*
X163391160Y-107289600D01*
X163461291Y-107260551D01*
X163666170Y-107302040D01*
X165263830Y-107302040D01*
X165471856Y-107262897D01*
X165665150Y-107302040D01*
X165782767Y-107302040D01*
X165926599Y-107517301D01*
X166173161Y-107682048D01*
X166374966Y-107722190D01*
X166600973Y-107948592D01*
X166944501Y-108091238D01*
X167316467Y-108091562D01*
X167660243Y-107949517D01*
X167923492Y-107686727D01*
X168066138Y-107343199D01*
X168066174Y-107302040D01*
X169264330Y-107302040D01*
X169472356Y-107262897D01*
X169665650Y-107302040D01*
X171263310Y-107302040D01*
X171498627Y-107257762D01*
X171714751Y-107118690D01*
X171859741Y-106906490D01*
X171910750Y-106654600D01*
X171910750Y-106137852D01*
X173444499Y-107671601D01*
X173691060Y-107836348D01*
X173981900Y-107894200D01*
X174579089Y-107894200D01*
X174209946Y-108140853D01*
X173990000Y-108470026D01*
X173770054Y-108140853D01*
X173288285Y-107818946D01*
X172720000Y-107705907D01*
X172151715Y-107818946D01*
X171669946Y-108140853D01*
X171642150Y-108182452D01*
X171633162Y-108134683D01*
X171494090Y-107918559D01*
X171281890Y-107773569D01*
X171030000Y-107722560D01*
X169330000Y-107722560D01*
X169094683Y-107766838D01*
X168878559Y-107905910D01*
X168733569Y-108118110D01*
X168682560Y-108370000D01*
X168682560Y-110070000D01*
X168726838Y-110305317D01*
X168865910Y-110521441D01*
X169078110Y-110666431D01*
X169330000Y-110717440D01*
X171030000Y-110717440D01*
X171265317Y-110673162D01*
X171481441Y-110534090D01*
X171626431Y-110321890D01*
X171640086Y-110254459D01*
X171669946Y-110299147D01*
X172151715Y-110621054D01*
X172720000Y-110734093D01*
X173288285Y-110621054D01*
X173770054Y-110299147D01*
X173990000Y-109969974D01*
X174209946Y-110299147D01*
X174691715Y-110621054D01*
X175260000Y-110734093D01*
X175828285Y-110621054D01*
X176310054Y-110299147D01*
X176530000Y-109969974D01*
X176749946Y-110299147D01*
X177231715Y-110621054D01*
X177800000Y-110734093D01*
X178368285Y-110621054D01*
X178850054Y-110299147D01*
X179070000Y-109969974D01*
X179289946Y-110299147D01*
X179771715Y-110621054D01*
X180340000Y-110734093D01*
X180908285Y-110621054D01*
X181390054Y-110299147D01*
X181610000Y-109969974D01*
X181829946Y-110299147D01*
X182311715Y-110621054D01*
X182880000Y-110734093D01*
X183448285Y-110621054D01*
X183930054Y-110299147D01*
X184150000Y-109969974D01*
X184369946Y-110299147D01*
X184851715Y-110621054D01*
X185420000Y-110734093D01*
X185988285Y-110621054D01*
X186470054Y-110299147D01*
X186690000Y-109969974D01*
X186909946Y-110299147D01*
X187391715Y-110621054D01*
X187960000Y-110734093D01*
X188528285Y-110621054D01*
X189010054Y-110299147D01*
X189331961Y-109817378D01*
X189445000Y-109249093D01*
X189445000Y-109190907D01*
X189331961Y-108622622D01*
X189010054Y-108140853D01*
X188720000Y-107947046D01*
X188720000Y-107542900D01*
X188662148Y-107252061D01*
X188497401Y-107005499D01*
X187153076Y-105661174D01*
X187238000Y-105576250D01*
X187238000Y-104902000D01*
X187492000Y-104902000D01*
X187492000Y-105576250D01*
X187650750Y-105735000D01*
X188101309Y-105735000D01*
X188334698Y-105638327D01*
X188513327Y-105459699D01*
X188610000Y-105226310D01*
X188610000Y-105131890D01*
X190328524Y-105131890D01*
X190498355Y-105541924D01*
X190888642Y-105970183D01*
X191413108Y-106216486D01*
X191643000Y-106095819D01*
X191643000Y-104902000D01*
X190449845Y-104902000D01*
X190328524Y-105131890D01*
X188610000Y-105131890D01*
X188610000Y-105060750D01*
X188451250Y-104902000D01*
X187492000Y-104902000D01*
X187238000Y-104902000D01*
X187218000Y-104902000D01*
X187218000Y-104648000D01*
X187238000Y-104648000D01*
X187238000Y-103973750D01*
X187492000Y-103973750D01*
X187492000Y-104648000D01*
X188451250Y-104648000D01*
X188610000Y-104489250D01*
X188610000Y-104323690D01*
X188513327Y-104090301D01*
X188334698Y-103911673D01*
X188101309Y-103815000D01*
X187650750Y-103815000D01*
X187492000Y-103973750D01*
X187238000Y-103973750D01*
X187079250Y-103815000D01*
X186628691Y-103815000D01*
X186395302Y-103911673D01*
X186216673Y-104090301D01*
X186120000Y-104323690D01*
X186120000Y-104489250D01*
X186278748Y-104647998D01*
X186139900Y-104647998D01*
X185928034Y-104436132D01*
X185951431Y-104401890D01*
X186002440Y-104150000D01*
X186002440Y-103500000D01*
X185958162Y-103264683D01*
X185819090Y-103048559D01*
X185606890Y-102903569D01*
X185355000Y-102852560D01*
X184645262Y-102852560D01*
X183145142Y-101352440D01*
X183165000Y-101352440D01*
X183400317Y-101308162D01*
X183503646Y-101241671D01*
X183505302Y-101243327D01*
X183738691Y-101340000D01*
X184179250Y-101340000D01*
X184338000Y-101181250D01*
X184338000Y-100457000D01*
X184592000Y-100457000D01*
X184592000Y-101181250D01*
X184750750Y-101340000D01*
X185191309Y-101340000D01*
X185424698Y-101243327D01*
X185603327Y-101064699D01*
X185700000Y-100831310D01*
X185700000Y-100615750D01*
X185541250Y-100457000D01*
X184592000Y-100457000D01*
X184338000Y-100457000D01*
X184318000Y-100457000D01*
X184318000Y-100203000D01*
X184338000Y-100203000D01*
X184338000Y-100183000D01*
X184592000Y-100183000D01*
X184592000Y-100203000D01*
X185541250Y-100203000D01*
X185616856Y-100127394D01*
X186243029Y-100753611D01*
X186227560Y-100830000D01*
X186227560Y-102030000D01*
X186271838Y-102265317D01*
X186410910Y-102481441D01*
X186623110Y-102626431D01*
X186875000Y-102677440D01*
X187775000Y-102677440D01*
X188010317Y-102633162D01*
X188074455Y-102591890D01*
X190328524Y-102591890D01*
X190498355Y-103001924D01*
X190888642Y-103430183D01*
X191047954Y-103505000D01*
X190888642Y-103579817D01*
X190498355Y-104008076D01*
X190328524Y-104418110D01*
X190449845Y-104648000D01*
X191643000Y-104648000D01*
X191643000Y-102362000D01*
X190449845Y-102362000D01*
X190328524Y-102591890D01*
X188074455Y-102591890D01*
X188226441Y-102494090D01*
X188371431Y-102281890D01*
X188422440Y-102030000D01*
X188422440Y-100830000D01*
X188378162Y-100594683D01*
X188239090Y-100378559D01*
X188169289Y-100330866D01*
X188226441Y-100294090D01*
X188371431Y-100081890D01*
X188422100Y-99831680D01*
X188518301Y-99767401D01*
X188602602Y-99683100D01*
X189507998Y-99683100D01*
X190057299Y-100232401D01*
X190303860Y-100397148D01*
X190352114Y-100406746D01*
X190482077Y-100432598D01*
X190690853Y-100745054D01*
X191031553Y-100972702D01*
X190888642Y-101039817D01*
X190498355Y-101468076D01*
X190328524Y-101878110D01*
X190449845Y-102108000D01*
X191643000Y-102108000D01*
X191643000Y-102088000D01*
X191897000Y-102088000D01*
X191897000Y-102108000D01*
X191917000Y-102108000D01*
X191917000Y-102362000D01*
X191897000Y-102362000D01*
X191897000Y-104648000D01*
X191917000Y-104648000D01*
X191917000Y-104902000D01*
X191897000Y-104902000D01*
X191897000Y-106095819D01*
X192126892Y-106216486D01*
X192330000Y-106121101D01*
X192330000Y-108925909D01*
X190205908Y-111050000D01*
X148884091Y-111050000D01*
X146760000Y-108925908D01*
X146760000Y-102327902D01*
X146952834Y-102520736D01*
X146914069Y-102577470D01*
X146863060Y-102829360D01*
X146863060Y-103830120D01*
X146907338Y-104065437D01*
X147046410Y-104281561D01*
X147258610Y-104426551D01*
X147510500Y-104477560D01*
X148511260Y-104477560D01*
X148746577Y-104433282D01*
X148962701Y-104294210D01*
X149107691Y-104082010D01*
X149158700Y-103830120D01*
X149158700Y-102829360D01*
X149114422Y-102594043D01*
X148975350Y-102377919D01*
X148763150Y-102232929D01*
X148715042Y-102223187D01*
X148713048Y-102213161D01*
X148548301Y-101966599D01*
X147470600Y-100888898D01*
X147470600Y-98470000D01*
X147510500Y-98478080D01*
X148511260Y-98478080D01*
X148746577Y-98433802D01*
X148962701Y-98294730D01*
X149107691Y-98082530D01*
X149158700Y-97830640D01*
X149158700Y-97408502D01*
X149672900Y-97922702D01*
G36*
X183049700Y-105350902D02*
X183049700Y-105725000D01*
X183107552Y-106015839D01*
X183272299Y-106262401D01*
X183518861Y-106427148D01*
X183638405Y-106450927D01*
X183670910Y-106501441D01*
X183883110Y-106646431D01*
X184135000Y-106697440D01*
X185355000Y-106697440D01*
X185590317Y-106653162D01*
X185806441Y-106514090D01*
X185826715Y-106484417D01*
X187200000Y-107857702D01*
X187200000Y-107947046D01*
X186909946Y-108140853D01*
X186690000Y-108470026D01*
X186470054Y-108140853D01*
X185988285Y-107818946D01*
X185420000Y-107705907D01*
X184851715Y-107818946D01*
X184369946Y-108140853D01*
X184150000Y-108470026D01*
X183930054Y-108140853D01*
X183448285Y-107818946D01*
X182880000Y-107705907D01*
X182311715Y-107818946D01*
X181829946Y-108140853D01*
X181610000Y-108470026D01*
X181390054Y-108140853D01*
X180908285Y-107818946D01*
X180340000Y-107705907D01*
X179771715Y-107818946D01*
X179289946Y-108140853D01*
X179070000Y-108470026D01*
X178850054Y-108140853D01*
X178480911Y-107894200D01*
X179134300Y-107894200D01*
X179425139Y-107836348D01*
X179671701Y-107671601D01*
X180907374Y-106435928D01*
X180908110Y-106436431D01*
X181160000Y-106487440D01*
X182060000Y-106487440D01*
X182295317Y-106443162D01*
X182511441Y-106304090D01*
X182656431Y-106091890D01*
X182707440Y-105840000D01*
X182707440Y-105008642D01*
X183049700Y-105350902D01*
X183049700Y-105350902D01*
G37*
X183049700Y-105350902D02*
X183049700Y-105725000D01*
X183107552Y-106015839D01*
X183272299Y-106262401D01*
X183518861Y-106427148D01*
X183638405Y-106450927D01*
X183670910Y-106501441D01*
X183883110Y-106646431D01*
X184135000Y-106697440D01*
X185355000Y-106697440D01*
X185590317Y-106653162D01*
X185806441Y-106514090D01*
X185826715Y-106484417D01*
X187200000Y-107857702D01*
X187200000Y-107947046D01*
X186909946Y-108140853D01*
X186690000Y-108470026D01*
X186470054Y-108140853D01*
X185988285Y-107818946D01*
X185420000Y-107705907D01*
X184851715Y-107818946D01*
X184369946Y-108140853D01*
X184150000Y-108470026D01*
X183930054Y-108140853D01*
X183448285Y-107818946D01*
X182880000Y-107705907D01*
X182311715Y-107818946D01*
X181829946Y-108140853D01*
X181610000Y-108470026D01*
X181390054Y-108140853D01*
X180908285Y-107818946D01*
X180340000Y-107705907D01*
X179771715Y-107818946D01*
X179289946Y-108140853D01*
X179070000Y-108470026D01*
X178850054Y-108140853D01*
X178480911Y-107894200D01*
X179134300Y-107894200D01*
X179425139Y-107836348D01*
X179671701Y-107671601D01*
X180907374Y-106435928D01*
X180908110Y-106436431D01*
X181160000Y-106487440D01*
X182060000Y-106487440D01*
X182295317Y-106443162D01*
X182511441Y-106304090D01*
X182656431Y-106091890D01*
X182707440Y-105840000D01*
X182707440Y-105008642D01*
X183049700Y-105350902D01*
G36*
X154318361Y-103194148D02*
X154609200Y-103252000D01*
X157175148Y-103252000D01*
X157070259Y-103405510D01*
X157019250Y-103657400D01*
X157019250Y-105954748D01*
X154138413Y-103073911D01*
X154318361Y-103194148D01*
X154318361Y-103194148D01*
G37*
X154318361Y-103194148D02*
X154609200Y-103252000D01*
X157175148Y-103252000D01*
X157070259Y-103405510D01*
X157019250Y-103657400D01*
X157019250Y-105954748D01*
X154138413Y-103073911D01*
X154318361Y-103194148D01*
G36*
X179197000Y-105443000D02*
X179217000Y-105443000D01*
X179217000Y-105697000D01*
X179197000Y-105697000D01*
X179197000Y-105717000D01*
X178943000Y-105717000D01*
X178943000Y-105697000D01*
X178923000Y-105697000D01*
X178923000Y-105443000D01*
X178943000Y-105443000D01*
X178943000Y-105423000D01*
X179197000Y-105423000D01*
X179197000Y-105443000D01*
X179197000Y-105443000D01*
G37*
X179197000Y-105443000D02*
X179217000Y-105443000D01*
X179217000Y-105697000D01*
X179197000Y-105697000D01*
X179197000Y-105717000D01*
X178943000Y-105717000D01*
X178943000Y-105697000D01*
X178923000Y-105697000D01*
X178923000Y-105443000D01*
X178943000Y-105443000D01*
X178943000Y-105423000D01*
X179197000Y-105423000D01*
X179197000Y-105443000D01*
G36*
X162593020Y-105029000D02*
X162613020Y-105029000D01*
X162613020Y-105283000D01*
X162593020Y-105283000D01*
X162593020Y-105303000D01*
X162339020Y-105303000D01*
X162339020Y-105283000D01*
X162319020Y-105283000D01*
X162319020Y-105029000D01*
X162339020Y-105029000D01*
X162339020Y-105009000D01*
X162593020Y-105009000D01*
X162593020Y-105029000D01*
X162593020Y-105029000D01*
G37*
X162593020Y-105029000D02*
X162613020Y-105029000D01*
X162613020Y-105283000D01*
X162593020Y-105283000D01*
X162593020Y-105303000D01*
X162339020Y-105303000D01*
X162339020Y-105283000D01*
X162319020Y-105283000D01*
X162319020Y-105029000D01*
X162339020Y-105029000D01*
X162339020Y-105009000D01*
X162593020Y-105009000D01*
X162593020Y-105029000D01*
G36*
X153495000Y-93517002D02*
X153653748Y-93517002D01*
X153495000Y-93675750D01*
X153495000Y-94016309D01*
X153506188Y-94043320D01*
X153482560Y-94160000D01*
X153482560Y-95160000D01*
X153508895Y-95299956D01*
X153482560Y-95430000D01*
X153482560Y-96430000D01*
X153497397Y-96508853D01*
X153267299Y-96662599D01*
X153102552Y-96909161D01*
X153044700Y-97200000D01*
X153044700Y-101687500D01*
X153102552Y-101978339D01*
X153222789Y-102158287D01*
X151643300Y-100578798D01*
X151643300Y-97457260D01*
X151836120Y-97457260D01*
X151836120Y-98306890D01*
X151994870Y-98465640D01*
X152335810Y-98465640D01*
X152569199Y-98368967D01*
X152747827Y-98190338D01*
X152844500Y-97956949D01*
X152844500Y-97616010D01*
X152685750Y-97457260D01*
X151836120Y-97457260D01*
X151643300Y-97457260D01*
X151643300Y-96353630D01*
X151836120Y-96353630D01*
X151836120Y-97203260D01*
X152685750Y-97203260D01*
X152844500Y-97044510D01*
X152844500Y-96703571D01*
X152747827Y-96470182D01*
X152569199Y-96291553D01*
X152335810Y-96194880D01*
X151994870Y-96194880D01*
X151836120Y-96353630D01*
X151643300Y-96353630D01*
X151643300Y-95356202D01*
X153495000Y-93504503D01*
X153495000Y-93517002D01*
X153495000Y-93517002D01*
G37*
X153495000Y-93517002D02*
X153653748Y-93517002D01*
X153495000Y-93675750D01*
X153495000Y-94016309D01*
X153506188Y-94043320D01*
X153482560Y-94160000D01*
X153482560Y-95160000D01*
X153508895Y-95299956D01*
X153482560Y-95430000D01*
X153482560Y-96430000D01*
X153497397Y-96508853D01*
X153267299Y-96662599D01*
X153102552Y-96909161D01*
X153044700Y-97200000D01*
X153044700Y-101687500D01*
X153102552Y-101978339D01*
X153222789Y-102158287D01*
X151643300Y-100578798D01*
X151643300Y-97457260D01*
X151836120Y-97457260D01*
X151836120Y-98306890D01*
X151994870Y-98465640D01*
X152335810Y-98465640D01*
X152569199Y-98368967D01*
X152747827Y-98190338D01*
X152844500Y-97956949D01*
X152844500Y-97616010D01*
X152685750Y-97457260D01*
X151836120Y-97457260D01*
X151643300Y-97457260D01*
X151643300Y-96353630D01*
X151836120Y-96353630D01*
X151836120Y-97203260D01*
X152685750Y-97203260D01*
X152844500Y-97044510D01*
X152844500Y-96703571D01*
X152747827Y-96470182D01*
X152569199Y-96291553D01*
X152335810Y-96194880D01*
X151994870Y-96194880D01*
X151836120Y-96353630D01*
X151643300Y-96353630D01*
X151643300Y-95356202D01*
X153495000Y-93504503D01*
X153495000Y-93517002D01*
G36*
X166788750Y-79568000D02*
X167513000Y-79568000D01*
X167513000Y-79548000D01*
X167767000Y-79548000D01*
X167767000Y-79568000D01*
X167787000Y-79568000D01*
X167787000Y-79822000D01*
X167767000Y-79822000D01*
X167767000Y-79842000D01*
X167513000Y-79842000D01*
X167513000Y-79822000D01*
X166788750Y-79822000D01*
X166630000Y-79980750D01*
X166630000Y-80081061D01*
X166627099Y-80082999D01*
X166355299Y-80354799D01*
X166190552Y-80601361D01*
X166132700Y-80892200D01*
X166132700Y-82317400D01*
X166190552Y-82608239D01*
X166355299Y-82854801D01*
X166611851Y-83111353D01*
X166593569Y-83138110D01*
X166542560Y-83390000D01*
X166542560Y-84590000D01*
X166586838Y-84825317D01*
X166725910Y-85041441D01*
X166795711Y-85089134D01*
X166738559Y-85125910D01*
X166593569Y-85338110D01*
X166574961Y-85430000D01*
X165532334Y-85430000D01*
X165518162Y-85354683D01*
X165379090Y-85138559D01*
X165310994Y-85092031D01*
X165453327Y-84949698D01*
X165550000Y-84716309D01*
X165550000Y-84275750D01*
X165391250Y-84117000D01*
X164592000Y-84117000D01*
X164592000Y-84137000D01*
X164338000Y-84137000D01*
X164338000Y-84117000D01*
X163538750Y-84117000D01*
X163380000Y-84275750D01*
X163380000Y-84716309D01*
X163476673Y-84949698D01*
X163617910Y-85090936D01*
X163563559Y-85125910D01*
X163418569Y-85338110D01*
X163367560Y-85590000D01*
X163367560Y-86790000D01*
X163411838Y-87025317D01*
X163421019Y-87039585D01*
X163264850Y-87007960D01*
X161667190Y-87007960D01*
X161457847Y-87047351D01*
X161263330Y-87007960D01*
X159665670Y-87007960D01*
X159455913Y-87047429D01*
X159390660Y-87020400D01*
X158751270Y-87020400D01*
X158592520Y-87179150D01*
X158592520Y-89027000D01*
X158612520Y-89027000D01*
X158612520Y-89281000D01*
X158592520Y-89281000D01*
X158592520Y-91128850D01*
X158751270Y-91287600D01*
X158752898Y-91287600D01*
X156765000Y-93275498D01*
X156765000Y-93262998D01*
X156606252Y-93262998D01*
X156765000Y-93104250D01*
X156765000Y-92763691D01*
X156753812Y-92736680D01*
X156777440Y-92620000D01*
X156777440Y-91620000D01*
X156733162Y-91384683D01*
X156594090Y-91168559D01*
X156381890Y-91023569D01*
X156130000Y-90972560D01*
X154130000Y-90972560D01*
X153894683Y-91016838D01*
X153678559Y-91155910D01*
X153533569Y-91368110D01*
X153523900Y-91415855D01*
X153513861Y-91417852D01*
X153267299Y-91582598D01*
X151483668Y-93366229D01*
X151331719Y-92998485D01*
X150844082Y-92509996D01*
X150206627Y-92245301D01*
X149516401Y-92244699D01*
X148878485Y-92508281D01*
X148389996Y-92995918D01*
X148125301Y-93633373D01*
X148124785Y-94224983D01*
X147964600Y-94064798D01*
X147964600Y-90297440D01*
X150730000Y-90297440D01*
X150965317Y-90253162D01*
X151129493Y-90147518D01*
X151170302Y-90188327D01*
X151403691Y-90285000D01*
X152844250Y-90285000D01*
X153003000Y-90126250D01*
X153003000Y-89027000D01*
X153257000Y-89027000D01*
X153257000Y-90126250D01*
X153415750Y-90285000D01*
X154856309Y-90285000D01*
X155089698Y-90188327D01*
X155268327Y-90009699D01*
X155365000Y-89776310D01*
X155365000Y-89439750D01*
X157031690Y-89439750D01*
X157031690Y-90778909D01*
X157128363Y-91012298D01*
X157306991Y-91190927D01*
X157540380Y-91287600D01*
X158179770Y-91287600D01*
X158338520Y-91128850D01*
X158338520Y-89281000D01*
X157190440Y-89281000D01*
X157031690Y-89439750D01*
X155365000Y-89439750D01*
X155365000Y-89185750D01*
X155206250Y-89027000D01*
X153257000Y-89027000D01*
X153003000Y-89027000D01*
X152983000Y-89027000D01*
X152983000Y-88773000D01*
X153003000Y-88773000D01*
X153003000Y-87673750D01*
X153257000Y-87673750D01*
X153257000Y-88773000D01*
X155206250Y-88773000D01*
X155365000Y-88614250D01*
X155365000Y-88023690D01*
X155268327Y-87790301D01*
X155089698Y-87611673D01*
X154890328Y-87529091D01*
X157031690Y-87529091D01*
X157031690Y-88868250D01*
X157190440Y-89027000D01*
X158338520Y-89027000D01*
X158338520Y-87179150D01*
X158179770Y-87020400D01*
X157540380Y-87020400D01*
X157306991Y-87117073D01*
X157128363Y-87295702D01*
X157031690Y-87529091D01*
X154890328Y-87529091D01*
X154856309Y-87515000D01*
X153415750Y-87515000D01*
X153257000Y-87673750D01*
X153003000Y-87673750D01*
X152844250Y-87515000D01*
X151403691Y-87515000D01*
X151170302Y-87611673D01*
X151128340Y-87653634D01*
X150981890Y-87553569D01*
X150730000Y-87502560D01*
X149890000Y-87502560D01*
X149890000Y-85086768D01*
X150172304Y-85160256D01*
X150368000Y-84997547D01*
X150368000Y-84042000D01*
X150622000Y-84042000D01*
X150622000Y-84997547D01*
X150817696Y-85160256D01*
X151288701Y-85037647D01*
X151676933Y-84744125D01*
X151923286Y-84324376D01*
X151938462Y-84232609D01*
X151813731Y-84042000D01*
X150622000Y-84042000D01*
X150368000Y-84042000D01*
X150348000Y-84042000D01*
X150348000Y-83788000D01*
X150368000Y-83788000D01*
X150368000Y-83768000D01*
X150622000Y-83768000D01*
X150622000Y-83788000D01*
X151813731Y-83788000D01*
X151938462Y-83597391D01*
X151923286Y-83505624D01*
X151676933Y-83085875D01*
X151655580Y-83069731D01*
X151796441Y-82979090D01*
X151941431Y-82766890D01*
X151960039Y-82675000D01*
X154324700Y-82675000D01*
X154324700Y-82984400D01*
X154382552Y-83275239D01*
X154547299Y-83521801D01*
X154718058Y-83692560D01*
X154515000Y-83692560D01*
X154279683Y-83736838D01*
X154063559Y-83875910D01*
X153918569Y-84088110D01*
X153867560Y-84340000D01*
X153867560Y-85840000D01*
X153911838Y-86075317D01*
X154050910Y-86291441D01*
X154263110Y-86436431D01*
X154515000Y-86487440D01*
X157715000Y-86487440D01*
X157950317Y-86443162D01*
X158114493Y-86337518D01*
X158155302Y-86378327D01*
X158388691Y-86475000D01*
X159829250Y-86475000D01*
X159988000Y-86316250D01*
X159988000Y-85217000D01*
X160242000Y-85217000D01*
X160242000Y-86316250D01*
X160400750Y-86475000D01*
X161841309Y-86475000D01*
X162074698Y-86378327D01*
X162253327Y-86199699D01*
X162350000Y-85966310D01*
X162350000Y-85375750D01*
X162191250Y-85217000D01*
X160242000Y-85217000D01*
X159988000Y-85217000D01*
X159968000Y-85217000D01*
X159968000Y-84963000D01*
X159988000Y-84963000D01*
X159988000Y-83863750D01*
X160242000Y-83863750D01*
X160242000Y-84963000D01*
X162191250Y-84963000D01*
X162350000Y-84804250D01*
X162350000Y-84213690D01*
X162253327Y-83980301D01*
X162074698Y-83801673D01*
X161841309Y-83705000D01*
X160400750Y-83705000D01*
X160242000Y-83863750D01*
X159988000Y-83863750D01*
X159829250Y-83705000D01*
X159629502Y-83705000D01*
X160070811Y-83263691D01*
X163380000Y-83263691D01*
X163380000Y-83704250D01*
X163538750Y-83863000D01*
X164338000Y-83863000D01*
X164338000Y-82913750D01*
X164216750Y-82792500D01*
X164338000Y-82671250D01*
X164338000Y-81722000D01*
X164592000Y-81722000D01*
X164592000Y-82671250D01*
X164713250Y-82792500D01*
X164592000Y-82913750D01*
X164592000Y-83863000D01*
X165391250Y-83863000D01*
X165550000Y-83704250D01*
X165550000Y-83263691D01*
X165453327Y-83030302D01*
X165274699Y-82851673D01*
X165094343Y-82776967D01*
X165199699Y-82733327D01*
X165378327Y-82554698D01*
X165475000Y-82321309D01*
X165475000Y-81880750D01*
X165316250Y-81722000D01*
X164592000Y-81722000D01*
X164338000Y-81722000D01*
X163613750Y-81722000D01*
X163455000Y-81880750D01*
X163455000Y-82321309D01*
X163551673Y-82554698D01*
X163730301Y-82733327D01*
X163835657Y-82776967D01*
X163655301Y-82851673D01*
X163476673Y-83030302D01*
X163380000Y-83263691D01*
X160070811Y-83263691D01*
X160472241Y-82862261D01*
X160588110Y-82941431D01*
X160840000Y-82992440D01*
X161740000Y-82992440D01*
X161975317Y-82948162D01*
X162191441Y-82809090D01*
X162336431Y-82596890D01*
X162387440Y-82345000D01*
X162387440Y-81145000D01*
X162343162Y-80909683D01*
X162204090Y-80693559D01*
X162134289Y-80645866D01*
X162191441Y-80609090D01*
X162336431Y-80396890D01*
X162355039Y-80305000D01*
X163335951Y-80305000D01*
X163460043Y-80387915D01*
X163486838Y-80530317D01*
X163553329Y-80633646D01*
X163551673Y-80635302D01*
X163455000Y-80868691D01*
X163455000Y-81309250D01*
X163613750Y-81468000D01*
X164338000Y-81468000D01*
X164338000Y-81448000D01*
X164592000Y-81448000D01*
X164592000Y-81468000D01*
X165316250Y-81468000D01*
X165475000Y-81309250D01*
X165475000Y-80868691D01*
X165378327Y-80635302D01*
X165376957Y-80633932D01*
X165436431Y-80546890D01*
X165468416Y-80388945D01*
X165702701Y-80232401D01*
X166414402Y-79520700D01*
X166741450Y-79520700D01*
X166788750Y-79568000D01*
X166788750Y-79568000D01*
G37*
X166788750Y-79568000D02*
X167513000Y-79568000D01*
X167513000Y-79548000D01*
X167767000Y-79548000D01*
X167767000Y-79568000D01*
X167787000Y-79568000D01*
X167787000Y-79822000D01*
X167767000Y-79822000D01*
X167767000Y-79842000D01*
X167513000Y-79842000D01*
X167513000Y-79822000D01*
X166788750Y-79822000D01*
X166630000Y-79980750D01*
X166630000Y-80081061D01*
X166627099Y-80082999D01*
X166355299Y-80354799D01*
X166190552Y-80601361D01*
X166132700Y-80892200D01*
X166132700Y-82317400D01*
X166190552Y-82608239D01*
X166355299Y-82854801D01*
X166611851Y-83111353D01*
X166593569Y-83138110D01*
X166542560Y-83390000D01*
X166542560Y-84590000D01*
X166586838Y-84825317D01*
X166725910Y-85041441D01*
X166795711Y-85089134D01*
X166738559Y-85125910D01*
X166593569Y-85338110D01*
X166574961Y-85430000D01*
X165532334Y-85430000D01*
X165518162Y-85354683D01*
X165379090Y-85138559D01*
X165310994Y-85092031D01*
X165453327Y-84949698D01*
X165550000Y-84716309D01*
X165550000Y-84275750D01*
X165391250Y-84117000D01*
X164592000Y-84117000D01*
X164592000Y-84137000D01*
X164338000Y-84137000D01*
X164338000Y-84117000D01*
X163538750Y-84117000D01*
X163380000Y-84275750D01*
X163380000Y-84716309D01*
X163476673Y-84949698D01*
X163617910Y-85090936D01*
X163563559Y-85125910D01*
X163418569Y-85338110D01*
X163367560Y-85590000D01*
X163367560Y-86790000D01*
X163411838Y-87025317D01*
X163421019Y-87039585D01*
X163264850Y-87007960D01*
X161667190Y-87007960D01*
X161457847Y-87047351D01*
X161263330Y-87007960D01*
X159665670Y-87007960D01*
X159455913Y-87047429D01*
X159390660Y-87020400D01*
X158751270Y-87020400D01*
X158592520Y-87179150D01*
X158592520Y-89027000D01*
X158612520Y-89027000D01*
X158612520Y-89281000D01*
X158592520Y-89281000D01*
X158592520Y-91128850D01*
X158751270Y-91287600D01*
X158752898Y-91287600D01*
X156765000Y-93275498D01*
X156765000Y-93262998D01*
X156606252Y-93262998D01*
X156765000Y-93104250D01*
X156765000Y-92763691D01*
X156753812Y-92736680D01*
X156777440Y-92620000D01*
X156777440Y-91620000D01*
X156733162Y-91384683D01*
X156594090Y-91168559D01*
X156381890Y-91023569D01*
X156130000Y-90972560D01*
X154130000Y-90972560D01*
X153894683Y-91016838D01*
X153678559Y-91155910D01*
X153533569Y-91368110D01*
X153523900Y-91415855D01*
X153513861Y-91417852D01*
X153267299Y-91582598D01*
X151483668Y-93366229D01*
X151331719Y-92998485D01*
X150844082Y-92509996D01*
X150206627Y-92245301D01*
X149516401Y-92244699D01*
X148878485Y-92508281D01*
X148389996Y-92995918D01*
X148125301Y-93633373D01*
X148124785Y-94224983D01*
X147964600Y-94064798D01*
X147964600Y-90297440D01*
X150730000Y-90297440D01*
X150965317Y-90253162D01*
X151129493Y-90147518D01*
X151170302Y-90188327D01*
X151403691Y-90285000D01*
X152844250Y-90285000D01*
X153003000Y-90126250D01*
X153003000Y-89027000D01*
X153257000Y-89027000D01*
X153257000Y-90126250D01*
X153415750Y-90285000D01*
X154856309Y-90285000D01*
X155089698Y-90188327D01*
X155268327Y-90009699D01*
X155365000Y-89776310D01*
X155365000Y-89439750D01*
X157031690Y-89439750D01*
X157031690Y-90778909D01*
X157128363Y-91012298D01*
X157306991Y-91190927D01*
X157540380Y-91287600D01*
X158179770Y-91287600D01*
X158338520Y-91128850D01*
X158338520Y-89281000D01*
X157190440Y-89281000D01*
X157031690Y-89439750D01*
X155365000Y-89439750D01*
X155365000Y-89185750D01*
X155206250Y-89027000D01*
X153257000Y-89027000D01*
X153003000Y-89027000D01*
X152983000Y-89027000D01*
X152983000Y-88773000D01*
X153003000Y-88773000D01*
X153003000Y-87673750D01*
X153257000Y-87673750D01*
X153257000Y-88773000D01*
X155206250Y-88773000D01*
X155365000Y-88614250D01*
X155365000Y-88023690D01*
X155268327Y-87790301D01*
X155089698Y-87611673D01*
X154890328Y-87529091D01*
X157031690Y-87529091D01*
X157031690Y-88868250D01*
X157190440Y-89027000D01*
X158338520Y-89027000D01*
X158338520Y-87179150D01*
X158179770Y-87020400D01*
X157540380Y-87020400D01*
X157306991Y-87117073D01*
X157128363Y-87295702D01*
X157031690Y-87529091D01*
X154890328Y-87529091D01*
X154856309Y-87515000D01*
X153415750Y-87515000D01*
X153257000Y-87673750D01*
X153003000Y-87673750D01*
X152844250Y-87515000D01*
X151403691Y-87515000D01*
X151170302Y-87611673D01*
X151128340Y-87653634D01*
X150981890Y-87553569D01*
X150730000Y-87502560D01*
X149890000Y-87502560D01*
X149890000Y-85086768D01*
X150172304Y-85160256D01*
X150368000Y-84997547D01*
X150368000Y-84042000D01*
X150622000Y-84042000D01*
X150622000Y-84997547D01*
X150817696Y-85160256D01*
X151288701Y-85037647D01*
X151676933Y-84744125D01*
X151923286Y-84324376D01*
X151938462Y-84232609D01*
X151813731Y-84042000D01*
X150622000Y-84042000D01*
X150368000Y-84042000D01*
X150348000Y-84042000D01*
X150348000Y-83788000D01*
X150368000Y-83788000D01*
X150368000Y-83768000D01*
X150622000Y-83768000D01*
X150622000Y-83788000D01*
X151813731Y-83788000D01*
X151938462Y-83597391D01*
X151923286Y-83505624D01*
X151676933Y-83085875D01*
X151655580Y-83069731D01*
X151796441Y-82979090D01*
X151941431Y-82766890D01*
X151960039Y-82675000D01*
X154324700Y-82675000D01*
X154324700Y-82984400D01*
X154382552Y-83275239D01*
X154547299Y-83521801D01*
X154718058Y-83692560D01*
X154515000Y-83692560D01*
X154279683Y-83736838D01*
X154063559Y-83875910D01*
X153918569Y-84088110D01*
X153867560Y-84340000D01*
X153867560Y-85840000D01*
X153911838Y-86075317D01*
X154050910Y-86291441D01*
X154263110Y-86436431D01*
X154515000Y-86487440D01*
X157715000Y-86487440D01*
X157950317Y-86443162D01*
X158114493Y-86337518D01*
X158155302Y-86378327D01*
X158388691Y-86475000D01*
X159829250Y-86475000D01*
X159988000Y-86316250D01*
X159988000Y-85217000D01*
X160242000Y-85217000D01*
X160242000Y-86316250D01*
X160400750Y-86475000D01*
X161841309Y-86475000D01*
X162074698Y-86378327D01*
X162253327Y-86199699D01*
X162350000Y-85966310D01*
X162350000Y-85375750D01*
X162191250Y-85217000D01*
X160242000Y-85217000D01*
X159988000Y-85217000D01*
X159968000Y-85217000D01*
X159968000Y-84963000D01*
X159988000Y-84963000D01*
X159988000Y-83863750D01*
X160242000Y-83863750D01*
X160242000Y-84963000D01*
X162191250Y-84963000D01*
X162350000Y-84804250D01*
X162350000Y-84213690D01*
X162253327Y-83980301D01*
X162074698Y-83801673D01*
X161841309Y-83705000D01*
X160400750Y-83705000D01*
X160242000Y-83863750D01*
X159988000Y-83863750D01*
X159829250Y-83705000D01*
X159629502Y-83705000D01*
X160070811Y-83263691D01*
X163380000Y-83263691D01*
X163380000Y-83704250D01*
X163538750Y-83863000D01*
X164338000Y-83863000D01*
X164338000Y-82913750D01*
X164216750Y-82792500D01*
X164338000Y-82671250D01*
X164338000Y-81722000D01*
X164592000Y-81722000D01*
X164592000Y-82671250D01*
X164713250Y-82792500D01*
X164592000Y-82913750D01*
X164592000Y-83863000D01*
X165391250Y-83863000D01*
X165550000Y-83704250D01*
X165550000Y-83263691D01*
X165453327Y-83030302D01*
X165274699Y-82851673D01*
X165094343Y-82776967D01*
X165199699Y-82733327D01*
X165378327Y-82554698D01*
X165475000Y-82321309D01*
X165475000Y-81880750D01*
X165316250Y-81722000D01*
X164592000Y-81722000D01*
X164338000Y-81722000D01*
X163613750Y-81722000D01*
X163455000Y-81880750D01*
X163455000Y-82321309D01*
X163551673Y-82554698D01*
X163730301Y-82733327D01*
X163835657Y-82776967D01*
X163655301Y-82851673D01*
X163476673Y-83030302D01*
X163380000Y-83263691D01*
X160070811Y-83263691D01*
X160472241Y-82862261D01*
X160588110Y-82941431D01*
X160840000Y-82992440D01*
X161740000Y-82992440D01*
X161975317Y-82948162D01*
X162191441Y-82809090D01*
X162336431Y-82596890D01*
X162387440Y-82345000D01*
X162387440Y-81145000D01*
X162343162Y-80909683D01*
X162204090Y-80693559D01*
X162134289Y-80645866D01*
X162191441Y-80609090D01*
X162336431Y-80396890D01*
X162355039Y-80305000D01*
X163335951Y-80305000D01*
X163460043Y-80387915D01*
X163486838Y-80530317D01*
X163553329Y-80633646D01*
X163551673Y-80635302D01*
X163455000Y-80868691D01*
X163455000Y-81309250D01*
X163613750Y-81468000D01*
X164338000Y-81468000D01*
X164338000Y-81448000D01*
X164592000Y-81448000D01*
X164592000Y-81468000D01*
X165316250Y-81468000D01*
X165475000Y-81309250D01*
X165475000Y-80868691D01*
X165378327Y-80635302D01*
X165376957Y-80633932D01*
X165436431Y-80546890D01*
X165468416Y-80388945D01*
X165702701Y-80232401D01*
X166414402Y-79520700D01*
X166741450Y-79520700D01*
X166788750Y-79568000D01*
G36*
X155277000Y-93512560D02*
X154983000Y-93512560D01*
X154983000Y-93267440D01*
X155277000Y-93267440D01*
X155277000Y-93512560D01*
X155277000Y-93512560D01*
G37*
X155277000Y-93512560D02*
X154983000Y-93512560D01*
X154983000Y-93267440D01*
X155277000Y-93267440D01*
X155277000Y-93512560D01*
G36*
X177927000Y-79883000D02*
X177947000Y-79883000D01*
X177947000Y-80137000D01*
X177927000Y-80137000D01*
X177927000Y-81330155D01*
X178156890Y-81451476D01*
X178310000Y-81388060D01*
X178310000Y-83106000D01*
X178367852Y-83396839D01*
X178515534Y-83617862D01*
X178414683Y-83636838D01*
X178390594Y-83652339D01*
X178276309Y-83605000D01*
X178085750Y-83605000D01*
X177927000Y-83763750D01*
X177927000Y-84963000D01*
X177947000Y-84963000D01*
X177947000Y-85217000D01*
X177927000Y-85217000D01*
X177927000Y-85237000D01*
X177673000Y-85237000D01*
X177673000Y-85217000D01*
X177653000Y-85217000D01*
X177653000Y-84963000D01*
X177673000Y-84963000D01*
X177673000Y-83763750D01*
X177514250Y-83605000D01*
X177323691Y-83605000D01*
X177212717Y-83650967D01*
X177201890Y-83643569D01*
X176950000Y-83592560D01*
X176250000Y-83592560D01*
X176014683Y-83636838D01*
X175798559Y-83775910D01*
X175653569Y-83988110D01*
X175602560Y-84240000D01*
X175602560Y-85940000D01*
X175646838Y-86175317D01*
X175785910Y-86391441D01*
X175877546Y-86454053D01*
X175897852Y-86556139D01*
X176062599Y-86802701D01*
X176145000Y-86885102D01*
X176145000Y-87245025D01*
X176033569Y-87408110D01*
X176024685Y-87451983D01*
X175012440Y-86439738D01*
X175012440Y-85440000D01*
X174968162Y-85204683D01*
X174901671Y-85101354D01*
X174903327Y-85099698D01*
X175000000Y-84866309D01*
X175000000Y-84425750D01*
X174841250Y-84267000D01*
X174117000Y-84267000D01*
X174117000Y-84287000D01*
X173863000Y-84287000D01*
X173863000Y-84267000D01*
X173138750Y-84267000D01*
X172980000Y-84425750D01*
X172980000Y-84866309D01*
X173076673Y-85099698D01*
X173078043Y-85101068D01*
X173018569Y-85188110D01*
X172967560Y-85440000D01*
X172967560Y-86640000D01*
X173011838Y-86875317D01*
X173150910Y-87091441D01*
X173271478Y-87173821D01*
X173287852Y-87256139D01*
X173452599Y-87502701D01*
X173699161Y-87667448D01*
X173990000Y-87725300D01*
X174148398Y-87725300D01*
X175181578Y-88758480D01*
X175181538Y-88803967D01*
X175257397Y-88987560D01*
X174655000Y-88987560D01*
X174419683Y-89031838D01*
X174203559Y-89170910D01*
X174200253Y-89175749D01*
X174038861Y-89207852D01*
X173792299Y-89372599D01*
X173627552Y-89619161D01*
X173569700Y-89910000D01*
X173569700Y-90539772D01*
X173345308Y-90763773D01*
X173202662Y-91107301D01*
X173202382Y-91429229D01*
X172862457Y-91569683D01*
X172599208Y-91832473D01*
X172456562Y-92176001D01*
X172456410Y-92350000D01*
X162911402Y-92350000D01*
X161861442Y-91300040D01*
X163264850Y-91300040D01*
X163472876Y-91260897D01*
X163666170Y-91300040D01*
X165263830Y-91300040D01*
X165471856Y-91260897D01*
X165665150Y-91300040D01*
X167262810Y-91300040D01*
X167472153Y-91260649D01*
X167666670Y-91300040D01*
X167784267Y-91300040D01*
X167928099Y-91515301D01*
X167930699Y-91517901D01*
X168177261Y-91682648D01*
X168468100Y-91740500D01*
X171691400Y-91740500D01*
X171982239Y-91682648D01*
X172228801Y-91517901D01*
X172549180Y-91197522D01*
X172594667Y-91197562D01*
X172938443Y-91055517D01*
X173201692Y-90792727D01*
X173344338Y-90449199D01*
X173344662Y-90077233D01*
X173202617Y-89733457D01*
X172939827Y-89470208D01*
X172650614Y-89350116D01*
X172568117Y-89150457D01*
X172305327Y-88887208D01*
X171961799Y-88744562D01*
X171910750Y-88744518D01*
X171910750Y-87657940D01*
X171866472Y-87422623D01*
X171727400Y-87206499D01*
X171608522Y-87125273D01*
X171641441Y-87104090D01*
X171786431Y-86891890D01*
X171837440Y-86640000D01*
X171837440Y-85440000D01*
X171793162Y-85204683D01*
X171726671Y-85101354D01*
X171728327Y-85099698D01*
X171825000Y-84866309D01*
X171825000Y-84425750D01*
X171666250Y-84267000D01*
X170942000Y-84267000D01*
X170942000Y-84287000D01*
X170874700Y-84287000D01*
X170874700Y-83993000D01*
X170942000Y-83993000D01*
X170942000Y-84013000D01*
X171666250Y-84013000D01*
X171825000Y-83854250D01*
X171825000Y-83413691D01*
X172980000Y-83413691D01*
X172980000Y-83854250D01*
X173138750Y-84013000D01*
X173863000Y-84013000D01*
X173863000Y-83063750D01*
X174117000Y-83063750D01*
X174117000Y-84013000D01*
X174841250Y-84013000D01*
X175000000Y-83854250D01*
X175000000Y-83413691D01*
X174903327Y-83180302D01*
X174724699Y-83001673D01*
X174491310Y-82905000D01*
X174275750Y-82905000D01*
X174117000Y-83063750D01*
X173863000Y-83063750D01*
X173704250Y-82905000D01*
X173488690Y-82905000D01*
X173255301Y-83001673D01*
X173076673Y-83180302D01*
X172980000Y-83413691D01*
X171825000Y-83413691D01*
X171728327Y-83180302D01*
X171549699Y-83001673D01*
X171378530Y-82930772D01*
X172082101Y-82227201D01*
X172246848Y-81980640D01*
X172304700Y-81689800D01*
X172304700Y-81441485D01*
X172720000Y-81524093D01*
X173288285Y-81411054D01*
X173770054Y-81089147D01*
X173983301Y-80770000D01*
X173996699Y-80770000D01*
X174209946Y-81089147D01*
X174691715Y-81411054D01*
X175260000Y-81524093D01*
X175828285Y-81411054D01*
X176310054Y-81089147D01*
X176536790Y-80749812D01*
X176538211Y-80749530D01*
X176604817Y-80891358D01*
X177033076Y-81281645D01*
X177443110Y-81451476D01*
X177673000Y-81330155D01*
X177673000Y-80137000D01*
X177653000Y-80137000D01*
X177653000Y-79883000D01*
X177673000Y-79883000D01*
X177673000Y-79863000D01*
X177927000Y-79863000D01*
X177927000Y-79883000D01*
X177927000Y-79883000D01*
G37*
X177927000Y-79883000D02*
X177947000Y-79883000D01*
X177947000Y-80137000D01*
X177927000Y-80137000D01*
X177927000Y-81330155D01*
X178156890Y-81451476D01*
X178310000Y-81388060D01*
X178310000Y-83106000D01*
X178367852Y-83396839D01*
X178515534Y-83617862D01*
X178414683Y-83636838D01*
X178390594Y-83652339D01*
X178276309Y-83605000D01*
X178085750Y-83605000D01*
X177927000Y-83763750D01*
X177927000Y-84963000D01*
X177947000Y-84963000D01*
X177947000Y-85217000D01*
X177927000Y-85217000D01*
X177927000Y-85237000D01*
X177673000Y-85237000D01*
X177673000Y-85217000D01*
X177653000Y-85217000D01*
X177653000Y-84963000D01*
X177673000Y-84963000D01*
X177673000Y-83763750D01*
X177514250Y-83605000D01*
X177323691Y-83605000D01*
X177212717Y-83650967D01*
X177201890Y-83643569D01*
X176950000Y-83592560D01*
X176250000Y-83592560D01*
X176014683Y-83636838D01*
X175798559Y-83775910D01*
X175653569Y-83988110D01*
X175602560Y-84240000D01*
X175602560Y-85940000D01*
X175646838Y-86175317D01*
X175785910Y-86391441D01*
X175877546Y-86454053D01*
X175897852Y-86556139D01*
X176062599Y-86802701D01*
X176145000Y-86885102D01*
X176145000Y-87245025D01*
X176033569Y-87408110D01*
X176024685Y-87451983D01*
X175012440Y-86439738D01*
X175012440Y-85440000D01*
X174968162Y-85204683D01*
X174901671Y-85101354D01*
X174903327Y-85099698D01*
X175000000Y-84866309D01*
X175000000Y-84425750D01*
X174841250Y-84267000D01*
X174117000Y-84267000D01*
X174117000Y-84287000D01*
X173863000Y-84287000D01*
X173863000Y-84267000D01*
X173138750Y-84267000D01*
X172980000Y-84425750D01*
X172980000Y-84866309D01*
X173076673Y-85099698D01*
X173078043Y-85101068D01*
X173018569Y-85188110D01*
X172967560Y-85440000D01*
X172967560Y-86640000D01*
X173011838Y-86875317D01*
X173150910Y-87091441D01*
X173271478Y-87173821D01*
X173287852Y-87256139D01*
X173452599Y-87502701D01*
X173699161Y-87667448D01*
X173990000Y-87725300D01*
X174148398Y-87725300D01*
X175181578Y-88758480D01*
X175181538Y-88803967D01*
X175257397Y-88987560D01*
X174655000Y-88987560D01*
X174419683Y-89031838D01*
X174203559Y-89170910D01*
X174200253Y-89175749D01*
X174038861Y-89207852D01*
X173792299Y-89372599D01*
X173627552Y-89619161D01*
X173569700Y-89910000D01*
X173569700Y-90539772D01*
X173345308Y-90763773D01*
X173202662Y-91107301D01*
X173202382Y-91429229D01*
X172862457Y-91569683D01*
X172599208Y-91832473D01*
X172456562Y-92176001D01*
X172456410Y-92350000D01*
X162911402Y-92350000D01*
X161861442Y-91300040D01*
X163264850Y-91300040D01*
X163472876Y-91260897D01*
X163666170Y-91300040D01*
X165263830Y-91300040D01*
X165471856Y-91260897D01*
X165665150Y-91300040D01*
X167262810Y-91300040D01*
X167472153Y-91260649D01*
X167666670Y-91300040D01*
X167784267Y-91300040D01*
X167928099Y-91515301D01*
X167930699Y-91517901D01*
X168177261Y-91682648D01*
X168468100Y-91740500D01*
X171691400Y-91740500D01*
X171982239Y-91682648D01*
X172228801Y-91517901D01*
X172549180Y-91197522D01*
X172594667Y-91197562D01*
X172938443Y-91055517D01*
X173201692Y-90792727D01*
X173344338Y-90449199D01*
X173344662Y-90077233D01*
X173202617Y-89733457D01*
X172939827Y-89470208D01*
X172650614Y-89350116D01*
X172568117Y-89150457D01*
X172305327Y-88887208D01*
X171961799Y-88744562D01*
X171910750Y-88744518D01*
X171910750Y-87657940D01*
X171866472Y-87422623D01*
X171727400Y-87206499D01*
X171608522Y-87125273D01*
X171641441Y-87104090D01*
X171786431Y-86891890D01*
X171837440Y-86640000D01*
X171837440Y-85440000D01*
X171793162Y-85204683D01*
X171726671Y-85101354D01*
X171728327Y-85099698D01*
X171825000Y-84866309D01*
X171825000Y-84425750D01*
X171666250Y-84267000D01*
X170942000Y-84267000D01*
X170942000Y-84287000D01*
X170874700Y-84287000D01*
X170874700Y-83993000D01*
X170942000Y-83993000D01*
X170942000Y-84013000D01*
X171666250Y-84013000D01*
X171825000Y-83854250D01*
X171825000Y-83413691D01*
X172980000Y-83413691D01*
X172980000Y-83854250D01*
X173138750Y-84013000D01*
X173863000Y-84013000D01*
X173863000Y-83063750D01*
X174117000Y-83063750D01*
X174117000Y-84013000D01*
X174841250Y-84013000D01*
X175000000Y-83854250D01*
X175000000Y-83413691D01*
X174903327Y-83180302D01*
X174724699Y-83001673D01*
X174491310Y-82905000D01*
X174275750Y-82905000D01*
X174117000Y-83063750D01*
X173863000Y-83063750D01*
X173704250Y-82905000D01*
X173488690Y-82905000D01*
X173255301Y-83001673D01*
X173076673Y-83180302D01*
X172980000Y-83413691D01*
X171825000Y-83413691D01*
X171728327Y-83180302D01*
X171549699Y-83001673D01*
X171378530Y-82930772D01*
X172082101Y-82227201D01*
X172246848Y-81980640D01*
X172304700Y-81689800D01*
X172304700Y-81441485D01*
X172720000Y-81524093D01*
X173288285Y-81411054D01*
X173770054Y-81089147D01*
X173983301Y-80770000D01*
X173996699Y-80770000D01*
X174209946Y-81089147D01*
X174691715Y-81411054D01*
X175260000Y-81524093D01*
X175828285Y-81411054D01*
X176310054Y-81089147D01*
X176536790Y-80749812D01*
X176538211Y-80749530D01*
X176604817Y-80891358D01*
X177033076Y-81281645D01*
X177443110Y-81451476D01*
X177673000Y-81330155D01*
X177673000Y-80137000D01*
X177653000Y-80137000D01*
X177653000Y-79883000D01*
X177673000Y-79883000D01*
X177673000Y-79863000D01*
X177927000Y-79863000D01*
X177927000Y-79883000D01*
G36*
X186950000Y-85119250D02*
X187108750Y-85278000D01*
X187833000Y-85278000D01*
X187833000Y-85258000D01*
X187900300Y-85258000D01*
X187900300Y-85552000D01*
X187833000Y-85552000D01*
X187833000Y-85532000D01*
X187108750Y-85532000D01*
X186950000Y-85690750D01*
X186950000Y-86131309D01*
X187046673Y-86364698D01*
X187225301Y-86543327D01*
X187458690Y-86640000D01*
X187674250Y-86640000D01*
X187832998Y-86481252D01*
X187832998Y-86640000D01*
X187900300Y-86640000D01*
X187900300Y-87212934D01*
X187775000Y-87187560D01*
X186875000Y-87187560D01*
X186639683Y-87231838D01*
X186423559Y-87370910D01*
X186278569Y-87583110D01*
X186246584Y-87741055D01*
X186012299Y-87897599D01*
X185847552Y-88144161D01*
X185789700Y-88435000D01*
X185789700Y-89188706D01*
X185711133Y-89188638D01*
X185367357Y-89330683D01*
X185334724Y-89363259D01*
X185219090Y-89183559D01*
X185006890Y-89038569D01*
X184755000Y-88987560D01*
X183427440Y-88987560D01*
X183427440Y-88238967D01*
X183696443Y-88127817D01*
X183959692Y-87865027D01*
X184102338Y-87521499D01*
X184102662Y-87149533D01*
X183960617Y-86805757D01*
X183697827Y-86542508D01*
X183354299Y-86399862D01*
X182982333Y-86399538D01*
X182638557Y-86541583D01*
X182605382Y-86574700D01*
X182541771Y-86574700D01*
X182656431Y-86406890D01*
X182675039Y-86315000D01*
X183717666Y-86315000D01*
X183731838Y-86390317D01*
X183870910Y-86606441D01*
X184083110Y-86751431D01*
X184335000Y-86802440D01*
X185235000Y-86802440D01*
X185470317Y-86758162D01*
X185686441Y-86619090D01*
X185831431Y-86406890D01*
X185863416Y-86248945D01*
X186097701Y-86092401D01*
X186262448Y-85845839D01*
X186320300Y-85555000D01*
X186320300Y-85519202D01*
X186950000Y-84889502D01*
X186950000Y-85119250D01*
X186950000Y-85119250D01*
G37*
X186950000Y-85119250D02*
X187108750Y-85278000D01*
X187833000Y-85278000D01*
X187833000Y-85258000D01*
X187900300Y-85258000D01*
X187900300Y-85552000D01*
X187833000Y-85552000D01*
X187833000Y-85532000D01*
X187108750Y-85532000D01*
X186950000Y-85690750D01*
X186950000Y-86131309D01*
X187046673Y-86364698D01*
X187225301Y-86543327D01*
X187458690Y-86640000D01*
X187674250Y-86640000D01*
X187832998Y-86481252D01*
X187832998Y-86640000D01*
X187900300Y-86640000D01*
X187900300Y-87212934D01*
X187775000Y-87187560D01*
X186875000Y-87187560D01*
X186639683Y-87231838D01*
X186423559Y-87370910D01*
X186278569Y-87583110D01*
X186246584Y-87741055D01*
X186012299Y-87897599D01*
X185847552Y-88144161D01*
X185789700Y-88435000D01*
X185789700Y-89188706D01*
X185711133Y-89188638D01*
X185367357Y-89330683D01*
X185334724Y-89363259D01*
X185219090Y-89183559D01*
X185006890Y-89038569D01*
X184755000Y-88987560D01*
X183427440Y-88987560D01*
X183427440Y-88238967D01*
X183696443Y-88127817D01*
X183959692Y-87865027D01*
X184102338Y-87521499D01*
X184102662Y-87149533D01*
X183960617Y-86805757D01*
X183697827Y-86542508D01*
X183354299Y-86399862D01*
X182982333Y-86399538D01*
X182638557Y-86541583D01*
X182605382Y-86574700D01*
X182541771Y-86574700D01*
X182656431Y-86406890D01*
X182675039Y-86315000D01*
X183717666Y-86315000D01*
X183731838Y-86390317D01*
X183870910Y-86606441D01*
X184083110Y-86751431D01*
X184335000Y-86802440D01*
X185235000Y-86802440D01*
X185470317Y-86758162D01*
X185686441Y-86619090D01*
X185831431Y-86406890D01*
X185863416Y-86248945D01*
X186097701Y-86092401D01*
X186262448Y-85845839D01*
X186320300Y-85555000D01*
X186320300Y-85519202D01*
X186950000Y-84889502D01*
X186950000Y-85119250D01*
G36*
X180467000Y-79883000D02*
X180487000Y-79883000D01*
X180487000Y-80137000D01*
X180467000Y-80137000D01*
X180467000Y-81330155D01*
X180696890Y-81451476D01*
X181106924Y-81281645D01*
X181535183Y-80891358D01*
X181602298Y-80748447D01*
X181829946Y-81089147D01*
X181872750Y-81117748D01*
X181149749Y-81840749D01*
X181072599Y-81892299D01*
X180907852Y-82138861D01*
X180902421Y-82166163D01*
X180708559Y-82290910D01*
X180563569Y-82503110D01*
X180512560Y-82755000D01*
X180512560Y-83473758D01*
X179830000Y-82791198D01*
X179830000Y-81388060D01*
X179983110Y-81451476D01*
X180213000Y-81330155D01*
X180213000Y-80137000D01*
X180193000Y-80137000D01*
X180193000Y-79883000D01*
X180213000Y-79883000D01*
X180213000Y-79863000D01*
X180467000Y-79863000D01*
X180467000Y-79883000D01*
X180467000Y-79883000D01*
G37*
X180467000Y-79883000D02*
X180487000Y-79883000D01*
X180487000Y-80137000D01*
X180467000Y-80137000D01*
X180467000Y-81330155D01*
X180696890Y-81451476D01*
X181106924Y-81281645D01*
X181535183Y-80891358D01*
X181602298Y-80748447D01*
X181829946Y-81089147D01*
X181872750Y-81117748D01*
X181149749Y-81840749D01*
X181072599Y-81892299D01*
X180907852Y-82138861D01*
X180902421Y-82166163D01*
X180708559Y-82290910D01*
X180563569Y-82503110D01*
X180512560Y-82755000D01*
X180512560Y-83473758D01*
X179830000Y-82791198D01*
X179830000Y-81388060D01*
X179983110Y-81451476D01*
X180213000Y-81330155D01*
X180213000Y-80137000D01*
X180193000Y-80137000D01*
X180193000Y-79883000D01*
X180213000Y-79883000D01*
X180213000Y-79863000D01*
X180467000Y-79863000D01*
X180467000Y-79883000D01*
G36*
X160236838Y-80380317D02*
X160375910Y-80596441D01*
X160445711Y-80644134D01*
X160388559Y-80680910D01*
X160243569Y-80893110D01*
X160211584Y-81051055D01*
X159977299Y-81207599D01*
X159352074Y-81832824D01*
X159241250Y-81722000D01*
X158282000Y-81722000D01*
X158282000Y-82396250D01*
X158440750Y-82555000D01*
X158629898Y-82555000D01*
X157930198Y-83254700D01*
X156429802Y-83254700D01*
X155844700Y-82669598D01*
X155844700Y-82060402D01*
X156024352Y-81880750D01*
X156910000Y-81880750D01*
X156910000Y-82046310D01*
X157006673Y-82279699D01*
X157185302Y-82458327D01*
X157418691Y-82555000D01*
X157869250Y-82555000D01*
X158028000Y-82396250D01*
X158028000Y-81722000D01*
X157068750Y-81722000D01*
X156910000Y-81880750D01*
X156024352Y-81880750D01*
X156072401Y-81832701D01*
X156226478Y-81602109D01*
X156380317Y-81573162D01*
X156596441Y-81434090D01*
X156741431Y-81221890D01*
X156792440Y-80970000D01*
X156792440Y-80455000D01*
X157070331Y-80455000D01*
X157080910Y-80471441D01*
X157293110Y-80616431D01*
X157407565Y-80639609D01*
X157185302Y-80731673D01*
X157006673Y-80910301D01*
X156910000Y-81143690D01*
X156910000Y-81309250D01*
X157068750Y-81468000D01*
X158028000Y-81468000D01*
X158028000Y-81448000D01*
X158282000Y-81448000D01*
X158282000Y-81468000D01*
X159241250Y-81468000D01*
X159400000Y-81309250D01*
X159400000Y-81143690D01*
X159303327Y-80910301D01*
X159124698Y-80731673D01*
X158905707Y-80640964D01*
X159000317Y-80623162D01*
X159216441Y-80484090D01*
X159259284Y-80421387D01*
X159381139Y-80397148D01*
X159519049Y-80305000D01*
X160222666Y-80305000D01*
X160236838Y-80380317D01*
X160236838Y-80380317D01*
G37*
X160236838Y-80380317D02*
X160375910Y-80596441D01*
X160445711Y-80644134D01*
X160388559Y-80680910D01*
X160243569Y-80893110D01*
X160211584Y-81051055D01*
X159977299Y-81207599D01*
X159352074Y-81832824D01*
X159241250Y-81722000D01*
X158282000Y-81722000D01*
X158282000Y-82396250D01*
X158440750Y-82555000D01*
X158629898Y-82555000D01*
X157930198Y-83254700D01*
X156429802Y-83254700D01*
X155844700Y-82669598D01*
X155844700Y-82060402D01*
X156024352Y-81880750D01*
X156910000Y-81880750D01*
X156910000Y-82046310D01*
X157006673Y-82279699D01*
X157185302Y-82458327D01*
X157418691Y-82555000D01*
X157869250Y-82555000D01*
X158028000Y-82396250D01*
X158028000Y-81722000D01*
X157068750Y-81722000D01*
X156910000Y-81880750D01*
X156024352Y-81880750D01*
X156072401Y-81832701D01*
X156226478Y-81602109D01*
X156380317Y-81573162D01*
X156596441Y-81434090D01*
X156741431Y-81221890D01*
X156792440Y-80970000D01*
X156792440Y-80455000D01*
X157070331Y-80455000D01*
X157080910Y-80471441D01*
X157293110Y-80616431D01*
X157407565Y-80639609D01*
X157185302Y-80731673D01*
X157006673Y-80910301D01*
X156910000Y-81143690D01*
X156910000Y-81309250D01*
X157068750Y-81468000D01*
X158028000Y-81468000D01*
X158028000Y-81448000D01*
X158282000Y-81448000D01*
X158282000Y-81468000D01*
X159241250Y-81468000D01*
X159400000Y-81309250D01*
X159400000Y-81143690D01*
X159303327Y-80910301D01*
X159124698Y-80731673D01*
X158905707Y-80640964D01*
X159000317Y-80623162D01*
X159216441Y-80484090D01*
X159259284Y-80421387D01*
X159381139Y-80397148D01*
X159519049Y-80305000D01*
X160222666Y-80305000D01*
X160236838Y-80380317D01*
M02*
