G04 #@! TF.FileFunction,Soldermask,Bot*
%FSLAX46Y46*%
G04 Gerber Fmt 4.6, Leading zero omitted, Abs format (unit mm)*
G04 Created by KiCad (PCBNEW 4.0.7-e2-6376~60~ubuntu17.10.1) date Tue Dec  5 13:17:51 2017*
%MOMM*%
%LPD*%
G01*
G04 APERTURE LIST*
%ADD10C,0.100000*%
%ADD11R,2.100000X1.600000*%
%ADD12O,2.100000X1.600000*%
%ADD13C,2.600000*%
%ADD14C,1.850000*%
%ADD15O,2.300000X1.600000*%
%ADD16R,2.100000X2.100000*%
%ADD17O,2.100000X2.100000*%
%ADD18R,1.416000X1.924000*%
%ADD19R,1.924000X1.416000*%
%ADD20R,5.100000X1.750000*%
%ADD21R,4.600000X1.670000*%
%ADD22R,3.397200X1.997660*%
G04 APERTURE END LIST*
D10*
D11*
X149225000Y-82550000D03*
D12*
X149225000Y-84550000D03*
D13*
X189230000Y-80645000D03*
D14*
X150305000Y-88940000D03*
X150305000Y-93940000D03*
D15*
X147605000Y-87940000D03*
X147605000Y-94940000D03*
D16*
X147955000Y-97790000D03*
D17*
X147955000Y-100330000D03*
X147955000Y-102870000D03*
X147955000Y-105410000D03*
X147955000Y-107950000D03*
D18*
X160020000Y-103505000D03*
X161290000Y-103505000D03*
X162560000Y-103505000D03*
X163830000Y-103505000D03*
X165100000Y-103505000D03*
X166370000Y-103505000D03*
X167640000Y-103505000D03*
X168910000Y-103505000D03*
X170180000Y-103505000D03*
X171450000Y-103505000D03*
X172720000Y-103505000D03*
X173990000Y-103505000D03*
X175260000Y-103505000D03*
X176530000Y-103505000D03*
X177800000Y-103505000D03*
X179070000Y-103505000D03*
X180340000Y-103505000D03*
X181610000Y-103505000D03*
X182880000Y-103505000D03*
X184150000Y-103505000D03*
X184150000Y-85725000D03*
D19*
X185420000Y-98425000D03*
X185420000Y-97155000D03*
X185420000Y-95885000D03*
X185420000Y-94615000D03*
X185420000Y-93345000D03*
X185420000Y-92075000D03*
X185420000Y-90805000D03*
D18*
X182880000Y-85725000D03*
X181610000Y-85725000D03*
X180340000Y-85725000D03*
X179070000Y-85725000D03*
X177800000Y-85725000D03*
X176530000Y-85725000D03*
X175260000Y-85725000D03*
X173990000Y-85725000D03*
X172720000Y-85725000D03*
X171450000Y-85725000D03*
X170180000Y-85725000D03*
X168910000Y-85725000D03*
X167640000Y-85725000D03*
X166370000Y-85725000D03*
X165100000Y-85725000D03*
X163830000Y-85725000D03*
X162560000Y-85725000D03*
X161290000Y-85725000D03*
X160020000Y-85725000D03*
D16*
X153035000Y-80010000D03*
D17*
X155575000Y-80010000D03*
X158115000Y-80010000D03*
X160655000Y-80010000D03*
X163195000Y-80010000D03*
X165735000Y-80010000D03*
X168275000Y-80010000D03*
X170815000Y-80010000D03*
X173355000Y-80010000D03*
X175895000Y-80010000D03*
X178435000Y-80010000D03*
X180975000Y-80010000D03*
D16*
X180975000Y-109220000D03*
D17*
X178435000Y-109220000D03*
X175895000Y-109220000D03*
X173355000Y-109220000D03*
X170815000Y-109220000D03*
X168275000Y-109220000D03*
X165735000Y-109220000D03*
X163195000Y-109220000D03*
X160655000Y-109220000D03*
X158115000Y-109220000D03*
X155575000Y-109220000D03*
X153035000Y-109220000D03*
D20*
X190500000Y-97010000D03*
X190500000Y-91440000D03*
X190500000Y-91440000D03*
D21*
X190750000Y-94225000D03*
D20*
X190500000Y-97010000D03*
D22*
X165991540Y-100614480D03*
X165989000Y-98615500D03*
X165989000Y-96613980D03*
X165989000Y-94615000D03*
X165989000Y-92616020D03*
X165989000Y-90614500D03*
X165989000Y-88615520D03*
X181991000Y-88615520D03*
X181991000Y-90614500D03*
X181991000Y-92616020D03*
X181991000Y-94615000D03*
X181991000Y-96613980D03*
X181991000Y-98615500D03*
X181991000Y-100614480D03*
D16*
X154305000Y-103505000D03*
D17*
X154305000Y-100965000D03*
M02*
