M48
INCH,TZ
T1C0.016
T2C0.024
T3C0.030
T4C0.033
T5C0.039
%
G90
G05
T1
X60422Y-34537
X61584Y-35766
X61745Y-37058
X62046Y-37587
X62236Y-35392
X62280Y-36850
X62348Y-42245
X62617Y-33077
X63206Y-38159
X63648Y-38539
X63663Y-35679
X63766Y-37589
X63850Y-42055
X64390Y-36265
X65445Y-41458
X66147Y-33031
X66225Y-39833
X66482Y-35307
X66526Y-38352
X67080Y-39122
X67326Y-35834
X67488Y-39552
X67510Y-33243
X67598Y-36100
X67967Y-36778
X68031Y-37571
X68287Y-34433
X68288Y-37144
X68633Y-34250
X68799Y-36312
X68829Y-39437
X69036Y-34504
X69137Y-42074
X69158Y-37477
X69204Y-39622
X69231Y-37809
X69371Y-41272
X69458Y-38058
X69683Y-37186
X69790Y-34512
X69907Y-36536
X69988Y-41650
X70191Y-35842
X70558Y-34266
X70643Y-39974
X70857Y-35796
X71101Y-41629
X72437Y-38736
X72839Y-40248
X73209Y-35345
X73786Y-35784
X73786Y-37095
T3
X58750Y-32500
X58750Y-33287
T4
X59175Y-35016
X59175Y-36984
T5
X58250Y-38500
X58250Y-39500
X58250Y-40500
X58250Y-41500
X58250Y-42500
X60250Y-31500
X60250Y-43000
X60750Y-39750
X60750Y-40750
X61250Y-31500
X61250Y-43000
X62250Y-31500
X62250Y-43000
X63250Y-31500
X63250Y-43000
X64250Y-31500
X64250Y-43000
X65250Y-31500
X65250Y-43000
X66250Y-31500
X66250Y-43000
X67250Y-31500
X67250Y-43000
X68250Y-31500
X68250Y-43000
X69250Y-31500
X69250Y-43000
X70250Y-31500
X70250Y-43000
X71250Y-31500
X71250Y-43000
T2
X57974Y-34622G85X58250Y-34622
G05
X58250Y-37378G85X57974Y-37378
G05
T0
M30
