G04 #@! TF.FileFunction,Legend,Top*
%FSLAX46Y46*%
G04 Gerber Fmt 4.6, Leading zero omitted, Abs format (unit mm)*
G04 Created by KiCad (PCBNEW 4.0.7-e2-6376~58~ubuntu17.04.1) date Wed Oct  4 11:26:47 2017*
%MOMM*%
%LPD*%
G01*
G04 APERTURE LIST*
%ADD10C,0.100000*%
%ADD11C,0.200000*%
%ADD12C,0.120000*%
%ADD13C,0.254000*%
%ADD14C,0.150000*%
%ADD15C,0.381000*%
%ADD16C,0.203200*%
%ADD17C,0.127000*%
%ADD18C,0.010000*%
%ADD19C,0.152400*%
G04 APERTURE END LIST*
D10*
X164101429Y-110205715D02*
X163815714Y-110405715D01*
X164101429Y-110548572D02*
X163501429Y-110548572D01*
X163501429Y-110320000D01*
X163530000Y-110262858D01*
X163558571Y-110234286D01*
X163615714Y-110205715D01*
X163701429Y-110205715D01*
X163758571Y-110234286D01*
X163787143Y-110262858D01*
X163815714Y-110320000D01*
X163815714Y-110548572D01*
X163787143Y-109748572D02*
X163787143Y-109948572D01*
X164101429Y-109948572D02*
X163501429Y-109948572D01*
X163501429Y-109662858D01*
X164101429Y-109434286D02*
X163501429Y-109434286D01*
X163930000Y-109234286D01*
X163501429Y-109034286D01*
X164101429Y-109034286D01*
X163501429Y-108491429D02*
X163501429Y-108605715D01*
X163530000Y-108662858D01*
X163558571Y-108691429D01*
X163644286Y-108748572D01*
X163758571Y-108777143D01*
X163987143Y-108777143D01*
X164044286Y-108748572D01*
X164072857Y-108720000D01*
X164101429Y-108662858D01*
X164101429Y-108548572D01*
X164072857Y-108491429D01*
X164044286Y-108462858D01*
X163987143Y-108434286D01*
X163844286Y-108434286D01*
X163787143Y-108462858D01*
X163758571Y-108491429D01*
X163730000Y-108548572D01*
X163730000Y-108662858D01*
X163758571Y-108720000D01*
X163787143Y-108748572D01*
X163844286Y-108777143D01*
X164101429Y-108148571D02*
X164101429Y-108034286D01*
X164072857Y-107977143D01*
X164044286Y-107948571D01*
X163958571Y-107891429D01*
X163844286Y-107862857D01*
X163615714Y-107862857D01*
X163558571Y-107891429D01*
X163530000Y-107920000D01*
X163501429Y-107977143D01*
X163501429Y-108091429D01*
X163530000Y-108148571D01*
X163558571Y-108177143D01*
X163615714Y-108205714D01*
X163758571Y-108205714D01*
X163815714Y-108177143D01*
X163844286Y-108148571D01*
X163872857Y-108091429D01*
X163872857Y-107977143D01*
X163844286Y-107920000D01*
X163815714Y-107891429D01*
X163758571Y-107862857D01*
X159021429Y-110520000D02*
X158421429Y-110520000D01*
X159021429Y-110177143D01*
X158421429Y-110177143D01*
X159021429Y-109548572D02*
X158735714Y-109748572D01*
X159021429Y-109891429D02*
X158421429Y-109891429D01*
X158421429Y-109662857D01*
X158450000Y-109605715D01*
X158478571Y-109577143D01*
X158535714Y-109548572D01*
X158621429Y-109548572D01*
X158678571Y-109577143D01*
X158707143Y-109605715D01*
X158735714Y-109662857D01*
X158735714Y-109891429D01*
X158707143Y-109091429D02*
X158707143Y-109291429D01*
X159021429Y-109291429D02*
X158421429Y-109291429D01*
X158421429Y-109005715D01*
X158478571Y-108805714D02*
X158450000Y-108777143D01*
X158421429Y-108720000D01*
X158421429Y-108577143D01*
X158450000Y-108520000D01*
X158478571Y-108491429D01*
X158535714Y-108462857D01*
X158592857Y-108462857D01*
X158678571Y-108491429D01*
X159021429Y-108834286D01*
X159021429Y-108462857D01*
X158621429Y-107948571D02*
X159021429Y-107948571D01*
X158392857Y-108091428D02*
X158821429Y-108234285D01*
X158821429Y-107862857D01*
X156945000Y-106730714D02*
X156945000Y-106445000D01*
X157116429Y-106787857D02*
X156516429Y-106587857D01*
X157116429Y-106387857D01*
X157116429Y-106187857D02*
X156516429Y-106187857D01*
X157116429Y-105845000D01*
X156516429Y-105845000D01*
X156516429Y-105645000D02*
X156516429Y-105302143D01*
X157116429Y-105473572D02*
X156516429Y-105473572D01*
X153135000Y-109807142D02*
X153135000Y-109521428D01*
X153306429Y-109864285D02*
X152706429Y-109664285D01*
X153306429Y-109464285D01*
X153306429Y-108978571D02*
X153306429Y-109264285D01*
X152706429Y-109264285D01*
X152706429Y-108664285D02*
X152706429Y-108549999D01*
X152735000Y-108492857D01*
X152792143Y-108435714D01*
X152906429Y-108407142D01*
X153106429Y-108407142D01*
X153220714Y-108435714D01*
X153277857Y-108492857D01*
X153306429Y-108549999D01*
X153306429Y-108664285D01*
X153277857Y-108721428D01*
X153220714Y-108778571D01*
X153106429Y-108807142D01*
X152906429Y-108807142D01*
X152792143Y-108778571D01*
X152735000Y-108721428D01*
X152706429Y-108664285D01*
X152992143Y-108150000D02*
X152992143Y-107950000D01*
X153306429Y-107864286D02*
X153306429Y-108150000D01*
X152706429Y-108150000D01*
X152706429Y-107864286D01*
X153277857Y-107635714D02*
X153306429Y-107550000D01*
X153306429Y-107407143D01*
X153277857Y-107350000D01*
X153249286Y-107321429D01*
X153192143Y-107292857D01*
X153135000Y-107292857D01*
X153077857Y-107321429D01*
X153049286Y-107350000D01*
X153020714Y-107407143D01*
X152992143Y-107521429D01*
X152963571Y-107578571D01*
X152935000Y-107607143D01*
X152877857Y-107635714D01*
X152820714Y-107635714D01*
X152763571Y-107607143D01*
X152735000Y-107578571D01*
X152706429Y-107521429D01*
X152706429Y-107378571D01*
X152735000Y-107292857D01*
X153249286Y-107035714D02*
X153277857Y-107007142D01*
X153306429Y-107035714D01*
X153277857Y-107064285D01*
X153249286Y-107035714D01*
X153306429Y-107035714D01*
X153306429Y-106750000D02*
X152706429Y-106750000D01*
X152706429Y-106350000D02*
X152706429Y-106235714D01*
X152735000Y-106178572D01*
X152792143Y-106121429D01*
X152906429Y-106092857D01*
X153106429Y-106092857D01*
X153220714Y-106121429D01*
X153277857Y-106178572D01*
X153306429Y-106235714D01*
X153306429Y-106350000D01*
X153277857Y-106407143D01*
X153220714Y-106464286D01*
X153106429Y-106492857D01*
X152906429Y-106492857D01*
X152792143Y-106464286D01*
X152735000Y-106407143D01*
X152706429Y-106350000D01*
X150037858Y-86695000D02*
X149980715Y-86666429D01*
X149895001Y-86666429D01*
X149809286Y-86695000D01*
X149752144Y-86752143D01*
X149723572Y-86809286D01*
X149695001Y-86923571D01*
X149695001Y-87009286D01*
X149723572Y-87123571D01*
X149752144Y-87180714D01*
X149809286Y-87237857D01*
X149895001Y-87266429D01*
X149952144Y-87266429D01*
X150037858Y-87237857D01*
X150066429Y-87209286D01*
X150066429Y-87009286D01*
X149952144Y-87009286D01*
X150323572Y-87266429D02*
X150323572Y-86666429D01*
X150666429Y-87266429D01*
X150666429Y-86666429D01*
X150952143Y-87266429D02*
X150952143Y-86666429D01*
X151095000Y-86666429D01*
X151180715Y-86695000D01*
X151237857Y-86752143D01*
X151266429Y-86809286D01*
X151295000Y-86923571D01*
X151295000Y-87009286D01*
X151266429Y-87123571D01*
X151237857Y-87180714D01*
X151180715Y-87237857D01*
X151095000Y-87266429D01*
X150952143Y-87266429D01*
X149480714Y-78782857D02*
X149937857Y-78782857D01*
X149709286Y-79011429D02*
X149709286Y-78554286D01*
X150423571Y-78697143D02*
X150509285Y-78725714D01*
X150537857Y-78754286D01*
X150566428Y-78811429D01*
X150566428Y-78897143D01*
X150537857Y-78954286D01*
X150509285Y-78982857D01*
X150452143Y-79011429D01*
X150223571Y-79011429D01*
X150223571Y-78411429D01*
X150423571Y-78411429D01*
X150480714Y-78440000D01*
X150509285Y-78468571D01*
X150537857Y-78525714D01*
X150537857Y-78582857D01*
X150509285Y-78640000D01*
X150480714Y-78668571D01*
X150423571Y-78697143D01*
X150223571Y-78697143D01*
X150795000Y-78840000D02*
X151080714Y-78840000D01*
X150737857Y-79011429D02*
X150937857Y-78411429D01*
X151137857Y-79011429D01*
X151252143Y-78411429D02*
X151595000Y-78411429D01*
X151423571Y-79011429D02*
X151423571Y-78411429D01*
D11*
X154940000Y-90805000D02*
X154940000Y-102235000D01*
X172720000Y-90805000D02*
X154940000Y-90805000D01*
X172720000Y-102235000D02*
X172720000Y-90805000D01*
X154940000Y-102235000D02*
X172720000Y-102235000D01*
D10*
X189330000Y-105746428D02*
X189330000Y-105460714D01*
X189501429Y-105803571D02*
X188901429Y-105603571D01*
X189501429Y-105403571D01*
X189501429Y-104860714D02*
X189215714Y-105060714D01*
X189501429Y-105203571D02*
X188901429Y-105203571D01*
X188901429Y-104974999D01*
X188930000Y-104917857D01*
X188958571Y-104889285D01*
X189015714Y-104860714D01*
X189101429Y-104860714D01*
X189158571Y-104889285D01*
X189187143Y-104917857D01*
X189215714Y-104974999D01*
X189215714Y-105203571D01*
X189187143Y-104603571D02*
X189187143Y-104403571D01*
X189501429Y-104317857D02*
X189501429Y-104603571D01*
X188901429Y-104603571D01*
X188901429Y-104317857D01*
X189187143Y-103860714D02*
X189187143Y-104060714D01*
X189501429Y-104060714D02*
X188901429Y-104060714D01*
X188901429Y-103775000D01*
X188930000Y-102692142D02*
X188901429Y-102749285D01*
X188901429Y-102834999D01*
X188930000Y-102920714D01*
X188987143Y-102977856D01*
X189044286Y-103006428D01*
X189158571Y-103034999D01*
X189244286Y-103034999D01*
X189358571Y-103006428D01*
X189415714Y-102977856D01*
X189472857Y-102920714D01*
X189501429Y-102834999D01*
X189501429Y-102777856D01*
X189472857Y-102692142D01*
X189444286Y-102663571D01*
X189244286Y-102663571D01*
X189244286Y-102777856D01*
X189501429Y-102406428D02*
X188901429Y-102406428D01*
X189501429Y-102063571D01*
X188901429Y-102063571D01*
X189501429Y-101777857D02*
X188901429Y-101777857D01*
X188901429Y-101635000D01*
X188930000Y-101549285D01*
X188987143Y-101492143D01*
X189044286Y-101463571D01*
X189158571Y-101435000D01*
X189244286Y-101435000D01*
X189358571Y-101463571D01*
X189415714Y-101492143D01*
X189472857Y-101549285D01*
X189501429Y-101635000D01*
X189501429Y-101777857D01*
X188901429Y-100437858D02*
X188901429Y-100066429D01*
X189130000Y-100266429D01*
X189130000Y-100180715D01*
X189158571Y-100123572D01*
X189187143Y-100095001D01*
X189244286Y-100066429D01*
X189387143Y-100066429D01*
X189444286Y-100095001D01*
X189472857Y-100123572D01*
X189501429Y-100180715D01*
X189501429Y-100352143D01*
X189472857Y-100409286D01*
X189444286Y-100437858D01*
X188901429Y-99895000D02*
X189501429Y-99695000D01*
X188901429Y-99495000D01*
X188901429Y-99352143D02*
X188901429Y-98980714D01*
X189130000Y-99180714D01*
X189130000Y-99095000D01*
X189158571Y-99037857D01*
X189187143Y-99009286D01*
X189244286Y-98980714D01*
X189387143Y-98980714D01*
X189444286Y-99009286D01*
X189472857Y-99037857D01*
X189501429Y-99095000D01*
X189501429Y-99266428D01*
X189472857Y-99323571D01*
X189444286Y-99352143D01*
X189472857Y-97926428D02*
X189501429Y-97840714D01*
X189501429Y-97697857D01*
X189472857Y-97640714D01*
X189444286Y-97612143D01*
X189387143Y-97583571D01*
X189330000Y-97583571D01*
X189272857Y-97612143D01*
X189244286Y-97640714D01*
X189215714Y-97697857D01*
X189187143Y-97812143D01*
X189158571Y-97869285D01*
X189130000Y-97897857D01*
X189072857Y-97926428D01*
X189015714Y-97926428D01*
X188958571Y-97897857D01*
X188930000Y-97869285D01*
X188901429Y-97812143D01*
X188901429Y-97669285D01*
X188930000Y-97583571D01*
X189444286Y-96983571D02*
X189472857Y-97012142D01*
X189501429Y-97097856D01*
X189501429Y-97154999D01*
X189472857Y-97240714D01*
X189415714Y-97297856D01*
X189358571Y-97326428D01*
X189244286Y-97354999D01*
X189158571Y-97354999D01*
X189044286Y-97326428D01*
X188987143Y-97297856D01*
X188930000Y-97240714D01*
X188901429Y-97154999D01*
X188901429Y-97097856D01*
X188930000Y-97012142D01*
X188958571Y-96983571D01*
X189501429Y-96726428D02*
X188901429Y-96726428D01*
X189501429Y-96383571D02*
X189158571Y-96640714D01*
X188901429Y-96383571D02*
X189244286Y-96726428D01*
X189501429Y-95557857D02*
X188901429Y-95557857D01*
X189330000Y-95357857D01*
X188901429Y-95157857D01*
X189501429Y-95157857D01*
X189501429Y-94872143D02*
X188901429Y-94872143D01*
X189472857Y-94615000D02*
X189501429Y-94529286D01*
X189501429Y-94386429D01*
X189472857Y-94329286D01*
X189444286Y-94300715D01*
X189387143Y-94272143D01*
X189330000Y-94272143D01*
X189272857Y-94300715D01*
X189244286Y-94329286D01*
X189215714Y-94386429D01*
X189187143Y-94500715D01*
X189158571Y-94557857D01*
X189130000Y-94586429D01*
X189072857Y-94615000D01*
X189015714Y-94615000D01*
X188958571Y-94586429D01*
X188930000Y-94557857D01*
X188901429Y-94500715D01*
X188901429Y-94357857D01*
X188930000Y-94272143D01*
X188901429Y-93900714D02*
X188901429Y-93786428D01*
X188930000Y-93729286D01*
X188987143Y-93672143D01*
X189101429Y-93643571D01*
X189301429Y-93643571D01*
X189415714Y-93672143D01*
X189472857Y-93729286D01*
X189501429Y-93786428D01*
X189501429Y-93900714D01*
X189472857Y-93957857D01*
X189415714Y-94015000D01*
X189301429Y-94043571D01*
X189101429Y-94043571D01*
X188987143Y-94015000D01*
X188930000Y-93957857D01*
X188901429Y-93900714D01*
X189501429Y-93017857D02*
X188901429Y-93017857D01*
X189330000Y-92817857D01*
X188901429Y-92617857D01*
X189501429Y-92617857D01*
X188901429Y-92217857D02*
X188901429Y-92103571D01*
X188930000Y-92046429D01*
X188987143Y-91989286D01*
X189101429Y-91960714D01*
X189301429Y-91960714D01*
X189415714Y-91989286D01*
X189472857Y-92046429D01*
X189501429Y-92103571D01*
X189501429Y-92217857D01*
X189472857Y-92275000D01*
X189415714Y-92332143D01*
X189301429Y-92360714D01*
X189101429Y-92360714D01*
X188987143Y-92332143D01*
X188930000Y-92275000D01*
X188901429Y-92217857D01*
X189472857Y-91732143D02*
X189501429Y-91646429D01*
X189501429Y-91503572D01*
X189472857Y-91446429D01*
X189444286Y-91417858D01*
X189387143Y-91389286D01*
X189330000Y-91389286D01*
X189272857Y-91417858D01*
X189244286Y-91446429D01*
X189215714Y-91503572D01*
X189187143Y-91617858D01*
X189158571Y-91675000D01*
X189130000Y-91703572D01*
X189072857Y-91732143D01*
X189015714Y-91732143D01*
X188958571Y-91703572D01*
X188930000Y-91675000D01*
X188901429Y-91617858D01*
X188901429Y-91475000D01*
X188930000Y-91389286D01*
X189501429Y-91132143D02*
X188901429Y-91132143D01*
X188846667Y-90068333D02*
X188846667Y-89668333D01*
X189546667Y-89868333D02*
X188846667Y-89868333D01*
X188846667Y-89501667D02*
X189546667Y-89035000D01*
X188846667Y-89035000D02*
X189546667Y-89501667D01*
X189501429Y-84783572D02*
X189215714Y-84983572D01*
X189501429Y-85126429D02*
X188901429Y-85126429D01*
X188901429Y-84897857D01*
X188930000Y-84840715D01*
X188958571Y-84812143D01*
X189015714Y-84783572D01*
X189101429Y-84783572D01*
X189158571Y-84812143D01*
X189187143Y-84840715D01*
X189215714Y-84897857D01*
X189215714Y-85126429D01*
X189472857Y-84555000D02*
X189501429Y-84469286D01*
X189501429Y-84326429D01*
X189472857Y-84269286D01*
X189444286Y-84240715D01*
X189387143Y-84212143D01*
X189330000Y-84212143D01*
X189272857Y-84240715D01*
X189244286Y-84269286D01*
X189215714Y-84326429D01*
X189187143Y-84440715D01*
X189158571Y-84497857D01*
X189130000Y-84526429D01*
X189072857Y-84555000D01*
X189015714Y-84555000D01*
X188958571Y-84526429D01*
X188930000Y-84497857D01*
X188901429Y-84440715D01*
X188901429Y-84297857D01*
X188930000Y-84212143D01*
X188901429Y-84040714D02*
X188901429Y-83697857D01*
X189501429Y-83869286D02*
X188901429Y-83869286D01*
X189546667Y-87111666D02*
X189213333Y-87345000D01*
X189546667Y-87511666D02*
X188846667Y-87511666D01*
X188846667Y-87245000D01*
X188880000Y-87178333D01*
X188913333Y-87145000D01*
X188980000Y-87111666D01*
X189080000Y-87111666D01*
X189146667Y-87145000D01*
X189180000Y-87178333D01*
X189213333Y-87245000D01*
X189213333Y-87511666D01*
X188846667Y-86878333D02*
X189546667Y-86411666D01*
X188846667Y-86411666D02*
X189546667Y-86878333D01*
X188060000Y-107743571D02*
X188060000Y-107457857D01*
X188231429Y-107800714D02*
X187631429Y-107600714D01*
X188231429Y-107400714D01*
X187631429Y-106943571D02*
X187631429Y-107057857D01*
X187660000Y-107115000D01*
X187688571Y-107143571D01*
X187774286Y-107200714D01*
X187888571Y-107229285D01*
X188117143Y-107229285D01*
X188174286Y-107200714D01*
X188202857Y-107172142D01*
X188231429Y-107115000D01*
X188231429Y-107000714D01*
X188202857Y-106943571D01*
X188174286Y-106915000D01*
X188117143Y-106886428D01*
X187974286Y-106886428D01*
X187917143Y-106915000D01*
X187888571Y-106943571D01*
X187860000Y-107000714D01*
X187860000Y-107115000D01*
X187888571Y-107172142D01*
X187917143Y-107200714D01*
X187974286Y-107229285D01*
X185520000Y-107743571D02*
X185520000Y-107457857D01*
X185691429Y-107800714D02*
X185091429Y-107600714D01*
X185691429Y-107400714D01*
X185691429Y-106886428D02*
X185691429Y-107229285D01*
X185691429Y-107057857D02*
X185091429Y-107057857D01*
X185177143Y-107115000D01*
X185234286Y-107172142D01*
X185262857Y-107229285D01*
X182980000Y-107743571D02*
X182980000Y-107457857D01*
X183151429Y-107800714D02*
X182551429Y-107600714D01*
X183151429Y-107400714D01*
X182551429Y-107086428D02*
X182551429Y-107029285D01*
X182580000Y-106972142D01*
X182608571Y-106943571D01*
X182665714Y-106915000D01*
X182780000Y-106886428D01*
X182922857Y-106886428D01*
X183037143Y-106915000D01*
X183094286Y-106943571D01*
X183122857Y-106972142D01*
X183151429Y-107029285D01*
X183151429Y-107086428D01*
X183122857Y-107143571D01*
X183094286Y-107172142D01*
X183037143Y-107200714D01*
X182922857Y-107229285D01*
X182780000Y-107229285D01*
X182665714Y-107200714D01*
X182608571Y-107172142D01*
X182580000Y-107143571D01*
X182551429Y-107086428D01*
X180611429Y-107757857D02*
X180011429Y-107757857D01*
X180011429Y-107615000D01*
X180040000Y-107529285D01*
X180097143Y-107472143D01*
X180154286Y-107443571D01*
X180268571Y-107415000D01*
X180354286Y-107415000D01*
X180468571Y-107443571D01*
X180525714Y-107472143D01*
X180582857Y-107529285D01*
X180611429Y-107615000D01*
X180611429Y-107757857D01*
X180011429Y-107215000D02*
X180011429Y-106815000D01*
X180611429Y-107072143D01*
X178612858Y-81615000D02*
X178555715Y-81586429D01*
X178470001Y-81586429D01*
X178384286Y-81615000D01*
X178327144Y-81672143D01*
X178298572Y-81729286D01*
X178270001Y-81843571D01*
X178270001Y-81929286D01*
X178298572Y-82043571D01*
X178327144Y-82100714D01*
X178384286Y-82157857D01*
X178470001Y-82186429D01*
X178527144Y-82186429D01*
X178612858Y-82157857D01*
X178641429Y-82129286D01*
X178641429Y-81929286D01*
X178527144Y-81929286D01*
X178898572Y-82186429D02*
X178898572Y-81586429D01*
X179241429Y-82186429D01*
X179241429Y-81586429D01*
X179527143Y-82186429D02*
X179527143Y-81586429D01*
X179670000Y-81586429D01*
X179755715Y-81615000D01*
X179812857Y-81672143D01*
X179841429Y-81729286D01*
X179870000Y-81843571D01*
X179870000Y-81929286D01*
X179841429Y-82043571D01*
X179812857Y-82100714D01*
X179755715Y-82157857D01*
X179670000Y-82186429D01*
X179527143Y-82186429D01*
X188060000Y-82343571D02*
X188060000Y-82057857D01*
X188231429Y-82400714D02*
X187631429Y-82200714D01*
X188231429Y-82000714D01*
X187631429Y-81857857D02*
X187631429Y-81457857D01*
X188231429Y-81715000D01*
X185520000Y-82343571D02*
X185520000Y-82057857D01*
X185691429Y-82400714D02*
X185091429Y-82200714D01*
X185691429Y-82000714D01*
X185091429Y-81515000D02*
X185091429Y-81800714D01*
X185377143Y-81829285D01*
X185348571Y-81800714D01*
X185320000Y-81743571D01*
X185320000Y-81600714D01*
X185348571Y-81543571D01*
X185377143Y-81515000D01*
X185434286Y-81486428D01*
X185577143Y-81486428D01*
X185634286Y-81515000D01*
X185662857Y-81543571D01*
X185691429Y-81600714D01*
X185691429Y-81743571D01*
X185662857Y-81800714D01*
X185634286Y-81829285D01*
X182980000Y-82343571D02*
X182980000Y-82057857D01*
X183151429Y-82400714D02*
X182551429Y-82200714D01*
X183151429Y-82000714D01*
X182751429Y-81543571D02*
X183151429Y-81543571D01*
X182522857Y-81686428D02*
X182951429Y-81829285D01*
X182951429Y-81457857D01*
X172932857Y-81957857D02*
X173390000Y-81957857D01*
X173161429Y-82186429D02*
X173161429Y-81729286D01*
X173618571Y-81586429D02*
X173990000Y-81586429D01*
X173790000Y-81815000D01*
X173875714Y-81815000D01*
X173932857Y-81843571D01*
X173961428Y-81872143D01*
X173990000Y-81929286D01*
X173990000Y-82072143D01*
X173961428Y-82129286D01*
X173932857Y-82157857D01*
X173875714Y-82186429D01*
X173704286Y-82186429D01*
X173647143Y-82157857D01*
X173618571Y-82129286D01*
X174161429Y-81586429D02*
X174361429Y-82186429D01*
X174561429Y-81586429D01*
X174704286Y-81586429D02*
X175075715Y-81586429D01*
X174875715Y-81815000D01*
X174961429Y-81815000D01*
X175018572Y-81843571D01*
X175047143Y-81872143D01*
X175075715Y-81929286D01*
X175075715Y-82072143D01*
X175047143Y-82129286D01*
X175018572Y-82157857D01*
X174961429Y-82186429D01*
X174790001Y-82186429D01*
X174732858Y-82157857D01*
X174704286Y-82129286D01*
X169165714Y-81957857D02*
X169622857Y-81957857D01*
X169394286Y-82186429D02*
X169394286Y-81729286D01*
X170108571Y-81872143D02*
X170194285Y-81900714D01*
X170222857Y-81929286D01*
X170251428Y-81986429D01*
X170251428Y-82072143D01*
X170222857Y-82129286D01*
X170194285Y-82157857D01*
X170137143Y-82186429D01*
X169908571Y-82186429D01*
X169908571Y-81586429D01*
X170108571Y-81586429D01*
X170165714Y-81615000D01*
X170194285Y-81643571D01*
X170222857Y-81700714D01*
X170222857Y-81757857D01*
X170194285Y-81815000D01*
X170165714Y-81843571D01*
X170108571Y-81872143D01*
X169908571Y-81872143D01*
X170480000Y-82015000D02*
X170765714Y-82015000D01*
X170422857Y-82186429D02*
X170622857Y-81586429D01*
X170822857Y-82186429D01*
X170937143Y-81586429D02*
X171280000Y-81586429D01*
X171108571Y-82186429D02*
X171108571Y-81586429D01*
X178071429Y-107757857D02*
X177471429Y-107757857D01*
X177471429Y-107615000D01*
X177500000Y-107529285D01*
X177557143Y-107472143D01*
X177614286Y-107443571D01*
X177728571Y-107415000D01*
X177814286Y-107415000D01*
X177928571Y-107443571D01*
X177985714Y-107472143D01*
X178042857Y-107529285D01*
X178071429Y-107615000D01*
X178071429Y-107757857D01*
X177471429Y-106900714D02*
X177471429Y-107015000D01*
X177500000Y-107072143D01*
X177528571Y-107100714D01*
X177614286Y-107157857D01*
X177728571Y-107186428D01*
X177957143Y-107186428D01*
X178014286Y-107157857D01*
X178042857Y-107129285D01*
X178071429Y-107072143D01*
X178071429Y-106957857D01*
X178042857Y-106900714D01*
X178014286Y-106872143D01*
X177957143Y-106843571D01*
X177814286Y-106843571D01*
X177757143Y-106872143D01*
X177728571Y-106900714D01*
X177700000Y-106957857D01*
X177700000Y-107072143D01*
X177728571Y-107129285D01*
X177757143Y-107157857D01*
X177814286Y-107186428D01*
X175531429Y-107757857D02*
X174931429Y-107757857D01*
X174931429Y-107615000D01*
X174960000Y-107529285D01*
X175017143Y-107472143D01*
X175074286Y-107443571D01*
X175188571Y-107415000D01*
X175274286Y-107415000D01*
X175388571Y-107443571D01*
X175445714Y-107472143D01*
X175502857Y-107529285D01*
X175531429Y-107615000D01*
X175531429Y-107757857D01*
X174931429Y-106872143D02*
X174931429Y-107157857D01*
X175217143Y-107186428D01*
X175188571Y-107157857D01*
X175160000Y-107100714D01*
X175160000Y-106957857D01*
X175188571Y-106900714D01*
X175217143Y-106872143D01*
X175274286Y-106843571D01*
X175417143Y-106843571D01*
X175474286Y-106872143D01*
X175502857Y-106900714D01*
X175531429Y-106957857D01*
X175531429Y-107100714D01*
X175502857Y-107157857D01*
X175474286Y-107186428D01*
X172991429Y-107757857D02*
X172391429Y-107757857D01*
X172391429Y-107615000D01*
X172420000Y-107529285D01*
X172477143Y-107472143D01*
X172534286Y-107443571D01*
X172648571Y-107415000D01*
X172734286Y-107415000D01*
X172848571Y-107443571D01*
X172905714Y-107472143D01*
X172962857Y-107529285D01*
X172991429Y-107615000D01*
X172991429Y-107757857D01*
X172591429Y-106900714D02*
X172991429Y-106900714D01*
X172362857Y-107043571D02*
X172791429Y-107186428D01*
X172791429Y-106815000D01*
X170451429Y-107757857D02*
X169851429Y-107757857D01*
X169851429Y-107615000D01*
X169880000Y-107529285D01*
X169937143Y-107472143D01*
X169994286Y-107443571D01*
X170108571Y-107415000D01*
X170194286Y-107415000D01*
X170308571Y-107443571D01*
X170365714Y-107472143D01*
X170422857Y-107529285D01*
X170451429Y-107615000D01*
X170451429Y-107757857D01*
X169851429Y-107215000D02*
X169851429Y-106843571D01*
X170080000Y-107043571D01*
X170080000Y-106957857D01*
X170108571Y-106900714D01*
X170137143Y-106872143D01*
X170194286Y-106843571D01*
X170337143Y-106843571D01*
X170394286Y-106872143D01*
X170422857Y-106900714D01*
X170451429Y-106957857D01*
X170451429Y-107129285D01*
X170422857Y-107186428D01*
X170394286Y-107215000D01*
D12*
X170215000Y-85440000D02*
X170215000Y-84740000D01*
X171415000Y-84740000D02*
X171415000Y-85440000D01*
X174590000Y-84740000D02*
X174590000Y-85440000D01*
X173390000Y-85440000D02*
X173390000Y-84740000D01*
X183165000Y-99730000D02*
X183865000Y-99730000D01*
X183865000Y-100930000D02*
X183165000Y-100930000D01*
X147230000Y-87850000D02*
X152730000Y-87850000D01*
X147230000Y-89950000D02*
X152730000Y-89950000D01*
X147230000Y-87850000D02*
X147230000Y-89950000D01*
X154215000Y-84040000D02*
X159715000Y-84040000D01*
X154215000Y-86140000D02*
X159715000Y-86140000D01*
X154215000Y-84040000D02*
X154215000Y-86140000D01*
X165065000Y-80295000D02*
X165065000Y-80995000D01*
X163865000Y-80995000D02*
X163865000Y-80295000D01*
X168240000Y-80295000D02*
X168240000Y-80995000D01*
X167040000Y-80995000D02*
X167040000Y-80295000D01*
X187360000Y-84805000D02*
X187360000Y-84105000D01*
X188560000Y-84105000D02*
X188560000Y-84805000D01*
X189290000Y-110550000D02*
X189290000Y-107890000D01*
X171450000Y-110550000D02*
X189290000Y-110550000D01*
X171450000Y-107890000D02*
X189290000Y-107890000D01*
X171450000Y-110550000D02*
X171450000Y-107890000D01*
X170180000Y-110550000D02*
X168850000Y-110550000D01*
X168850000Y-110550000D02*
X168850000Y-109220000D01*
X189290000Y-81340000D02*
X189290000Y-78680000D01*
X171450000Y-81340000D02*
X189290000Y-81340000D01*
X171450000Y-78680000D02*
X189290000Y-78680000D01*
X171450000Y-81340000D02*
X171450000Y-78680000D01*
X170180000Y-81340000D02*
X168850000Y-81340000D01*
X168850000Y-81340000D02*
X168850000Y-80010000D01*
X152295000Y-79865000D02*
X147595000Y-79865000D01*
X147595000Y-79865000D02*
X147595000Y-85965000D01*
X147595000Y-85965000D02*
X152295000Y-85965000D01*
X152295000Y-85965000D02*
X152295000Y-79865000D01*
X152295000Y-82415000D02*
X151695000Y-82415000D01*
X151695000Y-82415000D02*
X151695000Y-80465000D01*
X151695000Y-80465000D02*
X148195000Y-80465000D01*
X148195000Y-80465000D02*
X148195000Y-85365000D01*
X148195000Y-85365000D02*
X151695000Y-85365000D01*
X151695000Y-85365000D02*
X151695000Y-83415000D01*
X151695000Y-83415000D02*
X152295000Y-83415000D01*
X150995000Y-79865000D02*
X150995000Y-80465000D01*
X149695000Y-79865000D02*
X149695000Y-80465000D01*
X150995000Y-85965000D02*
X150995000Y-85365000D01*
X149695000Y-85965000D02*
X149695000Y-85365000D01*
X152295000Y-81615000D02*
X152495000Y-81615000D01*
X152495000Y-81615000D02*
X152495000Y-81315000D01*
X152495000Y-81315000D02*
X152295000Y-81315000D01*
X152395000Y-81615000D02*
X152395000Y-81315000D01*
X148195000Y-82815000D02*
X148695000Y-82815000D01*
X148695000Y-82815000D02*
X148695000Y-83015000D01*
X148695000Y-83015000D02*
X148195000Y-83015000D01*
X148195000Y-82915000D02*
X148695000Y-82915000D01*
X152595000Y-80815000D02*
X152595000Y-79565000D01*
X152595000Y-79565000D02*
X151345000Y-79565000D01*
X186645000Y-95750000D02*
X186645000Y-94750000D01*
X188005000Y-94750000D02*
X188005000Y-95750000D01*
X180930000Y-104640000D02*
X180930000Y-103640000D01*
X182290000Y-103640000D02*
X182290000Y-104640000D01*
X186645000Y-100830000D02*
X186645000Y-99830000D01*
X188005000Y-99830000D02*
X188005000Y-100830000D01*
X185465000Y-83955000D02*
X185465000Y-84955000D01*
X184105000Y-84955000D02*
X184105000Y-83955000D01*
X182290000Y-83955000D02*
X182290000Y-84955000D01*
X180930000Y-84955000D02*
X180930000Y-83955000D01*
X160610000Y-81145000D02*
X160610000Y-80145000D01*
X161970000Y-80145000D02*
X161970000Y-81145000D01*
X186645000Y-90035000D02*
X186645000Y-89035000D01*
X188005000Y-89035000D02*
X188005000Y-90035000D01*
X166960000Y-85590000D02*
X166960000Y-84590000D01*
X168320000Y-84590000D02*
X168320000Y-85590000D01*
X165145000Y-84590000D02*
X165145000Y-85590000D01*
X163785000Y-85590000D02*
X163785000Y-84590000D01*
D13*
X151361140Y-102730300D02*
X151361140Y-103629460D01*
X151361140Y-103629460D02*
X152059640Y-103629460D01*
X152059640Y-103629460D02*
X152059640Y-102029260D01*
X147660360Y-102029260D02*
X147660360Y-103629460D01*
X147660360Y-103629460D02*
X148358860Y-103629460D01*
X148358860Y-103629460D02*
X148358860Y-102730300D01*
X148358860Y-97030540D02*
X147660360Y-97030540D01*
X147660360Y-97030540D02*
X147660360Y-98630740D01*
X148358860Y-97030540D02*
X148358860Y-97929700D01*
X152059640Y-98630740D02*
X152059640Y-97030540D01*
X152059640Y-97030540D02*
X151361140Y-97030540D01*
X151361140Y-97030540D02*
X151361140Y-97929700D01*
X148859240Y-98331020D02*
X147861020Y-99329240D01*
X147861020Y-99329240D02*
X147861020Y-101330760D01*
X147861020Y-101330760D02*
X148859240Y-102328980D01*
X148859240Y-102328980D02*
X150860760Y-102328980D01*
X150860760Y-102328980D02*
X151858980Y-101330760D01*
X151858980Y-101330760D02*
X151858980Y-99329240D01*
X151858980Y-99329240D02*
X150860760Y-98331020D01*
X150860760Y-98331020D02*
X148859240Y-98331020D01*
X147259040Y-99029520D02*
X147259040Y-101630480D01*
X151160480Y-97729040D02*
X148559520Y-97729040D01*
X147259040Y-101630480D02*
X148559520Y-102930960D01*
X148559520Y-102930960D02*
X151160480Y-102930960D01*
X151160480Y-102930960D02*
X152460960Y-101630480D01*
X152460960Y-101630480D02*
X152460960Y-99029520D01*
X148559520Y-97729040D02*
X147259040Y-99029520D01*
X152460960Y-99029520D02*
X151160480Y-97729040D01*
X150860760Y-100330000D02*
G75*
G03X150860760Y-100330000I-1000760J0D01*
G01*
D14*
X183330000Y-89085000D02*
X183105000Y-89085000D01*
X183330000Y-96335000D02*
X183005000Y-96335000D01*
X176080000Y-96335000D02*
X176405000Y-96335000D01*
X176080000Y-89085000D02*
X176405000Y-89085000D01*
X183330000Y-89085000D02*
X183330000Y-89410000D01*
X176080000Y-89085000D02*
X176080000Y-89410000D01*
X176080000Y-96335000D02*
X176080000Y-96010000D01*
X183330000Y-96335000D02*
X183330000Y-96010000D01*
X183105000Y-89085000D02*
X183105000Y-87660000D01*
D15*
X167866060Y-94955360D02*
X161063940Y-94955360D01*
X161063940Y-91356180D02*
X167866060Y-91356180D01*
X159263080Y-93154500D02*
G75*
G03X161063940Y-94955360I1800860J0D01*
G01*
X161063940Y-91356180D02*
G75*
G03X159265620Y-93154500I0J-1798320D01*
G01*
X167866060Y-94952820D02*
G75*
G03X169664380Y-93154500I0J1798320D01*
G01*
X169664380Y-93154500D02*
G75*
G03X167866060Y-91356180I-1798320J0D01*
G01*
X158762700Y-93154500D02*
G75*
G03X161063940Y-95455740I2301240J0D01*
G01*
X161063940Y-90855800D02*
G75*
G03X158765240Y-93154500I0J-2298700D01*
G01*
X167866060Y-95453200D02*
G75*
G03X170164760Y-93154500I0J2298700D01*
G01*
X170164760Y-93154500D02*
G75*
G03X167866060Y-90855800I-2298700J0D01*
G01*
X158765240Y-95455740D02*
X158765240Y-90855800D01*
X158765240Y-90855800D02*
X170164760Y-90855800D01*
X170164760Y-90855800D02*
X170164760Y-95455740D01*
X170164760Y-95455740D02*
X158765240Y-95455740D01*
X169067480Y-100055680D02*
G75*
G03X169067480Y-100055680I-3101340J0D01*
G01*
X172514260Y-89204800D02*
X172514260Y-105105200D01*
X172514260Y-105105200D02*
X156415740Y-105105200D01*
X156415740Y-105105200D02*
X156415740Y-89204800D01*
X156415740Y-89204800D02*
X172514260Y-89204800D01*
D14*
X174590000Y-104945000D02*
X174640000Y-104945000D01*
X174590000Y-100795000D02*
X174735000Y-100795000D01*
X179740000Y-100795000D02*
X179595000Y-100795000D01*
X179740000Y-104945000D02*
X179595000Y-104945000D01*
X174590000Y-104945000D02*
X174590000Y-100795000D01*
X179740000Y-104945000D02*
X179740000Y-100795000D01*
X174640000Y-104945000D02*
X174640000Y-106345000D01*
D12*
X155895000Y-80145000D02*
X155895000Y-79095000D01*
X155895000Y-79095000D02*
X157745000Y-79095000D01*
X155895000Y-82145000D02*
X155895000Y-81145000D01*
X155915000Y-82155000D02*
X158345000Y-82155000D01*
X187005000Y-105275000D02*
X187005000Y-106325000D01*
X187005000Y-106325000D02*
X185155000Y-106325000D01*
X187005000Y-103275000D02*
X187005000Y-104275000D01*
X186985000Y-103265000D02*
X184555000Y-103265000D01*
D16*
X179500000Y-84440000D02*
X179600000Y-84440000D01*
X179600000Y-84440000D02*
X179600000Y-85740000D01*
X179600000Y-85740000D02*
X179500000Y-85740000D01*
X176100000Y-85740000D02*
X175950000Y-85740000D01*
X175950000Y-85740000D02*
X175950000Y-84440000D01*
X175950000Y-84440000D02*
X176100000Y-84440000D01*
D17*
X177000000Y-84440000D02*
X177400000Y-84440000D01*
X178200000Y-84440000D02*
X178600000Y-84440000D01*
X177000000Y-85740000D02*
X177400000Y-85740000D01*
X178200000Y-85740000D02*
X178600000Y-85740000D01*
X176600000Y-86290000D02*
G75*
G03X176600000Y-86290000I-200000J0D01*
G01*
D18*
G36*
X148065126Y-107959945D02*
X148065220Y-107868675D01*
X148065419Y-107791716D01*
X148065760Y-107727758D01*
X148066284Y-107675489D01*
X148067027Y-107633599D01*
X148068028Y-107600776D01*
X148069325Y-107575709D01*
X148070957Y-107557088D01*
X148072962Y-107543601D01*
X148075379Y-107533938D01*
X148078245Y-107526787D01*
X148081030Y-107521758D01*
X148106640Y-107494028D01*
X148139393Y-107479938D01*
X148175443Y-107481031D01*
X148179662Y-107482211D01*
X148195949Y-107489233D01*
X148224091Y-107503526D01*
X148261785Y-107523756D01*
X148306725Y-107548590D01*
X148356606Y-107576695D01*
X148409124Y-107606739D01*
X148461973Y-107637388D01*
X148512848Y-107667309D01*
X148559445Y-107695170D01*
X148599458Y-107719638D01*
X148630583Y-107739379D01*
X148650515Y-107753061D01*
X148656037Y-107757694D01*
X148662113Y-107765064D01*
X148666798Y-107774116D01*
X148670367Y-107787179D01*
X148673096Y-107806585D01*
X148675261Y-107834664D01*
X148677138Y-107873746D01*
X148679004Y-107926163D01*
X148680108Y-107960985D01*
X148681922Y-108014701D01*
X148683804Y-108062224D01*
X148685635Y-108101121D01*
X148687296Y-108128962D01*
X148688666Y-108143313D01*
X148689121Y-108144733D01*
X148697205Y-108140723D01*
X148717349Y-108129658D01*
X148746968Y-108112988D01*
X148783477Y-108092162D01*
X148806154Y-108079117D01*
X148919884Y-108013500D01*
X148920200Y-107623186D01*
X148728386Y-107513873D01*
X148675549Y-107483381D01*
X148626730Y-107454488D01*
X148584149Y-107428565D01*
X148550027Y-107406984D01*
X148526586Y-107391117D01*
X148516719Y-107383150D01*
X148496867Y-107361740D01*
X148496867Y-106293855D01*
X148524787Y-106266794D01*
X148538613Y-106254194D01*
X148551887Y-106245167D01*
X148566269Y-106240259D01*
X148583417Y-106240016D01*
X148604992Y-106244985D01*
X148632654Y-106255711D01*
X148668061Y-106272741D01*
X148712872Y-106296622D01*
X148768749Y-106327898D01*
X148837349Y-106367117D01*
X148847734Y-106373083D01*
X148919273Y-106414520D01*
X148976979Y-106448706D01*
X149021966Y-106476354D01*
X149055343Y-106498176D01*
X149078222Y-106514885D01*
X149091716Y-106527195D01*
X149095235Y-106531833D01*
X149100610Y-106542704D01*
X149104771Y-106557023D01*
X149107955Y-106577221D01*
X149110401Y-106605729D01*
X149112348Y-106644977D01*
X149114035Y-106697397D01*
X149114934Y-106732550D01*
X149119167Y-106907868D01*
X149235583Y-106839682D01*
X149352000Y-106771496D01*
X149353077Y-106617798D01*
X149353761Y-106559858D01*
X149354949Y-106499717D01*
X149356504Y-106442683D01*
X149358291Y-106394062D01*
X149359427Y-106370967D01*
X149364700Y-106277833D01*
X149411267Y-106247081D01*
X149431506Y-106234277D01*
X149463787Y-106214539D01*
X149505503Y-106189429D01*
X149554048Y-106160511D01*
X149606814Y-106129345D01*
X149647884Y-106105264D01*
X149707415Y-106070673D01*
X149754416Y-106043920D01*
X149790831Y-106024050D01*
X149818601Y-106010109D01*
X149839668Y-106001142D01*
X149855974Y-105996195D01*
X149869461Y-105994312D01*
X149873800Y-105994200D01*
X149882672Y-105994965D01*
X149893782Y-105997677D01*
X149908291Y-106002954D01*
X149927360Y-106011419D01*
X149952149Y-106023693D01*
X149983819Y-106040398D01*
X150023530Y-106062153D01*
X150072442Y-106089580D01*
X150131717Y-106123301D01*
X150202514Y-106163936D01*
X150285995Y-106212107D01*
X150348383Y-106248201D01*
X150430677Y-106296049D01*
X150508059Y-106341436D01*
X150579271Y-106383601D01*
X150643055Y-106421780D01*
X150698155Y-106455213D01*
X150743312Y-106483138D01*
X150777268Y-106504793D01*
X150798767Y-106519415D01*
X150806108Y-106525485D01*
X150821908Y-106557355D01*
X150823691Y-106593711D01*
X150811342Y-106628880D01*
X150800929Y-106639827D01*
X150779023Y-106656368D01*
X150744911Y-106678958D01*
X150697882Y-106708051D01*
X150637224Y-106744100D01*
X150567200Y-106784703D01*
X150500759Y-106822722D01*
X150447183Y-106852923D01*
X150404790Y-106876145D01*
X150371895Y-106893232D01*
X150346813Y-106905026D01*
X150327860Y-106912367D01*
X150313352Y-106916098D01*
X150302392Y-106917066D01*
X150286334Y-106915485D01*
X150267281Y-106909971D01*
X150242690Y-106899369D01*
X150210017Y-106882523D01*
X150166722Y-106858277D01*
X150143325Y-106844779D01*
X150100213Y-106819844D01*
X150060541Y-106797065D01*
X150027340Y-106778168D01*
X150003644Y-106764883D01*
X149994425Y-106759895D01*
X149970067Y-106747298D01*
X149970329Y-107022900D01*
X150162815Y-107132966D01*
X150215657Y-107163535D01*
X150264438Y-107192420D01*
X150306956Y-107218266D01*
X150341012Y-107239717D01*
X150364405Y-107255416D01*
X150374350Y-107263319D01*
X150379494Y-107269106D01*
X150383615Y-107275545D01*
X150386824Y-107284445D01*
X150389231Y-107297612D01*
X150390948Y-107316855D01*
X150392085Y-107343980D01*
X150392753Y-107380795D01*
X150393064Y-107429108D01*
X150393129Y-107490724D01*
X150393057Y-107567453D01*
X150393056Y-107568119D01*
X150392712Y-107852633D01*
X150369773Y-107878638D01*
X150355421Y-107890714D01*
X150328880Y-107909062D01*
X150292384Y-107932412D01*
X150248167Y-107959495D01*
X150198462Y-107989040D01*
X150145504Y-108019777D01*
X150091527Y-108050436D01*
X150038764Y-108079747D01*
X149989450Y-108106440D01*
X149945818Y-108129246D01*
X149910101Y-108146893D01*
X149884536Y-108158113D01*
X149871931Y-108161667D01*
X149845766Y-108154951D01*
X149816566Y-108136632D01*
X149815363Y-108135650D01*
X149783800Y-108109634D01*
X149782881Y-107913400D01*
X149782378Y-107854153D01*
X149781479Y-107797643D01*
X149780270Y-107747069D01*
X149778832Y-107705631D01*
X149777248Y-107676527D01*
X149776531Y-107668492D01*
X149771100Y-107619818D01*
X149654683Y-107552921D01*
X149538267Y-107486025D01*
X149538267Y-108260047D01*
X149704793Y-108355499D01*
X149759379Y-108386602D01*
X149801351Y-108409964D01*
X149832658Y-108426491D01*
X149855246Y-108437088D01*
X149871063Y-108442660D01*
X149882055Y-108444112D01*
X149890170Y-108442349D01*
X149890912Y-108442025D01*
X149903483Y-108435389D01*
X149928416Y-108421478D01*
X149963459Y-108401575D01*
X150006362Y-108376964D01*
X150054876Y-108348927D01*
X150092573Y-108327016D01*
X150157296Y-108289775D01*
X150208909Y-108261170D01*
X150248520Y-108240639D01*
X150277238Y-108227618D01*
X150296169Y-108221548D01*
X150301732Y-108220933D01*
X150312795Y-108222258D01*
X150327579Y-108226706D01*
X150347408Y-108234984D01*
X150373611Y-108247802D01*
X150407512Y-108265869D01*
X150450439Y-108289892D01*
X150503718Y-108320581D01*
X150568675Y-108358644D01*
X150646637Y-108404790D01*
X150653504Y-108408870D01*
X150699948Y-108436972D01*
X150741628Y-108463155D01*
X150776240Y-108485894D01*
X150801481Y-108503663D01*
X150815047Y-108514936D01*
X150816488Y-108516807D01*
X150823936Y-108544482D01*
X150823082Y-108577792D01*
X150814254Y-108607805D01*
X150813048Y-108610097D01*
X150801287Y-108621679D01*
X150774991Y-108640619D01*
X150734700Y-108666570D01*
X150680960Y-108699185D01*
X150614311Y-108738118D01*
X150599565Y-108746583D01*
X150397634Y-108862205D01*
X150395310Y-109003480D01*
X150392986Y-109144756D01*
X150429177Y-109123565D01*
X150444349Y-109114740D01*
X150472397Y-109098487D01*
X150511533Y-109075838D01*
X150559967Y-109047830D01*
X150615909Y-109015496D01*
X150677570Y-108979872D01*
X150743160Y-108941991D01*
X150765934Y-108928842D01*
X151066500Y-108755311D01*
X151068619Y-108562205D01*
X151070738Y-108369100D01*
X150871082Y-108255142D01*
X150810296Y-108219937D01*
X150757294Y-108188219D01*
X150713637Y-108160977D01*
X150680884Y-108139199D01*
X150660594Y-108123873D01*
X150655180Y-108118369D01*
X150651849Y-108113114D01*
X150649007Y-108106562D01*
X150646615Y-108097415D01*
X150644634Y-108084374D01*
X150643026Y-108066139D01*
X150641751Y-108041412D01*
X150640773Y-108008894D01*
X150640050Y-107967286D01*
X150639546Y-107915291D01*
X150639221Y-107851608D01*
X150639036Y-107774939D01*
X150638953Y-107683985D01*
X150638934Y-107577448D01*
X150638934Y-107572926D01*
X150638950Y-107465786D01*
X150639025Y-107374270D01*
X150639199Y-107297068D01*
X150639511Y-107232869D01*
X150640001Y-107180364D01*
X150640710Y-107138243D01*
X150641677Y-107105196D01*
X150642941Y-107079913D01*
X150644543Y-107061084D01*
X150646522Y-107047400D01*
X150648918Y-107037550D01*
X150651771Y-107030224D01*
X150655121Y-107024113D01*
X150655636Y-107023274D01*
X150679053Y-106998975D01*
X150710065Y-106984582D01*
X150742647Y-106982362D01*
X150755547Y-106985679D01*
X150770696Y-106992882D01*
X150797792Y-107007214D01*
X150834548Y-107027361D01*
X150878678Y-107052008D01*
X150927893Y-107079838D01*
X150979908Y-107109537D01*
X151032435Y-107139789D01*
X151083187Y-107169278D01*
X151129877Y-107196690D01*
X151170218Y-107220709D01*
X151201923Y-107240019D01*
X151222706Y-107253305D01*
X151229483Y-107258274D01*
X151235655Y-107264415D01*
X151240325Y-107271617D01*
X151243704Y-107282144D01*
X151245999Y-107298260D01*
X151247421Y-107322228D01*
X151248178Y-107356314D01*
X151248479Y-107402780D01*
X151248533Y-107463891D01*
X151248533Y-107464642D01*
X151248804Y-107519140D01*
X151249563Y-107567447D01*
X151250730Y-107607172D01*
X151252223Y-107635922D01*
X151253963Y-107651307D01*
X151254883Y-107653241D01*
X151264038Y-107649049D01*
X151285141Y-107637762D01*
X151315535Y-107620848D01*
X151352562Y-107599779D01*
X151375533Y-107586521D01*
X151489833Y-107520226D01*
X151495054Y-107322363D01*
X151496613Y-107263172D01*
X151498087Y-107206977D01*
X151499397Y-107156892D01*
X151500459Y-107116033D01*
X151501194Y-107087512D01*
X151501404Y-107079213D01*
X151503597Y-107050208D01*
X151510268Y-107030799D01*
X151524268Y-107013727D01*
X151528829Y-107009363D01*
X151561049Y-106989402D01*
X151595950Y-106984353D01*
X151629730Y-106993487D01*
X151658584Y-107016074D01*
X151672546Y-107036931D01*
X151679210Y-107052183D01*
X151683671Y-107069357D01*
X151686260Y-107091903D01*
X151687311Y-107123269D01*
X151687157Y-107166905D01*
X151686882Y-107185546D01*
X151686074Y-107235080D01*
X151685095Y-107295550D01*
X151684043Y-107360958D01*
X151683014Y-107425308D01*
X151682467Y-107459745D01*
X151681493Y-107515175D01*
X151680381Y-107556199D01*
X151678822Y-107585343D01*
X151676505Y-107605132D01*
X151673122Y-107618093D01*
X151668365Y-107626752D01*
X151661923Y-107633635D01*
X151661101Y-107634389D01*
X151649157Y-107642872D01*
X151624505Y-107658539D01*
X151589147Y-107680184D01*
X151545084Y-107706598D01*
X151494318Y-107736575D01*
X151438849Y-107768908D01*
X151420308Y-107779627D01*
X151356525Y-107816312D01*
X151305502Y-107845296D01*
X151265409Y-107867472D01*
X151234416Y-107883734D01*
X151210691Y-107894975D01*
X151192404Y-107902087D01*
X151177724Y-107905963D01*
X151164822Y-107907497D01*
X151157841Y-107907666D01*
X151131334Y-107906145D01*
X151113961Y-107899236D01*
X151098024Y-107883420D01*
X151094017Y-107878485D01*
X151070733Y-107849305D01*
X151070731Y-107613902D01*
X151070729Y-107378500D01*
X150992415Y-107334154D01*
X150953967Y-107312332D01*
X150915503Y-107290416D01*
X150882834Y-107271721D01*
X150869650Y-107264133D01*
X150825200Y-107238457D01*
X150825239Y-107625979D01*
X150825277Y-108013500D01*
X151005155Y-108114328D01*
X151057362Y-108144093D01*
X151106334Y-108172949D01*
X151149541Y-108199333D01*
X151184457Y-108221682D01*
X151208553Y-108238433D01*
X151216783Y-108245163D01*
X151248533Y-108275170D01*
X151248264Y-108563435D01*
X151248070Y-108644032D01*
X151247610Y-108709289D01*
X151246822Y-108760798D01*
X151245642Y-108800151D01*
X151244006Y-108828940D01*
X151241852Y-108848756D01*
X151239117Y-108861192D01*
X151236181Y-108867291D01*
X151226892Y-108874219D01*
X151204216Y-108888781D01*
X151169460Y-108910199D01*
X151123931Y-108937694D01*
X151068936Y-108970487D01*
X151005783Y-109007797D01*
X150935778Y-109048845D01*
X150860230Y-109092853D01*
X150780445Y-109139041D01*
X150778191Y-109140341D01*
X150682574Y-109195503D01*
X150600472Y-109242735D01*
X150530723Y-109282552D01*
X150472164Y-109315465D01*
X150423631Y-109341990D01*
X150383962Y-109362639D01*
X150351993Y-109377925D01*
X150326563Y-109388362D01*
X150306507Y-109394464D01*
X150290663Y-109396744D01*
X150277868Y-109395714D01*
X150266959Y-109391889D01*
X150256773Y-109385783D01*
X150246148Y-109377907D01*
X150243916Y-109376202D01*
X150215600Y-109354605D01*
X150215600Y-109064077D01*
X150215646Y-108985997D01*
X150215846Y-108923060D01*
X150216294Y-108873476D01*
X150217085Y-108835454D01*
X150218313Y-108807204D01*
X150220071Y-108786936D01*
X150222453Y-108772860D01*
X150225554Y-108763185D01*
X150229468Y-108756120D01*
X150231958Y-108752755D01*
X150244424Y-108741883D01*
X150268948Y-108724515D01*
X150302814Y-108702431D01*
X150343306Y-108677408D01*
X150382241Y-108654380D01*
X150425717Y-108629149D01*
X150464583Y-108606505D01*
X150496274Y-108587950D01*
X150518226Y-108574984D01*
X150527608Y-108569287D01*
X150527857Y-108563204D01*
X150516722Y-108552077D01*
X150493431Y-108535391D01*
X150457215Y-108512633D01*
X150407302Y-108483287D01*
X150350759Y-108451226D01*
X150303884Y-108424960D01*
X150105225Y-108538667D01*
X150042275Y-108574435D01*
X149992082Y-108602282D01*
X149952921Y-108623059D01*
X149923065Y-108637619D01*
X149900789Y-108646812D01*
X149884367Y-108651490D01*
X149874348Y-108652554D01*
X149862789Y-108651245D01*
X149847477Y-108646663D01*
X149826825Y-108637999D01*
X149799244Y-108624442D01*
X149763147Y-108605183D01*
X149716948Y-108579411D01*
X149659060Y-108546317D01*
X149605727Y-108515454D01*
X149538900Y-108476484D01*
X149485367Y-108444829D01*
X149443656Y-108419514D01*
X149412293Y-108399566D01*
X149389808Y-108384010D01*
X149374728Y-108371872D01*
X149365580Y-108362179D01*
X149360893Y-108353956D01*
X149360663Y-108353324D01*
X149358701Y-108338986D01*
X149356974Y-108308229D01*
X149355491Y-108261563D01*
X149354258Y-108199501D01*
X149353284Y-108122555D01*
X149352578Y-108031236D01*
X149352147Y-107926057D01*
X149352000Y-107807529D01*
X149352000Y-107284301D01*
X149376079Y-107261233D01*
X149403211Y-107240924D01*
X149431687Y-107232687D01*
X149464594Y-107236536D01*
X149505021Y-107252489D01*
X149523569Y-107262036D01*
X149578995Y-107292379D01*
X149636937Y-107324892D01*
X149695433Y-107358397D01*
X149752519Y-107391718D01*
X149806234Y-107423676D01*
X149854615Y-107453094D01*
X149895699Y-107478794D01*
X149927522Y-107499598D01*
X149948123Y-107514329D01*
X149955278Y-107521072D01*
X149959670Y-107537759D01*
X149963455Y-107571194D01*
X149966618Y-107621200D01*
X149969148Y-107687603D01*
X149969988Y-107719059D01*
X149974300Y-107898752D01*
X150095107Y-107830242D01*
X150215913Y-107761731D01*
X150213640Y-107570115D01*
X150211367Y-107378500D01*
X150018149Y-107267640D01*
X149965182Y-107236913D01*
X149916225Y-107207877D01*
X149873480Y-107181888D01*
X149839149Y-107160303D01*
X149815436Y-107144478D01*
X149805112Y-107136406D01*
X149785292Y-107116033D01*
X149782429Y-106840867D01*
X149781747Y-106759829D01*
X149781586Y-106694143D01*
X149781989Y-106642233D01*
X149782999Y-106602523D01*
X149784659Y-106573440D01*
X149787011Y-106553407D01*
X149790098Y-106540849D01*
X149790621Y-106539527D01*
X149808176Y-106516121D01*
X149835953Y-106496994D01*
X149867240Y-106486276D01*
X149878807Y-106485266D01*
X149890870Y-106489358D01*
X149915379Y-106500876D01*
X149950172Y-106518690D01*
X149993084Y-106541665D01*
X150041952Y-106568671D01*
X150088070Y-106594814D01*
X150140245Y-106624629D01*
X150188123Y-106651790D01*
X150229578Y-106675107D01*
X150262486Y-106693389D01*
X150284720Y-106705446D01*
X150293764Y-106709962D01*
X150308235Y-106708022D01*
X150336318Y-106696317D01*
X150378073Y-106674820D01*
X150422881Y-106649679D01*
X150462032Y-106626837D01*
X150495370Y-106606805D01*
X150520404Y-106591126D01*
X150534640Y-106581344D01*
X150536967Y-106578981D01*
X150529851Y-106574065D01*
X150509846Y-106561795D01*
X150478766Y-106543223D01*
X150438423Y-106519397D01*
X150390631Y-106491367D01*
X150337202Y-106460183D01*
X150279949Y-106426894D01*
X150220686Y-106392551D01*
X150161226Y-106358203D01*
X150103380Y-106324899D01*
X150048963Y-106293690D01*
X149999787Y-106265624D01*
X149957666Y-106241753D01*
X149924412Y-106223125D01*
X149901838Y-106210790D01*
X149894564Y-106207036D01*
X149886371Y-106203662D01*
X149877648Y-106202551D01*
X149866359Y-106204606D01*
X149850472Y-106210733D01*
X149827950Y-106221838D01*
X149796760Y-106238824D01*
X149754867Y-106262598D01*
X149704609Y-106291539D01*
X149538267Y-106387574D01*
X149538232Y-106527437D01*
X149537841Y-106585687D01*
X149536790Y-106648656D01*
X149535227Y-106709776D01*
X149533299Y-106762481D01*
X149532677Y-106775555D01*
X149527156Y-106883810D01*
X149454395Y-106928696D01*
X149425076Y-106946497D01*
X149384464Y-106970753D01*
X149335939Y-106999466D01*
X149282881Y-107030639D01*
X149228669Y-107062274D01*
X149211360Y-107072324D01*
X149150825Y-107107139D01*
X149102762Y-107133738D01*
X149065158Y-107152678D01*
X149036003Y-107164517D01*
X149013284Y-107169812D01*
X148994990Y-107169122D01*
X148979110Y-107163004D01*
X148963631Y-107152015D01*
X148954067Y-107143650D01*
X148924434Y-107116730D01*
X148921470Y-106873924D01*
X148918507Y-106631117D01*
X148808024Y-106568775D01*
X148768852Y-106546751D01*
X148734799Y-106527754D01*
X148708638Y-106513320D01*
X148693141Y-106504983D01*
X148690337Y-106503611D01*
X148688860Y-106511206D01*
X148687486Y-106534067D01*
X148686244Y-106570530D01*
X148685168Y-106618929D01*
X148684287Y-106677597D01*
X148683634Y-106744868D01*
X148683241Y-106819077D01*
X148683133Y-106885128D01*
X148683133Y-107269468D01*
X148885695Y-107386948D01*
X148956071Y-107428268D01*
X149011817Y-107462132D01*
X149053365Y-107488822D01*
X149081148Y-107508617D01*
X149095598Y-107521801D01*
X149097549Y-107524824D01*
X149100840Y-107540337D01*
X149103860Y-107570150D01*
X149106564Y-107611634D01*
X149108906Y-107662157D01*
X149110842Y-107719089D01*
X149112324Y-107779798D01*
X149113308Y-107841654D01*
X149113748Y-107902026D01*
X149113598Y-107958283D01*
X149112813Y-108007795D01*
X149111348Y-108047930D01*
X149109155Y-108076058D01*
X149107292Y-108086752D01*
X149104347Y-108097571D01*
X149101255Y-108106744D01*
X149096571Y-108115291D01*
X149088844Y-108124237D01*
X149076628Y-108134604D01*
X149058475Y-108147414D01*
X149032937Y-108163690D01*
X148998565Y-108184455D01*
X148953913Y-108210731D01*
X148897532Y-108243541D01*
X148828920Y-108283358D01*
X148763411Y-108321196D01*
X148710611Y-108351055D01*
X148668699Y-108373660D01*
X148635858Y-108389734D01*
X148610268Y-108400000D01*
X148590112Y-108405184D01*
X148573570Y-108406009D01*
X148558825Y-108403197D01*
X148544057Y-108397475D01*
X148543197Y-108397085D01*
X148530295Y-108390350D01*
X148520033Y-108381945D01*
X148512110Y-108369995D01*
X148506226Y-108352622D01*
X148502079Y-108327951D01*
X148499371Y-108294105D01*
X148497800Y-108249209D01*
X148497066Y-108191385D01*
X148496869Y-108118759D01*
X148496867Y-108107726D01*
X148496867Y-107875144D01*
X148377440Y-107806739D01*
X148337124Y-107783761D01*
X148302194Y-107764070D01*
X148275176Y-107749073D01*
X148258599Y-107740178D01*
X148254588Y-107738333D01*
X148253934Y-107746520D01*
X148253414Y-107769960D01*
X148253036Y-107806976D01*
X148252803Y-107855889D01*
X148252722Y-107915019D01*
X148252797Y-107982688D01*
X148253034Y-108057216D01*
X148253365Y-108124291D01*
X148255567Y-108510250D01*
X148421263Y-108605662D01*
X148586959Y-108701075D01*
X148789008Y-108583920D01*
X148848966Y-108549240D01*
X148896216Y-108522236D01*
X148932652Y-108502013D01*
X148960167Y-108487675D01*
X148980656Y-108478327D01*
X148996015Y-108473074D01*
X149008137Y-108471019D01*
X149018917Y-108471267D01*
X149025478Y-108472141D01*
X149042941Y-108478069D01*
X149073940Y-108492548D01*
X149118622Y-108515660D01*
X149177137Y-108547485D01*
X149249635Y-108588102D01*
X149336263Y-108637591D01*
X149381633Y-108663784D01*
X149491734Y-108727577D01*
X149587882Y-108783400D01*
X149670821Y-108831692D01*
X149741296Y-108872895D01*
X149800051Y-108907447D01*
X149847831Y-108935789D01*
X149885379Y-108958361D01*
X149913441Y-108975604D01*
X149932759Y-108987956D01*
X149944080Y-108995858D01*
X149946167Y-108997547D01*
X149960795Y-109020069D01*
X149966919Y-109050757D01*
X149963898Y-109082782D01*
X149956002Y-109102330D01*
X149943803Y-109114559D01*
X149918863Y-109133302D01*
X149883428Y-109157260D01*
X149839743Y-109185133D01*
X149790056Y-109215620D01*
X149736612Y-109247422D01*
X149681657Y-109279239D01*
X149627438Y-109309770D01*
X149576200Y-109337716D01*
X149530190Y-109361777D01*
X149491653Y-109380653D01*
X149462837Y-109393043D01*
X149445987Y-109397648D01*
X149445736Y-109397652D01*
X149430275Y-109395112D01*
X149407752Y-109386812D01*
X149376451Y-109371926D01*
X149334654Y-109349627D01*
X149280647Y-109319087D01*
X149270329Y-109313133D01*
X149225472Y-109287317D01*
X149185699Y-109264676D01*
X149153295Y-109246489D01*
X149130545Y-109234038D01*
X149119734Y-109228601D01*
X149119234Y-109228466D01*
X149117785Y-109236461D01*
X149116802Y-109258570D01*
X149116334Y-109291976D01*
X149116430Y-109333865D01*
X149116840Y-109365621D01*
X149119167Y-109502775D01*
X149302963Y-109609038D01*
X149355041Y-109639541D01*
X149403509Y-109668670D01*
X149446004Y-109694947D01*
X149480165Y-109716894D01*
X149503629Y-109733034D01*
X149512513Y-109740167D01*
X149533358Y-109770696D01*
X149538146Y-109805796D01*
X149526728Y-109844230D01*
X149525479Y-109846703D01*
X149507538Y-109871286D01*
X149482886Y-109884595D01*
X149447245Y-109888850D01*
X149444262Y-109888866D01*
X149431961Y-109887851D01*
X149417346Y-109884219D01*
X149398631Y-109877086D01*
X149374030Y-109865572D01*
X149341755Y-109848795D01*
X149300019Y-109825872D01*
X149247037Y-109795923D01*
X149191822Y-109764282D01*
X149135220Y-109731280D01*
X149082144Y-109699497D01*
X149034754Y-109670291D01*
X148995214Y-109645024D01*
X148965684Y-109625053D01*
X148948327Y-109611740D01*
X148946509Y-109609998D01*
X148917785Y-109580300D01*
X148926581Y-109013492D01*
X148953158Y-108989746D01*
X148968535Y-108977194D01*
X148983580Y-108968766D01*
X149000101Y-108965026D01*
X149019904Y-108966537D01*
X149044797Y-108973863D01*
X149076587Y-108987567D01*
X149117083Y-109008212D01*
X149168090Y-109036362D01*
X149231416Y-109072581D01*
X149246144Y-109081089D01*
X149445187Y-109196177D01*
X149485377Y-109173047D01*
X149510189Y-109158708D01*
X149544266Y-109138938D01*
X149582253Y-109116846D01*
X149604885Y-109103658D01*
X149684203Y-109057400D01*
X149609118Y-109013557D01*
X149583507Y-108998675D01*
X149545586Y-108976741D01*
X149497736Y-108949127D01*
X149442337Y-108917204D01*
X149381768Y-108882344D01*
X149318411Y-108845919D01*
X149277627Y-108822493D01*
X149021220Y-108675274D01*
X148989760Y-108690251D01*
X148972585Y-108699145D01*
X148943663Y-108714909D01*
X148905900Y-108735928D01*
X148862202Y-108760581D01*
X148815474Y-108787254D01*
X148814367Y-108787889D01*
X148753218Y-108822960D01*
X148704901Y-108850419D01*
X148667571Y-108871106D01*
X148639385Y-108885859D01*
X148618499Y-108895517D01*
X148603070Y-108900918D01*
X148591254Y-108902901D01*
X148581208Y-108902304D01*
X148571087Y-108899966D01*
X148569135Y-108899430D01*
X148554716Y-108893287D01*
X148527749Y-108879724D01*
X148490308Y-108859863D01*
X148444466Y-108834827D01*
X148392294Y-108805740D01*
X148335865Y-108773724D01*
X148314614Y-108761528D01*
X148243646Y-108720325D01*
X148186641Y-108686417D01*
X148142604Y-108659162D01*
X148110539Y-108637922D01*
X148089451Y-108622055D01*
X148078345Y-108610922D01*
X148076959Y-108608704D01*
X148074445Y-108601411D01*
X148072297Y-108589134D01*
X148070489Y-108570666D01*
X148068995Y-108544800D01*
X148067788Y-108510330D01*
X148066842Y-108466049D01*
X148066131Y-108410750D01*
X148065627Y-108343227D01*
X148065305Y-108262274D01*
X148065138Y-108166683D01*
X148065098Y-108066837D01*
X148065126Y-107959945D01*
X148065126Y-107959945D01*
G37*
X148065126Y-107959945D02*
X148065220Y-107868675D01*
X148065419Y-107791716D01*
X148065760Y-107727758D01*
X148066284Y-107675489D01*
X148067027Y-107633599D01*
X148068028Y-107600776D01*
X148069325Y-107575709D01*
X148070957Y-107557088D01*
X148072962Y-107543601D01*
X148075379Y-107533938D01*
X148078245Y-107526787D01*
X148081030Y-107521758D01*
X148106640Y-107494028D01*
X148139393Y-107479938D01*
X148175443Y-107481031D01*
X148179662Y-107482211D01*
X148195949Y-107489233D01*
X148224091Y-107503526D01*
X148261785Y-107523756D01*
X148306725Y-107548590D01*
X148356606Y-107576695D01*
X148409124Y-107606739D01*
X148461973Y-107637388D01*
X148512848Y-107667309D01*
X148559445Y-107695170D01*
X148599458Y-107719638D01*
X148630583Y-107739379D01*
X148650515Y-107753061D01*
X148656037Y-107757694D01*
X148662113Y-107765064D01*
X148666798Y-107774116D01*
X148670367Y-107787179D01*
X148673096Y-107806585D01*
X148675261Y-107834664D01*
X148677138Y-107873746D01*
X148679004Y-107926163D01*
X148680108Y-107960985D01*
X148681922Y-108014701D01*
X148683804Y-108062224D01*
X148685635Y-108101121D01*
X148687296Y-108128962D01*
X148688666Y-108143313D01*
X148689121Y-108144733D01*
X148697205Y-108140723D01*
X148717349Y-108129658D01*
X148746968Y-108112988D01*
X148783477Y-108092162D01*
X148806154Y-108079117D01*
X148919884Y-108013500D01*
X148920200Y-107623186D01*
X148728386Y-107513873D01*
X148675549Y-107483381D01*
X148626730Y-107454488D01*
X148584149Y-107428565D01*
X148550027Y-107406984D01*
X148526586Y-107391117D01*
X148516719Y-107383150D01*
X148496867Y-107361740D01*
X148496867Y-106293855D01*
X148524787Y-106266794D01*
X148538613Y-106254194D01*
X148551887Y-106245167D01*
X148566269Y-106240259D01*
X148583417Y-106240016D01*
X148604992Y-106244985D01*
X148632654Y-106255711D01*
X148668061Y-106272741D01*
X148712872Y-106296622D01*
X148768749Y-106327898D01*
X148837349Y-106367117D01*
X148847734Y-106373083D01*
X148919273Y-106414520D01*
X148976979Y-106448706D01*
X149021966Y-106476354D01*
X149055343Y-106498176D01*
X149078222Y-106514885D01*
X149091716Y-106527195D01*
X149095235Y-106531833D01*
X149100610Y-106542704D01*
X149104771Y-106557023D01*
X149107955Y-106577221D01*
X149110401Y-106605729D01*
X149112348Y-106644977D01*
X149114035Y-106697397D01*
X149114934Y-106732550D01*
X149119167Y-106907868D01*
X149235583Y-106839682D01*
X149352000Y-106771496D01*
X149353077Y-106617798D01*
X149353761Y-106559858D01*
X149354949Y-106499717D01*
X149356504Y-106442683D01*
X149358291Y-106394062D01*
X149359427Y-106370967D01*
X149364700Y-106277833D01*
X149411267Y-106247081D01*
X149431506Y-106234277D01*
X149463787Y-106214539D01*
X149505503Y-106189429D01*
X149554048Y-106160511D01*
X149606814Y-106129345D01*
X149647884Y-106105264D01*
X149707415Y-106070673D01*
X149754416Y-106043920D01*
X149790831Y-106024050D01*
X149818601Y-106010109D01*
X149839668Y-106001142D01*
X149855974Y-105996195D01*
X149869461Y-105994312D01*
X149873800Y-105994200D01*
X149882672Y-105994965D01*
X149893782Y-105997677D01*
X149908291Y-106002954D01*
X149927360Y-106011419D01*
X149952149Y-106023693D01*
X149983819Y-106040398D01*
X150023530Y-106062153D01*
X150072442Y-106089580D01*
X150131717Y-106123301D01*
X150202514Y-106163936D01*
X150285995Y-106212107D01*
X150348383Y-106248201D01*
X150430677Y-106296049D01*
X150508059Y-106341436D01*
X150579271Y-106383601D01*
X150643055Y-106421780D01*
X150698155Y-106455213D01*
X150743312Y-106483138D01*
X150777268Y-106504793D01*
X150798767Y-106519415D01*
X150806108Y-106525485D01*
X150821908Y-106557355D01*
X150823691Y-106593711D01*
X150811342Y-106628880D01*
X150800929Y-106639827D01*
X150779023Y-106656368D01*
X150744911Y-106678958D01*
X150697882Y-106708051D01*
X150637224Y-106744100D01*
X150567200Y-106784703D01*
X150500759Y-106822722D01*
X150447183Y-106852923D01*
X150404790Y-106876145D01*
X150371895Y-106893232D01*
X150346813Y-106905026D01*
X150327860Y-106912367D01*
X150313352Y-106916098D01*
X150302392Y-106917066D01*
X150286334Y-106915485D01*
X150267281Y-106909971D01*
X150242690Y-106899369D01*
X150210017Y-106882523D01*
X150166722Y-106858277D01*
X150143325Y-106844779D01*
X150100213Y-106819844D01*
X150060541Y-106797065D01*
X150027340Y-106778168D01*
X150003644Y-106764883D01*
X149994425Y-106759895D01*
X149970067Y-106747298D01*
X149970329Y-107022900D01*
X150162815Y-107132966D01*
X150215657Y-107163535D01*
X150264438Y-107192420D01*
X150306956Y-107218266D01*
X150341012Y-107239717D01*
X150364405Y-107255416D01*
X150374350Y-107263319D01*
X150379494Y-107269106D01*
X150383615Y-107275545D01*
X150386824Y-107284445D01*
X150389231Y-107297612D01*
X150390948Y-107316855D01*
X150392085Y-107343980D01*
X150392753Y-107380795D01*
X150393064Y-107429108D01*
X150393129Y-107490724D01*
X150393057Y-107567453D01*
X150393056Y-107568119D01*
X150392712Y-107852633D01*
X150369773Y-107878638D01*
X150355421Y-107890714D01*
X150328880Y-107909062D01*
X150292384Y-107932412D01*
X150248167Y-107959495D01*
X150198462Y-107989040D01*
X150145504Y-108019777D01*
X150091527Y-108050436D01*
X150038764Y-108079747D01*
X149989450Y-108106440D01*
X149945818Y-108129246D01*
X149910101Y-108146893D01*
X149884536Y-108158113D01*
X149871931Y-108161667D01*
X149845766Y-108154951D01*
X149816566Y-108136632D01*
X149815363Y-108135650D01*
X149783800Y-108109634D01*
X149782881Y-107913400D01*
X149782378Y-107854153D01*
X149781479Y-107797643D01*
X149780270Y-107747069D01*
X149778832Y-107705631D01*
X149777248Y-107676527D01*
X149776531Y-107668492D01*
X149771100Y-107619818D01*
X149654683Y-107552921D01*
X149538267Y-107486025D01*
X149538267Y-108260047D01*
X149704793Y-108355499D01*
X149759379Y-108386602D01*
X149801351Y-108409964D01*
X149832658Y-108426491D01*
X149855246Y-108437088D01*
X149871063Y-108442660D01*
X149882055Y-108444112D01*
X149890170Y-108442349D01*
X149890912Y-108442025D01*
X149903483Y-108435389D01*
X149928416Y-108421478D01*
X149963459Y-108401575D01*
X150006362Y-108376964D01*
X150054876Y-108348927D01*
X150092573Y-108327016D01*
X150157296Y-108289775D01*
X150208909Y-108261170D01*
X150248520Y-108240639D01*
X150277238Y-108227618D01*
X150296169Y-108221548D01*
X150301732Y-108220933D01*
X150312795Y-108222258D01*
X150327579Y-108226706D01*
X150347408Y-108234984D01*
X150373611Y-108247802D01*
X150407512Y-108265869D01*
X150450439Y-108289892D01*
X150503718Y-108320581D01*
X150568675Y-108358644D01*
X150646637Y-108404790D01*
X150653504Y-108408870D01*
X150699948Y-108436972D01*
X150741628Y-108463155D01*
X150776240Y-108485894D01*
X150801481Y-108503663D01*
X150815047Y-108514936D01*
X150816488Y-108516807D01*
X150823936Y-108544482D01*
X150823082Y-108577792D01*
X150814254Y-108607805D01*
X150813048Y-108610097D01*
X150801287Y-108621679D01*
X150774991Y-108640619D01*
X150734700Y-108666570D01*
X150680960Y-108699185D01*
X150614311Y-108738118D01*
X150599565Y-108746583D01*
X150397634Y-108862205D01*
X150395310Y-109003480D01*
X150392986Y-109144756D01*
X150429177Y-109123565D01*
X150444349Y-109114740D01*
X150472397Y-109098487D01*
X150511533Y-109075838D01*
X150559967Y-109047830D01*
X150615909Y-109015496D01*
X150677570Y-108979872D01*
X150743160Y-108941991D01*
X150765934Y-108928842D01*
X151066500Y-108755311D01*
X151068619Y-108562205D01*
X151070738Y-108369100D01*
X150871082Y-108255142D01*
X150810296Y-108219937D01*
X150757294Y-108188219D01*
X150713637Y-108160977D01*
X150680884Y-108139199D01*
X150660594Y-108123873D01*
X150655180Y-108118369D01*
X150651849Y-108113114D01*
X150649007Y-108106562D01*
X150646615Y-108097415D01*
X150644634Y-108084374D01*
X150643026Y-108066139D01*
X150641751Y-108041412D01*
X150640773Y-108008894D01*
X150640050Y-107967286D01*
X150639546Y-107915291D01*
X150639221Y-107851608D01*
X150639036Y-107774939D01*
X150638953Y-107683985D01*
X150638934Y-107577448D01*
X150638934Y-107572926D01*
X150638950Y-107465786D01*
X150639025Y-107374270D01*
X150639199Y-107297068D01*
X150639511Y-107232869D01*
X150640001Y-107180364D01*
X150640710Y-107138243D01*
X150641677Y-107105196D01*
X150642941Y-107079913D01*
X150644543Y-107061084D01*
X150646522Y-107047400D01*
X150648918Y-107037550D01*
X150651771Y-107030224D01*
X150655121Y-107024113D01*
X150655636Y-107023274D01*
X150679053Y-106998975D01*
X150710065Y-106984582D01*
X150742647Y-106982362D01*
X150755547Y-106985679D01*
X150770696Y-106992882D01*
X150797792Y-107007214D01*
X150834548Y-107027361D01*
X150878678Y-107052008D01*
X150927893Y-107079838D01*
X150979908Y-107109537D01*
X151032435Y-107139789D01*
X151083187Y-107169278D01*
X151129877Y-107196690D01*
X151170218Y-107220709D01*
X151201923Y-107240019D01*
X151222706Y-107253305D01*
X151229483Y-107258274D01*
X151235655Y-107264415D01*
X151240325Y-107271617D01*
X151243704Y-107282144D01*
X151245999Y-107298260D01*
X151247421Y-107322228D01*
X151248178Y-107356314D01*
X151248479Y-107402780D01*
X151248533Y-107463891D01*
X151248533Y-107464642D01*
X151248804Y-107519140D01*
X151249563Y-107567447D01*
X151250730Y-107607172D01*
X151252223Y-107635922D01*
X151253963Y-107651307D01*
X151254883Y-107653241D01*
X151264038Y-107649049D01*
X151285141Y-107637762D01*
X151315535Y-107620848D01*
X151352562Y-107599779D01*
X151375533Y-107586521D01*
X151489833Y-107520226D01*
X151495054Y-107322363D01*
X151496613Y-107263172D01*
X151498087Y-107206977D01*
X151499397Y-107156892D01*
X151500459Y-107116033D01*
X151501194Y-107087512D01*
X151501404Y-107079213D01*
X151503597Y-107050208D01*
X151510268Y-107030799D01*
X151524268Y-107013727D01*
X151528829Y-107009363D01*
X151561049Y-106989402D01*
X151595950Y-106984353D01*
X151629730Y-106993487D01*
X151658584Y-107016074D01*
X151672546Y-107036931D01*
X151679210Y-107052183D01*
X151683671Y-107069357D01*
X151686260Y-107091903D01*
X151687311Y-107123269D01*
X151687157Y-107166905D01*
X151686882Y-107185546D01*
X151686074Y-107235080D01*
X151685095Y-107295550D01*
X151684043Y-107360958D01*
X151683014Y-107425308D01*
X151682467Y-107459745D01*
X151681493Y-107515175D01*
X151680381Y-107556199D01*
X151678822Y-107585343D01*
X151676505Y-107605132D01*
X151673122Y-107618093D01*
X151668365Y-107626752D01*
X151661923Y-107633635D01*
X151661101Y-107634389D01*
X151649157Y-107642872D01*
X151624505Y-107658539D01*
X151589147Y-107680184D01*
X151545084Y-107706598D01*
X151494318Y-107736575D01*
X151438849Y-107768908D01*
X151420308Y-107779627D01*
X151356525Y-107816312D01*
X151305502Y-107845296D01*
X151265409Y-107867472D01*
X151234416Y-107883734D01*
X151210691Y-107894975D01*
X151192404Y-107902087D01*
X151177724Y-107905963D01*
X151164822Y-107907497D01*
X151157841Y-107907666D01*
X151131334Y-107906145D01*
X151113961Y-107899236D01*
X151098024Y-107883420D01*
X151094017Y-107878485D01*
X151070733Y-107849305D01*
X151070731Y-107613902D01*
X151070729Y-107378500D01*
X150992415Y-107334154D01*
X150953967Y-107312332D01*
X150915503Y-107290416D01*
X150882834Y-107271721D01*
X150869650Y-107264133D01*
X150825200Y-107238457D01*
X150825239Y-107625979D01*
X150825277Y-108013500D01*
X151005155Y-108114328D01*
X151057362Y-108144093D01*
X151106334Y-108172949D01*
X151149541Y-108199333D01*
X151184457Y-108221682D01*
X151208553Y-108238433D01*
X151216783Y-108245163D01*
X151248533Y-108275170D01*
X151248264Y-108563435D01*
X151248070Y-108644032D01*
X151247610Y-108709289D01*
X151246822Y-108760798D01*
X151245642Y-108800151D01*
X151244006Y-108828940D01*
X151241852Y-108848756D01*
X151239117Y-108861192D01*
X151236181Y-108867291D01*
X151226892Y-108874219D01*
X151204216Y-108888781D01*
X151169460Y-108910199D01*
X151123931Y-108937694D01*
X151068936Y-108970487D01*
X151005783Y-109007797D01*
X150935778Y-109048845D01*
X150860230Y-109092853D01*
X150780445Y-109139041D01*
X150778191Y-109140341D01*
X150682574Y-109195503D01*
X150600472Y-109242735D01*
X150530723Y-109282552D01*
X150472164Y-109315465D01*
X150423631Y-109341990D01*
X150383962Y-109362639D01*
X150351993Y-109377925D01*
X150326563Y-109388362D01*
X150306507Y-109394464D01*
X150290663Y-109396744D01*
X150277868Y-109395714D01*
X150266959Y-109391889D01*
X150256773Y-109385783D01*
X150246148Y-109377907D01*
X150243916Y-109376202D01*
X150215600Y-109354605D01*
X150215600Y-109064077D01*
X150215646Y-108985997D01*
X150215846Y-108923060D01*
X150216294Y-108873476D01*
X150217085Y-108835454D01*
X150218313Y-108807204D01*
X150220071Y-108786936D01*
X150222453Y-108772860D01*
X150225554Y-108763185D01*
X150229468Y-108756120D01*
X150231958Y-108752755D01*
X150244424Y-108741883D01*
X150268948Y-108724515D01*
X150302814Y-108702431D01*
X150343306Y-108677408D01*
X150382241Y-108654380D01*
X150425717Y-108629149D01*
X150464583Y-108606505D01*
X150496274Y-108587950D01*
X150518226Y-108574984D01*
X150527608Y-108569287D01*
X150527857Y-108563204D01*
X150516722Y-108552077D01*
X150493431Y-108535391D01*
X150457215Y-108512633D01*
X150407302Y-108483287D01*
X150350759Y-108451226D01*
X150303884Y-108424960D01*
X150105225Y-108538667D01*
X150042275Y-108574435D01*
X149992082Y-108602282D01*
X149952921Y-108623059D01*
X149923065Y-108637619D01*
X149900789Y-108646812D01*
X149884367Y-108651490D01*
X149874348Y-108652554D01*
X149862789Y-108651245D01*
X149847477Y-108646663D01*
X149826825Y-108637999D01*
X149799244Y-108624442D01*
X149763147Y-108605183D01*
X149716948Y-108579411D01*
X149659060Y-108546317D01*
X149605727Y-108515454D01*
X149538900Y-108476484D01*
X149485367Y-108444829D01*
X149443656Y-108419514D01*
X149412293Y-108399566D01*
X149389808Y-108384010D01*
X149374728Y-108371872D01*
X149365580Y-108362179D01*
X149360893Y-108353956D01*
X149360663Y-108353324D01*
X149358701Y-108338986D01*
X149356974Y-108308229D01*
X149355491Y-108261563D01*
X149354258Y-108199501D01*
X149353284Y-108122555D01*
X149352578Y-108031236D01*
X149352147Y-107926057D01*
X149352000Y-107807529D01*
X149352000Y-107284301D01*
X149376079Y-107261233D01*
X149403211Y-107240924D01*
X149431687Y-107232687D01*
X149464594Y-107236536D01*
X149505021Y-107252489D01*
X149523569Y-107262036D01*
X149578995Y-107292379D01*
X149636937Y-107324892D01*
X149695433Y-107358397D01*
X149752519Y-107391718D01*
X149806234Y-107423676D01*
X149854615Y-107453094D01*
X149895699Y-107478794D01*
X149927522Y-107499598D01*
X149948123Y-107514329D01*
X149955278Y-107521072D01*
X149959670Y-107537759D01*
X149963455Y-107571194D01*
X149966618Y-107621200D01*
X149969148Y-107687603D01*
X149969988Y-107719059D01*
X149974300Y-107898752D01*
X150095107Y-107830242D01*
X150215913Y-107761731D01*
X150213640Y-107570115D01*
X150211367Y-107378500D01*
X150018149Y-107267640D01*
X149965182Y-107236913D01*
X149916225Y-107207877D01*
X149873480Y-107181888D01*
X149839149Y-107160303D01*
X149815436Y-107144478D01*
X149805112Y-107136406D01*
X149785292Y-107116033D01*
X149782429Y-106840867D01*
X149781747Y-106759829D01*
X149781586Y-106694143D01*
X149781989Y-106642233D01*
X149782999Y-106602523D01*
X149784659Y-106573440D01*
X149787011Y-106553407D01*
X149790098Y-106540849D01*
X149790621Y-106539527D01*
X149808176Y-106516121D01*
X149835953Y-106496994D01*
X149867240Y-106486276D01*
X149878807Y-106485266D01*
X149890870Y-106489358D01*
X149915379Y-106500876D01*
X149950172Y-106518690D01*
X149993084Y-106541665D01*
X150041952Y-106568671D01*
X150088070Y-106594814D01*
X150140245Y-106624629D01*
X150188123Y-106651790D01*
X150229578Y-106675107D01*
X150262486Y-106693389D01*
X150284720Y-106705446D01*
X150293764Y-106709962D01*
X150308235Y-106708022D01*
X150336318Y-106696317D01*
X150378073Y-106674820D01*
X150422881Y-106649679D01*
X150462032Y-106626837D01*
X150495370Y-106606805D01*
X150520404Y-106591126D01*
X150534640Y-106581344D01*
X150536967Y-106578981D01*
X150529851Y-106574065D01*
X150509846Y-106561795D01*
X150478766Y-106543223D01*
X150438423Y-106519397D01*
X150390631Y-106491367D01*
X150337202Y-106460183D01*
X150279949Y-106426894D01*
X150220686Y-106392551D01*
X150161226Y-106358203D01*
X150103380Y-106324899D01*
X150048963Y-106293690D01*
X149999787Y-106265624D01*
X149957666Y-106241753D01*
X149924412Y-106223125D01*
X149901838Y-106210790D01*
X149894564Y-106207036D01*
X149886371Y-106203662D01*
X149877648Y-106202551D01*
X149866359Y-106204606D01*
X149850472Y-106210733D01*
X149827950Y-106221838D01*
X149796760Y-106238824D01*
X149754867Y-106262598D01*
X149704609Y-106291539D01*
X149538267Y-106387574D01*
X149538232Y-106527437D01*
X149537841Y-106585687D01*
X149536790Y-106648656D01*
X149535227Y-106709776D01*
X149533299Y-106762481D01*
X149532677Y-106775555D01*
X149527156Y-106883810D01*
X149454395Y-106928696D01*
X149425076Y-106946497D01*
X149384464Y-106970753D01*
X149335939Y-106999466D01*
X149282881Y-107030639D01*
X149228669Y-107062274D01*
X149211360Y-107072324D01*
X149150825Y-107107139D01*
X149102762Y-107133738D01*
X149065158Y-107152678D01*
X149036003Y-107164517D01*
X149013284Y-107169812D01*
X148994990Y-107169122D01*
X148979110Y-107163004D01*
X148963631Y-107152015D01*
X148954067Y-107143650D01*
X148924434Y-107116730D01*
X148921470Y-106873924D01*
X148918507Y-106631117D01*
X148808024Y-106568775D01*
X148768852Y-106546751D01*
X148734799Y-106527754D01*
X148708638Y-106513320D01*
X148693141Y-106504983D01*
X148690337Y-106503611D01*
X148688860Y-106511206D01*
X148687486Y-106534067D01*
X148686244Y-106570530D01*
X148685168Y-106618929D01*
X148684287Y-106677597D01*
X148683634Y-106744868D01*
X148683241Y-106819077D01*
X148683133Y-106885128D01*
X148683133Y-107269468D01*
X148885695Y-107386948D01*
X148956071Y-107428268D01*
X149011817Y-107462132D01*
X149053365Y-107488822D01*
X149081148Y-107508617D01*
X149095598Y-107521801D01*
X149097549Y-107524824D01*
X149100840Y-107540337D01*
X149103860Y-107570150D01*
X149106564Y-107611634D01*
X149108906Y-107662157D01*
X149110842Y-107719089D01*
X149112324Y-107779798D01*
X149113308Y-107841654D01*
X149113748Y-107902026D01*
X149113598Y-107958283D01*
X149112813Y-108007795D01*
X149111348Y-108047930D01*
X149109155Y-108076058D01*
X149107292Y-108086752D01*
X149104347Y-108097571D01*
X149101255Y-108106744D01*
X149096571Y-108115291D01*
X149088844Y-108124237D01*
X149076628Y-108134604D01*
X149058475Y-108147414D01*
X149032937Y-108163690D01*
X148998565Y-108184455D01*
X148953913Y-108210731D01*
X148897532Y-108243541D01*
X148828920Y-108283358D01*
X148763411Y-108321196D01*
X148710611Y-108351055D01*
X148668699Y-108373660D01*
X148635858Y-108389734D01*
X148610268Y-108400000D01*
X148590112Y-108405184D01*
X148573570Y-108406009D01*
X148558825Y-108403197D01*
X148544057Y-108397475D01*
X148543197Y-108397085D01*
X148530295Y-108390350D01*
X148520033Y-108381945D01*
X148512110Y-108369995D01*
X148506226Y-108352622D01*
X148502079Y-108327951D01*
X148499371Y-108294105D01*
X148497800Y-108249209D01*
X148497066Y-108191385D01*
X148496869Y-108118759D01*
X148496867Y-108107726D01*
X148496867Y-107875144D01*
X148377440Y-107806739D01*
X148337124Y-107783761D01*
X148302194Y-107764070D01*
X148275176Y-107749073D01*
X148258599Y-107740178D01*
X148254588Y-107738333D01*
X148253934Y-107746520D01*
X148253414Y-107769960D01*
X148253036Y-107806976D01*
X148252803Y-107855889D01*
X148252722Y-107915019D01*
X148252797Y-107982688D01*
X148253034Y-108057216D01*
X148253365Y-108124291D01*
X148255567Y-108510250D01*
X148421263Y-108605662D01*
X148586959Y-108701075D01*
X148789008Y-108583920D01*
X148848966Y-108549240D01*
X148896216Y-108522236D01*
X148932652Y-108502013D01*
X148960167Y-108487675D01*
X148980656Y-108478327D01*
X148996015Y-108473074D01*
X149008137Y-108471019D01*
X149018917Y-108471267D01*
X149025478Y-108472141D01*
X149042941Y-108478069D01*
X149073940Y-108492548D01*
X149118622Y-108515660D01*
X149177137Y-108547485D01*
X149249635Y-108588102D01*
X149336263Y-108637591D01*
X149381633Y-108663784D01*
X149491734Y-108727577D01*
X149587882Y-108783400D01*
X149670821Y-108831692D01*
X149741296Y-108872895D01*
X149800051Y-108907447D01*
X149847831Y-108935789D01*
X149885379Y-108958361D01*
X149913441Y-108975604D01*
X149932759Y-108987956D01*
X149944080Y-108995858D01*
X149946167Y-108997547D01*
X149960795Y-109020069D01*
X149966919Y-109050757D01*
X149963898Y-109082782D01*
X149956002Y-109102330D01*
X149943803Y-109114559D01*
X149918863Y-109133302D01*
X149883428Y-109157260D01*
X149839743Y-109185133D01*
X149790056Y-109215620D01*
X149736612Y-109247422D01*
X149681657Y-109279239D01*
X149627438Y-109309770D01*
X149576200Y-109337716D01*
X149530190Y-109361777D01*
X149491653Y-109380653D01*
X149462837Y-109393043D01*
X149445987Y-109397648D01*
X149445736Y-109397652D01*
X149430275Y-109395112D01*
X149407752Y-109386812D01*
X149376451Y-109371926D01*
X149334654Y-109349627D01*
X149280647Y-109319087D01*
X149270329Y-109313133D01*
X149225472Y-109287317D01*
X149185699Y-109264676D01*
X149153295Y-109246489D01*
X149130545Y-109234038D01*
X149119734Y-109228601D01*
X149119234Y-109228466D01*
X149117785Y-109236461D01*
X149116802Y-109258570D01*
X149116334Y-109291976D01*
X149116430Y-109333865D01*
X149116840Y-109365621D01*
X149119167Y-109502775D01*
X149302963Y-109609038D01*
X149355041Y-109639541D01*
X149403509Y-109668670D01*
X149446004Y-109694947D01*
X149480165Y-109716894D01*
X149503629Y-109733034D01*
X149512513Y-109740167D01*
X149533358Y-109770696D01*
X149538146Y-109805796D01*
X149526728Y-109844230D01*
X149525479Y-109846703D01*
X149507538Y-109871286D01*
X149482886Y-109884595D01*
X149447245Y-109888850D01*
X149444262Y-109888866D01*
X149431961Y-109887851D01*
X149417346Y-109884219D01*
X149398631Y-109877086D01*
X149374030Y-109865572D01*
X149341755Y-109848795D01*
X149300019Y-109825872D01*
X149247037Y-109795923D01*
X149191822Y-109764282D01*
X149135220Y-109731280D01*
X149082144Y-109699497D01*
X149034754Y-109670291D01*
X148995214Y-109645024D01*
X148965684Y-109625053D01*
X148948327Y-109611740D01*
X148946509Y-109609998D01*
X148917785Y-109580300D01*
X148926581Y-109013492D01*
X148953158Y-108989746D01*
X148968535Y-108977194D01*
X148983580Y-108968766D01*
X149000101Y-108965026D01*
X149019904Y-108966537D01*
X149044797Y-108973863D01*
X149076587Y-108987567D01*
X149117083Y-109008212D01*
X149168090Y-109036362D01*
X149231416Y-109072581D01*
X149246144Y-109081089D01*
X149445187Y-109196177D01*
X149485377Y-109173047D01*
X149510189Y-109158708D01*
X149544266Y-109138938D01*
X149582253Y-109116846D01*
X149604885Y-109103658D01*
X149684203Y-109057400D01*
X149609118Y-109013557D01*
X149583507Y-108998675D01*
X149545586Y-108976741D01*
X149497736Y-108949127D01*
X149442337Y-108917204D01*
X149381768Y-108882344D01*
X149318411Y-108845919D01*
X149277627Y-108822493D01*
X149021220Y-108675274D01*
X148989760Y-108690251D01*
X148972585Y-108699145D01*
X148943663Y-108714909D01*
X148905900Y-108735928D01*
X148862202Y-108760581D01*
X148815474Y-108787254D01*
X148814367Y-108787889D01*
X148753218Y-108822960D01*
X148704901Y-108850419D01*
X148667571Y-108871106D01*
X148639385Y-108885859D01*
X148618499Y-108895517D01*
X148603070Y-108900918D01*
X148591254Y-108902901D01*
X148581208Y-108902304D01*
X148571087Y-108899966D01*
X148569135Y-108899430D01*
X148554716Y-108893287D01*
X148527749Y-108879724D01*
X148490308Y-108859863D01*
X148444466Y-108834827D01*
X148392294Y-108805740D01*
X148335865Y-108773724D01*
X148314614Y-108761528D01*
X148243646Y-108720325D01*
X148186641Y-108686417D01*
X148142604Y-108659162D01*
X148110539Y-108637922D01*
X148089451Y-108622055D01*
X148078345Y-108610922D01*
X148076959Y-108608704D01*
X148074445Y-108601411D01*
X148072297Y-108589134D01*
X148070489Y-108570666D01*
X148068995Y-108544800D01*
X148067788Y-108510330D01*
X148066842Y-108466049D01*
X148066131Y-108410750D01*
X148065627Y-108343227D01*
X148065305Y-108262274D01*
X148065138Y-108166683D01*
X148065098Y-108066837D01*
X148065126Y-107959945D01*
D12*
X159380000Y-110110000D02*
X163200000Y-110110000D01*
X163200000Y-110110000D02*
X163200000Y-108330000D01*
X163200000Y-108330000D02*
X159380000Y-108330000D01*
X159380000Y-110110000D02*
X159380000Y-108330000D01*
X189805000Y-106105000D02*
X192465000Y-106105000D01*
X189805000Y-85725000D02*
X189805000Y-106105000D01*
X192465000Y-85725000D02*
X192465000Y-106105000D01*
X189805000Y-85725000D02*
X192465000Y-85725000D01*
X189805000Y-84455000D02*
X189805000Y-83125000D01*
X189805000Y-83125000D02*
X191135000Y-83125000D01*
D14*
X169922143Y-85256666D02*
X169969762Y-85304285D01*
X170017381Y-85447142D01*
X170017381Y-85542380D01*
X169969762Y-85685238D01*
X169874524Y-85780476D01*
X169779286Y-85828095D01*
X169588810Y-85875714D01*
X169445952Y-85875714D01*
X169255476Y-85828095D01*
X169160238Y-85780476D01*
X169065000Y-85685238D01*
X169017381Y-85542380D01*
X169017381Y-85447142D01*
X169065000Y-85304285D01*
X169112619Y-85256666D01*
X170017381Y-84304285D02*
X170017381Y-84875714D01*
X170017381Y-84590000D02*
X169017381Y-84590000D01*
X169160238Y-84685238D01*
X169255476Y-84780476D01*
X169303095Y-84875714D01*
X173077143Y-85256666D02*
X173124762Y-85304285D01*
X173172381Y-85447142D01*
X173172381Y-85542380D01*
X173124762Y-85685238D01*
X173029524Y-85780476D01*
X172934286Y-85828095D01*
X172743810Y-85875714D01*
X172600952Y-85875714D01*
X172410476Y-85828095D01*
X172315238Y-85780476D01*
X172220000Y-85685238D01*
X172172381Y-85542380D01*
X172172381Y-85447142D01*
X172220000Y-85304285D01*
X172267619Y-85256666D01*
X172267619Y-84875714D02*
X172220000Y-84828095D01*
X172172381Y-84732857D01*
X172172381Y-84494761D01*
X172220000Y-84399523D01*
X172267619Y-84351904D01*
X172362857Y-84304285D01*
X172458095Y-84304285D01*
X172600952Y-84351904D01*
X173172381Y-84923333D01*
X173172381Y-84304285D01*
X183348334Y-99417143D02*
X183300715Y-99464762D01*
X183157858Y-99512381D01*
X183062620Y-99512381D01*
X182919762Y-99464762D01*
X182824524Y-99369524D01*
X182776905Y-99274286D01*
X182729286Y-99083810D01*
X182729286Y-98940952D01*
X182776905Y-98750476D01*
X182824524Y-98655238D01*
X182919762Y-98560000D01*
X183062620Y-98512381D01*
X183157858Y-98512381D01*
X183300715Y-98560000D01*
X183348334Y-98607619D01*
X183681667Y-98512381D02*
X184300715Y-98512381D01*
X183967381Y-98893333D01*
X184110239Y-98893333D01*
X184205477Y-98940952D01*
X184253096Y-98988571D01*
X184300715Y-99083810D01*
X184300715Y-99321905D01*
X184253096Y-99417143D01*
X184205477Y-99464762D01*
X184110239Y-99512381D01*
X183824524Y-99512381D01*
X183729286Y-99464762D01*
X183681667Y-99417143D01*
X150963334Y-91162143D02*
X150915715Y-91209762D01*
X150772858Y-91257381D01*
X150677620Y-91257381D01*
X150534762Y-91209762D01*
X150439524Y-91114524D01*
X150391905Y-91019286D01*
X150344286Y-90828810D01*
X150344286Y-90685952D01*
X150391905Y-90495476D01*
X150439524Y-90400238D01*
X150534762Y-90305000D01*
X150677620Y-90257381D01*
X150772858Y-90257381D01*
X150915715Y-90305000D01*
X150963334Y-90352619D01*
X151820477Y-90590714D02*
X151820477Y-91257381D01*
X151582381Y-90209762D02*
X151344286Y-90924048D01*
X151963334Y-90924048D01*
X157948334Y-83542143D02*
X157900715Y-83589762D01*
X157757858Y-83637381D01*
X157662620Y-83637381D01*
X157519762Y-83589762D01*
X157424524Y-83494524D01*
X157376905Y-83399286D01*
X157329286Y-83208810D01*
X157329286Y-83065952D01*
X157376905Y-82875476D01*
X157424524Y-82780238D01*
X157519762Y-82685000D01*
X157662620Y-82637381D01*
X157757858Y-82637381D01*
X157900715Y-82685000D01*
X157948334Y-82732619D01*
X158853096Y-82637381D02*
X158376905Y-82637381D01*
X158329286Y-83113571D01*
X158376905Y-83065952D01*
X158472143Y-83018333D01*
X158710239Y-83018333D01*
X158805477Y-83065952D01*
X158853096Y-83113571D01*
X158900715Y-83208810D01*
X158900715Y-83446905D01*
X158853096Y-83542143D01*
X158805477Y-83589762D01*
X158710239Y-83637381D01*
X158472143Y-83637381D01*
X158376905Y-83589762D01*
X158329286Y-83542143D01*
X163552143Y-80811666D02*
X163599762Y-80859285D01*
X163647381Y-81002142D01*
X163647381Y-81097380D01*
X163599762Y-81240238D01*
X163504524Y-81335476D01*
X163409286Y-81383095D01*
X163218810Y-81430714D01*
X163075952Y-81430714D01*
X162885476Y-81383095D01*
X162790238Y-81335476D01*
X162695000Y-81240238D01*
X162647381Y-81097380D01*
X162647381Y-81002142D01*
X162695000Y-80859285D01*
X162742619Y-80811666D01*
X162647381Y-79954523D02*
X162647381Y-80145000D01*
X162695000Y-80240238D01*
X162742619Y-80287857D01*
X162885476Y-80383095D01*
X163075952Y-80430714D01*
X163456905Y-80430714D01*
X163552143Y-80383095D01*
X163599762Y-80335476D01*
X163647381Y-80240238D01*
X163647381Y-80049761D01*
X163599762Y-79954523D01*
X163552143Y-79906904D01*
X163456905Y-79859285D01*
X163218810Y-79859285D01*
X163123571Y-79906904D01*
X163075952Y-79954523D01*
X163028333Y-80049761D01*
X163028333Y-80240238D01*
X163075952Y-80335476D01*
X163123571Y-80383095D01*
X163218810Y-80430714D01*
X166727143Y-80811666D02*
X166774762Y-80859285D01*
X166822381Y-81002142D01*
X166822381Y-81097380D01*
X166774762Y-81240238D01*
X166679524Y-81335476D01*
X166584286Y-81383095D01*
X166393810Y-81430714D01*
X166250952Y-81430714D01*
X166060476Y-81383095D01*
X165965238Y-81335476D01*
X165870000Y-81240238D01*
X165822381Y-81097380D01*
X165822381Y-81002142D01*
X165870000Y-80859285D01*
X165917619Y-80811666D01*
X165822381Y-80478333D02*
X165822381Y-79811666D01*
X166822381Y-80240238D01*
X187047143Y-84621666D02*
X187094762Y-84669285D01*
X187142381Y-84812142D01*
X187142381Y-84907380D01*
X187094762Y-85050238D01*
X186999524Y-85145476D01*
X186904286Y-85193095D01*
X186713810Y-85240714D01*
X186570952Y-85240714D01*
X186380476Y-85193095D01*
X186285238Y-85145476D01*
X186190000Y-85050238D01*
X186142381Y-84907380D01*
X186142381Y-84812142D01*
X186190000Y-84669285D01*
X186237619Y-84621666D01*
X186570952Y-84050238D02*
X186523333Y-84145476D01*
X186475714Y-84193095D01*
X186380476Y-84240714D01*
X186332857Y-84240714D01*
X186237619Y-84193095D01*
X186190000Y-84145476D01*
X186142381Y-84050238D01*
X186142381Y-83859761D01*
X186190000Y-83764523D01*
X186237619Y-83716904D01*
X186332857Y-83669285D01*
X186380476Y-83669285D01*
X186475714Y-83716904D01*
X186523333Y-83764523D01*
X186570952Y-83859761D01*
X186570952Y-84050238D01*
X186618571Y-84145476D01*
X186666190Y-84193095D01*
X186761429Y-84240714D01*
X186951905Y-84240714D01*
X187047143Y-84193095D01*
X187094762Y-84145476D01*
X187142381Y-84050238D01*
X187142381Y-83859761D01*
X187094762Y-83764523D01*
X187047143Y-83716904D01*
X186951905Y-83669285D01*
X186761429Y-83669285D01*
X186666190Y-83716904D01*
X186618571Y-83764523D01*
X186570952Y-83859761D01*
X152747381Y-83748333D02*
X153461667Y-83748333D01*
X153604524Y-83795953D01*
X153699762Y-83891191D01*
X153747381Y-84034048D01*
X153747381Y-84129286D01*
X152747381Y-82795952D02*
X152747381Y-83272143D01*
X153223571Y-83319762D01*
X153175952Y-83272143D01*
X153128333Y-83176905D01*
X153128333Y-82938809D01*
X153175952Y-82843571D01*
X153223571Y-82795952D01*
X153318810Y-82748333D01*
X153556905Y-82748333D01*
X153652143Y-82795952D01*
X153699762Y-82843571D01*
X153747381Y-82938809D01*
X153747381Y-83176905D01*
X153699762Y-83272143D01*
X153652143Y-83319762D01*
X186507381Y-95416666D02*
X186031190Y-95750000D01*
X186507381Y-95988095D02*
X185507381Y-95988095D01*
X185507381Y-95607142D01*
X185555000Y-95511904D01*
X185602619Y-95464285D01*
X185697857Y-95416666D01*
X185840714Y-95416666D01*
X185935952Y-95464285D01*
X185983571Y-95511904D01*
X186031190Y-95607142D01*
X186031190Y-95988095D01*
X186507381Y-94464285D02*
X186507381Y-95035714D01*
X186507381Y-94750000D02*
X185507381Y-94750000D01*
X185650238Y-94845238D01*
X185745476Y-94940476D01*
X185793095Y-95035714D01*
X183512381Y-104306666D02*
X183036190Y-104640000D01*
X183512381Y-104878095D02*
X182512381Y-104878095D01*
X182512381Y-104497142D01*
X182560000Y-104401904D01*
X182607619Y-104354285D01*
X182702857Y-104306666D01*
X182845714Y-104306666D01*
X182940952Y-104354285D01*
X182988571Y-104401904D01*
X183036190Y-104497142D01*
X183036190Y-104878095D01*
X182607619Y-103925714D02*
X182560000Y-103878095D01*
X182512381Y-103782857D01*
X182512381Y-103544761D01*
X182560000Y-103449523D01*
X182607619Y-103401904D01*
X182702857Y-103354285D01*
X182798095Y-103354285D01*
X182940952Y-103401904D01*
X183512381Y-103973333D01*
X183512381Y-103354285D01*
X186507381Y-100496666D02*
X186031190Y-100830000D01*
X186507381Y-101068095D02*
X185507381Y-101068095D01*
X185507381Y-100687142D01*
X185555000Y-100591904D01*
X185602619Y-100544285D01*
X185697857Y-100496666D01*
X185840714Y-100496666D01*
X185935952Y-100544285D01*
X185983571Y-100591904D01*
X186031190Y-100687142D01*
X186031190Y-101068095D01*
X185507381Y-100163333D02*
X185507381Y-99544285D01*
X185888333Y-99877619D01*
X185888333Y-99734761D01*
X185935952Y-99639523D01*
X185983571Y-99591904D01*
X186078810Y-99544285D01*
X186316905Y-99544285D01*
X186412143Y-99591904D01*
X186459762Y-99639523D01*
X186507381Y-99734761D01*
X186507381Y-100020476D01*
X186459762Y-100115714D01*
X186412143Y-100163333D01*
X183787381Y-84621666D02*
X183311190Y-84955000D01*
X183787381Y-85193095D02*
X182787381Y-85193095D01*
X182787381Y-84812142D01*
X182835000Y-84716904D01*
X182882619Y-84669285D01*
X182977857Y-84621666D01*
X183120714Y-84621666D01*
X183215952Y-84669285D01*
X183263571Y-84716904D01*
X183311190Y-84812142D01*
X183311190Y-85193095D01*
X183120714Y-83764523D02*
X183787381Y-83764523D01*
X182739762Y-84002619D02*
X183454048Y-84240714D01*
X183454048Y-83621666D01*
X180612381Y-84621666D02*
X180136190Y-84955000D01*
X180612381Y-85193095D02*
X179612381Y-85193095D01*
X179612381Y-84812142D01*
X179660000Y-84716904D01*
X179707619Y-84669285D01*
X179802857Y-84621666D01*
X179945714Y-84621666D01*
X180040952Y-84669285D01*
X180088571Y-84716904D01*
X180136190Y-84812142D01*
X180136190Y-85193095D01*
X179612381Y-83716904D02*
X179612381Y-84193095D01*
X180088571Y-84240714D01*
X180040952Y-84193095D01*
X179993333Y-84097857D01*
X179993333Y-83859761D01*
X180040952Y-83764523D01*
X180088571Y-83716904D01*
X180183810Y-83669285D01*
X180421905Y-83669285D01*
X180517143Y-83716904D01*
X180564762Y-83764523D01*
X180612381Y-83859761D01*
X180612381Y-84097857D01*
X180564762Y-84193095D01*
X180517143Y-84240714D01*
X160472381Y-80811666D02*
X159996190Y-81145000D01*
X160472381Y-81383095D02*
X159472381Y-81383095D01*
X159472381Y-81002142D01*
X159520000Y-80906904D01*
X159567619Y-80859285D01*
X159662857Y-80811666D01*
X159805714Y-80811666D01*
X159900952Y-80859285D01*
X159948571Y-80906904D01*
X159996190Y-81002142D01*
X159996190Y-81383095D01*
X159472381Y-79954523D02*
X159472381Y-80145000D01*
X159520000Y-80240238D01*
X159567619Y-80287857D01*
X159710476Y-80383095D01*
X159900952Y-80430714D01*
X160281905Y-80430714D01*
X160377143Y-80383095D01*
X160424762Y-80335476D01*
X160472381Y-80240238D01*
X160472381Y-80049761D01*
X160424762Y-79954523D01*
X160377143Y-79906904D01*
X160281905Y-79859285D01*
X160043810Y-79859285D01*
X159948571Y-79906904D01*
X159900952Y-79954523D01*
X159853333Y-80049761D01*
X159853333Y-80240238D01*
X159900952Y-80335476D01*
X159948571Y-80383095D01*
X160043810Y-80430714D01*
X186507381Y-89701666D02*
X186031190Y-90035000D01*
X186507381Y-90273095D02*
X185507381Y-90273095D01*
X185507381Y-89892142D01*
X185555000Y-89796904D01*
X185602619Y-89749285D01*
X185697857Y-89701666D01*
X185840714Y-89701666D01*
X185935952Y-89749285D01*
X185983571Y-89796904D01*
X186031190Y-89892142D01*
X186031190Y-90273095D01*
X185507381Y-89368333D02*
X185507381Y-88701666D01*
X186507381Y-89130238D01*
X166822381Y-85256666D02*
X166346190Y-85590000D01*
X166822381Y-85828095D02*
X165822381Y-85828095D01*
X165822381Y-85447142D01*
X165870000Y-85351904D01*
X165917619Y-85304285D01*
X166012857Y-85256666D01*
X166155714Y-85256666D01*
X166250952Y-85304285D01*
X166298571Y-85351904D01*
X166346190Y-85447142D01*
X166346190Y-85828095D01*
X166250952Y-84685238D02*
X166203333Y-84780476D01*
X166155714Y-84828095D01*
X166060476Y-84875714D01*
X166012857Y-84875714D01*
X165917619Y-84828095D01*
X165870000Y-84780476D01*
X165822381Y-84685238D01*
X165822381Y-84494761D01*
X165870000Y-84399523D01*
X165917619Y-84351904D01*
X166012857Y-84304285D01*
X166060476Y-84304285D01*
X166155714Y-84351904D01*
X166203333Y-84399523D01*
X166250952Y-84494761D01*
X166250952Y-84685238D01*
X166298571Y-84780476D01*
X166346190Y-84828095D01*
X166441429Y-84875714D01*
X166631905Y-84875714D01*
X166727143Y-84828095D01*
X166774762Y-84780476D01*
X166822381Y-84685238D01*
X166822381Y-84494761D01*
X166774762Y-84399523D01*
X166727143Y-84351904D01*
X166631905Y-84304285D01*
X166441429Y-84304285D01*
X166346190Y-84351904D01*
X166298571Y-84399523D01*
X166250952Y-84494761D01*
X163647381Y-85256666D02*
X163171190Y-85590000D01*
X163647381Y-85828095D02*
X162647381Y-85828095D01*
X162647381Y-85447142D01*
X162695000Y-85351904D01*
X162742619Y-85304285D01*
X162837857Y-85256666D01*
X162980714Y-85256666D01*
X163075952Y-85304285D01*
X163123571Y-85351904D01*
X163171190Y-85447142D01*
X163171190Y-85828095D01*
X163647381Y-84780476D02*
X163647381Y-84590000D01*
X163599762Y-84494761D01*
X163552143Y-84447142D01*
X163409286Y-84351904D01*
X163218810Y-84304285D01*
X162837857Y-84304285D01*
X162742619Y-84351904D01*
X162695000Y-84399523D01*
X162647381Y-84494761D01*
X162647381Y-84685238D01*
X162695000Y-84780476D01*
X162742619Y-84828095D01*
X162837857Y-84875714D01*
X163075952Y-84875714D01*
X163171190Y-84828095D01*
X163218810Y-84780476D01*
X163266429Y-84685238D01*
X163266429Y-84494761D01*
X163218810Y-84399523D01*
X163171190Y-84351904D01*
X163075952Y-84304285D01*
D19*
X150322643Y-102023333D02*
X150377071Y-101841905D01*
X150377071Y-101539524D01*
X150322643Y-101418571D01*
X150268214Y-101358095D01*
X150159357Y-101297619D01*
X150050500Y-101297619D01*
X149941643Y-101358095D01*
X149887214Y-101418571D01*
X149832786Y-101539524D01*
X149778357Y-101781428D01*
X149723929Y-101902381D01*
X149669500Y-101962857D01*
X149560643Y-102023333D01*
X149451786Y-102023333D01*
X149342929Y-101962857D01*
X149288500Y-101902381D01*
X149234071Y-101781428D01*
X149234071Y-101479048D01*
X149288500Y-101297619D01*
X149234071Y-100874285D02*
X150377071Y-100571904D01*
X149560643Y-100330000D01*
X150377071Y-100088095D01*
X149234071Y-99785714D01*
X150377071Y-98636666D02*
X150377071Y-99362380D01*
X150377071Y-98999523D02*
X149234071Y-98999523D01*
X149397357Y-99120475D01*
X149506214Y-99241428D01*
X149560643Y-99362380D01*
D14*
X183388095Y-96607381D02*
X183388095Y-97416905D01*
X183435714Y-97512143D01*
X183483333Y-97559762D01*
X183578571Y-97607381D01*
X183769048Y-97607381D01*
X183864286Y-97559762D01*
X183911905Y-97512143D01*
X183959524Y-97416905D01*
X183959524Y-96607381D01*
X184959524Y-97607381D02*
X184388095Y-97607381D01*
X184673809Y-97607381D02*
X184673809Y-96607381D01*
X184578571Y-96750238D01*
X184483333Y-96845476D01*
X184388095Y-96893095D01*
X171323095Y-87717381D02*
X171323095Y-88526905D01*
X171370714Y-88622143D01*
X171418333Y-88669762D01*
X171513571Y-88717381D01*
X171704048Y-88717381D01*
X171799286Y-88669762D01*
X171846905Y-88622143D01*
X171894524Y-88526905D01*
X171894524Y-87717381D01*
X172323095Y-87812619D02*
X172370714Y-87765000D01*
X172465952Y-87717381D01*
X172704048Y-87717381D01*
X172799286Y-87765000D01*
X172846905Y-87812619D01*
X172894524Y-87907857D01*
X172894524Y-88003095D01*
X172846905Y-88145952D01*
X172275476Y-88717381D01*
X172894524Y-88717381D01*
X152908095Y-90257381D02*
X152908095Y-91066905D01*
X152955714Y-91162143D01*
X153003333Y-91209762D01*
X153098571Y-91257381D01*
X153289048Y-91257381D01*
X153384286Y-91209762D01*
X153431905Y-91162143D01*
X153479524Y-91066905D01*
X153479524Y-90257381D01*
X153860476Y-90257381D02*
X154479524Y-90257381D01*
X154146190Y-90638333D01*
X154289048Y-90638333D01*
X154384286Y-90685952D01*
X154431905Y-90733571D01*
X154479524Y-90828810D01*
X154479524Y-91066905D01*
X154431905Y-91162143D01*
X154384286Y-91209762D01*
X154289048Y-91257381D01*
X154003333Y-91257381D01*
X153908095Y-91209762D01*
X153860476Y-91162143D01*
X179578095Y-99782381D02*
X179578095Y-100591905D01*
X179625714Y-100687143D01*
X179673333Y-100734762D01*
X179768571Y-100782381D01*
X179959048Y-100782381D01*
X180054286Y-100734762D01*
X180101905Y-100687143D01*
X180149524Y-100591905D01*
X180149524Y-99782381D01*
X181054286Y-100115714D02*
X181054286Y-100782381D01*
X180816190Y-99734762D02*
X180578095Y-100449048D01*
X181197143Y-100449048D01*
X154178095Y-78827381D02*
X154178095Y-79636905D01*
X154225714Y-79732143D01*
X154273333Y-79779762D01*
X154368571Y-79827381D01*
X154559048Y-79827381D01*
X154654286Y-79779762D01*
X154701905Y-79732143D01*
X154749524Y-79636905D01*
X154749524Y-78827381D01*
X155701905Y-78827381D02*
X155225714Y-78827381D01*
X155178095Y-79303571D01*
X155225714Y-79255952D01*
X155320952Y-79208333D01*
X155559048Y-79208333D01*
X155654286Y-79255952D01*
X155701905Y-79303571D01*
X155749524Y-79398810D01*
X155749524Y-79636905D01*
X155701905Y-79732143D01*
X155654286Y-79779762D01*
X155559048Y-79827381D01*
X155320952Y-79827381D01*
X155225714Y-79779762D01*
X155178095Y-79732143D01*
X186563095Y-102957381D02*
X186563095Y-103766905D01*
X186610714Y-103862143D01*
X186658333Y-103909762D01*
X186753571Y-103957381D01*
X186944048Y-103957381D01*
X187039286Y-103909762D01*
X187086905Y-103862143D01*
X187134524Y-103766905D01*
X187134524Y-102957381D01*
X188039286Y-102957381D02*
X187848809Y-102957381D01*
X187753571Y-103005000D01*
X187705952Y-103052619D01*
X187610714Y-103195476D01*
X187563095Y-103385952D01*
X187563095Y-103766905D01*
X187610714Y-103862143D01*
X187658333Y-103909762D01*
X187753571Y-103957381D01*
X187944048Y-103957381D01*
X188039286Y-103909762D01*
X188086905Y-103862143D01*
X188134524Y-103766905D01*
X188134524Y-103528810D01*
X188086905Y-103433571D01*
X188039286Y-103385952D01*
X187944048Y-103338333D01*
X187753571Y-103338333D01*
X187658333Y-103385952D01*
X187610714Y-103433571D01*
X187563095Y-103528810D01*
X177323809Y-83161190D02*
X177323809Y-83637381D01*
X176990476Y-82637381D02*
X177323809Y-83161190D01*
X177657143Y-82637381D01*
X178514286Y-83637381D02*
X177942857Y-83637381D01*
X178228571Y-83637381D02*
X178228571Y-82637381D01*
X178133333Y-82780238D01*
X178038095Y-82875476D01*
X177942857Y-82923095D01*
X160956667Y-110372381D02*
X160956667Y-111086667D01*
X160909047Y-111229524D01*
X160813809Y-111324762D01*
X160670952Y-111372381D01*
X160575714Y-111372381D01*
X161861429Y-110372381D02*
X161670952Y-110372381D01*
X161575714Y-110420000D01*
X161528095Y-110467619D01*
X161432857Y-110610476D01*
X161385238Y-110800952D01*
X161385238Y-111181905D01*
X161432857Y-111277143D01*
X161480476Y-111324762D01*
X161575714Y-111372381D01*
X161766191Y-111372381D01*
X161861429Y-111324762D01*
X161909048Y-111277143D01*
X161956667Y-111181905D01*
X161956667Y-110943810D01*
X161909048Y-110848571D01*
X161861429Y-110800952D01*
X161766191Y-110753333D01*
X161575714Y-110753333D01*
X161480476Y-110800952D01*
X161432857Y-110848571D01*
X161385238Y-110943810D01*
X190801667Y-81577381D02*
X190801667Y-82291667D01*
X190754047Y-82434524D01*
X190658809Y-82529762D01*
X190515952Y-82577381D01*
X190420714Y-82577381D01*
X191182619Y-81577381D02*
X191801667Y-81577381D01*
X191468333Y-81958333D01*
X191611191Y-81958333D01*
X191706429Y-82005952D01*
X191754048Y-82053571D01*
X191801667Y-82148810D01*
X191801667Y-82386905D01*
X191754048Y-82482143D01*
X191706429Y-82529762D01*
X191611191Y-82577381D01*
X191325476Y-82577381D01*
X191230238Y-82529762D01*
X191182619Y-82482143D01*
M02*
