M48
INCH,TZ
T1C0.016
T2C0.030
T3C0.039
%
G90
G05
T1
X61787Y-39165
X65883Y-40497
X66554Y-40531
X66893Y-33166
X67030Y-39917
X67574Y-39755
X67624Y-35138
X67716Y-38464
X67758Y-40926
X68451Y-36211
X68560Y-35887
X69082Y-34839
X69329Y-35085
X69597Y-36453
X69848Y-37057
X70593Y-37660
X70961Y-37535
X71006Y-39255
X71043Y-38695
X71157Y-34312
X71362Y-36670
X71466Y-35398
X71476Y-34127
X71481Y-38686
X71645Y-37546
X71799Y-38699
X71865Y-36162
X71910Y-36522
X72226Y-38407
X72810Y-40544
X72941Y-36338
X73148Y-38465
X73192Y-35727
T2
X59250Y-32250
X59250Y-33037
T3
X67000Y-31500
X67000Y-43000
X68000Y-31500
X68000Y-43000
X69000Y-31500
X69000Y-43000
X70000Y-31500
X70000Y-43000
X71000Y-31500
X71000Y-43000
X72000Y-31500
X72000Y-43000
X73000Y-31500
X73000Y-43000
X74000Y-31500
X74000Y-43000
X75250Y-33250
X75250Y-34250
X75250Y-35250
X75250Y-36250
X75250Y-37250
X75250Y-38250
X75250Y-39250
X75250Y-40250
X75250Y-41250
T0
M30
