G04 #@! TF.FileFunction,Copper,L1,Top,Signal*
%FSLAX46Y46*%
G04 Gerber Fmt 4.6, Leading zero omitted, Abs format (unit mm)*
G04 Created by KiCad (PCBNEW 4.0.7-e2-6376~58~ubuntu17.04.1) date Sat Oct 28 17:51:25 2017*
%MOMM*%
%LPD*%
G01*
G04 APERTURE LIST*
%ADD10C,0.100000*%
%ADD11R,0.750000X1.200000*%
%ADD12R,1.200000X0.750000*%
%ADD13R,1.700000X1.200000*%
%ADD14O,1.700000X1.200000*%
%ADD15R,0.900000X1.200000*%
%ADD16R,1.200000X0.900000*%
%ADD17R,1.000760X1.000760*%
%ADD18R,0.550000X1.600000*%
%ADD19R,1.600000X0.550000*%
%ADD20R,0.600000X1.550000*%
%ADD21R,0.650000X1.220000*%
%ADD22R,0.700000X1.700000*%
%ADD23R,1.900000X1.500000*%
%ADD24C,1.450000*%
%ADD25R,1.350000X0.400000*%
%ADD26O,1.900000X1.200000*%
%ADD27R,1.900000X1.200000*%
%ADD28R,1.700000X1.700000*%
%ADD29O,1.700000X1.700000*%
%ADD30R,1.220000X0.650000*%
%ADD31R,0.970000X1.270000*%
%ADD32R,1.270000X0.970000*%
%ADD33R,1.560000X0.650000*%
%ADD34R,1.500000X1.950000*%
%ADD35R,4.700000X1.350000*%
%ADD36C,0.600000*%
%ADD37C,0.250000*%
%ADD38C,0.254000*%
G04 APERTURE END LIST*
D10*
D11*
X166370000Y-85405000D03*
X166370000Y-83505000D03*
X169545000Y-83505000D03*
X169545000Y-85405000D03*
D12*
X181290000Y-104775000D03*
X179390000Y-104775000D03*
D11*
X156845000Y-85405000D03*
X156845000Y-83505000D03*
X163195000Y-85405000D03*
X163195000Y-83505000D03*
X185420000Y-85405000D03*
X185420000Y-83505000D03*
D13*
X149225000Y-82550000D03*
D14*
X149225000Y-84550000D03*
D15*
X182245000Y-94150000D03*
X182245000Y-96350000D03*
X185420000Y-88435000D03*
X185420000Y-90635000D03*
D16*
X181440000Y-100965000D03*
X179240000Y-100965000D03*
D15*
X182245000Y-85555000D03*
X182245000Y-83355000D03*
X179070000Y-85555000D03*
X179070000Y-83355000D03*
X153670000Y-85555000D03*
X153670000Y-83355000D03*
X182245000Y-88435000D03*
X182245000Y-90635000D03*
X160020000Y-83355000D03*
X160020000Y-85555000D03*
X163195000Y-88435000D03*
X163195000Y-90635000D03*
D17*
X187904120Y-104315260D03*
X184205880Y-110314740D03*
X184205880Y-104315260D03*
X187904120Y-110314740D03*
D18*
X171190000Y-97595000D03*
X171990000Y-97595000D03*
X172790000Y-97595000D03*
X173590000Y-97595000D03*
X174390000Y-97595000D03*
X175190000Y-97595000D03*
X175990000Y-97595000D03*
X176790000Y-97595000D03*
D19*
X178240000Y-96145000D03*
X178240000Y-95345000D03*
X178240000Y-94545000D03*
X178240000Y-93745000D03*
X178240000Y-92945000D03*
X178240000Y-92145000D03*
X178240000Y-91345000D03*
X178240000Y-90545000D03*
D18*
X176790000Y-89095000D03*
X175990000Y-89095000D03*
X175190000Y-89095000D03*
X174390000Y-89095000D03*
X173590000Y-89095000D03*
X172790000Y-89095000D03*
X171990000Y-89095000D03*
X171190000Y-89095000D03*
D19*
X169740000Y-90545000D03*
X169740000Y-91345000D03*
X169740000Y-92145000D03*
X169740000Y-92945000D03*
X169740000Y-93745000D03*
X169740000Y-94545000D03*
X169740000Y-95345000D03*
X169740000Y-96145000D03*
D20*
X165735000Y-100170000D03*
X164465000Y-100170000D03*
X163195000Y-100170000D03*
X161925000Y-100170000D03*
X161925000Y-105570000D03*
X163195000Y-105570000D03*
X164465000Y-105570000D03*
X165735000Y-105570000D03*
D21*
X173675000Y-85765000D03*
X175575000Y-85765000D03*
X174625000Y-83145000D03*
D22*
X176460000Y-100965000D03*
X175260000Y-100965000D03*
X174060000Y-100965000D03*
D11*
X160020000Y-88585000D03*
X160020000Y-90485000D03*
D16*
X159385000Y-93600000D03*
X159385000Y-96900000D03*
X163195000Y-93600000D03*
X163195000Y-96900000D03*
X153840000Y-92710000D03*
X156040000Y-92710000D03*
D23*
X147605000Y-92440000D03*
D24*
X150305000Y-88940000D03*
D25*
X150305000Y-90790000D03*
X150305000Y-90140000D03*
X150305000Y-92740000D03*
X150305000Y-92090000D03*
X150305000Y-91440000D03*
D24*
X150305000Y-93940000D03*
D23*
X147605000Y-90440000D03*
D26*
X147605000Y-87940000D03*
X147605000Y-94940000D03*
D27*
X147605000Y-94340000D03*
X147605000Y-88540000D03*
D28*
X147955000Y-97790000D03*
D29*
X147955000Y-100330000D03*
X147955000Y-102870000D03*
X147955000Y-105410000D03*
X147955000Y-107950000D03*
D30*
X168870000Y-103825000D03*
X168870000Y-105725000D03*
X171490000Y-104775000D03*
D16*
X174160000Y-104775000D03*
X176360000Y-104775000D03*
D15*
X166370000Y-94150000D03*
X166370000Y-96350000D03*
X166370000Y-90635000D03*
X166370000Y-88435000D03*
D28*
X153035000Y-80010000D03*
D29*
X155575000Y-80010000D03*
X158115000Y-80010000D03*
X160655000Y-80010000D03*
X163195000Y-80010000D03*
X165735000Y-80010000D03*
X168275000Y-80010000D03*
X170815000Y-80010000D03*
X173355000Y-80010000D03*
X175895000Y-80010000D03*
X178435000Y-80010000D03*
X180975000Y-80010000D03*
D28*
X180975000Y-109220000D03*
D29*
X178435000Y-109220000D03*
X175895000Y-109220000D03*
X173355000Y-109220000D03*
X170815000Y-109220000D03*
X168275000Y-109220000D03*
X165735000Y-109220000D03*
X163195000Y-109220000D03*
X160655000Y-109220000D03*
X158115000Y-109220000D03*
X155575000Y-109220000D03*
X153035000Y-109220000D03*
D31*
X168905000Y-100330000D03*
X170185000Y-100330000D03*
D16*
X190035000Y-101600000D03*
X192235000Y-101600000D03*
X190035000Y-106680000D03*
X192235000Y-106680000D03*
D32*
X185420000Y-95890000D03*
X185420000Y-94610000D03*
X185420000Y-101605000D03*
X185420000Y-100325000D03*
D16*
X192235000Y-99060000D03*
X190035000Y-99060000D03*
X192235000Y-104140000D03*
X190035000Y-104140000D03*
D33*
X156290000Y-97470000D03*
X156290000Y-96520000D03*
X156290000Y-95570000D03*
X153590000Y-95570000D03*
X153590000Y-97470000D03*
D21*
X156525000Y-88225000D03*
X154625000Y-88225000D03*
X155575000Y-90845000D03*
D34*
X153670000Y-100860000D03*
X153670000Y-103610000D03*
X158115000Y-100860000D03*
X158115000Y-103610000D03*
D35*
X190500000Y-97010000D03*
X190500000Y-91440000D03*
D36*
X183206600Y-84280400D03*
X169121400Y-104893800D03*
X173051600Y-87778900D03*
X164145700Y-90741300D03*
X177343400Y-102239300D03*
X186333200Y-104315300D03*
X167339700Y-93955600D03*
X161499800Y-88028000D03*
X163642600Y-87018200D03*
X178635400Y-99995900D03*
X176638700Y-96147000D03*
X152930700Y-87595500D03*
X174013600Y-93921400D03*
X157715000Y-96248600D03*
X151491000Y-90455200D03*
X159693400Y-95938100D03*
X172174000Y-90404300D03*
X171295000Y-90439600D03*
X164478300Y-94129300D03*
X183879000Y-87861100D03*
X171879600Y-91969200D03*
X158521300Y-95257600D03*
X173985800Y-105980600D03*
X167100500Y-105227100D03*
X176673800Y-93598200D03*
X155138000Y-99211900D03*
X167348400Y-95868300D03*
X176137100Y-106296500D03*
X169705500Y-96923400D03*
X171055300Y-95535000D03*
X176355300Y-92448900D03*
X167634200Y-100290300D03*
X175260400Y-92505400D03*
X175293500Y-91443400D03*
X168395300Y-96145000D03*
D37*
X147605000Y-88540000D02*
X147605000Y-87940000D01*
X190035000Y-101600000D02*
X190035000Y-102375300D01*
X187904100Y-104315300D02*
X188729800Y-104315300D01*
X147955000Y-100330000D02*
X149130300Y-100330000D01*
X152410300Y-103610000D02*
X149130300Y-100330000D01*
X153670000Y-103610000D02*
X152410300Y-103610000D01*
X172790000Y-97595000D02*
X172790000Y-96582300D01*
X174625000Y-83145000D02*
X175275300Y-83145000D01*
X185420000Y-85405000D02*
X186120300Y-85405000D01*
X169545000Y-83505000D02*
X169895200Y-83505000D01*
X174625000Y-83145000D02*
X173974700Y-83145000D01*
X173614700Y-83505000D02*
X173974700Y-83145000D01*
X169895200Y-83505000D02*
X173614700Y-83505000D01*
X176410700Y-84280400D02*
X183206600Y-84280400D01*
X175275300Y-83145000D02*
X176410700Y-84280400D01*
X186120300Y-82754600D02*
X186120300Y-85405000D01*
X185945300Y-82579600D02*
X186120300Y-82754600D01*
X184907400Y-82579600D02*
X185945300Y-82579600D01*
X183206600Y-84280400D02*
X184907400Y-82579600D01*
X169545000Y-83505000D02*
X168844700Y-83505000D01*
X173590000Y-89095000D02*
X173590000Y-90220300D01*
X190035000Y-106680000D02*
X190035000Y-104915400D01*
X190787300Y-104915400D02*
X190035000Y-104915400D01*
X190960400Y-104742300D02*
X190787300Y-104915400D01*
X190960400Y-103300700D02*
X190960400Y-104742300D01*
X190035000Y-102375300D02*
X190960400Y-103300700D01*
X188729800Y-104390400D02*
X188729800Y-104315300D01*
X189254800Y-104915400D02*
X188729800Y-104390400D01*
X190035000Y-104915400D02*
X189254800Y-104915400D01*
X153670000Y-103610000D02*
X158115000Y-103610000D01*
X158115000Y-103610000D02*
X159190300Y-103610000D01*
X161925000Y-100170000D02*
X161925000Y-101270300D01*
X147605000Y-94340000D02*
X147605000Y-94940000D01*
X168870000Y-105725000D02*
X168870000Y-105074700D01*
X168940500Y-105074700D02*
X168870000Y-105074700D01*
X169121400Y-104893800D02*
X168940500Y-105074700D01*
X173590000Y-89095000D02*
X173590000Y-87969700D01*
X147605000Y-88540000D02*
X148880300Y-88540000D01*
X149280300Y-88940000D02*
X148880300Y-88540000D01*
X148880300Y-89340000D02*
X149280300Y-88940000D01*
X148880300Y-90440000D02*
X148880300Y-89340000D01*
X147605000Y-90440000D02*
X148880300Y-90440000D01*
X163195000Y-90635000D02*
X163970300Y-90635000D01*
X164076600Y-90741300D02*
X164145700Y-90741300D01*
X163970300Y-90635000D02*
X164076600Y-90741300D01*
X173242400Y-87969700D02*
X173051600Y-87778900D01*
X173590000Y-87969700D02*
X173242400Y-87969700D01*
X160118800Y-102681500D02*
X159190300Y-103610000D01*
X161880900Y-102681500D02*
X160118800Y-102681500D01*
X161880900Y-101314400D02*
X161880900Y-102681500D01*
X161925000Y-101270300D02*
X161880900Y-101314400D01*
X168574900Y-106670400D02*
X168870000Y-106375300D01*
X163948500Y-106670400D02*
X168574900Y-106670400D01*
X163820400Y-106542300D02*
X163948500Y-106670400D01*
X163820400Y-104621000D02*
X163820400Y-106542300D01*
X161880900Y-102681500D02*
X163820400Y-104621000D01*
X168870000Y-105725000D02*
X168870000Y-106375300D01*
X175260000Y-100965000D02*
X175260000Y-102140300D01*
X150305000Y-88940000D02*
X149280300Y-88940000D01*
X163195000Y-90635000D02*
X162419700Y-90635000D01*
X175926900Y-102140300D02*
X176360000Y-102573400D01*
X175260000Y-102140300D02*
X175926900Y-102140300D01*
X176360000Y-102573400D02*
X176360000Y-104775000D01*
X177009300Y-102573400D02*
X177343400Y-102239300D01*
X176360000Y-102573400D02*
X177009300Y-102573400D01*
X149304700Y-93940000D02*
X149304700Y-92740000D01*
X149280300Y-93940000D02*
X149304700Y-93940000D01*
X148880300Y-94340000D02*
X149280300Y-93940000D01*
X147605000Y-90440000D02*
X147605000Y-92440000D01*
X149180300Y-92740000D02*
X149304700Y-92740000D01*
X148880300Y-92440000D02*
X149180300Y-92740000D01*
X147605000Y-92440000D02*
X148880300Y-92440000D01*
X174390000Y-97595000D02*
X174390000Y-96469700D01*
X186333200Y-104315300D02*
X187904100Y-104315300D01*
X149830200Y-92740000D02*
X149304700Y-92740000D01*
X149830200Y-92740000D02*
X150305000Y-92740000D01*
X172902600Y-96469700D02*
X172790000Y-96582300D01*
X174390000Y-96469700D02*
X172902600Y-96469700D01*
X173590000Y-92500900D02*
X173590000Y-90220300D01*
X174652100Y-93563000D02*
X173590000Y-92500900D01*
X174652100Y-96207600D02*
X174652100Y-93563000D01*
X174390000Y-96469700D02*
X174652100Y-96207600D01*
X148242700Y-94340000D02*
X148575800Y-94340000D01*
X147605000Y-94340000D02*
X148242700Y-94340000D01*
X148575800Y-94340000D02*
X148880300Y-94340000D01*
X149304700Y-93940000D02*
X150305000Y-93940000D01*
X156525000Y-88225000D02*
X155874700Y-88225000D01*
X149225000Y-84550000D02*
X149225000Y-85475300D01*
X168844700Y-83505000D02*
X166370000Y-83505000D01*
X163895300Y-85279400D02*
X163895300Y-85405000D01*
X165669700Y-83505000D02*
X163895300Y-85279400D01*
X166370000Y-83505000D02*
X165669700Y-83505000D01*
X163195000Y-85405000D02*
X163895300Y-85405000D01*
X156845000Y-83505000D02*
X156144700Y-83505000D01*
X153154000Y-84553600D02*
X151070500Y-86637100D01*
X155096100Y-84553600D02*
X153154000Y-84553600D01*
X156144700Y-83505000D02*
X155096100Y-84553600D01*
X153595800Y-89162400D02*
X151070500Y-86637100D01*
X155099900Y-89162400D02*
X153595800Y-89162400D01*
X155874700Y-88387600D02*
X155099900Y-89162400D01*
X155874700Y-88225000D02*
X155874700Y-88387600D01*
X149908700Y-85475300D02*
X149225000Y-85475300D01*
X151070500Y-86637100D02*
X149908700Y-85475300D01*
X162269700Y-90485000D02*
X160020000Y-90485000D01*
X162419700Y-90635000D02*
X162269700Y-90485000D01*
X159319700Y-90369400D02*
X157175300Y-88225000D01*
X159319700Y-90485000D02*
X159319700Y-90369400D01*
X156525000Y-88225000D02*
X157175300Y-88225000D01*
X160020000Y-90485000D02*
X159319700Y-90485000D01*
X166370000Y-94150000D02*
X167145300Y-94150000D01*
X167339700Y-93955600D02*
X167145300Y-94150000D01*
X156290000Y-96520000D02*
X155184700Y-96520000D01*
X166370000Y-94150000D02*
X165594700Y-94150000D01*
X155184700Y-95108000D02*
X155184700Y-96520000D01*
X155666400Y-94626300D02*
X155184700Y-95108000D01*
X163834700Y-94626300D02*
X155666400Y-94626300D01*
X164000900Y-94792500D02*
X163834700Y-94626300D01*
X164952200Y-94792500D02*
X164000900Y-94792500D01*
X165594700Y-94150000D02*
X164952200Y-94792500D01*
X165735000Y-105570000D02*
X165735000Y-105019800D01*
X164465000Y-105570000D02*
X164465000Y-104469700D01*
X178682400Y-85555000D02*
X178294700Y-85555000D01*
X178682400Y-85555000D02*
X179070000Y-85555000D01*
X179070000Y-85555000D02*
X182245000Y-85555000D01*
X182245000Y-85555000D02*
X183020300Y-85555000D01*
X185420000Y-83505000D02*
X184719700Y-83505000D01*
X175990000Y-89095000D02*
X175990000Y-87969700D01*
X175990000Y-89095000D02*
X175990000Y-90220300D01*
X175575000Y-85765000D02*
X176225300Y-85765000D01*
X178084700Y-85765000D02*
X178294700Y-85555000D01*
X176225300Y-85765000D02*
X178084700Y-85765000D01*
X163195000Y-100170000D02*
X163195000Y-99069700D01*
X179192100Y-87969700D02*
X181857400Y-90635000D01*
X175990000Y-87969700D02*
X179192100Y-87969700D01*
X182097800Y-90635000D02*
X181857400Y-90635000D01*
X182097800Y-90635000D02*
X182245000Y-90635000D01*
X183020300Y-90059400D02*
X184644700Y-88435000D01*
X183020300Y-90635000D02*
X183020300Y-90059400D01*
X185420000Y-88435000D02*
X184644700Y-88435000D01*
X182245000Y-90635000D02*
X183020300Y-90635000D01*
X184719700Y-83855600D02*
X184719700Y-83505000D01*
X183020300Y-85555000D02*
X184719700Y-83855600D01*
X184644700Y-87179400D02*
X184644700Y-88435000D01*
X183020300Y-85555000D02*
X184644700Y-87179400D01*
X153670000Y-85555000D02*
X153670000Y-85905000D01*
X153670000Y-85905000D02*
X153670000Y-86480300D01*
X155644700Y-85905000D02*
X156144700Y-85405000D01*
X153670000Y-85905000D02*
X155644700Y-85905000D01*
X156845000Y-85405000D02*
X156144700Y-85405000D01*
X156845000Y-85405000D02*
X157545300Y-85405000D01*
X159800000Y-87659700D02*
X157545300Y-85405000D01*
X160020000Y-87659700D02*
X159800000Y-87659700D01*
X160020000Y-88585000D02*
X160020000Y-88122300D01*
X160020000Y-88122300D02*
X160020000Y-87659700D01*
X166370000Y-85405000D02*
X165669700Y-85405000D01*
X164056500Y-87018200D02*
X163642600Y-87018200D01*
X165669700Y-85405000D02*
X164056500Y-87018200D01*
X161405500Y-88122300D02*
X161499800Y-88028000D01*
X160020000Y-88122300D02*
X161405500Y-88122300D01*
X165184900Y-104469700D02*
X164465000Y-104469700D01*
X165735000Y-105019800D02*
X165184900Y-104469700D01*
X163195000Y-103199700D02*
X163195000Y-100170000D01*
X164465000Y-104469700D02*
X163195000Y-103199700D01*
X173590000Y-97595000D02*
X173590000Y-98720300D01*
X182245000Y-90635000D02*
X182245000Y-91560300D01*
X147955000Y-97790000D02*
X149130300Y-97790000D01*
X173240600Y-99069700D02*
X163195000Y-99069700D01*
X173590000Y-98720300D02*
X173240600Y-99069700D01*
X175190000Y-98720300D02*
X173590000Y-98720300D01*
X175190000Y-97595000D02*
X175190000Y-98720300D01*
X182245000Y-94150000D02*
X182245000Y-93224700D01*
X182151200Y-93130900D02*
X182245000Y-93224700D01*
X182151200Y-91654100D02*
X182151200Y-93130900D01*
X182245000Y-91560300D02*
X182151200Y-91654100D01*
X175190000Y-97595000D02*
X175190000Y-96469700D01*
X181440000Y-100965000D02*
X181440000Y-100189700D01*
X178829200Y-100189700D02*
X178635400Y-99995900D01*
X181440000Y-100189700D02*
X178829200Y-100189700D01*
X175190000Y-96147000D02*
X175190000Y-96469700D01*
X153670000Y-87595500D02*
X153670000Y-86480300D01*
X152930700Y-87595500D02*
X153670000Y-87595500D01*
X153974700Y-87900200D02*
X153974700Y-88225000D01*
X153670000Y-87595500D02*
X153974700Y-87900200D01*
X154625000Y-88225000D02*
X153974700Y-88225000D01*
X161486700Y-99069700D02*
X163195000Y-99069700D01*
X159522000Y-101034400D02*
X161486700Y-99069700D01*
X159522000Y-101650200D02*
X159522000Y-101034400D01*
X159011800Y-102160400D02*
X159522000Y-101650200D01*
X152766100Y-102160400D02*
X159011800Y-102160400D01*
X149130300Y-98524600D02*
X152766100Y-102160400D01*
X149130300Y-97790000D02*
X149130300Y-98524600D01*
X175190000Y-93463900D02*
X175190000Y-96147000D01*
X174622000Y-92895900D02*
X175190000Y-93463900D01*
X174622000Y-91230600D02*
X174622000Y-92895900D01*
X175632300Y-90220300D02*
X174622000Y-91230600D01*
X175990000Y-90220300D02*
X175632300Y-90220300D01*
X175190000Y-96147000D02*
X176638700Y-96147000D01*
X174920600Y-99789700D02*
X175990000Y-98720300D01*
X174060000Y-99789700D02*
X174920600Y-99789700D01*
X174060000Y-100965000D02*
X174060000Y-99789700D01*
X175990000Y-97595000D02*
X175990000Y-98720300D01*
X176790000Y-99459700D02*
X176790000Y-97595000D01*
X176460000Y-99789700D02*
X176790000Y-99459700D01*
X176460000Y-100965000D02*
X176460000Y-99789700D01*
X171825300Y-85405000D02*
X170245300Y-85405000D01*
X174390000Y-87969700D02*
X171825300Y-85405000D01*
X169545000Y-85405000D02*
X170245300Y-85405000D01*
X174390000Y-89095000D02*
X174390000Y-87969700D01*
X181290000Y-104775000D02*
X181290000Y-104689000D01*
X160655000Y-109220000D02*
X161830300Y-109220000D01*
X184205900Y-110314700D02*
X183380200Y-110314700D01*
X179240000Y-100965000D02*
X179240000Y-101740300D01*
X179240000Y-102639000D02*
X179240000Y-101740300D01*
X181290000Y-104689000D02*
X179240000Y-102639000D01*
X181290000Y-104775000D02*
X181290000Y-105475300D01*
X162684600Y-110441600D02*
X164465000Y-110441600D01*
X161830300Y-109587300D02*
X162684600Y-110441600D01*
X161830300Y-109220000D02*
X161830300Y-109587300D01*
X165319400Y-111296000D02*
X164465000Y-110441600D01*
X182398900Y-111296000D02*
X165319400Y-111296000D01*
X183380200Y-110314700D02*
X182398900Y-111296000D01*
X178618600Y-105475300D02*
X181290000Y-105475300D01*
X176499600Y-107594300D02*
X178618600Y-105475300D01*
X165637000Y-107594300D02*
X176499600Y-107594300D01*
X164465000Y-108766300D02*
X165637000Y-107594300D01*
X164465000Y-110441600D02*
X164465000Y-108766300D01*
X171041700Y-93921400D02*
X170865300Y-93745000D01*
X174013600Y-93921400D02*
X171041700Y-93921400D01*
X169740000Y-93745000D02*
X170865300Y-93745000D01*
X178464700Y-104881600D02*
X178464700Y-104775000D01*
X176202400Y-107143900D02*
X178464700Y-104881600D01*
X160960400Y-107143900D02*
X176202400Y-107143900D01*
X159290400Y-108813900D02*
X160960400Y-107143900D01*
X159290400Y-109741000D02*
X159290400Y-108813900D01*
X158606600Y-110424800D02*
X159290400Y-109741000D01*
X151605100Y-110424800D02*
X158606600Y-110424800D01*
X149130300Y-107950000D02*
X151605100Y-110424800D01*
X147955000Y-107950000D02*
X149130300Y-107950000D01*
X179390000Y-104775000D02*
X178464700Y-104775000D01*
X151305300Y-90269500D02*
X151491000Y-90455200D01*
X151305300Y-90140000D02*
X151305300Y-90269500D01*
X159385000Y-96900000D02*
X158459700Y-96900000D01*
X150305000Y-90140000D02*
X151305300Y-90140000D01*
X157808300Y-96248600D02*
X157715000Y-96248600D01*
X158459700Y-96900000D02*
X157808300Y-96248600D01*
X160020000Y-85555000D02*
X160795300Y-85555000D01*
X169740000Y-91345000D02*
X168614700Y-91345000D01*
X163195000Y-88435000D02*
X163195000Y-88072600D01*
X163195000Y-88072600D02*
X163195000Y-87509700D01*
X168614700Y-88433100D02*
X168614700Y-91345000D01*
X167230800Y-87049200D02*
X168614700Y-88433100D01*
X165312400Y-87049200D02*
X167230800Y-87049200D01*
X164289000Y-88072600D02*
X165312400Y-87049200D01*
X163195000Y-88072600D02*
X164289000Y-88072600D01*
X158115000Y-80010000D02*
X159290300Y-80010000D01*
X163195000Y-87509700D02*
X161240300Y-85555000D01*
X161240300Y-85555000D02*
X160795300Y-85555000D01*
X161240300Y-84682600D02*
X161240300Y-85555000D01*
X162417900Y-83505000D02*
X161240300Y-84682600D01*
X159290300Y-80377400D02*
X162417900Y-83505000D01*
X159290300Y-80010000D02*
X159290300Y-80377400D01*
X162417900Y-83505000D02*
X163195000Y-83505000D01*
X149225000Y-82550000D02*
X150400300Y-82550000D01*
X151205300Y-83355000D02*
X153670000Y-83355000D01*
X150400300Y-82550000D02*
X151205300Y-83355000D01*
X158507900Y-83355000D02*
X160020000Y-83355000D01*
X157732500Y-82579600D02*
X158507900Y-83355000D01*
X155220700Y-82579600D02*
X157732500Y-82579600D01*
X154445300Y-83355000D02*
X155220700Y-82579600D01*
X153670000Y-83355000D02*
X154445300Y-83355000D01*
X163195000Y-96900000D02*
X163195000Y-96124700D01*
X159880000Y-96124700D02*
X163195000Y-96124700D01*
X159693400Y-95938100D02*
X159880000Y-96124700D01*
X158303200Y-95938100D02*
X159693400Y-95938100D01*
X157935100Y-95570000D02*
X158303200Y-95938100D01*
X156290000Y-95570000D02*
X157935100Y-95570000D01*
X154708500Y-94353800D02*
X153840000Y-93485300D01*
X154708500Y-96993800D02*
X154708500Y-94353800D01*
X155184700Y-97470000D02*
X154708500Y-96993800D01*
X156290000Y-97470000D02*
X155184700Y-97470000D01*
X153840000Y-92710000D02*
X153840000Y-93485300D01*
X166370000Y-90635000D02*
X165594700Y-90635000D01*
X163519700Y-92710000D02*
X165594700Y-90635000D01*
X156965300Y-92710000D02*
X163519700Y-92710000D01*
X156040000Y-92710000D02*
X156965300Y-92710000D01*
X171990000Y-89095000D02*
X171990000Y-90220300D01*
X172174000Y-90404300D02*
X171990000Y-90220300D01*
X171190000Y-89095000D02*
X171190000Y-90220300D01*
X171190000Y-90334600D02*
X171295000Y-90439600D01*
X171190000Y-90220300D02*
X171190000Y-90334600D01*
X169740000Y-92145000D02*
X168614700Y-92145000D01*
X159471000Y-78826000D02*
X160655000Y-80010000D01*
X157593800Y-78826000D02*
X159471000Y-78826000D01*
X156930400Y-79489400D02*
X157593800Y-78826000D01*
X156930400Y-80569300D02*
X156930400Y-79489400D01*
X158676200Y-82315100D02*
X156930400Y-80569300D01*
X160495200Y-82315100D02*
X158676200Y-82315100D01*
X160795400Y-82615300D02*
X160495200Y-82315100D01*
X160795400Y-84089700D02*
X160795400Y-82615300D01*
X160604700Y-84280400D02*
X160795400Y-84089700D01*
X159692100Y-84280400D02*
X160604700Y-84280400D01*
X159235600Y-84736900D02*
X159692100Y-84280400D01*
X159235600Y-86364200D02*
X159235600Y-84736900D01*
X159991300Y-87119900D02*
X159235600Y-86364200D01*
X161514600Y-87119900D02*
X159991300Y-87119900D01*
X162407900Y-88013200D02*
X161514600Y-87119900D01*
X162407900Y-89172700D02*
X162407900Y-88013200D01*
X162595600Y-89360400D02*
X162407900Y-89172700D01*
X163863600Y-89360400D02*
X162595600Y-89360400D01*
X165714400Y-87509600D02*
X163863600Y-89360400D01*
X166970600Y-87509600D02*
X165714400Y-87509600D01*
X167892800Y-88431800D02*
X166970600Y-87509600D01*
X167892800Y-91423100D02*
X167892800Y-88431800D01*
X168614700Y-92145000D02*
X167892800Y-91423100D01*
X177025700Y-82086000D02*
X178294700Y-83355000D01*
X163539000Y-82086000D02*
X177025700Y-82086000D01*
X161830300Y-80377300D02*
X163539000Y-82086000D01*
X161830300Y-80010000D02*
X161830300Y-80377300D01*
X160655000Y-80010000D02*
X161830300Y-80010000D01*
X179070000Y-83355000D02*
X178294700Y-83355000D01*
X163195000Y-80010000D02*
X164370300Y-80010000D01*
X182245000Y-83355000D02*
X181469700Y-83355000D01*
X179750300Y-81635600D02*
X181469700Y-83355000D01*
X165628500Y-81635600D02*
X179750300Y-81635600D01*
X164370300Y-80377400D02*
X165628500Y-81635600D01*
X164370300Y-80010000D02*
X164370300Y-80377400D01*
X169740000Y-92945000D02*
X168614700Y-92945000D01*
X165662600Y-92945000D02*
X164478300Y-94129300D01*
X168614700Y-92945000D02*
X165662600Y-92945000D01*
X175190000Y-89095000D02*
X175190000Y-87969700D01*
X183879000Y-88388200D02*
X183879000Y-87861100D01*
X182906800Y-89360400D02*
X183879000Y-88388200D01*
X181392800Y-89360400D02*
X182906800Y-89360400D01*
X179534100Y-87501700D02*
X181392800Y-89360400D01*
X175658000Y-87501700D02*
X179534100Y-87501700D01*
X175190000Y-87969700D02*
X175658000Y-87501700D01*
X172889800Y-89194800D02*
X172790000Y-89095000D01*
X172889800Y-90959000D02*
X172889800Y-89194800D01*
X171879600Y-91969200D02*
X172889800Y-90959000D01*
X170815000Y-80010000D02*
X169639700Y-80010000D01*
X147955000Y-102870000D02*
X147955000Y-101694700D01*
X169639700Y-79642700D02*
X169639700Y-80010000D01*
X168357800Y-78360800D02*
X169639700Y-79642700D01*
X151495400Y-78360800D02*
X168357800Y-78360800D01*
X148049100Y-81807100D02*
X151495400Y-78360800D01*
X148049100Y-85198400D02*
X148049100Y-81807100D01*
X152116300Y-89265600D02*
X148049100Y-85198400D01*
X152116300Y-93655900D02*
X152116300Y-89265600D01*
X149906800Y-95865400D02*
X152116300Y-93655900D01*
X147661800Y-95865400D02*
X149906800Y-95865400D01*
X146779700Y-96747500D02*
X147661800Y-95865400D01*
X146779700Y-100886800D02*
X146779700Y-96747500D01*
X147587600Y-101694700D02*
X146779700Y-100886800D01*
X147955000Y-101694700D02*
X147587600Y-101694700D01*
X166922200Y-95257600D02*
X158521300Y-95257600D01*
X167634800Y-94545000D02*
X166922200Y-95257600D01*
X169740000Y-94545000D02*
X167634800Y-94545000D01*
X170185000Y-100330000D02*
X170995300Y-100330000D01*
X171285000Y-100330000D02*
X170995300Y-100330000D01*
X175119300Y-104164300D02*
X171285000Y-100330000D01*
X175119300Y-105550300D02*
X175119300Y-104164300D01*
X177094800Y-105550300D02*
X175119300Y-105550300D01*
X177977700Y-104667400D02*
X177094800Y-105550300D01*
X177977700Y-96407300D02*
X177977700Y-104667400D01*
X178240000Y-96145000D02*
X177977700Y-96407300D01*
X174416100Y-105550300D02*
X173985800Y-105980600D01*
X175119300Y-105550300D02*
X174416100Y-105550300D01*
X170815000Y-109220000D02*
X171990300Y-109220000D01*
X178240000Y-95345000D02*
X179365300Y-95345000D01*
X171990300Y-108852600D02*
X171990300Y-109220000D01*
X172798200Y-108044700D02*
X171990300Y-108852600D01*
X177247400Y-108044700D02*
X172798200Y-108044700D01*
X179252300Y-106039800D02*
X177247400Y-108044700D01*
X181492800Y-106039800D02*
X179252300Y-106039800D01*
X182370700Y-105161900D02*
X181492800Y-106039800D01*
X182370700Y-99344100D02*
X182370700Y-105161900D01*
X179365300Y-96338700D02*
X182370700Y-99344100D01*
X179365300Y-95345000D02*
X179365300Y-96338700D01*
X179940200Y-95119900D02*
X179365300Y-94545000D01*
X179940200Y-95639900D02*
X179940200Y-95119900D01*
X182821100Y-98520800D02*
X179940200Y-95639900D01*
X182821100Y-105356700D02*
X182821100Y-98520800D01*
X181415300Y-106762500D02*
X182821100Y-105356700D01*
X179166500Y-106762500D02*
X181415300Y-106762500D01*
X177165000Y-108764000D02*
X179166500Y-106762500D01*
X177165000Y-109690700D02*
X177165000Y-108764000D01*
X176460400Y-110395300D02*
X177165000Y-109690700D01*
X170258200Y-110395300D02*
X176460400Y-110395300D01*
X169450300Y-109587400D02*
X170258200Y-110395300D01*
X169450300Y-109220000D02*
X169450300Y-109587400D01*
X168275000Y-109220000D02*
X169450300Y-109220000D01*
X178240000Y-94545000D02*
X179365300Y-94545000D01*
X181469700Y-95849400D02*
X179365300Y-93745000D01*
X181469700Y-96350000D02*
X181469700Y-95849400D01*
X182245000Y-96350000D02*
X181469700Y-96350000D01*
X178240000Y-93745000D02*
X179365300Y-93745000D01*
X185420000Y-100325000D02*
X185420000Y-99514700D01*
X182245000Y-96350000D02*
X183020300Y-96350000D01*
X165735000Y-109220000D02*
X166910300Y-109220000D01*
X185420000Y-99514700D02*
X183325800Y-99514700D01*
X183325800Y-96655500D02*
X183325800Y-99514700D01*
X183020300Y-96350000D02*
X183325800Y-96655500D01*
X166910300Y-109571200D02*
X166910300Y-109220000D01*
X168184800Y-110845700D02*
X166910300Y-109571200D01*
X178519600Y-110845700D02*
X168184800Y-110845700D01*
X179799600Y-109565700D02*
X178519600Y-110845700D01*
X179799600Y-108162900D02*
X179799600Y-109565700D01*
X180655000Y-107307500D02*
X179799600Y-108162900D01*
X181605200Y-107307500D02*
X180655000Y-107307500D01*
X183325800Y-105586900D02*
X181605200Y-107307500D01*
X183325800Y-99514700D02*
X183325800Y-105586900D01*
X165735000Y-100170000D02*
X165735000Y-101270300D01*
X167100500Y-102635800D02*
X165735000Y-101270300D01*
X167100500Y-105227100D02*
X167100500Y-102635800D01*
X177114700Y-93157300D02*
X177114700Y-92945000D01*
X176673800Y-93598200D02*
X177114700Y-93157300D01*
X178240000Y-92945000D02*
X177114700Y-92945000D01*
X168905000Y-100330000D02*
X168905000Y-101290300D01*
X168870000Y-103825000D02*
X168870000Y-103174700D01*
X174160000Y-104775000D02*
X174160000Y-103999700D01*
X173224500Y-103064200D02*
X174160000Y-103999700D01*
X168980500Y-103064200D02*
X173224500Y-103064200D01*
X168980500Y-101365800D02*
X168980500Y-103064200D01*
X168905000Y-101290300D02*
X168980500Y-101365800D01*
X168980500Y-103064200D02*
X168870000Y-103174700D01*
X169740000Y-95345000D02*
X168614700Y-95345000D01*
X168129300Y-95345000D02*
X167538100Y-95936200D01*
X168614700Y-95345000D02*
X168129300Y-95345000D01*
X155779100Y-98570800D02*
X155138000Y-99211900D01*
X165669400Y-98570800D02*
X155779100Y-98570800D01*
X167538100Y-96702100D02*
X165669400Y-98570800D01*
X167538100Y-95936200D02*
X167538100Y-96702100D01*
X167470200Y-95868300D02*
X167348400Y-95868300D01*
X167538100Y-95936200D02*
X167470200Y-95868300D01*
X171490000Y-104775000D02*
X171490000Y-105425300D01*
X175827700Y-106605900D02*
X176137100Y-106296500D01*
X172670600Y-106605900D02*
X175827700Y-106605900D01*
X171490000Y-105425300D02*
X172670600Y-106605900D01*
X185420000Y-90635000D02*
X184644700Y-90635000D01*
X184644700Y-93024400D02*
X184644700Y-90635000D01*
X185420000Y-93799700D02*
X184644700Y-93024400D01*
X185420000Y-94610000D02*
X185420000Y-93799700D01*
X183490000Y-94610000D02*
X185420000Y-94610000D01*
X183003200Y-95096800D02*
X183490000Y-94610000D01*
X181656600Y-95096800D02*
X183003200Y-95096800D01*
X179365300Y-92805500D02*
X181656600Y-95096800D01*
X179365300Y-92145000D02*
X179365300Y-92805500D01*
X178240000Y-92145000D02*
X179365300Y-92145000D01*
X182245000Y-88435000D02*
X181469700Y-88435000D01*
X179735100Y-86700400D02*
X181469700Y-88435000D01*
X175098100Y-86700400D02*
X179735100Y-86700400D01*
X174325300Y-85927600D02*
X175098100Y-86700400D01*
X174325300Y-85765000D02*
X174325300Y-85927600D01*
X174000200Y-85765000D02*
X174325300Y-85765000D01*
X174000200Y-85765000D02*
X173675000Y-85765000D01*
X169740000Y-87868600D02*
X169740000Y-90545000D01*
X168844600Y-86973200D02*
X169740000Y-87868600D01*
X168844600Y-84644100D02*
X168844600Y-86973200D01*
X169009100Y-84479600D02*
X168844600Y-84644100D01*
X171739300Y-84479600D02*
X169009100Y-84479600D01*
X173024700Y-85765000D02*
X171739300Y-84479600D01*
X173675000Y-85765000D02*
X173024700Y-85765000D01*
X163824300Y-98120400D02*
X165594700Y-96350000D01*
X154240400Y-98120400D02*
X163824300Y-98120400D01*
X153590000Y-97470000D02*
X154240400Y-98120400D01*
X166370000Y-96350000D02*
X165594700Y-96350000D01*
X170518400Y-96923400D02*
X169705500Y-96923400D01*
X171190000Y-97595000D02*
X170518400Y-96923400D01*
X171990000Y-97595000D02*
X171990000Y-96469700D01*
X171990000Y-96469700D02*
X171055300Y-95535000D01*
X160664700Y-106670300D02*
X161925000Y-106670300D01*
X158115000Y-109220000D02*
X160664700Y-106670300D01*
X161925000Y-105570000D02*
X161925000Y-106670300D01*
X177114700Y-91689500D02*
X177114700Y-91345000D01*
X176355300Y-92448900D02*
X177114700Y-91689500D01*
X178240000Y-91345000D02*
X177114700Y-91345000D01*
X177114700Y-90651100D02*
X177114700Y-90545000D01*
X175260400Y-92505400D02*
X177114700Y-90651100D01*
X178240000Y-90545000D02*
X177114700Y-90545000D01*
X167737900Y-100394000D02*
X167634200Y-100290300D01*
X167737900Y-105497400D02*
X167737900Y-100394000D01*
X167359200Y-105876100D02*
X167737900Y-105497400D01*
X166816900Y-105876100D02*
X167359200Y-105876100D01*
X166475200Y-105534400D02*
X166816900Y-105876100D01*
X166475200Y-104017600D02*
X166475200Y-105534400D01*
X164465000Y-102007400D02*
X166475200Y-104017600D01*
X164465000Y-100170000D02*
X164465000Y-102007400D01*
X163195000Y-105228200D02*
X163195000Y-105570000D01*
X162436400Y-104469600D02*
X163195000Y-105228200D01*
X160243700Y-104469600D02*
X162436400Y-104469600D01*
X156668600Y-108044700D02*
X160243700Y-104469600D01*
X155018200Y-108044700D02*
X156668600Y-108044700D01*
X154210300Y-108852600D02*
X155018200Y-108044700D01*
X154210300Y-109220000D02*
X154210300Y-108852600D01*
X153035000Y-109220000D02*
X154210300Y-109220000D01*
X175566900Y-91443400D02*
X176790000Y-90220300D01*
X175293500Y-91443400D02*
X175566900Y-91443400D01*
X176790000Y-89095000D02*
X176790000Y-90220300D01*
X169740000Y-96145000D02*
X168614700Y-96145000D01*
X168614700Y-96145000D02*
X168395300Y-96145000D01*
X192235000Y-101600000D02*
X192235000Y-99060000D01*
X192235000Y-106680000D02*
X192235000Y-104140000D01*
X187779700Y-99060000D02*
X190035000Y-99060000D01*
X185420000Y-96700300D02*
X187779700Y-99060000D01*
X185420000Y-95890000D02*
X185420000Y-96700300D01*
X188275300Y-101605000D02*
X190035000Y-103364700D01*
X185420000Y-101605000D02*
X188275300Y-101605000D01*
X190035000Y-104140000D02*
X190035000Y-103364700D01*
X154745300Y-100860000D02*
X157039700Y-100860000D01*
X158115000Y-100860000D02*
X157039700Y-100860000D01*
X154207700Y-100860000D02*
X154745300Y-100860000D01*
X163071500Y-93600000D02*
X162269700Y-93600000D01*
X163071500Y-93600000D02*
X163195000Y-93600000D01*
X167145300Y-91424400D02*
X167145300Y-88435000D01*
X166075100Y-92494600D02*
X167145300Y-91424400D01*
X165225700Y-92494600D02*
X166075100Y-92494600D01*
X164120300Y-93600000D02*
X165225700Y-92494600D01*
X163195000Y-93600000D02*
X164120300Y-93600000D01*
X166370000Y-88435000D02*
X167145300Y-88435000D01*
X155575000Y-90845000D02*
X154924700Y-90845000D01*
X162269700Y-93600000D02*
X159385000Y-93600000D01*
X159385000Y-93600000D02*
X158459700Y-93600000D01*
X153590000Y-95570000D02*
X153037400Y-95570000D01*
X153018700Y-91932100D02*
X154800000Y-91932100D01*
X152914600Y-92036200D02*
X153018700Y-91932100D01*
X152914600Y-95447200D02*
X152914600Y-92036200D01*
X153037400Y-95570000D02*
X152914600Y-95447200D01*
X154800000Y-92997800D02*
X154800000Y-91932100D01*
X155402200Y-93600000D02*
X154800000Y-92997800D01*
X158459700Y-93600000D02*
X155402200Y-93600000D01*
X154800000Y-90969700D02*
X154924700Y-90845000D01*
X154800000Y-91932100D02*
X154800000Y-90969700D01*
X154207700Y-100860000D02*
X153670000Y-100860000D01*
X152438300Y-96169100D02*
X153037400Y-95570000D01*
X152438300Y-100703600D02*
X152438300Y-96169100D01*
X152594700Y-100860000D02*
X152438300Y-100703600D01*
X153670000Y-100860000D02*
X152594700Y-100860000D01*
D38*
G36*
X184137560Y-100810000D02*
X184167796Y-100970690D01*
X184137560Y-101120000D01*
X184137560Y-102090000D01*
X184181838Y-102325317D01*
X184320910Y-102541441D01*
X184533110Y-102686431D01*
X184785000Y-102737440D01*
X186055000Y-102737440D01*
X186290317Y-102693162D01*
X186506441Y-102554090D01*
X186635641Y-102365000D01*
X187960498Y-102365000D01*
X188917739Y-103322241D01*
X188873960Y-103386314D01*
X188764199Y-103276553D01*
X188530810Y-103179880D01*
X188189870Y-103179880D01*
X188031120Y-103338630D01*
X188031120Y-104188260D01*
X188051120Y-104188260D01*
X188051120Y-104442260D01*
X188031120Y-104442260D01*
X188031120Y-105291890D01*
X188189870Y-105450640D01*
X188530810Y-105450640D01*
X188764199Y-105353967D01*
X188942827Y-105175338D01*
X188992250Y-105056022D01*
X189183110Y-105186431D01*
X189435000Y-105237440D01*
X190635000Y-105237440D01*
X190870317Y-105193162D01*
X191086441Y-105054090D01*
X191134134Y-104984289D01*
X191170910Y-105041441D01*
X191383110Y-105186431D01*
X191475000Y-105205039D01*
X191475000Y-105612666D01*
X191399683Y-105626838D01*
X191183559Y-105765910D01*
X191137031Y-105834006D01*
X190994698Y-105691673D01*
X190761309Y-105595000D01*
X190320750Y-105595000D01*
X190162000Y-105753750D01*
X190162000Y-106553000D01*
X190182000Y-106553000D01*
X190182000Y-106807000D01*
X190162000Y-106807000D01*
X190162000Y-107606250D01*
X190320750Y-107765000D01*
X190761309Y-107765000D01*
X190994698Y-107668327D01*
X191135936Y-107527090D01*
X191170910Y-107581441D01*
X191383110Y-107726431D01*
X191635000Y-107777440D01*
X192330000Y-107777440D01*
X192330000Y-108925909D01*
X190205908Y-111050000D01*
X189004376Y-111050000D01*
X189051940Y-110815120D01*
X189051940Y-109814360D01*
X189007662Y-109579043D01*
X188868590Y-109362919D01*
X188656390Y-109217929D01*
X188404500Y-109166920D01*
X187403740Y-109166920D01*
X187168423Y-109211198D01*
X186952299Y-109350270D01*
X186807309Y-109562470D01*
X186756300Y-109814360D01*
X186756300Y-110815120D01*
X186800496Y-111050000D01*
X185306136Y-111050000D01*
X185353700Y-110815120D01*
X185353700Y-109814360D01*
X185309422Y-109579043D01*
X185170350Y-109362919D01*
X184958150Y-109217929D01*
X184706260Y-109166920D01*
X183705500Y-109166920D01*
X183470183Y-109211198D01*
X183254059Y-109350270D01*
X183109069Y-109562470D01*
X183099329Y-109610569D01*
X183089361Y-109612552D01*
X182842799Y-109777299D01*
X182452721Y-110167377D01*
X182472440Y-110070000D01*
X182472440Y-108370000D01*
X182428162Y-108134683D01*
X182289090Y-107918559D01*
X182158305Y-107829197D01*
X183021752Y-106965750D01*
X188800000Y-106965750D01*
X188800000Y-107256310D01*
X188896673Y-107489699D01*
X189075302Y-107668327D01*
X189308691Y-107765000D01*
X189749250Y-107765000D01*
X189908000Y-107606250D01*
X189908000Y-106807000D01*
X188958750Y-106807000D01*
X188800000Y-106965750D01*
X183021752Y-106965750D01*
X183863201Y-106124301D01*
X183876972Y-106103690D01*
X188800000Y-106103690D01*
X188800000Y-106394250D01*
X188958750Y-106553000D01*
X189908000Y-106553000D01*
X189908000Y-105753750D01*
X189749250Y-105595000D01*
X189308691Y-105595000D01*
X189075302Y-105691673D01*
X188896673Y-105870301D01*
X188800000Y-106103690D01*
X183876972Y-106103690D01*
X184027948Y-105877739D01*
X184085800Y-105586900D01*
X184085800Y-105463080D01*
X184706260Y-105463080D01*
X184941577Y-105418802D01*
X185157701Y-105279730D01*
X185302691Y-105067530D01*
X185353700Y-104815640D01*
X185353700Y-104601010D01*
X186768740Y-104601010D01*
X186768740Y-104941949D01*
X186865413Y-105175338D01*
X187044041Y-105353967D01*
X187277430Y-105450640D01*
X187618370Y-105450640D01*
X187777120Y-105291890D01*
X187777120Y-104442260D01*
X186927490Y-104442260D01*
X186768740Y-104601010D01*
X185353700Y-104601010D01*
X185353700Y-103814880D01*
X185329934Y-103688571D01*
X186768740Y-103688571D01*
X186768740Y-104029510D01*
X186927490Y-104188260D01*
X187777120Y-104188260D01*
X187777120Y-103338630D01*
X187618370Y-103179880D01*
X187277430Y-103179880D01*
X187044041Y-103276553D01*
X186865413Y-103455182D01*
X186768740Y-103688571D01*
X185329934Y-103688571D01*
X185309422Y-103579563D01*
X185170350Y-103363439D01*
X184958150Y-103218449D01*
X184706260Y-103167440D01*
X184085800Y-103167440D01*
X184085800Y-100274700D01*
X184137560Y-100274700D01*
X184137560Y-100810000D01*
X184137560Y-100810000D01*
G37*
X184137560Y-100810000D02*
X184167796Y-100970690D01*
X184137560Y-101120000D01*
X184137560Y-102090000D01*
X184181838Y-102325317D01*
X184320910Y-102541441D01*
X184533110Y-102686431D01*
X184785000Y-102737440D01*
X186055000Y-102737440D01*
X186290317Y-102693162D01*
X186506441Y-102554090D01*
X186635641Y-102365000D01*
X187960498Y-102365000D01*
X188917739Y-103322241D01*
X188873960Y-103386314D01*
X188764199Y-103276553D01*
X188530810Y-103179880D01*
X188189870Y-103179880D01*
X188031120Y-103338630D01*
X188031120Y-104188260D01*
X188051120Y-104188260D01*
X188051120Y-104442260D01*
X188031120Y-104442260D01*
X188031120Y-105291890D01*
X188189870Y-105450640D01*
X188530810Y-105450640D01*
X188764199Y-105353967D01*
X188942827Y-105175338D01*
X188992250Y-105056022D01*
X189183110Y-105186431D01*
X189435000Y-105237440D01*
X190635000Y-105237440D01*
X190870317Y-105193162D01*
X191086441Y-105054090D01*
X191134134Y-104984289D01*
X191170910Y-105041441D01*
X191383110Y-105186431D01*
X191475000Y-105205039D01*
X191475000Y-105612666D01*
X191399683Y-105626838D01*
X191183559Y-105765910D01*
X191137031Y-105834006D01*
X190994698Y-105691673D01*
X190761309Y-105595000D01*
X190320750Y-105595000D01*
X190162000Y-105753750D01*
X190162000Y-106553000D01*
X190182000Y-106553000D01*
X190182000Y-106807000D01*
X190162000Y-106807000D01*
X190162000Y-107606250D01*
X190320750Y-107765000D01*
X190761309Y-107765000D01*
X190994698Y-107668327D01*
X191135936Y-107527090D01*
X191170910Y-107581441D01*
X191383110Y-107726431D01*
X191635000Y-107777440D01*
X192330000Y-107777440D01*
X192330000Y-108925909D01*
X190205908Y-111050000D01*
X189004376Y-111050000D01*
X189051940Y-110815120D01*
X189051940Y-109814360D01*
X189007662Y-109579043D01*
X188868590Y-109362919D01*
X188656390Y-109217929D01*
X188404500Y-109166920D01*
X187403740Y-109166920D01*
X187168423Y-109211198D01*
X186952299Y-109350270D01*
X186807309Y-109562470D01*
X186756300Y-109814360D01*
X186756300Y-110815120D01*
X186800496Y-111050000D01*
X185306136Y-111050000D01*
X185353700Y-110815120D01*
X185353700Y-109814360D01*
X185309422Y-109579043D01*
X185170350Y-109362919D01*
X184958150Y-109217929D01*
X184706260Y-109166920D01*
X183705500Y-109166920D01*
X183470183Y-109211198D01*
X183254059Y-109350270D01*
X183109069Y-109562470D01*
X183099329Y-109610569D01*
X183089361Y-109612552D01*
X182842799Y-109777299D01*
X182452721Y-110167377D01*
X182472440Y-110070000D01*
X182472440Y-108370000D01*
X182428162Y-108134683D01*
X182289090Y-107918559D01*
X182158305Y-107829197D01*
X183021752Y-106965750D01*
X188800000Y-106965750D01*
X188800000Y-107256310D01*
X188896673Y-107489699D01*
X189075302Y-107668327D01*
X189308691Y-107765000D01*
X189749250Y-107765000D01*
X189908000Y-107606250D01*
X189908000Y-106807000D01*
X188958750Y-106807000D01*
X188800000Y-106965750D01*
X183021752Y-106965750D01*
X183863201Y-106124301D01*
X183876972Y-106103690D01*
X188800000Y-106103690D01*
X188800000Y-106394250D01*
X188958750Y-106553000D01*
X189908000Y-106553000D01*
X189908000Y-105753750D01*
X189749250Y-105595000D01*
X189308691Y-105595000D01*
X189075302Y-105691673D01*
X188896673Y-105870301D01*
X188800000Y-106103690D01*
X183876972Y-106103690D01*
X184027948Y-105877739D01*
X184085800Y-105586900D01*
X184085800Y-105463080D01*
X184706260Y-105463080D01*
X184941577Y-105418802D01*
X185157701Y-105279730D01*
X185302691Y-105067530D01*
X185353700Y-104815640D01*
X185353700Y-104601010D01*
X186768740Y-104601010D01*
X186768740Y-104941949D01*
X186865413Y-105175338D01*
X187044041Y-105353967D01*
X187277430Y-105450640D01*
X187618370Y-105450640D01*
X187777120Y-105291890D01*
X187777120Y-104442260D01*
X186927490Y-104442260D01*
X186768740Y-104601010D01*
X185353700Y-104601010D01*
X185353700Y-103814880D01*
X185329934Y-103688571D01*
X186768740Y-103688571D01*
X186768740Y-104029510D01*
X186927490Y-104188260D01*
X187777120Y-104188260D01*
X187777120Y-103338630D01*
X187618370Y-103179880D01*
X187277430Y-103179880D01*
X187044041Y-103276553D01*
X186865413Y-103455182D01*
X186768740Y-103688571D01*
X185329934Y-103688571D01*
X185309422Y-103579563D01*
X185170350Y-103363439D01*
X184958150Y-103218449D01*
X184706260Y-103167440D01*
X184085800Y-103167440D01*
X184085800Y-100274700D01*
X184137560Y-100274700D01*
X184137560Y-100810000D01*
G36*
X176022000Y-109093000D02*
X176042000Y-109093000D01*
X176042000Y-109347000D01*
X176022000Y-109347000D01*
X176022000Y-109367000D01*
X175768000Y-109367000D01*
X175768000Y-109347000D01*
X175748000Y-109347000D01*
X175748000Y-109093000D01*
X175768000Y-109093000D01*
X175768000Y-109073000D01*
X176022000Y-109073000D01*
X176022000Y-109093000D01*
X176022000Y-109093000D01*
G37*
X176022000Y-109093000D02*
X176042000Y-109093000D01*
X176042000Y-109347000D01*
X176022000Y-109347000D01*
X176022000Y-109367000D01*
X175768000Y-109367000D01*
X175768000Y-109347000D01*
X175748000Y-109347000D01*
X175748000Y-109093000D01*
X175768000Y-109093000D01*
X175768000Y-109073000D01*
X176022000Y-109073000D01*
X176022000Y-109093000D01*
G36*
X152228699Y-102697801D02*
X152285000Y-102735420D01*
X152285000Y-103324250D01*
X152443750Y-103483000D01*
X153543000Y-103483000D01*
X153543000Y-103463000D01*
X153797000Y-103463000D01*
X153797000Y-103483000D01*
X154896250Y-103483000D01*
X155055000Y-103324250D01*
X155055000Y-102920400D01*
X156730000Y-102920400D01*
X156730000Y-103324250D01*
X156888750Y-103483000D01*
X157988000Y-103483000D01*
X157988000Y-103463000D01*
X158242000Y-103463000D01*
X158242000Y-103483000D01*
X159341250Y-103483000D01*
X159500000Y-103324250D01*
X159500000Y-102730676D01*
X159549201Y-102697801D01*
X160059401Y-102187601D01*
X160224148Y-101941039D01*
X160282000Y-101650200D01*
X160282000Y-101349202D01*
X160990000Y-100641202D01*
X160990000Y-101071309D01*
X161086673Y-101304698D01*
X161265301Y-101483327D01*
X161498690Y-101580000D01*
X161639250Y-101580000D01*
X161798000Y-101421250D01*
X161798000Y-100297000D01*
X161778000Y-100297000D01*
X161778000Y-100043000D01*
X161798000Y-100043000D01*
X161798000Y-100023000D01*
X162052000Y-100023000D01*
X162052000Y-100043000D01*
X162072000Y-100043000D01*
X162072000Y-100297000D01*
X162052000Y-100297000D01*
X162052000Y-101421250D01*
X162210750Y-101580000D01*
X162351310Y-101580000D01*
X162435000Y-101545334D01*
X162435000Y-103199700D01*
X162492852Y-103490539D01*
X162657599Y-103737101D01*
X162678194Y-103757696D01*
X162436400Y-103709600D01*
X160243700Y-103709600D01*
X159952861Y-103767452D01*
X159706299Y-103932199D01*
X159500000Y-104138498D01*
X159500000Y-103895750D01*
X159341250Y-103737000D01*
X158242000Y-103737000D01*
X158242000Y-105061250D01*
X158400750Y-105220000D01*
X158418498Y-105220000D01*
X156353798Y-107284700D01*
X155018200Y-107284700D01*
X154727361Y-107342552D01*
X154480799Y-107507299D01*
X153942498Y-108045600D01*
X153603285Y-107818946D01*
X153035000Y-107705907D01*
X152466715Y-107818946D01*
X151984946Y-108140853D01*
X151663039Y-108622622D01*
X151550000Y-109190907D01*
X151550000Y-109249093D01*
X151561374Y-109306272D01*
X149667701Y-107412599D01*
X149421139Y-107247852D01*
X149242923Y-107212402D01*
X149034147Y-106899946D01*
X148704974Y-106680000D01*
X149034147Y-106460054D01*
X149356054Y-105978285D01*
X149469093Y-105410000D01*
X149356054Y-104841715D01*
X149034147Y-104359946D01*
X148704974Y-104140000D01*
X149034147Y-103920054D01*
X149050386Y-103895750D01*
X152285000Y-103895750D01*
X152285000Y-104711309D01*
X152381673Y-104944698D01*
X152560301Y-105123327D01*
X152793690Y-105220000D01*
X153384250Y-105220000D01*
X153543000Y-105061250D01*
X153543000Y-103737000D01*
X153797000Y-103737000D01*
X153797000Y-105061250D01*
X153955750Y-105220000D01*
X154546310Y-105220000D01*
X154779699Y-105123327D01*
X154958327Y-104944698D01*
X155055000Y-104711309D01*
X155055000Y-103895750D01*
X156730000Y-103895750D01*
X156730000Y-104711309D01*
X156826673Y-104944698D01*
X157005301Y-105123327D01*
X157238690Y-105220000D01*
X157829250Y-105220000D01*
X157988000Y-105061250D01*
X157988000Y-103737000D01*
X156888750Y-103737000D01*
X156730000Y-103895750D01*
X155055000Y-103895750D01*
X154896250Y-103737000D01*
X153797000Y-103737000D01*
X153543000Y-103737000D01*
X152443750Y-103737000D01*
X152285000Y-103895750D01*
X149050386Y-103895750D01*
X149356054Y-103438285D01*
X149469093Y-102870000D01*
X149356054Y-102301715D01*
X149034147Y-101819946D01*
X148694812Y-101593210D01*
X148694530Y-101591789D01*
X148836358Y-101525183D01*
X149226645Y-101096924D01*
X149396476Y-100686890D01*
X149275155Y-100457000D01*
X148082000Y-100457000D01*
X148082000Y-100477000D01*
X147828000Y-100477000D01*
X147828000Y-100457000D01*
X147808000Y-100457000D01*
X147808000Y-100203000D01*
X147828000Y-100203000D01*
X147828000Y-100183000D01*
X148082000Y-100183000D01*
X148082000Y-100203000D01*
X149275155Y-100203000D01*
X149396476Y-99973110D01*
X149320448Y-99789550D01*
X152228699Y-102697801D01*
X152228699Y-102697801D01*
G37*
X152228699Y-102697801D02*
X152285000Y-102735420D01*
X152285000Y-103324250D01*
X152443750Y-103483000D01*
X153543000Y-103483000D01*
X153543000Y-103463000D01*
X153797000Y-103463000D01*
X153797000Y-103483000D01*
X154896250Y-103483000D01*
X155055000Y-103324250D01*
X155055000Y-102920400D01*
X156730000Y-102920400D01*
X156730000Y-103324250D01*
X156888750Y-103483000D01*
X157988000Y-103483000D01*
X157988000Y-103463000D01*
X158242000Y-103463000D01*
X158242000Y-103483000D01*
X159341250Y-103483000D01*
X159500000Y-103324250D01*
X159500000Y-102730676D01*
X159549201Y-102697801D01*
X160059401Y-102187601D01*
X160224148Y-101941039D01*
X160282000Y-101650200D01*
X160282000Y-101349202D01*
X160990000Y-100641202D01*
X160990000Y-101071309D01*
X161086673Y-101304698D01*
X161265301Y-101483327D01*
X161498690Y-101580000D01*
X161639250Y-101580000D01*
X161798000Y-101421250D01*
X161798000Y-100297000D01*
X161778000Y-100297000D01*
X161778000Y-100043000D01*
X161798000Y-100043000D01*
X161798000Y-100023000D01*
X162052000Y-100023000D01*
X162052000Y-100043000D01*
X162072000Y-100043000D01*
X162072000Y-100297000D01*
X162052000Y-100297000D01*
X162052000Y-101421250D01*
X162210750Y-101580000D01*
X162351310Y-101580000D01*
X162435000Y-101545334D01*
X162435000Y-103199700D01*
X162492852Y-103490539D01*
X162657599Y-103737101D01*
X162678194Y-103757696D01*
X162436400Y-103709600D01*
X160243700Y-103709600D01*
X159952861Y-103767452D01*
X159706299Y-103932199D01*
X159500000Y-104138498D01*
X159500000Y-103895750D01*
X159341250Y-103737000D01*
X158242000Y-103737000D01*
X158242000Y-105061250D01*
X158400750Y-105220000D01*
X158418498Y-105220000D01*
X156353798Y-107284700D01*
X155018200Y-107284700D01*
X154727361Y-107342552D01*
X154480799Y-107507299D01*
X153942498Y-108045600D01*
X153603285Y-107818946D01*
X153035000Y-107705907D01*
X152466715Y-107818946D01*
X151984946Y-108140853D01*
X151663039Y-108622622D01*
X151550000Y-109190907D01*
X151550000Y-109249093D01*
X151561374Y-109306272D01*
X149667701Y-107412599D01*
X149421139Y-107247852D01*
X149242923Y-107212402D01*
X149034147Y-106899946D01*
X148704974Y-106680000D01*
X149034147Y-106460054D01*
X149356054Y-105978285D01*
X149469093Y-105410000D01*
X149356054Y-104841715D01*
X149034147Y-104359946D01*
X148704974Y-104140000D01*
X149034147Y-103920054D01*
X149050386Y-103895750D01*
X152285000Y-103895750D01*
X152285000Y-104711309D01*
X152381673Y-104944698D01*
X152560301Y-105123327D01*
X152793690Y-105220000D01*
X153384250Y-105220000D01*
X153543000Y-105061250D01*
X153543000Y-103737000D01*
X153797000Y-103737000D01*
X153797000Y-105061250D01*
X153955750Y-105220000D01*
X154546310Y-105220000D01*
X154779699Y-105123327D01*
X154958327Y-104944698D01*
X155055000Y-104711309D01*
X155055000Y-103895750D01*
X156730000Y-103895750D01*
X156730000Y-104711309D01*
X156826673Y-104944698D01*
X157005301Y-105123327D01*
X157238690Y-105220000D01*
X157829250Y-105220000D01*
X157988000Y-105061250D01*
X157988000Y-103737000D01*
X156888750Y-103737000D01*
X156730000Y-103895750D01*
X155055000Y-103895750D01*
X154896250Y-103737000D01*
X153797000Y-103737000D01*
X153543000Y-103737000D01*
X152443750Y-103737000D01*
X152285000Y-103895750D01*
X149050386Y-103895750D01*
X149356054Y-103438285D01*
X149469093Y-102870000D01*
X149356054Y-102301715D01*
X149034147Y-101819946D01*
X148694812Y-101593210D01*
X148694530Y-101591789D01*
X148836358Y-101525183D01*
X149226645Y-101096924D01*
X149396476Y-100686890D01*
X149275155Y-100457000D01*
X148082000Y-100457000D01*
X148082000Y-100477000D01*
X147828000Y-100477000D01*
X147828000Y-100457000D01*
X147808000Y-100457000D01*
X147808000Y-100203000D01*
X147828000Y-100203000D01*
X147828000Y-100183000D01*
X148082000Y-100183000D01*
X148082000Y-100203000D01*
X149275155Y-100203000D01*
X149396476Y-99973110D01*
X149320448Y-99789550D01*
X152228699Y-102697801D01*
G36*
X170644683Y-103846838D02*
X170428559Y-103985910D01*
X170283569Y-104198110D01*
X170232560Y-104450000D01*
X170232560Y-105100000D01*
X170276838Y-105335317D01*
X170415910Y-105551441D01*
X170628110Y-105696431D01*
X170797620Y-105730758D01*
X170952599Y-105962701D01*
X171373798Y-106383900D01*
X170029013Y-106383900D01*
X170115000Y-106176310D01*
X170115000Y-106010750D01*
X169956250Y-105852000D01*
X168997000Y-105852000D01*
X168997000Y-105872000D01*
X168743000Y-105872000D01*
X168743000Y-105852000D01*
X168723000Y-105852000D01*
X168723000Y-105598000D01*
X168743000Y-105598000D01*
X168743000Y-105578000D01*
X168997000Y-105578000D01*
X168997000Y-105598000D01*
X169956250Y-105598000D01*
X170115000Y-105439250D01*
X170115000Y-105273690D01*
X170018327Y-105040301D01*
X169839698Y-104861673D01*
X169620707Y-104770964D01*
X169715317Y-104753162D01*
X169931441Y-104614090D01*
X170076431Y-104401890D01*
X170127440Y-104150000D01*
X170127440Y-103824200D01*
X170764993Y-103824200D01*
X170644683Y-103846838D01*
X170644683Y-103846838D01*
G37*
X170644683Y-103846838D02*
X170428559Y-103985910D01*
X170283569Y-104198110D01*
X170232560Y-104450000D01*
X170232560Y-105100000D01*
X170276838Y-105335317D01*
X170415910Y-105551441D01*
X170628110Y-105696431D01*
X170797620Y-105730758D01*
X170952599Y-105962701D01*
X171373798Y-106383900D01*
X170029013Y-106383900D01*
X170115000Y-106176310D01*
X170115000Y-106010750D01*
X169956250Y-105852000D01*
X168997000Y-105852000D01*
X168997000Y-105872000D01*
X168743000Y-105872000D01*
X168743000Y-105852000D01*
X168723000Y-105852000D01*
X168723000Y-105598000D01*
X168743000Y-105598000D01*
X168743000Y-105578000D01*
X168997000Y-105578000D01*
X168997000Y-105598000D01*
X169956250Y-105598000D01*
X170115000Y-105439250D01*
X170115000Y-105273690D01*
X170018327Y-105040301D01*
X169839698Y-104861673D01*
X169620707Y-104770964D01*
X169715317Y-104753162D01*
X169931441Y-104614090D01*
X170076431Y-104401890D01*
X170127440Y-104150000D01*
X170127440Y-103824200D01*
X170764993Y-103824200D01*
X170644683Y-103846838D01*
G36*
X175387000Y-100838000D02*
X175407000Y-100838000D01*
X175407000Y-101092000D01*
X175387000Y-101092000D01*
X175387000Y-102291250D01*
X175545750Y-102450000D01*
X175736309Y-102450000D01*
X175847283Y-102404033D01*
X175858110Y-102411431D01*
X176110000Y-102462440D01*
X176810000Y-102462440D01*
X177045317Y-102418162D01*
X177217700Y-102307237D01*
X177217700Y-103744424D01*
X177086309Y-103690000D01*
X176645750Y-103690000D01*
X176487000Y-103848750D01*
X176487000Y-104648000D01*
X176507000Y-104648000D01*
X176507000Y-104790300D01*
X176213000Y-104790300D01*
X176213000Y-104648000D01*
X176233000Y-104648000D01*
X176233000Y-103848750D01*
X176074250Y-103690000D01*
X175698864Y-103690000D01*
X175656701Y-103626899D01*
X174479218Y-102449416D01*
X174645317Y-102418162D01*
X174669406Y-102402661D01*
X174783691Y-102450000D01*
X174974250Y-102450000D01*
X175133000Y-102291250D01*
X175133000Y-101092000D01*
X175113000Y-101092000D01*
X175113000Y-100838000D01*
X175133000Y-100838000D01*
X175133000Y-100818000D01*
X175387000Y-100818000D01*
X175387000Y-100838000D01*
X175387000Y-100838000D01*
G37*
X175387000Y-100838000D02*
X175407000Y-100838000D01*
X175407000Y-101092000D01*
X175387000Y-101092000D01*
X175387000Y-102291250D01*
X175545750Y-102450000D01*
X175736309Y-102450000D01*
X175847283Y-102404033D01*
X175858110Y-102411431D01*
X176110000Y-102462440D01*
X176810000Y-102462440D01*
X177045317Y-102418162D01*
X177217700Y-102307237D01*
X177217700Y-103744424D01*
X177086309Y-103690000D01*
X176645750Y-103690000D01*
X176487000Y-103848750D01*
X176487000Y-104648000D01*
X176507000Y-104648000D01*
X176507000Y-104790300D01*
X176213000Y-104790300D01*
X176213000Y-104648000D01*
X176233000Y-104648000D01*
X176233000Y-103848750D01*
X176074250Y-103690000D01*
X175698864Y-103690000D01*
X175656701Y-103626899D01*
X174479218Y-102449416D01*
X174645317Y-102418162D01*
X174669406Y-102402661D01*
X174783691Y-102450000D01*
X174974250Y-102450000D01*
X175133000Y-102291250D01*
X175133000Y-101092000D01*
X175113000Y-101092000D01*
X175113000Y-100838000D01*
X175133000Y-100838000D01*
X175133000Y-100818000D01*
X175387000Y-100818000D01*
X175387000Y-100838000D01*
G36*
X184137560Y-95405000D02*
X184137560Y-96375000D01*
X184181838Y-96610317D01*
X184320910Y-96826441D01*
X184533110Y-96971431D01*
X184731532Y-97011612D01*
X184882599Y-97237701D01*
X187242299Y-99597401D01*
X187488861Y-99762148D01*
X187779700Y-99820000D01*
X188879895Y-99820000D01*
X188970910Y-99961441D01*
X189183110Y-100106431D01*
X189435000Y-100157440D01*
X190635000Y-100157440D01*
X190870317Y-100113162D01*
X191086441Y-99974090D01*
X191134134Y-99904289D01*
X191170910Y-99961441D01*
X191383110Y-100106431D01*
X191475000Y-100125039D01*
X191475000Y-100532666D01*
X191399683Y-100546838D01*
X191183559Y-100685910D01*
X191137031Y-100754006D01*
X190994698Y-100611673D01*
X190761309Y-100515000D01*
X190320750Y-100515000D01*
X190162000Y-100673750D01*
X190162000Y-101473000D01*
X190182000Y-101473000D01*
X190182000Y-101727000D01*
X190162000Y-101727000D01*
X190162000Y-101747000D01*
X189908000Y-101747000D01*
X189908000Y-101727000D01*
X189888000Y-101727000D01*
X189888000Y-101473000D01*
X189908000Y-101473000D01*
X189908000Y-100673750D01*
X189749250Y-100515000D01*
X189308691Y-100515000D01*
X189075302Y-100611673D01*
X188896673Y-100790301D01*
X188800000Y-101023690D01*
X188800000Y-101059112D01*
X188566139Y-100902852D01*
X188275300Y-100845000D01*
X186695352Y-100845000D01*
X186702440Y-100810000D01*
X186702440Y-99840000D01*
X186658162Y-99604683D01*
X186519090Y-99388559D01*
X186306890Y-99243569D01*
X186108468Y-99203388D01*
X185957401Y-98977299D01*
X185710839Y-98812552D01*
X185420000Y-98754700D01*
X184085800Y-98754700D01*
X184085800Y-96655500D01*
X184066741Y-96559683D01*
X184027948Y-96364660D01*
X183863201Y-96118099D01*
X183557701Y-95812599D01*
X183415655Y-95717687D01*
X183540601Y-95634201D01*
X183804802Y-95370000D01*
X184144648Y-95370000D01*
X184137560Y-95405000D01*
X184137560Y-95405000D01*
G37*
X184137560Y-95405000D02*
X184137560Y-96375000D01*
X184181838Y-96610317D01*
X184320910Y-96826441D01*
X184533110Y-96971431D01*
X184731532Y-97011612D01*
X184882599Y-97237701D01*
X187242299Y-99597401D01*
X187488861Y-99762148D01*
X187779700Y-99820000D01*
X188879895Y-99820000D01*
X188970910Y-99961441D01*
X189183110Y-100106431D01*
X189435000Y-100157440D01*
X190635000Y-100157440D01*
X190870317Y-100113162D01*
X191086441Y-99974090D01*
X191134134Y-99904289D01*
X191170910Y-99961441D01*
X191383110Y-100106431D01*
X191475000Y-100125039D01*
X191475000Y-100532666D01*
X191399683Y-100546838D01*
X191183559Y-100685910D01*
X191137031Y-100754006D01*
X190994698Y-100611673D01*
X190761309Y-100515000D01*
X190320750Y-100515000D01*
X190162000Y-100673750D01*
X190162000Y-101473000D01*
X190182000Y-101473000D01*
X190182000Y-101727000D01*
X190162000Y-101727000D01*
X190162000Y-101747000D01*
X189908000Y-101747000D01*
X189908000Y-101727000D01*
X189888000Y-101727000D01*
X189888000Y-101473000D01*
X189908000Y-101473000D01*
X189908000Y-100673750D01*
X189749250Y-100515000D01*
X189308691Y-100515000D01*
X189075302Y-100611673D01*
X188896673Y-100790301D01*
X188800000Y-101023690D01*
X188800000Y-101059112D01*
X188566139Y-100902852D01*
X188275300Y-100845000D01*
X186695352Y-100845000D01*
X186702440Y-100810000D01*
X186702440Y-99840000D01*
X186658162Y-99604683D01*
X186519090Y-99388559D01*
X186306890Y-99243569D01*
X186108468Y-99203388D01*
X185957401Y-98977299D01*
X185710839Y-98812552D01*
X185420000Y-98754700D01*
X184085800Y-98754700D01*
X184085800Y-96655500D01*
X184066741Y-96559683D01*
X184027948Y-96364660D01*
X183863201Y-96118099D01*
X183557701Y-95812599D01*
X183415655Y-95717687D01*
X183540601Y-95634201D01*
X183804802Y-95370000D01*
X184144648Y-95370000D01*
X184137560Y-95405000D01*
G36*
X192330000Y-80304091D02*
X192330000Y-90130000D01*
X190785750Y-90130000D01*
X190627000Y-90288750D01*
X190627000Y-91313000D01*
X190647000Y-91313000D01*
X190647000Y-91567000D01*
X190627000Y-91567000D01*
X190627000Y-92591250D01*
X190785750Y-92750000D01*
X192330000Y-92750000D01*
X192330000Y-95700000D01*
X190785750Y-95700000D01*
X190627000Y-95858750D01*
X190627000Y-96883000D01*
X190647000Y-96883000D01*
X190647000Y-97137000D01*
X190627000Y-97137000D01*
X190627000Y-97157000D01*
X190373000Y-97157000D01*
X190373000Y-97137000D01*
X187673750Y-97137000D01*
X187515000Y-97295750D01*
X187515000Y-97720498D01*
X186558054Y-96763552D01*
X186651431Y-96626890D01*
X186702440Y-96375000D01*
X186702440Y-96208690D01*
X187515000Y-96208690D01*
X187515000Y-96724250D01*
X187673750Y-96883000D01*
X190373000Y-96883000D01*
X190373000Y-95858750D01*
X190214250Y-95700000D01*
X188023691Y-95700000D01*
X187790302Y-95796673D01*
X187611673Y-95975301D01*
X187515000Y-96208690D01*
X186702440Y-96208690D01*
X186702440Y-95405000D01*
X186672204Y-95244310D01*
X186702440Y-95095000D01*
X186702440Y-94125000D01*
X186658162Y-93889683D01*
X186519090Y-93673559D01*
X186306890Y-93528569D01*
X186108468Y-93488388D01*
X185957401Y-93262299D01*
X185404700Y-92709598D01*
X185404700Y-91882440D01*
X185870000Y-91882440D01*
X186105317Y-91838162D01*
X186280010Y-91725750D01*
X187515000Y-91725750D01*
X187515000Y-92241310D01*
X187611673Y-92474699D01*
X187790302Y-92653327D01*
X188023691Y-92750000D01*
X190214250Y-92750000D01*
X190373000Y-92591250D01*
X190373000Y-91567000D01*
X187673750Y-91567000D01*
X187515000Y-91725750D01*
X186280010Y-91725750D01*
X186321441Y-91699090D01*
X186466431Y-91486890D01*
X186517440Y-91235000D01*
X186517440Y-90638690D01*
X187515000Y-90638690D01*
X187515000Y-91154250D01*
X187673750Y-91313000D01*
X190373000Y-91313000D01*
X190373000Y-90288750D01*
X190214250Y-90130000D01*
X188023691Y-90130000D01*
X187790302Y-90226673D01*
X187611673Y-90405301D01*
X187515000Y-90638690D01*
X186517440Y-90638690D01*
X186517440Y-90035000D01*
X186473162Y-89799683D01*
X186334090Y-89583559D01*
X186264289Y-89535866D01*
X186321441Y-89499090D01*
X186466431Y-89286890D01*
X186517440Y-89035000D01*
X186517440Y-87973599D01*
X188764699Y-87973599D01*
X189028281Y-88611515D01*
X189515918Y-89100004D01*
X190153373Y-89364699D01*
X190843599Y-89365301D01*
X191481515Y-89101719D01*
X191970004Y-88614082D01*
X192234699Y-87976627D01*
X192235301Y-87286401D01*
X191971719Y-86648485D01*
X191484082Y-86159996D01*
X190846627Y-85895301D01*
X190156401Y-85894699D01*
X189518485Y-86158281D01*
X189029996Y-86645918D01*
X188765301Y-87283373D01*
X188764699Y-87973599D01*
X186517440Y-87973599D01*
X186517440Y-87835000D01*
X186473162Y-87599683D01*
X186334090Y-87383559D01*
X186121890Y-87238569D01*
X185870000Y-87187560D01*
X185404700Y-87187560D01*
X185404700Y-87179400D01*
X185346848Y-86888561D01*
X185182101Y-86641999D01*
X185157176Y-86617074D01*
X185293000Y-86481250D01*
X185293000Y-85532000D01*
X185547000Y-85532000D01*
X185547000Y-86481250D01*
X185705750Y-86640000D01*
X185921310Y-86640000D01*
X186154699Y-86543327D01*
X186333327Y-86364698D01*
X186430000Y-86131309D01*
X186430000Y-85690750D01*
X186271250Y-85532000D01*
X185547000Y-85532000D01*
X185293000Y-85532000D01*
X184568750Y-85532000D01*
X184410000Y-85690750D01*
X184410000Y-85869898D01*
X184095102Y-85555000D01*
X184470426Y-85179676D01*
X184568750Y-85278000D01*
X185293000Y-85278000D01*
X185293000Y-85258000D01*
X185547000Y-85258000D01*
X185547000Y-85278000D01*
X186271250Y-85278000D01*
X186430000Y-85119250D01*
X186430000Y-84678691D01*
X186333327Y-84445302D01*
X186331957Y-84443932D01*
X186391431Y-84356890D01*
X186442440Y-84105000D01*
X186442440Y-82905000D01*
X186398162Y-82669683D01*
X186259090Y-82453559D01*
X186046890Y-82308569D01*
X185795000Y-82257560D01*
X185045000Y-82257560D01*
X184809683Y-82301838D01*
X184593559Y-82440910D01*
X184448569Y-82653110D01*
X184416584Y-82811055D01*
X184182299Y-82967599D01*
X184017552Y-83214161D01*
X183959700Y-83505000D01*
X183959700Y-83540798D01*
X183286735Y-84213763D01*
X183291431Y-84206890D01*
X183342440Y-83955000D01*
X183342440Y-82755000D01*
X183298162Y-82519683D01*
X183159090Y-82303559D01*
X182946890Y-82158569D01*
X182695000Y-82107560D01*
X181795000Y-82107560D01*
X181559683Y-82151838D01*
X181426829Y-82237327D01*
X180648687Y-81459185D01*
X180975000Y-81524093D01*
X181543285Y-81411054D01*
X182025054Y-81089147D01*
X182346961Y-80607378D01*
X182460000Y-80039093D01*
X182460000Y-79980907D01*
X182346961Y-79412622D01*
X182025054Y-78930853D01*
X181543285Y-78608946D01*
X180975000Y-78495907D01*
X180406715Y-78608946D01*
X179924946Y-78930853D01*
X179705000Y-79260026D01*
X179485054Y-78930853D01*
X179003285Y-78608946D01*
X178435000Y-78495907D01*
X177866715Y-78608946D01*
X177384946Y-78930853D01*
X177165000Y-79260026D01*
X176945054Y-78930853D01*
X176463285Y-78608946D01*
X175895000Y-78495907D01*
X175326715Y-78608946D01*
X174844946Y-78930853D01*
X174625000Y-79260026D01*
X174405054Y-78930853D01*
X173923285Y-78608946D01*
X173355000Y-78495907D01*
X172786715Y-78608946D01*
X172304946Y-78930853D01*
X172085000Y-79260026D01*
X171865054Y-78930853D01*
X171383285Y-78608946D01*
X170815000Y-78495907D01*
X170246715Y-78608946D01*
X169907442Y-78835640D01*
X169251802Y-78180000D01*
X190205908Y-78180000D01*
X192330000Y-80304091D01*
X192330000Y-80304091D01*
G37*
X192330000Y-80304091D02*
X192330000Y-90130000D01*
X190785750Y-90130000D01*
X190627000Y-90288750D01*
X190627000Y-91313000D01*
X190647000Y-91313000D01*
X190647000Y-91567000D01*
X190627000Y-91567000D01*
X190627000Y-92591250D01*
X190785750Y-92750000D01*
X192330000Y-92750000D01*
X192330000Y-95700000D01*
X190785750Y-95700000D01*
X190627000Y-95858750D01*
X190627000Y-96883000D01*
X190647000Y-96883000D01*
X190647000Y-97137000D01*
X190627000Y-97137000D01*
X190627000Y-97157000D01*
X190373000Y-97157000D01*
X190373000Y-97137000D01*
X187673750Y-97137000D01*
X187515000Y-97295750D01*
X187515000Y-97720498D01*
X186558054Y-96763552D01*
X186651431Y-96626890D01*
X186702440Y-96375000D01*
X186702440Y-96208690D01*
X187515000Y-96208690D01*
X187515000Y-96724250D01*
X187673750Y-96883000D01*
X190373000Y-96883000D01*
X190373000Y-95858750D01*
X190214250Y-95700000D01*
X188023691Y-95700000D01*
X187790302Y-95796673D01*
X187611673Y-95975301D01*
X187515000Y-96208690D01*
X186702440Y-96208690D01*
X186702440Y-95405000D01*
X186672204Y-95244310D01*
X186702440Y-95095000D01*
X186702440Y-94125000D01*
X186658162Y-93889683D01*
X186519090Y-93673559D01*
X186306890Y-93528569D01*
X186108468Y-93488388D01*
X185957401Y-93262299D01*
X185404700Y-92709598D01*
X185404700Y-91882440D01*
X185870000Y-91882440D01*
X186105317Y-91838162D01*
X186280010Y-91725750D01*
X187515000Y-91725750D01*
X187515000Y-92241310D01*
X187611673Y-92474699D01*
X187790302Y-92653327D01*
X188023691Y-92750000D01*
X190214250Y-92750000D01*
X190373000Y-92591250D01*
X190373000Y-91567000D01*
X187673750Y-91567000D01*
X187515000Y-91725750D01*
X186280010Y-91725750D01*
X186321441Y-91699090D01*
X186466431Y-91486890D01*
X186517440Y-91235000D01*
X186517440Y-90638690D01*
X187515000Y-90638690D01*
X187515000Y-91154250D01*
X187673750Y-91313000D01*
X190373000Y-91313000D01*
X190373000Y-90288750D01*
X190214250Y-90130000D01*
X188023691Y-90130000D01*
X187790302Y-90226673D01*
X187611673Y-90405301D01*
X187515000Y-90638690D01*
X186517440Y-90638690D01*
X186517440Y-90035000D01*
X186473162Y-89799683D01*
X186334090Y-89583559D01*
X186264289Y-89535866D01*
X186321441Y-89499090D01*
X186466431Y-89286890D01*
X186517440Y-89035000D01*
X186517440Y-87973599D01*
X188764699Y-87973599D01*
X189028281Y-88611515D01*
X189515918Y-89100004D01*
X190153373Y-89364699D01*
X190843599Y-89365301D01*
X191481515Y-89101719D01*
X191970004Y-88614082D01*
X192234699Y-87976627D01*
X192235301Y-87286401D01*
X191971719Y-86648485D01*
X191484082Y-86159996D01*
X190846627Y-85895301D01*
X190156401Y-85894699D01*
X189518485Y-86158281D01*
X189029996Y-86645918D01*
X188765301Y-87283373D01*
X188764699Y-87973599D01*
X186517440Y-87973599D01*
X186517440Y-87835000D01*
X186473162Y-87599683D01*
X186334090Y-87383559D01*
X186121890Y-87238569D01*
X185870000Y-87187560D01*
X185404700Y-87187560D01*
X185404700Y-87179400D01*
X185346848Y-86888561D01*
X185182101Y-86641999D01*
X185157176Y-86617074D01*
X185293000Y-86481250D01*
X185293000Y-85532000D01*
X185547000Y-85532000D01*
X185547000Y-86481250D01*
X185705750Y-86640000D01*
X185921310Y-86640000D01*
X186154699Y-86543327D01*
X186333327Y-86364698D01*
X186430000Y-86131309D01*
X186430000Y-85690750D01*
X186271250Y-85532000D01*
X185547000Y-85532000D01*
X185293000Y-85532000D01*
X184568750Y-85532000D01*
X184410000Y-85690750D01*
X184410000Y-85869898D01*
X184095102Y-85555000D01*
X184470426Y-85179676D01*
X184568750Y-85278000D01*
X185293000Y-85278000D01*
X185293000Y-85258000D01*
X185547000Y-85258000D01*
X185547000Y-85278000D01*
X186271250Y-85278000D01*
X186430000Y-85119250D01*
X186430000Y-84678691D01*
X186333327Y-84445302D01*
X186331957Y-84443932D01*
X186391431Y-84356890D01*
X186442440Y-84105000D01*
X186442440Y-82905000D01*
X186398162Y-82669683D01*
X186259090Y-82453559D01*
X186046890Y-82308569D01*
X185795000Y-82257560D01*
X185045000Y-82257560D01*
X184809683Y-82301838D01*
X184593559Y-82440910D01*
X184448569Y-82653110D01*
X184416584Y-82811055D01*
X184182299Y-82967599D01*
X184017552Y-83214161D01*
X183959700Y-83505000D01*
X183959700Y-83540798D01*
X183286735Y-84213763D01*
X183291431Y-84206890D01*
X183342440Y-83955000D01*
X183342440Y-82755000D01*
X183298162Y-82519683D01*
X183159090Y-82303559D01*
X182946890Y-82158569D01*
X182695000Y-82107560D01*
X181795000Y-82107560D01*
X181559683Y-82151838D01*
X181426829Y-82237327D01*
X180648687Y-81459185D01*
X180975000Y-81524093D01*
X181543285Y-81411054D01*
X182025054Y-81089147D01*
X182346961Y-80607378D01*
X182460000Y-80039093D01*
X182460000Y-79980907D01*
X182346961Y-79412622D01*
X182025054Y-78930853D01*
X181543285Y-78608946D01*
X180975000Y-78495907D01*
X180406715Y-78608946D01*
X179924946Y-78930853D01*
X179705000Y-79260026D01*
X179485054Y-78930853D01*
X179003285Y-78608946D01*
X178435000Y-78495907D01*
X177866715Y-78608946D01*
X177384946Y-78930853D01*
X177165000Y-79260026D01*
X176945054Y-78930853D01*
X176463285Y-78608946D01*
X175895000Y-78495907D01*
X175326715Y-78608946D01*
X174844946Y-78930853D01*
X174625000Y-79260026D01*
X174405054Y-78930853D01*
X173923285Y-78608946D01*
X173355000Y-78495907D01*
X172786715Y-78608946D01*
X172304946Y-78930853D01*
X172085000Y-79260026D01*
X171865054Y-78930853D01*
X171383285Y-78608946D01*
X170815000Y-78495907D01*
X170246715Y-78608946D01*
X169907442Y-78835640D01*
X169251802Y-78180000D01*
X190205908Y-78180000D01*
X192330000Y-80304091D01*
G36*
X150498748Y-93925858D02*
X150484605Y-93940000D01*
X150498748Y-93954143D01*
X150319143Y-94133748D01*
X150305000Y-94119605D01*
X149531207Y-94893398D01*
X149588945Y-95105400D01*
X149173808Y-95105400D01*
X149190000Y-95066309D01*
X149190000Y-94669781D01*
X149351602Y-94713793D01*
X150125395Y-93940000D01*
X150111253Y-93925858D01*
X150290858Y-93746253D01*
X150305000Y-93760395D01*
X150319143Y-93746253D01*
X150498748Y-93925858D01*
X150498748Y-93925858D01*
G37*
X150498748Y-93925858D02*
X150484605Y-93940000D01*
X150498748Y-93954143D01*
X150319143Y-94133748D01*
X150305000Y-94119605D01*
X149531207Y-94893398D01*
X149588945Y-95105400D01*
X149173808Y-95105400D01*
X149190000Y-95066309D01*
X149190000Y-94669781D01*
X149351602Y-94713793D01*
X150125395Y-93940000D01*
X150111253Y-93925858D01*
X150290858Y-93746253D01*
X150305000Y-93760395D01*
X150319143Y-93746253D01*
X150498748Y-93925858D01*
G36*
X147732000Y-90313000D02*
X147752000Y-90313000D01*
X147752000Y-90567000D01*
X147732000Y-90567000D01*
X147732000Y-92313000D01*
X147752000Y-92313000D01*
X147752000Y-92567000D01*
X147732000Y-92567000D01*
X147732000Y-94487000D01*
X147478000Y-94487000D01*
X147478000Y-92567000D01*
X147458000Y-92567000D01*
X147458000Y-92313000D01*
X147478000Y-92313000D01*
X147478000Y-90567000D01*
X147458000Y-90567000D01*
X147458000Y-90313000D01*
X147478000Y-90313000D01*
X147478000Y-90293000D01*
X147732000Y-90293000D01*
X147732000Y-90313000D01*
X147732000Y-90313000D01*
G37*
X147732000Y-90313000D02*
X147752000Y-90313000D01*
X147752000Y-90567000D01*
X147732000Y-90567000D01*
X147732000Y-92313000D01*
X147752000Y-92313000D01*
X147752000Y-92567000D01*
X147732000Y-92567000D01*
X147732000Y-94487000D01*
X147478000Y-94487000D01*
X147478000Y-92567000D01*
X147458000Y-92567000D01*
X147458000Y-92313000D01*
X147478000Y-92313000D01*
X147478000Y-90567000D01*
X147458000Y-90567000D01*
X147458000Y-90313000D01*
X147478000Y-90313000D01*
X147478000Y-90293000D01*
X147732000Y-90293000D01*
X147732000Y-90313000D01*
G36*
X166497000Y-94023000D02*
X166517000Y-94023000D01*
X166517000Y-94277000D01*
X166497000Y-94277000D01*
X166497000Y-94297000D01*
X166243000Y-94297000D01*
X166243000Y-94277000D01*
X166223000Y-94277000D01*
X166223000Y-94023000D01*
X166243000Y-94023000D01*
X166243000Y-94003000D01*
X166497000Y-94003000D01*
X166497000Y-94023000D01*
X166497000Y-94023000D01*
G37*
X166497000Y-94023000D02*
X166517000Y-94023000D01*
X166517000Y-94277000D01*
X166497000Y-94277000D01*
X166497000Y-94297000D01*
X166243000Y-94297000D01*
X166243000Y-94277000D01*
X166223000Y-94277000D01*
X166223000Y-94023000D01*
X166243000Y-94023000D01*
X166243000Y-94003000D01*
X166497000Y-94003000D01*
X166497000Y-94023000D01*
G36*
X173781245Y-90435495D02*
X173875750Y-90530000D01*
X173991310Y-90530000D01*
X174011753Y-90521532D01*
X174115000Y-90542440D01*
X174235358Y-90542440D01*
X174084599Y-90693199D01*
X173919852Y-90939761D01*
X173862000Y-91230600D01*
X173862000Y-92895900D01*
X173879978Y-92986283D01*
X173828433Y-92986238D01*
X173484657Y-93128283D01*
X173451482Y-93161400D01*
X171333559Y-93161400D01*
X171187440Y-93063767D01*
X171187440Y-92670000D01*
X171171041Y-92582849D01*
X171349273Y-92761392D01*
X171692801Y-92904038D01*
X172064767Y-92904362D01*
X172408543Y-92762317D01*
X172671792Y-92499527D01*
X172814438Y-92155999D01*
X172814479Y-92109123D01*
X173427201Y-91496401D01*
X173591948Y-91249839D01*
X173649800Y-90959000D01*
X173649800Y-90530000D01*
X173717002Y-90530000D01*
X173717002Y-90391600D01*
X173781245Y-90435495D01*
X173781245Y-90435495D01*
G37*
X173781245Y-90435495D02*
X173875750Y-90530000D01*
X173991310Y-90530000D01*
X174011753Y-90521532D01*
X174115000Y-90542440D01*
X174235358Y-90542440D01*
X174084599Y-90693199D01*
X173919852Y-90939761D01*
X173862000Y-91230600D01*
X173862000Y-92895900D01*
X173879978Y-92986283D01*
X173828433Y-92986238D01*
X173484657Y-93128283D01*
X173451482Y-93161400D01*
X171333559Y-93161400D01*
X171187440Y-93063767D01*
X171187440Y-92670000D01*
X171171041Y-92582849D01*
X171349273Y-92761392D01*
X171692801Y-92904038D01*
X172064767Y-92904362D01*
X172408543Y-92762317D01*
X172671792Y-92499527D01*
X172814438Y-92155999D01*
X172814479Y-92109123D01*
X173427201Y-91496401D01*
X173591948Y-91249839D01*
X173649800Y-90959000D01*
X173649800Y-90530000D01*
X173717002Y-90530000D01*
X173717002Y-90391600D01*
X173781245Y-90435495D01*
G36*
X150667899Y-83892401D02*
X150914461Y-84057148D01*
X151205300Y-84115000D01*
X152602666Y-84115000D01*
X152616838Y-84190317D01*
X152755910Y-84406441D01*
X152825711Y-84454134D01*
X152768559Y-84490910D01*
X152623569Y-84703110D01*
X152572560Y-84955000D01*
X152572560Y-86155000D01*
X152616838Y-86390317D01*
X152755910Y-86606441D01*
X152834905Y-86660416D01*
X152745533Y-86660338D01*
X152401757Y-86802383D01*
X152138508Y-87065173D01*
X151995862Y-87408701D01*
X151995538Y-87780667D01*
X152137583Y-88124443D01*
X152400373Y-88387692D01*
X152743901Y-88530338D01*
X153115867Y-88530662D01*
X153263377Y-88469712D01*
X153272552Y-88515839D01*
X153437299Y-88762401D01*
X153667891Y-88916477D01*
X153696838Y-89070317D01*
X153835910Y-89286441D01*
X154048110Y-89431431D01*
X154300000Y-89482440D01*
X154950000Y-89482440D01*
X155185317Y-89438162D01*
X155401441Y-89299090D01*
X155546431Y-89086890D01*
X155569609Y-88972435D01*
X155661673Y-89194698D01*
X155840301Y-89373327D01*
X156073690Y-89470000D01*
X156239250Y-89470000D01*
X156398000Y-89311250D01*
X156398000Y-88352000D01*
X156652000Y-88352000D01*
X156652000Y-89311250D01*
X156810750Y-89470000D01*
X156976310Y-89470000D01*
X157209699Y-89373327D01*
X157388327Y-89194698D01*
X157485000Y-88961309D01*
X157485000Y-88510750D01*
X157326250Y-88352000D01*
X156652000Y-88352000D01*
X156398000Y-88352000D01*
X156378000Y-88352000D01*
X156378000Y-88098000D01*
X156398000Y-88098000D01*
X156398000Y-87138750D01*
X156652000Y-87138750D01*
X156652000Y-88098000D01*
X157326250Y-88098000D01*
X157485000Y-87939250D01*
X157485000Y-87488691D01*
X157388327Y-87255302D01*
X157209699Y-87076673D01*
X156976310Y-86980000D01*
X156810750Y-86980000D01*
X156652000Y-87138750D01*
X156398000Y-87138750D01*
X156239250Y-86980000D01*
X156073690Y-86980000D01*
X155840301Y-87076673D01*
X155661673Y-87255302D01*
X155570964Y-87474293D01*
X155553162Y-87379683D01*
X155414090Y-87163559D01*
X155201890Y-87018569D01*
X154950000Y-86967560D01*
X154430000Y-86967560D01*
X154430000Y-86710105D01*
X154500095Y-86665000D01*
X155644700Y-86665000D01*
X155935539Y-86607148D01*
X156082633Y-86508863D01*
X156218110Y-86601431D01*
X156470000Y-86652440D01*
X157220000Y-86652440D01*
X157455317Y-86608162D01*
X157588171Y-86522673D01*
X159006475Y-87940977D01*
X158997560Y-87985000D01*
X158997560Y-89185000D01*
X159041838Y-89420317D01*
X159108329Y-89523646D01*
X159106673Y-89525302D01*
X159010000Y-89758691D01*
X159010000Y-90199250D01*
X159168750Y-90358000D01*
X159893000Y-90358000D01*
X159893000Y-90338000D01*
X160147000Y-90338000D01*
X160147000Y-90358000D01*
X160871250Y-90358000D01*
X161030000Y-90199250D01*
X161030000Y-89758691D01*
X160933327Y-89525302D01*
X160931957Y-89523932D01*
X160991431Y-89436890D01*
X161042440Y-89185000D01*
X161042440Y-88882300D01*
X161119045Y-88882300D01*
X161313001Y-88962838D01*
X161647900Y-88963130D01*
X161647900Y-89172700D01*
X161705752Y-89463539D01*
X161870499Y-89710101D01*
X162058199Y-89897801D01*
X162110000Y-89932413D01*
X162110000Y-90349250D01*
X162268750Y-90508000D01*
X163068000Y-90508000D01*
X163068000Y-90488000D01*
X163322000Y-90488000D01*
X163322000Y-90508000D01*
X164121250Y-90508000D01*
X164280000Y-90349250D01*
X164280000Y-89978651D01*
X164401001Y-89897801D01*
X165272560Y-89026242D01*
X165272560Y-89035000D01*
X165316838Y-89270317D01*
X165455910Y-89486441D01*
X165525711Y-89534134D01*
X165468559Y-89570910D01*
X165323569Y-89783110D01*
X165291584Y-89941055D01*
X165057299Y-90097599D01*
X164257074Y-90897824D01*
X164121250Y-90762000D01*
X163322000Y-90762000D01*
X163322000Y-91711250D01*
X163382824Y-91772074D01*
X163204898Y-91950000D01*
X157195105Y-91950000D01*
X157104090Y-91808559D01*
X156891890Y-91663569D01*
X156640000Y-91612560D01*
X156515533Y-91612560D01*
X156547440Y-91455000D01*
X156547440Y-90770750D01*
X159010000Y-90770750D01*
X159010000Y-91211309D01*
X159106673Y-91444698D01*
X159285301Y-91623327D01*
X159518690Y-91720000D01*
X159734250Y-91720000D01*
X159893000Y-91561250D01*
X159893000Y-90612000D01*
X160147000Y-90612000D01*
X160147000Y-91561250D01*
X160305750Y-91720000D01*
X160521310Y-91720000D01*
X160754699Y-91623327D01*
X160933327Y-91444698D01*
X161030000Y-91211309D01*
X161030000Y-90920750D01*
X162110000Y-90920750D01*
X162110000Y-91361309D01*
X162206673Y-91594698D01*
X162385301Y-91773327D01*
X162618690Y-91870000D01*
X162909250Y-91870000D01*
X163068000Y-91711250D01*
X163068000Y-90762000D01*
X162268750Y-90762000D01*
X162110000Y-90920750D01*
X161030000Y-90920750D01*
X161030000Y-90770750D01*
X160871250Y-90612000D01*
X160147000Y-90612000D01*
X159893000Y-90612000D01*
X159168750Y-90612000D01*
X159010000Y-90770750D01*
X156547440Y-90770750D01*
X156547440Y-90235000D01*
X156503162Y-89999683D01*
X156364090Y-89783559D01*
X156151890Y-89638569D01*
X155900000Y-89587560D01*
X155250000Y-89587560D01*
X155014683Y-89631838D01*
X154798559Y-89770910D01*
X154653569Y-89983110D01*
X154619243Y-90152619D01*
X154387299Y-90307599D01*
X154262599Y-90432299D01*
X154097852Y-90678861D01*
X154040000Y-90969700D01*
X154040000Y-91172100D01*
X153018700Y-91172100D01*
X152876300Y-91200425D01*
X152876300Y-89265600D01*
X152818448Y-88974761D01*
X152818448Y-88974760D01*
X152653701Y-88728199D01*
X149685013Y-85759511D01*
X150018701Y-85672647D01*
X150406933Y-85379125D01*
X150653286Y-84959376D01*
X150668462Y-84867609D01*
X150543731Y-84677000D01*
X149352000Y-84677000D01*
X149352000Y-84697000D01*
X149098000Y-84697000D01*
X149098000Y-84677000D01*
X149078000Y-84677000D01*
X149078000Y-84423000D01*
X149098000Y-84423000D01*
X149098000Y-84403000D01*
X149352000Y-84403000D01*
X149352000Y-84423000D01*
X150543731Y-84423000D01*
X150668462Y-84232391D01*
X150653286Y-84140624D01*
X150406933Y-83720875D01*
X150385580Y-83704731D01*
X150443171Y-83667673D01*
X150667899Y-83892401D01*
X150667899Y-83892401D01*
G37*
X150667899Y-83892401D02*
X150914461Y-84057148D01*
X151205300Y-84115000D01*
X152602666Y-84115000D01*
X152616838Y-84190317D01*
X152755910Y-84406441D01*
X152825711Y-84454134D01*
X152768559Y-84490910D01*
X152623569Y-84703110D01*
X152572560Y-84955000D01*
X152572560Y-86155000D01*
X152616838Y-86390317D01*
X152755910Y-86606441D01*
X152834905Y-86660416D01*
X152745533Y-86660338D01*
X152401757Y-86802383D01*
X152138508Y-87065173D01*
X151995862Y-87408701D01*
X151995538Y-87780667D01*
X152137583Y-88124443D01*
X152400373Y-88387692D01*
X152743901Y-88530338D01*
X153115867Y-88530662D01*
X153263377Y-88469712D01*
X153272552Y-88515839D01*
X153437299Y-88762401D01*
X153667891Y-88916477D01*
X153696838Y-89070317D01*
X153835910Y-89286441D01*
X154048110Y-89431431D01*
X154300000Y-89482440D01*
X154950000Y-89482440D01*
X155185317Y-89438162D01*
X155401441Y-89299090D01*
X155546431Y-89086890D01*
X155569609Y-88972435D01*
X155661673Y-89194698D01*
X155840301Y-89373327D01*
X156073690Y-89470000D01*
X156239250Y-89470000D01*
X156398000Y-89311250D01*
X156398000Y-88352000D01*
X156652000Y-88352000D01*
X156652000Y-89311250D01*
X156810750Y-89470000D01*
X156976310Y-89470000D01*
X157209699Y-89373327D01*
X157388327Y-89194698D01*
X157485000Y-88961309D01*
X157485000Y-88510750D01*
X157326250Y-88352000D01*
X156652000Y-88352000D01*
X156398000Y-88352000D01*
X156378000Y-88352000D01*
X156378000Y-88098000D01*
X156398000Y-88098000D01*
X156398000Y-87138750D01*
X156652000Y-87138750D01*
X156652000Y-88098000D01*
X157326250Y-88098000D01*
X157485000Y-87939250D01*
X157485000Y-87488691D01*
X157388327Y-87255302D01*
X157209699Y-87076673D01*
X156976310Y-86980000D01*
X156810750Y-86980000D01*
X156652000Y-87138750D01*
X156398000Y-87138750D01*
X156239250Y-86980000D01*
X156073690Y-86980000D01*
X155840301Y-87076673D01*
X155661673Y-87255302D01*
X155570964Y-87474293D01*
X155553162Y-87379683D01*
X155414090Y-87163559D01*
X155201890Y-87018569D01*
X154950000Y-86967560D01*
X154430000Y-86967560D01*
X154430000Y-86710105D01*
X154500095Y-86665000D01*
X155644700Y-86665000D01*
X155935539Y-86607148D01*
X156082633Y-86508863D01*
X156218110Y-86601431D01*
X156470000Y-86652440D01*
X157220000Y-86652440D01*
X157455317Y-86608162D01*
X157588171Y-86522673D01*
X159006475Y-87940977D01*
X158997560Y-87985000D01*
X158997560Y-89185000D01*
X159041838Y-89420317D01*
X159108329Y-89523646D01*
X159106673Y-89525302D01*
X159010000Y-89758691D01*
X159010000Y-90199250D01*
X159168750Y-90358000D01*
X159893000Y-90358000D01*
X159893000Y-90338000D01*
X160147000Y-90338000D01*
X160147000Y-90358000D01*
X160871250Y-90358000D01*
X161030000Y-90199250D01*
X161030000Y-89758691D01*
X160933327Y-89525302D01*
X160931957Y-89523932D01*
X160991431Y-89436890D01*
X161042440Y-89185000D01*
X161042440Y-88882300D01*
X161119045Y-88882300D01*
X161313001Y-88962838D01*
X161647900Y-88963130D01*
X161647900Y-89172700D01*
X161705752Y-89463539D01*
X161870499Y-89710101D01*
X162058199Y-89897801D01*
X162110000Y-89932413D01*
X162110000Y-90349250D01*
X162268750Y-90508000D01*
X163068000Y-90508000D01*
X163068000Y-90488000D01*
X163322000Y-90488000D01*
X163322000Y-90508000D01*
X164121250Y-90508000D01*
X164280000Y-90349250D01*
X164280000Y-89978651D01*
X164401001Y-89897801D01*
X165272560Y-89026242D01*
X165272560Y-89035000D01*
X165316838Y-89270317D01*
X165455910Y-89486441D01*
X165525711Y-89534134D01*
X165468559Y-89570910D01*
X165323569Y-89783110D01*
X165291584Y-89941055D01*
X165057299Y-90097599D01*
X164257074Y-90897824D01*
X164121250Y-90762000D01*
X163322000Y-90762000D01*
X163322000Y-91711250D01*
X163382824Y-91772074D01*
X163204898Y-91950000D01*
X157195105Y-91950000D01*
X157104090Y-91808559D01*
X156891890Y-91663569D01*
X156640000Y-91612560D01*
X156515533Y-91612560D01*
X156547440Y-91455000D01*
X156547440Y-90770750D01*
X159010000Y-90770750D01*
X159010000Y-91211309D01*
X159106673Y-91444698D01*
X159285301Y-91623327D01*
X159518690Y-91720000D01*
X159734250Y-91720000D01*
X159893000Y-91561250D01*
X159893000Y-90612000D01*
X160147000Y-90612000D01*
X160147000Y-91561250D01*
X160305750Y-91720000D01*
X160521310Y-91720000D01*
X160754699Y-91623327D01*
X160933327Y-91444698D01*
X161030000Y-91211309D01*
X161030000Y-90920750D01*
X162110000Y-90920750D01*
X162110000Y-91361309D01*
X162206673Y-91594698D01*
X162385301Y-91773327D01*
X162618690Y-91870000D01*
X162909250Y-91870000D01*
X163068000Y-91711250D01*
X163068000Y-90762000D01*
X162268750Y-90762000D01*
X162110000Y-90920750D01*
X161030000Y-90920750D01*
X161030000Y-90770750D01*
X160871250Y-90612000D01*
X160147000Y-90612000D01*
X159893000Y-90612000D01*
X159168750Y-90612000D01*
X159010000Y-90770750D01*
X156547440Y-90770750D01*
X156547440Y-90235000D01*
X156503162Y-89999683D01*
X156364090Y-89783559D01*
X156151890Y-89638569D01*
X155900000Y-89587560D01*
X155250000Y-89587560D01*
X155014683Y-89631838D01*
X154798559Y-89770910D01*
X154653569Y-89983110D01*
X154619243Y-90152619D01*
X154387299Y-90307599D01*
X154262599Y-90432299D01*
X154097852Y-90678861D01*
X154040000Y-90969700D01*
X154040000Y-91172100D01*
X153018700Y-91172100D01*
X152876300Y-91200425D01*
X152876300Y-89265600D01*
X152818448Y-88974761D01*
X152818448Y-88974760D01*
X152653701Y-88728199D01*
X149685013Y-85759511D01*
X150018701Y-85672647D01*
X150406933Y-85379125D01*
X150653286Y-84959376D01*
X150668462Y-84867609D01*
X150543731Y-84677000D01*
X149352000Y-84677000D01*
X149352000Y-84697000D01*
X149098000Y-84697000D01*
X149098000Y-84677000D01*
X149078000Y-84677000D01*
X149078000Y-84423000D01*
X149098000Y-84423000D01*
X149098000Y-84403000D01*
X149352000Y-84403000D01*
X149352000Y-84423000D01*
X150543731Y-84423000D01*
X150668462Y-84232391D01*
X150653286Y-84140624D01*
X150406933Y-83720875D01*
X150385580Y-83704731D01*
X150443171Y-83667673D01*
X150667899Y-83892401D01*
G36*
X149580715Y-87804817D02*
X149531207Y-87986602D01*
X150305000Y-88760395D01*
X150319143Y-88746253D01*
X150498748Y-88925858D01*
X150484605Y-88940000D01*
X150498748Y-88954143D01*
X150319143Y-89133748D01*
X150305000Y-89119605D01*
X150290858Y-89133748D01*
X150111253Y-88954143D01*
X150125395Y-88940000D01*
X149351602Y-88166207D01*
X149190000Y-88210219D01*
X149190000Y-88096109D01*
X149221052Y-87940000D01*
X149127043Y-87467386D01*
X148892973Y-87117075D01*
X149580715Y-87804817D01*
X149580715Y-87804817D01*
G37*
X149580715Y-87804817D02*
X149531207Y-87986602D01*
X150305000Y-88760395D01*
X150319143Y-88746253D01*
X150498748Y-88925858D01*
X150484605Y-88940000D01*
X150498748Y-88954143D01*
X150319143Y-89133748D01*
X150305000Y-89119605D01*
X150290858Y-89133748D01*
X150111253Y-88954143D01*
X150125395Y-88940000D01*
X149351602Y-88166207D01*
X149190000Y-88210219D01*
X149190000Y-88096109D01*
X149221052Y-87940000D01*
X149127043Y-87467386D01*
X148892973Y-87117075D01*
X149580715Y-87804817D01*
G36*
X165360000Y-83219250D02*
X165518750Y-83378000D01*
X166243000Y-83378000D01*
X166243000Y-83358000D01*
X166497000Y-83358000D01*
X166497000Y-83378000D01*
X167221250Y-83378000D01*
X167380000Y-83219250D01*
X167380000Y-82846000D01*
X168535000Y-82846000D01*
X168535000Y-83219250D01*
X168693750Y-83378000D01*
X169418000Y-83378000D01*
X169418000Y-83358000D01*
X169672000Y-83358000D01*
X169672000Y-83378000D01*
X170396250Y-83378000D01*
X170555000Y-83219250D01*
X170555000Y-82846000D01*
X173665000Y-82846000D01*
X173665000Y-82859250D01*
X173823750Y-83018000D01*
X174498000Y-83018000D01*
X174498000Y-82998000D01*
X174752000Y-82998000D01*
X174752000Y-83018000D01*
X175426250Y-83018000D01*
X175585000Y-82859250D01*
X175585000Y-82846000D01*
X176710898Y-82846000D01*
X177757299Y-83892401D01*
X177990043Y-84047915D01*
X178016838Y-84190317D01*
X178155910Y-84406441D01*
X178225711Y-84454134D01*
X178168559Y-84490910D01*
X178023569Y-84703110D01*
X177991584Y-84861055D01*
X177776155Y-85005000D01*
X176519216Y-85005000D01*
X176503162Y-84919683D01*
X176364090Y-84703559D01*
X176151890Y-84558569D01*
X175900000Y-84507560D01*
X175250000Y-84507560D01*
X175014683Y-84551838D01*
X174798559Y-84690910D01*
X174653569Y-84903110D01*
X174625824Y-85040120D01*
X174603162Y-84919683D01*
X174464090Y-84703559D01*
X174251890Y-84558569D01*
X174000000Y-84507560D01*
X173350000Y-84507560D01*
X173114683Y-84551838D01*
X172975744Y-84641242D01*
X172276701Y-83942199D01*
X172030139Y-83777452D01*
X171739300Y-83719600D01*
X170483850Y-83719600D01*
X170396250Y-83632000D01*
X169672000Y-83632000D01*
X169672000Y-83652000D01*
X169418000Y-83652000D01*
X169418000Y-83632000D01*
X168693750Y-83632000D01*
X168535000Y-83790750D01*
X168535000Y-83899903D01*
X168471699Y-83942199D01*
X168307199Y-84106699D01*
X168142452Y-84353261D01*
X168084600Y-84644100D01*
X168084600Y-86828198D01*
X167768201Y-86511799D01*
X167521639Y-86347052D01*
X167308759Y-86304707D01*
X167341431Y-86256890D01*
X167392440Y-86005000D01*
X167392440Y-84805000D01*
X167348162Y-84569683D01*
X167281671Y-84466354D01*
X167283327Y-84464698D01*
X167380000Y-84231309D01*
X167380000Y-83790750D01*
X167221250Y-83632000D01*
X166497000Y-83632000D01*
X166497000Y-83652000D01*
X166243000Y-83652000D01*
X166243000Y-83632000D01*
X165518750Y-83632000D01*
X165360000Y-83790750D01*
X165360000Y-84231309D01*
X165456673Y-84464698D01*
X165458043Y-84466068D01*
X165398569Y-84553110D01*
X165366584Y-84711054D01*
X165132299Y-84867599D01*
X164205000Y-85794898D01*
X164205000Y-85690750D01*
X164046250Y-85532000D01*
X163322000Y-85532000D01*
X163322000Y-85552000D01*
X163068000Y-85552000D01*
X163068000Y-85532000D01*
X162343750Y-85532000D01*
X162317926Y-85557824D01*
X162000300Y-85240198D01*
X162000300Y-84997402D01*
X162185000Y-84812702D01*
X162185000Y-85119250D01*
X162343750Y-85278000D01*
X163068000Y-85278000D01*
X163068000Y-85258000D01*
X163322000Y-85258000D01*
X163322000Y-85278000D01*
X164046250Y-85278000D01*
X164205000Y-85119250D01*
X164205000Y-84678691D01*
X164108327Y-84445302D01*
X164106957Y-84443932D01*
X164166431Y-84356890D01*
X164217440Y-84105000D01*
X164217440Y-83430750D01*
X173665000Y-83430750D01*
X173665000Y-83881309D01*
X173761673Y-84114698D01*
X173940301Y-84293327D01*
X174173690Y-84390000D01*
X174339250Y-84390000D01*
X174498000Y-84231250D01*
X174498000Y-83272000D01*
X174752000Y-83272000D01*
X174752000Y-84231250D01*
X174910750Y-84390000D01*
X175076310Y-84390000D01*
X175309699Y-84293327D01*
X175488327Y-84114698D01*
X175585000Y-83881309D01*
X175585000Y-83430750D01*
X175426250Y-83272000D01*
X174752000Y-83272000D01*
X174498000Y-83272000D01*
X173823750Y-83272000D01*
X173665000Y-83430750D01*
X164217440Y-83430750D01*
X164217440Y-82905000D01*
X164206338Y-82846000D01*
X165360000Y-82846000D01*
X165360000Y-83219250D01*
X165360000Y-83219250D01*
G37*
X165360000Y-83219250D02*
X165518750Y-83378000D01*
X166243000Y-83378000D01*
X166243000Y-83358000D01*
X166497000Y-83358000D01*
X166497000Y-83378000D01*
X167221250Y-83378000D01*
X167380000Y-83219250D01*
X167380000Y-82846000D01*
X168535000Y-82846000D01*
X168535000Y-83219250D01*
X168693750Y-83378000D01*
X169418000Y-83378000D01*
X169418000Y-83358000D01*
X169672000Y-83358000D01*
X169672000Y-83378000D01*
X170396250Y-83378000D01*
X170555000Y-83219250D01*
X170555000Y-82846000D01*
X173665000Y-82846000D01*
X173665000Y-82859250D01*
X173823750Y-83018000D01*
X174498000Y-83018000D01*
X174498000Y-82998000D01*
X174752000Y-82998000D01*
X174752000Y-83018000D01*
X175426250Y-83018000D01*
X175585000Y-82859250D01*
X175585000Y-82846000D01*
X176710898Y-82846000D01*
X177757299Y-83892401D01*
X177990043Y-84047915D01*
X178016838Y-84190317D01*
X178155910Y-84406441D01*
X178225711Y-84454134D01*
X178168559Y-84490910D01*
X178023569Y-84703110D01*
X177991584Y-84861055D01*
X177776155Y-85005000D01*
X176519216Y-85005000D01*
X176503162Y-84919683D01*
X176364090Y-84703559D01*
X176151890Y-84558569D01*
X175900000Y-84507560D01*
X175250000Y-84507560D01*
X175014683Y-84551838D01*
X174798559Y-84690910D01*
X174653569Y-84903110D01*
X174625824Y-85040120D01*
X174603162Y-84919683D01*
X174464090Y-84703559D01*
X174251890Y-84558569D01*
X174000000Y-84507560D01*
X173350000Y-84507560D01*
X173114683Y-84551838D01*
X172975744Y-84641242D01*
X172276701Y-83942199D01*
X172030139Y-83777452D01*
X171739300Y-83719600D01*
X170483850Y-83719600D01*
X170396250Y-83632000D01*
X169672000Y-83632000D01*
X169672000Y-83652000D01*
X169418000Y-83652000D01*
X169418000Y-83632000D01*
X168693750Y-83632000D01*
X168535000Y-83790750D01*
X168535000Y-83899903D01*
X168471699Y-83942199D01*
X168307199Y-84106699D01*
X168142452Y-84353261D01*
X168084600Y-84644100D01*
X168084600Y-86828198D01*
X167768201Y-86511799D01*
X167521639Y-86347052D01*
X167308759Y-86304707D01*
X167341431Y-86256890D01*
X167392440Y-86005000D01*
X167392440Y-84805000D01*
X167348162Y-84569683D01*
X167281671Y-84466354D01*
X167283327Y-84464698D01*
X167380000Y-84231309D01*
X167380000Y-83790750D01*
X167221250Y-83632000D01*
X166497000Y-83632000D01*
X166497000Y-83652000D01*
X166243000Y-83652000D01*
X166243000Y-83632000D01*
X165518750Y-83632000D01*
X165360000Y-83790750D01*
X165360000Y-84231309D01*
X165456673Y-84464698D01*
X165458043Y-84466068D01*
X165398569Y-84553110D01*
X165366584Y-84711054D01*
X165132299Y-84867599D01*
X164205000Y-85794898D01*
X164205000Y-85690750D01*
X164046250Y-85532000D01*
X163322000Y-85532000D01*
X163322000Y-85552000D01*
X163068000Y-85552000D01*
X163068000Y-85532000D01*
X162343750Y-85532000D01*
X162317926Y-85557824D01*
X162000300Y-85240198D01*
X162000300Y-84997402D01*
X162185000Y-84812702D01*
X162185000Y-85119250D01*
X162343750Y-85278000D01*
X163068000Y-85278000D01*
X163068000Y-85258000D01*
X163322000Y-85258000D01*
X163322000Y-85278000D01*
X164046250Y-85278000D01*
X164205000Y-85119250D01*
X164205000Y-84678691D01*
X164108327Y-84445302D01*
X164106957Y-84443932D01*
X164166431Y-84356890D01*
X164217440Y-84105000D01*
X164217440Y-83430750D01*
X173665000Y-83430750D01*
X173665000Y-83881309D01*
X173761673Y-84114698D01*
X173940301Y-84293327D01*
X174173690Y-84390000D01*
X174339250Y-84390000D01*
X174498000Y-84231250D01*
X174498000Y-83272000D01*
X174752000Y-83272000D01*
X174752000Y-84231250D01*
X174910750Y-84390000D01*
X175076310Y-84390000D01*
X175309699Y-84293327D01*
X175488327Y-84114698D01*
X175585000Y-83881309D01*
X175585000Y-83430750D01*
X175426250Y-83272000D01*
X174752000Y-83272000D01*
X174498000Y-83272000D01*
X173823750Y-83272000D01*
X173665000Y-83430750D01*
X164217440Y-83430750D01*
X164217440Y-82905000D01*
X164206338Y-82846000D01*
X165360000Y-82846000D01*
X165360000Y-83219250D01*
G36*
X155993750Y-83378000D02*
X156718000Y-83378000D01*
X156718000Y-83358000D01*
X156972000Y-83358000D01*
X156972000Y-83378000D01*
X156992000Y-83378000D01*
X156992000Y-83632000D01*
X156972000Y-83632000D01*
X156972000Y-83652000D01*
X156718000Y-83652000D01*
X156718000Y-83632000D01*
X155993750Y-83632000D01*
X155835000Y-83790750D01*
X155835000Y-84231309D01*
X155931673Y-84464698D01*
X155933043Y-84466068D01*
X155873569Y-84553110D01*
X155841584Y-84711055D01*
X155607299Y-84867599D01*
X155329898Y-85145000D01*
X154767440Y-85145000D01*
X154767440Y-84955000D01*
X154723162Y-84719683D01*
X154584090Y-84503559D01*
X154514289Y-84455866D01*
X154571441Y-84419090D01*
X154716431Y-84206890D01*
X154748416Y-84048945D01*
X154982701Y-83892401D01*
X155535502Y-83339600D01*
X155955350Y-83339600D01*
X155993750Y-83378000D01*
X155993750Y-83378000D01*
G37*
X155993750Y-83378000D02*
X156718000Y-83378000D01*
X156718000Y-83358000D01*
X156972000Y-83358000D01*
X156972000Y-83378000D01*
X156992000Y-83378000D01*
X156992000Y-83632000D01*
X156972000Y-83632000D01*
X156972000Y-83652000D01*
X156718000Y-83652000D01*
X156718000Y-83632000D01*
X155993750Y-83632000D01*
X155835000Y-83790750D01*
X155835000Y-84231309D01*
X155931673Y-84464698D01*
X155933043Y-84466068D01*
X155873569Y-84553110D01*
X155841584Y-84711055D01*
X155607299Y-84867599D01*
X155329898Y-85145000D01*
X154767440Y-85145000D01*
X154767440Y-84955000D01*
X154723162Y-84719683D01*
X154584090Y-84503559D01*
X154514289Y-84455866D01*
X154571441Y-84419090D01*
X154716431Y-84206890D01*
X154748416Y-84048945D01*
X154982701Y-83892401D01*
X155535502Y-83339600D01*
X155955350Y-83339600D01*
X155993750Y-83378000D01*
M02*
