G04 #@! TF.FileFunction,Copper,L2,Bot,Signal*
%FSLAX46Y46*%
G04 Gerber Fmt 4.6, Leading zero omitted, Abs format (unit mm)*
G04 Created by KiCad (PCBNEW 4.0.7-e2-6376~60~ubuntu17.10.1) date Tue Dec  5 13:17:51 2017*
%MOMM*%
%LPD*%
G01*
G04 APERTURE LIST*
%ADD10C,0.100000*%
%ADD11R,1.700000X1.200000*%
%ADD12O,1.700000X1.200000*%
%ADD13C,1.450000*%
%ADD14O,1.900000X1.200000*%
%ADD15R,1.700000X1.700000*%
%ADD16O,1.700000X1.700000*%
%ADD17R,1.016000X1.524000*%
%ADD18R,1.524000X1.016000*%
%ADD19R,4.700000X1.350000*%
%ADD20R,4.200000X1.270000*%
%ADD21R,2.997200X1.597660*%
%ADD22C,0.600000*%
%ADD23C,0.250000*%
%ADD24C,0.254000*%
G04 APERTURE END LIST*
D10*
D11*
X149225000Y-82550000D03*
D12*
X149225000Y-84550000D03*
D13*
X150305000Y-88940000D03*
X150305000Y-93940000D03*
D14*
X147605000Y-87940000D03*
X147605000Y-94940000D03*
D15*
X147955000Y-97790000D03*
D16*
X147955000Y-100330000D03*
X147955000Y-102870000D03*
X147955000Y-105410000D03*
X147955000Y-107950000D03*
D17*
X160020000Y-103505000D03*
X161290000Y-103505000D03*
X162560000Y-103505000D03*
X163830000Y-103505000D03*
X165100000Y-103505000D03*
X166370000Y-103505000D03*
X167640000Y-103505000D03*
X168910000Y-103505000D03*
X170180000Y-103505000D03*
X171450000Y-103505000D03*
X172720000Y-103505000D03*
X173990000Y-103505000D03*
X175260000Y-103505000D03*
X176530000Y-103505000D03*
X177800000Y-103505000D03*
X179070000Y-103505000D03*
X180340000Y-103505000D03*
X181610000Y-103505000D03*
X182880000Y-103505000D03*
X184150000Y-103505000D03*
X184150000Y-85725000D03*
D18*
X185420000Y-98425000D03*
X185420000Y-97155000D03*
X185420000Y-95885000D03*
X185420000Y-94615000D03*
X185420000Y-93345000D03*
X185420000Y-92075000D03*
X185420000Y-90805000D03*
D17*
X182880000Y-85725000D03*
X181610000Y-85725000D03*
X180340000Y-85725000D03*
X179070000Y-85725000D03*
X177800000Y-85725000D03*
X176530000Y-85725000D03*
X175260000Y-85725000D03*
X173990000Y-85725000D03*
X172720000Y-85725000D03*
X171450000Y-85725000D03*
X170180000Y-85725000D03*
X168910000Y-85725000D03*
X167640000Y-85725000D03*
X166370000Y-85725000D03*
X165100000Y-85725000D03*
X163830000Y-85725000D03*
X162560000Y-85725000D03*
X161290000Y-85725000D03*
X160020000Y-85725000D03*
D15*
X153035000Y-80010000D03*
D16*
X155575000Y-80010000D03*
X158115000Y-80010000D03*
X160655000Y-80010000D03*
X163195000Y-80010000D03*
X165735000Y-80010000D03*
X168275000Y-80010000D03*
X170815000Y-80010000D03*
X173355000Y-80010000D03*
X175895000Y-80010000D03*
X178435000Y-80010000D03*
X180975000Y-80010000D03*
D15*
X180975000Y-109220000D03*
D16*
X178435000Y-109220000D03*
X175895000Y-109220000D03*
X173355000Y-109220000D03*
X170815000Y-109220000D03*
X168275000Y-109220000D03*
X165735000Y-109220000D03*
X163195000Y-109220000D03*
X160655000Y-109220000D03*
X158115000Y-109220000D03*
X155575000Y-109220000D03*
X153035000Y-109220000D03*
D19*
X190500000Y-91440000D03*
D20*
X190750000Y-94225000D03*
D19*
X190500000Y-97010000D03*
D21*
X165991540Y-100614480D03*
X165989000Y-98615500D03*
X165989000Y-96613980D03*
X165989000Y-94615000D03*
X165989000Y-92616020D03*
X165989000Y-90614500D03*
X165989000Y-88615520D03*
X181991000Y-88615520D03*
X181991000Y-90614500D03*
X181991000Y-92616020D03*
X181991000Y-94615000D03*
X181991000Y-96613980D03*
X181991000Y-98615500D03*
X181991000Y-100614480D03*
D15*
X154305000Y-103505000D03*
D16*
X154305000Y-100965000D03*
D22*
X171475000Y-84436000D03*
X174826500Y-100170000D03*
X161704900Y-90624100D03*
X161965100Y-95476000D03*
X153472900Y-87723200D03*
X179977400Y-90922100D03*
X177769500Y-105792100D03*
X174748600Y-92233100D03*
X175778400Y-100639600D03*
X176202900Y-104831700D03*
X174328700Y-86996000D03*
X161665200Y-97888600D03*
X160542100Y-96925000D03*
X159047200Y-84016400D03*
X157597400Y-95471700D03*
X168863200Y-89679200D03*
X171699500Y-91694100D03*
X175350300Y-87640100D03*
X172635300Y-93415000D03*
X156832900Y-94128400D03*
X185010900Y-102230000D03*
X187416000Y-94220400D03*
X187416000Y-90890700D03*
X168014200Y-83899900D03*
X175607000Y-106867700D03*
X176423600Y-96667400D03*
X162180200Y-106819700D03*
X171420700Y-100462800D03*
X175848000Y-96035500D03*
X175662100Y-95192200D03*
X166230300Y-105303000D03*
X183991200Y-98389400D03*
X185950400Y-89776700D03*
X173448800Y-87458800D03*
X171006900Y-91018000D03*
X172797600Y-95429400D03*
X179217300Y-87034600D03*
X177266300Y-87659900D03*
X173450900Y-94345800D03*
X168975800Y-97415000D03*
X163550500Y-92113100D03*
X158080000Y-89895800D03*
X156422300Y-90845000D03*
X158363700Y-107301200D03*
X170383900Y-99369700D03*
X177564500Y-92800200D03*
X178286200Y-91038800D03*
X168211900Y-101175500D03*
X179433300Y-101533000D03*
X180596300Y-105737100D03*
X176993800Y-94451500D03*
X158190300Y-93600000D03*
D23*
X177800000Y-103505000D02*
X177800000Y-102417700D01*
X175895000Y-109220000D02*
X175895000Y-108157300D01*
X177800000Y-103505000D02*
X177800000Y-104592300D01*
X147605000Y-87095300D02*
X147605000Y-87940000D01*
X149225000Y-85475300D02*
X147605000Y-87095300D01*
X149225000Y-84550000D02*
X149225000Y-85475300D01*
X165989000Y-88615500D02*
X164165100Y-88615500D01*
X167640000Y-103505000D02*
X167640000Y-104592300D01*
X160020000Y-104592300D02*
X167640000Y-104592300D01*
X160020000Y-103505000D02*
X160020000Y-104592300D01*
X185420000Y-94615000D02*
X184332700Y-94615000D01*
X184332700Y-97155000D02*
X184332700Y-94615000D01*
X172720000Y-85725000D02*
X172720000Y-84637700D01*
X183606400Y-84637700D02*
X172720000Y-84637700D01*
X184150000Y-85181300D02*
X183606400Y-84637700D01*
X185420000Y-90805000D02*
X186507300Y-90805000D01*
X185420000Y-92075000D02*
X186507300Y-92075000D01*
X187748600Y-91516100D02*
X186507300Y-91516100D01*
X187824700Y-91440000D02*
X187748600Y-91516100D01*
X186507300Y-90805000D02*
X186507300Y-91516100D01*
X186507300Y-91516100D02*
X186507300Y-92075000D01*
X190500000Y-91440000D02*
X187824700Y-91440000D01*
X184150000Y-85453100D02*
X184150000Y-85181300D01*
X184332700Y-94146500D02*
X184332700Y-94615000D01*
X182802200Y-92616000D02*
X184332700Y-94146500D01*
X181991000Y-92616000D02*
X182802200Y-92616000D01*
X185420000Y-90805000D02*
X184332700Y-90805000D01*
X184150000Y-85453100D02*
X184150000Y-85725000D01*
X184150000Y-85725000D02*
X184150000Y-86812300D01*
X181991000Y-92616000D02*
X180167100Y-92616000D01*
X184150000Y-86812300D02*
X184150000Y-87445300D01*
X184332700Y-87628000D02*
X184150000Y-87445300D01*
X184332700Y-90805000D02*
X184332700Y-87628000D01*
X160020000Y-85725000D02*
X160020000Y-86812300D01*
X167812900Y-87909400D02*
X167812900Y-88615500D01*
X168910000Y-86812300D02*
X167812900Y-87909400D01*
X168910000Y-85725000D02*
X168910000Y-86812300D01*
X165989000Y-88615500D02*
X167812900Y-88615500D01*
X171475000Y-84436000D02*
X171475000Y-84466200D01*
X171646500Y-84637700D02*
X172720000Y-84637700D01*
X171475000Y-84466200D02*
X171646500Y-84637700D01*
X169081500Y-84466200D02*
X168910000Y-84637700D01*
X171475000Y-84466200D02*
X169081500Y-84466200D01*
X168910000Y-85725000D02*
X168910000Y-84637700D01*
X180402900Y-87445300D02*
X184150000Y-87445300D01*
X179537400Y-88310800D02*
X180402900Y-87445300D01*
X179537400Y-88937700D02*
X179537400Y-88310800D01*
X179305500Y-89169600D02*
X179537400Y-88937700D01*
X179305500Y-91754400D02*
X179305500Y-89169600D01*
X180167100Y-92616000D02*
X179305500Y-91754400D01*
X174341900Y-104592300D02*
X167640000Y-104592300D01*
X175895000Y-106145400D02*
X174341900Y-104592300D01*
X177448100Y-104592300D02*
X177800000Y-104592300D01*
X175895000Y-106145400D02*
X177448100Y-104592300D01*
X176232300Y-106482700D02*
X175895000Y-106145400D01*
X176232300Y-107820000D02*
X176232300Y-106482700D01*
X175895000Y-108157300D02*
X176232300Y-107820000D01*
X185420000Y-97155000D02*
X184905700Y-97155000D01*
X184905700Y-97155000D02*
X184332700Y-97155000D01*
X174988200Y-100008300D02*
X174826500Y-100170000D01*
X176032300Y-100008300D02*
X174988200Y-100008300D01*
X177800000Y-101776000D02*
X176032300Y-100008300D01*
X177800000Y-102417700D02*
X177800000Y-101776000D01*
X184150000Y-103505000D02*
X184150000Y-102417700D01*
X177800000Y-102417700D02*
X184150000Y-102417700D01*
X185420000Y-97669300D02*
X185420000Y-98425000D01*
X184905700Y-97155000D02*
X185420000Y-97669300D01*
X184150000Y-101899100D02*
X184150000Y-102417700D01*
X185420000Y-100629100D02*
X184150000Y-101899100D01*
X185420000Y-98425000D02*
X185420000Y-100629100D01*
X164165100Y-88615500D02*
X161704900Y-88615500D01*
X160020000Y-86930600D02*
X160020000Y-86812300D01*
X161704900Y-88615500D02*
X160020000Y-86930600D01*
X161704900Y-88615500D02*
X161704900Y-90624100D01*
X161965100Y-90884300D02*
X161965100Y-95476000D01*
X161704900Y-90624100D02*
X161965100Y-90884300D01*
X147955000Y-97790000D02*
X147955000Y-96614700D01*
X173990000Y-85725000D02*
X173990000Y-86699700D01*
X149130300Y-92065800D02*
X153472900Y-87723200D01*
X149130300Y-95439400D02*
X149130300Y-92065800D01*
X147955000Y-96614700D02*
X149130300Y-95439400D01*
X181991000Y-90614500D02*
X180167100Y-90614500D01*
X180167100Y-90732400D02*
X179977400Y-90922100D01*
X180167100Y-90614500D02*
X180167100Y-90732400D01*
X178435000Y-109220000D02*
X178435000Y-108044700D01*
X177769500Y-107379200D02*
X177769500Y-105792100D01*
X178435000Y-108044700D02*
X177769500Y-107379200D01*
X176442300Y-104592300D02*
X176202900Y-104831700D01*
X176530000Y-104592300D02*
X176442300Y-104592300D01*
X176530000Y-103505000D02*
X176530000Y-104592300D01*
X174032400Y-86699700D02*
X173990000Y-86699700D01*
X174328700Y-86996000D02*
X174032400Y-86699700D01*
X176530000Y-101391200D02*
X175778400Y-100639600D01*
X176530000Y-103505000D02*
X176530000Y-101391200D01*
X175590600Y-86996000D02*
X174328700Y-86996000D01*
X175975600Y-87381000D02*
X175590600Y-86996000D01*
X175975600Y-87899200D02*
X175975600Y-87381000D01*
X174748600Y-89126200D02*
X175975600Y-87899200D01*
X174748600Y-92233100D02*
X174748600Y-89126200D01*
X160655000Y-109220000D02*
X160655000Y-108044700D01*
X158251300Y-105641000D02*
X160655000Y-108044700D01*
X158251300Y-102226300D02*
X158251300Y-105641000D01*
X161665200Y-98812400D02*
X158251300Y-102226300D01*
X161665200Y-97888600D02*
X161665200Y-98812400D01*
X180975000Y-109220000D02*
X179799700Y-109220000D01*
X159719000Y-96925000D02*
X160542100Y-96925000D01*
X159719000Y-98690900D02*
X159719000Y-96925000D01*
X156937600Y-101472300D02*
X159719000Y-98690900D01*
X156937600Y-109729800D02*
X156937600Y-101472300D01*
X158117700Y-110909900D02*
X156937600Y-109729800D01*
X178477100Y-110909900D02*
X158117700Y-110909900D01*
X179799700Y-109587300D02*
X178477100Y-110909900D01*
X179799700Y-109220000D02*
X179799700Y-109587300D01*
X157597400Y-95471700D02*
X158735500Y-95471700D01*
X158735500Y-95941500D02*
X158735500Y-95471700D01*
X159719000Y-96925000D02*
X158735500Y-95941500D01*
X158735500Y-84328100D02*
X159047200Y-84016400D01*
X158735500Y-93260800D02*
X158735500Y-84328100D01*
X158815600Y-93340900D02*
X158735500Y-93260800D01*
X158815600Y-95391600D02*
X158815600Y-93340900D01*
X158735500Y-95471700D02*
X158815600Y-95391600D01*
X168863200Y-89834900D02*
X168863200Y-89679200D01*
X170722400Y-91694100D02*
X168863200Y-89834900D01*
X171699500Y-91694100D02*
X170722400Y-91694100D01*
X172635300Y-90355100D02*
X172635300Y-93415000D01*
X175350300Y-87640100D02*
X172635300Y-90355100D01*
X157304900Y-93656400D02*
X156832900Y-94128400D01*
X157304900Y-84184700D02*
X157304900Y-93656400D01*
X158857000Y-82632600D02*
X157304900Y-84184700D01*
X160572400Y-82632600D02*
X158857000Y-82632600D01*
X163195000Y-80010000D02*
X160572400Y-82632600D01*
X187416000Y-99824900D02*
X185010900Y-102230000D01*
X187416000Y-94220400D02*
X187416000Y-99824900D01*
X168275000Y-80010000D02*
X168275000Y-81150900D01*
X169374600Y-82539500D02*
X168014200Y-83899900D01*
X175032100Y-82539500D02*
X169374600Y-82539500D01*
X177165000Y-80406600D02*
X175032100Y-82539500D01*
X178018600Y-81260200D02*
X177165000Y-80406600D01*
X182147800Y-81260200D02*
X178018600Y-81260200D01*
X187416000Y-86528400D02*
X182147800Y-81260200D01*
X187416000Y-90890700D02*
X187416000Y-86528400D01*
X168309400Y-81185300D02*
X168275000Y-81150900D01*
X173953500Y-81185300D02*
X168309400Y-81185300D01*
X174625000Y-80513800D02*
X173953500Y-81185300D01*
X174625000Y-79608400D02*
X174625000Y-80513800D01*
X175431700Y-78801700D02*
X174625000Y-79608400D01*
X176377400Y-78801700D02*
X175431700Y-78801700D01*
X177165000Y-79589300D02*
X176377400Y-78801700D01*
X177165000Y-80406600D02*
X177165000Y-79589300D01*
X170815000Y-80010000D02*
X169639700Y-80010000D01*
X147955000Y-102870000D02*
X147955000Y-101694700D01*
X148322300Y-101694700D02*
X147955000Y-101694700D01*
X155705300Y-94311700D02*
X148322300Y-101694700D01*
X155705300Y-85147400D02*
X155705300Y-94311700D01*
X158829400Y-82023300D02*
X155705300Y-85147400D01*
X160311700Y-82023300D02*
X158829400Y-82023300D01*
X161925000Y-80410000D02*
X160311700Y-82023300D01*
X161925000Y-79607100D02*
X161925000Y-80410000D01*
X162731000Y-78801100D02*
X161925000Y-79607100D01*
X168798100Y-78801100D02*
X162731000Y-78801100D01*
X169639700Y-79642700D02*
X168798100Y-78801100D01*
X169639700Y-80010000D02*
X169639700Y-79642700D01*
X174430000Y-108044700D02*
X175607000Y-106867700D01*
X173355000Y-108044700D02*
X174430000Y-108044700D01*
X173355000Y-109220000D02*
X173355000Y-108044700D01*
X170815000Y-109220000D02*
X169639700Y-109220000D01*
X170673400Y-102417600D02*
X176423600Y-96667400D01*
X159368400Y-102417600D02*
X170673400Y-102417600D01*
X159151900Y-102634100D02*
X159368400Y-102417600D01*
X159151900Y-104420600D02*
X159151900Y-102634100D01*
X160921200Y-106189900D02*
X159151900Y-104420600D01*
X166976900Y-106189900D02*
X160921200Y-106189900D01*
X169639700Y-108852700D02*
X166976900Y-106189900D01*
X169639700Y-109220000D02*
X169639700Y-108852700D01*
X168275000Y-109220000D02*
X167099700Y-109220000D01*
X167099700Y-108852700D02*
X167099700Y-109220000D01*
X165066800Y-106819800D02*
X167099700Y-108852700D01*
X162180200Y-106819800D02*
X165066800Y-106819800D01*
X162180200Y-106819700D02*
X162180200Y-106819800D01*
X171420700Y-100462800D02*
X175848000Y-96035500D01*
X165989000Y-90614500D02*
X164165100Y-90614500D01*
X163195000Y-109220000D02*
X163195000Y-108044700D01*
X169027200Y-101827100D02*
X175662100Y-95192200D01*
X164397700Y-101827100D02*
X169027200Y-101827100D01*
X162202400Y-99631800D02*
X164397700Y-101827100D01*
X162740800Y-99093400D02*
X162202400Y-99631800D01*
X162740800Y-91953300D02*
X162740800Y-99093400D01*
X164079600Y-90614500D02*
X162740800Y-91953300D01*
X164165100Y-90614500D02*
X164079600Y-90614500D01*
X162111300Y-108044700D02*
X163195000Y-108044700D01*
X158701600Y-104635000D02*
X162111300Y-108044700D01*
X158701600Y-102447500D02*
X158701600Y-104635000D01*
X161517300Y-99631800D02*
X158701600Y-102447500D01*
X162202400Y-99631800D02*
X161517300Y-99631800D01*
X147587600Y-104234700D02*
X147955000Y-104234700D01*
X146779700Y-103426800D02*
X147587600Y-104234700D01*
X146779700Y-99789300D02*
X146779700Y-103426800D01*
X147603600Y-98965400D02*
X146779700Y-99789300D01*
X148977100Y-98965400D02*
X147603600Y-98965400D01*
X155158000Y-92784500D02*
X148977100Y-98965400D01*
X155158000Y-85057800D02*
X155158000Y-92784500D01*
X159385000Y-80830800D02*
X155158000Y-85057800D01*
X159385000Y-79600400D02*
X159385000Y-80830800D01*
X160663400Y-78322000D02*
X159385000Y-79600400D01*
X170859000Y-78322000D02*
X160663400Y-78322000D01*
X172179700Y-79642700D02*
X170859000Y-78322000D01*
X172179700Y-80010000D02*
X172179700Y-79642700D01*
X173355000Y-80010000D02*
X172179700Y-80010000D01*
X147955000Y-105410000D02*
X147955000Y-104234700D01*
X179070000Y-103505000D02*
X179070000Y-104592300D01*
X166230300Y-105303100D02*
X166230300Y-105303000D01*
X168612600Y-105303100D02*
X166230300Y-105303100D01*
X171990400Y-108680900D02*
X168612600Y-105303100D01*
X171990400Y-109535400D02*
X171990400Y-108680900D01*
X172862900Y-110407900D02*
X171990400Y-109535400D01*
X176392700Y-110407900D02*
X172862900Y-110407900D01*
X177144200Y-109656400D02*
X176392700Y-110407900D01*
X177144200Y-105533100D02*
X177144200Y-109656400D01*
X177510500Y-105166800D02*
X177144200Y-105533100D01*
X178495500Y-105166800D02*
X177510500Y-105166800D01*
X179070000Y-104592300D02*
X178495500Y-105166800D01*
X183814900Y-98565700D02*
X183991200Y-98389400D01*
X183814900Y-100614500D02*
X183814900Y-98565700D01*
X181991000Y-100614500D02*
X183814900Y-100614500D01*
X167640000Y-85725000D02*
X167640000Y-84637700D01*
X185950400Y-85795300D02*
X185950400Y-89776700D01*
X183951600Y-83796500D02*
X185950400Y-85795300D01*
X169002000Y-83796500D02*
X183951600Y-83796500D01*
X168160800Y-84637700D02*
X169002000Y-83796500D01*
X167640000Y-84637700D02*
X168160800Y-84637700D01*
X173448800Y-88576100D02*
X173448800Y-87458800D01*
X171006900Y-91018000D02*
X173448800Y-88576100D01*
X173258700Y-95429400D02*
X172797600Y-95429400D01*
X175869900Y-92818200D02*
X173258700Y-95429400D01*
X175869900Y-90382000D02*
X175869900Y-92818200D01*
X179217300Y-87034600D02*
X175869900Y-90382000D01*
X175419600Y-89506600D02*
X177266300Y-87659900D01*
X175419600Y-92446500D02*
X175419600Y-89506600D01*
X173520300Y-94345800D02*
X175419600Y-92446500D01*
X173450900Y-94345800D02*
X173520300Y-94345800D01*
X168975800Y-97452600D02*
X168975800Y-97415000D01*
X167812900Y-98615500D02*
X168975800Y-97452600D01*
X166788400Y-98615500D02*
X167812900Y-98615500D01*
X166788400Y-98615500D02*
X165989000Y-98615500D01*
X164165100Y-92727700D02*
X163550500Y-92113100D01*
X164165100Y-98615500D02*
X164165100Y-92727700D01*
X174045700Y-81859300D02*
X175895000Y-80010000D01*
X167380400Y-81859300D02*
X174045700Y-81859300D01*
X165965200Y-83274500D02*
X167380400Y-81859300D01*
X158878400Y-83274500D02*
X165965200Y-83274500D01*
X158080000Y-84072900D02*
X158878400Y-83274500D01*
X158080000Y-89895800D02*
X158080000Y-84072900D01*
X165989000Y-98615500D02*
X164165100Y-98615500D01*
X154305000Y-100965000D02*
X154305000Y-99789700D01*
X156155700Y-91111600D02*
X156422300Y-90845000D01*
X156155700Y-97939000D02*
X156155700Y-91111600D01*
X154305000Y-99789700D02*
X156155700Y-97939000D01*
X158115000Y-109220000D02*
X158115000Y-108044700D01*
X181991000Y-96614000D02*
X180167100Y-96614000D01*
X166370000Y-85725000D02*
X166370000Y-84637700D01*
X158363700Y-107796000D02*
X158363700Y-107301200D01*
X158115000Y-108044700D02*
X158363700Y-107796000D01*
X157753900Y-106691400D02*
X158363700Y-107301200D01*
X157753900Y-101671900D02*
X157753900Y-106691400D01*
X161039900Y-98385900D02*
X157753900Y-101671900D01*
X161039900Y-97629600D02*
X161039900Y-98385900D01*
X161189400Y-97480100D02*
X161039900Y-97629600D01*
X161189400Y-92395100D02*
X161189400Y-97480100D01*
X159186600Y-90392300D02*
X161189400Y-92395100D01*
X159186600Y-84828300D02*
X159186600Y-90392300D01*
X159377200Y-84637700D02*
X159186600Y-84828300D01*
X166370000Y-84637700D02*
X159377200Y-84637700D01*
X177532000Y-92832700D02*
X177532000Y-93819700D01*
X177564500Y-92800200D02*
X177532000Y-92832700D01*
X180167100Y-96454800D02*
X177532000Y-93819700D01*
X180167100Y-96614000D02*
X180167100Y-96454800D01*
X170592200Y-99369700D02*
X170383900Y-99369700D01*
X176142200Y-93819700D02*
X170592200Y-99369700D01*
X177532000Y-93819700D02*
X176142200Y-93819700D01*
X165991500Y-100614500D02*
X167482600Y-100614500D01*
X167650900Y-100614500D02*
X167950500Y-100914000D01*
X167482600Y-100614500D02*
X167650900Y-100614500D01*
X167950500Y-100914000D02*
X168211900Y-101175500D01*
X173255600Y-96069400D02*
X178286200Y-91038800D01*
X172795100Y-96069400D02*
X173255600Y-96069400D01*
X167950500Y-100914000D02*
X172795100Y-96069400D01*
X181991000Y-98615500D02*
X180167100Y-98615500D01*
X153035000Y-109220000D02*
X154210300Y-109220000D01*
X179433300Y-98615500D02*
X180167100Y-98615500D01*
X179433300Y-101533000D02*
X179433300Y-98615500D01*
X179433300Y-96891000D02*
X176993800Y-94451500D01*
X179433300Y-98615500D02*
X179433300Y-96891000D01*
X182176300Y-107317100D02*
X180596300Y-105737100D01*
X182176300Y-110236700D02*
X182176300Y-107317100D01*
X181039900Y-111373100D02*
X182176300Y-110236700D01*
X155996100Y-111373100D02*
X181039900Y-111373100D01*
X154210300Y-109587300D02*
X155996100Y-111373100D01*
X154210300Y-109220000D02*
X154210300Y-109587300D01*
X185420000Y-93345000D02*
X186507300Y-93345000D01*
X187444700Y-93345000D02*
X186507300Y-93345000D01*
X188324700Y-94225000D02*
X187444700Y-93345000D01*
X190750000Y-94225000D02*
X188324700Y-94225000D01*
X183814900Y-92827200D02*
X184332700Y-93345000D01*
X183814900Y-88615500D02*
X183814900Y-92827200D01*
X181991000Y-88615500D02*
X183814900Y-88615500D01*
X185420000Y-93345000D02*
X184332700Y-93345000D01*
X154305000Y-103505000D02*
X154305000Y-102329700D01*
X158190300Y-93655400D02*
X158190300Y-93600000D01*
X156928600Y-94917100D02*
X158190300Y-93655400D01*
X156928600Y-100073400D02*
X156928600Y-94917100D01*
X154672300Y-102329700D02*
X156928600Y-100073400D01*
X154305000Y-102329700D02*
X154672300Y-102329700D01*
D24*
G36*
X188185910Y-95311441D02*
X188398110Y-95456431D01*
X188650000Y-95507440D01*
X192330000Y-95507440D01*
X192330000Y-95700000D01*
X190785750Y-95700000D01*
X190627000Y-95858750D01*
X190627000Y-96883000D01*
X190647000Y-96883000D01*
X190647000Y-97137000D01*
X190627000Y-97137000D01*
X190627000Y-98161250D01*
X190785750Y-98320000D01*
X192330000Y-98320000D01*
X192330000Y-108925909D01*
X190205908Y-111050000D01*
X182437802Y-111050000D01*
X182713701Y-110774101D01*
X182878448Y-110527540D01*
X182936300Y-110236700D01*
X182936300Y-107317100D01*
X182878448Y-107026261D01*
X182878448Y-107026260D01*
X182713701Y-106779699D01*
X181531422Y-105597420D01*
X181531462Y-105551933D01*
X181389417Y-105208157D01*
X181126627Y-104944908D01*
X181006848Y-104895171D01*
X181102000Y-104914440D01*
X182118000Y-104914440D01*
X182249662Y-104889666D01*
X182372000Y-104914440D01*
X183388000Y-104914440D01*
X183496455Y-104894033D01*
X183515690Y-104902000D01*
X183864250Y-104902000D01*
X184023000Y-104743250D01*
X184023000Y-104328431D01*
X184035440Y-104267000D01*
X184035440Y-103632000D01*
X184277000Y-103632000D01*
X184277000Y-104743250D01*
X184435750Y-104902000D01*
X184784310Y-104902000D01*
X185017699Y-104805327D01*
X185196327Y-104626698D01*
X185293000Y-104393309D01*
X185293000Y-103790750D01*
X185134250Y-103632000D01*
X184277000Y-103632000D01*
X184035440Y-103632000D01*
X184035440Y-103358000D01*
X184277000Y-103358000D01*
X184277000Y-103378000D01*
X185134250Y-103378000D01*
X185293000Y-103219250D01*
X185293000Y-103125110D01*
X185539843Y-103023117D01*
X185803092Y-102760327D01*
X185945738Y-102416799D01*
X185945779Y-102369923D01*
X187953401Y-100362301D01*
X188118148Y-100115739D01*
X188176000Y-99824900D01*
X188176000Y-98320000D01*
X190214250Y-98320000D01*
X190373000Y-98161250D01*
X190373000Y-97137000D01*
X190353000Y-97137000D01*
X190353000Y-96883000D01*
X190373000Y-96883000D01*
X190373000Y-95858750D01*
X190214250Y-95700000D01*
X188176000Y-95700000D01*
X188176000Y-95296040D01*
X188185910Y-95311441D01*
X188185910Y-95311441D01*
G37*
X188185910Y-95311441D02*
X188398110Y-95456431D01*
X188650000Y-95507440D01*
X192330000Y-95507440D01*
X192330000Y-95700000D01*
X190785750Y-95700000D01*
X190627000Y-95858750D01*
X190627000Y-96883000D01*
X190647000Y-96883000D01*
X190647000Y-97137000D01*
X190627000Y-97137000D01*
X190627000Y-98161250D01*
X190785750Y-98320000D01*
X192330000Y-98320000D01*
X192330000Y-108925909D01*
X190205908Y-111050000D01*
X182437802Y-111050000D01*
X182713701Y-110774101D01*
X182878448Y-110527540D01*
X182936300Y-110236700D01*
X182936300Y-107317100D01*
X182878448Y-107026261D01*
X182878448Y-107026260D01*
X182713701Y-106779699D01*
X181531422Y-105597420D01*
X181531462Y-105551933D01*
X181389417Y-105208157D01*
X181126627Y-104944908D01*
X181006848Y-104895171D01*
X181102000Y-104914440D01*
X182118000Y-104914440D01*
X182249662Y-104889666D01*
X182372000Y-104914440D01*
X183388000Y-104914440D01*
X183496455Y-104894033D01*
X183515690Y-104902000D01*
X183864250Y-104902000D01*
X184023000Y-104743250D01*
X184023000Y-104328431D01*
X184035440Y-104267000D01*
X184035440Y-103632000D01*
X184277000Y-103632000D01*
X184277000Y-104743250D01*
X184435750Y-104902000D01*
X184784310Y-104902000D01*
X185017699Y-104805327D01*
X185196327Y-104626698D01*
X185293000Y-104393309D01*
X185293000Y-103790750D01*
X185134250Y-103632000D01*
X184277000Y-103632000D01*
X184035440Y-103632000D01*
X184035440Y-103358000D01*
X184277000Y-103358000D01*
X184277000Y-103378000D01*
X185134250Y-103378000D01*
X185293000Y-103219250D01*
X185293000Y-103125110D01*
X185539843Y-103023117D01*
X185803092Y-102760327D01*
X185945738Y-102416799D01*
X185945779Y-102369923D01*
X187953401Y-100362301D01*
X188118148Y-100115739D01*
X188176000Y-99824900D01*
X188176000Y-98320000D01*
X190214250Y-98320000D01*
X190373000Y-98161250D01*
X190373000Y-97137000D01*
X190353000Y-97137000D01*
X190353000Y-96883000D01*
X190373000Y-96883000D01*
X190373000Y-95858750D01*
X190214250Y-95700000D01*
X188176000Y-95700000D01*
X188176000Y-95296040D01*
X188185910Y-95311441D01*
G36*
X176022000Y-109093000D02*
X176042000Y-109093000D01*
X176042000Y-109347000D01*
X176022000Y-109347000D01*
X176022000Y-109367000D01*
X175768000Y-109367000D01*
X175768000Y-109347000D01*
X175748000Y-109347000D01*
X175748000Y-109093000D01*
X175768000Y-109093000D01*
X175768000Y-109073000D01*
X176022000Y-109073000D01*
X176022000Y-109093000D01*
X176022000Y-109093000D01*
G37*
X176022000Y-109093000D02*
X176042000Y-109093000D01*
X176042000Y-109347000D01*
X176022000Y-109347000D01*
X176022000Y-109367000D01*
X175768000Y-109367000D01*
X175768000Y-109347000D01*
X175748000Y-109347000D01*
X175748000Y-109093000D01*
X175768000Y-109093000D01*
X175768000Y-109073000D01*
X176022000Y-109073000D01*
X176022000Y-109093000D01*
G36*
X160134560Y-103652000D02*
X159911900Y-103652000D01*
X159911900Y-103358000D01*
X160134560Y-103358000D01*
X160134560Y-103652000D01*
X160134560Y-103652000D01*
G37*
X160134560Y-103652000D02*
X159911900Y-103652000D01*
X159911900Y-103358000D01*
X160134560Y-103358000D01*
X160134560Y-103652000D01*
G36*
X167754560Y-103652000D02*
X167525440Y-103652000D01*
X167525440Y-103358000D01*
X167754560Y-103358000D01*
X167754560Y-103652000D01*
X167754560Y-103652000D01*
G37*
X167754560Y-103652000D02*
X167525440Y-103652000D01*
X167525440Y-103358000D01*
X167754560Y-103358000D01*
X167754560Y-103652000D01*
G36*
X176807001Y-95386338D02*
X176853877Y-95386379D01*
X178673300Y-97205802D01*
X178673300Y-100970537D01*
X178641108Y-101002673D01*
X178498462Y-101346201D01*
X178498138Y-101718167D01*
X178640183Y-102061943D01*
X178673741Y-102095560D01*
X178562000Y-102095560D01*
X178453545Y-102115967D01*
X178434310Y-102108000D01*
X178085750Y-102108000D01*
X177927000Y-102266750D01*
X177927000Y-102681569D01*
X177914560Y-102743000D01*
X177914560Y-103652000D01*
X177685440Y-103652000D01*
X177685440Y-102743000D01*
X177673000Y-102676887D01*
X177673000Y-102266750D01*
X177514250Y-102108000D01*
X177290000Y-102108000D01*
X177290000Y-101391200D01*
X177232148Y-101100361D01*
X177067401Y-100853799D01*
X176713522Y-100499920D01*
X176713562Y-100454433D01*
X176571517Y-100110657D01*
X176308727Y-99847408D01*
X175965199Y-99704762D01*
X175593233Y-99704438D01*
X175249457Y-99846483D01*
X174986208Y-100109273D01*
X174843562Y-100452801D01*
X174843238Y-100824767D01*
X174985283Y-101168543D01*
X175248073Y-101431792D01*
X175591601Y-101574438D01*
X175638477Y-101574479D01*
X175770000Y-101706002D01*
X175770000Y-102095965D01*
X175768000Y-102095560D01*
X174752000Y-102095560D01*
X174620338Y-102120334D01*
X174498000Y-102095560D01*
X173482000Y-102095560D01*
X173350338Y-102120334D01*
X173228000Y-102095560D01*
X172212000Y-102095560D01*
X172080338Y-102120334D01*
X172051340Y-102114462D01*
X176563280Y-97602522D01*
X176608767Y-97602562D01*
X176952543Y-97460517D01*
X177215792Y-97197727D01*
X177358438Y-96854199D01*
X177358762Y-96482233D01*
X177216717Y-96138457D01*
X176953927Y-95875208D01*
X176760202Y-95794766D01*
X176641117Y-95506557D01*
X176572509Y-95437829D01*
X176596938Y-95378999D01*
X176597008Y-95299141D01*
X176807001Y-95386338D01*
X176807001Y-95386338D01*
G37*
X176807001Y-95386338D02*
X176853877Y-95386379D01*
X178673300Y-97205802D01*
X178673300Y-100970537D01*
X178641108Y-101002673D01*
X178498462Y-101346201D01*
X178498138Y-101718167D01*
X178640183Y-102061943D01*
X178673741Y-102095560D01*
X178562000Y-102095560D01*
X178453545Y-102115967D01*
X178434310Y-102108000D01*
X178085750Y-102108000D01*
X177927000Y-102266750D01*
X177927000Y-102681569D01*
X177914560Y-102743000D01*
X177914560Y-103652000D01*
X177685440Y-103652000D01*
X177685440Y-102743000D01*
X177673000Y-102676887D01*
X177673000Y-102266750D01*
X177514250Y-102108000D01*
X177290000Y-102108000D01*
X177290000Y-101391200D01*
X177232148Y-101100361D01*
X177067401Y-100853799D01*
X176713522Y-100499920D01*
X176713562Y-100454433D01*
X176571517Y-100110657D01*
X176308727Y-99847408D01*
X175965199Y-99704762D01*
X175593233Y-99704438D01*
X175249457Y-99846483D01*
X174986208Y-100109273D01*
X174843562Y-100452801D01*
X174843238Y-100824767D01*
X174985283Y-101168543D01*
X175248073Y-101431792D01*
X175591601Y-101574438D01*
X175638477Y-101574479D01*
X175770000Y-101706002D01*
X175770000Y-102095965D01*
X175768000Y-102095560D01*
X174752000Y-102095560D01*
X174620338Y-102120334D01*
X174498000Y-102095560D01*
X173482000Y-102095560D01*
X173350338Y-102120334D01*
X173228000Y-102095560D01*
X172212000Y-102095560D01*
X172080338Y-102120334D01*
X172051340Y-102114462D01*
X176563280Y-97602522D01*
X176608767Y-97602562D01*
X176952543Y-97460517D01*
X177215792Y-97197727D01*
X177358438Y-96854199D01*
X177358762Y-96482233D01*
X177216717Y-96138457D01*
X176953927Y-95875208D01*
X176760202Y-95794766D01*
X176641117Y-95506557D01*
X176572509Y-95437829D01*
X176596938Y-95378999D01*
X176597008Y-95299141D01*
X176807001Y-95386338D01*
G36*
X185567000Y-97282000D02*
X185547000Y-97282000D01*
X185547000Y-98298000D01*
X185567000Y-98298000D01*
X185567000Y-98552000D01*
X185547000Y-98552000D01*
X185547000Y-99409250D01*
X185705750Y-99568000D01*
X186308310Y-99568000D01*
X186541699Y-99471327D01*
X186656000Y-99357025D01*
X186656000Y-99510098D01*
X184871220Y-101294878D01*
X184825733Y-101294838D01*
X184481957Y-101436883D01*
X184218708Y-101699673D01*
X184076062Y-102043201D01*
X184076006Y-102108000D01*
X184022998Y-102108000D01*
X184022998Y-102266748D01*
X183864250Y-102108000D01*
X183515690Y-102108000D01*
X183493933Y-102117012D01*
X183388000Y-102095560D01*
X182372000Y-102095560D01*
X182240338Y-102120334D01*
X182118000Y-102095560D01*
X181102000Y-102095560D01*
X180970338Y-102120334D01*
X180848000Y-102095560D01*
X180193203Y-102095560D01*
X180225492Y-102063327D01*
X180247182Y-102011092D01*
X180492400Y-102060750D01*
X183489600Y-102060750D01*
X183724917Y-102016472D01*
X183941041Y-101877400D01*
X184086031Y-101665200D01*
X184137040Y-101413310D01*
X184137040Y-101295733D01*
X184352301Y-101151901D01*
X184517048Y-100905339D01*
X184574900Y-100614500D01*
X184574900Y-99568000D01*
X185134250Y-99568000D01*
X185293000Y-99409250D01*
X185293000Y-98552000D01*
X185273000Y-98552000D01*
X185273000Y-98298000D01*
X185293000Y-98298000D01*
X185293000Y-97282000D01*
X185273000Y-97282000D01*
X185273000Y-97040440D01*
X185567000Y-97040440D01*
X185567000Y-97282000D01*
X185567000Y-97282000D01*
G37*
X185567000Y-97282000D02*
X185547000Y-97282000D01*
X185547000Y-98298000D01*
X185567000Y-98298000D01*
X185567000Y-98552000D01*
X185547000Y-98552000D01*
X185547000Y-99409250D01*
X185705750Y-99568000D01*
X186308310Y-99568000D01*
X186541699Y-99471327D01*
X186656000Y-99357025D01*
X186656000Y-99510098D01*
X184871220Y-101294878D01*
X184825733Y-101294838D01*
X184481957Y-101436883D01*
X184218708Y-101699673D01*
X184076062Y-102043201D01*
X184076006Y-102108000D01*
X184022998Y-102108000D01*
X184022998Y-102266748D01*
X183864250Y-102108000D01*
X183515690Y-102108000D01*
X183493933Y-102117012D01*
X183388000Y-102095560D01*
X182372000Y-102095560D01*
X182240338Y-102120334D01*
X182118000Y-102095560D01*
X181102000Y-102095560D01*
X180970338Y-102120334D01*
X180848000Y-102095560D01*
X180193203Y-102095560D01*
X180225492Y-102063327D01*
X180247182Y-102011092D01*
X180492400Y-102060750D01*
X183489600Y-102060750D01*
X183724917Y-102016472D01*
X183941041Y-101877400D01*
X184086031Y-101665200D01*
X184137040Y-101413310D01*
X184137040Y-101295733D01*
X184352301Y-101151901D01*
X184517048Y-100905339D01*
X184574900Y-100614500D01*
X184574900Y-99568000D01*
X185134250Y-99568000D01*
X185293000Y-99409250D01*
X185293000Y-98552000D01*
X185273000Y-98552000D01*
X185273000Y-98298000D01*
X185293000Y-98298000D01*
X185293000Y-97282000D01*
X185273000Y-97282000D01*
X185273000Y-97040440D01*
X185567000Y-97040440D01*
X185567000Y-97282000D01*
G36*
X148082000Y-100203000D02*
X148102000Y-100203000D01*
X148102000Y-100457000D01*
X148082000Y-100457000D01*
X148082000Y-100477000D01*
X147828000Y-100477000D01*
X147828000Y-100457000D01*
X147808000Y-100457000D01*
X147808000Y-100203000D01*
X147828000Y-100203000D01*
X147828000Y-100183000D01*
X148082000Y-100183000D01*
X148082000Y-100203000D01*
X148082000Y-100203000D01*
G37*
X148082000Y-100203000D02*
X148102000Y-100203000D01*
X148102000Y-100457000D01*
X148082000Y-100457000D01*
X148082000Y-100477000D01*
X147828000Y-100477000D01*
X147828000Y-100457000D01*
X147808000Y-100457000D01*
X147808000Y-100203000D01*
X147828000Y-100203000D01*
X147828000Y-100183000D01*
X148082000Y-100183000D01*
X148082000Y-100203000D01*
G36*
X154398000Y-92469698D02*
X149452440Y-97415258D01*
X149452440Y-96940000D01*
X149408162Y-96704683D01*
X149269090Y-96488559D01*
X149201871Y-96442631D01*
X149667701Y-95976801D01*
X149832448Y-95730240D01*
X149890300Y-95439400D01*
X149890300Y-95235898D01*
X150106146Y-95312312D01*
X150646444Y-95283949D01*
X151013878Y-95131753D01*
X151078793Y-94893398D01*
X150305000Y-94119605D01*
X150290858Y-94133748D01*
X150111253Y-93954143D01*
X150125395Y-93940000D01*
X150484605Y-93940000D01*
X151258398Y-94713793D01*
X151496753Y-94648878D01*
X151677312Y-94138854D01*
X151648949Y-93598556D01*
X151496753Y-93231122D01*
X151258398Y-93166207D01*
X150484605Y-93940000D01*
X150125395Y-93940000D01*
X150111253Y-93925858D01*
X150290858Y-93746253D01*
X150305000Y-93760395D01*
X151078793Y-92986602D01*
X151013878Y-92748247D01*
X150503854Y-92567688D01*
X149963556Y-92596051D01*
X149890300Y-92626395D01*
X149890300Y-92380602D01*
X153612580Y-88658322D01*
X153658067Y-88658362D01*
X154001843Y-88516317D01*
X154265092Y-88253527D01*
X154398000Y-87933451D01*
X154398000Y-92469698D01*
X154398000Y-92469698D01*
G37*
X154398000Y-92469698D02*
X149452440Y-97415258D01*
X149452440Y-96940000D01*
X149408162Y-96704683D01*
X149269090Y-96488559D01*
X149201871Y-96442631D01*
X149667701Y-95976801D01*
X149832448Y-95730240D01*
X149890300Y-95439400D01*
X149890300Y-95235898D01*
X150106146Y-95312312D01*
X150646444Y-95283949D01*
X151013878Y-95131753D01*
X151078793Y-94893398D01*
X150305000Y-94119605D01*
X150290858Y-94133748D01*
X150111253Y-93954143D01*
X150125395Y-93940000D01*
X150484605Y-93940000D01*
X151258398Y-94713793D01*
X151496753Y-94648878D01*
X151677312Y-94138854D01*
X151648949Y-93598556D01*
X151496753Y-93231122D01*
X151258398Y-93166207D01*
X150484605Y-93940000D01*
X150125395Y-93940000D01*
X150111253Y-93925858D01*
X150290858Y-93746253D01*
X150305000Y-93760395D01*
X151078793Y-92986602D01*
X151013878Y-92748247D01*
X150503854Y-92567688D01*
X149963556Y-92596051D01*
X149890300Y-92626395D01*
X149890300Y-92380602D01*
X153612580Y-88658322D01*
X153658067Y-88658362D01*
X154001843Y-88516317D01*
X154265092Y-88253527D01*
X154398000Y-87933451D01*
X154398000Y-92469698D01*
G36*
X160134560Y-86487000D02*
X160147000Y-86553113D01*
X160147000Y-86963250D01*
X160305750Y-87122000D01*
X160654310Y-87122000D01*
X160676067Y-87112988D01*
X160782000Y-87134440D01*
X161798000Y-87134440D01*
X161929662Y-87109666D01*
X162052000Y-87134440D01*
X163068000Y-87134440D01*
X163199662Y-87109666D01*
X163322000Y-87134440D01*
X164338000Y-87134440D01*
X164469662Y-87109666D01*
X164592000Y-87134440D01*
X165608000Y-87134440D01*
X165739662Y-87109666D01*
X165862000Y-87134440D01*
X166878000Y-87134440D01*
X167009662Y-87109666D01*
X167132000Y-87134440D01*
X168148000Y-87134440D01*
X168256455Y-87114033D01*
X168275690Y-87122000D01*
X168624250Y-87122000D01*
X168783000Y-86963250D01*
X168783000Y-86548431D01*
X168795440Y-86487000D01*
X168795440Y-85578000D01*
X169024560Y-85578000D01*
X169024560Y-86487000D01*
X169037000Y-86553113D01*
X169037000Y-86963250D01*
X169195750Y-87122000D01*
X169544310Y-87122000D01*
X169566067Y-87112988D01*
X169672000Y-87134440D01*
X170688000Y-87134440D01*
X170819662Y-87109666D01*
X170942000Y-87134440D01*
X171958000Y-87134440D01*
X172066455Y-87114033D01*
X172085690Y-87122000D01*
X172434250Y-87122000D01*
X172592998Y-86963252D01*
X172592998Y-87081662D01*
X172513962Y-87272001D01*
X172513638Y-87643967D01*
X172655683Y-87987743D01*
X172688800Y-88020918D01*
X172688800Y-88261298D01*
X170867220Y-90082878D01*
X170821733Y-90082838D01*
X170477957Y-90224883D01*
X170402906Y-90299804D01*
X169798187Y-89695085D01*
X169798362Y-89494033D01*
X169656317Y-89150257D01*
X169393527Y-88887008D01*
X169049999Y-88744362D01*
X168678033Y-88744038D01*
X168334257Y-88886083D01*
X168122600Y-89097371D01*
X168122600Y-88901270D01*
X167963850Y-88742520D01*
X166116000Y-88742520D01*
X166116000Y-88762520D01*
X165862000Y-88762520D01*
X165862000Y-88742520D01*
X164014150Y-88742520D01*
X163855400Y-88901270D01*
X163855400Y-89540660D01*
X163884449Y-89610791D01*
X163842960Y-89815670D01*
X163842960Y-89901571D01*
X163788761Y-89912352D01*
X163542199Y-90077099D01*
X162203399Y-91415899D01*
X162038652Y-91662461D01*
X161980800Y-91953300D01*
X161980800Y-97007245D01*
X161949400Y-96994207D01*
X161949400Y-92395100D01*
X161891548Y-92104261D01*
X161726801Y-91857699D01*
X159946600Y-90077498D01*
X159946600Y-87690380D01*
X163855400Y-87690380D01*
X163855400Y-88329770D01*
X164014150Y-88488520D01*
X165862000Y-88488520D01*
X165862000Y-87340440D01*
X166116000Y-87340440D01*
X166116000Y-88488520D01*
X167963850Y-88488520D01*
X168122600Y-88329770D01*
X168122600Y-87690380D01*
X168025927Y-87456991D01*
X167847298Y-87278363D01*
X167613909Y-87181690D01*
X166274750Y-87181690D01*
X166116000Y-87340440D01*
X165862000Y-87340440D01*
X165703250Y-87181690D01*
X164364091Y-87181690D01*
X164130702Y-87278363D01*
X163952073Y-87456991D01*
X163855400Y-87690380D01*
X159946600Y-87690380D01*
X159946600Y-85578000D01*
X160134560Y-85578000D01*
X160134560Y-86487000D01*
X160134560Y-86487000D01*
G37*
X160134560Y-86487000D02*
X160147000Y-86553113D01*
X160147000Y-86963250D01*
X160305750Y-87122000D01*
X160654310Y-87122000D01*
X160676067Y-87112988D01*
X160782000Y-87134440D01*
X161798000Y-87134440D01*
X161929662Y-87109666D01*
X162052000Y-87134440D01*
X163068000Y-87134440D01*
X163199662Y-87109666D01*
X163322000Y-87134440D01*
X164338000Y-87134440D01*
X164469662Y-87109666D01*
X164592000Y-87134440D01*
X165608000Y-87134440D01*
X165739662Y-87109666D01*
X165862000Y-87134440D01*
X166878000Y-87134440D01*
X167009662Y-87109666D01*
X167132000Y-87134440D01*
X168148000Y-87134440D01*
X168256455Y-87114033D01*
X168275690Y-87122000D01*
X168624250Y-87122000D01*
X168783000Y-86963250D01*
X168783000Y-86548431D01*
X168795440Y-86487000D01*
X168795440Y-85578000D01*
X169024560Y-85578000D01*
X169024560Y-86487000D01*
X169037000Y-86553113D01*
X169037000Y-86963250D01*
X169195750Y-87122000D01*
X169544310Y-87122000D01*
X169566067Y-87112988D01*
X169672000Y-87134440D01*
X170688000Y-87134440D01*
X170819662Y-87109666D01*
X170942000Y-87134440D01*
X171958000Y-87134440D01*
X172066455Y-87114033D01*
X172085690Y-87122000D01*
X172434250Y-87122000D01*
X172592998Y-86963252D01*
X172592998Y-87081662D01*
X172513962Y-87272001D01*
X172513638Y-87643967D01*
X172655683Y-87987743D01*
X172688800Y-88020918D01*
X172688800Y-88261298D01*
X170867220Y-90082878D01*
X170821733Y-90082838D01*
X170477957Y-90224883D01*
X170402906Y-90299804D01*
X169798187Y-89695085D01*
X169798362Y-89494033D01*
X169656317Y-89150257D01*
X169393527Y-88887008D01*
X169049999Y-88744362D01*
X168678033Y-88744038D01*
X168334257Y-88886083D01*
X168122600Y-89097371D01*
X168122600Y-88901270D01*
X167963850Y-88742520D01*
X166116000Y-88742520D01*
X166116000Y-88762520D01*
X165862000Y-88762520D01*
X165862000Y-88742520D01*
X164014150Y-88742520D01*
X163855400Y-88901270D01*
X163855400Y-89540660D01*
X163884449Y-89610791D01*
X163842960Y-89815670D01*
X163842960Y-89901571D01*
X163788761Y-89912352D01*
X163542199Y-90077099D01*
X162203399Y-91415899D01*
X162038652Y-91662461D01*
X161980800Y-91953300D01*
X161980800Y-97007245D01*
X161949400Y-96994207D01*
X161949400Y-92395100D01*
X161891548Y-92104261D01*
X161726801Y-91857699D01*
X159946600Y-90077498D01*
X159946600Y-87690380D01*
X163855400Y-87690380D01*
X163855400Y-88329770D01*
X164014150Y-88488520D01*
X165862000Y-88488520D01*
X165862000Y-87340440D01*
X166116000Y-87340440D01*
X166116000Y-88488520D01*
X167963850Y-88488520D01*
X168122600Y-88329770D01*
X168122600Y-87690380D01*
X168025927Y-87456991D01*
X167847298Y-87278363D01*
X167613909Y-87181690D01*
X166274750Y-87181690D01*
X166116000Y-87340440D01*
X165862000Y-87340440D01*
X165703250Y-87181690D01*
X164364091Y-87181690D01*
X164130702Y-87278363D01*
X163952073Y-87456991D01*
X163855400Y-87690380D01*
X159946600Y-87690380D01*
X159946600Y-85578000D01*
X160134560Y-85578000D01*
X160134560Y-86487000D01*
G36*
X159053969Y-78856629D02*
X158683285Y-78608946D01*
X158115000Y-78495907D01*
X157546715Y-78608946D01*
X157064946Y-78930853D01*
X156845000Y-79260026D01*
X156625054Y-78930853D01*
X156143285Y-78608946D01*
X155575000Y-78495907D01*
X155006715Y-78608946D01*
X154524946Y-78930853D01*
X154497150Y-78972452D01*
X154488162Y-78924683D01*
X154349090Y-78708559D01*
X154136890Y-78563569D01*
X153885000Y-78512560D01*
X152185000Y-78512560D01*
X151949683Y-78556838D01*
X151733559Y-78695910D01*
X151588569Y-78908110D01*
X151537560Y-79160000D01*
X151537560Y-80860000D01*
X151581838Y-81095317D01*
X151720910Y-81311441D01*
X151933110Y-81456431D01*
X152185000Y-81507440D01*
X153885000Y-81507440D01*
X154120317Y-81463162D01*
X154336441Y-81324090D01*
X154481431Y-81111890D01*
X154495086Y-81044459D01*
X154524946Y-81089147D01*
X155006715Y-81411054D01*
X155575000Y-81524093D01*
X156143285Y-81411054D01*
X156625054Y-81089147D01*
X156845000Y-80759974D01*
X157064946Y-81089147D01*
X157546715Y-81411054D01*
X157699544Y-81441454D01*
X154620599Y-84520399D01*
X154455852Y-84766961D01*
X154398000Y-85057800D01*
X154398000Y-87513681D01*
X154266017Y-87194257D01*
X154003227Y-86931008D01*
X153659699Y-86788362D01*
X153287733Y-86788038D01*
X152943957Y-86930083D01*
X152680708Y-87192873D01*
X152538062Y-87536401D01*
X152538021Y-87583277D01*
X151611984Y-88509314D01*
X151496753Y-88231122D01*
X151258398Y-88166207D01*
X150484605Y-88940000D01*
X150498748Y-88954143D01*
X150319143Y-89133748D01*
X150305000Y-89119605D01*
X149531207Y-89893398D01*
X149596122Y-90131753D01*
X149886681Y-90234617D01*
X148592899Y-91528399D01*
X148428152Y-91774961D01*
X148370300Y-92065800D01*
X148370300Y-93793810D01*
X148082000Y-93705000D01*
X147732000Y-93705000D01*
X147732000Y-94813000D01*
X147752000Y-94813000D01*
X147752000Y-95067000D01*
X147732000Y-95067000D01*
X147732000Y-95087000D01*
X147478000Y-95087000D01*
X147478000Y-95067000D01*
X147458000Y-95067000D01*
X147458000Y-94813000D01*
X147478000Y-94813000D01*
X147478000Y-93705000D01*
X147128000Y-93705000D01*
X146760000Y-93818362D01*
X146760000Y-89082715D01*
X147223948Y-89175000D01*
X147986052Y-89175000D01*
X148458666Y-89080991D01*
X148859329Y-88813277D01*
X148961044Y-88661050D01*
X148932688Y-88741146D01*
X148961051Y-89281444D01*
X149113247Y-89648878D01*
X149351602Y-89713793D01*
X150125395Y-88940000D01*
X149351602Y-88166207D01*
X149166002Y-88216754D01*
X149211782Y-87986602D01*
X149531207Y-87986602D01*
X150305000Y-88760395D01*
X151078793Y-87986602D01*
X151013878Y-87748247D01*
X150503854Y-87567688D01*
X149963556Y-87596051D01*
X149596122Y-87748247D01*
X149531207Y-87986602D01*
X149211782Y-87986602D01*
X149221052Y-87940000D01*
X149127043Y-87467386D01*
X148859329Y-87066723D01*
X148458666Y-86799009D01*
X147986052Y-86705000D01*
X147223948Y-86705000D01*
X146760000Y-86797285D01*
X146760000Y-84867609D01*
X147781538Y-84867609D01*
X147796714Y-84959376D01*
X148043067Y-85379125D01*
X148431299Y-85672647D01*
X148902304Y-85795256D01*
X149098000Y-85632547D01*
X149098000Y-84677000D01*
X149352000Y-84677000D01*
X149352000Y-85632547D01*
X149547696Y-85795256D01*
X150018701Y-85672647D01*
X150406933Y-85379125D01*
X150653286Y-84959376D01*
X150668462Y-84867609D01*
X150543731Y-84677000D01*
X149352000Y-84677000D01*
X149098000Y-84677000D01*
X147906269Y-84677000D01*
X147781538Y-84867609D01*
X146760000Y-84867609D01*
X146760000Y-81950000D01*
X147727560Y-81950000D01*
X147727560Y-83150000D01*
X147771838Y-83385317D01*
X147910910Y-83601441D01*
X148063309Y-83705571D01*
X148043067Y-83720875D01*
X147796714Y-84140624D01*
X147781538Y-84232391D01*
X147906269Y-84423000D01*
X149098000Y-84423000D01*
X149098000Y-84403000D01*
X149352000Y-84403000D01*
X149352000Y-84423000D01*
X150543731Y-84423000D01*
X150668462Y-84232391D01*
X150653286Y-84140624D01*
X150406933Y-83720875D01*
X150385580Y-83704731D01*
X150526441Y-83614090D01*
X150671431Y-83401890D01*
X150722440Y-83150000D01*
X150722440Y-81950000D01*
X150678162Y-81714683D01*
X150539090Y-81498559D01*
X150326890Y-81353569D01*
X150075000Y-81302560D01*
X148375000Y-81302560D01*
X148139683Y-81346838D01*
X147923559Y-81485910D01*
X147778569Y-81698110D01*
X147727560Y-81950000D01*
X146760000Y-81950000D01*
X146760000Y-80304092D01*
X148884091Y-78180000D01*
X159730598Y-78180000D01*
X159053969Y-78856629D01*
X159053969Y-78856629D01*
G37*
X159053969Y-78856629D02*
X158683285Y-78608946D01*
X158115000Y-78495907D01*
X157546715Y-78608946D01*
X157064946Y-78930853D01*
X156845000Y-79260026D01*
X156625054Y-78930853D01*
X156143285Y-78608946D01*
X155575000Y-78495907D01*
X155006715Y-78608946D01*
X154524946Y-78930853D01*
X154497150Y-78972452D01*
X154488162Y-78924683D01*
X154349090Y-78708559D01*
X154136890Y-78563569D01*
X153885000Y-78512560D01*
X152185000Y-78512560D01*
X151949683Y-78556838D01*
X151733559Y-78695910D01*
X151588569Y-78908110D01*
X151537560Y-79160000D01*
X151537560Y-80860000D01*
X151581838Y-81095317D01*
X151720910Y-81311441D01*
X151933110Y-81456431D01*
X152185000Y-81507440D01*
X153885000Y-81507440D01*
X154120317Y-81463162D01*
X154336441Y-81324090D01*
X154481431Y-81111890D01*
X154495086Y-81044459D01*
X154524946Y-81089147D01*
X155006715Y-81411054D01*
X155575000Y-81524093D01*
X156143285Y-81411054D01*
X156625054Y-81089147D01*
X156845000Y-80759974D01*
X157064946Y-81089147D01*
X157546715Y-81411054D01*
X157699544Y-81441454D01*
X154620599Y-84520399D01*
X154455852Y-84766961D01*
X154398000Y-85057800D01*
X154398000Y-87513681D01*
X154266017Y-87194257D01*
X154003227Y-86931008D01*
X153659699Y-86788362D01*
X153287733Y-86788038D01*
X152943957Y-86930083D01*
X152680708Y-87192873D01*
X152538062Y-87536401D01*
X152538021Y-87583277D01*
X151611984Y-88509314D01*
X151496753Y-88231122D01*
X151258398Y-88166207D01*
X150484605Y-88940000D01*
X150498748Y-88954143D01*
X150319143Y-89133748D01*
X150305000Y-89119605D01*
X149531207Y-89893398D01*
X149596122Y-90131753D01*
X149886681Y-90234617D01*
X148592899Y-91528399D01*
X148428152Y-91774961D01*
X148370300Y-92065800D01*
X148370300Y-93793810D01*
X148082000Y-93705000D01*
X147732000Y-93705000D01*
X147732000Y-94813000D01*
X147752000Y-94813000D01*
X147752000Y-95067000D01*
X147732000Y-95067000D01*
X147732000Y-95087000D01*
X147478000Y-95087000D01*
X147478000Y-95067000D01*
X147458000Y-95067000D01*
X147458000Y-94813000D01*
X147478000Y-94813000D01*
X147478000Y-93705000D01*
X147128000Y-93705000D01*
X146760000Y-93818362D01*
X146760000Y-89082715D01*
X147223948Y-89175000D01*
X147986052Y-89175000D01*
X148458666Y-89080991D01*
X148859329Y-88813277D01*
X148961044Y-88661050D01*
X148932688Y-88741146D01*
X148961051Y-89281444D01*
X149113247Y-89648878D01*
X149351602Y-89713793D01*
X150125395Y-88940000D01*
X149351602Y-88166207D01*
X149166002Y-88216754D01*
X149211782Y-87986602D01*
X149531207Y-87986602D01*
X150305000Y-88760395D01*
X151078793Y-87986602D01*
X151013878Y-87748247D01*
X150503854Y-87567688D01*
X149963556Y-87596051D01*
X149596122Y-87748247D01*
X149531207Y-87986602D01*
X149211782Y-87986602D01*
X149221052Y-87940000D01*
X149127043Y-87467386D01*
X148859329Y-87066723D01*
X148458666Y-86799009D01*
X147986052Y-86705000D01*
X147223948Y-86705000D01*
X146760000Y-86797285D01*
X146760000Y-84867609D01*
X147781538Y-84867609D01*
X147796714Y-84959376D01*
X148043067Y-85379125D01*
X148431299Y-85672647D01*
X148902304Y-85795256D01*
X149098000Y-85632547D01*
X149098000Y-84677000D01*
X149352000Y-84677000D01*
X149352000Y-85632547D01*
X149547696Y-85795256D01*
X150018701Y-85672647D01*
X150406933Y-85379125D01*
X150653286Y-84959376D01*
X150668462Y-84867609D01*
X150543731Y-84677000D01*
X149352000Y-84677000D01*
X149098000Y-84677000D01*
X147906269Y-84677000D01*
X147781538Y-84867609D01*
X146760000Y-84867609D01*
X146760000Y-81950000D01*
X147727560Y-81950000D01*
X147727560Y-83150000D01*
X147771838Y-83385317D01*
X147910910Y-83601441D01*
X148063309Y-83705571D01*
X148043067Y-83720875D01*
X147796714Y-84140624D01*
X147781538Y-84232391D01*
X147906269Y-84423000D01*
X149098000Y-84423000D01*
X149098000Y-84403000D01*
X149352000Y-84403000D01*
X149352000Y-84423000D01*
X150543731Y-84423000D01*
X150668462Y-84232391D01*
X150653286Y-84140624D01*
X150406933Y-83720875D01*
X150385580Y-83704731D01*
X150526441Y-83614090D01*
X150671431Y-83401890D01*
X150722440Y-83150000D01*
X150722440Y-81950000D01*
X150678162Y-81714683D01*
X150539090Y-81498559D01*
X150326890Y-81353569D01*
X150075000Y-81302560D01*
X148375000Y-81302560D01*
X148139683Y-81346838D01*
X147923559Y-81485910D01*
X147778569Y-81698110D01*
X147727560Y-81950000D01*
X146760000Y-81950000D01*
X146760000Y-80304092D01*
X148884091Y-78180000D01*
X159730598Y-78180000D01*
X159053969Y-78856629D01*
G36*
X179184283Y-91451043D02*
X179447073Y-91714292D01*
X179790601Y-91856938D01*
X179857400Y-91856996D01*
X179857400Y-92330270D01*
X180016150Y-92489020D01*
X181864000Y-92489020D01*
X181864000Y-92469020D01*
X182118000Y-92469020D01*
X182118000Y-92489020D01*
X182138000Y-92489020D01*
X182138000Y-92743020D01*
X182118000Y-92743020D01*
X182118000Y-92763020D01*
X181864000Y-92763020D01*
X181864000Y-92743020D01*
X180016150Y-92743020D01*
X179857400Y-92901770D01*
X179857400Y-93541160D01*
X179886449Y-93611291D01*
X179844960Y-93816170D01*
X179844960Y-95057858D01*
X178292000Y-93504898D01*
X178292000Y-93395106D01*
X178356692Y-93330527D01*
X178499338Y-92986999D01*
X178499662Y-92615033D01*
X178357617Y-92271257D01*
X178243181Y-92156621D01*
X178425880Y-91973922D01*
X178471367Y-91973962D01*
X178815143Y-91831917D01*
X179078392Y-91569127D01*
X179155924Y-91382409D01*
X179184283Y-91451043D01*
X179184283Y-91451043D01*
G37*
X179184283Y-91451043D02*
X179447073Y-91714292D01*
X179790601Y-91856938D01*
X179857400Y-91856996D01*
X179857400Y-92330270D01*
X180016150Y-92489020D01*
X181864000Y-92489020D01*
X181864000Y-92469020D01*
X182118000Y-92469020D01*
X182118000Y-92489020D01*
X182138000Y-92489020D01*
X182138000Y-92743020D01*
X182118000Y-92743020D01*
X182118000Y-92763020D01*
X181864000Y-92763020D01*
X181864000Y-92743020D01*
X180016150Y-92743020D01*
X179857400Y-92901770D01*
X179857400Y-93541160D01*
X179886449Y-93611291D01*
X179844960Y-93816170D01*
X179844960Y-95057858D01*
X178292000Y-93504898D01*
X178292000Y-93395106D01*
X178356692Y-93330527D01*
X178499338Y-92986999D01*
X178499662Y-92615033D01*
X178357617Y-92271257D01*
X178243181Y-92156621D01*
X178425880Y-91973922D01*
X178471367Y-91973962D01*
X178815143Y-91831917D01*
X179078392Y-91569127D01*
X179155924Y-91382409D01*
X179184283Y-91451043D01*
G36*
X185567000Y-94729560D02*
X185273000Y-94729560D01*
X185273000Y-94500440D01*
X185567000Y-94500440D01*
X185567000Y-94729560D01*
X185567000Y-94729560D01*
G37*
X185567000Y-94729560D02*
X185273000Y-94729560D01*
X185273000Y-94500440D01*
X185567000Y-94500440D01*
X185567000Y-94729560D01*
G36*
X192330000Y-80304091D02*
X192330000Y-90130000D01*
X190785750Y-90130000D01*
X190627000Y-90288750D01*
X190627000Y-91313000D01*
X190647000Y-91313000D01*
X190647000Y-91567000D01*
X190627000Y-91567000D01*
X190627000Y-92591250D01*
X190785750Y-92750000D01*
X192330000Y-92750000D01*
X192330000Y-92942560D01*
X188650000Y-92942560D01*
X188414683Y-92986838D01*
X188260533Y-93086031D01*
X187982101Y-92807599D01*
X187735539Y-92642852D01*
X187444700Y-92585000D01*
X186817000Y-92585000D01*
X186817000Y-92360750D01*
X186658250Y-92202000D01*
X186243431Y-92202000D01*
X186182000Y-92189560D01*
X185273000Y-92189560D01*
X185273000Y-91948000D01*
X185293000Y-91948000D01*
X185293000Y-90932000D01*
X185273000Y-90932000D01*
X185273000Y-90678000D01*
X185293000Y-90678000D01*
X185293000Y-90658000D01*
X185547000Y-90658000D01*
X185547000Y-90678000D01*
X185567000Y-90678000D01*
X185567000Y-90932000D01*
X185547000Y-90932000D01*
X185547000Y-91948000D01*
X186658250Y-91948000D01*
X186817000Y-91789250D01*
X186817000Y-91614099D01*
X186885673Y-91682892D01*
X187229201Y-91825538D01*
X187515000Y-91825787D01*
X187515000Y-92241310D01*
X187611673Y-92474699D01*
X187790302Y-92653327D01*
X188023691Y-92750000D01*
X190214250Y-92750000D01*
X190373000Y-92591250D01*
X190373000Y-91567000D01*
X190353000Y-91567000D01*
X190353000Y-91313000D01*
X190373000Y-91313000D01*
X190373000Y-90288750D01*
X190214250Y-90130000D01*
X188176000Y-90130000D01*
X188176000Y-86528400D01*
X188118148Y-86237561D01*
X187953401Y-85990999D01*
X182951001Y-80988599D01*
X187494699Y-80988599D01*
X187758281Y-81626515D01*
X188245918Y-82115004D01*
X188883373Y-82379699D01*
X189573599Y-82380301D01*
X190211515Y-82116719D01*
X190700004Y-81629082D01*
X190964699Y-80991627D01*
X190965301Y-80301401D01*
X190701719Y-79663485D01*
X190214082Y-79174996D01*
X189576627Y-78910301D01*
X188886401Y-78909699D01*
X188248485Y-79173281D01*
X187759996Y-79660918D01*
X187495301Y-80298373D01*
X187494699Y-80988599D01*
X182951001Y-80988599D01*
X182685201Y-80722799D01*
X182438639Y-80558052D01*
X182359888Y-80542387D01*
X182460000Y-80039093D01*
X182460000Y-79980907D01*
X182346961Y-79412622D01*
X182025054Y-78930853D01*
X181543285Y-78608946D01*
X180975000Y-78495907D01*
X180406715Y-78608946D01*
X179924946Y-78930853D01*
X179705000Y-79260026D01*
X179485054Y-78930853D01*
X179003285Y-78608946D01*
X178435000Y-78495907D01*
X177866715Y-78608946D01*
X177502685Y-78852183D01*
X176914801Y-78264299D01*
X176788638Y-78180000D01*
X190205908Y-78180000D01*
X192330000Y-80304091D01*
X192330000Y-80304091D01*
G37*
X192330000Y-80304091D02*
X192330000Y-90130000D01*
X190785750Y-90130000D01*
X190627000Y-90288750D01*
X190627000Y-91313000D01*
X190647000Y-91313000D01*
X190647000Y-91567000D01*
X190627000Y-91567000D01*
X190627000Y-92591250D01*
X190785750Y-92750000D01*
X192330000Y-92750000D01*
X192330000Y-92942560D01*
X188650000Y-92942560D01*
X188414683Y-92986838D01*
X188260533Y-93086031D01*
X187982101Y-92807599D01*
X187735539Y-92642852D01*
X187444700Y-92585000D01*
X186817000Y-92585000D01*
X186817000Y-92360750D01*
X186658250Y-92202000D01*
X186243431Y-92202000D01*
X186182000Y-92189560D01*
X185273000Y-92189560D01*
X185273000Y-91948000D01*
X185293000Y-91948000D01*
X185293000Y-90932000D01*
X185273000Y-90932000D01*
X185273000Y-90678000D01*
X185293000Y-90678000D01*
X185293000Y-90658000D01*
X185547000Y-90658000D01*
X185547000Y-90678000D01*
X185567000Y-90678000D01*
X185567000Y-90932000D01*
X185547000Y-90932000D01*
X185547000Y-91948000D01*
X186658250Y-91948000D01*
X186817000Y-91789250D01*
X186817000Y-91614099D01*
X186885673Y-91682892D01*
X187229201Y-91825538D01*
X187515000Y-91825787D01*
X187515000Y-92241310D01*
X187611673Y-92474699D01*
X187790302Y-92653327D01*
X188023691Y-92750000D01*
X190214250Y-92750000D01*
X190373000Y-92591250D01*
X190373000Y-91567000D01*
X190353000Y-91567000D01*
X190353000Y-91313000D01*
X190373000Y-91313000D01*
X190373000Y-90288750D01*
X190214250Y-90130000D01*
X188176000Y-90130000D01*
X188176000Y-86528400D01*
X188118148Y-86237561D01*
X187953401Y-85990999D01*
X182951001Y-80988599D01*
X187494699Y-80988599D01*
X187758281Y-81626515D01*
X188245918Y-82115004D01*
X188883373Y-82379699D01*
X189573599Y-82380301D01*
X190211515Y-82116719D01*
X190700004Y-81629082D01*
X190964699Y-80991627D01*
X190965301Y-80301401D01*
X190701719Y-79663485D01*
X190214082Y-79174996D01*
X189576627Y-78910301D01*
X188886401Y-78909699D01*
X188248485Y-79173281D01*
X187759996Y-79660918D01*
X187495301Y-80298373D01*
X187494699Y-80988599D01*
X182951001Y-80988599D01*
X182685201Y-80722799D01*
X182438639Y-80558052D01*
X182359888Y-80542387D01*
X182460000Y-80039093D01*
X182460000Y-79980907D01*
X182346961Y-79412622D01*
X182025054Y-78930853D01*
X181543285Y-78608946D01*
X180975000Y-78495907D01*
X180406715Y-78608946D01*
X179924946Y-78930853D01*
X179705000Y-79260026D01*
X179485054Y-78930853D01*
X179003285Y-78608946D01*
X178435000Y-78495907D01*
X177866715Y-78608946D01*
X177502685Y-78852183D01*
X176914801Y-78264299D01*
X176788638Y-78180000D01*
X190205908Y-78180000D01*
X192330000Y-80304091D01*
G36*
X179844960Y-87816690D02*
X179844960Y-89414350D01*
X179884103Y-89622376D01*
X179844960Y-89815670D01*
X179844960Y-89933267D01*
X179719914Y-90016820D01*
X179448457Y-90128983D01*
X179185208Y-90391773D01*
X179107676Y-90578491D01*
X179079317Y-90509857D01*
X178816527Y-90246608D01*
X178472999Y-90103962D01*
X178101033Y-90103638D01*
X177757257Y-90245683D01*
X177494008Y-90508473D01*
X177351362Y-90852001D01*
X177351321Y-90898877D01*
X176629900Y-91620298D01*
X176629900Y-90696802D01*
X179356980Y-87969722D01*
X179402467Y-87969762D01*
X179746243Y-87827717D01*
X179867173Y-87706998D01*
X179844960Y-87816690D01*
X179844960Y-87816690D01*
G37*
X179844960Y-87816690D02*
X179844960Y-89414350D01*
X179884103Y-89622376D01*
X179844960Y-89815670D01*
X179844960Y-89933267D01*
X179719914Y-90016820D01*
X179448457Y-90128983D01*
X179185208Y-90391773D01*
X179107676Y-90578491D01*
X179079317Y-90509857D01*
X178816527Y-90246608D01*
X178472999Y-90103962D01*
X178101033Y-90103638D01*
X177757257Y-90245683D01*
X177494008Y-90508473D01*
X177351362Y-90852001D01*
X177351321Y-90898877D01*
X176629900Y-91620298D01*
X176629900Y-90696802D01*
X179356980Y-87969722D01*
X179402467Y-87969762D01*
X179746243Y-87827717D01*
X179867173Y-87706998D01*
X179844960Y-87816690D01*
G36*
X184277000Y-85598000D02*
X184297000Y-85598000D01*
X184297000Y-85852000D01*
X184277000Y-85852000D01*
X184277000Y-86963250D01*
X184435750Y-87122000D01*
X184784310Y-87122000D01*
X185017699Y-87025327D01*
X185190400Y-86852625D01*
X185190400Y-89214237D01*
X185158208Y-89246373D01*
X185015562Y-89589901D01*
X185015499Y-89662000D01*
X184574900Y-89662000D01*
X184574900Y-88615500D01*
X184517048Y-88324661D01*
X184352301Y-88078099D01*
X184137040Y-87934267D01*
X184137040Y-87816690D01*
X184092762Y-87581373D01*
X183953690Y-87365249D01*
X183741490Y-87220259D01*
X183489600Y-87169250D01*
X180492400Y-87169250D01*
X180257083Y-87213528D01*
X180118332Y-87302812D01*
X180152138Y-87221399D01*
X180152214Y-87134440D01*
X180848000Y-87134440D01*
X180979662Y-87109666D01*
X181102000Y-87134440D01*
X182118000Y-87134440D01*
X182249662Y-87109666D01*
X182372000Y-87134440D01*
X183388000Y-87134440D01*
X183496455Y-87114033D01*
X183515690Y-87122000D01*
X183864250Y-87122000D01*
X184023000Y-86963250D01*
X184023000Y-86548431D01*
X184035440Y-86487000D01*
X184035440Y-85578000D01*
X184277000Y-85578000D01*
X184277000Y-85598000D01*
X184277000Y-85598000D01*
G37*
X184277000Y-85598000D02*
X184297000Y-85598000D01*
X184297000Y-85852000D01*
X184277000Y-85852000D01*
X184277000Y-86963250D01*
X184435750Y-87122000D01*
X184784310Y-87122000D01*
X185017699Y-87025327D01*
X185190400Y-86852625D01*
X185190400Y-89214237D01*
X185158208Y-89246373D01*
X185015562Y-89589901D01*
X185015499Y-89662000D01*
X184574900Y-89662000D01*
X184574900Y-88615500D01*
X184517048Y-88324661D01*
X184352301Y-88078099D01*
X184137040Y-87934267D01*
X184137040Y-87816690D01*
X184092762Y-87581373D01*
X183953690Y-87365249D01*
X183741490Y-87220259D01*
X183489600Y-87169250D01*
X180492400Y-87169250D01*
X180257083Y-87213528D01*
X180118332Y-87302812D01*
X180152138Y-87221399D01*
X180152214Y-87134440D01*
X180848000Y-87134440D01*
X180979662Y-87109666D01*
X181102000Y-87134440D01*
X182118000Y-87134440D01*
X182249662Y-87109666D01*
X182372000Y-87134440D01*
X183388000Y-87134440D01*
X183496455Y-87114033D01*
X183515690Y-87122000D01*
X183864250Y-87122000D01*
X184023000Y-86963250D01*
X184023000Y-86548431D01*
X184035440Y-86487000D01*
X184035440Y-85578000D01*
X184277000Y-85578000D01*
X184277000Y-85598000D01*
G36*
X172834560Y-85872000D02*
X172605440Y-85872000D01*
X172605440Y-85578000D01*
X172834560Y-85578000D01*
X172834560Y-85872000D01*
X172834560Y-85872000D01*
G37*
X172834560Y-85872000D02*
X172605440Y-85872000D01*
X172605440Y-85578000D01*
X172834560Y-85578000D01*
X172834560Y-85872000D01*
M02*
