G04 #@! TF.FileFunction,Copper,L2,Bot,Signal*
%FSLAX46Y46*%
G04 Gerber Fmt 4.6, Leading zero omitted, Abs format (unit mm)*
G04 Created by KiCad (PCBNEW 4.0.7-e2-6376~58~ubuntu17.04.1) date Sat Oct 28 17:51:25 2017*
%MOMM*%
%LPD*%
G01*
G04 APERTURE LIST*
%ADD10C,0.100000*%
%ADD11R,1.700000X1.200000*%
%ADD12O,1.700000X1.200000*%
%ADD13C,1.450000*%
%ADD14O,1.900000X1.200000*%
%ADD15R,1.700000X1.700000*%
%ADD16O,1.700000X1.700000*%
%ADD17R,1.016000X1.524000*%
%ADD18R,1.524000X1.016000*%
%ADD19R,4.700000X1.350000*%
%ADD20R,4.200000X1.270000*%
%ADD21C,0.600000*%
%ADD22C,0.250000*%
%ADD23C,0.254000*%
G04 APERTURE END LIST*
D10*
D11*
X149225000Y-82550000D03*
D12*
X149225000Y-84550000D03*
D13*
X150305000Y-88940000D03*
X150305000Y-93940000D03*
D14*
X147605000Y-87940000D03*
X147605000Y-94940000D03*
D15*
X147955000Y-97790000D03*
D16*
X147955000Y-100330000D03*
X147955000Y-102870000D03*
X147955000Y-105410000D03*
X147955000Y-107950000D03*
D17*
X159385000Y-103505000D03*
X160655000Y-103505000D03*
X161925000Y-103505000D03*
X163195000Y-103505000D03*
X164465000Y-103505000D03*
X165735000Y-103505000D03*
X167005000Y-103505000D03*
X168275000Y-103505000D03*
X169545000Y-103505000D03*
X170815000Y-103505000D03*
X172085000Y-103505000D03*
X173355000Y-103505000D03*
X174625000Y-103505000D03*
X175895000Y-103505000D03*
X177165000Y-103505000D03*
X178435000Y-103505000D03*
X179705000Y-103505000D03*
X180975000Y-103505000D03*
X182245000Y-103505000D03*
X183515000Y-103505000D03*
X183515000Y-85725000D03*
D18*
X184785000Y-98425000D03*
X184785000Y-97155000D03*
X184785000Y-95885000D03*
X184785000Y-94615000D03*
X184785000Y-93345000D03*
X184785000Y-92075000D03*
X184785000Y-90805000D03*
D17*
X182245000Y-85725000D03*
X180975000Y-85725000D03*
X179705000Y-85725000D03*
X178435000Y-85725000D03*
X177165000Y-85725000D03*
X175895000Y-85725000D03*
X174625000Y-85725000D03*
X173355000Y-85725000D03*
X172085000Y-85725000D03*
X170815000Y-85725000D03*
X169545000Y-85725000D03*
X168275000Y-85725000D03*
X167005000Y-85725000D03*
X165735000Y-85725000D03*
X164465000Y-85725000D03*
X163195000Y-85725000D03*
X161925000Y-85725000D03*
X160655000Y-85725000D03*
X159385000Y-85725000D03*
D15*
X153035000Y-80010000D03*
D16*
X155575000Y-80010000D03*
X158115000Y-80010000D03*
X160655000Y-80010000D03*
X163195000Y-80010000D03*
X165735000Y-80010000D03*
X168275000Y-80010000D03*
X170815000Y-80010000D03*
X173355000Y-80010000D03*
X175895000Y-80010000D03*
X178435000Y-80010000D03*
X180975000Y-80010000D03*
D15*
X180975000Y-109220000D03*
D16*
X178435000Y-109220000D03*
X175895000Y-109220000D03*
X173355000Y-109220000D03*
X170815000Y-109220000D03*
X168275000Y-109220000D03*
X165735000Y-109220000D03*
X163195000Y-109220000D03*
X160655000Y-109220000D03*
X158115000Y-109220000D03*
X155575000Y-109220000D03*
X153035000Y-109220000D03*
D19*
X190500000Y-91440000D03*
D20*
X190750000Y-94225000D03*
D19*
X190500000Y-97010000D03*
D21*
X183206600Y-84280400D03*
X169121400Y-104893800D03*
X173051600Y-87778900D03*
X164145700Y-90741300D03*
X177343400Y-102239300D03*
X186333200Y-104315300D03*
X167339700Y-93955600D03*
X161499800Y-88028000D03*
X163642600Y-87018200D03*
X178635400Y-99995900D03*
X176638700Y-96147000D03*
X152930700Y-87595500D03*
X174013600Y-93921400D03*
X157715000Y-96248600D03*
X151491000Y-90455200D03*
X159693400Y-95938100D03*
X172174000Y-90404300D03*
X171295000Y-90439600D03*
X164478300Y-94129300D03*
X183879000Y-87861100D03*
X171879600Y-91969200D03*
X158521300Y-95257600D03*
X173985800Y-105980600D03*
X167100500Y-105227100D03*
X176673800Y-93598200D03*
X155138000Y-99211900D03*
X167348400Y-95868300D03*
X176137100Y-106296500D03*
X169705500Y-96923400D03*
X171055300Y-95535000D03*
X176355300Y-92448900D03*
X167634200Y-100290300D03*
X175260400Y-92505400D03*
X175293500Y-91443400D03*
X168395300Y-96145000D03*
D22*
X183515000Y-85725000D02*
X183515000Y-84637700D01*
X184785000Y-92075000D02*
X183697700Y-92075000D01*
X184785000Y-94615000D02*
X183810300Y-94615000D01*
X168275000Y-85725000D02*
X168275000Y-86812300D01*
X184785000Y-90805000D02*
X184921000Y-90805000D01*
X183242100Y-87085200D02*
X183515000Y-86812300D01*
X183242100Y-89126100D02*
X183242100Y-87085200D01*
X184921000Y-90805000D02*
X183242100Y-89126100D01*
X183515000Y-85725000D02*
X183515000Y-86812300D01*
X184785000Y-92075000D02*
X185872300Y-92075000D01*
X190500000Y-91440000D02*
X185872300Y-91440000D01*
X185872300Y-91400100D02*
X185872300Y-91440000D01*
X185277200Y-90805000D02*
X185872300Y-91400100D01*
X184921000Y-90805000D02*
X185277200Y-90805000D01*
X185872300Y-91440000D02*
X185872300Y-92075000D01*
X147146900Y-99154700D02*
X147955000Y-99154700D01*
X146779700Y-98787500D02*
X147146900Y-99154700D01*
X146779700Y-95765300D02*
X146779700Y-98787500D01*
X147605000Y-94940000D02*
X146779700Y-95765300D01*
X147955000Y-100330000D02*
X147955000Y-99154700D01*
X172085000Y-85725000D02*
X172085000Y-86812300D01*
X183206600Y-84280400D02*
X183206600Y-84393700D01*
X183450600Y-84637700D02*
X183515000Y-84637700D01*
X183206600Y-84393700D02*
X183450600Y-84637700D01*
X182962600Y-84637700D02*
X172085000Y-84637700D01*
X183206600Y-84393700D02*
X182962600Y-84637700D01*
X172085000Y-85725000D02*
X172085000Y-84637700D01*
X183697700Y-94563400D02*
X183697700Y-92075000D01*
X183749300Y-94615000D02*
X183697700Y-94563400D01*
X183810300Y-94615000D02*
X183749300Y-94615000D01*
X183697700Y-94666600D02*
X183697700Y-97155000D01*
X183749300Y-94615000D02*
X183697700Y-94666600D01*
X184785000Y-97155000D02*
X183905200Y-97155000D01*
X183905200Y-97155000D02*
X183697700Y-97155000D01*
X183849700Y-97210500D02*
X183849700Y-98425000D01*
X183905200Y-97155000D02*
X183849700Y-97210500D01*
X184785000Y-98425000D02*
X183849700Y-98425000D01*
X183849700Y-98425000D02*
X183697700Y-98425000D01*
X159385000Y-85725000D02*
X159385000Y-86812300D01*
X172085000Y-86812300D02*
X173051600Y-87778900D01*
X163314000Y-90741300D02*
X164145700Y-90741300D01*
X159385000Y-86812300D02*
X163314000Y-90741300D01*
X177343400Y-102239300D02*
X177165000Y-102417700D01*
X183301800Y-102239300D02*
X177343400Y-102239300D01*
X183301800Y-98820900D02*
X183301800Y-102239300D01*
X183697700Y-98425000D02*
X183301800Y-98820900D01*
X183480200Y-102417700D02*
X183515000Y-102417700D01*
X183301800Y-102239300D02*
X183480200Y-102417700D01*
X167005000Y-103505000D02*
X167005000Y-104592300D01*
X159385000Y-103505000D02*
X159385000Y-104592300D01*
X167005000Y-104592300D02*
X159385000Y-104592300D01*
X177165000Y-103073900D02*
X177165000Y-102417700D01*
X168275000Y-86812300D02*
X170641500Y-86812300D01*
X170641500Y-86812300D02*
X172085000Y-86812300D01*
X175895000Y-109220000D02*
X175895000Y-108044700D01*
X183515000Y-103505000D02*
X183515000Y-102961300D01*
X183515000Y-102961300D02*
X183515000Y-102417700D01*
X184979200Y-102961300D02*
X186333200Y-104315300D01*
X183515000Y-102961300D02*
X184979200Y-102961300D01*
X168819900Y-104592300D02*
X167005000Y-104592300D01*
X169121400Y-104893800D02*
X168819900Y-104592300D01*
X147605000Y-87095300D02*
X149225000Y-85475300D01*
X147605000Y-87940000D02*
X147605000Y-87095300D01*
X149225000Y-84550000D02*
X149225000Y-85475300D01*
X177165000Y-103073900D02*
X177165000Y-103505000D01*
X174611200Y-106760900D02*
X175895000Y-108044700D01*
X174611200Y-105674400D02*
X174611200Y-106760900D01*
X173830600Y-104893800D02*
X174611200Y-105674400D01*
X169121400Y-104893800D02*
X173830600Y-104893800D01*
X167339700Y-93935300D02*
X167339700Y-93955600D01*
X164145700Y-90741300D02*
X167339700Y-93935300D01*
X169025100Y-95641000D02*
X167339700Y-93955600D01*
X169025100Y-97127300D02*
X169025100Y-95641000D01*
X169446500Y-97548700D02*
X169025100Y-97127300D01*
X169964700Y-97548700D02*
X169446500Y-97548700D01*
X171699600Y-95813800D02*
X169964700Y-97548700D01*
X171699600Y-95039300D02*
X171699600Y-95813800D01*
X170641500Y-93981200D02*
X171699600Y-95039300D01*
X170641500Y-86812300D02*
X170641500Y-93981200D01*
X162509600Y-87018200D02*
X161499800Y-88028000D01*
X163642600Y-87018200D02*
X162509600Y-87018200D01*
X175895000Y-103505000D02*
X175895000Y-102417700D01*
X178207300Y-100105400D02*
X178207300Y-99995900D01*
X175895000Y-102417700D02*
X178207300Y-100105400D01*
X178207300Y-99995900D02*
X178635400Y-99995900D01*
X173355000Y-85725000D02*
X173355000Y-86812300D01*
X178207300Y-97217700D02*
X177136600Y-96147000D01*
X178207300Y-99995900D02*
X178207300Y-97217700D01*
X175506400Y-104980900D02*
X175895000Y-104592300D01*
X175506400Y-106581200D02*
X175506400Y-104980900D01*
X177259700Y-108334500D02*
X175506400Y-106581200D01*
X177259700Y-109220000D02*
X177259700Y-108334500D01*
X178435000Y-109220000D02*
X177259700Y-109220000D01*
X175895000Y-103505000D02*
X175895000Y-104592300D01*
X152930700Y-88117600D02*
X152930700Y-87595500D01*
X148981000Y-92067300D02*
X152930700Y-88117600D01*
X148981000Y-95588700D02*
X148981000Y-92067300D01*
X147955000Y-96614700D02*
X148981000Y-95588700D01*
X147955000Y-97790000D02*
X147955000Y-96614700D01*
X177299100Y-90756400D02*
X173355000Y-86812300D01*
X177299100Y-95984500D02*
X177299100Y-90756400D01*
X177136600Y-96147000D02*
X177299100Y-95984500D01*
X177136600Y-96147000D02*
X176638700Y-96147000D01*
X160655000Y-109220000D02*
X159479700Y-109220000D01*
X174013600Y-96684300D02*
X174013600Y-93921400D01*
X170860100Y-99837800D02*
X174013600Y-96684300D01*
X168225200Y-99837800D02*
X170860100Y-99837800D01*
X168038500Y-99651100D02*
X168225200Y-99837800D01*
X159550800Y-99651100D02*
X168038500Y-99651100D01*
X154360300Y-104841600D02*
X159550800Y-99651100D01*
X154360300Y-109676000D02*
X154360300Y-104841600D01*
X155114000Y-110429700D02*
X154360300Y-109676000D01*
X158637300Y-110429700D02*
X155114000Y-110429700D01*
X159479700Y-109587300D02*
X158637300Y-110429700D01*
X159479700Y-109220000D02*
X159479700Y-109587300D01*
X151921600Y-90455200D02*
X157715000Y-96248600D01*
X151491000Y-90455200D02*
X151921600Y-90455200D01*
X180975000Y-109220000D02*
X179799700Y-109220000D01*
X151830300Y-103801200D02*
X159693400Y-95938100D01*
X151830300Y-109678100D02*
X151830300Y-103801200D01*
X153032300Y-110880100D02*
X151830300Y-109678100D01*
X178506900Y-110880100D02*
X153032300Y-110880100D01*
X179799700Y-109587300D02*
X178506900Y-110880100D01*
X179799700Y-109220000D02*
X179799700Y-109587300D01*
X149731000Y-83475300D02*
X149225000Y-83475300D01*
X159693400Y-93437700D02*
X149731000Y-83475300D01*
X159693400Y-95938100D02*
X159693400Y-93437700D01*
X149225000Y-82550000D02*
X149225000Y-83475300D01*
X153035000Y-84946600D02*
X153035000Y-80010000D01*
X166575200Y-98486800D02*
X153035000Y-84946600D01*
X168473900Y-98486800D02*
X166575200Y-98486800D01*
X168886700Y-98899600D02*
X168473900Y-98486800D01*
X170524500Y-98899600D02*
X168886700Y-98899600D01*
X173050500Y-96373600D02*
X170524500Y-98899600D01*
X173050500Y-94479500D02*
X173050500Y-96373600D01*
X172938000Y-94367000D02*
X173050500Y-94479500D01*
X172938000Y-93475800D02*
X172938000Y-94367000D01*
X172994200Y-93419600D02*
X172938000Y-93475800D01*
X172994200Y-91224500D02*
X172994200Y-93419600D01*
X172174000Y-90404300D02*
X172994200Y-91224500D01*
X155575000Y-80010000D02*
X155575000Y-81185300D01*
X155575000Y-86762400D02*
X155575000Y-81185300D01*
X166849100Y-98036500D02*
X155575000Y-86762400D01*
X168660500Y-98036500D02*
X166849100Y-98036500D01*
X169073300Y-98449300D02*
X168660500Y-98036500D01*
X170337900Y-98449300D02*
X169073300Y-98449300D01*
X172600200Y-96187000D02*
X170337900Y-98449300D01*
X172600200Y-94666100D02*
X172600200Y-96187000D01*
X172487700Y-94553600D02*
X172600200Y-94666100D01*
X172487700Y-93289200D02*
X172487700Y-94553600D01*
X172543900Y-93233000D02*
X172487700Y-93289200D01*
X172543900Y-91688500D02*
X172543900Y-93233000D01*
X171295000Y-90439600D02*
X172543900Y-91688500D01*
X163195000Y-80010000D02*
X162019700Y-80010000D01*
X157603600Y-87254600D02*
X164478300Y-94129300D01*
X157603600Y-84402700D02*
X157603600Y-87254600D01*
X160821000Y-81185300D02*
X157603600Y-84402700D01*
X161211800Y-81185300D02*
X160821000Y-81185300D01*
X162019700Y-80377400D02*
X161211800Y-81185300D01*
X162019700Y-80010000D02*
X162019700Y-80377400D01*
X184348400Y-87391700D02*
X183879000Y-87861100D01*
X184348400Y-81670900D02*
X184348400Y-87391700D01*
X181494300Y-78816800D02*
X184348400Y-81670900D01*
X170249500Y-78816800D02*
X181494300Y-78816800D01*
X169545000Y-79521300D02*
X170249500Y-78816800D01*
X169545000Y-80404300D02*
X169545000Y-79521300D01*
X168764000Y-81185300D02*
X169545000Y-80404300D01*
X167718200Y-81185300D02*
X168764000Y-81185300D01*
X166910300Y-80377400D02*
X167718200Y-81185300D01*
X166910300Y-80010000D02*
X166910300Y-80377400D01*
X165735000Y-80010000D02*
X166910300Y-80010000D01*
X167092900Y-78827900D02*
X168275000Y-80010000D01*
X160168400Y-78827900D02*
X167092900Y-78827900D01*
X159385000Y-79611300D02*
X160168400Y-78827900D01*
X159385000Y-81209700D02*
X159385000Y-79611300D01*
X157137500Y-83457200D02*
X159385000Y-81209700D01*
X157137500Y-87687900D02*
X157137500Y-83457200D01*
X165951000Y-96501400D02*
X157137500Y-87687900D01*
X167762300Y-96501400D02*
X165951000Y-96501400D01*
X169259900Y-97999000D02*
X167762300Y-96501400D01*
X170151300Y-97999000D02*
X169259900Y-97999000D01*
X172149900Y-96000400D02*
X170151300Y-97999000D01*
X172149900Y-94852700D02*
X172149900Y-96000400D01*
X171879600Y-94582400D02*
X172149900Y-94852700D01*
X171879600Y-91969200D02*
X171879600Y-94582400D01*
X147955000Y-102870000D02*
X149130300Y-102870000D01*
X158521300Y-96355100D02*
X158521300Y-95257600D01*
X156289900Y-98586500D02*
X158521300Y-96355100D01*
X153413800Y-98586500D02*
X156289900Y-98586500D01*
X149130300Y-102870000D02*
X153413800Y-98586500D01*
X173355000Y-109220000D02*
X173355000Y-108044700D01*
X173985800Y-107413900D02*
X173355000Y-108044700D01*
X173985800Y-105980600D02*
X173985800Y-107413900D01*
X165735000Y-106592600D02*
X167100500Y-105227100D01*
X165735000Y-109220000D02*
X165735000Y-106592600D01*
X163195000Y-109220000D02*
X163195000Y-108044700D01*
X176013300Y-94258700D02*
X176673800Y-93598200D01*
X176013300Y-96625400D02*
X176013300Y-94258700D01*
X170310200Y-102328500D02*
X176013300Y-96625400D01*
X158784100Y-102328500D02*
X170310200Y-102328500D01*
X158506200Y-102606400D02*
X158784100Y-102328500D01*
X158506200Y-104384300D02*
X158506200Y-102606400D01*
X162166600Y-108044700D02*
X158506200Y-104384300D01*
X163195000Y-108044700D02*
X162166600Y-108044700D01*
X147955000Y-105410000D02*
X149130300Y-105410000D01*
X149130300Y-105219600D02*
X155138000Y-99211900D01*
X149130300Y-105410000D02*
X149130300Y-105219600D01*
X173355000Y-80010000D02*
X172179700Y-80010000D01*
X167101800Y-95868300D02*
X167348400Y-95868300D01*
X158080100Y-86846600D02*
X167101800Y-95868300D01*
X158080100Y-84633900D02*
X158080100Y-86846600D01*
X160545600Y-82168400D02*
X158080100Y-84633900D01*
X170388600Y-82168400D02*
X160545600Y-82168400D01*
X172179700Y-80377300D02*
X170388600Y-82168400D01*
X172179700Y-80010000D02*
X172179700Y-80377300D01*
X177841300Y-104592300D02*
X176137100Y-106296500D01*
X178435000Y-104592300D02*
X177841300Y-104592300D01*
X178435000Y-103505000D02*
X178435000Y-104592300D01*
X165735000Y-85725000D02*
X165735000Y-86812300D01*
X178435000Y-80010000D02*
X177259700Y-80010000D01*
X165735000Y-85725000D02*
X165735000Y-84637700D01*
X166962300Y-83410400D02*
X165735000Y-84637700D01*
X174226700Y-83410400D02*
X166962300Y-83410400D01*
X177259700Y-80377400D02*
X174226700Y-83410400D01*
X177259700Y-80010000D02*
X177259700Y-80377400D01*
X169705500Y-94845000D02*
X169705500Y-96923400D01*
X165735000Y-90874500D02*
X169705500Y-94845000D01*
X165735000Y-86812300D02*
X165735000Y-90874500D01*
X167005000Y-91484700D02*
X171055300Y-95535000D01*
X167005000Y-85725000D02*
X167005000Y-91484700D01*
X167781900Y-83860800D02*
X167005000Y-84637700D01*
X176316200Y-83860800D02*
X167781900Y-83860800D01*
X179799700Y-80377300D02*
X176316200Y-83860800D01*
X179799700Y-80010000D02*
X179799700Y-80377300D01*
X180975000Y-80010000D02*
X179799700Y-80010000D01*
X167005000Y-85725000D02*
X167005000Y-84637700D01*
X175089300Y-93714900D02*
X176355300Y-92448900D01*
X175089300Y-96882400D02*
X175089300Y-93714900D01*
X170503000Y-101468700D02*
X175089300Y-96882400D01*
X159007000Y-101468700D02*
X170503000Y-101468700D01*
X158037800Y-102437900D02*
X159007000Y-101468700D01*
X158037800Y-107967500D02*
X158037800Y-102437900D01*
X158115000Y-108044700D02*
X158037800Y-107967500D01*
X158115000Y-109220000D02*
X158115000Y-108044700D01*
X155575000Y-109220000D02*
X155575000Y-108044700D01*
X174638900Y-93126900D02*
X175260400Y-92505400D01*
X174638900Y-96695900D02*
X174638900Y-93126900D01*
X171044500Y-100290300D02*
X174638900Y-96695900D01*
X167634200Y-100290300D02*
X171044500Y-100290300D01*
X155575000Y-104263800D02*
X155575000Y-108044700D01*
X159548500Y-100290300D02*
X155575000Y-104263800D01*
X167634200Y-100290300D02*
X159548500Y-100290300D01*
X173500800Y-93236100D02*
X175293500Y-91443400D01*
X173500800Y-93549900D02*
X173500800Y-93236100D01*
X173388300Y-93662400D02*
X173500800Y-93549900D01*
X173388300Y-94180400D02*
X173388300Y-93662400D01*
X173500800Y-94292900D02*
X173388300Y-94180400D01*
X173500800Y-96560200D02*
X173500800Y-94292900D01*
X170673600Y-99387400D02*
X173500800Y-96560200D01*
X168737600Y-99387400D02*
X170673600Y-99387400D01*
X168550900Y-99200700D02*
X168737600Y-99387400D01*
X159364300Y-99200700D02*
X168550900Y-99200700D01*
X153035000Y-105530000D02*
X159364300Y-99200700D01*
X153035000Y-109220000D02*
X153035000Y-105530000D01*
X175895000Y-80010000D02*
X174719700Y-80010000D01*
X174719700Y-80377300D02*
X174719700Y-80010000D01*
X172264000Y-82833000D02*
X174719700Y-80377300D01*
X160534400Y-82833000D02*
X172264000Y-82833000D01*
X158550500Y-84816900D02*
X160534400Y-82833000D01*
X158550500Y-86661200D02*
X158550500Y-84816900D01*
X164360200Y-92470900D02*
X158550500Y-86661200D01*
X164839200Y-92470900D02*
X164360200Y-92470900D01*
X168395300Y-96027000D02*
X164839200Y-92470900D01*
X168395300Y-96145000D02*
X168395300Y-96027000D01*
X187444700Y-93345000D02*
X184785000Y-93345000D01*
X188324700Y-94225000D02*
X187444700Y-93345000D01*
X190750000Y-94225000D02*
X188324700Y-94225000D01*
D23*
G36*
X192330000Y-80304091D02*
X192330000Y-90130000D01*
X190785750Y-90130000D01*
X190627000Y-90288750D01*
X190627000Y-91313000D01*
X190647000Y-91313000D01*
X190647000Y-91567000D01*
X190627000Y-91567000D01*
X190627000Y-92591250D01*
X190785750Y-92750000D01*
X192330000Y-92750000D01*
X192330000Y-92942560D01*
X188650000Y-92942560D01*
X188414683Y-92986838D01*
X188260533Y-93086031D01*
X187982101Y-92807599D01*
X187735539Y-92642852D01*
X187444700Y-92585000D01*
X186182000Y-92585000D01*
X186182000Y-92360750D01*
X186023250Y-92202000D01*
X185608431Y-92202000D01*
X185547000Y-92189560D01*
X184023000Y-92189560D01*
X183956887Y-92202000D01*
X183546750Y-92202000D01*
X183388000Y-92360750D01*
X183388000Y-92709309D01*
X183397012Y-92731066D01*
X183375560Y-92837000D01*
X183375560Y-93853000D01*
X183395967Y-93961456D01*
X183388000Y-93980691D01*
X183388000Y-94329250D01*
X183546750Y-94488000D01*
X183961569Y-94488000D01*
X184023000Y-94500440D01*
X185547000Y-94500440D01*
X185613113Y-94488000D01*
X186023250Y-94488000D01*
X186182000Y-94329250D01*
X186182000Y-94105000D01*
X187129898Y-94105000D01*
X187787299Y-94762401D01*
X188012510Y-94912882D01*
X188046838Y-95095317D01*
X188185910Y-95311441D01*
X188398110Y-95456431D01*
X188650000Y-95507440D01*
X192330000Y-95507440D01*
X192330000Y-95700000D01*
X190785750Y-95700000D01*
X190627000Y-95858750D01*
X190627000Y-96883000D01*
X190647000Y-96883000D01*
X190647000Y-97137000D01*
X190627000Y-97137000D01*
X190627000Y-98161250D01*
X190785750Y-98320000D01*
X192330000Y-98320000D01*
X192330000Y-108925909D01*
X190205908Y-111050000D01*
X179411802Y-111050000D01*
X179826927Y-110634875D01*
X179873110Y-110666431D01*
X180125000Y-110717440D01*
X181825000Y-110717440D01*
X182060317Y-110673162D01*
X182276441Y-110534090D01*
X182421431Y-110321890D01*
X182472440Y-110070000D01*
X182472440Y-108370000D01*
X182428162Y-108134683D01*
X182289090Y-107918559D01*
X182076890Y-107773569D01*
X181825000Y-107722560D01*
X180125000Y-107722560D01*
X179889683Y-107766838D01*
X179673559Y-107905910D01*
X179528569Y-108118110D01*
X179514914Y-108185541D01*
X179485054Y-108140853D01*
X179003285Y-107818946D01*
X178435000Y-107705907D01*
X177866715Y-107818946D01*
X177828680Y-107844360D01*
X177797101Y-107797099D01*
X176878016Y-106878014D01*
X176929292Y-106826827D01*
X177071938Y-106483299D01*
X177071979Y-106436423D01*
X178156102Y-105352300D01*
X178435000Y-105352300D01*
X178725839Y-105294448D01*
X178972401Y-105129701D01*
X179125859Y-104900034D01*
X179197000Y-104914440D01*
X180213000Y-104914440D01*
X180344662Y-104889666D01*
X180467000Y-104914440D01*
X181483000Y-104914440D01*
X181614662Y-104889666D01*
X181737000Y-104914440D01*
X182753000Y-104914440D01*
X182861455Y-104894033D01*
X182880690Y-104902000D01*
X183229250Y-104902000D01*
X183388000Y-104743250D01*
X183388000Y-104328431D01*
X183400440Y-104267000D01*
X183400440Y-103632000D01*
X183642000Y-103632000D01*
X183642000Y-104743250D01*
X183800750Y-104902000D01*
X184149310Y-104902000D01*
X184382699Y-104805327D01*
X184561327Y-104626698D01*
X184658000Y-104393309D01*
X184658000Y-103790750D01*
X184499250Y-103632000D01*
X183642000Y-103632000D01*
X183400440Y-103632000D01*
X183400440Y-102743000D01*
X183388000Y-102676887D01*
X183388000Y-102266750D01*
X183642000Y-102266750D01*
X183642000Y-103378000D01*
X184499250Y-103378000D01*
X184658000Y-103219250D01*
X184658000Y-102616691D01*
X184561327Y-102383302D01*
X184382699Y-102204673D01*
X184149310Y-102108000D01*
X183800750Y-102108000D01*
X183642000Y-102266750D01*
X183388000Y-102266750D01*
X183229250Y-102108000D01*
X182880690Y-102108000D01*
X182858933Y-102117012D01*
X182753000Y-102095560D01*
X181737000Y-102095560D01*
X181605338Y-102120334D01*
X181483000Y-102095560D01*
X180467000Y-102095560D01*
X180335338Y-102120334D01*
X180213000Y-102095560D01*
X179197000Y-102095560D01*
X179065338Y-102120334D01*
X178943000Y-102095560D01*
X177927000Y-102095560D01*
X177818545Y-102115967D01*
X177799310Y-102108000D01*
X177450750Y-102108000D01*
X177292002Y-102266748D01*
X177292002Y-102108000D01*
X177279502Y-102108000D01*
X178456757Y-100930745D01*
X178820567Y-100931062D01*
X179164343Y-100789017D01*
X179427592Y-100526227D01*
X179570238Y-100182699D01*
X179570562Y-99810733D01*
X179428517Y-99466957D01*
X179165727Y-99203708D01*
X178967300Y-99121313D01*
X178967300Y-98710750D01*
X183388000Y-98710750D01*
X183388000Y-99059309D01*
X183484673Y-99292698D01*
X183663301Y-99471327D01*
X183896690Y-99568000D01*
X184499250Y-99568000D01*
X184658000Y-99409250D01*
X184658000Y-98552000D01*
X184912000Y-98552000D01*
X184912000Y-99409250D01*
X185070750Y-99568000D01*
X185673310Y-99568000D01*
X185906699Y-99471327D01*
X186085327Y-99292698D01*
X186182000Y-99059309D01*
X186182000Y-98710750D01*
X186023250Y-98552000D01*
X184912000Y-98552000D01*
X184658000Y-98552000D01*
X183546750Y-98552000D01*
X183388000Y-98710750D01*
X178967300Y-98710750D01*
X178967300Y-97440750D01*
X183388000Y-97440750D01*
X183388000Y-97789309D01*
X183388286Y-97790000D01*
X183388000Y-97790691D01*
X183388000Y-98139250D01*
X183546750Y-98298000D01*
X184658000Y-98298000D01*
X184658000Y-97282000D01*
X184912000Y-97282000D01*
X184912000Y-98298000D01*
X186023250Y-98298000D01*
X186182000Y-98139250D01*
X186182000Y-97790691D01*
X186181714Y-97790000D01*
X186182000Y-97789309D01*
X186182000Y-97440750D01*
X186037000Y-97295750D01*
X187515000Y-97295750D01*
X187515000Y-97811310D01*
X187611673Y-98044699D01*
X187790302Y-98223327D01*
X188023691Y-98320000D01*
X190214250Y-98320000D01*
X190373000Y-98161250D01*
X190373000Y-97137000D01*
X187673750Y-97137000D01*
X187515000Y-97295750D01*
X186037000Y-97295750D01*
X186023250Y-97282000D01*
X184912000Y-97282000D01*
X184658000Y-97282000D01*
X183546750Y-97282000D01*
X183388000Y-97440750D01*
X178967300Y-97440750D01*
X178967300Y-97217700D01*
X178919046Y-96975114D01*
X178909448Y-96926860D01*
X178744701Y-96680299D01*
X178057408Y-95993006D01*
X178059100Y-95984500D01*
X178059100Y-95377000D01*
X183375560Y-95377000D01*
X183375560Y-96393000D01*
X183395967Y-96501456D01*
X183388000Y-96520691D01*
X183388000Y-96869250D01*
X183546750Y-97028000D01*
X183961569Y-97028000D01*
X184023000Y-97040440D01*
X185547000Y-97040440D01*
X185613113Y-97028000D01*
X186023250Y-97028000D01*
X186182000Y-96869250D01*
X186182000Y-96520691D01*
X186172988Y-96498934D01*
X186194440Y-96393000D01*
X186194440Y-96208690D01*
X187515000Y-96208690D01*
X187515000Y-96724250D01*
X187673750Y-96883000D01*
X190373000Y-96883000D01*
X190373000Y-95858750D01*
X190214250Y-95700000D01*
X188023691Y-95700000D01*
X187790302Y-95796673D01*
X187611673Y-95975301D01*
X187515000Y-96208690D01*
X186194440Y-96208690D01*
X186194440Y-95377000D01*
X186174033Y-95268544D01*
X186182000Y-95249309D01*
X186182000Y-94900750D01*
X186023250Y-94742000D01*
X185608431Y-94742000D01*
X185547000Y-94729560D01*
X184023000Y-94729560D01*
X183956887Y-94742000D01*
X183546750Y-94742000D01*
X183388000Y-94900750D01*
X183388000Y-95249309D01*
X183397012Y-95271066D01*
X183375560Y-95377000D01*
X178059100Y-95377000D01*
X178059100Y-91090750D01*
X183388000Y-91090750D01*
X183388000Y-91439309D01*
X183388286Y-91440000D01*
X183388000Y-91440691D01*
X183388000Y-91789250D01*
X183546750Y-91948000D01*
X184658000Y-91948000D01*
X184658000Y-90932000D01*
X184912000Y-90932000D01*
X184912000Y-91948000D01*
X186023250Y-91948000D01*
X186182000Y-91789250D01*
X186182000Y-91725750D01*
X187515000Y-91725750D01*
X187515000Y-92241310D01*
X187611673Y-92474699D01*
X187790302Y-92653327D01*
X188023691Y-92750000D01*
X190214250Y-92750000D01*
X190373000Y-92591250D01*
X190373000Y-91567000D01*
X187673750Y-91567000D01*
X187515000Y-91725750D01*
X186182000Y-91725750D01*
X186182000Y-91440691D01*
X186181714Y-91440000D01*
X186182000Y-91439309D01*
X186182000Y-91090750D01*
X186023250Y-90932000D01*
X184912000Y-90932000D01*
X184658000Y-90932000D01*
X183546750Y-90932000D01*
X183388000Y-91090750D01*
X178059100Y-91090750D01*
X178059100Y-90756400D01*
X178001248Y-90465561D01*
X177836501Y-90218999D01*
X177788193Y-90170691D01*
X183388000Y-90170691D01*
X183388000Y-90519250D01*
X183546750Y-90678000D01*
X184658000Y-90678000D01*
X184658000Y-89820750D01*
X184912000Y-89820750D01*
X184912000Y-90678000D01*
X186023250Y-90678000D01*
X186062560Y-90638690D01*
X187515000Y-90638690D01*
X187515000Y-91154250D01*
X187673750Y-91313000D01*
X190373000Y-91313000D01*
X190373000Y-90288750D01*
X190214250Y-90130000D01*
X188023691Y-90130000D01*
X187790302Y-90226673D01*
X187611673Y-90405301D01*
X187515000Y-90638690D01*
X186062560Y-90638690D01*
X186182000Y-90519250D01*
X186182000Y-90170691D01*
X186085327Y-89937302D01*
X185906699Y-89758673D01*
X185673310Y-89662000D01*
X185070750Y-89662000D01*
X184912000Y-89820750D01*
X184658000Y-89820750D01*
X184499250Y-89662000D01*
X183896690Y-89662000D01*
X183663301Y-89758673D01*
X183484673Y-89937302D01*
X183388000Y-90170691D01*
X177788193Y-90170691D01*
X174751942Y-87134440D01*
X175133000Y-87134440D01*
X175264662Y-87109666D01*
X175387000Y-87134440D01*
X176403000Y-87134440D01*
X176534662Y-87109666D01*
X176657000Y-87134440D01*
X177673000Y-87134440D01*
X177804662Y-87109666D01*
X177927000Y-87134440D01*
X178943000Y-87134440D01*
X179074662Y-87109666D01*
X179197000Y-87134440D01*
X180213000Y-87134440D01*
X180344662Y-87109666D01*
X180467000Y-87134440D01*
X181483000Y-87134440D01*
X181614662Y-87109666D01*
X181737000Y-87134440D01*
X182753000Y-87134440D01*
X182861455Y-87114033D01*
X182880690Y-87122000D01*
X183229250Y-87122000D01*
X183387998Y-86963252D01*
X183387998Y-87052306D01*
X183350057Y-87067983D01*
X183086808Y-87330773D01*
X182944162Y-87674301D01*
X182943838Y-88046267D01*
X183085883Y-88390043D01*
X183348673Y-88653292D01*
X183692201Y-88795938D01*
X184064167Y-88796262D01*
X184407943Y-88654217D01*
X184671192Y-88391427D01*
X184813838Y-88047899D01*
X184813879Y-88001023D01*
X184841303Y-87973599D01*
X188764699Y-87973599D01*
X189028281Y-88611515D01*
X189515918Y-89100004D01*
X190153373Y-89364699D01*
X190843599Y-89365301D01*
X191481515Y-89101719D01*
X191970004Y-88614082D01*
X192234699Y-87976627D01*
X192235301Y-87286401D01*
X191971719Y-86648485D01*
X191484082Y-86159996D01*
X190846627Y-85895301D01*
X190156401Y-85894699D01*
X189518485Y-86158281D01*
X189029996Y-86645918D01*
X188765301Y-87283373D01*
X188764699Y-87973599D01*
X184841303Y-87973599D01*
X184885801Y-87929101D01*
X185050548Y-87682539D01*
X185108400Y-87391700D01*
X185108400Y-81670900D01*
X185050548Y-81380061D01*
X184885801Y-81133499D01*
X182031701Y-78279399D01*
X181882939Y-78180000D01*
X190205908Y-78180000D01*
X192330000Y-80304091D01*
X192330000Y-80304091D01*
G37*
X192330000Y-80304091D02*
X192330000Y-90130000D01*
X190785750Y-90130000D01*
X190627000Y-90288750D01*
X190627000Y-91313000D01*
X190647000Y-91313000D01*
X190647000Y-91567000D01*
X190627000Y-91567000D01*
X190627000Y-92591250D01*
X190785750Y-92750000D01*
X192330000Y-92750000D01*
X192330000Y-92942560D01*
X188650000Y-92942560D01*
X188414683Y-92986838D01*
X188260533Y-93086031D01*
X187982101Y-92807599D01*
X187735539Y-92642852D01*
X187444700Y-92585000D01*
X186182000Y-92585000D01*
X186182000Y-92360750D01*
X186023250Y-92202000D01*
X185608431Y-92202000D01*
X185547000Y-92189560D01*
X184023000Y-92189560D01*
X183956887Y-92202000D01*
X183546750Y-92202000D01*
X183388000Y-92360750D01*
X183388000Y-92709309D01*
X183397012Y-92731066D01*
X183375560Y-92837000D01*
X183375560Y-93853000D01*
X183395967Y-93961456D01*
X183388000Y-93980691D01*
X183388000Y-94329250D01*
X183546750Y-94488000D01*
X183961569Y-94488000D01*
X184023000Y-94500440D01*
X185547000Y-94500440D01*
X185613113Y-94488000D01*
X186023250Y-94488000D01*
X186182000Y-94329250D01*
X186182000Y-94105000D01*
X187129898Y-94105000D01*
X187787299Y-94762401D01*
X188012510Y-94912882D01*
X188046838Y-95095317D01*
X188185910Y-95311441D01*
X188398110Y-95456431D01*
X188650000Y-95507440D01*
X192330000Y-95507440D01*
X192330000Y-95700000D01*
X190785750Y-95700000D01*
X190627000Y-95858750D01*
X190627000Y-96883000D01*
X190647000Y-96883000D01*
X190647000Y-97137000D01*
X190627000Y-97137000D01*
X190627000Y-98161250D01*
X190785750Y-98320000D01*
X192330000Y-98320000D01*
X192330000Y-108925909D01*
X190205908Y-111050000D01*
X179411802Y-111050000D01*
X179826927Y-110634875D01*
X179873110Y-110666431D01*
X180125000Y-110717440D01*
X181825000Y-110717440D01*
X182060317Y-110673162D01*
X182276441Y-110534090D01*
X182421431Y-110321890D01*
X182472440Y-110070000D01*
X182472440Y-108370000D01*
X182428162Y-108134683D01*
X182289090Y-107918559D01*
X182076890Y-107773569D01*
X181825000Y-107722560D01*
X180125000Y-107722560D01*
X179889683Y-107766838D01*
X179673559Y-107905910D01*
X179528569Y-108118110D01*
X179514914Y-108185541D01*
X179485054Y-108140853D01*
X179003285Y-107818946D01*
X178435000Y-107705907D01*
X177866715Y-107818946D01*
X177828680Y-107844360D01*
X177797101Y-107797099D01*
X176878016Y-106878014D01*
X176929292Y-106826827D01*
X177071938Y-106483299D01*
X177071979Y-106436423D01*
X178156102Y-105352300D01*
X178435000Y-105352300D01*
X178725839Y-105294448D01*
X178972401Y-105129701D01*
X179125859Y-104900034D01*
X179197000Y-104914440D01*
X180213000Y-104914440D01*
X180344662Y-104889666D01*
X180467000Y-104914440D01*
X181483000Y-104914440D01*
X181614662Y-104889666D01*
X181737000Y-104914440D01*
X182753000Y-104914440D01*
X182861455Y-104894033D01*
X182880690Y-104902000D01*
X183229250Y-104902000D01*
X183388000Y-104743250D01*
X183388000Y-104328431D01*
X183400440Y-104267000D01*
X183400440Y-103632000D01*
X183642000Y-103632000D01*
X183642000Y-104743250D01*
X183800750Y-104902000D01*
X184149310Y-104902000D01*
X184382699Y-104805327D01*
X184561327Y-104626698D01*
X184658000Y-104393309D01*
X184658000Y-103790750D01*
X184499250Y-103632000D01*
X183642000Y-103632000D01*
X183400440Y-103632000D01*
X183400440Y-102743000D01*
X183388000Y-102676887D01*
X183388000Y-102266750D01*
X183642000Y-102266750D01*
X183642000Y-103378000D01*
X184499250Y-103378000D01*
X184658000Y-103219250D01*
X184658000Y-102616691D01*
X184561327Y-102383302D01*
X184382699Y-102204673D01*
X184149310Y-102108000D01*
X183800750Y-102108000D01*
X183642000Y-102266750D01*
X183388000Y-102266750D01*
X183229250Y-102108000D01*
X182880690Y-102108000D01*
X182858933Y-102117012D01*
X182753000Y-102095560D01*
X181737000Y-102095560D01*
X181605338Y-102120334D01*
X181483000Y-102095560D01*
X180467000Y-102095560D01*
X180335338Y-102120334D01*
X180213000Y-102095560D01*
X179197000Y-102095560D01*
X179065338Y-102120334D01*
X178943000Y-102095560D01*
X177927000Y-102095560D01*
X177818545Y-102115967D01*
X177799310Y-102108000D01*
X177450750Y-102108000D01*
X177292002Y-102266748D01*
X177292002Y-102108000D01*
X177279502Y-102108000D01*
X178456757Y-100930745D01*
X178820567Y-100931062D01*
X179164343Y-100789017D01*
X179427592Y-100526227D01*
X179570238Y-100182699D01*
X179570562Y-99810733D01*
X179428517Y-99466957D01*
X179165727Y-99203708D01*
X178967300Y-99121313D01*
X178967300Y-98710750D01*
X183388000Y-98710750D01*
X183388000Y-99059309D01*
X183484673Y-99292698D01*
X183663301Y-99471327D01*
X183896690Y-99568000D01*
X184499250Y-99568000D01*
X184658000Y-99409250D01*
X184658000Y-98552000D01*
X184912000Y-98552000D01*
X184912000Y-99409250D01*
X185070750Y-99568000D01*
X185673310Y-99568000D01*
X185906699Y-99471327D01*
X186085327Y-99292698D01*
X186182000Y-99059309D01*
X186182000Y-98710750D01*
X186023250Y-98552000D01*
X184912000Y-98552000D01*
X184658000Y-98552000D01*
X183546750Y-98552000D01*
X183388000Y-98710750D01*
X178967300Y-98710750D01*
X178967300Y-97440750D01*
X183388000Y-97440750D01*
X183388000Y-97789309D01*
X183388286Y-97790000D01*
X183388000Y-97790691D01*
X183388000Y-98139250D01*
X183546750Y-98298000D01*
X184658000Y-98298000D01*
X184658000Y-97282000D01*
X184912000Y-97282000D01*
X184912000Y-98298000D01*
X186023250Y-98298000D01*
X186182000Y-98139250D01*
X186182000Y-97790691D01*
X186181714Y-97790000D01*
X186182000Y-97789309D01*
X186182000Y-97440750D01*
X186037000Y-97295750D01*
X187515000Y-97295750D01*
X187515000Y-97811310D01*
X187611673Y-98044699D01*
X187790302Y-98223327D01*
X188023691Y-98320000D01*
X190214250Y-98320000D01*
X190373000Y-98161250D01*
X190373000Y-97137000D01*
X187673750Y-97137000D01*
X187515000Y-97295750D01*
X186037000Y-97295750D01*
X186023250Y-97282000D01*
X184912000Y-97282000D01*
X184658000Y-97282000D01*
X183546750Y-97282000D01*
X183388000Y-97440750D01*
X178967300Y-97440750D01*
X178967300Y-97217700D01*
X178919046Y-96975114D01*
X178909448Y-96926860D01*
X178744701Y-96680299D01*
X178057408Y-95993006D01*
X178059100Y-95984500D01*
X178059100Y-95377000D01*
X183375560Y-95377000D01*
X183375560Y-96393000D01*
X183395967Y-96501456D01*
X183388000Y-96520691D01*
X183388000Y-96869250D01*
X183546750Y-97028000D01*
X183961569Y-97028000D01*
X184023000Y-97040440D01*
X185547000Y-97040440D01*
X185613113Y-97028000D01*
X186023250Y-97028000D01*
X186182000Y-96869250D01*
X186182000Y-96520691D01*
X186172988Y-96498934D01*
X186194440Y-96393000D01*
X186194440Y-96208690D01*
X187515000Y-96208690D01*
X187515000Y-96724250D01*
X187673750Y-96883000D01*
X190373000Y-96883000D01*
X190373000Y-95858750D01*
X190214250Y-95700000D01*
X188023691Y-95700000D01*
X187790302Y-95796673D01*
X187611673Y-95975301D01*
X187515000Y-96208690D01*
X186194440Y-96208690D01*
X186194440Y-95377000D01*
X186174033Y-95268544D01*
X186182000Y-95249309D01*
X186182000Y-94900750D01*
X186023250Y-94742000D01*
X185608431Y-94742000D01*
X185547000Y-94729560D01*
X184023000Y-94729560D01*
X183956887Y-94742000D01*
X183546750Y-94742000D01*
X183388000Y-94900750D01*
X183388000Y-95249309D01*
X183397012Y-95271066D01*
X183375560Y-95377000D01*
X178059100Y-95377000D01*
X178059100Y-91090750D01*
X183388000Y-91090750D01*
X183388000Y-91439309D01*
X183388286Y-91440000D01*
X183388000Y-91440691D01*
X183388000Y-91789250D01*
X183546750Y-91948000D01*
X184658000Y-91948000D01*
X184658000Y-90932000D01*
X184912000Y-90932000D01*
X184912000Y-91948000D01*
X186023250Y-91948000D01*
X186182000Y-91789250D01*
X186182000Y-91725750D01*
X187515000Y-91725750D01*
X187515000Y-92241310D01*
X187611673Y-92474699D01*
X187790302Y-92653327D01*
X188023691Y-92750000D01*
X190214250Y-92750000D01*
X190373000Y-92591250D01*
X190373000Y-91567000D01*
X187673750Y-91567000D01*
X187515000Y-91725750D01*
X186182000Y-91725750D01*
X186182000Y-91440691D01*
X186181714Y-91440000D01*
X186182000Y-91439309D01*
X186182000Y-91090750D01*
X186023250Y-90932000D01*
X184912000Y-90932000D01*
X184658000Y-90932000D01*
X183546750Y-90932000D01*
X183388000Y-91090750D01*
X178059100Y-91090750D01*
X178059100Y-90756400D01*
X178001248Y-90465561D01*
X177836501Y-90218999D01*
X177788193Y-90170691D01*
X183388000Y-90170691D01*
X183388000Y-90519250D01*
X183546750Y-90678000D01*
X184658000Y-90678000D01*
X184658000Y-89820750D01*
X184912000Y-89820750D01*
X184912000Y-90678000D01*
X186023250Y-90678000D01*
X186062560Y-90638690D01*
X187515000Y-90638690D01*
X187515000Y-91154250D01*
X187673750Y-91313000D01*
X190373000Y-91313000D01*
X190373000Y-90288750D01*
X190214250Y-90130000D01*
X188023691Y-90130000D01*
X187790302Y-90226673D01*
X187611673Y-90405301D01*
X187515000Y-90638690D01*
X186062560Y-90638690D01*
X186182000Y-90519250D01*
X186182000Y-90170691D01*
X186085327Y-89937302D01*
X185906699Y-89758673D01*
X185673310Y-89662000D01*
X185070750Y-89662000D01*
X184912000Y-89820750D01*
X184658000Y-89820750D01*
X184499250Y-89662000D01*
X183896690Y-89662000D01*
X183663301Y-89758673D01*
X183484673Y-89937302D01*
X183388000Y-90170691D01*
X177788193Y-90170691D01*
X174751942Y-87134440D01*
X175133000Y-87134440D01*
X175264662Y-87109666D01*
X175387000Y-87134440D01*
X176403000Y-87134440D01*
X176534662Y-87109666D01*
X176657000Y-87134440D01*
X177673000Y-87134440D01*
X177804662Y-87109666D01*
X177927000Y-87134440D01*
X178943000Y-87134440D01*
X179074662Y-87109666D01*
X179197000Y-87134440D01*
X180213000Y-87134440D01*
X180344662Y-87109666D01*
X180467000Y-87134440D01*
X181483000Y-87134440D01*
X181614662Y-87109666D01*
X181737000Y-87134440D01*
X182753000Y-87134440D01*
X182861455Y-87114033D01*
X182880690Y-87122000D01*
X183229250Y-87122000D01*
X183387998Y-86963252D01*
X183387998Y-87052306D01*
X183350057Y-87067983D01*
X183086808Y-87330773D01*
X182944162Y-87674301D01*
X182943838Y-88046267D01*
X183085883Y-88390043D01*
X183348673Y-88653292D01*
X183692201Y-88795938D01*
X184064167Y-88796262D01*
X184407943Y-88654217D01*
X184671192Y-88391427D01*
X184813838Y-88047899D01*
X184813879Y-88001023D01*
X184841303Y-87973599D01*
X188764699Y-87973599D01*
X189028281Y-88611515D01*
X189515918Y-89100004D01*
X190153373Y-89364699D01*
X190843599Y-89365301D01*
X191481515Y-89101719D01*
X191970004Y-88614082D01*
X192234699Y-87976627D01*
X192235301Y-87286401D01*
X191971719Y-86648485D01*
X191484082Y-86159996D01*
X190846627Y-85895301D01*
X190156401Y-85894699D01*
X189518485Y-86158281D01*
X189029996Y-86645918D01*
X188765301Y-87283373D01*
X188764699Y-87973599D01*
X184841303Y-87973599D01*
X184885801Y-87929101D01*
X185050548Y-87682539D01*
X185108400Y-87391700D01*
X185108400Y-81670900D01*
X185050548Y-81380061D01*
X184885801Y-81133499D01*
X182031701Y-78279399D01*
X181882939Y-78180000D01*
X190205908Y-78180000D01*
X192330000Y-80304091D01*
G36*
X176022000Y-109093000D02*
X176042000Y-109093000D01*
X176042000Y-109347000D01*
X176022000Y-109347000D01*
X176022000Y-109367000D01*
X175768000Y-109367000D01*
X175768000Y-109347000D01*
X175748000Y-109347000D01*
X175748000Y-109093000D01*
X175768000Y-109093000D01*
X175768000Y-109073000D01*
X176022000Y-109073000D01*
X176022000Y-109093000D01*
X176022000Y-109093000D01*
G37*
X176022000Y-109093000D02*
X176042000Y-109093000D01*
X176042000Y-109347000D01*
X176022000Y-109347000D01*
X176022000Y-109367000D01*
X175768000Y-109367000D01*
X175768000Y-109347000D01*
X175748000Y-109347000D01*
X175748000Y-109093000D01*
X175768000Y-109093000D01*
X175768000Y-109073000D01*
X176022000Y-109073000D01*
X176022000Y-109093000D01*
G36*
X177279560Y-103652000D02*
X177050440Y-103652000D01*
X177050440Y-103358000D01*
X177279560Y-103358000D01*
X177279560Y-103652000D01*
X177279560Y-103652000D01*
G37*
X177279560Y-103652000D02*
X177050440Y-103652000D01*
X177050440Y-103358000D01*
X177279560Y-103358000D01*
X177279560Y-103652000D01*
G36*
X167119560Y-103652000D02*
X166890440Y-103652000D01*
X166890440Y-103358000D01*
X167119560Y-103358000D01*
X167119560Y-103652000D01*
X167119560Y-103652000D01*
G37*
X167119560Y-103652000D02*
X166890440Y-103652000D01*
X166890440Y-103358000D01*
X167119560Y-103358000D01*
X167119560Y-103652000D01*
G36*
X159499560Y-103652000D02*
X159266200Y-103652000D01*
X159266200Y-103358000D01*
X159499560Y-103358000D01*
X159499560Y-103652000D01*
X159499560Y-103652000D01*
G37*
X159499560Y-103652000D02*
X159266200Y-103652000D01*
X159266200Y-103358000D01*
X159499560Y-103358000D01*
X159499560Y-103652000D01*
G36*
X150960673Y-91247392D02*
X151304201Y-91390038D01*
X151676167Y-91390362D01*
X151751028Y-91359430D01*
X156779878Y-96388280D01*
X156779838Y-96433767D01*
X156921883Y-96777543D01*
X156972924Y-96828674D01*
X155975098Y-97826500D01*
X153413800Y-97826500D01*
X153122961Y-97884352D01*
X152876399Y-98049099D01*
X149062748Y-101862750D01*
X149034147Y-101819946D01*
X148693447Y-101592298D01*
X148836358Y-101525183D01*
X149226645Y-101096924D01*
X149396476Y-100686890D01*
X149275155Y-100457000D01*
X148082000Y-100457000D01*
X148082000Y-100477000D01*
X147828000Y-100477000D01*
X147828000Y-100457000D01*
X147808000Y-100457000D01*
X147808000Y-100203000D01*
X147828000Y-100203000D01*
X147828000Y-100183000D01*
X148082000Y-100183000D01*
X148082000Y-100203000D01*
X149275155Y-100203000D01*
X149396476Y-99973110D01*
X149226645Y-99563076D01*
X148950499Y-99260063D01*
X149040317Y-99243162D01*
X149256441Y-99104090D01*
X149401431Y-98891890D01*
X149452440Y-98640000D01*
X149452440Y-96940000D01*
X149408162Y-96704683D01*
X149269090Y-96488559D01*
X149201871Y-96442631D01*
X149518401Y-96126101D01*
X149683148Y-95879539D01*
X149741000Y-95588700D01*
X149741000Y-95183043D01*
X150106146Y-95312312D01*
X150646444Y-95283949D01*
X151013878Y-95131753D01*
X151078793Y-94893398D01*
X150305000Y-94119605D01*
X150290858Y-94133748D01*
X150111253Y-93954143D01*
X150125395Y-93940000D01*
X150484605Y-93940000D01*
X151258398Y-94713793D01*
X151496753Y-94648878D01*
X151677312Y-94138854D01*
X151648949Y-93598556D01*
X151496753Y-93231122D01*
X151258398Y-93166207D01*
X150484605Y-93940000D01*
X150125395Y-93940000D01*
X150111253Y-93925858D01*
X150290858Y-93746253D01*
X150305000Y-93760395D01*
X151078793Y-92986602D01*
X151013878Y-92748247D01*
X150503854Y-92567688D01*
X149963556Y-92596051D01*
X149741000Y-92688237D01*
X149741000Y-92382102D01*
X150918229Y-91204873D01*
X150960673Y-91247392D01*
X150960673Y-91247392D01*
G37*
X150960673Y-91247392D02*
X151304201Y-91390038D01*
X151676167Y-91390362D01*
X151751028Y-91359430D01*
X156779878Y-96388280D01*
X156779838Y-96433767D01*
X156921883Y-96777543D01*
X156972924Y-96828674D01*
X155975098Y-97826500D01*
X153413800Y-97826500D01*
X153122961Y-97884352D01*
X152876399Y-98049099D01*
X149062748Y-101862750D01*
X149034147Y-101819946D01*
X148693447Y-101592298D01*
X148836358Y-101525183D01*
X149226645Y-101096924D01*
X149396476Y-100686890D01*
X149275155Y-100457000D01*
X148082000Y-100457000D01*
X148082000Y-100477000D01*
X147828000Y-100477000D01*
X147828000Y-100457000D01*
X147808000Y-100457000D01*
X147808000Y-100203000D01*
X147828000Y-100203000D01*
X147828000Y-100183000D01*
X148082000Y-100183000D01*
X148082000Y-100203000D01*
X149275155Y-100203000D01*
X149396476Y-99973110D01*
X149226645Y-99563076D01*
X148950499Y-99260063D01*
X149040317Y-99243162D01*
X149256441Y-99104090D01*
X149401431Y-98891890D01*
X149452440Y-98640000D01*
X149452440Y-96940000D01*
X149408162Y-96704683D01*
X149269090Y-96488559D01*
X149201871Y-96442631D01*
X149518401Y-96126101D01*
X149683148Y-95879539D01*
X149741000Y-95588700D01*
X149741000Y-95183043D01*
X150106146Y-95312312D01*
X150646444Y-95283949D01*
X151013878Y-95131753D01*
X151078793Y-94893398D01*
X150305000Y-94119605D01*
X150290858Y-94133748D01*
X150111253Y-93954143D01*
X150125395Y-93940000D01*
X150484605Y-93940000D01*
X151258398Y-94713793D01*
X151496753Y-94648878D01*
X151677312Y-94138854D01*
X151648949Y-93598556D01*
X151496753Y-93231122D01*
X151258398Y-93166207D01*
X150484605Y-93940000D01*
X150125395Y-93940000D01*
X150111253Y-93925858D01*
X150290858Y-93746253D01*
X150305000Y-93760395D01*
X151078793Y-92986602D01*
X151013878Y-92748247D01*
X150503854Y-92567688D01*
X149963556Y-92596051D01*
X149741000Y-92688237D01*
X149741000Y-92382102D01*
X150918229Y-91204873D01*
X150960673Y-91247392D01*
G36*
X164975000Y-90874500D02*
X165032852Y-91165339D01*
X165197599Y-91411901D01*
X168945500Y-95159802D01*
X168945500Y-95372716D01*
X168925627Y-95352808D01*
X168703798Y-95260696D01*
X165376601Y-91933499D01*
X165130039Y-91768752D01*
X164839200Y-91710900D01*
X164675002Y-91710900D01*
X161856421Y-88892319D01*
X162028743Y-88821117D01*
X162291992Y-88558327D01*
X162434638Y-88214799D01*
X162434679Y-88167923D01*
X162824402Y-87778200D01*
X163080137Y-87778200D01*
X163112273Y-87810392D01*
X163455801Y-87953038D01*
X163827767Y-87953362D01*
X164171543Y-87811317D01*
X164434792Y-87548527D01*
X164577438Y-87204999D01*
X164577499Y-87134440D01*
X164973000Y-87134440D01*
X164975000Y-87134064D01*
X164975000Y-90874500D01*
X164975000Y-90874500D01*
G37*
X164975000Y-90874500D02*
X165032852Y-91165339D01*
X165197599Y-91411901D01*
X168945500Y-95159802D01*
X168945500Y-95372716D01*
X168925627Y-95352808D01*
X168703798Y-95260696D01*
X165376601Y-91933499D01*
X165130039Y-91768752D01*
X164839200Y-91710900D01*
X164675002Y-91710900D01*
X161856421Y-88892319D01*
X162028743Y-88821117D01*
X162291992Y-88558327D01*
X162434638Y-88214799D01*
X162434679Y-88167923D01*
X162824402Y-87778200D01*
X163080137Y-87778200D01*
X163112273Y-87810392D01*
X163455801Y-87953038D01*
X163827767Y-87953362D01*
X164171543Y-87811317D01*
X164434792Y-87548527D01*
X164577438Y-87204999D01*
X164577499Y-87134440D01*
X164973000Y-87134440D01*
X164975000Y-87134064D01*
X164975000Y-90874500D01*
G36*
X159630999Y-78290499D02*
X159060503Y-78860995D01*
X158683285Y-78608946D01*
X158115000Y-78495907D01*
X157546715Y-78608946D01*
X157064946Y-78930853D01*
X156845000Y-79260026D01*
X156625054Y-78930853D01*
X156143285Y-78608946D01*
X155575000Y-78495907D01*
X155006715Y-78608946D01*
X154524946Y-78930853D01*
X154497150Y-78972452D01*
X154488162Y-78924683D01*
X154349090Y-78708559D01*
X154136890Y-78563569D01*
X153885000Y-78512560D01*
X152185000Y-78512560D01*
X151949683Y-78556838D01*
X151733559Y-78695910D01*
X151588569Y-78908110D01*
X151537560Y-79160000D01*
X151537560Y-80860000D01*
X151581838Y-81095317D01*
X151720910Y-81311441D01*
X151933110Y-81456431D01*
X152185000Y-81507440D01*
X152275000Y-81507440D01*
X152275000Y-84944498D01*
X150681697Y-83351195D01*
X150722440Y-83150000D01*
X150722440Y-81950000D01*
X150678162Y-81714683D01*
X150539090Y-81498559D01*
X150326890Y-81353569D01*
X150075000Y-81302560D01*
X148375000Y-81302560D01*
X148139683Y-81346838D01*
X147923559Y-81485910D01*
X147778569Y-81698110D01*
X147727560Y-81950000D01*
X147727560Y-83150000D01*
X147771838Y-83385317D01*
X147910910Y-83601441D01*
X148063309Y-83705571D01*
X148043067Y-83720875D01*
X147796714Y-84140624D01*
X147781538Y-84232391D01*
X147906269Y-84423000D01*
X149098000Y-84423000D01*
X149098000Y-84403000D01*
X149352000Y-84403000D01*
X149352000Y-84423000D01*
X149372000Y-84423000D01*
X149372000Y-84677000D01*
X149352000Y-84677000D01*
X149352000Y-85632547D01*
X149547696Y-85795256D01*
X150018701Y-85672647D01*
X150406933Y-85379125D01*
X150463552Y-85282654D01*
X152192336Y-87011438D01*
X152138508Y-87065173D01*
X151995862Y-87408701D01*
X151995538Y-87780667D01*
X152053223Y-87920275D01*
X151568694Y-88404804D01*
X151496753Y-88231122D01*
X151258398Y-88166207D01*
X150484605Y-88940000D01*
X150498748Y-88954143D01*
X150319143Y-89133748D01*
X150305000Y-89119605D01*
X149531207Y-89893398D01*
X149596122Y-90131753D01*
X149777525Y-90195973D01*
X148443599Y-91529899D01*
X148278852Y-91776461D01*
X148221000Y-92067300D01*
X148221000Y-93747819D01*
X148082000Y-93705000D01*
X147732000Y-93705000D01*
X147732000Y-94813000D01*
X147752000Y-94813000D01*
X147752000Y-95067000D01*
X147732000Y-95067000D01*
X147732000Y-95087000D01*
X147478000Y-95087000D01*
X147478000Y-95067000D01*
X147458000Y-95067000D01*
X147458000Y-94813000D01*
X147478000Y-94813000D01*
X147478000Y-93705000D01*
X147128000Y-93705000D01*
X146760000Y-93818362D01*
X146760000Y-89082715D01*
X147223948Y-89175000D01*
X147986052Y-89175000D01*
X148458666Y-89080991D01*
X148859329Y-88813277D01*
X148961044Y-88661050D01*
X148932688Y-88741146D01*
X148961051Y-89281444D01*
X149113247Y-89648878D01*
X149351602Y-89713793D01*
X150125395Y-88940000D01*
X149351602Y-88166207D01*
X149166002Y-88216754D01*
X149211782Y-87986602D01*
X149531207Y-87986602D01*
X150305000Y-88760395D01*
X151078793Y-87986602D01*
X151013878Y-87748247D01*
X150503854Y-87567688D01*
X149963556Y-87596051D01*
X149596122Y-87748247D01*
X149531207Y-87986602D01*
X149211782Y-87986602D01*
X149221052Y-87940000D01*
X149127043Y-87467386D01*
X148859329Y-87066723D01*
X148458666Y-86799009D01*
X147986052Y-86705000D01*
X147223948Y-86705000D01*
X146760000Y-86797285D01*
X146760000Y-84867609D01*
X147781538Y-84867609D01*
X147796714Y-84959376D01*
X148043067Y-85379125D01*
X148431299Y-85672647D01*
X148902304Y-85795256D01*
X149098000Y-85632547D01*
X149098000Y-84677000D01*
X147906269Y-84677000D01*
X147781538Y-84867609D01*
X146760000Y-84867609D01*
X146760000Y-80304092D01*
X148884091Y-78180000D01*
X159796373Y-78180000D01*
X159630999Y-78290499D01*
X159630999Y-78290499D01*
G37*
X159630999Y-78290499D02*
X159060503Y-78860995D01*
X158683285Y-78608946D01*
X158115000Y-78495907D01*
X157546715Y-78608946D01*
X157064946Y-78930853D01*
X156845000Y-79260026D01*
X156625054Y-78930853D01*
X156143285Y-78608946D01*
X155575000Y-78495907D01*
X155006715Y-78608946D01*
X154524946Y-78930853D01*
X154497150Y-78972452D01*
X154488162Y-78924683D01*
X154349090Y-78708559D01*
X154136890Y-78563569D01*
X153885000Y-78512560D01*
X152185000Y-78512560D01*
X151949683Y-78556838D01*
X151733559Y-78695910D01*
X151588569Y-78908110D01*
X151537560Y-79160000D01*
X151537560Y-80860000D01*
X151581838Y-81095317D01*
X151720910Y-81311441D01*
X151933110Y-81456431D01*
X152185000Y-81507440D01*
X152275000Y-81507440D01*
X152275000Y-84944498D01*
X150681697Y-83351195D01*
X150722440Y-83150000D01*
X150722440Y-81950000D01*
X150678162Y-81714683D01*
X150539090Y-81498559D01*
X150326890Y-81353569D01*
X150075000Y-81302560D01*
X148375000Y-81302560D01*
X148139683Y-81346838D01*
X147923559Y-81485910D01*
X147778569Y-81698110D01*
X147727560Y-81950000D01*
X147727560Y-83150000D01*
X147771838Y-83385317D01*
X147910910Y-83601441D01*
X148063309Y-83705571D01*
X148043067Y-83720875D01*
X147796714Y-84140624D01*
X147781538Y-84232391D01*
X147906269Y-84423000D01*
X149098000Y-84423000D01*
X149098000Y-84403000D01*
X149352000Y-84403000D01*
X149352000Y-84423000D01*
X149372000Y-84423000D01*
X149372000Y-84677000D01*
X149352000Y-84677000D01*
X149352000Y-85632547D01*
X149547696Y-85795256D01*
X150018701Y-85672647D01*
X150406933Y-85379125D01*
X150463552Y-85282654D01*
X152192336Y-87011438D01*
X152138508Y-87065173D01*
X151995862Y-87408701D01*
X151995538Y-87780667D01*
X152053223Y-87920275D01*
X151568694Y-88404804D01*
X151496753Y-88231122D01*
X151258398Y-88166207D01*
X150484605Y-88940000D01*
X150498748Y-88954143D01*
X150319143Y-89133748D01*
X150305000Y-89119605D01*
X149531207Y-89893398D01*
X149596122Y-90131753D01*
X149777525Y-90195973D01*
X148443599Y-91529899D01*
X148278852Y-91776461D01*
X148221000Y-92067300D01*
X148221000Y-93747819D01*
X148082000Y-93705000D01*
X147732000Y-93705000D01*
X147732000Y-94813000D01*
X147752000Y-94813000D01*
X147752000Y-95067000D01*
X147732000Y-95067000D01*
X147732000Y-95087000D01*
X147478000Y-95087000D01*
X147478000Y-95067000D01*
X147458000Y-95067000D01*
X147458000Y-94813000D01*
X147478000Y-94813000D01*
X147478000Y-93705000D01*
X147128000Y-93705000D01*
X146760000Y-93818362D01*
X146760000Y-89082715D01*
X147223948Y-89175000D01*
X147986052Y-89175000D01*
X148458666Y-89080991D01*
X148859329Y-88813277D01*
X148961044Y-88661050D01*
X148932688Y-88741146D01*
X148961051Y-89281444D01*
X149113247Y-89648878D01*
X149351602Y-89713793D01*
X150125395Y-88940000D01*
X149351602Y-88166207D01*
X149166002Y-88216754D01*
X149211782Y-87986602D01*
X149531207Y-87986602D01*
X150305000Y-88760395D01*
X151078793Y-87986602D01*
X151013878Y-87748247D01*
X150503854Y-87567688D01*
X149963556Y-87596051D01*
X149596122Y-87748247D01*
X149531207Y-87986602D01*
X149211782Y-87986602D01*
X149221052Y-87940000D01*
X149127043Y-87467386D01*
X148859329Y-87066723D01*
X148458666Y-86799009D01*
X147986052Y-86705000D01*
X147223948Y-86705000D01*
X146760000Y-86797285D01*
X146760000Y-84867609D01*
X147781538Y-84867609D01*
X147796714Y-84959376D01*
X148043067Y-85379125D01*
X148431299Y-85672647D01*
X148902304Y-85795256D01*
X149098000Y-85632547D01*
X149098000Y-84677000D01*
X147906269Y-84677000D01*
X147781538Y-84867609D01*
X146760000Y-84867609D01*
X146760000Y-80304092D01*
X148884091Y-78180000D01*
X159796373Y-78180000D01*
X159630999Y-78290499D01*
G36*
X168389560Y-86487000D02*
X168402000Y-86553113D01*
X168402000Y-86963250D01*
X168560750Y-87122000D01*
X168909310Y-87122000D01*
X168931067Y-87112988D01*
X169037000Y-87134440D01*
X170053000Y-87134440D01*
X170184662Y-87109666D01*
X170307000Y-87134440D01*
X171323000Y-87134440D01*
X171431455Y-87114033D01*
X171450690Y-87122000D01*
X171799250Y-87122000D01*
X171958000Y-86963250D01*
X171958000Y-86548431D01*
X171970440Y-86487000D01*
X171970440Y-85578000D01*
X172199560Y-85578000D01*
X172199560Y-86487000D01*
X172212000Y-86553113D01*
X172212000Y-86963250D01*
X172370750Y-87122000D01*
X172665454Y-87122000D01*
X172817599Y-87349701D01*
X176539100Y-91071202D01*
X176539100Y-91514059D01*
X176228439Y-91513789D01*
X176228662Y-91258233D01*
X176086617Y-90914457D01*
X175823827Y-90651208D01*
X175480299Y-90508562D01*
X175108333Y-90508238D01*
X174764557Y-90650283D01*
X174501308Y-90913073D01*
X174358662Y-91256601D01*
X174358621Y-91303477D01*
X173754200Y-91907898D01*
X173754200Y-91224500D01*
X173696348Y-90933661D01*
X173531601Y-90687099D01*
X173109122Y-90264620D01*
X173109162Y-90219133D01*
X172967117Y-89875357D01*
X172704327Y-89612108D01*
X172360799Y-89469462D01*
X171988833Y-89469138D01*
X171691687Y-89591916D01*
X171481799Y-89504762D01*
X171109833Y-89504438D01*
X170766057Y-89646483D01*
X170502808Y-89909273D01*
X170360162Y-90252801D01*
X170359838Y-90624767D01*
X170501883Y-90968543D01*
X170764673Y-91231792D01*
X171108201Y-91374438D01*
X171151917Y-91374476D01*
X171087408Y-91438873D01*
X170944762Y-91782401D01*
X170944438Y-92154367D01*
X171086483Y-92498143D01*
X171119600Y-92531318D01*
X171119600Y-94524498D01*
X167765000Y-91169898D01*
X167765000Y-87122000D01*
X167989250Y-87122000D01*
X168148000Y-86963250D01*
X168148000Y-86548431D01*
X168160440Y-86487000D01*
X168160440Y-85578000D01*
X168389560Y-85578000D01*
X168389560Y-86487000D01*
X168389560Y-86487000D01*
G37*
X168389560Y-86487000D02*
X168402000Y-86553113D01*
X168402000Y-86963250D01*
X168560750Y-87122000D01*
X168909310Y-87122000D01*
X168931067Y-87112988D01*
X169037000Y-87134440D01*
X170053000Y-87134440D01*
X170184662Y-87109666D01*
X170307000Y-87134440D01*
X171323000Y-87134440D01*
X171431455Y-87114033D01*
X171450690Y-87122000D01*
X171799250Y-87122000D01*
X171958000Y-86963250D01*
X171958000Y-86548431D01*
X171970440Y-86487000D01*
X171970440Y-85578000D01*
X172199560Y-85578000D01*
X172199560Y-86487000D01*
X172212000Y-86553113D01*
X172212000Y-86963250D01*
X172370750Y-87122000D01*
X172665454Y-87122000D01*
X172817599Y-87349701D01*
X176539100Y-91071202D01*
X176539100Y-91514059D01*
X176228439Y-91513789D01*
X176228662Y-91258233D01*
X176086617Y-90914457D01*
X175823827Y-90651208D01*
X175480299Y-90508562D01*
X175108333Y-90508238D01*
X174764557Y-90650283D01*
X174501308Y-90913073D01*
X174358662Y-91256601D01*
X174358621Y-91303477D01*
X173754200Y-91907898D01*
X173754200Y-91224500D01*
X173696348Y-90933661D01*
X173531601Y-90687099D01*
X173109122Y-90264620D01*
X173109162Y-90219133D01*
X172967117Y-89875357D01*
X172704327Y-89612108D01*
X172360799Y-89469462D01*
X171988833Y-89469138D01*
X171691687Y-89591916D01*
X171481799Y-89504762D01*
X171109833Y-89504438D01*
X170766057Y-89646483D01*
X170502808Y-89909273D01*
X170360162Y-90252801D01*
X170359838Y-90624767D01*
X170501883Y-90968543D01*
X170764673Y-91231792D01*
X171108201Y-91374438D01*
X171151917Y-91374476D01*
X171087408Y-91438873D01*
X170944762Y-91782401D01*
X170944438Y-92154367D01*
X171086483Y-92498143D01*
X171119600Y-92531318D01*
X171119600Y-94524498D01*
X167765000Y-91169898D01*
X167765000Y-87122000D01*
X167989250Y-87122000D01*
X168148000Y-86963250D01*
X168148000Y-86548431D01*
X168160440Y-86487000D01*
X168160440Y-85578000D01*
X168389560Y-85578000D01*
X168389560Y-86487000D01*
G36*
X159499560Y-85872000D02*
X159310500Y-85872000D01*
X159310500Y-85578000D01*
X159499560Y-85578000D01*
X159499560Y-85872000D01*
X159499560Y-85872000D01*
G37*
X159499560Y-85872000D02*
X159310500Y-85872000D01*
X159310500Y-85578000D01*
X159499560Y-85578000D01*
X159499560Y-85872000D01*
G36*
X183588400Y-81985702D02*
X183588400Y-85872000D01*
X183400440Y-85872000D01*
X183400440Y-84963000D01*
X183388000Y-84896887D01*
X183388000Y-84486750D01*
X183229250Y-84328000D01*
X182880690Y-84328000D01*
X182858933Y-84337012D01*
X182753000Y-84315560D01*
X181737000Y-84315560D01*
X181605338Y-84340334D01*
X181483000Y-84315560D01*
X180467000Y-84315560D01*
X180335338Y-84340334D01*
X180213000Y-84315560D01*
X179197000Y-84315560D01*
X179065338Y-84340334D01*
X178943000Y-84315560D01*
X177927000Y-84315560D01*
X177795338Y-84340334D01*
X177673000Y-84315560D01*
X176936242Y-84315560D01*
X180067442Y-81184360D01*
X180406715Y-81411054D01*
X180975000Y-81524093D01*
X181543285Y-81411054D01*
X182025054Y-81089147D01*
X182292133Y-80689435D01*
X183588400Y-81985702D01*
X183588400Y-81985702D01*
G37*
X183588400Y-81985702D02*
X183588400Y-85872000D01*
X183400440Y-85872000D01*
X183400440Y-84963000D01*
X183388000Y-84896887D01*
X183388000Y-84486750D01*
X183229250Y-84328000D01*
X182880690Y-84328000D01*
X182858933Y-84337012D01*
X182753000Y-84315560D01*
X181737000Y-84315560D01*
X181605338Y-84340334D01*
X181483000Y-84315560D01*
X180467000Y-84315560D01*
X180335338Y-84340334D01*
X180213000Y-84315560D01*
X179197000Y-84315560D01*
X179065338Y-84340334D01*
X178943000Y-84315560D01*
X177927000Y-84315560D01*
X177795338Y-84340334D01*
X177673000Y-84315560D01*
X176936242Y-84315560D01*
X180067442Y-81184360D01*
X180406715Y-81411054D01*
X180975000Y-81524093D01*
X181543285Y-81411054D01*
X182025054Y-81089147D01*
X182292133Y-80689435D01*
X183588400Y-81985702D01*
M02*
