G04 #@! TF.FileFunction,Copper,L2,Bot,Signal*
%FSLAX46Y46*%
G04 Gerber Fmt 4.6, Leading zero omitted, Abs format (unit mm)*
G04 Created by KiCad (PCBNEW 4.0.7-e2-6376~58~ubuntu17.04.1) date Wed Oct  4 00:11:51 2017*
%MOMM*%
%LPD*%
G01*
G04 APERTURE LIST*
%ADD10C,0.100000*%
%ADD11R,1.700000X1.700000*%
%ADD12O,1.700000X1.700000*%
%ADD13R,1.700000X1.200000*%
%ADD14O,1.700000X1.200000*%
%ADD15C,0.600000*%
%ADD16C,0.250000*%
%ADD17C,0.254000*%
G04 APERTURE END LIST*
D10*
D11*
X170180000Y-109220000D03*
D12*
X172720000Y-109220000D03*
X175260000Y-109220000D03*
X177800000Y-109220000D03*
X180340000Y-109220000D03*
X182880000Y-109220000D03*
X185420000Y-109220000D03*
X187960000Y-109220000D03*
D11*
X170180000Y-80010000D03*
D12*
X172720000Y-80010000D03*
X175260000Y-80010000D03*
X177800000Y-80010000D03*
X180340000Y-80010000D03*
X182880000Y-80010000D03*
X185420000Y-80010000D03*
X187960000Y-80010000D03*
D13*
X150495000Y-81915000D03*
D14*
X150495000Y-83915000D03*
D11*
X191135000Y-84455000D03*
D12*
X191135000Y-86995000D03*
X191135000Y-89535000D03*
X191135000Y-92075000D03*
X191135000Y-94615000D03*
X191135000Y-97155000D03*
X191135000Y-99695000D03*
X191135000Y-102235000D03*
X191135000Y-104775000D03*
D15*
X180240100Y-95339800D03*
X181260300Y-93140600D03*
X169907100Y-84241800D03*
X185269900Y-92298800D03*
X185795000Y-97700300D03*
X181549800Y-86682300D03*
X180739900Y-87151400D03*
X173866300Y-91975800D03*
X174142900Y-91153800D03*
X177414100Y-94124200D03*
X181562600Y-98262500D03*
X182368500Y-98296400D03*
X182537600Y-91850600D03*
X182651700Y-92767100D03*
X185907200Y-90747200D03*
X171764000Y-89251300D03*
X171998300Y-97699400D03*
X156938800Y-99479100D03*
X172104900Y-103953300D03*
X170256600Y-101389000D03*
X167342700Y-102861500D03*
X169048000Y-102949900D03*
X171638900Y-100977800D03*
X180356400Y-99708600D03*
X176777600Y-92591700D03*
X184938000Y-102981700D03*
X183454900Y-97554800D03*
X180449300Y-98285500D03*
X181978700Y-95366100D03*
X176096800Y-89115500D03*
X181523900Y-89910000D03*
X179305000Y-95656000D03*
X175469100Y-88490200D03*
D16*
X180340000Y-80010000D02*
X180340000Y-81185300D01*
X181912300Y-93667600D02*
X180240100Y-95339800D01*
X181912300Y-91080300D02*
X181912300Y-93667600D01*
X182637700Y-90354900D02*
X181912300Y-91080300D01*
X182637700Y-83483000D02*
X182637700Y-90354900D01*
X180340000Y-81185300D02*
X182637700Y-83483000D01*
X189445400Y-102235000D02*
X191135000Y-102235000D01*
X184895100Y-97684700D02*
X189445400Y-102235000D01*
X184895100Y-97411300D02*
X184895100Y-97684700D01*
X183512600Y-96028800D02*
X184895100Y-97411300D01*
X180929100Y-96028800D02*
X183512600Y-96028800D01*
X180240100Y-95339800D02*
X180929100Y-96028800D01*
X181260300Y-91095400D02*
X181260300Y-93140600D01*
X182187400Y-90168300D02*
X181260300Y-91095400D01*
X182187400Y-86329800D02*
X182187400Y-90168300D01*
X180099400Y-84241800D02*
X182187400Y-86329800D01*
X169907100Y-84241800D02*
X180099400Y-84241800D01*
X191135000Y-84455000D02*
X191135000Y-85630300D01*
X185269900Y-90467000D02*
X185269900Y-92298800D01*
X190106600Y-85630300D02*
X185269900Y-90467000D01*
X191135000Y-85630300D02*
X190106600Y-85630300D01*
X185795000Y-92823900D02*
X185795000Y-97700300D01*
X185269900Y-92298800D02*
X185795000Y-92823900D01*
X167099700Y-81915000D02*
X169004700Y-80010000D01*
X150495000Y-81915000D02*
X167099700Y-81915000D01*
X170180000Y-80010000D02*
X169004700Y-80010000D01*
X172743600Y-105481100D02*
X170180000Y-108044700D01*
X172743600Y-89691200D02*
X172743600Y-105481100D01*
X175917000Y-86517800D02*
X172743600Y-89691200D01*
X181385300Y-86517800D02*
X175917000Y-86517800D01*
X181549800Y-86682300D02*
X181385300Y-86517800D01*
X170180000Y-109220000D02*
X170180000Y-108044700D01*
X173194100Y-107570600D02*
X172720000Y-108044700D01*
X173194100Y-89879200D02*
X173194100Y-107570600D01*
X175921900Y-87151400D02*
X173194100Y-89879200D01*
X180739900Y-87151400D02*
X175921900Y-87151400D01*
X172720000Y-109220000D02*
X172720000Y-108044700D01*
X175260000Y-109220000D02*
X175260000Y-108044700D01*
X173866300Y-106651000D02*
X173866300Y-91975800D01*
X175260000Y-108044700D02*
X173866300Y-106651000D01*
X177800000Y-109220000D02*
X177800000Y-108044700D01*
X176174400Y-93185300D02*
X174142900Y-91153800D01*
X176174400Y-106419100D02*
X176174400Y-93185300D01*
X177800000Y-108044700D02*
X176174400Y-106419100D01*
X180340000Y-109220000D02*
X180340000Y-108044700D01*
X177414100Y-105118800D02*
X177414100Y-94124200D01*
X180340000Y-108044700D02*
X177414100Y-105118800D01*
X182880000Y-109220000D02*
X182880000Y-108044700D01*
X181562600Y-106727300D02*
X181562600Y-98262500D01*
X182880000Y-108044700D02*
X181562600Y-106727300D01*
X182368500Y-104993200D02*
X182368500Y-98296400D01*
X185420000Y-108044700D02*
X182368500Y-104993200D01*
X185420000Y-109220000D02*
X185420000Y-108044700D01*
X182880000Y-80010000D02*
X182880000Y-81185300D01*
X183132700Y-91255500D02*
X182537600Y-91850600D01*
X183132700Y-81438000D02*
X183132700Y-91255500D01*
X182880000Y-81185300D02*
X183132700Y-81438000D01*
X185420000Y-80010000D02*
X185420000Y-81185300D01*
X183780600Y-82824700D02*
X185420000Y-81185300D01*
X183780600Y-91638200D02*
X183780600Y-82824700D01*
X182651700Y-92767100D02*
X183780600Y-91638200D01*
X191135000Y-86995000D02*
X189959700Y-86995000D01*
X186207500Y-90747200D02*
X185907200Y-90747200D01*
X189959700Y-86995000D02*
X186207500Y-90747200D01*
X191135000Y-94615000D02*
X191135000Y-93439700D01*
X169271000Y-86758300D02*
X171764000Y-89251300D01*
X169271000Y-83916700D02*
X169271000Y-86758300D01*
X170629500Y-82558200D02*
X169271000Y-83916700D01*
X176985700Y-82558200D02*
X170629500Y-82558200D01*
X179070000Y-80473900D02*
X176985700Y-82558200D01*
X179070000Y-79608700D02*
X179070000Y-80473900D01*
X179867100Y-78811600D02*
X179070000Y-79608700D01*
X188474800Y-78811600D02*
X179867100Y-78811600D01*
X192310400Y-82647200D02*
X188474800Y-78811600D01*
X192310400Y-92631600D02*
X192310400Y-82647200D01*
X191502300Y-93439700D02*
X192310400Y-92631600D01*
X191135000Y-93439700D02*
X191502300Y-93439700D01*
X171764000Y-89251300D02*
X171764000Y-97290000D01*
X159127900Y-97290000D02*
X156938800Y-99479100D01*
X171764000Y-97290000D02*
X159127900Y-97290000D01*
X171998300Y-97524300D02*
X171998300Y-97699400D01*
X171764000Y-97290000D02*
X171998300Y-97524300D01*
X172264300Y-103793900D02*
X172104900Y-103953300D01*
X172264300Y-97965400D02*
X172264300Y-103793900D01*
X171998300Y-97699400D02*
X172264300Y-97965400D01*
X168815200Y-101389000D02*
X170256600Y-101389000D01*
X167342700Y-102861500D02*
X168815200Y-101389000D01*
X191135000Y-97155000D02*
X191135000Y-98330300D01*
X168976600Y-103021300D02*
X169048000Y-102949900D01*
X168976600Y-110193300D02*
X168976600Y-103021300D01*
X169178700Y-110395400D02*
X168976600Y-110193300D01*
X188461500Y-110395400D02*
X169178700Y-110395400D01*
X192348000Y-106508900D02*
X188461500Y-110395400D01*
X192348000Y-99176000D02*
X192348000Y-106508900D01*
X191502300Y-98330300D02*
X192348000Y-99176000D01*
X191135000Y-98330300D02*
X191502300Y-98330300D01*
X169666800Y-102949900D02*
X171638900Y-100977800D01*
X169048000Y-102949900D02*
X169666800Y-102949900D01*
X178200300Y-94014400D02*
X176777600Y-92591700D01*
X178200300Y-97552500D02*
X178200300Y-94014400D01*
X180356400Y-99708600D02*
X178200300Y-97552500D01*
X184938000Y-99037900D02*
X183454900Y-97554800D01*
X184938000Y-102981700D02*
X184938000Y-99037900D01*
X187960000Y-109220000D02*
X187960000Y-108044700D01*
X181103300Y-97631500D02*
X180449300Y-98285500D01*
X182598400Y-97631500D02*
X181103300Y-97631500D01*
X183245400Y-98278500D02*
X182598400Y-97631500D01*
X183245400Y-103330100D02*
X183245400Y-98278500D01*
X187960000Y-108044700D02*
X183245400Y-103330100D01*
X187960000Y-80010000D02*
X187960000Y-81185300D01*
X184374000Y-92970800D02*
X181978700Y-95366100D01*
X184374000Y-84771300D02*
X184374000Y-92970800D01*
X187960000Y-81185300D02*
X184374000Y-84771300D01*
X180729400Y-89115500D02*
X176096800Y-89115500D01*
X181523900Y-89910000D02*
X180729400Y-89115500D01*
X191135000Y-104775000D02*
X191135000Y-103599700D01*
X190173200Y-103599700D02*
X191135000Y-103599700D01*
X184444800Y-97871300D02*
X190173200Y-103599700D01*
X184444800Y-97598000D02*
X184444800Y-97871300D01*
X183776300Y-96929500D02*
X184444800Y-97598000D01*
X180578500Y-96929500D02*
X183776300Y-96929500D01*
X179305000Y-95656000D02*
X180578500Y-96929500D01*
X175469100Y-89891600D02*
X175469100Y-88490200D01*
X179305000Y-93727500D02*
X175469100Y-89891600D01*
X179305000Y-95656000D02*
X179305000Y-93727500D01*
D17*
G36*
X179329699Y-78274199D02*
X178723160Y-78880738D01*
X178566924Y-78738355D01*
X178156890Y-78568524D01*
X177927000Y-78689845D01*
X177927000Y-79883000D01*
X177947000Y-79883000D01*
X177947000Y-80137000D01*
X177927000Y-80137000D01*
X177927000Y-80157000D01*
X177673000Y-80157000D01*
X177673000Y-80137000D01*
X177653000Y-80137000D01*
X177653000Y-79883000D01*
X177673000Y-79883000D01*
X177673000Y-78689845D01*
X177443110Y-78568524D01*
X177033076Y-78738355D01*
X176604817Y-79128642D01*
X176537702Y-79271553D01*
X176310054Y-78930853D01*
X175828285Y-78608946D01*
X175260000Y-78495907D01*
X174691715Y-78608946D01*
X174209946Y-78930853D01*
X173990000Y-79260026D01*
X173770054Y-78930853D01*
X173288285Y-78608946D01*
X172720000Y-78495907D01*
X172151715Y-78608946D01*
X171669946Y-78930853D01*
X171642150Y-78972452D01*
X171633162Y-78924683D01*
X171494090Y-78708559D01*
X171281890Y-78563569D01*
X171030000Y-78512560D01*
X169330000Y-78512560D01*
X169094683Y-78556838D01*
X168878559Y-78695910D01*
X168733569Y-78908110D01*
X168682560Y-79160000D01*
X168682560Y-79328767D01*
X168467299Y-79472599D01*
X166784898Y-81155000D01*
X151962334Y-81155000D01*
X151948162Y-81079683D01*
X151809090Y-80863559D01*
X151596890Y-80718569D01*
X151345000Y-80667560D01*
X149645000Y-80667560D01*
X149409683Y-80711838D01*
X149193559Y-80850910D01*
X149048569Y-81063110D01*
X148997560Y-81315000D01*
X148997560Y-82515000D01*
X149041838Y-82750317D01*
X149180910Y-82966441D01*
X149333309Y-83070571D01*
X149313067Y-83085875D01*
X149066714Y-83505624D01*
X149051538Y-83597391D01*
X149176269Y-83788000D01*
X150368000Y-83788000D01*
X150368000Y-83768000D01*
X150622000Y-83768000D01*
X150622000Y-83788000D01*
X151813731Y-83788000D01*
X151938462Y-83597391D01*
X151923286Y-83505624D01*
X151676933Y-83085875D01*
X151655580Y-83069731D01*
X151796441Y-82979090D01*
X151941431Y-82766890D01*
X151960039Y-82675000D01*
X167099700Y-82675000D01*
X167390539Y-82617148D01*
X167637101Y-82452401D01*
X168831514Y-81257988D01*
X168865910Y-81311441D01*
X169078110Y-81456431D01*
X169330000Y-81507440D01*
X171030000Y-81507440D01*
X171265317Y-81463162D01*
X171481441Y-81324090D01*
X171626431Y-81111890D01*
X171640086Y-81044459D01*
X171669946Y-81089147D01*
X172151715Y-81411054D01*
X172720000Y-81524093D01*
X173288285Y-81411054D01*
X173770054Y-81089147D01*
X173990000Y-80759974D01*
X174209946Y-81089147D01*
X174691715Y-81411054D01*
X175260000Y-81524093D01*
X175828285Y-81411054D01*
X176310054Y-81089147D01*
X176537702Y-80748447D01*
X176604817Y-80891358D01*
X177033076Y-81281645D01*
X177142239Y-81326859D01*
X176670898Y-81798200D01*
X170629500Y-81798200D01*
X170338661Y-81856052D01*
X170092099Y-82020799D01*
X168733599Y-83379299D01*
X168568852Y-83625861D01*
X168511000Y-83916700D01*
X168511000Y-86758300D01*
X168568852Y-87049139D01*
X168733599Y-87295701D01*
X170828878Y-89390980D01*
X170828838Y-89436467D01*
X170970883Y-89780243D01*
X171004000Y-89813418D01*
X171004000Y-96530000D01*
X159127900Y-96530000D01*
X158837061Y-96587852D01*
X158590499Y-96752599D01*
X156799120Y-98543978D01*
X156753633Y-98543938D01*
X156409857Y-98685983D01*
X156146608Y-98948773D01*
X156003962Y-99292301D01*
X156003638Y-99664267D01*
X156145683Y-100008043D01*
X156408473Y-100271292D01*
X156752001Y-100413938D01*
X157123967Y-100414262D01*
X157467743Y-100272217D01*
X157730992Y-100009427D01*
X157873638Y-99665899D01*
X157873679Y-99619023D01*
X159442702Y-98050000D01*
X171131493Y-98050000D01*
X171205183Y-98228343D01*
X171467973Y-98491592D01*
X171504300Y-98506676D01*
X171504300Y-100042682D01*
X171453733Y-100042638D01*
X171109957Y-100184683D01*
X170846708Y-100447473D01*
X170785026Y-100596019D01*
X170443399Y-100454162D01*
X170071433Y-100453838D01*
X169727657Y-100595883D01*
X169694482Y-100629000D01*
X168815200Y-100629000D01*
X168572614Y-100677254D01*
X168524360Y-100686852D01*
X168277799Y-100851599D01*
X167203020Y-101926378D01*
X167157533Y-101926338D01*
X166813757Y-102068383D01*
X166550508Y-102331173D01*
X166407862Y-102674701D01*
X166407538Y-103046667D01*
X166549583Y-103390443D01*
X166812373Y-103653692D01*
X167155901Y-103796338D01*
X167527867Y-103796662D01*
X167871643Y-103654617D01*
X168134892Y-103391827D01*
X168177014Y-103290386D01*
X168216600Y-103386191D01*
X168216600Y-110193300D01*
X168274452Y-110484139D01*
X168439199Y-110730701D01*
X168641299Y-110932801D01*
X168816700Y-111050000D01*
X148884091Y-111050000D01*
X146760000Y-108925908D01*
X146760000Y-94323599D01*
X148124699Y-94323599D01*
X148388281Y-94961515D01*
X148875918Y-95450004D01*
X149513373Y-95714699D01*
X150203599Y-95715301D01*
X150841515Y-95451719D01*
X151330004Y-94964082D01*
X151594699Y-94326627D01*
X151595301Y-93636401D01*
X151331719Y-92998485D01*
X150844082Y-92509996D01*
X150206627Y-92245301D01*
X149516401Y-92244699D01*
X148878485Y-92508281D01*
X148389996Y-92995918D01*
X148125301Y-93633373D01*
X148124699Y-94323599D01*
X146760000Y-94323599D01*
X146760000Y-84232609D01*
X149051538Y-84232609D01*
X149066714Y-84324376D01*
X149313067Y-84744125D01*
X149701299Y-85037647D01*
X150172304Y-85160256D01*
X150368000Y-84997547D01*
X150368000Y-84042000D01*
X150622000Y-84042000D01*
X150622000Y-84997547D01*
X150817696Y-85160256D01*
X151288701Y-85037647D01*
X151676933Y-84744125D01*
X151923286Y-84324376D01*
X151938462Y-84232609D01*
X151813731Y-84042000D01*
X150622000Y-84042000D01*
X150368000Y-84042000D01*
X149176269Y-84042000D01*
X149051538Y-84232609D01*
X146760000Y-84232609D01*
X146760000Y-80304092D01*
X148884091Y-78180000D01*
X179470678Y-78180000D01*
X179329699Y-78274199D01*
X179329699Y-78274199D01*
G37*
X179329699Y-78274199D02*
X178723160Y-78880738D01*
X178566924Y-78738355D01*
X178156890Y-78568524D01*
X177927000Y-78689845D01*
X177927000Y-79883000D01*
X177947000Y-79883000D01*
X177947000Y-80137000D01*
X177927000Y-80137000D01*
X177927000Y-80157000D01*
X177673000Y-80157000D01*
X177673000Y-80137000D01*
X177653000Y-80137000D01*
X177653000Y-79883000D01*
X177673000Y-79883000D01*
X177673000Y-78689845D01*
X177443110Y-78568524D01*
X177033076Y-78738355D01*
X176604817Y-79128642D01*
X176537702Y-79271553D01*
X176310054Y-78930853D01*
X175828285Y-78608946D01*
X175260000Y-78495907D01*
X174691715Y-78608946D01*
X174209946Y-78930853D01*
X173990000Y-79260026D01*
X173770054Y-78930853D01*
X173288285Y-78608946D01*
X172720000Y-78495907D01*
X172151715Y-78608946D01*
X171669946Y-78930853D01*
X171642150Y-78972452D01*
X171633162Y-78924683D01*
X171494090Y-78708559D01*
X171281890Y-78563569D01*
X171030000Y-78512560D01*
X169330000Y-78512560D01*
X169094683Y-78556838D01*
X168878559Y-78695910D01*
X168733569Y-78908110D01*
X168682560Y-79160000D01*
X168682560Y-79328767D01*
X168467299Y-79472599D01*
X166784898Y-81155000D01*
X151962334Y-81155000D01*
X151948162Y-81079683D01*
X151809090Y-80863559D01*
X151596890Y-80718569D01*
X151345000Y-80667560D01*
X149645000Y-80667560D01*
X149409683Y-80711838D01*
X149193559Y-80850910D01*
X149048569Y-81063110D01*
X148997560Y-81315000D01*
X148997560Y-82515000D01*
X149041838Y-82750317D01*
X149180910Y-82966441D01*
X149333309Y-83070571D01*
X149313067Y-83085875D01*
X149066714Y-83505624D01*
X149051538Y-83597391D01*
X149176269Y-83788000D01*
X150368000Y-83788000D01*
X150368000Y-83768000D01*
X150622000Y-83768000D01*
X150622000Y-83788000D01*
X151813731Y-83788000D01*
X151938462Y-83597391D01*
X151923286Y-83505624D01*
X151676933Y-83085875D01*
X151655580Y-83069731D01*
X151796441Y-82979090D01*
X151941431Y-82766890D01*
X151960039Y-82675000D01*
X167099700Y-82675000D01*
X167390539Y-82617148D01*
X167637101Y-82452401D01*
X168831514Y-81257988D01*
X168865910Y-81311441D01*
X169078110Y-81456431D01*
X169330000Y-81507440D01*
X171030000Y-81507440D01*
X171265317Y-81463162D01*
X171481441Y-81324090D01*
X171626431Y-81111890D01*
X171640086Y-81044459D01*
X171669946Y-81089147D01*
X172151715Y-81411054D01*
X172720000Y-81524093D01*
X173288285Y-81411054D01*
X173770054Y-81089147D01*
X173990000Y-80759974D01*
X174209946Y-81089147D01*
X174691715Y-81411054D01*
X175260000Y-81524093D01*
X175828285Y-81411054D01*
X176310054Y-81089147D01*
X176537702Y-80748447D01*
X176604817Y-80891358D01*
X177033076Y-81281645D01*
X177142239Y-81326859D01*
X176670898Y-81798200D01*
X170629500Y-81798200D01*
X170338661Y-81856052D01*
X170092099Y-82020799D01*
X168733599Y-83379299D01*
X168568852Y-83625861D01*
X168511000Y-83916700D01*
X168511000Y-86758300D01*
X168568852Y-87049139D01*
X168733599Y-87295701D01*
X170828878Y-89390980D01*
X170828838Y-89436467D01*
X170970883Y-89780243D01*
X171004000Y-89813418D01*
X171004000Y-96530000D01*
X159127900Y-96530000D01*
X158837061Y-96587852D01*
X158590499Y-96752599D01*
X156799120Y-98543978D01*
X156753633Y-98543938D01*
X156409857Y-98685983D01*
X156146608Y-98948773D01*
X156003962Y-99292301D01*
X156003638Y-99664267D01*
X156145683Y-100008043D01*
X156408473Y-100271292D01*
X156752001Y-100413938D01*
X157123967Y-100414262D01*
X157467743Y-100272217D01*
X157730992Y-100009427D01*
X157873638Y-99665899D01*
X157873679Y-99619023D01*
X159442702Y-98050000D01*
X171131493Y-98050000D01*
X171205183Y-98228343D01*
X171467973Y-98491592D01*
X171504300Y-98506676D01*
X171504300Y-100042682D01*
X171453733Y-100042638D01*
X171109957Y-100184683D01*
X170846708Y-100447473D01*
X170785026Y-100596019D01*
X170443399Y-100454162D01*
X170071433Y-100453838D01*
X169727657Y-100595883D01*
X169694482Y-100629000D01*
X168815200Y-100629000D01*
X168572614Y-100677254D01*
X168524360Y-100686852D01*
X168277799Y-100851599D01*
X167203020Y-101926378D01*
X167157533Y-101926338D01*
X166813757Y-102068383D01*
X166550508Y-102331173D01*
X166407862Y-102674701D01*
X166407538Y-103046667D01*
X166549583Y-103390443D01*
X166812373Y-103653692D01*
X167155901Y-103796338D01*
X167527867Y-103796662D01*
X167871643Y-103654617D01*
X168134892Y-103391827D01*
X168177014Y-103290386D01*
X168216600Y-103386191D01*
X168216600Y-110193300D01*
X168274452Y-110484139D01*
X168439199Y-110730701D01*
X168641299Y-110932801D01*
X168816700Y-111050000D01*
X148884091Y-111050000D01*
X146760000Y-108925908D01*
X146760000Y-94323599D01*
X148124699Y-94323599D01*
X148388281Y-94961515D01*
X148875918Y-95450004D01*
X149513373Y-95714699D01*
X150203599Y-95715301D01*
X150841515Y-95451719D01*
X151330004Y-94964082D01*
X151594699Y-94326627D01*
X151595301Y-93636401D01*
X151331719Y-92998485D01*
X150844082Y-92509996D01*
X150206627Y-92245301D01*
X149516401Y-92244699D01*
X148878485Y-92508281D01*
X148389996Y-92995918D01*
X148125301Y-93633373D01*
X148124699Y-94323599D01*
X146760000Y-94323599D01*
X146760000Y-84232609D01*
X149051538Y-84232609D01*
X149066714Y-84324376D01*
X149313067Y-84744125D01*
X149701299Y-85037647D01*
X150172304Y-85160256D01*
X150368000Y-84997547D01*
X150368000Y-84042000D01*
X150622000Y-84042000D01*
X150622000Y-84997547D01*
X150817696Y-85160256D01*
X151288701Y-85037647D01*
X151676933Y-84744125D01*
X151923286Y-84324376D01*
X151938462Y-84232609D01*
X151813731Y-84042000D01*
X150622000Y-84042000D01*
X150368000Y-84042000D01*
X149176269Y-84042000D01*
X149051538Y-84232609D01*
X146760000Y-84232609D01*
X146760000Y-80304092D01*
X148884091Y-78180000D01*
X179470678Y-78180000D01*
X179329699Y-78274199D01*
G36*
X191262000Y-102108000D02*
X191282000Y-102108000D01*
X191282000Y-102362000D01*
X191262000Y-102362000D01*
X191262000Y-102382000D01*
X191008000Y-102382000D01*
X191008000Y-102362000D01*
X190988000Y-102362000D01*
X190988000Y-102108000D01*
X191008000Y-102108000D01*
X191008000Y-102088000D01*
X191262000Y-102088000D01*
X191262000Y-102108000D01*
X191262000Y-102108000D01*
G37*
X191262000Y-102108000D02*
X191282000Y-102108000D01*
X191282000Y-102362000D01*
X191262000Y-102362000D01*
X191262000Y-102382000D01*
X191008000Y-102382000D01*
X191008000Y-102362000D01*
X190988000Y-102362000D01*
X190988000Y-102108000D01*
X191008000Y-102108000D01*
X191008000Y-102088000D01*
X191262000Y-102088000D01*
X191262000Y-102108000D01*
G36*
X185035000Y-97137837D02*
X185034286Y-97138550D01*
X184982201Y-97060599D01*
X184313701Y-96392099D01*
X184067139Y-96227352D01*
X183776300Y-96169500D01*
X182482756Y-96169500D01*
X182507643Y-96159217D01*
X182770892Y-95896427D01*
X182913538Y-95552899D01*
X182913579Y-95506023D01*
X184911401Y-93508201D01*
X185035000Y-93323222D01*
X185035000Y-97137837D01*
X185035000Y-97137837D01*
G37*
X185035000Y-97137837D02*
X185034286Y-97138550D01*
X184982201Y-97060599D01*
X184313701Y-96392099D01*
X184067139Y-96227352D01*
X183776300Y-96169500D01*
X182482756Y-96169500D01*
X182507643Y-96159217D01*
X182770892Y-95896427D01*
X182913538Y-95552899D01*
X182913579Y-95506023D01*
X184911401Y-93508201D01*
X185035000Y-93323222D01*
X185035000Y-97137837D01*
G36*
X180588778Y-90049680D02*
X180588738Y-90095167D01*
X180730783Y-90438943D01*
X180786320Y-90494578D01*
X180722899Y-90557999D01*
X180558152Y-90804561D01*
X180500300Y-91095400D01*
X180500300Y-92578137D01*
X180468108Y-92610273D01*
X180325462Y-92953801D01*
X180325138Y-93325767D01*
X180467183Y-93669543D01*
X180729973Y-93932792D01*
X181073501Y-94075438D01*
X181445467Y-94075762D01*
X181789243Y-93933717D01*
X182052492Y-93670927D01*
X182105464Y-93543356D01*
X182121373Y-93559292D01*
X182464901Y-93701938D01*
X182567970Y-93702028D01*
X181839020Y-94430978D01*
X181793533Y-94430938D01*
X181449757Y-94572983D01*
X181186508Y-94835773D01*
X181043862Y-95179301D01*
X181043538Y-95551267D01*
X181185583Y-95895043D01*
X181448373Y-96158292D01*
X181475365Y-96169500D01*
X180893302Y-96169500D01*
X180240122Y-95516320D01*
X180240162Y-95470833D01*
X180098117Y-95127057D01*
X180065000Y-95093882D01*
X180065000Y-93727500D01*
X180007148Y-93436661D01*
X179842401Y-93190099D01*
X176579872Y-89927570D01*
X176625743Y-89908617D01*
X176658918Y-89875500D01*
X180414598Y-89875500D01*
X180588778Y-90049680D01*
X180588778Y-90049680D01*
G37*
X180588778Y-90049680D02*
X180588738Y-90095167D01*
X180730783Y-90438943D01*
X180786320Y-90494578D01*
X180722899Y-90557999D01*
X180558152Y-90804561D01*
X180500300Y-91095400D01*
X180500300Y-92578137D01*
X180468108Y-92610273D01*
X180325462Y-92953801D01*
X180325138Y-93325767D01*
X180467183Y-93669543D01*
X180729973Y-93932792D01*
X181073501Y-94075438D01*
X181445467Y-94075762D01*
X181789243Y-93933717D01*
X182052492Y-93670927D01*
X182105464Y-93543356D01*
X182121373Y-93559292D01*
X182464901Y-93701938D01*
X182567970Y-93702028D01*
X181839020Y-94430978D01*
X181793533Y-94430938D01*
X181449757Y-94572983D01*
X181186508Y-94835773D01*
X181043862Y-95179301D01*
X181043538Y-95551267D01*
X181185583Y-95895043D01*
X181448373Y-96158292D01*
X181475365Y-96169500D01*
X180893302Y-96169500D01*
X180240122Y-95516320D01*
X180240162Y-95470833D01*
X180098117Y-95127057D01*
X180065000Y-95093882D01*
X180065000Y-93727500D01*
X180007148Y-93436661D01*
X179842401Y-93190099D01*
X176579872Y-89927570D01*
X176625743Y-89908617D01*
X176658918Y-89875500D01*
X180414598Y-89875500D01*
X180588778Y-90049680D01*
G36*
X180467000Y-79883000D02*
X180487000Y-79883000D01*
X180487000Y-80137000D01*
X180467000Y-80137000D01*
X180467000Y-81330155D01*
X180696890Y-81451476D01*
X181106924Y-81281645D01*
X181535183Y-80891358D01*
X181602298Y-80748447D01*
X181829946Y-81089147D01*
X182142402Y-81297923D01*
X182177852Y-81476139D01*
X182342599Y-81722701D01*
X182372700Y-81752802D01*
X182372700Y-85440298D01*
X180636801Y-83704399D01*
X180390239Y-83539652D01*
X180099400Y-83481800D01*
X170780702Y-83481800D01*
X170944302Y-83318200D01*
X176985700Y-83318200D01*
X177276539Y-83260348D01*
X177523101Y-83095601D01*
X179449592Y-81169110D01*
X179573076Y-81281645D01*
X179983110Y-81451476D01*
X180213000Y-81330155D01*
X180213000Y-80137000D01*
X180193000Y-80137000D01*
X180193000Y-79883000D01*
X180213000Y-79883000D01*
X180213000Y-79863000D01*
X180467000Y-79863000D01*
X180467000Y-79883000D01*
X180467000Y-79883000D01*
G37*
X180467000Y-79883000D02*
X180487000Y-79883000D01*
X180487000Y-80137000D01*
X180467000Y-80137000D01*
X180467000Y-81330155D01*
X180696890Y-81451476D01*
X181106924Y-81281645D01*
X181535183Y-80891358D01*
X181602298Y-80748447D01*
X181829946Y-81089147D01*
X182142402Y-81297923D01*
X182177852Y-81476139D01*
X182342599Y-81722701D01*
X182372700Y-81752802D01*
X182372700Y-85440298D01*
X180636801Y-83704399D01*
X180390239Y-83539652D01*
X180099400Y-83481800D01*
X170780702Y-83481800D01*
X170944302Y-83318200D01*
X176985700Y-83318200D01*
X177276539Y-83260348D01*
X177523101Y-83095601D01*
X179449592Y-81169110D01*
X179573076Y-81281645D01*
X179983110Y-81451476D01*
X180213000Y-81330155D01*
X180213000Y-80137000D01*
X180193000Y-80137000D01*
X180193000Y-79883000D01*
X180213000Y-79883000D01*
X180213000Y-79863000D01*
X180467000Y-79863000D01*
X180467000Y-79883000D01*
M02*
