G04 #@! TF.FileFunction,Copper,L1,Top,Signal*
%FSLAX46Y46*%
G04 Gerber Fmt 4.6, Leading zero omitted, Abs format (unit mm)*
G04 Created by KiCad (PCBNEW 4.0.7-e1-6374~58~ubuntu16.04.1) date Wed Aug  2 10:41:50 2017*
%MOMM*%
%LPD*%
G01*
G04 APERTURE LIST*
%ADD10C,0.100000*%
%ADD11R,1.000760X1.000760*%
%ADD12R,1.600000X0.550000*%
%ADD13R,0.550000X1.600000*%
%ADD14R,1.200000X0.750000*%
%ADD15R,0.750000X1.200000*%
%ADD16R,1.500000X3.200000*%
%ADD17R,3.200000X1.500000*%
%ADD18R,1.200000X0.900000*%
%ADD19R,0.900000X1.200000*%
%ADD20R,1.550000X0.600000*%
%ADD21R,0.900000X0.800000*%
%ADD22R,1.220000X0.650000*%
%ADD23R,1.700000X0.700000*%
%ADD24R,1.700000X1.200000*%
%ADD25O,1.700000X1.200000*%
%ADD26R,1.700000X1.700000*%
%ADD27O,1.700000X1.700000*%
%ADD28R,2.997200X1.597660*%
%ADD29C,0.600000*%
%ADD30C,0.250000*%
%ADD31C,0.254000*%
G04 APERTURE END LIST*
D10*
D11*
X137215880Y-130634740D03*
X140914120Y-124635260D03*
X140914120Y-130634740D03*
X137215880Y-124635260D03*
D12*
X124655000Y-116580000D03*
X124655000Y-117380000D03*
X124655000Y-118180000D03*
X124655000Y-118980000D03*
X124655000Y-119780000D03*
X124655000Y-120580000D03*
X124655000Y-121380000D03*
X124655000Y-122180000D03*
D13*
X126105000Y-123630000D03*
X126905000Y-123630000D03*
X127705000Y-123630000D03*
X128505000Y-123630000D03*
X129305000Y-123630000D03*
X130105000Y-123630000D03*
X130905000Y-123630000D03*
X131705000Y-123630000D03*
D12*
X133155000Y-122180000D03*
X133155000Y-121380000D03*
X133155000Y-120580000D03*
X133155000Y-119780000D03*
X133155000Y-118980000D03*
X133155000Y-118180000D03*
X133155000Y-117380000D03*
X133155000Y-116580000D03*
D13*
X131705000Y-115130000D03*
X130905000Y-115130000D03*
X130105000Y-115130000D03*
X129305000Y-115130000D03*
X128505000Y-115130000D03*
X127705000Y-115130000D03*
X126905000Y-115130000D03*
X126105000Y-115130000D03*
D14*
X124780000Y-112395000D03*
X126680000Y-112395000D03*
X120330000Y-119380000D03*
X118430000Y-119380000D03*
D15*
X135890000Y-119065000D03*
X135890000Y-120965000D03*
X142875000Y-117160000D03*
X142875000Y-119060000D03*
D16*
X110490000Y-128175000D03*
X110490000Y-132175000D03*
D17*
X111665000Y-123825000D03*
X115665000Y-123825000D03*
D15*
X121285000Y-114620000D03*
X121285000Y-116520000D03*
X139065000Y-119065000D03*
X139065000Y-120965000D03*
D18*
X119550000Y-112395000D03*
X121750000Y-112395000D03*
X129710000Y-112395000D03*
X131910000Y-112395000D03*
X135425000Y-134620000D03*
X137625000Y-134620000D03*
D19*
X133985000Y-129370000D03*
X133985000Y-127170000D03*
X142240000Y-114765000D03*
X142240000Y-112565000D03*
D18*
X147150000Y-116205000D03*
X144950000Y-116205000D03*
X147150000Y-113665000D03*
X144950000Y-113665000D03*
X114130000Y-120650000D03*
X111930000Y-120650000D03*
X134790000Y-112395000D03*
X136990000Y-112395000D03*
D20*
X141130000Y-140970000D03*
X141130000Y-139700000D03*
X141130000Y-138430000D03*
X141130000Y-137160000D03*
X135730000Y-137160000D03*
X135730000Y-138430000D03*
X135730000Y-139700000D03*
X135730000Y-140970000D03*
D21*
X118475000Y-116520000D03*
X118475000Y-114620000D03*
X116475000Y-115570000D03*
D22*
X136485000Y-114620000D03*
X136485000Y-116520000D03*
X139105000Y-115570000D03*
D23*
X120650000Y-124390000D03*
X120650000Y-123190000D03*
X120650000Y-121990000D03*
D24*
X113030000Y-114300000D03*
D25*
X113030000Y-116300000D03*
D26*
X151130000Y-140970000D03*
D27*
X153670000Y-140970000D03*
X156210000Y-140970000D03*
X158750000Y-140970000D03*
X161290000Y-140970000D03*
X163830000Y-140970000D03*
X166370000Y-140970000D03*
D26*
X151130000Y-113665000D03*
D27*
X153670000Y-113665000D03*
X156210000Y-113665000D03*
X158750000Y-113665000D03*
X161290000Y-113665000D03*
X163830000Y-113665000D03*
X166370000Y-113665000D03*
D28*
X114556540Y-128620520D03*
X114554000Y-130619500D03*
X114554000Y-132621020D03*
X114554000Y-134620000D03*
X114554000Y-136618980D03*
X114554000Y-138620500D03*
X114554000Y-140619480D03*
X130556000Y-140619480D03*
X130556000Y-138620500D03*
X130556000Y-136618980D03*
X130556000Y-134620000D03*
X130556000Y-132621020D03*
X130556000Y-130619500D03*
X130556000Y-128620520D03*
D26*
X146050000Y-122555000D03*
D27*
X146050000Y-125095000D03*
X146050000Y-127635000D03*
X146050000Y-130175000D03*
X146050000Y-132715000D03*
X146050000Y-135255000D03*
D29*
X144780000Y-131445000D03*
X147320000Y-120650000D03*
X140335000Y-119380000D03*
X141605000Y-137160000D03*
X140970000Y-132080000D03*
X121285000Y-118110000D03*
X118745000Y-118110000D03*
X139065000Y-114300000D03*
X134620000Y-114300000D03*
X133350000Y-137160000D03*
X139700000Y-137795000D03*
X125095000Y-112395000D03*
X132080000Y-113030000D03*
X114300000Y-120650000D03*
X120650000Y-120015000D03*
X136485000Y-116520000D03*
X141605000Y-116205000D03*
X135255000Y-128905000D03*
X134620000Y-123825000D03*
X137160000Y-139700000D03*
X139700000Y-139065000D03*
X147320000Y-113665000D03*
X142875000Y-113665000D03*
X142240000Y-111125000D03*
X128270000Y-113030000D03*
X127635000Y-118745000D03*
X127000000Y-119380000D03*
X125730000Y-125095000D03*
X125095000Y-128905000D03*
X123190000Y-133350000D03*
X127635000Y-129540000D03*
X127635000Y-125095000D03*
X144950000Y-113665000D03*
X130175000Y-116205000D03*
X144780000Y-116205000D03*
X130175000Y-117475000D03*
X134620000Y-118110000D03*
X131445000Y-117475000D03*
X128270000Y-125730000D03*
X137160000Y-133350000D03*
X139700000Y-133985000D03*
X135890000Y-135890000D03*
X132715000Y-132080000D03*
X132715000Y-126365000D03*
X123825000Y-128270000D03*
X133350000Y-123825000D03*
X138430000Y-138430000D03*
X127000000Y-130810000D03*
X126365000Y-121920000D03*
X127635000Y-138430000D03*
X135255000Y-138430000D03*
X128270000Y-116840000D03*
X127635000Y-117475000D03*
X115570000Y-130810000D03*
X123190000Y-116205000D03*
D30*
X141315000Y-131735000D02*
X141315000Y-131610000D01*
X141315440Y-131521200D02*
X144703800Y-131521200D01*
X144703800Y-131521200D02*
X144780000Y-131445000D01*
X140020000Y-119065000D02*
X139065000Y-119065000D01*
X140020000Y-119065000D02*
X140335000Y-119380000D01*
X137215880Y-130634740D02*
X137215880Y-132024120D01*
X141605000Y-137160000D02*
X141130000Y-137160000D01*
X137271760Y-132080000D02*
X140970000Y-132080000D01*
X137215880Y-132024120D02*
X137271760Y-132080000D01*
X124655000Y-119780000D02*
X123590000Y-119780000D01*
X123590000Y-119780000D02*
X123190000Y-119380000D01*
X124655000Y-118180000D02*
X125165000Y-118180000D01*
X122625000Y-118180000D02*
X121355000Y-118180000D01*
X121355000Y-118180000D02*
X121285000Y-118110000D01*
X124655000Y-118180000D02*
X122625000Y-118180000D01*
X122625000Y-118180000D02*
X122555000Y-118110000D01*
X135890000Y-119065000D02*
X135890000Y-117475000D01*
X134620000Y-116205000D02*
X134620000Y-114300000D01*
X135890000Y-117475000D02*
X134620000Y-116205000D01*
X135655000Y-118980000D02*
X135805000Y-118980000D01*
X135805000Y-118980000D02*
X135890000Y-119065000D01*
X141130000Y-137160000D02*
X140335000Y-137160000D01*
X140335000Y-137160000D02*
X139700000Y-137795000D01*
X131910000Y-112395000D02*
X131910000Y-112860000D01*
X125095000Y-112395000D02*
X124780000Y-112395000D01*
X131910000Y-112860000D02*
X132080000Y-113030000D01*
X133155000Y-118980000D02*
X135655000Y-118980000D01*
X135655000Y-118980000D02*
X135890000Y-118745000D01*
X122555000Y-114935000D02*
X122555000Y-115250000D01*
X122555000Y-115250000D02*
X121285000Y-116520000D01*
X124655000Y-118980000D02*
X125965000Y-118980000D01*
X126365000Y-119380000D02*
X126365000Y-120580000D01*
X125965000Y-118980000D02*
X126365000Y-119380000D01*
X124655000Y-120580000D02*
X121990000Y-120580000D01*
X121990000Y-120580000D02*
X120790000Y-119380000D01*
X147320000Y-116410946D02*
X147320000Y-113835000D01*
X147320000Y-113835000D02*
X147150000Y-113665000D01*
X147354324Y-116410946D02*
X147320000Y-116410946D01*
X147320000Y-116410946D02*
X147284054Y-116410946D01*
X147284054Y-116410946D02*
X147150000Y-116205000D01*
X120330000Y-119380000D02*
X120330000Y-119695000D01*
X120330000Y-119695000D02*
X120650000Y-120015000D01*
X114300000Y-120650000D02*
X114130000Y-120650000D01*
X142240000Y-114765000D02*
X142240000Y-115570000D01*
X141605000Y-116205000D02*
X142240000Y-115570000D01*
X136805000Y-116840000D02*
X136485000Y-116520000D01*
X139065000Y-120965000D02*
X139065000Y-120650000D01*
X139065000Y-120650000D02*
X136485000Y-118070000D01*
X136485000Y-118070000D02*
X136485000Y-116520000D01*
X134620000Y-121920000D02*
X134620000Y-123825000D01*
X134790000Y-129370000D02*
X133985000Y-129370000D01*
X135255000Y-128905000D02*
X134790000Y-129370000D01*
X133155000Y-121380000D02*
X134080000Y-121380000D01*
X138110000Y-121920000D02*
X139065000Y-120965000D01*
X134620000Y-121920000D02*
X138110000Y-121920000D01*
X134080000Y-121380000D02*
X134620000Y-121920000D01*
X141130000Y-138430000D02*
X140335000Y-138430000D01*
X140335000Y-138430000D02*
X139700000Y-139065000D01*
X135425000Y-134620000D02*
X135890000Y-134620000D01*
X135890000Y-134620000D02*
X137160000Y-135890000D01*
X137160000Y-139700000D02*
X135730000Y-139700000D01*
X137160000Y-135890000D02*
X137160000Y-139700000D01*
X135730000Y-140970000D02*
X133985000Y-140970000D01*
X133985000Y-140970000D02*
X133985000Y-139700000D01*
X142240000Y-114765000D02*
X142240000Y-114300000D01*
X142240000Y-114300000D02*
X142875000Y-113665000D01*
X147320000Y-113665000D02*
X147150000Y-113665000D01*
X136990000Y-112395000D02*
X137160000Y-112395000D01*
X137160000Y-112395000D02*
X137795000Y-113030000D01*
X137795000Y-115210000D02*
X136485000Y-116520000D01*
X137795000Y-113030000D02*
X137795000Y-115210000D01*
X135730000Y-139700000D02*
X133985000Y-139700000D01*
X133985000Y-139700000D02*
X133350000Y-139700000D01*
X132270500Y-138620500D02*
X130556000Y-138620500D01*
X133350000Y-139700000D02*
X132270500Y-138620500D01*
X153670000Y-113665000D02*
X156210000Y-113665000D01*
X153670000Y-113665000D02*
X153670000Y-114300000D01*
X153670000Y-114300000D02*
X152400000Y-115570000D01*
X152400000Y-115570000D02*
X147354324Y-116410946D01*
X124655000Y-120580000D02*
X126365000Y-120580000D01*
X126365000Y-120580000D02*
X130105000Y-120580000D01*
X130105000Y-120580000D02*
X130905000Y-121380000D01*
X130905000Y-121380000D02*
X133155000Y-121380000D01*
X135425000Y-134620000D02*
X134620000Y-134620000D01*
X133985000Y-133985000D02*
X133985000Y-129370000D01*
X134620000Y-134620000D02*
X133985000Y-133985000D01*
X120330000Y-119380000D02*
X120330000Y-118425000D01*
X120015000Y-115890000D02*
X121285000Y-114620000D01*
X120015000Y-118110000D02*
X120015000Y-115890000D01*
X120330000Y-118425000D02*
X120015000Y-118110000D01*
X118475000Y-114620000D02*
X121285000Y-114620000D01*
X133155000Y-119780000D02*
X134705000Y-119780000D01*
X134705000Y-119780000D02*
X135890000Y-120965000D01*
X142875000Y-117160000D02*
X144465000Y-117160000D01*
X146050000Y-118745000D02*
X146050000Y-122555000D01*
X144465000Y-117160000D02*
X146050000Y-118745000D01*
X142240000Y-112565000D02*
X143045000Y-112565000D01*
X143510000Y-116525000D02*
X142875000Y-117160000D01*
X143510000Y-113030000D02*
X143510000Y-116525000D01*
X143045000Y-112565000D02*
X143510000Y-113030000D01*
X128505000Y-115130000D02*
X128505000Y-113265000D01*
X142240000Y-111125000D02*
X142240000Y-112565000D01*
X128505000Y-113265000D02*
X128270000Y-113030000D01*
X142875000Y-119060000D02*
X142875000Y-121285000D01*
X140914120Y-123245880D02*
X140914120Y-124635260D01*
X142875000Y-121285000D02*
X140914120Y-123245880D01*
X142875000Y-119060000D02*
X142560000Y-119060000D01*
X113030000Y-114300000D02*
X113030000Y-111125000D01*
X147955000Y-110490000D02*
X151130000Y-113665000D01*
X113665000Y-110490000D02*
X147955000Y-110490000D01*
X113030000Y-111125000D02*
X113665000Y-110490000D01*
X110490000Y-128175000D02*
X110490000Y-125000000D01*
X110490000Y-125000000D02*
X111930000Y-123560000D01*
X111930000Y-123560000D02*
X111930000Y-120650000D01*
X111930000Y-120650000D02*
X111930000Y-119550000D01*
X111760000Y-115570000D02*
X113030000Y-114300000D01*
X111760000Y-119380000D02*
X111760000Y-115570000D01*
X111930000Y-119550000D02*
X111760000Y-119380000D01*
X119550000Y-112395000D02*
X116840000Y-112395000D01*
X116475000Y-112760000D02*
X116475000Y-115570000D01*
X116840000Y-112395000D02*
X116475000Y-112760000D01*
X113030000Y-114300000D02*
X114300000Y-114300000D01*
X115570000Y-115570000D02*
X116475000Y-115570000D01*
X114300000Y-114300000D02*
X115570000Y-115570000D01*
X126105000Y-116580000D02*
X127635000Y-118745000D01*
X124655000Y-116580000D02*
X126105000Y-116580000D01*
X124655000Y-117380000D02*
X125635000Y-117380000D01*
X126365000Y-118110000D02*
X127000000Y-119380000D01*
X125635000Y-117380000D02*
X126365000Y-118110000D01*
X126105000Y-123630000D02*
X126105000Y-124720000D01*
X126105000Y-124720000D02*
X125730000Y-125095000D01*
X126905000Y-123630000D02*
X126905000Y-127095000D01*
X126905000Y-127095000D02*
X125095000Y-128905000D01*
X127705000Y-123630000D02*
X127705000Y-125025000D01*
X127000000Y-129540000D02*
X123190000Y-133350000D01*
X127635000Y-129540000D02*
X127000000Y-129540000D01*
X127705000Y-125025000D02*
X127635000Y-125095000D01*
X130105000Y-115130000D02*
X130105000Y-116135000D01*
X130105000Y-116135000D02*
X130175000Y-116205000D01*
X144780000Y-116205000D02*
X144950000Y-116205000D01*
X144780000Y-116205000D02*
X144950000Y-116205000D01*
X130175000Y-117475000D02*
X129305000Y-116605000D01*
X129305000Y-116605000D02*
X129305000Y-115130000D01*
X134620000Y-118110000D02*
X134525000Y-117380000D01*
X134525000Y-117380000D02*
X133155000Y-117380000D01*
X133155000Y-116580000D02*
X132340000Y-116580000D01*
X132340000Y-116580000D02*
X131445000Y-117475000D01*
X134790000Y-112395000D02*
X134790000Y-113200000D01*
X134790000Y-113200000D02*
X136210000Y-114620000D01*
X136210000Y-114620000D02*
X136485000Y-114620000D01*
X131705000Y-115130000D02*
X131705000Y-114675000D01*
X131705000Y-114675000D02*
X132715000Y-113665000D01*
X132715000Y-113665000D02*
X133520000Y-113665000D01*
X133520000Y-113665000D02*
X134790000Y-112395000D01*
X137625000Y-134620000D02*
X137625000Y-133815000D01*
X128505000Y-125495000D02*
X128505000Y-123630000D01*
X128270000Y-125730000D02*
X128505000Y-125495000D01*
X137625000Y-133815000D02*
X137160000Y-133350000D01*
X141130000Y-140970000D02*
X139700000Y-140970000D01*
X137625000Y-138895000D02*
X137625000Y-134620000D01*
X139700000Y-140970000D02*
X137625000Y-138895000D01*
X130105000Y-123630000D02*
X130105000Y-125025000D01*
X132250000Y-127170000D02*
X133985000Y-127170000D01*
X130105000Y-125025000D02*
X132250000Y-127170000D01*
X130556000Y-128620520D02*
X132534480Y-128620520D01*
X132534480Y-128620520D02*
X133985000Y-127170000D01*
X129710000Y-112395000D02*
X129710000Y-112565000D01*
X129710000Y-112565000D02*
X130905000Y-113760000D01*
X130905000Y-113760000D02*
X130905000Y-115130000D01*
X126680000Y-112395000D02*
X129710000Y-112395000D01*
X121750000Y-112395000D02*
X121750000Y-111930000D01*
X125410000Y-111125000D02*
X126680000Y-112395000D01*
X122555000Y-111125000D02*
X125410000Y-111125000D01*
X121750000Y-111930000D02*
X122555000Y-111125000D01*
X124655000Y-121380000D02*
X121260000Y-121380000D01*
X121260000Y-121380000D02*
X120650000Y-121990000D01*
X124655000Y-122180000D02*
X124200000Y-122180000D01*
X124200000Y-122180000D02*
X121990000Y-124390000D01*
X121990000Y-124390000D02*
X120650000Y-124390000D01*
X129305000Y-123630000D02*
X129305000Y-125965000D01*
X116649500Y-138620500D02*
X114554000Y-138620500D01*
X129305000Y-125965000D02*
X116649500Y-138620500D01*
X135730000Y-137160000D02*
X135730000Y-136050000D01*
X145415000Y-133350000D02*
X146050000Y-132715000D01*
X140335000Y-133350000D02*
X145415000Y-133350000D01*
X139700000Y-133985000D02*
X140335000Y-133350000D01*
X135730000Y-136050000D02*
X135890000Y-135890000D01*
X132715000Y-125095000D02*
X132715000Y-126365000D01*
X132173980Y-132621020D02*
X130556000Y-132621020D01*
X132715000Y-132080000D02*
X132173980Y-132621020D01*
X130556000Y-132621020D02*
X131351020Y-132621020D01*
X131351020Y-132621020D02*
X135730000Y-137000000D01*
X135730000Y-137000000D02*
X135730000Y-137160000D01*
X130905000Y-123630000D02*
X130905000Y-124555000D01*
X131445000Y-125095000D02*
X132715000Y-125095000D01*
X130905000Y-124555000D02*
X131445000Y-125095000D01*
X133350000Y-123825000D02*
X133350000Y-124460000D01*
X141605000Y-127000000D02*
X146050000Y-130175000D01*
X135890000Y-127000000D02*
X141605000Y-127000000D01*
X133350000Y-124460000D02*
X135890000Y-127000000D01*
X146050000Y-130175000D02*
X147320000Y-130175000D01*
X147320000Y-130175000D02*
X147955000Y-130810000D01*
X147955000Y-130810000D02*
X147955000Y-136525000D01*
X147955000Y-136525000D02*
X144780000Y-139700000D01*
X144780000Y-139700000D02*
X141130000Y-139700000D01*
X133155000Y-123630000D02*
X133350000Y-123825000D01*
X123474480Y-128620520D02*
X114556540Y-128620520D01*
X123825000Y-128270000D02*
X123474480Y-128620520D01*
X131705000Y-123630000D02*
X133155000Y-123630000D01*
X146050000Y-135255000D02*
X139700000Y-135255000D01*
X138430000Y-136525000D02*
X138430000Y-138430000D01*
X139700000Y-135255000D02*
X138430000Y-136525000D01*
X146685000Y-135255000D02*
X146050000Y-135255000D01*
X133155000Y-122180000D02*
X126625000Y-122180000D01*
X127190500Y-130619500D02*
X130556000Y-130619500D01*
X127000000Y-130810000D02*
X127190500Y-130619500D01*
X126625000Y-122180000D02*
X126365000Y-121920000D01*
X130556000Y-130619500D02*
X129095500Y-130619500D01*
X129095500Y-130619500D02*
X127635000Y-132080000D01*
X127635000Y-132080000D02*
X127635000Y-138430000D01*
X135255000Y-138430000D02*
X135730000Y-138430000D01*
X127705000Y-116275000D02*
X128270000Y-116840000D01*
X127705000Y-115130000D02*
X127705000Y-116275000D01*
X126905000Y-116745000D02*
X126905000Y-115130000D01*
X126905000Y-116745000D02*
X127635000Y-117475000D01*
X126105000Y-115130000D02*
X123630000Y-115130000D01*
X115570000Y-130810000D02*
X115379500Y-130619500D01*
X123190000Y-115570000D02*
X123190000Y-116205000D01*
X123630000Y-115130000D02*
X123190000Y-115570000D01*
X115379500Y-130619500D02*
X114554000Y-130619500D01*
D31*
G36*
X167565000Y-112802781D02*
X167420054Y-112585853D01*
X166938285Y-112263946D01*
X166370000Y-112150907D01*
X165801715Y-112263946D01*
X165319946Y-112585853D01*
X165100000Y-112915026D01*
X164880054Y-112585853D01*
X164398285Y-112263946D01*
X163830000Y-112150907D01*
X163261715Y-112263946D01*
X162779946Y-112585853D01*
X162552298Y-112926553D01*
X162485183Y-112783642D01*
X162056924Y-112393355D01*
X161646890Y-112223524D01*
X161417000Y-112344845D01*
X161417000Y-113538000D01*
X161437000Y-113538000D01*
X161437000Y-113792000D01*
X161417000Y-113792000D01*
X161417000Y-114985155D01*
X161646890Y-115106476D01*
X162056924Y-114936645D01*
X162485183Y-114546358D01*
X162552298Y-114403447D01*
X162779946Y-114744147D01*
X163261715Y-115066054D01*
X163830000Y-115179093D01*
X164398285Y-115066054D01*
X164880054Y-114744147D01*
X165100000Y-114414974D01*
X165319946Y-114744147D01*
X165801715Y-115066054D01*
X166370000Y-115179093D01*
X166938285Y-115066054D01*
X167420054Y-114744147D01*
X167565000Y-114527219D01*
X167565000Y-140107781D01*
X167420054Y-139890853D01*
X166938285Y-139568946D01*
X166370000Y-139455907D01*
X165801715Y-139568946D01*
X165319946Y-139890853D01*
X165100000Y-140220026D01*
X164880054Y-139890853D01*
X164398285Y-139568946D01*
X163830000Y-139455907D01*
X163261715Y-139568946D01*
X162779946Y-139890853D01*
X162560000Y-140220026D01*
X162340054Y-139890853D01*
X161858285Y-139568946D01*
X161290000Y-139455907D01*
X160721715Y-139568946D01*
X160239946Y-139890853D01*
X160020000Y-140220026D01*
X159800054Y-139890853D01*
X159318285Y-139568946D01*
X158750000Y-139455907D01*
X158181715Y-139568946D01*
X157699946Y-139890853D01*
X157480000Y-140220026D01*
X157260054Y-139890853D01*
X156778285Y-139568946D01*
X156210000Y-139455907D01*
X155641715Y-139568946D01*
X155159946Y-139890853D01*
X154940000Y-140220026D01*
X154720054Y-139890853D01*
X154238285Y-139568946D01*
X153670000Y-139455907D01*
X153101715Y-139568946D01*
X152619946Y-139890853D01*
X152592150Y-139932452D01*
X152583162Y-139884683D01*
X152444090Y-139668559D01*
X152231890Y-139523569D01*
X151980000Y-139472560D01*
X150280000Y-139472560D01*
X150044683Y-139516838D01*
X149828559Y-139655910D01*
X149683569Y-139868110D01*
X149632560Y-140120000D01*
X149632560Y-141820000D01*
X149676838Y-142055317D01*
X149815910Y-142271441D01*
X150028110Y-142416431D01*
X150280000Y-142467440D01*
X151980000Y-142467440D01*
X152215317Y-142423162D01*
X152431441Y-142284090D01*
X152576431Y-142071890D01*
X152590086Y-142004459D01*
X152619946Y-142049147D01*
X153101715Y-142371054D01*
X153670000Y-142484093D01*
X154238285Y-142371054D01*
X154720054Y-142049147D01*
X154940000Y-141719974D01*
X155159946Y-142049147D01*
X155641715Y-142371054D01*
X156210000Y-142484093D01*
X156778285Y-142371054D01*
X157260054Y-142049147D01*
X157480000Y-141719974D01*
X157699946Y-142049147D01*
X158181715Y-142371054D01*
X158750000Y-142484093D01*
X159318285Y-142371054D01*
X159800054Y-142049147D01*
X160020000Y-141719974D01*
X160239946Y-142049147D01*
X160721715Y-142371054D01*
X161290000Y-142484093D01*
X161858285Y-142371054D01*
X162340054Y-142049147D01*
X162560000Y-141719974D01*
X162779946Y-142049147D01*
X163261715Y-142371054D01*
X163830000Y-142484093D01*
X164398285Y-142371054D01*
X164880054Y-142049147D01*
X165100000Y-141719974D01*
X165319946Y-142049147D01*
X165801715Y-142371054D01*
X166370000Y-142484093D01*
X166938285Y-142371054D01*
X167420054Y-142049147D01*
X167565000Y-141832219D01*
X167565000Y-144070000D01*
X109295000Y-144070000D01*
X109295000Y-142583599D01*
X109389699Y-142583599D01*
X109653281Y-143221515D01*
X110140918Y-143710004D01*
X110778373Y-143974699D01*
X111468599Y-143975301D01*
X112106515Y-143711719D01*
X112595004Y-143224082D01*
X112859699Y-142586627D01*
X112860189Y-142024770D01*
X112929091Y-142053310D01*
X114268250Y-142053310D01*
X114427000Y-141894560D01*
X114427000Y-140746480D01*
X114681000Y-140746480D01*
X114681000Y-141894560D01*
X114839750Y-142053310D01*
X116178909Y-142053310D01*
X116412298Y-141956637D01*
X116590927Y-141778009D01*
X116687600Y-141544620D01*
X116687600Y-140905230D01*
X116528850Y-140746480D01*
X114681000Y-140746480D01*
X114427000Y-140746480D01*
X112579150Y-140746480D01*
X112420400Y-140905230D01*
X112420400Y-141081858D01*
X112109082Y-140769996D01*
X111471627Y-140505301D01*
X110781401Y-140504699D01*
X110143485Y-140768281D01*
X109654996Y-141255918D01*
X109390301Y-141893373D01*
X109389699Y-142583599D01*
X109295000Y-142583599D01*
X109295000Y-134228026D01*
X109380301Y-134313327D01*
X109613690Y-134410000D01*
X110204250Y-134410000D01*
X110363000Y-134251250D01*
X110363000Y-132302000D01*
X110617000Y-132302000D01*
X110617000Y-134251250D01*
X110775750Y-134410000D01*
X111366310Y-134410000D01*
X111599699Y-134313327D01*
X111778327Y-134134698D01*
X111875000Y-133901309D01*
X111875000Y-132460750D01*
X111716250Y-132302000D01*
X110617000Y-132302000D01*
X110363000Y-132302000D01*
X110343000Y-132302000D01*
X110343000Y-132048000D01*
X110363000Y-132048000D01*
X110363000Y-132028000D01*
X110617000Y-132028000D01*
X110617000Y-132048000D01*
X111716250Y-132048000D01*
X111875000Y-131889250D01*
X111875000Y-130448691D01*
X111778327Y-130215302D01*
X111736366Y-130173340D01*
X111836431Y-130026890D01*
X111887440Y-129775000D01*
X111887440Y-126575000D01*
X111843162Y-126339683D01*
X111704090Y-126123559D01*
X111491890Y-125978569D01*
X111250000Y-125929585D01*
X111250000Y-125314802D01*
X111342362Y-125222440D01*
X113265000Y-125222440D01*
X113500317Y-125178162D01*
X113664493Y-125072518D01*
X113705302Y-125113327D01*
X113938691Y-125210000D01*
X115379250Y-125210000D01*
X115538000Y-125051250D01*
X115538000Y-123952000D01*
X115792000Y-123952000D01*
X115792000Y-125051250D01*
X115950750Y-125210000D01*
X117391309Y-125210000D01*
X117624698Y-125113327D01*
X117803327Y-124934699D01*
X117900000Y-124701310D01*
X117900000Y-124110750D01*
X117741250Y-123952000D01*
X115792000Y-123952000D01*
X115538000Y-123952000D01*
X115518000Y-123952000D01*
X115518000Y-123698000D01*
X115538000Y-123698000D01*
X115538000Y-122598750D01*
X115792000Y-122598750D01*
X115792000Y-123698000D01*
X117741250Y-123698000D01*
X117900000Y-123539250D01*
X117900000Y-122948690D01*
X117803327Y-122715301D01*
X117624698Y-122536673D01*
X117391309Y-122440000D01*
X115950750Y-122440000D01*
X115792000Y-122598750D01*
X115538000Y-122598750D01*
X115379250Y-122440000D01*
X113938691Y-122440000D01*
X113705302Y-122536673D01*
X113663340Y-122578634D01*
X113516890Y-122478569D01*
X113265000Y-122427560D01*
X112690000Y-122427560D01*
X112690000Y-121717334D01*
X112765317Y-121703162D01*
X112981441Y-121564090D01*
X113029134Y-121494289D01*
X113065910Y-121551441D01*
X113278110Y-121696431D01*
X113530000Y-121747440D01*
X114730000Y-121747440D01*
X114965317Y-121703162D01*
X115181441Y-121564090D01*
X115326431Y-121351890D01*
X115377440Y-121100000D01*
X115377440Y-120200000D01*
X115333162Y-119964683D01*
X115194090Y-119748559D01*
X115072895Y-119665750D01*
X117195000Y-119665750D01*
X117195000Y-119881310D01*
X117291673Y-120114699D01*
X117470302Y-120293327D01*
X117703691Y-120390000D01*
X118144250Y-120390000D01*
X118303000Y-120231250D01*
X118303000Y-119507000D01*
X117353750Y-119507000D01*
X117195000Y-119665750D01*
X115072895Y-119665750D01*
X114981890Y-119603569D01*
X114730000Y-119552560D01*
X113530000Y-119552560D01*
X113294683Y-119596838D01*
X113078559Y-119735910D01*
X113030866Y-119805711D01*
X112994090Y-119748559D01*
X112781890Y-119603569D01*
X112690000Y-119584961D01*
X112690000Y-119550000D01*
X112635364Y-119275327D01*
X112632148Y-119259160D01*
X112520000Y-119091319D01*
X112520000Y-118878690D01*
X117195000Y-118878690D01*
X117195000Y-119094250D01*
X117353750Y-119253000D01*
X118303000Y-119253000D01*
X118303000Y-118528750D01*
X118144250Y-118370000D01*
X117703691Y-118370000D01*
X117470302Y-118466673D01*
X117291673Y-118645301D01*
X117195000Y-118878690D01*
X112520000Y-118878690D01*
X112520000Y-117496498D01*
X112707304Y-117545256D01*
X112903000Y-117382547D01*
X112903000Y-116427000D01*
X113157000Y-116427000D01*
X113157000Y-117382547D01*
X113352696Y-117545256D01*
X113823701Y-117422647D01*
X114211933Y-117129125D01*
X114401723Y-116805750D01*
X117390000Y-116805750D01*
X117390000Y-117046310D01*
X117486673Y-117279699D01*
X117665302Y-117458327D01*
X117898691Y-117555000D01*
X118189250Y-117555000D01*
X118348000Y-117396250D01*
X118348000Y-116647000D01*
X117548750Y-116647000D01*
X117390000Y-116805750D01*
X114401723Y-116805750D01*
X114458286Y-116709376D01*
X114473462Y-116617609D01*
X114348731Y-116427000D01*
X113157000Y-116427000D01*
X112903000Y-116427000D01*
X112883000Y-116427000D01*
X112883000Y-116173000D01*
X112903000Y-116173000D01*
X112903000Y-116153000D01*
X113157000Y-116153000D01*
X113157000Y-116173000D01*
X114348731Y-116173000D01*
X114473462Y-115982391D01*
X114458286Y-115890624D01*
X114211933Y-115470875D01*
X114190580Y-115454731D01*
X114305792Y-115380594D01*
X115032599Y-116107401D01*
X115279160Y-116272148D01*
X115492098Y-116314504D01*
X115560910Y-116421441D01*
X115773110Y-116566431D01*
X116025000Y-116617440D01*
X116925000Y-116617440D01*
X117160317Y-116573162D01*
X117376441Y-116434090D01*
X117463064Y-116307314D01*
X117548750Y-116393000D01*
X118348000Y-116393000D01*
X118348000Y-116373000D01*
X118602000Y-116373000D01*
X118602000Y-116393000D01*
X118622000Y-116393000D01*
X118622000Y-116647000D01*
X118602000Y-116647000D01*
X118602000Y-117396250D01*
X118760750Y-117555000D01*
X119051309Y-117555000D01*
X119255000Y-117470628D01*
X119255000Y-118110000D01*
X119312852Y-118400839D01*
X119344267Y-118447855D01*
X119156309Y-118370000D01*
X118715750Y-118370000D01*
X118557000Y-118528750D01*
X118557000Y-119253000D01*
X118577000Y-119253000D01*
X118577000Y-119507000D01*
X118557000Y-119507000D01*
X118557000Y-120231250D01*
X118715750Y-120390000D01*
X119156309Y-120390000D01*
X119389698Y-120293327D01*
X119391068Y-120291957D01*
X119478110Y-120351431D01*
X119730000Y-120402440D01*
X119798415Y-120402440D01*
X119856883Y-120543943D01*
X120119673Y-120807192D01*
X120463201Y-120949838D01*
X120615228Y-120949970D01*
X120572638Y-120992560D01*
X119800000Y-120992560D01*
X119564683Y-121036838D01*
X119348559Y-121175910D01*
X119203569Y-121388110D01*
X119152560Y-121640000D01*
X119152560Y-122340000D01*
X119196838Y-122575317D01*
X119212339Y-122599406D01*
X119165000Y-122713691D01*
X119165000Y-122904250D01*
X119323750Y-123063000D01*
X120523000Y-123063000D01*
X120523000Y-123043000D01*
X120777000Y-123043000D01*
X120777000Y-123063000D01*
X120797000Y-123063000D01*
X120797000Y-123317000D01*
X120777000Y-123317000D01*
X120777000Y-123337000D01*
X120523000Y-123337000D01*
X120523000Y-123317000D01*
X119323750Y-123317000D01*
X119165000Y-123475750D01*
X119165000Y-123666309D01*
X119210967Y-123777283D01*
X119203569Y-123788110D01*
X119152560Y-124040000D01*
X119152560Y-124740000D01*
X119196838Y-124975317D01*
X119335910Y-125191441D01*
X119548110Y-125336431D01*
X119800000Y-125387440D01*
X121500000Y-125387440D01*
X121735317Y-125343162D01*
X121951441Y-125204090D01*
X121988399Y-125150000D01*
X121990000Y-125150000D01*
X122280839Y-125092148D01*
X122527401Y-124927401D01*
X124352362Y-123102440D01*
X125182560Y-123102440D01*
X125182560Y-124320348D01*
X124937808Y-124564673D01*
X124795162Y-124908201D01*
X124794838Y-125280167D01*
X124936883Y-125623943D01*
X125199673Y-125887192D01*
X125543201Y-126029838D01*
X125915167Y-126030162D01*
X126145000Y-125935197D01*
X126145000Y-126780198D01*
X124955320Y-127969878D01*
X124909833Y-127969838D01*
X124741403Y-128039432D01*
X124618117Y-127741057D01*
X124355327Y-127477808D01*
X124011799Y-127335162D01*
X123639833Y-127334838D01*
X123296057Y-127476883D01*
X123032808Y-127739673D01*
X122982628Y-127860520D01*
X116702580Y-127860520D01*
X116702580Y-127821690D01*
X116658302Y-127586373D01*
X116519230Y-127370249D01*
X116307030Y-127225259D01*
X116055140Y-127174250D01*
X113057940Y-127174250D01*
X112822623Y-127218528D01*
X112606499Y-127357600D01*
X112461509Y-127569800D01*
X112410500Y-127821690D01*
X112410500Y-129419350D01*
X112448420Y-129620875D01*
X112407960Y-129820670D01*
X112407960Y-131418330D01*
X112447351Y-131627673D01*
X112407960Y-131822190D01*
X112407960Y-133419850D01*
X112447103Y-133627876D01*
X112407960Y-133821170D01*
X112407960Y-135418830D01*
X112447103Y-135626856D01*
X112407960Y-135820150D01*
X112407960Y-137417810D01*
X112447351Y-137627153D01*
X112407960Y-137821670D01*
X112407960Y-139419330D01*
X112447429Y-139629087D01*
X112420400Y-139694340D01*
X112420400Y-140333730D01*
X112579150Y-140492480D01*
X114427000Y-140492480D01*
X114427000Y-140472480D01*
X114681000Y-140472480D01*
X114681000Y-140492480D01*
X116528850Y-140492480D01*
X116687600Y-140333730D01*
X116687600Y-139694340D01*
X116658551Y-139624209D01*
X116700040Y-139419330D01*
X116700040Y-139370447D01*
X116940339Y-139322648D01*
X117186901Y-139157901D01*
X122431341Y-133913461D01*
X122659673Y-134142192D01*
X123003201Y-134284838D01*
X123375167Y-134285162D01*
X123718943Y-134143117D01*
X123982192Y-133880327D01*
X124124838Y-133536799D01*
X124124879Y-133489923D01*
X126241341Y-131373461D01*
X126469673Y-131602192D01*
X126813201Y-131744838D01*
X126962381Y-131744968D01*
X126932852Y-131789161D01*
X126875000Y-132080000D01*
X126875000Y-137867537D01*
X126842808Y-137899673D01*
X126700162Y-138243201D01*
X126699838Y-138615167D01*
X126841883Y-138958943D01*
X127104673Y-139222192D01*
X127448201Y-139364838D01*
X127820167Y-139365162D01*
X128163943Y-139223117D01*
X128409960Y-138977529D01*
X128409960Y-139419330D01*
X128449103Y-139627356D01*
X128409960Y-139820650D01*
X128409960Y-141418310D01*
X128454238Y-141653627D01*
X128593310Y-141869751D01*
X128805510Y-142014741D01*
X129057400Y-142065750D01*
X132054600Y-142065750D01*
X132289917Y-142021472D01*
X132506041Y-141882400D01*
X132651031Y-141670200D01*
X132702040Y-141418310D01*
X132702040Y-140126842D01*
X132812599Y-140237401D01*
X133059161Y-140402148D01*
X133225000Y-140435136D01*
X133225000Y-140970000D01*
X133282852Y-141260839D01*
X133447599Y-141507401D01*
X133694161Y-141672148D01*
X133985000Y-141730000D01*
X134503437Y-141730000D01*
X134703110Y-141866431D01*
X134955000Y-141917440D01*
X136505000Y-141917440D01*
X136740317Y-141873162D01*
X136956441Y-141734090D01*
X137101431Y-141521890D01*
X137152440Y-141270000D01*
X137152440Y-140670000D01*
X137145852Y-140634988D01*
X137345167Y-140635162D01*
X137688943Y-140493117D01*
X137918829Y-140263631D01*
X139162599Y-141507401D01*
X139409161Y-141672148D01*
X139700000Y-141730000D01*
X139903437Y-141730000D01*
X140103110Y-141866431D01*
X140355000Y-141917440D01*
X141905000Y-141917440D01*
X142140317Y-141873162D01*
X142356441Y-141734090D01*
X142501431Y-141521890D01*
X142552440Y-141270000D01*
X142552440Y-140670000D01*
X142512926Y-140460000D01*
X144780000Y-140460000D01*
X145070839Y-140402148D01*
X145317401Y-140237401D01*
X148492401Y-137062401D01*
X148657148Y-136815839D01*
X148715000Y-136525000D01*
X148715000Y-130810000D01*
X148657148Y-130519161D01*
X148492401Y-130272599D01*
X147857401Y-129637599D01*
X147610839Y-129472852D01*
X147323407Y-129415678D01*
X147129147Y-129124946D01*
X146799974Y-128905000D01*
X147129147Y-128685054D01*
X147451054Y-128203285D01*
X147564093Y-127635000D01*
X147451054Y-127066715D01*
X147129147Y-126584946D01*
X146799974Y-126365000D01*
X147129147Y-126145054D01*
X147451054Y-125663285D01*
X147564093Y-125095000D01*
X147451054Y-124526715D01*
X147129147Y-124044946D01*
X147087548Y-124017150D01*
X147135317Y-124008162D01*
X147351441Y-123869090D01*
X147496431Y-123656890D01*
X147547440Y-123405000D01*
X147547440Y-121705000D01*
X147503162Y-121469683D01*
X147364090Y-121253559D01*
X147151890Y-121108569D01*
X146900000Y-121057560D01*
X146810000Y-121057560D01*
X146810000Y-118745000D01*
X146752148Y-118454161D01*
X146687797Y-118357852D01*
X146587401Y-118207598D01*
X145661300Y-117281497D01*
X145785317Y-117258162D01*
X146001441Y-117119090D01*
X146049134Y-117049289D01*
X146085910Y-117106441D01*
X146298110Y-117251431D01*
X146550000Y-117302440D01*
X147750000Y-117302440D01*
X147985317Y-117258162D01*
X148201441Y-117119090D01*
X148262239Y-117030110D01*
X152524943Y-116319659D01*
X152605925Y-116289039D01*
X152690839Y-116272148D01*
X152743299Y-116237095D01*
X152802314Y-116214781D01*
X152865413Y-116155502D01*
X152937401Y-116107401D01*
X153914304Y-115130498D01*
X154238285Y-115066054D01*
X154720054Y-114744147D01*
X154933301Y-114425000D01*
X154946699Y-114425000D01*
X155159946Y-114744147D01*
X155641715Y-115066054D01*
X156210000Y-115179093D01*
X156778285Y-115066054D01*
X157260054Y-114744147D01*
X157487702Y-114403447D01*
X157554817Y-114546358D01*
X157983076Y-114936645D01*
X158393110Y-115106476D01*
X158623000Y-114985155D01*
X158623000Y-113792000D01*
X158877000Y-113792000D01*
X158877000Y-114985155D01*
X159106890Y-115106476D01*
X159516924Y-114936645D01*
X159945183Y-114546358D01*
X160020000Y-114387046D01*
X160094817Y-114546358D01*
X160523076Y-114936645D01*
X160933110Y-115106476D01*
X161163000Y-114985155D01*
X161163000Y-113792000D01*
X158877000Y-113792000D01*
X158623000Y-113792000D01*
X158603000Y-113792000D01*
X158603000Y-113538000D01*
X158623000Y-113538000D01*
X158623000Y-112344845D01*
X158877000Y-112344845D01*
X158877000Y-113538000D01*
X161163000Y-113538000D01*
X161163000Y-112344845D01*
X160933110Y-112223524D01*
X160523076Y-112393355D01*
X160094817Y-112783642D01*
X160020000Y-112942954D01*
X159945183Y-112783642D01*
X159516924Y-112393355D01*
X159106890Y-112223524D01*
X158877000Y-112344845D01*
X158623000Y-112344845D01*
X158393110Y-112223524D01*
X157983076Y-112393355D01*
X157554817Y-112783642D01*
X157487702Y-112926553D01*
X157260054Y-112585853D01*
X156778285Y-112263946D01*
X156210000Y-112150907D01*
X155641715Y-112263946D01*
X155159946Y-112585853D01*
X154946699Y-112905000D01*
X154933301Y-112905000D01*
X154720054Y-112585853D01*
X154238285Y-112263946D01*
X153670000Y-112150907D01*
X153101715Y-112263946D01*
X152619946Y-112585853D01*
X152592150Y-112627452D01*
X152583162Y-112579683D01*
X152444090Y-112363559D01*
X152231890Y-112218569D01*
X151980000Y-112167560D01*
X150707362Y-112167560D01*
X149104802Y-110565000D01*
X167565000Y-110565000D01*
X167565000Y-112802781D01*
X167565000Y-112802781D01*
G37*
X167565000Y-112802781D02*
X167420054Y-112585853D01*
X166938285Y-112263946D01*
X166370000Y-112150907D01*
X165801715Y-112263946D01*
X165319946Y-112585853D01*
X165100000Y-112915026D01*
X164880054Y-112585853D01*
X164398285Y-112263946D01*
X163830000Y-112150907D01*
X163261715Y-112263946D01*
X162779946Y-112585853D01*
X162552298Y-112926553D01*
X162485183Y-112783642D01*
X162056924Y-112393355D01*
X161646890Y-112223524D01*
X161417000Y-112344845D01*
X161417000Y-113538000D01*
X161437000Y-113538000D01*
X161437000Y-113792000D01*
X161417000Y-113792000D01*
X161417000Y-114985155D01*
X161646890Y-115106476D01*
X162056924Y-114936645D01*
X162485183Y-114546358D01*
X162552298Y-114403447D01*
X162779946Y-114744147D01*
X163261715Y-115066054D01*
X163830000Y-115179093D01*
X164398285Y-115066054D01*
X164880054Y-114744147D01*
X165100000Y-114414974D01*
X165319946Y-114744147D01*
X165801715Y-115066054D01*
X166370000Y-115179093D01*
X166938285Y-115066054D01*
X167420054Y-114744147D01*
X167565000Y-114527219D01*
X167565000Y-140107781D01*
X167420054Y-139890853D01*
X166938285Y-139568946D01*
X166370000Y-139455907D01*
X165801715Y-139568946D01*
X165319946Y-139890853D01*
X165100000Y-140220026D01*
X164880054Y-139890853D01*
X164398285Y-139568946D01*
X163830000Y-139455907D01*
X163261715Y-139568946D01*
X162779946Y-139890853D01*
X162560000Y-140220026D01*
X162340054Y-139890853D01*
X161858285Y-139568946D01*
X161290000Y-139455907D01*
X160721715Y-139568946D01*
X160239946Y-139890853D01*
X160020000Y-140220026D01*
X159800054Y-139890853D01*
X159318285Y-139568946D01*
X158750000Y-139455907D01*
X158181715Y-139568946D01*
X157699946Y-139890853D01*
X157480000Y-140220026D01*
X157260054Y-139890853D01*
X156778285Y-139568946D01*
X156210000Y-139455907D01*
X155641715Y-139568946D01*
X155159946Y-139890853D01*
X154940000Y-140220026D01*
X154720054Y-139890853D01*
X154238285Y-139568946D01*
X153670000Y-139455907D01*
X153101715Y-139568946D01*
X152619946Y-139890853D01*
X152592150Y-139932452D01*
X152583162Y-139884683D01*
X152444090Y-139668559D01*
X152231890Y-139523569D01*
X151980000Y-139472560D01*
X150280000Y-139472560D01*
X150044683Y-139516838D01*
X149828559Y-139655910D01*
X149683569Y-139868110D01*
X149632560Y-140120000D01*
X149632560Y-141820000D01*
X149676838Y-142055317D01*
X149815910Y-142271441D01*
X150028110Y-142416431D01*
X150280000Y-142467440D01*
X151980000Y-142467440D01*
X152215317Y-142423162D01*
X152431441Y-142284090D01*
X152576431Y-142071890D01*
X152590086Y-142004459D01*
X152619946Y-142049147D01*
X153101715Y-142371054D01*
X153670000Y-142484093D01*
X154238285Y-142371054D01*
X154720054Y-142049147D01*
X154940000Y-141719974D01*
X155159946Y-142049147D01*
X155641715Y-142371054D01*
X156210000Y-142484093D01*
X156778285Y-142371054D01*
X157260054Y-142049147D01*
X157480000Y-141719974D01*
X157699946Y-142049147D01*
X158181715Y-142371054D01*
X158750000Y-142484093D01*
X159318285Y-142371054D01*
X159800054Y-142049147D01*
X160020000Y-141719974D01*
X160239946Y-142049147D01*
X160721715Y-142371054D01*
X161290000Y-142484093D01*
X161858285Y-142371054D01*
X162340054Y-142049147D01*
X162560000Y-141719974D01*
X162779946Y-142049147D01*
X163261715Y-142371054D01*
X163830000Y-142484093D01*
X164398285Y-142371054D01*
X164880054Y-142049147D01*
X165100000Y-141719974D01*
X165319946Y-142049147D01*
X165801715Y-142371054D01*
X166370000Y-142484093D01*
X166938285Y-142371054D01*
X167420054Y-142049147D01*
X167565000Y-141832219D01*
X167565000Y-144070000D01*
X109295000Y-144070000D01*
X109295000Y-142583599D01*
X109389699Y-142583599D01*
X109653281Y-143221515D01*
X110140918Y-143710004D01*
X110778373Y-143974699D01*
X111468599Y-143975301D01*
X112106515Y-143711719D01*
X112595004Y-143224082D01*
X112859699Y-142586627D01*
X112860189Y-142024770D01*
X112929091Y-142053310D01*
X114268250Y-142053310D01*
X114427000Y-141894560D01*
X114427000Y-140746480D01*
X114681000Y-140746480D01*
X114681000Y-141894560D01*
X114839750Y-142053310D01*
X116178909Y-142053310D01*
X116412298Y-141956637D01*
X116590927Y-141778009D01*
X116687600Y-141544620D01*
X116687600Y-140905230D01*
X116528850Y-140746480D01*
X114681000Y-140746480D01*
X114427000Y-140746480D01*
X112579150Y-140746480D01*
X112420400Y-140905230D01*
X112420400Y-141081858D01*
X112109082Y-140769996D01*
X111471627Y-140505301D01*
X110781401Y-140504699D01*
X110143485Y-140768281D01*
X109654996Y-141255918D01*
X109390301Y-141893373D01*
X109389699Y-142583599D01*
X109295000Y-142583599D01*
X109295000Y-134228026D01*
X109380301Y-134313327D01*
X109613690Y-134410000D01*
X110204250Y-134410000D01*
X110363000Y-134251250D01*
X110363000Y-132302000D01*
X110617000Y-132302000D01*
X110617000Y-134251250D01*
X110775750Y-134410000D01*
X111366310Y-134410000D01*
X111599699Y-134313327D01*
X111778327Y-134134698D01*
X111875000Y-133901309D01*
X111875000Y-132460750D01*
X111716250Y-132302000D01*
X110617000Y-132302000D01*
X110363000Y-132302000D01*
X110343000Y-132302000D01*
X110343000Y-132048000D01*
X110363000Y-132048000D01*
X110363000Y-132028000D01*
X110617000Y-132028000D01*
X110617000Y-132048000D01*
X111716250Y-132048000D01*
X111875000Y-131889250D01*
X111875000Y-130448691D01*
X111778327Y-130215302D01*
X111736366Y-130173340D01*
X111836431Y-130026890D01*
X111887440Y-129775000D01*
X111887440Y-126575000D01*
X111843162Y-126339683D01*
X111704090Y-126123559D01*
X111491890Y-125978569D01*
X111250000Y-125929585D01*
X111250000Y-125314802D01*
X111342362Y-125222440D01*
X113265000Y-125222440D01*
X113500317Y-125178162D01*
X113664493Y-125072518D01*
X113705302Y-125113327D01*
X113938691Y-125210000D01*
X115379250Y-125210000D01*
X115538000Y-125051250D01*
X115538000Y-123952000D01*
X115792000Y-123952000D01*
X115792000Y-125051250D01*
X115950750Y-125210000D01*
X117391309Y-125210000D01*
X117624698Y-125113327D01*
X117803327Y-124934699D01*
X117900000Y-124701310D01*
X117900000Y-124110750D01*
X117741250Y-123952000D01*
X115792000Y-123952000D01*
X115538000Y-123952000D01*
X115518000Y-123952000D01*
X115518000Y-123698000D01*
X115538000Y-123698000D01*
X115538000Y-122598750D01*
X115792000Y-122598750D01*
X115792000Y-123698000D01*
X117741250Y-123698000D01*
X117900000Y-123539250D01*
X117900000Y-122948690D01*
X117803327Y-122715301D01*
X117624698Y-122536673D01*
X117391309Y-122440000D01*
X115950750Y-122440000D01*
X115792000Y-122598750D01*
X115538000Y-122598750D01*
X115379250Y-122440000D01*
X113938691Y-122440000D01*
X113705302Y-122536673D01*
X113663340Y-122578634D01*
X113516890Y-122478569D01*
X113265000Y-122427560D01*
X112690000Y-122427560D01*
X112690000Y-121717334D01*
X112765317Y-121703162D01*
X112981441Y-121564090D01*
X113029134Y-121494289D01*
X113065910Y-121551441D01*
X113278110Y-121696431D01*
X113530000Y-121747440D01*
X114730000Y-121747440D01*
X114965317Y-121703162D01*
X115181441Y-121564090D01*
X115326431Y-121351890D01*
X115377440Y-121100000D01*
X115377440Y-120200000D01*
X115333162Y-119964683D01*
X115194090Y-119748559D01*
X115072895Y-119665750D01*
X117195000Y-119665750D01*
X117195000Y-119881310D01*
X117291673Y-120114699D01*
X117470302Y-120293327D01*
X117703691Y-120390000D01*
X118144250Y-120390000D01*
X118303000Y-120231250D01*
X118303000Y-119507000D01*
X117353750Y-119507000D01*
X117195000Y-119665750D01*
X115072895Y-119665750D01*
X114981890Y-119603569D01*
X114730000Y-119552560D01*
X113530000Y-119552560D01*
X113294683Y-119596838D01*
X113078559Y-119735910D01*
X113030866Y-119805711D01*
X112994090Y-119748559D01*
X112781890Y-119603569D01*
X112690000Y-119584961D01*
X112690000Y-119550000D01*
X112635364Y-119275327D01*
X112632148Y-119259160D01*
X112520000Y-119091319D01*
X112520000Y-118878690D01*
X117195000Y-118878690D01*
X117195000Y-119094250D01*
X117353750Y-119253000D01*
X118303000Y-119253000D01*
X118303000Y-118528750D01*
X118144250Y-118370000D01*
X117703691Y-118370000D01*
X117470302Y-118466673D01*
X117291673Y-118645301D01*
X117195000Y-118878690D01*
X112520000Y-118878690D01*
X112520000Y-117496498D01*
X112707304Y-117545256D01*
X112903000Y-117382547D01*
X112903000Y-116427000D01*
X113157000Y-116427000D01*
X113157000Y-117382547D01*
X113352696Y-117545256D01*
X113823701Y-117422647D01*
X114211933Y-117129125D01*
X114401723Y-116805750D01*
X117390000Y-116805750D01*
X117390000Y-117046310D01*
X117486673Y-117279699D01*
X117665302Y-117458327D01*
X117898691Y-117555000D01*
X118189250Y-117555000D01*
X118348000Y-117396250D01*
X118348000Y-116647000D01*
X117548750Y-116647000D01*
X117390000Y-116805750D01*
X114401723Y-116805750D01*
X114458286Y-116709376D01*
X114473462Y-116617609D01*
X114348731Y-116427000D01*
X113157000Y-116427000D01*
X112903000Y-116427000D01*
X112883000Y-116427000D01*
X112883000Y-116173000D01*
X112903000Y-116173000D01*
X112903000Y-116153000D01*
X113157000Y-116153000D01*
X113157000Y-116173000D01*
X114348731Y-116173000D01*
X114473462Y-115982391D01*
X114458286Y-115890624D01*
X114211933Y-115470875D01*
X114190580Y-115454731D01*
X114305792Y-115380594D01*
X115032599Y-116107401D01*
X115279160Y-116272148D01*
X115492098Y-116314504D01*
X115560910Y-116421441D01*
X115773110Y-116566431D01*
X116025000Y-116617440D01*
X116925000Y-116617440D01*
X117160317Y-116573162D01*
X117376441Y-116434090D01*
X117463064Y-116307314D01*
X117548750Y-116393000D01*
X118348000Y-116393000D01*
X118348000Y-116373000D01*
X118602000Y-116373000D01*
X118602000Y-116393000D01*
X118622000Y-116393000D01*
X118622000Y-116647000D01*
X118602000Y-116647000D01*
X118602000Y-117396250D01*
X118760750Y-117555000D01*
X119051309Y-117555000D01*
X119255000Y-117470628D01*
X119255000Y-118110000D01*
X119312852Y-118400839D01*
X119344267Y-118447855D01*
X119156309Y-118370000D01*
X118715750Y-118370000D01*
X118557000Y-118528750D01*
X118557000Y-119253000D01*
X118577000Y-119253000D01*
X118577000Y-119507000D01*
X118557000Y-119507000D01*
X118557000Y-120231250D01*
X118715750Y-120390000D01*
X119156309Y-120390000D01*
X119389698Y-120293327D01*
X119391068Y-120291957D01*
X119478110Y-120351431D01*
X119730000Y-120402440D01*
X119798415Y-120402440D01*
X119856883Y-120543943D01*
X120119673Y-120807192D01*
X120463201Y-120949838D01*
X120615228Y-120949970D01*
X120572638Y-120992560D01*
X119800000Y-120992560D01*
X119564683Y-121036838D01*
X119348559Y-121175910D01*
X119203569Y-121388110D01*
X119152560Y-121640000D01*
X119152560Y-122340000D01*
X119196838Y-122575317D01*
X119212339Y-122599406D01*
X119165000Y-122713691D01*
X119165000Y-122904250D01*
X119323750Y-123063000D01*
X120523000Y-123063000D01*
X120523000Y-123043000D01*
X120777000Y-123043000D01*
X120777000Y-123063000D01*
X120797000Y-123063000D01*
X120797000Y-123317000D01*
X120777000Y-123317000D01*
X120777000Y-123337000D01*
X120523000Y-123337000D01*
X120523000Y-123317000D01*
X119323750Y-123317000D01*
X119165000Y-123475750D01*
X119165000Y-123666309D01*
X119210967Y-123777283D01*
X119203569Y-123788110D01*
X119152560Y-124040000D01*
X119152560Y-124740000D01*
X119196838Y-124975317D01*
X119335910Y-125191441D01*
X119548110Y-125336431D01*
X119800000Y-125387440D01*
X121500000Y-125387440D01*
X121735317Y-125343162D01*
X121951441Y-125204090D01*
X121988399Y-125150000D01*
X121990000Y-125150000D01*
X122280839Y-125092148D01*
X122527401Y-124927401D01*
X124352362Y-123102440D01*
X125182560Y-123102440D01*
X125182560Y-124320348D01*
X124937808Y-124564673D01*
X124795162Y-124908201D01*
X124794838Y-125280167D01*
X124936883Y-125623943D01*
X125199673Y-125887192D01*
X125543201Y-126029838D01*
X125915167Y-126030162D01*
X126145000Y-125935197D01*
X126145000Y-126780198D01*
X124955320Y-127969878D01*
X124909833Y-127969838D01*
X124741403Y-128039432D01*
X124618117Y-127741057D01*
X124355327Y-127477808D01*
X124011799Y-127335162D01*
X123639833Y-127334838D01*
X123296057Y-127476883D01*
X123032808Y-127739673D01*
X122982628Y-127860520D01*
X116702580Y-127860520D01*
X116702580Y-127821690D01*
X116658302Y-127586373D01*
X116519230Y-127370249D01*
X116307030Y-127225259D01*
X116055140Y-127174250D01*
X113057940Y-127174250D01*
X112822623Y-127218528D01*
X112606499Y-127357600D01*
X112461509Y-127569800D01*
X112410500Y-127821690D01*
X112410500Y-129419350D01*
X112448420Y-129620875D01*
X112407960Y-129820670D01*
X112407960Y-131418330D01*
X112447351Y-131627673D01*
X112407960Y-131822190D01*
X112407960Y-133419850D01*
X112447103Y-133627876D01*
X112407960Y-133821170D01*
X112407960Y-135418830D01*
X112447103Y-135626856D01*
X112407960Y-135820150D01*
X112407960Y-137417810D01*
X112447351Y-137627153D01*
X112407960Y-137821670D01*
X112407960Y-139419330D01*
X112447429Y-139629087D01*
X112420400Y-139694340D01*
X112420400Y-140333730D01*
X112579150Y-140492480D01*
X114427000Y-140492480D01*
X114427000Y-140472480D01*
X114681000Y-140472480D01*
X114681000Y-140492480D01*
X116528850Y-140492480D01*
X116687600Y-140333730D01*
X116687600Y-139694340D01*
X116658551Y-139624209D01*
X116700040Y-139419330D01*
X116700040Y-139370447D01*
X116940339Y-139322648D01*
X117186901Y-139157901D01*
X122431341Y-133913461D01*
X122659673Y-134142192D01*
X123003201Y-134284838D01*
X123375167Y-134285162D01*
X123718943Y-134143117D01*
X123982192Y-133880327D01*
X124124838Y-133536799D01*
X124124879Y-133489923D01*
X126241341Y-131373461D01*
X126469673Y-131602192D01*
X126813201Y-131744838D01*
X126962381Y-131744968D01*
X126932852Y-131789161D01*
X126875000Y-132080000D01*
X126875000Y-137867537D01*
X126842808Y-137899673D01*
X126700162Y-138243201D01*
X126699838Y-138615167D01*
X126841883Y-138958943D01*
X127104673Y-139222192D01*
X127448201Y-139364838D01*
X127820167Y-139365162D01*
X128163943Y-139223117D01*
X128409960Y-138977529D01*
X128409960Y-139419330D01*
X128449103Y-139627356D01*
X128409960Y-139820650D01*
X128409960Y-141418310D01*
X128454238Y-141653627D01*
X128593310Y-141869751D01*
X128805510Y-142014741D01*
X129057400Y-142065750D01*
X132054600Y-142065750D01*
X132289917Y-142021472D01*
X132506041Y-141882400D01*
X132651031Y-141670200D01*
X132702040Y-141418310D01*
X132702040Y-140126842D01*
X132812599Y-140237401D01*
X133059161Y-140402148D01*
X133225000Y-140435136D01*
X133225000Y-140970000D01*
X133282852Y-141260839D01*
X133447599Y-141507401D01*
X133694161Y-141672148D01*
X133985000Y-141730000D01*
X134503437Y-141730000D01*
X134703110Y-141866431D01*
X134955000Y-141917440D01*
X136505000Y-141917440D01*
X136740317Y-141873162D01*
X136956441Y-141734090D01*
X137101431Y-141521890D01*
X137152440Y-141270000D01*
X137152440Y-140670000D01*
X137145852Y-140634988D01*
X137345167Y-140635162D01*
X137688943Y-140493117D01*
X137918829Y-140263631D01*
X139162599Y-141507401D01*
X139409161Y-141672148D01*
X139700000Y-141730000D01*
X139903437Y-141730000D01*
X140103110Y-141866431D01*
X140355000Y-141917440D01*
X141905000Y-141917440D01*
X142140317Y-141873162D01*
X142356441Y-141734090D01*
X142501431Y-141521890D01*
X142552440Y-141270000D01*
X142552440Y-140670000D01*
X142512926Y-140460000D01*
X144780000Y-140460000D01*
X145070839Y-140402148D01*
X145317401Y-140237401D01*
X148492401Y-137062401D01*
X148657148Y-136815839D01*
X148715000Y-136525000D01*
X148715000Y-130810000D01*
X148657148Y-130519161D01*
X148492401Y-130272599D01*
X147857401Y-129637599D01*
X147610839Y-129472852D01*
X147323407Y-129415678D01*
X147129147Y-129124946D01*
X146799974Y-128905000D01*
X147129147Y-128685054D01*
X147451054Y-128203285D01*
X147564093Y-127635000D01*
X147451054Y-127066715D01*
X147129147Y-126584946D01*
X146799974Y-126365000D01*
X147129147Y-126145054D01*
X147451054Y-125663285D01*
X147564093Y-125095000D01*
X147451054Y-124526715D01*
X147129147Y-124044946D01*
X147087548Y-124017150D01*
X147135317Y-124008162D01*
X147351441Y-123869090D01*
X147496431Y-123656890D01*
X147547440Y-123405000D01*
X147547440Y-121705000D01*
X147503162Y-121469683D01*
X147364090Y-121253559D01*
X147151890Y-121108569D01*
X146900000Y-121057560D01*
X146810000Y-121057560D01*
X146810000Y-118745000D01*
X146752148Y-118454161D01*
X146687797Y-118357852D01*
X146587401Y-118207598D01*
X145661300Y-117281497D01*
X145785317Y-117258162D01*
X146001441Y-117119090D01*
X146049134Y-117049289D01*
X146085910Y-117106441D01*
X146298110Y-117251431D01*
X146550000Y-117302440D01*
X147750000Y-117302440D01*
X147985317Y-117258162D01*
X148201441Y-117119090D01*
X148262239Y-117030110D01*
X152524943Y-116319659D01*
X152605925Y-116289039D01*
X152690839Y-116272148D01*
X152743299Y-116237095D01*
X152802314Y-116214781D01*
X152865413Y-116155502D01*
X152937401Y-116107401D01*
X153914304Y-115130498D01*
X154238285Y-115066054D01*
X154720054Y-114744147D01*
X154933301Y-114425000D01*
X154946699Y-114425000D01*
X155159946Y-114744147D01*
X155641715Y-115066054D01*
X156210000Y-115179093D01*
X156778285Y-115066054D01*
X157260054Y-114744147D01*
X157487702Y-114403447D01*
X157554817Y-114546358D01*
X157983076Y-114936645D01*
X158393110Y-115106476D01*
X158623000Y-114985155D01*
X158623000Y-113792000D01*
X158877000Y-113792000D01*
X158877000Y-114985155D01*
X159106890Y-115106476D01*
X159516924Y-114936645D01*
X159945183Y-114546358D01*
X160020000Y-114387046D01*
X160094817Y-114546358D01*
X160523076Y-114936645D01*
X160933110Y-115106476D01*
X161163000Y-114985155D01*
X161163000Y-113792000D01*
X158877000Y-113792000D01*
X158623000Y-113792000D01*
X158603000Y-113792000D01*
X158603000Y-113538000D01*
X158623000Y-113538000D01*
X158623000Y-112344845D01*
X158877000Y-112344845D01*
X158877000Y-113538000D01*
X161163000Y-113538000D01*
X161163000Y-112344845D01*
X160933110Y-112223524D01*
X160523076Y-112393355D01*
X160094817Y-112783642D01*
X160020000Y-112942954D01*
X159945183Y-112783642D01*
X159516924Y-112393355D01*
X159106890Y-112223524D01*
X158877000Y-112344845D01*
X158623000Y-112344845D01*
X158393110Y-112223524D01*
X157983076Y-112393355D01*
X157554817Y-112783642D01*
X157487702Y-112926553D01*
X157260054Y-112585853D01*
X156778285Y-112263946D01*
X156210000Y-112150907D01*
X155641715Y-112263946D01*
X155159946Y-112585853D01*
X154946699Y-112905000D01*
X154933301Y-112905000D01*
X154720054Y-112585853D01*
X154238285Y-112263946D01*
X153670000Y-112150907D01*
X153101715Y-112263946D01*
X152619946Y-112585853D01*
X152592150Y-112627452D01*
X152583162Y-112579683D01*
X152444090Y-112363559D01*
X152231890Y-112218569D01*
X151980000Y-112167560D01*
X150707362Y-112167560D01*
X149104802Y-110565000D01*
X167565000Y-110565000D01*
X167565000Y-112802781D01*
G36*
X128409960Y-133419850D02*
X128449103Y-133627876D01*
X128409960Y-133821170D01*
X128409960Y-135418830D01*
X128449429Y-135628587D01*
X128422400Y-135693840D01*
X128422400Y-136333230D01*
X128581150Y-136491980D01*
X130429000Y-136491980D01*
X130429000Y-136471980D01*
X130683000Y-136471980D01*
X130683000Y-136491980D01*
X132530850Y-136491980D01*
X132689600Y-136333230D01*
X132689600Y-135693840D01*
X132660551Y-135623709D01*
X132702040Y-135418830D01*
X132702040Y-135046842D01*
X134342527Y-136687329D01*
X134307560Y-136860000D01*
X134307560Y-137460000D01*
X134351838Y-137695317D01*
X134415678Y-137794528D01*
X134358569Y-137878110D01*
X134307560Y-138130000D01*
X134307560Y-138730000D01*
X134347074Y-138940000D01*
X133664802Y-138940000D01*
X132807901Y-138083099D01*
X132702040Y-138012365D01*
X132702040Y-137821670D01*
X132662243Y-137610166D01*
X132689600Y-137544120D01*
X132689600Y-136904730D01*
X132530850Y-136745980D01*
X130683000Y-136745980D01*
X130683000Y-136765980D01*
X130429000Y-136765980D01*
X130429000Y-136745980D01*
X128581150Y-136745980D01*
X128422400Y-136904730D01*
X128422400Y-137544120D01*
X128451795Y-137615085D01*
X128409960Y-137821670D01*
X128409960Y-137882868D01*
X128395000Y-137867882D01*
X128395000Y-132394802D01*
X128409960Y-132379842D01*
X128409960Y-133419850D01*
X128409960Y-133419850D01*
G37*
X128409960Y-133419850D02*
X128449103Y-133627876D01*
X128409960Y-133821170D01*
X128409960Y-135418830D01*
X128449429Y-135628587D01*
X128422400Y-135693840D01*
X128422400Y-136333230D01*
X128581150Y-136491980D01*
X130429000Y-136491980D01*
X130429000Y-136471980D01*
X130683000Y-136471980D01*
X130683000Y-136491980D01*
X132530850Y-136491980D01*
X132689600Y-136333230D01*
X132689600Y-135693840D01*
X132660551Y-135623709D01*
X132702040Y-135418830D01*
X132702040Y-135046842D01*
X134342527Y-136687329D01*
X134307560Y-136860000D01*
X134307560Y-137460000D01*
X134351838Y-137695317D01*
X134415678Y-137794528D01*
X134358569Y-137878110D01*
X134307560Y-138130000D01*
X134307560Y-138730000D01*
X134347074Y-138940000D01*
X133664802Y-138940000D01*
X132807901Y-138083099D01*
X132702040Y-138012365D01*
X132702040Y-137821670D01*
X132662243Y-137610166D01*
X132689600Y-137544120D01*
X132689600Y-136904730D01*
X132530850Y-136745980D01*
X130683000Y-136745980D01*
X130683000Y-136765980D01*
X130429000Y-136765980D01*
X130429000Y-136745980D01*
X128581150Y-136745980D01*
X128422400Y-136904730D01*
X128422400Y-137544120D01*
X128451795Y-137615085D01*
X128409960Y-137821670D01*
X128409960Y-137882868D01*
X128395000Y-137867882D01*
X128395000Y-132394802D01*
X128409960Y-132379842D01*
X128409960Y-133419850D01*
G36*
X144970853Y-136305054D02*
X145452622Y-136626961D01*
X146020907Y-136740000D01*
X146079093Y-136740000D01*
X146647378Y-136626961D01*
X147041742Y-136363456D01*
X144465198Y-138940000D01*
X142509914Y-138940000D01*
X142552440Y-138730000D01*
X142552440Y-138130000D01*
X142508162Y-137894683D01*
X142449822Y-137804020D01*
X142540000Y-137586310D01*
X142540000Y-137445750D01*
X142381250Y-137287000D01*
X141257000Y-137287000D01*
X141257000Y-137307000D01*
X141003000Y-137307000D01*
X141003000Y-137287000D01*
X139878750Y-137287000D01*
X139720000Y-137445750D01*
X139720000Y-137586310D01*
X139809806Y-137803122D01*
X139758569Y-137878110D01*
X139744979Y-137945219D01*
X139560320Y-138129878D01*
X139514833Y-138129838D01*
X139346403Y-138199432D01*
X139223117Y-137901057D01*
X139190000Y-137867882D01*
X139190000Y-136839802D01*
X139296112Y-136733690D01*
X139720000Y-136733690D01*
X139720000Y-136874250D01*
X139878750Y-137033000D01*
X141003000Y-137033000D01*
X141003000Y-136383750D01*
X141257000Y-136383750D01*
X141257000Y-137033000D01*
X142381250Y-137033000D01*
X142540000Y-136874250D01*
X142540000Y-136733690D01*
X142443327Y-136500301D01*
X142264698Y-136321673D01*
X142031309Y-136225000D01*
X141415750Y-136225000D01*
X141257000Y-136383750D01*
X141003000Y-136383750D01*
X140844250Y-136225000D01*
X140228691Y-136225000D01*
X139995302Y-136321673D01*
X139816673Y-136500301D01*
X139720000Y-136733690D01*
X139296112Y-136733690D01*
X140014802Y-136015000D01*
X144777046Y-136015000D01*
X144970853Y-136305054D01*
X144970853Y-136305054D01*
G37*
X144970853Y-136305054D02*
X145452622Y-136626961D01*
X146020907Y-136740000D01*
X146079093Y-136740000D01*
X146647378Y-136626961D01*
X147041742Y-136363456D01*
X144465198Y-138940000D01*
X142509914Y-138940000D01*
X142552440Y-138730000D01*
X142552440Y-138130000D01*
X142508162Y-137894683D01*
X142449822Y-137804020D01*
X142540000Y-137586310D01*
X142540000Y-137445750D01*
X142381250Y-137287000D01*
X141257000Y-137287000D01*
X141257000Y-137307000D01*
X141003000Y-137307000D01*
X141003000Y-137287000D01*
X139878750Y-137287000D01*
X139720000Y-137445750D01*
X139720000Y-137586310D01*
X139809806Y-137803122D01*
X139758569Y-137878110D01*
X139744979Y-137945219D01*
X139560320Y-138129878D01*
X139514833Y-138129838D01*
X139346403Y-138199432D01*
X139223117Y-137901057D01*
X139190000Y-137867882D01*
X139190000Y-136839802D01*
X139296112Y-136733690D01*
X139720000Y-136733690D01*
X139720000Y-136874250D01*
X139878750Y-137033000D01*
X141003000Y-137033000D01*
X141003000Y-136383750D01*
X141257000Y-136383750D01*
X141257000Y-137033000D01*
X142381250Y-137033000D01*
X142540000Y-136874250D01*
X142540000Y-136733690D01*
X142443327Y-136500301D01*
X142264698Y-136321673D01*
X142031309Y-136225000D01*
X141415750Y-136225000D01*
X141257000Y-136383750D01*
X141003000Y-136383750D01*
X140844250Y-136225000D01*
X140228691Y-136225000D01*
X139995302Y-136321673D01*
X139816673Y-136500301D01*
X139720000Y-136733690D01*
X139296112Y-136733690D01*
X140014802Y-136015000D01*
X144777046Y-136015000D01*
X144970853Y-136305054D01*
G36*
X135352599Y-127537401D02*
X135599160Y-127702148D01*
X135625569Y-127707401D01*
X135890000Y-127760000D01*
X141361447Y-127760000D01*
X144561601Y-130045825D01*
X144535907Y-130175000D01*
X144648946Y-130743285D01*
X144970853Y-131225054D01*
X145300026Y-131445000D01*
X144970853Y-131664946D01*
X144648946Y-132146715D01*
X144560771Y-132590000D01*
X140335000Y-132590000D01*
X140044161Y-132647852D01*
X139797599Y-132812599D01*
X139560320Y-133049878D01*
X139514833Y-133049838D01*
X139171057Y-133191883D01*
X138907808Y-133454673D01*
X138765162Y-133798201D01*
X138765128Y-133836726D01*
X138689090Y-133718559D01*
X138476890Y-133573569D01*
X138331104Y-133544047D01*
X138327148Y-133524160D01*
X138162401Y-133277599D01*
X138095122Y-133210320D01*
X138095162Y-133164833D01*
X137953117Y-132821057D01*
X137690327Y-132557808D01*
X137346799Y-132415162D01*
X136974833Y-132414838D01*
X136631057Y-132556883D01*
X136367808Y-132819673D01*
X136225162Y-133163201D01*
X136224838Y-133535167D01*
X136237401Y-133565572D01*
X136025000Y-133522560D01*
X134825000Y-133522560D01*
X134745000Y-133537613D01*
X134745000Y-130920490D01*
X136080500Y-130920490D01*
X136080500Y-131261429D01*
X136177173Y-131494818D01*
X136355801Y-131673447D01*
X136589190Y-131770120D01*
X136930130Y-131770120D01*
X137088880Y-131611370D01*
X137088880Y-130761740D01*
X137342880Y-130761740D01*
X137342880Y-131611370D01*
X137501630Y-131770120D01*
X137842570Y-131770120D01*
X138075959Y-131673447D01*
X138254587Y-131494818D01*
X138351260Y-131261429D01*
X138351260Y-130920490D01*
X138192510Y-130761740D01*
X137342880Y-130761740D01*
X137088880Y-130761740D01*
X136239250Y-130761740D01*
X136080500Y-130920490D01*
X134745000Y-130920490D01*
X134745000Y-130525105D01*
X134886441Y-130434090D01*
X135031431Y-130221890D01*
X135060954Y-130076104D01*
X135080839Y-130072148D01*
X135176767Y-130008051D01*
X136080500Y-130008051D01*
X136080500Y-130348990D01*
X136239250Y-130507740D01*
X137088880Y-130507740D01*
X137088880Y-129658110D01*
X137342880Y-129658110D01*
X137342880Y-130507740D01*
X138192510Y-130507740D01*
X138351260Y-130348990D01*
X138351260Y-130134360D01*
X139766300Y-130134360D01*
X139766300Y-131135120D01*
X139810578Y-131370437D01*
X139949650Y-131586561D01*
X140161850Y-131731551D01*
X140413740Y-131782560D01*
X141414500Y-131782560D01*
X141649817Y-131738282D01*
X141865941Y-131599210D01*
X142010931Y-131387010D01*
X142061940Y-131135120D01*
X142061940Y-130134360D01*
X142017662Y-129899043D01*
X141878590Y-129682919D01*
X141666390Y-129537929D01*
X141414500Y-129486920D01*
X140413740Y-129486920D01*
X140178423Y-129531198D01*
X139962299Y-129670270D01*
X139817309Y-129882470D01*
X139766300Y-130134360D01*
X138351260Y-130134360D01*
X138351260Y-130008051D01*
X138254587Y-129774662D01*
X138075959Y-129596033D01*
X137842570Y-129499360D01*
X137501630Y-129499360D01*
X137342880Y-129658110D01*
X137088880Y-129658110D01*
X136930130Y-129499360D01*
X136589190Y-129499360D01*
X136355801Y-129596033D01*
X136177173Y-129774662D01*
X136080500Y-130008051D01*
X135176767Y-130008051D01*
X135327401Y-129907401D01*
X135394680Y-129840122D01*
X135440167Y-129840162D01*
X135783943Y-129698117D01*
X136047192Y-129435327D01*
X136189838Y-129091799D01*
X136190162Y-128719833D01*
X136048117Y-128376057D01*
X135785327Y-128112808D01*
X135441799Y-127970162D01*
X135069833Y-127969838D01*
X135039428Y-127982401D01*
X135082440Y-127770000D01*
X135082440Y-127267242D01*
X135352599Y-127537401D01*
X135352599Y-127537401D01*
G37*
X135352599Y-127537401D02*
X135599160Y-127702148D01*
X135625569Y-127707401D01*
X135890000Y-127760000D01*
X141361447Y-127760000D01*
X144561601Y-130045825D01*
X144535907Y-130175000D01*
X144648946Y-130743285D01*
X144970853Y-131225054D01*
X145300026Y-131445000D01*
X144970853Y-131664946D01*
X144648946Y-132146715D01*
X144560771Y-132590000D01*
X140335000Y-132590000D01*
X140044161Y-132647852D01*
X139797599Y-132812599D01*
X139560320Y-133049878D01*
X139514833Y-133049838D01*
X139171057Y-133191883D01*
X138907808Y-133454673D01*
X138765162Y-133798201D01*
X138765128Y-133836726D01*
X138689090Y-133718559D01*
X138476890Y-133573569D01*
X138331104Y-133544047D01*
X138327148Y-133524160D01*
X138162401Y-133277599D01*
X138095122Y-133210320D01*
X138095162Y-133164833D01*
X137953117Y-132821057D01*
X137690327Y-132557808D01*
X137346799Y-132415162D01*
X136974833Y-132414838D01*
X136631057Y-132556883D01*
X136367808Y-132819673D01*
X136225162Y-133163201D01*
X136224838Y-133535167D01*
X136237401Y-133565572D01*
X136025000Y-133522560D01*
X134825000Y-133522560D01*
X134745000Y-133537613D01*
X134745000Y-130920490D01*
X136080500Y-130920490D01*
X136080500Y-131261429D01*
X136177173Y-131494818D01*
X136355801Y-131673447D01*
X136589190Y-131770120D01*
X136930130Y-131770120D01*
X137088880Y-131611370D01*
X137088880Y-130761740D01*
X137342880Y-130761740D01*
X137342880Y-131611370D01*
X137501630Y-131770120D01*
X137842570Y-131770120D01*
X138075959Y-131673447D01*
X138254587Y-131494818D01*
X138351260Y-131261429D01*
X138351260Y-130920490D01*
X138192510Y-130761740D01*
X137342880Y-130761740D01*
X137088880Y-130761740D01*
X136239250Y-130761740D01*
X136080500Y-130920490D01*
X134745000Y-130920490D01*
X134745000Y-130525105D01*
X134886441Y-130434090D01*
X135031431Y-130221890D01*
X135060954Y-130076104D01*
X135080839Y-130072148D01*
X135176767Y-130008051D01*
X136080500Y-130008051D01*
X136080500Y-130348990D01*
X136239250Y-130507740D01*
X137088880Y-130507740D01*
X137088880Y-129658110D01*
X137342880Y-129658110D01*
X137342880Y-130507740D01*
X138192510Y-130507740D01*
X138351260Y-130348990D01*
X138351260Y-130134360D01*
X139766300Y-130134360D01*
X139766300Y-131135120D01*
X139810578Y-131370437D01*
X139949650Y-131586561D01*
X140161850Y-131731551D01*
X140413740Y-131782560D01*
X141414500Y-131782560D01*
X141649817Y-131738282D01*
X141865941Y-131599210D01*
X142010931Y-131387010D01*
X142061940Y-131135120D01*
X142061940Y-130134360D01*
X142017662Y-129899043D01*
X141878590Y-129682919D01*
X141666390Y-129537929D01*
X141414500Y-129486920D01*
X140413740Y-129486920D01*
X140178423Y-129531198D01*
X139962299Y-129670270D01*
X139817309Y-129882470D01*
X139766300Y-130134360D01*
X138351260Y-130134360D01*
X138351260Y-130008051D01*
X138254587Y-129774662D01*
X138075959Y-129596033D01*
X137842570Y-129499360D01*
X137501630Y-129499360D01*
X137342880Y-129658110D01*
X137088880Y-129658110D01*
X136930130Y-129499360D01*
X136589190Y-129499360D01*
X136355801Y-129596033D01*
X136177173Y-129774662D01*
X136080500Y-130008051D01*
X135176767Y-130008051D01*
X135327401Y-129907401D01*
X135394680Y-129840122D01*
X135440167Y-129840162D01*
X135783943Y-129698117D01*
X136047192Y-129435327D01*
X136189838Y-129091799D01*
X136190162Y-128719833D01*
X136048117Y-128376057D01*
X135785327Y-128112808D01*
X135441799Y-127970162D01*
X135069833Y-127969838D01*
X135039428Y-127982401D01*
X135082440Y-127770000D01*
X135082440Y-127267242D01*
X135352599Y-127537401D01*
G36*
X141304838Y-111310167D02*
X141374180Y-111477988D01*
X141338559Y-111500910D01*
X141193569Y-111713110D01*
X141142560Y-111965000D01*
X141142560Y-113165000D01*
X141186838Y-113400317D01*
X141325910Y-113616441D01*
X141395711Y-113664134D01*
X141338559Y-113700910D01*
X141193569Y-113913110D01*
X141142560Y-114165000D01*
X141142560Y-115365000D01*
X141145948Y-115383005D01*
X141076057Y-115411883D01*
X140812808Y-115674673D01*
X140670162Y-116018201D01*
X140669838Y-116390167D01*
X140811883Y-116733943D01*
X141074673Y-116997192D01*
X141418201Y-117139838D01*
X141790167Y-117140162D01*
X141852560Y-117114382D01*
X141852560Y-117760000D01*
X141896838Y-117995317D01*
X141970620Y-118109978D01*
X141903569Y-118208110D01*
X141852560Y-118460000D01*
X141852560Y-118795765D01*
X141800000Y-119060000D01*
X141852560Y-119324235D01*
X141852560Y-119660000D01*
X141896838Y-119895317D01*
X142035910Y-120111441D01*
X142115000Y-120165481D01*
X142115000Y-120970198D01*
X140376719Y-122708479D01*
X140211972Y-122955041D01*
X140154120Y-123245880D01*
X140154120Y-123547357D01*
X139962299Y-123670790D01*
X139817309Y-123882990D01*
X139766300Y-124134880D01*
X139766300Y-125135640D01*
X139810578Y-125370957D01*
X139949650Y-125587081D01*
X140161850Y-125732071D01*
X140413740Y-125783080D01*
X141414500Y-125783080D01*
X141649817Y-125738802D01*
X141865941Y-125599730D01*
X142010931Y-125387530D01*
X142061940Y-125135640D01*
X142061940Y-124134880D01*
X142017662Y-123899563D01*
X141878590Y-123683439D01*
X141684190Y-123550612D01*
X143412401Y-121822401D01*
X143577148Y-121575839D01*
X143635000Y-121285000D01*
X143635000Y-120166844D01*
X143701441Y-120124090D01*
X143846431Y-119911890D01*
X143897440Y-119660000D01*
X143897440Y-118460000D01*
X143853162Y-118224683D01*
X143779380Y-118110022D01*
X143846431Y-118011890D01*
X143865039Y-117920000D01*
X144150198Y-117920000D01*
X145290000Y-119059803D01*
X145290000Y-121057560D01*
X145200000Y-121057560D01*
X144964683Y-121101838D01*
X144748559Y-121240910D01*
X144603569Y-121453110D01*
X144552560Y-121705000D01*
X144552560Y-123405000D01*
X144596838Y-123640317D01*
X144735910Y-123856441D01*
X144948110Y-124001431D01*
X145015541Y-124015086D01*
X144970853Y-124044946D01*
X144648946Y-124526715D01*
X144535907Y-125095000D01*
X144648946Y-125663285D01*
X144970853Y-126145054D01*
X145300026Y-126365000D01*
X144970853Y-126584946D01*
X144648946Y-127066715D01*
X144535907Y-127635000D01*
X144648946Y-128203285D01*
X144696236Y-128274059D01*
X142046741Y-126381563D01*
X141967826Y-126345952D01*
X141895839Y-126297852D01*
X141833958Y-126285543D01*
X141776450Y-126259592D01*
X141689917Y-126256891D01*
X141605000Y-126240000D01*
X136204802Y-126240000D01*
X134724894Y-124760092D01*
X134805167Y-124760162D01*
X135148943Y-124618117D01*
X135412192Y-124355327D01*
X135503730Y-124134880D01*
X136068060Y-124134880D01*
X136068060Y-125135640D01*
X136112338Y-125370957D01*
X136251410Y-125587081D01*
X136463610Y-125732071D01*
X136715500Y-125783080D01*
X137716260Y-125783080D01*
X137951577Y-125738802D01*
X138167701Y-125599730D01*
X138312691Y-125387530D01*
X138363700Y-125135640D01*
X138363700Y-124134880D01*
X138319422Y-123899563D01*
X138180350Y-123683439D01*
X137968150Y-123538449D01*
X137716260Y-123487440D01*
X136715500Y-123487440D01*
X136480183Y-123531718D01*
X136264059Y-123670790D01*
X136119069Y-123882990D01*
X136068060Y-124134880D01*
X135503730Y-124134880D01*
X135554838Y-124011799D01*
X135555162Y-123639833D01*
X135413117Y-123296057D01*
X135380000Y-123262882D01*
X135380000Y-122680000D01*
X138110000Y-122680000D01*
X138400839Y-122622148D01*
X138647401Y-122457401D01*
X138892362Y-122212440D01*
X139440000Y-122212440D01*
X139675317Y-122168162D01*
X139891441Y-122029090D01*
X140036431Y-121816890D01*
X140087440Y-121565000D01*
X140087440Y-120365000D01*
X140043162Y-120129683D01*
X139976671Y-120026354D01*
X139978327Y-120024698D01*
X140075000Y-119791309D01*
X140075000Y-119350750D01*
X139916250Y-119192000D01*
X139192000Y-119192000D01*
X139192000Y-119212000D01*
X138938000Y-119212000D01*
X138938000Y-119192000D01*
X138918000Y-119192000D01*
X138918000Y-118938000D01*
X138938000Y-118938000D01*
X138938000Y-117988750D01*
X139192000Y-117988750D01*
X139192000Y-118938000D01*
X139916250Y-118938000D01*
X140075000Y-118779250D01*
X140075000Y-118338691D01*
X139978327Y-118105302D01*
X139799699Y-117926673D01*
X139566310Y-117830000D01*
X139350750Y-117830000D01*
X139192000Y-117988750D01*
X138938000Y-117988750D01*
X138779250Y-117830000D01*
X138563690Y-117830000D01*
X138330301Y-117926673D01*
X138151673Y-118105302D01*
X138055000Y-118338691D01*
X138055000Y-118565198D01*
X137245000Y-117755198D01*
X137245000Y-117464216D01*
X137330317Y-117448162D01*
X137546441Y-117309090D01*
X137691431Y-117096890D01*
X137742440Y-116845000D01*
X137742440Y-116337362D01*
X137918137Y-116161665D01*
X137956673Y-116254699D01*
X138135302Y-116433327D01*
X138368691Y-116530000D01*
X138819250Y-116530000D01*
X138978000Y-116371250D01*
X138978000Y-115697000D01*
X139232000Y-115697000D01*
X139232000Y-116371250D01*
X139390750Y-116530000D01*
X139841309Y-116530000D01*
X140074698Y-116433327D01*
X140253327Y-116254699D01*
X140350000Y-116021310D01*
X140350000Y-115855750D01*
X140191250Y-115697000D01*
X139232000Y-115697000D01*
X138978000Y-115697000D01*
X138958000Y-115697000D01*
X138958000Y-115443000D01*
X138978000Y-115443000D01*
X138978000Y-114768750D01*
X139232000Y-114768750D01*
X139232000Y-115443000D01*
X140191250Y-115443000D01*
X140350000Y-115284250D01*
X140350000Y-115118690D01*
X140253327Y-114885301D01*
X140074698Y-114706673D01*
X139841309Y-114610000D01*
X139390750Y-114610000D01*
X139232000Y-114768750D01*
X138978000Y-114768750D01*
X138819250Y-114610000D01*
X138555000Y-114610000D01*
X138555000Y-113030000D01*
X138497148Y-112739161D01*
X138332401Y-112492599D01*
X138237440Y-112397638D01*
X138237440Y-111945000D01*
X138193162Y-111709683D01*
X138054090Y-111493559D01*
X137841890Y-111348569D01*
X137590000Y-111297560D01*
X136390000Y-111297560D01*
X136154683Y-111341838D01*
X135938559Y-111480910D01*
X135890866Y-111550711D01*
X135854090Y-111493559D01*
X135641890Y-111348569D01*
X135390000Y-111297560D01*
X134190000Y-111297560D01*
X133954683Y-111341838D01*
X133738559Y-111480910D01*
X133593569Y-111693110D01*
X133542560Y-111945000D01*
X133542560Y-112567638D01*
X133205198Y-112905000D01*
X133145000Y-112905000D01*
X133145000Y-112680750D01*
X132986250Y-112522000D01*
X132037000Y-112522000D01*
X132037000Y-112542000D01*
X131783000Y-112542000D01*
X131783000Y-112522000D01*
X131763000Y-112522000D01*
X131763000Y-112268000D01*
X131783000Y-112268000D01*
X131783000Y-111468750D01*
X132037000Y-111468750D01*
X132037000Y-112268000D01*
X132986250Y-112268000D01*
X133145000Y-112109250D01*
X133145000Y-111818690D01*
X133048327Y-111585301D01*
X132869698Y-111406673D01*
X132636309Y-111310000D01*
X132195750Y-111310000D01*
X132037000Y-111468750D01*
X131783000Y-111468750D01*
X131624250Y-111310000D01*
X131183691Y-111310000D01*
X130950302Y-111406673D01*
X130809064Y-111547910D01*
X130774090Y-111493559D01*
X130561890Y-111348569D01*
X130310000Y-111297560D01*
X129110000Y-111297560D01*
X128874683Y-111341838D01*
X128658559Y-111480910D01*
X128553274Y-111635000D01*
X127786844Y-111635000D01*
X127744090Y-111568559D01*
X127531890Y-111423569D01*
X127280000Y-111372560D01*
X126732362Y-111372560D01*
X126609802Y-111250000D01*
X141304890Y-111250000D01*
X141304838Y-111310167D01*
X141304838Y-111310167D01*
G37*
X141304838Y-111310167D02*
X141374180Y-111477988D01*
X141338559Y-111500910D01*
X141193569Y-111713110D01*
X141142560Y-111965000D01*
X141142560Y-113165000D01*
X141186838Y-113400317D01*
X141325910Y-113616441D01*
X141395711Y-113664134D01*
X141338559Y-113700910D01*
X141193569Y-113913110D01*
X141142560Y-114165000D01*
X141142560Y-115365000D01*
X141145948Y-115383005D01*
X141076057Y-115411883D01*
X140812808Y-115674673D01*
X140670162Y-116018201D01*
X140669838Y-116390167D01*
X140811883Y-116733943D01*
X141074673Y-116997192D01*
X141418201Y-117139838D01*
X141790167Y-117140162D01*
X141852560Y-117114382D01*
X141852560Y-117760000D01*
X141896838Y-117995317D01*
X141970620Y-118109978D01*
X141903569Y-118208110D01*
X141852560Y-118460000D01*
X141852560Y-118795765D01*
X141800000Y-119060000D01*
X141852560Y-119324235D01*
X141852560Y-119660000D01*
X141896838Y-119895317D01*
X142035910Y-120111441D01*
X142115000Y-120165481D01*
X142115000Y-120970198D01*
X140376719Y-122708479D01*
X140211972Y-122955041D01*
X140154120Y-123245880D01*
X140154120Y-123547357D01*
X139962299Y-123670790D01*
X139817309Y-123882990D01*
X139766300Y-124134880D01*
X139766300Y-125135640D01*
X139810578Y-125370957D01*
X139949650Y-125587081D01*
X140161850Y-125732071D01*
X140413740Y-125783080D01*
X141414500Y-125783080D01*
X141649817Y-125738802D01*
X141865941Y-125599730D01*
X142010931Y-125387530D01*
X142061940Y-125135640D01*
X142061940Y-124134880D01*
X142017662Y-123899563D01*
X141878590Y-123683439D01*
X141684190Y-123550612D01*
X143412401Y-121822401D01*
X143577148Y-121575839D01*
X143635000Y-121285000D01*
X143635000Y-120166844D01*
X143701441Y-120124090D01*
X143846431Y-119911890D01*
X143897440Y-119660000D01*
X143897440Y-118460000D01*
X143853162Y-118224683D01*
X143779380Y-118110022D01*
X143846431Y-118011890D01*
X143865039Y-117920000D01*
X144150198Y-117920000D01*
X145290000Y-119059803D01*
X145290000Y-121057560D01*
X145200000Y-121057560D01*
X144964683Y-121101838D01*
X144748559Y-121240910D01*
X144603569Y-121453110D01*
X144552560Y-121705000D01*
X144552560Y-123405000D01*
X144596838Y-123640317D01*
X144735910Y-123856441D01*
X144948110Y-124001431D01*
X145015541Y-124015086D01*
X144970853Y-124044946D01*
X144648946Y-124526715D01*
X144535907Y-125095000D01*
X144648946Y-125663285D01*
X144970853Y-126145054D01*
X145300026Y-126365000D01*
X144970853Y-126584946D01*
X144648946Y-127066715D01*
X144535907Y-127635000D01*
X144648946Y-128203285D01*
X144696236Y-128274059D01*
X142046741Y-126381563D01*
X141967826Y-126345952D01*
X141895839Y-126297852D01*
X141833958Y-126285543D01*
X141776450Y-126259592D01*
X141689917Y-126256891D01*
X141605000Y-126240000D01*
X136204802Y-126240000D01*
X134724894Y-124760092D01*
X134805167Y-124760162D01*
X135148943Y-124618117D01*
X135412192Y-124355327D01*
X135503730Y-124134880D01*
X136068060Y-124134880D01*
X136068060Y-125135640D01*
X136112338Y-125370957D01*
X136251410Y-125587081D01*
X136463610Y-125732071D01*
X136715500Y-125783080D01*
X137716260Y-125783080D01*
X137951577Y-125738802D01*
X138167701Y-125599730D01*
X138312691Y-125387530D01*
X138363700Y-125135640D01*
X138363700Y-124134880D01*
X138319422Y-123899563D01*
X138180350Y-123683439D01*
X137968150Y-123538449D01*
X137716260Y-123487440D01*
X136715500Y-123487440D01*
X136480183Y-123531718D01*
X136264059Y-123670790D01*
X136119069Y-123882990D01*
X136068060Y-124134880D01*
X135503730Y-124134880D01*
X135554838Y-124011799D01*
X135555162Y-123639833D01*
X135413117Y-123296057D01*
X135380000Y-123262882D01*
X135380000Y-122680000D01*
X138110000Y-122680000D01*
X138400839Y-122622148D01*
X138647401Y-122457401D01*
X138892362Y-122212440D01*
X139440000Y-122212440D01*
X139675317Y-122168162D01*
X139891441Y-122029090D01*
X140036431Y-121816890D01*
X140087440Y-121565000D01*
X140087440Y-120365000D01*
X140043162Y-120129683D01*
X139976671Y-120026354D01*
X139978327Y-120024698D01*
X140075000Y-119791309D01*
X140075000Y-119350750D01*
X139916250Y-119192000D01*
X139192000Y-119192000D01*
X139192000Y-119212000D01*
X138938000Y-119212000D01*
X138938000Y-119192000D01*
X138918000Y-119192000D01*
X138918000Y-118938000D01*
X138938000Y-118938000D01*
X138938000Y-117988750D01*
X139192000Y-117988750D01*
X139192000Y-118938000D01*
X139916250Y-118938000D01*
X140075000Y-118779250D01*
X140075000Y-118338691D01*
X139978327Y-118105302D01*
X139799699Y-117926673D01*
X139566310Y-117830000D01*
X139350750Y-117830000D01*
X139192000Y-117988750D01*
X138938000Y-117988750D01*
X138779250Y-117830000D01*
X138563690Y-117830000D01*
X138330301Y-117926673D01*
X138151673Y-118105302D01*
X138055000Y-118338691D01*
X138055000Y-118565198D01*
X137245000Y-117755198D01*
X137245000Y-117464216D01*
X137330317Y-117448162D01*
X137546441Y-117309090D01*
X137691431Y-117096890D01*
X137742440Y-116845000D01*
X137742440Y-116337362D01*
X137918137Y-116161665D01*
X137956673Y-116254699D01*
X138135302Y-116433327D01*
X138368691Y-116530000D01*
X138819250Y-116530000D01*
X138978000Y-116371250D01*
X138978000Y-115697000D01*
X139232000Y-115697000D01*
X139232000Y-116371250D01*
X139390750Y-116530000D01*
X139841309Y-116530000D01*
X140074698Y-116433327D01*
X140253327Y-116254699D01*
X140350000Y-116021310D01*
X140350000Y-115855750D01*
X140191250Y-115697000D01*
X139232000Y-115697000D01*
X138978000Y-115697000D01*
X138958000Y-115697000D01*
X138958000Y-115443000D01*
X138978000Y-115443000D01*
X138978000Y-114768750D01*
X139232000Y-114768750D01*
X139232000Y-115443000D01*
X140191250Y-115443000D01*
X140350000Y-115284250D01*
X140350000Y-115118690D01*
X140253327Y-114885301D01*
X140074698Y-114706673D01*
X139841309Y-114610000D01*
X139390750Y-114610000D01*
X139232000Y-114768750D01*
X138978000Y-114768750D01*
X138819250Y-114610000D01*
X138555000Y-114610000D01*
X138555000Y-113030000D01*
X138497148Y-112739161D01*
X138332401Y-112492599D01*
X138237440Y-112397638D01*
X138237440Y-111945000D01*
X138193162Y-111709683D01*
X138054090Y-111493559D01*
X137841890Y-111348569D01*
X137590000Y-111297560D01*
X136390000Y-111297560D01*
X136154683Y-111341838D01*
X135938559Y-111480910D01*
X135890866Y-111550711D01*
X135854090Y-111493559D01*
X135641890Y-111348569D01*
X135390000Y-111297560D01*
X134190000Y-111297560D01*
X133954683Y-111341838D01*
X133738559Y-111480910D01*
X133593569Y-111693110D01*
X133542560Y-111945000D01*
X133542560Y-112567638D01*
X133205198Y-112905000D01*
X133145000Y-112905000D01*
X133145000Y-112680750D01*
X132986250Y-112522000D01*
X132037000Y-112522000D01*
X132037000Y-112542000D01*
X131783000Y-112542000D01*
X131783000Y-112522000D01*
X131763000Y-112522000D01*
X131763000Y-112268000D01*
X131783000Y-112268000D01*
X131783000Y-111468750D01*
X132037000Y-111468750D01*
X132037000Y-112268000D01*
X132986250Y-112268000D01*
X133145000Y-112109250D01*
X133145000Y-111818690D01*
X133048327Y-111585301D01*
X132869698Y-111406673D01*
X132636309Y-111310000D01*
X132195750Y-111310000D01*
X132037000Y-111468750D01*
X131783000Y-111468750D01*
X131624250Y-111310000D01*
X131183691Y-111310000D01*
X130950302Y-111406673D01*
X130809064Y-111547910D01*
X130774090Y-111493559D01*
X130561890Y-111348569D01*
X130310000Y-111297560D01*
X129110000Y-111297560D01*
X128874683Y-111341838D01*
X128658559Y-111480910D01*
X128553274Y-111635000D01*
X127786844Y-111635000D01*
X127744090Y-111568559D01*
X127531890Y-111423569D01*
X127280000Y-111372560D01*
X126732362Y-111372560D01*
X126609802Y-111250000D01*
X141304890Y-111250000D01*
X141304838Y-111310167D01*
G36*
X122254838Y-116390167D02*
X122396883Y-116733943D01*
X122659673Y-116997192D01*
X123003201Y-117139838D01*
X123207560Y-117140016D01*
X123207560Y-117655000D01*
X123227450Y-117760705D01*
X123220000Y-117778690D01*
X123220000Y-117894250D01*
X123316401Y-117990651D01*
X123390910Y-118106441D01*
X123498397Y-118179884D01*
X123403559Y-118240910D01*
X123314505Y-118371245D01*
X123220000Y-118465750D01*
X123220000Y-118581310D01*
X123228468Y-118601753D01*
X123207560Y-118705000D01*
X123207560Y-119255000D01*
X123227450Y-119360705D01*
X123220000Y-119378690D01*
X123220000Y-119494250D01*
X123316401Y-119590651D01*
X123390910Y-119706441D01*
X123498397Y-119779884D01*
X123436054Y-119820000D01*
X122304802Y-119820000D01*
X121577440Y-119092638D01*
X121577440Y-119005000D01*
X121533162Y-118769683D01*
X121394090Y-118553559D01*
X121181890Y-118408569D01*
X121082738Y-118388490D01*
X121077700Y-118363162D01*
X121032148Y-118134160D01*
X120867401Y-117887599D01*
X120775000Y-117795198D01*
X120775000Y-117751400D01*
X120783690Y-117755000D01*
X120999250Y-117755000D01*
X121158000Y-117596250D01*
X121158000Y-116647000D01*
X121412000Y-116647000D01*
X121412000Y-117596250D01*
X121570750Y-117755000D01*
X121786310Y-117755000D01*
X122019699Y-117658327D01*
X122198327Y-117479698D01*
X122295000Y-117246309D01*
X122295000Y-116805750D01*
X122136250Y-116647000D01*
X121412000Y-116647000D01*
X121158000Y-116647000D01*
X121138000Y-116647000D01*
X121138000Y-116393000D01*
X121158000Y-116393000D01*
X121158000Y-116373000D01*
X121412000Y-116373000D01*
X121412000Y-116393000D01*
X122136250Y-116393000D01*
X122254939Y-116274311D01*
X122254838Y-116390167D01*
X122254838Y-116390167D01*
G37*
X122254838Y-116390167D02*
X122396883Y-116733943D01*
X122659673Y-116997192D01*
X123003201Y-117139838D01*
X123207560Y-117140016D01*
X123207560Y-117655000D01*
X123227450Y-117760705D01*
X123220000Y-117778690D01*
X123220000Y-117894250D01*
X123316401Y-117990651D01*
X123390910Y-118106441D01*
X123498397Y-118179884D01*
X123403559Y-118240910D01*
X123314505Y-118371245D01*
X123220000Y-118465750D01*
X123220000Y-118581310D01*
X123228468Y-118601753D01*
X123207560Y-118705000D01*
X123207560Y-119255000D01*
X123227450Y-119360705D01*
X123220000Y-119378690D01*
X123220000Y-119494250D01*
X123316401Y-119590651D01*
X123390910Y-119706441D01*
X123498397Y-119779884D01*
X123436054Y-119820000D01*
X122304802Y-119820000D01*
X121577440Y-119092638D01*
X121577440Y-119005000D01*
X121533162Y-118769683D01*
X121394090Y-118553559D01*
X121181890Y-118408569D01*
X121082738Y-118388490D01*
X121077700Y-118363162D01*
X121032148Y-118134160D01*
X120867401Y-117887599D01*
X120775000Y-117795198D01*
X120775000Y-117751400D01*
X120783690Y-117755000D01*
X120999250Y-117755000D01*
X121158000Y-117596250D01*
X121158000Y-116647000D01*
X121412000Y-116647000D01*
X121412000Y-117596250D01*
X121570750Y-117755000D01*
X121786310Y-117755000D01*
X122019699Y-117658327D01*
X122198327Y-117479698D01*
X122295000Y-117246309D01*
X122295000Y-116805750D01*
X122136250Y-116647000D01*
X121412000Y-116647000D01*
X121158000Y-116647000D01*
X121138000Y-116647000D01*
X121138000Y-116393000D01*
X121158000Y-116393000D01*
X121158000Y-116373000D01*
X121412000Y-116373000D01*
X121412000Y-116393000D01*
X122136250Y-116393000D01*
X122254939Y-116274311D01*
X122254838Y-116390167D01*
G36*
X136017000Y-118938000D02*
X136037000Y-118938000D01*
X136037000Y-119192000D01*
X136017000Y-119192000D01*
X136017000Y-119212000D01*
X135763000Y-119212000D01*
X135763000Y-119192000D01*
X135743000Y-119192000D01*
X135743000Y-118938000D01*
X135763000Y-118938000D01*
X135763000Y-118918000D01*
X136017000Y-118918000D01*
X136017000Y-118938000D01*
X136017000Y-118938000D01*
G37*
X136017000Y-118938000D02*
X136037000Y-118938000D01*
X136037000Y-119192000D01*
X136017000Y-119192000D01*
X136017000Y-119212000D01*
X135763000Y-119212000D01*
X135763000Y-119192000D01*
X135743000Y-119192000D01*
X135743000Y-118938000D01*
X135763000Y-118938000D01*
X135763000Y-118918000D01*
X136017000Y-118918000D01*
X136017000Y-118938000D01*
G36*
X135227560Y-114712362D02*
X135227560Y-114945000D01*
X135271838Y-115180317D01*
X135410910Y-115396441D01*
X135623110Y-115541431D01*
X135760120Y-115569176D01*
X135639683Y-115591838D01*
X135423559Y-115730910D01*
X135278569Y-115943110D01*
X135227560Y-116195000D01*
X135227560Y-116845000D01*
X135271838Y-117080317D01*
X135410910Y-117296441D01*
X135623110Y-117441431D01*
X135725000Y-117462064D01*
X135725000Y-117950750D01*
X135604250Y-117830000D01*
X135515978Y-117830000D01*
X135413117Y-117581057D01*
X135303251Y-117470999D01*
X135278645Y-117281923D01*
X135246651Y-117187211D01*
X135227148Y-117089161D01*
X135199607Y-117047944D01*
X135183744Y-117000982D01*
X135117944Y-116925726D01*
X135062401Y-116842599D01*
X135021183Y-116815058D01*
X134988556Y-116777742D01*
X134898963Y-116733394D01*
X134815839Y-116677852D01*
X134767220Y-116668181D01*
X134722796Y-116646191D01*
X134623052Y-116639504D01*
X134602440Y-116635404D01*
X134602440Y-116305000D01*
X134558162Y-116069683D01*
X134419090Y-115853559D01*
X134206890Y-115708569D01*
X133955000Y-115657560D01*
X132627440Y-115657560D01*
X132627440Y-114827362D01*
X133029802Y-114425000D01*
X133520000Y-114425000D01*
X133810839Y-114367148D01*
X134057401Y-114202401D01*
X134387500Y-113872302D01*
X135227560Y-114712362D01*
X135227560Y-114712362D01*
G37*
X135227560Y-114712362D02*
X135227560Y-114945000D01*
X135271838Y-115180317D01*
X135410910Y-115396441D01*
X135623110Y-115541431D01*
X135760120Y-115569176D01*
X135639683Y-115591838D01*
X135423559Y-115730910D01*
X135278569Y-115943110D01*
X135227560Y-116195000D01*
X135227560Y-116845000D01*
X135271838Y-117080317D01*
X135410910Y-117296441D01*
X135623110Y-117441431D01*
X135725000Y-117462064D01*
X135725000Y-117950750D01*
X135604250Y-117830000D01*
X135515978Y-117830000D01*
X135413117Y-117581057D01*
X135303251Y-117470999D01*
X135278645Y-117281923D01*
X135246651Y-117187211D01*
X135227148Y-117089161D01*
X135199607Y-117047944D01*
X135183744Y-117000982D01*
X135117944Y-116925726D01*
X135062401Y-116842599D01*
X135021183Y-116815058D01*
X134988556Y-116777742D01*
X134898963Y-116733394D01*
X134815839Y-116677852D01*
X134767220Y-116668181D01*
X134722796Y-116646191D01*
X134623052Y-116639504D01*
X134602440Y-116635404D01*
X134602440Y-116305000D01*
X134558162Y-116069683D01*
X134419090Y-115853559D01*
X134206890Y-115708569D01*
X133955000Y-115657560D01*
X132627440Y-115657560D01*
X132627440Y-114827362D01*
X133029802Y-114425000D01*
X133520000Y-114425000D01*
X133810839Y-114367148D01*
X134057401Y-114202401D01*
X134387500Y-113872302D01*
X135227560Y-114712362D01*
G36*
X123545000Y-111893690D02*
X123545000Y-112109250D01*
X123703750Y-112268000D01*
X124653000Y-112268000D01*
X124653000Y-112248000D01*
X124907000Y-112248000D01*
X124907000Y-112268000D01*
X124927000Y-112268000D01*
X124927000Y-112522000D01*
X124907000Y-112522000D01*
X124907000Y-113246250D01*
X125065750Y-113405000D01*
X125506309Y-113405000D01*
X125739698Y-113308327D01*
X125741068Y-113306957D01*
X125828110Y-113366431D01*
X126080000Y-113417440D01*
X127280000Y-113417440D01*
X127408430Y-113393274D01*
X127476883Y-113558943D01*
X127600284Y-113682560D01*
X127430000Y-113682560D01*
X127300411Y-113706944D01*
X127180000Y-113682560D01*
X126630000Y-113682560D01*
X126500411Y-113706944D01*
X126380000Y-113682560D01*
X125830000Y-113682560D01*
X125594683Y-113726838D01*
X125378559Y-113865910D01*
X125233569Y-114078110D01*
X125182560Y-114330000D01*
X125182560Y-114370000D01*
X123630000Y-114370000D01*
X123339161Y-114427852D01*
X123092599Y-114592599D01*
X122652599Y-115032599D01*
X122487852Y-115279161D01*
X122430000Y-115570000D01*
X122430000Y-115642537D01*
X122397808Y-115674673D01*
X122295000Y-115922261D01*
X122295000Y-115793691D01*
X122198327Y-115560302D01*
X122196957Y-115558932D01*
X122256431Y-115471890D01*
X122307440Y-115220000D01*
X122307440Y-114020000D01*
X122263162Y-113784683D01*
X122124090Y-113568559D01*
X122012686Y-113492440D01*
X122350000Y-113492440D01*
X122585317Y-113448162D01*
X122801441Y-113309090D01*
X122946431Y-113096890D01*
X122997440Y-112845000D01*
X122997440Y-112680750D01*
X123545000Y-112680750D01*
X123545000Y-112896310D01*
X123641673Y-113129699D01*
X123820302Y-113308327D01*
X124053691Y-113405000D01*
X124494250Y-113405000D01*
X124653000Y-113246250D01*
X124653000Y-112522000D01*
X123703750Y-112522000D01*
X123545000Y-112680750D01*
X122997440Y-112680750D01*
X122997440Y-111945000D01*
X122986150Y-111885000D01*
X123548600Y-111885000D01*
X123545000Y-111893690D01*
X123545000Y-111893690D01*
G37*
X123545000Y-111893690D02*
X123545000Y-112109250D01*
X123703750Y-112268000D01*
X124653000Y-112268000D01*
X124653000Y-112248000D01*
X124907000Y-112248000D01*
X124907000Y-112268000D01*
X124927000Y-112268000D01*
X124927000Y-112522000D01*
X124907000Y-112522000D01*
X124907000Y-113246250D01*
X125065750Y-113405000D01*
X125506309Y-113405000D01*
X125739698Y-113308327D01*
X125741068Y-113306957D01*
X125828110Y-113366431D01*
X126080000Y-113417440D01*
X127280000Y-113417440D01*
X127408430Y-113393274D01*
X127476883Y-113558943D01*
X127600284Y-113682560D01*
X127430000Y-113682560D01*
X127300411Y-113706944D01*
X127180000Y-113682560D01*
X126630000Y-113682560D01*
X126500411Y-113706944D01*
X126380000Y-113682560D01*
X125830000Y-113682560D01*
X125594683Y-113726838D01*
X125378559Y-113865910D01*
X125233569Y-114078110D01*
X125182560Y-114330000D01*
X125182560Y-114370000D01*
X123630000Y-114370000D01*
X123339161Y-114427852D01*
X123092599Y-114592599D01*
X122652599Y-115032599D01*
X122487852Y-115279161D01*
X122430000Y-115570000D01*
X122430000Y-115642537D01*
X122397808Y-115674673D01*
X122295000Y-115922261D01*
X122295000Y-115793691D01*
X122198327Y-115560302D01*
X122196957Y-115558932D01*
X122256431Y-115471890D01*
X122307440Y-115220000D01*
X122307440Y-114020000D01*
X122263162Y-113784683D01*
X122124090Y-113568559D01*
X122012686Y-113492440D01*
X122350000Y-113492440D01*
X122585317Y-113448162D01*
X122801441Y-113309090D01*
X122946431Y-113096890D01*
X122997440Y-112845000D01*
X122997440Y-112680750D01*
X123545000Y-112680750D01*
X123545000Y-112896310D01*
X123641673Y-113129699D01*
X123820302Y-113308327D01*
X124053691Y-113405000D01*
X124494250Y-113405000D01*
X124653000Y-113246250D01*
X124653000Y-112522000D01*
X123703750Y-112522000D01*
X123545000Y-112680750D01*
X122997440Y-112680750D01*
X122997440Y-111945000D01*
X122986150Y-111885000D01*
X123548600Y-111885000D01*
X123545000Y-111893690D01*
M02*
