G04 #@! TF.FileFunction,Soldermask,Bot*
%FSLAX46Y46*%
G04 Gerber Fmt 4.6, Leading zero omitted, Abs format (unit mm)*
G04 Created by KiCad (PCBNEW 4.0.7-e1-6374~58~ubuntu16.04.1) date Wed Aug  2 10:41:50 2017*
%MOMM*%
%LPD*%
G01*
G04 APERTURE LIST*
%ADD10C,0.100000*%
%ADD11C,0.300000*%
%ADD12C,2.600000*%
%ADD13R,2.100000X1.600000*%
%ADD14O,2.100000X1.600000*%
%ADD15R,2.100000X2.100000*%
%ADD16O,2.100000X2.100000*%
G04 APERTURE END LIST*
D10*
D11*
X104355001Y-147991429D02*
X104426430Y-147920000D01*
X104569287Y-147848571D01*
X104926430Y-147848571D01*
X105069287Y-147920000D01*
X105140716Y-147991429D01*
X105212144Y-148134286D01*
X105212144Y-148277143D01*
X105140716Y-148491429D01*
X104283573Y-149348571D01*
X105212144Y-149348571D01*
X105926429Y-149277143D02*
X105926429Y-149348571D01*
X105855001Y-149491429D01*
X105783572Y-149562857D01*
X107283573Y-147848571D02*
X106569287Y-147848571D01*
X106497858Y-148562857D01*
X106569287Y-148491429D01*
X106712144Y-148420000D01*
X107069287Y-148420000D01*
X107212144Y-148491429D01*
X107283573Y-148562857D01*
X107355001Y-148705714D01*
X107355001Y-149062857D01*
X107283573Y-149205714D01*
X107212144Y-149277143D01*
X107069287Y-149348571D01*
X106712144Y-149348571D01*
X106569287Y-149277143D01*
X106497858Y-149205714D01*
X108640715Y-148348571D02*
X108640715Y-149348571D01*
X108283572Y-147777143D02*
X107926429Y-148848571D01*
X108855001Y-148848571D01*
X109712143Y-147848571D02*
X109855000Y-147848571D01*
X109997857Y-147920000D01*
X110069286Y-147991429D01*
X110140715Y-148134286D01*
X110212143Y-148420000D01*
X110212143Y-148777143D01*
X110140715Y-149062857D01*
X110069286Y-149205714D01*
X109997857Y-149277143D01*
X109855000Y-149348571D01*
X109712143Y-149348571D01*
X109569286Y-149277143D01*
X109497857Y-149205714D01*
X109426429Y-149062857D01*
X109355000Y-148777143D01*
X109355000Y-148420000D01*
X109426429Y-148134286D01*
X109497857Y-147991429D01*
X109569286Y-147920000D01*
X109712143Y-147848571D01*
X111997857Y-149348571D02*
X111997857Y-148348571D01*
X111997857Y-148491429D02*
X112069285Y-148420000D01*
X112212143Y-148348571D01*
X112426428Y-148348571D01*
X112569285Y-148420000D01*
X112640714Y-148562857D01*
X112640714Y-149348571D01*
X112640714Y-148562857D02*
X112712143Y-148420000D01*
X112855000Y-148348571D01*
X113069285Y-148348571D01*
X113212143Y-148420000D01*
X113283571Y-148562857D01*
X113283571Y-149348571D01*
X113997857Y-149348571D02*
X113997857Y-148348571D01*
X113997857Y-148491429D02*
X114069285Y-148420000D01*
X114212143Y-148348571D01*
X114426428Y-148348571D01*
X114569285Y-148420000D01*
X114640714Y-148562857D01*
X114640714Y-149348571D01*
X114640714Y-148562857D02*
X114712143Y-148420000D01*
X114855000Y-148348571D01*
X115069285Y-148348571D01*
X115212143Y-148420000D01*
X115283571Y-148562857D01*
X115283571Y-149348571D01*
X111125000Y-147320000D02*
X108585000Y-147320000D01*
X111125000Y-144780000D02*
X111125000Y-150020000D01*
X108585000Y-144780000D02*
X108585000Y-150020000D01*
X108585000Y-147320000D02*
X109711504Y-146733579D01*
X108585000Y-147320000D02*
X109711504Y-147906421D01*
X111125000Y-147320000D02*
X109998496Y-146733579D01*
X111125000Y-147320000D02*
X109998496Y-147906421D01*
X153392858Y-151253571D02*
X152535715Y-151253571D01*
X152964287Y-151253571D02*
X152964287Y-149753571D01*
X152821430Y-149967857D01*
X152678572Y-150110714D01*
X152535715Y-150182143D01*
X154107143Y-151253571D02*
X154392858Y-151253571D01*
X154535715Y-151182143D01*
X154607143Y-151110714D01*
X154750001Y-150896429D01*
X154821429Y-150610714D01*
X154821429Y-150039286D01*
X154750001Y-149896429D01*
X154678572Y-149825000D01*
X154535715Y-149753571D01*
X154250001Y-149753571D01*
X154107143Y-149825000D01*
X154035715Y-149896429D01*
X153964286Y-150039286D01*
X153964286Y-150396429D01*
X154035715Y-150539286D01*
X154107143Y-150610714D01*
X154250001Y-150682143D01*
X154535715Y-150682143D01*
X154678572Y-150610714D01*
X154750001Y-150539286D01*
X154821429Y-150396429D01*
X155535714Y-151182143D02*
X155535714Y-151253571D01*
X155464286Y-151396429D01*
X155392857Y-151467857D01*
X156464286Y-149753571D02*
X156607143Y-149753571D01*
X156750000Y-149825000D01*
X156821429Y-149896429D01*
X156892858Y-150039286D01*
X156964286Y-150325000D01*
X156964286Y-150682143D01*
X156892858Y-150967857D01*
X156821429Y-151110714D01*
X156750000Y-151182143D01*
X156607143Y-151253571D01*
X156464286Y-151253571D01*
X156321429Y-151182143D01*
X156250000Y-151110714D01*
X156178572Y-150967857D01*
X156107143Y-150682143D01*
X156107143Y-150325000D01*
X156178572Y-150039286D01*
X156250000Y-149896429D01*
X156321429Y-149825000D01*
X156464286Y-149753571D01*
X158321429Y-149753571D02*
X157607143Y-149753571D01*
X157535714Y-150467857D01*
X157607143Y-150396429D01*
X157750000Y-150325000D01*
X158107143Y-150325000D01*
X158250000Y-150396429D01*
X158321429Y-150467857D01*
X158392857Y-150610714D01*
X158392857Y-150967857D01*
X158321429Y-151110714D01*
X158250000Y-151182143D01*
X158107143Y-151253571D01*
X157750000Y-151253571D01*
X157607143Y-151182143D01*
X157535714Y-151110714D01*
X159321428Y-149753571D02*
X159464285Y-149753571D01*
X159607142Y-149825000D01*
X159678571Y-149896429D01*
X159750000Y-150039286D01*
X159821428Y-150325000D01*
X159821428Y-150682143D01*
X159750000Y-150967857D01*
X159678571Y-151110714D01*
X159607142Y-151182143D01*
X159464285Y-151253571D01*
X159321428Y-151253571D01*
X159178571Y-151182143D01*
X159107142Y-151110714D01*
X159035714Y-150967857D01*
X158964285Y-150682143D01*
X158964285Y-150325000D01*
X159035714Y-150039286D01*
X159107142Y-149896429D01*
X159178571Y-149825000D01*
X159321428Y-149753571D01*
X161607142Y-151253571D02*
X161607142Y-150253571D01*
X161607142Y-150396429D02*
X161678570Y-150325000D01*
X161821428Y-150253571D01*
X162035713Y-150253571D01*
X162178570Y-150325000D01*
X162249999Y-150467857D01*
X162249999Y-151253571D01*
X162249999Y-150467857D02*
X162321428Y-150325000D01*
X162464285Y-150253571D01*
X162678570Y-150253571D01*
X162821428Y-150325000D01*
X162892856Y-150467857D01*
X162892856Y-151253571D01*
X163607142Y-151253571D02*
X163607142Y-150253571D01*
X163607142Y-150396429D02*
X163678570Y-150325000D01*
X163821428Y-150253571D01*
X164035713Y-150253571D01*
X164178570Y-150325000D01*
X164249999Y-150467857D01*
X164249999Y-151253571D01*
X164249999Y-150467857D02*
X164321428Y-150325000D01*
X164464285Y-150253571D01*
X164678570Y-150253571D01*
X164821428Y-150325000D01*
X164892856Y-150467857D01*
X164892856Y-151253571D01*
X149225000Y-149225000D02*
X168275000Y-149225000D01*
X149225000Y-144780000D02*
X149225000Y-151925000D01*
X168275000Y-144780000D02*
X168275000Y-151925000D01*
X168275000Y-149225000D02*
X167148496Y-149811421D01*
X168275000Y-149225000D02*
X167148496Y-148638579D01*
X149225000Y-149225000D02*
X150351504Y-149811421D01*
X149225000Y-149225000D02*
X150351504Y-148638579D01*
X175788571Y-133603213D02*
X175788571Y-132674642D01*
X176360000Y-133174642D01*
X176360000Y-132960356D01*
X176431429Y-132817499D01*
X176502857Y-132746070D01*
X176645714Y-132674642D01*
X177002857Y-132674642D01*
X177145714Y-132746070D01*
X177217143Y-132817499D01*
X177288571Y-132960356D01*
X177288571Y-133388928D01*
X177217143Y-133531785D01*
X177145714Y-133603213D01*
X177288571Y-131246071D02*
X177288571Y-132103214D01*
X177288571Y-131674642D02*
X175788571Y-131674642D01*
X176002857Y-131817499D01*
X176145714Y-131960357D01*
X176217143Y-132103214D01*
X177217143Y-130531786D02*
X177288571Y-130531786D01*
X177431429Y-130603214D01*
X177502857Y-130674643D01*
X177288571Y-129103214D02*
X177288571Y-129960357D01*
X177288571Y-129531785D02*
X175788571Y-129531785D01*
X176002857Y-129674642D01*
X176145714Y-129817500D01*
X176217143Y-129960357D01*
X177288571Y-127674643D02*
X177288571Y-128531786D01*
X177288571Y-128103214D02*
X175788571Y-128103214D01*
X176002857Y-128246071D01*
X176145714Y-128388929D01*
X176217143Y-128531786D01*
X175788571Y-126317500D02*
X175788571Y-127031786D01*
X176502857Y-127103215D01*
X176431429Y-127031786D01*
X176360000Y-126888929D01*
X176360000Y-126531786D01*
X176431429Y-126388929D01*
X176502857Y-126317500D01*
X176645714Y-126246072D01*
X177002857Y-126246072D01*
X177145714Y-126317500D01*
X177217143Y-126388929D01*
X177288571Y-126531786D01*
X177288571Y-126888929D01*
X177217143Y-127031786D01*
X177145714Y-127103215D01*
X177288571Y-124460358D02*
X176288571Y-124460358D01*
X176431429Y-124460358D02*
X176360000Y-124388930D01*
X176288571Y-124246072D01*
X176288571Y-124031787D01*
X176360000Y-123888930D01*
X176502857Y-123817501D01*
X177288571Y-123817501D01*
X176502857Y-123817501D02*
X176360000Y-123746072D01*
X176288571Y-123603215D01*
X176288571Y-123388930D01*
X176360000Y-123246072D01*
X176502857Y-123174644D01*
X177288571Y-123174644D01*
X177288571Y-122460358D02*
X176288571Y-122460358D01*
X176431429Y-122460358D02*
X176360000Y-122388930D01*
X176288571Y-122246072D01*
X176288571Y-122031787D01*
X176360000Y-121888930D01*
X176502857Y-121817501D01*
X177288571Y-121817501D01*
X176502857Y-121817501D02*
X176360000Y-121746072D01*
X176288571Y-121603215D01*
X176288571Y-121388930D01*
X176360000Y-121246072D01*
X176502857Y-121174644D01*
X177288571Y-121174644D01*
X175260000Y-142875000D02*
X175260000Y-111760000D01*
X168275000Y-142875000D02*
X177960000Y-142875000D01*
X168275000Y-111760000D02*
X177960000Y-111760000D01*
X175260000Y-111760000D02*
X175846421Y-112886504D01*
X175260000Y-111760000D02*
X174673579Y-112886504D01*
X175260000Y-142875000D02*
X175846421Y-141748496D01*
X175260000Y-142875000D02*
X174673579Y-141748496D01*
X178963571Y-133603213D02*
X178963571Y-132674642D01*
X179535000Y-133174642D01*
X179535000Y-132960356D01*
X179606429Y-132817499D01*
X179677857Y-132746070D01*
X179820714Y-132674642D01*
X180177857Y-132674642D01*
X180320714Y-132746070D01*
X180392143Y-132817499D01*
X180463571Y-132960356D01*
X180463571Y-133388928D01*
X180392143Y-133531785D01*
X180320714Y-133603213D01*
X179463571Y-131388928D02*
X180463571Y-131388928D01*
X178892143Y-131746071D02*
X179963571Y-132103214D01*
X179963571Y-131174642D01*
X180392143Y-130531786D02*
X180463571Y-130531786D01*
X180606429Y-130603214D01*
X180677857Y-130674643D01*
X180463571Y-129817500D02*
X180463571Y-129531785D01*
X180392143Y-129388928D01*
X180320714Y-129317500D01*
X180106429Y-129174642D01*
X179820714Y-129103214D01*
X179249286Y-129103214D01*
X179106429Y-129174642D01*
X179035000Y-129246071D01*
X178963571Y-129388928D01*
X178963571Y-129674642D01*
X179035000Y-129817500D01*
X179106429Y-129888928D01*
X179249286Y-129960357D01*
X179606429Y-129960357D01*
X179749286Y-129888928D01*
X179820714Y-129817500D01*
X179892143Y-129674642D01*
X179892143Y-129388928D01*
X179820714Y-129246071D01*
X179749286Y-129174642D01*
X179606429Y-129103214D01*
X179106429Y-128531786D02*
X179035000Y-128460357D01*
X178963571Y-128317500D01*
X178963571Y-127960357D01*
X179035000Y-127817500D01*
X179106429Y-127746071D01*
X179249286Y-127674643D01*
X179392143Y-127674643D01*
X179606429Y-127746071D01*
X180463571Y-128603214D01*
X180463571Y-127674643D01*
X178963571Y-126317500D02*
X178963571Y-127031786D01*
X179677857Y-127103215D01*
X179606429Y-127031786D01*
X179535000Y-126888929D01*
X179535000Y-126531786D01*
X179606429Y-126388929D01*
X179677857Y-126317500D01*
X179820714Y-126246072D01*
X180177857Y-126246072D01*
X180320714Y-126317500D01*
X180392143Y-126388929D01*
X180463571Y-126531786D01*
X180463571Y-126888929D01*
X180392143Y-127031786D01*
X180320714Y-127103215D01*
X180463571Y-124460358D02*
X179463571Y-124460358D01*
X179606429Y-124460358D02*
X179535000Y-124388930D01*
X179463571Y-124246072D01*
X179463571Y-124031787D01*
X179535000Y-123888930D01*
X179677857Y-123817501D01*
X180463571Y-123817501D01*
X179677857Y-123817501D02*
X179535000Y-123746072D01*
X179463571Y-123603215D01*
X179463571Y-123388930D01*
X179535000Y-123246072D01*
X179677857Y-123174644D01*
X180463571Y-123174644D01*
X180463571Y-122460358D02*
X179463571Y-122460358D01*
X179606429Y-122460358D02*
X179535000Y-122388930D01*
X179463571Y-122246072D01*
X179463571Y-122031787D01*
X179535000Y-121888930D01*
X179677857Y-121817501D01*
X180463571Y-121817501D01*
X179677857Y-121817501D02*
X179535000Y-121746072D01*
X179463571Y-121603215D01*
X179463571Y-121388930D01*
X179535000Y-121246072D01*
X179677857Y-121174644D01*
X180463571Y-121174644D01*
X178435000Y-144780000D02*
X178435000Y-109855000D01*
X168275000Y-144780000D02*
X181135000Y-144780000D01*
X168275000Y-109855000D02*
X181135000Y-109855000D01*
X178435000Y-109855000D02*
X179021421Y-110981504D01*
X178435000Y-109855000D02*
X177848579Y-110981504D01*
X178435000Y-144780000D02*
X179021421Y-143653496D01*
X178435000Y-144780000D02*
X177848579Y-143653496D01*
X133001430Y-154198571D02*
X132287144Y-154198571D01*
X132215715Y-154912857D01*
X132287144Y-154841429D01*
X132430001Y-154770000D01*
X132787144Y-154770000D01*
X132930001Y-154841429D01*
X133001430Y-154912857D01*
X133072858Y-155055714D01*
X133072858Y-155412857D01*
X133001430Y-155555714D01*
X132930001Y-155627143D01*
X132787144Y-155698571D01*
X132430001Y-155698571D01*
X132287144Y-155627143D01*
X132215715Y-155555714D01*
X133787143Y-155698571D02*
X134072858Y-155698571D01*
X134215715Y-155627143D01*
X134287143Y-155555714D01*
X134430001Y-155341429D01*
X134501429Y-155055714D01*
X134501429Y-154484286D01*
X134430001Y-154341429D01*
X134358572Y-154270000D01*
X134215715Y-154198571D01*
X133930001Y-154198571D01*
X133787143Y-154270000D01*
X133715715Y-154341429D01*
X133644286Y-154484286D01*
X133644286Y-154841429D01*
X133715715Y-154984286D01*
X133787143Y-155055714D01*
X133930001Y-155127143D01*
X134215715Y-155127143D01*
X134358572Y-155055714D01*
X134430001Y-154984286D01*
X134501429Y-154841429D01*
X135215714Y-155627143D02*
X135215714Y-155698571D01*
X135144286Y-155841429D01*
X135072857Y-155912857D01*
X136501429Y-154198571D02*
X136215715Y-154198571D01*
X136072858Y-154270000D01*
X136001429Y-154341429D01*
X135858572Y-154555714D01*
X135787143Y-154841429D01*
X135787143Y-155412857D01*
X135858572Y-155555714D01*
X135930000Y-155627143D01*
X136072858Y-155698571D01*
X136358572Y-155698571D01*
X136501429Y-155627143D01*
X136572858Y-155555714D01*
X136644286Y-155412857D01*
X136644286Y-155055714D01*
X136572858Y-154912857D01*
X136501429Y-154841429D01*
X136358572Y-154770000D01*
X136072858Y-154770000D01*
X135930000Y-154841429D01*
X135858572Y-154912857D01*
X135787143Y-155055714D01*
X137358571Y-155698571D02*
X137644286Y-155698571D01*
X137787143Y-155627143D01*
X137858571Y-155555714D01*
X138001429Y-155341429D01*
X138072857Y-155055714D01*
X138072857Y-154484286D01*
X138001429Y-154341429D01*
X137930000Y-154270000D01*
X137787143Y-154198571D01*
X137501429Y-154198571D01*
X137358571Y-154270000D01*
X137287143Y-154341429D01*
X137215714Y-154484286D01*
X137215714Y-154841429D01*
X137287143Y-154984286D01*
X137358571Y-155055714D01*
X137501429Y-155127143D01*
X137787143Y-155127143D01*
X137930000Y-155055714D01*
X138001429Y-154984286D01*
X138072857Y-154841429D01*
X139001428Y-154198571D02*
X139144285Y-154198571D01*
X139287142Y-154270000D01*
X139358571Y-154341429D01*
X139430000Y-154484286D01*
X139501428Y-154770000D01*
X139501428Y-155127143D01*
X139430000Y-155412857D01*
X139358571Y-155555714D01*
X139287142Y-155627143D01*
X139144285Y-155698571D01*
X139001428Y-155698571D01*
X138858571Y-155627143D01*
X138787142Y-155555714D01*
X138715714Y-155412857D01*
X138644285Y-155127143D01*
X138644285Y-154770000D01*
X138715714Y-154484286D01*
X138787142Y-154341429D01*
X138858571Y-154270000D01*
X139001428Y-154198571D01*
X141287142Y-155698571D02*
X141287142Y-154698571D01*
X141287142Y-154841429D02*
X141358570Y-154770000D01*
X141501428Y-154698571D01*
X141715713Y-154698571D01*
X141858570Y-154770000D01*
X141929999Y-154912857D01*
X141929999Y-155698571D01*
X141929999Y-154912857D02*
X142001428Y-154770000D01*
X142144285Y-154698571D01*
X142358570Y-154698571D01*
X142501428Y-154770000D01*
X142572856Y-154912857D01*
X142572856Y-155698571D01*
X143287142Y-155698571D02*
X143287142Y-154698571D01*
X143287142Y-154841429D02*
X143358570Y-154770000D01*
X143501428Y-154698571D01*
X143715713Y-154698571D01*
X143858570Y-154770000D01*
X143929999Y-154912857D01*
X143929999Y-155698571D01*
X143929999Y-154912857D02*
X144001428Y-154770000D01*
X144144285Y-154698571D01*
X144358570Y-154698571D01*
X144501428Y-154770000D01*
X144572856Y-154912857D01*
X144572856Y-155698571D01*
X108585000Y-153670000D02*
X168275000Y-153670000D01*
X108585000Y-144780000D02*
X108585000Y-156370000D01*
X168275000Y-144780000D02*
X168275000Y-156370000D01*
X168275000Y-153670000D02*
X167148496Y-154256421D01*
X168275000Y-153670000D02*
X167148496Y-153083579D01*
X108585000Y-153670000D02*
X109711504Y-154256421D01*
X108585000Y-153670000D02*
X109711504Y-153083579D01*
D12*
X111125000Y-142240000D03*
D13*
X113030000Y-114300000D03*
D14*
X113030000Y-116300000D03*
D15*
X151130000Y-140970000D03*
D16*
X153670000Y-140970000D03*
X156210000Y-140970000D03*
X158750000Y-140970000D03*
X161290000Y-140970000D03*
X163830000Y-140970000D03*
X166370000Y-140970000D03*
D15*
X151130000Y-113665000D03*
D16*
X153670000Y-113665000D03*
X156210000Y-113665000D03*
X158750000Y-113665000D03*
X161290000Y-113665000D03*
X163830000Y-113665000D03*
X166370000Y-113665000D03*
D15*
X146050000Y-122555000D03*
D16*
X146050000Y-125095000D03*
X146050000Y-127635000D03*
X146050000Y-130175000D03*
X146050000Y-132715000D03*
X146050000Y-135255000D03*
M02*
