G04 #@! TF.FileFunction,Legend,Top*
%FSLAX46Y46*%
G04 Gerber Fmt 4.6, Leading zero omitted, Abs format (unit mm)*
G04 Created by KiCad (PCBNEW 4.0.7-e1-6374~58~ubuntu16.04.1) date Wed Aug  2 10:41:50 2017*
%MOMM*%
%LPD*%
G01*
G04 APERTURE LIST*
%ADD10C,0.100000*%
%ADD11C,0.150000*%
%ADD12C,0.254000*%
%ADD13C,0.120000*%
%ADD14C,0.203200*%
%ADD15C,0.127000*%
%ADD16C,0.381000*%
%ADD17C,0.152400*%
G04 APERTURE END LIST*
D10*
D11*
X162727143Y-129274405D02*
X162774762Y-129327976D01*
X162822381Y-129476786D01*
X162822381Y-129572024D01*
X162774762Y-129708929D01*
X162679524Y-129792262D01*
X162584286Y-129827977D01*
X162393810Y-129851786D01*
X162250952Y-129833929D01*
X162060476Y-129762500D01*
X161965238Y-129702977D01*
X161870000Y-129595834D01*
X161822381Y-129447024D01*
X161822381Y-129351786D01*
X161870000Y-129214881D01*
X161917619Y-129173214D01*
X162822381Y-128714882D02*
X162774762Y-128804167D01*
X162727143Y-128845834D01*
X162631905Y-128881548D01*
X162346190Y-128845834D01*
X162250952Y-128786310D01*
X162203333Y-128732739D01*
X162155714Y-128631548D01*
X162155714Y-128488690D01*
X162203333Y-128399405D01*
X162250952Y-128357738D01*
X162346190Y-128322024D01*
X162631905Y-128357738D01*
X162727143Y-128417262D01*
X162774762Y-128470833D01*
X162822381Y-128572024D01*
X162822381Y-128714882D01*
X162774762Y-127994643D02*
X162822381Y-127905358D01*
X162822381Y-127714882D01*
X162774762Y-127613690D01*
X162679524Y-127554166D01*
X162631905Y-127548214D01*
X162536667Y-127583928D01*
X162489048Y-127673215D01*
X162489048Y-127816072D01*
X162441429Y-127905358D01*
X162346190Y-127941072D01*
X162298571Y-127935119D01*
X162203333Y-127875596D01*
X162155714Y-127774405D01*
X162155714Y-127631548D01*
X162203333Y-127542262D01*
X162822381Y-127143453D02*
X162155714Y-127060119D01*
X162250952Y-127072024D02*
X162203333Y-127018453D01*
X162155714Y-126917262D01*
X162155714Y-126774404D01*
X162203333Y-126685119D01*
X162298571Y-126649404D01*
X162822381Y-126714881D01*
X162298571Y-126649404D02*
X162203333Y-126589881D01*
X162155714Y-126488690D01*
X162155714Y-126345833D01*
X162203333Y-126256548D01*
X162298571Y-126220833D01*
X162822381Y-126286310D01*
X162822381Y-125667263D02*
X162774762Y-125756548D01*
X162727143Y-125798215D01*
X162631905Y-125833929D01*
X162346190Y-125798215D01*
X162250952Y-125738691D01*
X162203333Y-125685120D01*
X162155714Y-125583929D01*
X162155714Y-125441071D01*
X162203333Y-125351786D01*
X162250952Y-125310119D01*
X162346190Y-125274405D01*
X162631905Y-125310119D01*
X162727143Y-125369643D01*
X162774762Y-125423214D01*
X162822381Y-125524405D01*
X162822381Y-125667263D01*
X162155714Y-124822024D02*
X162822381Y-124905358D01*
X162250952Y-124833929D02*
X162203333Y-124780358D01*
X162155714Y-124679167D01*
X162155714Y-124536309D01*
X162203333Y-124447024D01*
X162298571Y-124411309D01*
X162822381Y-124476786D01*
X162822381Y-123857739D02*
X162774762Y-123947024D01*
X162727143Y-123988691D01*
X162631905Y-124024405D01*
X162346190Y-123988691D01*
X162250952Y-123929167D01*
X162203333Y-123875596D01*
X162155714Y-123774405D01*
X162155714Y-123631547D01*
X162203333Y-123542262D01*
X162250952Y-123500595D01*
X162346190Y-123464881D01*
X162631905Y-123500595D01*
X162727143Y-123560119D01*
X162774762Y-123613690D01*
X162822381Y-123714881D01*
X162822381Y-123857739D01*
X162822381Y-122667262D02*
X161822381Y-122542262D01*
X162774762Y-122661309D02*
X162822381Y-122762500D01*
X162822381Y-122952977D01*
X162774762Y-123042262D01*
X162727143Y-123083929D01*
X162631905Y-123119643D01*
X162346190Y-123083929D01*
X162250952Y-123024405D01*
X162203333Y-122970834D01*
X162155714Y-122869643D01*
X162155714Y-122679166D01*
X162203333Y-122589881D01*
X162774762Y-121804166D02*
X162822381Y-121905357D01*
X162822381Y-122095834D01*
X162774762Y-122185119D01*
X162679524Y-122220833D01*
X162298571Y-122173214D01*
X162203333Y-122113691D01*
X162155714Y-122012500D01*
X162155714Y-121822023D01*
X162203333Y-121732738D01*
X162298571Y-121697023D01*
X162393810Y-121708928D01*
X162489048Y-122197024D01*
X162155714Y-120583928D02*
X162822381Y-120429167D01*
X162155714Y-120107737D01*
X161822381Y-119494643D02*
X161822381Y-119399404D01*
X161870000Y-119310118D01*
X161917619Y-119268451D01*
X162012857Y-119232737D01*
X162203333Y-119208928D01*
X162441429Y-119238690D01*
X162631905Y-119310118D01*
X162727143Y-119369642D01*
X162774762Y-119423213D01*
X162822381Y-119524404D01*
X162822381Y-119619643D01*
X162774762Y-119708928D01*
X162727143Y-119750595D01*
X162631905Y-119786309D01*
X162441429Y-119810119D01*
X162203333Y-119780357D01*
X162012857Y-119708928D01*
X161917619Y-119649404D01*
X161870000Y-119595833D01*
X161822381Y-119494643D01*
X162727143Y-118845833D02*
X162774762Y-118804166D01*
X162822381Y-118857738D01*
X162774762Y-118899404D01*
X162727143Y-118845833D01*
X162822381Y-118857738D01*
X161917619Y-118316071D02*
X161870000Y-118262500D01*
X161822381Y-118161310D01*
X161822381Y-117923214D01*
X161870000Y-117833928D01*
X161917619Y-117792261D01*
X162012857Y-117756547D01*
X162108095Y-117768452D01*
X162250952Y-117833928D01*
X162822381Y-118476786D01*
X162822381Y-117857738D01*
X164472381Y-127976787D02*
X163472381Y-127851787D01*
X163853333Y-127899406D02*
X163805714Y-127798215D01*
X163805714Y-127607738D01*
X163853333Y-127518453D01*
X163900952Y-127476786D01*
X163996190Y-127441072D01*
X164281905Y-127476786D01*
X164377143Y-127536310D01*
X164424762Y-127589881D01*
X164472381Y-127691072D01*
X164472381Y-127881549D01*
X164424762Y-127970834D01*
X163805714Y-127083929D02*
X164472381Y-126929168D01*
X163805714Y-126607738D02*
X164472381Y-126929168D01*
X164710476Y-127054168D01*
X164758095Y-127107739D01*
X164805714Y-127208929D01*
X163520000Y-124905357D02*
X163472381Y-124994643D01*
X163472381Y-125137500D01*
X163520000Y-125286310D01*
X163615238Y-125393453D01*
X163710476Y-125452976D01*
X163900952Y-125524405D01*
X164043810Y-125542262D01*
X164234286Y-125518453D01*
X164329524Y-125482738D01*
X164424762Y-125399405D01*
X164472381Y-125262500D01*
X164472381Y-125167262D01*
X164424762Y-125018452D01*
X164377143Y-124964881D01*
X164043810Y-124923214D01*
X164043810Y-125113690D01*
X164424762Y-124161309D02*
X164472381Y-124262500D01*
X164472381Y-124452977D01*
X164424762Y-124542262D01*
X164329524Y-124577976D01*
X163948571Y-124530357D01*
X163853333Y-124470834D01*
X163805714Y-124369643D01*
X163805714Y-124179166D01*
X163853333Y-124089881D01*
X163948571Y-124054166D01*
X164043810Y-124066071D01*
X164139048Y-124554167D01*
X163805714Y-123750595D02*
X163805714Y-123369643D01*
X163472381Y-123566072D02*
X164329524Y-123673214D01*
X164424762Y-123637500D01*
X164472381Y-123548215D01*
X164472381Y-123452977D01*
X164472381Y-122976786D02*
X164424762Y-123066071D01*
X164329524Y-123101785D01*
X163472381Y-122994643D01*
X164472381Y-122167261D02*
X163948571Y-122101784D01*
X163853333Y-122137499D01*
X163805714Y-122226784D01*
X163805714Y-122417261D01*
X163853333Y-122518452D01*
X164424762Y-122161308D02*
X164472381Y-122262499D01*
X164472381Y-122500595D01*
X164424762Y-122589880D01*
X164329524Y-122625594D01*
X164234286Y-122613690D01*
X164139048Y-122554166D01*
X164091429Y-122452976D01*
X164091429Y-122214880D01*
X164043810Y-122113689D01*
X164472381Y-121691071D02*
X163805714Y-121607737D01*
X163996190Y-121631547D02*
X163900952Y-121572023D01*
X163853333Y-121518452D01*
X163805714Y-121417261D01*
X163805714Y-121322022D01*
X163805714Y-120560117D02*
X164615238Y-120661308D01*
X164710476Y-120720832D01*
X164758095Y-120774403D01*
X164805714Y-120875594D01*
X164805714Y-121018451D01*
X164758095Y-121107737D01*
X164424762Y-120637498D02*
X164472381Y-120738689D01*
X164472381Y-120929166D01*
X164424762Y-121018451D01*
X164377143Y-121060118D01*
X164281905Y-121095832D01*
X163996190Y-121060118D01*
X163900952Y-121000594D01*
X163853333Y-120947023D01*
X163805714Y-120845832D01*
X163805714Y-120655355D01*
X163853333Y-120566070D01*
X164424762Y-119780355D02*
X164472381Y-119881546D01*
X164472381Y-120072023D01*
X164424762Y-120161308D01*
X164329524Y-120197022D01*
X163948571Y-120149403D01*
X163853333Y-120089880D01*
X163805714Y-119988689D01*
X163805714Y-119798212D01*
X163853333Y-119708927D01*
X163948571Y-119673212D01*
X164043810Y-119685117D01*
X164139048Y-120173213D01*
X148097143Y-123007381D02*
X147797143Y-122531190D01*
X147582858Y-123007381D02*
X147582858Y-122007381D01*
X147925715Y-122007381D01*
X148011429Y-122055000D01*
X148054286Y-122102619D01*
X148097143Y-122197857D01*
X148097143Y-122340714D01*
X148054286Y-122435952D01*
X148011429Y-122483571D01*
X147925715Y-122531190D01*
X147582858Y-122531190D01*
X148440001Y-122959762D02*
X148568572Y-123007381D01*
X148782858Y-123007381D01*
X148868572Y-122959762D01*
X148911429Y-122912143D01*
X148954286Y-122816905D01*
X148954286Y-122721667D01*
X148911429Y-122626429D01*
X148868572Y-122578810D01*
X148782858Y-122531190D01*
X148611429Y-122483571D01*
X148525715Y-122435952D01*
X148482858Y-122388333D01*
X148440001Y-122293095D01*
X148440001Y-122197857D01*
X148482858Y-122102619D01*
X148525715Y-122055000D01*
X148611429Y-122007381D01*
X148825715Y-122007381D01*
X148954286Y-122055000D01*
X149211429Y-122007381D02*
X149725715Y-122007381D01*
X149468572Y-123007381D02*
X149468572Y-122007381D01*
X148423334Y-125547381D02*
X148090000Y-125071190D01*
X147851905Y-125547381D02*
X147851905Y-124547381D01*
X148232858Y-124547381D01*
X148328096Y-124595000D01*
X148375715Y-124642619D01*
X148423334Y-124737857D01*
X148423334Y-124880714D01*
X148375715Y-124975952D01*
X148328096Y-125023571D01*
X148232858Y-125071190D01*
X147851905Y-125071190D01*
X148756667Y-124547381D02*
X149423334Y-125547381D01*
X149423334Y-124547381D02*
X148756667Y-125547381D01*
X147828095Y-127087381D02*
X148399524Y-127087381D01*
X148113809Y-128087381D02*
X148113809Y-127087381D01*
X148637619Y-127087381D02*
X149304286Y-128087381D01*
X149304286Y-127087381D02*
X148637619Y-128087381D01*
X147490001Y-133167381D02*
X147490001Y-132167381D01*
X147723334Y-132881667D01*
X147956667Y-132167381D01*
X147956667Y-133167381D01*
X148423334Y-132167381D02*
X148556667Y-132167381D01*
X148623334Y-132215000D01*
X148690001Y-132310238D01*
X148723334Y-132500714D01*
X148723334Y-132834048D01*
X148690001Y-133024524D01*
X148623334Y-133119762D01*
X148556667Y-133167381D01*
X148423334Y-133167381D01*
X148356667Y-133119762D01*
X148290001Y-133024524D01*
X148256667Y-132834048D01*
X148256667Y-132500714D01*
X148290001Y-132310238D01*
X148356667Y-132215000D01*
X148423334Y-132167381D01*
X148990000Y-133119762D02*
X149090000Y-133167381D01*
X149256667Y-133167381D01*
X149323334Y-133119762D01*
X149356667Y-133072143D01*
X149390000Y-132976905D01*
X149390000Y-132881667D01*
X149356667Y-132786429D01*
X149323334Y-132738810D01*
X149256667Y-132691190D01*
X149123334Y-132643571D01*
X149056667Y-132595952D01*
X149023334Y-132548333D01*
X148990000Y-132453095D01*
X148990000Y-132357857D01*
X149023334Y-132262619D01*
X149056667Y-132215000D01*
X149123334Y-132167381D01*
X149290000Y-132167381D01*
X149390000Y-132215000D01*
X149690001Y-133167381D02*
X149690001Y-132167381D01*
X147490001Y-130627381D02*
X147490001Y-129627381D01*
X147723334Y-130341667D01*
X147956667Y-129627381D01*
X147956667Y-130627381D01*
X148290001Y-130627381D02*
X148290001Y-129627381D01*
X148590000Y-130579762D02*
X148690000Y-130627381D01*
X148856667Y-130627381D01*
X148923334Y-130579762D01*
X148956667Y-130532143D01*
X148990000Y-130436905D01*
X148990000Y-130341667D01*
X148956667Y-130246429D01*
X148923334Y-130198810D01*
X148856667Y-130151190D01*
X148723334Y-130103571D01*
X148656667Y-130055952D01*
X148623334Y-130008333D01*
X148590000Y-129913095D01*
X148590000Y-129817857D01*
X148623334Y-129722619D01*
X148656667Y-129675000D01*
X148723334Y-129627381D01*
X148890000Y-129627381D01*
X148990000Y-129675000D01*
X149423334Y-129627381D02*
X149556667Y-129627381D01*
X149623334Y-129675000D01*
X149690001Y-129770238D01*
X149723334Y-129960714D01*
X149723334Y-130294048D01*
X149690001Y-130484524D01*
X149623334Y-130579762D01*
X149556667Y-130627381D01*
X149423334Y-130627381D01*
X149356667Y-130579762D01*
X149290001Y-130484524D01*
X149256667Y-130294048D01*
X149256667Y-129960714D01*
X149290001Y-129770238D01*
X149356667Y-129675000D01*
X149423334Y-129627381D01*
X147432858Y-135659762D02*
X147561429Y-135707381D01*
X147775715Y-135707381D01*
X147861429Y-135659762D01*
X147904286Y-135612143D01*
X147947143Y-135516905D01*
X147947143Y-135421667D01*
X147904286Y-135326429D01*
X147861429Y-135278810D01*
X147775715Y-135231190D01*
X147604286Y-135183571D01*
X147518572Y-135135952D01*
X147475715Y-135088333D01*
X147432858Y-134993095D01*
X147432858Y-134897857D01*
X147475715Y-134802619D01*
X147518572Y-134755000D01*
X147604286Y-134707381D01*
X147818572Y-134707381D01*
X147947143Y-134755000D01*
X148847143Y-135612143D02*
X148804286Y-135659762D01*
X148675715Y-135707381D01*
X148590001Y-135707381D01*
X148461429Y-135659762D01*
X148375715Y-135564524D01*
X148332858Y-135469286D01*
X148290001Y-135278810D01*
X148290001Y-135135952D01*
X148332858Y-134945476D01*
X148375715Y-134850238D01*
X148461429Y-134755000D01*
X148590001Y-134707381D01*
X148675715Y-134707381D01*
X148804286Y-134755000D01*
X148847143Y-134802619D01*
X149232858Y-135707381D02*
X149232858Y-134707381D01*
X149747143Y-135707381D02*
X149361429Y-135135952D01*
X149747143Y-134707381D02*
X149232858Y-135278810D01*
X151058571Y-112075000D02*
X151106190Y-111975000D01*
X151153810Y-111941667D01*
X151249048Y-111908333D01*
X151391905Y-111908333D01*
X151487143Y-111941667D01*
X151534762Y-111975000D01*
X151582381Y-112041667D01*
X151582381Y-112308333D01*
X150582381Y-112308333D01*
X150582381Y-112075000D01*
X150630000Y-112008333D01*
X150677619Y-111975000D01*
X150772857Y-111941667D01*
X150868095Y-111941667D01*
X150963333Y-111975000D01*
X151010952Y-112008333D01*
X151058571Y-112075000D01*
X151058571Y-112308333D01*
X151296667Y-111641667D02*
X151296667Y-111308333D01*
X151582381Y-111708333D02*
X150582381Y-111475000D01*
X151582381Y-111241667D01*
X150582381Y-111108333D02*
X150582381Y-110708333D01*
X151582381Y-110908333D02*
X150582381Y-110908333D01*
X151201429Y-110475000D02*
X151201429Y-109941667D01*
X151582381Y-110208334D02*
X150820476Y-110208334D01*
X153122381Y-112158333D02*
X153122381Y-111725000D01*
X153503333Y-111958333D01*
X153503333Y-111858333D01*
X153550952Y-111791666D01*
X153598571Y-111758333D01*
X153693810Y-111725000D01*
X153931905Y-111725000D01*
X154027143Y-111758333D01*
X154074762Y-111791666D01*
X154122381Y-111858333D01*
X154122381Y-112058333D01*
X154074762Y-112125000D01*
X154027143Y-112158333D01*
X154027143Y-111424999D02*
X154074762Y-111391666D01*
X154122381Y-111424999D01*
X154074762Y-111458333D01*
X154027143Y-111424999D01*
X154122381Y-111424999D01*
X153122381Y-111158333D02*
X153122381Y-110725000D01*
X153503333Y-110958333D01*
X153503333Y-110858333D01*
X153550952Y-110791666D01*
X153598571Y-110758333D01*
X153693810Y-110725000D01*
X153931905Y-110725000D01*
X154027143Y-110758333D01*
X154074762Y-110791666D01*
X154122381Y-110858333D01*
X154122381Y-111058333D01*
X154074762Y-111125000D01*
X154027143Y-111158333D01*
X153122381Y-110524999D02*
X154122381Y-110291666D01*
X153122381Y-110058333D01*
X155662381Y-112158333D02*
X155662381Y-111725000D01*
X156043333Y-111958333D01*
X156043333Y-111858333D01*
X156090952Y-111791666D01*
X156138571Y-111758333D01*
X156233810Y-111725000D01*
X156471905Y-111725000D01*
X156567143Y-111758333D01*
X156614762Y-111791666D01*
X156662381Y-111858333D01*
X156662381Y-112058333D01*
X156614762Y-112125000D01*
X156567143Y-112158333D01*
X156567143Y-111424999D02*
X156614762Y-111391666D01*
X156662381Y-111424999D01*
X156614762Y-111458333D01*
X156567143Y-111424999D01*
X156662381Y-111424999D01*
X155662381Y-111158333D02*
X155662381Y-110725000D01*
X156043333Y-110958333D01*
X156043333Y-110858333D01*
X156090952Y-110791666D01*
X156138571Y-110758333D01*
X156233810Y-110725000D01*
X156471905Y-110725000D01*
X156567143Y-110758333D01*
X156614762Y-110791666D01*
X156662381Y-110858333D01*
X156662381Y-111058333D01*
X156614762Y-111125000D01*
X156567143Y-111158333D01*
X155662381Y-110524999D02*
X156662381Y-110291666D01*
X155662381Y-110058333D01*
X158250000Y-111734523D02*
X158202381Y-111810714D01*
X158202381Y-111924999D01*
X158250000Y-112039285D01*
X158345238Y-112115476D01*
X158440476Y-112153571D01*
X158630952Y-112191666D01*
X158773810Y-112191666D01*
X158964286Y-112153571D01*
X159059524Y-112115476D01*
X159154762Y-112039285D01*
X159202381Y-111924999D01*
X159202381Y-111848809D01*
X159154762Y-111734523D01*
X159107143Y-111696428D01*
X158773810Y-111696428D01*
X158773810Y-111848809D01*
X159202381Y-111353571D02*
X158202381Y-111353571D01*
X159202381Y-110896428D01*
X158202381Y-110896428D01*
X159202381Y-110515476D02*
X158202381Y-110515476D01*
X158202381Y-110325000D01*
X158250000Y-110210714D01*
X158345238Y-110134523D01*
X158440476Y-110096428D01*
X158630952Y-110058333D01*
X158773810Y-110058333D01*
X158964286Y-110096428D01*
X159059524Y-110134523D01*
X159154762Y-110210714D01*
X159202381Y-110325000D01*
X159202381Y-110515476D01*
X160790000Y-111734523D02*
X160742381Y-111810714D01*
X160742381Y-111924999D01*
X160790000Y-112039285D01*
X160885238Y-112115476D01*
X160980476Y-112153571D01*
X161170952Y-112191666D01*
X161313810Y-112191666D01*
X161504286Y-112153571D01*
X161599524Y-112115476D01*
X161694762Y-112039285D01*
X161742381Y-111924999D01*
X161742381Y-111848809D01*
X161694762Y-111734523D01*
X161647143Y-111696428D01*
X161313810Y-111696428D01*
X161313810Y-111848809D01*
X161742381Y-111353571D02*
X160742381Y-111353571D01*
X161742381Y-110896428D01*
X160742381Y-110896428D01*
X161742381Y-110515476D02*
X160742381Y-110515476D01*
X160742381Y-110325000D01*
X160790000Y-110210714D01*
X160885238Y-110134523D01*
X160980476Y-110096428D01*
X161170952Y-110058333D01*
X161313810Y-110058333D01*
X161504286Y-110096428D01*
X161599524Y-110134523D01*
X161694762Y-110210714D01*
X161742381Y-110325000D01*
X161742381Y-110515476D01*
X166536667Y-111839286D02*
X166536667Y-111363095D01*
X166822381Y-111934524D02*
X165822381Y-111601191D01*
X166822381Y-111267857D01*
X165822381Y-110458333D02*
X165822381Y-110934524D01*
X166298571Y-110982143D01*
X166250952Y-110934524D01*
X166203333Y-110839286D01*
X166203333Y-110601190D01*
X166250952Y-110505952D01*
X166298571Y-110458333D01*
X166393810Y-110410714D01*
X166631905Y-110410714D01*
X166727143Y-110458333D01*
X166774762Y-110505952D01*
X166822381Y-110601190D01*
X166822381Y-110839286D01*
X166774762Y-110934524D01*
X166727143Y-110982143D01*
X163996667Y-111839286D02*
X163996667Y-111363095D01*
X164282381Y-111934524D02*
X163282381Y-111601191D01*
X164282381Y-111267857D01*
X163615714Y-110505952D02*
X164282381Y-110505952D01*
X163234762Y-110744048D02*
X163949048Y-110982143D01*
X163949048Y-110363095D01*
X166536667Y-144224286D02*
X166536667Y-143748095D01*
X166822381Y-144319524D02*
X165822381Y-143986191D01*
X166822381Y-143652857D01*
X166822381Y-142795714D02*
X166822381Y-143367143D01*
X166822381Y-143081429D02*
X165822381Y-143081429D01*
X165965238Y-143176667D01*
X166060476Y-143271905D01*
X166108095Y-143367143D01*
X163996667Y-144224286D02*
X163996667Y-143748095D01*
X164282381Y-144319524D02*
X163282381Y-143986191D01*
X164282381Y-143652857D01*
X163282381Y-143129048D02*
X163282381Y-143033809D01*
X163330000Y-142938571D01*
X163377619Y-142890952D01*
X163472857Y-142843333D01*
X163663333Y-142795714D01*
X163901429Y-142795714D01*
X164091905Y-142843333D01*
X164187143Y-142890952D01*
X164234762Y-142938571D01*
X164282381Y-143033809D01*
X164282381Y-143129048D01*
X164234762Y-143224286D01*
X164187143Y-143271905D01*
X164091905Y-143319524D01*
X163901429Y-143367143D01*
X163663333Y-143367143D01*
X163472857Y-143319524D01*
X163377619Y-143271905D01*
X163330000Y-143224286D01*
X163282381Y-143129048D01*
X161742381Y-144248095D02*
X160742381Y-144248095D01*
X160742381Y-144010000D01*
X160790000Y-143867142D01*
X160885238Y-143771904D01*
X160980476Y-143724285D01*
X161170952Y-143676666D01*
X161313810Y-143676666D01*
X161504286Y-143724285D01*
X161599524Y-143771904D01*
X161694762Y-143867142D01*
X161742381Y-144010000D01*
X161742381Y-144248095D01*
X160742381Y-143343333D02*
X160742381Y-142676666D01*
X161742381Y-143105238D01*
X159202381Y-144248095D02*
X158202381Y-144248095D01*
X158202381Y-144010000D01*
X158250000Y-143867142D01*
X158345238Y-143771904D01*
X158440476Y-143724285D01*
X158630952Y-143676666D01*
X158773810Y-143676666D01*
X158964286Y-143724285D01*
X159059524Y-143771904D01*
X159154762Y-143867142D01*
X159202381Y-144010000D01*
X159202381Y-144248095D01*
X158202381Y-142819523D02*
X158202381Y-143010000D01*
X158250000Y-143105238D01*
X158297619Y-143152857D01*
X158440476Y-143248095D01*
X158630952Y-143295714D01*
X159011905Y-143295714D01*
X159107143Y-143248095D01*
X159154762Y-143200476D01*
X159202381Y-143105238D01*
X159202381Y-142914761D01*
X159154762Y-142819523D01*
X159107143Y-142771904D01*
X159011905Y-142724285D01*
X158773810Y-142724285D01*
X158678571Y-142771904D01*
X158630952Y-142819523D01*
X158583333Y-142914761D01*
X158583333Y-143105238D01*
X158630952Y-143200476D01*
X158678571Y-143248095D01*
X158773810Y-143295714D01*
X156662381Y-144248095D02*
X155662381Y-144248095D01*
X155662381Y-144010000D01*
X155710000Y-143867142D01*
X155805238Y-143771904D01*
X155900476Y-143724285D01*
X156090952Y-143676666D01*
X156233810Y-143676666D01*
X156424286Y-143724285D01*
X156519524Y-143771904D01*
X156614762Y-143867142D01*
X156662381Y-144010000D01*
X156662381Y-144248095D01*
X155662381Y-142771904D02*
X155662381Y-143248095D01*
X156138571Y-143295714D01*
X156090952Y-143248095D01*
X156043333Y-143152857D01*
X156043333Y-142914761D01*
X156090952Y-142819523D01*
X156138571Y-142771904D01*
X156233810Y-142724285D01*
X156471905Y-142724285D01*
X156567143Y-142771904D01*
X156614762Y-142819523D01*
X156662381Y-142914761D01*
X156662381Y-143152857D01*
X156614762Y-143248095D01*
X156567143Y-143295714D01*
X154122381Y-144248095D02*
X153122381Y-144248095D01*
X153122381Y-144010000D01*
X153170000Y-143867142D01*
X153265238Y-143771904D01*
X153360476Y-143724285D01*
X153550952Y-143676666D01*
X153693810Y-143676666D01*
X153884286Y-143724285D01*
X153979524Y-143771904D01*
X154074762Y-143867142D01*
X154122381Y-144010000D01*
X154122381Y-144248095D01*
X153455714Y-142819523D02*
X154122381Y-142819523D01*
X153074762Y-143057619D02*
X153789048Y-143295714D01*
X153789048Y-142676666D01*
X151582381Y-144248095D02*
X150582381Y-144248095D01*
X150582381Y-144010000D01*
X150630000Y-143867142D01*
X150725238Y-143771904D01*
X150820476Y-143724285D01*
X151010952Y-143676666D01*
X151153810Y-143676666D01*
X151344286Y-143724285D01*
X151439524Y-143771904D01*
X151534762Y-143867142D01*
X151582381Y-144010000D01*
X151582381Y-144248095D01*
X150582381Y-143343333D02*
X150582381Y-142724285D01*
X150963333Y-143057619D01*
X150963333Y-142914761D01*
X151010952Y-142819523D01*
X151058571Y-142771904D01*
X151153810Y-142724285D01*
X151391905Y-142724285D01*
X151487143Y-142771904D01*
X151534762Y-142819523D01*
X151582381Y-142914761D01*
X151582381Y-143200476D01*
X151534762Y-143295714D01*
X151487143Y-143343333D01*
D12*
X137563860Y-125234700D02*
X137563860Y-124335540D01*
X137563860Y-124335540D02*
X136865360Y-124335540D01*
X136865360Y-124335540D02*
X136865360Y-125935740D01*
X141264640Y-125935740D02*
X141264640Y-124335540D01*
X141264640Y-124335540D02*
X140566140Y-124335540D01*
X140566140Y-124335540D02*
X140566140Y-125234700D01*
X140566140Y-130934460D02*
X141264640Y-130934460D01*
X141264640Y-130934460D02*
X141264640Y-129334260D01*
X140566140Y-130934460D02*
X140566140Y-130035300D01*
X136865360Y-129334260D02*
X136865360Y-130934460D01*
X136865360Y-130934460D02*
X137563860Y-130934460D01*
X137563860Y-130934460D02*
X137563860Y-130035300D01*
X140065760Y-129633980D02*
X141063980Y-128635760D01*
X141063980Y-128635760D02*
X141063980Y-126634240D01*
X141063980Y-126634240D02*
X140065760Y-125636020D01*
X140065760Y-125636020D02*
X138064240Y-125636020D01*
X138064240Y-125636020D02*
X137066020Y-126634240D01*
X137066020Y-126634240D02*
X137066020Y-128635760D01*
X137066020Y-128635760D02*
X138064240Y-129633980D01*
X138064240Y-129633980D02*
X140065760Y-129633980D01*
X141665960Y-128935480D02*
X141665960Y-126334520D01*
X137764520Y-130235960D02*
X140365480Y-130235960D01*
X141665960Y-126334520D02*
X140365480Y-125034040D01*
X140365480Y-125034040D02*
X137764520Y-125034040D01*
X137764520Y-125034040D02*
X136464040Y-126334520D01*
X136464040Y-126334520D02*
X136464040Y-128935480D01*
X140365480Y-130235960D02*
X141665960Y-128935480D01*
X136464040Y-128935480D02*
X137764520Y-130235960D01*
X140065760Y-127635000D02*
G75*
G03X140065760Y-127635000I-1000760J0D01*
G01*
D11*
X125280000Y-115755000D02*
X125280000Y-115980000D01*
X132530000Y-115755000D02*
X132530000Y-116080000D01*
X132530000Y-123005000D02*
X132530000Y-122680000D01*
X125280000Y-123005000D02*
X125280000Y-122680000D01*
X125280000Y-115755000D02*
X125605000Y-115755000D01*
X125280000Y-123005000D02*
X125605000Y-123005000D01*
X132530000Y-123005000D02*
X132205000Y-123005000D01*
X132530000Y-115755000D02*
X132205000Y-115755000D01*
X125280000Y-115980000D02*
X123855000Y-115980000D01*
D13*
X125380000Y-111795000D02*
X126080000Y-111795000D01*
X126080000Y-112995000D02*
X125380000Y-112995000D01*
X119730000Y-119980000D02*
X119030000Y-119980000D01*
X119030000Y-118780000D02*
X119730000Y-118780000D01*
X136490000Y-119665000D02*
X136490000Y-120365000D01*
X135290000Y-120365000D02*
X135290000Y-119665000D01*
X143475000Y-117760000D02*
X143475000Y-118460000D01*
X142275000Y-118460000D02*
X142275000Y-117760000D01*
X111540000Y-126275000D02*
X111540000Y-131775000D01*
X109440000Y-126275000D02*
X109440000Y-131775000D01*
X111540000Y-126275000D02*
X109440000Y-126275000D01*
X109765000Y-122775000D02*
X115265000Y-122775000D01*
X109765000Y-124875000D02*
X115265000Y-124875000D01*
X109765000Y-122775000D02*
X109765000Y-124875000D01*
X121885000Y-115220000D02*
X121885000Y-115920000D01*
X120685000Y-115920000D02*
X120685000Y-115220000D01*
X139665000Y-119665000D02*
X139665000Y-120365000D01*
X138465000Y-120365000D02*
X138465000Y-119665000D01*
X121150000Y-113075000D02*
X120150000Y-113075000D01*
X120150000Y-111715000D02*
X121150000Y-111715000D01*
X131310000Y-113075000D02*
X130310000Y-113075000D01*
X130310000Y-111715000D02*
X131310000Y-111715000D01*
X137025000Y-135300000D02*
X136025000Y-135300000D01*
X136025000Y-133940000D02*
X137025000Y-133940000D01*
X134665000Y-127770000D02*
X134665000Y-128770000D01*
X133305000Y-128770000D02*
X133305000Y-127770000D01*
X142920000Y-113165000D02*
X142920000Y-114165000D01*
X141560000Y-114165000D02*
X141560000Y-113165000D01*
X145550000Y-115525000D02*
X146550000Y-115525000D01*
X146550000Y-116885000D02*
X145550000Y-116885000D01*
X145550000Y-112985000D02*
X146550000Y-112985000D01*
X146550000Y-114345000D02*
X145550000Y-114345000D01*
X112530000Y-119970000D02*
X113530000Y-119970000D01*
X113530000Y-121330000D02*
X112530000Y-121330000D01*
X136390000Y-113075000D02*
X135390000Y-113075000D01*
X135390000Y-111715000D02*
X136390000Y-111715000D01*
D11*
X140505000Y-141640000D02*
X140505000Y-141590000D01*
X136355000Y-141640000D02*
X136355000Y-141495000D01*
X136355000Y-136490000D02*
X136355000Y-136635000D01*
X140505000Y-136490000D02*
X140505000Y-136635000D01*
X140505000Y-141640000D02*
X136355000Y-141640000D01*
X140505000Y-136490000D02*
X136355000Y-136490000D01*
X140505000Y-141590000D02*
X141905000Y-141590000D01*
D13*
X116715000Y-113990000D02*
X116715000Y-114920000D01*
X116715000Y-117150000D02*
X116715000Y-116220000D01*
X116715000Y-117150000D02*
X118875000Y-117150000D01*
X116715000Y-113990000D02*
X118175000Y-113990000D01*
X138745000Y-116070000D02*
X138745000Y-117120000D01*
X138745000Y-117120000D02*
X136895000Y-117120000D01*
X138745000Y-114070000D02*
X138745000Y-115070000D01*
X138725000Y-114060000D02*
X136295000Y-114060000D01*
D14*
X120000000Y-121490000D02*
X120000000Y-121390000D01*
X120000000Y-121390000D02*
X121300000Y-121390000D01*
X121300000Y-121390000D02*
X121300000Y-121490000D01*
X121300000Y-124890000D02*
X121300000Y-125040000D01*
X121300000Y-125040000D02*
X120000000Y-125040000D01*
X120000000Y-125040000D02*
X120000000Y-124890000D01*
D15*
X120000000Y-123990000D02*
X120000000Y-123590000D01*
X120000000Y-122790000D02*
X120000000Y-122390000D01*
X121300000Y-123990000D02*
X121300000Y-123590000D01*
X121300000Y-122790000D02*
X121300000Y-122390000D01*
X122050000Y-124590000D02*
G75*
G03X122050000Y-124590000I-200000J0D01*
G01*
D13*
X114830000Y-112250000D02*
X110130000Y-112250000D01*
X110130000Y-112250000D02*
X110130000Y-118350000D01*
X110130000Y-118350000D02*
X114830000Y-118350000D01*
X114830000Y-118350000D02*
X114830000Y-112250000D01*
X114830000Y-114800000D02*
X114230000Y-114800000D01*
X114230000Y-114800000D02*
X114230000Y-112850000D01*
X114230000Y-112850000D02*
X110730000Y-112850000D01*
X110730000Y-112850000D02*
X110730000Y-117750000D01*
X110730000Y-117750000D02*
X114230000Y-117750000D01*
X114230000Y-117750000D02*
X114230000Y-115800000D01*
X114230000Y-115800000D02*
X114830000Y-115800000D01*
X113530000Y-112250000D02*
X113530000Y-112850000D01*
X112230000Y-112250000D02*
X112230000Y-112850000D01*
X113530000Y-118350000D02*
X113530000Y-117750000D01*
X112230000Y-118350000D02*
X112230000Y-117750000D01*
X114830000Y-114000000D02*
X115030000Y-114000000D01*
X115030000Y-114000000D02*
X115030000Y-113700000D01*
X115030000Y-113700000D02*
X114830000Y-113700000D01*
X114930000Y-114000000D02*
X114930000Y-113700000D01*
X110730000Y-115200000D02*
X111230000Y-115200000D01*
X111230000Y-115200000D02*
X111230000Y-115400000D01*
X111230000Y-115400000D02*
X110730000Y-115400000D01*
X110730000Y-115300000D02*
X111230000Y-115300000D01*
X115130000Y-113200000D02*
X115130000Y-111950000D01*
X115130000Y-111950000D02*
X113880000Y-111950000D01*
X152400000Y-142300000D02*
X167700000Y-142300000D01*
X167700000Y-142300000D02*
X167700000Y-139640000D01*
X167700000Y-139640000D02*
X152400000Y-139640000D01*
X152400000Y-139640000D02*
X152400000Y-142300000D01*
X151130000Y-142300000D02*
X149800000Y-142300000D01*
X149800000Y-142300000D02*
X149800000Y-140970000D01*
X152400000Y-114995000D02*
X167700000Y-114995000D01*
X167700000Y-114995000D02*
X167700000Y-112335000D01*
X167700000Y-112335000D02*
X152400000Y-112335000D01*
X152400000Y-112335000D02*
X152400000Y-114995000D01*
X151130000Y-114995000D02*
X149800000Y-114995000D01*
X149800000Y-114995000D02*
X149800000Y-113665000D01*
D16*
X120355360Y-131218940D02*
X120355360Y-138021060D01*
X116756180Y-138021060D02*
X116756180Y-131218940D01*
X118554500Y-139821920D02*
G75*
G03X120355360Y-138021060I0J1800860D01*
G01*
X116756180Y-138021060D02*
G75*
G03X118554500Y-139819380I1798320J0D01*
G01*
X120352820Y-131218940D02*
G75*
G03X118554500Y-129420620I-1798320J0D01*
G01*
X118554500Y-129420620D02*
G75*
G03X116756180Y-131218940I0J-1798320D01*
G01*
X118554500Y-140322300D02*
G75*
G03X120855740Y-138021060I0J2301240D01*
G01*
X116255800Y-138021060D02*
G75*
G03X118554500Y-140319760I2298700J0D01*
G01*
X120853200Y-131218940D02*
G75*
G03X118554500Y-128920240I-2298700J0D01*
G01*
X118554500Y-128920240D02*
G75*
G03X116255800Y-131218940I0J-2298700D01*
G01*
X120855740Y-140319760D02*
X116255800Y-140319760D01*
X116255800Y-140319760D02*
X116255800Y-128920240D01*
X116255800Y-128920240D02*
X120855740Y-128920240D01*
X120855740Y-128920240D02*
X120855740Y-140319760D01*
X128557020Y-133118860D02*
G75*
G03X128557020Y-133118860I-3101340J0D01*
G01*
X114604800Y-126570740D02*
X130505200Y-126570740D01*
X130505200Y-126570740D02*
X130505200Y-142669260D01*
X130505200Y-142669260D02*
X114604800Y-142669260D01*
X114604800Y-142669260D02*
X114604800Y-126570740D01*
D13*
X144720000Y-136585000D02*
X147380000Y-136585000D01*
X144720000Y-123825000D02*
X144720000Y-136585000D01*
X147380000Y-123825000D02*
X147380000Y-136585000D01*
X144720000Y-123825000D02*
X147380000Y-123825000D01*
X144720000Y-122555000D02*
X144720000Y-121225000D01*
X144720000Y-121225000D02*
X146050000Y-121225000D01*
D17*
X143337643Y-129328333D02*
X143392071Y-129146905D01*
X143392071Y-128844524D01*
X143337643Y-128723571D01*
X143283214Y-128663095D01*
X143174357Y-128602619D01*
X143065500Y-128602619D01*
X142956643Y-128663095D01*
X142902214Y-128723571D01*
X142847786Y-128844524D01*
X142793357Y-129086428D01*
X142738929Y-129207381D01*
X142684500Y-129267857D01*
X142575643Y-129328333D01*
X142466786Y-129328333D01*
X142357929Y-129267857D01*
X142303500Y-129207381D01*
X142249071Y-129086428D01*
X142249071Y-128784048D01*
X142303500Y-128602619D01*
X142249071Y-128179285D02*
X143392071Y-127876904D01*
X142575643Y-127635000D01*
X143392071Y-127393095D01*
X142249071Y-127090714D01*
X143392071Y-125941666D02*
X143392071Y-126667380D01*
X143392071Y-126304523D02*
X142249071Y-126304523D01*
X142412357Y-126425475D01*
X142521214Y-126546428D01*
X142575643Y-126667380D01*
D11*
X127508095Y-113117381D02*
X127508095Y-113926905D01*
X127555714Y-114022143D01*
X127603333Y-114069762D01*
X127698571Y-114117381D01*
X127889048Y-114117381D01*
X127984286Y-114069762D01*
X128031905Y-114022143D01*
X128079524Y-113926905D01*
X128079524Y-113117381D01*
X129079524Y-114117381D02*
X128508095Y-114117381D01*
X128793809Y-114117381D02*
X128793809Y-113117381D01*
X128698571Y-113260238D01*
X128603333Y-113355476D01*
X128508095Y-113403095D01*
X125563334Y-111502143D02*
X125515715Y-111549762D01*
X125372858Y-111597381D01*
X125277620Y-111597381D01*
X125134762Y-111549762D01*
X125039524Y-111454524D01*
X124991905Y-111359286D01*
X124944286Y-111168810D01*
X124944286Y-111025952D01*
X124991905Y-110835476D01*
X125039524Y-110740238D01*
X125134762Y-110645000D01*
X125277620Y-110597381D01*
X125372858Y-110597381D01*
X125515715Y-110645000D01*
X125563334Y-110692619D01*
X126515715Y-111597381D02*
X125944286Y-111597381D01*
X126230000Y-111597381D02*
X126230000Y-110597381D01*
X126134762Y-110740238D01*
X126039524Y-110835476D01*
X125944286Y-110883095D01*
X119213334Y-120987143D02*
X119165715Y-121034762D01*
X119022858Y-121082381D01*
X118927620Y-121082381D01*
X118784762Y-121034762D01*
X118689524Y-120939524D01*
X118641905Y-120844286D01*
X118594286Y-120653810D01*
X118594286Y-120510952D01*
X118641905Y-120320476D01*
X118689524Y-120225238D01*
X118784762Y-120130000D01*
X118927620Y-120082381D01*
X119022858Y-120082381D01*
X119165715Y-120130000D01*
X119213334Y-120177619D01*
X119594286Y-120177619D02*
X119641905Y-120130000D01*
X119737143Y-120082381D01*
X119975239Y-120082381D01*
X120070477Y-120130000D01*
X120118096Y-120177619D01*
X120165715Y-120272857D01*
X120165715Y-120368095D01*
X120118096Y-120510952D01*
X119546667Y-121082381D01*
X120165715Y-121082381D01*
X137497143Y-120181666D02*
X137544762Y-120229285D01*
X137592381Y-120372142D01*
X137592381Y-120467380D01*
X137544762Y-120610238D01*
X137449524Y-120705476D01*
X137354286Y-120753095D01*
X137163810Y-120800714D01*
X137020952Y-120800714D01*
X136830476Y-120753095D01*
X136735238Y-120705476D01*
X136640000Y-120610238D01*
X136592381Y-120467380D01*
X136592381Y-120372142D01*
X136640000Y-120229285D01*
X136687619Y-120181666D01*
X136925714Y-119324523D02*
X137592381Y-119324523D01*
X136544762Y-119562619D02*
X137259048Y-119800714D01*
X137259048Y-119181666D01*
X144482143Y-118276666D02*
X144529762Y-118324285D01*
X144577381Y-118467142D01*
X144577381Y-118562380D01*
X144529762Y-118705238D01*
X144434524Y-118800476D01*
X144339286Y-118848095D01*
X144148810Y-118895714D01*
X144005952Y-118895714D01*
X143815476Y-118848095D01*
X143720238Y-118800476D01*
X143625000Y-118705238D01*
X143577381Y-118562380D01*
X143577381Y-118467142D01*
X143625000Y-118324285D01*
X143672619Y-118276666D01*
X143577381Y-117419523D02*
X143577381Y-117610000D01*
X143625000Y-117705238D01*
X143672619Y-117752857D01*
X143815476Y-117848095D01*
X144005952Y-117895714D01*
X144386905Y-117895714D01*
X144482143Y-117848095D01*
X144529762Y-117800476D01*
X144577381Y-117705238D01*
X144577381Y-117514761D01*
X144529762Y-117419523D01*
X144482143Y-117371904D01*
X144386905Y-117324285D01*
X144148810Y-117324285D01*
X144053571Y-117371904D01*
X144005952Y-117419523D01*
X143958333Y-117514761D01*
X143958333Y-117705238D01*
X144005952Y-117800476D01*
X144053571Y-117848095D01*
X144148810Y-117895714D01*
X110847143Y-135421666D02*
X110894762Y-135469285D01*
X110942381Y-135612142D01*
X110942381Y-135707380D01*
X110894762Y-135850238D01*
X110799524Y-135945476D01*
X110704286Y-135993095D01*
X110513810Y-136040714D01*
X110370952Y-136040714D01*
X110180476Y-135993095D01*
X110085238Y-135945476D01*
X109990000Y-135850238D01*
X109942381Y-135707380D01*
X109942381Y-135612142D01*
X109990000Y-135469285D01*
X110037619Y-135421666D01*
X109942381Y-135088333D02*
X109942381Y-134421666D01*
X110942381Y-134850238D01*
X110323334Y-122277143D02*
X110275715Y-122324762D01*
X110132858Y-122372381D01*
X110037620Y-122372381D01*
X109894762Y-122324762D01*
X109799524Y-122229524D01*
X109751905Y-122134286D01*
X109704286Y-121943810D01*
X109704286Y-121800952D01*
X109751905Y-121610476D01*
X109799524Y-121515238D01*
X109894762Y-121420000D01*
X110037620Y-121372381D01*
X110132858Y-121372381D01*
X110275715Y-121420000D01*
X110323334Y-121467619D01*
X110799524Y-122372381D02*
X110990000Y-122372381D01*
X111085239Y-122324762D01*
X111132858Y-122277143D01*
X111228096Y-122134286D01*
X111275715Y-121943810D01*
X111275715Y-121562857D01*
X111228096Y-121467619D01*
X111180477Y-121420000D01*
X111085239Y-121372381D01*
X110894762Y-121372381D01*
X110799524Y-121420000D01*
X110751905Y-121467619D01*
X110704286Y-121562857D01*
X110704286Y-121800952D01*
X110751905Y-121896190D01*
X110799524Y-121943810D01*
X110894762Y-121991429D01*
X111085239Y-121991429D01*
X111180477Y-121943810D01*
X111228096Y-121896190D01*
X111275715Y-121800952D01*
X122892143Y-116212857D02*
X122939762Y-116260476D01*
X122987381Y-116403333D01*
X122987381Y-116498571D01*
X122939762Y-116641429D01*
X122844524Y-116736667D01*
X122749286Y-116784286D01*
X122558810Y-116831905D01*
X122415952Y-116831905D01*
X122225476Y-116784286D01*
X122130238Y-116736667D01*
X122035000Y-116641429D01*
X121987381Y-116498571D01*
X121987381Y-116403333D01*
X122035000Y-116260476D01*
X122082619Y-116212857D01*
X122987381Y-115260476D02*
X122987381Y-115831905D01*
X122987381Y-115546191D02*
X121987381Y-115546191D01*
X122130238Y-115641429D01*
X122225476Y-115736667D01*
X122273095Y-115831905D01*
X121987381Y-114641429D02*
X121987381Y-114546190D01*
X122035000Y-114450952D01*
X122082619Y-114403333D01*
X122177857Y-114355714D01*
X122368333Y-114308095D01*
X122606429Y-114308095D01*
X122796905Y-114355714D01*
X122892143Y-114403333D01*
X122939762Y-114450952D01*
X122987381Y-114546190D01*
X122987381Y-114641429D01*
X122939762Y-114736667D01*
X122892143Y-114784286D01*
X122796905Y-114831905D01*
X122606429Y-114879524D01*
X122368333Y-114879524D01*
X122177857Y-114831905D01*
X122082619Y-114784286D01*
X122035000Y-114736667D01*
X121987381Y-114641429D01*
X140672143Y-120657857D02*
X140719762Y-120705476D01*
X140767381Y-120848333D01*
X140767381Y-120943571D01*
X140719762Y-121086429D01*
X140624524Y-121181667D01*
X140529286Y-121229286D01*
X140338810Y-121276905D01*
X140195952Y-121276905D01*
X140005476Y-121229286D01*
X139910238Y-121181667D01*
X139815000Y-121086429D01*
X139767381Y-120943571D01*
X139767381Y-120848333D01*
X139815000Y-120705476D01*
X139862619Y-120657857D01*
X140767381Y-119705476D02*
X140767381Y-120276905D01*
X140767381Y-119991191D02*
X139767381Y-119991191D01*
X139910238Y-120086429D01*
X140005476Y-120181667D01*
X140053095Y-120276905D01*
X139862619Y-119324524D02*
X139815000Y-119276905D01*
X139767381Y-119181667D01*
X139767381Y-118943571D01*
X139815000Y-118848333D01*
X139862619Y-118800714D01*
X139957857Y-118753095D01*
X140053095Y-118753095D01*
X140195952Y-118800714D01*
X140767381Y-119372143D01*
X140767381Y-118753095D01*
X109180476Y-140152381D02*
X109180476Y-139152381D01*
X109513810Y-139866667D01*
X109847143Y-139152381D01*
X109847143Y-140152381D01*
X110323333Y-140152381D02*
X110323333Y-139152381D01*
X110894762Y-140152381D02*
X110466190Y-139580952D01*
X110894762Y-139152381D02*
X110323333Y-139723810D01*
X111847143Y-140152381D02*
X111275714Y-140152381D01*
X111561428Y-140152381D02*
X111561428Y-139152381D01*
X111466190Y-139295238D01*
X111370952Y-139390476D01*
X111275714Y-139438095D01*
X120483334Y-111397381D02*
X120150000Y-110921190D01*
X119911905Y-111397381D02*
X119911905Y-110397381D01*
X120292858Y-110397381D01*
X120388096Y-110445000D01*
X120435715Y-110492619D01*
X120483334Y-110587857D01*
X120483334Y-110730714D01*
X120435715Y-110825952D01*
X120388096Y-110873571D01*
X120292858Y-110921190D01*
X119911905Y-110921190D01*
X121435715Y-111397381D02*
X120864286Y-111397381D01*
X121150000Y-111397381D02*
X121150000Y-110397381D01*
X121054762Y-110540238D01*
X120959524Y-110635476D01*
X120864286Y-110683095D01*
X130643334Y-111397381D02*
X130310000Y-110921190D01*
X130071905Y-111397381D02*
X130071905Y-110397381D01*
X130452858Y-110397381D01*
X130548096Y-110445000D01*
X130595715Y-110492619D01*
X130643334Y-110587857D01*
X130643334Y-110730714D01*
X130595715Y-110825952D01*
X130548096Y-110873571D01*
X130452858Y-110921190D01*
X130071905Y-110921190D01*
X131024286Y-110492619D02*
X131071905Y-110445000D01*
X131167143Y-110397381D01*
X131405239Y-110397381D01*
X131500477Y-110445000D01*
X131548096Y-110492619D01*
X131595715Y-110587857D01*
X131595715Y-110683095D01*
X131548096Y-110825952D01*
X130976667Y-111397381D01*
X131595715Y-111397381D01*
X136358334Y-133622381D02*
X136025000Y-133146190D01*
X135786905Y-133622381D02*
X135786905Y-132622381D01*
X136167858Y-132622381D01*
X136263096Y-132670000D01*
X136310715Y-132717619D01*
X136358334Y-132812857D01*
X136358334Y-132955714D01*
X136310715Y-133050952D01*
X136263096Y-133098571D01*
X136167858Y-133146190D01*
X135786905Y-133146190D01*
X136691667Y-132622381D02*
X137310715Y-132622381D01*
X136977381Y-133003333D01*
X137120239Y-133003333D01*
X137215477Y-133050952D01*
X137263096Y-133098571D01*
X137310715Y-133193810D01*
X137310715Y-133431905D01*
X137263096Y-133527143D01*
X137215477Y-133574762D01*
X137120239Y-133622381D01*
X136834524Y-133622381D01*
X136739286Y-133574762D01*
X136691667Y-133527143D01*
X134437381Y-131611666D02*
X133961190Y-131945000D01*
X134437381Y-132183095D02*
X133437381Y-132183095D01*
X133437381Y-131802142D01*
X133485000Y-131706904D01*
X133532619Y-131659285D01*
X133627857Y-131611666D01*
X133770714Y-131611666D01*
X133865952Y-131659285D01*
X133913571Y-131706904D01*
X133961190Y-131802142D01*
X133961190Y-132183095D01*
X133770714Y-130754523D02*
X134437381Y-130754523D01*
X133389762Y-130992619D02*
X134104048Y-131230714D01*
X134104048Y-130611666D01*
X141242381Y-113831666D02*
X140766190Y-114165000D01*
X141242381Y-114403095D02*
X140242381Y-114403095D01*
X140242381Y-114022142D01*
X140290000Y-113926904D01*
X140337619Y-113879285D01*
X140432857Y-113831666D01*
X140575714Y-113831666D01*
X140670952Y-113879285D01*
X140718571Y-113926904D01*
X140766190Y-114022142D01*
X140766190Y-114403095D01*
X140242381Y-112926904D02*
X140242381Y-113403095D01*
X140718571Y-113450714D01*
X140670952Y-113403095D01*
X140623333Y-113307857D01*
X140623333Y-113069761D01*
X140670952Y-112974523D01*
X140718571Y-112926904D01*
X140813810Y-112879285D01*
X141051905Y-112879285D01*
X141147143Y-112926904D01*
X141194762Y-112974523D01*
X141242381Y-113069761D01*
X141242381Y-113307857D01*
X141194762Y-113403095D01*
X141147143Y-113450714D01*
X145407143Y-118107381D02*
X145073809Y-117631190D01*
X144835714Y-118107381D02*
X144835714Y-117107381D01*
X145216667Y-117107381D01*
X145311905Y-117155000D01*
X145359524Y-117202619D01*
X145407143Y-117297857D01*
X145407143Y-117440714D01*
X145359524Y-117535952D01*
X145311905Y-117583571D01*
X145216667Y-117631190D01*
X144835714Y-117631190D01*
X146359524Y-118107381D02*
X145788095Y-118107381D01*
X146073809Y-118107381D02*
X146073809Y-117107381D01*
X145978571Y-117250238D01*
X145883333Y-117345476D01*
X145788095Y-117393095D01*
X146978571Y-117107381D02*
X147073810Y-117107381D01*
X147169048Y-117155000D01*
X147216667Y-117202619D01*
X147264286Y-117297857D01*
X147311905Y-117488333D01*
X147311905Y-117726429D01*
X147264286Y-117916905D01*
X147216667Y-118012143D01*
X147169048Y-118059762D01*
X147073810Y-118107381D01*
X146978571Y-118107381D01*
X146883333Y-118059762D01*
X146835714Y-118012143D01*
X146788095Y-117916905D01*
X146740476Y-117726429D01*
X146740476Y-117488333D01*
X146788095Y-117297857D01*
X146835714Y-117202619D01*
X146883333Y-117155000D01*
X146978571Y-117107381D01*
X145407143Y-112847381D02*
X145073809Y-112371190D01*
X144835714Y-112847381D02*
X144835714Y-111847381D01*
X145216667Y-111847381D01*
X145311905Y-111895000D01*
X145359524Y-111942619D01*
X145407143Y-112037857D01*
X145407143Y-112180714D01*
X145359524Y-112275952D01*
X145311905Y-112323571D01*
X145216667Y-112371190D01*
X144835714Y-112371190D01*
X146359524Y-112847381D02*
X145788095Y-112847381D01*
X146073809Y-112847381D02*
X146073809Y-111847381D01*
X145978571Y-111990238D01*
X145883333Y-112085476D01*
X145788095Y-112133095D01*
X147311905Y-112847381D02*
X146740476Y-112847381D01*
X147026190Y-112847381D02*
X147026190Y-111847381D01*
X146930952Y-111990238D01*
X146835714Y-112085476D01*
X146740476Y-112133095D01*
X110482143Y-119832381D02*
X110148809Y-119356190D01*
X109910714Y-119832381D02*
X109910714Y-118832381D01*
X110291667Y-118832381D01*
X110386905Y-118880000D01*
X110434524Y-118927619D01*
X110482143Y-119022857D01*
X110482143Y-119165714D01*
X110434524Y-119260952D01*
X110386905Y-119308571D01*
X110291667Y-119356190D01*
X109910714Y-119356190D01*
X111434524Y-119832381D02*
X110863095Y-119832381D01*
X111148809Y-119832381D02*
X111148809Y-118832381D01*
X111053571Y-118975238D01*
X110958333Y-119070476D01*
X110863095Y-119118095D01*
X111767857Y-118832381D02*
X112386905Y-118832381D01*
X112053571Y-119213333D01*
X112196429Y-119213333D01*
X112291667Y-119260952D01*
X112339286Y-119308571D01*
X112386905Y-119403810D01*
X112386905Y-119641905D01*
X112339286Y-119737143D01*
X112291667Y-119784762D01*
X112196429Y-119832381D01*
X111910714Y-119832381D01*
X111815476Y-119784762D01*
X111767857Y-119737143D01*
X135247143Y-111397381D02*
X134913809Y-110921190D01*
X134675714Y-111397381D02*
X134675714Y-110397381D01*
X135056667Y-110397381D01*
X135151905Y-110445000D01*
X135199524Y-110492619D01*
X135247143Y-110587857D01*
X135247143Y-110730714D01*
X135199524Y-110825952D01*
X135151905Y-110873571D01*
X135056667Y-110921190D01*
X134675714Y-110921190D01*
X136199524Y-111397381D02*
X135628095Y-111397381D01*
X135913809Y-111397381D02*
X135913809Y-110397381D01*
X135818571Y-110540238D01*
X135723333Y-110635476D01*
X135628095Y-110683095D01*
X137056667Y-110730714D02*
X137056667Y-111397381D01*
X136818571Y-110349762D02*
X136580476Y-111064048D01*
X137199524Y-111064048D01*
X137668095Y-142017381D02*
X137668095Y-142826905D01*
X137715714Y-142922143D01*
X137763333Y-142969762D01*
X137858571Y-143017381D01*
X138049048Y-143017381D01*
X138144286Y-142969762D01*
X138191905Y-142922143D01*
X138239524Y-142826905D01*
X138239524Y-142017381D01*
X138620476Y-142017381D02*
X139239524Y-142017381D01*
X138906190Y-142398333D01*
X139049048Y-142398333D01*
X139144286Y-142445952D01*
X139191905Y-142493571D01*
X139239524Y-142588810D01*
X139239524Y-142826905D01*
X139191905Y-142922143D01*
X139144286Y-142969762D01*
X139049048Y-143017381D01*
X138763333Y-143017381D01*
X138668095Y-142969762D01*
X138620476Y-142922143D01*
X116713095Y-117522381D02*
X116713095Y-118331905D01*
X116760714Y-118427143D01*
X116808333Y-118474762D01*
X116903571Y-118522381D01*
X117094048Y-118522381D01*
X117189286Y-118474762D01*
X117236905Y-118427143D01*
X117284524Y-118331905D01*
X117284524Y-117522381D01*
X118189286Y-117855714D02*
X118189286Y-118522381D01*
X117951190Y-117474762D02*
X117713095Y-118189048D01*
X118332143Y-118189048D01*
X137668095Y-112482381D02*
X137668095Y-113291905D01*
X137715714Y-113387143D01*
X137763333Y-113434762D01*
X137858571Y-113482381D01*
X138049048Y-113482381D01*
X138144286Y-113434762D01*
X138191905Y-113387143D01*
X138239524Y-113291905D01*
X138239524Y-112482381D01*
X139144286Y-112482381D02*
X138953809Y-112482381D01*
X138858571Y-112530000D01*
X138810952Y-112577619D01*
X138715714Y-112720476D01*
X138668095Y-112910952D01*
X138668095Y-113291905D01*
X138715714Y-113387143D01*
X138763333Y-113434762D01*
X138858571Y-113482381D01*
X139049048Y-113482381D01*
X139144286Y-113434762D01*
X139191905Y-113387143D01*
X139239524Y-113291905D01*
X139239524Y-113053810D01*
X139191905Y-112958571D01*
X139144286Y-112910952D01*
X139049048Y-112863333D01*
X138858571Y-112863333D01*
X138763333Y-112910952D01*
X138715714Y-112958571D01*
X138668095Y-113053810D01*
X118911690Y-123793191D02*
X119387881Y-123793191D01*
X118387881Y-124126524D02*
X118911690Y-123793191D01*
X118387881Y-123459857D01*
X118483119Y-123174143D02*
X118435500Y-123126524D01*
X118387881Y-123031286D01*
X118387881Y-122793190D01*
X118435500Y-122697952D01*
X118483119Y-122650333D01*
X118578357Y-122602714D01*
X118673595Y-122602714D01*
X118816452Y-122650333D01*
X119387881Y-123221762D01*
X119387881Y-122602714D01*
X110577381Y-111458333D02*
X111291667Y-111458333D01*
X111434524Y-111505953D01*
X111529762Y-111601191D01*
X111577381Y-111744048D01*
X111577381Y-111839286D01*
X110577381Y-111077381D02*
X110577381Y-110458333D01*
X110958333Y-110791667D01*
X110958333Y-110648809D01*
X111005952Y-110553571D01*
X111053571Y-110505952D01*
X111148810Y-110458333D01*
X111386905Y-110458333D01*
X111482143Y-110505952D01*
X111529762Y-110553571D01*
X111577381Y-110648809D01*
X111577381Y-110934524D01*
X111529762Y-111029762D01*
X111482143Y-111077381D01*
X148252381Y-141303333D02*
X148966667Y-141303333D01*
X149109524Y-141350953D01*
X149204762Y-141446191D01*
X149252381Y-141589048D01*
X149252381Y-141684286D01*
X149252381Y-140303333D02*
X149252381Y-140874762D01*
X149252381Y-140589048D02*
X148252381Y-140589048D01*
X148395238Y-140684286D01*
X148490476Y-140779524D01*
X148538095Y-140874762D01*
X148252381Y-113998333D02*
X148966667Y-113998333D01*
X149109524Y-114045953D01*
X149204762Y-114141191D01*
X149252381Y-114284048D01*
X149252381Y-114379286D01*
X148347619Y-113569762D02*
X148300000Y-113522143D01*
X148252381Y-113426905D01*
X148252381Y-113188809D01*
X148300000Y-113093571D01*
X148347619Y-113045952D01*
X148442857Y-112998333D01*
X148538095Y-112998333D01*
X148680952Y-113045952D01*
X149252381Y-113617381D01*
X149252381Y-112998333D01*
X131318095Y-142962381D02*
X131318095Y-143771905D01*
X131365714Y-143867143D01*
X131413333Y-143914762D01*
X131508571Y-143962381D01*
X131699048Y-143962381D01*
X131794286Y-143914762D01*
X131841905Y-143867143D01*
X131889524Y-143771905D01*
X131889524Y-142962381D01*
X132318095Y-143057619D02*
X132365714Y-143010000D01*
X132460952Y-142962381D01*
X132699048Y-142962381D01*
X132794286Y-143010000D01*
X132841905Y-143057619D01*
X132889524Y-143152857D01*
X132889524Y-143248095D01*
X132841905Y-143390952D01*
X132270476Y-143962381D01*
X132889524Y-143962381D01*
X145716667Y-119677381D02*
X145716667Y-120391667D01*
X145669047Y-120534524D01*
X145573809Y-120629762D01*
X145430952Y-120677381D01*
X145335714Y-120677381D01*
X146669048Y-119677381D02*
X146192857Y-119677381D01*
X146145238Y-120153571D01*
X146192857Y-120105952D01*
X146288095Y-120058333D01*
X146526191Y-120058333D01*
X146621429Y-120105952D01*
X146669048Y-120153571D01*
X146716667Y-120248810D01*
X146716667Y-120486905D01*
X146669048Y-120582143D01*
X146621429Y-120629762D01*
X146526191Y-120677381D01*
X146288095Y-120677381D01*
X146192857Y-120629762D01*
X146145238Y-120582143D01*
M02*
