G04 #@! TF.FileFunction,Legend,Bot*
%FSLAX46Y46*%
G04 Gerber Fmt 4.6, Leading zero omitted, Abs format (unit mm)*
G04 Created by KiCad (PCBNEW 4.0.7-e1-6374~58~ubuntu16.04.1) date Wed Aug  2 10:41:50 2017*
%MOMM*%
%LPD*%
G01*
G04 APERTURE LIST*
%ADD10C,0.100000*%
%ADD11C,0.150000*%
%ADD12C,0.010000*%
G04 APERTURE END LIST*
D10*
D11*
X115737143Y-113295595D02*
X115784762Y-113242024D01*
X115832381Y-113093214D01*
X115832381Y-112997976D01*
X115784762Y-112861071D01*
X115689524Y-112777738D01*
X115594286Y-112742023D01*
X115403810Y-112718214D01*
X115260952Y-112736071D01*
X115070476Y-112807500D01*
X114975238Y-112867023D01*
X114880000Y-112974166D01*
X114832381Y-113122976D01*
X114832381Y-113218214D01*
X114880000Y-113355119D01*
X114927619Y-113396786D01*
X115832381Y-113855118D02*
X115784762Y-113765833D01*
X115737143Y-113724166D01*
X115641905Y-113688452D01*
X115356190Y-113724166D01*
X115260952Y-113783690D01*
X115213333Y-113837261D01*
X115165714Y-113938452D01*
X115165714Y-114081310D01*
X115213333Y-114170595D01*
X115260952Y-114212262D01*
X115356190Y-114247976D01*
X115641905Y-114212262D01*
X115737143Y-114152738D01*
X115784762Y-114099167D01*
X115832381Y-113997976D01*
X115832381Y-113855118D01*
X115784762Y-114575357D02*
X115832381Y-114664642D01*
X115832381Y-114855118D01*
X115784762Y-114956310D01*
X115689524Y-115015834D01*
X115641905Y-115021786D01*
X115546667Y-114986072D01*
X115499048Y-114896785D01*
X115499048Y-114753928D01*
X115451429Y-114664642D01*
X115356190Y-114628928D01*
X115308571Y-114634881D01*
X115213333Y-114694404D01*
X115165714Y-114795595D01*
X115165714Y-114938452D01*
X115213333Y-115027738D01*
X115832381Y-115426547D02*
X115165714Y-115509881D01*
X115260952Y-115497976D02*
X115213333Y-115551547D01*
X115165714Y-115652738D01*
X115165714Y-115795596D01*
X115213333Y-115884881D01*
X115308571Y-115920596D01*
X115832381Y-115855119D01*
X115308571Y-115920596D02*
X115213333Y-115980119D01*
X115165714Y-116081310D01*
X115165714Y-116224167D01*
X115213333Y-116313452D01*
X115308571Y-116349167D01*
X115832381Y-116283690D01*
X115832381Y-116902737D02*
X115784762Y-116813452D01*
X115737143Y-116771785D01*
X115641905Y-116736071D01*
X115356190Y-116771785D01*
X115260952Y-116831309D01*
X115213333Y-116884880D01*
X115165714Y-116986071D01*
X115165714Y-117128929D01*
X115213333Y-117218214D01*
X115260952Y-117259881D01*
X115356190Y-117295595D01*
X115641905Y-117259881D01*
X115737143Y-117200357D01*
X115784762Y-117146786D01*
X115832381Y-117045595D01*
X115832381Y-116902737D01*
X115165714Y-117747976D02*
X115832381Y-117664642D01*
X115260952Y-117736071D02*
X115213333Y-117789642D01*
X115165714Y-117890833D01*
X115165714Y-118033691D01*
X115213333Y-118122976D01*
X115308571Y-118158691D01*
X115832381Y-118093214D01*
X115832381Y-118712261D02*
X115784762Y-118622976D01*
X115737143Y-118581309D01*
X115641905Y-118545595D01*
X115356190Y-118581309D01*
X115260952Y-118640833D01*
X115213333Y-118694404D01*
X115165714Y-118795595D01*
X115165714Y-118938453D01*
X115213333Y-119027738D01*
X115260952Y-119069405D01*
X115356190Y-119105119D01*
X115641905Y-119069405D01*
X115737143Y-119009881D01*
X115784762Y-118956310D01*
X115832381Y-118855119D01*
X115832381Y-118712261D01*
X115832381Y-119902738D02*
X114832381Y-120027738D01*
X115784762Y-119908691D02*
X115832381Y-119807500D01*
X115832381Y-119617023D01*
X115784762Y-119527738D01*
X115737143Y-119486071D01*
X115641905Y-119450357D01*
X115356190Y-119486071D01*
X115260952Y-119545595D01*
X115213333Y-119599166D01*
X115165714Y-119700357D01*
X115165714Y-119890834D01*
X115213333Y-119980119D01*
X115784762Y-120765834D02*
X115832381Y-120664643D01*
X115832381Y-120474166D01*
X115784762Y-120384881D01*
X115689524Y-120349167D01*
X115308571Y-120396786D01*
X115213333Y-120456309D01*
X115165714Y-120557500D01*
X115165714Y-120747977D01*
X115213333Y-120837262D01*
X115308571Y-120872977D01*
X115403810Y-120861072D01*
X115499048Y-120372976D01*
X115165714Y-121986072D02*
X115832381Y-122140833D01*
X115165714Y-122462263D01*
X114832381Y-123075357D02*
X114832381Y-123170596D01*
X114880000Y-123259882D01*
X114927619Y-123301549D01*
X115022857Y-123337263D01*
X115213333Y-123361072D01*
X115451429Y-123331310D01*
X115641905Y-123259882D01*
X115737143Y-123200358D01*
X115784762Y-123146787D01*
X115832381Y-123045596D01*
X115832381Y-122950357D01*
X115784762Y-122861072D01*
X115737143Y-122819405D01*
X115641905Y-122783691D01*
X115451429Y-122759881D01*
X115213333Y-122789643D01*
X115022857Y-122861072D01*
X114927619Y-122920596D01*
X114880000Y-122974167D01*
X114832381Y-123075357D01*
X115737143Y-123724167D02*
X115784762Y-123765834D01*
X115832381Y-123712262D01*
X115784762Y-123670596D01*
X115737143Y-123724167D01*
X115832381Y-123712262D01*
X114927619Y-124253929D02*
X114880000Y-124307500D01*
X114832381Y-124408690D01*
X114832381Y-124646786D01*
X114880000Y-124736072D01*
X114927619Y-124777739D01*
X115022857Y-124813453D01*
X115118095Y-124801548D01*
X115260952Y-124736072D01*
X115832381Y-124093214D01*
X115832381Y-124712262D01*
X117482381Y-114593213D02*
X116482381Y-114718213D01*
X116863333Y-114670594D02*
X116815714Y-114771785D01*
X116815714Y-114962262D01*
X116863333Y-115051547D01*
X116910952Y-115093214D01*
X117006190Y-115128928D01*
X117291905Y-115093214D01*
X117387143Y-115033690D01*
X117434762Y-114980119D01*
X117482381Y-114878928D01*
X117482381Y-114688451D01*
X117434762Y-114599166D01*
X116815714Y-115486071D02*
X117482381Y-115640832D01*
X116815714Y-115962262D02*
X117482381Y-115640832D01*
X117720476Y-115515832D01*
X117768095Y-115462261D01*
X117815714Y-115361071D01*
X116530000Y-117664643D02*
X116482381Y-117575357D01*
X116482381Y-117432500D01*
X116530000Y-117283690D01*
X116625238Y-117176547D01*
X116720476Y-117117024D01*
X116910952Y-117045595D01*
X117053810Y-117027738D01*
X117244286Y-117051547D01*
X117339524Y-117087262D01*
X117434762Y-117170595D01*
X117482381Y-117307500D01*
X117482381Y-117402738D01*
X117434762Y-117551548D01*
X117387143Y-117605119D01*
X117053810Y-117646786D01*
X117053810Y-117456310D01*
X117434762Y-118408691D02*
X117482381Y-118307500D01*
X117482381Y-118117023D01*
X117434762Y-118027738D01*
X117339524Y-117992024D01*
X116958571Y-118039643D01*
X116863333Y-118099166D01*
X116815714Y-118200357D01*
X116815714Y-118390834D01*
X116863333Y-118480119D01*
X116958571Y-118515834D01*
X117053810Y-118503929D01*
X117149048Y-118015833D01*
X116815714Y-118819405D02*
X116815714Y-119200357D01*
X116482381Y-119003928D02*
X117339524Y-118896786D01*
X117434762Y-118932500D01*
X117482381Y-119021785D01*
X117482381Y-119117023D01*
X117482381Y-119593214D02*
X117434762Y-119503929D01*
X117339524Y-119468215D01*
X116482381Y-119575357D01*
X117482381Y-120402739D02*
X116958571Y-120468216D01*
X116863333Y-120432501D01*
X116815714Y-120343216D01*
X116815714Y-120152739D01*
X116863333Y-120051548D01*
X117434762Y-120408692D02*
X117482381Y-120307501D01*
X117482381Y-120069405D01*
X117434762Y-119980120D01*
X117339524Y-119944406D01*
X117244286Y-119956310D01*
X117149048Y-120015834D01*
X117101429Y-120117024D01*
X117101429Y-120355120D01*
X117053810Y-120456311D01*
X117482381Y-120878929D02*
X116815714Y-120962263D01*
X117006190Y-120938453D02*
X116910952Y-120997977D01*
X116863333Y-121051548D01*
X116815714Y-121152739D01*
X116815714Y-121247978D01*
X116815714Y-122009883D02*
X117625238Y-121908692D01*
X117720476Y-121849168D01*
X117768095Y-121795597D01*
X117815714Y-121694406D01*
X117815714Y-121551549D01*
X117768095Y-121462263D01*
X117434762Y-121932502D02*
X117482381Y-121831311D01*
X117482381Y-121640834D01*
X117434762Y-121551549D01*
X117387143Y-121509882D01*
X117291905Y-121474168D01*
X117006190Y-121509882D01*
X116910952Y-121569406D01*
X116863333Y-121622977D01*
X116815714Y-121724168D01*
X116815714Y-121914645D01*
X116863333Y-122003930D01*
X117434762Y-122789645D02*
X117482381Y-122688454D01*
X117482381Y-122497977D01*
X117434762Y-122408692D01*
X117339524Y-122372978D01*
X116958571Y-122420597D01*
X116863333Y-122480120D01*
X116815714Y-122581311D01*
X116815714Y-122771788D01*
X116863333Y-122861073D01*
X116958571Y-122896788D01*
X117053810Y-122884883D01*
X117149048Y-122396787D01*
D12*
G36*
X116854918Y-132854744D02*
X116882568Y-132910201D01*
X116933480Y-132959148D01*
X116952338Y-132972629D01*
X116977015Y-132987314D01*
X117003816Y-132996842D01*
X117039587Y-133002293D01*
X117091169Y-133004747D01*
X117159267Y-133005286D01*
X117252588Y-133002852D01*
X117322657Y-132994394D01*
X117374931Y-132978174D01*
X117414869Y-132952454D01*
X117447929Y-132915497D01*
X117449886Y-132912782D01*
X117469908Y-132876360D01*
X117479815Y-132832502D01*
X117482257Y-132776724D01*
X117482257Y-132686048D01*
X117570283Y-132686010D01*
X117619308Y-132685166D01*
X117648065Y-132680024D01*
X117665311Y-132666587D01*
X117679808Y-132640858D01*
X117682769Y-132634679D01*
X117696648Y-132605764D01*
X117705414Y-132583376D01*
X117706171Y-132566729D01*
X117696023Y-132555036D01*
X117672073Y-132547510D01*
X117631426Y-132543366D01*
X117571186Y-132541815D01*
X117488455Y-132542071D01*
X117380339Y-132543349D01*
X117348000Y-132543748D01*
X117236524Y-132545185D01*
X117163603Y-132546472D01*
X117163603Y-132685971D01*
X117225499Y-132686755D01*
X117265997Y-132690240D01*
X117292708Y-132698124D01*
X117313244Y-132712105D01*
X117323260Y-132721597D01*
X117352567Y-132760404D01*
X117354952Y-132794763D01*
X117330750Y-132830216D01*
X117329857Y-132831114D01*
X117311153Y-132845539D01*
X117285732Y-132854313D01*
X117246584Y-132858739D01*
X117186697Y-132860118D01*
X117173430Y-132860143D01*
X117090901Y-132856812D01*
X117033691Y-132845969D01*
X116998766Y-132826340D01*
X116983094Y-132796650D01*
X116981514Y-132779491D01*
X116988926Y-132738766D01*
X117013330Y-132710832D01*
X117057980Y-132694017D01*
X117126130Y-132686650D01*
X117163603Y-132685971D01*
X117163603Y-132546472D01*
X117150245Y-132546708D01*
X117085333Y-132548677D01*
X117037958Y-132551450D01*
X117004290Y-132555388D01*
X116980498Y-132560849D01*
X116962753Y-132568192D01*
X116947224Y-132577777D01*
X116941381Y-132581887D01*
X116886185Y-132636405D01*
X116854890Y-132705336D01*
X116846165Y-132785072D01*
X116854918Y-132854744D01*
X116854918Y-132854744D01*
G37*
X116854918Y-132854744D02*
X116882568Y-132910201D01*
X116933480Y-132959148D01*
X116952338Y-132972629D01*
X116977015Y-132987314D01*
X117003816Y-132996842D01*
X117039587Y-133002293D01*
X117091169Y-133004747D01*
X117159267Y-133005286D01*
X117252588Y-133002852D01*
X117322657Y-132994394D01*
X117374931Y-132978174D01*
X117414869Y-132952454D01*
X117447929Y-132915497D01*
X117449886Y-132912782D01*
X117469908Y-132876360D01*
X117479815Y-132832502D01*
X117482257Y-132776724D01*
X117482257Y-132686048D01*
X117570283Y-132686010D01*
X117619308Y-132685166D01*
X117648065Y-132680024D01*
X117665311Y-132666587D01*
X117679808Y-132640858D01*
X117682769Y-132634679D01*
X117696648Y-132605764D01*
X117705414Y-132583376D01*
X117706171Y-132566729D01*
X117696023Y-132555036D01*
X117672073Y-132547510D01*
X117631426Y-132543366D01*
X117571186Y-132541815D01*
X117488455Y-132542071D01*
X117380339Y-132543349D01*
X117348000Y-132543748D01*
X117236524Y-132545185D01*
X117163603Y-132546472D01*
X117163603Y-132685971D01*
X117225499Y-132686755D01*
X117265997Y-132690240D01*
X117292708Y-132698124D01*
X117313244Y-132712105D01*
X117323260Y-132721597D01*
X117352567Y-132760404D01*
X117354952Y-132794763D01*
X117330750Y-132830216D01*
X117329857Y-132831114D01*
X117311153Y-132845539D01*
X117285732Y-132854313D01*
X117246584Y-132858739D01*
X117186697Y-132860118D01*
X117173430Y-132860143D01*
X117090901Y-132856812D01*
X117033691Y-132845969D01*
X116998766Y-132826340D01*
X116983094Y-132796650D01*
X116981514Y-132779491D01*
X116988926Y-132738766D01*
X117013330Y-132710832D01*
X117057980Y-132694017D01*
X117126130Y-132686650D01*
X117163603Y-132685971D01*
X117163603Y-132546472D01*
X117150245Y-132546708D01*
X117085333Y-132548677D01*
X117037958Y-132551450D01*
X117004290Y-132555388D01*
X116980498Y-132560849D01*
X116962753Y-132568192D01*
X116947224Y-132577777D01*
X116941381Y-132581887D01*
X116886185Y-132636405D01*
X116854890Y-132705336D01*
X116846165Y-132785072D01*
X116854918Y-132854744D01*
G36*
X116862780Y-133971093D02*
X116889723Y-134017672D01*
X116916466Y-134050057D01*
X116944484Y-134073742D01*
X116978748Y-134090059D01*
X117024227Y-134100339D01*
X117085892Y-134105914D01*
X117168711Y-134108116D01*
X117228246Y-134108371D01*
X117447391Y-134108371D01*
X117475044Y-134046686D01*
X117502697Y-133985000D01*
X117262670Y-133977743D01*
X117173028Y-133974744D01*
X117107962Y-133971598D01*
X117063026Y-133967701D01*
X117033770Y-133962447D01*
X117015748Y-133955231D01*
X117004511Y-133945450D01*
X117002079Y-133942312D01*
X116983083Y-133894761D01*
X116990600Y-133846697D01*
X117010543Y-133818086D01*
X117024675Y-133806447D01*
X117043220Y-133798391D01*
X117071334Y-133793271D01*
X117114173Y-133790441D01*
X117176895Y-133789256D01*
X117242261Y-133789057D01*
X117324268Y-133789018D01*
X117382316Y-133787614D01*
X117421465Y-133782914D01*
X117446780Y-133772987D01*
X117463323Y-133755903D01*
X117476156Y-133729732D01*
X117489491Y-133694775D01*
X117504007Y-133656596D01*
X117246389Y-133661141D01*
X117153519Y-133662971D01*
X117084889Y-133665112D01*
X117035711Y-133668181D01*
X117001198Y-133672794D01*
X116976562Y-133679568D01*
X116957016Y-133689119D01*
X116939770Y-133700634D01*
X116884680Y-133756190D01*
X116852822Y-133823980D01*
X116845191Y-133897713D01*
X116862780Y-133971093D01*
X116862780Y-133971093D01*
G37*
X116862780Y-133971093D02*
X116889723Y-134017672D01*
X116916466Y-134050057D01*
X116944484Y-134073742D01*
X116978748Y-134090059D01*
X117024227Y-134100339D01*
X117085892Y-134105914D01*
X117168711Y-134108116D01*
X117228246Y-134108371D01*
X117447391Y-134108371D01*
X117475044Y-134046686D01*
X117502697Y-133985000D01*
X117262670Y-133977743D01*
X117173028Y-133974744D01*
X117107962Y-133971598D01*
X117063026Y-133967701D01*
X117033770Y-133962447D01*
X117015748Y-133955231D01*
X117004511Y-133945450D01*
X117002079Y-133942312D01*
X116983083Y-133894761D01*
X116990600Y-133846697D01*
X117010543Y-133818086D01*
X117024675Y-133806447D01*
X117043220Y-133798391D01*
X117071334Y-133793271D01*
X117114173Y-133790441D01*
X117176895Y-133789256D01*
X117242261Y-133789057D01*
X117324268Y-133789018D01*
X117382316Y-133787614D01*
X117421465Y-133782914D01*
X117446780Y-133772987D01*
X117463323Y-133755903D01*
X117476156Y-133729732D01*
X117489491Y-133694775D01*
X117504007Y-133656596D01*
X117246389Y-133661141D01*
X117153519Y-133662971D01*
X117084889Y-133665112D01*
X117035711Y-133668181D01*
X117001198Y-133672794D01*
X116976562Y-133679568D01*
X116957016Y-133689119D01*
X116939770Y-133700634D01*
X116884680Y-133756190D01*
X116852822Y-133823980D01*
X116845191Y-133897713D01*
X116862780Y-133971093D01*
G36*
X116856962Y-132296115D02*
X116892733Y-132364145D01*
X116950301Y-132414351D01*
X116987312Y-132432185D01*
X117042882Y-132446063D01*
X117113096Y-132453167D01*
X117189727Y-132453840D01*
X117264552Y-132448427D01*
X117329342Y-132437270D01*
X117375873Y-132420714D01*
X117383887Y-132415626D01*
X117443707Y-132355355D01*
X117479535Y-132283769D01*
X117490020Y-132206092D01*
X117473810Y-132127548D01*
X117464092Y-132105689D01*
X117434143Y-132063122D01*
X117394433Y-132025763D01*
X117389397Y-132022232D01*
X117365124Y-132007881D01*
X117339178Y-131998394D01*
X117305022Y-131992790D01*
X117256119Y-131990086D01*
X117185935Y-131989299D01*
X117170200Y-131989286D01*
X117165192Y-131989322D01*
X117165192Y-132134429D01*
X117231430Y-132135273D01*
X117275386Y-132138596D01*
X117303779Y-132145583D01*
X117323325Y-132157416D01*
X117329857Y-132163457D01*
X117354680Y-132198186D01*
X117353548Y-132231903D01*
X117332016Y-132265995D01*
X117309029Y-132286329D01*
X117275478Y-132298371D01*
X117222569Y-132305134D01*
X117216399Y-132305598D01*
X117120513Y-132306752D01*
X117049299Y-132294688D01*
X117003194Y-132269570D01*
X116982635Y-132231560D01*
X116981514Y-132217992D01*
X116987152Y-132182364D01*
X117006686Y-132157994D01*
X117044042Y-132143093D01*
X117103150Y-132135875D01*
X117165192Y-132134429D01*
X117165192Y-131989322D01*
X117095413Y-131989826D01*
X117043159Y-131992096D01*
X117006949Y-131997068D01*
X116980299Y-132005713D01*
X116956722Y-132019005D01*
X116952338Y-132021943D01*
X116893249Y-132071313D01*
X116858947Y-132125109D01*
X116845331Y-132190602D01*
X116844665Y-132212842D01*
X116856962Y-132296115D01*
X116856962Y-132296115D01*
G37*
X116856962Y-132296115D02*
X116892733Y-132364145D01*
X116950301Y-132414351D01*
X116987312Y-132432185D01*
X117042882Y-132446063D01*
X117113096Y-132453167D01*
X117189727Y-132453840D01*
X117264552Y-132448427D01*
X117329342Y-132437270D01*
X117375873Y-132420714D01*
X117383887Y-132415626D01*
X117443707Y-132355355D01*
X117479535Y-132283769D01*
X117490020Y-132206092D01*
X117473810Y-132127548D01*
X117464092Y-132105689D01*
X117434143Y-132063122D01*
X117394433Y-132025763D01*
X117389397Y-132022232D01*
X117365124Y-132007881D01*
X117339178Y-131998394D01*
X117305022Y-131992790D01*
X117256119Y-131990086D01*
X117185935Y-131989299D01*
X117170200Y-131989286D01*
X117165192Y-131989322D01*
X117165192Y-132134429D01*
X117231430Y-132135273D01*
X117275386Y-132138596D01*
X117303779Y-132145583D01*
X117323325Y-132157416D01*
X117329857Y-132163457D01*
X117354680Y-132198186D01*
X117353548Y-132231903D01*
X117332016Y-132265995D01*
X117309029Y-132286329D01*
X117275478Y-132298371D01*
X117222569Y-132305134D01*
X117216399Y-132305598D01*
X117120513Y-132306752D01*
X117049299Y-132294688D01*
X117003194Y-132269570D01*
X116982635Y-132231560D01*
X116981514Y-132217992D01*
X116987152Y-132182364D01*
X117006686Y-132157994D01*
X117044042Y-132143093D01*
X117103150Y-132135875D01*
X117165192Y-132134429D01*
X117165192Y-131989322D01*
X117095413Y-131989826D01*
X117043159Y-131992096D01*
X117006949Y-131997068D01*
X116980299Y-132005713D01*
X116956722Y-132019005D01*
X116952338Y-132021943D01*
X116893249Y-132071313D01*
X116858947Y-132125109D01*
X116845331Y-132190602D01*
X116844665Y-132212842D01*
X116856962Y-132296115D01*
G36*
X116866239Y-133423303D02*
X116904735Y-133480527D01*
X116960335Y-133524749D01*
X117031086Y-133551167D01*
X117083162Y-133556510D01*
X117104893Y-133555903D01*
X117121531Y-133550822D01*
X117136437Y-133536855D01*
X117152973Y-133509589D01*
X117174498Y-133464612D01*
X117204374Y-133397511D01*
X117204524Y-133397171D01*
X117232813Y-133335407D01*
X117257933Y-133284759D01*
X117277179Y-133250404D01*
X117287848Y-133237518D01*
X117287934Y-133237514D01*
X117311166Y-133248872D01*
X117336774Y-133275431D01*
X117355221Y-133305923D01*
X117358886Y-133321370D01*
X117346212Y-133363515D01*
X117314471Y-133399808D01*
X117279572Y-133417517D01*
X117253845Y-133434552D01*
X117224546Y-133467922D01*
X117199235Y-133507149D01*
X117185471Y-133541756D01*
X117184714Y-133548993D01*
X117197160Y-133557139D01*
X117228972Y-133557630D01*
X117271866Y-133551643D01*
X117317558Y-133540357D01*
X117357761Y-133524950D01*
X117359322Y-133524171D01*
X117424062Y-133477804D01*
X117468097Y-133417711D01*
X117489711Y-133349465D01*
X117487185Y-133278638D01*
X117458804Y-133210804D01*
X117456808Y-133207788D01*
X117408448Y-133154427D01*
X117345352Y-133119340D01*
X117262387Y-133099922D01*
X117239078Y-133097316D01*
X117129055Y-133092701D01*
X117077748Y-133098233D01*
X117077748Y-133237514D01*
X117109753Y-133239324D01*
X117119093Y-133249222D01*
X117112105Y-133273898D01*
X117095587Y-133312795D01*
X117074881Y-133356275D01*
X117074333Y-133357356D01*
X117054949Y-133394209D01*
X117042013Y-133409000D01*
X117028451Y-133405353D01*
X117010632Y-133389995D01*
X116984845Y-133350923D01*
X116982950Y-133308846D01*
X117001717Y-133271103D01*
X117037915Y-133245034D01*
X117077748Y-133237514D01*
X117077748Y-133098233D01*
X117041027Y-133102194D01*
X116971212Y-133126550D01*
X116922302Y-133160456D01*
X116872878Y-133221653D01*
X116848359Y-133289063D01*
X116846797Y-133357880D01*
X116866239Y-133423303D01*
X116866239Y-133423303D01*
G37*
X116866239Y-133423303D02*
X116904735Y-133480527D01*
X116960335Y-133524749D01*
X117031086Y-133551167D01*
X117083162Y-133556510D01*
X117104893Y-133555903D01*
X117121531Y-133550822D01*
X117136437Y-133536855D01*
X117152973Y-133509589D01*
X117174498Y-133464612D01*
X117204374Y-133397511D01*
X117204524Y-133397171D01*
X117232813Y-133335407D01*
X117257933Y-133284759D01*
X117277179Y-133250404D01*
X117287848Y-133237518D01*
X117287934Y-133237514D01*
X117311166Y-133248872D01*
X117336774Y-133275431D01*
X117355221Y-133305923D01*
X117358886Y-133321370D01*
X117346212Y-133363515D01*
X117314471Y-133399808D01*
X117279572Y-133417517D01*
X117253845Y-133434552D01*
X117224546Y-133467922D01*
X117199235Y-133507149D01*
X117185471Y-133541756D01*
X117184714Y-133548993D01*
X117197160Y-133557139D01*
X117228972Y-133557630D01*
X117271866Y-133551643D01*
X117317558Y-133540357D01*
X117357761Y-133524950D01*
X117359322Y-133524171D01*
X117424062Y-133477804D01*
X117468097Y-133417711D01*
X117489711Y-133349465D01*
X117487185Y-133278638D01*
X117458804Y-133210804D01*
X117456808Y-133207788D01*
X117408448Y-133154427D01*
X117345352Y-133119340D01*
X117262387Y-133099922D01*
X117239078Y-133097316D01*
X117129055Y-133092701D01*
X117077748Y-133098233D01*
X117077748Y-133237514D01*
X117109753Y-133239324D01*
X117119093Y-133249222D01*
X117112105Y-133273898D01*
X117095587Y-133312795D01*
X117074881Y-133356275D01*
X117074333Y-133357356D01*
X117054949Y-133394209D01*
X117042013Y-133409000D01*
X117028451Y-133405353D01*
X117010632Y-133389995D01*
X116984845Y-133350923D01*
X116982950Y-133308846D01*
X117001717Y-133271103D01*
X117037915Y-133245034D01*
X117077748Y-133237514D01*
X117077748Y-133098233D01*
X117041027Y-133102194D01*
X116971212Y-133126550D01*
X116922302Y-133160456D01*
X116872878Y-133221653D01*
X116848359Y-133289063D01*
X116846797Y-133357880D01*
X116866239Y-133423303D01*
G36*
X116786289Y-134630886D02*
X116845613Y-134635139D01*
X116880572Y-134640025D01*
X116895820Y-134646795D01*
X116896015Y-134656702D01*
X116894195Y-134659914D01*
X116881015Y-134702644D01*
X116881785Y-134758227D01*
X116895333Y-134814737D01*
X116912861Y-134850082D01*
X116940861Y-134886321D01*
X116972549Y-134912813D01*
X117012813Y-134930999D01*
X117066543Y-134942322D01*
X117138626Y-134948222D01*
X117233951Y-134950143D01*
X117252237Y-134950177D01*
X117457646Y-134950200D01*
X117473580Y-134904491D01*
X117484420Y-134872027D01*
X117489468Y-134854215D01*
X117489514Y-134853691D01*
X117475828Y-134851937D01*
X117438076Y-134850444D01*
X117381224Y-134849326D01*
X117310234Y-134848697D01*
X117267073Y-134848600D01*
X117181973Y-134848398D01*
X117120981Y-134847358D01*
X117079177Y-134844831D01*
X117051642Y-134840164D01*
X117033456Y-134832707D01*
X117019698Y-134821811D01*
X117013073Y-134815007D01*
X116986375Y-134768272D01*
X116984375Y-134717272D01*
X117006955Y-134671001D01*
X117015107Y-134662444D01*
X117030436Y-134649893D01*
X117048618Y-134641188D01*
X117074909Y-134635631D01*
X117114562Y-134632526D01*
X117172832Y-134631176D01*
X117253173Y-134630886D01*
X117457646Y-134630886D01*
X117473580Y-134585177D01*
X117484420Y-134552713D01*
X117489468Y-134534901D01*
X117489514Y-134534377D01*
X117475623Y-134533037D01*
X117436439Y-134531828D01*
X117375700Y-134530801D01*
X117297141Y-134530002D01*
X117204498Y-134529481D01*
X117101509Y-134529286D01*
X116704342Y-134529286D01*
X116684444Y-134576457D01*
X116664547Y-134623629D01*
X116786289Y-134630886D01*
X116786289Y-134630886D01*
G37*
X116786289Y-134630886D02*
X116845613Y-134635139D01*
X116880572Y-134640025D01*
X116895820Y-134646795D01*
X116896015Y-134656702D01*
X116894195Y-134659914D01*
X116881015Y-134702644D01*
X116881785Y-134758227D01*
X116895333Y-134814737D01*
X116912861Y-134850082D01*
X116940861Y-134886321D01*
X116972549Y-134912813D01*
X117012813Y-134930999D01*
X117066543Y-134942322D01*
X117138626Y-134948222D01*
X117233951Y-134950143D01*
X117252237Y-134950177D01*
X117457646Y-134950200D01*
X117473580Y-134904491D01*
X117484420Y-134872027D01*
X117489468Y-134854215D01*
X117489514Y-134853691D01*
X117475828Y-134851937D01*
X117438076Y-134850444D01*
X117381224Y-134849326D01*
X117310234Y-134848697D01*
X117267073Y-134848600D01*
X117181973Y-134848398D01*
X117120981Y-134847358D01*
X117079177Y-134844831D01*
X117051642Y-134840164D01*
X117033456Y-134832707D01*
X117019698Y-134821811D01*
X117013073Y-134815007D01*
X116986375Y-134768272D01*
X116984375Y-134717272D01*
X117006955Y-134671001D01*
X117015107Y-134662444D01*
X117030436Y-134649893D01*
X117048618Y-134641188D01*
X117074909Y-134635631D01*
X117114562Y-134632526D01*
X117172832Y-134631176D01*
X117253173Y-134630886D01*
X117457646Y-134630886D01*
X117473580Y-134585177D01*
X117484420Y-134552713D01*
X117489468Y-134534901D01*
X117489514Y-134534377D01*
X117475623Y-134533037D01*
X117436439Y-134531828D01*
X117375700Y-134530801D01*
X117297141Y-134530002D01*
X117204498Y-134529481D01*
X117101509Y-134529286D01*
X116704342Y-134529286D01*
X116684444Y-134576457D01*
X116664547Y-134623629D01*
X116786289Y-134630886D01*
G36*
X116885968Y-135294744D02*
X116907087Y-135351616D01*
X116907493Y-135352267D01*
X116933380Y-135387440D01*
X116963633Y-135413407D01*
X117003058Y-135431670D01*
X117056462Y-135443732D01*
X117128651Y-135451096D01*
X117224432Y-135455264D01*
X117238078Y-135455629D01*
X117443842Y-135460876D01*
X117466678Y-135416716D01*
X117482110Y-135384763D01*
X117489423Y-135365470D01*
X117489514Y-135364578D01*
X117476022Y-135361239D01*
X117439626Y-135358587D01*
X117386452Y-135356956D01*
X117343393Y-135356600D01*
X117273641Y-135356592D01*
X117229837Y-135353403D01*
X117208944Y-135342288D01*
X117207925Y-135318501D01*
X117223741Y-135277296D01*
X117252815Y-135215086D01*
X117276963Y-135169341D01*
X117297913Y-135145813D01*
X117320747Y-135138896D01*
X117321877Y-135138886D01*
X117361212Y-135150299D01*
X117382462Y-135184092D01*
X117385539Y-135235809D01*
X117385006Y-135273061D01*
X117395735Y-135292703D01*
X117421505Y-135304952D01*
X117454337Y-135312002D01*
X117472966Y-135301842D01*
X117475632Y-135298017D01*
X117486340Y-135262001D01*
X117487856Y-135211566D01*
X117480759Y-135159626D01*
X117467788Y-135122822D01*
X117424585Y-135071938D01*
X117364446Y-135043014D01*
X117317462Y-135037286D01*
X117275082Y-135041657D01*
X117240488Y-135057475D01*
X117209763Y-135088797D01*
X117178990Y-135139678D01*
X117144252Y-135214176D01*
X117142288Y-135218714D01*
X117111287Y-135285821D01*
X117085862Y-135327232D01*
X117063014Y-135344981D01*
X117039745Y-135341107D01*
X117013056Y-135317643D01*
X117006914Y-135310627D01*
X116983100Y-135263630D01*
X116984103Y-135214933D01*
X117007451Y-135172522D01*
X117050675Y-135144384D01*
X117059160Y-135141769D01*
X117100308Y-135116308D01*
X117120128Y-135084001D01*
X117139770Y-135037286D01*
X117088950Y-135037286D01*
X117015082Y-135051496D01*
X116947327Y-135093675D01*
X116924661Y-135115624D01*
X116895569Y-135165517D01*
X116882400Y-135228967D01*
X116885968Y-135294744D01*
X116885968Y-135294744D01*
G37*
X116885968Y-135294744D02*
X116907087Y-135351616D01*
X116907493Y-135352267D01*
X116933380Y-135387440D01*
X116963633Y-135413407D01*
X117003058Y-135431670D01*
X117056462Y-135443732D01*
X117128651Y-135451096D01*
X117224432Y-135455264D01*
X117238078Y-135455629D01*
X117443842Y-135460876D01*
X117466678Y-135416716D01*
X117482110Y-135384763D01*
X117489423Y-135365470D01*
X117489514Y-135364578D01*
X117476022Y-135361239D01*
X117439626Y-135358587D01*
X117386452Y-135356956D01*
X117343393Y-135356600D01*
X117273641Y-135356592D01*
X117229837Y-135353403D01*
X117208944Y-135342288D01*
X117207925Y-135318501D01*
X117223741Y-135277296D01*
X117252815Y-135215086D01*
X117276963Y-135169341D01*
X117297913Y-135145813D01*
X117320747Y-135138896D01*
X117321877Y-135138886D01*
X117361212Y-135150299D01*
X117382462Y-135184092D01*
X117385539Y-135235809D01*
X117385006Y-135273061D01*
X117395735Y-135292703D01*
X117421505Y-135304952D01*
X117454337Y-135312002D01*
X117472966Y-135301842D01*
X117475632Y-135298017D01*
X117486340Y-135262001D01*
X117487856Y-135211566D01*
X117480759Y-135159626D01*
X117467788Y-135122822D01*
X117424585Y-135071938D01*
X117364446Y-135043014D01*
X117317462Y-135037286D01*
X117275082Y-135041657D01*
X117240488Y-135057475D01*
X117209763Y-135088797D01*
X117178990Y-135139678D01*
X117144252Y-135214176D01*
X117142288Y-135218714D01*
X117111287Y-135285821D01*
X117085862Y-135327232D01*
X117063014Y-135344981D01*
X117039745Y-135341107D01*
X117013056Y-135317643D01*
X117006914Y-135310627D01*
X116983100Y-135263630D01*
X116984103Y-135214933D01*
X117007451Y-135172522D01*
X117050675Y-135144384D01*
X117059160Y-135141769D01*
X117100308Y-135116308D01*
X117120128Y-135084001D01*
X117139770Y-135037286D01*
X117088950Y-135037286D01*
X117015082Y-135051496D01*
X116947327Y-135093675D01*
X116924661Y-135115624D01*
X116895569Y-135165517D01*
X116882400Y-135228967D01*
X116885968Y-135294744D01*
G36*
X116884755Y-135784926D02*
X116909084Y-135850858D01*
X116952117Y-135904273D01*
X116982409Y-135925164D01*
X117037994Y-135947939D01*
X117078186Y-135947466D01*
X117105217Y-135923562D01*
X117109813Y-135914717D01*
X117124144Y-135876530D01*
X117120472Y-135857028D01*
X117096407Y-135850422D01*
X117083114Y-135850086D01*
X117034210Y-135837992D01*
X116999999Y-135806471D01*
X116983476Y-135762659D01*
X116987634Y-135713695D01*
X117009227Y-135673894D01*
X117021544Y-135660450D01*
X117036487Y-135650921D01*
X117059075Y-135644485D01*
X117094328Y-135640317D01*
X117147266Y-135637597D01*
X117222907Y-135635502D01*
X117246857Y-135634960D01*
X117328790Y-135632981D01*
X117386455Y-135630731D01*
X117424608Y-135627357D01*
X117448004Y-135622006D01*
X117461398Y-135613824D01*
X117469545Y-135601959D01*
X117473144Y-135594362D01*
X117485452Y-135562102D01*
X117489514Y-135543111D01*
X117475948Y-135536836D01*
X117434934Y-135533006D01*
X117365999Y-135531600D01*
X117268669Y-135532598D01*
X117253657Y-135532908D01*
X117164859Y-135535101D01*
X117100019Y-135537693D01*
X117054067Y-135541382D01*
X117021935Y-135546864D01*
X116998553Y-135554835D01*
X116978852Y-135565993D01*
X116970410Y-135571830D01*
X116933057Y-135605296D01*
X116904003Y-135642727D01*
X116901467Y-135647309D01*
X116881443Y-135714426D01*
X116884755Y-135784926D01*
X116884755Y-135784926D01*
G37*
X116884755Y-135784926D02*
X116909084Y-135850858D01*
X116952117Y-135904273D01*
X116982409Y-135925164D01*
X117037994Y-135947939D01*
X117078186Y-135947466D01*
X117105217Y-135923562D01*
X117109813Y-135914717D01*
X117124144Y-135876530D01*
X117120472Y-135857028D01*
X117096407Y-135850422D01*
X117083114Y-135850086D01*
X117034210Y-135837992D01*
X116999999Y-135806471D01*
X116983476Y-135762659D01*
X116987634Y-135713695D01*
X117009227Y-135673894D01*
X117021544Y-135660450D01*
X117036487Y-135650921D01*
X117059075Y-135644485D01*
X117094328Y-135640317D01*
X117147266Y-135637597D01*
X117222907Y-135635502D01*
X117246857Y-135634960D01*
X117328790Y-135632981D01*
X117386455Y-135630731D01*
X117424608Y-135627357D01*
X117448004Y-135622006D01*
X117461398Y-135613824D01*
X117469545Y-135601959D01*
X117473144Y-135594362D01*
X117485452Y-135562102D01*
X117489514Y-135543111D01*
X117475948Y-135536836D01*
X117434934Y-135533006D01*
X117365999Y-135531600D01*
X117268669Y-135532598D01*
X117253657Y-135532908D01*
X117164859Y-135535101D01*
X117100019Y-135537693D01*
X117054067Y-135541382D01*
X117021935Y-135546864D01*
X116998553Y-135554835D01*
X116978852Y-135565993D01*
X116970410Y-135571830D01*
X116933057Y-135605296D01*
X116904003Y-135642727D01*
X116901467Y-135647309D01*
X116881443Y-135714426D01*
X116884755Y-135784926D01*
G36*
X117000358Y-136445117D02*
X117108837Y-136444933D01*
X117192287Y-136444219D01*
X117254704Y-136442675D01*
X117300085Y-136440001D01*
X117332429Y-136435894D01*
X117355733Y-136430055D01*
X117373995Y-136422182D01*
X117384418Y-136416221D01*
X117440945Y-136366855D01*
X117476377Y-136304264D01*
X117489090Y-136235013D01*
X117477463Y-136165668D01*
X117456568Y-136124375D01*
X117420422Y-136081025D01*
X117376276Y-136051481D01*
X117318462Y-136033655D01*
X117241313Y-136025463D01*
X117184714Y-136024302D01*
X117180647Y-136024458D01*
X117180647Y-136125857D01*
X117245550Y-136126476D01*
X117288514Y-136129314D01*
X117316622Y-136135840D01*
X117336953Y-136147523D01*
X117352288Y-136161483D01*
X117381890Y-136208365D01*
X117384419Y-136258701D01*
X117359705Y-136306276D01*
X117356356Y-136309979D01*
X117338935Y-136325783D01*
X117318209Y-136335693D01*
X117287362Y-136341058D01*
X117239577Y-136343228D01*
X117186748Y-136343571D01*
X117120381Y-136342827D01*
X117076106Y-136339748D01*
X117047009Y-136333061D01*
X117026173Y-136321496D01*
X117015107Y-136312013D01*
X116987198Y-136267960D01*
X116983843Y-136217224D01*
X117005159Y-136168796D01*
X117013073Y-136159450D01*
X117030647Y-136143540D01*
X117051587Y-136133610D01*
X117082782Y-136128278D01*
X117131122Y-136126163D01*
X117180647Y-136125857D01*
X117180647Y-136024458D01*
X117093568Y-136027810D01*
X117025086Y-136039726D01*
X116973600Y-136062135D01*
X116933443Y-136097124D01*
X116912861Y-136124375D01*
X116890625Y-136173907D01*
X116880304Y-136231316D01*
X116883067Y-136284682D01*
X116894212Y-136314543D01*
X116897383Y-136326261D01*
X116885557Y-136334037D01*
X116853866Y-136339465D01*
X116805593Y-136343571D01*
X116751829Y-136348067D01*
X116719482Y-136354313D01*
X116700985Y-136365676D01*
X116688770Y-136385528D01*
X116683362Y-136398000D01*
X116663601Y-136445171D01*
X117000358Y-136445117D01*
X117000358Y-136445117D01*
G37*
X117000358Y-136445117D02*
X117108837Y-136444933D01*
X117192287Y-136444219D01*
X117254704Y-136442675D01*
X117300085Y-136440001D01*
X117332429Y-136435894D01*
X117355733Y-136430055D01*
X117373995Y-136422182D01*
X117384418Y-136416221D01*
X117440945Y-136366855D01*
X117476377Y-136304264D01*
X117489090Y-136235013D01*
X117477463Y-136165668D01*
X117456568Y-136124375D01*
X117420422Y-136081025D01*
X117376276Y-136051481D01*
X117318462Y-136033655D01*
X117241313Y-136025463D01*
X117184714Y-136024302D01*
X117180647Y-136024458D01*
X117180647Y-136125857D01*
X117245550Y-136126476D01*
X117288514Y-136129314D01*
X117316622Y-136135840D01*
X117336953Y-136147523D01*
X117352288Y-136161483D01*
X117381890Y-136208365D01*
X117384419Y-136258701D01*
X117359705Y-136306276D01*
X117356356Y-136309979D01*
X117338935Y-136325783D01*
X117318209Y-136335693D01*
X117287362Y-136341058D01*
X117239577Y-136343228D01*
X117186748Y-136343571D01*
X117120381Y-136342827D01*
X117076106Y-136339748D01*
X117047009Y-136333061D01*
X117026173Y-136321496D01*
X117015107Y-136312013D01*
X116987198Y-136267960D01*
X116983843Y-136217224D01*
X117005159Y-136168796D01*
X117013073Y-136159450D01*
X117030647Y-136143540D01*
X117051587Y-136133610D01*
X117082782Y-136128278D01*
X117131122Y-136126163D01*
X117180647Y-136125857D01*
X117180647Y-136024458D01*
X117093568Y-136027810D01*
X117025086Y-136039726D01*
X116973600Y-136062135D01*
X116933443Y-136097124D01*
X116912861Y-136124375D01*
X116890625Y-136173907D01*
X116880304Y-136231316D01*
X116883067Y-136284682D01*
X116894212Y-136314543D01*
X116897383Y-136326261D01*
X116885557Y-136334037D01*
X116853866Y-136339465D01*
X116805593Y-136343571D01*
X116751829Y-136348067D01*
X116719482Y-136354313D01*
X116700985Y-136365676D01*
X116688770Y-136385528D01*
X116683362Y-136398000D01*
X116663601Y-136445171D01*
X117000358Y-136445117D01*
G36*
X116893663Y-137034833D02*
X116931850Y-137037048D01*
X116989886Y-137038784D01*
X117063180Y-137039899D01*
X117140055Y-137040257D01*
X117400196Y-137040257D01*
X117446127Y-136994326D01*
X117474429Y-136962675D01*
X117485893Y-136934890D01*
X117485168Y-136896915D01*
X117483321Y-136881840D01*
X117477948Y-136834726D01*
X117474869Y-136795756D01*
X117474585Y-136786257D01*
X117476445Y-136754233D01*
X117481114Y-136708432D01*
X117483321Y-136690674D01*
X117486735Y-136647057D01*
X117479320Y-136617745D01*
X117456427Y-136588680D01*
X117446127Y-136578188D01*
X117400196Y-136532257D01*
X116913602Y-136532257D01*
X116896758Y-136569226D01*
X116884282Y-136601059D01*
X116879914Y-136619683D01*
X116893718Y-136624458D01*
X116932286Y-136628921D01*
X116991356Y-136632775D01*
X117066663Y-136635722D01*
X117130286Y-136637143D01*
X117380657Y-136641114D01*
X117385556Y-136675759D01*
X117382131Y-136707268D01*
X117371041Y-136722708D01*
X117350308Y-136727023D01*
X117306145Y-136730708D01*
X117244146Y-136733469D01*
X117169909Y-136735012D01*
X117131706Y-136735235D01*
X116911783Y-136735457D01*
X116895849Y-136781166D01*
X116885015Y-136813518D01*
X116879962Y-136831115D01*
X116879914Y-136831623D01*
X116893648Y-136833388D01*
X116931730Y-136835329D01*
X116989482Y-136837282D01*
X117062227Y-136839084D01*
X117130286Y-136840343D01*
X117380657Y-136844314D01*
X117380657Y-136931400D01*
X117152240Y-136935396D01*
X116923822Y-136939392D01*
X116901868Y-136981847D01*
X116886793Y-137013192D01*
X116879951Y-137031744D01*
X116879914Y-137032279D01*
X116893663Y-137034833D01*
X116893663Y-137034833D01*
G37*
X116893663Y-137034833D02*
X116931850Y-137037048D01*
X116989886Y-137038784D01*
X117063180Y-137039899D01*
X117140055Y-137040257D01*
X117400196Y-137040257D01*
X117446127Y-136994326D01*
X117474429Y-136962675D01*
X117485893Y-136934890D01*
X117485168Y-136896915D01*
X117483321Y-136881840D01*
X117477948Y-136834726D01*
X117474869Y-136795756D01*
X117474585Y-136786257D01*
X117476445Y-136754233D01*
X117481114Y-136708432D01*
X117483321Y-136690674D01*
X117486735Y-136647057D01*
X117479320Y-136617745D01*
X117456427Y-136588680D01*
X117446127Y-136578188D01*
X117400196Y-136532257D01*
X116913602Y-136532257D01*
X116896758Y-136569226D01*
X116884282Y-136601059D01*
X116879914Y-136619683D01*
X116893718Y-136624458D01*
X116932286Y-136628921D01*
X116991356Y-136632775D01*
X117066663Y-136635722D01*
X117130286Y-136637143D01*
X117380657Y-136641114D01*
X117385556Y-136675759D01*
X117382131Y-136707268D01*
X117371041Y-136722708D01*
X117350308Y-136727023D01*
X117306145Y-136730708D01*
X117244146Y-136733469D01*
X117169909Y-136735012D01*
X117131706Y-136735235D01*
X116911783Y-136735457D01*
X116895849Y-136781166D01*
X116885015Y-136813518D01*
X116879962Y-136831115D01*
X116879914Y-136831623D01*
X116893648Y-136833388D01*
X116931730Y-136835329D01*
X116989482Y-136837282D01*
X117062227Y-136839084D01*
X117130286Y-136840343D01*
X117380657Y-136844314D01*
X117380657Y-136931400D01*
X117152240Y-136935396D01*
X116923822Y-136939392D01*
X116901868Y-136981847D01*
X116886793Y-137013192D01*
X116879951Y-137031744D01*
X116879914Y-137032279D01*
X116893663Y-137034833D01*
G36*
X116891335Y-137399876D02*
X116910344Y-137441667D01*
X116933378Y-137474469D01*
X116959133Y-137498503D01*
X116992358Y-137515097D01*
X117037800Y-137525577D01*
X117100207Y-137531271D01*
X117184327Y-137533507D01*
X117239721Y-137533743D01*
X117455826Y-137533743D01*
X117472670Y-137496774D01*
X117484981Y-137467656D01*
X117489514Y-137453231D01*
X117476025Y-137450472D01*
X117439653Y-137448282D01*
X117386542Y-137446942D01*
X117344372Y-137446657D01*
X117283447Y-137445434D01*
X117235115Y-137442136D01*
X117205518Y-137437321D01*
X117199229Y-137433496D01*
X117205652Y-137407783D01*
X117222125Y-137367418D01*
X117244458Y-137320679D01*
X117268457Y-137275845D01*
X117289930Y-137241193D01*
X117304685Y-137225002D01*
X117304845Y-137224938D01*
X117332152Y-137226330D01*
X117358219Y-137238818D01*
X117379392Y-137260743D01*
X117386474Y-137292743D01*
X117385649Y-137320092D01*
X117385042Y-137358826D01*
X117394116Y-137379158D01*
X117418092Y-137391369D01*
X117422613Y-137392909D01*
X117456806Y-137398203D01*
X117477568Y-137384047D01*
X117487462Y-137347148D01*
X117489292Y-137307289D01*
X117475727Y-137235562D01*
X117456355Y-137198432D01*
X117410845Y-137152576D01*
X117354983Y-137128256D01*
X117295957Y-137126073D01*
X117240953Y-137146629D01*
X117206486Y-137177549D01*
X117187189Y-137208420D01*
X117162759Y-137256942D01*
X117137985Y-137313485D01*
X117134199Y-137322910D01*
X117106791Y-137385019D01*
X117082634Y-137420822D01*
X117058619Y-137432337D01*
X117031635Y-137421580D01*
X117010543Y-137403114D01*
X116984572Y-137359469D01*
X116982624Y-137311446D01*
X117002637Y-137267406D01*
X117042551Y-137235709D01*
X117052848Y-137231549D01*
X117090724Y-137207327D01*
X117118842Y-137171965D01*
X117141917Y-137127343D01*
X117076485Y-137127343D01*
X117036506Y-137129969D01*
X117004997Y-137141230D01*
X116971378Y-137166199D01*
X116945484Y-137190169D01*
X116908817Y-137227441D01*
X116889121Y-137256401D01*
X116881220Y-137287505D01*
X116879914Y-137322713D01*
X116891335Y-137399876D01*
X116891335Y-137399876D01*
G37*
X116891335Y-137399876D02*
X116910344Y-137441667D01*
X116933378Y-137474469D01*
X116959133Y-137498503D01*
X116992358Y-137515097D01*
X117037800Y-137525577D01*
X117100207Y-137531271D01*
X117184327Y-137533507D01*
X117239721Y-137533743D01*
X117455826Y-137533743D01*
X117472670Y-137496774D01*
X117484981Y-137467656D01*
X117489514Y-137453231D01*
X117476025Y-137450472D01*
X117439653Y-137448282D01*
X117386542Y-137446942D01*
X117344372Y-137446657D01*
X117283447Y-137445434D01*
X117235115Y-137442136D01*
X117205518Y-137437321D01*
X117199229Y-137433496D01*
X117205652Y-137407783D01*
X117222125Y-137367418D01*
X117244458Y-137320679D01*
X117268457Y-137275845D01*
X117289930Y-137241193D01*
X117304685Y-137225002D01*
X117304845Y-137224938D01*
X117332152Y-137226330D01*
X117358219Y-137238818D01*
X117379392Y-137260743D01*
X117386474Y-137292743D01*
X117385649Y-137320092D01*
X117385042Y-137358826D01*
X117394116Y-137379158D01*
X117418092Y-137391369D01*
X117422613Y-137392909D01*
X117456806Y-137398203D01*
X117477568Y-137384047D01*
X117487462Y-137347148D01*
X117489292Y-137307289D01*
X117475727Y-137235562D01*
X117456355Y-137198432D01*
X117410845Y-137152576D01*
X117354983Y-137128256D01*
X117295957Y-137126073D01*
X117240953Y-137146629D01*
X117206486Y-137177549D01*
X117187189Y-137208420D01*
X117162759Y-137256942D01*
X117137985Y-137313485D01*
X117134199Y-137322910D01*
X117106791Y-137385019D01*
X117082634Y-137420822D01*
X117058619Y-137432337D01*
X117031635Y-137421580D01*
X117010543Y-137403114D01*
X116984572Y-137359469D01*
X116982624Y-137311446D01*
X117002637Y-137267406D01*
X117042551Y-137235709D01*
X117052848Y-137231549D01*
X117090724Y-137207327D01*
X117118842Y-137171965D01*
X117141917Y-137127343D01*
X117076485Y-137127343D01*
X117036506Y-137129969D01*
X117004997Y-137141230D01*
X116971378Y-137166199D01*
X116945484Y-137190169D01*
X116908817Y-137227441D01*
X116889121Y-137256401D01*
X116881220Y-137287505D01*
X116879914Y-137322713D01*
X116891335Y-137399876D01*
G36*
X116893752Y-137907600D02*
X116901334Y-137924948D01*
X116934128Y-137966356D01*
X116981547Y-138001765D01*
X117032151Y-138023664D01*
X117057098Y-138027229D01*
X117091927Y-138015279D01*
X117110357Y-137989067D01*
X117121516Y-137960964D01*
X117123572Y-137948095D01*
X117108649Y-137941829D01*
X117076175Y-137929456D01*
X117061502Y-137924028D01*
X117010744Y-137893590D01*
X116985427Y-137849520D01*
X116986206Y-137793010D01*
X116987203Y-137788825D01*
X117001507Y-137758655D01*
X117029393Y-137736476D01*
X117074287Y-137721327D01*
X117139615Y-137712250D01*
X117228804Y-137708286D01*
X117276261Y-137707914D01*
X117351071Y-137707730D01*
X117402069Y-137706522D01*
X117434471Y-137703309D01*
X117453495Y-137697109D01*
X117464356Y-137686940D01*
X117472272Y-137671819D01*
X117472670Y-137670946D01*
X117484981Y-137641828D01*
X117489514Y-137627403D01*
X117475809Y-137625186D01*
X117437925Y-137623289D01*
X117380715Y-137621847D01*
X117309027Y-137620998D01*
X117256565Y-137620829D01*
X117155047Y-137621692D01*
X117078032Y-137625070D01*
X117021023Y-137632142D01*
X116979526Y-137644088D01*
X116949043Y-137662090D01*
X116925080Y-137687327D01*
X116908355Y-137712247D01*
X116886097Y-137772171D01*
X116881076Y-137841911D01*
X116893752Y-137907600D01*
X116893752Y-137907600D01*
G37*
X116893752Y-137907600D02*
X116901334Y-137924948D01*
X116934128Y-137966356D01*
X116981547Y-138001765D01*
X117032151Y-138023664D01*
X117057098Y-138027229D01*
X117091927Y-138015279D01*
X117110357Y-137989067D01*
X117121516Y-137960964D01*
X117123572Y-137948095D01*
X117108649Y-137941829D01*
X117076175Y-137929456D01*
X117061502Y-137924028D01*
X117010744Y-137893590D01*
X116985427Y-137849520D01*
X116986206Y-137793010D01*
X116987203Y-137788825D01*
X117001507Y-137758655D01*
X117029393Y-137736476D01*
X117074287Y-137721327D01*
X117139615Y-137712250D01*
X117228804Y-137708286D01*
X117276261Y-137707914D01*
X117351071Y-137707730D01*
X117402069Y-137706522D01*
X117434471Y-137703309D01*
X117453495Y-137697109D01*
X117464356Y-137686940D01*
X117472272Y-137671819D01*
X117472670Y-137670946D01*
X117484981Y-137641828D01*
X117489514Y-137627403D01*
X117475809Y-137625186D01*
X117437925Y-137623289D01*
X117380715Y-137621847D01*
X117309027Y-137620998D01*
X117256565Y-137620829D01*
X117155047Y-137621692D01*
X117078032Y-137625070D01*
X117021023Y-137632142D01*
X116979526Y-137644088D01*
X116949043Y-137662090D01*
X116925080Y-137687327D01*
X116908355Y-137712247D01*
X116886097Y-137772171D01*
X116881076Y-137841911D01*
X116893752Y-137907600D01*
G36*
X116901966Y-138408595D02*
X116939497Y-138466021D01*
X116973096Y-138493719D01*
X117034064Y-138515662D01*
X117082308Y-138517405D01*
X117146816Y-138513457D01*
X117211934Y-138364686D01*
X117245202Y-138292349D01*
X117271964Y-138245084D01*
X117295144Y-138220507D01*
X117317667Y-138216237D01*
X117342455Y-138229889D01*
X117358886Y-138244943D01*
X117385235Y-138288746D01*
X117387081Y-138336389D01*
X117366546Y-138380145D01*
X117325752Y-138412289D01*
X117311347Y-138418038D01*
X117266356Y-138445576D01*
X117247182Y-138477258D01*
X117230779Y-138520714D01*
X117292966Y-138520714D01*
X117335283Y-138516872D01*
X117370969Y-138501823D01*
X117411943Y-138470280D01*
X117417267Y-138465592D01*
X117453720Y-138430506D01*
X117473283Y-138400347D01*
X117482283Y-138362615D01*
X117485230Y-138331335D01*
X117485965Y-138275385D01*
X117476660Y-138235555D01*
X117462846Y-138210708D01*
X117432467Y-138171656D01*
X117399613Y-138144625D01*
X117358294Y-138127517D01*
X117302521Y-138118238D01*
X117226305Y-138114693D01*
X117187622Y-138114410D01*
X117141247Y-138115372D01*
X117141247Y-138203007D01*
X117166126Y-138204023D01*
X117170200Y-138206556D01*
X117164665Y-138223274D01*
X117150017Y-138259249D01*
X117129190Y-138307331D01*
X117124714Y-138317386D01*
X117093814Y-138378152D01*
X117066657Y-138411632D01*
X117041220Y-138418990D01*
X117015481Y-138401391D01*
X117004109Y-138386856D01*
X116981364Y-138334410D01*
X116985122Y-138285322D01*
X117012884Y-138244227D01*
X117062152Y-138215758D01*
X117101257Y-138206631D01*
X117141247Y-138203007D01*
X117141247Y-138115372D01*
X117097249Y-138116285D01*
X117030384Y-138123196D01*
X116981695Y-138136884D01*
X116945849Y-138159096D01*
X116917513Y-138191574D01*
X116908355Y-138205733D01*
X116884507Y-138270053D01*
X116883006Y-138340473D01*
X116901966Y-138408595D01*
X116901966Y-138408595D01*
G37*
X116901966Y-138408595D02*
X116939497Y-138466021D01*
X116973096Y-138493719D01*
X117034064Y-138515662D01*
X117082308Y-138517405D01*
X117146816Y-138513457D01*
X117211934Y-138364686D01*
X117245202Y-138292349D01*
X117271964Y-138245084D01*
X117295144Y-138220507D01*
X117317667Y-138216237D01*
X117342455Y-138229889D01*
X117358886Y-138244943D01*
X117385235Y-138288746D01*
X117387081Y-138336389D01*
X117366546Y-138380145D01*
X117325752Y-138412289D01*
X117311347Y-138418038D01*
X117266356Y-138445576D01*
X117247182Y-138477258D01*
X117230779Y-138520714D01*
X117292966Y-138520714D01*
X117335283Y-138516872D01*
X117370969Y-138501823D01*
X117411943Y-138470280D01*
X117417267Y-138465592D01*
X117453720Y-138430506D01*
X117473283Y-138400347D01*
X117482283Y-138362615D01*
X117485230Y-138331335D01*
X117485965Y-138275385D01*
X117476660Y-138235555D01*
X117462846Y-138210708D01*
X117432467Y-138171656D01*
X117399613Y-138144625D01*
X117358294Y-138127517D01*
X117302521Y-138118238D01*
X117226305Y-138114693D01*
X117187622Y-138114410D01*
X117141247Y-138115372D01*
X117141247Y-138203007D01*
X117166126Y-138204023D01*
X117170200Y-138206556D01*
X117164665Y-138223274D01*
X117150017Y-138259249D01*
X117129190Y-138307331D01*
X117124714Y-138317386D01*
X117093814Y-138378152D01*
X117066657Y-138411632D01*
X117041220Y-138418990D01*
X117015481Y-138401391D01*
X117004109Y-138386856D01*
X116981364Y-138334410D01*
X116985122Y-138285322D01*
X117012884Y-138244227D01*
X117062152Y-138215758D01*
X117101257Y-138206631D01*
X117141247Y-138203007D01*
X117141247Y-138115372D01*
X117097249Y-138116285D01*
X117030384Y-138123196D01*
X116981695Y-138136884D01*
X116945849Y-138159096D01*
X116917513Y-138191574D01*
X116908355Y-138205733D01*
X116884507Y-138270053D01*
X116883006Y-138340473D01*
X116901966Y-138408595D01*
G36*
X112177348Y-135358910D02*
X112177778Y-135437454D01*
X112178942Y-135494298D01*
X112181207Y-135533105D01*
X112184940Y-135557538D01*
X112190506Y-135571262D01*
X112198273Y-135577940D01*
X112208605Y-135581236D01*
X112209943Y-135581556D01*
X112234079Y-135586562D01*
X112281701Y-135595829D01*
X112347741Y-135608392D01*
X112427128Y-135623287D01*
X112514796Y-135639551D01*
X112517875Y-135640119D01*
X112603789Y-135656410D01*
X112679696Y-135671652D01*
X112741045Y-135684861D01*
X112783282Y-135695054D01*
X112801855Y-135701248D01*
X112802184Y-135701543D01*
X112811253Y-135719788D01*
X112826367Y-135757405D01*
X112844262Y-135806271D01*
X112844358Y-135806543D01*
X112867493Y-135868093D01*
X112896965Y-135940657D01*
X112926597Y-136009057D01*
X112928062Y-136012294D01*
X112978626Y-136123702D01*
X112810160Y-136370399D01*
X112758803Y-136446077D01*
X112712889Y-136514631D01*
X112675030Y-136572088D01*
X112647837Y-136614476D01*
X112633921Y-136637825D01*
X112632889Y-136640042D01*
X112637484Y-136657010D01*
X112659655Y-136688701D01*
X112700447Y-136736352D01*
X112760905Y-136801198D01*
X112825227Y-136867397D01*
X112888612Y-136931214D01*
X112946451Y-136988329D01*
X112995175Y-137035305D01*
X113031210Y-137068703D01*
X113050984Y-137085085D01*
X113052002Y-137085694D01*
X113065572Y-137087505D01*
X113087733Y-137080683D01*
X113121478Y-137063540D01*
X113169800Y-137034393D01*
X113235692Y-136991555D01*
X113320517Y-136934448D01*
X113395177Y-136883766D01*
X113462140Y-136838461D01*
X113517516Y-136801150D01*
X113557420Y-136774452D01*
X113577962Y-136760985D01*
X113579356Y-136760137D01*
X113599038Y-136761781D01*
X113637293Y-136774245D01*
X113686889Y-136795048D01*
X113702728Y-136802462D01*
X113773290Y-136834814D01*
X113853353Y-136869328D01*
X113922629Y-136897365D01*
X113974045Y-136917568D01*
X114013119Y-136933615D01*
X114033541Y-136942888D01*
X114035114Y-136944041D01*
X114037721Y-136961096D01*
X114044863Y-137001298D01*
X114055523Y-137059302D01*
X114068685Y-137129763D01*
X114083333Y-137207335D01*
X114098449Y-137286672D01*
X114113018Y-137362431D01*
X114126022Y-137429264D01*
X114136445Y-137481828D01*
X114143270Y-137514776D01*
X114145199Y-137522857D01*
X114149962Y-137531205D01*
X114160718Y-137537506D01*
X114181098Y-137542045D01*
X114214734Y-137545104D01*
X114265255Y-137546967D01*
X114336292Y-137547918D01*
X114431476Y-137548240D01*
X114470492Y-137548257D01*
X114787799Y-137548257D01*
X114802839Y-137472057D01*
X114810995Y-137429663D01*
X114822899Y-137366400D01*
X114837116Y-137289962D01*
X114852210Y-137208043D01*
X114856355Y-137185400D01*
X114871053Y-137109806D01*
X114885505Y-137043953D01*
X114898375Y-136993366D01*
X114908322Y-136963574D01*
X114911287Y-136958612D01*
X114932283Y-136946426D01*
X114972967Y-136928953D01*
X115025322Y-136909577D01*
X115036600Y-136905734D01*
X115106523Y-136880339D01*
X115185418Y-136848817D01*
X115256266Y-136817969D01*
X115256595Y-136817817D01*
X115367733Y-136766447D01*
X115616253Y-136935399D01*
X115864772Y-137104352D01*
X116082058Y-136887429D01*
X116146726Y-136821819D01*
X116203733Y-136761979D01*
X116250033Y-136711267D01*
X116282584Y-136673046D01*
X116298343Y-136650675D01*
X116299343Y-136647466D01*
X116291469Y-136628626D01*
X116269578Y-136590180D01*
X116236267Y-136536330D01*
X116194131Y-136471276D01*
X116146943Y-136400940D01*
X116098810Y-136329555D01*
X116056928Y-136265908D01*
X116023871Y-136214041D01*
X116002218Y-136177995D01*
X115994543Y-136161867D01*
X116001037Y-136142189D01*
X116018150Y-136104875D01*
X116042326Y-136057621D01*
X116045013Y-136052612D01*
X116076927Y-135988977D01*
X116092579Y-135945341D01*
X116092745Y-135918202D01*
X116078204Y-135904057D01*
X116078000Y-135903975D01*
X116060779Y-135896905D01*
X116019899Y-135880042D01*
X115958525Y-135854695D01*
X115879819Y-135822171D01*
X115786947Y-135783778D01*
X115683072Y-135740822D01*
X115582502Y-135699222D01*
X115471516Y-135653504D01*
X115368703Y-135611526D01*
X115277215Y-135574548D01*
X115200201Y-135543827D01*
X115140815Y-135520622D01*
X115102209Y-135506190D01*
X115087800Y-135501743D01*
X115071272Y-135512896D01*
X115044930Y-135542069D01*
X115015887Y-135580971D01*
X114924039Y-135691757D01*
X114818759Y-135778351D01*
X114702266Y-135839716D01*
X114576776Y-135874815D01*
X114444507Y-135882608D01*
X114383457Y-135876943D01*
X114256795Y-135846078D01*
X114144941Y-135792920D01*
X114049001Y-135720767D01*
X113970076Y-135632917D01*
X113909270Y-135532665D01*
X113867687Y-135423310D01*
X113846428Y-135308147D01*
X113846599Y-135190475D01*
X113869301Y-135073590D01*
X113915638Y-134960789D01*
X113986713Y-134855369D01*
X114026911Y-134811368D01*
X114130129Y-134726979D01*
X114242925Y-134668222D01*
X114362010Y-134634704D01*
X114484095Y-134626035D01*
X114605893Y-134641823D01*
X114724116Y-134681678D01*
X114835475Y-134745207D01*
X114936684Y-134832021D01*
X115015887Y-134929029D01*
X115046162Y-134969437D01*
X115072219Y-134997982D01*
X115087825Y-135008257D01*
X115104843Y-135002877D01*
X115145500Y-134987575D01*
X115206642Y-134963612D01*
X115285119Y-134932244D01*
X115377780Y-134894732D01*
X115481472Y-134852333D01*
X115582526Y-134810663D01*
X115693607Y-134764690D01*
X115796541Y-134722107D01*
X115888165Y-134684221D01*
X115965316Y-134652340D01*
X116024831Y-134627771D01*
X116063544Y-134611820D01*
X116078000Y-134605910D01*
X116092685Y-134591948D01*
X116092642Y-134564940D01*
X116077099Y-134521413D01*
X116045284Y-134457890D01*
X116045013Y-134457388D01*
X116020323Y-134409560D01*
X116002338Y-134370897D01*
X115994614Y-134349095D01*
X115994543Y-134348133D01*
X116002378Y-134331721D01*
X116024165Y-134295487D01*
X116057328Y-134243474D01*
X116099291Y-134179725D01*
X116146943Y-134109060D01*
X116195191Y-134037116D01*
X116237151Y-133972274D01*
X116270227Y-133918735D01*
X116291821Y-133880697D01*
X116299343Y-133862533D01*
X116289457Y-133845808D01*
X116261826Y-133812180D01*
X116219495Y-133765010D01*
X116165505Y-133707658D01*
X116102899Y-133643484D01*
X116081983Y-133622497D01*
X115864623Y-133405499D01*
X115622220Y-133570668D01*
X115547781Y-133620864D01*
X115480972Y-133664919D01*
X115425665Y-133700362D01*
X115385729Y-133724719D01*
X115365036Y-133735522D01*
X115363563Y-133735838D01*
X115344058Y-133730143D01*
X115304822Y-133714826D01*
X115252430Y-133692537D01*
X115217355Y-133676893D01*
X115150201Y-133647641D01*
X115082358Y-133620094D01*
X115025034Y-133598737D01*
X115007572Y-133592935D01*
X114960938Y-133576452D01*
X114924905Y-133560340D01*
X114911287Y-133551490D01*
X114902952Y-133531960D01*
X114891137Y-133489334D01*
X114877181Y-133429145D01*
X114862422Y-133356922D01*
X114856355Y-133324600D01*
X114841273Y-133242522D01*
X114826669Y-133163795D01*
X114813980Y-133096109D01*
X114804642Y-133047160D01*
X114802839Y-133037943D01*
X114787799Y-132961743D01*
X114470492Y-132961743D01*
X114366154Y-132961914D01*
X114287213Y-132962616D01*
X114230038Y-132964134D01*
X114190999Y-132966749D01*
X114166465Y-132970746D01*
X114152805Y-132976409D01*
X114146389Y-132984020D01*
X114145199Y-132987143D01*
X114140980Y-133005978D01*
X114132562Y-133047588D01*
X114120961Y-133106630D01*
X114107195Y-133177757D01*
X114092280Y-133255625D01*
X114077232Y-133334887D01*
X114063069Y-133410198D01*
X114050806Y-133476213D01*
X114041461Y-133527587D01*
X114036050Y-133558975D01*
X114035114Y-133565959D01*
X114022596Y-133572285D01*
X113989246Y-133586290D01*
X113941377Y-133605355D01*
X113922629Y-133612634D01*
X113850195Y-133641996D01*
X113770170Y-133676571D01*
X113702728Y-133707537D01*
X113651159Y-133730323D01*
X113608785Y-133745482D01*
X113582834Y-133750542D01*
X113579356Y-133749736D01*
X113562936Y-133739041D01*
X113526417Y-133714620D01*
X113473687Y-133679095D01*
X113408635Y-133635087D01*
X113335151Y-133585217D01*
X113320645Y-133575356D01*
X113234704Y-133517492D01*
X113169261Y-133474956D01*
X113121304Y-133446054D01*
X113087820Y-133429090D01*
X113065795Y-133422367D01*
X113052217Y-133424190D01*
X113052131Y-133424236D01*
X113034297Y-133438586D01*
X112999817Y-133470323D01*
X112952268Y-133516010D01*
X112895222Y-133572204D01*
X112832255Y-133635468D01*
X112825227Y-133642602D01*
X112748020Y-133722330D01*
X112691330Y-133783857D01*
X112654110Y-133828421D01*
X112635315Y-133857257D01*
X112632889Y-133869958D01*
X112643471Y-133888494D01*
X112667916Y-133926961D01*
X112703612Y-133981386D01*
X112747947Y-134047798D01*
X112798311Y-134122225D01*
X112810160Y-134139601D01*
X112978626Y-134386297D01*
X112928062Y-134497706D01*
X112898595Y-134565457D01*
X112868959Y-134638183D01*
X112845330Y-134700703D01*
X112844358Y-134703457D01*
X112826457Y-134752360D01*
X112811320Y-134790057D01*
X112802210Y-134808425D01*
X112802184Y-134808456D01*
X112785717Y-134814285D01*
X112745219Y-134824192D01*
X112685242Y-134837195D01*
X112610340Y-134852309D01*
X112525064Y-134868552D01*
X112517875Y-134869881D01*
X112430014Y-134886175D01*
X112350260Y-134901133D01*
X112283681Y-134913791D01*
X112235347Y-134923186D01*
X112210325Y-134928354D01*
X112209943Y-134928444D01*
X112199299Y-134931589D01*
X112191262Y-134937704D01*
X112185467Y-134950453D01*
X112181547Y-134973500D01*
X112179135Y-135010509D01*
X112177865Y-135065144D01*
X112177371Y-135141067D01*
X112177286Y-135241944D01*
X112177286Y-135255000D01*
X112177348Y-135358910D01*
X112177348Y-135358910D01*
G37*
X112177348Y-135358910D02*
X112177778Y-135437454D01*
X112178942Y-135494298D01*
X112181207Y-135533105D01*
X112184940Y-135557538D01*
X112190506Y-135571262D01*
X112198273Y-135577940D01*
X112208605Y-135581236D01*
X112209943Y-135581556D01*
X112234079Y-135586562D01*
X112281701Y-135595829D01*
X112347741Y-135608392D01*
X112427128Y-135623287D01*
X112514796Y-135639551D01*
X112517875Y-135640119D01*
X112603789Y-135656410D01*
X112679696Y-135671652D01*
X112741045Y-135684861D01*
X112783282Y-135695054D01*
X112801855Y-135701248D01*
X112802184Y-135701543D01*
X112811253Y-135719788D01*
X112826367Y-135757405D01*
X112844262Y-135806271D01*
X112844358Y-135806543D01*
X112867493Y-135868093D01*
X112896965Y-135940657D01*
X112926597Y-136009057D01*
X112928062Y-136012294D01*
X112978626Y-136123702D01*
X112810160Y-136370399D01*
X112758803Y-136446077D01*
X112712889Y-136514631D01*
X112675030Y-136572088D01*
X112647837Y-136614476D01*
X112633921Y-136637825D01*
X112632889Y-136640042D01*
X112637484Y-136657010D01*
X112659655Y-136688701D01*
X112700447Y-136736352D01*
X112760905Y-136801198D01*
X112825227Y-136867397D01*
X112888612Y-136931214D01*
X112946451Y-136988329D01*
X112995175Y-137035305D01*
X113031210Y-137068703D01*
X113050984Y-137085085D01*
X113052002Y-137085694D01*
X113065572Y-137087505D01*
X113087733Y-137080683D01*
X113121478Y-137063540D01*
X113169800Y-137034393D01*
X113235692Y-136991555D01*
X113320517Y-136934448D01*
X113395177Y-136883766D01*
X113462140Y-136838461D01*
X113517516Y-136801150D01*
X113557420Y-136774452D01*
X113577962Y-136760985D01*
X113579356Y-136760137D01*
X113599038Y-136761781D01*
X113637293Y-136774245D01*
X113686889Y-136795048D01*
X113702728Y-136802462D01*
X113773290Y-136834814D01*
X113853353Y-136869328D01*
X113922629Y-136897365D01*
X113974045Y-136917568D01*
X114013119Y-136933615D01*
X114033541Y-136942888D01*
X114035114Y-136944041D01*
X114037721Y-136961096D01*
X114044863Y-137001298D01*
X114055523Y-137059302D01*
X114068685Y-137129763D01*
X114083333Y-137207335D01*
X114098449Y-137286672D01*
X114113018Y-137362431D01*
X114126022Y-137429264D01*
X114136445Y-137481828D01*
X114143270Y-137514776D01*
X114145199Y-137522857D01*
X114149962Y-137531205D01*
X114160718Y-137537506D01*
X114181098Y-137542045D01*
X114214734Y-137545104D01*
X114265255Y-137546967D01*
X114336292Y-137547918D01*
X114431476Y-137548240D01*
X114470492Y-137548257D01*
X114787799Y-137548257D01*
X114802839Y-137472057D01*
X114810995Y-137429663D01*
X114822899Y-137366400D01*
X114837116Y-137289962D01*
X114852210Y-137208043D01*
X114856355Y-137185400D01*
X114871053Y-137109806D01*
X114885505Y-137043953D01*
X114898375Y-136993366D01*
X114908322Y-136963574D01*
X114911287Y-136958612D01*
X114932283Y-136946426D01*
X114972967Y-136928953D01*
X115025322Y-136909577D01*
X115036600Y-136905734D01*
X115106523Y-136880339D01*
X115185418Y-136848817D01*
X115256266Y-136817969D01*
X115256595Y-136817817D01*
X115367733Y-136766447D01*
X115616253Y-136935399D01*
X115864772Y-137104352D01*
X116082058Y-136887429D01*
X116146726Y-136821819D01*
X116203733Y-136761979D01*
X116250033Y-136711267D01*
X116282584Y-136673046D01*
X116298343Y-136650675D01*
X116299343Y-136647466D01*
X116291469Y-136628626D01*
X116269578Y-136590180D01*
X116236267Y-136536330D01*
X116194131Y-136471276D01*
X116146943Y-136400940D01*
X116098810Y-136329555D01*
X116056928Y-136265908D01*
X116023871Y-136214041D01*
X116002218Y-136177995D01*
X115994543Y-136161867D01*
X116001037Y-136142189D01*
X116018150Y-136104875D01*
X116042326Y-136057621D01*
X116045013Y-136052612D01*
X116076927Y-135988977D01*
X116092579Y-135945341D01*
X116092745Y-135918202D01*
X116078204Y-135904057D01*
X116078000Y-135903975D01*
X116060779Y-135896905D01*
X116019899Y-135880042D01*
X115958525Y-135854695D01*
X115879819Y-135822171D01*
X115786947Y-135783778D01*
X115683072Y-135740822D01*
X115582502Y-135699222D01*
X115471516Y-135653504D01*
X115368703Y-135611526D01*
X115277215Y-135574548D01*
X115200201Y-135543827D01*
X115140815Y-135520622D01*
X115102209Y-135506190D01*
X115087800Y-135501743D01*
X115071272Y-135512896D01*
X115044930Y-135542069D01*
X115015887Y-135580971D01*
X114924039Y-135691757D01*
X114818759Y-135778351D01*
X114702266Y-135839716D01*
X114576776Y-135874815D01*
X114444507Y-135882608D01*
X114383457Y-135876943D01*
X114256795Y-135846078D01*
X114144941Y-135792920D01*
X114049001Y-135720767D01*
X113970076Y-135632917D01*
X113909270Y-135532665D01*
X113867687Y-135423310D01*
X113846428Y-135308147D01*
X113846599Y-135190475D01*
X113869301Y-135073590D01*
X113915638Y-134960789D01*
X113986713Y-134855369D01*
X114026911Y-134811368D01*
X114130129Y-134726979D01*
X114242925Y-134668222D01*
X114362010Y-134634704D01*
X114484095Y-134626035D01*
X114605893Y-134641823D01*
X114724116Y-134681678D01*
X114835475Y-134745207D01*
X114936684Y-134832021D01*
X115015887Y-134929029D01*
X115046162Y-134969437D01*
X115072219Y-134997982D01*
X115087825Y-135008257D01*
X115104843Y-135002877D01*
X115145500Y-134987575D01*
X115206642Y-134963612D01*
X115285119Y-134932244D01*
X115377780Y-134894732D01*
X115481472Y-134852333D01*
X115582526Y-134810663D01*
X115693607Y-134764690D01*
X115796541Y-134722107D01*
X115888165Y-134684221D01*
X115965316Y-134652340D01*
X116024831Y-134627771D01*
X116063544Y-134611820D01*
X116078000Y-134605910D01*
X116092685Y-134591948D01*
X116092642Y-134564940D01*
X116077099Y-134521413D01*
X116045284Y-134457890D01*
X116045013Y-134457388D01*
X116020323Y-134409560D01*
X116002338Y-134370897D01*
X115994614Y-134349095D01*
X115994543Y-134348133D01*
X116002378Y-134331721D01*
X116024165Y-134295487D01*
X116057328Y-134243474D01*
X116099291Y-134179725D01*
X116146943Y-134109060D01*
X116195191Y-134037116D01*
X116237151Y-133972274D01*
X116270227Y-133918735D01*
X116291821Y-133880697D01*
X116299343Y-133862533D01*
X116289457Y-133845808D01*
X116261826Y-133812180D01*
X116219495Y-133765010D01*
X116165505Y-133707658D01*
X116102899Y-133643484D01*
X116081983Y-133622497D01*
X115864623Y-133405499D01*
X115622220Y-133570668D01*
X115547781Y-133620864D01*
X115480972Y-133664919D01*
X115425665Y-133700362D01*
X115385729Y-133724719D01*
X115365036Y-133735522D01*
X115363563Y-133735838D01*
X115344058Y-133730143D01*
X115304822Y-133714826D01*
X115252430Y-133692537D01*
X115217355Y-133676893D01*
X115150201Y-133647641D01*
X115082358Y-133620094D01*
X115025034Y-133598737D01*
X115007572Y-133592935D01*
X114960938Y-133576452D01*
X114924905Y-133560340D01*
X114911287Y-133551490D01*
X114902952Y-133531960D01*
X114891137Y-133489334D01*
X114877181Y-133429145D01*
X114862422Y-133356922D01*
X114856355Y-133324600D01*
X114841273Y-133242522D01*
X114826669Y-133163795D01*
X114813980Y-133096109D01*
X114804642Y-133047160D01*
X114802839Y-133037943D01*
X114787799Y-132961743D01*
X114470492Y-132961743D01*
X114366154Y-132961914D01*
X114287213Y-132962616D01*
X114230038Y-132964134D01*
X114190999Y-132966749D01*
X114166465Y-132970746D01*
X114152805Y-132976409D01*
X114146389Y-132984020D01*
X114145199Y-132987143D01*
X114140980Y-133005978D01*
X114132562Y-133047588D01*
X114120961Y-133106630D01*
X114107195Y-133177757D01*
X114092280Y-133255625D01*
X114077232Y-133334887D01*
X114063069Y-133410198D01*
X114050806Y-133476213D01*
X114041461Y-133527587D01*
X114036050Y-133558975D01*
X114035114Y-133565959D01*
X114022596Y-133572285D01*
X113989246Y-133586290D01*
X113941377Y-133605355D01*
X113922629Y-133612634D01*
X113850195Y-133641996D01*
X113770170Y-133676571D01*
X113702728Y-133707537D01*
X113651159Y-133730323D01*
X113608785Y-133745482D01*
X113582834Y-133750542D01*
X113579356Y-133749736D01*
X113562936Y-133739041D01*
X113526417Y-133714620D01*
X113473687Y-133679095D01*
X113408635Y-133635087D01*
X113335151Y-133585217D01*
X113320645Y-133575356D01*
X113234704Y-133517492D01*
X113169261Y-133474956D01*
X113121304Y-133446054D01*
X113087820Y-133429090D01*
X113065795Y-133422367D01*
X113052217Y-133424190D01*
X113052131Y-133424236D01*
X113034297Y-133438586D01*
X112999817Y-133470323D01*
X112952268Y-133516010D01*
X112895222Y-133572204D01*
X112832255Y-133635468D01*
X112825227Y-133642602D01*
X112748020Y-133722330D01*
X112691330Y-133783857D01*
X112654110Y-133828421D01*
X112635315Y-133857257D01*
X112632889Y-133869958D01*
X112643471Y-133888494D01*
X112667916Y-133926961D01*
X112703612Y-133981386D01*
X112747947Y-134047798D01*
X112798311Y-134122225D01*
X112810160Y-134139601D01*
X112978626Y-134386297D01*
X112928062Y-134497706D01*
X112898595Y-134565457D01*
X112868959Y-134638183D01*
X112845330Y-134700703D01*
X112844358Y-134703457D01*
X112826457Y-134752360D01*
X112811320Y-134790057D01*
X112802210Y-134808425D01*
X112802184Y-134808456D01*
X112785717Y-134814285D01*
X112745219Y-134824192D01*
X112685242Y-134837195D01*
X112610340Y-134852309D01*
X112525064Y-134868552D01*
X112517875Y-134869881D01*
X112430014Y-134886175D01*
X112350260Y-134901133D01*
X112283681Y-134913791D01*
X112235347Y-134923186D01*
X112210325Y-134928354D01*
X112209943Y-134928444D01*
X112199299Y-134931589D01*
X112191262Y-134937704D01*
X112185467Y-134950453D01*
X112181547Y-134973500D01*
X112179135Y-135010509D01*
X112177865Y-135065144D01*
X112177371Y-135141067D01*
X112177286Y-135241944D01*
X112177286Y-135255000D01*
X112177348Y-135358910D01*
M02*
