%FSLAX45Y45*%
G04 Gerber Fmt 4.5, Leading zero omitted, Abs format (unit mm)*
G04 Created by KiCad (PCBNEW 4.0.7-e1-6374~58~ubuntu16.04.1) date Wed Aug  2 10:38:59 2017*
%MOMM*%
%LPD*%
G01*
G04 APERTURE LIST*
%ADD10C,0.127000*%
%ADD11C,0.150000*%
%ADD12C,0.200000*%
%ADD13C,0.300000*%
G04 APERTURE END LIST*
D10*
D11*
X10858500Y-11811000D02*
X10858500Y-14478000D01*
X10985500Y-11811000D02*
X10858500Y-11811000D01*
X10985500Y-11239500D02*
X10985500Y-11811000D01*
X10858500Y-11239500D02*
X10985500Y-11239500D01*
X10858500Y-10985500D02*
X10858500Y-11239500D01*
X16827500Y-10985500D02*
X10858500Y-10985500D01*
X16827500Y-14478000D02*
X16827500Y-10985500D01*
X10858500Y-14478000D02*
X16827500Y-14478000D01*
D12*
X11410000Y-12045000D02*
X11450000Y-12085000D01*
X11450000Y-12045000D02*
X11410000Y-12085000D01*
X11537000Y-13061000D02*
X11577000Y-13101000D01*
X11577000Y-13061000D02*
X11537000Y-13101000D01*
X11854500Y-11791000D02*
X11894500Y-11831000D01*
X11894500Y-11791000D02*
X11854500Y-11831000D01*
X12045000Y-11981500D02*
X12085000Y-12021500D01*
X12085000Y-11981500D02*
X12045000Y-12021500D01*
X12108500Y-11791000D02*
X12148500Y-11831000D01*
X12148500Y-11791000D02*
X12108500Y-11831000D01*
X12299000Y-11600500D02*
X12339000Y-11640500D01*
X12339000Y-11600500D02*
X12299000Y-11640500D01*
X12299000Y-13315000D02*
X12339000Y-13355000D01*
X12339000Y-13315000D02*
X12299000Y-13355000D01*
X12362500Y-12807000D02*
X12402500Y-12847000D01*
X12402500Y-12807000D02*
X12362500Y-12847000D01*
X12489500Y-11219500D02*
X12529500Y-11259500D01*
X12529500Y-11219500D02*
X12489500Y-11259500D01*
X12489500Y-12870500D02*
X12529500Y-12910500D01*
X12529500Y-12870500D02*
X12489500Y-12910500D01*
X12553000Y-12489500D02*
X12593000Y-12529500D01*
X12593000Y-12489500D02*
X12553000Y-12529500D01*
X12616500Y-12172000D02*
X12656500Y-12212000D01*
X12656500Y-12172000D02*
X12616500Y-12212000D01*
X12680000Y-11918000D02*
X12720000Y-11958000D01*
X12720000Y-11918000D02*
X12680000Y-11958000D01*
X12680000Y-13061000D02*
X12720000Y-13101000D01*
X12720000Y-13061000D02*
X12680000Y-13101000D01*
X12743500Y-11727500D02*
X12783500Y-11767500D01*
X12783500Y-11727500D02*
X12743500Y-11767500D01*
X12743500Y-11854500D02*
X12783500Y-11894500D01*
X12783500Y-11854500D02*
X12743500Y-11894500D01*
X12743500Y-12489500D02*
X12783500Y-12529500D01*
X12783500Y-12489500D02*
X12743500Y-12529500D01*
X12743500Y-12934000D02*
X12783500Y-12974000D01*
X12783500Y-12934000D02*
X12743500Y-12974000D01*
X12743500Y-13823000D02*
X12783500Y-13863000D01*
X12783500Y-13823000D02*
X12743500Y-13863000D01*
X12807000Y-11283000D02*
X12847000Y-11323000D01*
X12847000Y-11283000D02*
X12807000Y-11323000D01*
X12807000Y-11664000D02*
X12847000Y-11704000D01*
X12847000Y-11664000D02*
X12807000Y-11704000D01*
X12807000Y-12553000D02*
X12847000Y-12593000D01*
X12847000Y-12553000D02*
X12807000Y-12593000D01*
X12997500Y-11600500D02*
X13037500Y-11640500D01*
X13037500Y-11600500D02*
X12997500Y-11640500D01*
X12997500Y-11727500D02*
X13037500Y-11767500D01*
X13037500Y-11727500D02*
X12997500Y-11767500D01*
X13124500Y-11727500D02*
X13164500Y-11767500D01*
X13164500Y-11727500D02*
X13124500Y-11767500D01*
X13188000Y-11283000D02*
X13228000Y-11323000D01*
X13228000Y-11283000D02*
X13188000Y-11323000D01*
X13251500Y-12616500D02*
X13291500Y-12656500D01*
X13291500Y-12616500D02*
X13251500Y-12656500D01*
X13251500Y-13188000D02*
X13291500Y-13228000D01*
X13291500Y-13188000D02*
X13251500Y-13228000D01*
X13315000Y-12362500D02*
X13355000Y-12402500D01*
X13355000Y-12362500D02*
X13315000Y-12402500D01*
X13315000Y-13696000D02*
X13355000Y-13736000D01*
X13355000Y-13696000D02*
X13315000Y-13736000D01*
X13442000Y-11410000D02*
X13482000Y-11450000D01*
X13482000Y-11410000D02*
X13442000Y-11450000D01*
X13442000Y-11791000D02*
X13482000Y-11831000D01*
X13482000Y-11791000D02*
X13442000Y-11831000D01*
X13442000Y-12362500D02*
X13482000Y-12402500D01*
X13482000Y-12362500D02*
X13442000Y-12402500D01*
X13505500Y-12870500D02*
X13545500Y-12910500D01*
X13545500Y-12870500D02*
X13505500Y-12910500D01*
X13505500Y-13823000D02*
X13545500Y-13863000D01*
X13545500Y-13823000D02*
X13505500Y-13863000D01*
X13569000Y-13569000D02*
X13609000Y-13609000D01*
X13609000Y-13569000D02*
X13569000Y-13609000D01*
X13628500Y-11632000D02*
X13668500Y-11672000D01*
X13668500Y-11632000D02*
X13628500Y-11672000D01*
X13696000Y-13315000D02*
X13736000Y-13355000D01*
X13736000Y-13315000D02*
X13696000Y-13355000D01*
X13696000Y-13950000D02*
X13736000Y-13990000D01*
X13736000Y-13950000D02*
X13696000Y-13990000D01*
X13823000Y-13823000D02*
X13863000Y-13863000D01*
X13863000Y-13823000D02*
X13823000Y-13863000D01*
X13886500Y-11410000D02*
X13926500Y-11450000D01*
X13926500Y-11410000D02*
X13886500Y-11450000D01*
X13950000Y-13378500D02*
X13990000Y-13418500D01*
X13990000Y-13378500D02*
X13950000Y-13418500D01*
X13950000Y-13759500D02*
X13990000Y-13799500D01*
X13990000Y-13759500D02*
X13950000Y-13799500D01*
X13950000Y-13886500D02*
X13990000Y-13926500D01*
X13990000Y-13886500D02*
X13950000Y-13926500D01*
X14013500Y-11918000D02*
X14053500Y-11958000D01*
X14053500Y-11918000D02*
X14013500Y-11958000D01*
X14077000Y-13188000D02*
X14117000Y-13228000D01*
X14117000Y-13188000D02*
X14077000Y-13228000D01*
X14140500Y-11600500D02*
X14180500Y-11640500D01*
X14180500Y-11600500D02*
X14140500Y-11640500D01*
X14140500Y-13696000D02*
X14180500Y-13736000D01*
X14180500Y-13696000D02*
X14140500Y-13736000D01*
X14204000Y-11092500D02*
X14244000Y-11132500D01*
X14244000Y-11092500D02*
X14204000Y-11132500D01*
X14267500Y-11346500D02*
X14307500Y-11386500D01*
X14307500Y-11346500D02*
X14267500Y-11386500D01*
X14458000Y-11600500D02*
X14498000Y-11640500D01*
X14498000Y-11600500D02*
X14458000Y-11640500D01*
X14458000Y-13124500D02*
X14498000Y-13164500D01*
X14498000Y-13124500D02*
X14458000Y-13164500D01*
X14475000Y-11346500D02*
X14515000Y-11386500D01*
X14515000Y-11346500D02*
X14475000Y-11386500D01*
X14712000Y-11346500D02*
X14752000Y-11386500D01*
X14752000Y-11346500D02*
X14712000Y-11386500D01*
X14712000Y-12045000D02*
X14752000Y-12085000D01*
X14752000Y-12045000D02*
X14712000Y-12085000D01*
X11340500Y-11430000D02*
G75*
G03X11340500Y-11430000I-37500J0D01*
G01*
X11340500Y-11630000D02*
G75*
G03X11340500Y-11630000I-37500J0D01*
G01*
X14605000Y-12205500D02*
X14605000Y-12305500D01*
X14555000Y-12255500D02*
X14655000Y-12255500D01*
X14605000Y-12459500D02*
X14605000Y-12559500D01*
X14555000Y-12509500D02*
X14655000Y-12509500D01*
X14605000Y-12713500D02*
X14605000Y-12813500D01*
X14555000Y-12763500D02*
X14655000Y-12763500D01*
X14605000Y-12967500D02*
X14605000Y-13067500D01*
X14555000Y-13017500D02*
X14655000Y-13017500D01*
X14605000Y-13221500D02*
X14605000Y-13321500D01*
X14555000Y-13271500D02*
X14655000Y-13271500D01*
X14605000Y-13475500D02*
X14605000Y-13575500D01*
X14555000Y-13525500D02*
X14655000Y-13525500D01*
X15113000Y-11316500D02*
X15113000Y-11416500D01*
X15063000Y-11366500D02*
X15163000Y-11366500D01*
X15113000Y-14047000D02*
X15113000Y-14147000D01*
X15063000Y-14097000D02*
X15163000Y-14097000D01*
X15367000Y-11316500D02*
X15367000Y-11416500D01*
X15317000Y-11366500D02*
X15417000Y-11366500D01*
X15367000Y-14047000D02*
X15367000Y-14147000D01*
X15317000Y-14097000D02*
X15417000Y-14097000D01*
X15621000Y-11316500D02*
X15621000Y-11416500D01*
X15571000Y-11366500D02*
X15671000Y-11366500D01*
X15621000Y-14047000D02*
X15621000Y-14147000D01*
X15571000Y-14097000D02*
X15671000Y-14097000D01*
X15875000Y-11316500D02*
X15875000Y-11416500D01*
X15825000Y-11366500D02*
X15925000Y-11366500D01*
X15875000Y-14047000D02*
X15875000Y-14147000D01*
X15825000Y-14097000D02*
X15925000Y-14097000D01*
X16129000Y-11316500D02*
X16129000Y-11416500D01*
X16079000Y-11366500D02*
X16179000Y-11366500D01*
X16129000Y-14047000D02*
X16129000Y-14147000D01*
X16079000Y-14097000D02*
X16179000Y-14097000D01*
X16383000Y-11316500D02*
X16383000Y-11416500D01*
X16333000Y-11366500D02*
X16433000Y-11366500D01*
X16383000Y-14047000D02*
X16383000Y-14147000D01*
X16333000Y-14097000D02*
X16433000Y-14097000D01*
X16637000Y-11316500D02*
X16637000Y-11416500D01*
X16587000Y-11366500D02*
X16687000Y-11366500D01*
X16637000Y-14047000D02*
X16637000Y-14147000D01*
X16587000Y-14097000D02*
X16687000Y-14097000D01*
D13*
X11122429Y-14951214D02*
X11122429Y-14651214D01*
X11193857Y-14651214D01*
X11236714Y-14665500D01*
X11265286Y-14694071D01*
X11279571Y-14722643D01*
X11293857Y-14779786D01*
X11293857Y-14822643D01*
X11279571Y-14879786D01*
X11265286Y-14908357D01*
X11236714Y-14936929D01*
X11193857Y-14951214D01*
X11122429Y-14951214D01*
X11422428Y-14951214D02*
X11422428Y-14751214D01*
X11422428Y-14808357D02*
X11436714Y-14779786D01*
X11451000Y-14765500D01*
X11479571Y-14751214D01*
X11508143Y-14751214D01*
X11608143Y-14951214D02*
X11608143Y-14751214D01*
X11608143Y-14651214D02*
X11593857Y-14665500D01*
X11608143Y-14679786D01*
X11622428Y-14665500D01*
X11608143Y-14651214D01*
X11608143Y-14679786D01*
X11793857Y-14951214D02*
X11765286Y-14936929D01*
X11751000Y-14908357D01*
X11751000Y-14651214D01*
X11951000Y-14951214D02*
X11922428Y-14936929D01*
X11908143Y-14908357D01*
X11908143Y-14651214D01*
X12293857Y-14951214D02*
X12293857Y-14651214D01*
X12393857Y-14865500D01*
X12493857Y-14651214D01*
X12493857Y-14951214D01*
X12765286Y-14951214D02*
X12765286Y-14794071D01*
X12751000Y-14765500D01*
X12722428Y-14751214D01*
X12665286Y-14751214D01*
X12636714Y-14765500D01*
X12765286Y-14936929D02*
X12736714Y-14951214D01*
X12665286Y-14951214D01*
X12636714Y-14936929D01*
X12622428Y-14908357D01*
X12622428Y-14879786D01*
X12636714Y-14851214D01*
X12665286Y-14836929D01*
X12736714Y-14836929D01*
X12765286Y-14822643D01*
X12908143Y-14751214D02*
X12908143Y-15051214D01*
X12908143Y-14765500D02*
X12936714Y-14751214D01*
X12993857Y-14751214D01*
X13022428Y-14765500D01*
X13036714Y-14779786D01*
X13051000Y-14808357D01*
X13051000Y-14894071D01*
X13036714Y-14922643D01*
X13022428Y-14936929D01*
X12993857Y-14951214D01*
X12936714Y-14951214D01*
X12908143Y-14936929D01*
X13179571Y-14922643D02*
X13193857Y-14936929D01*
X13179571Y-14951214D01*
X13165286Y-14936929D01*
X13179571Y-14922643D01*
X13179571Y-14951214D01*
X13179571Y-14765500D02*
X13193857Y-14779786D01*
X13179571Y-14794071D01*
X13165286Y-14779786D01*
X13179571Y-14765500D01*
X13179571Y-14794071D01*
X10811000Y-15425500D02*
X10851000Y-15465500D01*
X10851000Y-15425500D02*
X10811000Y-15465500D01*
X11179571Y-15281214D02*
X11208143Y-15281214D01*
X11236714Y-15295500D01*
X11251000Y-15309786D01*
X11265286Y-15338357D01*
X11279571Y-15395500D01*
X11279571Y-15466929D01*
X11265286Y-15524071D01*
X11251000Y-15552643D01*
X11236714Y-15566929D01*
X11208143Y-15581214D01*
X11179571Y-15581214D01*
X11151000Y-15566929D01*
X11136714Y-15552643D01*
X11122429Y-15524071D01*
X11108143Y-15466929D01*
X11108143Y-15395500D01*
X11122429Y-15338357D01*
X11136714Y-15309786D01*
X11151000Y-15295500D01*
X11179571Y-15281214D01*
X11408143Y-15552643D02*
X11422428Y-15566929D01*
X11408143Y-15581214D01*
X11393857Y-15566929D01*
X11408143Y-15552643D01*
X11408143Y-15581214D01*
X11679571Y-15381214D02*
X11679571Y-15581214D01*
X11608143Y-15266929D02*
X11536714Y-15481214D01*
X11722428Y-15481214D01*
X11893857Y-15281214D02*
X11922428Y-15281214D01*
X11951000Y-15295500D01*
X11965286Y-15309786D01*
X11979571Y-15338357D01*
X11993857Y-15395500D01*
X11993857Y-15466929D01*
X11979571Y-15524071D01*
X11965286Y-15552643D01*
X11951000Y-15566929D01*
X11922428Y-15581214D01*
X11893857Y-15581214D01*
X11865286Y-15566929D01*
X11851000Y-15552643D01*
X11836714Y-15524071D01*
X11822428Y-15466929D01*
X11822428Y-15395500D01*
X11836714Y-15338357D01*
X11851000Y-15309786D01*
X11865286Y-15295500D01*
X11893857Y-15281214D01*
X12122428Y-15581214D02*
X12122428Y-15381214D01*
X12122428Y-15409786D02*
X12136714Y-15395500D01*
X12165286Y-15381214D01*
X12208143Y-15381214D01*
X12236714Y-15395500D01*
X12251000Y-15424071D01*
X12251000Y-15581214D01*
X12251000Y-15424071D02*
X12265286Y-15395500D01*
X12293857Y-15381214D01*
X12336714Y-15381214D01*
X12365286Y-15395500D01*
X12379571Y-15424071D01*
X12379571Y-15581214D01*
X12522428Y-15581214D02*
X12522428Y-15381214D01*
X12522428Y-15409786D02*
X12536714Y-15395500D01*
X12565286Y-15381214D01*
X12608143Y-15381214D01*
X12636714Y-15395500D01*
X12651000Y-15424071D01*
X12651000Y-15581214D01*
X12651000Y-15424071D02*
X12665286Y-15395500D01*
X12693857Y-15381214D01*
X12736714Y-15381214D01*
X12765286Y-15395500D01*
X12779571Y-15424071D01*
X12779571Y-15581214D01*
X13365286Y-15266929D02*
X13108143Y-15652643D01*
X13751000Y-15281214D02*
X13779571Y-15281214D01*
X13808143Y-15295500D01*
X13822428Y-15309786D01*
X13836714Y-15338357D01*
X13851000Y-15395500D01*
X13851000Y-15466929D01*
X13836714Y-15524071D01*
X13822428Y-15552643D01*
X13808143Y-15566929D01*
X13779571Y-15581214D01*
X13751000Y-15581214D01*
X13722428Y-15566929D01*
X13708143Y-15552643D01*
X13693857Y-15524071D01*
X13679571Y-15466929D01*
X13679571Y-15395500D01*
X13693857Y-15338357D01*
X13708143Y-15309786D01*
X13722428Y-15295500D01*
X13751000Y-15281214D01*
X13979571Y-15552643D02*
X13993857Y-15566929D01*
X13979571Y-15581214D01*
X13965286Y-15566929D01*
X13979571Y-15552643D01*
X13979571Y-15581214D01*
X14179571Y-15281214D02*
X14208143Y-15281214D01*
X14236714Y-15295500D01*
X14251000Y-15309786D01*
X14265285Y-15338357D01*
X14279571Y-15395500D01*
X14279571Y-15466929D01*
X14265285Y-15524071D01*
X14251000Y-15552643D01*
X14236714Y-15566929D01*
X14208143Y-15581214D01*
X14179571Y-15581214D01*
X14151000Y-15566929D01*
X14136714Y-15552643D01*
X14122428Y-15524071D01*
X14108143Y-15466929D01*
X14108143Y-15395500D01*
X14122428Y-15338357D01*
X14136714Y-15309786D01*
X14151000Y-15295500D01*
X14179571Y-15281214D01*
X14565285Y-15581214D02*
X14393857Y-15581214D01*
X14479571Y-15581214D02*
X14479571Y-15281214D01*
X14451000Y-15324071D01*
X14422428Y-15352643D01*
X14393857Y-15366929D01*
X14822428Y-15281214D02*
X14765285Y-15281214D01*
X14736714Y-15295500D01*
X14722428Y-15309786D01*
X14693857Y-15352643D01*
X14679571Y-15409786D01*
X14679571Y-15524071D01*
X14693857Y-15552643D01*
X14708143Y-15566929D01*
X14736714Y-15581214D01*
X14793857Y-15581214D01*
X14822428Y-15566929D01*
X14836714Y-15552643D01*
X14851000Y-15524071D01*
X14851000Y-15452643D01*
X14836714Y-15424071D01*
X14822428Y-15409786D01*
X14793857Y-15395500D01*
X14736714Y-15395500D01*
X14708143Y-15409786D01*
X14693857Y-15424071D01*
X14679571Y-15452643D01*
X14965286Y-15281214D02*
X14965286Y-15338357D01*
X15079571Y-15281214D02*
X15079571Y-15338357D01*
X15522428Y-15695500D02*
X15508143Y-15681214D01*
X15479571Y-15638357D01*
X15465285Y-15609786D01*
X15451000Y-15566929D01*
X15436714Y-15495500D01*
X15436714Y-15438357D01*
X15451000Y-15366929D01*
X15465285Y-15324071D01*
X15479571Y-15295500D01*
X15508143Y-15252643D01*
X15522428Y-15238357D01*
X15779571Y-15281214D02*
X15636714Y-15281214D01*
X15622428Y-15424071D01*
X15636714Y-15409786D01*
X15665285Y-15395500D01*
X15736714Y-15395500D01*
X15765285Y-15409786D01*
X15779571Y-15424071D01*
X15793857Y-15452643D01*
X15793857Y-15524071D01*
X15779571Y-15552643D01*
X15765285Y-15566929D01*
X15736714Y-15581214D01*
X15665285Y-15581214D01*
X15636714Y-15566929D01*
X15622428Y-15552643D01*
X16065285Y-15281214D02*
X15922428Y-15281214D01*
X15908143Y-15424071D01*
X15922428Y-15409786D01*
X15951000Y-15395500D01*
X16022428Y-15395500D01*
X16051000Y-15409786D01*
X16065285Y-15424071D01*
X16079571Y-15452643D01*
X16079571Y-15524071D01*
X16065285Y-15552643D01*
X16051000Y-15566929D01*
X16022428Y-15581214D01*
X15951000Y-15581214D01*
X15922428Y-15566929D01*
X15908143Y-15552643D01*
X16436714Y-15581214D02*
X16436714Y-15281214D01*
X16565285Y-15581214D02*
X16565285Y-15424071D01*
X16551000Y-15395500D01*
X16522428Y-15381214D01*
X16479571Y-15381214D01*
X16451000Y-15395500D01*
X16436714Y-15409786D01*
X16751000Y-15581214D02*
X16722428Y-15566929D01*
X16708143Y-15552643D01*
X16693857Y-15524071D01*
X16693857Y-15438357D01*
X16708143Y-15409786D01*
X16722428Y-15395500D01*
X16751000Y-15381214D01*
X16793857Y-15381214D01*
X16822428Y-15395500D01*
X16836714Y-15409786D01*
X16851000Y-15438357D01*
X16851000Y-15524071D01*
X16836714Y-15552643D01*
X16822428Y-15566929D01*
X16793857Y-15581214D01*
X16751000Y-15581214D01*
X17022428Y-15581214D02*
X16993857Y-15566929D01*
X16979571Y-15538357D01*
X16979571Y-15281214D01*
X17251000Y-15566929D02*
X17222429Y-15581214D01*
X17165286Y-15581214D01*
X17136714Y-15566929D01*
X17122429Y-15538357D01*
X17122429Y-15424071D01*
X17136714Y-15395500D01*
X17165286Y-15381214D01*
X17222429Y-15381214D01*
X17251000Y-15395500D01*
X17265286Y-15424071D01*
X17265286Y-15452643D01*
X17122429Y-15481214D01*
X17379571Y-15566929D02*
X17408143Y-15581214D01*
X17465286Y-15581214D01*
X17493857Y-15566929D01*
X17508143Y-15538357D01*
X17508143Y-15524071D01*
X17493857Y-15495500D01*
X17465286Y-15481214D01*
X17422429Y-15481214D01*
X17393857Y-15466929D01*
X17379571Y-15438357D01*
X17379571Y-15424071D01*
X17393857Y-15395500D01*
X17422429Y-15381214D01*
X17465286Y-15381214D01*
X17493857Y-15395500D01*
X17608143Y-15695500D02*
X17622429Y-15681214D01*
X17651000Y-15638357D01*
X17665286Y-15609786D01*
X17679571Y-15566929D01*
X17693857Y-15495500D01*
X17693857Y-15438357D01*
X17679571Y-15366929D01*
X17665286Y-15324071D01*
X17651000Y-15295500D01*
X17622429Y-15252643D01*
X17608143Y-15238357D01*
X10851000Y-15841500D02*
G75*
G03X10851000Y-15841500I-37500J0D01*
G01*
X11179571Y-15677214D02*
X11208143Y-15677214D01*
X11236714Y-15691500D01*
X11251000Y-15705786D01*
X11265286Y-15734357D01*
X11279571Y-15791500D01*
X11279571Y-15862929D01*
X11265286Y-15920071D01*
X11251000Y-15948643D01*
X11236714Y-15962929D01*
X11208143Y-15977214D01*
X11179571Y-15977214D01*
X11151000Y-15962929D01*
X11136714Y-15948643D01*
X11122429Y-15920071D01*
X11108143Y-15862929D01*
X11108143Y-15791500D01*
X11122429Y-15734357D01*
X11136714Y-15705786D01*
X11151000Y-15691500D01*
X11179571Y-15677214D01*
X11408143Y-15948643D02*
X11422428Y-15962929D01*
X11408143Y-15977214D01*
X11393857Y-15962929D01*
X11408143Y-15948643D01*
X11408143Y-15977214D01*
X11522428Y-15677214D02*
X11722428Y-15677214D01*
X11593857Y-15977214D01*
X11979571Y-15677214D02*
X11836714Y-15677214D01*
X11822428Y-15820071D01*
X11836714Y-15805786D01*
X11865286Y-15791500D01*
X11936714Y-15791500D01*
X11965286Y-15805786D01*
X11979571Y-15820071D01*
X11993857Y-15848643D01*
X11993857Y-15920071D01*
X11979571Y-15948643D01*
X11965286Y-15962929D01*
X11936714Y-15977214D01*
X11865286Y-15977214D01*
X11836714Y-15962929D01*
X11822428Y-15948643D01*
X12122428Y-15977214D02*
X12122428Y-15777214D01*
X12122428Y-15805786D02*
X12136714Y-15791500D01*
X12165286Y-15777214D01*
X12208143Y-15777214D01*
X12236714Y-15791500D01*
X12251000Y-15820071D01*
X12251000Y-15977214D01*
X12251000Y-15820071D02*
X12265286Y-15791500D01*
X12293857Y-15777214D01*
X12336714Y-15777214D01*
X12365286Y-15791500D01*
X12379571Y-15820071D01*
X12379571Y-15977214D01*
X12522428Y-15977214D02*
X12522428Y-15777214D01*
X12522428Y-15805786D02*
X12536714Y-15791500D01*
X12565286Y-15777214D01*
X12608143Y-15777214D01*
X12636714Y-15791500D01*
X12651000Y-15820071D01*
X12651000Y-15977214D01*
X12651000Y-15820071D02*
X12665286Y-15791500D01*
X12693857Y-15777214D01*
X12736714Y-15777214D01*
X12765286Y-15791500D01*
X12779571Y-15820071D01*
X12779571Y-15977214D01*
X13365286Y-15662929D02*
X13108143Y-16048643D01*
X13751000Y-15677214D02*
X13779571Y-15677214D01*
X13808143Y-15691500D01*
X13822428Y-15705786D01*
X13836714Y-15734357D01*
X13851000Y-15791500D01*
X13851000Y-15862929D01*
X13836714Y-15920071D01*
X13822428Y-15948643D01*
X13808143Y-15962929D01*
X13779571Y-15977214D01*
X13751000Y-15977214D01*
X13722428Y-15962929D01*
X13708143Y-15948643D01*
X13693857Y-15920071D01*
X13679571Y-15862929D01*
X13679571Y-15791500D01*
X13693857Y-15734357D01*
X13708143Y-15705786D01*
X13722428Y-15691500D01*
X13751000Y-15677214D01*
X13979571Y-15948643D02*
X13993857Y-15962929D01*
X13979571Y-15977214D01*
X13965286Y-15962929D01*
X13979571Y-15948643D01*
X13979571Y-15977214D01*
X14179571Y-15677214D02*
X14208143Y-15677214D01*
X14236714Y-15691500D01*
X14251000Y-15705786D01*
X14265285Y-15734357D01*
X14279571Y-15791500D01*
X14279571Y-15862929D01*
X14265285Y-15920071D01*
X14251000Y-15948643D01*
X14236714Y-15962929D01*
X14208143Y-15977214D01*
X14179571Y-15977214D01*
X14151000Y-15962929D01*
X14136714Y-15948643D01*
X14122428Y-15920071D01*
X14108143Y-15862929D01*
X14108143Y-15791500D01*
X14122428Y-15734357D01*
X14136714Y-15705786D01*
X14151000Y-15691500D01*
X14179571Y-15677214D01*
X14379571Y-15677214D02*
X14565285Y-15677214D01*
X14465285Y-15791500D01*
X14508143Y-15791500D01*
X14536714Y-15805786D01*
X14551000Y-15820071D01*
X14565285Y-15848643D01*
X14565285Y-15920071D01*
X14551000Y-15948643D01*
X14536714Y-15962929D01*
X14508143Y-15977214D01*
X14422428Y-15977214D01*
X14393857Y-15962929D01*
X14379571Y-15948643D01*
X14751000Y-15677214D02*
X14779571Y-15677214D01*
X14808143Y-15691500D01*
X14822428Y-15705786D01*
X14836714Y-15734357D01*
X14851000Y-15791500D01*
X14851000Y-15862929D01*
X14836714Y-15920071D01*
X14822428Y-15948643D01*
X14808143Y-15962929D01*
X14779571Y-15977214D01*
X14751000Y-15977214D01*
X14722428Y-15962929D01*
X14708143Y-15948643D01*
X14693857Y-15920071D01*
X14679571Y-15862929D01*
X14679571Y-15791500D01*
X14693857Y-15734357D01*
X14708143Y-15705786D01*
X14722428Y-15691500D01*
X14751000Y-15677214D01*
X14965286Y-15677214D02*
X14965286Y-15734357D01*
X15079571Y-15677214D02*
X15079571Y-15734357D01*
X15522428Y-16091500D02*
X15508143Y-16077214D01*
X15479571Y-16034357D01*
X15465285Y-16005786D01*
X15451000Y-15962929D01*
X15436714Y-15891500D01*
X15436714Y-15834357D01*
X15451000Y-15762929D01*
X15465285Y-15720071D01*
X15479571Y-15691500D01*
X15508143Y-15648643D01*
X15522428Y-15634357D01*
X15622428Y-15705786D02*
X15636714Y-15691500D01*
X15665285Y-15677214D01*
X15736714Y-15677214D01*
X15765285Y-15691500D01*
X15779571Y-15705786D01*
X15793857Y-15734357D01*
X15793857Y-15762929D01*
X15779571Y-15805786D01*
X15608143Y-15977214D01*
X15793857Y-15977214D01*
X16151000Y-15977214D02*
X16151000Y-15677214D01*
X16279571Y-15977214D02*
X16279571Y-15820071D01*
X16265285Y-15791500D01*
X16236714Y-15777214D01*
X16193857Y-15777214D01*
X16165285Y-15791500D01*
X16151000Y-15805786D01*
X16465285Y-15977214D02*
X16436714Y-15962929D01*
X16422428Y-15948643D01*
X16408143Y-15920071D01*
X16408143Y-15834357D01*
X16422428Y-15805786D01*
X16436714Y-15791500D01*
X16465285Y-15777214D01*
X16508143Y-15777214D01*
X16536714Y-15791500D01*
X16551000Y-15805786D01*
X16565285Y-15834357D01*
X16565285Y-15920071D01*
X16551000Y-15948643D01*
X16536714Y-15962929D01*
X16508143Y-15977214D01*
X16465285Y-15977214D01*
X16736714Y-15977214D02*
X16708143Y-15962929D01*
X16693857Y-15934357D01*
X16693857Y-15677214D01*
X16965286Y-15962929D02*
X16936714Y-15977214D01*
X16879571Y-15977214D01*
X16851000Y-15962929D01*
X16836714Y-15934357D01*
X16836714Y-15820071D01*
X16851000Y-15791500D01*
X16879571Y-15777214D01*
X16936714Y-15777214D01*
X16965286Y-15791500D01*
X16979571Y-15820071D01*
X16979571Y-15848643D01*
X16836714Y-15877214D01*
X17093857Y-15962929D02*
X17122429Y-15977214D01*
X17179571Y-15977214D01*
X17208143Y-15962929D01*
X17222429Y-15934357D01*
X17222429Y-15920071D01*
X17208143Y-15891500D01*
X17179571Y-15877214D01*
X17136714Y-15877214D01*
X17108143Y-15862929D01*
X17093857Y-15834357D01*
X17093857Y-15820071D01*
X17108143Y-15791500D01*
X17136714Y-15777214D01*
X17179571Y-15777214D01*
X17208143Y-15791500D01*
X17322428Y-16091500D02*
X17336714Y-16077214D01*
X17365286Y-16034357D01*
X17379571Y-16005786D01*
X17393857Y-15962929D01*
X17408143Y-15891500D01*
X17408143Y-15834357D01*
X17393857Y-15762929D01*
X17379571Y-15720071D01*
X17365286Y-15691500D01*
X17336714Y-15648643D01*
X17322428Y-15634357D01*
X10801000Y-16187500D02*
X10801000Y-16287500D01*
X10751000Y-16237500D02*
X10851000Y-16237500D01*
X11279571Y-16373214D02*
X11108143Y-16373214D01*
X11193857Y-16373214D02*
X11193857Y-16073214D01*
X11165286Y-16116071D01*
X11136714Y-16144643D01*
X11108143Y-16158929D01*
X11408143Y-16344643D02*
X11422428Y-16358929D01*
X11408143Y-16373214D01*
X11393857Y-16358929D01*
X11408143Y-16344643D01*
X11408143Y-16373214D01*
X11608143Y-16073214D02*
X11636714Y-16073214D01*
X11665286Y-16087500D01*
X11679571Y-16101786D01*
X11693857Y-16130357D01*
X11708143Y-16187500D01*
X11708143Y-16258929D01*
X11693857Y-16316071D01*
X11679571Y-16344643D01*
X11665286Y-16358929D01*
X11636714Y-16373214D01*
X11608143Y-16373214D01*
X11579571Y-16358929D01*
X11565286Y-16344643D01*
X11551000Y-16316071D01*
X11536714Y-16258929D01*
X11536714Y-16187500D01*
X11551000Y-16130357D01*
X11565286Y-16101786D01*
X11579571Y-16087500D01*
X11608143Y-16073214D01*
X11893857Y-16073214D02*
X11922428Y-16073214D01*
X11951000Y-16087500D01*
X11965286Y-16101786D01*
X11979571Y-16130357D01*
X11993857Y-16187500D01*
X11993857Y-16258929D01*
X11979571Y-16316071D01*
X11965286Y-16344643D01*
X11951000Y-16358929D01*
X11922428Y-16373214D01*
X11893857Y-16373214D01*
X11865286Y-16358929D01*
X11851000Y-16344643D01*
X11836714Y-16316071D01*
X11822428Y-16258929D01*
X11822428Y-16187500D01*
X11836714Y-16130357D01*
X11851000Y-16101786D01*
X11865286Y-16087500D01*
X11893857Y-16073214D01*
X12122428Y-16373214D02*
X12122428Y-16173214D01*
X12122428Y-16201786D02*
X12136714Y-16187500D01*
X12165286Y-16173214D01*
X12208143Y-16173214D01*
X12236714Y-16187500D01*
X12251000Y-16216071D01*
X12251000Y-16373214D01*
X12251000Y-16216071D02*
X12265286Y-16187500D01*
X12293857Y-16173214D01*
X12336714Y-16173214D01*
X12365286Y-16187500D01*
X12379571Y-16216071D01*
X12379571Y-16373214D01*
X12522428Y-16373214D02*
X12522428Y-16173214D01*
X12522428Y-16201786D02*
X12536714Y-16187500D01*
X12565286Y-16173214D01*
X12608143Y-16173214D01*
X12636714Y-16187500D01*
X12651000Y-16216071D01*
X12651000Y-16373214D01*
X12651000Y-16216071D02*
X12665286Y-16187500D01*
X12693857Y-16173214D01*
X12736714Y-16173214D01*
X12765286Y-16187500D01*
X12779571Y-16216071D01*
X12779571Y-16373214D01*
X13365286Y-16058929D02*
X13108143Y-16444643D01*
X13751000Y-16073214D02*
X13779571Y-16073214D01*
X13808143Y-16087500D01*
X13822428Y-16101786D01*
X13836714Y-16130357D01*
X13851000Y-16187500D01*
X13851000Y-16258929D01*
X13836714Y-16316071D01*
X13822428Y-16344643D01*
X13808143Y-16358929D01*
X13779571Y-16373214D01*
X13751000Y-16373214D01*
X13722428Y-16358929D01*
X13708143Y-16344643D01*
X13693857Y-16316071D01*
X13679571Y-16258929D01*
X13679571Y-16187500D01*
X13693857Y-16130357D01*
X13708143Y-16101786D01*
X13722428Y-16087500D01*
X13751000Y-16073214D01*
X13979571Y-16344643D02*
X13993857Y-16358929D01*
X13979571Y-16373214D01*
X13965286Y-16358929D01*
X13979571Y-16344643D01*
X13979571Y-16373214D01*
X14179571Y-16073214D02*
X14208143Y-16073214D01*
X14236714Y-16087500D01*
X14251000Y-16101786D01*
X14265285Y-16130357D01*
X14279571Y-16187500D01*
X14279571Y-16258929D01*
X14265285Y-16316071D01*
X14251000Y-16344643D01*
X14236714Y-16358929D01*
X14208143Y-16373214D01*
X14179571Y-16373214D01*
X14151000Y-16358929D01*
X14136714Y-16344643D01*
X14122428Y-16316071D01*
X14108143Y-16258929D01*
X14108143Y-16187500D01*
X14122428Y-16130357D01*
X14136714Y-16101786D01*
X14151000Y-16087500D01*
X14179571Y-16073214D01*
X14379571Y-16073214D02*
X14565285Y-16073214D01*
X14465285Y-16187500D01*
X14508143Y-16187500D01*
X14536714Y-16201786D01*
X14551000Y-16216071D01*
X14565285Y-16244643D01*
X14565285Y-16316071D01*
X14551000Y-16344643D01*
X14536714Y-16358929D01*
X14508143Y-16373214D01*
X14422428Y-16373214D01*
X14393857Y-16358929D01*
X14379571Y-16344643D01*
X14708143Y-16373214D02*
X14765285Y-16373214D01*
X14793857Y-16358929D01*
X14808143Y-16344643D01*
X14836714Y-16301786D01*
X14851000Y-16244643D01*
X14851000Y-16130357D01*
X14836714Y-16101786D01*
X14822428Y-16087500D01*
X14793857Y-16073214D01*
X14736714Y-16073214D01*
X14708143Y-16087500D01*
X14693857Y-16101786D01*
X14679571Y-16130357D01*
X14679571Y-16201786D01*
X14693857Y-16230357D01*
X14708143Y-16244643D01*
X14736714Y-16258929D01*
X14793857Y-16258929D01*
X14822428Y-16244643D01*
X14836714Y-16230357D01*
X14851000Y-16201786D01*
X14965286Y-16073214D02*
X14965286Y-16130357D01*
X15079571Y-16073214D02*
X15079571Y-16130357D01*
X15522428Y-16487500D02*
X15508143Y-16473214D01*
X15479571Y-16430357D01*
X15465285Y-16401786D01*
X15451000Y-16358929D01*
X15436714Y-16287500D01*
X15436714Y-16230357D01*
X15451000Y-16158929D01*
X15465285Y-16116071D01*
X15479571Y-16087500D01*
X15508143Y-16044643D01*
X15522428Y-16030357D01*
X15622428Y-16101786D02*
X15636714Y-16087500D01*
X15665285Y-16073214D01*
X15736714Y-16073214D01*
X15765285Y-16087500D01*
X15779571Y-16101786D01*
X15793857Y-16130357D01*
X15793857Y-16158929D01*
X15779571Y-16201786D01*
X15608143Y-16373214D01*
X15793857Y-16373214D01*
X15979571Y-16073214D02*
X16008143Y-16073214D01*
X16036714Y-16087500D01*
X16051000Y-16101786D01*
X16065285Y-16130357D01*
X16079571Y-16187500D01*
X16079571Y-16258929D01*
X16065285Y-16316071D01*
X16051000Y-16344643D01*
X16036714Y-16358929D01*
X16008143Y-16373214D01*
X15979571Y-16373214D01*
X15951000Y-16358929D01*
X15936714Y-16344643D01*
X15922428Y-16316071D01*
X15908143Y-16258929D01*
X15908143Y-16187500D01*
X15922428Y-16130357D01*
X15936714Y-16101786D01*
X15951000Y-16087500D01*
X15979571Y-16073214D01*
X16436714Y-16373214D02*
X16436714Y-16073214D01*
X16565285Y-16373214D02*
X16565285Y-16216071D01*
X16551000Y-16187500D01*
X16522428Y-16173214D01*
X16479571Y-16173214D01*
X16451000Y-16187500D01*
X16436714Y-16201786D01*
X16751000Y-16373214D02*
X16722428Y-16358929D01*
X16708143Y-16344643D01*
X16693857Y-16316071D01*
X16693857Y-16230357D01*
X16708143Y-16201786D01*
X16722428Y-16187500D01*
X16751000Y-16173214D01*
X16793857Y-16173214D01*
X16822428Y-16187500D01*
X16836714Y-16201786D01*
X16851000Y-16230357D01*
X16851000Y-16316071D01*
X16836714Y-16344643D01*
X16822428Y-16358929D01*
X16793857Y-16373214D01*
X16751000Y-16373214D01*
X17022428Y-16373214D02*
X16993857Y-16358929D01*
X16979571Y-16330357D01*
X16979571Y-16073214D01*
X17251000Y-16358929D02*
X17222429Y-16373214D01*
X17165286Y-16373214D01*
X17136714Y-16358929D01*
X17122429Y-16330357D01*
X17122429Y-16216071D01*
X17136714Y-16187500D01*
X17165286Y-16173214D01*
X17222429Y-16173214D01*
X17251000Y-16187500D01*
X17265286Y-16216071D01*
X17265286Y-16244643D01*
X17122429Y-16273214D01*
X17379571Y-16358929D02*
X17408143Y-16373214D01*
X17465286Y-16373214D01*
X17493857Y-16358929D01*
X17508143Y-16330357D01*
X17508143Y-16316071D01*
X17493857Y-16287500D01*
X17465286Y-16273214D01*
X17422429Y-16273214D01*
X17393857Y-16258929D01*
X17379571Y-16230357D01*
X17379571Y-16216071D01*
X17393857Y-16187500D01*
X17422429Y-16173214D01*
X17465286Y-16173214D01*
X17493857Y-16187500D01*
X17608143Y-16487500D02*
X17622429Y-16473214D01*
X17651000Y-16430357D01*
X17665286Y-16401786D01*
X17679571Y-16358929D01*
X17693857Y-16287500D01*
X17693857Y-16230357D01*
X17679571Y-16158929D01*
X17665286Y-16116071D01*
X17651000Y-16087500D01*
X17622429Y-16044643D01*
X17608143Y-16030357D01*
M02*
