M48
;DRILL file {KiCad 4.0.7-e1-6374~58~ubuntu16.04.1} date Wed Aug  2 10:43:51 2017
;FORMAT={-:-/ absolute / inch / decimal}
FMAT,2
INCH,TZ
T1C0.016
T2C0.030
T3C0.039
T4C0.087
%
G90
G05
M72
T1
X4.5Y-4.75
X4.55Y-5.15
X4.675Y-4.65
X4.75Y-4.725
X4.775Y-4.65
X4.85Y-4.575
X4.85Y-5.25
X4.875Y-5.05
X4.925Y-4.425
X4.925Y-5.075
X4.95Y-4.925
X4.975Y-4.8
X5.Y-4.7
X5.Y-5.15
X5.025Y-4.625
X5.025Y-4.675
X5.025Y-4.925
X5.025Y-5.1
X5.025Y-5.45
X5.05Y-4.45
X5.05Y-4.6
X5.05Y-4.95
X5.125Y-4.575
X5.125Y-4.625
X5.175Y-4.625
X5.2Y-4.45
X5.225Y-4.975
X5.225Y-5.2
X5.25Y-4.875
X5.25Y-5.4
X5.3Y-4.5
X5.3Y-4.65
X5.3Y-4.875
X5.325Y-5.075
X5.325Y-5.45
X5.35Y-5.35
X5.3734Y-4.5874
X5.4Y-5.25
X5.4Y-5.5
X5.45Y-5.45
X5.475Y-4.5
X5.5Y-5.275
X5.5Y-5.425
X5.5Y-5.475
X5.525Y-4.7
X5.55Y-5.2
X5.575Y-4.575
X5.575Y-5.4
X5.6Y-4.375
X5.625Y-4.475
X5.7Y-4.575
X5.7Y-5.175
X5.7067Y-4.475
X5.8Y-4.475
X5.8Y-4.75
T2
X4.45Y-4.5
X4.45Y-4.5787
T3
X5.75Y-4.825
X5.75Y-4.925
X5.75Y-5.025
X5.75Y-5.125
X5.75Y-5.225
X5.75Y-5.325
X5.95Y-4.475
X5.95Y-5.55
X6.05Y-4.475
X6.05Y-5.55
X6.15Y-4.475
X6.15Y-5.55
X6.25Y-4.475
X6.25Y-5.55
X6.35Y-4.475
X6.35Y-5.55
X6.45Y-4.475
X6.45Y-5.55
X6.55Y-4.475
X6.55Y-5.55
T4
X4.375Y-5.6
T0
M30
